//Event file generated from Sappy .s format.
	#include "MPlayDef.event"

	#define	song0D_grp  voicegroup000
	#define	song0D_pri  0
	#define	song0D_rev  0
	#define	song0D_mvl  127
	#define	song0D_key  0
	#define	song0D_tbs  1
	#define	song0D_exg  0
	#define	song0D_cmp  1

	// .rodata
	//	song0D
	ALIGN 4


//**************** Track 1 (Midi-Chn.0) ****************//

song0D_001:
//  #01 //000   ----------------------------------------
 BYTE   KEYSH   song0D_key+0
 BYTE   TEMPO   136*song0D_tbs/2
 BYTE   VOICE   40
 BYTE   PAN   c_v+0
 BYTE   VOL   50*song0D_mvl/mxv
 BYTE   W96
//  #01 //001   ----------------------------------------
 BYTE   W96
//  #01 //002   ----------------------------------------
 BYTE   W96
//  #01 //003   ----------------------------------------
 BYTE   W96
//  #01 //004   ----------------------------------------
 BYTE   W96
//  #01 //005   ----------------------------------------
 BYTE   W96
//  #01 //006   ----------------------------------------
 BYTE   W96
//  #01 //007   ----------------------------------------
 BYTE   W96
//  #01 //008   ----------------------------------------
Label_01047C12:
 BYTE   W96
//  #01 //009   ----------------------------------------
 BYTE   W96
//  #01 //010   ----------------------------------------
 BYTE   W96
//  #01 //011   ----------------------------------------
 BYTE   W96
//  #01 //012   ----------------------------------------
 BYTE   N44  Cn3  v084
 BYTE   W48
 BYTE   N07  Fn2
 BYTE   W08
 BYTE   Gs2
 BYTE   W08
 BYTE   Cn3
 BYTE   W08
 BYTE   Ds3
 BYTE   W08
 BYTE   Cn3
 BYTE   W08
 BYTE   Gs2
 BYTE   W08
//  #01 //013   ----------------------------------------
 BYTE   N23  Cs3
 BYTE   W24
 BYTE   N07  Fn2
 BYTE   W08
 BYTE   Gs2
 BYTE   W08
 BYTE   Cs3
 BYTE   W08
 BYTE   N23  Ds3
 BYTE   W24
 BYTE   N07  Fn2
 BYTE   W08
 BYTE   Cn3
 BYTE   W08
 BYTE   Ds3
 BYTE   W08
//  #01 //014   ----------------------------------------
 BYTE   N78  Fn3
 BYTE   W80
 BYTE   N07  Fs3
 BYTE   W08
 BYTE   Fn3
 BYTE   W08
//  #01 //015   ----------------------------------------
 BYTE   N92  Ds3
 BYTE   W96
//  #01 //016   ----------------------------------------
 BYTE   N30
 BYTE   W32
 BYTE   N07  Fn3
 BYTE   W08
 BYTE   Ds3
 BYTE   W08
 BYTE   N44  Cs3
 BYTE   W48
//  #01 //017   ----------------------------------------
 BYTE   N30  Cn3
 BYTE   W32
 BYTE   N07  Cs3
 BYTE   W08
 BYTE   Cn3
 BYTE   W08
 BYTE   N44  As2
 BYTE   W48
//  #01 //018   ----------------------------------------
 BYTE   N30  Fn3
 BYTE   W32
 BYTE   N07  Fs3
 BYTE   W08
 BYTE   Fn3
 BYTE   W08
 BYTE   N44  Ds3
 BYTE   W48
//  #01 //019   ----------------------------------------
 BYTE   N30  Cs3
 BYTE   W32
 BYTE   N07  Ds3
 BYTE   W08
 BYTE   Cs3
 BYTE   W08
 BYTE   N44  Cn3
 BYTE   W48
//  #01 //020   ----------------------------------------
Label_01047C71:
 BYTE   N44  As2  v076
 BYTE   W48
 BYTE   N15  Fs2
 BYTE   W16
 BYTE   As2
 BYTE   W16
 BYTE   Fn3
 BYTE   W16
 BYTE   PEND 
//  #01 //021   ----------------------------------------
Label_01047C7D:
 BYTE   N44  Cn3  v076
 BYTE   W48
 BYTE   Gs2
 BYTE   W48
 BYTE   PEND 
//  #01 //022   ----------------------------------------
 BYTE   As2
 BYTE   W48
 BYTE   N15
 BYTE   W16
 BYTE   Cn3
 BYTE   W16
 BYTE   Cs3
 BYTE   W16
//  #01 //023   ----------------------------------------
 BYTE   PATT
  POIN2 Label_01047C7D
//  #01 //024   ----------------------------------------
 BYTE   PATT
  POIN2 Label_01047C71
//  #01 //025   ----------------------------------------
 BYTE   PATT
  POIN2 Label_01047C7D
//  #01 //026   ----------------------------------------
 BYTE   TIE  As2  v076
 BYTE   W96
//  #01 //027   ----------------------------------------
 BYTE   W72
 BYTE   N23  An2  v112
 BYTE   W23
 BYTE   EOT
 BYTE   As2
 BYTE   W01
//  #01 //028   ----------------------------------------
 BYTE   N60  An3  v127
 BYTE   W64
 BYTE   N15  Gn3
 BYTE   W16
 BYTE   Fn3
 BYTE   W16
//  #01 //029   ----------------------------------------
 BYTE   N23  En3
 BYTE   W24
 BYTE   Fn3
 BYTE   W24
 BYTE   Gn3
 BYTE   W24
 BYTE   Cn4
 BYTE   W24
//  #01 //030   ----------------------------------------
 BYTE   N44  Gn3
 BYTE   W48
 BYTE   N15  An3
 BYTE   W16
 BYTE   Gn3
 BYTE   W16
 BYTE   Fn3
 BYTE   W16
//  #01 //031   ----------------------------------------
 BYTE   N44  En3
 BYTE   W48
 BYTE   N23  Fn3
 BYTE   W24
 BYTE   N16  Dn3
 BYTE   W16
 BYTE   N07  Dn3  v096
 BYTE   W08
//  #01 //032   ----------------------------------------
 BYTE   W96
//  #01 //033   ----------------------------------------
 BYTE   W96
//  #01 //034   ----------------------------------------
 BYTE   W96
//  #01 //035   ----------------------------------------
 BYTE   W96
//  #01 //036   ----------------------------------------
 BYTE   W96
//  #01 //037   ----------------------------------------
 BYTE   W96
//  #01 //038   ----------------------------------------
 BYTE   W96
//  #01 //039   ----------------------------------------
 BYTE   W96
//  #01 //040   ----------------------------------------
 BYTE   W96
//  #01 //041   ----------------------------------------
 BYTE   W96
//  #01 //042   ----------------------------------------
 BYTE   W96
//  #01 //043   ----------------------------------------
 BYTE   W96
//  #01 //044   ----------------------------------------
 BYTE   W96
//  #01 //045   ----------------------------------------
 BYTE   W96
//  #01 //046   ----------------------------------------
 BYTE   W96
//  #01 //047   ----------------------------------------
 BYTE   W96
//  #01 //048   ----------------------------------------
 BYTE   N23  Gs3
 BYTE   W24
 BYTE   Fs3
 BYTE   W24
 BYTE   Cs3
 BYTE   W24
 BYTE   Ds3
 BYTE   W24
//  #01 //049   ----------------------------------------
 BYTE   Fs3
 BYTE   W24
 BYTE   En3
 BYTE   W24
 BYTE   Ds3
 BYTE   W24
 BYTE   En3
 BYTE   W24
//  #01 //050   ----------------------------------------
 BYTE   Bn2
 BYTE   W24
 BYTE   An2
 BYTE   W24
 BYTE   Gs2
 BYTE   W24
 BYTE   Fs2
 BYTE   W24
//  #01 //051   ----------------------------------------
 BYTE   TIE  Gs2
 BYTE   W96
//  #01 //052   ----------------------------------------
 BYTE   W92
 BYTE   W03
 BYTE   EOT
 BYTE   W01
//  #01 //053   ----------------------------------------
 BYTE   W96
//  #01 //054   ----------------------------------------
 BYTE   W96
//  #01 //055   ----------------------------------------
 BYTE   W96
//  #01 //056   ----------------------------------------
 BYTE   W96
//  #01 //057   ----------------------------------------
 BYTE   W96
//  #01 //058   ----------------------------------------
 BYTE   W96
//  #01 //059   ----------------------------------------
 BYTE   W96
//  #01 //060   ----------------------------------------
 BYTE   W96
//  #01 //061   ----------------------------------------
 BYTE   N44  As2  v112
 BYTE   W48
 BYTE   Fn3
 BYTE   W48
//  #01 //062   ----------------------------------------
 BYTE   N44
 BYTE   W48
 BYTE   N23  Ds3
 BYTE   W24
 BYTE   Cs3
 BYTE   W24
//  #01 //063   ----------------------------------------
 BYTE   N32
 BYTE   W36
 BYTE   N11  Cn3
 BYTE   W12
 BYTE   N32
 BYTE   W36
 BYTE   N11  Fs3
 BYTE   W12
//  #01 //064   ----------------------------------------
 BYTE   N32
 BYTE   W36
 BYTE   N11  Fn3
 BYTE   W12
 BYTE   N44
 BYTE   W48
//  #01 //065   ----------------------------------------
 BYTE   As2
 BYTE   W60
 BYTE   N11
 BYTE   W12
 BYTE   Cs3
 BYTE   W12
 BYTE   Fn3
 BYTE   W12
//  #01 //066   ----------------------------------------
 BYTE   N44  Gs3
 BYTE   W48
 BYTE   N23  Fs3
 BYTE   W24
 BYTE   Fn3
 BYTE   W24
//  #01 //067   ----------------------------------------
 BYTE   N92
 BYTE   W96
//  #01 //068   ----------------------------------------
 BYTE   N32  Cs3
 BYTE   W36
 BYTE   N11  Cn3
 BYTE   W12
 BYTE   N44
 BYTE   W48
//  #01 //069   ----------------------------------------
 BYTE   W96
//  #01 //070   ----------------------------------------
 BYTE   W24
 BYTE   N68  Ds3  v080
 BYTE   W72
//  #01 //071   ----------------------------------------
 BYTE   W96
//  #01 //072   ----------------------------------------
 BYTE   W96
//  #01 //073   ----------------------------------------
 BYTE   W96
//  #01 //074   ----------------------------------------
 BYTE   W48
 BYTE   N11  As2
 BYTE   W24
 BYTE   As2  v127
 BYTE   W24
//  #01 //075   ----------------------------------------
 BYTE   N44  Fn3
 BYTE   W48
 BYTE   N15
 BYTE   W16
 BYTE   Ds3
 BYTE   W16
 BYTE   Cs3
 BYTE   W16
//  #01 //076   ----------------------------------------
 BYTE   N23  Cn3
 BYTE   W24
 BYTE   Cs3
 BYTE   W24
 BYTE   Ds3
 BYTE   W24
 BYTE   Gs3
 BYTE   W24
//  #01 //077   ----------------------------------------
 BYTE   N15  As3
 BYTE   W16
 BYTE   N07  Cn4
 BYTE   W08
 BYTE   N44  Gs3
 BYTE   W48
 BYTE   N23  Fn3
 BYTE   W24
//  #01 //078   ----------------------------------------
 BYTE   N68  As3
 BYTE   W48
 BYTE   N44  As2  v080
 BYTE   W48
//  #01 //079   ----------------------------------------
 BYTE   W96
//  #01 //080   ----------------------------------------
 BYTE   W96
//  #01 //081   ----------------------------------------
 BYTE   W96
//  #01 //082   ----------------------------------------
 BYTE   W96
//  #01 //083   ----------------------------------------
 BYTE   W96
//  #01 //084   ----------------------------------------
 BYTE   W96
//  #01 //085   ----------------------------------------
 BYTE   W96
//  #01 //086   ----------------------------------------
 BYTE   W96
//  #01 //087   ----------------------------------------
 BYTE   W96
//  #01 //088   ----------------------------------------
 BYTE   W96
//  #01 //089   ----------------------------------------
 BYTE   W96
//  #01 //090   ----------------------------------------
 BYTE   W96
//  #01 //091   ----------------------------------------
 BYTE   W96
//  #01 //092   ----------------------------------------
 BYTE   W96
//  #01 //093   ----------------------------------------
 BYTE   W96
//  #01 //094   ----------------------------------------
 BYTE   TEMPO   136*song0D_tbs/2
 BYTE   W96
//  #01 //095   ----------------------------------------
 BYTE   W96
//  #01 //096   ----------------------------------------
 BYTE   W96
//  #01 //097   ----------------------------------------
 BYTE   W96
//  #01 //098   ----------------------------------------
 BYTE   W96
//  #01 //099   ----------------------------------------
 BYTE   W96
//  #01 //100   ----------------------------------------
 BYTE   W96
//  #01 //101   ----------------------------------------
 BYTE   W96
//  #01 //102   ----------------------------------------
 BYTE   GoTo
  POIN2 Label_01047C12
 BYTE   FINE

//**************** Track 2 (Midi-Chn.1) ****************//

song0D_002:
//  #02 //000   ----------------------------------------
 BYTE   VOL   50*song0D_mvl/mxv
 BYTE   KEYSH   song0D_key+0
 BYTE   VOICE   57
 BYTE   W96
//  #02 //001   ----------------------------------------
 BYTE   W96
//  #02 //002   ----------------------------------------
 BYTE   W96
//  #02 //003   ----------------------------------------
 BYTE   W96
//  #02 //004   ----------------------------------------
Label_015F39AA:
 BYTE   N44  Cn3  v127
 BYTE   W48
 BYTE   N07  Fn2
 BYTE   W08
 BYTE   Gs2
 BYTE   W08
 BYTE   Cn3
 BYTE   W08
 BYTE   Ds3
 BYTE   W08
 BYTE   Cn3
 BYTE   W08
 BYTE   Gs2
 BYTE   W08
 BYTE   PEND 
//  #02 //005   ----------------------------------------
Label_015F39BC:
 BYTE   N23  Cs3  v127
 BYTE   W24
 BYTE   N07  Fn2
 BYTE   W08
 BYTE   Gs2
 BYTE   W08
 BYTE   Cs3
 BYTE   W08
 BYTE   N23  Cn3
 BYTE   W24
 BYTE   N07  Fn2
 BYTE   W08
 BYTE   Gs2
 BYTE   W08
 BYTE   Cn3
 BYTE   W08
 BYTE   PEND 
//  #02 //006   ----------------------------------------
 BYTE   TIE  As2
 BYTE   W96
//  #02 //007   ----------------------------------------
 BYTE   W92
 BYTE   W03
 BYTE   EOT
 BYTE   W01
//  #02 //008   ----------------------------------------
Label_015F39D9:
//  #02 //009   ----------------------------------------
 BYTE   PATT
  POIN2 Label_015F39AA
//  #02 //010   ----------------------------------------
 BYTE   PATT
  POIN2 Label_015F39BC
//  #02 //011   ----------------------------------------
 BYTE   TIE  As2  v127
 BYTE   W96
//  #02 //012   ----------------------------------------
 BYTE   W92
 BYTE   W03
 BYTE   EOT
 BYTE   W01
//  #02 //013   ----------------------------------------
 BYTE   W96
//  #02 //014   ----------------------------------------
 BYTE   W96
//  #02 //015   ----------------------------------------
 BYTE   W96
//  #02 //016   ----------------------------------------
 BYTE   W96
//  #02 //017   ----------------------------------------
 BYTE   W96
//  #02 //018   ----------------------------------------
 BYTE   W96
//  #02 //019   ----------------------------------------
 BYTE   W96
//  #02 //020   ----------------------------------------
 BYTE   W96
//  #02 //021   ----------------------------------------
 BYTE   W96
//  #02 //022   ----------------------------------------
 BYTE   W96
//  #02 //023   ----------------------------------------
 BYTE   W96
//  #02 //024   ----------------------------------------
 BYTE   W96
//  #02 //025   ----------------------------------------
 BYTE   W96
//  #02 //026   ----------------------------------------
 BYTE   W96
//  #02 //027   ----------------------------------------
 BYTE   W96
//  #02 //028   ----------------------------------------
 BYTE   W96
//  #02 //029   ----------------------------------------
 BYTE   W96
//  #02 //030   ----------------------------------------
 BYTE   W96
//  #02 //031   ----------------------------------------
 BYTE   W96
//  #02 //032   ----------------------------------------
 BYTE   W96
//  #02 //033   ----------------------------------------
 BYTE   W96
//  #02 //034   ----------------------------------------
 BYTE   W96
//  #02 //035   ----------------------------------------
 BYTE   W96
//  #02 //036   ----------------------------------------
 BYTE   W96
//  #02 //037   ----------------------------------------
 BYTE   W96
//  #02 //038   ----------------------------------------
 BYTE   W96
//  #02 //039   ----------------------------------------
 BYTE   W96
//  #02 //040   ----------------------------------------
 BYTE   W72
 BYTE   N23  Dn3  v096
 BYTE   W24
//  #02 //041   ----------------------------------------
 BYTE   N60  An3  v127
 BYTE   W64
 BYTE   N15  Gn3
 BYTE   W16
 BYTE   Fn3
 BYTE   W16
//  #02 //042   ----------------------------------------
 BYTE   N23  En3
 BYTE   W24
 BYTE   Fn3
 BYTE   W24
 BYTE   Gn3
 BYTE   W24
 BYTE   Cn4
 BYTE   W24
//  #02 //043   ----------------------------------------
 BYTE   N07  Dn4
 BYTE   W16
 BYTE   En4
 BYTE   W08
 BYTE   N44  Cn4
 BYTE   W48
 BYTE   N24  An3
 BYTE   W24
//  #02 //044   ----------------------------------------
 BYTE   N92  Dn4
 BYTE   W96
//  #02 //045   ----------------------------------------
 BYTE   W96
//  #02 //046   ----------------------------------------
 BYTE   W96
//  #02 //047   ----------------------------------------
 BYTE   W96
//  #02 //048   ----------------------------------------
 BYTE   W96
//  #02 //049   ----------------------------------------
 BYTE   W96
//  #02 //050   ----------------------------------------
 BYTE   W96
//  #02 //051   ----------------------------------------
 BYTE   W96
//  #02 //052   ----------------------------------------
 BYTE   W96
//  #02 //053   ----------------------------------------
 BYTE   W96
//  #02 //054   ----------------------------------------
 BYTE   W96
//  #02 //055   ----------------------------------------
 BYTE   W96
//  #02 //056   ----------------------------------------
 BYTE   W96
//  #02 //057   ----------------------------------------
 BYTE   W96
//  #02 //058   ----------------------------------------
 BYTE   W96
//  #02 //059   ----------------------------------------
 BYTE   W96
//  #02 //060   ----------------------------------------
 BYTE   W96
//  #02 //061   ----------------------------------------
 BYTE   W96
//  #02 //062   ----------------------------------------
 BYTE   W96
//  #02 //063   ----------------------------------------
 BYTE   W96
//  #02 //064   ----------------------------------------
 BYTE   W96
//  #02 //065   ----------------------------------------
 BYTE   W96
//  #02 //066   ----------------------------------------
 BYTE   W96
//  #02 //067   ----------------------------------------
 BYTE   W96
//  #02 //068   ----------------------------------------
 BYTE   W96
//  #02 //069   ----------------------------------------
 BYTE   W96
//  #02 //070   ----------------------------------------
 BYTE   W96
//  #02 //071   ----------------------------------------
 BYTE   W72
 BYTE   N23  As2
 BYTE   W24
//  #02 //072   ----------------------------------------
 BYTE   N44  Fn3
 BYTE   W48
 BYTE   N15
 BYTE   W16
 BYTE   Ds3
 BYTE   W16
 BYTE   Cs3
 BYTE   W16
//  #02 //073   ----------------------------------------
 BYTE   N23  Cn3
 BYTE   W24
 BYTE   Cs3
 BYTE   W24
 BYTE   Ds3
 BYTE   W24
 BYTE   Gs3
 BYTE   W24
//  #02 //074   ----------------------------------------
 BYTE   TIE  Ds3
 BYTE   W96
//  #02 //075   ----------------------------------------
 BYTE   W44
 BYTE   W03
 BYTE   EOT
 BYTE   W48
 BYTE   W01
//  #02 //076   ----------------------------------------
 BYTE   W96
//  #02 //077   ----------------------------------------
 BYTE   W96
//  #02 //078   ----------------------------------------
 BYTE   W96
//  #02 //079   ----------------------------------------
 BYTE   W96
//  #02 //080   ----------------------------------------
 BYTE   W96
//  #02 //081   ----------------------------------------
 BYTE   W96
//  #02 //082   ----------------------------------------
 BYTE   W96
//  #02 //083   ----------------------------------------
 BYTE   W96
//  #02 //084   ----------------------------------------
 BYTE   W96
//  #02 //085   ----------------------------------------
 BYTE   W96
//  #02 //086   ----------------------------------------
 BYTE   W96
//  #02 //087   ----------------------------------------
 BYTE   W96
//  #02 //088   ----------------------------------------
 BYTE   W96
//  #02 //089   ----------------------------------------
 BYTE   W96
//  #02 //090   ----------------------------------------
 BYTE   W96
//  #02 //091   ----------------------------------------
 BYTE   W96
//  #02 //092   ----------------------------------------
 BYTE   W96
//  #02 //093   ----------------------------------------
 BYTE   W96
//  #02 //094   ----------------------------------------
 BYTE   W96
//  #02 //095   ----------------------------------------
 BYTE   W96
//  #02 //096   ----------------------------------------
 BYTE   W96
//  #02 //097   ----------------------------------------
 BYTE   W96
//  #02 //098   ----------------------------------------
 BYTE   W96
//  #02 //099   ----------------------------------------
 BYTE   N44  Cn3  v104
 BYTE   W48
 BYTE   N07  Fn2
 BYTE   W08
 BYTE   Gs2
 BYTE   W08
 BYTE   Cn3
 BYTE   W08
 BYTE   Ds3
 BYTE   W08
 BYTE   Cn3
 BYTE   W08
 BYTE   Gs2
 BYTE   W08
//  #02 //100   ----------------------------------------
 BYTE   N23  Cs3
 BYTE   W24
 BYTE   N07  Fn2
 BYTE   W08
 BYTE   Gs2
 BYTE   W08
 BYTE   Cs3
 BYTE   W08
 BYTE   N23  Cn3
 BYTE   W24
 BYTE   N07  Fn2
 BYTE   W08
 BYTE   Gs2
 BYTE   W08
 BYTE   Cn3
 BYTE   W08
//  #02 //101   ----------------------------------------
 BYTE   TIE  As2
 BYTE   W96
//  #02 //102   ----------------------------------------
 BYTE   W92
 BYTE   W03
 BYTE   EOT
 BYTE   W01
//  #02 //103   ----------------------------------------
 BYTE   GoTo
  POIN2 Label_015F39D9
 BYTE   FINE

//**************** Track 3 (Midi-Chn.2) ****************//

song0D_003:
//  #03 //000   ----------------------------------------
 BYTE   KEYSH   song0D_key+0
 BYTE   VOICE   110
 BYTE   PAN   c_v+0
 BYTE   VOL   59*song0D_mvl/mxv
 BYTE   N07  Ds3  v048
 BYTE   W08
 BYTE   Fn3
 BYTE   W08
 BYTE   Gs3
 BYTE   W08
 BYTE   Cn4
 BYTE   W08
 BYTE   Cs4
 BYTE   W08
 BYTE   Ds4
 BYTE   W08
 BYTE   Gs4
 BYTE   W08
 BYTE   Ds4
 BYTE   W08
 BYTE   Cs4
 BYTE   W08
 BYTE   Cn4
 BYTE   W08
 BYTE   Gs3
 BYTE   W08
 BYTE   Fn3
 BYTE   W08
//  #03 //001   ----------------------------------------
Label_015F3ACE:
 BYTE   N07  Ds3  v048
 BYTE   W08
 BYTE   Fn3
 BYTE   W08
 BYTE   Gs3
 BYTE   W08
 BYTE   Cn4
 BYTE   W08
 BYTE   Cs4
 BYTE   W08
 BYTE   Ds4
 BYTE   W08
 BYTE   Gs4
 BYTE   W08
 BYTE   Ds4
 BYTE   W08
 BYTE   Cs4
 BYTE   W08
 BYTE   Cn4
 BYTE   W08
 BYTE   Gs3
 BYTE   W08
 BYTE   Fn3
 BYTE   W08
 BYTE   PEND 
//  #03 //002   ----------------------------------------
 BYTE   PATT
  POIN2 Label_015F3ACE
//  #03 //003   ----------------------------------------
 BYTE   PATT
  POIN2 Label_015F3ACE
//  #03 //004   ----------------------------------------
 BYTE   PATT
  POIN2 Label_015F3ACE
//  #03 //005   ----------------------------------------
 BYTE   PATT
  POIN2 Label_015F3ACE
//  #03 //006   ----------------------------------------
 BYTE   PATT
  POIN2 Label_015F3ACE
//  #03 //007   ----------------------------------------
 BYTE   PATT
  POIN2 Label_015F3ACE
//  #03 //008   ----------------------------------------
Label_015F3B07:
//  #03 //009   ----------------------------------------
 BYTE   PATT
  POIN2 Label_015F3ACE
//  #03 //010   ----------------------------------------
 BYTE   PATT
  POIN2 Label_015F3ACE
//  #03 //011   ----------------------------------------
 BYTE   PATT
  POIN2 Label_015F3ACE
//  #03 //012   ----------------------------------------
 BYTE   PATT
  POIN2 Label_015F3ACE
//  #03 //013   ----------------------------------------
Label_015F3B1B:
 BYTE   N07  Ds3  v056
 BYTE   W08
 BYTE   Fn3
 BYTE   W08
 BYTE   Gs3
 BYTE   W08
 BYTE   Cn4
 BYTE   W08
 BYTE   Cs4
 BYTE   W08
 BYTE   Ds4
 BYTE   W08
 BYTE   Gs4
 BYTE   W08
 BYTE   Ds4
 BYTE   W08
 BYTE   Cs4
 BYTE   W08
 BYTE   Cn4
 BYTE   W08
 BYTE   Gs3
 BYTE   W08
 BYTE   Fn3
 BYTE   W08
 BYTE   PEND 
//  #03 //014   ----------------------------------------
 BYTE   PATT
  POIN2 Label_015F3B1B
//  #03 //015   ----------------------------------------
 BYTE   PATT
  POIN2 Label_015F3B1B
//  #03 //016   ----------------------------------------
 BYTE   PATT
  POIN2 Label_015F3B1B
//  #03 //017   ----------------------------------------
 BYTE   PATT
  POIN2 Label_015F3B1B
//  #03 //018   ----------------------------------------
 BYTE   PATT
  POIN2 Label_015F3B1B
//  #03 //019   ----------------------------------------
 BYTE   PATT
  POIN2 Label_015F3B1B
//  #03 //020   ----------------------------------------
 BYTE   PATT
  POIN2 Label_015F3B1B
//  #03 //021   ----------------------------------------
Label_015F3B59:
 BYTE   W24
 BYTE   N44  Ds3  v064
 BYTE   W48
 BYTE   N44
 BYTE   W24
 BYTE   PEND 
//  #03 //022   ----------------------------------------
Label_015F3B61:
 BYTE   W24
 BYTE   N44  Fn3  v064
 BYTE   W48
 BYTE   N44
 BYTE   W24
 BYTE   PEND 
//  #03 //023   ----------------------------------------
 BYTE   W24
 BYTE   Fs3
 BYTE   W48
 BYTE   N44
 BYTE   W24
//  #03 //024   ----------------------------------------
 BYTE   PATT
  POIN2 Label_015F3B61
//  #03 //025   ----------------------------------------
 BYTE   PATT
  POIN2 Label_015F3B59
//  #03 //026   ----------------------------------------
 BYTE   PATT
  POIN2 Label_015F3B61
//  #03 //027   ----------------------------------------
 BYTE   W24
 BYTE   N44  Gn3  v064
 BYTE   W48
 BYTE   N23
 BYTE   W24
//  #03 //028   ----------------------------------------
 BYTE   N44  Fn4  v076
 BYTE   W48
 BYTE   N23  Gn4  v096
 BYTE   W48
//  #03 //029   ----------------------------------------
 BYTE   N11  As3
 BYTE   W24
 BYTE   N03
 BYTE   W08
 BYTE   N03
 BYTE   W08
 BYTE   N03
 BYTE   W08
 BYTE   N11  Cn4
 BYTE   W24
 BYTE   N11
 BYTE   W24
//  #03 //030   ----------------------------------------
 BYTE   Gn3
 BYTE   W24
 BYTE   N11
 BYTE   W24
 BYTE   Fn3
 BYTE   W24
 BYTE   N11
 BYTE   W24
//  #03 //031   ----------------------------------------
Label_015F3BA2:
 BYTE   N11  Fn3  v096
 BYTE   W24
 BYTE   N03
 BYTE   W08
 BYTE   N03
 BYTE   W08
 BYTE   N03
 BYTE   W08
 BYTE   N11  En3
 BYTE   W24
 BYTE   N11
 BYTE   W24
 BYTE   PEND 
//  #03 //032   ----------------------------------------
 BYTE   Gn3
 BYTE   W24
 BYTE   N11
 BYTE   W24
 BYTE   N23  Fn3
 BYTE   W24
 BYTE   N07  En4
 BYTE   W08
 BYTE   Fn4
 BYTE   W08
 BYTE   Dn4
 BYTE   W08
//  #03 //033   ----------------------------------------
 BYTE   N60  An3  v092
 BYTE   W64
 BYTE   N15  Gn3
 BYTE   W16
 BYTE   Fn3
 BYTE   W16
//  #03 //034   ----------------------------------------
 BYTE   N23  En3
 BYTE   W24
 BYTE   Fn3
 BYTE   W24
 BYTE   Gn3
 BYTE   W24
 BYTE   Cn4
 BYTE   W24
//  #03 //035   ----------------------------------------
 BYTE   N15  Dn4
 BYTE   W16
 BYTE   N07  En4
 BYTE   W08
 BYTE   N44  Cn4
 BYTE   W48
 BYTE   N23  An3
 BYTE   W24
//  #03 //036   ----------------------------------------
 BYTE   N92  Dn4
 BYTE   W96
//  #03 //037   ----------------------------------------
 BYTE   PATT
  POIN2 Label_015F3BA2
//  #03 //038   ----------------------------------------
 BYTE   N11  Gn3  v096
 BYTE   W24
 BYTE   N03
 BYTE   W08
 BYTE   N03
 BYTE   W08
 BYTE   N03
 BYTE   W08
 BYTE   N11  Fn3
 BYTE   W24
 BYTE   N11
 BYTE   W24
//  #03 //039   ----------------------------------------
 BYTE   PATT
  POIN2 Label_015F3BA2
//  #03 //040   ----------------------------------------
 BYTE   N11  Gn3  v096
 BYTE   W24
 BYTE   N11
 BYTE   W24
 BYTE   N23  Fn3
 BYTE   W48
//  #03 //041   ----------------------------------------
 BYTE   PATT
  POIN2 Label_015F3BA2
//  #03 //042   ----------------------------------------
 BYTE   N11  Gn3  v096
 BYTE   W24
 BYTE   N03
 BYTE   W08
 BYTE   N03
 BYTE   W08
 BYTE   N03
 BYTE   W08
 BYTE   N11  Fn3
 BYTE   W24
 BYTE   N23  Cn3  v127
 BYTE   N11  Fn3  v096
 BYTE   W24
//  #03 //043   ----------------------------------------
 BYTE   N15  Dn3
 BYTE   N11  Fn3
 BYTE   W16
 BYTE   N07  En3
 BYTE   W08
 BYTE   N44  Cn3
 BYTE   N03  Fn3
 BYTE   W08
 BYTE   N03
 BYTE   W08
 BYTE   N03
 BYTE   W08
 BYTE   N11  En3
 BYTE   W24
 BYTE   N11
 BYTE   W24
//  #03 //044   ----------------------------------------
 BYTE   N92  Dn3
 BYTE   N11  En3
 BYTE   W24
 BYTE   N11
 BYTE   W24
 BYTE   N23
 BYTE   W48
//  #03 //045   ----------------------------------------
 BYTE   N44  An4  v064
 BYTE   W48
 BYTE   Gn4
 BYTE   W48
//  #03 //046   ----------------------------------------
 BYTE   N23
 BYTE   W24
 BYTE   Fn4
 BYTE   W24
 BYTE   N44  Cn5
 BYTE   W48
//  #03 //047   ----------------------------------------
 BYTE   N23
 BYTE   W24
 BYTE   As4
 BYTE   W24
 BYTE   N44  Fn5
 BYTE   W48
//  #03 //048   ----------------------------------------
 BYTE   Ds5
 BYTE   W48
 BYTE   Gs4
 BYTE   W48
//  #03 //049   ----------------------------------------
 BYTE   N23
 BYTE   W24
 BYTE   Fs4
 BYTE   W24
 BYTE   Cs4
 BYTE   W24
 BYTE   Ds4
 BYTE   W24
//  #03 //050   ----------------------------------------
 BYTE   Fs4
 BYTE   W24
 BYTE   En4
 BYTE   W24
 BYTE   Ds4
 BYTE   W24
 BYTE   En4
 BYTE   W24
//  #03 //051   ----------------------------------------
 BYTE   Bn3
 BYTE   W24
 BYTE   An3
 BYTE   W24
 BYTE   Gs3
 BYTE   W24
 BYTE   Fs3
 BYTE   W24
//  #03 //052   ----------------------------------------
 BYTE   TIE  Gs3
 BYTE   W96
//  #03 //053   ----------------------------------------
 BYTE   W92
 BYTE   W03
 BYTE   EOT
 BYTE   W01
//  #03 //054   ----------------------------------------
 BYTE   N44  As3
 BYTE   W48
 BYTE   Fn4
 BYTE   W48
//  #03 //055   ----------------------------------------
 BYTE   N44
 BYTE   W48
 BYTE   N22  Ds4
 BYTE   W24
 BYTE   Cs4
 BYTE   W24
//  #03 //056   ----------------------------------------
 BYTE   N32
 BYTE   W36
 BYTE   N11  Bn3
 BYTE   W12
 BYTE   N32
 BYTE   W36
 BYTE   N11  Fs4
 BYTE   W12
//  #03 //057   ----------------------------------------
 BYTE   N32
 BYTE   W36
 BYTE   N11  Fn4
 BYTE   W12
 BYTE   N44
 BYTE   W48
//  #03 //058   ----------------------------------------
 BYTE   As3
 BYTE   W60
 BYTE   N11
 BYTE   W12
 BYTE   Cs4
 BYTE   W12
 BYTE   Fn4
 BYTE   W12
//  #03 //059   ----------------------------------------
 BYTE   N44  Gs4
 BYTE   W48
 BYTE   N22  Fs4
 BYTE   W24
 BYTE   Fn4
 BYTE   W24
//  #03 //060   ----------------------------------------
 BYTE   N22
 BYTE   W24
 BYTE   Ds4  v068
 BYTE   W24
 BYTE   N22
 BYTE   W24
 BYTE   Cs4  v072
 BYTE   W24
//  #03 //061   ----------------------------------------
 BYTE   N32
 BYTE   W36
 BYTE   N11  Cn4  v076
 BYTE   W12
 BYTE   N48
 BYTE   W48
//  #03 //062   ----------------------------------------
 BYTE   N44  As3  v092
 BYTE   W48
 BYTE   Fn4
 BYTE   W48
//  #03 //063   ----------------------------------------
 BYTE   N44
 BYTE   W48
 BYTE   N23  Ds4
 BYTE   W24
 BYTE   Cs4
 BYTE   W24
//  #03 //064   ----------------------------------------
 BYTE   N32
 BYTE   W36
 BYTE   N11  Cn4
 BYTE   W12
 BYTE   N32
 BYTE   W36
 BYTE   N11  Fs4
 BYTE   W12
//  #03 //065   ----------------------------------------
 BYTE   N32
 BYTE   W36
 BYTE   N11  Fn4
 BYTE   W12
 BYTE   N44
 BYTE   W48
//  #03 //066   ----------------------------------------
 BYTE   As3
 BYTE   W60
 BYTE   N11
 BYTE   W12
 BYTE   Cs4
 BYTE   W12
 BYTE   Fn4
 BYTE   W12
//  #03 //067   ----------------------------------------
 BYTE   N44  Gs4
 BYTE   W48
 BYTE   N23  Fs4
 BYTE   W24
 BYTE   Fn4
 BYTE   W24
//  #03 //068   ----------------------------------------
 BYTE   N92
 BYTE   W96
//  #03 //069   ----------------------------------------
 BYTE   N32  Cs4
 BYTE   W36
 BYTE   N11  Cn4
 BYTE   W12
 BYTE   N44
 BYTE   W48
//  #03 //070   ----------------------------------------
 BYTE   W96
//  #03 //071   ----------------------------------------
 BYTE   W24
 BYTE   N68  Cn3  v076
 BYTE   W72
//  #03 //072   ----------------------------------------
Label_015F3CEF:
 BYTE   N11  Fs3  v080
 BYTE   W24
 BYTE   N03
 BYTE   W08
 BYTE   N03
 BYTE   W08
 BYTE   N03
 BYTE   W08
 BYTE   N11
 BYTE   W24
 BYTE   N11
 BYTE   W24
 BYTE   PEND 
//  #03 //073   ----------------------------------------
Label_015F3CFE:
 BYTE   N11  Gs3  v080
 BYTE   W24
 BYTE   N03
 BYTE   W08
 BYTE   N03
 BYTE   W08
 BYTE   N03
 BYTE   W08
 BYTE   N11
 BYTE   W24
 BYTE   N11
 BYTE   W24
 BYTE   PEND 
//  #03 //074   ----------------------------------------
Label_015F3D0D:
 BYTE   N11  As3  v080
 BYTE   W24
 BYTE   N03
 BYTE   W08
 BYTE   N03
 BYTE   W08
 BYTE   N03
 BYTE   W08
 BYTE   N11
 BYTE   W24
 BYTE   N11
 BYTE   W24
 BYTE   PEND 
//  #03 //075   ----------------------------------------
 BYTE   PATT
  POIN2 Label_015F3D0D
//  #03 //076   ----------------------------------------
 BYTE   PATT
  POIN2 Label_015F3CEF
//  #03 //077   ----------------------------------------
 BYTE   PATT
  POIN2 Label_015F3CFE
//  #03 //078   ----------------------------------------
 BYTE   N11  Fn3  v080
 BYTE   W24
 BYTE   N03
 BYTE   W08
 BYTE   N03
 BYTE   W08
 BYTE   N03
 BYTE   W08
 BYTE   N11
 BYTE   W24
 BYTE   N11
 BYTE   W24
//  #03 //079   ----------------------------------------
 BYTE   As3
 BYTE   W24
 BYTE   N11
 BYTE   W24
 BYTE   N44
 BYTE   W48
//  #03 //080   ----------------------------------------
 BYTE   W96
//  #03 //081   ----------------------------------------
 BYTE   W96
//  #03 //082   ----------------------------------------
 BYTE   W96
//  #03 //083   ----------------------------------------
 BYTE   W96
//  #03 //084   ----------------------------------------
 BYTE   W96
//  #03 //085   ----------------------------------------
 BYTE   W96
//  #03 //086   ----------------------------------------
 BYTE   W96
//  #03 //087   ----------------------------------------
 BYTE   W96
//  #03 //088   ----------------------------------------
 BYTE   W96
//  #03 //089   ----------------------------------------
 BYTE   W96
//  #03 //090   ----------------------------------------
 BYTE   W96
//  #03 //091   ----------------------------------------
 BYTE   W48
 BYTE   Cn3  v104
 BYTE   W48
//  #03 //092   ----------------------------------------
 BYTE   Cs3
 BYTE   W48
 BYTE   Fn3
 BYTE   W48
//  #03 //093   ----------------------------------------
 BYTE   N78
 BYTE   W80
 BYTE   N07  Fs3
 BYTE   W08
 BYTE   Fn3
 BYTE   W08
//  #03 //094   ----------------------------------------
 BYTE   N92  Ds3
 BYTE   W96
//  #03 //095   ----------------------------------------
Label_015F3D5C:
 BYTE   N07  Ds3  v096
 BYTE   W08
 BYTE   Fn3
 BYTE   W08
 BYTE   Gs3
 BYTE   W08
 BYTE   Cn4
 BYTE   W08
 BYTE   Cs4
 BYTE   W08
 BYTE   Ds4
 BYTE   W08
 BYTE   Gs4
 BYTE   W08
 BYTE   Ds4
 BYTE   W08
 BYTE   Cs4
 BYTE   W08
 BYTE   Cn4
 BYTE   W08
 BYTE   Gs3
 BYTE   W08
 BYTE   Fn3
 BYTE   W08
 BYTE   PEND 
//  #03 //096   ----------------------------------------
 BYTE   PATT
  POIN2 Label_015F3D5C
//  #03 //097   ----------------------------------------
 BYTE   PATT
  POIN2 Label_015F3D5C
//  #03 //098   ----------------------------------------
 BYTE   PATT
  POIN2 Label_015F3D5C
//  #03 //099   ----------------------------------------
 BYTE   PATT
  POIN2 Label_015F3D5C
//  #03 //100   ----------------------------------------
 BYTE   PATT
  POIN2 Label_015F3D5C
//  #03 //101   ----------------------------------------
 BYTE   PATT
  POIN2 Label_015F3D5C
//  #03 //102   ----------------------------------------
 BYTE   PATT
  POIN2 Label_015F3D5C
//  #03 //103   ----------------------------------------
 BYTE   GoTo
  POIN2 Label_015F3B07
 BYTE   FINE

//**************** Track 4 (Midi-Chn.3) ****************//

song0D_004:
//  #04 //000   ----------------------------------------
 BYTE   KEYSH   song0D_key+0
 BYTE   VOICE   48
 BYTE   VOL   30*song0D_mvl/mxv
 BYTE   PAN   c_v+0
 BYTE   N11  Cn3  v080
 BYTE   W24
 BYTE   N03
 BYTE   W08
 BYTE   N03
 BYTE   W08
 BYTE   N03
 BYTE   W08
 BYTE   N11  As2
 BYTE   W24
 BYTE   N11
 BYTE   W24
//  #04 //001   ----------------------------------------
Label_015F3DB7:
 BYTE   N11  Cn3  v080
 BYTE   W24
 BYTE   N11
 BYTE   W24
 BYTE   As2
 BYTE   W24
 BYTE   N03
 BYTE   W08
 BYTE   N03
 BYTE   W08
 BYTE   N03
 BYTE   W08
 BYTE   PEND 
//  #04 //002   ----------------------------------------
Label_015F3DC6:
 BYTE   N11  Cn3  v080
 BYTE   W24
 BYTE   N03
 BYTE   W08
 BYTE   N03
 BYTE   W08
 BYTE   N03
 BYTE   W08
 BYTE   N11  As2
 BYTE   W24
 BYTE   N11
 BYTE   W24
 BYTE   PEND 
//  #04 //003   ----------------------------------------
Label_015F3DD6:
 BYTE   N11  Cs3  v080
 BYTE   W24
 BYTE   N11
 BYTE   W24
 BYTE   Cn3
 BYTE   W24
 BYTE   N03
 BYTE   W08
 BYTE   N03
 BYTE   W08
 BYTE   N03
 BYTE   W08
 BYTE   PEND 
//  #04 //004   ----------------------------------------
 BYTE   PATT
  POIN2 Label_015F3DC6
//  #04 //005   ----------------------------------------
 BYTE   PATT
  POIN2 Label_015F3DB7
//  #04 //006   ----------------------------------------
 BYTE   PATT
  POIN2 Label_015F3DC6
//  #04 //007   ----------------------------------------
 BYTE   PATT
  POIN2 Label_015F3DD6
//  #04 //008   ----------------------------------------
Label_015F3DF9:
//  #04 //009   ----------------------------------------
 BYTE   PATT
  POIN2 Label_015F3DC6
//  #04 //010   ----------------------------------------
 BYTE   PATT
  POIN2 Label_015F3DB7
//  #04 //011   ----------------------------------------
 BYTE   PATT
  POIN2 Label_015F3DC6
//  #04 //012   ----------------------------------------
 BYTE   PATT
  POIN2 Label_015F3DD6
//  #04 //013   ----------------------------------------
 BYTE   W96
//  #04 //014   ----------------------------------------
 BYTE   W96
//  #04 //015   ----------------------------------------
 BYTE   W96
//  #04 //016   ----------------------------------------
 BYTE   W96
//  #04 //017   ----------------------------------------
 BYTE   W96
//  #04 //018   ----------------------------------------
 BYTE   W96
//  #04 //019   ----------------------------------------
 BYTE   W96
//  #04 //020   ----------------------------------------
 BYTE   W96
//  #04 //021   ----------------------------------------
 BYTE   W96
//  #04 //022   ----------------------------------------
 BYTE   W96
//  #04 //023   ----------------------------------------
 BYTE   W96
//  #04 //024   ----------------------------------------
 BYTE   W96
//  #04 //025   ----------------------------------------
 BYTE   N44  As2  v096
 BYTE   W48
 BYTE   N15  Fs2
 BYTE   W16
 BYTE   As2
 BYTE   W16
 BYTE   Fn3
 BYTE   W16
//  #04 //026   ----------------------------------------
 BYTE   N44  Cn3
 BYTE   W48
 BYTE   Gs2
 BYTE   W48
//  #04 //027   ----------------------------------------
 BYTE   TIE  As2
 BYTE   W96
//  #04 //028   ----------------------------------------
 BYTE   W92
 BYTE   W03
 BYTE   EOT
 BYTE   W01
//  #04 //029   ----------------------------------------
 BYTE   N11  Dn3
 BYTE   W24
 BYTE   N03
 BYTE   W08
 BYTE   N03
 BYTE   W08
 BYTE   N03
 BYTE   W08
 BYTE   N11  En3
 BYTE   W24
 BYTE   N11
 BYTE   W24
//  #04 //030   ----------------------------------------
 BYTE   Cn3
 BYTE   W24
 BYTE   N11
 BYTE   W24
 BYTE   N11
 BYTE   W24
 BYTE   N11
 BYTE   W24
//  #04 //031   ----------------------------------------
 BYTE   Dn3
 BYTE   W24
 BYTE   N03
 BYTE   W08
 BYTE   N03
 BYTE   W08
 BYTE   N03
 BYTE   W08
 BYTE   N11  Cs3
 BYTE   W24
 BYTE   N11
 BYTE   W24
//  #04 //032   ----------------------------------------
 BYTE   Dn3
 BYTE   W24
 BYTE   N11
 BYTE   W24
 BYTE   N23
 BYTE   W48
//  #04 //033   ----------------------------------------
 BYTE   W96
//  #04 //034   ----------------------------------------
 BYTE   W96
//  #04 //035   ----------------------------------------
 BYTE   W96
//  #04 //036   ----------------------------------------
 BYTE   W96
//  #04 //037   ----------------------------------------
Label_015F3E5D:
 BYTE   N07  As2  v080
 BYTE   W08
 BYTE   Dn3
 BYTE   W08
 BYTE   Fn3
 BYTE   W08
 BYTE   An3
 BYTE   W08
 BYTE   Dn4
 BYTE   W08
 BYTE   Fn3
 BYTE   W08
 BYTE   Cn3
 BYTE   W08
 BYTE   En3
 BYTE   W08
 BYTE   Gn3
 BYTE   W08
 BYTE   An3
 BYTE   W08
 BYTE   Cn4
 BYTE   W08
 BYTE   Fn4
 BYTE   W08
 BYTE   PEND 
//  #04 //038   ----------------------------------------
 BYTE   Cn3
 BYTE   W08
 BYTE   En3
 BYTE   W08
 BYTE   Gn3
 BYTE   W08
 BYTE   Cn4
 BYTE   W08
 BYTE   En4
 BYTE   W08
 BYTE   Cn4
 BYTE   W08
 BYTE   En3
 BYTE   W08
 BYTE   En4
 BYTE   W08
 BYTE   Cn4
 BYTE   W08
 BYTE   En3
 BYTE   W08
 BYTE   Gn3
 BYTE   W08
 BYTE   An3
 BYTE   W08
//  #04 //039   ----------------------------------------
 BYTE   Dn3
 BYTE   W08
 BYTE   Fn3
 BYTE   W08
 BYTE   An3
 BYTE   W08
 BYTE   Gn3
 BYTE   W08
 BYTE   Cn4
 BYTE   W08
 BYTE   Gn3
 BYTE   W08
 BYTE   An2
 BYTE   W08
 BYTE   En3
 BYTE   W08
 BYTE   Cs3
 BYTE   W08
 BYTE   An2
 BYTE   W08
 BYTE   Gn3
 BYTE   W08
 BYTE   As3
 BYTE   W08
//  #04 //040   ----------------------------------------
 BYTE   An2
 BYTE   W08
 BYTE   En3
 BYTE   W08
 BYTE   Dn3
 BYTE   W08
 BYTE   En3
 BYTE   W08
 BYTE   Gn3
 BYTE   W08
 BYTE   Cn4
 BYTE   W08
 BYTE   Fn3
 BYTE   W08
 BYTE   En3
 BYTE   W08
 BYTE   En4
 BYTE   W08
 BYTE   N23  Dn4
 BYTE   W24
//  #04 //041   ----------------------------------------
 BYTE   PATT
  POIN2 Label_015F3E5D
//  #04 //042   ----------------------------------------
 BYTE   N07  Cn3  v080
 BYTE   W08
 BYTE   En3
 BYTE   W08
 BYTE   Gn3
 BYTE   W08
 BYTE   Cn4
 BYTE   W08
 BYTE   En4
 BYTE   W08
 BYTE   Cn4
 BYTE   W08
 BYTE   Gn4
 BYTE   W08
 BYTE   En4
 BYTE   W08
 BYTE   Cn4
 BYTE   W08
 BYTE   Gn3
 BYTE   W08
 BYTE   Cn4
 BYTE   W08
 BYTE   En3
 BYTE   W08
//  #04 //043   ----------------------------------------
 BYTE   Dn3
 BYTE   W08
 BYTE   Fn3
 BYTE   W08
 BYTE   An3
 BYTE   W08
 BYTE   Fn3
 BYTE   W08
 BYTE   Dn4
 BYTE   W08
 BYTE   Fn3
 BYTE   W08
 BYTE   En3
 BYTE   W08
 BYTE   An3
 BYTE   W08
 BYTE   Gn3
 BYTE   W08
 BYTE   En3
 BYTE   W08
 BYTE   Gn3
 BYTE   W08
 BYTE   An2
 BYTE   W08
//  #04 //044   ----------------------------------------
 BYTE   N07
 BYTE   W08
 BYTE   Cn3
 BYTE   W08
 BYTE   En3
 BYTE   W08
 BYTE   N07
 BYTE   W08
 BYTE   An3
 BYTE   W08
 BYTE   Cn4
 BYTE   W08
 BYTE   An3
 BYTE   W08
 BYTE   Cn4
 BYTE   W08
 BYTE   En4
 BYTE   W08
 BYTE   N23  Fn4
 BYTE   W24
//  #04 //045   ----------------------------------------
 BYTE   W96
//  #04 //046   ----------------------------------------
 BYTE   W96
//  #04 //047   ----------------------------------------
 BYTE   W96
//  #04 //048   ----------------------------------------
 BYTE   W96
//  #04 //049   ----------------------------------------
 BYTE   N44  Gs3  v052
 BYTE   W48
 BYTE   Fs3
 BYTE   W48
//  #04 //050   ----------------------------------------
 BYTE   N44
 BYTE   W48
 BYTE   En3
 BYTE   W48
//  #04 //051   ----------------------------------------
 BYTE   N44
 BYTE   W48
 BYTE   N44
 BYTE   W48
//  #04 //052   ----------------------------------------
 BYTE   N92  Ds3
 BYTE   W96
//  #04 //053   ----------------------------------------
 BYTE   W96
//  #04 //054   ----------------------------------------
Label_015F3F1F:
 BYTE   N44  As2  v012
 BYTE   W48
 BYTE   As2  v036
 BYTE   W48
 BYTE   PEND 
//  #04 //055   ----------------------------------------
Label_015F3F27:
 BYTE   N44  As2  v036
 BYTE   W48
 BYTE   N44
 BYTE   W48
 BYTE   PEND 
//  #04 //056   ----------------------------------------
Label_015F3F2E:
 BYTE   N44  Bn2  v036
 BYTE   W48
 BYTE   N44
 BYTE   W48
 BYTE   PEND 
//  #04 //057   ----------------------------------------
 BYTE   PATT
  POIN2 Label_015F3F2E
//  #04 //058   ----------------------------------------
 BYTE   PATT
  POIN2 Label_015F3F1F
//  #04 //059   ----------------------------------------
 BYTE   PATT
  POIN2 Label_015F3F27
//  #04 //060   ----------------------------------------
 BYTE   N44  Bn2  v036
 BYTE   W48
 BYTE   Bn2  v040
 BYTE   W48
//  #04 //061   ----------------------------------------
 BYTE   Fs2  v048
 BYTE   W48
 BYTE   Fn2  v056
 BYTE   W48
//  #04 //062   ----------------------------------------
 BYTE   W96
//  #04 //063   ----------------------------------------
 BYTE   W96
//  #04 //064   ----------------------------------------
 BYTE   W96
//  #04 //065   ----------------------------------------
 BYTE   W96
//  #04 //066   ----------------------------------------
 BYTE   W96
//  #04 //067   ----------------------------------------
 BYTE   W96
//  #04 //068   ----------------------------------------
 BYTE   W96
//  #04 //069   ----------------------------------------
 BYTE   W96
//  #04 //070   ----------------------------------------
 BYTE   W96
//  #04 //071   ----------------------------------------
 BYTE   W24
 BYTE   N68  An2  v076
 BYTE   W72
//  #04 //072   ----------------------------------------
Label_015F3F5F:
 BYTE   N11  As2  v080
 BYTE   W24
 BYTE   N03
 BYTE   W08
 BYTE   N03
 BYTE   W08
 BYTE   N03
 BYTE   W08
 BYTE   N11  Cs3
 BYTE   W24
 BYTE   N11
 BYTE   W24
 BYTE   PEND 
//  #04 //073   ----------------------------------------
 BYTE   Cn3
 BYTE   W24
 BYTE   N03
 BYTE   W08
 BYTE   N03
 BYTE   W08
 BYTE   N03
 BYTE   W08
 BYTE   N11  Ds3
 BYTE   W24
 BYTE   N11
 BYTE   W24
//  #04 //074   ----------------------------------------
 BYTE   Fn3
 BYTE   W24
 BYTE   N03
 BYTE   W08
 BYTE   N03
 BYTE   W08
 BYTE   N03
 BYTE   W08
 BYTE   N11
 BYTE   W24
 BYTE   N11
 BYTE   W24
//  #04 //075   ----------------------------------------
 BYTE   Ds3
 BYTE   W24
 BYTE   N03
 BYTE   W08
 BYTE   N03
 BYTE   W08
 BYTE   N03
 BYTE   W08
 BYTE   N11  Cs3
 BYTE   W24
 BYTE   Cn3
 BYTE   W24
//  #04 //076   ----------------------------------------
 BYTE   PATT
  POIN2 Label_015F3F5F
//  #04 //077   ----------------------------------------
 BYTE   N11  Cn3  v080
 BYTE   W24
 BYTE   N03
 BYTE   W08
 BYTE   N03
 BYTE   W08
 BYTE   N03
 BYTE   W08
 BYTE   N11  Ds3
 BYTE   W24
 BYTE   Cs3
 BYTE   W24
//  #04 //078   ----------------------------------------
 BYTE   Cn3
 BYTE   W24
 BYTE   N03
 BYTE   W08
 BYTE   N03
 BYTE   W08
 BYTE   N03
 BYTE   W08
 BYTE   N11  Cs3
 BYTE   W24
 BYTE   Cn3
 BYTE   W24
//  #04 //079   ----------------------------------------
 BYTE   Cs3
 BYTE   W24
 BYTE   N11
 BYTE   W24
 BYTE   N44
 BYTE   W48
//  #04 //080   ----------------------------------------
 BYTE   W96
//  #04 //081   ----------------------------------------
 BYTE   W96
//  #04 //082   ----------------------------------------
 BYTE   W96
//  #04 //083   ----------------------------------------
 BYTE   W96
//  #04 //084   ----------------------------------------
 BYTE   W96
//  #04 //085   ----------------------------------------
 BYTE   W96
//  #04 //086   ----------------------------------------
 BYTE   W96
//  #04 //087   ----------------------------------------
 BYTE   N92  Ds3  v036
 BYTE   W96
//  #04 //088   ----------------------------------------
 BYTE   Cs3
 BYTE   W96
//  #04 //089   ----------------------------------------
 BYTE   Cn3
 BYTE   W96
//  #04 //090   ----------------------------------------
 BYTE   Cs3
 BYTE   W96
//  #04 //091   ----------------------------------------
 BYTE   Ds3
 BYTE   W96
//  #04 //092   ----------------------------------------
 BYTE   N44  Cs3  v044
 BYTE   W48
 BYTE   Gs2  v052
 BYTE   W48
//  #04 //093   ----------------------------------------
 BYTE   Cn3  v056
 BYTE   W48
 BYTE   Cs3  v064
 BYTE   W48
//  #04 //094   ----------------------------------------
 BYTE   N92  Ds3  v068
 BYTE   W96
//  #04 //095   ----------------------------------------
 BYTE   PATT
  POIN2 Label_015F3DC6
//  #04 //096   ----------------------------------------
 BYTE   PATT
  POIN2 Label_015F3DB7
//  #04 //097   ----------------------------------------
 BYTE   PATT
  POIN2 Label_015F3DC6
//  #04 //098   ----------------------------------------
 BYTE   PATT
  POIN2 Label_015F3DD6
//  #04 //099   ----------------------------------------
 BYTE   PATT
  POIN2 Label_015F3DC6
//  #04 //100   ----------------------------------------
 BYTE   PATT
  POIN2 Label_015F3DB7
//  #04 //101   ----------------------------------------
 BYTE   PATT
  POIN2 Label_015F3DC6
//  #04 //102   ----------------------------------------
 BYTE   PATT
  POIN2 Label_015F3DD6
//  #04 //103   ----------------------------------------
 BYTE   GoTo
  POIN2 Label_015F3DF9
 BYTE   FINE

//**************** Track 5 (Midi-Chn.4) ****************//

song0D_005:
//  #05 //000   ----------------------------------------
 BYTE   KEYSH   song0D_key+0
 BYTE   VOICE   48
 BYTE   VOL   25*song0D_mvl/mxv
 BYTE   PAN   c_v+0
 BYTE   N11  Fn2  v096
 BYTE   W24
 BYTE   N03
 BYTE   W08
 BYTE   N03
 BYTE   W08
 BYTE   N03
 BYTE   W08
 BYTE   N11
 BYTE   W24
 BYTE   N11
 BYTE   W24
//  #05 //001   ----------------------------------------
Label_015F4026:
 BYTE   N11  Fn2  v096
 BYTE   W24
 BYTE   N11
 BYTE   W24
 BYTE   N11
 BYTE   W24
 BYTE   N03
 BYTE   W08
 BYTE   N03
 BYTE   W08
 BYTE   N03
 BYTE   W08
 BYTE   PEND 
//  #05 //002   ----------------------------------------
Label_015F4035:
 BYTE   N11  Fs2  v096
 BYTE   W24
 BYTE   N03
 BYTE   W08
 BYTE   N03
 BYTE   W08
 BYTE   N03
 BYTE   W08
 BYTE   N11
 BYTE   W24
 BYTE   N11
 BYTE   W24
 BYTE   PEND 
//  #05 //003   ----------------------------------------
Label_015F4044:
 BYTE   N11  Gs2  v096
 BYTE   W24
 BYTE   N11
 BYTE   W24
 BYTE   N11
 BYTE   W24
 BYTE   N03
 BYTE   W08
 BYTE   N03
 BYTE   W08
 BYTE   N03
 BYTE   W08
 BYTE   PEND 
//  #05 //004   ----------------------------------------
Label_015F4053:
 BYTE   N11  Fn2  v096
 BYTE   W24
 BYTE   N03
 BYTE   W08
 BYTE   N03
 BYTE   W08
 BYTE   N03
 BYTE   W08
 BYTE   N11
 BYTE   W24
 BYTE   N11
 BYTE   W24
 BYTE   PEND 
//  #05 //005   ----------------------------------------
 BYTE   PATT
  POIN2 Label_015F4026
//  #05 //006   ----------------------------------------
 BYTE   PATT
  POIN2 Label_015F4035
//  #05 //007   ----------------------------------------
 BYTE   PATT
  POIN2 Label_015F4044
//  #05 //008   ----------------------------------------
Label_015F4071:
//  #05 //009   ----------------------------------------
 BYTE   PATT
  POIN2 Label_015F4053
//  #05 //010   ----------------------------------------
 BYTE   PATT
  POIN2 Label_015F4026
//  #05 //011   ----------------------------------------
 BYTE   PATT
  POIN2 Label_015F4035
//  #05 //012   ----------------------------------------
 BYTE   PATT
  POIN2 Label_015F4044
//  #05 //013   ----------------------------------------
 BYTE   PATT
  POIN2 Label_015F4053
//  #05 //014   ----------------------------------------
 BYTE   PATT
  POIN2 Label_015F4026
//  #05 //015   ----------------------------------------
 BYTE   PATT
  POIN2 Label_015F4035
//  #05 //016   ----------------------------------------
 BYTE   PATT
  POIN2 Label_015F4044
//  #05 //017   ----------------------------------------
 BYTE   PATT
  POIN2 Label_015F4053
//  #05 //018   ----------------------------------------
 BYTE   PATT
  POIN2 Label_015F4026
//  #05 //019   ----------------------------------------
 BYTE   PATT
  POIN2 Label_015F4035
//  #05 //020   ----------------------------------------
 BYTE   PATT
  POIN2 Label_015F4044
//  #05 //021   ----------------------------------------
 BYTE   N92  Ds2  v052
 BYTE   W96
//  #05 //022   ----------------------------------------
 BYTE   Fn2
 BYTE   W96
//  #05 //023   ----------------------------------------
 BYTE   Fs2
 BYTE   W96
//  #05 //024   ----------------------------------------
 BYTE   Fn2
 BYTE   W96
//  #05 //025   ----------------------------------------
 BYTE   Ds2
 BYTE   W96
//  #05 //026   ----------------------------------------
 BYTE   Fn2
 BYTE   W96
//  #05 //027   ----------------------------------------
 BYTE   Gn2
 BYTE   W96
//  #05 //028   ----------------------------------------
 BYTE   N44  Fn3  v096
 BYTE   W48
 BYTE   N23  Gn3  v108
 BYTE   W48
//  #05 //029   ----------------------------------------
 BYTE   N11  As2  v096
 BYTE   W24
 BYTE   N03
 BYTE   W08
 BYTE   N03
 BYTE   W08
 BYTE   N03
 BYTE   W08
 BYTE   N11  Cn3
 BYTE   W24
 BYTE   N11
 BYTE   W24
//  #05 //030   ----------------------------------------
 BYTE   Dn3
 BYTE   W24
 BYTE   N03
 BYTE   W08
 BYTE   N03
 BYTE   W08
 BYTE   N03
 BYTE   W08
 BYTE   N11  An2
 BYTE   W24
 BYTE   N11
 BYTE   W24
//  #05 //031   ----------------------------------------
 BYTE   As2
 BYTE   W24
 BYTE   N03
 BYTE   W08
 BYTE   N03
 BYTE   W08
 BYTE   N03
 BYTE   W08
 BYTE   N11  An2
 BYTE   W24
 BYTE   N11
 BYTE   W24
//  #05 //032   ----------------------------------------
 BYTE   Dn3
 BYTE   W24
 BYTE   N11
 BYTE   W24
 BYTE   N23
 BYTE   W24
 BYTE   N07  En3
 BYTE   W08
 BYTE   Fn3
 BYTE   W08
 BYTE   Dn3
 BYTE   W08
//  #05 //033   ----------------------------------------
 BYTE   N44  An2  v064
 BYTE   W48
 BYTE   Gn2
 BYTE   W48
//  #05 //034   ----------------------------------------
 BYTE   N44
 BYTE   W48
 BYTE   An2
 BYTE   W48
//  #05 //035   ----------------------------------------
 BYTE   Dn3
 BYTE   W48
 BYTE   Cn3
 BYTE   W48
//  #05 //036   ----------------------------------------
 BYTE   N44
 BYTE   W48
 BYTE   Dn3
 BYTE   W48
//  #05 //037   ----------------------------------------
Label_015F410D:
 BYTE   N11  Fn3  v096
 BYTE   W24
 BYTE   N03
 BYTE   W08
 BYTE   N03
 BYTE   W08
 BYTE   N03
 BYTE   W08
 BYTE   N11  En3
 BYTE   W24
 BYTE   N11
 BYTE   W24
 BYTE   PEND 
//  #05 //038   ----------------------------------------
Label_015F411D:
 BYTE   N11  Gn3  v096
 BYTE   W24
 BYTE   N03
 BYTE   W08
 BYTE   N03
 BYTE   W08
 BYTE   N03
 BYTE   W08
 BYTE   N11  Fn3
 BYTE   W24
 BYTE   N11
 BYTE   W24
 BYTE   PEND 
//  #05 //039   ----------------------------------------
 BYTE   PATT
  POIN2 Label_015F410D
//  #05 //040   ----------------------------------------
 BYTE   N11  Gn3  v096
 BYTE   W24
 BYTE   N11
 BYTE   W24
 BYTE   N23  Fn3
 BYTE   W48
//  #05 //041   ----------------------------------------
 BYTE   PATT
  POIN2 Label_015F410D
//  #05 //042   ----------------------------------------
 BYTE   PATT
  POIN2 Label_015F411D
//  #05 //043   ----------------------------------------
 BYTE   PATT
  POIN2 Label_015F410D
//  #05 //044   ----------------------------------------
 BYTE   N11  En3  v096
 BYTE   W24
 BYTE   N11
 BYTE   W24
 BYTE   N23
 BYTE   W48
//  #05 //045   ----------------------------------------
Label_015F4152:
 BYTE   N11  Ds2  v064
 BYTE   W24
 BYTE   N07
 BYTE   W08
 BYTE   N07
 BYTE   W08
 BYTE   N07
 BYTE   W08
 BYTE   N11
 BYTE   W24
 BYTE   N11
 BYTE   W24
 BYTE   PEND 
//  #05 //046   ----------------------------------------
 BYTE   Dn2
 BYTE   W24
 BYTE   N07
 BYTE   W08
 BYTE   N07
 BYTE   W08
 BYTE   N07
 BYTE   W08
 BYTE   N11
 BYTE   W24
 BYTE   N11
 BYTE   W24
//  #05 //047   ----------------------------------------
Label_015F416D:
 BYTE   N11  Fs2  v064
 BYTE   W24
 BYTE   N07
 BYTE   W08
 BYTE   N07
 BYTE   W08
 BYTE   N07
 BYTE   W08
 BYTE   N11
 BYTE   W24
 BYTE   N11
 BYTE   W24
 BYTE   PEND 
//  #05 //048   ----------------------------------------
 BYTE   Fn2
 BYTE   W24
 BYTE   N07
 BYTE   W08
 BYTE   N07
 BYTE   W08
 BYTE   N07
 BYTE   W08
 BYTE   N11
 BYTE   W24
 BYTE   N11
 BYTE   W24
//  #05 //049   ----------------------------------------
 BYTE   An2
 BYTE   W24
 BYTE   N07
 BYTE   W08
 BYTE   N07
 BYTE   W08
 BYTE   N07
 BYTE   W08
 BYTE   N11
 BYTE   W24
 BYTE   N11
 BYTE   W24
//  #05 //050   ----------------------------------------
 BYTE   Gs2
 BYTE   W24
 BYTE   N07
 BYTE   W08
 BYTE   N07
 BYTE   W08
 BYTE   N07
 BYTE   W08
 BYTE   N11
 BYTE   W24
 BYTE   N11
 BYTE   W24
//  #05 //051   ----------------------------------------
 BYTE   PATT
  POIN2 Label_015F416D
//  #05 //052   ----------------------------------------
 BYTE   PATT
  POIN2 Label_015F4152
//  #05 //053   ----------------------------------------
 BYTE   PATT
  POIN2 Label_015F4152
//  #05 //054   ----------------------------------------
 BYTE   W96
//  #05 //055   ----------------------------------------
 BYTE   W96
//  #05 //056   ----------------------------------------
 BYTE   W96
//  #05 //057   ----------------------------------------
 BYTE   W96
//  #05 //058   ----------------------------------------
 BYTE   W96
//  #05 //059   ----------------------------------------
 BYTE   W96
//  #05 //060   ----------------------------------------
 BYTE   W96
//  #05 //061   ----------------------------------------
 BYTE   W96
//  #05 //062   ----------------------------------------
Label_015F41B7:
 BYTE   N11  As2  v080
 BYTE   W24
 BYTE   N03
 BYTE   W08
 BYTE   N03
 BYTE   W08
 BYTE   N03
 BYTE   W08
 BYTE   N11
 BYTE   W24
 BYTE   N11
 BYTE   W24
 BYTE   PEND 
//  #05 //063   ----------------------------------------
Label_015F41C6:
 BYTE   N11  Cn3  v080
 BYTE   W24
 BYTE   N03
 BYTE   W08
 BYTE   N03
 BYTE   W08
 BYTE   N03
 BYTE   W08
 BYTE   N11
 BYTE   W24
 BYTE   N11
 BYTE   W24
 BYTE   PEND 
//  #05 //064   ----------------------------------------
 BYTE   Cs3
 BYTE   W24
 BYTE   N03
 BYTE   W08
 BYTE   N03
 BYTE   W08
 BYTE   N03
 BYTE   W08
 BYTE   N11
 BYTE   W24
 BYTE   N11
 BYTE   W24
//  #05 //065   ----------------------------------------
 BYTE   PATT
  POIN2 Label_015F41C6
//  #05 //066   ----------------------------------------
 BYTE   PATT
  POIN2 Label_015F41B7
//  #05 //067   ----------------------------------------
 BYTE   N11  Ds3  v080
 BYTE   W24
 BYTE   N03
 BYTE   W08
 BYTE   N03
 BYTE   W08
 BYTE   N03
 BYTE   W08
 BYTE   N11
 BYTE   W24
 BYTE   N11
 BYTE   W24
//  #05 //068   ----------------------------------------
 BYTE   Fn3
 BYTE   W24
 BYTE   N03
 BYTE   W08
 BYTE   N03
 BYTE   W08
 BYTE   N03
 BYTE   W08
 BYTE   N11
 BYTE   W24
 BYTE   N11
 BYTE   W24
//  #05 //069   ----------------------------------------
 BYTE   As2
 BYTE   W24
 BYTE   N03
 BYTE   W08
 BYTE   N03
 BYTE   W08
 BYTE   N03
 BYTE   W08
 BYTE   N11  An2
 BYTE   W24
 BYTE   N11
 BYTE   W24
//  #05 //070   ----------------------------------------
 BYTE   W96
//  #05 //071   ----------------------------------------
 BYTE   W24
 BYTE   N68  Fn2  v096
 BYTE   W72
//  #05 //072   ----------------------------------------
Label_015F4218:
 BYTE   N11  Fs2  v080
 BYTE   W24
 BYTE   N03
 BYTE   W08
 BYTE   N03
 BYTE   W08
 BYTE   N03
 BYTE   W08
 BYTE   N11
 BYTE   W24
 BYTE   N11
 BYTE   W24
 BYTE   PEND 
//  #05 //073   ----------------------------------------
Label_015F4227:
 BYTE   N11  Gs2  v080
 BYTE   W24
 BYTE   N03
 BYTE   W08
 BYTE   N03
 BYTE   W08
 BYTE   N03
 BYTE   W08
 BYTE   N11
 BYTE   W24
 BYTE   N11
 BYTE   W24
 BYTE   PEND 
//  #05 //074   ----------------------------------------
 BYTE   PATT
  POIN2 Label_015F41B7
//  #05 //075   ----------------------------------------
 BYTE   PATT
  POIN2 Label_015F41B7
//  #05 //076   ----------------------------------------
 BYTE   PATT
  POIN2 Label_015F4218
//  #05 //077   ----------------------------------------
 BYTE   PATT
  POIN2 Label_015F4227
//  #05 //078   ----------------------------------------
 BYTE   N11  Fn2  v080
 BYTE   W24
 BYTE   N03
 BYTE   W08
 BYTE   N03
 BYTE   W08
 BYTE   N03
 BYTE   W08
 BYTE   N11
 BYTE   W24
 BYTE   N11
 BYTE   W24
//  #05 //079   ----------------------------------------
 BYTE   As2
 BYTE   W24
 BYTE   N11
 BYTE   W24
 BYTE   N44
 BYTE   W48
//  #05 //080   ----------------------------------------
 BYTE   W96
//  #05 //081   ----------------------------------------
 BYTE   W96
//  #05 //082   ----------------------------------------
 BYTE   W96
//  #05 //083   ----------------------------------------
 BYTE   W96
//  #05 //084   ----------------------------------------
 BYTE   W96
//  #05 //085   ----------------------------------------
 BYTE   W96
//  #05 //086   ----------------------------------------
 BYTE   W96
//  #05 //087   ----------------------------------------
 BYTE   W96
//  #05 //088   ----------------------------------------
 BYTE   W96
//  #05 //089   ----------------------------------------
 BYTE   W96
//  #05 //090   ----------------------------------------
 BYTE   W96
//  #05 //091   ----------------------------------------
 BYTE   W96
//  #05 //092   ----------------------------------------
 BYTE   W96
//  #05 //093   ----------------------------------------
 BYTE   W96
//  #05 //094   ----------------------------------------
 BYTE   W96
//  #05 //095   ----------------------------------------
 BYTE   PATT
  POIN2 Label_015F4053
//  #05 //096   ----------------------------------------
 BYTE   PATT
  POIN2 Label_015F4026
//  #05 //097   ----------------------------------------
 BYTE   PATT
  POIN2 Label_015F4035
//  #05 //098   ----------------------------------------
 BYTE   PATT
  POIN2 Label_015F4044
//  #05 //099   ----------------------------------------
 BYTE   PATT
  POIN2 Label_015F4053
//  #05 //100   ----------------------------------------
 BYTE   PATT
  POIN2 Label_015F4026
//  #05 //101   ----------------------------------------
 BYTE   PATT
  POIN2 Label_015F4035
//  #05 //102   ----------------------------------------
 BYTE   PATT
  POIN2 Label_015F4044
//  #05 //103   ----------------------------------------
 BYTE   GoTo
  POIN2 Label_015F4071
 BYTE   FINE

//**************** Track 6 (Midi-Chn.5) ****************//

song0D_006:
//  #06 //000   ----------------------------------------
 BYTE   KEYSH   song0D_key+0
 BYTE   VOICE   48
 BYTE   VOL   20*song0D_mvl/mxv
 BYTE   PAN   c_v+0
 BYTE   N11  As1  v096
 BYTE   W24
 BYTE   N03
 BYTE   W08
 BYTE   N03
 BYTE   W08
 BYTE   N03
 BYTE   W08
 BYTE   N11
 BYTE   W24
 BYTE   N11
 BYTE   W24
//  #06 //001   ----------------------------------------
Label_015F42B2:
 BYTE   N11  As1  v096
 BYTE   W24
 BYTE   N11
 BYTE   W24
 BYTE   N11
 BYTE   W24
 BYTE   N03
 BYTE   W08
 BYTE   N03
 BYTE   W08
 BYTE   N03
 BYTE   W08
 BYTE   PEND 
//  #06 //002   ----------------------------------------
Label_015F42C1:
 BYTE   N11  Fs1  v096
 BYTE   W24
 BYTE   N03
 BYTE   W08
 BYTE   N03
 BYTE   W08
 BYTE   N03
 BYTE   W08
 BYTE   N11
 BYTE   W24
 BYTE   N11
 BYTE   W24
 BYTE   PEND 
//  #06 //003   ----------------------------------------
Label_015F42D0:
 BYTE   N11  Gs1  v096
 BYTE   W24
 BYTE   N11
 BYTE   W24
 BYTE   N11
 BYTE   W24
 BYTE   N03
 BYTE   W08
 BYTE   N03
 BYTE   W08
 BYTE   N03
 BYTE   W08
 BYTE   PEND 
//  #06 //004   ----------------------------------------
Label_015F42DF:
 BYTE   N11  As1  v096
 BYTE   W24
 BYTE   N03
 BYTE   W08
 BYTE   N03
 BYTE   W08
 BYTE   N03
 BYTE   W08
 BYTE   N11
 BYTE   W24
 BYTE   N11
 BYTE   W24
 BYTE   PEND 
//  #06 //005   ----------------------------------------
 BYTE   PATT
  POIN2 Label_015F42B2
//  #06 //006   ----------------------------------------
 BYTE   PATT
  POIN2 Label_015F42C1
//  #06 //007   ----------------------------------------
 BYTE   PATT
  POIN2 Label_015F42D0
//  #06 //008   ----------------------------------------
Label_015F42FD:
//  #06 //009   ----------------------------------------
 BYTE   PATT
  POIN2 Label_015F42DF
//  #06 //010   ----------------------------------------
 BYTE   PATT
  POIN2 Label_015F42B2
//  #06 //011   ----------------------------------------
 BYTE   PATT
  POIN2 Label_015F42C1
//  #06 //012   ----------------------------------------
 BYTE   PATT
  POIN2 Label_015F42D0
//  #06 //013   ----------------------------------------
 BYTE   PATT
  POIN2 Label_015F42DF
//  #06 //014   ----------------------------------------
 BYTE   PATT
  POIN2 Label_015F42B2
//  #06 //015   ----------------------------------------
 BYTE   PATT
  POIN2 Label_015F42C1
//  #06 //016   ----------------------------------------
 BYTE   PATT
  POIN2 Label_015F42D0
//  #06 //017   ----------------------------------------
 BYTE   PATT
  POIN2 Label_015F42DF
//  #06 //018   ----------------------------------------
 BYTE   PATT
  POIN2 Label_015F42B2
//  #06 //019   ----------------------------------------
 BYTE   PATT
  POIN2 Label_015F42C1
//  #06 //020   ----------------------------------------
 BYTE   PATT
  POIN2 Label_015F42D0
//  #06 //021   ----------------------------------------
 BYTE   N92  Ds2  v052
 BYTE   W96
//  #06 //022   ----------------------------------------
 BYTE   Fn2
 BYTE   W96
//  #06 //023   ----------------------------------------
 BYTE   Fs2
 BYTE   W96
//  #06 //024   ----------------------------------------
 BYTE   Fn2
 BYTE   W96
//  #06 //025   ----------------------------------------
 BYTE   Ds2
 BYTE   W96
//  #06 //026   ----------------------------------------
 BYTE   Fn2
 BYTE   W96
//  #06 //027   ----------------------------------------
 BYTE   Gn2
 BYTE   W96
//  #06 //028   ----------------------------------------
 BYTE   W48
 BYTE   N44  An2  v072
 BYTE   W48
//  #06 //029   ----------------------------------------
 BYTE   PATT
  POIN2 Label_015F42DF
//  #06 //030   ----------------------------------------
 BYTE   N11  An1  v096
 BYTE   W24
 BYTE   N03
 BYTE   W08
 BYTE   N03
 BYTE   W08
 BYTE   N03
 BYTE   W08
 BYTE   N11
 BYTE   W24
 BYTE   N11
 BYTE   W24
//  #06 //031   ----------------------------------------
Label_015F4361:
 BYTE   N11  As1  v096
 BYTE   W24
 BYTE   N03
 BYTE   W08
 BYTE   N03
 BYTE   W08
 BYTE   N03
 BYTE   W08
 BYTE   N11  An1
 BYTE   W24
 BYTE   N11
 BYTE   W24
 BYTE   PEND 
//  #06 //032   ----------------------------------------
 BYTE   N11
 BYTE   W24
 BYTE   N11
 BYTE   W24
 BYTE   N23
 BYTE   W48
//  #06 //033   ----------------------------------------
 BYTE   W96
//  #06 //034   ----------------------------------------
 BYTE   W96
//  #06 //035   ----------------------------------------
 BYTE   W96
//  #06 //036   ----------------------------------------
 BYTE   W96
//  #06 //037   ----------------------------------------
Label_015F437B:
 BYTE   N11  As1  v096
 BYTE   W24
 BYTE   N03
 BYTE   W08
 BYTE   N03
 BYTE   W08
 BYTE   N03
 BYTE   W08
 BYTE   N11  Cn2
 BYTE   W24
 BYTE   N11
 BYTE   W24
 BYTE   PEND 
//  #06 //038   ----------------------------------------
Label_015F438B:
 BYTE   N11  Dn2  v096
 BYTE   W24
 BYTE   N03
 BYTE   W08
 BYTE   N03
 BYTE   W08
 BYTE   N03
 BYTE   W08
 BYTE   N11  An1
 BYTE   W24
 BYTE   N11
 BYTE   W24
 BYTE   PEND 
//  #06 //039   ----------------------------------------
 BYTE   PATT
  POIN2 Label_015F4361
//  #06 //040   ----------------------------------------
Label_015F43A0:
 BYTE   N11  Dn2  v096
 BYTE   W24
 BYTE   N11
 BYTE   W24
 BYTE   N23
 BYTE   W48
 BYTE   PEND 
//  #06 //041   ----------------------------------------
 BYTE   PATT
  POIN2 Label_015F437B
//  #06 //042   ----------------------------------------
 BYTE   PATT
  POIN2 Label_015F438B
//  #06 //043   ----------------------------------------
 BYTE   N11  Gn1  v096
 BYTE   W24
 BYTE   N03
 BYTE   W08
 BYTE   N03
 BYTE   W08
 BYTE   N03
 BYTE   W08
 BYTE   N11  An1
 BYTE   W24
 BYTE   N11
 BYTE   W24
//  #06 //044   ----------------------------------------
 BYTE   PATT
  POIN2 Label_015F43A0
//  #06 //045   ----------------------------------------
Label_015F43C7:
 BYTE   N11  Ds2  v080
 BYTE   W24
 BYTE   N07
 BYTE   W08
 BYTE   N07
 BYTE   W08
 BYTE   N07
 BYTE   W08
 BYTE   N11
 BYTE   W24
 BYTE   N11
 BYTE   W24
 BYTE   PEND 
//  #06 //046   ----------------------------------------
 BYTE   Dn2
 BYTE   W24
 BYTE   N07
 BYTE   W08
 BYTE   N07
 BYTE   W08
 BYTE   N07
 BYTE   W08
 BYTE   N11
 BYTE   W24
 BYTE   N11
 BYTE   W24
//  #06 //047   ----------------------------------------
Label_015F43E2:
 BYTE   N11  Fs2  v080
 BYTE   W24
 BYTE   N07
 BYTE   W08
 BYTE   N07
 BYTE   W08
 BYTE   N07
 BYTE   W08
 BYTE   N11
 BYTE   W24
 BYTE   N11
 BYTE   W24
 BYTE   PEND 
//  #06 //048   ----------------------------------------
 BYTE   Fn2
 BYTE   W24
 BYTE   N07
 BYTE   W08
 BYTE   N07
 BYTE   W08
 BYTE   N07
 BYTE   W08
 BYTE   N11
 BYTE   W24
 BYTE   N11
 BYTE   W24
//  #06 //049   ----------------------------------------
 BYTE   An2
 BYTE   W24
 BYTE   N07
 BYTE   W08
 BYTE   N07
 BYTE   W08
 BYTE   N07
 BYTE   W08
 BYTE   N11
 BYTE   W24
 BYTE   N11
 BYTE   W24
//  #06 //050   ----------------------------------------
 BYTE   Gs2
 BYTE   W24
 BYTE   N07
 BYTE   W08
 BYTE   N07
 BYTE   W08
 BYTE   N07
 BYTE   W08
 BYTE   N11
 BYTE   W24
 BYTE   N11
 BYTE   W24
//  #06 //051   ----------------------------------------
 BYTE   PATT
  POIN2 Label_015F43E2
//  #06 //052   ----------------------------------------
 BYTE   PATT
  POIN2 Label_015F43C7
//  #06 //053   ----------------------------------------
 BYTE   PATT
  POIN2 Label_015F43C7
//  #06 //054   ----------------------------------------
Label_015F4424:
 BYTE   N11  As1  v060
 BYTE   W24
 BYTE   N07
 BYTE   W08
 BYTE   N07
 BYTE   W08
 BYTE   N07
 BYTE   W08
 BYTE   N11
 BYTE   W24
 BYTE   N11
 BYTE   W24
 BYTE   PEND 
//  #06 //055   ----------------------------------------
 BYTE   PATT
  POIN2 Label_015F4424
//  #06 //056   ----------------------------------------
Label_015F4438:
 BYTE   N11  Bn1  v060
 BYTE   W24
 BYTE   N07
 BYTE   W08
 BYTE   N07
 BYTE   W08
 BYTE   N07
 BYTE   W08
 BYTE   N11
 BYTE   W24
 BYTE   N11
 BYTE   W24
 BYTE   PEND 
//  #06 //057   ----------------------------------------
 BYTE   PATT
  POIN2 Label_015F4438
//  #06 //058   ----------------------------------------
 BYTE   PATT
  POIN2 Label_015F4424
//  #06 //059   ----------------------------------------
 BYTE   PATT
  POIN2 Label_015F4424
//  #06 //060   ----------------------------------------
 BYTE   PATT
  POIN2 Label_015F4438
//  #06 //061   ----------------------------------------
 BYTE   N11  As1  v064
 BYTE   W24
 BYTE   N07  As1  v068
 BYTE   W08
 BYTE   As1  v072
 BYTE   W08
 BYTE   N07
 BYTE   W08
 BYTE   N11  An1
 BYTE   W24
 BYTE   An1  v076
 BYTE   W24
//  #06 //062   ----------------------------------------
 BYTE   Ds1  v080
 BYTE   W24
 BYTE   N03
 BYTE   W08
 BYTE   N03
 BYTE   W08
 BYTE   N03
 BYTE   W08
 BYTE   N11
 BYTE   W24
 BYTE   N11
 BYTE   W24
//  #06 //063   ----------------------------------------
 BYTE   Fn1
 BYTE   W24
 BYTE   N03
 BYTE   W08
 BYTE   N03
 BYTE   W08
 BYTE   N03
 BYTE   W08
 BYTE   N11  An1
 BYTE   W24
 BYTE   N11
 BYTE   W24
//  #06 //064   ----------------------------------------
 BYTE   As1
 BYTE   W24
 BYTE   N03
 BYTE   W08
 BYTE   N03
 BYTE   W08
 BYTE   N03
 BYTE   W08
 BYTE   N11
 BYTE   W24
 BYTE   N11
 BYTE   W24
//  #06 //065   ----------------------------------------
Label_015F4494:
 BYTE   N11  Fs1  v080
 BYTE   W24
 BYTE   N03
 BYTE   W08
 BYTE   N03
 BYTE   W08
 BYTE   N03
 BYTE   W08
 BYTE   N11  Fn1
 BYTE   W24
 BYTE   N11
 BYTE   W24
 BYTE   PEND 
//  #06 //066   ----------------------------------------
 BYTE   Fs1
 BYTE   W24
 BYTE   N03
 BYTE   W08
 BYTE   N03
 BYTE   W08
 BYTE   N03
 BYTE   W08
 BYTE   N11
 BYTE   W24
 BYTE   N11
 BYTE   W24
//  #06 //067   ----------------------------------------
 BYTE   Bn1
 BYTE   W24
 BYTE   N03
 BYTE   W08
 BYTE   N03
 BYTE   W08
 BYTE   N03
 BYTE   W08
 BYTE   N11
 BYTE   W24
 BYTE   N11
 BYTE   W24
//  #06 //068   ----------------------------------------
 BYTE   Cn2
 BYTE   W24
 BYTE   N03
 BYTE   W08
 BYTE   N03
 BYTE   W08
 BYTE   N03
 BYTE   W08
 BYTE   N11
 BYTE   W24
 BYTE   N11
 BYTE   W24
//  #06 //069   ----------------------------------------
 BYTE   PATT
  POIN2 Label_015F4494
//  #06 //070   ----------------------------------------
 BYTE   W96
//  #06 //071   ----------------------------------------
 BYTE   W96
//  #06 //072   ----------------------------------------
Label_015F44CF:
 BYTE   N11  Fs2  v080
 BYTE   N11  Fs3
 BYTE   W24
 BYTE   N03  Fs2
 BYTE   N03  Fs3
 BYTE   W08
 BYTE   Fs2
 BYTE   N03  Fs3
 BYTE   W08
 BYTE   Fs2
 BYTE   N03  Fs3
 BYTE   W08
 BYTE   N11  Fs2
 BYTE   N11  Fs3
 BYTE   W24
 BYTE   Fs2
 BYTE   N11  Fs3
 BYTE   W24
 BYTE   PEND 
//  #06 //073   ----------------------------------------
Label_015F44EC:
 BYTE   N11  Gs2  v080
 BYTE   N11  Gs3
 BYTE   W24
 BYTE   N03  Gs2
 BYTE   N03  Gs3
 BYTE   W08
 BYTE   Gs2
 BYTE   N03  Gs3
 BYTE   W08
 BYTE   Gs2
 BYTE   N03  Gs3
 BYTE   W08
 BYTE   N11  Gs2
 BYTE   N11  Gs3
 BYTE   W24
 BYTE   Gs2
 BYTE   N11  Gs3
 BYTE   W24
 BYTE   PEND 
//  #06 //074   ----------------------------------------
Label_015F4509:
 BYTE   N11  As2  v080
 BYTE   N11  As3
 BYTE   W24
 BYTE   N03  As2
 BYTE   N03  As3
 BYTE   W08
 BYTE   As2
 BYTE   N03  As3
 BYTE   W08
 BYTE   As2
 BYTE   N03  As3
 BYTE   W08
 BYTE   N11  As2
 BYTE   N11  As3
 BYTE   W24
 BYTE   As2
 BYTE   N11  As3
 BYTE   W24
 BYTE   PEND 
//  #06 //075   ----------------------------------------
 BYTE   PATT
  POIN2 Label_015F4509
//  #06 //076   ----------------------------------------
 BYTE   PATT
  POIN2 Label_015F44CF
//  #06 //077   ----------------------------------------
 BYTE   PATT
  POIN2 Label_015F44EC
//  #06 //078   ----------------------------------------
 BYTE   N11  Fn2  v080
 BYTE   N11  Fn3
 BYTE   W24
 BYTE   N03  Fn2
 BYTE   N03  Fn3
 BYTE   W08
 BYTE   Fn2
 BYTE   N03  Fn3
 BYTE   W08
 BYTE   Fn2
 BYTE   N03  Fn3
 BYTE   W08
 BYTE   N11  Fn2
 BYTE   N11  Fn3
 BYTE   W24
 BYTE   Fn2
 BYTE   N11  Fn3
 BYTE   W24
//  #06 //079   ----------------------------------------
 BYTE   As2
 BYTE   N11  As3
 BYTE   W24
 BYTE   As2
 BYTE   N11  As3
 BYTE   W24
 BYTE   N44  As2
 BYTE   N44  As3
 BYTE   W48
//  #06 //080   ----------------------------------------
 BYTE   W96
//  #06 //081   ----------------------------------------
 BYTE   W96
//  #06 //082   ----------------------------------------
 BYTE   W96
//  #06 //083   ----------------------------------------
 BYTE   W96
//  #06 //084   ----------------------------------------
 BYTE   W96
//  #06 //085   ----------------------------------------
 BYTE   W96
//  #06 //086   ----------------------------------------
 BYTE   W96
//  #06 //087   ----------------------------------------
 BYTE   N11  As1  v052
 BYTE   W24
 BYTE   N11
 BYTE   W24
 BYTE   N11
 BYTE   W24
 BYTE   N11
 BYTE   W24
//  #06 //088   ----------------------------------------
 BYTE   N11
 BYTE   N90  Cs4
 BYTE   W24
 BYTE   N11  As1
 BYTE   W24
 BYTE   Gs1
 BYTE   W24
 BYTE   N11
 BYTE   W24
//  #06 //089   ----------------------------------------
 BYTE   Fs1
 BYTE   N90  Cn4
 BYTE   W24
 BYTE   N11  Fs1
 BYTE   W24
 BYTE   N11
 BYTE   W24
 BYTE   N11
 BYTE   W24
//  #06 //090   ----------------------------------------
 BYTE   N11
 BYTE   N90  Cs4
 BYTE   W24
 BYTE   N11  Fs1
 BYTE   W24
 BYTE   N11
 BYTE   W24
 BYTE   N11
 BYTE   W24
//  #06 //091   ----------------------------------------
 BYTE   As1
 BYTE   N90  Ds4
 BYTE   W24
 BYTE   N11  As1
 BYTE   W24
 BYTE   N11
 BYTE   W24
 BYTE   As1  v056
 BYTE   W24
//  #06 //092   ----------------------------------------
 BYTE   N11
 BYTE   N44  Cs4
 BYTE   W24
 BYTE   N11  As1  v060
 BYTE   W24
 BYTE   Gs1
 BYTE   W24
 BYTE   Gs1  v064
 BYTE   W24
//  #06 //093   ----------------------------------------
 BYTE   Fs1
 BYTE   N44  Cn4
 BYTE   W24
 BYTE   N11  Fs1  v068
 BYTE   W24
 BYTE   N11
 BYTE   W24
 BYTE   Fs1  v072
 BYTE   W24
//  #06 //094   ----------------------------------------
 BYTE   N23
 BYTE   N90  Cn4
 BYTE   W24
 BYTE   N23  Fs1  v076
 BYTE   W24
 BYTE   N23
 BYTE   W24
 BYTE   Fs1  v080
 BYTE   W24
//  #06 //095   ----------------------------------------
 BYTE   PATT
  POIN2 Label_015F42DF
//  #06 //096   ----------------------------------------
 BYTE   PATT
  POIN2 Label_015F42B2
//  #06 //097   ----------------------------------------
 BYTE   PATT
  POIN2 Label_015F42C1
//  #06 //098   ----------------------------------------
 BYTE   PATT
  POIN2 Label_015F42D0
//  #06 //099   ----------------------------------------
 BYTE   PATT
  POIN2 Label_015F42DF
//  #06 //100   ----------------------------------------
 BYTE   PATT
  POIN2 Label_015F42B2
//  #06 //101   ----------------------------------------
 BYTE   PATT
  POIN2 Label_015F42C1
//  #06 //102   ----------------------------------------
 BYTE   PATT
  POIN2 Label_015F42D0
//  #06 //103   ----------------------------------------
 BYTE   GoTo
  POIN2 Label_015F42FD
 BYTE   FINE

//**************** Track 7 (Midi-Chn.6) ****************//

song0D_007:
//  #07 //000   ----------------------------------------
 BYTE   KEYSH   song0D_key+0
 BYTE   VOICE   73
 BYTE   VOL   34*song0D_mvl/mxv
 BYTE   W96
//  #07 //001   ----------------------------------------
 BYTE   W96
//  #07 //002   ----------------------------------------
 BYTE   W96
//  #07 //003   ----------------------------------------
 BYTE   W96
//  #07 //004   ----------------------------------------
 BYTE   W96
//  #07 //005   ----------------------------------------
 BYTE   W96
//  #07 //006   ----------------------------------------
 BYTE   N90  As3  v052
 BYTE   W96
//  #07 //007   ----------------------------------------
 BYTE   N44  Gs4  v096
 BYTE   W48
 BYTE   N22  Ds4  v076
 BYTE   W24
 BYTE   Cs4  v064
 BYTE   W24
//  #07 //008   ----------------------------------------
Label_015F460F:
 BYTE   W96
//  #07 //009   ----------------------------------------
 BYTE   W96
//  #07 //010   ----------------------------------------
 BYTE   N90  Cn4  v052
 BYTE   W96
//  #07 //011   ----------------------------------------
 BYTE   Ds4  v064
 BYTE   W96
//  #07 //012   ----------------------------------------
 BYTE   W96
//  #07 //013   ----------------------------------------
 BYTE   W96
//  #07 //014   ----------------------------------------
 BYTE   W96
//  #07 //015   ----------------------------------------
 BYTE   W96
//  #07 //016   ----------------------------------------
 BYTE   N30  Ds4  v124
 BYTE   W32
 BYTE   N07  Fn4
 BYTE   W08
 BYTE   Ds4
 BYTE   W08
 BYTE   N44  Cs4
 BYTE   W48
//  #07 //017   ----------------------------------------
 BYTE   N30  Cn4
 BYTE   W32
 BYTE   N07  Cs4
 BYTE   W08
 BYTE   Cn4
 BYTE   W08
 BYTE   N44  As3
 BYTE   W48
//  #07 //018   ----------------------------------------
 BYTE   N30  Fn4  v127
 BYTE   W32
 BYTE   N07  Fs4
 BYTE   W08
 BYTE   Fn4
 BYTE   W08
 BYTE   N44  Ds4
 BYTE   W48
//  #07 //019   ----------------------------------------
 BYTE   N30  Cs4
 BYTE   W32
 BYTE   N07  Ds4
 BYTE   W08
 BYTE   Cs4
 BYTE   W08
 BYTE   N44  Cn4
 BYTE   W48
//  #07 //020   ----------------------------------------
 BYTE   W96
//  #07 //021   ----------------------------------------
 BYTE   W96
//  #07 //022   ----------------------------------------
 BYTE   W96
//  #07 //023   ----------------------------------------
 BYTE   W96
//  #07 //024   ----------------------------------------
 BYTE   W96
//  #07 //025   ----------------------------------------
 BYTE   W96
//  #07 //026   ----------------------------------------
 BYTE   W24
 BYTE   N07  As3  v096
 BYTE   W08
 BYTE   Dn4
 BYTE   W08
 BYTE   Fn4
 BYTE   W08
 BYTE   As4
 BYTE   W08
 BYTE   Fn4
 BYTE   W08
 BYTE   Dn4
 BYTE   W08
 BYTE   As3
 BYTE   W08
 BYTE   Dn4
 BYTE   W08
 BYTE   As3
 BYTE   W08
//  #07 //027   ----------------------------------------
 BYTE   N44  Cn3  v052
 BYTE   N44  Fn4  v116
 BYTE   W48
 BYTE   N23  Gn4
 BYTE   W48
//  #07 //028   ----------------------------------------
 BYTE   W96
//  #07 //029   ----------------------------------------
 BYTE   W96
//  #07 //030   ----------------------------------------
 BYTE   W96
//  #07 //031   ----------------------------------------
 BYTE   W96
//  #07 //032   ----------------------------------------
 BYTE   W96
//  #07 //033   ----------------------------------------
 BYTE   W96
//  #07 //034   ----------------------------------------
 BYTE   W96
//  #07 //035   ----------------------------------------
 BYTE   W96
//  #07 //036   ----------------------------------------
 BYTE   W96
//  #07 //037   ----------------------------------------
 BYTE   W96
//  #07 //038   ----------------------------------------
 BYTE   W96
//  #07 //039   ----------------------------------------
 BYTE   W96
//  #07 //040   ----------------------------------------
 BYTE   W96
//  #07 //041   ----------------------------------------
 BYTE   W96
//  #07 //042   ----------------------------------------
 BYTE   W96
//  #07 //043   ----------------------------------------
 BYTE   W96
//  #07 //044   ----------------------------------------
 BYTE   W96
//  #07 //045   ----------------------------------------
 BYTE   W96
//  #07 //046   ----------------------------------------
 BYTE   W96
//  #07 //047   ----------------------------------------
 BYTE   W96
//  #07 //048   ----------------------------------------
 BYTE   W96
//  #07 //049   ----------------------------------------
 BYTE   W96
//  #07 //050   ----------------------------------------
 BYTE   W96
//  #07 //051   ----------------------------------------
 BYTE   W96
//  #07 //052   ----------------------------------------
 BYTE   W96
//  #07 //053   ----------------------------------------
 BYTE   W96
//  #07 //054   ----------------------------------------
 BYTE   W96
//  #07 //055   ----------------------------------------
 BYTE   W96
//  #07 //056   ----------------------------------------
 BYTE   W96
//  #07 //057   ----------------------------------------
 BYTE   W96
//  #07 //058   ----------------------------------------
 BYTE   W96
//  #07 //059   ----------------------------------------
 BYTE   W96
//  #07 //060   ----------------------------------------
 BYTE   W96
//  #07 //061   ----------------------------------------
 BYTE   W96
//  #07 //062   ----------------------------------------
 BYTE   W96
//  #07 //063   ----------------------------------------
 BYTE   W96
//  #07 //064   ----------------------------------------
 BYTE   W96
//  #07 //065   ----------------------------------------
 BYTE   W96
//  #07 //066   ----------------------------------------
 BYTE   W96
//  #07 //067   ----------------------------------------
 BYTE   W96
//  #07 //068   ----------------------------------------
 BYTE   W96
//  #07 //069   ----------------------------------------
 BYTE   W96
//  #07 //070   ----------------------------------------
 BYTE   W96
//  #07 //071   ----------------------------------------
 BYTE   W96
//  #07 //072   ----------------------------------------
 BYTE   W96
//  #07 //073   ----------------------------------------
 BYTE   W96
//  #07 //074   ----------------------------------------
 BYTE   W96
//  #07 //075   ----------------------------------------
 BYTE   W96
//  #07 //076   ----------------------------------------
 BYTE   W96
//  #07 //077   ----------------------------------------
 BYTE   W96
//  #07 //078   ----------------------------------------
 BYTE   W96
//  #07 //079   ----------------------------------------
 BYTE   W96
//  #07 //080   ----------------------------------------
 BYTE   W96
//  #07 //081   ----------------------------------------
 BYTE   W96
//  #07 //082   ----------------------------------------
 BYTE   W96
//  #07 //083   ----------------------------------------
 BYTE   W96
//  #07 //084   ----------------------------------------
 BYTE   W96
//  #07 //085   ----------------------------------------
 BYTE   W96
//  #07 //086   ----------------------------------------
 BYTE   W96
//  #07 //087   ----------------------------------------
 BYTE   W96
//  #07 //088   ----------------------------------------
 BYTE   W96
//  #07 //089   ----------------------------------------
 BYTE   W96
//  #07 //090   ----------------------------------------
 BYTE   W96
//  #07 //091   ----------------------------------------
 BYTE   W96
//  #07 //092   ----------------------------------------
 BYTE   W96
//  #07 //093   ----------------------------------------
 BYTE   W96
//  #07 //094   ----------------------------------------
 BYTE   W96
//  #07 //095   ----------------------------------------
 BYTE   W96
//  #07 //096   ----------------------------------------
 BYTE   W96
//  #07 //097   ----------------------------------------
 BYTE   W96
//  #07 //098   ----------------------------------------
 BYTE   W96
//  #07 //099   ----------------------------------------
 BYTE   W96
//  #07 //100   ----------------------------------------
 BYTE   N90  As3  v052
 BYTE   W96
//  #07 //101   ----------------------------------------
 BYTE   N44  Gs4  v096
 BYTE   W48
 BYTE   N22  Ds4  v076
 BYTE   W24
 BYTE   Cn4  v064
 BYTE   W24
//  #07 //102   ----------------------------------------
 BYTE   GoTo
  POIN2 Label_015F460F
 BYTE   FINE

//**************** Track 8 (Midi-Chn.7) ****************//

song0D_008:
//  #08 //000   ----------------------------------------
 BYTE   KEYSH   song0D_key+0
 BYTE   VOICE   68
 BYTE   VOL   40*song0D_mvl/mxv
 BYTE   PAN   c_v+1
 BYTE   W96
//  #08 //001   ----------------------------------------
 BYTE   W96
//  #08 //002   ----------------------------------------
 BYTE   W96
//  #08 //003   ----------------------------------------
 BYTE   W96
//  #08 //004   ----------------------------------------
 BYTE   W96
//  #08 //005   ----------------------------------------
 BYTE   W96
//  #08 //006   ----------------------------------------
 BYTE   W96
//  #08 //007   ----------------------------------------
 BYTE   W96
//  #08 //008   ----------------------------------------
Label_015F46DC:
 BYTE   W96
//  #08 //009   ----------------------------------------
 BYTE   W96
//  #08 //010   ----------------------------------------
 BYTE   W96
//  #08 //011   ----------------------------------------
 BYTE   W96
//  #08 //012   ----------------------------------------
 BYTE   W96
//  #08 //013   ----------------------------------------
 BYTE   W96
//  #08 //014   ----------------------------------------
 BYTE   W96
//  #08 //015   ----------------------------------------
 BYTE   W96
//  #08 //016   ----------------------------------------
 BYTE   W96
//  #08 //017   ----------------------------------------
 BYTE   W96
//  #08 //018   ----------------------------------------
 BYTE   W96
//  #08 //019   ----------------------------------------
 BYTE   W96
//  #08 //020   ----------------------------------------
 BYTE   N44  As3  v096
 BYTE   W48
 BYTE   N15  Fs3
 BYTE   W16
 BYTE   As3
 BYTE   W16
 BYTE   Fn4
 BYTE   W16
//  #08 //021   ----------------------------------------
Label_015F46F3:
 BYTE   N44  Cn4  v096
 BYTE   W48
 BYTE   Gs3
 BYTE   W48
 BYTE   PEND 
//  #08 //022   ----------------------------------------
 BYTE   As3
 BYTE   W48
 BYTE   N15
 BYTE   W16
 BYTE   Cn4
 BYTE   W16
 BYTE   Cs4
 BYTE   W16
//  #08 //023   ----------------------------------------
 BYTE   PATT
  POIN2 Label_015F46F3
//  #08 //024   ----------------------------------------
 BYTE   N44  As3  v116
 BYTE   W48
 BYTE   N15  Fs3
 BYTE   W16
 BYTE   As3
 BYTE   W16
 BYTE   Fn4
 BYTE   W16
//  #08 //025   ----------------------------------------
 BYTE   N44  Cn4
 BYTE   W48
 BYTE   Gs3
 BYTE   W48
//  #08 //026   ----------------------------------------
 BYTE   N96  As3  v096
 BYTE   W96
//  #08 //027   ----------------------------------------
 BYTE   W96
//  #08 //028   ----------------------------------------
 BYTE   W96
//  #08 //029   ----------------------------------------
 BYTE   W96
//  #08 //030   ----------------------------------------
 BYTE   W96
//  #08 //031   ----------------------------------------
 BYTE   W96
//  #08 //032   ----------------------------------------
 BYTE   N60  An3  v127
 BYTE   W64
 BYTE   N15  Gn3
 BYTE   W16
 BYTE   Fn3
 BYTE   W16
//  #08 //033   ----------------------------------------
 BYTE   N23  En3
 BYTE   W24
 BYTE   Fn3
 BYTE   W24
 BYTE   Gn3
 BYTE   W24
 BYTE   Cn4
 BYTE   W24
//  #08 //034   ----------------------------------------
 BYTE   N15  Dn4
 BYTE   W16
 BYTE   N07  En4
 BYTE   W08
 BYTE   N44  Cn4
 BYTE   W48
 BYTE   N23  An3
 BYTE   W24
//  #08 //035   ----------------------------------------
 BYTE   N92  Dn4
 BYTE   W96
//  #08 //036   ----------------------------------------
 BYTE   N60  An3  v104
 BYTE   W64
 BYTE   N15  Gn3
 BYTE   W16
 BYTE   Fn3
 BYTE   W16
//  #08 //037   ----------------------------------------
 BYTE   N23  En3
 BYTE   W24
 BYTE   Fn3
 BYTE   W24
 BYTE   Gn3
 BYTE   W24
 BYTE   Cn4
 BYTE   W24
//  #08 //038   ----------------------------------------
 BYTE   N44  Gn3
 BYTE   W48
 BYTE   N15  An3
 BYTE   W16
 BYTE   Gn3
 BYTE   W16
 BYTE   Fn3
 BYTE   W16
//  #08 //039   ----------------------------------------
 BYTE   N44  En3
 BYTE   W48
 BYTE   N23  Fn3
 BYTE   W48
//  #08 //040   ----------------------------------------
 BYTE   W96
//  #08 //041   ----------------------------------------
 BYTE   W96
//  #08 //042   ----------------------------------------
 BYTE   W96
//  #08 //043   ----------------------------------------
 BYTE   W96
//  #08 //044   ----------------------------------------
 BYTE   W96
//  #08 //045   ----------------------------------------
 BYTE   W96
//  #08 //046   ----------------------------------------
 BYTE   W96
//  #08 //047   ----------------------------------------
 BYTE   W96
//  #08 //048   ----------------------------------------
 BYTE   W96
//  #08 //049   ----------------------------------------
 BYTE   W96
//  #08 //050   ----------------------------------------
 BYTE   W96
//  #08 //051   ----------------------------------------
 BYTE   W96
//  #08 //052   ----------------------------------------
 BYTE   W96
//  #08 //053   ----------------------------------------
 BYTE   N44  As2  v052
 BYTE   W48
 BYTE   Fn3
 BYTE   W48
//  #08 //054   ----------------------------------------
 BYTE   N44
 BYTE   W48
 BYTE   N23  Ds3
 BYTE   W24
 BYTE   Cs3
 BYTE   W24
//  #08 //055   ----------------------------------------
 BYTE   N32
 BYTE   W36
 BYTE   N11  Bn2
 BYTE   W12
 BYTE   N32
 BYTE   W36
 BYTE   N11  Fs3
 BYTE   W12
//  #08 //056   ----------------------------------------
 BYTE   N32
 BYTE   W36
 BYTE   N11  Fn3
 BYTE   W12
 BYTE   N44
 BYTE   W48
//  #08 //057   ----------------------------------------
 BYTE   As2
 BYTE   W60
 BYTE   N11
 BYTE   W12
 BYTE   Cs3
 BYTE   W12
 BYTE   Fn3
 BYTE   W12
//  #08 //058   ----------------------------------------
 BYTE   N44  Gs3
 BYTE   W48
 BYTE   N23  Fs3
 BYTE   W24
 BYTE   Fn3
 BYTE   W24
//  #08 //059   ----------------------------------------
 BYTE   N23
 BYTE   W24
 BYTE   Ds3
 BYTE   W24
 BYTE   N23
 BYTE   W24
 BYTE   Cs3
 BYTE   W24
//  #08 //060   ----------------------------------------
 BYTE   N32
 BYTE   W36
 BYTE   N11  Cn3
 BYTE   W12
 BYTE   N44
 BYTE   W48
//  #08 //061   ----------------------------------------
 BYTE   W24
 BYTE   N23  Fn4  v060
 BYTE   W24
 BYTE   Dn4
 BYTE   W24
 BYTE   Ds4
 BYTE   W24
//  #08 //062   ----------------------------------------
 BYTE   W24
 BYTE   Fs4
 BYTE   W24
 BYTE   Fn4
 BYTE   W24
 BYTE   Ds4
 BYTE   W24
//  #08 //063   ----------------------------------------
 BYTE   N44
 BYTE   W48
 BYTE   Cs4
 BYTE   W48
//  #08 //064   ----------------------------------------
 BYTE   N23  Cn4
 BYTE   W24
 BYTE   An3
 BYTE   W24
 BYTE   N44  As3
 BYTE   W48
//  #08 //065   ----------------------------------------
 BYTE   W24
 BYTE   N23  Cs4
 BYTE   W24
 BYTE   Ds4
 BYTE   W24
 BYTE   Cs4
 BYTE   W24
//  #08 //066   ----------------------------------------
 BYTE   N92  Ds4
 BYTE   W96
//  #08 //067   ----------------------------------------
 BYTE   Fn4
 BYTE   W96
//  #08 //068   ----------------------------------------
 BYTE   N44  Fs4
 BYTE   W48
 BYTE   Fn4
 BYTE   W48
//  #08 //069   ----------------------------------------
 BYTE   W96
//  #08 //070   ----------------------------------------
 BYTE   W96
//  #08 //071   ----------------------------------------
Label_015F47DD:
 BYTE   N11  As2  v080
 BYTE   W24
 BYTE   N03
 BYTE   W08
 BYTE   N03
 BYTE   W08
 BYTE   N03
 BYTE   W08
 BYTE   N11  Cs3
 BYTE   W24
 BYTE   N11
 BYTE   W24
 BYTE   PEND 
//  #08 //072   ----------------------------------------
 BYTE   Cn3
 BYTE   W24
 BYTE   N03
 BYTE   W08
 BYTE   N03
 BYTE   W08
 BYTE   N03
 BYTE   W08
 BYTE   N11  Ds3
 BYTE   W24
 BYTE   N11
 BYTE   W24
//  #08 //073   ----------------------------------------
 BYTE   Fn3
 BYTE   W24
 BYTE   N03
 BYTE   W08
 BYTE   N03
 BYTE   W08
 BYTE   N03
 BYTE   W08
 BYTE   N11
 BYTE   W24
 BYTE   N11
 BYTE   W24
//  #08 //074   ----------------------------------------
 BYTE   Ds3
 BYTE   W24
 BYTE   N03
 BYTE   W08
 BYTE   N03
 BYTE   W08
 BYTE   N03
 BYTE   W08
 BYTE   N11  Cs3
 BYTE   W24
 BYTE   Cn3
 BYTE   W24
//  #08 //075   ----------------------------------------
 BYTE   PATT
  POIN2 Label_015F47DD
//  #08 //076   ----------------------------------------
 BYTE   N11  Cn3  v080
 BYTE   W24
 BYTE   N03
 BYTE   W08
 BYTE   N03
 BYTE   W08
 BYTE   N03
 BYTE   W08
 BYTE   N11  Ds3
 BYTE   W24
 BYTE   Cs3
 BYTE   W24
//  #08 //077   ----------------------------------------
 BYTE   Cn3
 BYTE   W24
 BYTE   N03
 BYTE   W08
 BYTE   N03
 BYTE   W08
 BYTE   N03
 BYTE   W08
 BYTE   N11  Cs3
 BYTE   W24
 BYTE   Cn3
 BYTE   W24
//  #08 //078   ----------------------------------------
 BYTE   Cs3
 BYTE   W24
 BYTE   N11
 BYTE   W24
 BYTE   N44
 BYTE   W48
//  #08 //079   ----------------------------------------
 BYTE   As3  v052
 BYTE   W48
 BYTE   Gs3
 BYTE   W48
//  #08 //080   ----------------------------------------
Label_015F483F:
 BYTE   N44  Fn4  v052
 BYTE   W48
 BYTE   Ds4
 BYTE   W48
 BYTE   PEND 
//  #08 //081   ----------------------------------------
Label_015F4846:
 BYTE   N44  Cs4  v052
 BYTE   W48
 BYTE   Cn4
 BYTE   W48
 BYTE   PEND 
//  #08 //082   ----------------------------------------
 BYTE   PATT
  POIN2 Label_015F4846
//  #08 //083   ----------------------------------------
 BYTE   N44  Cs4  v052
 BYTE   W48
 BYTE   Gs3
 BYTE   W48
//  #08 //084   ----------------------------------------
 BYTE   Ds4
 BYTE   W48
 BYTE   Gs4
 BYTE   W48
//  #08 //085   ----------------------------------------
 BYTE   PATT
  POIN2 Label_015F483F
//  #08 //086   ----------------------------------------
 BYTE   N92  Cn4  v052
 BYTE   W96
//  #08 //087   ----------------------------------------
 BYTE   As3
 BYTE   W96
//  #08 //088   ----------------------------------------
 BYTE   Ds3
 BYTE   W96
//  #08 //089   ----------------------------------------
 BYTE   As3
 BYTE   W96
//  #08 //090   ----------------------------------------
 BYTE   Cn4
 BYTE   W96
//  #08 //091   ----------------------------------------
 BYTE   N44  As3  v056
 BYTE   W96
//  #08 //092   ----------------------------------------
 BYTE   Fn3  v064
 BYTE   W96
//  #08 //093   ----------------------------------------
 BYTE   N92  Gs3  v072
 BYTE   W96
//  #08 //094   ----------------------------------------
 BYTE   W96
//  #08 //095   ----------------------------------------
 BYTE   W96
//  #08 //096   ----------------------------------------
 BYTE   W96
//  #08 //097   ----------------------------------------
 BYTE   W96
//  #08 //098   ----------------------------------------
 BYTE   W96
//  #08 //099   ----------------------------------------
 BYTE   W96
//  #08 //100   ----------------------------------------
 BYTE   W96
//  #08 //101   ----------------------------------------
 BYTE   W96
//  #08 //102   ----------------------------------------
 BYTE   GoTo
  POIN2 Label_015F46DC
 BYTE   FINE

//**************** Track 9 (Midi-Chn.8) ****************//

song0D_009:
//  #09 //000   ----------------------------------------
 BYTE   KEYSH   song0D_key+0
 BYTE   VOICE   52
 BYTE   VOL   24*song0D_mvl/mxv
 BYTE   W96
//  #09 //001   ----------------------------------------
 BYTE   W96
//  #09 //002   ----------------------------------------
 BYTE   W96
//  #09 //003   ----------------------------------------
 BYTE   W96
//  #09 //004   ----------------------------------------
 BYTE   W96
//  #09 //005   ----------------------------------------
 BYTE   W96
//  #09 //006   ----------------------------------------
 BYTE   W96
//  #09 //007   ----------------------------------------
 BYTE   W96
//  #09 //008   ----------------------------------------
Label_015F4896:
 BYTE   W96
//  #09 //009   ----------------------------------------
 BYTE   W96
//  #09 //010   ----------------------------------------
 BYTE   W96
//  #09 //011   ----------------------------------------
 BYTE   W96
//  #09 //012   ----------------------------------------
 BYTE   W96
//  #09 //013   ----------------------------------------
 BYTE   W96
//  #09 //014   ----------------------------------------
 BYTE   W96
//  #09 //015   ----------------------------------------
 BYTE   W96
//  #09 //016   ----------------------------------------
 BYTE   W96
//  #09 //017   ----------------------------------------
 BYTE   W96
//  #09 //018   ----------------------------------------
 BYTE   W96
//  #09 //019   ----------------------------------------
 BYTE   W96
//  #09 //020   ----------------------------------------
 BYTE   W96
//  #09 //021   ----------------------------------------
 BYTE   W96
//  #09 //022   ----------------------------------------
 BYTE   W96
//  #09 //023   ----------------------------------------
 BYTE   W96
//  #09 //024   ----------------------------------------
 BYTE   W96
//  #09 //025   ----------------------------------------
 BYTE   W96
//  #09 //026   ----------------------------------------
 BYTE   W96
//  #09 //027   ----------------------------------------
 BYTE   W96
//  #09 //028   ----------------------------------------
 BYTE   W96
//  #09 //029   ----------------------------------------
 BYTE   W96
//  #09 //030   ----------------------------------------
 BYTE   W96
//  #09 //031   ----------------------------------------
 BYTE   W96
//  #09 //032   ----------------------------------------
 BYTE   N44  As2  v127
 BYTE   N44  Dn3
 BYTE   W48
 BYTE   Cn3
 BYTE   W48
//  #09 //033   ----------------------------------------
 BYTE   An2
 BYTE   N44  Cn3
 BYTE   W48
 BYTE   Dn3
 BYTE   W48
//  #09 //034   ----------------------------------------
 BYTE   Gn2
 BYTE   N44  Fn3
 BYTE   W48
 BYTE   An2
 BYTE   N44  En3
 BYTE   W48
//  #09 //035   ----------------------------------------
 BYTE   N92  Dn3
 BYTE   N44  En3
 BYTE   W48
 BYTE   Fn3
 BYTE   W48
//  #09 //036   ----------------------------------------
 BYTE   W96
//  #09 //037   ----------------------------------------
 BYTE   W96
//  #09 //038   ----------------------------------------
 BYTE   W96
//  #09 //039   ----------------------------------------
 BYTE   W96
//  #09 //040   ----------------------------------------
 BYTE   W96
//  #09 //041   ----------------------------------------
 BYTE   W96
//  #09 //042   ----------------------------------------
 BYTE   W96
//  #09 //043   ----------------------------------------
 BYTE   W96
//  #09 //044   ----------------------------------------
 BYTE   W96
//  #09 //045   ----------------------------------------
 BYTE   W96
//  #09 //046   ----------------------------------------
 BYTE   W96
//  #09 //047   ----------------------------------------
 BYTE   W96
//  #09 //048   ----------------------------------------
 BYTE   N23  Gs3  v096
 BYTE   W24
 BYTE   Fs3
 BYTE   W24
 BYTE   Cs3
 BYTE   W24
 BYTE   Ds3
 BYTE   W24
//  #09 //049   ----------------------------------------
 BYTE   Fs3
 BYTE   W24
 BYTE   En3
 BYTE   W24
 BYTE   Ds3
 BYTE   W24
 BYTE   En3
 BYTE   W24
//  #09 //050   ----------------------------------------
 BYTE   Bn2
 BYTE   W24
 BYTE   An2
 BYTE   W24
 BYTE   Gs2
 BYTE   W24
 BYTE   Fs2
 BYTE   W24
//  #09 //051   ----------------------------------------
 BYTE   TIE  Gs2
 BYTE   W96
//  #09 //052   ----------------------------------------
 BYTE   W92
 BYTE   W03
 BYTE   EOT
 BYTE   W01
//  #09 //053   ----------------------------------------
Label_015F48F8:
 BYTE   N44  As2  v127
 BYTE   W48
 BYTE   Cn3
 BYTE   W48
 BYTE   PEND 
//  #09 //054   ----------------------------------------
Label_015F48FF:
 BYTE   N44  As2  v127
 BYTE   W48
 BYTE   Cs3
 BYTE   W48
 BYTE   PEND 
//  #09 //055   ----------------------------------------
Label_015F4906:
 BYTE   N44  Bn2  v127
 BYTE   W48
 BYTE   Ds3
 BYTE   W48
 BYTE   PEND 
//  #09 //056   ----------------------------------------
 BYTE   Bn2
 BYTE   W48
 BYTE   N44
 BYTE   W48
//  #09 //057   ----------------------------------------
 BYTE   PATT
  POIN2 Label_015F48FF
//  #09 //058   ----------------------------------------
 BYTE   PATT
  POIN2 Label_015F48F8
//  #09 //059   ----------------------------------------
 BYTE   PATT
  POIN2 Label_015F4906
//  #09 //060   ----------------------------------------
 BYTE   N44  As2  v127
 BYTE   N44  Cs3
 BYTE   W48
 BYTE   An2
 BYTE   N44  Cn3
 BYTE   W48
//  #09 //061   ----------------------------------------
 BYTE   W96
//  #09 //062   ----------------------------------------
 BYTE   W96
//  #09 //063   ----------------------------------------
 BYTE   W96
//  #09 //064   ----------------------------------------
 BYTE   W96
//  #09 //065   ----------------------------------------
 BYTE   W96
//  #09 //066   ----------------------------------------
 BYTE   W96
//  #09 //067   ----------------------------------------
 BYTE   W96
//  #09 //068   ----------------------------------------
 BYTE   W96
//  #09 //069   ----------------------------------------
 BYTE   W96
//  #09 //070   ----------------------------------------
 BYTE   W96
//  #09 //071   ----------------------------------------
 BYTE   W96
//  #09 //072   ----------------------------------------
 BYTE   W96
//  #09 //073   ----------------------------------------
 BYTE   W96
//  #09 //074   ----------------------------------------
 BYTE   W96
//  #09 //075   ----------------------------------------
 BYTE   W96
//  #09 //076   ----------------------------------------
 BYTE   W96
//  #09 //077   ----------------------------------------
 BYTE   W96
//  #09 //078   ----------------------------------------
 BYTE   W96
//  #09 //079   ----------------------------------------
 BYTE   Fn2
 BYTE   N44  As2
 BYTE   W48
 BYTE   Gs2
 BYTE   W48
//  #09 //080   ----------------------------------------
 BYTE   Fn2
 BYTE   N44  As2
 BYTE   N44  Fn3
 BYTE   W48
 BYTE   Gs2
 BYTE   N44  Ds3
 BYTE   W48
//  #09 //081   ----------------------------------------
 BYTE   Ds2
 BYTE   N44  Cn3
 BYTE   N44  Cs3
 BYTE   W48
 BYTE   Ds2
 BYTE   N44  Gs2
 BYTE   N44  Cn3
 BYTE   W48
//  #09 //082   ----------------------------------------
 BYTE   Ds2
 BYTE   N44  Cn3
 BYTE   N44  Cs3
 BYTE   W48
 BYTE   Cs2
 BYTE   N44  Gs2
 BYTE   N44  Cn3
 BYTE   W48
//  #09 //083   ----------------------------------------
 BYTE   Fn2
 BYTE   N44  As2
 BYTE   N44  Cs3
 BYTE   W48
 BYTE   Gs2
 BYTE   W48
//  #09 //084   ----------------------------------------
 BYTE   Ds2
 BYTE   N44  Cn3
 BYTE   N44  Ds3
 BYTE   W48
 BYTE   Cn3
 BYTE   N44  Gs3
 BYTE   W48
//  #09 //085   ----------------------------------------
 BYTE   Fs2
 BYTE   N44  Cs3
 BYTE   N44  Fn3
 BYTE   W48
 BYTE   Ds2
 BYTE   N44  Cn3
 BYTE   N44  Ds3
 BYTE   W48
//  #09 //086   ----------------------------------------
 BYTE   W96
//  #09 //087   ----------------------------------------
 BYTE   W96
//  #09 //088   ----------------------------------------
 BYTE   W96
//  #09 //089   ----------------------------------------
 BYTE   W96
//  #09 //090   ----------------------------------------
 BYTE   W48
 BYTE   Cn3
 BYTE   W48
//  #09 //091   ----------------------------------------
 BYTE   Cs3
 BYTE   W48
 BYTE   Fn3
 BYTE   W48
//  #09 //092   ----------------------------------------
 BYTE   N78
 BYTE   W80
 BYTE   N07  Fs3
 BYTE   W08
 BYTE   Fn3
 BYTE   W08
//  #09 //093   ----------------------------------------
 BYTE   N92  Ds3
 BYTE   W24
 BYTE   N72  Gs3
 BYTE   W72
//  #09 //094   ----------------------------------------
 BYTE   W96
//  #09 //095   ----------------------------------------
 BYTE   W96
//  #09 //096   ----------------------------------------
 BYTE   W96
//  #09 //097   ----------------------------------------
 BYTE   W96
//  #09 //098   ----------------------------------------
 BYTE   W96
//  #09 //099   ----------------------------------------
 BYTE   W96
//  #09 //100   ----------------------------------------
 BYTE   W96
//  #09 //101   ----------------------------------------
 BYTE   W96
//  #09 //102   ----------------------------------------
 BYTE   GoTo
  POIN2 Label_015F4896
 BYTE   FINE

//**************** Track 10 (Midi-Chn.9) ****************//

song0D_010:
//  #10 //000   ----------------------------------------
 BYTE   KEYSH   song0D_key+0
 BYTE   VOICE   60
 BYTE   PAN   c_v+0
 BYTE   VOL   33*song0D_mvl/mxv
 BYTE   N11  Cn3  v064
 BYTE   W24
 BYTE   N03
 BYTE   W08
 BYTE   N03
 BYTE   W08
 BYTE   N03
 BYTE   W08
 BYTE   N11  As2
 BYTE   W24
 BYTE   N11
 BYTE   W24
//  #10 //001   ----------------------------------------
Label_015F49BF:
 BYTE   N11  Cn3  v064
 BYTE   W24
 BYTE   N11
 BYTE   W24
 BYTE   As2
 BYTE   W24
 BYTE   N03
 BYTE   W08
 BYTE   N03
 BYTE   W08
 BYTE   N03
 BYTE   W08
 BYTE   PEND 
//  #10 //002   ----------------------------------------
Label_015F49CE:
 BYTE   N11  Cn3  v064
 BYTE   W24
 BYTE   N03
 BYTE   W08
 BYTE   N03
 BYTE   W08
 BYTE   N03
 BYTE   W08
 BYTE   N11  As2
 BYTE   W24
 BYTE   N11
 BYTE   W24
 BYTE   PEND 
//  #10 //003   ----------------------------------------
Label_015F49DE:
 BYTE   N11  Cs3  v064
 BYTE   W24
 BYTE   N11
 BYTE   W24
 BYTE   Cn3
 BYTE   W24
 BYTE   N03
 BYTE   W08
 BYTE   N03
 BYTE   W08
 BYTE   N03
 BYTE   W08
 BYTE   PEND 
//  #10 //004   ----------------------------------------
 BYTE   PATT
  POIN2 Label_015F49CE
//  #10 //005   ----------------------------------------
 BYTE   PATT
  POIN2 Label_015F49BF
//  #10 //006   ----------------------------------------
 BYTE   PATT
  POIN2 Label_015F49CE
//  #10 //007   ----------------------------------------
 BYTE   PATT
  POIN2 Label_015F49DE
//  #10 //008   ----------------------------------------
Label_015F4A01:
//  #10 //009   ----------------------------------------
 BYTE   PATT
  POIN2 Label_015F49CE
//  #10 //010   ----------------------------------------
 BYTE   PATT
  POIN2 Label_015F49BF
//  #10 //011   ----------------------------------------
 BYTE   PATT
  POIN2 Label_015F49CE
//  #10 //012   ----------------------------------------
 BYTE   PATT
  POIN2 Label_015F49DE
//  #10 //013   ----------------------------------------
 BYTE   PATT
  POIN2 Label_015F49CE
//  #10 //014   ----------------------------------------
 BYTE   PATT
  POIN2 Label_015F49BF
//  #10 //015   ----------------------------------------
 BYTE   PATT
  POIN2 Label_015F49CE
//  #10 //016   ----------------------------------------
 BYTE   PATT
  POIN2 Label_015F49DE
//  #10 //017   ----------------------------------------
 BYTE   PATT
  POIN2 Label_015F49CE
//  #10 //018   ----------------------------------------
 BYTE   PATT
  POIN2 Label_015F49BF
//  #10 //019   ----------------------------------------
 BYTE   PATT
  POIN2 Label_015F49CE
//  #10 //020   ----------------------------------------
 BYTE   PATT
  POIN2 Label_015F49DE
//  #10 //021   ----------------------------------------
 BYTE   W96
//  #10 //022   ----------------------------------------
 BYTE   W96
//  #10 //023   ----------------------------------------
 BYTE   W96
//  #10 //024   ----------------------------------------
 BYTE   W96
//  #10 //025   ----------------------------------------
 BYTE   W96
//  #10 //026   ----------------------------------------
 BYTE   W96
//  #10 //027   ----------------------------------------
 BYTE   W96
//  #10 //028   ----------------------------------------
 BYTE   W96
//  #10 //029   ----------------------------------------
 BYTE   N11  As3  v080
 BYTE   W24
 BYTE   N03
 BYTE   W08
 BYTE   N03
 BYTE   W08
 BYTE   N03
 BYTE   W08
 BYTE   N11  Cn4
 BYTE   W24
 BYTE   N11
 BYTE   W24
//  #10 //030   ----------------------------------------
 BYTE   Gn3
 BYTE   W24
 BYTE   N11
 BYTE   W24
 BYTE   Fn3
 BYTE   W24
 BYTE   N11
 BYTE   W24
//  #10 //031   ----------------------------------------
 BYTE   N11
 BYTE   W24
 BYTE   N03
 BYTE   W08
 BYTE   N03
 BYTE   W08
 BYTE   N03
 BYTE   W08
 BYTE   N11  En3
 BYTE   W24
 BYTE   N11
 BYTE   W24
//  #10 //032   ----------------------------------------
 BYTE   Gn3
 BYTE   W24
 BYTE   N11
 BYTE   W24
 BYTE   N23  Fn3
 BYTE   W48
//  #10 //033   ----------------------------------------
 BYTE   W96
//  #10 //034   ----------------------------------------
 BYTE   W96
//  #10 //035   ----------------------------------------
 BYTE   W96
//  #10 //036   ----------------------------------------
 BYTE   W96
//  #10 //037   ----------------------------------------
Label_015F4A74:
 BYTE   N11  Fn3  v064
 BYTE   W24
 BYTE   N03
 BYTE   W08
 BYTE   N03
 BYTE   W08
 BYTE   N03
 BYTE   W08
 BYTE   N11  En3
 BYTE   W24
 BYTE   N11
 BYTE   W24
 BYTE   PEND 
//  #10 //038   ----------------------------------------
Label_015F4A84:
 BYTE   N11  Gn3  v064
 BYTE   W24
 BYTE   N03
 BYTE   W08
 BYTE   N03
 BYTE   W08
 BYTE   N03
 BYTE   W08
 BYTE   N11  Fn3
 BYTE   W24
 BYTE   N11
 BYTE   W24
 BYTE   PEND 
//  #10 //039   ----------------------------------------
 BYTE   PATT
  POIN2 Label_015F4A74
//  #10 //040   ----------------------------------------
 BYTE   N11  Gn3  v064
 BYTE   W24
 BYTE   N11
 BYTE   W24
 BYTE   N23  Fn3
 BYTE   W48
//  #10 //041   ----------------------------------------
 BYTE   PATT
  POIN2 Label_015F4A74
//  #10 //042   ----------------------------------------
 BYTE   PATT
  POIN2 Label_015F4A84
//  #10 //043   ----------------------------------------
 BYTE   PATT
  POIN2 Label_015F4A74
//  #10 //044   ----------------------------------------
 BYTE   N11  En3  v064
 BYTE   W24
 BYTE   N11
 BYTE   W24
 BYTE   N23
 BYTE   W48
//  #10 //045   ----------------------------------------
 BYTE   W96
//  #10 //046   ----------------------------------------
 BYTE   W96
//  #10 //047   ----------------------------------------
 BYTE   W96
//  #10 //048   ----------------------------------------
 BYTE   W96
//  #10 //049   ----------------------------------------
 BYTE   W96
//  #10 //050   ----------------------------------------
 BYTE   W96
//  #10 //051   ----------------------------------------
 BYTE   W96
//  #10 //052   ----------------------------------------
 BYTE   W96
//  #10 //053   ----------------------------------------
 BYTE   W96
//  #10 //054   ----------------------------------------
 BYTE   W96
//  #10 //055   ----------------------------------------
 BYTE   W96
//  #10 //056   ----------------------------------------
 BYTE   W96
//  #10 //057   ----------------------------------------
 BYTE   W96
//  #10 //058   ----------------------------------------
 BYTE   W96
//  #10 //059   ----------------------------------------
 BYTE   W96
//  #10 //060   ----------------------------------------
 BYTE   W96
//  #10 //061   ----------------------------------------
 BYTE   W96
//  #10 //062   ----------------------------------------
 BYTE   W24
 BYTE   Fn3  v060
 BYTE   W24
 BYTE   Dn3
 BYTE   W24
 BYTE   Ds3
 BYTE   W24
//  #10 //063   ----------------------------------------
 BYTE   W24
 BYTE   Fs3
 BYTE   W24
 BYTE   Fn3
 BYTE   W24
 BYTE   Ds3
 BYTE   W24
//  #10 //064   ----------------------------------------
 BYTE   N44
 BYTE   W48
 BYTE   Cs3
 BYTE   W48
//  #10 //065   ----------------------------------------
 BYTE   N23  Cn3
 BYTE   W24
 BYTE   An2
 BYTE   W24
 BYTE   N44  As2
 BYTE   W48
//  #10 //066   ----------------------------------------
 BYTE   W24
 BYTE   N23  Cs3
 BYTE   W24
 BYTE   Ds3
 BYTE   W24
 BYTE   Cs3
 BYTE   W24
//  #10 //067   ----------------------------------------
 BYTE   N92  Ds3
 BYTE   W96
//  #10 //068   ----------------------------------------
 BYTE   Fn3
 BYTE   W96
//  #10 //069   ----------------------------------------
 BYTE   N44  Fs3
 BYTE   W48
 BYTE   Fn3
 BYTE   W48
//  #10 //070   ----------------------------------------
 BYTE   W96
//  #10 //071   ----------------------------------------
 BYTE   W96
//  #10 //072   ----------------------------------------
Label_015F4AF9:
 BYTE   N11  As2  v080
 BYTE   W24
 BYTE   N03
 BYTE   W08
 BYTE   N03
 BYTE   W08
 BYTE   N03
 BYTE   W08
 BYTE   N11  Cs3
 BYTE   W24
 BYTE   N11
 BYTE   W24
 BYTE   PEND 
//  #10 //073   ----------------------------------------
 BYTE   Cn3
 BYTE   W24
 BYTE   N03
 BYTE   W08
 BYTE   N03
 BYTE   W08
 BYTE   N03
 BYTE   W08
 BYTE   N11  Ds3
 BYTE   W24
 BYTE   N11
 BYTE   W24
//  #10 //074   ----------------------------------------
 BYTE   Fn3
 BYTE   W24
 BYTE   N03
 BYTE   W08
 BYTE   N03
 BYTE   W08
 BYTE   N03
 BYTE   W08
 BYTE   N11
 BYTE   W24
 BYTE   N11
 BYTE   W24
//  #10 //075   ----------------------------------------
 BYTE   Ds3
 BYTE   W24
 BYTE   N03
 BYTE   W08
 BYTE   N03
 BYTE   W08
 BYTE   N03
 BYTE   W08
 BYTE   N11  Cs3
 BYTE   W24
 BYTE   Cn3
 BYTE   W24
//  #10 //076   ----------------------------------------
 BYTE   PATT
  POIN2 Label_015F4AF9
//  #10 //077   ----------------------------------------
 BYTE   N11  Cn3  v080
 BYTE   W24
 BYTE   N03
 BYTE   W08
 BYTE   N03
 BYTE   W08
 BYTE   N03
 BYTE   W08
 BYTE   N11  Ds3
 BYTE   W24
 BYTE   Cs3
 BYTE   W24
//  #10 //078   ----------------------------------------
 BYTE   Cn3
 BYTE   W24
 BYTE   N03
 BYTE   W08
 BYTE   N03
 BYTE   W08
 BYTE   N03
 BYTE   W08
 BYTE   N11  Cs3
 BYTE   W24
 BYTE   Cn3
 BYTE   W24
//  #10 //079   ----------------------------------------
 BYTE   Cs3
 BYTE   W24
 BYTE   N11
 BYTE   W24
 BYTE   N44
 BYTE   W48
//  #10 //080   ----------------------------------------
 BYTE   W96
//  #10 //081   ----------------------------------------
 BYTE   W96
//  #10 //082   ----------------------------------------
 BYTE   W96
//  #10 //083   ----------------------------------------
 BYTE   W96
//  #10 //084   ----------------------------------------
 BYTE   W96
//  #10 //085   ----------------------------------------
 BYTE   W96
//  #10 //086   ----------------------------------------
 BYTE   W96
//  #10 //087   ----------------------------------------
 BYTE   W96
//  #10 //088   ----------------------------------------
 BYTE   W96
//  #10 //089   ----------------------------------------
 BYTE   W96
//  #10 //090   ----------------------------------------
 BYTE   W96
//  #10 //091   ----------------------------------------
 BYTE   W96
//  #10 //092   ----------------------------------------
 BYTE   W96
//  #10 //093   ----------------------------------------
 BYTE   W96
//  #10 //094   ----------------------------------------
 BYTE   W96
//  #10 //095   ----------------------------------------
 BYTE   PATT
  POIN2 Label_015F49CE
//  #10 //096   ----------------------------------------
 BYTE   PATT
  POIN2 Label_015F49BF
//  #10 //097   ----------------------------------------
 BYTE   PATT
  POIN2 Label_015F49CE
//  #10 //098   ----------------------------------------
 BYTE   PATT
  POIN2 Label_015F49DE
//  #10 //099   ----------------------------------------
 BYTE   PATT
  POIN2 Label_015F49CE
//  #10 //100   ----------------------------------------
 BYTE   PATT
  POIN2 Label_015F49BF
//  #10 //101   ----------------------------------------
 BYTE   PATT
  POIN2 Label_015F49CE
//  #10 //102   ----------------------------------------
 BYTE   PATT
  POIN2 Label_015F49DE
//  #10 //103   ----------------------------------------
 BYTE   GoTo
  POIN2 Label_015F4A01
 BYTE   FINE

//**************** Track 11 (Midi-Chn.10) ****************//

song0D_011:
//  #11 //000   ----------------------------------------
 BYTE   KEYSH   song0D_key+0
 BYTE   VOICE   1
 BYTE   PAN   c_v+0
 BYTE   VOL   30*song0D_mvl/mxv
 BYTE   W96
//  #11 //001   ----------------------------------------
 BYTE   W96
//  #11 //002   ----------------------------------------
 BYTE   W96
//  #11 //003   ----------------------------------------
 BYTE   W96
//  #11 //004   ----------------------------------------
 BYTE   W96
//  #11 //005   ----------------------------------------
 BYTE   W96
//  #11 //006   ----------------------------------------
 BYTE   W96
//  #11 //007   ----------------------------------------
 BYTE   W96
//  #11 //008   ----------------------------------------
Label_015F4BA4:
 BYTE   W96
//  #11 //009   ----------------------------------------
 BYTE   W96
//  #11 //010   ----------------------------------------
 BYTE   W96
//  #11 //011   ----------------------------------------
 BYTE   W96
//  #11 //012   ----------------------------------------
 BYTE   W96
//  #11 //013   ----------------------------------------
 BYTE   W96
//  #11 //014   ----------------------------------------
 BYTE   W96
//  #11 //015   ----------------------------------------
 BYTE   W96
//  #11 //016   ----------------------------------------
 BYTE   W96
//  #11 //017   ----------------------------------------
 BYTE   W96
//  #11 //018   ----------------------------------------
 BYTE   W96
//  #11 //019   ----------------------------------------
 BYTE   W96
//  #11 //020   ----------------------------------------
 BYTE   N44  As2  v080
 BYTE   N44  Fn3
 BYTE   W48
 BYTE   As2
 BYTE   N44  Ds3
 BYTE   W48
//  #11 //021   ----------------------------------------
Label_015F4BBA:
 BYTE   N44  Cn3  v080
 BYTE   N44  Ds3
 BYTE   W48
 BYTE   Cn3
 BYTE   N44  Ds3
 BYTE   W48
 BYTE   PEND 
//  #11 //022   ----------------------------------------
 BYTE   Cs3
 BYTE   N44  Fn3
 BYTE   W48
 BYTE   Ds3
 BYTE   W48
//  #11 //023   ----------------------------------------
 BYTE   PATT
  POIN2 Label_015F4BBA
//  #11 //024   ----------------------------------------
 BYTE   N44  As2  v080
 BYTE   N44  Fn3
 BYTE   W48
 BYTE   As4
 BYTE   W48
//  #11 //025   ----------------------------------------
 BYTE   Gs2
 BYTE   N44  Cn3
 BYTE   N44  Ds3
 BYTE   W48
 BYTE   Gs4
 BYTE   W48
//  #11 //026   ----------------------------------------
 BYTE   As2
 BYTE   N44  Gn3
 BYTE   W24
 BYTE   N07  As3
 BYTE   W08
 BYTE   Dn4
 BYTE   W08
 BYTE   Fn4
 BYTE   W08
 BYTE   N44  As2
 BYTE   N44  Gn3
 BYTE   N07  As4
 BYTE   W08
 BYTE   Fn4
 BYTE   W08
 BYTE   Dn4
 BYTE   W08
 BYTE   As3
 BYTE   W08
 BYTE   Dn4
 BYTE   W08
 BYTE   As3
 BYTE   W08
//  #11 //027   ----------------------------------------
 BYTE   N44  Dn3
 BYTE   N44  Fn4
 BYTE   W48
 BYTE   Cs3
 BYTE   N11  Gn4
 BYTE   W24
 BYTE   N07  An4
 BYTE   W08
 BYTE   Gn4
 BYTE   W08
 BYTE   En4
 BYTE   W08
//  #11 //028   ----------------------------------------
 BYTE   W96
//  #11 //029   ----------------------------------------
 BYTE   W96
//  #11 //030   ----------------------------------------
 BYTE   W96
//  #11 //031   ----------------------------------------
 BYTE   W96
//  #11 //032   ----------------------------------------
 BYTE   N22  Dn3
 BYTE   N22  An3  v088
 BYTE   W24
 BYTE   Dn4
 BYTE   W24
 BYTE   En3
 BYTE   W24
 BYTE   Fn3
 BYTE   W24
//  #11 //033   ----------------------------------------
 BYTE   Cn3  v080
 BYTE   N22  Gn3  v088
 BYTE   W24
 BYTE   Cn4
 BYTE   W24
 BYTE   Fn3  v080
 BYTE   W24
 BYTE   An3  v088
 BYTE   W24
//  #11 //034   ----------------------------------------
 BYTE   N44  Dn3  v080
 BYTE   N44  An3  v088
 BYTE   W48
 BYTE   En3  v080
 BYTE   N44  Gn3  v088
 BYTE   W48
//  #11 //035   ----------------------------------------
 BYTE   En3  v080
 BYTE   N44  Gn3  v088
 BYTE   W48
 BYTE   Fn3
 BYTE   W48
//  #11 //036   ----------------------------------------
 BYTE   W96
//  #11 //037   ----------------------------------------
 BYTE   W96
//  #11 //038   ----------------------------------------
 BYTE   W96
//  #11 //039   ----------------------------------------
 BYTE   W96
//  #11 //040   ----------------------------------------
 BYTE   W96
//  #11 //041   ----------------------------------------
 BYTE   W96
//  #11 //042   ----------------------------------------
 BYTE   W96
//  #11 //043   ----------------------------------------
 BYTE   W96
//  #11 //044   ----------------------------------------
 BYTE   N22  Ds2  v080
 BYTE   N44  As3
 BYTE   N44  An4  v096
 BYTE   W24
 BYTE   N22  As2  v080
 BYTE   W24
 BYTE   Cn3
 BYTE   N44  As3
 BYTE   N44  Gn4  v096
 BYTE   W24
 BYTE   N22  As2  v080
 BYTE   W24
//  #11 //045   ----------------------------------------
 BYTE   N44  An2
 BYTE   N22  Cn4
 BYTE   N22  Gn4  v096
 BYTE   W24
 BYTE   Fn4
 BYTE   W24
 BYTE   Fn3  v080
 BYTE   N44  Cn4
 BYTE   N44  Cn5  v096
 BYTE   W24
 BYTE   N22  Cn3  v080
 BYTE   W24
//  #11 //046   ----------------------------------------
 BYTE   N68  Fs2
 BYTE   N22  Cs4
 BYTE   N22  Cn5  v096
 BYTE   W24
 BYTE   As4
 BYTE   W24
 BYTE   N44  Fs4  v080
 BYTE   N44  As4
 BYTE   N44  Fn5  v096
 BYTE   W24
 BYTE   N22  Cs3  v080
 BYTE   W24
//  #11 //047   ----------------------------------------
 BYTE   N90  Fn2
 BYTE   N44  Gs4
 BYTE   N44  Ds5  v096
 BYTE   W48
 BYTE   Cs4  v080
 BYTE   W03
 BYTE   Fn4
 BYTE   W03
 BYTE   N40  Gs4  v096
 BYTE   W42
//  #11 //048   ----------------------------------------
 BYTE   N90  An2  v080
 BYTE   N23  Cs4
 BYTE   W03
 BYTE   N20  En4
 BYTE   W03
 BYTE   N17  Gs4  v096
 BYTE   W18
 BYTE   N22  Fs4
 BYTE   W24
 BYTE   Cs4
 BYTE   W24
 BYTE   Ds4
 BYTE   W24
//  #11 //049   ----------------------------------------
 BYTE   N44  Gs2  v080
 BYTE   N23  Bn3
 BYTE   W03
 BYTE   N20  Ds4
 BYTE   W03
 BYTE   N17  Fs4  v096
 BYTE   W18
 BYTE   N22  En4
 BYTE   W24
 BYTE   N44  Cs2  v080
 BYTE   N22  Ds4  v096
 BYTE   W24
 BYTE   En4
 BYTE   W24
//  #11 //050   ----------------------------------------
 BYTE   N90  Fs2  v080
 BYTE   N23  En3
 BYTE   W03
 BYTE   N20  Fs3
 BYTE   W03
 BYTE   N17  Bn3  v096
 BYTE   W18
 BYTE   N22  An3
 BYTE   W24
 BYTE   Gs3
 BYTE   W24
 BYTE   Fs3
 BYTE   W24
//  #11 //051   ----------------------------------------
 BYTE   N68  Gs2  v080
 BYTE   N80  Cs3
 BYTE   W01
 BYTE   N84  Ds3
 BYTE   W02
 BYTE   TIE  Gs3  v096
 BYTE   W68
 BYTE   W01
 BYTE   N07  Gs2  v088
 BYTE   W08
 BYTE   Cs3
 BYTE   W08
 BYTE   Ds3
 BYTE   W08
//  #11 //052   ----------------------------------------
 BYTE   N90  Cn3  v080
 BYTE   W90
 BYTE   EOT
 BYTE   Gs3
 BYTE   W06
//  #11 //053   ----------------------------------------
 BYTE   N44  As2  v084
 BYTE   W96
//  #11 //054   ----------------------------------------
 BYTE   W96
//  #11 //055   ----------------------------------------
 BYTE   W96
//  #11 //056   ----------------------------------------
 BYTE   W96
//  #11 //057   ----------------------------------------
 BYTE   W96
//  #11 //058   ----------------------------------------
 BYTE   W96
//  #11 //059   ----------------------------------------
 BYTE   W96
//  #11 //060   ----------------------------------------
 BYTE   W24
 BYTE   N07  Cs2  v060
 BYTE   W08
 BYTE   N07
 BYTE   W08
 BYTE   N07
 BYTE   W08
 BYTE   N44  Ds2  v076
 BYTE   W24
 BYTE   N22  Cn2  v060
 BYTE   W24
//  #11 //061   ----------------------------------------
 BYTE   W24
 BYTE   N15  Fn4  v100
 BYTE   W16
 BYTE   N07  Fn4  v080
 BYTE   W08
 BYTE   N22  Fn4  v012
 BYTE   W24
 BYTE   N07  Fn4  v092
 BYTE   W08
 BYTE   As4
 BYTE   W08
 BYTE   Cs5
 BYTE   W08
//  #11 //062   ----------------------------------------
 BYTE   Fn5
 BYTE   W08
 BYTE   Fs5
 BYTE   W08
 BYTE   Cn5
 BYTE   W08
 BYTE   Ds4
 BYTE   W08
 BYTE   An4
 BYTE   W08
 BYTE   Cn4
 BYTE   W08
 BYTE   N44  An3
 BYTE   W48
//  #11 //063   ----------------------------------------
 BYTE   N07  Cs5
 BYTE   W08
 BYTE   Cn5
 BYTE   W08
 BYTE   As4
 BYTE   W08
 BYTE   Fn4  v100
 BYTE   W08
 BYTE   Cs4  v092
 BYTE   W08
 BYTE   Cn4
 BYTE   N07  Fn4  v080
 BYTE   W08
 BYTE   N44  As3  v092
 BYTE   N44  Fn4  v100
 BYTE   W48
//  #11 //064   ----------------------------------------
 BYTE   N07  Cs5  v092
 BYTE   W08
 BYTE   Cn5
 BYTE   W08
 BYTE   As4
 BYTE   W08
 BYTE   Fn4
 BYTE   W08
 BYTE   Cs4
 BYTE   W08
 BYTE   Cn4
 BYTE   W08
 BYTE   N44  As3
 BYTE   W48
//  #11 //065   ----------------------------------------
 BYTE   As4
 BYTE   W24
 BYTE   N15  Fn4  v100
 BYTE   W16
 BYTE   N07  Fn4  v080
 BYTE   W08
 BYTE   N44  Fn4  v100
 BYTE   W12
 BYTE   N11  As4  v092
 BYTE   W12
 BYTE   Cs5
 BYTE   W12
 BYTE   Fn5
 BYTE   W12
//  #11 //066   ----------------------------------------
 BYTE   N44  Gs5
 BYTE   W48
 BYTE   N22  Fs5
 BYTE   W24
 BYTE   Fn5
 BYTE   W24
//  #11 //067   ----------------------------------------
 BYTE   N44
 BYTE   W24
 BYTE   N15  Fn4  v100
 BYTE   W16
 BYTE   N07  Fn4  v080
 BYTE   W08
 BYTE   N32  Fn4  v100
 BYTE   W24
 BYTE   N07  Cs4  v092
 BYTE   W08
 BYTE   Fn4
 BYTE   W08
 BYTE   As4
 BYTE   W08
//  #11 //068   ----------------------------------------
 BYTE   Cs5
 BYTE   W08
 BYTE   As4
 BYTE   W08
 BYTE   Fn4
 BYTE   W08
 BYTE   N22  As3
 BYTE   W24
 BYTE   N07  Cn5
 BYTE   W08
 BYTE   An4
 BYTE   W08
 BYTE   Fn4
 BYTE   W08
 BYTE   N22  An3
 BYTE   W24
//  #11 //069   ----------------------------------------
 BYTE   N11  Fn0  v127
 BYTE   W24
 BYTE   N07  Fn5  v092
 BYTE   W08
 BYTE   Fs5
 BYTE   W08
 BYTE   An4
 BYTE   W08
 BYTE   Fn4
 BYTE   W08
 BYTE   Fs4
 BYTE   W08
 BYTE   An3
 BYTE   W08
 BYTE   Fn3
 BYTE   W08
 BYTE   Fs3
 BYTE   W08
 BYTE   An2
 BYTE   W08
//  #11 //070   ----------------------------------------
 BYTE   N11  Fn2  v104
 BYTE   W24
 BYTE   N68  Fn2  v124
 BYTE   N68  An2  v112
 BYTE   N68  Cn3
 BYTE   N68  Ds3
 BYTE   W72
//  #11 //071   ----------------------------------------
 BYTE   W72
 BYTE   N07  As4  v104
 BYTE   W08
 BYTE   Cn5  v080
 BYTE   W08
 BYTE   Cs5
 BYTE   W08
//  #11 //072   ----------------------------------------
Label_015F4DDC:
 BYTE   N07  Ds5  v080
 BYTE   W08
 BYTE   Gs5
 BYTE   W08
 BYTE   Cs5
 BYTE   W08
 BYTE   Cn5
 BYTE   W08
 BYTE   Gs4
 BYTE   W08
 BYTE   Ds4
 BYTE   W08
 BYTE   Cs4
 BYTE   W08
 BYTE   Cn4
 BYTE   W08
 BYTE   Gs3
 BYTE   W08
 BYTE   Cn4
 BYTE   W08
 BYTE   Cs4
 BYTE   W08
 BYTE   Ds4
 BYTE   W08
 BYTE   PEND 
//  #11 //073   ----------------------------------------
Label_015F4DF7:
 BYTE   N22  Gs4  v104
 BYTE   W72
 BYTE   N07
 BYTE   W08
 BYTE   Cn5  v080
 BYTE   W08
 BYTE   Cs5
 BYTE   W08
 BYTE   PEND 
//  #11 //074   ----------------------------------------
 BYTE   Ds5
 BYTE   W08
 BYTE   Fn5
 BYTE   W08
 BYTE   Cn5
 BYTE   W08
 BYTE   Ds5
 BYTE   W08
 BYTE   As4
 BYTE   W08
 BYTE   Fn4
 BYTE   W08
 BYTE   Ds4
 BYTE   W08
 BYTE   Cs4
 BYTE   W08
 BYTE   Cn4
 BYTE   W08
 BYTE   N22  As3
 BYTE   W24
//  #11 //075   ----------------------------------------
 BYTE   As4  v104
 BYTE   W72
 BYTE   N07
 BYTE   W08
 BYTE   Cn5  v080
 BYTE   W08
 BYTE   Cs5
 BYTE   W08
//  #11 //076   ----------------------------------------
 BYTE   PATT
  POIN2 Label_015F4DDC
//  #11 //077   ----------------------------------------
 BYTE   PATT
  POIN2 Label_015F4DF7
//  #11 //078   ----------------------------------------
 BYTE   N07  Ds5  v080
 BYTE   W08
 BYTE   Fn5
 BYTE   W08
 BYTE   Cs5
 BYTE   W08
 BYTE   Gs4
 BYTE   W08
 BYTE   As4
 BYTE   W08
 BYTE   Fn4
 BYTE   W08
 BYTE   Cs4
 BYTE   W08
 BYTE   Cn4
 BYTE   W08
 BYTE   Gs3
 BYTE   W08
 BYTE   N22  Fn3
 BYTE   N22  As4  v104
 BYTE   W24
//  #11 //079   ----------------------------------------
Label_015F4E46:
 BYTE   N90  Fs2  v080
 BYTE   N44  Fn4  v104
 BYTE   W48
 BYTE   N15
 BYTE   W16
 BYTE   Ds4
 BYTE   W16
 BYTE   Cs4
 BYTE   W16
 BYTE   PEND 
//  #11 //080   ----------------------------------------
 BYTE   N90  Gs2  v080
 BYTE   N22  Cn4  v104
 BYTE   W24
 BYTE   Cs4
 BYTE   W24
 BYTE   Ds4
 BYTE   W24
 BYTE   Gs4
 BYTE   W24
//  #11 //081   ----------------------------------------
 BYTE   N90  Fn2  v080
 BYTE   N44  Ds4  v104
 BYTE   W48
 BYTE   N15  Fn4
 BYTE   W16
 BYTE   Ds4
 BYTE   W16
 BYTE   Cs4
 BYTE   W16
//  #11 //082   ----------------------------------------
 BYTE   N44  As2  v080
 BYTE   N44  Cn4  v104
 BYTE   W48
 BYTE   Gs2  v080
 BYTE   N22  Cs4  v104
 BYTE   W24
 BYTE   As3
 BYTE   W24
//  #11 //083   ----------------------------------------
 BYTE   PATT
  POIN2 Label_015F4E46
//  #11 //084   ----------------------------------------
 BYTE   N68  Fs2  v080
 BYTE   N22  Cn4  v104
 BYTE   W24
 BYTE   Cs4
 BYTE   W24
 BYTE   Ds4
 BYTE   W24
 BYTE   Fn2  v080
 BYTE   N22  Gs4  v104
 BYTE   W24
//  #11 //085   ----------------------------------------
 BYTE   N44  Ds2  v080
 BYTE   N15  As4  v104
 BYTE   W16
 BYTE   N07  Cn5
 BYTE   W08
 BYTE   N44  Gs4
 BYTE   W24
 BYTE   Fn2  v080
 BYTE   W24
 BYTE   N22  Fn4  v104
 BYTE   W24
//  #11 //086   ----------------------------------------
 BYTE   TIE  As2  v080
 BYTE   N90  As4  v104
 BYTE   W08
 BYTE   N07  Cn4  v080
 BYTE   W08
 BYTE   Cs4
 BYTE   W08
 BYTE   N22  Gs4
 BYTE   W24
 BYTE   N07  Ds4
 BYTE   W08
 BYTE   Cs4
 BYTE   W08
 BYTE   N30  Fn4
 BYTE   W32
//  #11 //087   ----------------------------------------
 BYTE   W16
 BYTE   N07  As3
 BYTE   W08
 BYTE   Fn3
 BYTE   W08
 BYTE   Cs3
 BYTE   W08
 BYTE   EOT
 BYTE   As2
 BYTE   N07  Cn3
 BYTE   W08
 BYTE   N44  Gs2
 BYTE   W48
//  #11 //088   ----------------------------------------
 BYTE   N90  Fs2
 BYTE   W08
 BYTE   N07  Cn4
 BYTE   W08
 BYTE   Cs4
 BYTE   W08
 BYTE   N22  Gs4
 BYTE   W24
 BYTE   N07  Ds4
 BYTE   W08
 BYTE   Cs4
 BYTE   W08
 BYTE   N30  Fn4
 BYTE   W32
//  #11 //089   ----------------------------------------
Label_015F4EE3:
 BYTE   W16
 BYTE   N07  As3  v080
 BYTE   W08
 BYTE   Fn3
 BYTE   W08
 BYTE   Cs3
 BYTE   W08
 BYTE   Cn3
 BYTE   W08
 BYTE   N44  Gs2
 BYTE   W48
 BYTE   PEND 
//  #11 //090   ----------------------------------------
Label_015F4EF2:
 BYTE   W08
 BYTE   N07  Cn4  v080
 BYTE   W08
 BYTE   Cs4
 BYTE   W08
 BYTE   N22  Gs4
 BYTE   W24
 BYTE   N07  Ds4
 BYTE   W08
 BYTE   Cs4
 BYTE   W08
 BYTE   N30  Fn4
 BYTE   W32
 BYTE   PEND 
//  #11 //091   ----------------------------------------
 BYTE   PATT
  POIN2 Label_015F4EE3
//  #11 //092   ----------------------------------------
 BYTE   PATT
  POIN2 Label_015F4EF2
//  #11 //093   ----------------------------------------
 BYTE   N07  Cn4  v080
 BYTE   W08
 BYTE   Gs3
 BYTE   W08
 BYTE   Fn3
 BYTE   W08
 BYTE   Ds3
 BYTE   W08
 BYTE   Gs3
 BYTE   W08
 BYTE   Cs3
 BYTE   W08
 BYTE   Cn3
 BYTE   W08
 BYTE   Ds3
 BYTE   W08
 BYTE   Gs3
 BYTE   W08
 BYTE   Cn4
 BYTE   W08
 BYTE   Ds4
 BYTE   W08
 BYTE   Gs4
 BYTE   W08
//  #11 //094   ----------------------------------------
 BYTE   W96
//  #11 //095   ----------------------------------------
 BYTE   W96
//  #11 //096   ----------------------------------------
 BYTE   W96
//  #11 //097   ----------------------------------------
 BYTE   W96
//  #11 //098   ----------------------------------------
 BYTE   W96
//  #11 //099   ----------------------------------------
 BYTE   W96
//  #11 //100   ----------------------------------------
 BYTE   W96
//  #11 //101   ----------------------------------------
 BYTE   W96
//  #11 //102   ----------------------------------------
 BYTE   GoTo
  POIN2 Label_015F4BA4
 BYTE   FINE

//**************** Track 12 (Midi-Chn.11) ****************//

song0D_012:
//  #12 //000   ----------------------------------------
 BYTE   KEYSH   song0D_key+0
 BYTE   VOICE   124
 BYTE   VOL   30*song0D_mvl/mxv
 BYTE   PAN   c_v+1
 BYTE   N23  Cn1  v096
 BYTE   N23  Dn1  v064
 BYTE   N92  En2
 BYTE   W24
 BYTE   N07  Dn1
 BYTE   W08
 BYTE   N07
 BYTE   W08
 BYTE   N07
 BYTE   W08
 BYTE   N23
 BYTE   W24
 BYTE   Cn1  v096
 BYTE   N23  Dn1  v064
 BYTE   W24
//  #12 //001   ----------------------------------------
Label_015F4F58:
 BYTE   N23  Cn1  v096
 BYTE   N23  Dn1  v064
 BYTE   W24
 BYTE   N23
 BYTE   W24
 BYTE   N23
 BYTE   W24
 BYTE   N02
 BYTE   W03
 BYTE   N02
 BYTE   W03
 BYTE   N02
 BYTE   W03
 BYTE   N02
 BYTE   W03
 BYTE   N02
 BYTE   W03
 BYTE   N02
 BYTE   W03
 BYTE   N02
 BYTE   W03
 BYTE   N02
 BYTE   W03
 BYTE   PEND 
//  #12 //002   ----------------------------------------
Label_015F4F74:
 BYTE   N23  Cn1  v096
 BYTE   N23  Dn1  v064
 BYTE   W24
 BYTE   N07
 BYTE   W08
 BYTE   N07
 BYTE   W08
 BYTE   N07
 BYTE   W08
 BYTE   N23
 BYTE   W24
 BYTE   Cn1  v096
 BYTE   N23  Dn1  v064
 BYTE   W24
 BYTE   PEND 
//  #12 //003   ----------------------------------------
Label_015F4F8A:
 BYTE   N23  Cn1  v096
 BYTE   N23  Dn1  v064
 BYTE   W24
 BYTE   N23
 BYTE   W24
 BYTE   N23
 BYTE   N02  En2
 BYTE   W02
 BYTE   N02
 BYTE   W03
 BYTE   N02
 BYTE   W03
 BYTE   N02
 BYTE   W03
 BYTE   N02
 BYTE   W03
 BYTE   N02
 BYTE   W03
 BYTE   N02
 BYTE   W03
 BYTE   N02
 BYTE   W03
 BYTE   N02
 BYTE   W01
 BYTE   Dn1
 BYTE   W02
 BYTE   En2
 BYTE   W01
 BYTE   Dn1
 BYTE   W02
 BYTE   En2
 BYTE   W01
 BYTE   Dn1
 BYTE   W02
 BYTE   En2
 BYTE   W01
 BYTE   Dn1
 BYTE   W02
 BYTE   En2
 BYTE   W01
 BYTE   Dn1
 BYTE   W02
 BYTE   En2
 BYTE   W01
 BYTE   Dn1
 BYTE   W02
 BYTE   En2
 BYTE   W01
 BYTE   Dn1
 BYTE   W02
 BYTE   TIE  En2
 BYTE   W01
 BYTE   N02  Dn1
 BYTE   W03
 BYTE   PEND 
//  #12 //004   ----------------------------------------
 BYTE   PATT
  POIN2 Label_015F4F74
//  #12 //005   ----------------------------------------
Label_015F4FCD:
 BYTE   N23  Cn1  v096
 BYTE   N23  Dn1  v064
 BYTE   W24
 BYTE   N23
 BYTE   W24
 BYTE   N23
 BYTE   W24
 BYTE   N02
 BYTE   W03
 BYTE   N02
 BYTE   W03
 BYTE   N02
 BYTE   W03
 BYTE   N02
 BYTE   W03
 BYTE   N02
 BYTE   W03
 BYTE   N02
 BYTE   W03
 BYTE   N02
 BYTE   W03
 BYTE   N02
 BYTE   W01
 BYTE   PEND 
 BYTE   EOT
 BYTE   En2
 BYTE   W02
//  #12 //006   ----------------------------------------
 BYTE   PATT
  POIN2 Label_015F4F74
//  #12 //007   ----------------------------------------
 BYTE   PATT
  POIN2 Label_015F4F8A
//  #12 //008   ----------------------------------------
Label_015F4FF6:
//  #12 //009   ----------------------------------------
 BYTE   PATT
  POIN2 Label_015F4F74
//  #12 //010   ----------------------------------------
 BYTE   PATT
  POIN2 Label_015F4FCD
//  #12 //011   ----------------------------------------
 BYTE   EOT
 BYTE   En2
 BYTE   W02
//  #12 //012   ----------------------------------------
 BYTE   PATT
  POIN2 Label_015F4F74
//  #12 //013   ----------------------------------------
 BYTE   PATT
  POIN2 Label_015F4F8A
//  #12 //014   ----------------------------------------
 BYTE   PATT
  POIN2 Label_015F4F74
//  #12 //015   ----------------------------------------
 BYTE   PATT
  POIN2 Label_015F4FCD
//  #12 //016   ----------------------------------------
 BYTE   EOT
 BYTE   En2
 BYTE   W02
//  #12 //017   ----------------------------------------
 BYTE   PATT
  POIN2 Label_015F4F74
//  #12 //018   ----------------------------------------
 BYTE   PATT
  POIN2 Label_015F4F58
//  #12 //019   ----------------------------------------
 BYTE   PATT
  POIN2 Label_015F4F74
//  #12 //020   ----------------------------------------
 BYTE   PATT
  POIN2 Label_015F4F58
//  #12 //021   ----------------------------------------
 BYTE   PATT
  POIN2 Label_015F4F74
//  #12 //022   ----------------------------------------
 BYTE   N23  Cn1  v096
 BYTE   N23  Dn1  v064
 BYTE   W24
 BYTE   N23
 BYTE   W24
 BYTE   N23
 BYTE   N02  En2
 BYTE   W02
 BYTE   N02
 BYTE   W03
 BYTE   N02
 BYTE   W03
 BYTE   N02
 BYTE   W03
 BYTE   N02
 BYTE   W03
 BYTE   N02
 BYTE   W03
 BYTE   N02
 BYTE   W03
 BYTE   N02
 BYTE   W03
 BYTE   N02
 BYTE   W01
 BYTE   Dn1  v076
 BYTE   W02
 BYTE   En2  v064
 BYTE   W01
 BYTE   Dn1  v076
 BYTE   W02
 BYTE   En2  v064
 BYTE   W01
 BYTE   Dn1  v076
 BYTE   W02
 BYTE   En2  v064
 BYTE   W01
 BYTE   Dn1  v076
 BYTE   W02
 BYTE   En2  v064
 BYTE   W01
 BYTE   Dn1  v076
 BYTE   W02
 BYTE   En2  v064
 BYTE   W01
 BYTE   Dn1  v076
 BYTE   W02
 BYTE   En2  v064
 BYTE   W01
 BYTE   Dn1  v076
 BYTE   W02
 BYTE   TIE  En2  v064
 BYTE   W01
 BYTE   N02  Dn1  v076
 BYTE   W03
//  #12 //023   ----------------------------------------
 BYTE   N11  Dn1  v064
 BYTE   W12
 BYTE   N23
 BYTE   W24
 BYTE   N11
 BYTE   W12
 BYTE   N23
 BYTE   W24
 BYTE   N07
 BYTE   W08
 BYTE   N07
 BYTE   W08
 BYTE   N07
 BYTE   W06
 BYTE   EOT
 BYTE   En2
 BYTE   W02
//  #12 //024   ----------------------------------------
Label_015F5092:
 BYTE   N23  Dn1  v064
 BYTE   W24
 BYTE   N07
 BYTE   W08
 BYTE   N07
 BYTE   W08
 BYTE   N07
 BYTE   W08
 BYTE   N23
 BYTE   W24
 BYTE   N02
 BYTE   W03
 BYTE   N02
 BYTE   W03
 BYTE   N02
 BYTE   W03
 BYTE   N02
 BYTE   W03
 BYTE   N02
 BYTE   W03
 BYTE   N02
 BYTE   W03
 BYTE   N02
 BYTE   W03
 BYTE   N02
 BYTE   W03
 BYTE   PEND 
//  #12 //025   ----------------------------------------
Label_015F50AF:
 BYTE   N11  Dn1  v064
 BYTE   W12
 BYTE   N23
 BYTE   W24
 BYTE   N11
 BYTE   W12
 BYTE   N23
 BYTE   W24
 BYTE   N07
 BYTE   W08
 BYTE   N07
 BYTE   W08
 BYTE   N07
 BYTE   W08
 BYTE   PEND 
//  #12 //026   ----------------------------------------
 BYTE   PATT
  POIN2 Label_015F5092
//  #12 //027   ----------------------------------------
 BYTE   PATT
  POIN2 Label_015F50AF
//  #12 //028   ----------------------------------------
 BYTE   PATT
  POIN2 Label_015F5092
//  #12 //029   ----------------------------------------
 BYTE   N11  Dn1  v064
 BYTE   W12
 BYTE   N23
 BYTE   W24
 BYTE   N11
 BYTE   W12
 BYTE   N23
 BYTE   W24
 BYTE   N02
 BYTE   W03
 BYTE   N02
 BYTE   W03
 BYTE   N02
 BYTE   W03
 BYTE   N02
 BYTE   W03
 BYTE   N02
 BYTE   W03
 BYTE   N02
 BYTE   W03
 BYTE   N02
 BYTE   W03
 BYTE   N02
 BYTE   W03
//  #12 //030   ----------------------------------------
 BYTE   N23  Dn1  v076
 BYTE   W24
 BYTE   N02  Dn1  v064
 BYTE   W03
 BYTE   N02
 BYTE   W03
 BYTE   N02
 BYTE   W03
 BYTE   N02
 BYTE   W03
 BYTE   N02
 BYTE   W03
 BYTE   N02
 BYTE   W03
 BYTE   N02
 BYTE   W03
 BYTE   N02
 BYTE   W03
 BYTE   N23  Dn1  v076
 BYTE   N02  En2  v096
 BYTE   W02
 BYTE   N02
 BYTE   W03
 BYTE   N02
 BYTE   W03
 BYTE   N02
 BYTE   W03
 BYTE   N02
 BYTE   W03
 BYTE   N02
 BYTE   W03
 BYTE   N02
 BYTE   W03
 BYTE   N02
 BYTE   W03
 BYTE   N02
 BYTE   W01
 BYTE   Dn1  v064
 BYTE   W02
 BYTE   En2  v096
 BYTE   W01
 BYTE   Dn1  v064
 BYTE   W02
 BYTE   En2  v096
 BYTE   W01
 BYTE   Dn1  v064
 BYTE   W02
 BYTE   En2  v096
 BYTE   W01
 BYTE   Dn1  v064
 BYTE   W02
 BYTE   En2  v096
 BYTE   W01
 BYTE   Dn1  v064
 BYTE   W02
 BYTE   En2  v096
 BYTE   W01
 BYTE   Dn1  v064
 BYTE   W02
 BYTE   En2  v096
 BYTE   W01
 BYTE   Dn1  v064
 BYTE   W02
 BYTE   TIE  En2  v096
 BYTE   W01
 BYTE   N02  Dn1  v064
 BYTE   W03
//  #12 //031   ----------------------------------------
 BYTE   N23  Cn1  v116
 BYTE   N23  Dn1
 BYTE   W24
 BYTE   N07  Dn1  v096
 BYTE   W08
 BYTE   N07
 BYTE   W08
 BYTE   N07
 BYTE   W08
 BYTE   N23  Cn1  v116
 BYTE   N23  Dn1  v096
 BYTE   W24
 BYTE   Cn1  v116
 BYTE   N23  Dn1  v096
 BYTE   W24
//  #12 //032   ----------------------------------------
 BYTE   Cn1  v116
 BYTE   N23  Dn1  v096
 BYTE   W24
 BYTE   N23
 BYTE   W24
 BYTE   Cn1  v116
 BYTE   N23  Dn1  v096
 BYTE   W24
 BYTE   Cn1  v116
 BYTE   N23  Dn1  v096
 BYTE   W22
 BYTE   EOT
 BYTE   En2
 BYTE   W02
//  #12 //033   ----------------------------------------
 BYTE   N23  Cn1  v116
 BYTE   N23  Dn1  v096
 BYTE   W24
 BYTE   N07
 BYTE   W08
 BYTE   N07
 BYTE   W08
 BYTE   N07
 BYTE   W08
 BYTE   N23  Cn1  v116
 BYTE   N23  Dn1  v096
 BYTE   W24
 BYTE   Cn1  v116
 BYTE   N23  Dn1  v096
 BYTE   W24
//  #12 //034   ----------------------------------------
 BYTE   Cn1  v116
 BYTE   N23  Dn1  v096
 BYTE   W24
 BYTE   Cn1  v116
 BYTE   N23  Dn1  v096
 BYTE   W24
 BYTE   Cn1  v116
 BYTE   N23  Dn1  v096
 BYTE   W48
//  #12 //035   ----------------------------------------
Label_015F51A3:
 BYTE   N11  Dn1  v080
 BYTE   W12
 BYTE   N23
 BYTE   W24
 BYTE   N11
 BYTE   W12
 BYTE   N23
 BYTE   W24
 BYTE   N02
 BYTE   W03
 BYTE   N02
 BYTE   W03
 BYTE   N02
 BYTE   W03
 BYTE   N02
 BYTE   W03
 BYTE   N02
 BYTE   W03
 BYTE   N02
 BYTE   W03
 BYTE   N02
 BYTE   W03
 BYTE   N02
 BYTE   W03
 BYTE   PEND 
//  #12 //036   ----------------------------------------
 BYTE   N23  Dn1  v096
 BYTE   W24
 BYTE   N02  Dn1  v080
 BYTE   W03
 BYTE   N02
 BYTE   W03
 BYTE   N02
 BYTE   W03
 BYTE   N02
 BYTE   W03
 BYTE   N02
 BYTE   W03
 BYTE   N02
 BYTE   W03
 BYTE   N02
 BYTE   W03
 BYTE   N02
 BYTE   W03
 BYTE   N23  Dn1  v096
 BYTE   W24
 BYTE   N02  Dn1  v080
 BYTE   W03
 BYTE   N02
 BYTE   W03
 BYTE   N02
 BYTE   W03
 BYTE   N02
 BYTE   W03
 BYTE   N02
 BYTE   W03
 BYTE   N02
 BYTE   W03
 BYTE   N02
 BYTE   W03
 BYTE   N02
 BYTE   W03
//  #12 //037   ----------------------------------------
 BYTE   PATT
  POIN2 Label_015F51A3
//  #12 //038   ----------------------------------------
 BYTE   N23  Dn1  v096
 BYTE   W24
 BYTE   N02  Dn1  v080
 BYTE   W03
 BYTE   N02
 BYTE   W03
 BYTE   N02
 BYTE   W03
 BYTE   N02
 BYTE   W03
 BYTE   N02
 BYTE   W03
 BYTE   N02
 BYTE   W03
 BYTE   N02
 BYTE   W03
 BYTE   N02
 BYTE   W03
 BYTE   N23  Dn1  v096
 BYTE   N02  En2  v080
 BYTE   W02
 BYTE   N02
 BYTE   W03
 BYTE   N02
 BYTE   W03
 BYTE   N02
 BYTE   W03
 BYTE   N02
 BYTE   W03
 BYTE   N02
 BYTE   W03
 BYTE   N02
 BYTE   W03
 BYTE   N02
 BYTE   W03
 BYTE   N02
 BYTE   W01
 BYTE   N23  Cn1  v096
 BYTE   N02  Dn1
 BYTE   W02
 BYTE   En2  v080
 BYTE   W01
 BYTE   Dn1  v096
 BYTE   W02
 BYTE   En2  v080
 BYTE   W01
 BYTE   Dn1  v096
 BYTE   W02
 BYTE   En2  v080
 BYTE   W01
 BYTE   Dn1  v096
 BYTE   W02
 BYTE   En2  v080
 BYTE   W01
 BYTE   Dn1  v096
 BYTE   W02
 BYTE   En2  v080
 BYTE   W01
 BYTE   Dn1  v096
 BYTE   W02
 BYTE   En2  v080
 BYTE   W01
 BYTE   Dn1  v096
 BYTE   W02
 BYTE   TIE  En2  v080
 BYTE   W01
 BYTE   N02  Dn1  v096
 BYTE   W03
//  #12 //039   ----------------------------------------
Label_015F524E:
 BYTE   N23  Cn1  v116
 BYTE   N07  Dn1  v076
 BYTE   W08
 BYTE   N15  Dn1  v064
 BYTE   W16
 BYTE   N07  Dn1  v076
 BYTE   W08
 BYTE   N07
 BYTE   W08
 BYTE   N07
 BYTE   W08
 BYTE   N07
 BYTE   W08
 BYTE   N15  Dn1  v064
 BYTE   W16
 BYTE   N23  Cn1  v096
 BYTE   N07  Dn1  v076
 BYTE   W08
 BYTE   Dn1  v064
 BYTE   W08
 BYTE   N07
 BYTE   W08
 BYTE   PEND 
//  #12 //040   ----------------------------------------
 BYTE   N23  Cn1  v116
 BYTE   N07  Dn1  v076
 BYTE   W08
 BYTE   N15  Dn1  v064
 BYTE   W16
 BYTE   N07  Dn1  v076
 BYTE   W08
 BYTE   N07
 BYTE   W08
 BYTE   N07
 BYTE   W08
 BYTE   N07
 BYTE   W08
 BYTE   N15  Dn1  v064
 BYTE   W16
 BYTE   N23  Cn1  v096
 BYTE   N02  Dn1  v064
 BYTE   W03
 BYTE   N02
 BYTE   W03
 BYTE   N02
 BYTE   W03
 BYTE   N02
 BYTE   W03
 BYTE   N02
 BYTE   W03
 BYTE   N02
 BYTE   W03
 BYTE   N02
 BYTE   W03
 BYTE   N02
 BYTE   W01
 BYTE   EOT
 BYTE   En2
 BYTE   W02
//  #12 //041   ----------------------------------------
 BYTE   PATT
  POIN2 Label_015F524E
//  #12 //042   ----------------------------------------
Label_015F52AA:
 BYTE   N23  Cn1  v116
 BYTE   N07  Dn1  v076
 BYTE   W08
 BYTE   N15  Dn1  v064
 BYTE   W16
 BYTE   N07  Dn1  v076
 BYTE   W08
 BYTE   N07
 BYTE   W08
 BYTE   N07
 BYTE   W08
 BYTE   N07
 BYTE   W08
 BYTE   N15  Dn1  v064
 BYTE   W16
 BYTE   N23  Cn1  v096
 BYTE   N02  Dn1  v064
 BYTE   W03
 BYTE   N02
 BYTE   W03
 BYTE   N02
 BYTE   W03
 BYTE   N02
 BYTE   W03
 BYTE   N02
 BYTE   W03
 BYTE   N02
 BYTE   W03
 BYTE   N02
 BYTE   W03
 BYTE   N02
 BYTE   W03
 BYTE   PEND 
//  #12 //043   ----------------------------------------
 BYTE   PATT
  POIN2 Label_015F524E
//  #12 //044   ----------------------------------------
 BYTE   PATT
  POIN2 Label_015F52AA
//  #12 //045   ----------------------------------------
 BYTE   PATT
  POIN2 Label_015F524E
//  #12 //046   ----------------------------------------
 BYTE   N23  Cn1  v116
 BYTE   N07  Dn1  v076
 BYTE   W08
 BYTE   N15  Dn1  v064
 BYTE   W16
 BYTE   N07  Dn1  v076
 BYTE   W08
 BYTE   N07
 BYTE   W08
 BYTE   N07
 BYTE   W08
 BYTE   N07
 BYTE   N02  En2  v080
 BYTE   W02
 BYTE   N02
 BYTE   W03
 BYTE   N02
 BYTE   W03
 BYTE   N15  Dn1  v064
 BYTE   N02  En2  v080
 BYTE   W03
 BYTE   N02
 BYTE   W03
 BYTE   N02
 BYTE   W03
 BYTE   N02
 BYTE   W03
 BYTE   N02
 BYTE   W03
 BYTE   N02
 BYTE   W01
 BYTE   Dn1  v076
 BYTE   W02
 BYTE   En2  v080
 BYTE   W01
 BYTE   Dn1  v076
 BYTE   W02
 BYTE   En2  v080
 BYTE   W01
 BYTE   Dn1  v076
 BYTE   W02
 BYTE   En2  v080
 BYTE   W01
 BYTE   Dn1  v076
 BYTE   W02
 BYTE   En2  v080
 BYTE   W01
 BYTE   Dn1  v076
 BYTE   W02
 BYTE   En2  v080
 BYTE   W01
 BYTE   Dn1  v076
 BYTE   W02
 BYTE   En2  v080
 BYTE   W01
 BYTE   Dn1  v076
 BYTE   W02
 BYTE   TIE  En2  v080
 BYTE   W01
 BYTE   N02  Dn1  v076
 BYTE   W03
//  #12 //047   ----------------------------------------
Label_015F5344:
 BYTE   N11  Dn1  v052
 BYTE   W12
 BYTE   N23
 BYTE   W24
 BYTE   N11
 BYTE   W12
 BYTE   N23
 BYTE   W24
 BYTE   N07
 BYTE   W08
 BYTE   N07
 BYTE   W08
 BYTE   N07
 BYTE   W08
 BYTE   PEND 
//  #12 //048   ----------------------------------------
Label_015F5355:
 BYTE   N23  Dn1  v052
 BYTE   W24
 BYTE   N07
 BYTE   W08
 BYTE   N07
 BYTE   W08
 BYTE   N07
 BYTE   W08
 BYTE   N23
 BYTE   W24
 BYTE   N02
 BYTE   W03
 BYTE   N02
 BYTE   W03
 BYTE   N02
 BYTE   W03
 BYTE   N02
 BYTE   W03
 BYTE   N02
 BYTE   W03
 BYTE   N02
 BYTE   W03
 BYTE   N02
 BYTE   W03
 BYTE   N02
 BYTE   W01
 BYTE   PEND 
 BYTE   EOT
 BYTE   En2
 BYTE   W02
//  #12 //049   ----------------------------------------
Label_015F5375:
 BYTE   N11  Dn1  v052
 BYTE   W12
 BYTE   N23
 BYTE   W24
 BYTE   N11
 BYTE   W12
 BYTE   N23
 BYTE   W24
 BYTE   N02
 BYTE   W03
 BYTE   N02
 BYTE   W03
 BYTE   N02
 BYTE   W03
 BYTE   N02
 BYTE   W03
 BYTE   N02
 BYTE   W03
 BYTE   N02
 BYTE   W03
 BYTE   N02
 BYTE   W03
 BYTE   N02
 BYTE   W03
 BYTE   PEND 
//  #12 //050   ----------------------------------------
Label_015F5390:
 BYTE   N23  Dn1  v052
 BYTE   W24
 BYTE   N07
 BYTE   W08
 BYTE   N07
 BYTE   W08
 BYTE   N07
 BYTE   W08
 BYTE   N23
 BYTE   W24
 BYTE   N02
 BYTE   W03
 BYTE   N02
 BYTE   W03
 BYTE   N02
 BYTE   W03
 BYTE   N02
 BYTE   W03
 BYTE   N02
 BYTE   W03
 BYTE   N02
 BYTE   W03
 BYTE   N02
 BYTE   W03
 BYTE   N02
 BYTE   W03
 BYTE   PEND 
//  #12 //051   ----------------------------------------
 BYTE   PATT
  POIN2 Label_015F5344
//  #12 //052   ----------------------------------------
 BYTE   PATT
  POIN2 Label_015F5390
//  #12 //053   ----------------------------------------
 BYTE   PATT
  POIN2 Label_015F5344
//  #12 //054   ----------------------------------------
 BYTE   PATT
  POIN2 Label_015F5390
//  #12 //055   ----------------------------------------
 BYTE   N23  Dn1  v052
 BYTE   W24
 BYTE   N07
 BYTE   W08
 BYTE   N07
 BYTE   W08
 BYTE   N07
 BYTE   W08
 BYTE   N23
 BYTE   N02  En2  v080
 BYTE   W02
 BYTE   N02
 BYTE   W03
 BYTE   N02
 BYTE   W03
 BYTE   N02
 BYTE   W03
 BYTE   N02
 BYTE   W03
 BYTE   N02
 BYTE   W03
 BYTE   N02
 BYTE   W03
 BYTE   N02
 BYTE   W03
 BYTE   N02
 BYTE   W01
 BYTE   Dn1  v052
 BYTE   W02
 BYTE   En2  v080
 BYTE   W01
 BYTE   Dn1  v052
 BYTE   W02
 BYTE   En2  v080
 BYTE   W01
 BYTE   Dn1  v052
 BYTE   W02
 BYTE   En2  v080
 BYTE   W01
 BYTE   Dn1  v052
 BYTE   W02
 BYTE   En2  v080
 BYTE   W01
 BYTE   Dn1  v052
 BYTE   W02
 BYTE   En2  v080
 BYTE   W01
 BYTE   Dn1  v052
 BYTE   W02
 BYTE   En2  v080
 BYTE   W01
 BYTE   Dn1  v052
 BYTE   W02
 BYTE   TIE  En2  v080
 BYTE   W01
 BYTE   N02  Dn1  v052
 BYTE   W03
//  #12 //056   ----------------------------------------
 BYTE   PATT
  POIN2 Label_015F5344
//  #12 //057   ----------------------------------------
 BYTE   PATT
  POIN2 Label_015F5355
//  #12 //058   ----------------------------------------
 BYTE   EOT
 BYTE   En2
 BYTE   W02
//  #12 //059   ----------------------------------------
 BYTE   PATT
  POIN2 Label_015F5375
//  #12 //060   ----------------------------------------
 BYTE   PATT
  POIN2 Label_015F5390
//  #12 //061   ----------------------------------------
 BYTE   PATT
  POIN2 Label_015F5344
//  #12 //062   ----------------------------------------
 BYTE   PATT
  POIN2 Label_015F5390
//  #12 //063   ----------------------------------------
 BYTE   PATT
  POIN2 Label_015F5344
//  #12 //064   ----------------------------------------
 BYTE   N23  Dn1  v052
 BYTE   W24
 BYTE   N07
 BYTE   W08
 BYTE   N07
 BYTE   W08
 BYTE   N07
 BYTE   W08
 BYTE   N23
 BYTE   N02  En2  v080
 BYTE   W02
 BYTE   N02
 BYTE   W03
 BYTE   N02
 BYTE   W03
 BYTE   N02
 BYTE   W03
 BYTE   N02
 BYTE   W03
 BYTE   N02
 BYTE   W03
 BYTE   N02
 BYTE   W03
 BYTE   N02
 BYTE   W03
 BYTE   N02
 BYTE   W01
 BYTE   Dn1  v060
 BYTE   W02
 BYTE   En2  v080
 BYTE   W01
 BYTE   Dn1  v060
 BYTE   W02
 BYTE   En2  v080
 BYTE   W01
 BYTE   Dn1  v060
 BYTE   W02
 BYTE   En2  v080
 BYTE   W01
 BYTE   Dn1  v060
 BYTE   W02
 BYTE   En2  v080
 BYTE   W01
 BYTE   Dn1  v060
 BYTE   W02
 BYTE   En2  v080
 BYTE   W01
 BYTE   Dn1  v060
 BYTE   W02
 BYTE   En2  v080
 BYTE   W01
 BYTE   Dn1  v060
 BYTE   W02
 BYTE   TIE  En2  v080
 BYTE   W01
 BYTE   N02  Dn1  v060
 BYTE   W03
//  #12 //065   ----------------------------------------
Label_015F5483:
 BYTE   N23  Cn1  v096
 BYTE   N07  Dn1  v060
 BYTE   W08
 BYTE   N15  Dn1  v052
 BYTE   W16
 BYTE   N07  Dn1  v060
 BYTE   W08
 BYTE   N07
 BYTE   W08
 BYTE   N07
 BYTE   W08
 BYTE   N07
 BYTE   W08
 BYTE   N15  Dn1  v052
 BYTE   W16
 BYTE   N23  Cn1  v096
 BYTE   N07  Dn1  v060
 BYTE   W08
 BYTE   Dn1  v052
 BYTE   W08
 BYTE   N07
 BYTE   W08
 BYTE   PEND 
//  #12 //066   ----------------------------------------
 BYTE   N23  Cn1  v096
 BYTE   N07  Dn1  v060
 BYTE   W08
 BYTE   N15  Dn1  v052
 BYTE   W16
 BYTE   N07  Dn1  v060
 BYTE   W08
 BYTE   N07
 BYTE   W08
 BYTE   N07
 BYTE   W08
 BYTE   N44  Cn1  v096
 BYTE   N07  Dn1  v060
 BYTE   W08
 BYTE   N15  Dn1  v052
 BYTE   W16
 BYTE   N02
 BYTE   W03
 BYTE   N02
 BYTE   W03
 BYTE   N02
 BYTE   W03
 BYTE   N02
 BYTE   W03
 BYTE   N02
 BYTE   W03
 BYTE   N02
 BYTE   W03
 BYTE   N02
 BYTE   W03
 BYTE   N02
 BYTE   W01
 BYTE   EOT
 BYTE   En2
 BYTE   W02
//  #12 //067   ----------------------------------------
 BYTE   PATT
  POIN2 Label_015F5483
//  #12 //068   ----------------------------------------
 BYTE   N23  Cn1  v096
 BYTE   N07  Dn1  v060
 BYTE   W08
 BYTE   N15  Dn1  v052
 BYTE   W16
 BYTE   N07  Dn1  v060
 BYTE   W08
 BYTE   N07
 BYTE   W08
 BYTE   N07
 BYTE   W08
 BYTE   N23  Cn1  v096
 BYTE   N07  Dn1  v060
 BYTE   W08
 BYTE   N15  Dn1  v052
 BYTE   W16
 BYTE   N23  Cn1  v096
 BYTE   N02  Dn1  v052
 BYTE   W03
 BYTE   N02
 BYTE   W03
 BYTE   N02
 BYTE   W03
 BYTE   N02
 BYTE   W03
 BYTE   N02
 BYTE   W03
 BYTE   N02
 BYTE   W03
 BYTE   N02
 BYTE   W03
 BYTE   N02
 BYTE   W03
//  #12 //069   ----------------------------------------
 BYTE   PATT
  POIN2 Label_015F5483
//  #12 //070   ----------------------------------------
 BYTE   N23  Cn1  v096
 BYTE   N07  Dn1  v060
 BYTE   W08
 BYTE   N15  Dn1  v052
 BYTE   W16
 BYTE   N07  Dn1  v060
 BYTE   W08
 BYTE   N07
 BYTE   W08
 BYTE   N07
 BYTE   W08
 BYTE   N44  Cn1  v096
 BYTE   N07  Dn1  v060
 BYTE   W08
 BYTE   N15  Dn1  v052
 BYTE   W16
 BYTE   N02
 BYTE   W03
 BYTE   N02
 BYTE   W03
 BYTE   N02
 BYTE   W03
 BYTE   N02
 BYTE   W03
 BYTE   N02
 BYTE   W03
 BYTE   N02
 BYTE   W03
 BYTE   N02
 BYTE   W03
 BYTE   N02
 BYTE   W03
//  #12 //071   ----------------------------------------
 BYTE   PATT
  POIN2 Label_015F5483
//  #12 //072   ----------------------------------------
 BYTE   N23  Cn1  v096
 BYTE   N07  Dn1  v060
 BYTE   W08
 BYTE   N15  Dn1  v052
 BYTE   W16
 BYTE   N07  Dn1  v060
 BYTE   W08
 BYTE   N07
 BYTE   W08
 BYTE   N07
 BYTE   W08
 BYTE   N23  Cn1  v096
 BYTE   N07  Dn1  v060
 BYTE   W08
 BYTE   N15  Dn1  v052
 BYTE   W16
 BYTE   N23  Cn1  v096
 BYTE   N02  Dn1  v060
 BYTE   W03
 BYTE   N02
 BYTE   W03
 BYTE   N02
 BYTE   W03
 BYTE   N02
 BYTE   W03
 BYTE   N02
 BYTE   W03
 BYTE   N02
 BYTE   W03
 BYTE   N02
 BYTE   W03
 BYTE   N02
 BYTE   W03
//  #12 //073   ----------------------------------------
 BYTE   N23  Cn1  v096
 BYTE   W24
 BYTE   N02  Dn1  v052
 BYTE   W02
 BYTE   N02
 BYTE   W03
 BYTE   N02
 BYTE   W03
 BYTE   N02
 BYTE   W03
 BYTE   N02
 BYTE   W03
 BYTE   N02
 BYTE   W03
 BYTE   N02
 BYTE   W03
 BYTE   N02
 BYTE   W03
 BYTE   N02
 BYTE   W03
 BYTE   N02
 BYTE   W03
 BYTE   N02
 BYTE   W03
 BYTE   N02
 BYTE   W03
 BYTE   N02
 BYTE   W03
 BYTE   N02
 BYTE   W03
 BYTE   N02
 BYTE   W03
 BYTE   N02
 BYTE   W03
 BYTE   N02
 BYTE   W03
 BYTE   N02
 BYTE   W03
 BYTE   N02
 BYTE   W03
 BYTE   N02
 BYTE   W03
 BYTE   N02
 BYTE   W02
 BYTE   N02
 BYTE   W03
 BYTE   N02
 BYTE   W03
 BYTE   N02
 BYTE   W05
//  #12 //074   ----------------------------------------
 BYTE   Dn1  v056
 BYTE   W02
 BYTE   N02
 BYTE   W03
 BYTE   N02
 BYTE   W03
 BYTE   N02
 BYTE   W03
 BYTE   N02
 BYTE   W03
 BYTE   N02
 BYTE   W03
 BYTE   N02
 BYTE   W03
 BYTE   N02
 BYTE   W03
 BYTE   N02
 BYTE   W03
 BYTE   N02
 BYTE   W03
 BYTE   N02
 BYTE   W03
 BYTE   N02
 BYTE   W03
 BYTE   N02
 BYTE   W03
 BYTE   N02
 BYTE   W03
 BYTE   N02
 BYTE   W03
 BYTE   N02
 BYTE   W03
 BYTE   N02
 BYTE   W01
 BYTE   En2  v080
 BYTE   W02
 BYTE   Dn1  v056
 BYTE   N02  En2  v080
 BYTE   W03
 BYTE   Dn1  v056
 BYTE   N02  En2  v080
 BYTE   W03
 BYTE   Dn1  v056
 BYTE   N02  En2  v080
 BYTE   W03
 BYTE   Dn1  v056
 BYTE   N02  En2  v080
 BYTE   W03
 BYTE   Dn1  v056
 BYTE   N02  En2  v080
 BYTE   W03
 BYTE   Dn1  v056
 BYTE   N02  En2  v080
 BYTE   W03
 BYTE   Dn1  v056
 BYTE   N02  En2  v080
 BYTE   W03
 BYTE   Dn1  v056
 BYTE   N02  En2  v080
 BYTE   W03
 BYTE   Dn1  v056
 BYTE   N02  En2  v080
 BYTE   W03
 BYTE   Dn1  v056
 BYTE   N02  En2  v080
 BYTE   W03
 BYTE   Dn1  v056
 BYTE   N02  En2  v080
 BYTE   W03
 BYTE   Dn1  v056
 BYTE   N02  En2  v080
 BYTE   W03
 BYTE   Dn1  v056
 BYTE   N02  En2  v080
 BYTE   W03
 BYTE   Dn1  v056
 BYTE   N02  En2  v080
 BYTE   W03
 BYTE   Dn1  v056
 BYTE   TIE  En2  v080
 BYTE   W04
//  #12 //075   ----------------------------------------
Label_015F5633:
 BYTE   N23  Dn1  v064
 BYTE   W24
 BYTE   N07
 BYTE   W08
 BYTE   N07
 BYTE   W08
 BYTE   N07
 BYTE   W08
 BYTE   N23
 BYTE   W24
 BYTE   N23
 BYTE   W24
 BYTE   PEND 
//  #12 //076   ----------------------------------------
 BYTE   N23
 BYTE   W24
 BYTE   N23
 BYTE   W24
 BYTE   N23
 BYTE   W24
 BYTE   N02
 BYTE   W03
 BYTE   N02
 BYTE   W03
 BYTE   N02
 BYTE   W03
 BYTE   N02
 BYTE   W03
 BYTE   N02
 BYTE   W03
 BYTE   N02
 BYTE   W03
 BYTE   N02
 BYTE   W03
 BYTE   N02
 BYTE   W01
 BYTE   EOT
 BYTE   En2
 BYTE   W02
//  #12 //077   ----------------------------------------
 BYTE   PATT
  POIN2 Label_015F5633
//  #12 //078   ----------------------------------------
Label_015F5660:
 BYTE   N23  Dn1  v064
 BYTE   W24
 BYTE   N23
 BYTE   W24
 BYTE   N23
 BYTE   W24
 BYTE   N02
 BYTE   W03
 BYTE   N02
 BYTE   W03
 BYTE   N02
 BYTE   W03
 BYTE   N02
 BYTE   W03
 BYTE   N02
 BYTE   W03
 BYTE   N02
 BYTE   W03
 BYTE   N02
 BYTE   W03
 BYTE   N02
 BYTE   W03
 BYTE   PEND 
//  #12 //079   ----------------------------------------
 BYTE   PATT
  POIN2 Label_015F5633
//  #12 //080   ----------------------------------------
 BYTE   PATT
  POIN2 Label_015F5660
//  #12 //081   ----------------------------------------
 BYTE   PATT
  POIN2 Label_015F5633
//  #12 //082   ----------------------------------------
 BYTE   N23  Dn1  v064
 BYTE   W24
 BYTE   N23
 BYTE   W24
 BYTE   N23
 BYTE   N02  En2  v080
 BYTE   W02
 BYTE   N02
 BYTE   W03
 BYTE   N02
 BYTE   W03
 BYTE   N02
 BYTE   W03
 BYTE   N02
 BYTE   W03
 BYTE   N02
 BYTE   W03
 BYTE   N02
 BYTE   W03
 BYTE   N02
 BYTE   W03
 BYTE   N02
 BYTE   W01
 BYTE   Dn1  v064
 BYTE   W02
 BYTE   En2  v080
 BYTE   W01
 BYTE   Dn1  v064
 BYTE   W02
 BYTE   En2  v080
 BYTE   W01
 BYTE   Dn1  v064
 BYTE   W02
 BYTE   En2  v080
 BYTE   W01
 BYTE   Dn1  v064
 BYTE   W02
 BYTE   En2  v080
 BYTE   W01
 BYTE   Dn1  v064
 BYTE   W02
 BYTE   En2  v080
 BYTE   W01
 BYTE   Dn1  v064
 BYTE   W02
 BYTE   En2  v080
 BYTE   W01
 BYTE   Dn1  v064
 BYTE   W02
 BYTE   TIE  En2  v080
 BYTE   W01
 BYTE   N02  Dn1  v064
 BYTE   W03
//  #12 //083   ----------------------------------------
 BYTE   PATT
  POIN2 Label_015F5344
//  #12 //084   ----------------------------------------
 BYTE   PATT
  POIN2 Label_015F5355
//  #12 //085   ----------------------------------------
 BYTE   EOT
 BYTE   En2
 BYTE   W02
//  #12 //086   ----------------------------------------
 BYTE   PATT
  POIN2 Label_015F5375
//  #12 //087   ----------------------------------------
 BYTE   PATT
  POIN2 Label_015F5390
//  #12 //088   ----------------------------------------
 BYTE   PATT
  POIN2 Label_015F5344
//  #12 //089   ----------------------------------------
 BYTE   PATT
  POIN2 Label_015F5390
//  #12 //090   ----------------------------------------
 BYTE   PATT
  POIN2 Label_015F5344
//  #12 //091   ----------------------------------------
 BYTE   N11  Dn1  v052
 BYTE   N92  En2  v080
 BYTE   W12
 BYTE   N23  Dn1  v052
 BYTE   W24
 BYTE   N11
 BYTE   W12
 BYTE   N23
 BYTE   W24
 BYTE   N07
 BYTE   W08
 BYTE   N07
 BYTE   W08
 BYTE   N07
 BYTE   W08
//  #12 //092   ----------------------------------------
 BYTE   PATT
  POIN2 Label_015F5390
//  #12 //093   ----------------------------------------
 BYTE   PATT
  POIN2 Label_015F5375
//  #12 //094   ----------------------------------------
 BYTE   N23  Dn1  v052
 BYTE   W24
 BYTE   N07
 BYTE   W08
 BYTE   N07
 BYTE   W08
 BYTE   N07
 BYTE   W08
 BYTE   N23
 BYTE   N02  En2  v080
 BYTE   W02
 BYTE   N02
 BYTE   W03
 BYTE   N02
 BYTE   W03
 BYTE   N02
 BYTE   W03
 BYTE   N02
 BYTE   W03
 BYTE   N02
 BYTE   W03
 BYTE   N02
 BYTE   W03
 BYTE   N02
 BYTE   W03
 BYTE   N02
 BYTE   W01
 BYTE   N23  Cn1  v096
 BYTE   N02  Dn1  v052
 BYTE   W02
 BYTE   En2  v080
 BYTE   W01
 BYTE   Dn1  v052
 BYTE   W02
 BYTE   En2  v080
 BYTE   W01
 BYTE   Dn1  v052
 BYTE   W02
 BYTE   En2  v080
 BYTE   W01
 BYTE   Dn1  v052
 BYTE   W02
 BYTE   En2  v080
 BYTE   W01
 BYTE   Dn1  v052
 BYTE   W02
 BYTE   En2  v080
 BYTE   W01
 BYTE   Dn1  v052
 BYTE   W02
 BYTE   En2  v080
 BYTE   W01
 BYTE   Dn1  v052
 BYTE   W02
 BYTE   TIE  En2  v080
 BYTE   W01
 BYTE   N02  Dn1  v052
 BYTE   W03
//  #12 //095   ----------------------------------------
 BYTE   N23  Cn1  v096
 BYTE   N11  Dn1  v052
 BYTE   W12
 BYTE   N23
 BYTE   W24
 BYTE   N11
 BYTE   W12
 BYTE   N23
 BYTE   W24
 BYTE   Cn1  v096
 BYTE   N07  Dn1  v056
 BYTE   W08
 BYTE   N07
 BYTE   W08
 BYTE   N07
 BYTE   W08
//  #12 //096   ----------------------------------------
 BYTE   N23  Cn1  v096
 BYTE   N23  Dn1  v056
 BYTE   W24
 BYTE   N07  Dn1  v060
 BYTE   W08
 BYTE   N07
 BYTE   W08
 BYTE   N07
 BYTE   W08
 BYTE   N23
 BYTE   W24
 BYTE   Cn1  v096
 BYTE   N02  Dn1  v064
 BYTE   W03
 BYTE   N02
 BYTE   W03
 BYTE   N02
 BYTE   W03
 BYTE   N02
 BYTE   W03
 BYTE   N02
 BYTE   W03
 BYTE   N02
 BYTE   W03
 BYTE   N02
 BYTE   W03
 BYTE   N02
 BYTE   W01
 BYTE   EOT
 BYTE   En2
 BYTE   W02
//  #12 //097   ----------------------------------------
 BYTE   N23  Cn1  v096
 BYTE   N11  Dn1  v064
 BYTE   W12
 BYTE   N23  Dn1  v068
 BYTE   W24
 BYTE   N11
 BYTE   W12
 BYTE   N23
 BYTE   W24
 BYTE   Cn1  v096
 BYTE   N07  Dn1  v072
 BYTE   W08
 BYTE   N07
 BYTE   W08
 BYTE   N07
 BYTE   W08
//  #12 //098   ----------------------------------------
 BYTE   N23  Cn1  v096
 BYTE   N23  Dn1  v072
 BYTE   W24
 BYTE   N07  Dn1  v076
 BYTE   W08
 BYTE   N07
 BYTE   W08
 BYTE   N07
 BYTE   W08
 BYTE   N23
 BYTE   W24
 BYTE   Cn1  v096
 BYTE   N23  Dn1  v080
 BYTE   W24
//  #12 //099   ----------------------------------------
 BYTE   Cn1  v096
 BYTE   N23  Dn1  v064
 BYTE   N92  En2
 BYTE   W24
 BYTE   N07  Dn1
 BYTE   W08
 BYTE   N07
 BYTE   W08
 BYTE   N07
 BYTE   W08
 BYTE   N23
 BYTE   W24
 BYTE   Cn1  v096
 BYTE   N23  Dn1  v064
 BYTE   W24
//  #12 //100   ----------------------------------------
 BYTE   PATT
  POIN2 Label_015F4F58
//  #12 //101   ----------------------------------------
 BYTE   PATT
  POIN2 Label_015F4F74
//  #12 //102   ----------------------------------------
 BYTE   PATT
  POIN2 Label_015F4F8A
//  #12 //103   ----------------------------------------
 BYTE   PATT
  POIN2 Label_015F4F74
//  #12 //104   ----------------------------------------
 BYTE   PATT
  POIN2 Label_015F4FCD
//  #12 //105   ----------------------------------------
 BYTE   EOT
 BYTE   En2
 BYTE   W02
//  #12 //106   ----------------------------------------
 BYTE   PATT
  POIN2 Label_015F4F74
//  #12 //107   ----------------------------------------
 BYTE   N23  Cn1  v096
 BYTE   N23  Dn1  v064
 BYTE   W24
 BYTE   N23
 BYTE   W24
 BYTE   N23
 BYTE   N02  En2
 BYTE   W02
 BYTE   N02
 BYTE   W03
 BYTE   N02
 BYTE   W03
 BYTE   N02
 BYTE   W03
 BYTE   N02
 BYTE   W03
 BYTE   N02
 BYTE   W03
 BYTE   N02
 BYTE   W03
 BYTE   N02
 BYTE   W03
 BYTE   N02
 BYTE   W01
 BYTE   Dn1
 BYTE   W02
 BYTE   En2
 BYTE   W01
 BYTE   Dn1
 BYTE   W02
 BYTE   En2
 BYTE   W01
 BYTE   Dn1
 BYTE   W02
 BYTE   En2
 BYTE   W01
 BYTE   Dn1
 BYTE   W02
 BYTE   En2
 BYTE   W01
 BYTE   Dn1
 BYTE   W02
 BYTE   En2
 BYTE   W01
 BYTE   Dn1
 BYTE   W02
 BYTE   En2
 BYTE   W01
 BYTE   Dn1
 BYTE   W05
 BYTE   N01
 BYTE   W01
//  #12 //108   ----------------------------------------
 BYTE   GoTo
  POIN2 Label_015F4FF6
 BYTE   FINE

//******************************************************//
	ALIGN 4

song0D:
	BYTE	12	// NumTrks
	BYTE	0	// NumBlks
	BYTE	song0D_pri	// Priority
	BYTE	song0D_rev	// Reverb.
    
	POIN2	song0D_grp
    
	POIN2	song0D_001
	POIN2	song0D_002
	POIN2	song0D_003
	POIN2	song0D_004
	POIN2	song0D_005
	POIN2	song0D_006
	POIN2	song0D_007
	POIN2	song0D_008
	POIN2	song0D_009
	POIN2	song0D_010
	POIN2	song0D_011
	POIN2	song0D_012

	
