//Event file generated from Sappy .s format.
	#include "MPlayDef.event"

	#define	song19_grp  voicegroup000
	#define	song19_pri  0
	#define	song19_rev  0
	#define	song19_mvl  127
	#define	song19_key  0
	#define	song19_tbs  1
	#define	song19_exg  0
	#define	song19_cmp  1

	// .rodata
	//	song19
	ALIGN 4


//**************** Track 1 (Midi-Chn.0) ****************//

song19_001:
//  #01 //000   ----------------------------------------
 BYTE   KEYSH   song19_key+0
 BYTE   TEMPO   160*song19_tbs/2
 BYTE   VOICE   40
 BYTE   VOL   45*song19_mvl/mxv
 BYTE   PAN   c_v+0
 BYTE   VOL   45*song19_mvl/mxv
 BYTE   PAN   c_v+0
 BYTE   N44  Fn2  v088
 BYTE   N44  As2
 BYTE   N44  Fn3
 BYTE   N44  As3
 BYTE   W48
 BYTE   N05  Fn2
 BYTE   W06
 BYTE   Gs2
 BYTE   W06
 BYTE   Cn3
 BYTE   W06
 BYTE   Dn3
 BYTE   W06
 BYTE   Fn3
 BYTE   W06
 BYTE   Gs3
 BYTE   W06
 BYTE   Cn4
 BYTE   W06
 BYTE   Dn4
 BYTE   W06
//  #01 //001   ----------------------------------------
 BYTE   TIE  Cn4
 BYTE   W96
//  #01 //002   ----------------------------------------
 BYTE   W92
 BYTE   W03
 BYTE   EOT
 BYTE   W01
//  #01 //003   ----------------------------------------
 BYTE   TIE  As3
 BYTE   W96
//  #01 //004   ----------------------------------------
 BYTE   W68
 BYTE   W03
 BYTE   EOT
 BYTE   W01
 BYTE   N03  As2
 BYTE   W04
 BYTE   Cn3
 BYTE   W04
 BYTE   Cs3
 BYTE   W04
 BYTE   Ds3
 BYTE   W04
 BYTE   Fn3
 BYTE   W04
 BYTE   Gn3
 BYTE   W04
//  #01 //005   ----------------------------------------
 BYTE   N23  Gs3
 BYTE   W24
 BYTE   Gn3
 BYTE   W24
 BYTE   Fn3
 BYTE   W24
 BYTE   Gs3
 BYTE   W24
//  #01 //006   ----------------------------------------
 BYTE   Gn3
 BYTE   W24
 BYTE   Fn3
 BYTE   W24
 BYTE   N44  Ds3
 BYTE   W48
//  #01 //007   ----------------------------------------
 BYTE   TIE  As2
 BYTE   TIE  Cs3
 BYTE   W96
//  #01 //008   ----------------------------------------
 BYTE   W80
 BYTE   W03
 BYTE   EOT
 BYTE   As2  v061
 BYTE   W01
 BYTE   N05  Ds3
 BYTE   W06
 BYTE   Cs3
 BYTE   W06
//  #01 //009   ----------------------------------------
 BYTE   TIE  Cn3
 BYTE   W96
//  #01 //010   ----------------------------------------
 BYTE   W48
 BYTE   EOT
 BYTE   N23  Gs2
 BYTE   W24
 BYTE   N24
 BYTE   N24  Cn3
 BYTE   W24
//  #01 //011   ----------------------------------------
 BYTE   TIE  As2
 BYTE   W96
//  #01 //012   ----------------------------------------
 BYTE   W48
 BYTE   EOT
 BYTE   W12
 BYTE   N05  Cs2
 BYTE   W06
 BYTE   Ds2
 BYTE   W06
 BYTE   Fn2
 BYTE   W06
 BYTE   Gn2
 BYTE   W06
 BYTE   Gs2
 BYTE   W06
 BYTE   As2
 BYTE   W06
//  #01 //013   ----------------------------------------
 BYTE   N48  Cn3
 BYTE   W24
 BYTE   N23  Fn3
 BYTE   W24
 BYTE   Gn3
 BYTE   N23  As3
 BYTE   W24
 BYTE   Fn3
 BYTE   N23  Gs3
 BYTE   W24
//  #01 //014   ----------------------------------------
 BYTE   Fn3
 BYTE   W24
 BYTE   As3
 BYTE   W24
 BYTE   N44  Fn3
 BYTE   N44  Gs3
 BYTE   W48
//  #01 //015   ----------------------------------------
 BYTE   TIE  Cs3
 BYTE   TIE  Gn3
 BYTE   W96
//  #01 //016   ----------------------------------------
 BYTE   W44
 BYTE   W03
 BYTE   EOT
 BYTE   Cs3  v067
 BYTE   W01
 BYTE   N23  Cn3
 BYTE   N23  Gs3
 BYTE   W24
 BYTE   Cs3
 BYTE   N23  As3
 BYTE   W24
//  #01 //017   ----------------------------------------
 BYTE   TIE  Cn3
 BYTE   N05  Gs3
 BYTE   W06
 BYTE   Gn3
 BYTE   W06
 BYTE   TIE  Fn3
 BYTE   W12
 BYTE   W72
//  #01 //018   ----------------------------------------
 BYTE   W92
 BYTE   W03
 BYTE   EOT
 BYTE   W01
//  #01 //019   ----------------------------------------
 BYTE   EOT
 BYTE   Cn3
 BYTE   N48  As2
 BYTE   TIE  Ds3
 BYTE   W96
//  #01 //020   ----------------------------------------
 BYTE   W68
 BYTE   W03
 BYTE   EOT
 BYTE   W01
 BYTE   N23  Cs3
 BYTE   W24
//  #01 //021   ----------------------------------------
 BYTE   W96
//  #01 //022   ----------------------------------------
 BYTE   W96
//  #01 //023   ----------------------------------------
 BYTE   W96
//  #01 //024   ----------------------------------------
 BYTE   W72
Label_0160A077:
 BYTE   N03  Cn3  v088
 BYTE   W04
 BYTE   Dn3
 BYTE   W04
 BYTE   Ds3
 BYTE   W04
 BYTE   Fn3
 BYTE   W04
 BYTE   Gn3
 BYTE   W04
 BYTE   An3
 BYTE   W04
//  #01 //025   ----------------------------------------
 BYTE   N23  As3
 BYTE   W24
 BYTE   An3
 BYTE   W24
 BYTE   Gn3
 BYTE   W24
 BYTE   TIE  Fn3
 BYTE   W24
//  #01 //026   ----------------------------------------
 BYTE   W92
 BYTE   W03
 BYTE   EOT
 BYTE   W01
//  #01 //027   ----------------------------------------
 BYTE   TIE  Ds3
 BYTE   W96
//  #01 //028   ----------------------------------------
 BYTE   W80
 BYTE   W03
 BYTE   EOT
 BYTE   W01
 BYTE   N05  Fn3
 BYTE   W06
 BYTE   Ds3
 BYTE   W06
//  #01 //029   ----------------------------------------
 BYTE   TIE  Dn3
 BYTE   W96
//  #01 //030   ----------------------------------------
 BYTE   W96
//  #01 //031   ----------------------------------------
 BYTE   EOT
 BYTE   TIE  Cn3
 BYTE   W96
//  #01 //032   ----------------------------------------
 BYTE   W48
 BYTE   EOT
 BYTE   W48
//  #01 //033   ----------------------------------------
 BYTE   W96
//  #01 //034   ----------------------------------------
 BYTE   W96
//  #01 //035   ----------------------------------------
 BYTE   W96
//  #01 //036   ----------------------------------------
 BYTE   W96
//  #01 //037   ----------------------------------------
 BYTE   W96
//  #01 //038   ----------------------------------------
 BYTE   W96
//  #01 //039   ----------------------------------------
 BYTE   W96
//  #01 //040   ----------------------------------------
 BYTE   W96
//  #01 //041   ----------------------------------------
 BYTE   W96
//  #01 //042   ----------------------------------------
 BYTE   W96
//  #01 //043   ----------------------------------------
 BYTE   W96
//  #01 //044   ----------------------------------------
 BYTE   W96
//  #01 //045   ----------------------------------------
 BYTE   W96
//  #01 //046   ----------------------------------------
 BYTE   W96
//  #01 //047   ----------------------------------------
 BYTE   W96
//  #01 //048   ----------------------------------------
 BYTE   W72
 BYTE   N03
 BYTE   W04
 BYTE   Dn3
 BYTE   W04
 BYTE   Ds3
 BYTE   W04
 BYTE   Fn3
 BYTE   W04
 BYTE   Gn3
 BYTE   W04
 BYTE   An3
 BYTE   W04
//  #01 //049   ----------------------------------------
 BYTE   N23  As3
 BYTE   W24
 BYTE   An3
 BYTE   W24
 BYTE   Gn3
 BYTE   W24
 BYTE   TIE  Fn3
 BYTE   W24
//  #01 //050   ----------------------------------------
 BYTE   W92
 BYTE   W03
 BYTE   EOT
 BYTE   W01
//  #01 //051   ----------------------------------------
 BYTE   TIE  Ds3
 BYTE   W96
//  #01 //052   ----------------------------------------
 BYTE   W80
 BYTE   W03
 BYTE   EOT
 BYTE   W01
 BYTE   N05  Fn3
 BYTE   W06
 BYTE   Ds3
 BYTE   W06
//  #01 //053   ----------------------------------------
 BYTE   TIE  Dn3
 BYTE   W96
//  #01 //054   ----------------------------------------
 BYTE   W96
//  #01 //055   ----------------------------------------
 BYTE   EOT
 BYTE   TIE  Cn3
 BYTE   W96
//  #01 //056   ----------------------------------------
 BYTE   W48
 BYTE   EOT
 BYTE   W24
 BYTE   N05  Cn4
 BYTE   W06
 BYTE   Gn3
 BYTE   W06
 BYTE   Ds3
 BYTE   W06
 BYTE   Dn3
 BYTE   W06
//  #01 //057   ----------------------------------------
 BYTE   N32  Ds3
 BYTE   N32  Gn3
 BYTE   W36
 BYTE   Fn3
 BYTE   N32  An3
 BYTE   W12
 BYTE   W24
 BYTE   Gn3
 BYTE   N32  As3
 BYTE   W24
//  #01 //058   ----------------------------------------
 BYTE   W12
 BYTE   An3
 BYTE   N32  Cn4
 BYTE   W36
 BYTE   N23  Gn3
 BYTE   N23  Dn4
 BYTE   W24
 BYTE   Gn3
 BYTE   N23  Ds4
 BYTE   W24
//  #01 //059   ----------------------------------------
 BYTE   TIE  Gn3
 BYTE   TIE  Dn4
 BYTE   W96
//  #01 //060   ----------------------------------------
 BYTE   W44
 BYTE   W03
 BYTE   EOT
 BYTE   Gn3  v074
 BYTE   W01
 BYTE   N23  An3
 BYTE   N23  Cn4
 BYTE   W24
 BYTE   Gn3
 BYTE   N23  As3
 BYTE   W24
//  #01 //061   ----------------------------------------
 BYTE   TIE  Fn3
 BYTE   TIE  An3
 BYTE   W96
//  #01 //062   ----------------------------------------
 BYTE   W44
 BYTE   W03
 BYTE   EOT
 BYTE   Fn3  v069
 BYTE   W01
 BYTE   N23  Gn3
 BYTE   N23  As3
 BYTE   W24
 BYTE   Fn3
 BYTE   N23  An3
 BYTE   W24
//  #01 //063   ----------------------------------------
 BYTE   N32  Fn3
 BYTE   N32  An3
 BYTE   W36
 BYTE   N05  As3
 BYTE   W06
 BYTE   An3
 BYTE   W06
 BYTE   TIE  Ds3
 BYTE   TIE  Gn3
 BYTE   W48
//  #01 //064   ----------------------------------------
 BYTE   W68
 BYTE   W03
 BYTE   EOT
 BYTE   Ds3  v067
 BYTE   W01
 BYTE   N23
 BYTE   N23  Cn4
 BYTE   W24
//  #01 //065   ----------------------------------------
 BYTE   TIE  Gn3
 BYTE   TIE  Gn4
 BYTE   W96
//  #01 //066   ----------------------------------------
 BYTE   W68
 BYTE   W03
 BYTE   EOT
 BYTE   W01
 BYTE   N23  Fn4
 BYTE   W23
 BYTE   EOT
 BYTE   Gn3
 BYTE   W01
//  #01 //067   ----------------------------------------
 BYTE   TIE  Cn4
 BYTE   TIE  Ds4
 BYTE   W96
//  #01 //068   ----------------------------------------
 BYTE   W68
 BYTE   W03
 BYTE   EOT
 BYTE   Cn4  v075
 BYTE   W01
 BYTE   N07  As3
 BYTE   N07  Dn4
 BYTE   W08
 BYTE   Ds4
 BYTE   W08
 BYTE   Fn4
 BYTE   W08
//  #01 //069   ----------------------------------------
 BYTE   TIE  As3
 BYTE   TIE  Dn4
 BYTE   W96
//  #01 //070   ----------------------------------------
 BYTE   W92
 BYTE   W03
 BYTE   EOT
 BYTE   As3  v074
 BYTE   W01
//  #01 //071   ----------------------------------------
 BYTE   TIE  An3
 BYTE   TIE  Cn4
 BYTE   W96
//  #01 //072   ----------------------------------------
 BYTE   W92
 BYTE   W03
 BYTE   EOT
 BYTE   An3  v072
 BYTE   W01
//  #01 //073   ----------------------------------------
 BYTE   W96
//  #01 //074   ----------------------------------------
 BYTE   W96
//  #01 //075   ----------------------------------------
 BYTE   W96
//  #01 //076   ----------------------------------------
 BYTE   GoTo
  POIN2 Label_0160A077
 BYTE   FINE

//**************** Track 2 (Midi-Chn.1) ****************//

song19_002:
//  #02 //000   ----------------------------------------
 BYTE   KEYSH   song19_key+0
 BYTE   VOICE   48
 BYTE   VOL   34*song19_mvl/mxv
 BYTE   N92  Cn2  v088
 BYTE   N92  Fn2
 BYTE   N92  Cn3
 BYTE   N92  Fn3
 BYTE   W96
//  #02 //001   ----------------------------------------
 BYTE   N05  Cn2
 BYTE   N05  Fn2
 BYTE   W12
 BYTE   Gn2
 BYTE   W12
 BYTE   N05
 BYTE   W12
 BYTE   Cn2
 BYTE   N05  Fn2
 BYTE   W12
 BYTE   Gs2
 BYTE   N05  Cn3
 BYTE   W12
 BYTE   Gs2
 BYTE   N05  Cn3
 BYTE   W12
 BYTE   Cn2
 BYTE   N05  Fn2
 BYTE   W12
 BYTE   Gn2
 BYTE   W12
//  #02 //002   ----------------------------------------
 BYTE   N05
 BYTE   W12
 BYTE   Cn2
 BYTE   N05  Fn2
 BYTE   W12
 BYTE   Gs2
 BYTE   N05  Cn3
 BYTE   W12
 BYTE   Gs2
 BYTE   N05  Cn3
 BYTE   W12
 BYTE   Cn2
 BYTE   N05  Fn2
 BYTE   W12
 BYTE   Gn2
 BYTE   W12
 BYTE   Cn2
 BYTE   N05  Fn2
 BYTE   W12
 BYTE   Gs2
 BYTE   N05  Cn3
 BYTE   W12
//  #02 //003   ----------------------------------------
 BYTE   Cs2
 BYTE   N05  Gn2
 BYTE   W12
 BYTE   Fn2
 BYTE   N05  Gs2
 BYTE   W12
 BYTE   Fn2
 BYTE   N05  Gs2
 BYTE   W12
 BYTE   Cs2
 BYTE   N05  Gn2
 BYTE   W12
 BYTE   N05
 BYTE   N05  As2
 BYTE   W12
 BYTE   Gn2
 BYTE   N05  As2
 BYTE   W12
 BYTE   Cs2
 BYTE   N05  Gn2
 BYTE   W12
 BYTE   Fn2
 BYTE   N05  Gs2
 BYTE   W12
//  #02 //004   ----------------------------------------
 BYTE   Fn2
 BYTE   N05  Gs2
 BYTE   W12
 BYTE   Cs2
 BYTE   N05  Gn2
 BYTE   W12
 BYTE   N05
 BYTE   N05  As2
 BYTE   W12
 BYTE   Gn2
 BYTE   N05  As2
 BYTE   W12
 BYTE   Cs2
 BYTE   N05  Gn2
 BYTE   W12
 BYTE   Fn2
 BYTE   N05  Gs2
 BYTE   W12
 BYTE   Cs2
 BYTE   N05  Gn2
 BYTE   W12
 BYTE   N05
 BYTE   N05  As2
 BYTE   W12
//  #02 //005   ----------------------------------------
Label_0160A21B:
 BYTE   N11  Cn2  v088
 BYTE   N11  Fn2
 BYTE   W12
 BYTE   Gn2
 BYTE   W12
 BYTE   N11
 BYTE   W12
 BYTE   Cn2
 BYTE   N11  Fn2
 BYTE   W12
 BYTE   Gs2
 BYTE   W12
 BYTE   N11
 BYTE   W12
 BYTE   Cn2
 BYTE   N11  Fn2
 BYTE   W12
 BYTE   Gn2
 BYTE   W12
 BYTE   PEND 
//  #02 //006   ----------------------------------------
Label_0160A234:
 BYTE   N11  Gn2  v088
 BYTE   W12
 BYTE   Cn2
 BYTE   N11  Fn2
 BYTE   W12
 BYTE   Gs2
 BYTE   W12
 BYTE   N11
 BYTE   W12
 BYTE   Cn2
 BYTE   N11  Fn2
 BYTE   W12
 BYTE   Gn2
 BYTE   W12
 BYTE   Cn2
 BYTE   N11  Fn2
 BYTE   W12
 BYTE   Cn2
 BYTE   N11  Gs2
 BYTE   W12
 BYTE   PEND 
//  #02 //007   ----------------------------------------
Label_0160A24F:
 BYTE   N11  Cs2  v088
 BYTE   N11  Gn2
 BYTE   W12
 BYTE   Gs2
 BYTE   W12
 BYTE   N11
 BYTE   W12
 BYTE   Cs2
 BYTE   N11  Gn2
 BYTE   W12
 BYTE   N12  As2
 BYTE   W12
 BYTE   N12
 BYTE   W12
 BYTE   N11  Cs2
 BYTE   N11  Gn2
 BYTE   W12
 BYTE   Gs2
 BYTE   W12
 BYTE   PEND 
//  #02 //008   ----------------------------------------
 BYTE   N11
 BYTE   W12
 BYTE   Cs2
 BYTE   N11  Gn2
 BYTE   W12
 BYTE   N12  As2
 BYTE   W12
 BYTE   N12
 BYTE   W12
 BYTE   N11  Cs2
 BYTE   N11  Gn2
 BYTE   W12
 BYTE   Gs2
 BYTE   W12
 BYTE   Cs2
 BYTE   N11  Gn2
 BYTE   W12
 BYTE   As2
 BYTE   W12
//  #02 //009   ----------------------------------------
 BYTE   Cn2
 BYTE   N12  Fn2
 BYTE   W12
 BYTE   N11  Gn2
 BYTE   W12
 BYTE   N11
 BYTE   W12
 BYTE   Cn2
 BYTE   N12  Fn2
 BYTE   W12
 BYTE   N11  Gs2
 BYTE   W12
 BYTE   N11
 BYTE   W12
 BYTE   Cn2
 BYTE   N12  Fn2
 BYTE   W12
 BYTE   N11  Gn2
 BYTE   W12
//  #02 //010   ----------------------------------------
 BYTE   N11
 BYTE   W12
 BYTE   Cn2
 BYTE   N12  Fn2
 BYTE   W12
 BYTE   N11  Gs2
 BYTE   W12
 BYTE   N11
 BYTE   W12
 BYTE   Cn2
 BYTE   N12  Fn2
 BYTE   W12
 BYTE   N11  Gn2
 BYTE   W12
 BYTE   Cn2
 BYTE   N11  Fn2
 BYTE   W12
 BYTE   Cn2
 BYTE   N11  Gs2
 BYTE   W12
//  #02 //011   ----------------------------------------
 BYTE   Cs2
 BYTE   N12  Gn2
 BYTE   W12
 BYTE   N11  Gs2
 BYTE   W12
 BYTE   N11
 BYTE   W12
 BYTE   Cs2
 BYTE   N12  Gn2
 BYTE   W12
 BYTE   As2
 BYTE   W12
 BYTE   N12
 BYTE   W12
 BYTE   N11  Cs2
 BYTE   N12  Gn2
 BYTE   W12
 BYTE   N11  Gs2
 BYTE   W12
//  #02 //012   ----------------------------------------
 BYTE   N11
 BYTE   W12
 BYTE   Cs2
 BYTE   N12  Gn2
 BYTE   W12
 BYTE   As2
 BYTE   W12
 BYTE   N12
 BYTE   W12
 BYTE   N11  Cs2
 BYTE   N11  Gn2
 BYTE   W12
 BYTE   Gs2
 BYTE   W12
 BYTE   Cs2
 BYTE   N06  Gn2
 BYTE   W12
 BYTE   As2
 BYTE   W12
//  #02 //013   ----------------------------------------
 BYTE   PATT
  POIN2 Label_0160A21B
//  #02 //014   ----------------------------------------
 BYTE   PATT
  POIN2 Label_0160A234
//  #02 //015   ----------------------------------------
 BYTE   N11  Cs2  v088
 BYTE   N11  Gn2
 BYTE   W12
 BYTE   Gs2
 BYTE   W12
 BYTE   N11
 BYTE   W12
 BYTE   Cs2
 BYTE   N11  Gn2
 BYTE   W12
 BYTE   As2
 BYTE   W12
 BYTE   N11
 BYTE   W12
 BYTE   Cs2
 BYTE   N11  Gn2
 BYTE   W12
 BYTE   Gs2
 BYTE   W12
//  #02 //016   ----------------------------------------
 BYTE   N11
 BYTE   W12
 BYTE   Cs2
 BYTE   N11  Gn2
 BYTE   W12
 BYTE   As2
 BYTE   W12
 BYTE   N11
 BYTE   W12
 BYTE   Cs2
 BYTE   N11  Gn2
 BYTE   W12
 BYTE   Gs2
 BYTE   W12
 BYTE   Cs2
 BYTE   N11  Gn2
 BYTE   W12
 BYTE   As2
 BYTE   W12
//  #02 //017   ----------------------------------------
 BYTE   Cn2
 BYTE   N11  Fn2
 BYTE   W12
 BYTE   Gn2
 BYTE   W12
 BYTE   N11
 BYTE   W12
 BYTE   Cn2
 BYTE   N11  Fn2
 BYTE   W12
 BYTE   Gs2
 BYTE   W12
 BYTE   N11
 BYTE   W12
 BYTE   Cn2
 BYTE   N11  Fn2
 BYTE   W12
 BYTE   Gn2
 BYTE   W12
//  #02 //018   ----------------------------------------
 BYTE   N11
 BYTE   W12
 BYTE   Cn2
 BYTE   N11  Fn2
 BYTE   W12
 BYTE   Gs2
 BYTE   W12
 BYTE   N11
 BYTE   W12
 BYTE   Cn2
 BYTE   N11  Fn2
 BYTE   W12
 BYTE   Gn2
 BYTE   W12
 BYTE   Cn2
 BYTE   N11  Fn2
 BYTE   W12
 BYTE   Cn2
 BYTE   N11  Gs2
 BYTE   W12
//  #02 //019   ----------------------------------------
 BYTE   PATT
  POIN2 Label_0160A24F
//  #02 //020   ----------------------------------------
 BYTE   N11  Gs2  v088
 BYTE   W12
 BYTE   Cs2
 BYTE   N11  Gn2
 BYTE   W12
 BYTE   N12  As2
 BYTE   W12
 BYTE   N12
 BYTE   W12
 BYTE   N11  Cs2
 BYTE   N11  Gn2
 BYTE   W12
 BYTE   Gs2
 BYTE   W12
 BYTE   Cs2
 BYTE   N11  Gn2
 BYTE   W24
//  #02 //021   ----------------------------------------
 BYTE   TIE  Fn1  v052
 BYTE   TIE  Fn2
 BYTE   W96
//  #02 //022   ----------------------------------------
 BYTE   W96
//  #02 //023   ----------------------------------------
 BYTE   W96
//  #02 //024   ----------------------------------------
 BYTE   W72
Label_0160A371:
 BYTE   W23
 BYTE   EOT
 BYTE   Fn1  v053
 BYTE   W01
//  #02 //025   ----------------------------------------
Label_0160A376:
 BYTE   N11  Dn2  v088
 BYTE   N11  Gn2
 BYTE   W12
 BYTE   An2
 BYTE   W12
 BYTE   N11
 BYTE   W12
 BYTE   Dn2
 BYTE   N11  Gn2
 BYTE   W12
 BYTE   As2
 BYTE   W12
 BYTE   N11
 BYTE   W12
 BYTE   Dn2
 BYTE   N11  Gn2
 BYTE   W12
 BYTE   An2
 BYTE   W12
 BYTE   PEND 
//  #02 //026   ----------------------------------------
Label_0160A38F:
 BYTE   N11  An2  v088
 BYTE   W12
 BYTE   Dn2
 BYTE   N11  Gn2
 BYTE   W12
 BYTE   As2
 BYTE   W12
 BYTE   N11
 BYTE   W12
 BYTE   Dn2
 BYTE   N11  Gn2
 BYTE   W12
 BYTE   An2
 BYTE   W12
 BYTE   Dn2
 BYTE   N11  Gn2
 BYTE   W12
 BYTE   Dn2
 BYTE   N11  As2
 BYTE   W12
 BYTE   PEND 
//  #02 //027   ----------------------------------------
 BYTE   Ds2
 BYTE   N11  An2
 BYTE   W12
 BYTE   As2
 BYTE   W12
 BYTE   N11
 BYTE   W12
 BYTE   Ds2
 BYTE   N11  An2
 BYTE   W12
 BYTE   Cn3
 BYTE   W12
 BYTE   N11
 BYTE   W12
 BYTE   Ds2
 BYTE   N11  An2
 BYTE   W12
 BYTE   As2
 BYTE   W12
//  #02 //028   ----------------------------------------
 BYTE   N11
 BYTE   W12
 BYTE   Ds2
 BYTE   N11  An2
 BYTE   W12
 BYTE   Cn3
 BYTE   W12
 BYTE   N11
 BYTE   W12
 BYTE   Ds2
 BYTE   N11  An2
 BYTE   W12
 BYTE   As2
 BYTE   W12
 BYTE   Ds2
 BYTE   N11  An2
 BYTE   W12
 BYTE   Cn3
 BYTE   W12
//  #02 //029   ----------------------------------------
 BYTE   Dn2
 BYTE   N11  Gn2
 BYTE   W12
 BYTE   An2
 BYTE   W12
 BYTE   N11
 BYTE   W12
 BYTE   Dn2
 BYTE   N11  Gn2
 BYTE   W12
 BYTE   As2
 BYTE   W12
 BYTE   N11
 BYTE   W12
 BYTE   Dn2
 BYTE   N11  Gn2
 BYTE   W12
 BYTE   An2
 BYTE   W12
//  #02 //030   ----------------------------------------
 BYTE   PATT
  POIN2 Label_0160A38F
//  #02 //031   ----------------------------------------
 BYTE   N11  Ds2  v088
 BYTE   N11  An2
 BYTE   W12
 BYTE   As2
 BYTE   W12
 BYTE   N11
 BYTE   W12
 BYTE   Ds2
 BYTE   N11  An2
 BYTE   W12
 BYTE   N12  Cn3
 BYTE   W12
 BYTE   N12
 BYTE   W12
 BYTE   N11  Ds2
 BYTE   N11  An2
 BYTE   W12
 BYTE   As2
 BYTE   W12
//  #02 //032   ----------------------------------------
 BYTE   N11
 BYTE   W12
 BYTE   Ds2
 BYTE   N11  An2
 BYTE   W12
 BYTE   N12  Cn3
 BYTE   W12
 BYTE   N12
 BYTE   W12
 BYTE   N11  Ds2
 BYTE   N11  An2
 BYTE   W12
 BYTE   As2
 BYTE   W12
 BYTE   Ds2
 BYTE   N11  An2
 BYTE   W24
//  #02 //033   ----------------------------------------
Label_0160A421:
 BYTE   N11  Cn2  v088
 BYTE   N11  Gn2
 BYTE   W12
 BYTE   Gs2
 BYTE   W12
 BYTE   N11
 BYTE   W12
 BYTE   Cn2
 BYTE   N11  Gn2
 BYTE   W12
 BYTE   Gs2
 BYTE   W12
 BYTE   N11
 BYTE   W12
 BYTE   Cn2
 BYTE   N11  Gn2
 BYTE   W12
 BYTE   Gs2
 BYTE   W12
 BYTE   PEND 
//  #02 //034   ----------------------------------------
 BYTE   N11
 BYTE   W12
 BYTE   Cn2
 BYTE   N11  Gn2
 BYTE   W12
 BYTE   Gs2
 BYTE   W12
 BYTE   N11
 BYTE   W12
 BYTE   Cn2
 BYTE   N11  Gn2
 BYTE   W12
 BYTE   Gs2
 BYTE   W12
 BYTE   Cn2
 BYTE   N11  Gn2
 BYTE   W12
 BYTE   Cn3
 BYTE   W12
//  #02 //035   ----------------------------------------
Label_0160A450:
 BYTE   N11  Ds2  v088
 BYTE   N11  Gn2
 BYTE   W12
 BYTE   Gs2
 BYTE   W12
 BYTE   N11
 BYTE   W12
 BYTE   Ds2
 BYTE   N11  Gn2
 BYTE   W12
 BYTE   Gs2
 BYTE   W12
 BYTE   N11
 BYTE   W12
 BYTE   Ds2
 BYTE   N11  Gn2
 BYTE   W12
 BYTE   Gs2
 BYTE   W12
 BYTE   PEND 
//  #02 //036   ----------------------------------------
Label_0160A469:
 BYTE   N11  Gs2  v088
 BYTE   W12
 BYTE   Ds2
 BYTE   N11  Gn2
 BYTE   W12
 BYTE   Gs2
 BYTE   W12
 BYTE   N11
 BYTE   W12
 BYTE   Ds2
 BYTE   N11  Gn2
 BYTE   W12
 BYTE   Gs2
 BYTE   W12
 BYTE   Ds2
 BYTE   N11  Gn2
 BYTE   W12
 BYTE   Cn3
 BYTE   W12
 BYTE   PEND 
//  #02 //037   ----------------------------------------
Label_0160A482:
 BYTE   N11  Ds2  v088
 BYTE   N11  Gn2
 BYTE   W12
 BYTE   Gs2
 BYTE   W12
 BYTE   N11
 BYTE   W12
 BYTE   Ds2
 BYTE   N11  Gn2
 BYTE   W12
 BYTE   Cn3
 BYTE   W12
 BYTE   N11
 BYTE   W12
 BYTE   Ds2
 BYTE   N11  Gn2
 BYTE   W12
 BYTE   Gs2
 BYTE   W12
 BYTE   PEND 
//  #02 //038   ----------------------------------------
 BYTE   N11
 BYTE   W12
 BYTE   Ds2
 BYTE   N11  Gn2
 BYTE   W12
 BYTE   Cn3
 BYTE   W12
 BYTE   N11
 BYTE   W12
 BYTE   Ds2
 BYTE   N11  Gn2
 BYTE   W12
 BYTE   Gs2
 BYTE   W12
 BYTE   Ds2
 BYTE   N11  Gn2
 BYTE   W12
 BYTE   Cn3
 BYTE   W12
//  #02 //039   ----------------------------------------
 BYTE   Ds2
 BYTE   N11  Gn2
 BYTE   W12
 BYTE   Gs2
 BYTE   W12
 BYTE   N11
 BYTE   W12
 BYTE   Ds2
 BYTE   N11  Gn2
 BYTE   W12
 BYTE   Cn3
 BYTE   W12
 BYTE   N11
 BYTE   W12
 BYTE   Ds2
 BYTE   N11  Gn2
 BYTE   W12
 BYTE   Gs2
 BYTE   W12
//  #02 //040   ----------------------------------------
Label_0160A4C7:
 BYTE   N11  Gs2  v088
 BYTE   W12
 BYTE   Ds2
 BYTE   N11  Gn2
 BYTE   W12
 BYTE   Cn3
 BYTE   W12
 BYTE   N11
 BYTE   W12
 BYTE   Ds2
 BYTE   N11  Gn2
 BYTE   W12
 BYTE   Gs2
 BYTE   W12
 BYTE   Ds2
 BYTE   N11  Gn2
 BYTE   W12
 BYTE   Cn3
 BYTE   W12
 BYTE   PEND 
//  #02 //041   ----------------------------------------
 BYTE   PATT
  POIN2 Label_0160A421
//  #02 //042   ----------------------------------------
 BYTE   N11  Gs2  v088
 BYTE   W12
 BYTE   Cn2
 BYTE   N11  Gn2
 BYTE   W12
 BYTE   Gs2
 BYTE   W12
 BYTE   N11
 BYTE   W12
 BYTE   Cn2
 BYTE   N11  Gn2
 BYTE   W12
 BYTE   Gs2
 BYTE   W12
 BYTE   Cn2
 BYTE   N11  Gn2
 BYTE   W12
 BYTE   Gs2
 BYTE   N11  Cn3
 BYTE   W12
//  #02 //043   ----------------------------------------
 BYTE   PATT
  POIN2 Label_0160A450
//  #02 //044   ----------------------------------------
 BYTE   PATT
  POIN2 Label_0160A469
//  #02 //045   ----------------------------------------
 BYTE   PATT
  POIN2 Label_0160A482
//  #02 //046   ----------------------------------------
 BYTE   PATT
  POIN2 Label_0160A4C7
//  #02 //047   ----------------------------------------
 BYTE   N11  Ds2  v088
 BYTE   N11  Gn2
 BYTE   W12
 BYTE   Gs2
 BYTE   W12
 BYTE   N11
 BYTE   W12
 BYTE   Ds2
 BYTE   N11  Gn2
 BYTE   W12
 BYTE   Cn3
 BYTE   W12
 BYTE   N11
 BYTE   W12
 BYTE   Ds2
 BYTE   N11  Gn2
 BYTE   W12
 BYTE   Gs2
 BYTE   W12
//  #02 //048   ----------------------------------------
 BYTE   N11
 BYTE   W12
 BYTE   Fs2
 BYTE   N11  An2
 BYTE   W12
 BYTE   Dn3
 BYTE   W12
 BYTE   N11
 BYTE   W12
 BYTE   Fs2
 BYTE   N11  An2
 BYTE   W12
 BYTE   As2
 BYTE   W12
 BYTE   Fs2
 BYTE   N11  An2
 BYTE   W24
//  #02 //049   ----------------------------------------
 BYTE   PATT
  POIN2 Label_0160A376
//  #02 //050   ----------------------------------------
Label_0160A544:
 BYTE   N11  An2  v088
 BYTE   W12
 BYTE   Dn2
 BYTE   N11  Gn2
 BYTE   W12
 BYTE   As2
 BYTE   W12
 BYTE   N11
 BYTE   W12
 BYTE   Dn2
 BYTE   N11  Gn2
 BYTE   W12
 BYTE   An2
 BYTE   W12
 BYTE   Dn2
 BYTE   N11  Gn2
 BYTE   W12
 BYTE   Dn3
 BYTE   W12
 BYTE   PEND 
//  #02 //051   ----------------------------------------
 BYTE   Ds2
 BYTE   N11  An2
 BYTE   W12
 BYTE   As2
 BYTE   W12
 BYTE   N11
 BYTE   W12
 BYTE   Ds2
 BYTE   N11  An2
 BYTE   W12
 BYTE   N11
 BYTE   W12
 BYTE   N11
 BYTE   W12
 BYTE   Ds2
 BYTE   N11  An2
 BYTE   W12
 BYTE   As2
 BYTE   W12
//  #02 //052   ----------------------------------------
 BYTE   N11
 BYTE   W12
 BYTE   Ds2
 BYTE   N11  An2
 BYTE   W12
 BYTE   N11
 BYTE   W12
 BYTE   N11
 BYTE   W12
 BYTE   Ds2
 BYTE   N11  An2
 BYTE   W12
 BYTE   As2
 BYTE   W12
 BYTE   Ds2
 BYTE   N11  An2
 BYTE   W12
 BYTE   Cn3
 BYTE   W12
//  #02 //053   ----------------------------------------
 BYTE   Dn2
 BYTE   N12  Gn2
 BYTE   W12
 BYTE   N11  An2
 BYTE   W12
 BYTE   N11
 BYTE   W12
 BYTE   Dn2
 BYTE   N12  Gn2
 BYTE   W12
 BYTE   N11  As2
 BYTE   W12
 BYTE   N11
 BYTE   W12
 BYTE   Dn2
 BYTE   N12  Gn2
 BYTE   W12
 BYTE   N11  An2
 BYTE   W12
//  #02 //054   ----------------------------------------
 BYTE   N11
 BYTE   W12
 BYTE   Dn2
 BYTE   N12  Gn2
 BYTE   W12
 BYTE   N11  As2
 BYTE   W12
 BYTE   N11
 BYTE   W12
 BYTE   Dn2
 BYTE   N12  Gn2
 BYTE   W12
 BYTE   N11  An2
 BYTE   W12
 BYTE   Dn2
 BYTE   N12  Gn2
 BYTE   W12
 BYTE   N11  Dn3
 BYTE   W12
//  #02 //055   ----------------------------------------
 BYTE   Ds2
 BYTE   N12  An2
 BYTE   W12
 BYTE   N11  As2
 BYTE   W12
 BYTE   N11
 BYTE   W12
 BYTE   Ds2
 BYTE   N12  An2
 BYTE   W12
 BYTE   N12
 BYTE   W12
 BYTE   N12
 BYTE   W12
 BYTE   N11  Ds2
 BYTE   N12  An2
 BYTE   W12
 BYTE   N11  As2
 BYTE   W12
//  #02 //056   ----------------------------------------
 BYTE   N11
 BYTE   W12
 BYTE   Ds2
 BYTE   N12  An2
 BYTE   W12
 BYTE   N12
 BYTE   W12
 BYTE   N12
 BYTE   W12
 BYTE   N11  Ds2
 BYTE   N12  An2
 BYTE   W12
 BYTE   N11  As2
 BYTE   W12
 BYTE   Ds2
 BYTE   N11  An2
 BYTE   W12
 BYTE   Cn3
 BYTE   W12
//  #02 //057   ----------------------------------------
 BYTE   Ds2
 BYTE   N11  Gn2
 BYTE   W12
 BYTE   An2
 BYTE   W12
 BYTE   N11
 BYTE   W12
 BYTE   Ds2
 BYTE   N11  Gn2
 BYTE   W12
 BYTE   As2
 BYTE   W12
 BYTE   N11
 BYTE   W12
 BYTE   Ds2
 BYTE   N11  Gn2
 BYTE   W12
 BYTE   An2
 BYTE   W12
//  #02 //058   ----------------------------------------
Label_0160A602:
 BYTE   N11  An2  v088
 BYTE   W12
 BYTE   Ds2
 BYTE   N11  Gn2
 BYTE   W12
 BYTE   As2
 BYTE   W12
 BYTE   N11
 BYTE   W12
 BYTE   Ds2
 BYTE   N11  Gn2
 BYTE   W12
 BYTE   An2
 BYTE   W12
 BYTE   Ds2
 BYTE   N11  Gn2
 BYTE   W12
 BYTE   Dn3
 BYTE   W12
 BYTE   PEND 
//  #02 //059   ----------------------------------------
Label_0160A61B:
 BYTE   N11  Ds2  v088
 BYTE   N11  Gn2
 BYTE   W12
 BYTE   An2
 BYTE   W12
 BYTE   N11
 BYTE   W12
 BYTE   Ds2
 BYTE   N11  Gn2
 BYTE   W12
 BYTE   Cn3
 BYTE   W12
 BYTE   N11
 BYTE   W12
 BYTE   Ds2
 BYTE   N11  Gn2
 BYTE   W12
 BYTE   An2
 BYTE   W12
 BYTE   PEND 
//  #02 //060   ----------------------------------------
Label_0160A634:
 BYTE   N11  An2  v088
 BYTE   W12
 BYTE   Ds2
 BYTE   N11  Gn2
 BYTE   W12
 BYTE   Cn3
 BYTE   W12
 BYTE   N11
 BYTE   W12
 BYTE   Ds2
 BYTE   N11  Gn2
 BYTE   W12
 BYTE   An2
 BYTE   W12
 BYTE   Ds2
 BYTE   N11  Gn2
 BYTE   W12
 BYTE   Cn3
 BYTE   W12
 BYTE   PEND 
//  #02 //061   ----------------------------------------
 BYTE   Ds2
 BYTE   N11  Gn2
 BYTE   W12
 BYTE   An2
 BYTE   W12
 BYTE   N11
 BYTE   W12
 BYTE   Ds2
 BYTE   N11  Gn2
 BYTE   W12
 BYTE   As2
 BYTE   W12
 BYTE   N11
 BYTE   W12
 BYTE   Ds2
 BYTE   N11  Gn2
 BYTE   W12
 BYTE   An2
 BYTE   W12
//  #02 //062   ----------------------------------------
 BYTE   PATT
  POIN2 Label_0160A602
//  #02 //063   ----------------------------------------
 BYTE   N11  Ds2  v088
 BYTE   N11  Gn2
 BYTE   W12
 BYTE   An2
 BYTE   W12
 BYTE   N11
 BYTE   W12
 BYTE   Ds2
 BYTE   N11  Gn2
 BYTE   W12
 BYTE   Cn3
 BYTE   W12
 BYTE   N11
 BYTE   W12
 BYTE   Ds2
 BYTE   N11  Gn2
 BYTE   W12
 BYTE   An2
 BYTE   W12
//  #02 //064   ----------------------------------------
 BYTE   PATT
  POIN2 Label_0160A634
//  #02 //065   ----------------------------------------
Label_0160A685:
 BYTE   N11  Dn2  v088
 BYTE   N11  Gn2
 BYTE   W12
 BYTE   An2
 BYTE   W12
 BYTE   N11
 BYTE   W12
 BYTE   Dn2
 BYTE   N11  Gn2
 BYTE   W12
 BYTE   As2
 BYTE   W12
 BYTE   N11
 BYTE   W12
 BYTE   Dn2
 BYTE   N11  Gn2
 BYTE   W12
 BYTE   An2
 BYTE   W12
 BYTE   PEND 
//  #02 //066   ----------------------------------------
 BYTE   N11
 BYTE   W12
 BYTE   Dn2
 BYTE   N11  Gn2
 BYTE   W12
 BYTE   As2
 BYTE   W12
 BYTE   N11
 BYTE   W12
 BYTE   Dn2
 BYTE   N11  Gn2
 BYTE   W12
 BYTE   An2
 BYTE   W12
 BYTE   Dn2
 BYTE   N11  Gn2
 BYTE   W12
 BYTE   Dn3
 BYTE   W12
//  #02 //067   ----------------------------------------
 BYTE   PATT
  POIN2 Label_0160A61B
//  #02 //068   ----------------------------------------
 BYTE   N11  An2  v088
 BYTE   W12
 BYTE   Ds2
 BYTE   N11  Gn2
 BYTE   W12
 BYTE   Cn3
 BYTE   W12
 BYTE   N11
 BYTE   W12
 BYTE   Ds2
 BYTE   N11  Gn2
 BYTE   W12
 BYTE   An2
 BYTE   W12
 BYTE   Ds2
 BYTE   N11  Gn2
 BYTE   W12
 BYTE   Cn3
 BYTE   W12
//  #02 //069   ----------------------------------------
 BYTE   PATT
  POIN2 Label_0160A685
//  #02 //070   ----------------------------------------
 BYTE   PATT
  POIN2 Label_0160A544
//  #02 //071   ----------------------------------------
 BYTE   PATT
  POIN2 Label_0160A61B
//  #02 //072   ----------------------------------------
 BYTE   N11  An2  v088
 BYTE   W12
 BYTE   Ds2
 BYTE   N11  Gn2
 BYTE   W12
 BYTE   Cn3
 BYTE   W12
 BYTE   N11
 BYTE   W12
 BYTE   Ds2
 BYTE   N11  Gn2
 BYTE   W12
 BYTE   An2
 BYTE   W12
 BYTE   Ds2
 BYTE   N11  Gn2
 BYTE   W24
//  #02 //073   ----------------------------------------
 BYTE   TIE  Gn1  v052
 BYTE   TIE  Gn2
 BYTE   W96
//  #02 //074   ----------------------------------------
 BYTE   W96
//  #02 //075   ----------------------------------------
 BYTE   EOT
 BYTE   Gn1  v055
 BYTE   W96
//  #02 //076   ----------------------------------------
 BYTE   GoTo
  POIN2 Label_0160A371
 BYTE   FINE

//**************** Track 3 (Midi-Chn.2) ****************//

song19_003:
//  #03 //000   ----------------------------------------
 BYTE   KEYSH   song19_key+0
 BYTE   VOICE   68
 BYTE   PAN   c_v-40
 BYTE   VOL   45*song19_mvl/mxv
 BYTE   W96
//  #03 //001   ----------------------------------------
 BYTE   W96
//  #03 //002   ----------------------------------------
 BYTE   W96
//  #03 //003   ----------------------------------------
 BYTE   W96
//  #03 //004   ----------------------------------------
 BYTE   W96
//  #03 //005   ----------------------------------------
 BYTE   W96
//  #03 //006   ----------------------------------------
 BYTE   W96
//  #03 //007   ----------------------------------------
 BYTE   W96
//  #03 //008   ----------------------------------------
 BYTE   W96
//  #03 //009   ----------------------------------------
 BYTE   W96
//  #03 //010   ----------------------------------------
 BYTE   W96
//  #03 //011   ----------------------------------------
 BYTE   W96
//  #03 //012   ----------------------------------------
 BYTE   W96
//  #03 //013   ----------------------------------------
 BYTE   W96
//  #03 //014   ----------------------------------------
 BYTE   W96
//  #03 //015   ----------------------------------------
 BYTE   W96
//  #03 //016   ----------------------------------------
 BYTE   W96
//  #03 //017   ----------------------------------------
 BYTE   W96
//  #03 //018   ----------------------------------------
 BYTE   W96
//  #03 //019   ----------------------------------------
 BYTE   W96
//  #03 //020   ----------------------------------------
 BYTE   W96
//  #03 //021   ----------------------------------------
 BYTE   W96
//  #03 //022   ----------------------------------------
 BYTE   W96
//  #03 //023   ----------------------------------------
 BYTE   W96
//  #03 //024   ----------------------------------------
 BYTE   W72
Label_01609BCD:
 BYTE   W24
//  #03 //025   ----------------------------------------
 BYTE   W96
//  #03 //026   ----------------------------------------
 BYTE   W96
//  #03 //027   ----------------------------------------
 BYTE   W96
//  #03 //028   ----------------------------------------
 BYTE   W96
//  #03 //029   ----------------------------------------
 BYTE   W96
//  #03 //030   ----------------------------------------
 BYTE   W96
//  #03 //031   ----------------------------------------
 BYTE   W96
//  #03 //032   ----------------------------------------
 BYTE   W72
 BYTE   N05  Cn4  v088
 BYTE   W06
 BYTE   Gn3
 BYTE   W06
 BYTE   Ds3
 BYTE   W06
 BYTE   Dn3
 BYTE   W06
//  #03 //033   ----------------------------------------
 BYTE   TIE  Cn3
 BYTE   W96
//  #03 //034   ----------------------------------------
 BYTE   W48
 BYTE   EOT
 BYTE   N23  As2
 BYTE   W24
 BYTE   Dn3
 BYTE   W24
//  #03 //035   ----------------------------------------
 BYTE   TIE  Cn3
 BYTE   W96
//  #03 //036   ----------------------------------------
 BYTE   W48
 BYTE   EOT
 BYTE   N23  Dn3
 BYTE   W24
 BYTE   Ds3
 BYTE   W24
//  #03 //037   ----------------------------------------
 BYTE   TIE  Fn3
 BYTE   W96
//  #03 //038   ----------------------------------------
 BYTE   W80
 BYTE   W03
 BYTE   EOT
 BYTE   W01
 BYTE   N05  Ds3
 BYTE   W06
 BYTE   Dn3
 BYTE   W06
//  #03 //039   ----------------------------------------
 BYTE   N44
 BYTE   W48
 BYTE   TIE  Ds3
 BYTE   W48
//  #03 //040   ----------------------------------------
 BYTE   W68
 BYTE   W03
 BYTE   EOT
 BYTE   W01
 BYTE   N23  Dn3
 BYTE   W24
//  #03 //041   ----------------------------------------
 BYTE   TIE  Cn3
 BYTE   W96
//  #03 //042   ----------------------------------------
 BYTE   W48
 BYTE   EOT
 BYTE   N23  Dn3
 BYTE   W24
 BYTE   Ds3
 BYTE   W24
//  #03 //043   ----------------------------------------
 BYTE   TIE  Cn3
 BYTE   W96
//  #03 //044   ----------------------------------------
 BYTE   W48
 BYTE   EOT
 BYTE   N23  Dn3
 BYTE   W24
 BYTE   Ds3
 BYTE   W24
//  #03 //045   ----------------------------------------
 BYTE   TIE  Fn3
 BYTE   W96
//  #03 //046   ----------------------------------------
 BYTE   W44
 BYTE   W03
 BYTE   EOT
 BYTE   W01
 BYTE   N23  Gn3
 BYTE   W24
 BYTE   Gs3
 BYTE   W24
//  #03 //047   ----------------------------------------
 BYTE   N11
 BYTE   W12
 BYTE   Fn3
 BYTE   W12
 BYTE   N68  Gn3
 BYTE   W72
//  #03 //048   ----------------------------------------
 BYTE   W12
 BYTE   N56  An3
 BYTE   W84
//  #03 //049   ----------------------------------------
 BYTE   W96
//  #03 //050   ----------------------------------------
 BYTE   W96
//  #03 //051   ----------------------------------------
 BYTE   W96
//  #03 //052   ----------------------------------------
 BYTE   W96
//  #03 //053   ----------------------------------------
 BYTE   W96
//  #03 //054   ----------------------------------------
 BYTE   W96
//  #03 //055   ----------------------------------------
 BYTE   W96
//  #03 //056   ----------------------------------------
 BYTE   W96
//  #03 //057   ----------------------------------------
 BYTE   W96
//  #03 //058   ----------------------------------------
 BYTE   W96
//  #03 //059   ----------------------------------------
 BYTE   W96
//  #03 //060   ----------------------------------------
 BYTE   W96
//  #03 //061   ----------------------------------------
 BYTE   W96
//  #03 //062   ----------------------------------------
 BYTE   W96
//  #03 //063   ----------------------------------------
 BYTE   W96
//  #03 //064   ----------------------------------------
 BYTE   W96
//  #03 //065   ----------------------------------------
 BYTE   W96
//  #03 //066   ----------------------------------------
 BYTE   W96
//  #03 //067   ----------------------------------------
 BYTE   W96
//  #03 //068   ----------------------------------------
 BYTE   W96
//  #03 //069   ----------------------------------------
 BYTE   W96
//  #03 //070   ----------------------------------------
 BYTE   W96
//  #03 //071   ----------------------------------------
 BYTE   W96
//  #03 //072   ----------------------------------------
 BYTE   W96
//  #03 //073   ----------------------------------------
 BYTE   W96
//  #03 //074   ----------------------------------------
 BYTE   W96
//  #03 //075   ----------------------------------------
 BYTE   W96
//  #03 //076   ----------------------------------------
 BYTE   GoTo
  POIN2 Label_01609BCD
 BYTE   FINE

//**************** Track 4 (Midi-Chn.3) ****************//

song19_004:
//  #04 //000   ----------------------------------------
 BYTE   KEYSH   song19_key+0
 BYTE   VOICE   30
 BYTE   VOL   44*song19_mvl/mxv
 BYTE   W96
//  #04 //001   ----------------------------------------
 BYTE   W96
//  #04 //002   ----------------------------------------
 BYTE   W96
//  #04 //003   ----------------------------------------
 BYTE   W96
//  #04 //004   ----------------------------------------
 BYTE   W96
//  #04 //005   ----------------------------------------
 BYTE   W96
//  #04 //006   ----------------------------------------
 BYTE   W96
//  #04 //007   ----------------------------------------
 BYTE   W96
//  #04 //008   ----------------------------------------
 BYTE   W96
//  #04 //009   ----------------------------------------
 BYTE   W96
//  #04 //010   ----------------------------------------
 BYTE   W96
//  #04 //011   ----------------------------------------
 BYTE   W96
//  #04 //012   ----------------------------------------
 BYTE   W96
//  #04 //013   ----------------------------------------
 BYTE   W96
//  #04 //014   ----------------------------------------
 BYTE   W96
//  #04 //015   ----------------------------------------
 BYTE   W96
//  #04 //016   ----------------------------------------
 BYTE   W96
//  #04 //017   ----------------------------------------
 BYTE   W96
//  #04 //018   ----------------------------------------
 BYTE   W96
//  #04 //019   ----------------------------------------
 BYTE   W96
//  #04 //020   ----------------------------------------
 BYTE   W96
//  #04 //021   ----------------------------------------
Label_01047D2F:
 BYTE   N11  Fn2  v127
 BYTE   W36
 BYTE   N11
 BYTE   W36
 BYTE   N11
 BYTE   W24
 BYTE   PEND 
//  #04 //022   ----------------------------------------
 BYTE   W12
 BYTE   N11
 BYTE   W36
 BYTE   N11
 BYTE   W24
 BYTE   Cn2
 BYTE   W24
//  #04 //023   ----------------------------------------
 BYTE   PATT
  POIN2 Label_01047D2F
//  #04 //024   ----------------------------------------
 BYTE   W12
 BYTE   N11  Fn2  v127
 BYTE   W36
 BYTE   N11
 BYTE   W24
Label_01047D4B:
 BYTE   N11  Cn2  v127
 BYTE   W24
//  #04 //025   ----------------------------------------
 BYTE   W96
//  #04 //026   ----------------------------------------
 BYTE   W96
//  #04 //027   ----------------------------------------
 BYTE   W96
//  #04 //028   ----------------------------------------
 BYTE   W96
//  #04 //029   ----------------------------------------
 BYTE   W96
//  #04 //030   ----------------------------------------
 BYTE   W96
//  #04 //031   ----------------------------------------
 BYTE   W96
//  #04 //032   ----------------------------------------
 BYTE   W96
//  #04 //033   ----------------------------------------
 BYTE   W96
//  #04 //034   ----------------------------------------
 BYTE   W96
//  #04 //035   ----------------------------------------
 BYTE   W96
//  #04 //036   ----------------------------------------
 BYTE   W96
//  #04 //037   ----------------------------------------
 BYTE   W96
//  #04 //038   ----------------------------------------
 BYTE   W96
//  #04 //039   ----------------------------------------
 BYTE   W96
//  #04 //040   ----------------------------------------
 BYTE   W96
//  #04 //041   ----------------------------------------
 BYTE   W96
//  #04 //042   ----------------------------------------
 BYTE   W96
//  #04 //043   ----------------------------------------
 BYTE   W96
//  #04 //044   ----------------------------------------
 BYTE   W96
//  #04 //045   ----------------------------------------
 BYTE   W96
//  #04 //046   ----------------------------------------
 BYTE   W96
//  #04 //047   ----------------------------------------
 BYTE   W96
//  #04 //048   ----------------------------------------
 BYTE   W96
//  #04 //049   ----------------------------------------
 BYTE   W96
//  #04 //050   ----------------------------------------
 BYTE   W96
//  #04 //051   ----------------------------------------
 BYTE   W96
//  #04 //052   ----------------------------------------
 BYTE   W96
//  #04 //053   ----------------------------------------
 BYTE   W96
//  #04 //054   ----------------------------------------
 BYTE   W96
//  #04 //055   ----------------------------------------
 BYTE   W96
//  #04 //056   ----------------------------------------
 BYTE   W96
//  #04 //057   ----------------------------------------
 BYTE   W96
//  #04 //058   ----------------------------------------
 BYTE   W96
//  #04 //059   ----------------------------------------
 BYTE   W96
//  #04 //060   ----------------------------------------
 BYTE   W96
//  #04 //061   ----------------------------------------
 BYTE   W96
//  #04 //062   ----------------------------------------
 BYTE   W96
//  #04 //063   ----------------------------------------
 BYTE   W96
//  #04 //064   ----------------------------------------
 BYTE   W96
//  #04 //065   ----------------------------------------
 BYTE   W96
//  #04 //066   ----------------------------------------
 BYTE   W96
//  #04 //067   ----------------------------------------
 BYTE   W96
//  #04 //068   ----------------------------------------
 BYTE   W96
//  #04 //069   ----------------------------------------
 BYTE   W96
//  #04 //070   ----------------------------------------
 BYTE   W96
//  #04 //071   ----------------------------------------
 BYTE   W96
//  #04 //072   ----------------------------------------
 BYTE   W96
//  #04 //073   ----------------------------------------
Label_01047D7F:
 BYTE   N11  Gn2  v127
 BYTE   W36
 BYTE   N11
 BYTE   W36
 BYTE   N11
 BYTE   W24
 BYTE   PEND 
//  #04 //074   ----------------------------------------
 BYTE   W12
 BYTE   N11
 BYTE   W36
 BYTE   N11
 BYTE   W24
 BYTE   Dn2
 BYTE   W24
//  #04 //075   ----------------------------------------
 BYTE   PATT
  POIN2 Label_01047D7F
//  #04 //076   ----------------------------------------
 BYTE   GoTo
  POIN2 Label_01047D4B
 BYTE   FINE

//**************** Track 5 (Midi-Chn.4) ****************//

song19_005:
//  #05 //000   ----------------------------------------
 BYTE   KEYSH   song19_key+0
 BYTE   VOICE   34
 BYTE   VOL   39*song19_mvl/mxv
 BYTE   PAN   c_v+0
 BYTE   W72
 BYTE   N11  Fn2  v080
 BYTE   W24
//  #05 //001   ----------------------------------------
Label_0160A715:
 BYTE   N11  Fn2  v080
 BYTE   W12
 BYTE   Cn2
 BYTE   W24
 BYTE   Fn2
 BYTE   W36
 BYTE   N11
 BYTE   W24
 BYTE   PEND 
//  #05 //002   ----------------------------------------
Label_0160A720:
 BYTE   W12
 BYTE   N11  Fn2  v080
 BYTE   W36
 BYTE   N11
 BYTE   W12
 BYTE   Cn2
 BYTE   W12
 BYTE   Fn2
 BYTE   W12
 BYTE   Cn2
 BYTE   W12
 BYTE   PEND 
//  #05 //003   ----------------------------------------
 BYTE   PATT
  POIN2 Label_0160A715
//  #05 //004   ----------------------------------------
 BYTE   PATT
  POIN2 Label_0160A720
//  #05 //005   ----------------------------------------
 BYTE   PATT
  POIN2 Label_0160A715
//  #05 //006   ----------------------------------------
 BYTE   PATT
  POIN2 Label_0160A720
//  #05 //007   ----------------------------------------
 BYTE   PATT
  POIN2 Label_0160A715
//  #05 //008   ----------------------------------------
 BYTE   PATT
  POIN2 Label_0160A720
//  #05 //009   ----------------------------------------
 BYTE   PATT
  POIN2 Label_0160A715
//  #05 //010   ----------------------------------------
 BYTE   PATT
  POIN2 Label_0160A720
//  #05 //011   ----------------------------------------
 BYTE   PATT
  POIN2 Label_0160A715
//  #05 //012   ----------------------------------------
 BYTE   PATT
  POIN2 Label_0160A720
//  #05 //013   ----------------------------------------
 BYTE   PATT
  POIN2 Label_0160A715
//  #05 //014   ----------------------------------------
 BYTE   PATT
  POIN2 Label_0160A720
//  #05 //015   ----------------------------------------
 BYTE   PATT
  POIN2 Label_0160A715
//  #05 //016   ----------------------------------------
 BYTE   PATT
  POIN2 Label_0160A720
//  #05 //017   ----------------------------------------
 BYTE   PATT
  POIN2 Label_0160A715
//  #05 //018   ----------------------------------------
 BYTE   PATT
  POIN2 Label_0160A720
//  #05 //019   ----------------------------------------
 BYTE   PATT
  POIN2 Label_0160A715
//  #05 //020   ----------------------------------------
 BYTE   W12
 BYTE   N11  Fn2  v080
 BYTE   W36
 BYTE   N11
 BYTE   W12
 BYTE   Cn2
 BYTE   W12
 BYTE   Fn2
 BYTE   W12
 BYTE   Cn2
 BYTE   W12
//  #05 //021   ----------------------------------------
 BYTE   W96
//  #05 //022   ----------------------------------------
 BYTE   W12
 BYTE   W84
//  #05 //023   ----------------------------------------
 BYTE   W96
//  #05 //024   ----------------------------------------
 BYTE   W12
 BYTE   W60
Label_0160A796:
 BYTE   W24
//  #05 //025   ----------------------------------------
Label_0160A797:
 BYTE   N11  Gn1  v080
 BYTE   W36
 BYTE   N11
 BYTE   W36
 BYTE   N11
 BYTE   W24
 BYTE   PEND 
//  #05 //026   ----------------------------------------
Label_0160A7A0:
 BYTE   W12
 BYTE   N11  Gn1  v080
 BYTE   W36
 BYTE   N11
 BYTE   W24
 BYTE   N11
 BYTE   W24
 BYTE   PEND 
//  #05 //027   ----------------------------------------
 BYTE   PATT
  POIN2 Label_0160A797
//  #05 //028   ----------------------------------------
 BYTE   PATT
  POIN2 Label_0160A7A0
//  #05 //029   ----------------------------------------
 BYTE   PATT
  POIN2 Label_0160A797
//  #05 //030   ----------------------------------------
 BYTE   PATT
  POIN2 Label_0160A7A0
//  #05 //031   ----------------------------------------
 BYTE   PATT
  POIN2 Label_0160A797
//  #05 //032   ----------------------------------------
 BYTE   PATT
  POIN2 Label_0160A7A0
//  #05 //033   ----------------------------------------
Label_0160A7C8:
 BYTE   N11  Gs1  v080
 BYTE   W36
 BYTE   N11
 BYTE   W36
 BYTE   N11
 BYTE   W24
 BYTE   PEND 
//  #05 //034   ----------------------------------------
Label_0160A7D1:
 BYTE   W12
 BYTE   N11  Gs1  v080
 BYTE   W36
 BYTE   N11
 BYTE   W24
 BYTE   N11
 BYTE   W24
 BYTE   PEND 
//  #05 //035   ----------------------------------------
Label_0160A7DB:
 BYTE   N11  Fn1  v080
 BYTE   W36
 BYTE   N11
 BYTE   W36
 BYTE   N11
 BYTE   W24
 BYTE   PEND 
//  #05 //036   ----------------------------------------
Label_0160A7E4:
 BYTE   W12
 BYTE   N11  Fn1  v080
 BYTE   W36
 BYTE   N11
 BYTE   W24
 BYTE   N11
 BYTE   W24
 BYTE   PEND 
//  #05 //037   ----------------------------------------
Label_0160A7EE:
 BYTE   N11  Cn1  v080
 BYTE   W36
 BYTE   N11
 BYTE   W36
 BYTE   N11
 BYTE   W24
 BYTE   PEND 
//  #05 //038   ----------------------------------------
Label_0160A7F7:
 BYTE   W12
 BYTE   N11  Cn1  v080
 BYTE   W36
 BYTE   N11
 BYTE   W24
 BYTE   N11
 BYTE   W24
 BYTE   PEND 
//  #05 //039   ----------------------------------------
 BYTE   PATT
  POIN2 Label_0160A7EE
//  #05 //040   ----------------------------------------
 BYTE   PATT
  POIN2 Label_0160A7F7
//  #05 //041   ----------------------------------------
 BYTE   PATT
  POIN2 Label_0160A7C8
//  #05 //042   ----------------------------------------
 BYTE   PATT
  POIN2 Label_0160A7D1
//  #05 //043   ----------------------------------------
 BYTE   PATT
  POIN2 Label_0160A7DB
//  #05 //044   ----------------------------------------
 BYTE   PATT
  POIN2 Label_0160A7E4
//  #05 //045   ----------------------------------------
Label_0160A81F:
 BYTE   N11  Cn2  v080
 BYTE   W36
 BYTE   N11
 BYTE   W36
 BYTE   N11
 BYTE   W24
 BYTE   PEND 
//  #05 //046   ----------------------------------------
 BYTE   W12
 BYTE   N11
 BYTE   W36
 BYTE   N11
 BYTE   W24
 BYTE   N11
 BYTE   W24
//  #05 //047   ----------------------------------------
 BYTE   PATT
  POIN2 Label_0160A81F
//  #05 //048   ----------------------------------------
 BYTE   W12
 BYTE   N11  Dn2  v080
 BYTE   W36
 BYTE   N11
 BYTE   W24
 BYTE   N11
 BYTE   W24
//  #05 //049   ----------------------------------------
Label_0160A83D:
 BYTE   N11  Gn2  v080
 BYTE   W12
 BYTE   Dn2
 BYTE   W24
 BYTE   Gn2
 BYTE   W36
 BYTE   N11
 BYTE   W24
 BYTE   PEND 
//  #05 //050   ----------------------------------------
Label_0160A848:
 BYTE   W12
 BYTE   N11  Gn2  v080
 BYTE   W36
 BYTE   N11
 BYTE   W12
 BYTE   Dn2
 BYTE   W12
 BYTE   Gn2
 BYTE   W12
 BYTE   Dn2
 BYTE   W12
 BYTE   PEND 
//  #05 //051   ----------------------------------------
 BYTE   PATT
  POIN2 Label_0160A83D
//  #05 //052   ----------------------------------------
 BYTE   PATT
  POIN2 Label_0160A848
//  #05 //053   ----------------------------------------
 BYTE   PATT
  POIN2 Label_0160A83D
//  #05 //054   ----------------------------------------
 BYTE   PATT
  POIN2 Label_0160A848
//  #05 //055   ----------------------------------------
 BYTE   PATT
  POIN2 Label_0160A83D
//  #05 //056   ----------------------------------------
 BYTE   W12
 BYTE   N11  Gn2  v080
 BYTE   W36
 BYTE   N11
 BYTE   W12
 BYTE   Dn2
 BYTE   W12
 BYTE   Gn2
 BYTE   W24
//  #05 //057   ----------------------------------------
Label_0160A87A:
 BYTE   N11  Ds2  v080
 BYTE   W12
 BYTE   As1
 BYTE   W24
 BYTE   Ds2
 BYTE   W36
 BYTE   N11
 BYTE   W24
 BYTE   PEND 
//  #05 //058   ----------------------------------------
Label_0160A885:
 BYTE   W12
 BYTE   N11  Ds2  v080
 BYTE   W36
 BYTE   N11
 BYTE   W12
 BYTE   As1
 BYTE   W12
 BYTE   Ds2
 BYTE   W12
 BYTE   As1
 BYTE   W12
 BYTE   PEND 
//  #05 //059   ----------------------------------------
 BYTE   PATT
  POIN2 Label_0160A87A
//  #05 //060   ----------------------------------------
 BYTE   PATT
  POIN2 Label_0160A885
//  #05 //061   ----------------------------------------
 BYTE   PATT
  POIN2 Label_0160A87A
//  #05 //062   ----------------------------------------
 BYTE   PATT
  POIN2 Label_0160A885
//  #05 //063   ----------------------------------------
 BYTE   PATT
  POIN2 Label_0160A87A
//  #05 //064   ----------------------------------------
 BYTE   W12
 BYTE   N11  Ds2  v080
 BYTE   W36
 BYTE   N11
 BYTE   W12
 BYTE   As1
 BYTE   W12
 BYTE   Ds2
 BYTE   W24
//  #05 //065   ----------------------------------------
 BYTE   PATT
  POIN2 Label_0160A83D
//  #05 //066   ----------------------------------------
 BYTE   PATT
  POIN2 Label_0160A848
//  #05 //067   ----------------------------------------
 BYTE   PATT
  POIN2 Label_0160A83D
//  #05 //068   ----------------------------------------
 BYTE   PATT
  POIN2 Label_0160A848
//  #05 //069   ----------------------------------------
 BYTE   PATT
  POIN2 Label_0160A83D
//  #05 //070   ----------------------------------------
 BYTE   PATT
  POIN2 Label_0160A848
//  #05 //071   ----------------------------------------
 BYTE   PATT
  POIN2 Label_0160A83D
//  #05 //072   ----------------------------------------
 BYTE   W12
 BYTE   N11  Gn2  v080
 BYTE   W36
 BYTE   N11
 BYTE   W12
 BYTE   Dn2
 BYTE   W12
 BYTE   Gn2
 BYTE   W12
 BYTE   Dn2
 BYTE   W12
//  #05 //073   ----------------------------------------
Label_0160A8E7:
 BYTE   N11  Gn2  v080
 BYTE   W12
 BYTE   Dn2
 BYTE   W24
 BYTE   Gn2
 BYTE   W36
 BYTE   N11
 BYTE   W24
 BYTE   PEND 
//  #05 //074   ----------------------------------------
 BYTE   W12
 BYTE   N11
 BYTE   W36
 BYTE   N11
 BYTE   W24
 BYTE   Dn2
 BYTE   W24
//  #05 //075   ----------------------------------------
 BYTE   PATT
  POIN2 Label_0160A8E7
//  #05 //076   ----------------------------------------
 BYTE   GoTo
  POIN2 Label_0160A796
 BYTE   FINE

//**************** Track 6 (Midi-Chn.5) ****************//

song19_006:
//  #06 //000   ----------------------------------------
 BYTE   KEYSH   song19_key+0
 BYTE   VOICE   73
 BYTE   VOL   45*song19_mvl/mxv
 BYTE   PAN   c_v+36
 BYTE   W96
//  #06 //001   ----------------------------------------
 BYTE   W96
//  #06 //002   ----------------------------------------
 BYTE   W96
//  #06 //003   ----------------------------------------
 BYTE   W96
//  #06 //004   ----------------------------------------
 BYTE   W96
//  #06 //005   ----------------------------------------
 BYTE   W96
//  #06 //006   ----------------------------------------
 BYTE   W96
//  #06 //007   ----------------------------------------
 BYTE   W96
//  #06 //008   ----------------------------------------
 BYTE   W96
//  #06 //009   ----------------------------------------
 BYTE   W96
//  #06 //010   ----------------------------------------
 BYTE   W96
//  #06 //011   ----------------------------------------
 BYTE   W96
//  #06 //012   ----------------------------------------
 BYTE   W96
//  #06 //013   ----------------------------------------
 BYTE   W96
//  #06 //014   ----------------------------------------
 BYTE   W96
//  #06 //015   ----------------------------------------
 BYTE   W96
//  #06 //016   ----------------------------------------
 BYTE   W96
//  #06 //017   ----------------------------------------
 BYTE   W96
//  #06 //018   ----------------------------------------
 BYTE   W96
//  #06 //019   ----------------------------------------
 BYTE   W96
//  #06 //020   ----------------------------------------
 BYTE   W96
//  #06 //021   ----------------------------------------
 BYTE   W96
//  #06 //022   ----------------------------------------
 BYTE   W96
//  #06 //023   ----------------------------------------
 BYTE   W96
//  #06 //024   ----------------------------------------
 BYTE   W72
Label_01047C31:
 BYTE   W24
//  #06 //025   ----------------------------------------
 BYTE   W96
//  #06 //026   ----------------------------------------
 BYTE   W96
//  #06 //027   ----------------------------------------
 BYTE   W96
//  #06 //028   ----------------------------------------
 BYTE   W96
//  #06 //029   ----------------------------------------
 BYTE   W96
//  #06 //030   ----------------------------------------
 BYTE   W96
//  #06 //031   ----------------------------------------
 BYTE   W96
//  #06 //032   ----------------------------------------
 BYTE   W72
 BYTE   N05  Cn6  v088
 BYTE   W06
 BYTE   Gn5
 BYTE   W06
 BYTE   Ds5
 BYTE   W06
 BYTE   Dn5
 BYTE   W06
//  #06 //033   ----------------------------------------
 BYTE   TIE  Cn5
 BYTE   W96
//  #06 //034   ----------------------------------------
 BYTE   W48
 BYTE   EOT
 BYTE   N23  As4
 BYTE   W24
 BYTE   Dn5
 BYTE   W24
//  #06 //035   ----------------------------------------
 BYTE   TIE  Cn5
 BYTE   W96
//  #06 //036   ----------------------------------------
 BYTE   W48
 BYTE   EOT
 BYTE   N23  Dn5
 BYTE   W24
 BYTE   Ds5
 BYTE   W24
//  #06 //037   ----------------------------------------
 BYTE   TIE  Fn5
 BYTE   W96
//  #06 //038   ----------------------------------------
 BYTE   W80
 BYTE   W03
 BYTE   EOT
 BYTE   W01
 BYTE   N05  Ds5
 BYTE   W06
 BYTE   Dn5
 BYTE   W06
//  #06 //039   ----------------------------------------
 BYTE   N44
 BYTE   W48
 BYTE   TIE  Ds5
 BYTE   W48
//  #06 //040   ----------------------------------------
 BYTE   W68
 BYTE   W03
 BYTE   EOT
 BYTE   W01
 BYTE   N23  Dn5
 BYTE   W24
//  #06 //041   ----------------------------------------
 BYTE   TIE  Cn5
 BYTE   W96
//  #06 //042   ----------------------------------------
 BYTE   W48
 BYTE   EOT
 BYTE   N23  Dn5
 BYTE   W24
 BYTE   Ds5
 BYTE   W24
//  #06 //043   ----------------------------------------
 BYTE   TIE  Cn5
 BYTE   W96
//  #06 //044   ----------------------------------------
 BYTE   W48
 BYTE   EOT
 BYTE   N23  Dn5
 BYTE   W24
 BYTE   Ds5
 BYTE   W24
//  #06 //045   ----------------------------------------
 BYTE   TIE  Fn5
 BYTE   W96
//  #06 //046   ----------------------------------------
 BYTE   W44
 BYTE   W03
 BYTE   EOT
 BYTE   W01
 BYTE   N23  Gn5
 BYTE   W24
 BYTE   Gs5
 BYTE   W24
//  #06 //047   ----------------------------------------
 BYTE   N11
 BYTE   W12
 BYTE   Fn5
 BYTE   W12
 BYTE   N68  Gn5
 BYTE   W72
//  #06 //048   ----------------------------------------
 BYTE   W12
 BYTE   N56  An5
 BYTE   W84
//  #06 //049   ----------------------------------------
 BYTE   W96
//  #06 //050   ----------------------------------------
 BYTE   W96
//  #06 //051   ----------------------------------------
 BYTE   W96
//  #06 //052   ----------------------------------------
 BYTE   W96
//  #06 //053   ----------------------------------------
 BYTE   W96
//  #06 //054   ----------------------------------------
 BYTE   W96
//  #06 //055   ----------------------------------------
 BYTE   W96
//  #06 //056   ----------------------------------------
 BYTE   W96
//  #06 //057   ----------------------------------------
 BYTE   W96
//  #06 //058   ----------------------------------------
 BYTE   W96
//  #06 //059   ----------------------------------------
 BYTE   W96
//  #06 //060   ----------------------------------------
 BYTE   W96
//  #06 //061   ----------------------------------------
 BYTE   W96
//  #06 //062   ----------------------------------------
 BYTE   W96
//  #06 //063   ----------------------------------------
 BYTE   W96
//  #06 //064   ----------------------------------------
 BYTE   W96
//  #06 //065   ----------------------------------------
 BYTE   W96
//  #06 //066   ----------------------------------------
 BYTE   W96
//  #06 //067   ----------------------------------------
 BYTE   W96
//  #06 //068   ----------------------------------------
 BYTE   W96
//  #06 //069   ----------------------------------------
 BYTE   W96
//  #06 //070   ----------------------------------------
 BYTE   W96
//  #06 //071   ----------------------------------------
 BYTE   W96
//  #06 //072   ----------------------------------------
 BYTE   W96
//  #06 //073   ----------------------------------------
 BYTE   W96
//  #06 //074   ----------------------------------------
 BYTE   W96
//  #06 //075   ----------------------------------------
 BYTE   W96
//  #06 //076   ----------------------------------------
 BYTE   GoTo
  POIN2 Label_01047C31
 BYTE   FINE

//**************** Track 7 (Midi-Chn.6) ****************//

song19_007:
//  #07 //000   ----------------------------------------
 BYTE   KEYSH   song19_key+0
 BYTE   VOICE   124
 BYTE   VOL   37*song19_mvl/mxv
 BYTE   W96
//  #07 //001   ----------------------------------------
Label_01609DAB:
 BYTE   N12  Dn1  v127
 BYTE   W12
 BYTE   Cn1
 BYTE   W12
 BYTE   N12
 BYTE   W12
 BYTE   Dn1
 BYTE   W12
 BYTE   Cn1
 BYTE   W12
 BYTE   N12
 BYTE   W12
 BYTE   Dn1
 BYTE   W12
 BYTE   N12
 BYTE   W12
 BYTE   PEND 
//  #07 //002   ----------------------------------------
Label_01609DBE:
 BYTE   N12  Dn1  v127
 BYTE   W12
 BYTE   Cn1
 BYTE   W12
 BYTE   N12
 BYTE   W12
 BYTE   Dn1
 BYTE   W12
 BYTE   Cn1
 BYTE   W12
 BYTE   N12
 BYTE   W12
 BYTE   Dn1
 BYTE   W12
 BYTE   N12
 BYTE   N12  An1
 BYTE   N12  Bn1
 BYTE   N12  Cs2
 BYTE   W12
 BYTE   PEND 
//  #07 //003   ----------------------------------------
 BYTE   PATT
  POIN2 Label_01609DAB
//  #07 //004   ----------------------------------------
 BYTE   PATT
  POIN2 Label_01609DBE
//  #07 //005   ----------------------------------------
 BYTE   PATT
  POIN2 Label_01609DAB
//  #07 //006   ----------------------------------------
 BYTE   PATT
  POIN2 Label_01609DBE
//  #07 //007   ----------------------------------------
 BYTE   PATT
  POIN2 Label_01609DAB
//  #07 //008   ----------------------------------------
 BYTE   PATT
  POIN2 Label_01609DBE
//  #07 //009   ----------------------------------------
 BYTE   PATT
  POIN2 Label_01609DAB
//  #07 //010   ----------------------------------------
 BYTE   PATT
  POIN2 Label_01609DBE
//  #07 //011   ----------------------------------------
 BYTE   PATT
  POIN2 Label_01609DAB
//  #07 //012   ----------------------------------------
 BYTE   PATT
  POIN2 Label_01609DBE
//  #07 //013   ----------------------------------------
 BYTE   PATT
  POIN2 Label_01609DAB
//  #07 //014   ----------------------------------------
 BYTE   PATT
  POIN2 Label_01609DBE
//  #07 //015   ----------------------------------------
 BYTE   PATT
  POIN2 Label_01609DAB
//  #07 //016   ----------------------------------------
 BYTE   PATT
  POIN2 Label_01609DBE
//  #07 //017   ----------------------------------------
 BYTE   PATT
  POIN2 Label_01609DAB
//  #07 //018   ----------------------------------------
 BYTE   PATT
  POIN2 Label_01609DBE
//  #07 //019   ----------------------------------------
 BYTE   PATT
  POIN2 Label_01609DAB
//  #07 //020   ----------------------------------------
 BYTE   PATT
  POIN2 Label_01609DBE
//  #07 //021   ----------------------------------------
 BYTE   PATT
  POIN2 Label_01609DAB
//  #07 //022   ----------------------------------------
 BYTE   PATT
  POIN2 Label_01609DBE
//  #07 //023   ----------------------------------------
 BYTE   PATT
  POIN2 Label_01609DAB
//  #07 //024   ----------------------------------------
 BYTE   N12  Dn1  v127
 BYTE   W12
 BYTE   Cn1
 BYTE   W12
 BYTE   N12
 BYTE   W12
 BYTE   Dn1
 BYTE   W12
 BYTE   Cn1
 BYTE   W12
 BYTE   N12
 BYTE   W12
Label_01609E4E:
 BYTE   N12  Dn1  v127
 BYTE   W12
 BYTE   N12
 BYTE   N12  An1
 BYTE   N12  Bn1
 BYTE   N12  Cs2
 BYTE   W12
//  #07 //025   ----------------------------------------
 BYTE   PATT
  POIN2 Label_01609DAB
//  #07 //026   ----------------------------------------
 BYTE   PATT
  POIN2 Label_01609DBE
//  #07 //027   ----------------------------------------
 BYTE   PATT
  POIN2 Label_01609DAB
//  #07 //028   ----------------------------------------
 BYTE   PATT
  POIN2 Label_01609DBE
//  #07 //029   ----------------------------------------
 BYTE   PATT
  POIN2 Label_01609DAB
//  #07 //030   ----------------------------------------
 BYTE   PATT
  POIN2 Label_01609DBE
//  #07 //031   ----------------------------------------
 BYTE   PATT
  POIN2 Label_01609DAB
//  #07 //032   ----------------------------------------
 BYTE   PATT
  POIN2 Label_01609DBE
//  #07 //033   ----------------------------------------
 BYTE   PATT
  POIN2 Label_01609DAB
//  #07 //034   ----------------------------------------
 BYTE   PATT
  POIN2 Label_01609DBE
//  #07 //035   ----------------------------------------
 BYTE   PATT
  POIN2 Label_01609DAB
//  #07 //036   ----------------------------------------
 BYTE   PATT
  POIN2 Label_01609DBE
//  #07 //037   ----------------------------------------
 BYTE   PATT
  POIN2 Label_01609DAB
//  #07 //038   ----------------------------------------
 BYTE   PATT
  POIN2 Label_01609DBE
//  #07 //039   ----------------------------------------
 BYTE   PATT
  POIN2 Label_01609DAB
//  #07 //040   ----------------------------------------
 BYTE   PATT
  POIN2 Label_01609DBE
//  #07 //041   ----------------------------------------
 BYTE   PATT
  POIN2 Label_01609DAB
//  #07 //042   ----------------------------------------
 BYTE   PATT
  POIN2 Label_01609DBE
//  #07 //043   ----------------------------------------
 BYTE   PATT
  POIN2 Label_01609DAB
//  #07 //044   ----------------------------------------
 BYTE   PATT
  POIN2 Label_01609DBE
//  #07 //045   ----------------------------------------
 BYTE   PATT
  POIN2 Label_01609DAB
//  #07 //046   ----------------------------------------
 BYTE   PATT
  POIN2 Label_01609DBE
//  #07 //047   ----------------------------------------
 BYTE   PATT
  POIN2 Label_01609DAB
//  #07 //048   ----------------------------------------
 BYTE   PATT
  POIN2 Label_01609DBE
//  #07 //049   ----------------------------------------
 BYTE   PATT
  POIN2 Label_01609DAB
//  #07 //050   ----------------------------------------
 BYTE   PATT
  POIN2 Label_01609DBE
//  #07 //051   ----------------------------------------
 BYTE   PATT
  POIN2 Label_01609DAB
//  #07 //052   ----------------------------------------
 BYTE   PATT
  POIN2 Label_01609DBE
//  #07 //053   ----------------------------------------
 BYTE   PATT
  POIN2 Label_01609DAB
//  #07 //054   ----------------------------------------
 BYTE   PATT
  POIN2 Label_01609DBE
//  #07 //055   ----------------------------------------
 BYTE   PATT
  POIN2 Label_01609DAB
//  #07 //056   ----------------------------------------
 BYTE   PATT
  POIN2 Label_01609DBE
//  #07 //057   ----------------------------------------
 BYTE   PATT
  POIN2 Label_01609DAB
//  #07 //058   ----------------------------------------
 BYTE   PATT
  POIN2 Label_01609DBE
//  #07 //059   ----------------------------------------
 BYTE   PATT
  POIN2 Label_01609DAB
//  #07 //060   ----------------------------------------
 BYTE   PATT
  POIN2 Label_01609DBE
//  #07 //061   ----------------------------------------
 BYTE   PATT
  POIN2 Label_01609DAB
//  #07 //062   ----------------------------------------
 BYTE   PATT
  POIN2 Label_01609DBE
//  #07 //063   ----------------------------------------
 BYTE   PATT
  POIN2 Label_01609DAB
//  #07 //064   ----------------------------------------
 BYTE   PATT
  POIN2 Label_01609DBE
//  #07 //065   ----------------------------------------
 BYTE   PATT
  POIN2 Label_01609DAB
//  #07 //066   ----------------------------------------
 BYTE   PATT
  POIN2 Label_01609DBE
//  #07 //067   ----------------------------------------
 BYTE   PATT
  POIN2 Label_01609DAB
//  #07 //068   ----------------------------------------
 BYTE   PATT
  POIN2 Label_01609DBE
//  #07 //069   ----------------------------------------
 BYTE   PATT
  POIN2 Label_01609DAB
//  #07 //070   ----------------------------------------
 BYTE   PATT
  POIN2 Label_01609DBE
//  #07 //071   ----------------------------------------
 BYTE   PATT
  POIN2 Label_01609DAB
//  #07 //072   ----------------------------------------
 BYTE   PATT
  POIN2 Label_01609DBE
//  #07 //073   ----------------------------------------
 BYTE   PATT
  POIN2 Label_01609DAB
//  #07 //074   ----------------------------------------
 BYTE   PATT
  POIN2 Label_01609DBE
//  #07 //075   ----------------------------------------
 BYTE   PATT
  POIN2 Label_01609DAB
//  #07 //076   ----------------------------------------
 BYTE   GoTo
  POIN2 Label_01609E4E
 BYTE   FINE

//******************************************************//
	ALIGN 4

song19:
	BYTE	7	// NumTrks
	BYTE	0	// NumBlks
	BYTE	song19_pri	// Priority
	BYTE	song19_rev	// Reverb.
    
	POIN2	song19_grp
    
	POIN2	song19_001
	POIN2	song19_002
	POIN2	song19_003
	POIN2	song19_004
	POIN2	song19_005
	POIN2	song19_006
	POIN2	song19_007

	
