//Event file generated from Sappy .s format.
	#include "MPlayDef.event"

	#define	song1B_grp  voicegroup000
	#define	song1B_pri  0
	#define	song1B_rev  0
	#define	song1B_mvl  127
	#define	song1B_key  0
	#define	song1B_tbs  1
	#define	song1B_exg  0
	#define	song1B_cmp  1

	// .rodata
	//	song1B
	ALIGN 4


//**************** Track 1 (Midi-Chn.0) ****************//

song1B_001:
//  #01 //000   ----------------------------------------
 BYTE   KEYSH   song1B_key+0
 BYTE   TEMPO   168*song1B_tbs/2
 BYTE   VOICE   30
 BYTE   VOL   40*song1B_mvl/mxv
 BYTE   PAN   c_v-2
 BYTE   W01
 BYTE   N03  An1  v127
 BYTE   W07
 BYTE   N04
 BYTE   W08
 BYTE   N04
 BYTE   W08
 BYTE   N19  Cn2
 BYTE   W24
 BYTE   N03  An1
 BYTE   W08
 BYTE   N03
 BYTE   W08
 BYTE   N03
 BYTE   W08
 BYTE   N18  Dn2
 BYTE   W24
//  #01 //001   ----------------------------------------
 BYTE   N04  An1
 BYTE   W08
 BYTE   N03
 BYTE   W08
 BYTE   N03
 BYTE   W08
 BYTE   N06  Ds2
 BYTE   W08
 BYTE   Dn2
 BYTE   W08
 BYTE   Cn2
 BYTE   W08
 BYTE   Dn2
 BYTE   W08
 BYTE   Cn2
 BYTE   W08
 BYTE   N07  Bn1
 BYTE   W08
 BYTE   N14  Cn2
 BYTE   W16
 BYTE   N05  Bn1
 BYTE   W08
//  #01 //002   ----------------------------------------
 BYTE   W01
 BYTE   N02  An1
 BYTE   W07
 BYTE   N03
 BYTE   W08
 BYTE   N03
 BYTE   W08
 BYTE   N18  Cn2
 BYTE   W24
 BYTE   N04  An1
 BYTE   W08
 BYTE   N04
 BYTE   W08
 BYTE   N04
 BYTE   W08
 BYTE   N19  Dn2
 BYTE   W24
//  #01 //003   ----------------------------------------
 BYTE   N03  An1
 BYTE   W08
 BYTE   N03
 BYTE   W08
 BYTE   N04
 BYTE   W08
 BYTE   N06  Ds2
 BYTE   W08
 BYTE   N07  Dn2
 BYTE   W08
 BYTE   Cn2
 BYTE   W08
 BYTE   N06  Dn2
 BYTE   W08
 BYTE   N07  Cn2
 BYTE   W08
 BYTE   Bn1
 BYTE   W08
 BYTE   N14  Cn2
 BYTE   W16
 BYTE   N06  Bn1
 BYTE   W08
//  #01 //004   ----------------------------------------
 BYTE   W01
 BYTE   N03  Cn2
 BYTE   W07
 BYTE   N03
 BYTE   W08
 BYTE   N04
 BYTE   W08
 BYTE   N23  Ds2
 BYTE   W24
 BYTE   N03  Cn2
 BYTE   W08
 BYTE   N03
 BYTE   W08
 BYTE   N03
 BYTE   W08
 BYTE   N22  Fn2
 BYTE   W24
//  #01 //005   ----------------------------------------
Label_015F9076:
 BYTE   N03  Cn2  v127
 BYTE   W08
 BYTE   N04
 BYTE   W08
 BYTE   N04
 BYTE   W08
 BYTE   N06  Fs2
 BYTE   W08
 BYTE   N07  Fn2
 BYTE   W08
 BYTE   N06  Ds2
 BYTE   W08
 BYTE   Fn2
 BYTE   W08
 BYTE   Ds2
 BYTE   W08
 BYTE   Dn2
 BYTE   W08
 BYTE   N14  Ds2
 BYTE   W16
 BYTE   N07  Dn2
 BYTE   W08
 BYTE   PEND 
//  #01 //006   ----------------------------------------
 BYTE   W01
 BYTE   N03  Cn2
 BYTE   W07
 BYTE   N04
 BYTE   W08
 BYTE   N04
 BYTE   W08
 BYTE   N22  Ds2
 BYTE   W24
 BYTE   N03  Cn2
 BYTE   W08
 BYTE   N03
 BYTE   W08
 BYTE   N04
 BYTE   W08
 BYTE   N23  Fn2
 BYTE   W24
//  #01 //007   ----------------------------------------
Label_015F90A9:
 BYTE   N03  Cn2  v127
 BYTE   W08
 BYTE   N03
 BYTE   W08
 BYTE   N03
 BYTE   W08
 BYTE   N06  Fs2
 BYTE   W08
 BYTE   Fn2
 BYTE   W08
 BYTE   Ds2
 BYTE   W08
 BYTE   Fn2
 BYTE   W08
 BYTE   N07  Ds2
 BYTE   W08
 BYTE   Dn2
 BYTE   W08
 BYTE   N06  Ds2
 BYTE   W08
 BYTE   N07  Dn2
 BYTE   W08
 BYTE   N06  Cn2
 BYTE   W08
//  #01 //008   ----------------------------------------
 BYTE   N03  An1
 BYTE   W08
 BYTE   N03
 BYTE   W08
 BYTE   N04
 BYTE   W08
 BYTE   N18  Cn2
 BYTE   W24
 BYTE   N03  An1
 BYTE   W08
 BYTE   N04
 BYTE   W08
 BYTE   N04
 BYTE   W08
 BYTE   N19  Dn2
 BYTE   W24
//  #01 //009   ----------------------------------------
 BYTE   N03  An1
 BYTE   W08
 BYTE   N03
 BYTE   W08
 BYTE   N03
 BYTE   W08
 BYTE   N07  Ds2
 BYTE   W08
 BYTE   N06  Dn2
 BYTE   W08
 BYTE   Cn2
 BYTE   W08
 BYTE   N07  Dn2
 BYTE   W08
 BYTE   N06  Cn2
 BYTE   W08
 BYTE   Bn1
 BYTE   W08
 BYTE   N15  Cn2
 BYTE   W16
 BYTE   N05  Bn1
 BYTE   W08
//  #01 //010   ----------------------------------------
 BYTE   N03  An1
 BYTE   W08
 BYTE   N04
 BYTE   W08
 BYTE   N03
 BYTE   W08
 BYTE   N18  Cn2
 BYTE   W24
 BYTE   W01
 BYTE   N03  An1
 BYTE   W07
 BYTE   N03
 BYTE   W08
 BYTE   N03
 BYTE   W08
 BYTE   N18  Dn2
 BYTE   W24
//  #01 //011   ----------------------------------------
 BYTE   N03  An1
 BYTE   W08
 BYTE   N04
 BYTE   W08
 BYTE   N03
 BYTE   W08
 BYTE   N07  Ds2
 BYTE   W08
 BYTE   N06  Dn2
 BYTE   W08
 BYTE   Cn2
 BYTE   W08
 BYTE   Dn2
 BYTE   W08
 BYTE   Cn2
 BYTE   W08
 BYTE   Bn1
 BYTE   W09
 BYTE   N14  Cn2
 BYTE   W15
 BYTE   N05  Bn1
 BYTE   W08
//  #01 //012   ----------------------------------------
 BYTE   N03  Cn2
 BYTE   W08
 BYTE   N03
 BYTE   W08
 BYTE   N03
 BYTE   W08
 BYTE   N23  Ds2
 BYTE   W24
 BYTE   N03  Cn2
 BYTE   W08
 BYTE   N04
 BYTE   W08
 BYTE   N03
 BYTE   W08
 BYTE   N23  Fn2
 BYTE   W24
//  #01 //013   ----------------------------------------
 BYTE   N03  Cn2
 BYTE   W08
 BYTE   N04
 BYTE   W08
 BYTE   N03
 BYTE   W08
 BYTE   N06  Fs2
 BYTE   W08
 BYTE   Fn2
 BYTE   W08
 BYTE   N07  Ds2
 BYTE   W08
 BYTE   Fn2
 BYTE   W08
 BYTE   N06  Ds2
 BYTE   W08
 BYTE   N07  Dn2
 BYTE   W08
 BYTE   N14  Ds2
 BYTE   W16
 BYTE   N06  Dn2
 BYTE   W08
//  #01 //014   ----------------------------------------
 BYTE   N03  Cn2
 BYTE   W08
 BYTE   N04
 BYTE   W08
 BYTE   N04
 BYTE   W08
 BYTE   N22  Ds2
 BYTE   W24
 BYTE   N04  Cn2
 BYTE   W08
 BYTE   N03
 BYTE   W08
 BYTE   N03
 BYTE   W08
 BYTE   N22  Fn2
 BYTE   W24
//  #01 //015   ----------------------------------------
 BYTE   W01
 BYTE   N03  Cn2
 BYTE   W07
 BYTE   N04
 BYTE   W08
 BYTE   N03
 BYTE   W08
 BYTE   N07  Fs2
 BYTE   W08
 BYTE   N06  Fn2
 BYTE   W08
 BYTE   Ds2
 BYTE   W08
 BYTE   Fn2
 BYTE   W08
 BYTE   Ds2
 BYTE   W08
 BYTE   Dn2
 BYTE   W08
 BYTE   Ds2
 BYTE   W08
 BYTE   N07  Dn2
 BYTE   W08
 BYTE   N06  Cn2
 BYTE   W08
//  #01 //016   ----------------------------------------
Label_015F918C:
 BYTE   N44  An1  v127
 BYTE   W48
 BYTE   Bn1
 BYTE   W48
 BYTE   PEND 
//  #01 //017   ----------------------------------------
Label_015F9193:
 BYTE   N44  Cn2  v127
 BYTE   W48
 BYTE   Dn2
 BYTE   W48
 BYTE   PEND 
//  #01 //018   ----------------------------------------
Label_015F919A:
 BYTE   N68  Fn1  v127
 BYTE   W72
 BYTE   N22  Gn1
 BYTE   W24
 BYTE   PEND 
//  #01 //019   ----------------------------------------
Label_015F91A2:
 BYTE   N44  An1  v127
 BYTE   W48
 BYTE   En1
 BYTE   W48
 BYTE   PEND 
//  #01 //020   ----------------------------------------
 BYTE   W01
 BYTE   N05  An1  v124
 BYTE   W07
 BYTE   N07
 BYTE   W08
 BYTE   N06
 BYTE   W08
 BYTE   N07
 BYTE   W08
 BYTE   N06
 BYTE   W08
 BYTE   N07
 BYTE   W08
 BYTE   N06  An1  v100
 BYTE   W08
 BYTE   An1  v112
 BYTE   W08
 BYTE   N06
 BYTE   W08
 BYTE   N07
 BYTE   W08
 BYTE   N06
 BYTE   W08
 BYTE   N07
 BYTE   W08
//  #01 //021   ----------------------------------------
 BYTE   N06  An1  v092
 BYTE   W08
 BYTE   N07
 BYTE   W08
 BYTE   N06
 BYTE   W08
 BYTE   N07
 BYTE   W08
 BYTE   N07
 BYTE   W08
 BYTE   N06
 BYTE   W08
 BYTE   N06
 BYTE   W08
 BYTE   N07
 BYTE   W08
 BYTE   N06
 BYTE   W08
 BYTE   N07
 BYTE   W08
 BYTE   N06
 BYTE   W16
//  #01 //022   ----------------------------------------
 BYTE   PATT
  POIN2 Label_015F918C
//  #01 //023   ----------------------------------------
 BYTE   PATT
  POIN2 Label_015F9193
//  #01 //024   ----------------------------------------
 BYTE   PATT
  POIN2 Label_015F919A
//  #01 //025   ----------------------------------------
 BYTE   PATT
  POIN2 Label_015F91A2
//  #01 //026   ----------------------------------------
 BYTE   N06  An1  v124
 BYTE   W08
 BYTE   N07
 BYTE   W08
 BYTE   N06
 BYTE   W08
 BYTE   N07
 BYTE   W08
 BYTE   N06
 BYTE   W08
 BYTE   N06
 BYTE   W08
 BYTE   An1  v100
 BYTE   W08
 BYTE   An1  v112
 BYTE   W08
 BYTE   N06
 BYTE   W08
 BYTE   N07
 BYTE   W08
 BYTE   N06
 BYTE   W08
 BYTE   N07
 BYTE   W08
//  #01 //027   ----------------------------------------
 BYTE   N06  An1  v092
 BYTE   W08
 BYTE   N07
 BYTE   W08
 BYTE   N06
 BYTE   W08
 BYTE   N07
 BYTE   W08
 BYTE   N06
 BYTE   W08
 BYTE   N06
 BYTE   W08
 BYTE   N06
 BYTE   W08
 BYTE   N06
 BYTE   W08
 BYTE   N06
 BYTE   W08
 BYTE   N07
 BYTE   W08
 BYTE   N06
 BYTE   W16
//  #01 //028   ----------------------------------------
 BYTE   N03  An1  v127
 BYTE   W08
 BYTE   N03
 BYTE   W08
 BYTE   N03
 BYTE   W09
 BYTE   N03
 BYTE   W07
 BYTE   N03
 BYTE   W08
 BYTE   N03
 BYTE   W08
 BYTE   N11
 BYTE   W16
 BYTE   N04
 BYTE   W32
//  #01 //029   ----------------------------------------
 BYTE   N03
 BYTE   W08
 BYTE   N03
 BYTE   W09
 BYTE   N03
 BYTE   W07
 BYTE   N03
 BYTE   W08
 BYTE   N03
 BYTE   W08
 BYTE   N04
 BYTE   W08
 BYTE   N11
 BYTE   W16
 BYTE   N03
 BYTE   W32
//  #01 //030   ----------------------------------------
 BYTE   N03
 BYTE   W08
 BYTE   N03
 BYTE   W08
 BYTE   N03
 BYTE   W08
 BYTE   N04
 BYTE   W08
 BYTE   N03
 BYTE   W08
 BYTE   N04
 BYTE   W08
 BYTE   N11
 BYTE   W16
 BYTE   N03
 BYTE   W32
//  #01 //031   ----------------------------------------
 BYTE   N03
 BYTE   W08
 BYTE   N04
 BYTE   W08
 BYTE   N04
 BYTE   W08
 BYTE   N03
 BYTE   W08
 BYTE   N04
 BYTE   W08
 BYTE   N03
 BYTE   W08
 BYTE   N11
 BYTE   W16
 BYTE   N03
 BYTE   W32
//  #01 //032   ----------------------------------------
 BYTE   N03
 BYTE   W08
 BYTE   N04
 BYTE   W08
 BYTE   N03
 BYTE   W08
 BYTE   N03
 BYTE   W08
 BYTE   N03
 BYTE   W08
 BYTE   N03
 BYTE   W08
 BYTE   N11
 BYTE   W16
 BYTE   N03
 BYTE   W32
//  #01 //033   ----------------------------------------
 BYTE   N03
 BYTE   W08
 BYTE   N03
 BYTE   W08
 BYTE   N03
 BYTE   W08
 BYTE   N03
 BYTE   W09
 BYTE   N03
 BYTE   W07
 BYTE   N03
 BYTE   W08
 BYTE   N11
 BYTE   W16
 BYTE   N03
 BYTE   W32
//  #01 //034   ----------------------------------------
 BYTE   N03
 BYTE   W08
 BYTE   N04
 BYTE   W08
 BYTE   N03
 BYTE   W09
 BYTE   N03
 BYTE   W07
 BYTE   N03
 BYTE   W08
 BYTE   N03
 BYTE   W08
 BYTE   N11
 BYTE   W16
 BYTE   N03
 BYTE   W32
//  #01 //035   ----------------------------------------
 BYTE   N03
 BYTE   W08
 BYTE   N03
 BYTE   W08
 BYTE   N03
 BYTE   W08
 BYTE   N03
 BYTE   W08
 BYTE   N03
 BYTE   W08
 BYTE   N03
 BYTE   W08
 BYTE   N11
 BYTE   W16
 BYTE   N03
 BYTE   W32
//  #01 //036   ----------------------------------------
 BYTE   W01
 BYTE   N44  Gn1
 BYTE   W44
 BYTE   W03
 BYTE   N22  An1
 BYTE   W24
 BYTE   Bn1
 BYTE   W24
//  #01 //037   ----------------------------------------
 BYTE   N92  Cn2
 BYTE   W96
//  #01 //038   ----------------------------------------
 BYTE   N03  Gn1
 BYTE   W16
 BYTE   N03
 BYTE   W08
 BYTE   N03
 BYTE   W08
 BYTE   N03
 BYTE   W08
 BYTE   N03
 BYTE   W08
 BYTE   N03
 BYTE   W08
 BYTE   N04
 BYTE   W08
 BYTE   N04
 BYTE   W08
 BYTE   N03
 BYTE   W08
 BYTE   An1
 BYTE   W08
 BYTE   Bn1
 BYTE   W08
//  #01 //039   ----------------------------------------
 BYTE   Cn2
 BYTE   W16
 BYTE   N03
 BYTE   W08
 BYTE   N03
 BYTE   W08
 BYTE   N03
 BYTE   W08
 BYTE   N04
 BYTE   W08
 BYTE   N03
 BYTE   W08
 BYTE   N04
 BYTE   W08
 BYTE   N03
 BYTE   W08
 BYTE   N03
 BYTE   W08
 BYTE   N03
 BYTE   W08
 BYTE   N03
 BYTE   W08
//  #01 //040   ----------------------------------------
 BYTE   N44  An1
 BYTE   W48
 BYTE   N22  Bn1
 BYTE   W24
 BYTE   Cs2
 BYTE   W24
//  #01 //041   ----------------------------------------
 BYTE   N92  Dn2
 BYTE   W96
//  #01 //042   ----------------------------------------
 BYTE   N03  An1
 BYTE   W16
 BYTE   N03
 BYTE   W08
 BYTE   N04
 BYTE   W08
 BYTE   N04
 BYTE   W08
 BYTE   N04
 BYTE   W08
 BYTE   N03
 BYTE   W08
 BYTE   N04
 BYTE   W08
 BYTE   N03
 BYTE   W08
 BYTE   N03
 BYTE   W08
 BYTE   N03
 BYTE   W08
 BYTE   N03
 BYTE   W08
//  #01 //043   ----------------------------------------
 BYTE   As1
 BYTE   W16
 BYTE   N03
 BYTE   W08
 BYTE   N03
 BYTE   W08
 BYTE   N03
 BYTE   W08
 BYTE   N03
 BYTE   W09
 BYTE   N03
 BYTE   W07
 BYTE   N04
 BYTE   W08
 BYTE   N04
 BYTE   W08
 BYTE   N03
 BYTE   W08
 BYTE   N03
 BYTE   W08
 BYTE   N03
 BYTE   W08
//  #01 //044   ----------------------------------------
Label_015F931B:
 BYTE   N03  Dn2  v127
 BYTE   W16
 BYTE   N03
 BYTE   W08
 BYTE   N03
 BYTE   W16
 BYTE   N03
 BYTE   W08
 BYTE   N03
 BYTE   W16
 BYTE   N03
 BYTE   W08
 BYTE   Cn2
 BYTE   W16
 BYTE   N03
 BYTE   W08
 BYTE   PEND 
//  #01 //045   ----------------------------------------
 BYTE   PATT
  POIN2 Label_015F931B
//  #01 //046   ----------------------------------------
Label_015F9333:
 BYTE   W01
 BYTE   N03  Dn2  v127
 BYTE   W15
 BYTE   N03
 BYTE   W08
 BYTE   N03
 BYTE   W16
 BYTE   N03
 BYTE   W08
 BYTE   N03
 BYTE   W16
 BYTE   N03
 BYTE   W08
 BYTE   Cn2
 BYTE   W16
 BYTE   N03
 BYTE   W08
 BYTE   PEND 
//  #01 //047   ----------------------------------------
 BYTE   Dn2
 BYTE   W16
 BYTE   N03
 BYTE   W08
 BYTE   N03
 BYTE   W16
 BYTE   N03
 BYTE   W08
 BYTE   N03
 BYTE   W16
 BYTE   N04
 BYTE   W08
 BYTE   N03  Cn2
 BYTE   W08
 BYTE   N06  Bn1
 BYTE   W08
 BYTE   As1
 BYTE   W08
//  #01 //048   ----------------------------------------
 BYTE   N03  An1
 BYTE   W16
 BYTE   N03
 BYTE   W08
 BYTE   N03
 BYTE   W16
 BYTE   N03
 BYTE   W09
 BYTE   N03
 BYTE   W15
 BYTE   N03
 BYTE   W08
 BYTE   N03
 BYTE   W16
 BYTE   N03
 BYTE   W08
//  #01 //049   ----------------------------------------
 BYTE   N03
 BYTE   W16
 BYTE   N03
 BYTE   W08
 BYTE   N03
 BYTE   W16
 BYTE   N03
 BYTE   W08
 BYTE   N03
 BYTE   W16
 BYTE   N03
 BYTE   W08
 BYTE   N03
 BYTE   W16
 BYTE   N03
 BYTE   W08
//  #01 //050   ----------------------------------------
 BYTE   W01
 BYTE   N03
 BYTE   W15
 BYTE   N03
 BYTE   W08
 BYTE   N03
 BYTE   W16
 BYTE   N03
 BYTE   W08
 BYTE   N03
 BYTE   W16
 BYTE   N03
 BYTE   W08
 BYTE   N03
 BYTE   W16
 BYTE   N03
 BYTE   W08
//  #01 //051   ----------------------------------------
 BYTE   N22
 BYTE   W24
 BYTE   Bn1
 BYTE   W24
 BYTE   Cn2
 BYTE   W24
 BYTE   Cs2
 BYTE   W24
//  #01 //052   ----------------------------------------
 BYTE   PATT
  POIN2 Label_015F9333
//  #01 //053   ----------------------------------------
 BYTE   N04  Dn2  v127
 BYTE   W16
 BYTE   N04
 BYTE   W08
 BYTE   N03
 BYTE   W16
 BYTE   N03
 BYTE   W08
 BYTE   N03
 BYTE   W16
 BYTE   N03
 BYTE   W08
 BYTE   Cn2
 BYTE   W16
 BYTE   N04
 BYTE   W08
//  #01 //054   ----------------------------------------
 BYTE   N03  Dn2
 BYTE   W16
 BYTE   N03
 BYTE   W08
 BYTE   N03
 BYTE   W16
 BYTE   N03
 BYTE   W09
 BYTE   N03
 BYTE   W15
 BYTE   N03
 BYTE   W08
 BYTE   N04  Cn2
 BYTE   W16
 BYTE   N03
 BYTE   W08
//  #01 //055   ----------------------------------------
 BYTE   Dn2
 BYTE   W16
 BYTE   N03
 BYTE   W08
 BYTE   N03
 BYTE   W16
 BYTE   N04
 BYTE   W08
 BYTE   N03
 BYTE   W16
 BYTE   N03
 BYTE   W08
 BYTE   N04  Cn2
 BYTE   W08
 BYTE   N06  Bn1
 BYTE   W08
 BYTE   As1
 BYTE   W08
//  #01 //056   ----------------------------------------
Label_015F93D2:
 BYTE   N03  An1  v127
 BYTE   W16
 BYTE   N03
 BYTE   W08
 BYTE   N03
 BYTE   W16
 BYTE   N03
 BYTE   W08
 BYTE   N03
 BYTE   W16
 BYTE   N03
 BYTE   W08
 BYTE   N04
 BYTE   W16
 BYTE   N03
 BYTE   W08
 BYTE   PEND 
//  #01 //057   ----------------------------------------
 BYTE   PATT
  POIN2 Label_015F93D2
//  #01 //058   ----------------------------------------
 BYTE   N03  An1  v127
 BYTE   W16
 BYTE   N03
 BYTE   W08
 BYTE   N03
 BYTE   W16
 BYTE   N04
 BYTE   W08
 BYTE   N03
 BYTE   W16
 BYTE   N04
 BYTE   W08
 BYTE   N04
 BYTE   W16
 BYTE   N03
 BYTE   W08
//  #01 //059   ----------------------------------------
 BYTE   N22
 BYTE   W24
 BYTE   Bn1
 BYTE   W24
 BYTE   Cn2
 BYTE   W24
 BYTE   N23  Cs2
 BYTE   W24
//  #01 //060   ----------------------------------------
 BYTE   PATT
  POIN2 Label_015F931B
//  #01 //061   ----------------------------------------
 BYTE   N03  Dn2  v127
 BYTE   W16
 BYTE   N03
 BYTE   W08
 BYTE   N03
 BYTE   W16
 BYTE   N03
 BYTE   W08
 BYTE   N04
 BYTE   W16
 BYTE   N03
 BYTE   W08
 BYTE   Cn2
 BYTE   W16
 BYTE   N03
 BYTE   W08
//  #01 //062   ----------------------------------------
 BYTE   PATT
  POIN2 Label_015F931B
//  #01 //063   ----------------------------------------
 BYTE   N03  Dn2  v127
 BYTE   W16
 BYTE   N03
 BYTE   W08
 BYTE   N04
 BYTE   W16
 BYTE   N03
 BYTE   W08
 BYTE   N03
 BYTE   W16
 BYTE   N03
 BYTE   W08
 BYTE   Cn2
 BYTE   W08
 BYTE   N07  Bn1
 BYTE   W08
 BYTE   N06  As1
 BYTE   W08
//  #01 //064   ----------------------------------------
 BYTE   PATT
  POIN2 Label_015F93D2
//  #01 //065   ----------------------------------------
 BYTE   W01
 BYTE   N03  An1  v127
 BYTE   W15
 BYTE   N03
 BYTE   W08
 BYTE   N03
 BYTE   W16
 BYTE   N03
 BYTE   W08
 BYTE   N03
 BYTE   W16
 BYTE   N04
 BYTE   W08
 BYTE   N03
 BYTE   W16
 BYTE   N03
 BYTE   W08
//  #01 //066   ----------------------------------------
 BYTE   W96
//  #01 //067   ----------------------------------------
 BYTE   W96
//  #01 //068   ----------------------------------------
 BYTE   W01
 BYTE   N02
 BYTE   W07
 BYTE   N04
 BYTE   W08
 BYTE   N04
 BYTE   W08
 BYTE   N18  Cn2
 BYTE   W24
 BYTE   N03  An1
 BYTE   W08
 BYTE   N03
 BYTE   W08
 BYTE   N03
 BYTE   W08
 BYTE   N18  Dn2
 BYTE   W24
//  #01 //069   ----------------------------------------
 BYTE   N04  An1
 BYTE   W08
 BYTE   N04
 BYTE   W08
 BYTE   N04
 BYTE   W08
 BYTE   N07  Ds2
 BYTE   W08
 BYTE   N06  Dn2
 BYTE   W08
 BYTE   Cn2
 BYTE   W08
 BYTE   Dn2
 BYTE   W08
 BYTE   Cn2
 BYTE   W08
 BYTE   Bn1
 BYTE   W08
 BYTE   N14  Cn2
 BYTE   W16
 BYTE   N05  Bn1
 BYTE   W08
//  #01 //070   ----------------------------------------
 BYTE   W01
 BYTE   N03  An1
 BYTE   W07
 BYTE   N04
 BYTE   W08
 BYTE   N03
 BYTE   W08
 BYTE   N19  Cn2
 BYTE   W24
 BYTE   N03  An1
 BYTE   W08
 BYTE   N04
 BYTE   W08
 BYTE   N04
 BYTE   W08
 BYTE   N19  Dn2
 BYTE   W24
//  #01 //071   ----------------------------------------
 BYTE   N03  An1
 BYTE   W08
 BYTE   N03
 BYTE   W08
 BYTE   N03
 BYTE   W08
 BYTE   N06  Ds2
 BYTE   W08
 BYTE   Dn2
 BYTE   W08
 BYTE   N07  Cn2
 BYTE   W08
 BYTE   N06  Dn2
 BYTE   W08
 BYTE   N07  Cn2
 BYTE   W08
 BYTE   Bn1
 BYTE   W08
 BYTE   N14  Cn2
 BYTE   W16
 BYTE   N06  Bn1
 BYTE   W08
//  #01 //072   ----------------------------------------
 BYTE   W01
 BYTE   N03  Cn2
 BYTE   W07
 BYTE   N03
 BYTE   W08
 BYTE   N03
 BYTE   W08
 BYTE   N23  Ds2
 BYTE   W24
 BYTE   N04  Cn2
 BYTE   W08
 BYTE   N03
 BYTE   W08
 BYTE   N03
 BYTE   W08
 BYTE   N22  Fn2
 BYTE   W24
//  #01 //073   ----------------------------------------
 BYTE   PATT
  POIN2 Label_015F9076
//  #01 //074   ----------------------------------------
 BYTE   W01
 BYTE   N03  Cn2  v127
 BYTE   W07
 BYTE   N04
 BYTE   W08
 BYTE   N04
 BYTE   W08
 BYTE   N22  Ds2
 BYTE   W24
 BYTE   N03  Cn2
 BYTE   W08
 BYTE   N03
 BYTE   W08
 BYTE   N03
 BYTE   W08
 BYTE   N23  Fn2
 BYTE   W24
//  #01 //075   ----------------------------------------
 BYTE   GoTo
  POIN2 Label_015F90A9
 BYTE   FINE

//**************** Track 2 (Midi-Chn.1) ****************//

song1B_002:
//  #02 //000   ----------------------------------------
 BYTE   KEYSH   song1B_key+0
 BYTE   VOICE   33
 BYTE   VOL   35*song1B_mvl/mxv
 BYTE   W01
 BYTE   N21  An1  v127
 BYTE   W92
 BYTE   W03
//  #02 //001   ----------------------------------------
 BYTE   W24
 BYTE   N22  En1
 BYTE   W24
 BYTE   W01
 BYTE   Gn1
 BYTE   W23
 BYTE   Gs1
 BYTE   W24
//  #02 //002   ----------------------------------------
Label_015F94FD:
 BYTE   W01
 BYTE   N21  An1  v127
 BYTE   W92
 BYTE   W03
 BYTE   PEND 
//  #02 //003   ----------------------------------------
Label_015F9504:
 BYTE   W48
 BYTE   N06  Gn1  v127
 BYTE   W08
 BYTE   Gs1
 BYTE   W08
 BYTE   An1
 BYTE   W08
 BYTE   N14  Ds2
 BYTE   W16
 BYTE   N06  Dn2
 BYTE   W08
 BYTE   PEND 
//  #02 //004   ----------------------------------------
Label_015F9514:
 BYTE   W01
 BYTE   N21  Cn2  v127
 BYTE   W92
 BYTE   W03
 BYTE   PEND 
//  #02 //005   ----------------------------------------
 BYTE   W24
 BYTE   W01
 BYTE   N22  Gn1
 BYTE   W24
 BYTE   As1
 BYTE   W23
 BYTE   Bn1
 BYTE   W24
//  #02 //006   ----------------------------------------
 BYTE   W01
 BYTE   Cn2
 BYTE   W92
 BYTE   W03
//  #02 //007   ----------------------------------------
Label_015F9528:
 BYTE   W48
 BYTE   W01
 BYTE   N06  Bn1  v127
 BYTE   W07
 BYTE   Cn2
 BYTE   W08
 BYTE   N06
 BYTE   W08
 BYTE   N06
 BYTE   W08
 BYTE   Bn1
 BYTE   W08
 BYTE   As1
 BYTE   W07
 BYTE   BEND   c_v-9
 BYTE   W01
//  #02 //008   ----------------------------------------
 BYTE   W01
 BYTE   BEND   c_v-64
 BYTE   N14  An1
 BYTE   W05
 BYTE   BEND   c_v-56
 BYTE   W01
 BYTE   BEND   c_v-15
 BYTE   W01
 BYTE   BEND   c_v+0
 BYTE   W08
 BYTE   N06
 BYTE   W08
 BYTE   N06
 BYTE   W08
 BYTE   N06
 BYTE   W08
 BYTE   N07
 BYTE   W09
 BYTE   N06
 BYTE   W07
 BYTE   N06
 BYTE   W08
 BYTE   N06
 BYTE   W08
 BYTE   N06
 BYTE   W08
 BYTE   N06
 BYTE   W08
 BYTE   N06
 BYTE   W08
//  #02 //009   ----------------------------------------
 BYTE   W01
 BYTE   BEND   c_v-64
 BYTE   N13
 BYTE   W05
 BYTE   BEND   c_v-56
 BYTE   W01
 BYTE   BEND   c_v-15
 BYTE   W01
 BYTE   BEND   c_v+0
 BYTE   W08
 BYTE   N06
 BYTE   W08
 BYTE   N06
 BYTE   W08
 BYTE   N06
 BYTE   W08
 BYTE   N06
 BYTE   W08
 BYTE   N06
 BYTE   W08
 BYTE   N06
 BYTE   W08
 BYTE   N06
 BYTE   W08
 BYTE   N06
 BYTE   W08
 BYTE   N07
 BYTE   W09
 BYTE   N06
 BYTE   W07
//  #02 //010   ----------------------------------------
 BYTE   W01
 BYTE   BEND   c_v-43
 BYTE   N14
 BYTE   W01
 BYTE   BEND   c_v-64
 BYTE   W04
 BYTE   BEND   c_v-56
 BYTE   W01
 BYTE   BEND   c_v-15
 BYTE   W01
 BYTE   BEND   c_v+0
 BYTE   W08
 BYTE   N06
 BYTE   W08
 BYTE   N06
 BYTE   W08
 BYTE   N06
 BYTE   W08
 BYTE   N07
 BYTE   W09
 BYTE   N05
 BYTE   W08
 BYTE   N06
 BYTE   W08
 BYTE   N06
 BYTE   W08
 BYTE   N06
 BYTE   W07
 BYTE   N06
 BYTE   W08
 BYTE   N07
 BYTE   W08
//  #02 //011   ----------------------------------------
 BYTE   N06  En2
 BYTE   W08
 BYTE   An1
 BYTE   W08
 BYTE   N06
 BYTE   W08
 BYTE   Ds2
 BYTE   W08
 BYTE   An1
 BYTE   W08
 BYTE   N06
 BYTE   W08
 BYTE   N14  Cn2
 BYTE   W15
 BYTE   N07  An1
 BYTE   W10
 BYTE   N06  Gn1
 BYTE   W07
 BYTE   N07  Gs1
 BYTE   W08
 BYTE   N06  An1
 BYTE   W08
//  #02 //012   ----------------------------------------
 BYTE   BEND   c_v-25
 BYTE   N14  Cn2
 BYTE   W01
 BYTE   BEND   c_v-64
 BYTE   W05
 BYTE   BEND   c_v-56
 BYTE   W01
 BYTE   BEND   c_v-15
 BYTE   W01
 BYTE   BEND   c_v+0
 BYTE   W08
 BYTE   N06
 BYTE   W08
 BYTE   N06
 BYTE   W08
 BYTE   N06
 BYTE   W08
 BYTE   N07
 BYTE   W08
 BYTE   N06
 BYTE   W08
 BYTE   N06
 BYTE   W08
 BYTE   N06
 BYTE   W08
 BYTE   N06
 BYTE   W08
 BYTE   N07
 BYTE   W08
 BYTE   N07
 BYTE   W08
//  #02 //013   ----------------------------------------
 BYTE   W01
 BYTE   BEND   c_v-64
 BYTE   N14
 BYTE   W05
 BYTE   BEND   c_v-56
 BYTE   W01
 BYTE   BEND   c_v-15
 BYTE   W01
 BYTE   BEND   c_v+0
 BYTE   W09
 BYTE   N06
 BYTE   W08
 BYTE   N06
 BYTE   W08
 BYTE   N06
 BYTE   W07
 BYTE   N06
 BYTE   W08
 BYTE   N07
 BYTE   W08
 BYTE   N06
 BYTE   W08
 BYTE   N06
 BYTE   W09
 BYTE   N06
 BYTE   W07
 BYTE   N07
 BYTE   W09
 BYTE   N06
 BYTE   W07
//  #02 //014   ----------------------------------------
 BYTE   W01
 BYTE   BEND   c_v-64
 BYTE   N13
 BYTE   W05
 BYTE   BEND   c_v-56
 BYTE   W01
 BYTE   BEND   c_v-15
 BYTE   W01
 BYTE   BEND   c_v+0
 BYTE   W09
 BYTE   N06
 BYTE   W07
 BYTE   N06
 BYTE   W08
 BYTE   N06
 BYTE   W08
 BYTE   N07
 BYTE   W09
 BYTE   N06
 BYTE   W07
 BYTE   N06
 BYTE   W08
 BYTE   N06
 BYTE   W08
 BYTE   N06
 BYTE   W08
 BYTE   N06
 BYTE   W08
 BYTE   N07
 BYTE   W08
//  #02 //015   ----------------------------------------
 BYTE   W01
 BYTE   N05  Gn2
 BYTE   W07
 BYTE   N06  Cn2
 BYTE   W08
 BYTE   N06
 BYTE   W08
 BYTE   Fs2
 BYTE   W08
 BYTE   Fn2
 BYTE   W08
 BYTE   Ds2
 BYTE   W08
 BYTE   N14
 BYTE   W17
 BYTE   N06  Cn2
 BYTE   W08
 BYTE   N06
 BYTE   W07
 BYTE   Bn1
 BYTE   W09
 BYTE   As1
 BYTE   W07
//  #02 //016   ----------------------------------------
Label_015F9635:
 BYTE   N06  An1  v127
 BYTE   W16
 BYTE   N06
 BYTE   W08
 BYTE   Cn2
 BYTE   W08
 BYTE   Dn2
 BYTE   W08
 BYTE   N07  Ds2
 BYTE   W08
 BYTE   N22  En2
 BYTE   W24
 BYTE   N23  Bn1
 BYTE   W24
 BYTE   PEND 
//  #02 //017   ----------------------------------------
Label_015F9649:
 BYTE   W01
 BYTE   N06  Cn2  v127
 BYTE   W15
 BYTE   N06
 BYTE   W08
 BYTE   N06
 BYTE   W08
 BYTE   Bn1
 BYTE   W08
 BYTE   An1
 BYTE   W09
 BYTE   N22  Gn1
 BYTE   W23
 BYTE   En1
 BYTE   W24
 BYTE   PEND 
//  #02 //018   ----------------------------------------
 BYTE   W01
 BYTE   N06  Fn1
 BYTE   W15
 BYTE   N06
 BYTE   W08
 BYTE   N06
 BYTE   W16
 BYTE   N07
 BYTE   W08
 BYTE   N06
 BYTE   W16
 BYTE   N07
 BYTE   W08
 BYTE   N06  Gn1
 BYTE   W16
 BYTE   N07
 BYTE   W08
//  #02 //019   ----------------------------------------
 BYTE   N06  An1
 BYTE   W16
 BYTE   N06
 BYTE   W08
 BYTE   N06
 BYTE   W16
 BYTE   N06
 BYTE   W08
 BYTE   Gs1
 BYTE   W16
 BYTE   N07
 BYTE   W08
 BYTE   N06
 BYTE   W16
 BYTE   N07
 BYTE   W08
//  #02 //020   ----------------------------------------
 BYTE   W01
 BYTE   N05  An1
 BYTE   W15
 BYTE   N06
 BYTE   W08
 BYTE   N06
 BYTE   W16
 BYTE   N06
 BYTE   W08
 BYTE   N06
 BYTE   W16
 BYTE   N06
 BYTE   W08
 BYTE   N06
 BYTE   W16
 BYTE   N06
 BYTE   W08
//  #02 //021   ----------------------------------------
 BYTE   N06
 BYTE   W16
 BYTE   N06
 BYTE   W08
 BYTE   N07
 BYTE   W17
 BYTE   N06
 BYTE   W07
 BYTE   N06
 BYTE   W17
 BYTE   N06
 BYTE   W07
 BYTE   N06
 BYTE   W09
 BYTE   N06
 BYTE   W07
 BYTE   N06
 BYTE   W08
//  #02 //022   ----------------------------------------
 BYTE   PATT
  POIN2 Label_015F9635
//  #02 //023   ----------------------------------------
 BYTE   PATT
  POIN2 Label_015F9649
//  #02 //024   ----------------------------------------
 BYTE   N06  Fn1  v127
 BYTE   W16
 BYTE   N06
 BYTE   W08
 BYTE   N06
 BYTE   W16
 BYTE   N07
 BYTE   W08
 BYTE   N06
 BYTE   W16
 BYTE   N07
 BYTE   W08
 BYTE   N06  Gn1
 BYTE   W16
 BYTE   N07
 BYTE   W08
//  #02 //025   ----------------------------------------
 BYTE   W01
 BYTE   N06  An1
 BYTE   W15
 BYTE   N06
 BYTE   W08
 BYTE   N06
 BYTE   W16
 BYTE   N06
 BYTE   W08
 BYTE   Gs1
 BYTE   W16
 BYTE   N06
 BYTE   W08
 BYTE   N06
 BYTE   W16
 BYTE   N06
 BYTE   W08
//  #02 //026   ----------------------------------------
 BYTE   W01
 BYTE   An1
 BYTE   W15
 BYTE   N06
 BYTE   W08
 BYTE   N06
 BYTE   W16
 BYTE   N06
 BYTE   W08
 BYTE   N06
 BYTE   W17
 BYTE   N06
 BYTE   W07
 BYTE   N06
 BYTE   W16
 BYTE   N06
 BYTE   W08
//  #02 //027   ----------------------------------------
 BYTE   W01
 BYTE   N06
 BYTE   W15
 BYTE   N06
 BYTE   W08
 BYTE   N06
 BYTE   W16
 BYTE   N06
 BYTE   W09
 BYTE   N06
 BYTE   W16
 BYTE   N06
 BYTE   W07
 BYTE   N06
 BYTE   W09
 BYTE   N06
 BYTE   W07
 BYTE   N06
 BYTE   W08
//  #02 //028   ----------------------------------------
 BYTE   N14
 BYTE   W17
 BYTE   N06
 BYTE   W08
 BYTE   N05  En1
 BYTE   W08
 BYTE   N06  Gn1
 BYTE   W08
 BYTE   Gs1
 BYTE   W07
 BYTE   N14  An1
 BYTE   W16
 BYTE   N06
 BYTE   W32
//  #02 //029   ----------------------------------------
 BYTE   W01
 BYTE   N14
 BYTE   W16
 BYTE   N05
 BYTE   W08
 BYTE   N06  En1
 BYTE   W07
 BYTE   Gn1
 BYTE   W08
 BYTE   Gs1
 BYTE   W09
 BYTE   N14  An1
 BYTE   W16
 BYTE   N06
 BYTE   W07
 BYTE   Dn2
 BYTE   W08
 BYTE   Ds2
 BYTE   W08
 BYTE   En2
 BYTE   W08
//  #02 //030   ----------------------------------------
 BYTE   W01
 BYTE   N14  An1
 BYTE   W15
 BYTE   N06
 BYTE   W08
 BYTE   En1
 BYTE   W09
 BYTE   Gn1
 BYTE   W07
 BYTE   Gs1
 BYTE   W09
 BYTE   N14  An1
 BYTE   W16
 BYTE   N06
 BYTE   W30
 BYTE   W01
//  #02 //031   ----------------------------------------
 BYTE   N14
 BYTE   W16
 BYTE   N06
 BYTE   W09
 BYTE   En1
 BYTE   W07
 BYTE   Gn1
 BYTE   W09
 BYTE   Gs1
 BYTE   W08
 BYTE   An1
 BYTE   W16
 BYTE   En1
 BYTE   W15
 BYTE   N14  An1
 BYTE   W16
//  #02 //032   ----------------------------------------
 BYTE   W01
 BYTE   N14
 BYTE   W16
 BYTE   N06
 BYTE   W08
 BYTE   En1
 BYTE   W08
 BYTE   Gn1
 BYTE   W08
 BYTE   N05  Gs1
 BYTE   W08
 BYTE   N14  An1
 BYTE   W16
 BYTE   N06
 BYTE   W30
 BYTE   W01
//  #02 //033   ----------------------------------------
 BYTE   W01
 BYTE   N14
 BYTE   W16
 BYTE   N05
 BYTE   W07
 BYTE   N06  En1
 BYTE   W09
 BYTE   N05  Gn1
 BYTE   W07
 BYTE   N06  Gs1
 BYTE   W09
 BYTE   N14  An1
 BYTE   W15
 BYTE   N06
 BYTE   W08
 BYTE   Dn2
 BYTE   W08
 BYTE   Ds2
 BYTE   W08
 BYTE   En2
 BYTE   W08
//  #02 //034   ----------------------------------------
 BYTE   W01
 BYTE   N14  An1
 BYTE   W16
 BYTE   N06
 BYTE   W08
 BYTE   N05  En1
 BYTE   W07
 BYTE   N06  Gn1
 BYTE   W08
 BYTE   Gs1
 BYTE   W08
 BYTE   N14  An1
 BYTE   W16
 BYTE   N06
 BYTE   W32
//  #02 //035   ----------------------------------------
 BYTE   W01
 BYTE   N14
 BYTE   W16
 BYTE   N06
 BYTE   W07
 BYTE   En1
 BYTE   W08
 BYTE   Gn1
 BYTE   W09
 BYTE   Gs1
 BYTE   W07
 BYTE   An1
 BYTE   W17
 BYTE   N05  En1
 BYTE   W15
 BYTE   N14  An1
 BYTE   W16
//  #02 //036   ----------------------------------------
 BYTE   W01
 BYTE   N05  Gn1
 BYTE   W15
 BYTE   N06
 BYTE   W08
 BYTE   N07
 BYTE   W16
 BYTE   N07
 BYTE   W09
 BYTE   N06
 BYTE   W15
 BYTE   N06
 BYTE   W08
 BYTE   N06
 BYTE   W08
 BYTE   An1
 BYTE   W08
 BYTE   Bn1
 BYTE   W08
//  #02 //037   ----------------------------------------
 BYTE   W01
 BYTE   Cn2
 BYTE   W15
 BYTE   N06
 BYTE   W08
 BYTE   N06
 BYTE   W16
 BYTE   N06
 BYTE   W08
 BYTE   N06
 BYTE   W16
 BYTE   N06
 BYTE   W08
 BYTE   N06
 BYTE   W08
 BYTE   N06
 BYTE   W08
 BYTE   N06
 BYTE   W08
//  #02 //038   ----------------------------------------
 BYTE   W01
 BYTE   Gn1
 BYTE   W15
 BYTE   N06
 BYTE   W08
 BYTE   N06
 BYTE   W16
 BYTE   N06
 BYTE   W09
 BYTE   N06
 BYTE   W15
 BYTE   N06
 BYTE   W09
 BYTE   N06
 BYTE   W08
 BYTE   An1
 BYTE   W07
 BYTE   Bn1
 BYTE   W08
//  #02 //039   ----------------------------------------
 BYTE   W01
 BYTE   Cn2
 BYTE   W15
 BYTE   N06
 BYTE   W09
 BYTE   N06
 BYTE   W15
 BYTE   N06
 BYTE   W08
 BYTE   N06
 BYTE   W17
 BYTE   N06
 BYTE   W07
 BYTE   N06
 BYTE   W09
 BYTE   N06
 BYTE   W07
 BYTE   N06
 BYTE   W08
//  #02 //040   ----------------------------------------
 BYTE   W01
 BYTE   An1
 BYTE   W15
 BYTE   N06
 BYTE   W08
 BYTE   N06
 BYTE   W16
 BYTE   N07
 BYTE   W08
 BYTE   N06
 BYTE   W16
 BYTE   N07
 BYTE   W08
 BYTE   N06
 BYTE   W08
 BYTE   Bn1
 BYTE   W08
 BYTE   Cs2
 BYTE   W08
//  #02 //041   ----------------------------------------
 BYTE   W01
 BYTE   Dn2
 BYTE   W15
 BYTE   N06
 BYTE   W08
 BYTE   N07
 BYTE   W16
 BYTE   N07
 BYTE   W08
 BYTE   N06
 BYTE   W16
 BYTE   N06
 BYTE   W08
 BYTE   N06
 BYTE   W08
 BYTE   N06
 BYTE   W08
 BYTE   N06
 BYTE   W08
//  #02 //042   ----------------------------------------
 BYTE   An1
 BYTE   W16
 BYTE   N06
 BYTE   W08
 BYTE   N06
 BYTE   W16
 BYTE   N06
 BYTE   W09
 BYTE   N06
 BYTE   W15
 BYTE   N06
 BYTE   W09
 BYTE   N06
 BYTE   W15
 BYTE   N06
 BYTE   W08
//  #02 //043   ----------------------------------------
 BYTE   As1
 BYTE   W16
 BYTE   N06
 BYTE   W08
 BYTE   N06
 BYTE   W16
 BYTE   N06
 BYTE   W09
 BYTE   N05
 BYTE   W15
 BYTE   N06
 BYTE   W08
 BYTE   N06
 BYTE   W16
 BYTE   N06
 BYTE   W08
//  #02 //044   ----------------------------------------
 BYTE   Dn2
 BYTE   W17
 BYTE   N06
 BYTE   W08
 BYTE   N06
 BYTE   W16
 BYTE   N05
 BYTE   W07
 BYTE   N06
 BYTE   W17
 BYTE   N06
 BYTE   W08
 BYTE   Cn2
 BYTE   W15
 BYTE   N06
 BYTE   W08
//  #02 //045   ----------------------------------------
 BYTE   W01
 BYTE   Dn2
 BYTE   W16
 BYTE   N05
 BYTE   W08
 BYTE   N06
 BYTE   W16
 BYTE   N06
 BYTE   W08
 BYTE   N06
 BYTE   W16
 BYTE   N06
 BYTE   W08
 BYTE   Cn2
 BYTE   W15
 BYTE   N06
 BYTE   W08
//  #02 //046   ----------------------------------------
 BYTE   W01
 BYTE   N05  Dn2
 BYTE   W16
 BYTE   N06
 BYTE   W07
 BYTE   N06
 BYTE   W17
 BYTE   N06
 BYTE   W08
 BYTE   N06
 BYTE   W16
 BYTE   N06
 BYTE   W08
 BYTE   Cn2
 BYTE   W15
 BYTE   N06
 BYTE   W08
//  #02 //047   ----------------------------------------
 BYTE   Dn2
 BYTE   W16
 BYTE   N06
 BYTE   W08
 BYTE   An1
 BYTE   W08
 BYTE   N07
 BYTE   W08
 BYTE   N06
 BYTE   W09
 BYTE   N14  Cn2
 BYTE   W16
 BYTE   N06
 BYTE   W08
 BYTE   Bn1
 BYTE   W07
 BYTE   An1
 BYTE   W08
 BYTE   Gn1
 BYTE   W08
//  #02 //048   ----------------------------------------
 BYTE   An1
 BYTE   W17
 BYTE   N06
 BYTE   W07
 BYTE   N06
 BYTE   W17
 BYTE   N06
 BYTE   W08
 BYTE   N05
 BYTE   W16
 BYTE   N06
 BYTE   W08
 BYTE   Gn1
 BYTE   W15
 BYTE   N06
 BYTE   W08
//  #02 //049   ----------------------------------------
 BYTE   W01
 BYTE   An1
 BYTE   W15
 BYTE   N06
 BYTE   W08
 BYTE   N06
 BYTE   W17
 BYTE   N05
 BYTE   W07
 BYTE   N06
 BYTE   W16
 BYTE   N06
 BYTE   W09
 BYTE   Gn1
 BYTE   W16
 BYTE   N06
 BYTE   W07
//  #02 //050   ----------------------------------------
 BYTE   W01
 BYTE   An1
 BYTE   W15
 BYTE   N06
 BYTE   W09
 BYTE   N06
 BYTE   W15
 BYTE   N06
 BYTE   W08
 BYTE   N06
 BYTE   W16
 BYTE   N06
 BYTE   W09
 BYTE   Gn1
 BYTE   W15
 BYTE   N06
 BYTE   W08
//  #02 //051   ----------------------------------------
 BYTE   W01
 BYTE   An1
 BYTE   W15
 BYTE   N06
 BYTE   W09
 BYTE   N05
 BYTE   W15
 BYTE   N06
 BYTE   W09
 BYTE   N06
 BYTE   W07
 BYTE   N07  En2
 BYTE   W08
 BYTE   N06  An1
 BYTE   W09
 BYTE   Gn2
 BYTE   W07
 BYTE   Dn2
 BYTE   W08
 BYTE   En2
 BYTE   W08
//  #02 //052   ----------------------------------------
 BYTE   W01
 BYTE   N05  Dn2
 BYTE   W15
 BYTE   N06
 BYTE   W08
 BYTE   N06
 BYTE   W17
 BYTE   N06
 BYTE   W08
 BYTE   N05
 BYTE   W16
 BYTE   N06
 BYTE   W07
 BYTE   Cn2
 BYTE   W16
 BYTE   N06
 BYTE   W08
//  #02 //053   ----------------------------------------
 BYTE   Dn2
 BYTE   W16
 BYTE   N06
 BYTE   W09
 BYTE   N06
 BYTE   W16
 BYTE   N05
 BYTE   W08
 BYTE   N06
 BYTE   W16
 BYTE   N06
 BYTE   W07
 BYTE   Cn2
 BYTE   W16
 BYTE   N06
 BYTE   W08
//  #02 //054   ----------------------------------------
 BYTE   W01
 BYTE   Dn2
 BYTE   W16
 BYTE   N06
 BYTE   W08
 BYTE   N05
 BYTE   W16
 BYTE   N06
 BYTE   W08
 BYTE   N05
 BYTE   W16
 BYTE   N06
 BYTE   W08
 BYTE   Cn2
 BYTE   W16
 BYTE   N06
 BYTE   W07
//  #02 //055   ----------------------------------------
 BYTE   Dn2
 BYTE   W16
 BYTE   N06
 BYTE   W09
 BYTE   An1
 BYTE   W07
 BYTE   N06
 BYTE   W09
 BYTE   N06
 BYTE   W07
 BYTE   N14  Cn2
 BYTE   W16
 BYTE   N06
 BYTE   W08
 BYTE   Bn1
 BYTE   W08
 BYTE   An1
 BYTE   W09
 BYTE   Gn1
 BYTE   W07
//  #02 //056   ----------------------------------------
 BYTE   W01
 BYTE   An1
 BYTE   W16
 BYTE   N06
 BYTE   W07
 BYTE   N06
 BYTE   W17
 BYTE   N06
 BYTE   W08
 BYTE   N06
 BYTE   W15
 BYTE   N06
 BYTE   W08
 BYTE   Gn1
 BYTE   W16
 BYTE   N06
 BYTE   W08
//  #02 //057   ----------------------------------------
 BYTE   W01
 BYTE   An1
 BYTE   W16
 BYTE   N06
 BYTE   W08
 BYTE   N06
 BYTE   W16
 BYTE   N06
 BYTE   W07
 BYTE   N06
 BYTE   W17
 BYTE   N06
 BYTE   W07
 BYTE   Gn1
 BYTE   W17
 BYTE   N06
 BYTE   W07
//  #02 //058   ----------------------------------------
 BYTE   An1
 BYTE   W16
 BYTE   N06
 BYTE   W09
 BYTE   N06
 BYTE   W15
 BYTE   N06
 BYTE   W09
 BYTE   N06
 BYTE   W16
 BYTE   N06
 BYTE   W07
 BYTE   Gn1
 BYTE   W16
 BYTE   N06
 BYTE   W08
//  #02 //059   ----------------------------------------
 BYTE   An1
 BYTE   W16
 BYTE   N07
 BYTE   W08
 BYTE   N06
 BYTE   W16
 BYTE   N06
 BYTE   W09
 BYTE   N06
 BYTE   W07
 BYTE   N07  En2
 BYTE   W08
 BYTE   N06  An1
 BYTE   W08
 BYTE   Gn2
 BYTE   W08
 BYTE   N07  Dn2
 BYTE   W08
 BYTE   N06  En2
 BYTE   W08
//  #02 //060   ----------------------------------------
 BYTE   W01
 BYTE   Dn2
 BYTE   W16
 BYTE   N05
 BYTE   W07
 BYTE   N06
 BYTE   W16
 BYTE   N06
 BYTE   W09
 BYTE   N06
 BYTE   W15
 BYTE   N06
 BYTE   W08
 BYTE   Cn2
 BYTE   W16
 BYTE   N06
 BYTE   W08
//  #02 //061   ----------------------------------------
 BYTE   W01
 BYTE   Dn2
 BYTE   W15
 BYTE   N06
 BYTE   W09
 BYTE   N06
 BYTE   W16
 BYTE   N06
 BYTE   W07
 BYTE   N06
 BYTE   W16
 BYTE   N06
 BYTE   W09
 BYTE   Cn2
 BYTE   W16
 BYTE   N05
 BYTE   W07
//  #02 //062   ----------------------------------------
 BYTE   W01
 BYTE   N06  Dn2
 BYTE   W16
 BYTE   N06
 BYTE   W07
 BYTE   N06
 BYTE   W16
 BYTE   N06
 BYTE   W08
 BYTE   N06
 BYTE   W16
 BYTE   N06
 BYTE   W08
 BYTE   Cn2
 BYTE   W16
 BYTE   N06
 BYTE   W08
//  #02 //063   ----------------------------------------
 BYTE   Dn2
 BYTE   W16
 BYTE   N06
 BYTE   W08
 BYTE   An1
 BYTE   W08
 BYTE   N06
 BYTE   W08
 BYTE   N06
 BYTE   W09
 BYTE   N14  Cn2
 BYTE   W16
 BYTE   N06
 BYTE   W07
 BYTE   Bn1
 BYTE   W08
 BYTE   N07  An1
 BYTE   W08
 BYTE   N06  Gn1
 BYTE   W08
//  #02 //064   ----------------------------------------
 BYTE   An1
 BYTE   W17
 BYTE   N06
 BYTE   W07
 BYTE   N06
 BYTE   W17
 BYTE   N05
 BYTE   W08
 BYTE   N06
 BYTE   W16
 BYTE   N06
 BYTE   W07
 BYTE   N07  Gn1
 BYTE   W16
 BYTE   N06
 BYTE   W08
//  #02 //065   ----------------------------------------
 BYTE   W01
 BYTE   An1
 BYTE   W15
 BYTE   N06
 BYTE   W09
 BYTE   N05
 BYTE   W16
 BYTE   N06
 BYTE   W08
 BYTE   N06
 BYTE   W15
 BYTE   N06
 BYTE   W09
 BYTE   Gn1
 BYTE   W16
 BYTE   N06
 BYTE   W07
//  #02 //066   ----------------------------------------
 BYTE   Cn2
 BYTE   W16
 BYTE   N06
 BYTE   W08
 BYTE   N06
 BYTE   W16
 BYTE   N07
 BYTE   W08
 BYTE   N06
 BYTE   W16
 BYTE   N07
 BYTE   W08
 BYTE   N07
 BYTE   W16
 BYTE   N06
 BYTE   W08
//  #02 //067   ----------------------------------------
 BYTE   Bn1
 BYTE   W16
 BYTE   N06
 BYTE   W08
 BYTE   N07
 BYTE   W16
 BYTE   N06
 BYTE   W08
 BYTE   En2
 BYTE   W16
 BYTE   N06
 BYTE   W08
 BYTE   N06
 BYTE   W08
 BYTE   Dn2
 BYTE   W08
 BYTE   Bn1
 BYTE   W08
//  #02 //068   ----------------------------------------
 BYTE   PATT
  POIN2 Label_015F94FD
//  #02 //069   ----------------------------------------
 BYTE   W24
 BYTE   N22  En1  v127
 BYTE   W24
 BYTE   W01
 BYTE   Gn1
 BYTE   W24
 BYTE   Gs1
 BYTE   W23
//  #02 //070   ----------------------------------------
 BYTE   PATT
  POIN2 Label_015F94FD
//  #02 //071   ----------------------------------------
 BYTE   PATT
  POIN2 Label_015F9504
//  #02 //072   ----------------------------------------
 BYTE   PATT
  POIN2 Label_015F9514
//  #02 //073   ----------------------------------------
 BYTE   W24
 BYTE   W01
 BYTE   N22  Gn1  v127
 BYTE   W23
 BYTE   As1
 BYTE   W24
 BYTE   Bn1
 BYTE   W24
//  #02 //074   ----------------------------------------
 BYTE   W01
 BYTE   N21  Cn2
 BYTE   W22
 BYTE   BEND   c_v+0
 BYTE   W72
 BYTE   W01
//  #02 //075   ----------------------------------------
 BYTE   GoTo
  POIN2 Label_015F9528
 BYTE   FINE

//**************** Track 3 (Midi-Chn.2) ****************//

song1B_003:
//  #03 //000   ----------------------------------------
 BYTE   KEYSH   song1B_key+0
 BYTE   VOICE   48
 BYTE   VOL   39*song1B_mvl/mxv
 BYTE   PAN   c_v+1
 BYTE   W96
//  #03 //001   ----------------------------------------
 BYTE   W96
//  #03 //002   ----------------------------------------
 BYTE   W96
//  #03 //003   ----------------------------------------
 BYTE   W96
//  #03 //004   ----------------------------------------
 BYTE   W96
//  #03 //005   ----------------------------------------
 BYTE   W96
//  #03 //006   ----------------------------------------
 BYTE   W96
//  #03 //007   ----------------------------------------
Label_015F4BBB:
 BYTE   W48
 BYTE   W01
 BYTE   N03  Gn1  v127
 BYTE   N06  An1
 BYTE   W05
 BYTE   N03  Bn1
 BYTE   W03
 BYTE   Cn2
 BYTE   W04
 BYTE   N02  Dn2
 BYTE   W01
 BYTE   N03  En2
 BYTE   W01
 BYTE   Fn2
 BYTE   W03
 BYTE   N04  Gn2
 BYTE   W02
 BYTE   An2
 BYTE   W03
 BYTE   N05  Bn2
 BYTE   W02
 BYTE   N06  Cn3
 BYTE   W09
 BYTE   N03  En3
 BYTE   W02
 BYTE   N05  Fn3
 BYTE   W03
 BYTE   N04  Gn3
 BYTE   W03
 BYTE   N05  An3
 BYTE   W03
 BYTE   N03  Bn3
 BYTE   W03
//  #03 //008   ----------------------------------------
 BYTE   W01
 BYTE   TIE  En3
 BYTE   TIE  An3
 BYTE   W92
 BYTE   W03
//  #03 //009   ----------------------------------------
 BYTE   W44
 BYTE   W02
 BYTE   EOT
 BYTE   En3
 BYTE   W02
 BYTE   N14  Fs3
 BYTE   W16
 BYTE   N14
 BYTE   W16
 BYTE   N15
 BYTE   W15
 BYTE   EOT
 BYTE   An3
 BYTE   W01
//  #03 //010   ----------------------------------------
 BYTE   W01
 BYTE   TIE  An2
 BYTE   TIE  En3
 BYTE   W92
 BYTE   W03
//  #03 //011   ----------------------------------------
 BYTE   W44
 BYTE   W02
 BYTE   EOT
 BYTE   W03
 BYTE   N14  Fs3
 BYTE   W16
 BYTE   N14
 BYTE   W15
 BYTE   N15
 BYTE   W14
 BYTE   EOT
 BYTE   An2
 BYTE   W02
//  #03 //012   ----------------------------------------
Label_015F4C15:
 BYTE   W01
 BYTE   TIE  Cn3  v127
 BYTE   TIE  Gn3
 BYTE   W92
 BYTE   W03
 BYTE   PEND 
//  #03 //013   ----------------------------------------
 BYTE   W44
 BYTE   W02
 BYTE   EOT
 BYTE   W02
 BYTE   N14  An3
 BYTE   W01
 BYTE   Cn4
 BYTE   W16
 BYTE   An3
 BYTE   N14  Cn4
 BYTE   W15
 BYTE   An3
 BYTE   N14  Cn4
 BYTE   W15
 BYTE   EOT
 BYTE   Cn3
 BYTE   W01
//  #03 //014   ----------------------------------------
 BYTE   PATT
  POIN2 Label_015F4C15
//  #03 //015   ----------------------------------------
 BYTE   W44
 BYTE   W02
 BYTE   EOT
 BYTE   Gn3
 BYTE   W03
 BYTE   N14  An3  v127
 BYTE   N14  Cn4
 BYTE   W16
 BYTE   An3
 BYTE   N14  Cn4
 BYTE   W15
 BYTE   N15  An3
 BYTE   W01
 BYTE   N14  Cn4
 BYTE   W14
 BYTE   EOT
 BYTE   Cn3
 BYTE   W01
//  #03 //016   ----------------------------------------
 BYTE   W01
 BYTE   N14  An3
 BYTE   W15
 BYTE   N07  En3
 BYTE   W08
 BYTE   N06  Cn3
 BYTE   W08
 BYTE   En3
 BYTE   W08
 BYTE   N07  An3
 BYTE   W08
 BYTE   N06  Gs3
 BYTE   W08
 BYTE   Bn2
 BYTE   W08
 BYTE   N07  Gs3
 BYTE   W08
 BYTE   N06  Bn3
 BYTE   W08
 BYTE   N07  Gs3
 BYTE   W08
 BYTE   En3
 BYTE   W08
//  #03 //017   ----------------------------------------
 BYTE   W01
 BYTE   N14  Cn4
 BYTE   W16
 BYTE   N06  Gn3
 BYTE   W07
 BYTE   En3
 BYTE   W08
 BYTE   Gn3
 BYTE   W08
 BYTE   Cn4
 BYTE   W09
 BYTE   N05  Bn3
 BYTE   W07
 BYTE   N06  Gn3
 BYTE   W08
 BYTE   Bn3
 BYTE   W08
 BYTE   Dn4
 BYTE   W08
 BYTE   Bn3
 BYTE   W08
 BYTE   N07  Gn3
 BYTE   W08
//  #03 //018   ----------------------------------------
 BYTE   W01
 BYTE   N68  Fn3
 BYTE   TIE  Cn4
 BYTE   W68
 BYTE   W03
 BYTE   N22  En3
 BYTE   W24
//  #03 //019   ----------------------------------------
Label_015F4C94:
 BYTE   W01
 BYTE   N44  Dn3  v127
 BYTE   W44
 BYTE   W02
 BYTE   PEND 
 BYTE   EOT
 BYTE   Cn4
 BYTE   W02
 BYTE   N44  Bn2
 BYTE   N44  Bn3
 BYTE   W44
 BYTE   W03
//  #03 //020   ----------------------------------------
 BYTE   W01
 BYTE   N21  Cn3
 BYTE   N21  Cn4
 BYTE   W92
 BYTE   W03
//  #03 //021   ----------------------------------------
 BYTE   W96
//  #03 //022   ----------------------------------------
 BYTE   N14  An3
 BYTE   W16
 BYTE   N07  En3
 BYTE   W09
 BYTE   N06  Cn3
 BYTE   W07
 BYTE   N07  En3
 BYTE   W08
 BYTE   An3
 BYTE   W08
 BYTE   N06  Gs3
 BYTE   W08
 BYTE   Bn2
 BYTE   W08
 BYTE   N07  Gs3
 BYTE   W08
 BYTE   N06  Bn3
 BYTE   W08
 BYTE   N07  Gs3
 BYTE   W08
 BYTE   En3
 BYTE   W08
//  #03 //023   ----------------------------------------
 BYTE   W01
 BYTE   N13  Cn4
 BYTE   W16
 BYTE   N06  Gn3
 BYTE   W07
 BYTE   En3
 BYTE   W08
 BYTE   Gn3
 BYTE   W08
 BYTE   Cn4
 BYTE   W09
 BYTE   Bn3
 BYTE   W07
 BYTE   Gn3
 BYTE   W08
 BYTE   Bn3
 BYTE   W08
 BYTE   Dn4
 BYTE   W08
 BYTE   Bn3
 BYTE   W08
 BYTE   N07  Gn3
 BYTE   W08
//  #03 //024   ----------------------------------------
 BYTE   W01
 BYTE   N68  Fn3
 BYTE   TIE  Cn4
 BYTE   W68
 BYTE   W03
 BYTE   N22  En3
 BYTE   W01
 BYTE   Gn3
 BYTE   W23
//  #03 //025   ----------------------------------------
 BYTE   PATT
  POIN2 Label_015F4C94
//  #03 //026   ----------------------------------------
 BYTE   EOT
 BYTE   Cn4
 BYTE   W02
 BYTE   N44  Bn2  v127
 BYTE   N44  En3
 BYTE   N44  Bn3
 BYTE   W44
 BYTE   W03
 BYTE   W01
 BYTE   N22  Cn3
 BYTE   N22  Cn4
 BYTE   W92
//  #03 //027   ----------------------------------------
 BYTE   W03
 BYTE   W96
//  #03 //028   ----------------------------------------
 BYTE   W01
 BYTE   N06  An2
 BYTE   W07
 BYTE   Bn2
 BYTE   W09
 BYTE   Cn3
 BYTE   W08
 BYTE   N05  Dn3
 BYTE   W08
 BYTE   N06  Cn3
 BYTE   W08
 BYTE   N05  Bn2
 BYTE   W08
 BYTE   N06  Cn3
 BYTE   W07
 BYTE   Dn3
 BYTE   W09
 BYTE   En3
 BYTE   W07
 BYTE   Fs3
 BYTE   W08
 BYTE   En3
 BYTE   W08
 BYTE   Dn3
 BYTE   W08
//  #03 //029   ----------------------------------------
 BYTE   W01
 BYTE   N05  En3
 BYTE   W08
 BYTE   N06  Dn3
 BYTE   W08
 BYTE   N05  Cn3
 BYTE   W08
 BYTE   N06  Dn3
 BYTE   W08
 BYTE   Cn3
 BYTE   W08
 BYTE   Bn2
 BYTE   W08
 BYTE   Cn3
 BYTE   W07
 BYTE   Bn2
 BYTE   W09
 BYTE   An2
 BYTE   W08
 BYTE   Gs2
 BYTE   W08
 BYTE   Bn2
 BYTE   W08
 BYTE   Dn3
 BYTE   W07
//  #03 //030   ----------------------------------------
 BYTE   W01
 BYTE   N05  An2
 BYTE   W08
 BYTE   N06  Bn2
 BYTE   W08
 BYTE   Cn3
 BYTE   W08
 BYTE   Dn3
 BYTE   W08
 BYTE   Cn3
 BYTE   W08
 BYTE   Bn2
 BYTE   W08
 BYTE   Cn3
 BYTE   W07
 BYTE   Dn3
 BYTE   W09
 BYTE   N05  En3
 BYTE   W08
 BYTE   N06  Fs3
 BYTE   W07
 BYTE   En3
 BYTE   W08
 BYTE   Dn3
 BYTE   W08
//  #03 //031   ----------------------------------------
 BYTE   W01
 BYTE   En3
 BYTE   W07
 BYTE   Cn3
 BYTE   W09
 BYTE   An2
 BYTE   W08
 BYTE   Gn2
 BYTE   W08
 BYTE   Bn2
 BYTE   W08
 BYTE   Dn3
 BYTE   W08
 BYTE   N05  Cn3
 BYTE   W07
 BYTE   N06  An2
 BYTE   W09
 BYTE   Gs2
 BYTE   W08
 BYTE   N22  An2
 BYTE   W23
//  #03 //032   ----------------------------------------
 BYTE   W01
 BYTE   N06
 BYTE   N05  Cn3
 BYTE   W07
 BYTE   N06  Bn2
 BYTE   N06  Dn3
 BYTE   W09
 BYTE   Cn3
 BYTE   N06  En3
 BYTE   W08
 BYTE   Dn3
 BYTE   N06  Fs3
 BYTE   W08
 BYTE   N05  Cn3
 BYTE   N06  En3
 BYTE   W08
 BYTE   N05  Bn2
 BYTE   N05  Dn3
 BYTE   W08
 BYTE   N06  Cn3
 BYTE   N06  En3
 BYTE   W07
 BYTE   Dn3
 BYTE   N06  Fs3
 BYTE   W09
 BYTE   En3
 BYTE   N06  Gn3
 BYTE   W07
 BYTE   Fs3
 BYTE   N06  An3
 BYTE   W08
 BYTE   En3
 BYTE   N06  Gn3
 BYTE   W08
 BYTE   Dn3
 BYTE   N06  Fs3
 BYTE   W08
//  #03 //033   ----------------------------------------
 BYTE   W01
 BYTE   En3
 BYTE   N06  Gn3
 BYTE   W07
 BYTE   Dn3
 BYTE   W01
 BYTE   Fs3
 BYTE   W08
 BYTE   N05  Cn3
 BYTE   N05  En3
 BYTE   W08
 BYTE   N06  Dn3
 BYTE   N06  Fs3
 BYTE   W08
 BYTE   N05  Cn3
 BYTE   N05  En3
 BYTE   W08
 BYTE   N06  Bn2
 BYTE   N06  Dn3
 BYTE   W08
 BYTE   N05  Cn3
 BYTE   N06  En3
 BYTE   W07
 BYTE   N07  Bn2
 BYTE   N06  Dn3
 BYTE   W09
 BYTE   An2
 BYTE   N06  Cn3
 BYTE   W08
 BYTE   Gs2
 BYTE   N06  Bn2
 BYTE   W07
 BYTE   N06
 BYTE   W01
 BYTE   Dn3
 BYTE   W07
 BYTE   N06
 BYTE   W01
 BYTE   Fs3
 BYTE   W07
//  #03 //034   ----------------------------------------
 BYTE   W01
 BYTE   N05  An2
 BYTE   N05  Cn3
 BYTE   W07
 BYTE   N06  Bn2
 BYTE   N06  Dn3
 BYTE   W09
 BYTE   Cn3
 BYTE   N06  En3
 BYTE   W08
 BYTE   N05  Dn3
 BYTE   N05  Fs3
 BYTE   W08
 BYTE   N06  Cn3
 BYTE   N06  En3
 BYTE   W07
 BYTE   Bn2
 BYTE   W01
 BYTE   Dn3
 BYTE   W08
 BYTE   Cn3
 BYTE   N06  En3
 BYTE   W07
 BYTE   Dn3
 BYTE   N06  Fs3
 BYTE   W09
 BYTE   En3
 BYTE   N06  Gn3
 BYTE   W07
 BYTE   Fs3
 BYTE   W01
 BYTE   An3
 BYTE   W07
 BYTE   En3
 BYTE   W01
 BYTE   Gn3
 BYTE   W07
 BYTE   Dn3
 BYTE   W01
 BYTE   Fs3
 BYTE   W07
//  #03 //035   ----------------------------------------
 BYTE   W01
 BYTE   N05  En3
 BYTE   N05  Gn3
 BYTE   W07
 BYTE   N06  Cn3
 BYTE   N06  Fs3
 BYTE   W09
 BYTE   An2
 BYTE   N06  En3
 BYTE   W08
 BYTE   Gn2
 BYTE   N06  Dn3
 BYTE   W08
 BYTE   Bn2
 BYTE   N06  Fs3
 BYTE   W08
 BYTE   Dn3
 BYTE   N05  An3
 BYTE   W08
 BYTE   N06  Cn3
 BYTE   N06  En3
 BYTE   W07
 BYTE   An2
 BYTE   N06  Cn3
 BYTE   W09
 BYTE   N05  Gs2
 BYTE   N05  Bn2
 BYTE   W07
 BYTE   N22  An2
 BYTE   N22  Cn3
 BYTE   W24
//  #03 //036   ----------------------------------------
 BYTE   W01
 BYTE   N44  Bn2
 BYTE   N44  Gn3
 BYTE   W48
 BYTE   N22  Cn3
 BYTE   N22  Gn3
 BYTE   W24
 BYTE   Dn3
 BYTE   N22  Gn3
 BYTE   W23
//  #03 //037   ----------------------------------------
 BYTE   W01
 BYTE   N92  En3
 BYTE   N92  Cn4
 BYTE   W92
 BYTE   W03
//  #03 //038   ----------------------------------------
 BYTE   W01
 BYTE   N22  Dn3
 BYTE   N22  Bn3
 BYTE   W23
 BYTE   Dn3
 BYTE   W01
 BYTE   Bn3
 BYTE   W24
 BYTE   Gn3
 BYTE   N22  Cn4
 BYTE   W24
 BYTE   Fn3
 BYTE   N22  Dn4
 BYTE   W23
//  #03 //039   ----------------------------------------
 BYTE   W01
 BYTE   N92  En3
 BYTE   N92  En4
 BYTE   W92
 BYTE   W03
//  #03 //040   ----------------------------------------
 BYTE   W01
 BYTE   N44  Cs3
 BYTE   N44  En3
 BYTE   W48
 BYTE   N22  Bn2
 BYTE   N22  Fn3
 BYTE   W24
 BYTE   Cs3
 BYTE   N22  Gn3
 BYTE   W23
//  #03 //041   ----------------------------------------
 BYTE   W01
 BYTE   N92  Dn3
 BYTE   N92  An3
 BYTE   W92
 BYTE   W03
//  #03 //042   ----------------------------------------
 BYTE   W01
 BYTE   N22  En3
 BYTE   N22  En4
 BYTE   W24
 BYTE   En3
 BYTE   N22  En4
 BYTE   W24
 BYTE   N21  An3
 BYTE   N22  Fn4
 BYTE   W24
 BYTE   Gn3
 BYTE   N22  Gn4
 BYTE   W23
//  #03 //043   ----------------------------------------
 BYTE   W01
 BYTE   N92  As3
 BYTE   N92  Fn4
 BYTE   W92
 BYTE   W03
//  #03 //044   ----------------------------------------
 BYTE   W01
 BYTE   N06  An3  v092
 BYTE   W16
 BYTE   N05
 BYTE   W08
 BYTE   N22  Gn3
 BYTE   W24
 BYTE   N06  An3
 BYTE   W16
 BYTE   N06
 BYTE   W08
 BYTE   N22  As3
 BYTE   W23
//  #03 //045   ----------------------------------------
Label_015F4EB9:
 BYTE   W01
 BYTE   N05  An3  v092
 BYTE   W16
 BYTE   N06
 BYTE   W08
 BYTE   N06
 BYTE   W16
 BYTE   N06
 BYTE   W08
 BYTE   As3
 BYTE   W16
 BYTE   N06
 BYTE   W08
 BYTE   N22  An3
 BYTE   W23
 BYTE   PEND 
//  #03 //046   ----------------------------------------
 BYTE   W01
 BYTE   N05  Dn3
 BYTE   N05  An3
 BYTE   W16
 BYTE   N06  Dn3
 BYTE   W08
 BYTE   N44
 BYTE   N44  An3
 BYTE   W48
 BYTE   N06  Dn3
 BYTE   N06  Gn3
 BYTE   W07
 BYTE   Dn3
 BYTE   N07  Gn3
 BYTE   W09
 BYTE   N06  Dn3
 BYTE   N06  Gn3
 BYTE   W07
//  #03 //047   ----------------------------------------
Label_015F4EE7:
 BYTE   W01
 BYTE   N92  Fn3  v092
 BYTE   N92  An3
 BYTE   W92
 BYTE   W03
 BYTE   PEND 
//  #03 //048   ----------------------------------------
 BYTE   W01
 BYTE   N06  En3
 BYTE   W16
 BYTE   N06
 BYTE   W08
 BYTE   N22  Dn3
 BYTE   W24
 BYTE   N05  En3
 BYTE   W16
 BYTE   N06
 BYTE   W08
 BYTE   N22  Fn3
 BYTE   W23
//  #03 //049   ----------------------------------------
 BYTE   W01
 BYTE   N05  En3
 BYTE   W16
 BYTE   N06
 BYTE   W08
 BYTE   N06
 BYTE   W16
 BYTE   N06
 BYTE   W08
 BYTE   Fn3
 BYTE   W16
 BYTE   N06
 BYTE   W08
 BYTE   N22  En3
 BYTE   W23
//  #03 //050   ----------------------------------------
 BYTE   W01
 BYTE   N06  An2
 BYTE   N06  En3
 BYTE   W16
 BYTE   An2
 BYTE   N06  Dn3
 BYTE   W08
 BYTE   N44  An2
 BYTE   N44  En3
 BYTE   W48
 BYTE   N06  An2
 BYTE   N06  Dn3
 BYTE   W07
 BYTE   An2
 BYTE   N06  Dn3
 BYTE   W09
 BYTE   An2
 BYTE   N06  Dn3
 BYTE   W07
//  #03 //051   ----------------------------------------
Label_015F4F2E:
 BYTE   W01
 BYTE   N92  An2  v092
 BYTE   N92  En3
 BYTE   W92
 BYTE   W03
 BYTE   PEND 
//  #03 //052   ----------------------------------------
 BYTE   W01
 BYTE   N05  An3
 BYTE   W16
 BYTE   N06
 BYTE   W08
 BYTE   N22  Gn3
 BYTE   W24
 BYTE   N05  An3
 BYTE   W16
 BYTE   N06
 BYTE   W07
 BYTE   N22  As3
 BYTE   W24
//  #03 //053   ----------------------------------------
 BYTE   W01
 BYTE   N06  An3
 BYTE   W16
 BYTE   N06
 BYTE   W08
 BYTE   N06
 BYTE   W16
 BYTE   N06
 BYTE   W08
 BYTE   As3
 BYTE   W16
 BYTE   N06
 BYTE   W08
 BYTE   N22  An3
 BYTE   W23
//  #03 //054   ----------------------------------------
 BYTE   W01
 BYTE   N05  Dn3
 BYTE   N05  An3
 BYTE   W16
 BYTE   N06  Dn3
 BYTE   W08
 BYTE   N44
 BYTE   N44  An3
 BYTE   W48
 BYTE   N06  Dn3
 BYTE   N06  Gn3
 BYTE   W07
 BYTE   Dn3
 BYTE   N06  Gn3
 BYTE   W09
 BYTE   Dn3
 BYTE   N06  Gn3
 BYTE   W07
//  #03 //055   ----------------------------------------
 BYTE   PATT
  POIN2 Label_015F4EE7
//  #03 //056   ----------------------------------------
Label_015F4F78:
 BYTE   W01
 BYTE   N06  En3  v092
 BYTE   W16
 BYTE   N06
 BYTE   W08
 BYTE   N22  Dn3
 BYTE   W24
 BYTE   N06  En3
 BYTE   W16
 BYTE   N06
 BYTE   W07
 BYTE   N22  Fn3
 BYTE   W24
 BYTE   PEND 
//  #03 //057   ----------------------------------------
 BYTE   W01
 BYTE   N06  En3
 BYTE   W16
 BYTE   N06
 BYTE   W08
 BYTE   N06
 BYTE   W16
 BYTE   N06
 BYTE   W08
 BYTE   Fn3
 BYTE   W16
 BYTE   N06
 BYTE   W07
 BYTE   N22  En3
 BYTE   W24
//  #03 //058   ----------------------------------------
 BYTE   W01
 BYTE   N06  An2
 BYTE   N06  En3
 BYTE   W16
 BYTE   An2
 BYTE   N06  Dn3
 BYTE   W08
 BYTE   N44  An2
 BYTE   N44  En3
 BYTE   W48
 BYTE   N06  An2
 BYTE   N06  Dn3
 BYTE   W07
 BYTE   An2
 BYTE   N07  Dn3
 BYTE   W09
 BYTE   N06  An2
 BYTE   N06  Dn3
 BYTE   W07
//  #03 //059   ----------------------------------------
 BYTE   PATT
  POIN2 Label_015F4F2E
//  #03 //060   ----------------------------------------
 BYTE   W01
 BYTE   N06  An3  v092
 BYTE   W16
 BYTE   N06
 BYTE   W08
 BYTE   N22  Gn3
 BYTE   W24
 BYTE   N06  An3
 BYTE   W16
 BYTE   N06
 BYTE   W07
 BYTE   N22  As3
 BYTE   W24
//  #03 //061   ----------------------------------------
 BYTE   PATT
  POIN2 Label_015F4EB9
//  #03 //062   ----------------------------------------
 BYTE   W01
 BYTE   N06  Dn3  v092
 BYTE   N06  An3
 BYTE   W16
 BYTE   Dn3
 BYTE   W08
 BYTE   N44
 BYTE   N44  An3
 BYTE   W44
 BYTE   W03
 BYTE   N06  Gn3
 BYTE   W01
 BYTE   Dn3
 BYTE   W07
 BYTE   N06
 BYTE   N07  Gn3
 BYTE   W09
 BYTE   N06  Dn3
 BYTE   N06  Gn3
 BYTE   W07
//  #03 //063   ----------------------------------------
 BYTE   PATT
  POIN2 Label_015F4EE7
//  #03 //064   ----------------------------------------
 BYTE   PATT
  POIN2 Label_015F4F78
//  #03 //065   ----------------------------------------
 BYTE   W01
 BYTE   N06  En3  v092
 BYTE   W16
 BYTE   N06
 BYTE   W08
 BYTE   N06
 BYTE   W16
 BYTE   N06
 BYTE   W08
 BYTE   Fn3
 BYTE   W16
 BYTE   N06
 BYTE   W08
 BYTE   N22  En3
 BYTE   W23
//  #03 //066   ----------------------------------------
 BYTE   W96
//  #03 //067   ----------------------------------------
 BYTE   W96
//  #03 //068   ----------------------------------------
 BYTE   W02
 BYTE   N92  Cn3
 BYTE   N92  Gn3
 BYTE   W92
 BYTE   W02
//  #03 //069   ----------------------------------------
 BYTE   W96
//  #03 //070   ----------------------------------------
 BYTE   W96
//  #03 //071   ----------------------------------------
 BYTE   W96
//  #03 //072   ----------------------------------------
 BYTE   W96
//  #03 //073   ----------------------------------------
 BYTE   W96
//  #03 //074   ----------------------------------------
 BYTE   W96
//  #03 //075   ----------------------------------------
 BYTE   GoTo
  POIN2 Label_015F4BBB
 BYTE   FINE

//**************** Track 4 (Midi-Chn.3) ****************//

song1B_004:
//  #04 //000   ----------------------------------------
 BYTE   KEYSH   song1B_key+0
 BYTE   VOICE   57
 BYTE   VOL   45*song1B_mvl/mxv
 BYTE   PAN   c_v+0
 BYTE   W96
//  #04 //001   ----------------------------------------
 BYTE   W96
//  #04 //002   ----------------------------------------
 BYTE   W96
//  #04 //003   ----------------------------------------
 BYTE   W96
//  #04 //004   ----------------------------------------
 BYTE   W96
//  #04 //005   ----------------------------------------
 BYTE   W96
//  #04 //006   ----------------------------------------
 BYTE   W96
//  #04 //007   ----------------------------------------
Label_015F43CB:
 BYTE   W96
//  #04 //008   ----------------------------------------
 BYTE   W96
//  #04 //009   ----------------------------------------
 BYTE   W96
//  #04 //010   ----------------------------------------
 BYTE   W96
//  #04 //011   ----------------------------------------
 BYTE   W96
//  #04 //012   ----------------------------------------
 BYTE   W96
//  #04 //013   ----------------------------------------
 BYTE   W96
//  #04 //014   ----------------------------------------
 BYTE   W96
//  #04 //015   ----------------------------------------
 BYTE   W96
//  #04 //016   ----------------------------------------
 BYTE   W96
//  #04 //017   ----------------------------------------
 BYTE   W96
//  #04 //018   ----------------------------------------
 BYTE   W96
//  #04 //019   ----------------------------------------
 BYTE   W96
//  #04 //020   ----------------------------------------
 BYTE   W96
//  #04 //021   ----------------------------------------
 BYTE   W96
//  #04 //022   ----------------------------------------
 BYTE   W96
//  #04 //023   ----------------------------------------
 BYTE   W96
//  #04 //024   ----------------------------------------
 BYTE   W96
//  #04 //025   ----------------------------------------
 BYTE   W96
//  #04 //026   ----------------------------------------
 BYTE   W96
//  #04 //027   ----------------------------------------
 BYTE   W96
//  #04 //028   ----------------------------------------
 BYTE   W96
//  #04 //029   ----------------------------------------
 BYTE   W96
//  #04 //030   ----------------------------------------
 BYTE   W96
//  #04 //031   ----------------------------------------
 BYTE   W96
//  #04 //032   ----------------------------------------
 BYTE   W96
//  #04 //033   ----------------------------------------
 BYTE   W96
//  #04 //034   ----------------------------------------
 BYTE   W96
//  #04 //035   ----------------------------------------
 BYTE   W96
//  #04 //036   ----------------------------------------
 BYTE   W96
//  #04 //037   ----------------------------------------
 BYTE   W96
//  #04 //038   ----------------------------------------
 BYTE   W96
//  #04 //039   ----------------------------------------
 BYTE   W96
//  #04 //040   ----------------------------------------
 BYTE   W96
//  #04 //041   ----------------------------------------
 BYTE   W96
//  #04 //042   ----------------------------------------
 BYTE   W96
//  #04 //043   ----------------------------------------
 BYTE   W96
//  #04 //044   ----------------------------------------
 BYTE   W01
 BYTE   N06  Dn3  v127
 BYTE   W16
 BYTE   N05
 BYTE   W08
 BYTE   N44  An3
 BYTE   W48
 BYTE   N06  Gn3
 BYTE   W07
 BYTE   An3
 BYTE   W09
 BYTE   As3
 BYTE   W07
//  #04 //045   ----------------------------------------
Label_015F4401:
 BYTE   W01
 BYTE   N22  An3  v127
 BYTE   W24
 BYTE   Fn3
 BYTE   W24
 BYTE   Gn3
 BYTE   W24
 BYTE   N05  Fn3
 BYTE   W07
 BYTE   N06  En3
 BYTE   W09
 BYTE   Dn3
 BYTE   W07
 BYTE   PEND 
//  #04 //046   ----------------------------------------
 BYTE   W01
 BYTE   N05  En3
 BYTE   W16
 BYTE   Cn3
 BYTE   W08
 BYTE   N44  Dn3
 BYTE   W48
 BYTE   N05  Cn3
 BYTE   W07
 BYTE   N06  Dn3
 BYTE   W09
 BYTE   N05  En3
 BYTE   W07
//  #04 //047   ----------------------------------------
Label_015F4425:
 BYTE   W01
 BYTE   N92  Dn3  v127
 BYTE   W92
 BYTE   W03
 BYTE   PEND 
//  #04 //048   ----------------------------------------
 BYTE   W01
 BYTE   N06  An2
 BYTE   W16
 BYTE   N05
 BYTE   W08
 BYTE   N44  En3
 BYTE   W48
 BYTE   N06  Dn3
 BYTE   W07
 BYTE   N07  En3
 BYTE   W09
 BYTE   N06  Fn3
 BYTE   W07
//  #04 //049   ----------------------------------------
 BYTE   W01
 BYTE   N21  En3
 BYTE   W24
 BYTE   N22  Cn3
 BYTE   W24
 BYTE   Dn3
 BYTE   W24
 BYTE   N05  Cn3
 BYTE   W07
 BYTE   N07  Bn2
 BYTE   W09
 BYTE   N06  An2
 BYTE   W07
//  #04 //050   ----------------------------------------
 BYTE   W01
 BYTE   N05  Bn2
 BYTE   W16
 BYTE   Gn2
 BYTE   W08
 BYTE   N44  An2
 BYTE   W48
 BYTE   N05  Gn2
 BYTE   W07
 BYTE   N06  An2
 BYTE   W09
 BYTE   N05  Bn2
 BYTE   W07
//  #04 //051   ----------------------------------------
Label_015F4462:
 BYTE   W01
 BYTE   N92  An2  v127
 BYTE   W92
 BYTE   W03
 BYTE   PEND 
//  #04 //052   ----------------------------------------
 BYTE   W02
 BYTE   N05  Dn3
 BYTE   W15
 BYTE   N06
 BYTE   W08
 BYTE   N44  An3
 BYTE   W48
 BYTE   N06  Gn3
 BYTE   W07
 BYTE   N07  An3
 BYTE   W09
 BYTE   N06  As3
 BYTE   W07
//  #04 //053   ----------------------------------------
 BYTE   W01
 BYTE   N22  An3
 BYTE   W24
 BYTE   N21  Fn3
 BYTE   W24
 BYTE   N22  Gn3
 BYTE   W24
 BYTE   N06  Fn3
 BYTE   W07
 BYTE   N07  En3
 BYTE   W09
 BYTE   N06  Dn3
 BYTE   W07
//  #04 //054   ----------------------------------------
 BYTE   W01
 BYTE   N05  En3
 BYTE   W16
 BYTE   N06  Cn3
 BYTE   W08
 BYTE   N44  Dn3
 BYTE   W48
 BYTE   N06  Cn3
 BYTE   W07
 BYTE   Dn3
 BYTE   W09
 BYTE   En3
 BYTE   W07
//  #04 //055   ----------------------------------------
 BYTE   PATT
  POIN2 Label_015F4425
//  #04 //056   ----------------------------------------
Label_015F44A4:
 BYTE   W01
 BYTE   N06  An2  v127
 BYTE   W16
 BYTE   N05
 BYTE   W08
 BYTE   N44  En3
 BYTE   W48
 BYTE   N06  Dn3
 BYTE   W07
 BYTE   En3
 BYTE   W09
 BYTE   Fn3
 BYTE   W07
 BYTE   PEND 
//  #04 //057   ----------------------------------------
 BYTE   W01
 BYTE   N21  En3
 BYTE   W24
 BYTE   N22  Cn3
 BYTE   W24
 BYTE   Dn3
 BYTE   W24
 BYTE   N06  Cn3
 BYTE   W07
 BYTE   Bn2
 BYTE   W09
 BYTE   An2
 BYTE   W07
//  #04 //058   ----------------------------------------
 BYTE   W01
 BYTE   Bn2
 BYTE   W16
 BYTE   Gn2
 BYTE   W08
 BYTE   N44  An2
 BYTE   W48
 BYTE   N06  Gn2
 BYTE   W07
 BYTE   An2
 BYTE   W09
 BYTE   Bn2
 BYTE   W07
//  #04 //059   ----------------------------------------
 BYTE   PATT
  POIN2 Label_015F4462
//  #04 //060   ----------------------------------------
 BYTE   W01
 BYTE   N06  Dn3  v127
 BYTE   W16
 BYTE   N05
 BYTE   W08
 BYTE   N44  An3
 BYTE   W48
 BYTE   N06  Gn3
 BYTE   W07
 BYTE   N07  An3
 BYTE   W09
 BYTE   N06  As3
 BYTE   W07
//  #04 //061   ----------------------------------------
 BYTE   PATT
  POIN2 Label_015F4401
//  #04 //062   ----------------------------------------
 BYTE   W01
 BYTE   N05  En3  v127
 BYTE   W16
 BYTE   Cn3
 BYTE   W08
 BYTE   N44  Dn3
 BYTE   W48
 BYTE   N06  Cn3
 BYTE   W07
 BYTE   Dn3
 BYTE   W09
 BYTE   N05  En3
 BYTE   W07
//  #04 //063   ----------------------------------------
 BYTE   PATT
  POIN2 Label_015F4425
//  #04 //064   ----------------------------------------
 BYTE   PATT
  POIN2 Label_015F44A4
//  #04 //065   ----------------------------------------
 BYTE   W01
 BYTE   N21  En3  v127
 BYTE   W24
 BYTE   N22  Cn3
 BYTE   W24
 BYTE   Dn3
 BYTE   W24
 BYTE   N06  Cn3
 BYTE   W07
 BYTE   N07  Bn2
 BYTE   W09
 BYTE   N06  An2
 BYTE   W07
//  #04 //066   ----------------------------------------
 BYTE   Gn2
 BYTE   W08
 BYTE   Cn3
 BYTE   W08
 BYTE   En3
 BYTE   W08
 BYTE   Gn3
 BYTE   W08
 BYTE   N07  Cn4
 BYTE   W08
 BYTE   N06  En4
 BYTE   W08
 BYTE   Fs4
 BYTE   W08
 BYTE   N07  Dn4
 BYTE   W08
 BYTE   N06  An3
 BYTE   W08
 BYTE   Fs3
 BYTE   W08
 BYTE   Dn3
 BYTE   W08
 BYTE   An2
 BYTE   W08
//  #04 //067   ----------------------------------------
 BYTE   Gn2
 BYTE   W08
 BYTE   Dn3
 BYTE   W08
 BYTE   Gn3
 BYTE   W08
 BYTE   Bn3
 BYTE   W08
 BYTE   N07  Dn4
 BYTE   W08
 BYTE   N06  Gn4
 BYTE   W08
 BYTE   Gs4
 BYTE   W08
 BYTE   En4
 BYTE   W08
 BYTE   Bn3
 BYTE   W08
 BYTE   Gs3
 BYTE   W08
 BYTE   En3
 BYTE   W09
 BYTE   Bn2
 BYTE   W07
//  #04 //068   ----------------------------------------
 BYTE   W02
 BYTE   N04  An2
 BYTE   W06
 BYTE   N07  Cn3
 BYTE   W08
 BYTE   N06  En3
 BYTE   W08
 BYTE   An3
 BYTE   W08
 BYTE   N07  Cn4
 BYTE   W08
 BYTE   En4
 BYTE   W09
 BYTE   N06  An4
 BYTE   W07
 BYTE   En4
 BYTE   W08
 BYTE   Dn4
 BYTE   W09
 BYTE   An3
 BYTE   W07
 BYTE   N07  En3
 BYTE   W08
 BYTE   Dn3
 BYTE   W08
//  #04 //069   ----------------------------------------
 BYTE   N06  An2
 BYTE   W08
 BYTE   Cn3
 BYTE   W08
 BYTE   En3
 BYTE   W09
 BYTE   An3
 BYTE   W07
 BYTE   En3
 BYTE   W08
 BYTE   Cn3
 BYTE   W09
 BYTE   An2
 BYTE   W08
 BYTE   En2  v092
 BYTE   W07
 BYTE   Ds2  v068
 BYTE   W09
 BYTE   Dn2  v044
 BYTE   W07
 BYTE   N07  Cn2  v056
 BYTE   W08
 BYTE   N06  An1
 BYTE   W08
//  #04 //070   ----------------------------------------
 BYTE   W96
//  #04 //071   ----------------------------------------
 BYTE   W96
//  #04 //072   ----------------------------------------
 BYTE   W96
//  #04 //073   ----------------------------------------
 BYTE   W96
//  #04 //074   ----------------------------------------
 BYTE   W96
//  #04 //075   ----------------------------------------
 BYTE   GoTo
  POIN2 Label_015F43CB
 BYTE   FINE

//**************** Track 5 (Midi-Chn.4) ****************//

song1B_005:
//  #05 //000   ----------------------------------------
 BYTE   KEYSH   song1B_key+0
 BYTE   VOICE   4
 BYTE   VOL   33*song1B_mvl/mxv
 BYTE   PAN   c_v-2
 BYTE   W96
//  #05 //001   ----------------------------------------
 BYTE   W96
//  #05 //002   ----------------------------------------
 BYTE   W96
//  #05 //003   ----------------------------------------
 BYTE   W96
//  #05 //004   ----------------------------------------
 BYTE   W96
//  #05 //005   ----------------------------------------
 BYTE   W96
//  #05 //006   ----------------------------------------
 BYTE   W96
//  #05 //007   ----------------------------------------
Label_015F5043:
 BYTE   W96
//  #05 //008   ----------------------------------------
 BYTE   W96
//  #05 //009   ----------------------------------------
 BYTE   W96
//  #05 //010   ----------------------------------------
 BYTE   W96
//  #05 //011   ----------------------------------------
 BYTE   W96
//  #05 //012   ----------------------------------------
 BYTE   W96
//  #05 //013   ----------------------------------------
 BYTE   W96
//  #05 //014   ----------------------------------------
 BYTE   W96
//  #05 //015   ----------------------------------------
 BYTE   W96
//  #05 //016   ----------------------------------------
Label_015F504C:
 BYTE   W01
 BYTE   N06  An3  v127
 BYTE   W07
 BYTE   N07  Cn4
 BYTE   W08
 BYTE   N06  En4
 BYTE   W09
 BYTE   An4
 BYTE   W07
 BYTE   Bn4
 BYTE   W08
 BYTE   Cn5
 BYTE   W09
 BYTE   En3
 BYTE   W07
 BYTE   Gs3
 BYTE   W08
 BYTE   Bn3
 BYTE   W08
 BYTE   En4
 BYTE   W08
 BYTE   Gs4
 BYTE   W08
 BYTE   Bn4
 BYTE   W08
 BYTE   PEND 
//  #05 //017   ----------------------------------------
 BYTE   W01
 BYTE   N05  En3
 BYTE   W07
 BYTE   N07  Gn3
 BYTE   W09
 BYTE   N06  Cn4
 BYTE   W07
 BYTE   En4
 BYTE   W09
 BYTE   Gn4
 BYTE   W07
 BYTE   Cn5
 BYTE   W09
 BYTE   N05  Dn3
 BYTE   W07
 BYTE   N06  Gn3
 BYTE   W09
 BYTE   Bn3
 BYTE   W07
 BYTE   Dn4
 BYTE   W08
 BYTE   Gn4
 BYTE   W08
 BYTE   N07  Bn4
 BYTE   W08
//  #05 //018   ----------------------------------------
 BYTE   W01
 BYTE   N05  Cn5
 BYTE   W07
 BYTE   N06  An4
 BYTE   W08
 BYTE   Fn4
 BYTE   W08
 BYTE   An4
 BYTE   W08
 BYTE   Fn4
 BYTE   W08
 BYTE   N07  Cn4
 BYTE   W08
 BYTE   N06  An4
 BYTE   W08
 BYTE   N07  Fn4
 BYTE   W08
 BYTE   Cn4
 BYTE   W09
 BYTE   N06  Fn4
 BYTE   W07
 BYTE   Cn4
 BYTE   W08
 BYTE   An3
 BYTE   W08
//  #05 //019   ----------------------------------------
 BYTE   W01
 BYTE   N05  An4
 BYTE   W07
 BYTE   N06  Fn4
 BYTE   W09
 BYTE   Cn4
 BYTE   W07
 BYTE   Fn4
 BYTE   W08
 BYTE   Cn4
 BYTE   W08
 BYTE   An3
 BYTE   W09
 BYTE   N05  Gs4
 BYTE   W07
 BYTE   N07  En4
 BYTE   W08
 BYTE   N06  Bn3
 BYTE   W08
 BYTE   En4
 BYTE   W08
 BYTE   Bn3
 BYTE   W08
 BYTE   N07  Gs3
 BYTE   W08
//  #05 //020   ----------------------------------------
 BYTE   W02
 BYTE   N05  Cn3
 BYTE   W06
 BYTE   N07  An2
 BYTE   W09
 BYTE   N06  Cn3
 BYTE   W07
 BYTE   En3
 BYTE   W08
 BYTE   An3
 BYTE   W08
 BYTE   N07  Cn4
 BYTE   W09
 BYTE   N06  En3
 BYTE   W07
 BYTE   An3
 BYTE   W09
 BYTE   En3
 BYTE   W07
 BYTE   An3
 BYTE   W09
 BYTE   Cn4
 BYTE   W07
 BYTE   En4
 BYTE   W08
//  #05 //021   ----------------------------------------
 BYTE   W01
 BYTE   Cn4
 BYTE   W07
 BYTE   En3
 BYTE   W09
 BYTE   An3
 BYTE   W07
 BYTE   N07  Cn4
 BYTE   W08
 BYTE   N06  En4
 BYTE   W09
 BYTE   An4
 BYTE   W08
 BYTE   An3
 BYTE   W07
 BYTE   Cn4
 BYTE   W09
 BYTE   An3
 BYTE   W07
 BYTE   En4
 BYTE   W09
 BYTE   An4
 BYTE   W07
 BYTE   Cn5
 BYTE   W08
//  #05 //022   ----------------------------------------
 BYTE   PATT
  POIN2 Label_015F504C
//  #05 //023   ----------------------------------------
 BYTE   W01
 BYTE   N05  En3  v127
 BYTE   W07
 BYTE   N06  Gn3
 BYTE   W09
 BYTE   Cn4
 BYTE   W07
 BYTE   En4
 BYTE   W09
 BYTE   Gn4
 BYTE   W07
 BYTE   Cn5
 BYTE   W09
 BYTE   Dn3
 BYTE   W07
 BYTE   Gn3
 BYTE   W09
 BYTE   Bn3
 BYTE   W07
 BYTE   Dn4
 BYTE   W08
 BYTE   Gn4
 BYTE   W08
 BYTE   N07  Bn4
 BYTE   W08
//  #05 //024   ----------------------------------------
 BYTE   W01
 BYTE   N05  Cn5
 BYTE   W07
 BYTE   N06  An4
 BYTE   W08
 BYTE   Fn4
 BYTE   W08
 BYTE   An4
 BYTE   W08
 BYTE   Fn4
 BYTE   W08
 BYTE   N07  Cn4
 BYTE   W08
 BYTE   N06  An4
 BYTE   W08
 BYTE   N07  Fn4
 BYTE   W08
 BYTE   Cn4
 BYTE   W09
 BYTE   N05  Fn4
 BYTE   W07
 BYTE   N06  Cn4
 BYTE   W08
 BYTE   An3
 BYTE   W08
//  #05 //025   ----------------------------------------
 BYTE   W01
 BYTE   N05  An4
 BYTE   W07
 BYTE   N06  Fn4
 BYTE   W08
 BYTE   Cn4
 BYTE   W08
 BYTE   Fn4
 BYTE   W08
 BYTE   Cn4
 BYTE   W08
 BYTE   An3
 BYTE   W09
 BYTE   N05  Gs4
 BYTE   W07
 BYTE   N06  En4
 BYTE   W08
 BYTE   Bn3
 BYTE   W08
 BYTE   En4
 BYTE   W08
 BYTE   Bn3
 BYTE   W08
 BYTE   Gs3
 BYTE   W08
//  #05 //026   ----------------------------------------
 BYTE   W01
 BYTE   N05  Cn3
 BYTE   W07
 BYTE   N06  An2
 BYTE   W09
 BYTE   Cn3
 BYTE   W07
 BYTE   En3
 BYTE   W09
 BYTE   An3
 BYTE   W08
 BYTE   Cn4
 BYTE   W08
 BYTE   En3
 BYTE   W07
 BYTE   An3
 BYTE   W09
 BYTE   En3
 BYTE   W07
 BYTE   An3
 BYTE   W08
 BYTE   Cn4
 BYTE   W08
 BYTE   En4
 BYTE   W08
//  #05 //027   ----------------------------------------
 BYTE   W01
 BYTE   Cn4
 BYTE   W07
 BYTE   En3
 BYTE   W09
 BYTE   An3
 BYTE   W07
 BYTE   Cn4
 BYTE   W09
 BYTE   En4
 BYTE   W08
 BYTE   An4
 BYTE   W08
 BYTE   An3
 BYTE   W07
 BYTE   Cn4
 BYTE   W09
 BYTE   An3
 BYTE   W07
 BYTE   En4
 BYTE   W09
 BYTE   An4
 BYTE   W07
 BYTE   Cn5
 BYTE   W08
//  #05 //028   ----------------------------------------
 BYTE   W96
//  #05 //029   ----------------------------------------
 BYTE   W96
//  #05 //030   ----------------------------------------
 BYTE   W96
//  #05 //031   ----------------------------------------
 BYTE   W96
//  #05 //032   ----------------------------------------
 BYTE   W96
//  #05 //033   ----------------------------------------
 BYTE   W96
//  #05 //034   ----------------------------------------
 BYTE   W96
//  #05 //035   ----------------------------------------
 BYTE   W96
//  #05 //036   ----------------------------------------
 BYTE   W02
 BYTE   N05  Dn3
 BYTE   W06
 BYTE   N07  Bn2
 BYTE   W08
 BYTE   N06  Dn3
 BYTE   W08
 BYTE   Gn3
 BYTE   W08
 BYTE   N07  Dn3
 BYTE   W08
 BYTE   Gn3
 BYTE   W09
 BYTE   N05  Bn3
 BYTE   W07
 BYTE   N06  Gn3
 BYTE   W08
 BYTE   N07  Bn3
 BYTE   W09
 BYTE   N05  Dn4
 BYTE   W08
 BYTE   N06  Bn3
 BYTE   W07
 BYTE   Dn4
 BYTE   W08
//  #05 //037   ----------------------------------------
 BYTE   W01
 BYTE   N05  Gn4
 BYTE   W07
 BYTE   N07  En4
 BYTE   W08
 BYTE   N06  Cn4
 BYTE   W08
 BYTE   En4
 BYTE   W08
 BYTE   Cn4
 BYTE   W08
 BYTE   Gn3
 BYTE   W08
 BYTE   Cn4
 BYTE   W08
 BYTE   N07  Gn3
 BYTE   W08
 BYTE   N06  En3
 BYTE   W08
 BYTE   Gn3
 BYTE   W08
 BYTE   En3
 BYTE   W08
 BYTE   Cn3
 BYTE   W08
//  #05 //038   ----------------------------------------
 BYTE   W01
 BYTE   N05  Dn3
 BYTE   W07
 BYTE   N07  Bn2
 BYTE   W09
 BYTE   N06  Dn3
 BYTE   W08
 BYTE   N05  Gn3
 BYTE   W07
 BYTE   N06  Dn3
 BYTE   W09
 BYTE   Gn3
 BYTE   W08
 BYTE   N05  Bn3
 BYTE   W07
 BYTE   N06  Gn3
 BYTE   W08
 BYTE   Bn3
 BYTE   W09
 BYTE   N05  Dn4
 BYTE   W08
 BYTE   N06  Bn3
 BYTE   W08
 BYTE   Dn4
 BYTE   W07
//  #05 //039   ----------------------------------------
 BYTE   W01
 BYTE   N05  Gn4
 BYTE   W07
 BYTE   N06  En4
 BYTE   W09
 BYTE   Cn4
 BYTE   W08
 BYTE   En4
 BYTE   W08
 BYTE   Cn4
 BYTE   W07
 BYTE   Gn3
 BYTE   W09
 BYTE   Cn4
 BYTE   W07
 BYTE   Gn3
 BYTE   W09
 BYTE   En3
 BYTE   W08
 BYTE   Gn3
 BYTE   W08
 BYTE   En3
 BYTE   W08
 BYTE   Cn3
 BYTE   W07
//  #05 //040   ----------------------------------------
 BYTE   W01
 BYTE   N05  En3
 BYTE   W07
 BYTE   N06  Cs3
 BYTE   W08
 BYTE   En3
 BYTE   W08
 BYTE   An3
 BYTE   W08
 BYTE   N07  En3
 BYTE   W08
 BYTE   An3
 BYTE   W09
 BYTE   N05  Cs4
 BYTE   W07
 BYTE   N07  An3
 BYTE   W08
 BYTE   Cs4
 BYTE   W09
 BYTE   N05  En4
 BYTE   W08
 BYTE   N06  Cs4
 BYTE   W07
 BYTE   En4
 BYTE   W08
//  #05 //041   ----------------------------------------
 BYTE   W01
 BYTE   N05  An4
 BYTE   W07
 BYTE   N07  Fn4
 BYTE   W08
 BYTE   N06  Dn4
 BYTE   W08
 BYTE   Fn4
 BYTE   W08
 BYTE   Dn4
 BYTE   W08
 BYTE   An3
 BYTE   W08
 BYTE   Dn4
 BYTE   W08
 BYTE   An3
 BYTE   W08
 BYTE   Fn3
 BYTE   W08
 BYTE   An3
 BYTE   W09
 BYTE   Fn3
 BYTE   W07
 BYTE   Dn3
 BYTE   W08
//  #05 //042   ----------------------------------------
 BYTE   W01
 BYTE   N05  En3
 BYTE   W07
 BYTE   N07  Cs3
 BYTE   W09
 BYTE   N06  En3
 BYTE   W08
 BYTE   An3
 BYTE   W07
 BYTE   En3
 BYTE   W08
 BYTE   An3
 BYTE   W09
 BYTE   N05  Cs4
 BYTE   W07
 BYTE   N06  An3
 BYTE   W09
 BYTE   Cs4
 BYTE   W08
 BYTE   N05  En4
 BYTE   W08
 BYTE   N06  Cs4
 BYTE   W08
 BYTE   En4
 BYTE   W07
//  #05 //043   ----------------------------------------
 BYTE   W01
 BYTE   N05  As4
 BYTE   W07
 BYTE   N07  Fn4
 BYTE   W09
 BYTE   N06  Dn4
 BYTE   W08
 BYTE   Fn4
 BYTE   W08
 BYTE   Dn4
 BYTE   W07
 BYTE   As3
 BYTE   W09
 BYTE   N05  Dn4
 BYTE   W07
 BYTE   N06  As3
 BYTE   W08
 BYTE   Fn3
 BYTE   W09
 BYTE   As3
 BYTE   W08
 BYTE   Fn3
 BYTE   W08
 BYTE   Dn3
 BYTE   W07
//  #05 //044   ----------------------------------------
 BYTE   W96
//  #05 //045   ----------------------------------------
 BYTE   W96
//  #05 //046   ----------------------------------------
 BYTE   W96
//  #05 //047   ----------------------------------------
 BYTE   W96
//  #05 //048   ----------------------------------------
 BYTE   W96
//  #05 //049   ----------------------------------------
 BYTE   W96
//  #05 //050   ----------------------------------------
 BYTE   W96
//  #05 //051   ----------------------------------------
 BYTE   W96
//  #05 //052   ----------------------------------------
 BYTE   W96
//  #05 //053   ----------------------------------------
 BYTE   W96
//  #05 //054   ----------------------------------------
 BYTE   W96
//  #05 //055   ----------------------------------------
 BYTE   W96
//  #05 //056   ----------------------------------------
 BYTE   W96
//  #05 //057   ----------------------------------------
 BYTE   W96
//  #05 //058   ----------------------------------------
 BYTE   W96
//  #05 //059   ----------------------------------------
 BYTE   W96
//  #05 //060   ----------------------------------------
 BYTE   W96
//  #05 //061   ----------------------------------------
 BYTE   W96
//  #05 //062   ----------------------------------------
 BYTE   W96
//  #05 //063   ----------------------------------------
 BYTE   W96
//  #05 //064   ----------------------------------------
 BYTE   W96
//  #05 //065   ----------------------------------------
 BYTE   W96
//  #05 //066   ----------------------------------------
 BYTE   W96
//  #05 //067   ----------------------------------------
 BYTE   W96
//  #05 //068   ----------------------------------------
 BYTE   W96
//  #05 //069   ----------------------------------------
 BYTE   W96
//  #05 //070   ----------------------------------------
 BYTE   W96
//  #05 //071   ----------------------------------------
 BYTE   W96
//  #05 //072   ----------------------------------------
 BYTE   W96
//  #05 //073   ----------------------------------------
 BYTE   W96
//  #05 //074   ----------------------------------------
 BYTE   W96
//  #05 //075   ----------------------------------------
 BYTE   GoTo
  POIN2 Label_015F5043
 BYTE   FINE

//**************** Track 6 (Midi-Chn.5) ****************//

song1B_006:
//  #06 //000   ----------------------------------------
 BYTE   KEYSH   song1B_key+0
 BYTE   VOICE   52
 BYTE   VOL   29*song1B_mvl/mxv
 BYTE   W96
//  #06 //001   ----------------------------------------
 BYTE   W96
//  #06 //002   ----------------------------------------
 BYTE   W96
//  #06 //003   ----------------------------------------
 BYTE   W96
//  #06 //004   ----------------------------------------
 BYTE   W96
//  #06 //005   ----------------------------------------
 BYTE   W96
//  #06 //006   ----------------------------------------
 BYTE   W96
//  #06 //007   ----------------------------------------
Label_015F49A5:
 BYTE   W96
//  #06 //008   ----------------------------------------
 BYTE   W96
//  #06 //009   ----------------------------------------
 BYTE   W96
//  #06 //010   ----------------------------------------
 BYTE   W96
//  #06 //011   ----------------------------------------
 BYTE   W96
//  #06 //012   ----------------------------------------
 BYTE   W96
//  #06 //013   ----------------------------------------
 BYTE   W96
//  #06 //014   ----------------------------------------
 BYTE   W96
//  #06 //015   ----------------------------------------
 BYTE   W96
//  #06 //016   ----------------------------------------
 BYTE   W96
//  #06 //017   ----------------------------------------
 BYTE   W96
//  #06 //018   ----------------------------------------
 BYTE   W96
//  #06 //019   ----------------------------------------
 BYTE   W96
//  #06 //020   ----------------------------------------
 BYTE   W96
//  #06 //021   ----------------------------------------
 BYTE   W96
//  #06 //022   ----------------------------------------
 BYTE   W96
//  #06 //023   ----------------------------------------
 BYTE   W96
//  #06 //024   ----------------------------------------
 BYTE   W96
//  #06 //025   ----------------------------------------
 BYTE   W96
//  #06 //026   ----------------------------------------
 BYTE   W96
//  #06 //027   ----------------------------------------
 BYTE   W96
//  #06 //028   ----------------------------------------
 BYTE   W96
//  #06 //029   ----------------------------------------
 BYTE   W96
//  #06 //030   ----------------------------------------
 BYTE   W96
//  #06 //031   ----------------------------------------
 BYTE   W96
//  #06 //032   ----------------------------------------
 BYTE   W96
//  #06 //033   ----------------------------------------
 BYTE   W96
//  #06 //034   ----------------------------------------
 BYTE   W96
//  #06 //035   ----------------------------------------
 BYTE   W96
//  #06 //036   ----------------------------------------
 BYTE   W96
//  #06 //037   ----------------------------------------
 BYTE   W96
//  #06 //038   ----------------------------------------
 BYTE   W96
//  #06 //039   ----------------------------------------
 BYTE   W96
//  #06 //040   ----------------------------------------
 BYTE   W96
//  #06 //041   ----------------------------------------
 BYTE   W96
//  #06 //042   ----------------------------------------
 BYTE   W96
//  #06 //043   ----------------------------------------
 BYTE   W96
//  #06 //044   ----------------------------------------
 BYTE   W96
//  #06 //045   ----------------------------------------
 BYTE   W96
//  #06 //046   ----------------------------------------
 BYTE   W96
//  #06 //047   ----------------------------------------
 BYTE   W96
//  #06 //048   ----------------------------------------
 BYTE   W96
//  #06 //049   ----------------------------------------
 BYTE   W96
//  #06 //050   ----------------------------------------
 BYTE   W96
//  #06 //051   ----------------------------------------
 BYTE   W96
//  #06 //052   ----------------------------------------
 BYTE   W02
 BYTE   N44  An2  v127
 BYTE   N44  Dn3
 BYTE   W44
 BYTE   W03
 BYTE   Gn2
 BYTE   N44  En3
 BYTE   W44
 BYTE   W03
//  #06 //053   ----------------------------------------
 BYTE   W01
 BYTE   Dn3
 BYTE   N44  Fn3
 BYTE   W48
 BYTE   Cn3
 BYTE   W01
 BYTE   Gn3
 BYTE   W44
 BYTE   W02
//  #06 //054   ----------------------------------------
 BYTE   W02
 BYTE   N05  Fn3
 BYTE   N05  An3
 BYTE   W15
 BYTE   Fn3
 BYTE   W01
 BYTE   Dn3
 BYTE   W08
 BYTE   N44  An3
 BYTE   N44  Cn4
 BYTE   W44
 BYTE   W03
 BYTE   N21  Bn3
 BYTE   W01
 BYTE   Gn3
 BYTE   W22
//  #06 //055   ----------------------------------------
 BYTE   W01
 BYTE   N92  Fn3
 BYTE   N92  An3
 BYTE   W92
 BYTE   W03
//  #06 //056   ----------------------------------------
 BYTE   W01
 BYTE   N44  En2
 BYTE   N44  An2
 BYTE   W48
 BYTE   Dn2
 BYTE   N44  Bn2
 BYTE   W44
 BYTE   W03
//  #06 //057   ----------------------------------------
 BYTE   W01
 BYTE   Cn3
 BYTE   W01
 BYTE   An2
 BYTE   W44
 BYTE   W03
 BYTE   Gn2
 BYTE   N44  Dn3
 BYTE   W44
 BYTE   W03
//  #06 //058   ----------------------------------------
 BYTE   W01
 BYTE   N05  Cn3
 BYTE   N05  En3
 BYTE   W16
 BYTE   An2
 BYTE   N05  Cn3
 BYTE   W08
 BYTE   N44  Gn3
 BYTE   W01
 BYTE   En3
 BYTE   W44
 BYTE   W03
 BYTE   N21  Dn3
 BYTE   N21  Fs3
 BYTE   W23
//  #06 //059   ----------------------------------------
 BYTE   W01
 BYTE   N92  Cn3
 BYTE   N92  En3
 BYTE   W92
 BYTE   W03
//  #06 //060   ----------------------------------------
 BYTE   W01
 BYTE   N44  Dn4
 BYTE   W01
 BYTE   An3
 BYTE   W44
 BYTE   W03
 BYTE   Gn3
 BYTE   N44  En4
 BYTE   W44
 BYTE   W03
//  #06 //061   ----------------------------------------
 BYTE   W01
 BYTE   Dn4
 BYTE   W01
 BYTE   Fn4
 BYTE   W44
 BYTE   W03
 BYTE   Cn4
 BYTE   N44  Gn4
 BYTE   W44
 BYTE   W03
//  #06 //062   ----------------------------------------
 BYTE   W01
 BYTE   N05  Fn4
 BYTE   W01
 BYTE   An4
 BYTE   W15
 BYTE   Dn4
 BYTE   W01
 BYTE   Fn4
 BYTE   W07
 BYTE   N44  An4
 BYTE   N44  Cn5
 BYTE   W48
 BYTE   N21  Gn4
 BYTE   N21  Bn4
 BYTE   W23
//  #06 //063   ----------------------------------------
 BYTE   W01
 BYTE   N92  Fn4
 BYTE   N92  An4
 BYTE   W92
 BYTE   W03
//  #06 //064   ----------------------------------------
 BYTE   W01
 BYTE   N44  En2
 BYTE   W01
 BYTE   An3
 BYTE   W44
 BYTE   W03
 BYTE   Dn2
 BYTE   W01
 BYTE   Bn3
 BYTE   W44
 BYTE   W02
//  #06 //065   ----------------------------------------
 BYTE   W02
 BYTE   An2
 BYTE   N44  Cn4
 BYTE   W48
 BYTE   Gn2
 BYTE   N44  Dn4
 BYTE   W44
 BYTE   W02
//  #06 //066   ----------------------------------------
 BYTE   En4
 BYTE   W01
 BYTE   Gn3
 BYTE   W48
 BYTE   Fs3
 BYTE   N44  Fs4
 BYTE   W44
 BYTE   W03
//  #06 //067   ----------------------------------------
 BYTE   W01
 BYTE   Dn3
 BYTE   N44  Gn4
 BYTE   W48
 BYTE   En3
 BYTE   N44  Gs4
 BYTE   W44
 BYTE   W03
//  #06 //068   ----------------------------------------
 BYTE   W02
 BYTE   N92  An3
 BYTE   W01
 BYTE   An4
 BYTE   W92
 BYTE   W01
//  #06 //069   ----------------------------------------
 BYTE   W96
//  #06 //070   ----------------------------------------
 BYTE   W96
//  #06 //071   ----------------------------------------
 BYTE   W96
//  #06 //072   ----------------------------------------
 BYTE   W96
//  #06 //073   ----------------------------------------
 BYTE   W96
//  #06 //074   ----------------------------------------
 BYTE   W96
//  #06 //075   ----------------------------------------
 BYTE   GoTo
  POIN2 Label_015F49A5
 BYTE   FINE

//**************** Track 7 (Midi-Chn.6) ****************//

song1B_007:
//  #07 //000   ----------------------------------------
 BYTE   KEYSH   song1B_key+0
 BYTE   VOICE   124
 BYTE   VOL   29*song1B_mvl/mxv
 BYTE   N06  Cn1  v127
 BYTE   N06  Dn1
 BYTE   N60  An2
 BYTE   W01
 BYTE   N03  As1
 BYTE   N30  Cs2
 BYTE   W23
 BYTE   N02  As1
 BYTE   W24
 BYTE   N03
 BYTE   W24
 BYTE   N04
 BYTE   W24
//  #07 //001   ----------------------------------------
 BYTE   N03
 BYTE   W24
 BYTE   N04
 BYTE   N04  Bn1
 BYTE   W16
 BYTE   N13  Fn1
 BYTE   W08
 BYTE   N03  An1
 BYTE   N03  As1
 BYTE   W08
 BYTE   N12  Fn1
 BYTE   W16
 BYTE   N14
 BYTE   N04  As1
 BYTE   W16
 BYTE   N14  Fn1
 BYTE   W08
//  #07 //002   ----------------------------------------
 BYTE   N05  Cn1
 BYTE   N05  Dn1
 BYTE   N30  Cs2
 BYTE   N60  An2
 BYTE   W01
 BYTE   N02  As1
 BYTE   W23
 BYTE   N04
 BYTE   W24
 BYTE   N03
 BYTE   W24
 BYTE   N04
 BYTE   W24
//  #07 //003   ----------------------------------------
 BYTE   N02
 BYTE   W24
 BYTE   N04
 BYTE   W24
 BYTE   N05
 BYTE   N32  Cn2
 BYTE   W16
 BYTE   N04  An1
 BYTE   W08
 BYTE   N13  Gn1
 BYTE   N03  As1
 BYTE   W16
 BYTE   N12  Fn1
 BYTE   W08
//  #07 //004   ----------------------------------------
 BYTE   N07  Cn1
 BYTE   N07  Dn1
 BYTE   N30  Cs2
 BYTE   N64  An2
 BYTE   W01
 BYTE   N04  As1
 BYTE   W23
 BYTE   N03
 BYTE   W24
 BYTE   N04
 BYTE   W24
 BYTE   N02
 BYTE   W24
//  #07 //005   ----------------------------------------
 BYTE   N04
 BYTE   W24
 BYTE   N02
 BYTE   N02  Bn1
 BYTE   W16
 BYTE   N14  Fn1
 BYTE   W08
 BYTE   N04  An1
 BYTE   N04  As1
 BYTE   W08
 BYTE   N13  Fn1
 BYTE   W16
 BYTE   N12
 BYTE   N02  As1
 BYTE   W16
 BYTE   N14  Fn1
 BYTE   W08
//  #07 //006   ----------------------------------------
 BYTE   N06  Cn1
 BYTE   N06  Dn1
 BYTE   N03  As1
 BYTE   N30  Cs2
 BYTE   N60  An2
 BYTE   W24
 BYTE   N05  As1
 BYTE   W24
 BYTE   N03
 BYTE   W24
 BYTE   N04
 BYTE   W24
//  #07 //007   ----------------------------------------
Label_015F9AA3:
 BYTE   N03  As1  v127
 BYTE   W24
 BYTE   N04
 BYTE   W24
 BYTE   N02
 BYTE   N03  Bn1
 BYTE   W08
 BYTE   An1
 BYTE   W08
 BYTE   N15  Gn1
 BYTE   W08
 BYTE   N14  Fn1
 BYTE   N04  As1
 BYTE   W08
 BYTE   N06  Dn1
 BYTE   W08
 BYTE   N13  Fn1
 BYTE   W08
//  #07 //008   ----------------------------------------
 BYTE   N05  Cn1
 BYTE   N15  Ds2
 BYTE   W16
 BYTE   N07  Cn1
 BYTE   N15  Ds2
 BYTE   W08
 BYTE   N06  Dn1
 BYTE   W08
 BYTE   Cn1
 BYTE   N16  Ds2
 BYTE   W08
 BYTE   N05  Cn1
 BYTE   W08
 BYTE   N05
 BYTE   N15  Ds2
 BYTE   W08
 BYTE   N07  Dn1
 BYTE   W08
 BYTE   N16  Ds2
 BYTE   W08
 BYTE   N06  Cn1
 BYTE   W08
 BYTE   N16  Ds2
 BYTE   W08
 BYTE   N05  Cn1
 BYTE   W08
//  #07 //009   ----------------------------------------
 BYTE   N07
 BYTE   N15  Ds2
 BYTE   W16
 BYTE   N06  Cn1
 BYTE   N15  Ds2
 BYTE   W08
 BYTE   N06  Dn1
 BYTE   W08
 BYTE   N05  Cn1
 BYTE   N16  Ds2
 BYTE   W08
 BYTE   N05  Cn1
 BYTE   W08
 BYTE   N16  Ds2
 BYTE   W08
 BYTE   N06  Cn1
 BYTE   W08
 BYTE   N30  Ds2
 BYTE   W08
 BYTE   N05  Cn1
 BYTE   W16
 BYTE   N07
 BYTE   N07  Dn1
 BYTE   N32  Cs2
 BYTE   W08
//  #07 //010   ----------------------------------------
 BYTE   N06  Cn1
 BYTE   N15  Ds2
 BYTE   W16
 BYTE   N06  Cn1
 BYTE   N16  Ds2
 BYTE   W08
 BYTE   N05  Dn1
 BYTE   W08
 BYTE   Cn1
 BYTE   N16  Ds2
 BYTE   W08
 BYTE   N07  Cn1
 BYTE   W08
 BYTE   N06
 BYTE   N15  Ds2
 BYTE   W08
 BYTE   N06  Dn1
 BYTE   W08
 BYTE   N16  Ds2
 BYTE   W08
 BYTE   N05  Cn1
 BYTE   W08
 BYTE   N15  Ds2
 BYTE   W08
 BYTE   N07  Cn1
 BYTE   W08
//  #07 //011   ----------------------------------------
 BYTE   N06
 BYTE   N16  Ds2
 BYTE   W16
 BYTE   N06  Cn1
 BYTE   N16  Ds2
 BYTE   W08
 BYTE   N05  Dn1
 BYTE   W08
 BYTE   N07  Cn1
 BYTE   N16  Ds2
 BYTE   W08
 BYTE   N06  Cn1
 BYTE   W08
 BYTE   N06
 BYTE   N16  Ds2
 BYTE   W08
 BYTE   N05  Cn1
 BYTE   W08
 BYTE   N05
 BYTE   N30  Ds2
 BYTE   W08
 BYTE   N04  Cn1
 BYTE   N04  Dn1
 BYTE   N30  Cs2
 BYTE   W16
 BYTE   N06  Cn1
 BYTE   W08
//  #07 //012   ----------------------------------------
 BYTE   N06
 BYTE   N16  Ds2
 BYTE   W16
 BYTE   N05  Cn1
 BYTE   N16  Ds2
 BYTE   W08
 BYTE   N07  Dn1
 BYTE   W08
 BYTE   N06  Cn1
 BYTE   N15  Ds2
 BYTE   W08
 BYTE   N06  Cn1
 BYTE   W08
 BYTE   N06
 BYTE   N16  Ds2
 BYTE   W08
 BYTE   N06  Dn1
 BYTE   W08
 BYTE   N15  Ds2
 BYTE   W08
 BYTE   N07  Cn1
 BYTE   W08
 BYTE   N16  Ds2
 BYTE   W08
 BYTE   N06  Cn1
 BYTE   W08
//  #07 //013   ----------------------------------------
 BYTE   N05
 BYTE   N16  Ds2
 BYTE   W16
 BYTE   N07  Cn1
 BYTE   N16  Ds2
 BYTE   W08
 BYTE   N07  Dn1
 BYTE   W08
 BYTE   N06  Cn1
 BYTE   N15  Ds2
 BYTE   W08
 BYTE   N06  Cn1
 BYTE   W08
 BYTE   N16  Ds2
 BYTE   W08
 BYTE   N04  Cn1
 BYTE   W08
 BYTE   N32  Ds2
 BYTE   W08
 BYTE   N06  Cn1
 BYTE   W16
 BYTE   N05
 BYTE   N05  Dn1
 BYTE   N30  Cs2
 BYTE   W08
//  #07 //014   ----------------------------------------
 BYTE   N05  Cn1
 BYTE   N16  Ds2
 BYTE   W16
 BYTE   N07  Cn1
 BYTE   N15  Ds2
 BYTE   W08
 BYTE   N06  Dn1
 BYTE   W08
 BYTE   Cn1
 BYTE   N16  Ds2
 BYTE   W08
 BYTE   N05  Cn1
 BYTE   W08
 BYTE   N05
 BYTE   N15  Ds2
 BYTE   W08
 BYTE   N07  Dn1
 BYTE   W08
 BYTE   N16  Ds2
 BYTE   W08
 BYTE   N06  Cn1
 BYTE   W08
 BYTE   N16  Ds2
 BYTE   W08
 BYTE   N05  Cn1
 BYTE   W08
//  #07 //015   ----------------------------------------
 BYTE   N06
 BYTE   N15  Ds2
 BYTE   W16
 BYTE   N06  Cn1
 BYTE   N15  Ds2
 BYTE   W08
 BYTE   N06  Dn1
 BYTE   W08
 BYTE   N05  Cn1
 BYTE   N16  Ds2
 BYTE   W08
 BYTE   N05  Cn1
 BYTE   W08
 BYTE   N07
 BYTE   N15  Ds2
 BYTE   W08
 BYTE   N06  Cn1
 BYTE   W08
 BYTE   N06
 BYTE   N30  Ds2
 BYTE   W08
 BYTE   N05  Cn1
 BYTE   N05  Dn1
 BYTE   N30  Cs2
 BYTE   W16
 BYTE   N07  Cn1
 BYTE   W08
//  #07 //016   ----------------------------------------
 BYTE   N07
 BYTE   W16
 BYTE   N06
 BYTE   W08
 BYTE   N05  Dn1
 BYTE   N30  Cs2
 BYTE   W24
 BYTE   N06  Cn1
 BYTE   W08
 BYTE   Dn1
 BYTE   W08
 BYTE   N05
 BYTE   W08
 BYTE   N05
 BYTE   W08
 BYTE   N04  An1
 BYTE   W08
 BYTE   N08  Gn1
 BYTE   W08
//  #07 //017   ----------------------------------------
 BYTE   N06  Cn1
 BYTE   N07  Gn1
 BYTE   N16  Ds2
 BYTE   W08
 BYTE   N13  Gn1
 BYTE   W08
 BYTE   N05  Cn1
 BYTE   N03  An1
 BYTE   N16  Ds2
 BYTE   W08
 BYTE   N05  Dn1
 BYTE   W08
 BYTE   N06  Cn1
 BYTE   N16  Ds2
 BYTE   W08
 BYTE   N06  Cn1
 BYTE   W08
 BYTE   N06
 BYTE   N03  Bn1
 BYTE   N15  Ds2
 BYTE   W08
 BYTE   N06  Cn1
 BYTE   N03  An1
 BYTE   W08
 BYTE   N05  Cn1
 BYTE   N13  Gn1
 BYTE   N16  Ds2
 BYTE   W08
 BYTE   N07  Dn1
 BYTE   N32  Cs2
 BYTE   W08
 BYTE   Ds2
 BYTE   W16
//  #07 //018   ----------------------------------------
 BYTE   N05  Cn1
 BYTE   N13  Gn1
 BYTE   W16
 BYTE   N05  Cn1
 BYTE   N08  Gn1
 BYTE   W08
 BYTE   N06  Cn1
 BYTE   N08  Gn1
 BYTE   W08
 BYTE   N06  Cn1
 BYTE   N14  Gn1
 BYTE   W16
 BYTE   N06  Cn1
 BYTE   N13  Fn1
 BYTE   W08
 BYTE   N02  An1
 BYTE   W08
 BYTE   N07  Cn1
 BYTE   W08
 BYTE   N14  Gn1
 BYTE   W08
 BYTE   N06  Cn1
 BYTE   W08
 BYTE   N13  Fn1
 BYTE   W08
//  #07 //019   ----------------------------------------
 BYTE   N05  Cn1
 BYTE   N13  Gn1
 BYTE   W16
 BYTE   N06  Cn1
 BYTE   N07  Gn1
 BYTE   W08
 BYTE   N06  Cn1
 BYTE   N14  Gn1
 BYTE   W08
 BYTE   N06  Cn1
 BYTE   N07  Fn1
 BYTE   W08
 BYTE   N06  Cn1
 BYTE   N08  Fn1
 BYTE   W08
 BYTE   N13
 BYTE   W08
 BYTE   N05  Bn1
 BYTE   W08
 BYTE   N07  Cn1
 BYTE   W08
 BYTE   N14  Gn1
 BYTE   W08
 BYTE   N06  Cn1
 BYTE   W08
 BYTE   N05
 BYTE   N05  Dn1
 BYTE   W08
//  #07 //020   ----------------------------------------
 BYTE   N30  Cs2
 BYTE   N15  Ds2
 BYTE   W01
 BYTE   N04  Cn1
 BYTE   W15
 BYTE   N07
 BYTE   N16  Ds2
 BYTE   W08
 BYTE   N06  Dn1
 BYTE   W08
 BYTE   N05  Cn1
 BYTE   N15  Ds2
 BYTE   W08
 BYTE   N05  Cn1
 BYTE   W08
 BYTE   N07
 BYTE   N15  Ds2
 BYTE   W16
 BYTE   N06  Cn1
 BYTE   N16  Ds2
 BYTE   W08
 BYTE   N06  Dn1
 BYTE   W08
 BYTE   N05  Cn1
 BYTE   N15  Ds2
 BYTE   W08
 BYTE   N05  Cn1
 BYTE   W08
//  #07 //021   ----------------------------------------
 BYTE   N07
 BYTE   N16  Ds2
 BYTE   W16
 BYTE   N06  Cn1
 BYTE   N16  Ds2
 BYTE   W08
 BYTE   N05  Dn1
 BYTE   W08
 BYTE   Cn1
 BYTE   N16  Ds2
 BYTE   W08
 BYTE   N07  Cn1
 BYTE   W08
 BYTE   N06
 BYTE   N16  Ds2
 BYTE   W08
 BYTE   N06  Dn1
 BYTE   W08
 BYTE   Cn1
 BYTE   N06  Dn1
 BYTE   N16  Ds2
 BYTE   W08
 BYTE   N05  Dn1
 BYTE   W08
 BYTE   Cn1
 BYTE   N05  Dn1
 BYTE   N30  Ds2
 BYTE   W08
 BYTE   N07  Cn1
 BYTE   N07  Dn1
 BYTE   W08
//  #07 //022   ----------------------------------------
 BYTE   N06  Cn1
 BYTE   W16
 BYTE   N06
 BYTE   W08
 BYTE   N05  Dn1
 BYTE   N30  Cs2
 BYTE   W24
 BYTE   N06  Cn1
 BYTE   W08
 BYTE   Dn1
 BYTE   W08
 BYTE   N06
 BYTE   W08
 BYTE   N05
 BYTE   W08
 BYTE   N04  An1
 BYTE   W08
 BYTE   N08  Gn1
 BYTE   W08
//  #07 //023   ----------------------------------------
 BYTE   N06  Cn1
 BYTE   N08  Gn1
 BYTE   N15  Ds2
 BYTE   W08
 BYTE   N13  Gn1
 BYTE   W08
 BYTE   N05  Cn1
 BYTE   N02  An1
 BYTE   N15  Ds2
 BYTE   W08
 BYTE   N07  Dn1
 BYTE   W08
 BYTE   N06  Cn1
 BYTE   N15  Ds2
 BYTE   W08
 BYTE   N06  Cn1
 BYTE   W08
 BYTE   N06
 BYTE   N03  Bn1
 BYTE   N16  Ds2
 BYTE   W08
 BYTE   N06  Cn1
 BYTE   N03  An1
 BYTE   W08
 BYTE   N04  Cn1
 BYTE   N12  Gn1
 BYTE   N16  Ds2
 BYTE   W08
 BYTE   N07  Dn1
 BYTE   N32  Cs2
 BYTE   W08
 BYTE   Ds2
 BYTE   W16
//  #07 //024   ----------------------------------------
 BYTE   N05  Cn1
 BYTE   N13  Gn1
 BYTE   W16
 BYTE   N07  Cn1
 BYTE   N08  Gn1
 BYTE   W08
 BYTE   N06  Cn1
 BYTE   N08  Gn1
 BYTE   W08
 BYTE   N06  Cn1
 BYTE   N14  Gn1
 BYTE   W16
 BYTE   N06  Cn1
 BYTE   N13  Fn1
 BYTE   W08
 BYTE   N02  An1
 BYTE   W08
 BYTE   N07  Cn1
 BYTE   W08
 BYTE   N14  Gn1
 BYTE   W08
 BYTE   N06  Cn1
 BYTE   W08
 BYTE   N13  Fn1
 BYTE   W08
//  #07 //025   ----------------------------------------
 BYTE   N05  Cn1
 BYTE   N13  Gn1
 BYTE   W16
 BYTE   N07  Cn1
 BYTE   N08  Gn1
 BYTE   W08
 BYTE   N06  Cn1
 BYTE   N14  Gn1
 BYTE   W08
 BYTE   N06  Cn1
 BYTE   N08  Fn1
 BYTE   W08
 BYTE   N05  Cn1
 BYTE   N08  Fn1
 BYTE   W08
 BYTE   N12
 BYTE   W08
 BYTE   N04  Bn1
 BYTE   W08
 BYTE   N06  Cn1
 BYTE   W08
 BYTE   N14  Gn1
 BYTE   W08
 BYTE   N06  Cn1
 BYTE   W08
 BYTE   N05
 BYTE   N05  Dn1
 BYTE   W08
//  #07 //026   ----------------------------------------
 BYTE   N04  Cn1
 BYTE   N30  Cs2
 BYTE   N16  Ds2
 BYTE   W16
 BYTE   N06  Cn1
 BYTE   N16  Ds2
 BYTE   W08
 BYTE   N06  Dn1
 BYTE   W08
 BYTE   N05  Cn1
 BYTE   N15  Ds2
 BYTE   W08
 BYTE   N05  Cn1
 BYTE   W08
 BYTE   N07
 BYTE   N15  Ds2
 BYTE   W16
 BYTE   N06  Cn1
 BYTE   N15  Ds2
 BYTE   W08
 BYTE   N06  Dn1
 BYTE   W08
 BYTE   N05  Cn1
 BYTE   N16  Ds2
 BYTE   W08
 BYTE   N05  Cn1
 BYTE   W08
//  #07 //027   ----------------------------------------
 BYTE   N06
 BYTE   N16  Ds2
 BYTE   W16
 BYTE   N06  Cn1
 BYTE   N16  Ds2
 BYTE   W08
 BYTE   N05  Dn1
 BYTE   W08
 BYTE   Cn1
 BYTE   N16  Ds2
 BYTE   W08
 BYTE   N07  Cn1
 BYTE   W08
 BYTE   N06
 BYTE   N16  Ds2
 BYTE   W08
 BYTE   N06  Dn1
 BYTE   W08
 BYTE   Cn1
 BYTE   N06  Dn1
 BYTE   N16  Ds2
 BYTE   W08
 BYTE   N05  Dn1
 BYTE   W08
 BYTE   Cn1
 BYTE   N05  Dn1
 BYTE   N28  Ds2
 BYTE   W08
 BYTE   N07  Cn1
 BYTE   N07  Dn1
 BYTE   W08
//  #07 //028   ----------------------------------------
 BYTE   N06  Cn1
 BYTE   N07  Fs1
 BYTE   W08
 BYTE   N08
 BYTE   W08
 BYTE   N05  Cn1
 BYTE   N08  Fs1
 BYTE   W08
 BYTE   N05  Dn1
 BYTE   N12  Fs1
 BYTE   W08
 BYTE   N07  Cn1
 BYTE   N05  As1
 BYTE   W08
 BYTE   N06  Cn1
 BYTE   N07  Fs1
 BYTE   W08
 BYTE   N06  Cn1
 BYTE   N08  Fs1
 BYTE   W08
 BYTE   N08
 BYTE   W08
 BYTE   N05  Cn1
 BYTE   N08  Fs1
 BYTE   W08
 BYTE   N04  Dn1
 BYTE   N07  Fs1
 BYTE   W08
 BYTE   Cn1
 BYTE   N07  Fs1
 BYTE   W08
 BYTE   N06  Cn1
 BYTE   N08  Fs1
 BYTE   W08
//  #07 //029   ----------------------------------------
 BYTE   N06  Cn1
 BYTE   N08  Fs1
 BYTE   W08
 BYTE   N08
 BYTE   W08
 BYTE   N05  Cn1
 BYTE   N07  Fs1
 BYTE   W08
 BYTE   Dn1
 BYTE   N14  Fs1
 BYTE   W08
 BYTE   N06  Cn1
 BYTE   N04  As1
 BYTE   W08
 BYTE   N06  Cn1
 BYTE   N08  Fs1
 BYTE   W08
 BYTE   N05  Cn1
 BYTE   N07  Fs1
 BYTE   W08
 BYTE   N08
 BYTE   W08
 BYTE   N05  Cn1
 BYTE   N08  Fs1
 BYTE   W08
 BYTE   N07  Dn1
 BYTE   N07  Fs1
 BYTE   W08
 BYTE   N06  Cn1
 BYTE   N07  Fs1
 BYTE   W08
 BYTE   N06  Cn1
 BYTE   N07  Fs1
 BYTE   W08
//  #07 //030   ----------------------------------------
 BYTE   N05  Cn1
 BYTE   N08  Fs1
 BYTE   W08
 BYTE   N07
 BYTE   W08
 BYTE   Cn1
 BYTE   N08  Fs1
 BYTE   W08
 BYTE   N07  Dn1
 BYTE   N14  Fs1
 BYTE   W08
 BYTE   N06  Cn1
 BYTE   N03  As1
 BYTE   W08
 BYTE   N06  Cn1
 BYTE   N08  Fs1
 BYTE   W08
 BYTE   N05  Cn1
 BYTE   N07  Fs1
 BYTE   W08
 BYTE   N08
 BYTE   W08
 BYTE   N07  Cn1
 BYTE   N08  Fs1
 BYTE   W08
 BYTE   N06  Dn1
 BYTE   N07  Fs1
 BYTE   W08
 BYTE   N06  Cn1
 BYTE   N08  Fs1
 BYTE   W08
 BYTE   N05  Cn1
 BYTE   N07  Fs1
 BYTE   W08
//  #07 //031   ----------------------------------------
 BYTE   N05  Cn1
 BYTE   N07  Fs1
 BYTE   W08
 BYTE   N08
 BYTE   W08
 BYTE   N07  Cn1
 BYTE   N08  Fs1
 BYTE   W08
 BYTE   N06  Dn1
 BYTE   N14  Fs1
 BYTE   W08
 BYTE   N06  Cn1
 BYTE   N03  As1
 BYTE   W08
 BYTE   N05  Cn1
 BYTE   N08  Fs1
 BYTE   W08
 BYTE   N05  Cn1
 BYTE   N08  Fs1
 BYTE   W08
 BYTE   N08
 BYTE   W08
 BYTE   N06  Cn1
 BYTE   N08  Fs1
 BYTE   W08
 BYTE   N06  Dn1
 BYTE   N07  Fs1
 BYTE   W08
 BYTE   N05  Cn1
 BYTE   N07  Fs1
 BYTE   W08
 BYTE   N05  Cn1
 BYTE   N08  Fs1
 BYTE   W08
//  #07 //032   ----------------------------------------
 BYTE   N07  Cn1
 BYTE   N07  Fs1
 BYTE   N32  Cs2
 BYTE   W08
 BYTE   N08  Fs1
 BYTE   W08
 BYTE   N06  Cn1
 BYTE   N08  Fs1
 BYTE   W08
 BYTE   N06  Dn1
 BYTE   N13  Fs1
 BYTE   W08
 BYTE   N05  Cn1
 BYTE   N03  As1
 BYTE   W08
 BYTE   N04  Cn1
 BYTE   N07  Fs1
 BYTE   W08
 BYTE   Cn1
 BYTE   N07  Fs1
 BYTE   W08
 BYTE   N08
 BYTE   W08
 BYTE   N06  Cn1
 BYTE   N07  Fs1
 BYTE   W08
 BYTE   N05  Dn1
 BYTE   N08  Fs1
 BYTE   W08
 BYTE   N05  Cn1
 BYTE   N07  Fs1
 BYTE   W08
 BYTE   Cn1
 BYTE   N07  Fs1
 BYTE   W08
//  #07 //033   ----------------------------------------
 BYTE   Cn1
 BYTE   N07  Fs1
 BYTE   W08
 BYTE   N08
 BYTE   W08
 BYTE   N05  Cn1
 BYTE   N07  Fs1
 BYTE   W08
 BYTE   N05  Dn1
 BYTE   N12  Fs1
 BYTE   W08
 BYTE   N04  Cn1
 BYTE   N02  As1
 BYTE   W08
 BYTE   N07  Cn1
 BYTE   N08  Fs1
 BYTE   W08
 BYTE   N06  Cn1
 BYTE   N07  Fs1
 BYTE   W08
 BYTE   N08
 BYTE   W08
 BYTE   N06  Cn1
 BYTE   N08  Fs1
 BYTE   W08
 BYTE   N05  Dn1
 BYTE   N07  Fs1
 BYTE   W08
 BYTE   Cn1
 BYTE   N08  Fs1
 BYTE   W08
 BYTE   N07  Cn1
 BYTE   N08  Fs1
 BYTE   W08
//  #07 //034   ----------------------------------------
 BYTE   N06  Cn1
 BYTE   N07  Fs1
 BYTE   W08
 BYTE   N08
 BYTE   W08
 BYTE   N05  Cn1
 BYTE   N08  Fs1
 BYTE   W08
 BYTE   N04  Dn1
 BYTE   N12  Fs1
 BYTE   W08
 BYTE   N06  Cn1
 BYTE   N04  As1
 BYTE   W08
 BYTE   N07  Cn1
 BYTE   N08  Fs1
 BYTE   W08
 BYTE   N06  Cn1
 BYTE   N07  Fs1
 BYTE   W08
 BYTE   N08
 BYTE   W08
 BYTE   N05  Cn1
 BYTE   N08  Fs1
 BYTE   W08
 BYTE   N07  Dn1
 BYTE   N07  Fs1
 BYTE   W08
 BYTE   Cn1
 BYTE   N07  Fs1
 BYTE   W08
 BYTE   N06  Cn1
 BYTE   N07  Fs1
 BYTE   W08
//  #07 //035   ----------------------------------------
 BYTE   N05  Cn1
 BYTE   N07  Fs1
 BYTE   W08
 BYTE   N08
 BYTE   W08
 BYTE   N05  Cn1
 BYTE   N07  Fs1
 BYTE   W08
 BYTE   Dn1
 BYTE   N14  Fs1
 BYTE   W08
 BYTE   N06  Cn1
 BYTE   N04  As1
 BYTE   W08
 BYTE   N06  Cn1
 BYTE   N07  Fs1
 BYTE   W08
 BYTE   N06  Cn1
 BYTE   N08  Fs1
 BYTE   W08
 BYTE   N08
 BYTE   W08
 BYTE   N07  Cn1
 BYTE   N07  Fs1
 BYTE   W08
 BYTE   Dn1
 BYTE   N08  Fs1
 BYTE   W08
 BYTE   N06  Cn1
 BYTE   N08  Fs1
 BYTE   W08
 BYTE   N06  Cn1
 BYTE   N13  Fs1
 BYTE   W08
//  #07 //036   ----------------------------------------
 BYTE   N05  Cn1
 BYTE   N30  Cs2
 BYTE   W16
 BYTE   N07  Cn1
 BYTE   N15  Ds2
 BYTE   W08
 BYTE   N06  Dn1
 BYTE   W08
 BYTE   N16  Ds2
 BYTE   W16
 BYTE   N05  Cn1
 BYTE   N15  Ds2
 BYTE   W16
 BYTE   N16
 BYTE   W08
 BYTE   N06  Dn1
 BYTE   N14  Fs1
 BYTE   W08
 BYTE   N06  Cn1
 BYTE   N03  As1
 BYTE   N15  Ds2
 BYTE   W08
 BYTE   N05  Cn1
 BYTE   N13  Fs1
 BYTE   W08
//  #07 //037   ----------------------------------------
 BYTE   N04  Cn1
 BYTE   N16  Ds2
 BYTE   W16
 BYTE   N07  Cn1
 BYTE   N16  Ds2
 BYTE   W08
 BYTE   N06  Dn1
 BYTE   W08
 BYTE   Cn1
 BYTE   N16  Ds2
 BYTE   W08
 BYTE   N05  Cn1
 BYTE   W08
 BYTE   N07
 BYTE   N15  Ds2
 BYTE   W08
 BYTE   N04  Bn1
 BYTE   W08
 BYTE   N06  Cn1
 BYTE   N16  Ds2
 BYTE   W08
 BYTE   N05  Dn1
 BYTE   N13  Fs1
 BYTE   W08
 BYTE   N05  Cn1
 BYTE   N03  As1
 BYTE   N30  Ds2
 BYTE   W08
 BYTE   N05  Cn1
 BYTE   N12  Fs1
 BYTE   W08
//  #07 //038   ----------------------------------------
 BYTE   N07  Cn1
 BYTE   N32  Cs2
 BYTE   W16
 BYTE   N06  Cn1
 BYTE   N16  Ds2
 BYTE   W08
 BYTE   N05  Dn1
 BYTE   W08
 BYTE   N16  Ds2
 BYTE   W16
 BYTE   N07  Cn1
 BYTE   N15  Ds2
 BYTE   W16
 BYTE   N16
 BYTE   W08
 BYTE   N05  Dn1
 BYTE   N13  Fs1
 BYTE   W08
 BYTE   N05  Cn1
 BYTE   N02  As1
 BYTE   N15  Ds2
 BYTE   W08
 BYTE   N07  Cn1
 BYTE   N15  Fs1
 BYTE   W08
//  #07 //039   ----------------------------------------
 BYTE   N06  Cn1
 BYTE   N16  Ds2
 BYTE   W16
 BYTE   N05  Cn1
 BYTE   N16  Ds2
 BYTE   W08
 BYTE   N05  Dn1
 BYTE   W08
 BYTE   N07  Cn1
 BYTE   N15  Ds2
 BYTE   W08
 BYTE   N07  Cn1
 BYTE   W08
 BYTE   N06
 BYTE   N16  Ds2
 BYTE   W08
 BYTE   N03  Bn1
 BYTE   W08
 BYTE   N05  Cn1
 BYTE   N16  Ds2
 BYTE   W08
 BYTE   N05  Dn1
 BYTE   N12  Fs1
 BYTE   W08
 BYTE   N07  Cn1
 BYTE   N04  As1
 BYTE   N30  Ds2
 BYTE   W08
 BYTE   N06  Cn1
 BYTE   N14  Fs1
 BYTE   W08
//  #07 //040   ----------------------------------------
 BYTE   N06  Cn1
 BYTE   N30  Cs2
 BYTE   W16
 BYTE   N05  Cn1
 BYTE   N15  Ds2
 BYTE   W08
 BYTE   N05  Dn1
 BYTE   W08
 BYTE   N16  Ds2
 BYTE   W16
 BYTE   N06  Cn1
 BYTE   N16  Ds2
 BYTE   W16
 BYTE   N16
 BYTE   W08
 BYTE   N07  Dn1
 BYTE   N14  Fs1
 BYTE   W08
 BYTE   N06  Cn1
 BYTE   N04  As1
 BYTE   N15  Ds2
 BYTE   W08
 BYTE   N06  Cn1
 BYTE   N14  Fs1
 BYTE   W08
//  #07 //041   ----------------------------------------
 BYTE   N05  Cn1
 BYTE   N16  Ds2
 BYTE   W16
 BYTE   N05  Cn1
 BYTE   N16  Ds2
 BYTE   W08
 BYTE   N07  Dn1
 BYTE   W08
 BYTE   Cn1
 BYTE   N16  Ds2
 BYTE   W08
 BYTE   N06  Cn1
 BYTE   W08
 BYTE   N06
 BYTE   N16  Ds2
 BYTE   W08
 BYTE   N02  Bn1
 BYTE   W08
 BYTE   N07  Cn1
 BYTE   N16  Ds2
 BYTE   W08
 BYTE   N06  Dn1
 BYTE   N14  Fs1
 BYTE   W08
 BYTE   N06  Cn1
 BYTE   N03  As1
 BYTE   N30  Ds2
 BYTE   W08
 BYTE   N06  Cn1
 BYTE   N13  Fs1
 BYTE   W08
//  #07 //042   ----------------------------------------
 BYTE   N05  Cn1
 BYTE   N30  Cs2
 BYTE   W16
 BYTE   N07  Cn1
 BYTE   N16  Ds2
 BYTE   W08
 BYTE   N06  Dn1
 BYTE   W08
 BYTE   N16  Ds2
 BYTE   W16
 BYTE   N05  Cn1
 BYTE   N15  Ds2
 BYTE   W16
 BYTE   N16
 BYTE   W08
 BYTE   N06  Dn1
 BYTE   N14  Fs1
 BYTE   W08
 BYTE   N06  Cn1
 BYTE   N03  As1
 BYTE   N15  Ds2
 BYTE   W08
 BYTE   N05  Cn1
 BYTE   N13  Fs1
 BYTE   W08
//  #07 //043   ----------------------------------------
 BYTE   N04  Cn1
 BYTE   N16  Ds2
 BYTE   W16
 BYTE   N06  Cn1
 BYTE   N16  Ds2
 BYTE   W08
 BYTE   N06  Dn1
 BYTE   W08
 BYTE   N16  Ds2
 BYTE   W16
 BYTE   N07  Cn1
 BYTE   N15  Ds2
 BYTE   W16
 BYTE   N16
 BYTE   W08
 BYTE   N06  Dn1
 BYTE   N13  Fs1
 BYTE   W08
 BYTE   N05  Dn1
 BYTE   N03  As1
 BYTE   N30  Ds2
 BYTE   W08
 BYTE   N05  Dn1
 BYTE   N08  Fs1
 BYTE   W08
//  #07 //044   ----------------------------------------
 BYTE   N06  Cn1
 BYTE   N14  Fs1
 BYTE   W16
 BYTE   N05  Cn1
 BYTE   N07  Fs1
 BYTE   W08
 BYTE   N05  Dn1
 BYTE   N13  Fs1
 BYTE   W16
 BYTE   N07  Cn1
 BYTE   N07  Fs1
 BYTE   W08
 BYTE   Cn1
 BYTE   N14  Fs1
 BYTE   W16
 BYTE   N05  Cn1
 BYTE   N07  Fs1
 BYTE   W08
 BYTE   N05  Dn1
 BYTE   N13  Fs1
 BYTE   W08
 BYTE   N02  As1
 BYTE   W08
 BYTE   N07  Cn1
 BYTE   N08  Fs1
 BYTE   W08
//  #07 //045   ----------------------------------------
 BYTE   N06  Cn1
 BYTE   N14  Fs1
 BYTE   W16
 BYTE   N05  Cn1
 BYTE   N07  Fs1
 BYTE   W08
 BYTE   N05  Dn1
 BYTE   N13  Fs1
 BYTE   W16
 BYTE   N06  Cn1
 BYTE   N07  Fs1
 BYTE   W08
 BYTE   N06  Cn1
 BYTE   N14  Fs1
 BYTE   W16
 BYTE   N05  Cn1
 BYTE   N07  Fs1
 BYTE   W08
 BYTE   N04  Dn1
 BYTE   N12  Fs1
 BYTE   W08
 BYTE   N04  As1
 BYTE   W08
 BYTE   N06  Cn1
 BYTE   N08  Fs1
 BYTE   W08
//  #07 //046   ----------------------------------------
 BYTE   N05  Cn1
 BYTE   N13  Fs1
 BYTE   W16
 BYTE   N05  Cn1
 BYTE   N07  Fs1
 BYTE   W08
 BYTE   Dn1
 BYTE   N15  Fs1
 BYTE   W16
 BYTE   N06  Cn1
 BYTE   N08  Fs1
 BYTE   W08
 BYTE   N05  Cn1
 BYTE   N13  Fs1
 BYTE   W16
 BYTE   N05  Cn1
 BYTE   N08  Fs1
 BYTE   W08
 BYTE   N06  Dn1
 BYTE   N14  Fs1
 BYTE   W08
 BYTE   N04  As1
 BYTE   W08
 BYTE   N06  Cn1
 BYTE   N08  Fs1
 BYTE   W08
//  #07 //047   ----------------------------------------
 BYTE   N05  Cn1
 BYTE   N13  Fs1
 BYTE   W16
 BYTE   N07  Cn1
 BYTE   N08  Fs1
 BYTE   W08
 BYTE   N07  Dn1
 BYTE   N14  Fs1
 BYTE   W16
 BYTE   N06  Cn1
 BYTE   N08  Fs1
 BYTE   W08
 BYTE   N05  Cn1
 BYTE   N13  Fs1
 BYTE   W16
 BYTE   N06  Cn1
 BYTE   N08  Fs1
 BYTE   W08
 BYTE   N06  Dn1
 BYTE   N14  Fs1
 BYTE   W08
 BYTE   N04  As1
 BYTE   W08
 BYTE   N05  Cn1
 BYTE   N08  Fs1
 BYTE   W08
//  #07 //048   ----------------------------------------
 BYTE   N05  Cn1
 BYTE   N12  Fs1
 BYTE   W16
 BYTE   N06  Cn1
 BYTE   N07  Fs1
 BYTE   W08
 BYTE   N06  Dn1
 BYTE   N14  Fs1
 BYTE   W16
 BYTE   N05  Cn1
 BYTE   N08  Fs1
 BYTE   W08
 BYTE   N04  Cn1
 BYTE   N12  Fs1
 BYTE   W16
 BYTE   N06  Cn1
 BYTE   N08  Fs1
 BYTE   W08
 BYTE   N06  Dn1
 BYTE   N13  Fs1
 BYTE   W08
 BYTE   N03  As1
 BYTE   W08
 BYTE   N05  Cn1
 BYTE   N08  Fs1
 BYTE   W08
//  #07 //049   ----------------------------------------
 BYTE   N06  Cn1
 BYTE   N14  Fs1
 BYTE   W16
 BYTE   N06  Cn1
 BYTE   N08  Fs1
 BYTE   W08
 BYTE   N05  Dn1
 BYTE   N13  Fs1
 BYTE   W16
 BYTE   N04  Cn1
 BYTE   N07  Fs1
 BYTE   W08
 BYTE   Cn1
 BYTE   N14  Fs1
 BYTE   W16
 BYTE   N06  Cn1
 BYTE   N08  Fs1
 BYTE   W08
 BYTE   N05  Dn1
 BYTE   N13  Fs1
 BYTE   W08
 BYTE   N03  As1
 BYTE   W08
 BYTE   N07  Cn1
 BYTE   N08  Fs1
 BYTE   W08
//  #07 //050   ----------------------------------------
 BYTE   N06  Cn1
 BYTE   N14  Fs1
 BYTE   W16
 BYTE   N06  Cn1
 BYTE   N08  Fs1
 BYTE   W08
 BYTE   N05  Dn1
 BYTE   N13  Fs1
 BYTE   W16
 BYTE   N07  Cn1
 BYTE   N08  Fs1
 BYTE   W08
 BYTE   N06  Cn1
 BYTE   N14  Fs1
 BYTE   W16
 BYTE   N05  Cn1
 BYTE   N08  Fs1
 BYTE   W08
 BYTE   N05  Dn1
 BYTE   N13  Fs1
 BYTE   W08
 BYTE   N05  As1
 BYTE   W08
 BYTE   N06  Cn1
 BYTE   N08  Fs1
 BYTE   W08
//  #07 //051   ----------------------------------------
 BYTE   N06  Cn1
 BYTE   N14  Fs1
 BYTE   W16
 BYTE   N05  Cn1
 BYTE   N08  Fs1
 BYTE   W08
 BYTE   N04  Dn1
 BYTE   N12  Fs1
 BYTE   W16
 BYTE   N06  Cn1
 BYTE   N08  Fs1
 BYTE   W08
 BYTE   N06  Cn1
 BYTE   N14  Fs1
 BYTE   W16
 BYTE   N05  Cn1
 BYTE   N08  Fs1
 BYTE   W08
 BYTE   N07  Dn1
 BYTE   N15  Fs1
 BYTE   W08
 BYTE   N04  As1
 BYTE   W08
 BYTE   N06  Cn1
 BYTE   N08  Fs1
 BYTE   W08
//  #07 //052   ----------------------------------------
 BYTE   N13
 BYTE   N30  Cs2
 BYTE   W01
 BYTE   N05  Cn1
 BYTE   W15
 BYTE   N05
 BYTE   N08  Fs1
 BYTE   W08
 BYTE   N07  Dn1
 BYTE   N14  Fs1
 BYTE   W08
 BYTE   N04  As1
 BYTE   W08
 BYTE   N06  Cn1
 BYTE   N08  Fs1
 BYTE   W08
 BYTE   N05  Cn1
 BYTE   N13  Fs1
 BYTE   W16
 BYTE   N07  Cn1
 BYTE   N14  Fs1
 BYTE   W08
 BYTE   N04  An1
 BYTE   W16
 BYTE   N06  Cn1
 BYTE   N13  Gn1
 BYTE   W08
//  #07 //053   ----------------------------------------
 BYTE   N05  Cn1
 BYTE   N13  Fs1
 BYTE   W16
 BYTE   N07  Cn1
 BYTE   N08  Fs1
 BYTE   W08
 BYTE   N06  Dn1
 BYTE   N14  Fs1
 BYTE   W08
 BYTE   N03  As1
 BYTE   W08
 BYTE   N05  Cn1
 BYTE   N07  Fs1
 BYTE   W08
 BYTE   N05  Cn1
 BYTE   N13  Fs1
 BYTE   W16
 BYTE   N06  Cn1
 BYTE   N14  Fs1
 BYTE   W08
 BYTE   N03  An1
 BYTE   W16
 BYTE   N05  Cn1
 BYTE   N13  Gn1
 BYTE   W08
//  #07 //054   ----------------------------------------
 BYTE   N05  Cn1
 BYTE   N12  Fs1
 BYTE   W16
 BYTE   N06  Cn1
 BYTE   N08  Fs1
 BYTE   W08
 BYTE   N05  Dn1
 BYTE   N14  Fs1
 BYTE   W08
 BYTE   N03  As1
 BYTE   W08
 BYTE   N05  Cn1
 BYTE   N08  Fs1
 BYTE   W08
 BYTE   N07  Cn1
 BYTE   N14  Fs1
 BYTE   W16
 BYTE   N06  Cn1
 BYTE   N14  Fs1
 BYTE   W08
 BYTE   N03  An1
 BYTE   W16
 BYTE   N05  Cn1
 BYTE   N13  Gn1
 BYTE   W08
//  #07 //055   ----------------------------------------
 BYTE   N07  Cn1
 BYTE   N14  Fs1
 BYTE   W16
 BYTE   N06  Cn1
 BYTE   N08  Fs1
 BYTE   W08
 BYTE   N06  Dn1
 BYTE   N13  Fs1
 BYTE   W08
 BYTE   N03  As1
 BYTE   W08
 BYTE   N04  Cn1
 BYTE   N08  Fs1
 BYTE   W08
 BYTE   N06  Cn1
 BYTE   N14  Fs1
 BYTE   W16
 BYTE   N06  Cn1
 BYTE   N13  Fs1
 BYTE   W08
 BYTE   N03  An1
 BYTE   W16
 BYTE   N07  Cn1
 BYTE   N14  Gn1
 BYTE   W08
//  #07 //056   ----------------------------------------
 BYTE   N06  Cn1
 BYTE   N14  Fs1
 BYTE   W16
 BYTE   N05  Cn1
 BYTE   N07  Fs1
 BYTE   W08
 BYTE   N05  Dn1
 BYTE   N13  Fs1
 BYTE   W08
 BYTE   N02  As1
 BYTE   W08
 BYTE   N07  Cn1
 BYTE   N08  Fs1
 BYTE   W08
 BYTE   N06  Cn1
 BYTE   N13  Fs1
 BYTE   W16
 BYTE   N05  Cn1
 BYTE   N13  Fs1
 BYTE   W08
 BYTE   N02  An1
 BYTE   W16
 BYTE   N06  Cn1
 BYTE   N14  Gn1
 BYTE   W08
//  #07 //057   ----------------------------------------
 BYTE   N06  Cn1
 BYTE   N14  Fs1
 BYTE   W16
 BYTE   N05  Cn1
 BYTE   N07  Fs1
 BYTE   W08
 BYTE   N04  Dn1
 BYTE   N12  Fs1
 BYTE   W08
 BYTE   N04  As1
 BYTE   W08
 BYTE   N06  Cn1
 BYTE   N07  Fs1
 BYTE   W08
 BYTE   N06  Cn1
 BYTE   N13  Fs1
 BYTE   W16
 BYTE   N05  Cn1
 BYTE   N12  Fs1
 BYTE   W08
 BYTE   N05  An1
 BYTE   W16
 BYTE   N06  Cn1
 BYTE   N14  Gn1
 BYTE   W08
//  #07 //058   ----------------------------------------
 BYTE   N06  Cn1
 BYTE   N13  Fs1
 BYTE   W16
 BYTE   N05  Cn1
 BYTE   N08  Fs1
 BYTE   W08
 BYTE   N07  Dn1
 BYTE   N14  Fs1
 BYTE   W08
 BYTE   N04  As1
 BYTE   W08
 BYTE   N06  Cn1
 BYTE   N08  Fs1
 BYTE   W08
 BYTE   N05  Cn1
 BYTE   N13  Fs1
 BYTE   W16
 BYTE   N07  Cn1
 BYTE   N15  Fs1
 BYTE   W08
 BYTE   N04  An1
 BYTE   W16
 BYTE   N06  Cn1
 BYTE   N13  Gn1
 BYTE   W08
//  #07 //059   ----------------------------------------
 BYTE   N05  Cn1
 BYTE   N13  Fs1
 BYTE   W16
 BYTE   N07  Cn1
 BYTE   N08  Fs1
 BYTE   W08
 BYTE   N06  Dn1
 BYTE   N14  Fs1
 BYTE   W08
 BYTE   N03  As1
 BYTE   W08
 BYTE   N05  Cn1
 BYTE   N08  Fs1
 BYTE   W08
 BYTE   N05  Cn1
 BYTE   N12  Fs1
 BYTE   W16
 BYTE   N07  Cn1
 BYTE   N14  Fs1
 BYTE   W08
 BYTE   N04  An1
 BYTE   W16
 BYTE   N05  Cn1
 BYTE   N13  Gn1
 BYTE   W08
//  #07 //060   ----------------------------------------
 BYTE   N05  Cn1
 BYTE   N12  Fs1
 BYTE   W16
 BYTE   N06  Cn1
 BYTE   N07  Fs1
 BYTE   W08
 BYTE   N06  Dn1
 BYTE   N13  Fs1
 BYTE   W08
 BYTE   N03  As1
 BYTE   W08
 BYTE   N05  Cn1
 BYTE   N08  Fs1
 BYTE   W08
 BYTE   N07  Cn1
 BYTE   N15  Fs1
 BYTE   W16
 BYTE   N06  Cn1
 BYTE   N14  Fs1
 BYTE   W08
 BYTE   N03  An1
 BYTE   W16
 BYTE   N05  Cn1
 BYTE   N12  Gn1
 BYTE   W08
//  #07 //061   ----------------------------------------
 BYTE   N07  Cn1
 BYTE   N14  Fs1
 BYTE   W16
 BYTE   N06  Cn1
 BYTE   N08  Fs1
 BYTE   W08
 BYTE   N05  Dn1
 BYTE   N13  Fs1
 BYTE   W08
 BYTE   N03  As1
 BYTE   W08
 BYTE   N07  Cn1
 BYTE   N07  Fs1
 BYTE   W08
 BYTE   Cn1
 BYTE   N14  Fs1
 BYTE   W16
 BYTE   N06  Cn1
 BYTE   N13  Fs1
 BYTE   W08
 BYTE   N02  An1
 BYTE   W16
 BYTE   N06  Cn1
 BYTE   N14  Gn1
 BYTE   W08
//  #07 //062   ----------------------------------------
 BYTE   N06  Cn1
 BYTE   N14  Fs1
 BYTE   W16
 BYTE   N05  Cn1
 BYTE   N07  Fs1
 BYTE   W08
 BYTE   N05  Dn1
 BYTE   N12  Fs1
 BYTE   W08
 BYTE   N05  As1
 BYTE   W08
 BYTE   N07  Cn1
 BYTE   N08  Fs1
 BYTE   W08
 BYTE   N06  Cn1
 BYTE   N14  Fs1
 BYTE   W16
 BYTE   N05  Cn1
 BYTE   N13  Fs1
 BYTE   W08
 BYTE   N02  An1
 BYTE   W16
 BYTE   N06  Cn1
 BYTE   N14  Gn1
 BYTE   W08
//  #07 //063   ----------------------------------------
 BYTE   N06  Cn1
 BYTE   N13  Fs1
 BYTE   W16
 BYTE   N05  Cn1
 BYTE   N08  Fs1
 BYTE   W08
 BYTE   N07  Dn1
 BYTE   N15  Fs1
 BYTE   W08
 BYTE   N04  As1
 BYTE   W08
 BYTE   N06  Cn1
 BYTE   N08  Fs1
 BYTE   W08
 BYTE   N06  Cn1
 BYTE   N13  Fs1
 BYTE   W16
 BYTE   N05  Cn1
 BYTE   N13  Fs1
 BYTE   W08
 BYTE   N05  An1
 BYTE   W16
 BYTE   N06  Cn1
 BYTE   N14  Gn1
 BYTE   W08
//  #07 //064   ----------------------------------------
 BYTE   N05  Cn1
 BYTE   N13  Fs1
 BYTE   W16
 BYTE   N07  Cn1
 BYTE   N07  Fs1
 BYTE   W08
 BYTE   N06  Dn1
 BYTE   N14  Fs1
 BYTE   W08
 BYTE   N04  As1
 BYTE   W08
 BYTE   N06  Cn1
 BYTE   N07  Fs1
 BYTE   W08
 BYTE   N05  Cn1
 BYTE   N13  Fs1
 BYTE   W16
 BYTE   N06  Cn1
 BYTE   N14  Fs1
 BYTE   W08
 BYTE   N04  An1
 BYTE   W16
 BYTE   N05  Cn1
 BYTE   N13  Gn1
 BYTE   W08
//  #07 //065   ----------------------------------------
 BYTE   N04  Cn1
 BYTE   N12  Fs1
 BYTE   W16
 BYTE   N07  Cn1
 BYTE   N08  Fs1
 BYTE   W08
 BYTE   N06  Dn1
 BYTE   N13  Fs1
 BYTE   W08
 BYTE   N03  As1
 BYTE   W08
 BYTE   N05  Cn1
 BYTE   N08  Fs1
 BYTE   W08
 BYTE   N04  Cn1
 BYTE   N12  Fs1
 BYTE   W16
 BYTE   N06  Cn1
 BYTE   N14  Fs1
 BYTE   W08
 BYTE   N03  An1
 BYTE   W16
 BYTE   N05  Cn1
 BYTE   N12  Gn1
 BYTE   W08
//  #07 //066   ----------------------------------------
 BYTE   N03  Bn1
 BYTE   W04
 BYTE   N03
 BYTE   W04
 BYTE   N04
 BYTE   W08
 BYTE   N04
 BYTE   W08
 BYTE   N03  An1
 BYTE   W08
 BYTE   N03
 BYTE   W08
 BYTE   N08  Fn1
 BYTE   W08
 BYTE   N07  Cn1
 BYTE   N15  Fn1
 BYTE   W08
 BYTE   N06  Dn1
 BYTE   W08
 BYTE   N14  Gn1
 BYTE   W08
 BYTE   N05  Dn1
 BYTE   W08
 BYTE   N05
 BYTE   W08
 BYTE   N07
 BYTE   W08
//  #07 //067   ----------------------------------------
 BYTE   Cn1
 BYTE   N30  Dn2
 BYTE   W08
 BYTE   N04  Bn1
 BYTE   W08
 BYTE   N13  Gn1
 BYTE   W08
 BYTE   N30  Cn2
 BYTE   W08
 BYTE   N03  Bn1
 BYTE   W08
 BYTE   N14  Gn1
 BYTE   W08
 BYTE   N06  Dn1
 BYTE   N16  Ds2
 BYTE   W08
 BYTE   N14  Gn1
 BYTE   W08
 BYTE   N13  Fn1
 BYTE   N16  Ds2
 BYTE   W08
 BYTE   N05  Dn1
 BYTE   W08
 BYTE   An1
 BYTE   N08  Ds2
 BYTE   W08
 BYTE   N14  Gn1
 BYTE   N30  Ds2
 BYTE   W08
//  #07 //068   ----------------------------------------
 BYTE   N06  Cn1
 BYTE   N06  Dn1
 BYTE   N60  An2
 BYTE   W01
 BYTE   N03  As1
 BYTE   N30  Cs2
 BYTE   W23
 BYTE   N02  As1
 BYTE   W24
 BYTE   N03
 BYTE   W24
 BYTE   N04
 BYTE   W24
//  #07 //069   ----------------------------------------
 BYTE   N04
 BYTE   W24
 BYTE   N04
 BYTE   N04  Bn1
 BYTE   W16
 BYTE   N13  Fn1
 BYTE   W08
 BYTE   N03  An1
 BYTE   N03  As1
 BYTE   W08
 BYTE   N12  Fn1
 BYTE   W16
 BYTE   N14
 BYTE   N04  As1
 BYTE   W16
 BYTE   N13  Fn1
 BYTE   W08
//  #07 //070   ----------------------------------------
 BYTE   N05  Cn1
 BYTE   N05  Dn1
 BYTE   N30  Cs2
 BYTE   N60  An2
 BYTE   W01
 BYTE   N02  As1
 BYTE   W23
 BYTE   N04
 BYTE   W24
 BYTE   N02
 BYTE   W24
 BYTE   N04
 BYTE   W24
//  #07 //071   ----------------------------------------
 BYTE   N02
 BYTE   W24
 BYTE   N03
 BYTE   W24
 BYTE   N02
 BYTE   N30  Cn2
 BYTE   W16
 BYTE   N04  An1
 BYTE   W08
 BYTE   N13  Gn1
 BYTE   N03  As1
 BYTE   W16
 BYTE   N12  Fn1
 BYTE   W08
//  #07 //072   ----------------------------------------
 BYTE   N07  Cn1
 BYTE   N07  Dn1
 BYTE   N04  As1
 BYTE   N32  Cs2
 BYTE   N64  An2
 BYTE   W24
 BYTE   N03  As1
 BYTE   W24
 BYTE   N04
 BYTE   W24
 BYTE   N03
 BYTE   W24
//  #07 //073   ----------------------------------------
 BYTE   N04
 BYTE   W24
 BYTE   N02
 BYTE   N02  Bn1
 BYTE   W16
 BYTE   N14  Fn1
 BYTE   W08
 BYTE   N04  An1
 BYTE   N04  As1
 BYTE   W08
 BYTE   N13  Fn1
 BYTE   W16
 BYTE   N12
 BYTE   N03  As1
 BYTE   W16
 BYTE   N14  Fn1
 BYTE   W08
//  #07 //074   ----------------------------------------
 BYTE   N06  Cn1
 BYTE   N06  Dn1
 BYTE   N03  As1
 BYTE   N30  Cs2
 BYTE   N64  An2
 BYTE   W24
 BYTE   N02  As1
 BYTE   W24
 BYTE   N03
 BYTE   W24
 BYTE   N04
 BYTE   W24
//  #07 //075   ----------------------------------------
 BYTE   GoTo
  POIN2 Label_015F9AA3
 BYTE   FINE

//******************************************************//
	ALIGN 4

song1B:
	BYTE	7	// NumTrks
	BYTE	0	// NumBlks
	BYTE	song1B_pri	// Priority
	BYTE	song1B_rev	// Reverb.
    
	POIN2	song1B_grp
    
	POIN2	song1B_001
	POIN2	song1B_002
	POIN2	song1B_003
	POIN2	song1B_004
	POIN2	song1B_005
	POIN2	song1B_006
	POIN2	song1B_007

	
