//Event file generated from Sappy .s format.
	#include "MPlayDef.event"

	#define	song1D_grp  voicegroup000
	#define	song1D_pri  0
	#define	song1D_rev  0
	#define	song1D_mvl  127
	#define	song1D_key  0
	#define	song1D_tbs  1
	#define	song1D_exg  0
	#define	song1D_cmp  1

	// .rodata
	//	song1D
	ALIGN 4


//**************** Track 1 (Midi-Chn.0) ****************//

song1D_001:
//  #01 //000   ----------------------------------------
 BYTE   KEYSH   song1D_key+0
 BYTE   TEMPO   178*song1D_tbs/2
 BYTE   VOICE   4
 BYTE   VOL   25*song1D_mvl/mxv
 BYTE   BEND   c_v+0
 BYTE   N10  As4  v112
 BYTE   W12
 BYTE   N11  An4
 BYTE   W12
 BYTE   N10  Fn4
 BYTE   W12
 BYTE   Dn4
 BYTE   W12
 BYTE   As3
 BYTE   W12
 BYTE   An3
 BYTE   W12
 BYTE   Fn3
 BYTE   W12
 BYTE   Dn3
 BYTE   W12
//  #01 //001   ----------------------------------------
Label_01054C46:
 BYTE   N10  As4  v112
 BYTE   W12
 BYTE   An4
 BYTE   W12
 BYTE   Fn4
 BYTE   W12
 BYTE   Dn4
 BYTE   W12
 BYTE   As3
 BYTE   W12
 BYTE   An3
 BYTE   W12
 BYTE   Fn3
 BYTE   W12
 BYTE   Dn3
 BYTE   W12
 BYTE   PEND 
//  #01 //002   ----------------------------------------
 BYTE   PATT
  POIN2 Label_01054C46
//  #01 //003   ----------------------------------------
 BYTE   PATT
  POIN2 Label_01054C46
//  #01 //004   ----------------------------------------
 BYTE   W01
 BYTE   N10  As4  v112
 BYTE   W11
 BYTE   An4
 BYTE   W12
 BYTE   Fn4
 BYTE   W12
 BYTE   N11  Dn4
 BYTE   W12
 BYTE   N10  As3
 BYTE   W12
 BYTE   N11  An3
 BYTE   W12
 BYTE   N10  Fn3
 BYTE   W12
 BYTE   Dn3
 BYTE   W12
//  #01 //005   ----------------------------------------
 BYTE   As4
 BYTE   W12
 BYTE   An4
 BYTE   W12
 BYTE   N11  Fn4
 BYTE   W12
 BYTE   N10  Dn4
 BYTE   W12
 BYTE   As3
 BYTE   W12
 BYTE   N11  An3
 BYTE   W12
 BYTE   N10  Fn3
 BYTE   W12
 BYTE   N11  Dn3
 BYTE   W12
//  #01 //006   ----------------------------------------
 BYTE   PATT
  POIN2 Label_01054C46
//  #01 //007   ----------------------------------------
 BYTE   N11  As4  v112
 BYTE   W12
 BYTE   N10  An4
 BYTE   W12
 BYTE   N11  Fn4
 BYTE   W12
 BYTE   N10  Dn4
 BYTE   W12
 BYTE   As3
 BYTE   W12
 BYTE   An3
 BYTE   W12
 BYTE   Fn3
 BYTE   W12
 BYTE   Dn3
 BYTE   W12
//  #01 //008   ----------------------------------------
 BYTE   As4
 BYTE   W12
 BYTE   N11  An4
 BYTE   W12
 BYTE   Fn4
 BYTE   W12
 BYTE   N10  Dn4
 BYTE   W12
 BYTE   As3
 BYTE   W12
 BYTE   An3
 BYTE   W12
 BYTE   Fn3
 BYTE   W12
 BYTE   Dn3
 BYTE   W12
//  #01 //009   ----------------------------------------
 BYTE   As4
 BYTE   W12
 BYTE   An4
 BYTE   W12
 BYTE   Fn4
 BYTE   W12
 BYTE   N11  Dn4
 BYTE   W12
 BYTE   N10  As3
 BYTE   W12
 BYTE   N11  An3
 BYTE   W12
 BYTE   Fn3
 BYTE   W12
 BYTE   Dn3
 BYTE   W12
//  #01 //010   ----------------------------------------
 BYTE   N10  As4
 BYTE   W12
 BYTE   An4
 BYTE   W12
 BYTE   Fn4
 BYTE   W12
 BYTE   Dn4
 BYTE   W12
 BYTE   As3
 BYTE   W12
 BYTE   An3
 BYTE   W13
 BYTE   Fn3
 BYTE   W11
 BYTE   Dn3
 BYTE   W12
//  #01 //011   ----------------------------------------
 BYTE   As4
 BYTE   W12
 BYTE   An4
 BYTE   W12
 BYTE   Fn4
 BYTE   W12
 BYTE   Dn4
 BYTE   W12
 BYTE   As3
 BYTE   W12
 BYTE   An3
 BYTE   W12
 BYTE   Fn3
 BYTE   W12
 BYTE   N11  Dn3
 BYTE   W12
//  #01 //012   ----------------------------------------
Label_01054CF0:
 BYTE   W01
 BYTE   N10  As4  v112
 BYTE   W11
 BYTE   An4
 BYTE   W12
 BYTE   Fn4
 BYTE   W12
 BYTE   Dn4
 BYTE   W12
 BYTE   As3
 BYTE   W12
 BYTE   N11  An3
 BYTE   W12
 BYTE   N10  Fn3
 BYTE   W12
 BYTE   Dn3
 BYTE   W12
//  #01 //013   ----------------------------------------
 BYTE   PATT
  POIN2 Label_01054C46
//  #01 //014   ----------------------------------------
 BYTE   W01
 BYTE   N10  As4  v112
 BYTE   W11
 BYTE   An4
 BYTE   W12
 BYTE   Fn4
 BYTE   W12
 BYTE   Dn4
 BYTE   W12
 BYTE   As3
 BYTE   W12
 BYTE   An3
 BYTE   W12
 BYTE   Fn3
 BYTE   W12
 BYTE   N11  Dn3
 BYTE   W12
//  #01 //015   ----------------------------------------
 BYTE   N10  As4
 BYTE   W12
 BYTE   N11  An4
 BYTE   W12
 BYTE   N10  Fn4
 BYTE   W12
 BYTE   Dn4
 BYTE   W12
 BYTE   As3
 BYTE   W12
 BYTE   N11  An3
 BYTE   W12
 BYTE   N10  Fn3
 BYTE   W12
 BYTE   N11  Dn3
 BYTE   W12
//  #01 //016   ----------------------------------------
 BYTE   N10  As4
 BYTE   W12
 BYTE   An4
 BYTE   W12
 BYTE   Fn4
 BYTE   W12
 BYTE   Dn4
 BYTE   W13
 BYTE   As3
 BYTE   W11
 BYTE   N11  An3
 BYTE   W12
 BYTE   N10  Fn3
 BYTE   W12
 BYTE   Dn3
 BYTE   W12
//  #01 //017   ----------------------------------------
 BYTE   As4
 BYTE   W13
 BYTE   An4
 BYTE   W12
 BYTE   Fn4
 BYTE   W11
 BYTE   Dn4
 BYTE   W12
 BYTE   As3
 BYTE   W13
 BYTE   An3
 BYTE   W12
 BYTE   Fn3
 BYTE   W11
 BYTE   Dn3
 BYTE   W12
//  #01 //018   ----------------------------------------
 BYTE   PATT
  POIN2 Label_01054C46
//  #01 //019   ----------------------------------------
 BYTE   N10  As4  v112
 BYTE   W12
 BYTE   N11  An4
 BYTE   W12
 BYTE   N10  Fn4
 BYTE   W12
 BYTE   N11  Dn4
 BYTE   W12
 BYTE   N10  As3
 BYTE   W12
 BYTE   An3
 BYTE   W12
 BYTE   Fn3
 BYTE   W12
 BYTE   N11  Dn3
 BYTE   W12
//  #01 //020   ----------------------------------------
 BYTE   N10  Gs4
 BYTE   W12
 BYTE   Fn4
 BYTE   W12
 BYTE   Cs4
 BYTE   W12
 BYTE   Cn4
 BYTE   W12
 BYTE   Gs3
 BYTE   W12
 BYTE   Fn3
 BYTE   W12
 BYTE   Cs3
 BYTE   W12
 BYTE   N11  Cn3
 BYTE   W12
//  #01 //021   ----------------------------------------
 BYTE   N10  Gs4
 BYTE   W12
 BYTE   N11  Fn4
 BYTE   W12
 BYTE   N10  Cs4
 BYTE   W12
 BYTE   Cn4
 BYTE   W12
 BYTE   Gs3
 BYTE   W12
 BYTE   Fn3
 BYTE   W12
 BYTE   Cs3
 BYTE   W12
 BYTE   Cn3
 BYTE   W12
//  #01 //022   ----------------------------------------
 BYTE   Gs4
 BYTE   W12
 BYTE   Fn4
 BYTE   W12
 BYTE   Cs4
 BYTE   W12
 BYTE   Cn4
 BYTE   W12
 BYTE   Gs3
 BYTE   W12
 BYTE   N11  Fn3
 BYTE   W12
 BYTE   N10  Cs3
 BYTE   W12
 BYTE   Cn3
 BYTE   W12
//  #01 //023   ----------------------------------------
 BYTE   Gs4
 BYTE   W12
 BYTE   Fn4
 BYTE   W12
 BYTE   Cs4
 BYTE   W12
 BYTE   N11  Cn4
 BYTE   W12
 BYTE   N10  Gs3
 BYTE   W12
 BYTE   N11  Fn3
 BYTE   W12
 BYTE   N10  Cs3
 BYTE   W12
 BYTE   Cn3
 BYTE   W12
//  #01 //024   ----------------------------------------
 BYTE   Gs4
 BYTE   W12
 BYTE   Fn4
 BYTE   W12
 BYTE   Cs4
 BYTE   W12
 BYTE   Cn4
 BYTE   W12
 BYTE   Gs3
 BYTE   W12
 BYTE   Fn3
 BYTE   W12
 BYTE   Cs3
 BYTE   W12
 BYTE   Cn3
 BYTE   W12
//  #01 //025   ----------------------------------------
 BYTE   Gs4
 BYTE   W12
 BYTE   Fn4
 BYTE   W12
 BYTE   Cs4
 BYTE   W12
 BYTE   Cn4
 BYTE   W12
 BYTE   Gs3
 BYTE   W12
 BYTE   Fn3
 BYTE   W13
 BYTE   Cs3
 BYTE   W11
 BYTE   N11  Cn3
 BYTE   W12
//  #01 //026   ----------------------------------------
 BYTE   N10  Gs4
 BYTE   W12
 BYTE   N11  Gn4
 BYTE   W12
 BYTE   N10  Ds4
 BYTE   W12
 BYTE   Cn4
 BYTE   W12
 BYTE   Gs3
 BYTE   W12
 BYTE   Gn3
 BYTE   W12
 BYTE   Ds3
 BYTE   W12
 BYTE   N11  Cn3
 BYTE   W12
//  #01 //027   ----------------------------------------
 BYTE   N10  Gs4
 BYTE   W12
 BYTE   Gn4
 BYTE   W12
 BYTE   Ds4
 BYTE   W12
 BYTE   Cn4
 BYTE   W12
 BYTE   Gs3
 BYTE   W12
 BYTE   Gn3
 BYTE   W12
 BYTE   Ds3
 BYTE   W12
 BYTE   Cn3
 BYTE   W12
//  #01 //028   ----------------------------------------
 BYTE   W96
//  #01 //029   ----------------------------------------
 BYTE   W96
//  #01 //030   ----------------------------------------
 BYTE   W96
//  #01 //031   ----------------------------------------
 BYTE   W96
//  #01 //032   ----------------------------------------
 BYTE   W96
//  #01 //033   ----------------------------------------
 BYTE   W96
//  #01 //034   ----------------------------------------
 BYTE   W96
//  #01 //035   ----------------------------------------
 BYTE   W96
//  #01 //036   ----------------------------------------
 BYTE   W96
//  #01 //037   ----------------------------------------
 BYTE   W96
//  #01 //038   ----------------------------------------
 BYTE   W96
//  #01 //039   ----------------------------------------
 BYTE   W96
//  #01 //040   ----------------------------------------
 BYTE   W96
//  #01 //041   ----------------------------------------
 BYTE   W96
//  #01 //042   ----------------------------------------
 BYTE   W96
//  #01 //043   ----------------------------------------
 BYTE   W96
//  #01 //044   ----------------------------------------
 BYTE   W96
//  #01 //045   ----------------------------------------
 BYTE   W96
//  #01 //046   ----------------------------------------
 BYTE   W96
//  #01 //047   ----------------------------------------
 BYTE   W96
//  #01 //048   ----------------------------------------
 BYTE   W96
//  #01 //049   ----------------------------------------
 BYTE   W96
//  #01 //050   ----------------------------------------
 BYTE   W96
//  #01 //051   ----------------------------------------
 BYTE   W96
//  #01 //052   ----------------------------------------
 BYTE   Gs4
 BYTE   W12
 BYTE   Gn4
 BYTE   W12
 BYTE   En4
 BYTE   W12
 BYTE   Cn4
 BYTE   W12
 BYTE   Gs3
 BYTE   W12
 BYTE   Gn3
 BYTE   W12
 BYTE   En3
 BYTE   W12
 BYTE   N11  Cn3
 BYTE   W12
//  #01 //053   ----------------------------------------
Label_01054E2D:
 BYTE   N10  Gs4  v112
 BYTE   W12
 BYTE   Gn4
 BYTE   W12
 BYTE   En4
 BYTE   W12
 BYTE   Cn4
 BYTE   W12
 BYTE   Gs3
 BYTE   W12
 BYTE   N11  Gn3
 BYTE   W12
 BYTE   N10  En3
 BYTE   W12
 BYTE   Cn3
 BYTE   W12
 BYTE   PEND 
//  #01 //054   ----------------------------------------
 BYTE   PATT
  POIN2 Label_01054E2D
//  #01 //055   ----------------------------------------
 BYTE   N10  Gs4  v112
 BYTE   W12
 BYTE   Gn4
 BYTE   W12
 BYTE   N11  En4
 BYTE   W12
 BYTE   N10  Cn4
 BYTE   W12
 BYTE   Gs3
 BYTE   W12
 BYTE   Gn3
 BYTE   W12
 BYTE   En3
 BYTE   W12
 BYTE   Cn3
 BYTE   W12
//  #01 //056   ----------------------------------------
 BYTE   GoTo
  POIN2 Label_01054CF0
 BYTE   FINE

//**************** Track 2 (Midi-Chn.1) ****************//

song1D_002:
//  #02 //000   ----------------------------------------
 BYTE   KEYSH   song1D_key+0
 BYTE   VOICE   38
 BYTE   PAN   c_v+0
 BYTE   VOL   34*song1D_mvl/mxv
 BYTE   BEND   c_v+0
 BYTE   W96
//  #02 //001   ----------------------------------------
 BYTE   W96
//  #02 //002   ----------------------------------------
 BYTE   W96
//  #02 //003   ----------------------------------------
 BYTE   W96
//  #02 //004   ----------------------------------------
Label_010551EA:
 BYTE   W01
 BYTE   N10  Dn1  v112
 BYTE   W11
 BYTE   Fn1
 BYTE   W12
 BYTE   Dn1
 BYTE   W12
 BYTE   Fn1
 BYTE   W13
 BYTE   As1
 BYTE   W11
 BYTE   An1
 BYTE   W12
 BYTE   Fn1
 BYTE   W12
 BYTE   Dn1
 BYTE   W12
 BYTE   PEND 
//  #02 //005   ----------------------------------------
 BYTE   Fn1
 BYTE   W12
 BYTE   An1
 BYTE   W12
 BYTE   As1
 BYTE   W12
 BYTE   An1
 BYTE   W13
 BYTE   Fn1
 BYTE   W11
 BYTE   Dn1
 BYTE   W13
 BYTE   As0
 BYTE   W11
 BYTE   Dn1
 BYTE   W12
//  #02 //006   ----------------------------------------
 BYTE   W01
 BYTE   N10
 BYTE   W12
 BYTE   Fn1
 BYTE   W12
 BYTE   Dn1
 BYTE   W11
 BYTE   Fn1
 BYTE   W12
 BYTE   As1
 BYTE   W12
 BYTE   An1
 BYTE   W12
 BYTE   Fn1
 BYTE   W12
 BYTE   Dn1
 BYTE   W12
//  #02 //007   ----------------------------------------
 BYTE   Fn1
 BYTE   W12
 BYTE   An1
 BYTE   W12
 BYTE   As1
 BYTE   W13
 BYTE   An1
 BYTE   W11
 BYTE   Fn1
 BYTE   W12
 BYTE   Dn1
 BYTE   W13
 BYTE   As0
 BYTE   W11
 BYTE   Dn1
 BYTE   W12
//  #02 //008   ----------------------------------------
 BYTE   W01
 BYTE   N10
 BYTE   W11
 BYTE   Fn1
 BYTE   W12
 BYTE   Dn1
 BYTE   W13
 BYTE   Fn1
 BYTE   W11
 BYTE   As1
 BYTE   W12
 BYTE   An1
 BYTE   W13
 BYTE   Fn1
 BYTE   W12
 BYTE   Dn1
 BYTE   W11
//  #02 //009   ----------------------------------------
 BYTE   W01
 BYTE   Fn1
 BYTE   W11
 BYTE   An1
 BYTE   W12
 BYTE   As1
 BYTE   W12
 BYTE   An1
 BYTE   W13
 BYTE   Fn1
 BYTE   W11
 BYTE   Dn1
 BYTE   W12
 BYTE   As0
 BYTE   W13
 BYTE   Dn1
 BYTE   W11
//  #02 //010   ----------------------------------------
 BYTE   W01
 BYTE   N10
 BYTE   W12
 BYTE   Fn1
 BYTE   W12
 BYTE   Dn1
 BYTE   W12
 BYTE   Fn1
 BYTE   W12
 BYTE   As1
 BYTE   W12
 BYTE   An1
 BYTE   W12
 BYTE   Fn1
 BYTE   W11
 BYTE   Dn1
 BYTE   W12
//  #02 //011   ----------------------------------------
 BYTE   Fn1
 BYTE   W13
 BYTE   An1
 BYTE   W12
 BYTE   As1
 BYTE   W11
 BYTE   An1
 BYTE   W13
 BYTE   Fn1
 BYTE   W11
 BYTE   Dn1
 BYTE   W13
 BYTE   As0
 BYTE   W11
 BYTE   Dn1
 BYTE   W12
//  #02 //012   ----------------------------------------
Label_01055272:
//  #02 //013   ----------------------------------------
 BYTE   PATT
  POIN2 Label_010551EA
//  #02 //014   ----------------------------------------
 BYTE   N10  Fn1  v112
 BYTE   W12
 BYTE   An1
 BYTE   W12
 BYTE   As1
 BYTE   W12
 BYTE   An1
 BYTE   W12
 BYTE   Fn1
 BYTE   W12
 BYTE   Dn1
 BYTE   W13
 BYTE   As0
 BYTE   W11
 BYTE   Dn1
 BYTE   W12
//  #02 //015   ----------------------------------------
Label_01055289:
 BYTE   W01
 BYTE   N10  Dn1  v112
 BYTE   W11
 BYTE   Fn1
 BYTE   W12
 BYTE   Dn1
 BYTE   W12
 BYTE   Fn1
 BYTE   W12
 BYTE   As1
 BYTE   W12
 BYTE   An1
 BYTE   W12
 BYTE   Fn1
 BYTE   W12
 BYTE   Dn1
 BYTE   W12
 BYTE   PEND 
//  #02 //016   ----------------------------------------
 BYTE   W01
 BYTE   Fn1
 BYTE   W11
 BYTE   An1
 BYTE   W12
 BYTE   As1
 BYTE   W12
 BYTE   An1
 BYTE   W12
 BYTE   Fn1
 BYTE   W12
 BYTE   Dn1
 BYTE   W13
 BYTE   As0
 BYTE   W11
 BYTE   Dn1
 BYTE   W12
//  #02 //017   ----------------------------------------
 BYTE   W01
 BYTE   N10
 BYTE   W12
 BYTE   Fn1
 BYTE   W11
 BYTE   Dn1
 BYTE   W12
 BYTE   Fn1
 BYTE   W13
 BYTE   N09  As1
 BYTE   W11
 BYTE   N10  An1
 BYTE   W12
 BYTE   Fn1
 BYTE   W12
 BYTE   Dn1
 BYTE   W12
//  #02 //018   ----------------------------------------
 BYTE   Fn1
 BYTE   W13
 BYTE   An1
 BYTE   W12
 BYTE   N09  As1
 BYTE   W11
 BYTE   N10  An1
 BYTE   W13
 BYTE   Fn1
 BYTE   W12
 BYTE   Dn1
 BYTE   W12
 BYTE   As0
 BYTE   W11
 BYTE   Dn1
 BYTE   W12
//  #02 //019   ----------------------------------------
 BYTE   PATT
  POIN2 Label_01055289
//  #02 //020   ----------------------------------------
 BYTE   N10  Fn1  v112
 BYTE   W12
 BYTE   An1
 BYTE   W12
 BYTE   As1
 BYTE   W12
 BYTE   An1
 BYTE   W12
 BYTE   Fn1
 BYTE   W12
 BYTE   Dn1
 BYTE   W12
 BYTE   As0
 BYTE   W12
 BYTE   Dn1
 BYTE   W12
//  #02 //021   ----------------------------------------
 BYTE   W01
 BYTE   Fn1
 BYTE   W11
 BYTE   Gs1
 BYTE   W12
 BYTE   Fn1
 BYTE   W12
 BYTE   Gs1
 BYTE   W13
 BYTE   Cs2
 BYTE   W11
 BYTE   Cn2
 BYTE   W12
 BYTE   Gs1
 BYTE   W12
 BYTE   Fn1
 BYTE   W12
//  #02 //022   ----------------------------------------
Label_010552FB:
 BYTE   N10  Gs1  v112
 BYTE   W12
 BYTE   Cn2
 BYTE   W12
 BYTE   Cs2
 BYTE   W12
 BYTE   Cn2
 BYTE   W12
 BYTE   Gs1
 BYTE   W12
 BYTE   Fn1
 BYTE   W12
 BYTE   Cs1
 BYTE   W12
 BYTE   Fn1
 BYTE   W12
 BYTE   PEND 
//  #02 //023   ----------------------------------------
 BYTE   N10
 BYTE   W12
 BYTE   Gs1
 BYTE   W13
 BYTE   Fn1
 BYTE   W11
 BYTE   Gs1
 BYTE   W13
 BYTE   Cs2
 BYTE   W11
 BYTE   Cn2
 BYTE   W12
 BYTE   Gs1
 BYTE   W12
 BYTE   Fn1
 BYTE   W12
//  #02 //024   ----------------------------------------
 BYTE   PATT
  POIN2 Label_010552FB
//  #02 //025   ----------------------------------------
 BYTE   W01
 BYTE   N10  Cn1  v112
 BYTE   W11
 BYTE   Ds1
 BYTE   W13
 BYTE   Cn1
 BYTE   W11
 BYTE   Ds1
 BYTE   W13
 BYTE   Gs1
 BYTE   W11
 BYTE   Gn1
 BYTE   W12
 BYTE   Ds1
 BYTE   W12
 BYTE   Cn1
 BYTE   W12
//  #02 //026   ----------------------------------------
 BYTE   W01
 BYTE   Ds1
 BYTE   W11
 BYTE   Gn1
 BYTE   W13
 BYTE   Gs1
 BYTE   W12
 BYTE   Gn1
 BYTE   W12
 BYTE   Ds1
 BYTE   W12
 BYTE   Cn1
 BYTE   W12
 BYTE   N09  Gn0
 BYTE   W11
 BYTE   N10  Ds1
 BYTE   W12
//  #02 //027   ----------------------------------------
 BYTE   Cn1
 BYTE   W12
 BYTE   Ds1
 BYTE   W12
 BYTE   Cn1
 BYTE   W12
 BYTE   Ds1
 BYTE   W13
 BYTE   Gs1
 BYTE   W11
 BYTE   Gn1
 BYTE   W13
 BYTE   Ds1
 BYTE   W11
 BYTE   Cn1
 BYTE   W12
//  #02 //028   ----------------------------------------
 BYTE   Ds1
 BYTE   W12
 BYTE   Gn1
 BYTE   W12
 BYTE   Gs1
 BYTE   W12
 BYTE   Gn1
 BYTE   W13
 BYTE   Ds1
 BYTE   W11
 BYTE   Cn1
 BYTE   W12
 BYTE   Gn0
 BYTE   W12
 BYTE   Ds1
 BYTE   W12
//  #02 //029   ----------------------------------------
 BYTE   An0
 BYTE   W12
 BYTE   Cn1
 BYTE   W12
 BYTE   An0
 BYTE   W12
 BYTE   Cn1
 BYTE   W12
 BYTE   Fn1
 BYTE   W12
 BYTE   N11  En1
 BYTE   W12
 BYTE   N10  Cn1
 BYTE   W12
 BYTE   N11  An0
 BYTE   W12
//  #02 //030   ----------------------------------------
 BYTE   N10  Cn1
 BYTE   W12
 BYTE   En1
 BYTE   W12
 BYTE   Fn1
 BYTE   W12
 BYTE   En1
 BYTE   W12
 BYTE   Cn1
 BYTE   W12
 BYTE   N11  An0
 BYTE   W12
 BYTE   N10  En0
 BYTE   W12
 BYTE   An0
 BYTE   W12
//  #02 //031   ----------------------------------------
 BYTE   W01
 BYTE   N10
 BYTE   W11
 BYTE   Cn1
 BYTE   W12
 BYTE   An0
 BYTE   W12
 BYTE   Cn1
 BYTE   W12
 BYTE   Fn1
 BYTE   W12
 BYTE   En1
 BYTE   W12
 BYTE   Cn1
 BYTE   W12
 BYTE   An0
 BYTE   W12
//  #02 //032   ----------------------------------------
 BYTE   Cn1
 BYTE   W12
 BYTE   N11  En1
 BYTE   W12
 BYTE   N10  Fn1
 BYTE   W12
 BYTE   N11  En1
 BYTE   W12
 BYTE   N10  Cn1
 BYTE   W12
 BYTE   An0
 BYTE   W12
 BYTE   En0
 BYTE   W12
 BYTE   An0
 BYTE   W12
//  #02 //033   ----------------------------------------
 BYTE   En1
 BYTE   W12
 BYTE   N11  Gn1
 BYTE   W12
 BYTE   N10  En1
 BYTE   W12
 BYTE   Gn1
 BYTE   W12
 BYTE   Cn2
 BYTE   W12
 BYTE   Bn1
 BYTE   W12
 BYTE   Gn1
 BYTE   W12
 BYTE   En1
 BYTE   W12
//  #02 //034   ----------------------------------------
 BYTE   Gn1
 BYTE   W12
 BYTE   Bn1
 BYTE   W12
 BYTE   Cn2
 BYTE   W12
 BYTE   Bn1
 BYTE   W12
 BYTE   Gn1
 BYTE   W12
 BYTE   En1
 BYTE   W12
 BYTE   Bn0
 BYTE   W12
 BYTE   En1
 BYTE   W12
//  #02 //035   ----------------------------------------
 BYTE   W01
 BYTE   N10
 BYTE   W11
 BYTE   Gn1
 BYTE   W12
 BYTE   En1
 BYTE   W12
 BYTE   Gn1
 BYTE   W12
 BYTE   Cn2
 BYTE   W12
 BYTE   N11  Bn1
 BYTE   W12
 BYTE   N10  Gn1
 BYTE   W12
 BYTE   En1
 BYTE   W12
//  #02 //036   ----------------------------------------
 BYTE   Gn1
 BYTE   W12
 BYTE   Bn1
 BYTE   W12
 BYTE   Cn2
 BYTE   W12
 BYTE   N11  Bn1
 BYTE   W12
 BYTE   Gn1
 BYTE   W12
 BYTE   N10  En1
 BYTE   W12
 BYTE   Bn0
 BYTE   W12
 BYTE   En1
 BYTE   W12
//  #02 //037   ----------------------------------------
 BYTE   Gn1
 BYTE   W12
 BYTE   N11  As1
 BYTE   W12
 BYTE   N10  Gn1
 BYTE   W12
 BYTE   N11  As1
 BYTE   W12
 BYTE   N10  Ds2
 BYTE   W12
 BYTE   Dn2
 BYTE   W12
 BYTE   As1
 BYTE   W12
 BYTE   N11  Gn1
 BYTE   W12
//  #02 //038   ----------------------------------------
 BYTE   N10  As1
 BYTE   W12
 BYTE   N11  Dn2
 BYTE   W12
 BYTE   N10  Ds2
 BYTE   W12
 BYTE   Dn2
 BYTE   W12
 BYTE   As1
 BYTE   W12
 BYTE   Gn1
 BYTE   W12
 BYTE   Dn1
 BYTE   W12
 BYTE   Gn1
 BYTE   W12
//  #02 //039   ----------------------------------------
 BYTE   N10
 BYTE   W12
 BYTE   As1
 BYTE   W12
 BYTE   Gn1
 BYTE   W12
 BYTE   As1
 BYTE   W12
 BYTE   Ds2
 BYTE   W12
 BYTE   N11  Dn2
 BYTE   W12
 BYTE   N10  As1
 BYTE   W12
 BYTE   Gn1
 BYTE   W12
//  #02 //040   ----------------------------------------
 BYTE   As1
 BYTE   W12
 BYTE   Dn2
 BYTE   W12
 BYTE   Ds2
 BYTE   W12
 BYTE   Dn2
 BYTE   W12
 BYTE   As1
 BYTE   W12
 BYTE   N11  Gn1
 BYTE   W12
 BYTE   N10  Dn1
 BYTE   W12
 BYTE   Gn1
 BYTE   W12
//  #02 //041   ----------------------------------------
 BYTE   W01
 BYTE   Dn1
 BYTE   W11
 BYTE   Fn1
 BYTE   W12
 BYTE   Dn1
 BYTE   W12
 BYTE   N11  Fn1
 BYTE   W12
 BYTE   N10  As1
 BYTE   W12
 BYTE   N11  An1
 BYTE   W12
 BYTE   N10  Fn1
 BYTE   W12
 BYTE   Dn1
 BYTE   W12
//  #02 //042   ----------------------------------------
 BYTE   Fn1
 BYTE   W12
 BYTE   An1
 BYTE   W12
 BYTE   As1
 BYTE   W12
 BYTE   An1
 BYTE   W12
 BYTE   Fn1
 BYTE   W12
 BYTE   Dn1
 BYTE   W13
 BYTE   An0
 BYTE   W11
 BYTE   Dn1
 BYTE   W12
//  #02 //043   ----------------------------------------
 BYTE   N10
 BYTE   W12
 BYTE   N11  Fn1
 BYTE   W12
 BYTE   N10  Dn1
 BYTE   W12
 BYTE   Fn1
 BYTE   W12
 BYTE   As1
 BYTE   W12
 BYTE   An1
 BYTE   W12
 BYTE   Fn1
 BYTE   W12
 BYTE   Dn1
 BYTE   W12
//  #02 //044   ----------------------------------------
 BYTE   Fn1
 BYTE   W12
 BYTE   N11  An1
 BYTE   W12
 BYTE   N10  As1
 BYTE   W12
 BYTE   An1
 BYTE   W12
 BYTE   Fn1
 BYTE   W12
 BYTE   N11  Dn1
 BYTE   W12
 BYTE   N10  An0
 BYTE   W12
 BYTE   Dn1
 BYTE   W12
//  #02 //045   ----------------------------------------
 BYTE   Fn1
 BYTE   W12
 BYTE   N10
 BYTE   W12
 BYTE   N10
 BYTE   W13
 BYTE   N10
 BYTE   W11
 BYTE   N10
 BYTE   W12
 BYTE   N10
 BYTE   W13
 BYTE   N10
 BYTE   W11
 BYTE   N10
 BYTE   W12
//  #02 //046   ----------------------------------------
Label_010554A2:
 BYTE   N10  Fn1  v112
 BYTE   W12
 BYTE   N10
 BYTE   W13
 BYTE   N10
 BYTE   W11
 BYTE   N10
 BYTE   W12
 BYTE   N10
 BYTE   W12
 BYTE   N10
 BYTE   W12
 BYTE   N10
 BYTE   W12
 BYTE   N10
 BYTE   W12
 BYTE   PEND 
//  #02 //047   ----------------------------------------
 BYTE   W01
 BYTE   N10
 BYTE   W11
 BYTE   N10
 BYTE   W12
 BYTE   N10
 BYTE   W12
 BYTE   N10
 BYTE   W12
 BYTE   N10
 BYTE   W12
 BYTE   N10
 BYTE   W13
 BYTE   N10
 BYTE   W11
 BYTE   N10
 BYTE   W12
//  #02 //048   ----------------------------------------
 BYTE   N10
 BYTE   W12
 BYTE   N10
 BYTE   W12
 BYTE   N10
 BYTE   W12
 BYTE   N11
 BYTE   W13
 BYTE   N10
 BYTE   W11
 BYTE   N10
 BYTE   W12
 BYTE   N10
 BYTE   W12
 BYTE   N10
 BYTE   W12
//  #02 //049   ----------------------------------------
 BYTE   N10
 BYTE   W12
 BYTE   N10
 BYTE   W12
 BYTE   N10
 BYTE   W12
 BYTE   N10
 BYTE   W13
 BYTE   N10
 BYTE   W11
 BYTE   N11
 BYTE   W13
 BYTE   N10
 BYTE   W11
 BYTE   N10
 BYTE   W12
//  #02 //050   ----------------------------------------
 BYTE   PATT
  POIN2 Label_010554A2
//  #02 //051   ----------------------------------------
 BYTE   N10  Fn1  v112
 BYTE   W12
 BYTE   N10
 BYTE   W12
 BYTE   N10
 BYTE   W12
 BYTE   N10
 BYTE   W12
 BYTE   N10
 BYTE   W12
 BYTE   N11
 BYTE   W13
 BYTE   N10
 BYTE   W11
 BYTE   N10
 BYTE   W12
//  #02 //052   ----------------------------------------
 BYTE   N10
 BYTE   W13
 BYTE   N10
 BYTE   W12
 BYTE   N10
 BYTE   W11
 BYTE   N10
 BYTE   W13
 BYTE   N10
 BYTE   W11
 BYTE   N10
 BYTE   W12
 BYTE   N10
 BYTE   W12
 BYTE   N10
 BYTE   W12
//  #02 //053   ----------------------------------------
 BYTE   W01
 BYTE   Cn1
 BYTE   W12
 BYTE   En1
 BYTE   W11
 BYTE   Cn1
 BYTE   W12
 BYTE   En1
 BYTE   W13
 BYTE   Gs1
 BYTE   W11
 BYTE   Gn1
 BYTE   W12
 BYTE   En1
 BYTE   W12
 BYTE   Cn1
 BYTE   W12
//  #02 //054   ----------------------------------------
 BYTE   En1
 BYTE   W12
 BYTE   Gn1
 BYTE   W13
 BYTE   Gs1
 BYTE   W11
 BYTE   Gn1
 BYTE   W13
 BYTE   En1
 BYTE   W11
 BYTE   Cn1
 BYTE   W12
 BYTE   Gn0
 BYTE   W12
 BYTE   Cn1
 BYTE   W12
//  #02 //055   ----------------------------------------
 BYTE   N10
 BYTE   W12
 BYTE   En1
 BYTE   W12
 BYTE   Cn1
 BYTE   W12
 BYTE   En1
 BYTE   W12
 BYTE   Gs1
 BYTE   W12
 BYTE   Gn1
 BYTE   W12
 BYTE   En1
 BYTE   W12
 BYTE   Cn1
 BYTE   W12
//  #02 //056   ----------------------------------------
 BYTE   W01
 BYTE   En1
 BYTE   W11
 BYTE   Gn1
 BYTE   W12
 BYTE   Gs1
 BYTE   W12
 BYTE   Gn1
 BYTE   W12
 BYTE   En1
 BYTE   W12
 BYTE   Cn1
 BYTE   W12
 BYTE   Gn0
 BYTE   W12
 BYTE   Cn1
 BYTE   W12
//  #02 //057   ----------------------------------------
 BYTE   GoTo
  POIN2 Label_01055272
 BYTE   FINE

//**************** Track 3 (Midi-Chn.2) ****************//

song1D_003:
//  #03 //000   ----------------------------------------
 BYTE   KEYSH   song1D_key+0
 BYTE   VOICE   48
 BYTE   VOL   29*song1D_mvl/mxv
 BYTE   PAN   c_v+0
 BYTE   BEND   c_v+0
 BYTE   W96
//  #03 //001   ----------------------------------------
 BYTE   W96
//  #03 //002   ----------------------------------------
 BYTE   W96
//  #03 //003   ----------------------------------------
 BYTE   W96
//  #03 //004   ----------------------------------------
Label_01055E26:
 BYTE   W01
 BYTE   TIE  Dn3  v112
 BYTE   TIE  Gs3
 BYTE   W92
 BYTE   W03
 BYTE   PEND 
//  #03 //005   ----------------------------------------
 BYTE   W92
 BYTE   W02
 BYTE   EOT
 BYTE   Dn3
 BYTE   W01
 BYTE   Gs3
 BYTE   W01
//  #03 //006   ----------------------------------------
 BYTE   W01
 BYTE   N03  Dn3
 BYTE   N03  An3
 BYTE   W05
 BYTE   N04  Dn3
 BYTE   N04  An3
 BYTE   W07
 BYTE   N03  Dn3
 BYTE   N03  An3
 BYTE   W06
 BYTE   N04  Dn3
 BYTE   N04  An3
 BYTE   W06
 BYTE   N03  Dn3
 BYTE   N03  An3
 BYTE   W68
 BYTE   W03
//  #03 //007   ----------------------------------------
 BYTE   W96
//  #03 //008   ----------------------------------------
 BYTE   PATT
  POIN2 Label_01055E26
//  #03 //009   ----------------------------------------
 BYTE   W01
 BYTE   N92  Dn4  v112
 BYTE   W92
 BYTE   W02
 BYTE   EOT
 BYTE   Dn3  v068
 BYTE   W01
//  #03 //010   ----------------------------------------
 BYTE   W01
 BYTE   N03  Dn3
 BYTE   N03  An3
 BYTE   W06
 BYTE   N04  Dn3
 BYTE   N04  An3
 BYTE   W06
 BYTE   Dn3
 BYTE   N03  An3
 BYTE   W05
 BYTE   N04  Dn3
 BYTE   W01
 BYTE   An3
 BYTE   W06
 BYTE   N03  Dn3
 BYTE   N04  An3
 BYTE   W36
 BYTE   N03  Fn3
 BYTE   N03  An3
 BYTE   W05
 BYTE   N04  Fn3
 BYTE   N04  An3
 BYTE   W07
 BYTE   N03  Fn3
 BYTE   N03  An3
 BYTE   W05
 BYTE   N04  Fn3
 BYTE   W01
 BYTE   An3
 BYTE   W06
 BYTE   Fn3
 BYTE   N04  An3
 BYTE   W11
//  #03 //011   ----------------------------------------
 BYTE   W13
 BYTE   N03  Fn3
 BYTE   N04  An3
 BYTE   W05
 BYTE   Fn3
 BYTE   N04  An3
 BYTE   W07
 BYTE   Fn3
 BYTE   N03  An3
 BYTE   W05
 BYTE   N04  Fn3
 BYTE   N04  An3
 BYTE   W07
 BYTE   Fn3
 BYTE   N04  An3
 BYTE   W12
 BYTE   Fn3
 BYTE   N03  An3
 BYTE   W05
 BYTE   N04  Fn3
 BYTE   N04  An3
 BYTE   W07
 BYTE   Fn3
 BYTE   N04  An3
 BYTE   W05
 BYTE   Fn3
 BYTE   N04  An3
 BYTE   W07
 BYTE   N03  Fn3
 BYTE   N04  An3
 BYTE   W23
//  #03 //012   ----------------------------------------
Label_01055EBF:
 BYTE   W01
 BYTE   N07  Dn4  v112
 BYTE   N07  Fn4
 BYTE   W11
 BYTE   N05  En4
 BYTE   W01
 BYTE   Cn4
 BYTE   W12
 BYTE   N08  Dn4
 BYTE   N08  Fn4
 BYTE   W11
 BYTE   N05  Cn4
 BYTE   W01
 BYTE   En4
 BYTE   W12
 BYTE   N10  As3
 BYTE   N10  Dn4
 BYTE   W11
 BYTE   N05  An3
 BYTE   W01
 BYTE   Cn4
 BYTE   W12
 BYTE   N10  As3
 BYTE   N10  Dn4
 BYTE   W12
 BYTE   N05  An3
 BYTE   N05  Cn4
 BYTE   W11
//  #03 //013   ----------------------------------------
 BYTE   W01
 BYTE   N08  Dn4
 BYTE   N08  Fn4
 BYTE   W11
 BYTE   N05  En4
 BYTE   W01
 BYTE   Cn4
 BYTE   W12
 BYTE   N08  Dn4
 BYTE   N08  Fn4
 BYTE   W12
 BYTE   N05  Cn4
 BYTE   N05  En4
 BYTE   W12
 BYTE   N10  As3
 BYTE   N10  Dn4
 BYTE   W12
 BYTE   N05  An3
 BYTE   N05  Cn4
 BYTE   W12
 BYTE   N10  As3
 BYTE   N10  Dn4
 BYTE   W11
 BYTE   N05  An3
 BYTE   N05  Cn4
 BYTE   W12
//  #03 //014   ----------------------------------------
 BYTE   W01
 BYTE   N07  Dn4
 BYTE   N07  Fn4
 BYTE   W11
 BYTE   N05  En4
 BYTE   W01
 BYTE   Cn4
 BYTE   W12
 BYTE   N08  Dn4
 BYTE   N08  Fn4
 BYTE   W12
 BYTE   N05  Cn4
 BYTE   N05  En4
 BYTE   W12
 BYTE   N10  As3
 BYTE   N10  Dn4
 BYTE   W11
 BYTE   N05  An3
 BYTE   W01
 BYTE   Cn4
 BYTE   W12
 BYTE   N10  As3
 BYTE   N10  Dn4
 BYTE   W11
 BYTE   N05  Cn4
 BYTE   W01
 BYTE   An3
 BYTE   W11
//  #03 //015   ----------------------------------------
 BYTE   W01
 BYTE   N08  Dn4
 BYTE   N08  Fn4
 BYTE   W11
 BYTE   N05  En4
 BYTE   W01
 BYTE   Cn4
 BYTE   W12
 BYTE   N07  Dn4
 BYTE   N08  Fn4
 BYTE   W11
 BYTE   N05  Cn4
 BYTE   W01
 BYTE   En4
 BYTE   W12
 BYTE   N10  As3
 BYTE   N10  Dn4
 BYTE   W11
 BYTE   N05  An3
 BYTE   W01
 BYTE   Cn4
 BYTE   W12
 BYTE   N10  As3
 BYTE   N10  Dn4
 BYTE   W11
 BYTE   N05  Cn4
 BYTE   W01
 BYTE   An3
 BYTE   W11
//  #03 //016   ----------------------------------------
 BYTE   W01
 BYTE   N08  Dn4
 BYTE   N08  Fn4
 BYTE   W12
 BYTE   N05  Cn4
 BYTE   N05  En4
 BYTE   W12
 BYTE   N07  Dn4
 BYTE   N08  Fn4
 BYTE   W12
 BYTE   N05  Cn4
 BYTE   N05  En4
 BYTE   W12
 BYTE   N09  As3
 BYTE   N09  Dn4
 BYTE   W11
 BYTE   N05  An3
 BYTE   W01
 BYTE   Cn4
 BYTE   W12
 BYTE   N10  As3
 BYTE   N10  Dn4
 BYTE   W12
 BYTE   N05  An3
 BYTE   N05  Cn4
 BYTE   W11
//  #03 //017   ----------------------------------------
 BYTE   W01
 BYTE   N07  Dn4
 BYTE   N08  Fn4
 BYTE   W12
 BYTE   N05  Cn4
 BYTE   N05  En4
 BYTE   W12
 BYTE   N07  Dn4
 BYTE   N07  Fn4
 BYTE   W12
 BYTE   N05  Cn4
 BYTE   N05  En4
 BYTE   W12
 BYTE   N10  As3
 BYTE   N10  Dn4
 BYTE   W12
 BYTE   N05  An3
 BYTE   N05  Cn4
 BYTE   W12
 BYTE   N09  As3
 BYTE   N09  Dn4
 BYTE   W12
 BYTE   N05  An3
 BYTE   N05  Cn4
 BYTE   W11
//  #03 //018   ----------------------------------------
 BYTE   W01
 BYTE   N08  Dn4
 BYTE   N08  Fn4
 BYTE   W11
 BYTE   N05  En4
 BYTE   W01
 BYTE   Cn4
 BYTE   W12
 BYTE   N08  Dn4
 BYTE   N08  Fn4
 BYTE   W11
 BYTE   N05  Cn4
 BYTE   W01
 BYTE   En4
 BYTE   W12
 BYTE   N10  Fn4
 BYTE   N10  An4
 BYTE   W11
 BYTE   N05  Gn4
 BYTE   W01
 BYTE   En4
 BYTE   W12
 BYTE   N10  Fn4
 BYTE   N10  An4
 BYTE   W11
 BYTE   N05  En4
 BYTE   W01
 BYTE   Gn4
 BYTE   W11
//  #03 //019   ----------------------------------------
 BYTE   W01
 BYTE   N08  Dn4
 BYTE   N08  Fn4
 BYTE   W11
 BYTE   N05  En4
 BYTE   W01
 BYTE   Cn4
 BYTE   W12
 BYTE   N08  Dn4
 BYTE   N08  Fn4
 BYTE   W11
 BYTE   N05  Cn4
 BYTE   W01
 BYTE   En4
 BYTE   W12
 BYTE   N10  As3
 BYTE   N10  Dn4
 BYTE   W12
 BYTE   N05  An3
 BYTE   N05  Cn4
 BYTE   W12
 BYTE   N10  As3
 BYTE   N10  Dn4
 BYTE   W11
 BYTE   N05  Cn4
 BYTE   W01
 BYTE   An3
 BYTE   W11
//  #03 //020   ----------------------------------------
 BYTE   W01
 BYTE   N10  Gs3
 BYTE   N10  Cn4
 BYTE   W12
 BYTE   N05  Gn3
 BYTE   N05  As3
 BYTE   W12
 BYTE   N10  Gs3
 BYTE   N10  Cn4
 BYTE   W12
 BYTE   N05  Gn3
 BYTE   N05  As3
 BYTE   W12
 BYTE   N10  Fn3
 BYTE   N10  Gs3
 BYTE   W11
 BYTE   N05  Ds3
 BYTE   N05  Gn3
 BYTE   W13
 BYTE   N10  Fn3
 BYTE   N10  Gs3
 BYTE   W11
 BYTE   N05  Ds3
 BYTE   W01
 BYTE   Gn3
 BYTE   W11
//  #03 //021   ----------------------------------------
 BYTE   W01
 BYTE   N10  Gs3
 BYTE   N10  Cn4
 BYTE   W11
 BYTE   N05  As3
 BYTE   W01
 BYTE   Gn3
 BYTE   W12
 BYTE   N10  Gs3
 BYTE   N10  Cn4
 BYTE   W11
 BYTE   N05  As3
 BYTE   W01
 BYTE   Gn3
 BYTE   W12
 BYTE   N10  Fn3
 BYTE   N10  Gs3
 BYTE   W11
 BYTE   N05  Ds3
 BYTE   W01
 BYTE   Gn3
 BYTE   W11
 BYTE   N10  Gs3
 BYTE   W01
 BYTE   Fn3
 BYTE   W12
 BYTE   N05  Ds3
 BYTE   N05  Gn3
 BYTE   W11
//  #03 //022   ----------------------------------------
 BYTE   W01
 BYTE   N10  Gs3
 BYTE   N10  Cn4
 BYTE   W12
 BYTE   N05  Gn3
 BYTE   N05  As3
 BYTE   W12
 BYTE   N10  Gs3
 BYTE   N10  Cn4
 BYTE   W11
 BYTE   N05  As3
 BYTE   W01
 BYTE   Gn3
 BYTE   W12
 BYTE   N10  Fn3
 BYTE   N10  Gs3
 BYTE   W11
 BYTE   N05  Ds3
 BYTE   W01
 BYTE   Gn3
 BYTE   W12
 BYTE   N10  Fn3
 BYTE   N10  Gs3
 BYTE   W12
 BYTE   N05  Ds3
 BYTE   N05  Gn3
 BYTE   W11
//  #03 //023   ----------------------------------------
 BYTE   W01
 BYTE   N10  Gs3
 BYTE   N10  Cn4
 BYTE   W11
 BYTE   N05  As3
 BYTE   W01
 BYTE   Gn3
 BYTE   W12
 BYTE   N10  Gs3
 BYTE   N10  Cn4
 BYTE   W11
 BYTE   N05  As3
 BYTE   W01
 BYTE   Gn3
 BYTE   W12
 BYTE   N10  Fn3
 BYTE   N10  Gs3
 BYTE   W11
 BYTE   N05  Ds3
 BYTE   W01
 BYTE   Gn3
 BYTE   W12
 BYTE   N10  Fn3
 BYTE   N10  Gs3
 BYTE   W11
 BYTE   N05  Ds3
 BYTE   N05  Gn3
 BYTE   W12
//  #03 //024   ----------------------------------------
 BYTE   W01
 BYTE   N09  Gs3
 BYTE   N10  Cn4
 BYTE   W12
 BYTE   N05  Gn3
 BYTE   N05  As3
 BYTE   W12
 BYTE   N10  Gs3
 BYTE   N10  Cn4
 BYTE   W12
 BYTE   N05  Gn3
 BYTE   N05  As3
 BYTE   W12
 BYTE   N10  Fn3
 BYTE   N10  Gs3
 BYTE   W12
 BYTE   N05  Ds3
 BYTE   N05  Gn3
 BYTE   W12
 BYTE   N10  Fn3
 BYTE   N10  Gs3
 BYTE   W11
 BYTE   N05  Ds3
 BYTE   W01
 BYTE   Gn3
 BYTE   W11
//  #03 //025   ----------------------------------------
 BYTE   W01
 BYTE   N10  Gs3
 BYTE   N10  Cn4
 BYTE   W12
 BYTE   N05  Gn3
 BYTE   N05  As3
 BYTE   W12
 BYTE   N09  Gs3
 BYTE   N10  Cn4
 BYTE   W12
 BYTE   N05  Gn3
 BYTE   N05  As3
 BYTE   W12
 BYTE   N10  Fn3
 BYTE   N09  Gs3
 BYTE   W12
 BYTE   N06  Ds3
 BYTE   N05  Gn3
 BYTE   W12
 BYTE   N09  Fn3
 BYTE   N09  Gs3
 BYTE   W11
 BYTE   N05  Ds3
 BYTE   W01
 BYTE   Gn3
 BYTE   W11
//  #03 //026   ----------------------------------------
 BYTE   W01
 BYTE   Gs3
 BYTE   N05  Cn4
 BYTE   W11
 BYTE   As3
 BYTE   W01
 BYTE   Gn3
 BYTE   W12
 BYTE   Gs3
 BYTE   N05  Cn4
 BYTE   W11
 BYTE   N10  Gn4
 BYTE   W01
 BYTE   Ds4
 BYTE   W12
 BYTE   N05  Dn4
 BYTE   N05  Fn4
 BYTE   W11
 BYTE   Ds4
 BYTE   W01
 BYTE   Gn4
 BYTE   W12
 BYTE   N10
 BYTE   N10  As4
 BYTE   W11
 BYTE   N05  Fn4
 BYTE   W01
 BYTE   Gs4
 BYTE   W11
//  #03 //027   ----------------------------------------
 BYTE   W01
 BYTE   Gn4
 BYTE   N05  As4
 BYTE   W11
 BYTE   N10  Ds4
 BYTE   W01
 BYTE   Gn4
 BYTE   W12
 BYTE   N05  Dn4
 BYTE   N05  Fn4
 BYTE   W11
 BYTE   Ds4
 BYTE   W01
 BYTE   Gn4
 BYTE   W12
 BYTE   N10  Cn4
 BYTE   N10  Ds4
 BYTE   W12
 BYTE   N05  As3
 BYTE   N05  Dn4
 BYTE   W12
 BYTE   N10  Cn4
 BYTE   N10  Ds4
 BYTE   W11
 BYTE   N08  As3
 BYTE   W01
 BYTE   Dn4
 BYTE   W11
//  #03 //028   ----------------------------------------
 BYTE   W01
 BYTE   N54  An2
 BYTE   TIE  En3
 BYTE   TIE  Cn4
 BYTE   W68
 BYTE   W03
 BYTE   N18  Bn2
 BYTE   W24
//  #03 //029   ----------------------------------------
 BYTE   N72  Cn3
 BYTE   W96
//  #03 //030   ----------------------------------------
 BYTE   W92
 BYTE   W01
 BYTE   EOT
 BYTE   En3
 BYTE   W01
 BYTE   Cn4
 BYTE   W02
//  #03 //031   ----------------------------------------
 BYTE   W96
//  #03 //032   ----------------------------------------
 BYTE   TIE  En4
 BYTE   W01
 BYTE   En3
 BYTE   W92
 BYTE   W03
//  #03 //033   ----------------------------------------
 BYTE   W96
//  #03 //034   ----------------------------------------
 BYTE   W96
//  #03 //035   ----------------------------------------
 BYTE   W92
 BYTE   W01
 BYTE   EOT
 BYTE   En4
 BYTE   W01
 BYTE   En3
 BYTE   W02
//  #03 //036   ----------------------------------------
 BYTE   TIE  Dn3
 BYTE   TIE  As3
 BYTE   W96
//  #03 //037   ----------------------------------------
 BYTE   W96
//  #03 //038   ----------------------------------------
 BYTE   W96
//  #03 //039   ----------------------------------------
 BYTE   W92
 BYTE   W01
 BYTE   EOT
 BYTE   Dn3  v070
 BYTE   W03
//  #03 //040   ----------------------------------------
 BYTE   W01
 BYTE   TIE  Fn3
 BYTE   TIE  Dn4
 BYTE   W92
 BYTE   W03
//  #03 //041   ----------------------------------------
 BYTE   W96
//  #03 //042   ----------------------------------------
 BYTE   W96
//  #03 //043   ----------------------------------------
 BYTE   W92
 BYTE   W01
 BYTE   EOT
 BYTE   Fn3  v074
 BYTE   W03
//  #03 //044   ----------------------------------------
 BYTE   W01
 BYTE   N92  Cn3
 BYTE   N92  An3
 BYTE   W92
 BYTE   W03
//  #03 //045   ----------------------------------------
 BYTE   W01
 BYTE   Fn3
 BYTE   N92  Cn4
 BYTE   W92
 BYTE   W03
//  #03 //046   ----------------------------------------
 BYTE   W01
 BYTE   Dn3
 BYTE   N92  Bn3
 BYTE   W92
 BYTE   W03
//  #03 //047   ----------------------------------------
 BYTE   W01
 BYTE   Gn3
 BYTE   N92  Dn4
 BYTE   W92
 BYTE   W03
//  #03 //048   ----------------------------------------
 BYTE   W01
 BYTE   TIE  Gs3
 BYTE   TIE  Ds4
 BYTE   W92
 BYTE   W03
//  #03 //049   ----------------------------------------
 BYTE   W92
 BYTE   W03
 BYTE   EOT
 BYTE   Gs3  v075
 BYTE   W01
//  #03 //050   ----------------------------------------
 BYTE   W01
 BYTE   TIE  As3
 BYTE   TIE  Fn4
 BYTE   W92
 BYTE   W03
//  #03 //051   ----------------------------------------
 BYTE   W92
 BYTE   W03
 BYTE   EOT
 BYTE   As3  v077
 BYTE   W01
//  #03 //052   ----------------------------------------
 BYTE   W01
 BYTE   N10  Cn4
 BYTE   N10  En4
 BYTE   W12
 BYTE   N05  As3
 BYTE   N05  Dn4
 BYTE   W12
 BYTE   N10  Cn4
 BYTE   N10  En4
 BYTE   W12
 BYTE   N05  As3
 BYTE   N05  Dn4
 BYTE   W12
 BYTE   N10  Gs3
 BYTE   N10  Cn4
 BYTE   W11
 BYTE   N05  Gn3
 BYTE   W01
 BYTE   As3
 BYTE   W12
 BYTE   N10  Gs3
 BYTE   N10  Cn4
 BYTE   W11
 BYTE   N05  Gn3
 BYTE   W01
 BYTE   As3
 BYTE   W11
//  #03 //053   ----------------------------------------
 BYTE   W01
 BYTE   N10  Cn4
 BYTE   N10  En4
 BYTE   W12
 BYTE   N05  As3
 BYTE   N05  Dn4
 BYTE   W12
 BYTE   N10  Cn4
 BYTE   N10  En4
 BYTE   W11
 BYTE   N05  As3
 BYTE   N05  Dn4
 BYTE   W13
 BYTE   N10  Gs3
 BYTE   N10  Cn4
 BYTE   W11
 BYTE   N05  Gn3
 BYTE   W01
 BYTE   As3
 BYTE   W12
 BYTE   N10  Gs3
 BYTE   N10  Cn4
 BYTE   W12
 BYTE   N05  Gn3
 BYTE   N05  As3
 BYTE   W11
//  #03 //054   ----------------------------------------
 BYTE   W01
 BYTE   N10  Cn4
 BYTE   N10  En4
 BYTE   W12
 BYTE   N05  As3
 BYTE   N05  Dn4
 BYTE   W12
 BYTE   N10  Cn4
 BYTE   N10  En4
 BYTE   W11
 BYTE   N05  As3
 BYTE   W01
 BYTE   Dn4
 BYTE   W12
 BYTE   N10  Gs3
 BYTE   N10  Cn4
 BYTE   W11
 BYTE   N05  Gn3
 BYTE   W01
 BYTE   As3
 BYTE   W12
 BYTE   N10  Gs3
 BYTE   N10  Cn4
 BYTE   W12
 BYTE   N05  Gn3
 BYTE   N05  As3
 BYTE   W11
//  #03 //055   ----------------------------------------
 BYTE   W01
 BYTE   N10  Cn4
 BYTE   N10  En4
 BYTE   W11
 BYTE   N05  As3
 BYTE   N05  Dn4
 BYTE   W13
 BYTE   N10  Cn4
 BYTE   N10  En4
 BYTE   W11
 BYTE   N05  As3
 BYTE   W01
 BYTE   Dn4
 BYTE   W11
 BYTE   N10  Gs3
 BYTE   W01
 BYTE   Cn4
 BYTE   W12
 BYTE   N05  Gn3
 BYTE   N05  As3
 BYTE   W12
 BYTE   N10  Gs3
 BYTE   N10  Cn4
 BYTE   W11
 BYTE   N05  Gn3
 BYTE   W01
 BYTE   As3
 BYTE   W11
//  #03 //056   ----------------------------------------
 BYTE   GoTo
  POIN2 Label_01055EBF
 BYTE   FINE

//**************** Track 4 (Midi-Chn.3) ****************//

song1D_004:
//  #04 //000   ----------------------------------------
 BYTE   KEYSH   song1D_key+0
 BYTE   VOICE   61
 BYTE   PAN   c_v+0
 BYTE   VOL   35*song1D_mvl/mxv
 BYTE   BEND   c_v+0
 BYTE   W96
//  #04 //001   ----------------------------------------
 BYTE   W96
//  #04 //002   ----------------------------------------
 BYTE   W96
//  #04 //003   ----------------------------------------
 BYTE   W96
//  #04 //004   ----------------------------------------
 BYTE   W96
//  #04 //005   ----------------------------------------
 BYTE   W96
//  #04 //006   ----------------------------------------
 BYTE   W01
 BYTE   N01  An3  v112
 BYTE   W01
 BYTE   Fn3
 BYTE   W04
 BYTE   N02
 BYTE   W01
 BYTE   An3
 BYTE   W06
 BYTE   N01  Fn3
 BYTE   W01
 BYTE   An3
 BYTE   W05
 BYTE   Fn3
 BYTE   N01  An3
 BYTE   W06
 BYTE   Fn3
 BYTE   W01
 BYTE   An3
 BYTE   W68
 BYTE   W02
//  #04 //007   ----------------------------------------
 BYTE   W96
//  #04 //008   ----------------------------------------
 BYTE   W96
//  #04 //009   ----------------------------------------
 BYTE   W96
//  #04 //010   ----------------------------------------
 BYTE   W01
 BYTE   Fn3
 BYTE   N01  An3
 BYTE   W06
 BYTE   Fn3
 BYTE   N01  An3
 BYTE   W06
 BYTE   Fn3
 BYTE   N01  An3
 BYTE   W06
 BYTE   Fn3
 BYTE   N01  An3
 BYTE   W06
 BYTE   Fn3
 BYTE   N01  An3
 BYTE   W36
 BYTE   Fn3
 BYTE   N01  An3
 BYTE   W05
 BYTE   N02  Fn3
 BYTE   W01
 BYTE   An3
 BYTE   W06
 BYTE   N01
 BYTE   W01
 BYTE   Fn3
 BYTE   W05
 BYTE   N02
 BYTE   N01  An3
 BYTE   W06
 BYTE   N02  Fn3
 BYTE   N02  An3
 BYTE   W11
//  #04 //011   ----------------------------------------
 BYTE   W13
 BYTE   N01  Fn3
 BYTE   N01  An3
 BYTE   W06
 BYTE   N02  Fn3
 BYTE   N02  An3
 BYTE   W06
 BYTE   N01  Fn3
 BYTE   N01  An3
 BYTE   W06
 BYTE   N02  Fn3
 BYTE   N02  An3
 BYTE   W06
 BYTE   Fn3
 BYTE   N02  An3
 BYTE   W12
 BYTE   N01  Fn3
 BYTE   N01  An3
 BYTE   W05
 BYTE   N02  Fn3
 BYTE   W01
 BYTE   An3
 BYTE   W06
 BYTE   Fn3
 BYTE   N02  An3
 BYTE   W06
 BYTE   Fn3
 BYTE   N01  An3
 BYTE   W06
 BYTE   Fn3
 BYTE   N01  An3
 BYTE   W23
//  #04 //012   ----------------------------------------
Label_010562EE:
 BYTE   W96
//  #04 //013   ----------------------------------------
 BYTE   W96
//  #04 //014   ----------------------------------------
 BYTE   W96
//  #04 //015   ----------------------------------------
 BYTE   W96
//  #04 //016   ----------------------------------------
 BYTE   W01
 BYTE   N01  Fn3  v112
 BYTE   N01  An3
 BYTE   W05
 BYTE   N02  Fn3
 BYTE   N03  An3
 BYTE   W07
 BYTE   N02  Fn3
 BYTE   N02  An3
 BYTE   W24
 BYTE   Fn3
 BYTE   N01  An3
 BYTE   W05
 BYTE   N02  Fn3
 BYTE   W01
 BYTE   An3
 BYTE   W07
 BYTE   N01  Fn3
 BYTE   N01  An3
 BYTE   W44
 BYTE   W02
//  #04 //017   ----------------------------------------
 BYTE   W13
 BYTE   Fn3
 BYTE   W01
 BYTE   An3
 BYTE   W04
 BYTE   N02  Fn3
 BYTE   W01
 BYTE   An3
 BYTE   W07
 BYTE   N01  Fn3
 BYTE   N01  An3
 BYTE   W04
 BYTE   N03  Fn3
 BYTE   N02  An3
 BYTE   W07
 BYTE   Fn3
 BYTE   N02  An3
 BYTE   W12
 BYTE   N01  Fn3
 BYTE   N01  An3
 BYTE   W05
 BYTE   N02  Fn3
 BYTE   W01
 BYTE   An3
 BYTE   W06
 BYTE   N01  Fn3
 BYTE   W01
 BYTE   An3
 BYTE   W04
 BYTE   N02  Fn3
 BYTE   N02  An3
 BYTE   W07
 BYTE   N01  Fn3
 BYTE   W01
 BYTE   An3
 BYTE   W22
//  #04 //018   ----------------------------------------
 BYTE   W96
//  #04 //019   ----------------------------------------
 BYTE   W96
//  #04 //020   ----------------------------------------
 BYTE   W96
//  #04 //021   ----------------------------------------
 BYTE   W96
//  #04 //022   ----------------------------------------
 BYTE   W96
//  #04 //023   ----------------------------------------
 BYTE   W96
//  #04 //024   ----------------------------------------
 BYTE   W01
 BYTE   Fn3
 BYTE   N01  Gs3
 BYTE   W05
 BYTE   N02  Fn3
 BYTE   N02  Gs3
 BYTE   W07
 BYTE   Fn3
 BYTE   N02  Gs3
 BYTE   W24
 BYTE   Fn3
 BYTE   N02  Gs3
 BYTE   W05
 BYTE   Fn3
 BYTE   W01
 BYTE   Gs3
 BYTE   W06
 BYTE   N01  Fn3
 BYTE   N01  Gs3
 BYTE   W44
 BYTE   W03
//  #04 //025   ----------------------------------------
 BYTE   W13
 BYTE   N02  Fn3
 BYTE   N02  Gs3
 BYTE   W05
 BYTE   Fn3
 BYTE   W01
 BYTE   Gs3
 BYTE   W06
 BYTE   N01  Fn3
 BYTE   N01  Gs3
 BYTE   W05
 BYTE   N03  Fn3
 BYTE   N02  Gs3
 BYTE   W07
 BYTE   Fn3
 BYTE   N02  Gs3
 BYTE   W12
 BYTE   N01  Fn3
 BYTE   N01  Gs3
 BYTE   W05
 BYTE   N02  Fn3
 BYTE   N02  Gs3
 BYTE   W07
 BYTE   N01  Fn3
 BYTE   N01  Gs3
 BYTE   W06
 BYTE   N02  Fn3
 BYTE   N02  Gs3
 BYTE   W07
 BYTE   N01  Fn3
 BYTE   N01  Gs3
 BYTE   W22
//  #04 //026   ----------------------------------------
 BYTE   W96
//  #04 //027   ----------------------------------------
 BYTE   W96
//  #04 //028   ----------------------------------------
 BYTE   W96
//  #04 //029   ----------------------------------------
 BYTE   W72
 BYTE   N03  An3
 BYTE   W01
 BYTE   An2
 BYTE   W05
 BYTE   Bn2
 BYTE   N03  Bn3
 BYTE   W06
 BYTE   Cn4
 BYTE   W01
 BYTE   Cn3
 BYTE   W05
 BYTE   Dn4
 BYTE   W01
 BYTE   Dn3
 BYTE   W05
//  #04 //030   ----------------------------------------
 BYTE   W01
 BYTE   TIE  En3
 BYTE   TIE  En4
 BYTE   W92
 BYTE   W03
//  #04 //031   ----------------------------------------
 BYTE   W92
 BYTE   W02
 BYTE   EOT
 BYTE   En3  v076
 BYTE   W02
//  #04 //032   ----------------------------------------
 BYTE   W96
//  #04 //033   ----------------------------------------
 BYTE   W72
 BYTE   N03  En3
 BYTE   W01
 BYTE   En2
 BYTE   W05
 BYTE   Fs2
 BYTE   N04  Fs3
 BYTE   W06
 BYTE   N03  Gn3
 BYTE   W01
 BYTE   Gn2
 BYTE   W05
 BYTE   An2
 BYTE   N03  An3
 BYTE   W06
//  #04 //034   ----------------------------------------
 BYTE   W01
 BYTE   TIE  Bn2
 BYTE   TIE  Bn3
 BYTE   W92
 BYTE   W03
//  #04 //035   ----------------------------------------
 BYTE   W92
 BYTE   W03
 BYTE   EOT
 BYTE   Bn2  v071
 BYTE   W01
//  #04 //036   ----------------------------------------
 BYTE   W96
//  #04 //037   ----------------------------------------
 BYTE   W72
 BYTE   N03  Gn3
 BYTE   W01
 BYTE   Gn2
 BYTE   W05
 BYTE   An2
 BYTE   N03  An3
 BYTE   W06
 BYTE   As3
 BYTE   W01
 BYTE   As2
 BYTE   W05
 BYTE   Cn3
 BYTE   N03  Cn4
 BYTE   W06
//  #04 //038   ----------------------------------------
 BYTE   W01
 BYTE   TIE  Dn3
 BYTE   TIE  Dn4
 BYTE   W92
 BYTE   W03
//  #04 //039   ----------------------------------------
 BYTE   W92
 BYTE   W03
 BYTE   EOT
 BYTE   Dn3  v074
 BYTE   W01
//  #04 //040   ----------------------------------------
 BYTE   W96
//  #04 //041   ----------------------------------------
 BYTE   W72
 BYTE   W01
 BYTE   N02  Dn2
 BYTE   N03  Dn3
 BYTE   W05
 BYTE   En2
 BYTE   N03  En3
 BYTE   W06
 BYTE   Fn2
 BYTE   W01
 BYTE   Fn3
 BYTE   W05
 BYTE   Gn2
 BYTE   N03  Gn3
 BYTE   W06
//  #04 //042   ----------------------------------------
 BYTE   W01
 BYTE   TIE  An2
 BYTE   TIE  An3
 BYTE   W92
 BYTE   W03
//  #04 //043   ----------------------------------------
 BYTE   W92
 BYTE   W03
 BYTE   EOT
 BYTE   An2  v069
 BYTE   W01
//  #04 //044   ----------------------------------------
 BYTE   W96
//  #04 //045   ----------------------------------------
 BYTE   W96
//  #04 //046   ----------------------------------------
 BYTE   W96
//  #04 //047   ----------------------------------------
 BYTE   W96
//  #04 //048   ----------------------------------------
 BYTE   W96
//  #04 //049   ----------------------------------------
 BYTE   W96
//  #04 //050   ----------------------------------------
 BYTE   W96
//  #04 //051   ----------------------------------------
 BYTE   W96
//  #04 //052   ----------------------------------------
 BYTE   W96
//  #04 //053   ----------------------------------------
 BYTE   W96
//  #04 //054   ----------------------------------------
 BYTE   W96
//  #04 //055   ----------------------------------------
 BYTE   W96
//  #04 //056   ----------------------------------------
 BYTE   GoTo
  POIN2 Label_010562EE
 BYTE   FINE

//**************** Track 5 (Midi-Chn.4) ****************//

song1D_005:
//  #05 //000   ----------------------------------------
 BYTE   KEYSH   song1D_key+0
 BYTE   VOICE   1
 BYTE   VOL   20*song1D_mvl/mxv
 BYTE   PAN   c_v-2
 BYTE   BEND   c_v+0
 BYTE   W96
//  #05 //001   ----------------------------------------
 BYTE   W96
//  #05 //002   ----------------------------------------
 BYTE   W96
//  #05 //003   ----------------------------------------
 BYTE   W96
//  #05 //004   ----------------------------------------
 BYTE   W02
 BYTE   N09  Dn1  v112
 BYTE   W11
 BYTE   N10  Fn1
 BYTE   W12
 BYTE   Dn1
 BYTE   W12
 BYTE   Fn1
 BYTE   W12
 BYTE   As1
 BYTE   W11
 BYTE   An1
 BYTE   W13
 BYTE   Fn1
 BYTE   W12
 BYTE   Dn1
 BYTE   W11
//  #05 //005   ----------------------------------------
 BYTE   W01
 BYTE   Fn1
 BYTE   W12
 BYTE   An1
 BYTE   W12
 BYTE   As1
 BYTE   W12
 BYTE   An1
 BYTE   W12
 BYTE   Fn1
 BYTE   W12
 BYTE   Dn1
 BYTE   W12
 BYTE   As0
 BYTE   W11
 BYTE   Dn1
 BYTE   W12
//  #05 //006   ----------------------------------------
 BYTE   W02
 BYTE   N09
 BYTE   W12
 BYTE   Fn1
 BYTE   W12
 BYTE   Dn1
 BYTE   W10
 BYTE   N10  Fn1
 BYTE   W13
 BYTE   As1
 BYTE   W12
 BYTE   An1
 BYTE   W12
 BYTE   Fn1
 BYTE   W11
 BYTE   Dn1
 BYTE   W12
//  #05 //007   ----------------------------------------
 BYTE   W01
 BYTE   Fn1
 BYTE   W12
 BYTE   An1
 BYTE   W12
 BYTE   As1
 BYTE   W12
 BYTE   An1
 BYTE   W12
 BYTE   Fn1
 BYTE   W11
 BYTE   Dn1
 BYTE   W13
 BYTE   As0
 BYTE   W11
 BYTE   Dn1
 BYTE   W12
//  #05 //008   ----------------------------------------
 BYTE   W01
 BYTE   N09
 BYTE   W11
 BYTE   N10  Fn1
 BYTE   W13
 BYTE   Dn1
 BYTE   W12
 BYTE   Fn1
 BYTE   W12
 BYTE   As1
 BYTE   W12
 BYTE   An1
 BYTE   W12
 BYTE   Fn1
 BYTE   W12
 BYTE   Dn1
 BYTE   W11
//  #05 //009   ----------------------------------------
 BYTE   W01
 BYTE   N09  Fn1
 BYTE   W11
 BYTE   N10  An1
 BYTE   W13
 BYTE   As1
 BYTE   W12
 BYTE   An1
 BYTE   W12
 BYTE   Fn1
 BYTE   W11
 BYTE   Dn1
 BYTE   W13
 BYTE   As0
 BYTE   W12
 BYTE   Dn1
 BYTE   W11
//  #05 //010   ----------------------------------------
 BYTE   W02
 BYTE   N09
 BYTE   W12
 BYTE   Fn1
 BYTE   W12
 BYTE   Dn1
 BYTE   W11
 BYTE   N10  Fn1
 BYTE   W12
 BYTE   As1
 BYTE   W13
 BYTE   N09  An1
 BYTE   W12
 BYTE   Fn1
 BYTE   W11
 BYTE   Dn1
 BYTE   W11
//  #05 //011   ----------------------------------------
 BYTE   W01
 BYTE   N10  Fn1
 BYTE   W13
 BYTE   N09  An1
 BYTE   W12
 BYTE   As1
 BYTE   W11
 BYTE   An1
 BYTE   W13
 BYTE   Fn1
 BYTE   W11
 BYTE   Dn1
 BYTE   W12
 BYTE   As0
 BYTE   W12
 BYTE   N10  Dn1
 BYTE   W11
//  #05 //012   ----------------------------------------
Label_010564CE:
 BYTE   W01
 BYTE   N09  Dn1  v112
 BYTE   W12
 BYTE   N10  Fn1
 BYTE   W12
 BYTE   Dn1
 BYTE   W12
 BYTE   Fn1
 BYTE   W12
 BYTE   N09  As1
 BYTE   W12
 BYTE   N10  An1
 BYTE   W12
 BYTE   Fn1
 BYTE   W12
 BYTE   Dn1
 BYTE   W11
 BYTE   PEND 
//  #05 //013   ----------------------------------------
 BYTE   W01
 BYTE   N09  Fn1
 BYTE   W12
 BYTE   N10  An1
 BYTE   W12
 BYTE   N09  As1
 BYTE   W12
 BYTE   N10  An1
 BYTE   W12
 BYTE   N09  Fn1
 BYTE   W12
 BYTE   N10  Dn1
 BYTE   W12
 BYTE   N09  As0
 BYTE   W12
 BYTE   N10  Dn1
 BYTE   W11
//  #05 //014   ----------------------------------------
 BYTE   PATT
  POIN2 Label_010564CE
//  #05 //015   ----------------------------------------
Label_01056503:
 BYTE   W01
 BYTE   N09  Fn1  v112
 BYTE   W12
 BYTE   N10  An1
 BYTE   W12
 BYTE   As1
 BYTE   W12
 BYTE   An1
 BYTE   W12
 BYTE   Fn1
 BYTE   W12
 BYTE   Dn1
 BYTE   W12
 BYTE   As0
 BYTE   W12
 BYTE   Dn1
 BYTE   W11
 BYTE   PEND 
//  #05 //016   ----------------------------------------
 BYTE   W01
 BYTE   N09
 BYTE   W12
 BYTE   Fn1
 BYTE   W12
 BYTE   Dn1
 BYTE   W12
 BYTE   Fn1
 BYTE   W13
 BYTE   As1
 BYTE   W11
 BYTE   N10  An1
 BYTE   W12
 BYTE   Fn1
 BYTE   W12
 BYTE   Dn1
 BYTE   W11
//  #05 //017   ----------------------------------------
 BYTE   W01
 BYTE   N09  Fn1
 BYTE   W13
 BYTE   An1
 BYTE   W12
 BYTE   As1
 BYTE   W11
 BYTE   An1
 BYTE   W13
 BYTE   Fn1
 BYTE   W12
 BYTE   Dn1
 BYTE   W12
 BYTE   As0
 BYTE   W11
 BYTE   N10  Dn1
 BYTE   W11
//  #05 //018   ----------------------------------------
 BYTE   W01
 BYTE   N09
 BYTE   W12
 BYTE   N10  Fn1
 BYTE   W12
 BYTE   N09  Dn1
 BYTE   W12
 BYTE   N10  Fn1
 BYTE   W12
 BYTE   N09  As1
 BYTE   W12
 BYTE   N10  An1
 BYTE   W12
 BYTE   Fn1
 BYTE   W12
 BYTE   Dn1
 BYTE   W11
//  #05 //019   ----------------------------------------
 BYTE   PATT
  POIN2 Label_01056503
//  #05 //020   ----------------------------------------
 BYTE   W01
 BYTE   N09  Fn1  v112
 BYTE   W12
 BYTE   N10  Gs1
 BYTE   W12
 BYTE   Fn1
 BYTE   W12
 BYTE   Gs1
 BYTE   W12
 BYTE   N09  Cs2
 BYTE   W12
 BYTE   N10  Cn2
 BYTE   W12
 BYTE   Gs1
 BYTE   W12
 BYTE   Fn1
 BYTE   W11
//  #05 //021   ----------------------------------------
 BYTE   W01
 BYTE   Gs1
 BYTE   W12
 BYTE   Cn2
 BYTE   W12
 BYTE   Cs2
 BYTE   W12
 BYTE   Cn2
 BYTE   W12
 BYTE   Gs1
 BYTE   W12
 BYTE   Fn1
 BYTE   W12
 BYTE   Cs1
 BYTE   W12
 BYTE   Fn1
 BYTE   W11
//  #05 //022   ----------------------------------------
 BYTE   W01
 BYTE   N09
 BYTE   W12
 BYTE   N10  Gs1
 BYTE   W12
 BYTE   Fn1
 BYTE   W12
 BYTE   Gs1
 BYTE   W12
 BYTE   Cs2
 BYTE   W12
 BYTE   Cn2
 BYTE   W12
 BYTE   Gs1
 BYTE   W12
 BYTE   Fn1
 BYTE   W11
//  #05 //023   ----------------------------------------
 BYTE   W01
 BYTE   N09  Gs1
 BYTE   W12
 BYTE   N10  Cn2
 BYTE   W12
 BYTE   Cs2
 BYTE   W12
 BYTE   Cn2
 BYTE   W12
 BYTE   Gs1
 BYTE   W12
 BYTE   Fn1
 BYTE   W12
 BYTE   Cs1
 BYTE   W12
 BYTE   Fn1
 BYTE   W11
//  #05 //024   ----------------------------------------
 BYTE   W02
 BYTE   N09  Cn1
 BYTE   W11
 BYTE   Ds1
 BYTE   W12
 BYTE   N10  Cn1
 BYTE   W12
 BYTE   N09  Ds1
 BYTE   W13
 BYTE   Gs1
 BYTE   W11
 BYTE   Gn1
 BYTE   W12
 BYTE   N10  Ds1
 BYTE   W12
 BYTE   Cn1
 BYTE   W11
//  #05 //025   ----------------------------------------
 BYTE   W01
 BYTE   Ds1
 BYTE   W12
 BYTE   N09  Gn1
 BYTE   W13
 BYTE   Gs1
 BYTE   W11
 BYTE   Gn1
 BYTE   W13
 BYTE   Ds1
 BYTE   W11
 BYTE   Cn1
 BYTE   W13
 BYTE   Gn0
 BYTE   W11
 BYTE   N10  Ds1
 BYTE   W11
//  #05 //026   ----------------------------------------
 BYTE   W01
 BYTE   Cn1
 BYTE   W12
 BYTE   Ds1
 BYTE   W12
 BYTE   Cn1
 BYTE   W12
 BYTE   Ds1
 BYTE   W12
 BYTE   N09  Gs1
 BYTE   W12
 BYTE   N10  Gn1
 BYTE   W12
 BYTE   Ds1
 BYTE   W12
 BYTE   Cn1
 BYTE   W11
//  #05 //027   ----------------------------------------
 BYTE   W01
 BYTE   Ds1
 BYTE   W12
 BYTE   Gn1
 BYTE   W12
 BYTE   Gs1
 BYTE   W12
 BYTE   Gn1
 BYTE   W12
 BYTE   Ds1
 BYTE   W12
 BYTE   Cn1
 BYTE   W12
 BYTE   N09  Gn0
 BYTE   W12
 BYTE   N10  Ds1
 BYTE   W11
//  #05 //028   ----------------------------------------
Label_010565F2:
 BYTE   W01
 BYTE   N09  An0  v112
 BYTE   W11
 BYTE   N10  Cn1
 BYTE   W12
 BYTE   An0
 BYTE   W12
 BYTE   Cn1
 BYTE   W12
 BYTE   Fn1
 BYTE   W12
 BYTE   En1
 BYTE   W12
 BYTE   Cn1
 BYTE   W12
 BYTE   An0
 BYTE   W12
 BYTE   PEND 
//  #05 //029   ----------------------------------------
 BYTE   W01
 BYTE   Cn1
 BYTE   W11
 BYTE   En1
 BYTE   W12
 BYTE   Fn1
 BYTE   W12
 BYTE   En1
 BYTE   W12
 BYTE   Cn1
 BYTE   W12
 BYTE   An0
 BYTE   W13
 BYTE   En0
 BYTE   W12
 BYTE   An0
 BYTE   W11
//  #05 //030   ----------------------------------------
 BYTE   PATT
  POIN2 Label_010565F2
//  #05 //031   ----------------------------------------
 BYTE   N10  Cn1  v112
 BYTE   W12
 BYTE   En1
 BYTE   W12
 BYTE   Fn1
 BYTE   W12
 BYTE   En1
 BYTE   W12
 BYTE   Cn1
 BYTE   W12
 BYTE   An0
 BYTE   W12
 BYTE   En0
 BYTE   W12
 BYTE   An0
 BYTE   W12
//  #05 //032   ----------------------------------------
 BYTE   W01
 BYTE   En1
 BYTE   W11
 BYTE   Gn1
 BYTE   W12
 BYTE   En1
 BYTE   W12
 BYTE   Gn1
 BYTE   W12
 BYTE   Cn2
 BYTE   W12
 BYTE   Bn1
 BYTE   W12
 BYTE   Gn1
 BYTE   W12
 BYTE   En1
 BYTE   W12
//  #05 //033   ----------------------------------------
 BYTE   Gn1
 BYTE   W12
 BYTE   Bn1
 BYTE   W12
 BYTE   Cn2
 BYTE   W12
 BYTE   Bn1
 BYTE   W13
 BYTE   Gn1
 BYTE   W11
 BYTE   En1
 BYTE   W13
 BYTE   Bn0
 BYTE   W12
 BYTE   En1
 BYTE   W11
//  #05 //034   ----------------------------------------
 BYTE   W01
 BYTE   N09
 BYTE   W11
 BYTE   N10  Gn1
 BYTE   W13
 BYTE   En1
 BYTE   W11
 BYTE   Gn1
 BYTE   W12
 BYTE   Cn2
 BYTE   W12
 BYTE   Bn1
 BYTE   W12
 BYTE   Gn1
 BYTE   W12
 BYTE   En1
 BYTE   W12
//  #05 //035   ----------------------------------------
 BYTE   Gn1
 BYTE   W12
 BYTE   Bn1
 BYTE   W12
 BYTE   Cn2
 BYTE   W12
 BYTE   Bn1
 BYTE   W12
 BYTE   Gn1
 BYTE   W12
 BYTE   En1
 BYTE   W12
 BYTE   Bn0
 BYTE   W12
 BYTE   En1
 BYTE   W12
//  #05 //036   ----------------------------------------
 BYTE   W01
 BYTE   Gn1
 BYTE   W11
 BYTE   As1
 BYTE   W12
 BYTE   Gn1
 BYTE   W12
 BYTE   As1
 BYTE   W12
 BYTE   Ds2
 BYTE   W12
 BYTE   Dn2
 BYTE   W12
 BYTE   As1
 BYTE   W12
 BYTE   Gn1
 BYTE   W12
//  #05 //037   ----------------------------------------
 BYTE   As1
 BYTE   W12
 BYTE   Dn2
 BYTE   W12
 BYTE   Ds2
 BYTE   W12
 BYTE   Dn2
 BYTE   W12
 BYTE   As1
 BYTE   W12
 BYTE   Gn1
 BYTE   W13
 BYTE   N09  Dn1
 BYTE   W12
 BYTE   N10  Gn1
 BYTE   W11
//  #05 //038   ----------------------------------------
 BYTE   W01
 BYTE   N09
 BYTE   W12
 BYTE   N10  As1
 BYTE   W12
 BYTE   Gn1
 BYTE   W11
 BYTE   As1
 BYTE   W13
 BYTE   Ds2
 BYTE   W11
 BYTE   Dn2
 BYTE   W13
 BYTE   As1
 BYTE   W11
 BYTE   Gn1
 BYTE   W12
//  #05 //039   ----------------------------------------
 BYTE   As1
 BYTE   W12
 BYTE   Dn2
 BYTE   W12
 BYTE   Ds2
 BYTE   W12
 BYTE   Dn2
 BYTE   W12
 BYTE   As1
 BYTE   W12
 BYTE   Gn1
 BYTE   W12
 BYTE   Dn1
 BYTE   W12
 BYTE   Gn1
 BYTE   W12
//  #05 //040   ----------------------------------------
Label_010566B7:
 BYTE   W01
 BYTE   N09  Dn1  v112
 BYTE   W11
 BYTE   N10  Fn1
 BYTE   W12
 BYTE   Dn1
 BYTE   W12
 BYTE   Fn1
 BYTE   W12
 BYTE   As1
 BYTE   W12
 BYTE   An1
 BYTE   W12
 BYTE   Fn1
 BYTE   W12
 BYTE   Dn1
 BYTE   W12
 BYTE   PEND 
//  #05 //041   ----------------------------------------
 BYTE   W01
 BYTE   Fn1
 BYTE   W11
 BYTE   An1
 BYTE   W13
 BYTE   As1
 BYTE   W11
 BYTE   An1
 BYTE   W12
 BYTE   Fn1
 BYTE   W12
 BYTE   Dn1
 BYTE   W13
 BYTE   N09  An0
 BYTE   W12
 BYTE   N10  Dn1
 BYTE   W11
//  #05 //042   ----------------------------------------
 BYTE   PATT
  POIN2 Label_010566B7
//  #05 //043   ----------------------------------------
 BYTE   N10  Fn1  v112
 BYTE   W12
 BYTE   An1
 BYTE   W12
 BYTE   As1
 BYTE   W12
 BYTE   An1
 BYTE   W12
 BYTE   Fn1
 BYTE   W12
 BYTE   Dn1
 BYTE   W12
 BYTE   An0
 BYTE   W12
 BYTE   Dn1
 BYTE   W12
//  #05 //044   ----------------------------------------
 BYTE   W01
 BYTE   N09  Fn0
 BYTE   N10  Fn1
 BYTE   W24
 BYTE   Fn0
 BYTE   N10  Fn1
 BYTE   W32
 BYTE   W03
 BYTE   N10
 BYTE   W01
 BYTE   Fn0
 BYTE   W32
 BYTE   W03
//  #05 //045   ----------------------------------------
 BYTE   W01
 BYTE   N09
 BYTE   N09  Fn1
 BYTE   W36
 BYTE   N10  Fn0
 BYTE   N10  Fn1
 BYTE   W36
 BYTE   Fn0
 BYTE   N10  Fn1
 BYTE   W23
//  #05 //046   ----------------------------------------
Label_01056714:
 BYTE   W24
 BYTE   W01
 BYTE   N10  Fn0  v112
 BYTE   N10  Fn1
 BYTE   W32
 BYTE   W03
 BYTE   Fn0
 BYTE   W01
 BYTE   Fn1
 BYTE   W32
 BYTE   W03
 BYTE   PEND 
//  #05 //047   ----------------------------------------
 BYTE   W01
 BYTE   N09  Fn0
 BYTE   N09  Fn1
 BYTE   W32
 BYTE   W03
 BYTE   N10  Fn0
 BYTE   W01
 BYTE   Fn1
 BYTE   W36
 BYTE   Fn0
 BYTE   N10  Fn1
 BYTE   W23
//  #05 //048   ----------------------------------------
 BYTE   W01
 BYTE   N09  Fn0
 BYTE   N09  Fn1
 BYTE   W24
 BYTE   N10  Fn0
 BYTE   N10  Fn1
 BYTE   W32
 BYTE   W03
 BYTE   N10
 BYTE   W01
 BYTE   Fn0
 BYTE   W32
 BYTE   W03
//  #05 //049   ----------------------------------------
 BYTE   Fn1
 BYTE   W01
 BYTE   Fn0
 BYTE   W36
 BYTE   N10
 BYTE   N10  Fn1
 BYTE   W32
 BYTE   W03
 BYTE   Fn0
 BYTE   W01
 BYTE   Fn1
 BYTE   W23
//  #05 //050   ----------------------------------------
 BYTE   PATT
  POIN2 Label_01056714
//  #05 //051   ----------------------------------------
 BYTE   W01
 BYTE   N10  Fn0  v112
 BYTE   N10  Fn1
 BYTE   W32
 BYTE   W03
 BYTE   Fn0
 BYTE   W01
 BYTE   Fn1
 BYTE   W36
 BYTE   Fn0
 BYTE   N10  Fn1
 BYTE   W23
//  #05 //052   ----------------------------------------
 BYTE   W01
 BYTE   Cn1
 BYTE   W12
 BYTE   N09  En1
 BYTE   W12
 BYTE   N10  Cn1
 BYTE   W12
 BYTE   En1
 BYTE   W12
 BYTE   Gs1
 BYTE   W12
 BYTE   Gn1
 BYTE   W12
 BYTE   En1
 BYTE   W12
 BYTE   Cn1
 BYTE   W11
//  #05 //053   ----------------------------------------
 BYTE   W01
 BYTE   En1
 BYTE   W12
 BYTE   Gn1
 BYTE   W12
 BYTE   N09  Gs1
 BYTE   W12
 BYTE   N10  Gn1
 BYTE   W12
 BYTE   En1
 BYTE   W12
 BYTE   Cn1
 BYTE   W12
 BYTE   Gn0
 BYTE   W12
 BYTE   Cn1
 BYTE   W11
//  #05 //054   ----------------------------------------
 BYTE   W01
 BYTE   N10
 BYTE   W12
 BYTE   En1
 BYTE   W12
 BYTE   Cn1
 BYTE   W12
 BYTE   En1
 BYTE   W12
 BYTE   Gs1
 BYTE   W12
 BYTE   Gn1
 BYTE   W12
 BYTE   N09  En1
 BYTE   W12
 BYTE   N10  Cn1
 BYTE   W11
//  #05 //055   ----------------------------------------
 BYTE   W01
 BYTE   En1
 BYTE   W12
 BYTE   Gn1
 BYTE   W12
 BYTE   Gs1
 BYTE   W12
 BYTE   Gn1
 BYTE   W12
 BYTE   En1
 BYTE   W12
 BYTE   Cn1
 BYTE   W12
 BYTE   Gn0
 BYTE   W12
 BYTE   Cn1
 BYTE   W11
//  #05 //056   ----------------------------------------
 BYTE   GoTo
  POIN2 Label_010564CE
 BYTE   FINE

//**************** Track 6 (Midi-Chn.5) ****************//

song1D_006:
//  #06 //000   ----------------------------------------
 BYTE   KEYSH   song1D_key+0
 BYTE   VOICE   40
 BYTE   VOL   50*song1D_mvl/mxv
 BYTE   BEND   c_v+0
 BYTE   W96
//  #06 //001   ----------------------------------------
 BYTE   W96
//  #06 //002   ----------------------------------------
 BYTE   W96
//  #06 //003   ----------------------------------------
 BYTE   W96
//  #06 //004   ----------------------------------------
 BYTE   W96
//  #06 //005   ----------------------------------------
 BYTE   W96
//  #06 //006   ----------------------------------------
 BYTE   W96
//  #06 //007   ----------------------------------------
 BYTE   W96
//  #06 //008   ----------------------------------------
 BYTE   W96
//  #06 //009   ----------------------------------------
 BYTE   W96
//  #06 //010   ----------------------------------------
 BYTE   W96
//  #06 //011   ----------------------------------------
 BYTE   W96
//  #06 //012   ----------------------------------------
Label_01055640:
 BYTE   W02
 BYTE   N68  Dn3  v112
 BYTE   W68
 BYTE   W03
 BYTE   N22  En3
 BYTE   W23
//  #06 //013   ----------------------------------------
 BYTE   W01
 BYTE   TIE  Fn3
 BYTE   W92
 BYTE   W03
//  #06 //014   ----------------------------------------
 BYTE   W22
 BYTE   EOT
 BYTE   W24
 BYTE   W03
 BYTE   N21  Dn3
 BYTE   W24
 BYTE   En3
 BYTE   W23
//  #06 //015   ----------------------------------------
 BYTE   W01
 BYTE   N44  Fn3
 BYTE   W48
 BYTE   Gn3
 BYTE   W44
 BYTE   W03
//  #06 //016   ----------------------------------------
 BYTE   W02
 BYTE   TIE  An3
 BYTE   W92
 BYTE   W02
//  #06 //017   ----------------------------------------
 BYTE   W96
//  #06 //018   ----------------------------------------
 BYTE   W92
 BYTE   W01
 BYTE   EOT
 BYTE   W03
//  #06 //019   ----------------------------------------
 BYTE   W96
//  #06 //020   ----------------------------------------
 BYTE   W02
 BYTE   N68  Fn3
 BYTE   W68
 BYTE   W03
 BYTE   N21  Gn3
 BYTE   W23
//  #06 //021   ----------------------------------------
 BYTE   W01
 BYTE   TIE  Gs3
 BYTE   W92
 BYTE   W03
//  #06 //022   ----------------------------------------
 BYTE   W44
 BYTE   W02
 BYTE   EOT
 BYTE   W03
 BYTE   N21  Fn3
 BYTE   W24
 BYTE   N22  Gn3
 BYTE   W23
//  #06 //023   ----------------------------------------
 BYTE   W01
 BYTE   N44  Gs3
 BYTE   W48
 BYTE   As3
 BYTE   W44
 BYTE   W03
//  #06 //024   ----------------------------------------
 BYTE   W02
 BYTE   TIE  Cn4
 BYTE   W92
 BYTE   W02
//  #06 //025   ----------------------------------------
 BYTE   W92
 BYTE   W03
 BYTE   EOT
 BYTE   W01
//  #06 //026   ----------------------------------------
 BYTE   W96
//  #06 //027   ----------------------------------------
 BYTE   W96
//  #06 //028   ----------------------------------------
 BYTE   W02
 BYTE   N54  An2  v092
 BYTE   N68  Cn4  v112
 BYTE   W68
 BYTE   W03
 BYTE   N18  Bn2  v092
 BYTE   N22  Bn3  v112
 BYTE   W23
//  #06 //029   ----------------------------------------
 BYTE   W01
 BYTE   N92  Cn3  v092
 BYTE   TIE  An3  v112
 BYTE   W92
 BYTE   W03
//  #06 //030   ----------------------------------------
 BYTE   W23
 BYTE   EOT
 BYTE   W02
 BYTE   N22  Cn4
 BYTE   W24
 BYTE   Bn3
 BYTE   W24
 BYTE   An3
 BYTE   W23
//  #06 //031   ----------------------------------------
 BYTE   W01
 BYTE   N44  Cn3
 BYTE   W48
 BYTE   Dn3
 BYTE   W44
 BYTE   W03
//  #06 //032   ----------------------------------------
 BYTE   W01
 BYTE   N68  Bn2
 BYTE   TIE  En3
 BYTE   W72
 BYTE   N22  An2
 BYTE   W23
//  #06 //033   ----------------------------------------
 BYTE   W01
 BYTE   TIE  Gn2
 BYTE   W92
 BYTE   W03
//  #06 //034   ----------------------------------------
 BYTE   W92
 BYTE   W03
 BYTE   EOT
 BYTE   W01
//  #06 //035   ----------------------------------------
 BYTE   W92
 BYTE   W01
 BYTE   En3
 BYTE   W03
//  #06 //036   ----------------------------------------
 BYTE   W01
 BYTE   N68  As2  v068
 BYTE   N68  As3  v112
 BYTE   W72
 BYTE   N22  An3
 BYTE   W23
//  #06 //037   ----------------------------------------
 BYTE   W01
 BYTE   TIE  Gn3
 BYTE   W92
 BYTE   W03
//  #06 //038   ----------------------------------------
 BYTE   W23
 BYTE   EOT
 BYTE   W02
 BYTE   N22  As3
 BYTE   W24
 BYTE   An3
 BYTE   W24
 BYTE   Gn3
 BYTE   W23
//  #06 //039   ----------------------------------------
 BYTE   W01
 BYTE   N44  As2
 BYTE   W44
 BYTE   W03
 BYTE   Cn3
 BYTE   W48
//  #06 //040   ----------------------------------------
 BYTE   W02
 BYTE   TIE  Dn3
 BYTE   W92
 BYTE   W02
//  #06 //041   ----------------------------------------
 BYTE   W96
//  #06 //042   ----------------------------------------
 BYTE   W96
//  #06 //043   ----------------------------------------
 BYTE   W92
 BYTE   W02
 BYTE   EOT
 BYTE   W02
//  #06 //044   ----------------------------------------
 BYTE   W96
//  #06 //045   ----------------------------------------
 BYTE   W96
//  #06 //046   ----------------------------------------
 BYTE   W96
//  #06 //047   ----------------------------------------
 BYTE   W96
//  #06 //048   ----------------------------------------
 BYTE   W96
//  #06 //049   ----------------------------------------
 BYTE   W96
//  #06 //050   ----------------------------------------
 BYTE   W96
//  #06 //051   ----------------------------------------
 BYTE   W96
//  #06 //052   ----------------------------------------
 BYTE   W96
//  #06 //053   ----------------------------------------
 BYTE   W96
//  #06 //054   ----------------------------------------
 BYTE   W96
//  #06 //055   ----------------------------------------
 BYTE   W96
//  #06 //056   ----------------------------------------
 BYTE   GoTo
  POIN2 Label_01055640
 BYTE   FINE

//**************** Track 7 (Midi-Chn.6) ****************//

song1D_007:
//  #07 //000   ----------------------------------------
 BYTE   KEYSH   song1D_key+0
 BYTE   VOICE   47
 BYTE   VOL   39*song1D_mvl/mxv
 BYTE   BEND   c_v+0
 BYTE   W96
//  #07 //001   ----------------------------------------
 BYTE   W96
//  #07 //002   ----------------------------------------
 BYTE   W96
//  #07 //003   ----------------------------------------
 BYTE   W96
//  #07 //004   ----------------------------------------
 BYTE   W96
//  #07 //005   ----------------------------------------
 BYTE   W96
//  #07 //006   ----------------------------------------
 BYTE   W72
 BYTE   W01
 BYTE   N06  Bn1  v127
 BYTE   W12
 BYTE   N12  Gn1
 BYTE   W11
//  #07 //007   ----------------------------------------
 BYTE   W13
 BYTE   N03  Bn1
 BYTE   W12
 BYTE   N07  Gn1
 BYTE   W24
 BYTE   N03  Bn1
 BYTE   W24
 BYTE   N02  Gn1
 BYTE   W23
//  #07 //008   ----------------------------------------
 BYTE   W96
//  #07 //009   ----------------------------------------
 BYTE   W96
//  #07 //010   ----------------------------------------
 BYTE   W96
//  #07 //011   ----------------------------------------
 BYTE   W96
//  #07 //012   ----------------------------------------
Label_01054E8C:
 BYTE   W96
//  #07 //013   ----------------------------------------
 BYTE   W96
//  #07 //014   ----------------------------------------
 BYTE   W96
//  #07 //015   ----------------------------------------
 BYTE   W96
//  #07 //016   ----------------------------------------
 BYTE   W96
//  #07 //017   ----------------------------------------
 BYTE   W96
//  #07 //018   ----------------------------------------
 BYTE   W01
 BYTE   N09  Bn1  v052
 BYTE   W12
 BYTE   Bn1  v060
 BYTE   W12
 BYTE   Bn1  v076
 BYTE   W12
 BYTE   Bn1  v112
 BYTE   W12
 BYTE   Bn1  v116
 BYTE   W12
 BYTE   Bn1  v124
 BYTE   W12
 BYTE   N09
 BYTE   W12
 BYTE   N09
 BYTE   W11
//  #07 //019   ----------------------------------------
 BYTE   W01
 BYTE   N21  Bn1  v112
 BYTE   W24
 BYTE   N22  Fn1
 BYTE   W24
 BYTE   Bn1
 BYTE   W24
 BYTE   N21  Fn1
 BYTE   W23
//  #07 //020   ----------------------------------------
 BYTE   W96
//  #07 //021   ----------------------------------------
 BYTE   W96
//  #07 //022   ----------------------------------------
 BYTE   W96
//  #07 //023   ----------------------------------------
 BYTE   W96
//  #07 //024   ----------------------------------------
 BYTE   W96
//  #07 //025   ----------------------------------------
 BYTE   W96
//  #07 //026   ----------------------------------------
 BYTE   W01
 BYTE   N22  Cn2
 BYTE   W24
 BYTE   N21  Gn1
 BYTE   W36
 BYTE   N09
 BYTE   W12
 BYTE   N21  Cn2
 BYTE   W23
//  #07 //027   ----------------------------------------
 BYTE   W13
 BYTE   N10  Bn1
 BYTE   W24
 BYTE   N09
 BYTE   W12
 BYTE   Fn1
 BYTE   W24
 BYTE   N09
 BYTE   W23
//  #07 //028   ----------------------------------------
 BYTE   W96
//  #07 //029   ----------------------------------------
 BYTE   W72
 BYTE   W01
 BYTE   N03  Dn2
 BYTE   W05
 BYTE   N04
 BYTE   W07
 BYTE   N03
 BYTE   W06
 BYTE   N04
 BYTE   W05
//  #07 //030   ----------------------------------------
 BYTE   W02
 BYTE   N21  Bn1
 BYTE   W92
 BYTE   W02
//  #07 //031   ----------------------------------------
 BYTE   W96
//  #07 //032   ----------------------------------------
 BYTE   W96
//  #07 //033   ----------------------------------------
 BYTE   W96
//  #07 //034   ----------------------------------------
 BYTE   W96
//  #07 //035   ----------------------------------------
 BYTE   W01
 BYTE   N10  An1  v052
 BYTE   W11
 BYTE   An1  v064
 BYTE   W12
 BYTE   An1  v124
 BYTE   W12
 BYTE   N10
 BYTE   W13
 BYTE   N10
 BYTE   N10  As1  v112
 BYTE   W12
 BYTE   An1  v124
 BYTE   W12
 BYTE   Gn1  v116
 BYTE   N10  An1  v124
 BYTE   N10  As1  v116
 BYTE   W11
 BYTE   An1  v127
 BYTE   W01
 BYTE   As1
 BYTE   N10  Bn1  v112
 BYTE   W11
//  #07 //036   ----------------------------------------
 BYTE   W96
//  #07 //037   ----------------------------------------
 BYTE   W96
//  #07 //038   ----------------------------------------
 BYTE   W96
//  #07 //039   ----------------------------------------
 BYTE   W96
//  #07 //040   ----------------------------------------
 BYTE   W96
//  #07 //041   ----------------------------------------
 BYTE   W96
//  #07 //042   ----------------------------------------
 BYTE   W01
 BYTE   N21
 BYTE   W24
 BYTE   N22  Fn1
 BYTE   W24
 BYTE   Bn1
 BYTE   W24
 BYTE   Fn1
 BYTE   W23
//  #07 //043   ----------------------------------------
 BYTE   W01
 BYTE   N10  Fn1  v060
 BYTE   W11
 BYTE   Fn1  v064
 BYTE   W13
 BYTE   Fn1  v116
 BYTE   W11
 BYTE   Fn1  v112
 BYTE   W01
 BYTE   Gn1  v100
 BYTE   W12
 BYTE   En1  v080
 BYTE   N10  Fn1  v112
 BYTE   N10  Gn1  v116
 BYTE   W11
 BYTE   Gn1  v112
 BYTE   W01
 BYTE   En1  v072
 BYTE   N10  Fn1  v112
 BYTE   N10  An1  v124
 BYTE   W12
 BYTE   Fn1  v116
 BYTE   N10  Gn1  v100
 BYTE   N10  An1  v124
 BYTE   W12
 BYTE   Fn1  v116
 BYTE   N10  Gn1  v112
 BYTE   W11
//  #07 //044   ----------------------------------------
 BYTE   W96
//  #07 //045   ----------------------------------------
 BYTE   W96
//  #07 //046   ----------------------------------------
 BYTE   W96
//  #07 //047   ----------------------------------------
Label_01054F56:
 BYTE   W72
 BYTE   W01
 BYTE   N03  An1  v068
 BYTE   W05
 BYTE   N05  An1  v092
 BYTE   W06
 BYTE   N04  An1  v112
 BYTE   W06
 BYTE   N05
 BYTE   W06
 BYTE   PEND 
//  #07 //048   ----------------------------------------
Label_01054F67:
 BYTE   W02
 BYTE   N92  Gn1  v112
 BYTE   W92
 BYTE   W02
 BYTE   PEND 
//  #07 //049   ----------------------------------------
 BYTE   W96
//  #07 //050   ----------------------------------------
 BYTE   W96
//  #07 //051   ----------------------------------------
 BYTE   PATT
  POIN2 Label_01054F56
//  #07 //052   ----------------------------------------
 BYTE   PATT
  POIN2 Label_01054F67
//  #07 //053   ----------------------------------------
 BYTE   W96
//  #07 //054   ----------------------------------------
 BYTE   W96
//  #07 //055   ----------------------------------------
 BYTE   W96
//  #07 //056   ----------------------------------------
 BYTE   GoTo
  POIN2 Label_01054E8C
 BYTE   FINE

//**************** Track 8 (Midi-Chn.7) ****************//

song1D_008:
//  #08 //000   ----------------------------------------
 BYTE   KEYSH   song1D_key+0
 BYTE   VOICE   57
 BYTE   VOL   50*song1D_mvl/mxv
 BYTE   BEND   c_v+0
 BYTE   W96
//  #08 //001   ----------------------------------------
 BYTE   W96
//  #08 //002   ----------------------------------------
 BYTE   W96
//  #08 //003   ----------------------------------------
 BYTE   W96
//  #08 //004   ----------------------------------------
 BYTE   W96
//  #08 //005   ----------------------------------------
 BYTE   W96
//  #08 //006   ----------------------------------------
 BYTE   W96
//  #08 //007   ----------------------------------------
 BYTE   W96
//  #08 //008   ----------------------------------------
 BYTE   W96
//  #08 //009   ----------------------------------------
 BYTE   W96
//  #08 //010   ----------------------------------------
 BYTE   W96
//  #08 //011   ----------------------------------------
 BYTE   W96
//  #08 //012   ----------------------------------------
Label_01055C70:
 BYTE   W96
//  #08 //013   ----------------------------------------
 BYTE   W96
//  #08 //014   ----------------------------------------
 BYTE   W96
//  #08 //015   ----------------------------------------
 BYTE   W96
//  #08 //016   ----------------------------------------
 BYTE   W96
//  #08 //017   ----------------------------------------
 BYTE   W96
//  #08 //018   ----------------------------------------
 BYTE   W96
//  #08 //019   ----------------------------------------
 BYTE   W96
//  #08 //020   ----------------------------------------
 BYTE   W96
//  #08 //021   ----------------------------------------
 BYTE   W96
//  #08 //022   ----------------------------------------
 BYTE   W96
//  #08 //023   ----------------------------------------
 BYTE   W96
//  #08 //024   ----------------------------------------
 BYTE   W96
//  #08 //025   ----------------------------------------
 BYTE   W96
//  #08 //026   ----------------------------------------
 BYTE   W96
//  #08 //027   ----------------------------------------
 BYTE   W96
//  #08 //028   ----------------------------------------
 BYTE   W96
//  #08 //029   ----------------------------------------
 BYTE   W96
//  #08 //030   ----------------------------------------
 BYTE   W96
//  #08 //031   ----------------------------------------
 BYTE   W96
//  #08 //032   ----------------------------------------
 BYTE   W96
//  #08 //033   ----------------------------------------
 BYTE   W96
//  #08 //034   ----------------------------------------
 BYTE   W96
//  #08 //035   ----------------------------------------
 BYTE   W96
//  #08 //036   ----------------------------------------
 BYTE   W96
//  #08 //037   ----------------------------------------
 BYTE   W96
//  #08 //038   ----------------------------------------
 BYTE   W96
//  #08 //039   ----------------------------------------
 BYTE   W96
//  #08 //040   ----------------------------------------
 BYTE   W96
//  #08 //041   ----------------------------------------
 BYTE   W96
//  #08 //042   ----------------------------------------
 BYTE   W96
//  #08 //043   ----------------------------------------
 BYTE   W72
 BYTE   W01
 BYTE   N03  Dn3  v112
 BYTE   W05
 BYTE   N05  En3
 BYTE   W07
 BYTE   N04  Fn3
 BYTE   W05
 BYTE   N05  Gn3
 BYTE   W06
//  #08 //044   ----------------------------------------
 BYTE   N96  An3  v080
 BYTE   W96
//  #08 //045   ----------------------------------------
 BYTE   W24
 BYTE   W01
 BYTE   N10  Fn3  v112
 BYTE   W12
 BYTE   N09  Gn3
 BYTE   W11
 BYTE   N22  An3
 BYTE   W24
 BYTE   W01
 BYTE   N21  Cn4
 BYTE   W23
//  #08 //046   ----------------------------------------
 BYTE   W01
 BYTE   Bn3
 BYTE   W24
 BYTE   N04  An3
 BYTE   W11
 BYTE   TIE  Gn3
 BYTE   W60
//  #08 //047   ----------------------------------------
 BYTE   W92
 BYTE   W02
 BYTE   EOT
 BYTE   W02
//  #08 //048   ----------------------------------------
Label_01055CBF:
 BYTE   W02
 BYTE   TIE  Cn4  v112
 BYTE   W92
 BYTE   W02
 BYTE   PEND 
//  #08 //049   ----------------------------------------
 BYTE   W22
 BYTE   EOT
 BYTE   W03
 BYTE   N10  Gs3
 BYTE   W12
 BYTE   N09  As3
 BYTE   W12
 BYTE   N22  Cn4
 BYTE   W24
 BYTE   Ds4
 BYTE   W23
//  #08 //050   ----------------------------------------
 BYTE   W01
 BYTE   N21  Dn4
 BYTE   W24
 BYTE   N04  Cn4
 BYTE   W11
 BYTE   TIE  As3
 BYTE   W60
//  #08 //051   ----------------------------------------
 BYTE   W44
 BYTE   W02
 BYTE   EOT
 BYTE   W03
 BYTE   N44
 BYTE   W44
 BYTE   W03
//  #08 //052   ----------------------------------------
 BYTE   PATT
  POIN2 Label_01055CBF
//  #08 //053   ----------------------------------------
 BYTE   W92
 BYTE   W03
 BYTE   EOT
 BYTE   Cn4
 BYTE   W01
//  #08 //054   ----------------------------------------
 BYTE   W96
//  #08 //055   ----------------------------------------
 BYTE   W96
//  #08 //056   ----------------------------------------
 BYTE   GoTo
  POIN2 Label_01055C70
 BYTE   FINE

//**************** Track 9 (Midi-Chn.8) ****************//

song1D_009:
//  #09 //000   ----------------------------------------
 BYTE   KEYSH   song1D_key+0
 BYTE   VOICE   124
 BYTE   VOL   34*song1D_mvl/mxv
 BYTE   BEND   c_v+0
 BYTE   N05  Cn1  v127
 BYTE   N03  As1
 BYTE   W12
 BYTE   N06  Fs1
 BYTE   W06
 BYTE   N15
 BYTE   W06
 BYTE   N06  Cn1
 BYTE   N04  As1
 BYTE   W12
 BYTE   N06  Fs1
 BYTE   W06
 BYTE   N13
 BYTE   W06
 BYTE   N05  Cn1
 BYTE   N02  As1
 BYTE   W12
 BYTE   N05  Fs1
 BYTE   W06
 BYTE   N15
 BYTE   W06
 BYTE   N06  Cn1
 BYTE   N03  As1
 BYTE   W12
 BYTE   N06  Fs1
 BYTE   W06
 BYTE   N13
 BYTE   W06
//  #09 //001   ----------------------------------------
 BYTE   N07  Cn1
 BYTE   N04  As1
 BYTE   W12
 BYTE   N06  Fs1
 BYTE   W06
 BYTE   N14
 BYTE   W06
 BYTE   N06  Cn1
 BYTE   N03  As1
 BYTE   W12
 BYTE   N06  Fs1
 BYTE   W06
 BYTE   N13
 BYTE   W06
 BYTE   N07  Cn1
 BYTE   N04  As1
 BYTE   W12
 BYTE   N05  Fs1
 BYTE   W06
 BYTE   N14
 BYTE   W06
 BYTE   N06  Cn1
 BYTE   N03  As1
 BYTE   W12
 BYTE   N06  Fs1
 BYTE   W06
 BYTE   N12
 BYTE   W06
//  #09 //002   ----------------------------------------
 BYTE   N07  Cn1
 BYTE   N04  As1
 BYTE   W12
 BYTE   N06  Fs1
 BYTE   W06
 BYTE   N14
 BYTE   W06
 BYTE   N05  Cn1
 BYTE   N02  As1
 BYTE   W12
 BYTE   N05  Fs1
 BYTE   W06
 BYTE   N13
 BYTE   W06
 BYTE   N07  Cn1
 BYTE   N04  As1
 BYTE   W12
 BYTE   N05  Fs1
 BYTE   W06
 BYTE   N14
 BYTE   W06
 BYTE   N05  Cn1
 BYTE   N02  As1
 BYTE   W12
 BYTE   N06  Fs1
 BYTE   W06
 BYTE   N15
 BYTE   W06
//  #09 //003   ----------------------------------------
 BYTE   N06  Cn1
 BYTE   N03  As1
 BYTE   W12
 BYTE   N05  Fs1
 BYTE   W06
 BYTE   N13
 BYTE   W06
 BYTE   N05  Cn1
 BYTE   N02  As1
 BYTE   W12
 BYTE   N06  Fs1
 BYTE   W06
 BYTE   N14
 BYTE   W06
 BYTE   N06  Cn1
 BYTE   N03  As1
 BYTE   W12
 BYTE   N06  Fs1
 BYTE   W06
 BYTE   N13
 BYTE   W06
 BYTE   N07  Cn1
 BYTE   N05  As1
 BYTE   W12
 BYTE   N06  Fs1
 BYTE   W06
 BYTE   N14
 BYTE   W06
//  #09 //004   ----------------------------------------
 BYTE   N06  Cn1
 BYTE   N03  As1
 BYTE   W12
 BYTE   N05  Fs1
 BYTE   W06
 BYTE   N13
 BYTE   W06
 BYTE   N07  Cn1
 BYTE   N04  As1
 BYTE   W12
 BYTE   N06  Fs1
 BYTE   W06
 BYTE   N14
 BYTE   W06
 BYTE   N05  Cn1
 BYTE   N02  As1
 BYTE   W12
 BYTE   N06  Fs1
 BYTE   W06
 BYTE   N13
 BYTE   W06
 BYTE   N07  Cn1
 BYTE   N04  As1
 BYTE   W12
 BYTE   N05  Fs1
 BYTE   W06
 BYTE   N14
 BYTE   W06
//  #09 //005   ----------------------------------------
 BYTE   N05  Cn1
 BYTE   N03  As1
 BYTE   W12
 BYTE   N06  Fs1
 BYTE   W06
 BYTE   N12
 BYTE   W06
 BYTE   N06  Cn1
 BYTE   N04  As1
 BYTE   W12
 BYTE   N05  Fs1
 BYTE   W06
 BYTE   N14
 BYTE   W06
 BYTE   N05  Cn1
 BYTE   N02  As1
 BYTE   W12
 BYTE   N05  Fs1
 BYTE   W06
 BYTE   N12
 BYTE   W06
 BYTE   N06  Cn1
 BYTE   N03  As1
 BYTE   W12
 BYTE   N06  Fs1
 BYTE   W06
 BYTE   N13
 BYTE   W06
//  #09 //006   ----------------------------------------
 BYTE   N04  Cn1
 BYTE   N05  En1
 BYTE   N02  As1
 BYTE   W06
 BYTE   N06  En1
 BYTE   W06
 BYTE   N06
 BYTE   N06  Fs1
 BYTE   W06
 BYTE   N05  En1
 BYTE   N14  Fs1
 BYTE   W06
 BYTE   N06  Cn1
 BYTE   N13  En1
 BYTE   N03  As1
 BYTE   W12
 BYTE   N05  Fs1
 BYTE   W06
 BYTE   N13
 BYTE   W06
 BYTE   N07  Cn1
 BYTE   N05  As1
 BYTE   W12
 BYTE   Fs1
 BYTE   W06
 BYTE   N14
 BYTE   W06
 BYTE   N06  Cn1
 BYTE   N03  As1
 BYTE   W12
 BYTE   N06  Fs1
 BYTE   W06
 BYTE   N13
 BYTE   W06
//  #09 //007   ----------------------------------------
 BYTE   N07  Cn1
 BYTE   N04  As1
 BYTE   W12
 BYTE   N05  Fs1
 BYTE   W06
 BYTE   N14
 BYTE   W06
 BYTE   N06  Cn1
 BYTE   N03  As1
 BYTE   W12
 BYTE   N05  Fs1
 BYTE   W06
 BYTE   N13
 BYTE   W06
 BYTE   N07  Cn1
 BYTE   N04  As1
 BYTE   W12
 BYTE   N06  Fs1
 BYTE   W06
 BYTE   N14
 BYTE   W06
 BYTE   N05  Cn1
 BYTE   N03  As1
 BYTE   W12
 BYTE   N06  Fs1
 BYTE   W06
 BYTE   N12
 BYTE   W06
//  #09 //008   ----------------------------------------
 BYTE   N06  Cn1
 BYTE   N04  As1
 BYTE   W12
 BYTE   N06  Fs1
 BYTE   W06
 BYTE   N13
 BYTE   W06
 BYTE   N05  Cn1
 BYTE   N02  As1
 BYTE   W12
 BYTE   N05  Fs1
 BYTE   W06
 BYTE   N12
 BYTE   W06
 BYTE   N06  Cn1
 BYTE   N04  As1
 BYTE   W12
 BYTE   N06  Fs1
 BYTE   W06
 BYTE   N13
 BYTE   W06
 BYTE   N05  Cn1
 BYTE   N02  As1
 BYTE   W12
 BYTE   N05  Fs1
 BYTE   W06
 BYTE   N14
 BYTE   W06
//  #09 //009   ----------------------------------------
 BYTE   N06  Cn1
 BYTE   N03  As1
 BYTE   W12
 BYTE   N06  Fs1
 BYTE   W06
 BYTE   N13
 BYTE   W06
 BYTE   N05  Cn1
 BYTE   N02  As1
 BYTE   W12
 BYTE   N06  Fs1
 BYTE   W06
 BYTE   N14
 BYTE   W06
 BYTE   N05  Cn1
 BYTE   N03  As1
 BYTE   W12
 BYTE   N06  Fs1
 BYTE   W06
 BYTE   N13
 BYTE   W06
 BYTE   N07  Cn1
 BYTE   N04  As1
 BYTE   W12
 BYTE   N05  Fs1
 BYTE   W06
 BYTE   N14
 BYTE   W06
//  #09 //010   ----------------------------------------
 BYTE   N06  Cn1
 BYTE   N06  En1
 BYTE   N03  As1
 BYTE   W06
 BYTE   N05  En1
 BYTE   W06
 BYTE   N06
 BYTE   N06  Fs1
 BYTE   W06
 BYTE   En1
 BYTE   N13  Fs1
 BYTE   W06
 BYTE   N07  Cn1
 BYTE   N14  En1
 BYTE   N04  As1
 BYTE   W12
 BYTE   N05  Fs1
 BYTE   W06
 BYTE   N14
 BYTE   W06
 BYTE   N05  Cn1
 BYTE   N03  As1
 BYTE   W12
 BYTE   N05  En1
 BYTE   N05  Fs1
 BYTE   W06
 BYTE   N06  En1
 BYTE   N12  Fs1
 BYTE   W06
 BYTE   N06  Cn1
 BYTE   N06  En1
 BYTE   N03  As1
 BYTE   W06
 BYTE   N05  En1
 BYTE   W06
 BYTE   N15
 BYTE   N05  Fs1
 BYTE   W06
 BYTE   N14
 BYTE   W06
//  #09 //011   ----------------------------------------
 BYTE   N05  Cn1
 BYTE   N03  As1
 BYTE   W12
 BYTE   N05  En1
 BYTE   N06  Fs1
 BYTE   W06
 BYTE   En1
 BYTE   N12  Fs1
 BYTE   W06
 BYTE   N06  Cn1
 BYTE   N06  En1
 BYTE   N04  As1
 BYTE   W06
 BYTE   N06  En1
 BYTE   W06
 BYTE   N12
 BYTE   N06  Fs1
 BYTE   W06
 BYTE   N13
 BYTE   W06
 BYTE   N04  Cn1
 BYTE   N06  En1
 BYTE   N02  As1
 BYTE   W06
 BYTE   N06  En1
 BYTE   W06
 BYTE   N06
 BYTE   N06  Fs1
 BYTE   W06
 BYTE   En1
 BYTE   N15  Fs1
 BYTE   W06
 BYTE   N06  Cn1
 BYTE   N14  En1
 BYTE   N03  As1
 BYTE   W12
 BYTE   N06  Fs1
 BYTE   W06
 BYTE   N13
 BYTE   W06
//  #09 //012   ----------------------------------------
Label_01611924:
 BYTE   N04  Cn1  v127
 BYTE   N02  As1
 BYTE   N30  Cs2
 BYTE   W12
 BYTE   N06  Fs1
 BYTE   W06
 BYTE   N14
 BYTE   W06
 BYTE   N06  Cn1
 BYTE   N03  As1
 BYTE   W12
 BYTE   N05  Fs1
 BYTE   W06
 BYTE   N13
 BYTE   W06
 BYTE   N07  Cn1
 BYTE   N04  As1
 BYTE   W12
 BYTE   N06  Fs1
 BYTE   W06
 BYTE   N14
 BYTE   W06
 BYTE   N06  Cn1
 BYTE   N03  As1
 BYTE   W12
 BYTE   N06  Fs1
 BYTE   W06
 BYTE   N13
 BYTE   W06
//  #09 //013   ----------------------------------------
 BYTE   N07  Cn1
 BYTE   N04  As1
 BYTE   W12
 BYTE   N06  Fs1
 BYTE   W06
 BYTE   N14
 BYTE   W06
 BYTE   N05  Cn1
 BYTE   N03  As1
 BYTE   W12
 BYTE   N05  Fs1
 BYTE   W06
 BYTE   N13
 BYTE   W06
 BYTE   N06  Cn1
 BYTE   N04  As1
 BYTE   W12
 BYTE   N06  Fs1
 BYTE   W06
 BYTE   N14
 BYTE   W06
 BYTE   N05  Cn1
 BYTE   N02  As1
 BYTE   W12
 BYTE   N06  Fs1
 BYTE   W06
 BYTE   N12
 BYTE   W06
//  #09 //014   ----------------------------------------
 BYTE   N06  Cn1
 BYTE   N03  As1
 BYTE   W12
 BYTE   N05  Fs1
 BYTE   W06
 BYTE   N14
 BYTE   W06
 BYTE   N05  Cn1
 BYTE   N02  As1
 BYTE   W12
 BYTE   N06  Fs1
 BYTE   W06
 BYTE   N15
 BYTE   W06
 BYTE   N06  Cn1
 BYTE   N03  As1
 BYTE   W12
 BYTE   N06  Fs1
 BYTE   W06
 BYTE   N13
 BYTE   W06
 BYTE   N05  Cn1
 BYTE   N02  As1
 BYTE   W12
 BYTE   N06  Fs1
 BYTE   W06
 BYTE   N14
 BYTE   W06
//  #09 //015   ----------------------------------------
 BYTE   N06  Cn1
 BYTE   N03  As1
 BYTE   W12
 BYTE   N06  Fs1
 BYTE   W06
 BYTE   N13
 BYTE   W06
 BYTE   N07  Cn1
 BYTE   N04  As1
 BYTE   W12
 BYTE   N06  Fs1
 BYTE   W06
 BYTE   N14
 BYTE   W06
 BYTE   N06  Cn1
 BYTE   N03  As1
 BYTE   W12
 BYTE   N05  Fs1
 BYTE   W06
 BYTE   N13
 BYTE   W06
 BYTE   N07  Cn1
 BYTE   N04  As1
 BYTE   W12
 BYTE   N06  Fs1
 BYTE   W06
 BYTE   N14
 BYTE   W06
//  #09 //016   ----------------------------------------
 BYTE   N05  Cn1
 BYTE   N05  En1
 BYTE   N03  As1
 BYTE   W06
 BYTE   N06  En1
 BYTE   W06
 BYTE   N14
 BYTE   N06  Fs1
 BYTE   W06
 BYTE   N12
 BYTE   W06
 BYTE   N07  Cn1
 BYTE   N04  As1
 BYTE   W12
 BYTE   N06  En1
 BYTE   N06  Fs1
 BYTE   W06
 BYTE   En1
 BYTE   N13  Fs1
 BYTE   W06
 BYTE   N05  Cn1
 BYTE   N13  En1
 BYTE   W01
 BYTE   N02  As1
 BYTE   W11
 BYTE   N05  Fs1
 BYTE   W06
 BYTE   N13
 BYTE   W06
 BYTE   N06  Cn1
 BYTE   N04  As1
 BYTE   W12
 BYTE   N06  Fs1
 BYTE   W06
 BYTE   N13
 BYTE   W06
//  #09 //017   ----------------------------------------
 BYTE   N05  Cn1
 BYTE   N02  As1
 BYTE   W12
 BYTE   N05  En1
 BYTE   N05  Fs1
 BYTE   W06
 BYTE   N06  En1
 BYTE   N14  Fs1
 BYTE   W06
 BYTE   N06  Cn1
 BYTE   N05  En1
 BYTE   N03  As1
 BYTE   W06
 BYTE   N06  En1
 BYTE   W06
 BYTE   N12
 BYTE   N06  Fs1
 BYTE   W06
 BYTE   N13
 BYTE   W06
 BYTE   N05  Cn1
 BYTE   N06  En1
 BYTE   N02  As1
 BYTE   W06
 BYTE   N06  En1
 BYTE   W06
 BYTE   N05
 BYTE   N05  Fs1
 BYTE   W06
 BYTE   N06  En1
 BYTE   N14  Fs1
 BYTE   W06
 BYTE   N06  Cn1
 BYTE   N13  En1
 BYTE   N03  As1
 BYTE   W12
 BYTE   N06  Fs1
 BYTE   W06
 BYTE   N13
 BYTE   W06
//  #09 //018   ----------------------------------------
 BYTE   N07  Cn1
 BYTE   N04  As1
 BYTE   W12
 BYTE   N06  Fs1
 BYTE   W06
 BYTE   N14
 BYTE   W06
 BYTE   N06  Cn1
 BYTE   N03  As1
 BYTE   W12
 BYTE   N05  Fs1
 BYTE   W06
 BYTE   N13
 BYTE   W06
 BYTE   N07  Cn1
 BYTE   N04  As1
 BYTE   W12
 BYTE   N06  Fs1
 BYTE   W06
 BYTE   N14
 BYTE   W06
 BYTE   N05  Cn1
 BYTE   N03  As1
 BYTE   W12
 BYTE   N06  Fs1
 BYTE   W06
 BYTE   N13
 BYTE   W06
//  #09 //019   ----------------------------------------
 BYTE   N07  Cn1
 BYTE   N04  As1
 BYTE   W12
 BYTE   N05  Fs1
 BYTE   W06
 BYTE   N14
 BYTE   W06
 BYTE   N06  Cn1
 BYTE   N03  As1
 BYTE   W12
 BYTE   N06  Fs1
 BYTE   W06
 BYTE   N12
 BYTE   W06
 BYTE   N06  Cn1
 BYTE   N04  As1
 BYTE   W12
 BYTE   N06  Fs1
 BYTE   W06
 BYTE   N14
 BYTE   W06
 BYTE   N05  Cn1
 BYTE   N03  As1
 BYTE   W12
 BYTE   N05  Fs1
 BYTE   W06
 BYTE   N12
 BYTE   W06
//  #09 //020   ----------------------------------------
 BYTE   N06  Cn1
 BYTE   N03  As1
 BYTE   N30  Cs2
 BYTE   W12
 BYTE   N05  Fs1
 BYTE   W06
 BYTE   N13
 BYTE   W06
 BYTE   N05  Cn1
 BYTE   N02  As1
 BYTE   W12
 BYTE   N06  Fs1
 BYTE   W06
 BYTE   N14
 BYTE   W06
 BYTE   N06  Cn1
 BYTE   N03  As1
 BYTE   W12
 BYTE   N06  Fs1
 BYTE   W06
 BYTE   N13
 BYTE   W06
 BYTE   N07  Cn1
 BYTE   N05  As1
 BYTE   W12
 BYTE   N06  Fs1
 BYTE   W06
 BYTE   N14
 BYTE   W06
//  #09 //021   ----------------------------------------
 BYTE   N06  Cn1
 BYTE   N03  As1
 BYTE   W12
 BYTE   N06  Fs1
 BYTE   W06
 BYTE   N13
 BYTE   W06
 BYTE   N07  Cn1
 BYTE   N04  As1
 BYTE   W12
 BYTE   N06  Fs1
 BYTE   W06
 BYTE   N14
 BYTE   W06
 BYTE   N05  Cn1
 BYTE   N03  As1
 BYTE   W12
 BYTE   N06  Fs1
 BYTE   W06
 BYTE   N13
 BYTE   W06
 BYTE   N07  Cn1
 BYTE   N04  As1
 BYTE   W12
 BYTE   N05  Fs1
 BYTE   W06
 BYTE   N14
 BYTE   W06
//  #09 //022   ----------------------------------------
 BYTE   N05  Cn1
 BYTE   N02  As1
 BYTE   W12
 BYTE   N06  Fs1
 BYTE   W06
 BYTE   N12
 BYTE   W06
 BYTE   N06  Cn1
 BYTE   N04  As1
 BYTE   W12
 BYTE   N06  Fs1
 BYTE   W06
 BYTE   N14
 BYTE   W06
 BYTE   N05  Cn1
 BYTE   N02  As1
 BYTE   W12
 BYTE   N06  Fs1
 BYTE   W06
 BYTE   N12
 BYTE   W06
 BYTE   N06  Cn1
 BYTE   N04  As1
 BYTE   W12
 BYTE   N06  Fs1
 BYTE   W06
 BYTE   N13
 BYTE   W06
//  #09 //023   ----------------------------------------
 BYTE   N05  Cn1
 BYTE   N03  As1
 BYTE   W12
 BYTE   N06  Fs1
 BYTE   W06
 BYTE   N14
 BYTE   W06
 BYTE   N06  Cn1
 BYTE   N03  As1
 BYTE   W12
 BYTE   N06  Fs1
 BYTE   W06
 BYTE   N13
 BYTE   W06
 BYTE   N05  Cn1
 BYTE   N02  As1
 BYTE   W12
 BYTE   N06  Fs1
 BYTE   W06
 BYTE   N14
 BYTE   W06
 BYTE   N06  Cn1
 BYTE   N03  As1
 BYTE   W12
 BYTE   N06  Fs1
 BYTE   W06
 BYTE   N13
 BYTE   W06
//  #09 //024   ----------------------------------------
 BYTE   N07  Cn1
 BYTE   N06  En1
 BYTE   N04  As1
 BYTE   W06
 BYTE   N06  En1
 BYTE   W06
 BYTE   N13
 BYTE   N05  Fs1
 BYTE   W06
 BYTE   N14
 BYTE   W06
 BYTE   N06  Cn1
 BYTE   N03  As1
 BYTE   W12
 BYTE   N06  En1
 BYTE   N06  Fs1
 BYTE   W06
 BYTE   En1
 BYTE   N13  Fs1
 BYTE   W06
 BYTE   N07  Cn1
 BYTE   N14  En1
 BYTE   N04  As1
 BYTE   W12
 BYTE   N05  Fs1
 BYTE   W06
 BYTE   N14
 BYTE   W06
 BYTE   N05  Cn1
 BYTE   N03  As1
 BYTE   W12
 BYTE   N06  Fs1
 BYTE   W06
 BYTE   N13
 BYTE   W06
//  #09 //025   ----------------------------------------
 BYTE   N06  Cn1
 BYTE   N04  As1
 BYTE   W12
 BYTE   N06  En1
 BYTE   N06  Fs1
 BYTE   W06
 BYTE   En1
 BYTE   N13  Fs1
 BYTE   W06
 BYTE   N05  Cn1
 BYTE   N06  En1
 BYTE   N02  As1
 BYTE   W06
 BYTE   N06  En1
 BYTE   W06
 BYTE   N12
 BYTE   N06  Fs1
 BYTE   W06
 BYTE   N12
 BYTE   W06
 BYTE   N06  Cn1
 BYTE   N06  En1
 BYTE   N03  As1
 BYTE   W06
 BYTE   N06  En1
 BYTE   W06
 BYTE   N06
 BYTE   N06  Fs1
 BYTE   W06
 BYTE   En1
 BYTE   N13  Fs1
 BYTE   W06
 BYTE   N04  Cn1
 BYTE   N12  En1
 BYTE   W01
 BYTE   N02  As1
 BYTE   W11
 BYTE   N05  Fs1
 BYTE   W06
 BYTE   N15
 BYTE   W06
//  #09 //026   ----------------------------------------
 BYTE   N06  Cn1
 BYTE   N04  As1
 BYTE   W12
 BYTE   N06  Fs1
 BYTE   W06
 BYTE   N13
 BYTE   W06
 BYTE   N05  Cn1
 BYTE   N02  As1
 BYTE   W12
 BYTE   N06  Fs1
 BYTE   W06
 BYTE   N14
 BYTE   W06
 BYTE   N06  Cn1
 BYTE   N03  As1
 BYTE   W12
 BYTE   N05  Fs1
 BYTE   W06
 BYTE   N13
 BYTE   W06
 BYTE   N07  Cn1
 BYTE   N04  As1
 BYTE   W12
 BYTE   N06  Fs1
 BYTE   W06
 BYTE   N14
 BYTE   W06
//  #09 //027   ----------------------------------------
 BYTE   N05  Cn1
 BYTE   N03  As1
 BYTE   W12
 BYTE   N06  Fs1
 BYTE   W06
 BYTE   N13
 BYTE   W06
 BYTE   N07  Cn1
 BYTE   N04  As1
 BYTE   W12
 BYTE   N05  Fs1
 BYTE   W06
 BYTE   N14
 BYTE   W06
 BYTE   N05  Cn1
 BYTE   N03  As1
 BYTE   W12
 BYTE   N05  Fs1
 BYTE   W06
 BYTE   N13
 BYTE   W06
 BYTE   N07  Cn1
 BYTE   N04  As1
 BYTE   W12
 BYTE   N06  Fs1
 BYTE   W06
 BYTE   N14
 BYTE   W06
//  #09 //028   ----------------------------------------
 BYTE   N05  Cn1
 BYTE   N02  As1
 BYTE   N30  Cs2
 BYTE   W12
 BYTE   N06  Fs1
 BYTE   W06
 BYTE   N12
 BYTE   W06
 BYTE   N06  Cn1
 BYTE   N04  As1
 BYTE   W12
 BYTE   N06  Fs1
 BYTE   W06
 BYTE   N13
 BYTE   W06
 BYTE   N05  Cn1
 BYTE   N02  As1
 BYTE   W12
 BYTE   N05  Fs1
 BYTE   W06
 BYTE   N15
 BYTE   W06
 BYTE   N06  Cn1
 BYTE   N04  As1
 BYTE   W12
 BYTE   N06  Fs1
 BYTE   W06
 BYTE   N13
 BYTE   W06
//  #09 //029   ----------------------------------------
 BYTE   N05  Cn1
 BYTE   N02  As1
 BYTE   W12
 BYTE   N05  Fs1
 BYTE   W06
 BYTE   N15
 BYTE   W06
 BYTE   N06  Cn1
 BYTE   N03  As1
 BYTE   W12
 BYTE   N06  Fs1
 BYTE   W06
 BYTE   N13
 BYTE   W06
 BYTE   N07  Cn1
 BYTE   N05  As1
 BYTE   W12
 BYTE   N06  Fs1
 BYTE   W06
 BYTE   N14
 BYTE   W06
 BYTE   N06  Cn1
 BYTE   N06  En1
 BYTE   N03  As1
 BYTE   W06
 BYTE   N06  En1
 BYTE   W06
 BYTE   N06
 BYTE   N06  Fs1
 BYTE   W06
 BYTE   En1
 BYTE   N13  Fs1
 BYTE   W06
//  #09 //030   ----------------------------------------
 BYTE   N06  Cn1
 BYTE   N14  En1
 BYTE   W01
 BYTE   N03  As1
 BYTE   W11
 BYTE   N05  Fs1
 BYTE   W06
 BYTE   N14
 BYTE   W06
 BYTE   N05  Cn1
 BYTE   N03  As1
 BYTE   W12
 BYTE   N06  Fs1
 BYTE   W06
 BYTE   N13
 BYTE   W06
 BYTE   N07  Cn1
 BYTE   N04  As1
 BYTE   W12
 BYTE   N06  Fs1
 BYTE   W06
 BYTE   N14
 BYTE   W06
 BYTE   N05  Cn1
 BYTE   N03  As1
 BYTE   W12
 BYTE   N06  Fs1
 BYTE   W06
 BYTE   N13
 BYTE   W06
//  #09 //031   ----------------------------------------
 BYTE   N07  Cn1
 BYTE   N04  As1
 BYTE   W12
 BYTE   N05  Fs1
 BYTE   W06
 BYTE   N13
 BYTE   W06
 BYTE   N05  Cn1
 BYTE   N03  As1
 BYTE   W12
 BYTE   N06  Fs1
 BYTE   W06
 BYTE   N15
 BYTE   W06
 BYTE   N06  Cn1
 BYTE   N04  As1
 BYTE   W12
 BYTE   N05  Fs1
 BYTE   W06
 BYTE   N13
 BYTE   W06
 BYTE   N05  Cn1
 BYTE   N02  As1
 BYTE   W12
 BYTE   N06  Fs1
 BYTE   W06
 BYTE   N14
 BYTE   W06
//  #09 //032   ----------------------------------------
 BYTE   N06  Cn1
 BYTE   N03  As1
 BYTE   W12
 BYTE   N06  Fs1
 BYTE   W06
 BYTE   N13
 BYTE   W06
 BYTE   N07  Cn1
 BYTE   N05  As1
 BYTE   W12
 BYTE   N06  Fs1
 BYTE   W06
 BYTE   N14
 BYTE   W06
 BYTE   N06  Cn1
 BYTE   N03  As1
 BYTE   W12
 BYTE   N05  Fs1
 BYTE   W06
 BYTE   N13
 BYTE   W06
 BYTE   N07  Cn1
 BYTE   N04  As1
 BYTE   W12
 BYTE   N06  Fs1
 BYTE   W06
 BYTE   N14
 BYTE   W06
//  #09 //033   ----------------------------------------
 BYTE   N06  Cn1
 BYTE   N03  As1
 BYTE   W12
 BYTE   N06  Fs1
 BYTE   W06
 BYTE   N13
 BYTE   W06
 BYTE   N07  Cn1
 BYTE   N04  As1
 BYTE   W12
 BYTE   N06  Fs1
 BYTE   W06
 BYTE   N14
 BYTE   W06
 BYTE   N05  Cn1
 BYTE   N02  As1
 BYTE   W12
 BYTE   N06  Fs1
 BYTE   W06
 BYTE   N12
 BYTE   W06
 BYTE   N06  Cn1
 BYTE   N05  En1
 BYTE   N03  As1
 BYTE   W06
 BYTE   N06  En1
 BYTE   W06
 BYTE   N06
 BYTE   N06  Fs1
 BYTE   W06
 BYTE   En1
 BYTE   N13  Fs1
 BYTE   W06
//  #09 //034   ----------------------------------------
 BYTE   N05  Cn1
 BYTE   N12  En1
 BYTE   N02  As1
 BYTE   W12
 BYTE   N06  Fs1
 BYTE   W06
 BYTE   N12
 BYTE   W06
 BYTE   N06  Cn1
 BYTE   N03  As1
 BYTE   W12
 BYTE   N05  Fs1
 BYTE   W06
 BYTE   N13
 BYTE   W06
 BYTE   N05  Cn1
 BYTE   N02  As1
 BYTE   W12
 BYTE   N06  Fs1
 BYTE   W06
 BYTE   N14
 BYTE   W06
 BYTE   N06  Cn1
 BYTE   N04  As1
 BYTE   W12
 BYTE   N06  Fs1
 BYTE   W06
 BYTE   N13
 BYTE   W06
//  #09 //035   ----------------------------------------
 BYTE   N07  Cn1
 BYTE   N05  As1
 BYTE   W12
 BYTE   N06  Fs1
 BYTE   W06
 BYTE   N14
 BYTE   W06
 BYTE   N06  Cn1
 BYTE   N03  As1
 BYTE   W12
 BYTE   N06  Fs1
 BYTE   W06
 BYTE   N13
 BYTE   W06
 BYTE   N07  Cn1
 BYTE   N04  As1
 BYTE   W12
 BYTE   N06  Fs1
 BYTE   W06
 BYTE   N14
 BYTE   W06
 BYTE   N05  Cn1
 BYTE   N03  As1
 BYTE   W12
 BYTE   N06  Fs1
 BYTE   W06
 BYTE   N13
 BYTE   W06
//  #09 //036   ----------------------------------------
 BYTE   N07  Cn1
 BYTE   N04  As1
 BYTE   W12
 BYTE   N05  Fs1
 BYTE   W06
 BYTE   N14
 BYTE   W06
 BYTE   N06  Cn1
 BYTE   N03  As1
 BYTE   W12
 BYTE   N06  Fs1
 BYTE   W06
 BYTE   N12
 BYTE   W06
 BYTE   N06  Cn1
 BYTE   N04  As1
 BYTE   W12
 BYTE   N05  Fs1
 BYTE   W06
 BYTE   N14
 BYTE   W06
 BYTE   N05  Cn1
 BYTE   N03  As1
 BYTE   W12
 BYTE   N05  Fs1
 BYTE   W06
 BYTE   N12
 BYTE   W06
//  #09 //037   ----------------------------------------
 BYTE   N06  Cn1
 BYTE   N04  As1
 BYTE   W12
 BYTE   N06  Fs1
 BYTE   W06
 BYTE   N13
 BYTE   W06
 BYTE   N05  Cn1
 BYTE   N03  As1
 BYTE   W12
 BYTE   N06  Fs1
 BYTE   W06
 BYTE   N15
 BYTE   W06
 BYTE   N06  Cn1
 BYTE   N04  As1
 BYTE   W12
 BYTE   N06  Fs1
 BYTE   W06
 BYTE   N13
 BYTE   W06
 BYTE   N05  Cn1
 BYTE   N06  En1
 BYTE   N02  As1
 BYTE   W06
 BYTE   N06  En1
 BYTE   W06
 BYTE   N06
 BYTE   N06  Fs1
 BYTE   W06
 BYTE   En1
 BYTE   N14  Fs1
 BYTE   W06
//  #09 //038   ----------------------------------------
 BYTE   N05  Cn1
 BYTE   N13  En1
 BYTE   N03  As1
 BYTE   W12
 BYTE   N06  Fs1
 BYTE   W06
 BYTE   N13
 BYTE   W06
 BYTE   N07  Cn1
 BYTE   N04  As1
 BYTE   W12
 BYTE   N05  Fs1
 BYTE   W06
 BYTE   N14
 BYTE   W06
 BYTE   N05  Cn1
 BYTE   N03  As1
 BYTE   W12
 BYTE   N06  Fs1
 BYTE   W06
 BYTE   N13
 BYTE   W06
 BYTE   N07  Cn1
 BYTE   N04  As1
 BYTE   W12
 BYTE   N05  Fs1
 BYTE   W06
 BYTE   N14
 BYTE   W06
//  #09 //039   ----------------------------------------
 BYTE   N05  Cn1
 BYTE   N03  As1
 BYTE   W12
 BYTE   N06  Fs1
 BYTE   W06
 BYTE   N12
 BYTE   W06
 BYTE   N06  Cn1
 BYTE   N04  As1
 BYTE   W12
 BYTE   N06  Fs1
 BYTE   W06
 BYTE   N14
 BYTE   W06
 BYTE   N05  Cn1
 BYTE   N03  As1
 BYTE   W12
 BYTE   N06  Fs1
 BYTE   W06
 BYTE   N12
 BYTE   W06
 BYTE   N06  Cn1
 BYTE   N04  As1
 BYTE   W12
 BYTE   N06  Fs1
 BYTE   W06
 BYTE   N13
 BYTE   W06
//  #09 //040   ----------------------------------------
 BYTE   N05  Cn1
 BYTE   N02  As1
 BYTE   W12
 BYTE   N06  Fs1
 BYTE   W06
 BYTE   N15
 BYTE   W06
 BYTE   N06  Cn1
 BYTE   N04  As1
 BYTE   W12
 BYTE   N05  Fs1
 BYTE   W06
 BYTE   N13
 BYTE   W06
 BYTE   N05  Cn1
 BYTE   N02  As1
 BYTE   W12
 BYTE   N06  Fs1
 BYTE   W06
 BYTE   N14
 BYTE   W06
 BYTE   N06  Cn1
 BYTE   N03  As1
 BYTE   W12
 BYTE   N06  Fs1
 BYTE   W06
 BYTE   N13
 BYTE   W06
//  #09 //041   ----------------------------------------
 BYTE   N07  Cn1
 BYTE   N04  As1
 BYTE   W12
 BYTE   N06  Fs1
 BYTE   W06
 BYTE   N14
 BYTE   W06
 BYTE   N06  Cn1
 BYTE   N03  As1
 BYTE   W12
 BYTE   N06  Fs1
 BYTE   W06
 BYTE   N13
 BYTE   W06
 BYTE   N07  Cn1
 BYTE   N04  As1
 BYTE   W12
 BYTE   N06  Fs1
 BYTE   W06
 BYTE   N14
 BYTE   W06
 BYTE   N05  Cn1
 BYTE   N05  En1
 BYTE   N02  As1
 BYTE   W06
 BYTE   N06  En1
 BYTE   W06
 BYTE   N06
 BYTE   N06  Fs1
 BYTE   W06
 BYTE   En1
 BYTE   N12  Fs1
 BYTE   W06
//  #09 //042   ----------------------------------------
 BYTE   N06  Cn1
 BYTE   N14  En1
 BYTE   N03  As1
 BYTE   W12
 BYTE   N06  Fs1
 BYTE   W06
 BYTE   N14
 BYTE   W06
 BYTE   N05  Cn1
 BYTE   N03  As1
 BYTE   W12
 BYTE   N06  Fs1
 BYTE   W06
 BYTE   N12
 BYTE   W06
 BYTE   N06  Cn1
 BYTE   N04  As1
 BYTE   W12
 BYTE   N05  Fs1
 BYTE   W06
 BYTE   N14
 BYTE   W06
 BYTE   N05  Cn1
 BYTE   N02  As1
 BYTE   W12
 BYTE   N06  Fs1
 BYTE   W06
 BYTE   N15
 BYTE   W06
//  #09 //043   ----------------------------------------
 BYTE   N06  Cn1
 BYTE   N04  As1
 BYTE   W12
 BYTE   N06  Fs1
 BYTE   W06
 BYTE   N13
 BYTE   W06
 BYTE   N05  Cn1
 BYTE   N02  As1
 BYTE   W12
 BYTE   N05  Fs1
 BYTE   W06
 BYTE   N15
 BYTE   W06
 BYTE   N06  Cn1
 BYTE   N03  As1
 BYTE   W12
 BYTE   N05  Fs1
 BYTE   W06
 BYTE   N13
 BYTE   W06
 BYTE   N07  Cn1
 BYTE   N04  As1
 BYTE   W12
 BYTE   N06  Fs1
 BYTE   W06
 BYTE   N06
 BYTE   W06
//  #09 //044   ----------------------------------------
 BYTE   Cn1
 BYTE   N13  Fs1
 BYTE   N12  An3  v100
 BYTE   W12
 BYTE   N03  As1  v127
 BYTE   N11  An3  v100
 BYTE   W12
 BYTE   N07  Cn1  v127
 BYTE   N12  Fs1
 BYTE   N12  An3  v100
 BYTE   W12
 BYTE   Fs1  v127
 BYTE   N11  An3  v100
 BYTE   W12
 BYTE   N05  Cn1  v127
 BYTE   N03  As1
 BYTE   N12  An3  v100
 BYTE   W12
 BYTE   Fs1  v127
 BYTE   N12  An3  v100
 BYTE   W12
 BYTE   N06  Cn1  v127
 BYTE   N14  Fs1
 BYTE   N11  An3  v100
 BYTE   W12
 BYTE   N04  As1  v127
 BYTE   N12  An3  v100
 BYTE   W12
//  #09 //045   ----------------------------------------
 BYTE   N05  Cn1  v127
 BYTE   N11  Fs1
 BYTE   N11  An3  v100
 BYTE   W12
 BYTE   N13  Fs1  v127
 BYTE   N12  An3  v100
 BYTE   W12
 BYTE   N06  Cn1  v127
 BYTE   N12  An3  v100
 BYTE   W01
 BYTE   N03  As1  v127
 BYTE   W11
 BYTE   N14  Fs1
 BYTE   N11  An3  v100
 BYTE   W12
 BYTE   N05  Cn1  v127
 BYTE   N02  As1
 BYTE   N12  An3  v100
 BYTE   W12
 BYTE   N13  Fs1  v127
 BYTE   N12  An3  v100
 BYTE   W12
 BYTE   N06  Cn1  v127
 BYTE   N03  As1
 BYTE   N11  An3  v100
 BYTE   W12
 BYTE   N12  Fs1  v127
 BYTE   N12  An3  v100
 BYTE   W12
//  #09 //046   ----------------------------------------
 BYTE   N04  Cn1  v127
 BYTE   N12  Fs1
 BYTE   N11  An3  v100
 BYTE   W12
 BYTE   N03  As1  v127
 BYTE   N12  An3  v100
 BYTE   W12
 BYTE   N06  Cn1  v127
 BYTE   N12  Fs1
 BYTE   N12  An3  v100
 BYTE   W12
 BYTE   N14  Fs1  v127
 BYTE   N12  An3  v100
 BYTE   W12
 BYTE   N07  Cn1  v127
 BYTE   N05  As1
 BYTE   N11  An3  v100
 BYTE   W12
 BYTE   N12  Fs1  v127
 BYTE   N12  An3  v100
 BYTE   W12
 BYTE   N05  Cn1  v127
 BYTE   N13  Fs1
 BYTE   N11  An3  v100
 BYTE   W12
 BYTE   N04  As1  v127
 BYTE   N12  An3  v100
 BYTE   W12
//  #09 //047   ----------------------------------------
 BYTE   N07  Cn1  v127
 BYTE   N12  Fs1
 BYTE   N12  An3  v100
 BYTE   W12
 BYTE   Fs1  v127
 BYTE   N12  An3  v100
 BYTE   W12
 BYTE   N05  Cn1  v127
 BYTE   N03  As1
 BYTE   N12  An3  v100
 BYTE   W12
 BYTE   N13  Fs1  v127
 BYTE   N12  An3  v100
 BYTE   W12
 BYTE   N06  Cn1  v127
 BYTE   N04  As1
 BYTE   N11  An3  v100
 BYTE   W12
 BYTE   N12  Fs1  v127
 BYTE   N12  An3  v100
 BYTE   W12
 BYTE   N05  Cn1  v127
 BYTE   N02  As1
 BYTE   N12  An3  v100
 BYTE   W12
 BYTE   Fs1  v127
 BYTE   N12  An3  v100
 BYTE   W12
//  #09 //048   ----------------------------------------
 BYTE   N06  Cn1  v127
 BYTE   N14  Fs1
 BYTE   N12  An3  v100
 BYTE   W12
 BYTE   N04  As1  v127
 BYTE   N12  An3  v100
 BYTE   W12
 BYTE   N05  Cn1  v127
 BYTE   N11  Fs1
 BYTE   N11  An3  v100
 BYTE   W12
 BYTE   N13  Fs1  v127
 BYTE   N12  An3  v100
 BYTE   W12
 BYTE   N06  Cn1  v127
 BYTE   N03  As1
 BYTE   N11  An3  v100
 BYTE   W12
 BYTE   N12  Fs1  v127
 BYTE   N12  An3  v100
 BYTE   W12
 BYTE   N04  Cn1  v127
 BYTE   N12  Fs1
 BYTE   N11  An3  v100
 BYTE   W12
 BYTE   N03  As1  v127
 BYTE   N12  An3  v100
 BYTE   W12
//  #09 //049   ----------------------------------------
 BYTE   N06  Cn1  v127
 BYTE   N11  Fs1
 BYTE   N11  An3  v100
 BYTE   W12
 BYTE   N14  Fs1  v127
 BYTE   N12  An3  v100
 BYTE   W12
 BYTE   N07  Cn1  v127
 BYTE   N12  An3  v100
 BYTE   W01
 BYTE   N04  As1  v127
 BYTE   W11
 BYTE   N12  Fs1
 BYTE   N11  An3  v100
 BYTE   W12
 BYTE   N06  Cn1  v127
 BYTE   N03  As1
 BYTE   N12  An3  v100
 BYTE   W12
 BYTE   N14  Fs1  v127
 BYTE   N12  An3  v100
 BYTE   W12
 BYTE   N07  Cn1  v127
 BYTE   N04  As1
 BYTE   N12  An3  v100
 BYTE   W12
 BYTE   Fs1  v127
 BYTE   N12  An3  v100
 BYTE   W12
//  #09 //050   ----------------------------------------
 BYTE   N05  Cn1  v127
 BYTE   N13  Fs1
 BYTE   N11  An3  v100
 BYTE   W12
 BYTE   N04  As1  v127
 BYTE   N12  An3  v100
 BYTE   W12
 BYTE   N06  Cn1  v127
 BYTE   N11  Fs1
 BYTE   N12  An3  v100
 BYTE   W12
 BYTE   Fs1  v127
 BYTE   N11  An3  v100
 BYTE   W12
 BYTE   N05  Cn1  v127
 BYTE   N03  As1
 BYTE   N12  An3  v100
 BYTE   W12
 BYTE   Fs1  v127
 BYTE   N12  An3  v100
 BYTE   W12
 BYTE   N06  Cn1  v127
 BYTE   N13  Fs1
 BYTE   N11  An3  v100
 BYTE   W12
 BYTE   N04  As1  v127
 BYTE   N12  An3  v100
 BYTE   W12
//  #09 //051   ----------------------------------------
 BYTE   N05  Cn1  v127
 BYTE   N12  Fs1
 BYTE   N12  An3  v100
 BYTE   W12
 BYTE   N13  Fs1  v127
 BYTE   N12  An3  v100
 BYTE   W12
 BYTE   N06  Cn1  v127
 BYTE   N03  As1
 BYTE   N11  An3  v100
 BYTE   W12
 BYTE   N14  Fs1  v127
 BYTE   N12  An3  v100
 BYTE   W12
 BYTE   N04  Cn1  v127
 BYTE   N02  As1
 BYTE   N11  An3  v100
 BYTE   W12
 BYTE   N13  Fs1  v127
 BYTE   N12  An3  v100
 BYTE   W12
 BYTE   N06  Cn1  v127
 BYTE   N03  As1
 BYTE   N11  An3  v100
 BYTE   W12
 BYTE   N14  Fs1  v127
 BYTE   N68  An3  v100
 BYTE   W12
//  #09 //052   ----------------------------------------
 BYTE   N07  Cn1  v127
 BYTE   N04  As1
 BYTE   N32  Cs2
 BYTE   W12
 BYTE   N05  Fs1
 BYTE   W06
 BYTE   N14
 BYTE   W06
 BYTE   N06  Cn1
 BYTE   N03  As1
 BYTE   W12
 BYTE   N06  Fs1
 BYTE   W06
 BYTE   N13
 BYTE   W06
 BYTE   N07  Cn1
 BYTE   N04  As1
 BYTE   W12
 BYTE   N06  Fs1
 BYTE   W06
 BYTE   N14
 BYTE   W06
 BYTE   N06  Cn1
 BYTE   N03  As1
 BYTE   W12
 BYTE   N06  Fs1
 BYTE   W06
 BYTE   N13
 BYTE   W06
//  #09 //053   ----------------------------------------
 BYTE   N07  Cn1
 BYTE   N04  As1
 BYTE   W12
 BYTE   N06  Fs1
 BYTE   W06
 BYTE   N14
 BYTE   W06
 BYTE   N05  Cn1
 BYTE   N02  As1
 BYTE   W12
 BYTE   N06  Fs1
 BYTE   W06
 BYTE   N13
 BYTE   W06
 BYTE   N06  Cn1
 BYTE   N04  As1
 BYTE   W12
 BYTE   N06  Fs1
 BYTE   W06
 BYTE   N14
 BYTE   W06
 BYTE   N05  Cn1
 BYTE   N03  As1
 BYTE   W12
 BYTE   N06  Fs1
 BYTE   W06
 BYTE   N12
 BYTE   W06
//  #09 //054   ----------------------------------------
 BYTE   N06  Cn1
 BYTE   N04  As1
 BYTE   W12
 BYTE   N06  Fs1
 BYTE   W06
 BYTE   N13
 BYTE   W06
 BYTE   N05  Cn1
 BYTE   N02  As1
 BYTE   W12
 BYTE   N06  Fs1
 BYTE   W06
 BYTE   N14
 BYTE   W06
 BYTE   N06  Cn1
 BYTE   N03  As1
 BYTE   W12
 BYTE   N05  Fs1
 BYTE   W06
 BYTE   N13
 BYTE   W06
 BYTE   N05  Cn1
 BYTE   N02  As1
 BYTE   W12
 BYTE   N06  Fs1
 BYTE   W06
 BYTE   N14
 BYTE   W06
//  #09 //055   ----------------------------------------
 BYTE   N06  Cn1
 BYTE   N03  As1
 BYTE   W12
 BYTE   N06  Fs1
 BYTE   W06
 BYTE   N13
 BYTE   W06
 BYTE   N07  Cn1
 BYTE   N04  As1
 BYTE   W12
 BYTE   N06  Fs1
 BYTE   W06
 BYTE   N14
 BYTE   W06
 BYTE   N06  Cn1
 BYTE   N03  As1
 BYTE   W12
 BYTE   N06  Fs1
 BYTE   W06
 BYTE   N13
 BYTE   W06
 BYTE   N07  Cn1
 BYTE   N04  As1
 BYTE   W12
 BYTE   N06  Fs1
 BYTE   W12
//  #09 //056   ----------------------------------------
 BYTE   GoTo
  POIN2 Label_01611924
 BYTE   FINE

//******************************************************//
	ALIGN 4

song1D:
	BYTE	9	// NumTrks
	BYTE	0	// NumBlks
	BYTE	song1D_pri	// Priority
	BYTE	song1D_rev	// Reverb.
    
	POIN2	song1D_grp
    
	POIN2	song1D_001
	POIN2	song1D_002
	POIN2	song1D_003
	POIN2	song1D_004
	POIN2	song1D_005
	POIN2	song1D_006
	POIN2	song1D_007
	POIN2	song1D_008
	POIN2	song1D_009

	
