//Event file generated from Sappy .s format.
	#include "MPlayDef.event"

	#define	song2A_grp  voicegroup000
	#define	song2A_pri  0
	#define	song2A_rev  0
	#define	song2A_mvl  127
	#define	song2A_key  0
	#define	song2A_tbs  1
	#define	song2A_exg  0
	#define	song2A_cmp  1

	// .rodata
	//	song2A
	ALIGN 4


//**************** Track 1 (Midi-Chn.0) ****************//

song2A_001:
//  #01 //000   ----------------------------------------
 BYTE   KEYSH   song2A_key+0
 BYTE   TEMPO   112*song2A_tbs/2
 BYTE   VOICE   74
 BYTE   VOL   46*song2A_mvl/mxv
 BYTE   PAN   c_v-1
 BYTE   PAN   c_v+0
 BYTE   W96
//  #01 //001   ----------------------------------------
 BYTE   W96
//  #01 //002   ----------------------------------------
 BYTE   W96
//  #01 //003   ----------------------------------------
 BYTE   W96
//  #01 //004   ----------------------------------------
 BYTE   W96
//  #01 //005   ----------------------------------------
 BYTE   W96
//  #01 //006   ----------------------------------------
 BYTE   W96
//  #01 //007   ----------------------------------------
 BYTE   W96
//  #01 //008   ----------------------------------------
 BYTE   N23  Cn4  v084
 BYTE   W24
 BYTE   N11  Gn3
 BYTE   W12
 BYTE   As3
 BYTE   W12
 BYTE   Gn3
 BYTE   W12
 BYTE   N05  As3
 BYTE   W12
 BYTE   N23
 BYTE   W24
//  #01 //009   ----------------------------------------
 BYTE   W96
//  #01 //010   ----------------------------------------
Label_015F7BE8:
 BYTE   N23  Cn4  v080
 BYTE   W24
 BYTE   N05  En4
 BYTE   W12
 BYTE   Gn4
 BYTE   W12
 BYTE   N17  As4
 BYTE   W18
 BYTE   N05  An4
 BYTE   W06
 BYTE   Gn4
 BYTE   W12
 BYTE   N11  En4
 BYTE   W12
 BYTE   PEND 
//  #01 //011   ----------------------------------------
Label_015F7BFD:
 BYTE   N11  As3  v080
 BYTE   W12
 BYTE   Cn4
 BYTE   W24
 BYTE   As3
 BYTE   W12
 BYTE   N23  Cn4
 BYTE   W48
 BYTE   PEND 
//  #01 //012   ----------------------------------------
 BYTE   PATT
  POIN2 Label_015F7BE8
//  #01 //013   ----------------------------------------
 BYTE   PATT
  POIN2 Label_015F7BFD
//  #01 //014   ----------------------------------------
 BYTE   PATT
  POIN2 Label_015F7BE8
//  #01 //015   ----------------------------------------
 BYTE   PATT
  POIN2 Label_015F7BFD
//  #01 //016   ----------------------------------------
Label_015F7C1D:
 BYTE   N17  Cn4  v080
 BYTE   W18
 BYTE   N02
 BYTE   W06
 BYTE   N05  En4
 BYTE   W12
 BYTE   Gn4
 BYTE   W12
 BYTE   N17  As4
 BYTE   W18
 BYTE   N05  An4
 BYTE   W06
 BYTE   Gn4
 BYTE   W12
 BYTE   N11  En4
 BYTE   W12
 BYTE   PEND 
//  #01 //017   ----------------------------------------
Label_015F7C34:
 BYTE   N11  As3  v080
 BYTE   W12
 BYTE   Cn4
 BYTE   W12
 BYTE   N05
 BYTE   W12
 BYTE   N11  As3
 BYTE   W12
 BYTE   N23  Cn4
 BYTE   W24
 BYTE   N17
 BYTE   W18
 BYTE   N02
 BYTE   W06
 BYTE   PEND 
//  #01 //018   ----------------------------------------
Label_015F7C47:
 BYTE   N23  An4  v080
 BYTE   W24
 BYTE   N17
 BYTE   W18
 BYTE   N02  Gn4
 BYTE   W18
 BYTE   N23  Cn4
 BYTE   W36
 BYTE   PEND 
//  #01 //019   ----------------------------------------
 BYTE   PATT
  POIN2 Label_015F7C47
//  #01 //020   ----------------------------------------
Label_015F7C59:
 BYTE   N23  An4  v080
 BYTE   W24
 BYTE   N17
 BYTE   W18
 BYTE   N02  Gn4
 BYTE   W18
 BYTE   N23  En4
 BYTE   W24
 BYTE   N44  Dn4
 BYTE   W12
 BYTE   PEND 
//  #01 //021   ----------------------------------------
 BYTE   W96
//  #01 //022   ----------------------------------------
 BYTE   W96
//  #01 //023   ----------------------------------------
 BYTE   W96
//  #01 //024   ----------------------------------------
 BYTE   W96
//  #01 //025   ----------------------------------------
 BYTE   W96
//  #01 //026   ----------------------------------------
 BYTE   PATT
  POIN2 Label_015F7BE8
//  #01 //027   ----------------------------------------
 BYTE   PATT
  POIN2 Label_015F7BFD
//  #01 //028   ----------------------------------------
 BYTE   PATT
  POIN2 Label_015F7BE8
//  #01 //029   ----------------------------------------
 BYTE   PATT
  POIN2 Label_015F7BFD
//  #01 //030   ----------------------------------------
 BYTE   PATT
  POIN2 Label_015F7BE8
//  #01 //031   ----------------------------------------
 BYTE   PATT
  POIN2 Label_015F7BFD
//  #01 //032   ----------------------------------------
 BYTE   PATT
  POIN2 Label_015F7C1D
//  #01 //033   ----------------------------------------
 BYTE   PATT
  POIN2 Label_015F7C34
//  #01 //034   ----------------------------------------
 BYTE   PATT
  POIN2 Label_015F7C47
//  #01 //035   ----------------------------------------
 BYTE   PATT
  POIN2 Label_015F7C47
//  #01 //036   ----------------------------------------
 BYTE   PATT
  POIN2 Label_015F7C59
//  #01 //037   ----------------------------------------
Label_015F7CA5:
 BYTE   W60
 BYTE   N05  En4  v080
 BYTE   W06
 BYTE   Dn4
 BYTE   W06
 BYTE   N11  Cn4
 BYTE   W18
 BYTE   N05  An3
 BYTE   W06
 BYTE   PEND 
//  #01 //038   ----------------------------------------
 BYTE   N23  Cn4
 BYTE   W96
//  #01 //039   ----------------------------------------
 BYTE   W96
//  #01 //040   ----------------------------------------
 BYTE   W96
//  #01 //041   ----------------------------------------
 BYTE   W96
//  #01 //042   ----------------------------------------
 BYTE   W96
//  #01 //043   ----------------------------------------
 BYTE   W96
//  #01 //044   ----------------------------------------
 BYTE   W96
//  #01 //045   ----------------------------------------
 BYTE   W96
//  #01 //046   ----------------------------------------
 BYTE   W96
//  #01 //047   ----------------------------------------
 BYTE   W96
//  #01 //048   ----------------------------------------
 BYTE   W96
//  #01 //049   ----------------------------------------
 BYTE   W96
//  #01 //050   ----------------------------------------
 BYTE   W96
//  #01 //051   ----------------------------------------
 BYTE   W96
//  #01 //052   ----------------------------------------
 BYTE   W96
//  #01 //053   ----------------------------------------
 BYTE   W96
//  #01 //054   ----------------------------------------
 BYTE   W96
//  #01 //055   ----------------------------------------
 BYTE   W96
//  #01 //056   ----------------------------------------
 BYTE   W96
//  #01 //057   ----------------------------------------
 BYTE   W96
//  #01 //058   ----------------------------------------
 BYTE   W96
//  #01 //059   ----------------------------------------
 BYTE   W96
//  #01 //060   ----------------------------------------
 BYTE   W96
//  #01 //061   ----------------------------------------
 BYTE   W72
 BYTE   N17
 BYTE   W18
 BYTE   N02
 BYTE   W06
//  #01 //062   ----------------------------------------
 BYTE   N23  An4
 BYTE   W24
 BYTE   N17
 BYTE   W18
 BYTE   N02  Gn4
 BYTE   W18
 BYTE   N32  Cn4
 BYTE   W36
//  #01 //063   ----------------------------------------
 BYTE   PATT
  POIN2 Label_015F7C47
//  #01 //064   ----------------------------------------
 BYTE   N23  An4  v080
 BYTE   W24
 BYTE   N17
 BYTE   W18
 BYTE   N11  Gn4
 BYTE   W18
 BYTE   N23  En4
 BYTE   W24
 BYTE   N44  Dn4
 BYTE   W12
//  #01 //065   ----------------------------------------
 BYTE   PATT
  POIN2 Label_015F7CA5
//  #01 //066   ----------------------------------------
Label_015F7CF5:
 BYTE   N44  Cn4  v080
 BYTE   W60
 BYTE   N05  En4
 BYTE   W06
 BYTE   Dn4
 BYTE   W06
 BYTE   N11  Cn4
 BYTE   W18
 BYTE   N05  An3
 BYTE   W06
 BYTE   PEND 
//  #01 //067   ----------------------------------------
 BYTE   N44  As3
 BYTE   W60
 BYTE   N05  En4
 BYTE   W06
 BYTE   Dn4
 BYTE   W06
 BYTE   N11  Cn4
 BYTE   W18
 BYTE   N05  An3
 BYTE   W06
//  #01 //068   ----------------------------------------
 BYTE   PATT
  POIN2 Label_015F7CF5
//  #01 //069   ----------------------------------------
 BYTE   N44  As3  v080
 BYTE   W48
 BYTE   N11  Ds4
 BYTE   W12
 BYTE   Dn4
 BYTE   W12
 BYTE   Cn4
 BYTE   W18
 BYTE   N05  An3
 BYTE   W06
//  #01 //070   ----------------------------------------
 BYTE   N68  Cn4
 BYTE   W96
//  #01 //071   ----------------------------------------
 BYTE   W24
 BYTE   GoTo
  POIN2 Label_015F7BE8
 BYTE   FINE

//**************** Track 2 (Midi-Chn.1) ****************//

song2A_002:
//  #02 //000   ----------------------------------------
 BYTE   KEYSH   song2A_key+0
 BYTE   VOICE   73
 BYTE   VOL   35*song2A_mvl/mxv
 BYTE   PAN   c_v+0
 BYTE   PAN   c_v+0
 BYTE   W96
//  #02 //001   ----------------------------------------
 BYTE   W96
//  #02 //002   ----------------------------------------
 BYTE   W96
//  #02 //003   ----------------------------------------
 BYTE   W96
//  #02 //004   ----------------------------------------
 BYTE   W96
//  #02 //005   ----------------------------------------
 BYTE   W96
//  #02 //006   ----------------------------------------
 BYTE   W96
//  #02 //007   ----------------------------------------
 BYTE   W96
//  #02 //008   ----------------------------------------
 BYTE   W96
//  #02 //009   ----------------------------------------
 BYTE   W96
//  #02 //010   ----------------------------------------
Label_015F7E77:
 BYTE   W96
//  #02 //011   ----------------------------------------
 BYTE   W96
//  #02 //012   ----------------------------------------
 BYTE   W96
//  #02 //013   ----------------------------------------
 BYTE   W96
//  #02 //014   ----------------------------------------
 BYTE   W96
//  #02 //015   ----------------------------------------
 BYTE   W96
//  #02 //016   ----------------------------------------
 BYTE   W96
//  #02 //017   ----------------------------------------
 BYTE   W96
//  #02 //018   ----------------------------------------
 BYTE   W96
//  #02 //019   ----------------------------------------
 BYTE   W96
//  #02 //020   ----------------------------------------
 BYTE   W96
//  #02 //021   ----------------------------------------
 BYTE   W96
//  #02 //022   ----------------------------------------
 BYTE   W96
//  #02 //023   ----------------------------------------
 BYTE   W96
//  #02 //024   ----------------------------------------
 BYTE   W96
//  #02 //025   ----------------------------------------
 BYTE   W96
//  #02 //026   ----------------------------------------
 BYTE   W96
//  #02 //027   ----------------------------------------
 BYTE   W96
//  #02 //028   ----------------------------------------
 BYTE   W96
//  #02 //029   ----------------------------------------
 BYTE   W96
//  #02 //030   ----------------------------------------
 BYTE   W96
//  #02 //031   ----------------------------------------
 BYTE   W96
//  #02 //032   ----------------------------------------
 BYTE   W96
//  #02 //033   ----------------------------------------
 BYTE   W96
//  #02 //034   ----------------------------------------
 BYTE   W96
//  #02 //035   ----------------------------------------
 BYTE   W96
//  #02 //036   ----------------------------------------
 BYTE   W96
//  #02 //037   ----------------------------------------
 BYTE   W96
//  #02 //038   ----------------------------------------
 BYTE   W96
//  #02 //039   ----------------------------------------
 BYTE   W96
//  #02 //040   ----------------------------------------
 BYTE   W96
//  #02 //041   ----------------------------------------
 BYTE   W96
//  #02 //042   ----------------------------------------
 BYTE   W96
//  #02 //043   ----------------------------------------
 BYTE   W96
//  #02 //044   ----------------------------------------
 BYTE   W96
//  #02 //045   ----------------------------------------
 BYTE   W96
//  #02 //046   ----------------------------------------
 BYTE   W96
//  #02 //047   ----------------------------------------
 BYTE   W96
//  #02 //048   ----------------------------------------
 BYTE   W96
//  #02 //049   ----------------------------------------
 BYTE   W96
//  #02 //050   ----------------------------------------
 BYTE   W96
//  #02 //051   ----------------------------------------
 BYTE   W96
//  #02 //052   ----------------------------------------
 BYTE   W96
//  #02 //053   ----------------------------------------
 BYTE   W96
//  #02 //054   ----------------------------------------
 BYTE   W96
//  #02 //055   ----------------------------------------
 BYTE   W96
//  #02 //056   ----------------------------------------
 BYTE   W96
//  #02 //057   ----------------------------------------
 BYTE   W96
//  #02 //058   ----------------------------------------
 BYTE   W96
//  #02 //059   ----------------------------------------
 BYTE   W96
//  #02 //060   ----------------------------------------
 BYTE   W96
//  #02 //061   ----------------------------------------
 BYTE   W96
//  #02 //062   ----------------------------------------
 BYTE   W96
//  #02 //063   ----------------------------------------
 BYTE   W96
//  #02 //064   ----------------------------------------
 BYTE   W96
//  #02 //065   ----------------------------------------
 BYTE   W96
//  #02 //066   ----------------------------------------
Label_015F7EAF:
 BYTE   N11  Cn4  v080
 BYTE   N11  En4
 BYTE   W24
 BYTE   Cn4
 BYTE   N11  En4
 BYTE   W24
 BYTE   Cn4
 BYTE   N11  En4
 BYTE   W24
 BYTE   Cn4
 BYTE   N11  En4
 BYTE   W24
 BYTE   PEND 
//  #02 //067   ----------------------------------------
 BYTE   As3
 BYTE   N11  Dn4
 BYTE   W24
 BYTE   As3
 BYTE   N11  Dn4
 BYTE   W24
 BYTE   As3
 BYTE   N11  Dn4
 BYTE   W24
 BYTE   As3
 BYTE   N11  Dn4
 BYTE   W24
//  #02 //068   ----------------------------------------
 BYTE   PATT
  POIN2 Label_015F7EAF
//  #02 //069   ----------------------------------------
 BYTE   N11  As3  v080
 BYTE   N11  Dn4
 BYTE   W24
 BYTE   As3
 BYTE   N11  Dn4
 BYTE   W24
 BYTE   Ds4
 BYTE   W12
 BYTE   Dn4
 BYTE   W12
 BYTE   Cn4
 BYTE   W18
 BYTE   N05  An3
 BYTE   W06
//  #02 //070   ----------------------------------------
 BYTE   N68  Cn4
 BYTE   N68  En4
 BYTE   W96
//  #02 //071   ----------------------------------------
 BYTE   W24
 BYTE   GoTo
  POIN2 Label_015F7E77
 BYTE   FINE

//**************** Track 3 (Midi-Chn.2) ****************//

song2A_003:
//  #03 //000   ----------------------------------------
 BYTE   KEYSH   song2A_key+0
 BYTE   VOICE   110
 BYTE   VOL   50*song2A_mvl/mxv
 BYTE   PAN   c_v+0
 BYTE   W96
//  #03 //001   ----------------------------------------
 BYTE   W84
 BYTE   N02  En4  v080
 BYTE   W02
 BYTE   Fn4
 BYTE   W03
 BYTE   N18  Gn4
 BYTE   W07
//  #03 //002   ----------------------------------------
 BYTE   W12
 BYTE   N11
 BYTE   W12
 BYTE   N02  An4
 BYTE   W02
 BYTE   N32  As4
 BYTE   W32
 BYTE   W02
 BYTE   N11  An4
 BYTE   W12
 BYTE   Fn4
 BYTE   W12
 BYTE   N23  Cn4
 BYTE   W12
//  #03 //003   ----------------------------------------
 BYTE   W12
 BYTE   N11  Gn4
 BYTE   N11  Cn5
 BYTE   W84
//  #03 //004   ----------------------------------------
 BYTE   W96
//  #03 //005   ----------------------------------------
 BYTE   W96
//  #03 //006   ----------------------------------------
 BYTE   W96
//  #03 //007   ----------------------------------------
 BYTE   W96
//  #03 //008   ----------------------------------------
 BYTE   W96
//  #03 //009   ----------------------------------------
 BYTE   W96
//  #03 //010   ----------------------------------------
Label_015F3CF1:
 BYTE   N23  Cn4  v080
 BYTE   W24
 BYTE   N05  En4
 BYTE   W12
 BYTE   Gn4
 BYTE   W12
 BYTE   N17  As4
 BYTE   W18
 BYTE   N05  An4
 BYTE   W06
 BYTE   Gn4
 BYTE   W12
 BYTE   N11  En4
 BYTE   W12
 BYTE   PEND 
//  #03 //011   ----------------------------------------
Label_015F3D06:
 BYTE   N11  As3  v080
 BYTE   W12
 BYTE   Cn4
 BYTE   W24
 BYTE   As3
 BYTE   W12
 BYTE   N23  Cn4
 BYTE   W48
 BYTE   PEND 
//  #03 //012   ----------------------------------------
 BYTE   PATT
  POIN2 Label_015F3CF1
//  #03 //013   ----------------------------------------
 BYTE   PATT
  POIN2 Label_015F3D06
//  #03 //014   ----------------------------------------
 BYTE   PATT
  POIN2 Label_015F3CF1
//  #03 //015   ----------------------------------------
 BYTE   PATT
  POIN2 Label_015F3D06
//  #03 //016   ----------------------------------------
Label_015F3D26:
 BYTE   N17  Cn4  v080
 BYTE   W18
 BYTE   N02
 BYTE   W06
 BYTE   N05  En4
 BYTE   W12
 BYTE   Gn4
 BYTE   W12
 BYTE   N17  As4
 BYTE   W18
 BYTE   N05  An4
 BYTE   W06
 BYTE   Gn4
 BYTE   W12
 BYTE   N11  En4
 BYTE   W12
 BYTE   PEND 
//  #03 //017   ----------------------------------------
Label_015F3D3D:
 BYTE   N11  As3  v080
 BYTE   W12
 BYTE   Cn4
 BYTE   W12
 BYTE   N05
 BYTE   W12
 BYTE   N11  As3
 BYTE   W12
 BYTE   N23  Cn4
 BYTE   W24
 BYTE   N17
 BYTE   W18
 BYTE   N02
 BYTE   W06
 BYTE   PEND 
//  #03 //018   ----------------------------------------
Label_015F3D50:
 BYTE   N23  An4  v080
 BYTE   W24
 BYTE   N17
 BYTE   W18
 BYTE   N02  Gn4
 BYTE   W18
 BYTE   N32  Cn4
 BYTE   W36
 BYTE   PEND 
//  #03 //019   ----------------------------------------
Label_015F3D5D:
 BYTE   N23  An4  v080
 BYTE   W24
 BYTE   N17
 BYTE   W18
 BYTE   N02  Gn4
 BYTE   W18
 BYTE   N23  Cn4
 BYTE   W36
 BYTE   PEND 
//  #03 //020   ----------------------------------------
 BYTE   An4
 BYTE   W24
 BYTE   N17
 BYTE   W18
 BYTE   N02  Gn4
 BYTE   W18
 BYTE   N23  En4
 BYTE   W24
 BYTE   N44  Dn4
 BYTE   W12
//  #03 //021   ----------------------------------------
Label_015F3D77:
 BYTE   W60
 BYTE   N05  En4  v080
 BYTE   W06
 BYTE   Dn4
 BYTE   W06
 BYTE   N11  Cn4
 BYTE   W18
 BYTE   N05  An3
 BYTE   W06
 BYTE   PEND 
//  #03 //022   ----------------------------------------
 BYTE   N23  Cn4
 BYTE   W96
//  #03 //023   ----------------------------------------
 BYTE   W96
//  #03 //024   ----------------------------------------
 BYTE   W96
//  #03 //025   ----------------------------------------
 BYTE   W96
//  #03 //026   ----------------------------------------
 BYTE   W96
//  #03 //027   ----------------------------------------
 BYTE   W96
//  #03 //028   ----------------------------------------
 BYTE   W96
//  #03 //029   ----------------------------------------
 BYTE   W96
//  #03 //030   ----------------------------------------
 BYTE   W96
//  #03 //031   ----------------------------------------
 BYTE   W96
//  #03 //032   ----------------------------------------
 BYTE   W96
//  #03 //033   ----------------------------------------
 BYTE   W96
//  #03 //034   ----------------------------------------
 BYTE   W96
//  #03 //035   ----------------------------------------
 BYTE   W96
//  #03 //036   ----------------------------------------
 BYTE   W96
//  #03 //037   ----------------------------------------
 BYTE   W96
//  #03 //038   ----------------------------------------
 BYTE   W96
//  #03 //039   ----------------------------------------
 BYTE   W96
//  #03 //040   ----------------------------------------
 BYTE   W96
//  #03 //041   ----------------------------------------
 BYTE   W96
//  #03 //042   ----------------------------------------
 BYTE   W96
//  #03 //043   ----------------------------------------
 BYTE   W96
//  #03 //044   ----------------------------------------
 BYTE   W96
//  #03 //045   ----------------------------------------
 BYTE   W96
//  #03 //046   ----------------------------------------
 BYTE   W96
//  #03 //047   ----------------------------------------
 BYTE   W96
//  #03 //048   ----------------------------------------
 BYTE   W96
//  #03 //049   ----------------------------------------
 BYTE   W96
//  #03 //050   ----------------------------------------
 BYTE   W96
//  #03 //051   ----------------------------------------
 BYTE   W96
//  #03 //052   ----------------------------------------
 BYTE   W96
//  #03 //053   ----------------------------------------
 BYTE   W96
//  #03 //054   ----------------------------------------
 BYTE   PATT
  POIN2 Label_015F3CF1
//  #03 //055   ----------------------------------------
 BYTE   PATT
  POIN2 Label_015F3D06
//  #03 //056   ----------------------------------------
 BYTE   PATT
  POIN2 Label_015F3CF1
//  #03 //057   ----------------------------------------
 BYTE   PATT
  POIN2 Label_015F3D06
//  #03 //058   ----------------------------------------
 BYTE   PATT
  POIN2 Label_015F3CF1
//  #03 //059   ----------------------------------------
 BYTE   PATT
  POIN2 Label_015F3D06
//  #03 //060   ----------------------------------------
 BYTE   PATT
  POIN2 Label_015F3D26
//  #03 //061   ----------------------------------------
 BYTE   PATT
  POIN2 Label_015F3D3D
//  #03 //062   ----------------------------------------
 BYTE   PATT
  POIN2 Label_015F3D50
//  #03 //063   ----------------------------------------
 BYTE   PATT
  POIN2 Label_015F3D5D
//  #03 //064   ----------------------------------------
 BYTE   N23  An4  v080
 BYTE   W24
 BYTE   N17
 BYTE   W18
 BYTE   N11  Gn4
 BYTE   W06
 BYTE   W12
 BYTE   N23  En4
 BYTE   W24
 BYTE   N44  Dn4
 BYTE   W12
//  #03 //065   ----------------------------------------
 BYTE   PATT
  POIN2 Label_015F3D77
//  #03 //066   ----------------------------------------
Label_015F3DEE:
 BYTE   N44  Cn4  v080
 BYTE   W60
 BYTE   N05  En4
 BYTE   W06
 BYTE   Dn4
 BYTE   W06
 BYTE   N11  Cn4
 BYTE   W18
 BYTE   N05  An3
 BYTE   W06
 BYTE   PEND 
//  #03 //067   ----------------------------------------
 BYTE   N44  As3
 BYTE   W60
 BYTE   N05  En4
 BYTE   W06
 BYTE   Dn4
 BYTE   W06
 BYTE   N11  Cn4
 BYTE   W18
 BYTE   N05  An3
 BYTE   W06
//  #03 //068   ----------------------------------------
 BYTE   PATT
  POIN2 Label_015F3DEE
//  #03 //069   ----------------------------------------
 BYTE   N44  As3  v080
 BYTE   W48
 BYTE   N11  Ds4
 BYTE   W12
 BYTE   Dn4
 BYTE   W12
 BYTE   Cn4
 BYTE   W18
 BYTE   N05  An3
 BYTE   W06
//  #03 //070   ----------------------------------------
 BYTE   N68  Cn4
 BYTE   W96
//  #03 //071   ----------------------------------------
 BYTE   W24
 BYTE   GoTo
  POIN2 Label_015F3CF1
 BYTE   FINE

//**************** Track 4 (Midi-Chn.3) ****************//

song2A_004:
//  #04 //000   ----------------------------------------
 BYTE   KEYSH   song2A_key+0
 BYTE   VOICE   60
 BYTE   VOL   44*song2A_mvl/mxv
 BYTE   PAN   c_v+0
 BYTE   N05  Bn2  v080
 BYTE   N05  Ds3
 BYTE   N05  Fs3
 BYTE   W06
 BYTE   Bn2
 BYTE   N05  Ds3
 BYTE   N05  Fs3
 BYTE   W06
 BYTE   Bn2
 BYTE   N05  Ds3
 BYTE   N05  Fs3
 BYTE   W12
 BYTE   Bn2
 BYTE   N05  Ds3
 BYTE   N05  Fs3
 BYTE   W06
 BYTE   Bn2
 BYTE   N05  Ds3
 BYTE   N05  Fs3
 BYTE   W06
 BYTE   N44  Bn2
 BYTE   N44  Ds3
 BYTE   N44  Fs3
 BYTE   W60
//  #04 //001   ----------------------------------------
 BYTE   N05  Fs2
 BYTE   N05  Bn2
 BYTE   N05  Ds3
 BYTE   N05  Fs3
 BYTE   W06
 BYTE   Fs2
 BYTE   N05  Bn2
 BYTE   N05  Ds3
 BYTE   N05  Fs3
 BYTE   W06
 BYTE   Fs2
 BYTE   N05  Bn2
 BYTE   N05  Ds3
 BYTE   N05  Fs3
 BYTE   W12
 BYTE   Fs2
 BYTE   N05  Bn2
 BYTE   N05  Ds3
 BYTE   N05  Fs3
 BYTE   W06
 BYTE   Fs2
 BYTE   N05  Bn2
 BYTE   N05  Ds3
 BYTE   N05  Fs3
 BYTE   W06
 BYTE   N44  Fs2
 BYTE   N44  Bn2
 BYTE   N44  Ds3
 BYTE   N44  Fs3
 BYTE   W60
//  #04 //002   ----------------------------------------
 BYTE   W96
//  #04 //003   ----------------------------------------
 BYTE   W96
//  #04 //004   ----------------------------------------
 BYTE   W96
//  #04 //005   ----------------------------------------
 BYTE   W96
//  #04 //006   ----------------------------------------
 BYTE   W96
//  #04 //007   ----------------------------------------
 BYTE   W96
//  #04 //008   ----------------------------------------
 BYTE   W96
//  #04 //009   ----------------------------------------
 BYTE   W96
//  #04 //010   ----------------------------------------
Label_015F7685:
 BYTE   W96
//  #04 //011   ----------------------------------------
 BYTE   W96
//  #04 //012   ----------------------------------------
 BYTE   W96
//  #04 //013   ----------------------------------------
 BYTE   W96
//  #04 //014   ----------------------------------------
 BYTE   W96
//  #04 //015   ----------------------------------------
 BYTE   W96
//  #04 //016   ----------------------------------------
 BYTE   W96
//  #04 //017   ----------------------------------------
 BYTE   W96
//  #04 //018   ----------------------------------------
 BYTE   W96
//  #04 //019   ----------------------------------------
 BYTE   W96
//  #04 //020   ----------------------------------------
 BYTE   W96
//  #04 //021   ----------------------------------------
 BYTE   W96
//  #04 //022   ----------------------------------------
 BYTE   W96
//  #04 //023   ----------------------------------------
 BYTE   W96
//  #04 //024   ----------------------------------------
 BYTE   W96
//  #04 //025   ----------------------------------------
 BYTE   W96
//  #04 //026   ----------------------------------------
 BYTE   W96
//  #04 //027   ----------------------------------------
 BYTE   W96
//  #04 //028   ----------------------------------------
 BYTE   W96
//  #04 //029   ----------------------------------------
 BYTE   W96
//  #04 //030   ----------------------------------------
 BYTE   W96
//  #04 //031   ----------------------------------------
 BYTE   W96
//  #04 //032   ----------------------------------------
 BYTE   W96
//  #04 //033   ----------------------------------------
 BYTE   W96
//  #04 //034   ----------------------------------------
 BYTE   W96
//  #04 //035   ----------------------------------------
 BYTE   W96
//  #04 //036   ----------------------------------------
 BYTE   W96
//  #04 //037   ----------------------------------------
 BYTE   W96
//  #04 //038   ----------------------------------------
 BYTE   W96
//  #04 //039   ----------------------------------------
 BYTE   W96
//  #04 //040   ----------------------------------------
 BYTE   W96
//  #04 //041   ----------------------------------------
 BYTE   W96
//  #04 //042   ----------------------------------------
 BYTE   W96
//  #04 //043   ----------------------------------------
 BYTE   W96
//  #04 //044   ----------------------------------------
 BYTE   W96
//  #04 //045   ----------------------------------------
 BYTE   W96
//  #04 //046   ----------------------------------------
 BYTE   W96
//  #04 //047   ----------------------------------------
 BYTE   W96
//  #04 //048   ----------------------------------------
 BYTE   W96
//  #04 //049   ----------------------------------------
 BYTE   W96
//  #04 //050   ----------------------------------------
 BYTE   W96
//  #04 //051   ----------------------------------------
 BYTE   W96
//  #04 //052   ----------------------------------------
 BYTE   W96
//  #04 //053   ----------------------------------------
 BYTE   W96
//  #04 //054   ----------------------------------------
 BYTE   W96
//  #04 //055   ----------------------------------------
 BYTE   W96
//  #04 //056   ----------------------------------------
 BYTE   W96
//  #04 //057   ----------------------------------------
 BYTE   W96
//  #04 //058   ----------------------------------------
 BYTE   W96
//  #04 //059   ----------------------------------------
 BYTE   W96
//  #04 //060   ----------------------------------------
 BYTE   W96
//  #04 //061   ----------------------------------------
 BYTE   W96
//  #04 //062   ----------------------------------------
 BYTE   W96
//  #04 //063   ----------------------------------------
 BYTE   W96
//  #04 //064   ----------------------------------------
 BYTE   W96
//  #04 //065   ----------------------------------------
 BYTE   W96
//  #04 //066   ----------------------------------------
 BYTE   W96
//  #04 //067   ----------------------------------------
 BYTE   W96
//  #04 //068   ----------------------------------------
 BYTE   W96
//  #04 //069   ----------------------------------------
 BYTE   W96
//  #04 //070   ----------------------------------------
 BYTE   W96
//  #04 //071   ----------------------------------------
 BYTE   W24
 BYTE   GoTo
  POIN2 Label_015F7685
 BYTE   FINE

//**************** Track 5 (Midi-Chn.4) ****************//

song2A_005:
//  #05 //000   ----------------------------------------
 BYTE   KEYSH   song2A_key+0
 BYTE   VOICE   68
 BYTE   VOL   35*song2A_mvl/mxv
 BYTE   PAN   c_v+0
 BYTE   W96
//  #05 //001   ----------------------------------------
 BYTE   W96
//  #05 //002   ----------------------------------------
 BYTE   W96
//  #05 //003   ----------------------------------------
 BYTE   W96
//  #05 //004   ----------------------------------------
 BYTE   W96
//  #05 //005   ----------------------------------------
 BYTE   W96
//  #05 //006   ----------------------------------------
 BYTE   W96
//  #05 //007   ----------------------------------------
 BYTE   W96
//  #05 //008   ----------------------------------------
 BYTE   W96
//  #05 //009   ----------------------------------------
 BYTE   W96
//  #05 //010   ----------------------------------------
Label_015F39C6:
 BYTE   W96
//  #05 //011   ----------------------------------------
 BYTE   W96
//  #05 //012   ----------------------------------------
 BYTE   W96
//  #05 //013   ----------------------------------------
 BYTE   W96
//  #05 //014   ----------------------------------------
 BYTE   W96
//  #05 //015   ----------------------------------------
 BYTE   W96
//  #05 //016   ----------------------------------------
 BYTE   W96
//  #05 //017   ----------------------------------------
 BYTE   W96
//  #05 //018   ----------------------------------------
 BYTE   W96
//  #05 //019   ----------------------------------------
 BYTE   W96
//  #05 //020   ----------------------------------------
 BYTE   W96
//  #05 //021   ----------------------------------------
 BYTE   W96
//  #05 //022   ----------------------------------------
 BYTE   W96
//  #05 //023   ----------------------------------------
 BYTE   W96
//  #05 //024   ----------------------------------------
 BYTE   W96
//  #05 //025   ----------------------------------------
 BYTE   W96
//  #05 //026   ----------------------------------------
 BYTE   W96
//  #05 //027   ----------------------------------------
 BYTE   W96
//  #05 //028   ----------------------------------------
 BYTE   W96
//  #05 //029   ----------------------------------------
 BYTE   W96
//  #05 //030   ----------------------------------------
 BYTE   W96
//  #05 //031   ----------------------------------------
 BYTE   W96
//  #05 //032   ----------------------------------------
 BYTE   W96
//  #05 //033   ----------------------------------------
 BYTE   W96
//  #05 //034   ----------------------------------------
 BYTE   W96
//  #05 //035   ----------------------------------------
 BYTE   W96
//  #05 //036   ----------------------------------------
 BYTE   W96
//  #05 //037   ----------------------------------------
 BYTE   W96
//  #05 //038   ----------------------------------------
 BYTE   W96
//  #05 //039   ----------------------------------------
 BYTE   W96
//  #05 //040   ----------------------------------------
 BYTE   W96
//  #05 //041   ----------------------------------------
 BYTE   W96
//  #05 //042   ----------------------------------------
 BYTE   N23  En4  v080
 BYTE   W24
 BYTE   N23
 BYTE   W24
 BYTE   N23
 BYTE   W24
 BYTE   N11  Dn4
 BYTE   W12
 BYTE   Cn4
 BYTE   W12
//  #05 //043   ----------------------------------------
 BYTE   Dn4
 BYTE   W12
 BYTE   En4
 BYTE   W12
 BYTE   N36
 BYTE   W36
 BYTE   N11
 BYTE   W12
 BYTE   N11
 BYTE   W12
 BYTE   N11
 BYTE   W12
//  #05 //044   ----------------------------------------
 BYTE   An4
 BYTE   W12
 BYTE   En4
 BYTE   W12
 BYTE   N36
 BYTE   W36
 BYTE   N11
 BYTE   W12
 BYTE   Dn4
 BYTE   W12
 BYTE   Cn4
 BYTE   W12
//  #05 //045   ----------------------------------------
 BYTE   Dn4
 BYTE   W12
 BYTE   En4
 BYTE   W12
 BYTE   N36
 BYTE   W36
 BYTE   N11
 BYTE   W12
 BYTE   Dn4
 BYTE   W12
 BYTE   Cn4
 BYTE   W12
//  #05 //046   ----------------------------------------
Label_015F3A17:
 BYTE   N17  Cn4  v080
 BYTE   W18
 BYTE   N05
 BYTE   W06
 BYTE   N17  En4
 BYTE   W18
 BYTE   N05
 BYTE   W06
 BYTE   N17  Dn4
 BYTE   W18
 BYTE   N05
 BYTE   W06
 BYTE   N17  Gn4
 BYTE   W18
 BYTE   N05
 BYTE   W06
 BYTE   PEND 
//  #05 //047   ----------------------------------------
Label_015F3A2D:
 BYTE   N17  En4  v080
 BYTE   W18
 BYTE   N05
 BYTE   W06
 BYTE   N11  Gn4
 BYTE   W12
 BYTE   N24  An4
 BYTE   W24
 BYTE   N11  En4
 BYTE   W12
 BYTE   Dn4
 BYTE   W12
 BYTE   Cn4
 BYTE   W12
 BYTE   PEND 
//  #05 //048   ----------------------------------------
Label_015F3A41:
 BYTE   N17  Cn4  v080
 BYTE   W18
 BYTE   N05
 BYTE   W06
 BYTE   N11  En4
 BYTE   W12
 BYTE   N23  Dn4
 BYTE   W12
 BYTE   W12
 BYTE   N11  Cn4
 BYTE   W12
 BYTE   Bn3
 BYTE   W12
 BYTE   N96  Cn4
 BYTE   W12
 BYTE   PEND 
//  #05 //049   ----------------------------------------
 BYTE   W96
//  #05 //050   ----------------------------------------
 BYTE   PATT
  POIN2 Label_015F3A17
//  #05 //051   ----------------------------------------
 BYTE   PATT
  POIN2 Label_015F3A2D
//  #05 //052   ----------------------------------------
 BYTE   PATT
  POIN2 Label_015F3A41
//  #05 //053   ----------------------------------------
 BYTE   W96
//  #05 //054   ----------------------------------------
 BYTE   W96
//  #05 //055   ----------------------------------------
 BYTE   W96
//  #05 //056   ----------------------------------------
 BYTE   W96
//  #05 //057   ----------------------------------------
 BYTE   W96
//  #05 //058   ----------------------------------------
 BYTE   W96
//  #05 //059   ----------------------------------------
 BYTE   W96
//  #05 //060   ----------------------------------------
 BYTE   W96
//  #05 //061   ----------------------------------------
 BYTE   W96
//  #05 //062   ----------------------------------------
 BYTE   W96
//  #05 //063   ----------------------------------------
 BYTE   W96
//  #05 //064   ----------------------------------------
 BYTE   W96
//  #05 //065   ----------------------------------------
 BYTE   W96
//  #05 //066   ----------------------------------------
 BYTE   W96
//  #05 //067   ----------------------------------------
 BYTE   W96
//  #05 //068   ----------------------------------------
 BYTE   W96
//  #05 //069   ----------------------------------------
 BYTE   W96
//  #05 //070   ----------------------------------------
 BYTE   W96
//  #05 //071   ----------------------------------------
 BYTE   W24
 BYTE   GoTo
  POIN2 Label_015F39C6
 BYTE   FINE

//**************** Track 6 (Midi-Chn.5) ****************//

song2A_006:
//  #06 //000   ----------------------------------------
 BYTE   KEYSH   song2A_key+0
 BYTE   VOICE   1
 BYTE   VOL   30*song2A_mvl/mxv
 BYTE   PAN   c_v+0
 BYTE   W96
//  #06 //001   ----------------------------------------
 BYTE   W96
//  #06 //002   ----------------------------------------
 BYTE   W96
//  #06 //003   ----------------------------------------
 BYTE   W96
//  #06 //004   ----------------------------------------
 BYTE   W96
//  #06 //005   ----------------------------------------
 BYTE   W96
//  #06 //006   ----------------------------------------
 BYTE   W96
//  #06 //007   ----------------------------------------
 BYTE   W96
//  #06 //008   ----------------------------------------
 BYTE   W96
//  #06 //009   ----------------------------------------
 BYTE   W96
//  #06 //010   ----------------------------------------
Label_015F3E4E:
 BYTE   W96
//  #06 //011   ----------------------------------------
 BYTE   W96
//  #06 //012   ----------------------------------------
 BYTE   W96
//  #06 //013   ----------------------------------------
 BYTE   W96
//  #06 //014   ----------------------------------------
 BYTE   W96
//  #06 //015   ----------------------------------------
 BYTE   W96
//  #06 //016   ----------------------------------------
 BYTE   W96
//  #06 //017   ----------------------------------------
 BYTE   W96
//  #06 //018   ----------------------------------------
Label_015F3E56:
 BYTE   N22  Cn3  v080
 BYTE   N22  An3
 BYTE   W24
 BYTE   N17  Cn3
 BYTE   N17  An3
 BYTE   W18
 BYTE   N02  En3
 BYTE   N02  Cn4
 BYTE   W18
 BYTE   N32  En3
 BYTE   N32  Cn4
 BYTE   W36
 BYTE   PEND 
//  #06 //019   ----------------------------------------
Label_015F3E6C:
 BYTE   N22  Cn3  v080
 BYTE   N22  An3
 BYTE   W24
 BYTE   N17  Cn3
 BYTE   N17  An3
 BYTE   W18
 BYTE   N02  En3
 BYTE   N02  Cn4
 BYTE   W18
 BYTE   N22  En3
 BYTE   N22  Cn4
 BYTE   W24
 BYTE   N11  En3
 BYTE   N11  Cn4
 BYTE   W12
 BYTE   PEND 
//  #06 //020   ----------------------------------------
Label_015F3E87:
 BYTE   N22  Cn3  v080
 BYTE   N22  An3
 BYTE   W24
 BYTE   N17  Cn3
 BYTE   N17  An3
 BYTE   W18
 BYTE   N02  En3
 BYTE   N02  Cn4
 BYTE   W18
 BYTE   N22  En3
 BYTE   N22  Cn4
 BYTE   W24
 BYTE   N44  Dn3
 BYTE   N44  Bn3
 BYTE   W12
 BYTE   PEND 
//  #06 //021   ----------------------------------------
Label_015F3EA2:
 BYTE   W60
 BYTE   N05  En4  v080
 BYTE   W06
 BYTE   Dn4
 BYTE   W06
 BYTE   N11  Cn4
 BYTE   W18
 BYTE   N05  An3
 BYTE   W06
 BYTE   PEND 
//  #06 //022   ----------------------------------------
Label_015F3EB0:
 BYTE   N22  Cn4  v080
 BYTE   W96
 BYTE   PEND 
//  #06 //023   ----------------------------------------
 BYTE   W96
//  #06 //024   ----------------------------------------
 BYTE   W96
//  #06 //025   ----------------------------------------
 BYTE   W96
//  #06 //026   ----------------------------------------
 BYTE   W96
//  #06 //027   ----------------------------------------
 BYTE   W96
//  #06 //028   ----------------------------------------
 BYTE   W96
//  #06 //029   ----------------------------------------
 BYTE   W96
//  #06 //030   ----------------------------------------
 BYTE   W96
//  #06 //031   ----------------------------------------
 BYTE   W96
//  #06 //032   ----------------------------------------
 BYTE   W96
//  #06 //033   ----------------------------------------
 BYTE   W96
//  #06 //034   ----------------------------------------
 BYTE   PATT
  POIN2 Label_015F3E56
//  #06 //035   ----------------------------------------
 BYTE   PATT
  POIN2 Label_015F3E6C
//  #06 //036   ----------------------------------------
 BYTE   PATT
  POIN2 Label_015F3E87
//  #06 //037   ----------------------------------------
 BYTE   PATT
  POIN2 Label_015F3EA2
//  #06 //038   ----------------------------------------
 BYTE   PATT
  POIN2 Label_015F3EB0
//  #06 //039   ----------------------------------------
 BYTE   W96
//  #06 //040   ----------------------------------------
 BYTE   W96
//  #06 //041   ----------------------------------------
 BYTE   W96
//  #06 //042   ----------------------------------------
 BYTE   N90  En2  v080
 BYTE   N90  An2
 BYTE   N90  Cn3
 BYTE   N23  En3
 BYTE   W03
 BYTE   N20  An3
 BYTE   W03
 BYTE   N17  Cn4
 BYTE   W03
 BYTE   N14  En4
 BYTE   W15
 BYTE   N22
 BYTE   W24
 BYTE   N22
 BYTE   W24
 BYTE   N11  Dn4
 BYTE   W12
 BYTE   Cn4
 BYTE   W12
//  #06 //043   ----------------------------------------
 BYTE   N90  En2
 BYTE   N90  Bn2
 BYTE   N11  En3
 BYTE   W01
 BYTE   N09  Gs3
 BYTE   W02
 BYTE   N08  Bn3
 BYTE   W02
 BYTE   N06  Dn4
 BYTE   W07
 BYTE   N11  En4
 BYTE   W12
 BYTE   N11
 BYTE   W36
 BYTE   N11
 BYTE   W12
 BYTE   N11
 BYTE   W12
 BYTE   N11
 BYTE   W12
//  #06 //044   ----------------------------------------
 BYTE   N90  En2
 BYTE   N90  An2
 BYTE   N11  Cn4
 BYTE   N11  En4
 BYTE   N11  An4
 BYTE   W12
 BYTE   En4
 BYTE   W12
 BYTE   N11
 BYTE   W36
 BYTE   N11
 BYTE   W12
 BYTE   Dn4
 BYTE   W12
 BYTE   Cn4
 BYTE   W12
//  #06 //045   ----------------------------------------
 BYTE   N90  En2
 BYTE   N90  Bn2
 BYTE   N11  En3
 BYTE   N11  Gs3
 BYTE   N11  Dn4
 BYTE   W12
 BYTE   En4
 BYTE   W12
 BYTE   N11
 BYTE   W36
 BYTE   N11
 BYTE   W12
 BYTE   Dn4
 BYTE   W12
 BYTE   Cn4
 BYTE   W12
//  #06 //046   ----------------------------------------
Label_015F3F3D:
 BYTE   N44  Fn2  v080
 BYTE   N44  Cn3
 BYTE   N17  An3
 BYTE   N17  Cn4
 BYTE   W18
 BYTE   N05  An3
 BYTE   N05  Cn4
 BYTE   W06
 BYTE   N17
 BYTE   N17  En4
 BYTE   W18
 BYTE   N05  Cn4
 BYTE   N05  En4
 BYTE   W06
 BYTE   N44  Gn2
 BYTE   N44  Dn3
 BYTE   N17  Bn3
 BYTE   N17  Dn4
 BYTE   W18
 BYTE   N05  Bn3
 BYTE   N05  Dn4
 BYTE   W06
 BYTE   N17  Bn3
 BYTE   N17  Gn4
 BYTE   W18
 BYTE   N05  Bn3
 BYTE   N05  Gn4
 BYTE   W06
 BYTE   PEND 
//  #06 //047   ----------------------------------------
Label_015F3F6E:
 BYTE   N22  Gn2  v080
 BYTE   N22  En3
 BYTE   N17  Cn4
 BYTE   N17  En4
 BYTE   W18
 BYTE   N05  Cn4
 BYTE   N05  En4
 BYTE   W06
 BYTE   N22  Bn2
 BYTE   N11  En4
 BYTE   N11  Gn4
 BYTE   W12
 BYTE   En4
 BYTE   N11  An4
 BYTE   W12
 BYTE   N22  An2
 BYTE   W12
 BYTE   N11  En4
 BYTE   W12
 BYTE   N22  Gn2
 BYTE   N11  Dn4
 BYTE   W12
 BYTE   Cn4
 BYTE   W12
 BYTE   PEND 
//  #06 //048   ----------------------------------------
Label_015F3F96:
 BYTE   N90  Fn2  v080
 BYTE   N90  Cn3
 BYTE   N17  An3
 BYTE   N17  Cn4
 BYTE   W18
 BYTE   N05  An3
 BYTE   N05  Cn4
 BYTE   W06
 BYTE   N11
 BYTE   N11  En4
 BYTE   W12
 BYTE   N22  Bn3
 BYTE   N22  Dn4
 BYTE   W12
 BYTE   W12
 BYTE   N11  Gn3
 BYTE   N11  Cn4
 BYTE   W12
 BYTE   Gn3
 BYTE   N11  Cn4
 BYTE   W12
 BYTE   Gn3
 BYTE   N11  Cn4
 BYTE   W12
 BYTE   PEND 
//  #06 //049   ----------------------------------------
 BYTE   N44  Cn2
 BYTE   W60
 BYTE   N11  Gn1
 BYTE   N11  Bn2
 BYTE   N11  Dn3
 BYTE   N11  Gn3
 BYTE   W12
 BYTE   Gn1
 BYTE   N11  Bn2
 BYTE   N11  Dn3
 BYTE   N11  Gn3
 BYTE   W24
//  #06 //050   ----------------------------------------
 BYTE   PATT
  POIN2 Label_015F3F3D
//  #06 //051   ----------------------------------------
 BYTE   PATT
  POIN2 Label_015F3F6E
//  #06 //052   ----------------------------------------
 BYTE   PATT
  POIN2 Label_015F3F96
//  #06 //053   ----------------------------------------
 BYTE   N90  Cn3  v080
 BYTE   W96
//  #06 //054   ----------------------------------------
Label_015F3FE4:
 BYTE   N22  Cn3  v080
 BYTE   W24
 BYTE   N05  En3
 BYTE   W12
 BYTE   Gn3
 BYTE   W12
 BYTE   N17  As3
 BYTE   W18
 BYTE   N05  An3
 BYTE   W06
 BYTE   Gn3
 BYTE   W12
 BYTE   N11  En3
 BYTE   W12
 BYTE   PEND 
//  #06 //055   ----------------------------------------
Label_015F3FF9:
 BYTE   N11  As2  v080
 BYTE   W12
 BYTE   Cn3
 BYTE   W24
 BYTE   As2
 BYTE   W12
 BYTE   N22  Cn3
 BYTE   W48
 BYTE   PEND 
//  #06 //056   ----------------------------------------
 BYTE   PATT
  POIN2 Label_015F3FE4
//  #06 //057   ----------------------------------------
 BYTE   PATT
  POIN2 Label_015F3FF9
//  #06 //058   ----------------------------------------
 BYTE   PATT
  POIN2 Label_015F3FE4
//  #06 //059   ----------------------------------------
 BYTE   PATT
  POIN2 Label_015F3FF9
//  #06 //060   ----------------------------------------
 BYTE   N17  Cn3  v080
 BYTE   W18
 BYTE   N02
 BYTE   W06
 BYTE   N05  En3
 BYTE   W12
 BYTE   Gn3
 BYTE   W12
 BYTE   N17  As3
 BYTE   W18
 BYTE   N05  An3
 BYTE   W06
 BYTE   Gn3
 BYTE   W12
 BYTE   N11  En3
 BYTE   W12
//  #06 //061   ----------------------------------------
 BYTE   As2
 BYTE   W12
 BYTE   Cn3
 BYTE   W12
 BYTE   N05
 BYTE   W12
 BYTE   N11  As2
 BYTE   W12
 BYTE   N22  Cn3
 BYTE   W24
 BYTE   N17
 BYTE   W18
 BYTE   N02
 BYTE   W06
//  #06 //062   ----------------------------------------
 BYTE   PATT
  POIN2 Label_015F3E56
//  #06 //063   ----------------------------------------
 BYTE   PATT
  POIN2 Label_015F3E6C
//  #06 //064   ----------------------------------------
 BYTE   PATT
  POIN2 Label_015F3E87
//  #06 //065   ----------------------------------------
 BYTE   PATT
  POIN2 Label_015F3EA2
//  #06 //066   ----------------------------------------
Label_015F4053:
 BYTE   N44  Cn4  v080
 BYTE   W60
 BYTE   N05  En4
 BYTE   W06
 BYTE   Dn4
 BYTE   W06
 BYTE   N11  Cn4
 BYTE   W18
 BYTE   N05  An3
 BYTE   W06
 BYTE   PEND 
//  #06 //067   ----------------------------------------
 BYTE   N44  As3
 BYTE   W60
 BYTE   N05  En4
 BYTE   W06
 BYTE   Dn4
 BYTE   W06
 BYTE   N11  Cn4
 BYTE   W18
 BYTE   N05  An3
 BYTE   W06
//  #06 //068   ----------------------------------------
 BYTE   PATT
  POIN2 Label_015F4053
//  #06 //069   ----------------------------------------
 BYTE   N44  As3  v080
 BYTE   W48
 BYTE   N11  Ds4
 BYTE   W12
 BYTE   Dn4
 BYTE   W12
 BYTE   Cn4
 BYTE   W18
 BYTE   N05  An3
 BYTE   W06
//  #06 //070   ----------------------------------------
 BYTE   N68  Cn4
 BYTE   W96
//  #06 //071   ----------------------------------------
 BYTE   W24
 BYTE   GoTo
  POIN2 Label_015F3E4E
 BYTE   FINE

//**************** Track 7 (Midi-Chn.6) ****************//

song2A_007:
//  #07 //000   ----------------------------------------
 BYTE   KEYSH   song2A_key+0
 BYTE   VOICE   30
 BYTE   VOL   45*song2A_mvl/mxv
 BYTE   PAN   c_v+0
 BYTE   W96
//  #07 //001   ----------------------------------------
 BYTE   W96
//  #07 //002   ----------------------------------------
 BYTE   W96
//  #07 //003   ----------------------------------------
 BYTE   W96
//  #07 //004   ----------------------------------------
 BYTE   W96
//  #07 //005   ----------------------------------------
 BYTE   W96
//  #07 //006   ----------------------------------------
 BYTE   W96
//  #07 //007   ----------------------------------------
Label_015F40AF:
 BYTE   W48
 BYTE   N23  Fn1  v052
 BYTE   N23  Cn2
 BYTE   W24
 BYTE   Fn1
 BYTE   N23  Cn2
 BYTE   W24
 BYTE   PEND 
//  #07 //008   ----------------------------------------
 BYTE   W96
//  #07 //009   ----------------------------------------
 BYTE   PATT
  POIN2 Label_015F40AF
//  #07 //010   ----------------------------------------
Label_015F40C1:
 BYTE   W96
//  #07 //011   ----------------------------------------
 BYTE   PATT
  POIN2 Label_015F40AF
//  #07 //012   ----------------------------------------
 BYTE   W96
//  #07 //013   ----------------------------------------
 BYTE   PATT
  POIN2 Label_015F40AF
//  #07 //014   ----------------------------------------
 BYTE   W96
//  #07 //015   ----------------------------------------
 BYTE   PATT
  POIN2 Label_015F40AF
//  #07 //016   ----------------------------------------
 BYTE   W96
//  #07 //017   ----------------------------------------
 BYTE   PATT
  POIN2 Label_015F40AF
//  #07 //018   ----------------------------------------
 BYTE   W96
//  #07 //019   ----------------------------------------
 BYTE   W96
//  #07 //020   ----------------------------------------
 BYTE   W96
//  #07 //021   ----------------------------------------
 BYTE   W96
//  #07 //022   ----------------------------------------
Label_015F40DD:
 BYTE   N23  Gn1  v080
 BYTE   N23  Cn2
 BYTE   W24
 BYTE   N11  Ds2
 BYTE   W12
 BYTE   En2
 BYTE   W12
 BYTE   Gn1
 BYTE   N11  Cn2
 BYTE   W12
 BYTE   Ds2
 BYTE   W12
 BYTE   En2
 BYTE   W12
 BYTE   N23  Gn1
 BYTE   N23  Cn2
 BYTE   W12
 BYTE   PEND 
//  #07 //023   ----------------------------------------
Label_015F40F6:
 BYTE   W12
 BYTE   N11  Ds2  v080
 BYTE   W12
 BYTE   En2
 BYTE   W12
 BYTE   Cn2
 BYTE   W12
 BYTE   N23  Cn2  v056
 BYTE   N23  An2  v080
 BYTE   W24
 BYTE   N11  Cn2  v056
 BYTE   N11  Gn2  v080
 BYTE   W24
 BYTE   PEND 
//  #07 //024   ----------------------------------------
Label_015F410E:
 BYTE   N23  Gn1  v080
 BYTE   N23  Cn2
 BYTE   W24
 BYTE   N11  Ds2
 BYTE   W12
 BYTE   En2
 BYTE   W12
 BYTE   Gn1
 BYTE   N11  Cn2
 BYTE   W12
 BYTE   Ds2
 BYTE   W12
 BYTE   En2
 BYTE   W12
 BYTE   N23  Gn1
 BYTE   N23  Cn2
 BYTE   W12
 BYTE   PEND 
//  #07 //025   ----------------------------------------
 BYTE   PATT
  POIN2 Label_015F40F6
//  #07 //026   ----------------------------------------
 BYTE   W96
//  #07 //027   ----------------------------------------
 BYTE   PATT
  POIN2 Label_015F40AF
//  #07 //028   ----------------------------------------
 BYTE   W96
//  #07 //029   ----------------------------------------
 BYTE   PATT
  POIN2 Label_015F40AF
//  #07 //030   ----------------------------------------
 BYTE   W96
//  #07 //031   ----------------------------------------
 BYTE   PATT
  POIN2 Label_015F40AF
//  #07 //032   ----------------------------------------
 BYTE   W96
//  #07 //033   ----------------------------------------
 BYTE   PATT
  POIN2 Label_015F40AF
//  #07 //034   ----------------------------------------
 BYTE   W96
//  #07 //035   ----------------------------------------
 BYTE   W96
//  #07 //036   ----------------------------------------
 BYTE   W96
//  #07 //037   ----------------------------------------
 BYTE   W96
//  #07 //038   ----------------------------------------
 BYTE   PATT
  POIN2 Label_015F40DD
//  #07 //039   ----------------------------------------
 BYTE   PATT
  POIN2 Label_015F40F6
//  #07 //040   ----------------------------------------
 BYTE   PATT
  POIN2 Label_015F410E
//  #07 //041   ----------------------------------------
 BYTE   PATT
  POIN2 Label_015F40F6
//  #07 //042   ----------------------------------------
Label_015F415C:
 BYTE   N11  An1  v052
 BYTE   W12
 BYTE   En2
 BYTE   W12
 BYTE   N44  An2
 BYTE   W72
 BYTE   PEND 
//  #07 //043   ----------------------------------------
Label_015F4166:
 BYTE   N11  En2  v052
 BYTE   W12
 BYTE   Gs2
 BYTE   W12
 BYTE   N44  Bn2
 BYTE   W72
 BYTE   PEND 
//  #07 //044   ----------------------------------------
 BYTE   PATT
  POIN2 Label_015F415C
//  #07 //045   ----------------------------------------
 BYTE   PATT
  POIN2 Label_015F4166
//  #07 //046   ----------------------------------------
 BYTE   W96
//  #07 //047   ----------------------------------------
 BYTE   W96
//  #07 //048   ----------------------------------------
 BYTE   W96
//  #07 //049   ----------------------------------------
 BYTE   W96
//  #07 //050   ----------------------------------------
 BYTE   W96
//  #07 //051   ----------------------------------------
 BYTE   W96
//  #07 //052   ----------------------------------------
 BYTE   W96
//  #07 //053   ----------------------------------------
 BYTE   W96
//  #07 //054   ----------------------------------------
 BYTE   W96
//  #07 //055   ----------------------------------------
 BYTE   PATT
  POIN2 Label_015F40AF
//  #07 //056   ----------------------------------------
 BYTE   W96
//  #07 //057   ----------------------------------------
 BYTE   PATT
  POIN2 Label_015F40AF
//  #07 //058   ----------------------------------------
 BYTE   W96
//  #07 //059   ----------------------------------------
 BYTE   PATT
  POIN2 Label_015F40AF
//  #07 //060   ----------------------------------------
 BYTE   W96
//  #07 //061   ----------------------------------------
 BYTE   PATT
  POIN2 Label_015F40AF
//  #07 //062   ----------------------------------------
 BYTE   W96
//  #07 //063   ----------------------------------------
 BYTE   W96
//  #07 //064   ----------------------------------------
 BYTE   W96
//  #07 //065   ----------------------------------------
 BYTE   W96
//  #07 //066   ----------------------------------------
 BYTE   W96
//  #07 //067   ----------------------------------------
 BYTE   W96
//  #07 //068   ----------------------------------------
 BYTE   W96
//  #07 //069   ----------------------------------------
 BYTE   W96
//  #07 //070   ----------------------------------------
 BYTE   W96
//  #07 //071   ----------------------------------------
 BYTE   W24
 BYTE   GoTo
  POIN2 Label_015F40C1
 BYTE   FINE

//**************** Track 8 (Midi-Chn.7) ****************//

song2A_008:
//  #08 //000   ----------------------------------------
 BYTE   KEYSH   song2A_key+0
 BYTE   VOICE   38
 BYTE   VOL   43*song2A_mvl/mxv
 BYTE   PAN   c_v-1
 BYTE   En3  v064
 BYTE   W96
//  #08 //001   ----------------------------------------
 BYTE   W96
//  #08 //002   ----------------------------------------
 BYTE   W96
//  #08 //003   ----------------------------------------
 BYTE   W48
 BYTE   N06  Cn2  v084
 BYTE   W06
 BYTE   N06
 BYTE   W06
 BYTE   N12  Gn2
 BYTE   W12
 BYTE   W24
//  #08 //004   ----------------------------------------
 BYTE   N05  Cn2
 BYTE   W12
 BYTE   N05
 BYTE   W12
 BYTE   N05
 BYTE   W12
 BYTE   N05
 BYTE   W12
 BYTE   N05
 BYTE   W12
 BYTE   N05
 BYTE   W12
 BYTE   N05
 BYTE   W12
 BYTE   N05
 BYTE   W12
//  #08 //005   ----------------------------------------
 BYTE   N05
 BYTE   W12
 BYTE   N05
 BYTE   W12
 BYTE   N05
 BYTE   W12
 BYTE   N05
 BYTE   W12
 BYTE   N05
 BYTE   W12
 BYTE   N05
 BYTE   W12
 BYTE   N05
 BYTE   W12
 BYTE   N05
 BYTE   W12
//  #08 //006   ----------------------------------------
Label_015F41F5:
 BYTE   N23  Cn2  v084
 BYTE   W24
 BYTE   N11  Gn1
 BYTE   W12
 BYTE   As1
 BYTE   W12
 BYTE   Gn1
 BYTE   W12
 BYTE   N05  As1
 BYTE   W12
 BYTE   N23
 BYTE   W24
 BYTE   PEND 
//  #08 //007   ----------------------------------------
Label_015F4206:
 BYTE   N11  Cn1  v084
 BYTE   W12
 BYTE   N05  Ds1
 BYTE   W24
 BYTE   N11  Cn1
 BYTE   W12
 BYTE   N23  Fn1
 BYTE   W24
 BYTE   N23
 BYTE   W24
 BYTE   PEND 
//  #08 //008   ----------------------------------------
 BYTE   PATT
  POIN2 Label_015F41F5
//  #08 //009   ----------------------------------------
 BYTE   PATT
  POIN2 Label_015F4206
//  #08 //010   ----------------------------------------
Label_015F4220:
//  #08 //011   ----------------------------------------
 BYTE   PATT
  POIN2 Label_015F41F5
//  #08 //012   ----------------------------------------
 BYTE   PATT
  POIN2 Label_015F4206
//  #08 //013   ----------------------------------------
 BYTE   PATT
  POIN2 Label_015F41F5
//  #08 //014   ----------------------------------------
 BYTE   PATT
  POIN2 Label_015F4206
//  #08 //015   ----------------------------------------
 BYTE   PATT
  POIN2 Label_015F41F5
//  #08 //016   ----------------------------------------
 BYTE   PATT
  POIN2 Label_015F4206
//  #08 //017   ----------------------------------------
 BYTE   PATT
  POIN2 Label_015F41F5
//  #08 //018   ----------------------------------------
 BYTE   PATT
  POIN2 Label_015F4206
//  #08 //019   ----------------------------------------
Label_015F4248:
 BYTE   N23  Fn1  v084
 BYTE   W24
 BYTE   N17
 BYTE   W18
 BYTE   N02  Cn2
 BYTE   W18
 BYTE   N23
 BYTE   W24
 BYTE   N11  Gn1
 BYTE   W12
 BYTE   PEND 
//  #08 //020   ----------------------------------------
 BYTE   PATT
  POIN2 Label_015F4248
//  #08 //021   ----------------------------------------
Label_015F425C:
 BYTE   N23  Fn1  v084
 BYTE   W24
 BYTE   N17
 BYTE   W18
 BYTE   N02  Cn2
 BYTE   W18
 BYTE   N23
 BYTE   W24
 BYTE   Gn1
 BYTE   W12
 BYTE   PEND 
//  #08 //022   ----------------------------------------
 BYTE   W12
 BYTE   N11
 BYTE   W12
 BYTE   N11
 BYTE   W12
 BYTE   N11
 BYTE   W12
 BYTE   N11
 BYTE   W48
//  #08 //023   ----------------------------------------
 BYTE   W96
//  #08 //024   ----------------------------------------
 BYTE   W96
//  #08 //025   ----------------------------------------
 BYTE   W96
//  #08 //026   ----------------------------------------
 BYTE   W96
//  #08 //027   ----------------------------------------
 BYTE   PATT
  POIN2 Label_015F41F5
//  #08 //028   ----------------------------------------
 BYTE   PATT
  POIN2 Label_015F4206
//  #08 //029   ----------------------------------------
 BYTE   PATT
  POIN2 Label_015F41F5
//  #08 //030   ----------------------------------------
 BYTE   PATT
  POIN2 Label_015F4206
//  #08 //031   ----------------------------------------
 BYTE   PATT
  POIN2 Label_015F41F5
//  #08 //032   ----------------------------------------
 BYTE   PATT
  POIN2 Label_015F4206
//  #08 //033   ----------------------------------------
 BYTE   PATT
  POIN2 Label_015F41F5
//  #08 //034   ----------------------------------------
 BYTE   PATT
  POIN2 Label_015F4206
//  #08 //035   ----------------------------------------
 BYTE   PATT
  POIN2 Label_015F4248
//  #08 //036   ----------------------------------------
 BYTE   PATT
  POIN2 Label_015F4248
//  #08 //037   ----------------------------------------
 BYTE   PATT
  POIN2 Label_015F425C
//  #08 //038   ----------------------------------------
Label_015F42AE:
 BYTE   W12
 BYTE   N11  Gn1  v084
 BYTE   W12
 BYTE   N11
 BYTE   W12
 BYTE   N11
 BYTE   W12
 BYTE   N11
 BYTE   W12
 BYTE   W06
 BYTE   W06
 BYTE   W18
 BYTE   W06
 BYTE   PEND 
//  #08 //039   ----------------------------------------
 BYTE   W96
//  #08 //040   ----------------------------------------
 BYTE   W96
//  #08 //041   ----------------------------------------
 BYTE   W96
//  #08 //042   ----------------------------------------
 BYTE   W96
//  #08 //043   ----------------------------------------
Label_015F42C2:
 BYTE   N32  An0  v084
 BYTE   W36
 BYTE   N11
 BYTE   W12
 BYTE   N44
 BYTE   W48
 BYTE   PEND 
//  #08 //044   ----------------------------------------
Label_015F42CB:
 BYTE   N32  Gs0  v084
 BYTE   W36
 BYTE   N11
 BYTE   W12
 BYTE   N44
 BYTE   W48
 BYTE   PEND 
//  #08 //045   ----------------------------------------
 BYTE   PATT
  POIN2 Label_015F42C2
//  #08 //046   ----------------------------------------
 BYTE   PATT
  POIN2 Label_015F42CB
//  #08 //047   ----------------------------------------
Label_015F42DE:
 BYTE   N44  Fn0  v084
 BYTE   W48
 BYTE   Gn0
 BYTE   W48
 BYTE   PEND 
//  #08 //048   ----------------------------------------
Label_015F42E5:
 BYTE   N23  Cn1  v084
 BYTE   W24
 BYTE   Bn0
 BYTE   W24
 BYTE   An0
 BYTE   W24
 BYTE   Gn0
 BYTE   W24
 BYTE   PEND 
//  #08 //049   ----------------------------------------
Label_015F42F0:
 BYTE   N23  Fn0  v084
 BYTE   W24
 BYTE   An0
 BYTE   W24
 BYTE   Gn0
 BYTE   W24
 BYTE   Bn0
 BYTE   W24
 BYTE   PEND 
//  #08 //050   ----------------------------------------
 BYTE   N44  Cn1
 BYTE   W60
 BYTE   N11  Gn0
 BYTE   W12
 BYTE   N11
 BYTE   W24
//  #08 //051   ----------------------------------------
 BYTE   PATT
  POIN2 Label_015F42DE
//  #08 //052   ----------------------------------------
 BYTE   PATT
  POIN2 Label_015F42E5
//  #08 //053   ----------------------------------------
 BYTE   PATT
  POIN2 Label_015F42F0
//  #08 //054   ----------------------------------------
 BYTE   N92  Cn1  v084
 BYTE   W96
//  #08 //055   ----------------------------------------
 BYTE   PATT
  POIN2 Label_015F41F5
//  #08 //056   ----------------------------------------
 BYTE   PATT
  POIN2 Label_015F4206
//  #08 //057   ----------------------------------------
 BYTE   PATT
  POIN2 Label_015F41F5
//  #08 //058   ----------------------------------------
 BYTE   PATT
  POIN2 Label_015F4206
//  #08 //059   ----------------------------------------
 BYTE   PATT
  POIN2 Label_015F41F5
//  #08 //060   ----------------------------------------
 BYTE   PATT
  POIN2 Label_015F4206
//  #08 //061   ----------------------------------------
 BYTE   PATT
  POIN2 Label_015F41F5
//  #08 //062   ----------------------------------------
 BYTE   PATT
  POIN2 Label_015F4206
//  #08 //063   ----------------------------------------
 BYTE   PATT
  POIN2 Label_015F4248
//  #08 //064   ----------------------------------------
 BYTE   PATT
  POIN2 Label_015F4248
//  #08 //065   ----------------------------------------
 BYTE   N23  Fn1  v084
 BYTE   W24
 BYTE   N17
 BYTE   W18
 BYTE   N02  Cn2
 BYTE   W06
 BYTE   W12
 BYTE   N23
 BYTE   W24
 BYTE   Gn1
 BYTE   W12
//  #08 //066   ----------------------------------------
 BYTE   PATT
  POIN2 Label_015F42AE
//  #08 //067   ----------------------------------------
Label_015F435B:
 BYTE   N05  Cn2  v084
 BYTE   W12
 BYTE   N05
 BYTE   W12
 BYTE   N11  Gn1
 BYTE   W12
 BYTE   Cn2
 BYTE   W12
 BYTE   N05
 BYTE   W12
 BYTE   N05
 BYTE   W06
 BYTE   W06
 BYTE   N11  Gn1
 BYTE   W12
 BYTE   Cn2
 BYTE   W06
 BYTE   W06
 BYTE   PEND 
//  #08 //068   ----------------------------------------
 BYTE   N05  Fn1
 BYTE   W12
 BYTE   N11
 BYTE   W12
 BYTE   As1
 BYTE   W12
 BYTE   N05  Fn1
 BYTE   W12
 BYTE   N05
 BYTE   W12
 BYTE   N11
 BYTE   W06
 BYTE   W06
 BYTE   As1
 BYTE   W12
 BYTE   N05  Fn1
 BYTE   W06
 BYTE   W06
//  #08 //069   ----------------------------------------
 BYTE   PATT
  POIN2 Label_015F435B
//  #08 //070   ----------------------------------------
 BYTE   N05  Fn1  v084
 BYTE   W12
 BYTE   N11
 BYTE   W12
 BYTE   As1
 BYTE   W12
 BYTE   N05  Fn1
 BYTE   W12
 BYTE   N05
 BYTE   W12
 BYTE   N11
 BYTE   W12
 BYTE   Cn2
 BYTE   W12
 BYTE   N05  Fn1
 BYTE   W06
 BYTE   W06
//  #08 //071   ----------------------------------------
 BYTE   N68  Cn2
 BYTE   W96
//  #08 //072   ----------------------------------------
 BYTE   W24
 BYTE   GoTo
  POIN2 Label_015F4220
 BYTE   FINE

//**************** Track 9 (Midi-Chn.8) ****************//

song2A_009:
//  #09 //000   ----------------------------------------
 BYTE   KEYSH   song2A_key+0
 BYTE   VOICE   124
 BYTE   VOL   29*song2A_mvl/mxv
 BYTE   PAN   c_v+0
 BYTE   En3  v064
 BYTE   En3  v064
 BYTE   En3  v064
 BYTE   PAN   c_v+0
 BYTE   W96
//  #09 //001   ----------------------------------------
 BYTE   W96
//  #09 //002   ----------------------------------------
 BYTE   W96
//  #09 //003   ----------------------------------------
 BYTE   W96
//  #09 //004   ----------------------------------------
Label_015F8A0F:
 BYTE   N11  Cn1  v080
 BYTE   N05  Gn1  v052
 BYTE   N17  Gs2  v080
 BYTE   W06
 BYTE   N05  Gn1  v052
 BYTE   W06
 BYTE   N11  Cn1  v080
 BYTE   N05  Gn1  v052
 BYTE   W06
 BYTE   N05
 BYTE   N17  Gs2  v080
 BYTE   W06
 BYTE   N11  Cn1
 BYTE   N05  Gn1  v052
 BYTE   W06
 BYTE   En1
 BYTE   W06
 BYTE   N11  Cn1  v080
 BYTE   N05  En1  v052
 BYTE   N11  Gs2  v080
 BYTE   W06
 BYTE   N05  Gn1  v052
 BYTE   W06
 BYTE   N11  Cn1  v080
 BYTE   N05  Gn1  v052
 BYTE   W06
 BYTE   N05
 BYTE   W06
 BYTE   N11  Cn1  v080
 BYTE   N05  Gn1  v052
 BYTE   W06
 BYTE   N05
 BYTE   W06
 BYTE   N11  Cn1  v080
 BYTE   N05  Gn1  v052
 BYTE   W06
 BYTE   En1
 BYTE   W06
 BYTE   N11  Cn1  v080
 BYTE   N05  En1  v052
 BYTE   N11  Gs2  v080
 BYTE   W06
 BYTE   N05  Gn1  v052
 BYTE   W06
 BYTE   PEND 
//  #09 //005   ----------------------------------------
 BYTE   PATT
  POIN2 Label_015F8A0F
//  #09 //006   ----------------------------------------
 BYTE   N23  Cn1  v120
 BYTE   N11  En3  v080
 BYTE   W12
 BYTE   Ds3
 BYTE   W12
 BYTE   Dn3
 BYTE   W36
 BYTE   Ds3
 BYTE   W12
 BYTE   Dn3
 BYTE   W24
//  #09 //007   ----------------------------------------
 BYTE   En3
 BYTE   W12
 BYTE   Ds3
 BYTE   W12
 BYTE   Dn3
 BYTE   W36
 BYTE   N05
 BYTE   W06
 BYTE   N05
 BYTE   W06
 BYTE   N11  Ds3
 BYTE   W12
 BYTE   Dn3
 BYTE   W12
//  #09 //008   ----------------------------------------
Label_015F8A8C:
 BYTE   N23  Cn1  v120
 BYTE   N11  En3  v080
 BYTE   W12
 BYTE   Ds3
 BYTE   W12
 BYTE   Dn3
 BYTE   W36
 BYTE   Ds3
 BYTE   W12
 BYTE   N23  Fn1
 BYTE   N11  Dn3
 BYTE   W24
 BYTE   PEND 
//  #09 //009   ----------------------------------------
Label_015F8A9F:
 BYTE   N11  En3  v080
 BYTE   W12
 BYTE   Ds3
 BYTE   W12
 BYTE   Dn3
 BYTE   W36
 BYTE   N05
 BYTE   W06
 BYTE   N05
 BYTE   W06
 BYTE   N23  Fn1
 BYTE   N11  Ds3
 BYTE   W12
 BYTE   Dn3
 BYTE   W12
 BYTE   PEND 
//  #09 //010   ----------------------------------------
Label_015F8AB3:
//  #09 //011   ----------------------------------------
 BYTE   PATT
  POIN2 Label_015F8A8C
//  #09 //012   ----------------------------------------
 BYTE   PATT
  POIN2 Label_015F8A9F
//  #09 //013   ----------------------------------------
 BYTE   PATT
  POIN2 Label_015F8A8C
//  #09 //014   ----------------------------------------
 BYTE   PATT
  POIN2 Label_015F8A9F
//  #09 //015   ----------------------------------------
 BYTE   N23  Bn0  v120
 BYTE   N05  Fs1  v076
 BYTE   N11  En3  v080
 BYTE   W06
 BYTE   N05  Fs1  v052
 BYTE   W06
 BYTE   N05
 BYTE   N11  Ds3  v080
 BYTE   W06
 BYTE   N05  Fs1  v052
 BYTE   W06
 BYTE   Fs1  v076
 BYTE   N11  Dn3  v080
 BYTE   W06
 BYTE   N05  Fs1  v052
 BYTE   W06
 BYTE   N05
 BYTE   W06
 BYTE   N05
 BYTE   W06
 BYTE   Fs1  v076
 BYTE   W06
 BYTE   Fs1  v052
 BYTE   W06
 BYTE   N05
 BYTE   N11  Ds3  v080
 BYTE   W06
 BYTE   N05  Fs1  v052
 BYTE   W06
 BYTE   N23  Fn1
 BYTE   N05  Fs1  v076
 BYTE   N11  Dn3  v080
 BYTE   W06
 BYTE   N05  Fs1  v052
 BYTE   W06
 BYTE   N05
 BYTE   W06
 BYTE   N05
 BYTE   W06
//  #09 //016   ----------------------------------------
 BYTE   Fs1  v076
 BYTE   N11  En3  v080
 BYTE   W06
 BYTE   N05  Fs1  v052
 BYTE   W06
 BYTE   N05
 BYTE   N11  Ds3  v080
 BYTE   W06
 BYTE   N05  Fs1  v052
 BYTE   W06
 BYTE   Fs1  v076
 BYTE   N11  Dn3  v080
 BYTE   W06
 BYTE   N05  Fs1  v052
 BYTE   W06
 BYTE   N05
 BYTE   W06
 BYTE   N05
 BYTE   W06
 BYTE   Fs1  v076
 BYTE   W06
 BYTE   Fs1  v052
 BYTE   W06
 BYTE   N05
 BYTE   N05  Dn3  v080
 BYTE   W06
 BYTE   Fs1  v052
 BYTE   N05  Dn3  v080
 BYTE   W06
 BYTE   N23  Fn1  v052
 BYTE   N05  Fs1  v076
 BYTE   N11  Ds3  v080
 BYTE   W06
 BYTE   N05  Fs1  v052
 BYTE   W06
 BYTE   N05
 BYTE   N11  Dn3  v080
 BYTE   W06
 BYTE   N05  Fs1  v052
 BYTE   W06
//  #09 //017   ----------------------------------------
 BYTE   N23  Bn0  v120
 BYTE   N05  Fs1  v076
 BYTE   N11  En3  v080
 BYTE   W06
 BYTE   N05  Fs1  v052
 BYTE   W06
 BYTE   N05
 BYTE   N11  Ds3  v080
 BYTE   W06
 BYTE   N05  Fs1  v052
 BYTE   W06
 BYTE   Fs1  v076
 BYTE   N11  Dn3  v080
 BYTE   W06
 BYTE   N05  Fs1  v052
 BYTE   W06
 BYTE   N05
 BYTE   W06
 BYTE   N05
 BYTE   W06
 BYTE   Fs1  v076
 BYTE   W06
 BYTE   Fs1  v052
 BYTE   W06
 BYTE   N05
 BYTE   N11  Ds3  v080
 BYTE   W06
 BYTE   N05  Fs1  v052
 BYTE   W06
 BYTE   N23  Fn1
 BYTE   N05  Fs1  v076
 BYTE   N11  Dn3  v080
 BYTE   W06
 BYTE   N05  Fs1  v052
 BYTE   W06
 BYTE   N05
 BYTE   W06
 BYTE   N05
 BYTE   W06
//  #09 //018   ----------------------------------------
 BYTE   Fs1  v076
 BYTE   N11  En3  v080
 BYTE   W06
 BYTE   N05  Fs1  v052
 BYTE   W06
 BYTE   N05
 BYTE   N11  Ds3  v080
 BYTE   W06
 BYTE   N05  Fs1  v052
 BYTE   W06
 BYTE   Fs1  v076
 BYTE   N11  Dn3  v080
 BYTE   W06
 BYTE   N05  Fs1  v052
 BYTE   W06
 BYTE   N05
 BYTE   W06
 BYTE   N05
 BYTE   W06
 BYTE   Fs1  v076
 BYTE   W06
 BYTE   Fs1  v052
 BYTE   W06
 BYTE   N05
 BYTE   N05  Dn3  v080
 BYTE   W06
 BYTE   Fs1  v052
 BYTE   N05  Dn3  v080
 BYTE   W06
 BYTE   N23  Fn1  v052
 BYTE   N05  Fs1
 BYTE   N11  Ds3  v080
 BYTE   W06
 BYTE   N05  Fs1  v052
 BYTE   W06
 BYTE   N05
 BYTE   N11  Dn3  v080
 BYTE   W06
 BYTE   N05  Fs1  v052
 BYTE   W06
//  #09 //019   ----------------------------------------
Label_015F8BE2:
 BYTE   N23  Cn1  v096
 BYTE   N11  Fs2  v052
 BYTE   W18
 BYTE   N05
 BYTE   W06
 BYTE   N23  Dn1  v080
 BYTE   N11  Fs2  v052
 BYTE   W18
 BYTE   N05
 BYTE   W06
 BYTE   N11
 BYTE   W12
 BYTE   Cn1  v080
 BYTE   W06
 BYTE   N05  Fs2  v052
 BYTE   W06
 BYTE   N11  Dn1  v080
 BYTE   N05  Fs2  v052
 BYTE   W06
 BYTE   N11
 BYTE   W18
 BYTE   PEND 
//  #09 //020   ----------------------------------------
Label_015F8C07:
 BYTE   N23  Cn1  v080
 BYTE   N11  Fs2  v052
 BYTE   W18
 BYTE   N05
 BYTE   W06
 BYTE   N23  Dn1  v080
 BYTE   N11  Fs2  v052
 BYTE   W18
 BYTE   N05
 BYTE   W06
 BYTE   N11
 BYTE   W12
 BYTE   Cn1  v080
 BYTE   W06
 BYTE   N05  Fs2  v052
 BYTE   W06
 BYTE   N11  Dn1  v080
 BYTE   N05  Fs2  v052
 BYTE   W06
 BYTE   N11
 BYTE   W18
 BYTE   PEND 
//  #09 //021   ----------------------------------------
 BYTE   N23  Cn1  v080
 BYTE   N11  Fs2  v052
 BYTE   W18
 BYTE   N05
 BYTE   W06
 BYTE   N23  Dn1  v080
 BYTE   N11  Fs2  v052
 BYTE   W18
 BYTE   N05
 BYTE   W06
 BYTE   N11
 BYTE   W12
 BYTE   Cn1  v080
 BYTE   W06
 BYTE   N05  Fs2  v052
 BYTE   W06
 BYTE   N11  Dn1  v080
 BYTE   N05  Fs2  v052
 BYTE   W06
 BYTE   N11
 BYTE   W06
 BYTE   Cn1  v080
 BYTE   W12
//  #09 //022   ----------------------------------------
Label_015F8C53:
 BYTE   N11  Fs2  v052
 BYTE   W12
 BYTE   Cn1  v080
 BYTE   N11  Dn1
 BYTE   W06
 BYTE   N05  Fs2  v052
 BYTE   W06
 BYTE   N11  Cn1  v080
 BYTE   N11  Dn1
 BYTE   N11  Fs2  v052
 BYTE   W12
 BYTE   Cn1  v080
 BYTE   N11  Dn1
 BYTE   W06
 BYTE   N05  Fs2  v052
 BYTE   W06
 BYTE   N11  Cn1  v080
 BYTE   N11  Dn1
 BYTE   N11  Fs2  v052
 BYTE   W48
 BYTE   PEND 
//  #09 //023   ----------------------------------------
 BYTE   W96
//  #09 //024   ----------------------------------------
 BYTE   W96
//  #09 //025   ----------------------------------------
 BYTE   W96
//  #09 //026   ----------------------------------------
 BYTE   W96
//  #09 //027   ----------------------------------------
Label_015F8C80:
 BYTE   N23  Bn0  v080
 BYTE   N23  Cn1
 BYTE   W12
 BYTE   N05  As3
 BYTE   W06
 BYTE   N05
 BYTE   W06
 BYTE   N23  Dn1
 BYTE   N23  Ds1  v052
 BYTE   W12
 BYTE   N05  As3  v080
 BYTE   W06
 BYTE   N05
 BYTE   W18
 BYTE   N11  Cn1
 BYTE   N05  As3
 BYTE   W06
 BYTE   N05
 BYTE   W06
 BYTE   N11  Dn1
 BYTE   N23  Ds1  v052
 BYTE   W12
 BYTE   N05  As3  v080
 BYTE   W06
 BYTE   N05
 BYTE   W06
 BYTE   PEND 
//  #09 //028   ----------------------------------------
Label_015F8CAB:
 BYTE   N23  Cn1  v080
 BYTE   W12
 BYTE   N05  As3
 BYTE   W06
 BYTE   N05
 BYTE   W06
 BYTE   N23  Dn1
 BYTE   N23  Ds1  v052
 BYTE   W12
 BYTE   N05  As3  v080
 BYTE   W06
 BYTE   N05
 BYTE   W18
 BYTE   N11  Cn1
 BYTE   N05  As3
 BYTE   W06
 BYTE   N05
 BYTE   W06
 BYTE   N11  Dn1
 BYTE   N23  Ds1  v052
 BYTE   W12
 BYTE   N05  As3  v080
 BYTE   W06
 BYTE   N05
 BYTE   W06
 BYTE   PEND 
//  #09 //029   ----------------------------------------
 BYTE   PATT
  POIN2 Label_015F8C80
//  #09 //030   ----------------------------------------
 BYTE   PATT
  POIN2 Label_015F8CAB
//  #09 //031   ----------------------------------------
 BYTE   PATT
  POIN2 Label_015F8C80
//  #09 //032   ----------------------------------------
 BYTE   PATT
  POIN2 Label_015F8CAB
//  #09 //033   ----------------------------------------
 BYTE   N23  Bn0  v080
 BYTE   N23  Cn1
 BYTE   W12
 BYTE   N05  As3
 BYTE   W06
 BYTE   N05
 BYTE   W06
 BYTE   N23  Dn1
 BYTE   N23  Ds1  v052
 BYTE   W12
 BYTE   N05  As3  v080
 BYTE   W06
 BYTE   N05
 BYTE   W18
 BYTE   N11  Cn1
 BYTE   N05  As3
 BYTE   W06
 BYTE   N05
 BYTE   W06
 BYTE   N11  Dn1
 BYTE   N23  Ds1  v052
 BYTE   W12
 BYTE   N05  As3  v080
 BYTE   W06
 BYTE   N05
 BYTE   W06
//  #09 //034   ----------------------------------------
 BYTE   N23  Cn1
 BYTE   W12
 BYTE   N05  As3
 BYTE   W06
 BYTE   N05
 BYTE   W06
 BYTE   N23  Dn1
 BYTE   N23  Ds1  v052
 BYTE   W12
 BYTE   N05  As3  v080
 BYTE   W06
 BYTE   N05
 BYTE   W18
 BYTE   N11  Cn1
 BYTE   N05  As3
 BYTE   W06
 BYTE   N05
 BYTE   W06
 BYTE   N11  Dn1
 BYTE   N23  Ds1  v052
 BYTE   W12
 BYTE   N05  As3  v080
 BYTE   W06
 BYTE   N05
 BYTE   W06
//  #09 //035   ----------------------------------------
 BYTE   N23  Bn0
 BYTE   N23  Cn1  v096
 BYTE   N11  Fs2  v052
 BYTE   W18
 BYTE   N05
 BYTE   W06
 BYTE   N23  Dn1  v080
 BYTE   N11  Fs2  v052
 BYTE   W18
 BYTE   N05
 BYTE   W06
 BYTE   N11
 BYTE   W12
 BYTE   Cn1  v080
 BYTE   W06
 BYTE   N05  Fs2  v052
 BYTE   W06
 BYTE   N11  Dn1  v080
 BYTE   N05  Fs2  v052
 BYTE   W06
 BYTE   N11
 BYTE   W18
//  #09 //036   ----------------------------------------
 BYTE   PATT
  POIN2 Label_015F8C07
//  #09 //037   ----------------------------------------
 BYTE   N23  Bn0  v080
 BYTE   N23  Cn1
 BYTE   N11  Fs2  v052
 BYTE   W18
 BYTE   N05
 BYTE   W06
 BYTE   N23  Dn1  v080
 BYTE   N11  Fs2  v052
 BYTE   W18
 BYTE   N05
 BYTE   W06
 BYTE   N11
 BYTE   W12
 BYTE   Cn1  v080
 BYTE   W06
 BYTE   N05  Fs2  v052
 BYTE   W06
 BYTE   N11  Dn1  v080
 BYTE   N05  Fs2  v052
 BYTE   W06
 BYTE   N11
 BYTE   W06
 BYTE   Cn1  v080
 BYTE   W12
//  #09 //038   ----------------------------------------
 BYTE   PATT
  POIN2 Label_015F8C53
//  #09 //039   ----------------------------------------
 BYTE   W96
//  #09 //040   ----------------------------------------
 BYTE   W96
//  #09 //041   ----------------------------------------
 BYTE   W96
//  #09 //042   ----------------------------------------
 BYTE   W96
//  #09 //043   ----------------------------------------
 BYTE   N32  Cn1  v080
 BYTE   N11  Cs2
 BYTE   W12
 BYTE   Fs1
 BYTE   W12
 BYTE   N11
 BYTE   W12
 BYTE   Cn1
 BYTE   N11  Fs1
 BYTE   N03  Cs5
 BYTE   W04
 BYTE   N03
 BYTE   W04
 BYTE   N03
 BYTE   W04
 BYTE   N44  Cn1
 BYTE   N11  Fs1
 BYTE   N11  Cs5
 BYTE   W12
 BYTE   Fs1
 BYTE   W12
 BYTE   N23  Dn1
 BYTE   N11  Fs1
 BYTE   W12
 BYTE   N11
 BYTE   W12
//  #09 //044   ----------------------------------------
Label_015F8DBA:
 BYTE   N32  Cn1  v080
 BYTE   N11  Fs1
 BYTE   W12
 BYTE   N11
 BYTE   W12
 BYTE   N11
 BYTE   W12
 BYTE   Cn1
 BYTE   N11  Fs1
 BYTE   N03  Cs5
 BYTE   W04
 BYTE   N03
 BYTE   W04
 BYTE   N03
 BYTE   W04
 BYTE   N44  Cn1
 BYTE   N11  Fs1
 BYTE   N11  Cs5
 BYTE   W12
 BYTE   Fs1
 BYTE   W12
 BYTE   N23  Dn1
 BYTE   N11  Fs1
 BYTE   W12
 BYTE   N11
 BYTE   W12
 BYTE   PEND 
//  #09 //045   ----------------------------------------
 BYTE   PATT
  POIN2 Label_015F8DBA
//  #09 //046   ----------------------------------------
 BYTE   N32  Cn1  v080
 BYTE   N11  Fs1
 BYTE   W12
 BYTE   N11
 BYTE   W12
 BYTE   N11
 BYTE   W12
 BYTE   Cn1
 BYTE   N11  Fs1
 BYTE   N03  Cs5
 BYTE   W04
 BYTE   N03
 BYTE   W04
 BYTE   N03
 BYTE   W04
 BYTE   N44  Cn1
 BYTE   N11  Fs1
 BYTE   N11  Cs5
 BYTE   W12
 BYTE   Dn1
 BYTE   N11  Fs1
 BYTE   W12
 BYTE   N05  Dn1
 BYTE   N11  Fs1
 BYTE   W06
 BYTE   N05  Dn1
 BYTE   W06
 BYTE   N11
 BYTE   N11  Fs1
 BYTE   W12
//  #09 //047   ----------------------------------------
Label_015F8E0F:
 BYTE   N23  Cn1  v080
 BYTE   W12
 BYTE   N05  Fs2  v052
 BYTE   W06
 BYTE   N05
 BYTE   W06
 BYTE   N23  Dn1  v080
 BYTE   W12
 BYTE   N05  Fs2  v052
 BYTE   W06
 BYTE   N05
 BYTE   W06
 BYTE   N11  Cn1  v080
 BYTE   W12
 BYTE   N11
 BYTE   N05  Fs2  v052
 BYTE   W06
 BYTE   N05
 BYTE   W06
 BYTE   N23  Dn1  v080
 BYTE   W12
 BYTE   N05  Fs2  v052
 BYTE   W06
 BYTE   N05
 BYTE   W06
 BYTE   PEND 
//  #09 //048   ----------------------------------------
Label_015F8E39:
 BYTE   N17  Cn1  v080
 BYTE   W12
 BYTE   N05  Fs2  v052
 BYTE   W06
 BYTE   Cn1  v080
 BYTE   N05  Fs2  v052
 BYTE   W06
 BYTE   N23  Dn1  v080
 BYTE   W12
 BYTE   N11  Cn1
 BYTE   N05  Fs2  v052
 BYTE   W06
 BYTE   N05
 BYTE   W18
 BYTE   N11  Cn1  v080
 BYTE   N05  Fs2  v052
 BYTE   W06
 BYTE   N05
 BYTE   W06
 BYTE   N23  Dn1  v080
 BYTE   W12
 BYTE   N05  Fs2  v052
 BYTE   W06
 BYTE   N05
 BYTE   W06
 BYTE   PEND 
//  #09 //049   ----------------------------------------
 BYTE   N23  Cn1  v080
 BYTE   W12
 BYTE   N05  Fs2  v052
 BYTE   W06
 BYTE   N05
 BYTE   W06
 BYTE   N23  Dn1  v080
 BYTE   W12
 BYTE   N11  Cn1
 BYTE   N05  Fs2  v052
 BYTE   W06
 BYTE   N05
 BYTE   W18
 BYTE   N11  Cn1  v080
 BYTE   N05  Fs2  v052
 BYTE   W06
 BYTE   N05
 BYTE   W06
 BYTE   N23  Dn1  v080
 BYTE   W12
 BYTE   N05  Fs2  v052
 BYTE   W06
 BYTE   N05
 BYTE   W06
//  #09 //050   ----------------------------------------
 BYTE   N11  Cn1  v080
 BYTE   W12
 BYTE   N11
 BYTE   N05  Fs2  v052
 BYTE   W06
 BYTE   N05
 BYTE   W06
 BYTE   N23  Dn1  v080
 BYTE   W12
 BYTE   N11  Cn1
 BYTE   N05  Fs2  v052
 BYTE   W06
 BYTE   N05
 BYTE   W06
 BYTE   N11  Cn1  v080
 BYTE   W12
 BYTE   N05  Fs2  v052
 BYTE   W06
 BYTE   N05
 BYTE   W06
 BYTE   N11  Dn1  v080
 BYTE   W12
 BYTE   N05
 BYTE   N05  Fs2  v052
 BYTE   W06
 BYTE   Dn1  v080
 BYTE   N05  Fs2  v052
 BYTE   W06
//  #09 //051   ----------------------------------------
 BYTE   PATT
  POIN2 Label_015F8E0F
//  #09 //052   ----------------------------------------
 BYTE   PATT
  POIN2 Label_015F8E39
//  #09 //053   ----------------------------------------
 BYTE   N23  Cn1  v080
 BYTE   N23  As1
 BYTE   W12
 BYTE   N05  Fs2  v052
 BYTE   W06
 BYTE   N05
 BYTE   W06
 BYTE   N23  Dn1  v080
 BYTE   N23  As1
 BYTE   W12
 BYTE   N11  Cn1
 BYTE   N05  Fs2  v052
 BYTE   W06
 BYTE   N05
 BYTE   W06
 BYTE   N23  As1  v080
 BYTE   W12
 BYTE   N11  Cn1
 BYTE   N05  Fs2  v052
 BYTE   W06
 BYTE   N05
 BYTE   W06
 BYTE   N23  Dn1  v080
 BYTE   N23  As1
 BYTE   W12
 BYTE   N05  Fs2  v052
 BYTE   W06
 BYTE   N05
 BYTE   W06
//  #09 //054   ----------------------------------------
 BYTE   N11  Cn1  v080
 BYTE   N23  Cs2
 BYTE   W12
 BYTE   N05  Fs2  v052
 BYTE   W06
 BYTE   N05
 BYTE   W18
 BYTE   Dn1  v080
 BYTE   W06
 BYTE   N05
 BYTE   W06
 BYTE   N23  Cn1
 BYTE   N11  Dn1
 BYTE   W48
//  #09 //055   ----------------------------------------
Label_015F8F12:
 BYTE   N23  Bn0  v080
 BYTE   N11  En3
 BYTE   W12
 BYTE   Ds3
 BYTE   W12
 BYTE   Dn3
 BYTE   W36
 BYTE   Ds3
 BYTE   W12
 BYTE   N23  Fn1
 BYTE   N11  Dn3
 BYTE   W24
 BYTE   PEND 
//  #09 //056   ----------------------------------------
 BYTE   PATT
  POIN2 Label_015F8A9F
//  #09 //057   ----------------------------------------
 BYTE   PATT
  POIN2 Label_015F8F12
//  #09 //058   ----------------------------------------
 BYTE   PATT
  POIN2 Label_015F8A9F
//  #09 //059   ----------------------------------------
 BYTE   PATT
  POIN2 Label_015F8F12
//  #09 //060   ----------------------------------------
 BYTE   PATT
  POIN2 Label_015F8A9F
//  #09 //061   ----------------------------------------
 BYTE   PATT
  POIN2 Label_015F8F12
//  #09 //062   ----------------------------------------
 BYTE   N11  En3  v080
 BYTE   W12
 BYTE   Ds3
 BYTE   W12
 BYTE   Dn3
 BYTE   W36
 BYTE   N05
 BYTE   W06
 BYTE   N05
 BYTE   W06
 BYTE   N23  Fn1
 BYTE   N11  Ds3
 BYTE   W12
 BYTE   Dn3
 BYTE   W12
//  #09 //063   ----------------------------------------
 BYTE   PATT
  POIN2 Label_015F8BE2
//  #09 //064   ----------------------------------------
 BYTE   PATT
  POIN2 Label_015F8C07
//  #09 //065   ----------------------------------------
 BYTE   N23  Cn1  v080
 BYTE   N11  Fs2  v052
 BYTE   W18
 BYTE   N05
 BYTE   W06
 BYTE   N23  Dn1  v080
 BYTE   N11  Fs2  v052
 BYTE   W18
 BYTE   N05
 BYTE   W06
 BYTE   N11
 BYTE   W12
 BYTE   Cn1  v080
 BYTE   W06
 BYTE   N05  Fs2  v052
 BYTE   W06
 BYTE   N11  Dn1  v080
 BYTE   N05  Fs2  v052
 BYTE   W06
 BYTE   N11
 BYTE   W06
 BYTE   Cn1  v080
 BYTE   W12
//  #09 //066   ----------------------------------------
 BYTE   PATT
  POIN2 Label_015F8C53
//  #09 //067   ----------------------------------------
Label_015F8F8B:
 BYTE   N11  Cn1  v080
 BYTE   N05  Ds1  v052
 BYTE   W06
 BYTE   N05
 BYTE   W06
 BYTE   N11  Cn1  v080
 BYTE   N05  Ds1  v052
 BYTE   W06
 BYTE   N05
 BYTE   W06
 BYTE   N11  Dn1  v080
 BYTE   N05  Ds1  v052
 BYTE   W06
 BYTE   En1
 BYTE   W06
 BYTE   N11  Cn1  v080
 BYTE   N05  En1  v052
 BYTE   W06
 BYTE   Ds1
 BYTE   W06
 BYTE   N11  Cn1  v080
 BYTE   N05  Ds1  v052
 BYTE   W06
 BYTE   N05
 BYTE   W06
 BYTE   N11  Cn1  v080
 BYTE   N05  Ds1  v052
 BYTE   W06
 BYTE   N05
 BYTE   W06
 BYTE   N11  Dn1  v080
 BYTE   N05  Ds1  v052
 BYTE   W06
 BYTE   En1
 BYTE   W06
 BYTE   N11  Cn1  v080
 BYTE   N05  En1  v052
 BYTE   W06
 BYTE   Ds1
 BYTE   W06
 BYTE   PEND 
//  #09 //068   ----------------------------------------
 BYTE   PATT
  POIN2 Label_015F8F8B
//  #09 //069   ----------------------------------------
 BYTE   PATT
  POIN2 Label_015F8F8B
//  #09 //070   ----------------------------------------
 BYTE   PATT
  POIN2 Label_015F8F8B
//  #09 //071   ----------------------------------------
 BYTE   TIE  Cs2  v080
 BYTE   W84
 BYTE   N12  Ds1
 BYTE   W12
//  #09 //072   ----------------------------------------
 BYTE   N12
 BYTE   W24
 BYTE   EOT
 BYTE   Cs2
 BYTE   GoTo
  POIN2 Label_015F8AB3
 BYTE   FINE

//******************************************************//
	ALIGN 4

song2A:
	BYTE	9	// NumTrks
	BYTE	0	// NumBlks
	BYTE	song2A_pri	// Priority
	BYTE	song2A_rev	// Reverb.
    
	POIN2	song2A_grp
    
	POIN2	song2A_001
	POIN2	song2A_002
	POIN2	song2A_003
	POIN2	song2A_004
	POIN2	song2A_005
	POIN2	song2A_006
	POIN2	song2A_007
	POIN2	song2A_008
	POIN2	song2A_009

	
