//Event file generated from Sappy .s format.
	#include "MPlayDef.event"

	#define	song45_grp  voicegroup000
	#define	song45_pri  0
	#define	song45_rev  0
	#define	song45_mvl  127
	#define	song45_key  0
	#define	song45_tbs  1
	#define	song45_exg  0
	#define	song45_cmp  1

	// .rodata
	//	song45
	ALIGN 4


//**************** Track 1 (Midi-Chn.0) ****************//

song45_001:
//  #01 //000   ----------------------------------------
 BYTE   KEYSH   song45_key+0
 BYTE   TEMPO   156*song45_tbs/2
 BYTE   VOICE   40
 BYTE   VOL   45*song45_mvl/mxv
 BYTE   PAN   c_v-14
 BYTE   N44  Gs3  v072
 BYTE   W12
 BYTE   N11  Ds3  v068
 BYTE   W12
 BYTE   Bn2
 BYTE   W12
 BYTE   Gs2
 BYTE   W12
 BYTE   N44  Gs3  v072
 BYTE   W12
 BYTE   N11  Ds3  v068
 BYTE   W12
 BYTE   Bn2
 BYTE   W12
 BYTE   Gs2
 BYTE   W12
//  #01 //001   ----------------------------------------
 BYTE   N44  Fs3  v072
 BYTE   W12
 BYTE   N11  Cs3  v068
 BYTE   W12
 BYTE   As2
 BYTE   W12
 BYTE   Fs2
 BYTE   W12
 BYTE   N44  Fs3  v072
 BYTE   W12
 BYTE   N11  Cs3  v068
 BYTE   W12
 BYTE   As2
 BYTE   W12
 BYTE   Fs2
 BYTE   W12
//  #01 //002   ----------------------------------------
 BYTE   N44  Gs3  v072
 BYTE   W12
 BYTE   N11  Ds3  v068
 BYTE   W12
 BYTE   Bn2
 BYTE   W12
 BYTE   Gs2
 BYTE   W12
 BYTE   N44  Gs3  v072
 BYTE   W12
 BYTE   N11  Ds3  v068
 BYTE   W12
 BYTE   Bn2
 BYTE   W12
 BYTE   Gs2
 BYTE   W12
//  #01 //003   ----------------------------------------
 BYTE   N44  Gs3  v072
 BYTE   W12
 BYTE   N11  Ds3  v068
 BYTE   W12
 BYTE   Bn2
 BYTE   W12
 BYTE   Gs2
 BYTE   W12
 BYTE   N44  Fs2  v072
 BYTE   W12
 BYTE   N11  Bn2  v068
 BYTE   W12
 BYTE   Ds3  v072
 BYTE   W12
 BYTE   Fs3  v080
 BYTE   W12
//  #01 //004   ----------------------------------------
 BYTE   N92  Bn2
 BYTE   W02
 BYTE   Gs3  v088
 BYTE   W92
 BYTE   W02
//  #01 //005   ----------------------------------------
 BYTE   W72
 BYTE   N03  En2  v100
 BYTE   W04
 BYTE   Fs2  v092
 BYTE   W04
 BYTE   Gs2
 BYTE   W04
 BYTE   As2
 BYTE   W04
 BYTE   Bn2
 BYTE   W04
 BYTE   Cs3
 BYTE   W02
Label_015F667F:
 BYTE   W02
//  #01 //006   ----------------------------------------
 BYTE   N68  Ds3  v080
 BYTE   W72
 BYTE   N23  Gs3  v076
 BYTE   W24
//  #01 //007   ----------------------------------------
Label_015F6688:
 BYTE   N44  Cs4  v076
 BYTE   W48
 BYTE   Bn3
 BYTE   W48
 BYTE   PEND 
//  #01 //008   ----------------------------------------
Label_015F668F:
 BYTE   N68  As3  v076
 BYTE   W72
 BYTE   N23  Ds3
 BYTE   W24
 BYTE   PEND 
//  #01 //009   ----------------------------------------
 BYTE   N40  As3
 BYTE   W48
 BYTE   N23
 BYTE   W24
 BYTE   Bn3
 BYTE   W24
//  #01 //010   ----------------------------------------
 BYTE   N68  As3
 BYTE   W72
 BYTE   N23  Gs3
 BYTE   W24
//  #01 //011   ----------------------------------------
 BYTE   N68  Cs4
 BYTE   W72
 BYTE   N23  Bn3
 BYTE   W24
//  #01 //012   ----------------------------------------
 BYTE   N80  As3
 BYTE   W84
 BYTE   N05
 BYTE   W06
 BYTE   Bn3
 BYTE   W06
//  #01 //013   ----------------------------------------
 BYTE   N44  Cs4
 BYTE   W48
 BYTE   Ds4
 BYTE   W48
//  #01 //014   ----------------------------------------
 BYTE   W12
 BYTE   N05  Ds4  v080
 BYTE   W12
 BYTE   N05
 BYTE   W12
 BYTE   Cs4
 BYTE   W12
 BYTE   En4
 BYTE   W12
 BYTE   N05
 BYTE   W12
 BYTE   N05
 BYTE   W12
 BYTE   Ds4
 BYTE   W12
//  #01 //015   ----------------------------------------
 BYTE   N05
 BYTE   W12
 BYTE   Gs3
 BYTE   W12
 BYTE   As3
 BYTE   W12
 BYTE   Bn3
 BYTE   W12
 BYTE   Cs4
 BYTE   W12
 BYTE   Gn3
 BYTE   W12
 BYTE   Gs3
 BYTE   W12
 BYTE   As3
 BYTE   W12
//  #01 //016   ----------------------------------------
 BYTE   W12
 BYTE   Ds4
 BYTE   W12
 BYTE   N05
 BYTE   W12
 BYTE   En4
 BYTE   W12
 BYTE   Fs4
 BYTE   W12
 BYTE   En4
 BYTE   W12
 BYTE   Ds4
 BYTE   W12
 BYTE   Cs4
 BYTE   W12
//  #01 //017   ----------------------------------------
 BYTE   Ds4
 BYTE   W12
 BYTE   Gs3
 BYTE   W12
 BYTE   As3
 BYTE   W12
 BYTE   Bn3
 BYTE   W12
 BYTE   Cs4
 BYTE   W12
 BYTE   Ds4
 BYTE   W12
 BYTE   Cs4
 BYTE   W12
 BYTE   Bn3
 BYTE   W12
//  #01 //018   ----------------------------------------
 BYTE   N68  Ds3  v076
 BYTE   W72
 BYTE   N23  Gs3
 BYTE   W24
//  #01 //019   ----------------------------------------
 BYTE   PATT
  POIN2 Label_015F6688
//  #01 //020   ----------------------------------------
 BYTE   PATT
  POIN2 Label_015F668F
//  #01 //021   ----------------------------------------
 BYTE   N44  As3  v076
 BYTE   W48
 BYTE   N23
 BYTE   W24
 BYTE   Bn3
 BYTE   W24
//  #01 //022   ----------------------------------------
 BYTE   N07  Cs4
 BYTE   W08
 BYTE   Bn3
 BYTE   W08
 BYTE   As3
 BYTE   W08
 BYTE   TIE  Bn3
 BYTE   W72
//  #01 //023   ----------------------------------------
 BYTE   W44
 BYTE   W03
 BYTE   EOT
 BYTE   W01
 BYTE   N23
 BYTE   W24
 BYTE   Cs4
 BYTE   W24
//  #01 //024   ----------------------------------------
 BYTE   N68
 BYTE   W72
 BYTE   N23  As3
 BYTE   W24
//  #01 //025   ----------------------------------------
 BYTE   N44  Cs4
 BYTE   W96
//  #01 //026   ----------------------------------------
 BYTE   W96
//  #01 //027   ----------------------------------------
 BYTE   W96
//  #01 //028   ----------------------------------------
 BYTE   W96
//  #01 //029   ----------------------------------------
 BYTE   W96
//  #01 //030   ----------------------------------------
 BYTE   W96
//  #01 //031   ----------------------------------------
 BYTE   W96
//  #01 //032   ----------------------------------------
 BYTE   W96
//  #01 //033   ----------------------------------------
 BYTE   W96
//  #01 //034   ----------------------------------------
Label_015F6731:
 BYTE   W24
 BYTE   N23  Ds4  v080
 BYTE   W24
 BYTE   Cs4
 BYTE   W24
 BYTE   Bn3
 BYTE   W24
 BYTE   PEND 
//  #01 //035   ----------------------------------------
 BYTE   As3
 BYTE   W24
 BYTE   Ds4
 BYTE   W24
 BYTE   Cs4
 BYTE   W24
 BYTE   Bn3
 BYTE   W24
//  #01 //036   ----------------------------------------
Label_015F6743:
 BYTE   N32  As3  v080
 BYTE   W36
 BYTE   N05  Gs3
 BYTE   W06
 BYTE   As3
 BYTE   W06
 BYTE   N92  Bn3
 BYTE   W48
 BYTE   PEND 
//  #01 //037   ----------------------------------------
 BYTE   W48
 BYTE   N23  As3
 BYTE   W24
 BYTE   Bn3
 BYTE   W24
//  #01 //038   ----------------------------------------
 BYTE   N15  Cs4  v084
 BYTE   W16
 BYTE   N11  Gs3  v080
 BYTE   W16
 BYTE   Cs3
 BYTE   W16
 BYTE   N88
 BYTE   W48
//  #01 //039   ----------------------------------------
Label_015F6762:
 BYTE   W48
 BYTE   N23  Gs3  v080
 BYTE   W24
 BYTE   As3
 BYTE   W24
 BYTE   PEND 
//  #01 //040   ----------------------------------------
 BYTE   N32  Bn3
 BYTE   W36
 BYTE   N05  As3
 BYTE   W06
 BYTE   Gs3
 BYTE   W06
 BYTE   N88  As3
 BYTE   W48
//  #01 //041   ----------------------------------------
 BYTE   W48
 BYTE   N23  Cs4
 BYTE   W24
 BYTE   N20  Ds4
 BYTE   W24
//  #01 //042   ----------------------------------------
 BYTE   PATT
  POIN2 Label_015F6731
//  #01 //043   ----------------------------------------
 BYTE   N23  As3  v080
 BYTE   W24
 BYTE   Ds4
 BYTE   W24
 BYTE   En4
 BYTE   W24
 BYTE   Bn3
 BYTE   W24
//  #01 //044   ----------------------------------------
 BYTE   PATT
  POIN2 Label_015F6743
//  #01 //045   ----------------------------------------
 BYTE   W48
 BYTE   N17  As3  v080
 BYTE   W18
 BYTE   Bn3
 BYTE   W18
 BYTE   N11  Cs4
 BYTE   W12
//  #01 //046   ----------------------------------------
 BYTE   N15  Cs4  v092
 BYTE   W16
 BYTE   N11  Gs3  v088
 BYTE   W16
 BYTE   Cs3
 BYTE   W16
 BYTE   N88
 BYTE   W48
//  #01 //047   ----------------------------------------
 BYTE   PATT
  POIN2 Label_015F6762
//  #01 //048   ----------------------------------------
 BYTE   N32  Bn3  v080
 BYTE   W36
 BYTE   N05  As3
 BYTE   W06
 BYTE   Gs3
 BYTE   W06
 BYTE   N44  As3
 BYTE   W48
//  #01 //049   ----------------------------------------
 BYTE   N32  Ds4
 BYTE   W36
 BYTE   N05  Cs4
 BYTE   W06
 BYTE   Bn3
 BYTE   W06
 BYTE   N20  Cs4
 BYTE   W24
 BYTE   N03  En3  v088
 BYTE   N20  Ds4  v104
 BYTE   W04
 BYTE   N03  Gn3  v088
 BYTE   W04
 BYTE   Gs3
 BYTE   W04
 BYTE   As3
 BYTE   W04
 BYTE   Bn3
 BYTE   W04
 BYTE   Cs4
 BYTE   W04
//  #01 //050   ----------------------------------------
 BYTE   TIE  Ds4  v064
 BYTE   W24
 BYTE   W03
 BYTE   W01
 BYTE   W03
 BYTE   W03
 BYTE   W01
 BYTE   W03
 BYTE   W01
 BYTE   W02
 BYTE   W01
 BYTE   W03
 BYTE   W01
 BYTE   W03
 BYTE   W03
 BYTE   W01
 BYTE   W03
 BYTE   W03
 BYTE   W01
 BYTE   W03
 BYTE   W01
 BYTE   W02
 BYTE   W01
 BYTE   W03
 BYTE   W01
 BYTE   W03
 BYTE   W03
 BYTE   W01
 BYTE   W03
 BYTE   W01
 BYTE   W02
 BYTE   W01
 BYTE   W03
 BYTE   W01
 BYTE   W03
 BYTE   W03
 BYTE   W01
//  #01 //051   ----------------------------------------
 BYTE   W03
 BYTE   W03
 BYTE   W01
 BYTE   W03
 BYTE   W01
 BYTE   W02
 BYTE   W01
 BYTE   W03
 BYTE   W01
 BYTE   W03
 BYTE   W03
 BYTE   W01
 BYTE   W03
 BYTE   W01
 BYTE   W02
 BYTE   W01
 BYTE   W03
 BYTE   W01
 BYTE   W03
 BYTE   W02
 BYTE   EOT
 BYTE   W01
 BYTE   W01
 BYTE   W03
 BYTE   W02
 BYTE   W48
//  #01 //052   ----------------------------------------
Label_015F6816:
 BYTE   W12
 BYTE   N05  Ds3  v080
 BYTE   N05  Ds4
 BYTE   W12
 BYTE   Ds3
 BYTE   N05  Ds4
 BYTE   W12
 BYTE   En3
 BYTE   N05  En4
 BYTE   W12
 BYTE   Fs3
 BYTE   N05  Fs4
 BYTE   W12
 BYTE   En3
 BYTE   N05  En4
 BYTE   W12
 BYTE   Ds3
 BYTE   N05  Ds4
 BYTE   W12
 BYTE   Cs3
 BYTE   N05  Cs4
 BYTE   W12
 BYTE   PEND 
//  #01 //053   ----------------------------------------
 BYTE   Ds3
 BYTE   N05  Ds4
 BYTE   W12
 BYTE   Gs2
 BYTE   N05  Gs3
 BYTE   W12
 BYTE   As2
 BYTE   N05  As3
 BYTE   W12
 BYTE   Bn2
 BYTE   N05  Bn3
 BYTE   W12
 BYTE   Cs3
 BYTE   N05  Cs4
 BYTE   W12
 BYTE   Ds3
 BYTE   N05  Ds4
 BYTE   W12
 BYTE   Cs3
 BYTE   N05  Cs4
 BYTE   W12
 BYTE   Bn2
 BYTE   N05  Bn3
 BYTE   W12
//  #01 //054   ----------------------------------------
 BYTE   W96
//  #01 //055   ----------------------------------------
 BYTE   W96
//  #01 //056   ----------------------------------------
 BYTE   PATT
  POIN2 Label_015F6816
//  #01 //057   ----------------------------------------
 BYTE   N05  Ds3  v080
 BYTE   N05  Ds4
 BYTE   W12
 BYTE   Gs2
 BYTE   N05  Gs3
 BYTE   W12
 BYTE   As2
 BYTE   N05  As3
 BYTE   W12
 BYTE   Bn2
 BYTE   N05  Bn3
 BYTE   W12
 BYTE   Cs3
 BYTE   N05  Cs4
 BYTE   W12
 BYTE   Ds3
 BYTE   N05  Ds4
 BYTE   W12
 BYTE   Cs3
 BYTE   N05  Cs4
 BYTE   W12
 BYTE   Bn2
 BYTE   N05  Bn3
 BYTE   W12
//  #01 //058   ----------------------------------------
 BYTE   TIE  Ds2  v076
 BYTE   N92  Bn2  v080
 BYTE   W02
 BYTE   Gs3  v088
 BYTE   W92
 BYTE   W02
//  #01 //059   ----------------------------------------
 BYTE   W68
 BYTE   W03
 BYTE   EOT
 BYTE   Ds2
 BYTE   W01
 BYTE   N03  En2  v100
 BYTE   W04
 BYTE   Fs2  v092
 BYTE   W04
 BYTE   Gs2
 BYTE   W04
 BYTE   As2
 BYTE   W04
 BYTE   Bn2
 BYTE   W04
 BYTE   Cs3
 BYTE   W03
 BYTE   GoTo
  POIN2 Label_015F667F
 BYTE   FINE

//**************** Track 2 (Midi-Chn.1) ****************//

song45_002:
//  #02 //000   ----------------------------------------
 BYTE   KEYSH   song45_key+0
 BYTE   VOICE   48
 BYTE   PAN   c_v+0
 BYTE   VOL   40*song45_mvl/mxv
 BYTE   W96
//  #02 //001   ----------------------------------------
 BYTE   W96
//  #02 //002   ----------------------------------------
 BYTE   W96
//  #02 //003   ----------------------------------------
 BYTE   W96
//  #02 //004   ----------------------------------------
 BYTE   TIE  GsM1  v076
 BYTE   W96
//  #02 //005   ----------------------------------------
 BYTE   W68
 BYTE   W03
 BYTE   EOT
 BYTE   W01
 BYTE   N03  Cs1  v092
 BYTE   W04
 BYTE   Ds1
 BYTE   W04
 BYTE   En1
 BYTE   W04
 BYTE   Fs1
 BYTE   W04
 BYTE   Gs1
 BYTE   W04
 BYTE   As1
 BYTE   W02
Label_015F608E:
 BYTE   W02
//  #02 //006   ----------------------------------------
 BYTE   N68  Gs1  v080
 BYTE   W72
 BYTE   N23  Ds2  v076
 BYTE   W24
//  #02 //007   ----------------------------------------
Label_015F6097:
 BYTE   N44  Gs2  v076
 BYTE   W48
 BYTE   N44
 BYTE   W48
 BYTE   PEND 
//  #02 //008   ----------------------------------------
Label_015F609E:
 BYTE   N68  Ds2  v076
 BYTE   W72
 BYTE   N23  As1
 BYTE   W24
 BYTE   PEND 
//  #02 //009   ----------------------------------------
 BYTE   N40  Ds2
 BYTE   W48
 BYTE   N23
 BYTE   W24
 BYTE   N23
 BYTE   W24
//  #02 //010   ----------------------------------------
 BYTE   N68  En2
 BYTE   W72
 BYTE   N23
 BYTE   W24
//  #02 //011   ----------------------------------------
 BYTE   N68  Gs2
 BYTE   W72
 BYTE   N23
 BYTE   W24
//  #02 //012   ----------------------------------------
 BYTE   N80  Fs2
 BYTE   W84
 BYTE   N11
 BYTE   W12
//  #02 //013   ----------------------------------------
 BYTE   N44  Gn2
 BYTE   W48
 BYTE   N44
 BYTE   W48
//  #02 //014   ----------------------------------------
 BYTE   W12
 BYTE   N05  Ds3  v080
 BYTE   W12
 BYTE   N05
 BYTE   W12
 BYTE   Cs3
 BYTE   W12
 BYTE   En3
 BYTE   W12
 BYTE   N05
 BYTE   W12
 BYTE   N05
 BYTE   W12
 BYTE   Ds3
 BYTE   W12
//  #02 //015   ----------------------------------------
 BYTE   N05
 BYTE   W12
 BYTE   Gs2
 BYTE   W12
 BYTE   As2
 BYTE   W12
 BYTE   Bn2
 BYTE   W12
 BYTE   Cs3
 BYTE   W12
 BYTE   Gn2
 BYTE   W12
 BYTE   Gs2
 BYTE   W12
 BYTE   As2
 BYTE   W12
//  #02 //016   ----------------------------------------
 BYTE   W12
 BYTE   Ds3
 BYTE   W12
 BYTE   N05
 BYTE   W12
 BYTE   En3
 BYTE   W12
 BYTE   Fs3
 BYTE   W12
 BYTE   En3
 BYTE   W12
 BYTE   Ds3
 BYTE   W12
 BYTE   Cs3
 BYTE   W12
//  #02 //017   ----------------------------------------
 BYTE   Ds3
 BYTE   W12
 BYTE   Gs2
 BYTE   W12
 BYTE   As2
 BYTE   W12
 BYTE   Bn2
 BYTE   W12
 BYTE   Cs3
 BYTE   W12
 BYTE   Ds3
 BYTE   W12
 BYTE   Cs3
 BYTE   W12
 BYTE   Bn2
 BYTE   W12
//  #02 //018   ----------------------------------------
 BYTE   N68  Gs1  v076
 BYTE   W72
 BYTE   N23  Ds2
 BYTE   W24
//  #02 //019   ----------------------------------------
 BYTE   PATT
  POIN2 Label_015F6097
//  #02 //020   ----------------------------------------
 BYTE   PATT
  POIN2 Label_015F609E
//  #02 //021   ----------------------------------------
 BYTE   N44  Ds2  v076
 BYTE   W48
 BYTE   N23
 BYTE   W24
 BYTE   N23
 BYTE   W24
//  #02 //022   ----------------------------------------
 BYTE   En2
 BYTE   W24
 BYTE   TIE
 BYTE   W72
//  #02 //023   ----------------------------------------
 BYTE   W44
 BYTE   W03
 BYTE   EOT
 BYTE   W01
 BYTE   N23  Gs2
 BYTE   W24
 BYTE   N23
 BYTE   W24
//  #02 //024   ----------------------------------------
 BYTE   N68  Fs2
 BYTE   W72
 BYTE   N23
 BYTE   W24
//  #02 //025   ----------------------------------------
 BYTE   N44  Gn2
 BYTE   W48
 BYTE   N07  Ds3  v092
 BYTE   W08
 BYTE   Gn3
 BYTE   W08
 BYTE   Gs3
 BYTE   W08
 BYTE   As3
 BYTE   W08
 BYTE   Bn3
 BYTE   W08
 BYTE   Cs4
 BYTE   W08
//  #02 //026   ----------------------------------------
 BYTE   N32  Ds4  v084
 BYTE   W36
 BYTE   N05  Gs3
 BYTE   W12
 BYTE   N68
 BYTE   W48
//  #02 //027   ----------------------------------------
 BYTE   W24
 BYTE   N23  Cs4
 BYTE   W24
 BYTE   Bn3
 BYTE   W24
 BYTE   As3
 BYTE   W24
//  #02 //028   ----------------------------------------
 BYTE   N32
 BYTE   W36
 BYTE   N05  Gs3
 BYTE   W06
 BYTE   As3
 BYTE   W06
 BYTE   N88  Bn3
 BYTE   W48
//  #02 //029   ----------------------------------------
 BYTE   W48
 BYTE   N23  Cs4
 BYTE   W24
 BYTE   Ds4
 BYTE   W24
//  #02 //030   ----------------------------------------
 BYTE   N32  Cs4
 BYTE   W36
 BYTE   N05  Fs3
 BYTE   W12
 BYTE   N44
 BYTE   W48
//  #02 //031   ----------------------------------------
 BYTE   N23  Gn3  v072
 BYTE   W24
 BYTE   En4  v084
 BYTE   W24
 BYTE   Ds4
 BYTE   W24
 BYTE   Cs4
 BYTE   W24
//  #02 //032   ----------------------------------------
 BYTE   N32
 BYTE   W36
 BYTE   N05  Bn3
 BYTE   W06
 BYTE   Cs4
 BYTE   W06
 BYTE   N92  Ds4
 BYTE   W48
//  #02 //033   ----------------------------------------
 BYTE   W48
 BYTE   N23  Cs4
 BYTE   W24
 BYTE   N20  Ds4
 BYTE   W24
//  #02 //034   ----------------------------------------
Label_015F6182:
 BYTE   W24
 BYTE   N23  Bn2  v072
 BYTE   W24
 BYTE   As2
 BYTE   W24
 BYTE   Gs2
 BYTE   W24
 BYTE   PEND 
//  #02 //035   ----------------------------------------
 BYTE   Fs2
 BYTE   W24
 BYTE   As2
 BYTE   W24
 BYTE   N23
 BYTE   W24
 BYTE   Gs2
 BYTE   W24
//  #02 //036   ----------------------------------------
 BYTE   N32  Fs2
 BYTE   W36
 BYTE   N05  Fn2
 BYTE   W06
 BYTE   Fs2
 BYTE   W06
 BYTE   N92  Gs2
 BYTE   W48
//  #02 //037   ----------------------------------------
 BYTE   W48
 BYTE   N23  Fs2
 BYTE   W24
 BYTE   Gs2
 BYTE   W24
//  #02 //038   ----------------------------------------
 BYTE   N15  Gs2  v076
 BYTE   W16
 BYTE   N11  Fn2  v072
 BYTE   W16
 BYTE   Gs1
 BYTE   W16
 BYTE   N88
 BYTE   W48
//  #02 //039   ----------------------------------------
 BYTE   W48
 BYTE   N23  Cs2
 BYTE   W24
 BYTE   N23
 BYTE   W24
//  #02 //040   ----------------------------------------
 BYTE   N32
 BYTE   W36
 BYTE   N05
 BYTE   W06
 BYTE   Bn1
 BYTE   W06
 BYTE   N88  Cs2
 BYTE   W48
//  #02 //041   ----------------------------------------
 BYTE   W48
 BYTE   N23  As2
 BYTE   W24
 BYTE   N20
 BYTE   W24
//  #02 //042   ----------------------------------------
 BYTE   PATT
  POIN2 Label_015F6182
//  #02 //043   ----------------------------------------
 BYTE   N23  Fs2  v072
 BYTE   W24
 BYTE   As2
 BYTE   W24
 BYTE   Cs3
 BYTE   W24
 BYTE   Gs2
 BYTE   W24
//  #02 //044   ----------------------------------------
 BYTE   N32  Fn2
 BYTE   W36
 BYTE   N05
 BYTE   W06
 BYTE   N05
 BYTE   W06
 BYTE   N44
 BYTE   W48
//  #02 //045   ----------------------------------------
 BYTE   En2
 BYTE   W48
 BYTE   N17  Fs2
 BYTE   W18
 BYTE   Gs2
 BYTE   W18
 BYTE   N11  As2
 BYTE   W12
//  #02 //046   ----------------------------------------
 BYTE   N15  Gs2  v076
 BYTE   W16
 BYTE   N11  Fn2  v072
 BYTE   W16
 BYTE   Gs1
 BYTE   W16
 BYTE   N30  Cs2
 BYTE   W32
 BYTE   N15  Gs1  v052
 BYTE   W16
//  #02 //047   ----------------------------------------
 BYTE   N40  Gs1  v072
 BYTE   W48
 BYTE   N23  Cs2
 BYTE   W24
 BYTE   N23
 BYTE   W24
//  #02 //048   ----------------------------------------
 BYTE   N32
 BYTE   W36
 BYTE   N05
 BYTE   W06
 BYTE   Bn1
 BYTE   W06
 BYTE   N44  Cs2
 BYTE   W48
//  #02 //049   ----------------------------------------
 BYTE   N32  As2
 BYTE   W36
 BYTE   N05  Gn2
 BYTE   W06
 BYTE   N05
 BYTE   W06
 BYTE   N20
 BYTE   W24
 BYTE   N03  Cs2  v088
 BYTE   W04
 BYTE   Ds2
 BYTE   W04
 BYTE   En2
 BYTE   W04
 BYTE   Gn2
 BYTE   W04
 BYTE   Gs2
 BYTE   W04
 BYTE   As2
 BYTE   W04
//  #02 //050   ----------------------------------------
 BYTE   N96  Bn2  v080
 BYTE   W12
 BYTE   N05  Ds3
 BYTE   N05  Ds4
 BYTE   W12
 BYTE   Ds3
 BYTE   N05  Ds4
 BYTE   W03
 BYTE   W01
 BYTE   W03
 BYTE   W03
 BYTE   W01
 BYTE   W01
 BYTE   Cs3
 BYTE   N05  Cs4
 BYTE   W02
 BYTE   W01
 BYTE   W02
 BYTE   W01
 BYTE   W03
 BYTE   W01
 BYTE   W02
 BYTE   En3
 BYTE   N05  En4
 BYTE   W01
 BYTE   W03
 BYTE   W01
 BYTE   W03
 BYTE   W03
 BYTE   W01
 BYTE   En3
 BYTE   N05  En4
 BYTE   W03
 BYTE   W01
 BYTE   W02
 BYTE   W01
 BYTE   W03
 BYTE   W01
 BYTE   W01
 BYTE   En3
 BYTE   N05  En4
 BYTE   W02
 BYTE   W03
 BYTE   W01
 BYTE   W03
 BYTE   W01
 BYTE   W02
 BYTE   Ds3
 BYTE   N05  Ds4
 BYTE   W01
 BYTE   W03
 BYTE   W01
 BYTE   W03
 BYTE   W03
 BYTE   W01
//  #02 //051   ----------------------------------------
 BYTE   Ds3
 BYTE   N05  Ds4
 BYTE   W03
 BYTE   W03
 BYTE   W01
 BYTE   W03
 BYTE   W01
 BYTE   W01
 BYTE   Gs2
 BYTE   N05  Gs3
 BYTE   W01
 BYTE   W01
 BYTE   W03
 BYTE   W01
 BYTE   W03
 BYTE   W03
 BYTE   As2
 BYTE   N05  As3
 BYTE   W01
 BYTE   W03
 BYTE   W01
 BYTE   W02
 BYTE   W01
 BYTE   W03
 BYTE   W01
 BYTE   Bn2
 BYTE   N05  Bn3
 BYTE   W03
 BYTE   W03
 BYTE   W01
 BYTE   W03
 BYTE   W02
 BYTE   Cs3
 BYTE   N05  Cs4
 BYTE   W12
 BYTE   Fs2
 BYTE   N05  Fs3
 BYTE   W12
 BYTE   Gs2
 BYTE   N05  Gs3
 BYTE   W12
 BYTE   As2
 BYTE   N05  As3
 BYTE   W12
//  #02 //052   ----------------------------------------
 BYTE   W96
//  #02 //053   ----------------------------------------
 BYTE   W96
//  #02 //054   ----------------------------------------
 BYTE   W12
 BYTE   Ds3
 BYTE   N05  Ds4
 BYTE   W12
 BYTE   Ds3
 BYTE   N05  Ds4
 BYTE   W12
 BYTE   Cs3
 BYTE   N05  Cs4
 BYTE   W12
 BYTE   En3
 BYTE   N05  En4
 BYTE   W12
 BYTE   En3
 BYTE   N05  En4
 BYTE   W12
 BYTE   En3
 BYTE   N05  En4
 BYTE   W12
 BYTE   Ds3
 BYTE   N05  Ds4
 BYTE   W12
//  #02 //055   ----------------------------------------
 BYTE   Ds3
 BYTE   N05  Ds4
 BYTE   W12
 BYTE   Gs2
 BYTE   N05  Gs3
 BYTE   W12
 BYTE   As2
 BYTE   N05  As3
 BYTE   W12
 BYTE   Bn2
 BYTE   N05  Bn3
 BYTE   W12
 BYTE   Cs3
 BYTE   N05  Cs4
 BYTE   W12
 BYTE   Fs2
 BYTE   N05  Fs3
 BYTE   W12
 BYTE   Gs2
 BYTE   N05  Gs3
 BYTE   W12
 BYTE   As2
 BYTE   N05  As3
 BYTE   W12
//  #02 //056   ----------------------------------------
 BYTE   W96
//  #02 //057   ----------------------------------------
 BYTE   W96
//  #02 //058   ----------------------------------------
 BYTE   TIE  GsM1  v076
 BYTE   N92  Bn2  v080
 BYTE   W02
 BYTE   Gs3  v088
 BYTE   W92
 BYTE   W02
//  #02 //059   ----------------------------------------
 BYTE   W68
 BYTE   W03
 BYTE   EOT
 BYTE   GsM1
 BYTE   W01
 BYTE   N03  Cs1  v092
 BYTE   W04
 BYTE   Ds1
 BYTE   W04
 BYTE   En1
 BYTE   W04
 BYTE   Fs1
 BYTE   W04
 BYTE   Gs1
 BYTE   W04
 BYTE   As1
 BYTE   W03
 BYTE   GoTo
  POIN2 Label_015F608E
 BYTE   FINE

//**************** Track 3 (Midi-Chn.2) ****************//

song45_003:
//  #03 //000   ----------------------------------------
 BYTE   VOL   70*song45_mvl/mxv
 BYTE   KEYSH   song45_key+0
 BYTE   VOICE   110
 BYTE   W96
//  #03 //001   ----------------------------------------
 BYTE   W96
//  #03 //002   ----------------------------------------
 BYTE   W96
//  #03 //003   ----------------------------------------
 BYTE   W96
//  #03 //004   ----------------------------------------
 BYTE   W96
//  #03 //005   ----------------------------------------
 BYTE   W92
 BYTE   W02
Label_01047C0D:
 BYTE   W02
//  #03 //006   ----------------------------------------
 BYTE   W96
//  #03 //007   ----------------------------------------
 BYTE   W96
//  #03 //008   ----------------------------------------
 BYTE   W96
//  #03 //009   ----------------------------------------
 BYTE   W96
//  #03 //010   ----------------------------------------
 BYTE   W96
//  #03 //011   ----------------------------------------
 BYTE   W96
//  #03 //012   ----------------------------------------
 BYTE   W96
//  #03 //013   ----------------------------------------
 BYTE   W96
//  #03 //014   ----------------------------------------
 BYTE   W96
//  #03 //015   ----------------------------------------
 BYTE   W96
//  #03 //016   ----------------------------------------
 BYTE   W96
//  #03 //017   ----------------------------------------
 BYTE   W96
//  #03 //018   ----------------------------------------
 BYTE   W96
//  #03 //019   ----------------------------------------
 BYTE   W96
//  #03 //020   ----------------------------------------
 BYTE   W96
//  #03 //021   ----------------------------------------
 BYTE   W96
//  #03 //022   ----------------------------------------
 BYTE   W96
//  #03 //023   ----------------------------------------
 BYTE   W96
//  #03 //024   ----------------------------------------
 BYTE   W96
//  #03 //025   ----------------------------------------
 BYTE   W48
 BYTE   N07  As2  v092
 BYTE   W08
 BYTE   Ds3
 BYTE   W08
 BYTE   Fn3
 BYTE   W08
 BYTE   Gn3
 BYTE   W08
 BYTE   Gs3
 BYTE   W08
 BYTE   As3
 BYTE   W08
//  #03 //026   ----------------------------------------
 BYTE   N32  Gs3  v068
 BYTE   W36
 BYTE   N05  En3
 BYTE   W12
 BYTE   N68
 BYTE   W48
//  #03 //027   ----------------------------------------
 BYTE   W24
 BYTE   N23  As3
 BYTE   W24
 BYTE   Gs3
 BYTE   W24
 BYTE   Fs3
 BYTE   W24
//  #03 //028   ----------------------------------------
 BYTE   N32
 BYTE   W36
 BYTE   N05  Fn3
 BYTE   W06
 BYTE   Fs3
 BYTE   W06
 BYTE   N88  Gs3
 BYTE   W48
//  #03 //029   ----------------------------------------
 BYTE   W48
 BYTE   N23  As3
 BYTE   W24
 BYTE   Bn3
 BYTE   W24
//  #03 //030   ----------------------------------------
 BYTE   N32  As3
 BYTE   W36
 BYTE   N05  Cs3
 BYTE   W12
 BYTE   N44
 BYTE   W48
//  #03 //031   ----------------------------------------
 BYTE   N23  Cs3  v060
 BYTE   W24
 BYTE   Cs4  v068
 BYTE   W24
 BYTE   Bn3
 BYTE   W24
 BYTE   As3
 BYTE   W24
//  #03 //032   ----------------------------------------
 BYTE   N32
 BYTE   W36
 BYTE   N05  Gs3
 BYTE   W06
 BYTE   As3
 BYTE   W06
 BYTE   N92
 BYTE   W48
//  #03 //033   ----------------------------------------
 BYTE   W48
 BYTE   N23
 BYTE   W24
 BYTE   N20
 BYTE   W24
//  #03 //034   ----------------------------------------
 BYTE   W96
//  #03 //035   ----------------------------------------
 BYTE   W96
//  #03 //036   ----------------------------------------
 BYTE   W96
//  #03 //037   ----------------------------------------
 BYTE   W96
//  #03 //038   ----------------------------------------
 BYTE   W96
//  #03 //039   ----------------------------------------
 BYTE   W96
//  #03 //040   ----------------------------------------
 BYTE   W96
//  #03 //041   ----------------------------------------
 BYTE   W96
//  #03 //042   ----------------------------------------
 BYTE   W96
//  #03 //043   ----------------------------------------
 BYTE   W96
//  #03 //044   ----------------------------------------
 BYTE   W96
//  #03 //045   ----------------------------------------
 BYTE   W96
//  #03 //046   ----------------------------------------
 BYTE   W96
//  #03 //047   ----------------------------------------
 BYTE   W96
//  #03 //048   ----------------------------------------
 BYTE   W96
//  #03 //049   ----------------------------------------
 BYTE   W96
//  #03 //050   ----------------------------------------
 BYTE   W96
//  #03 //051   ----------------------------------------
 BYTE   W96
//  #03 //052   ----------------------------------------
 BYTE   W96
//  #03 //053   ----------------------------------------
 BYTE   W96
//  #03 //054   ----------------------------------------
 BYTE   W96
//  #03 //055   ----------------------------------------
 BYTE   W96
//  #03 //056   ----------------------------------------
 BYTE   W96
//  #03 //057   ----------------------------------------
 BYTE   W96
//  #03 //058   ----------------------------------------
 BYTE   W96
//  #03 //059   ----------------------------------------
 BYTE   W92
 BYTE   W03
 BYTE   GoTo
  POIN2 Label_01047C0D
 BYTE   FINE

//**************** Track 4 (Midi-Chn.3) ****************//

song45_004:
//  #04 //000   ----------------------------------------
 BYTE   KEYSH   song45_key+0
 BYTE   VOICE   1
 BYTE   VOL   35*song45_mvl/mxv
 BYTE   N44  Gs2  v076
 BYTE   N44  Gs3
 BYTE   W48
 BYTE   Gs1
 BYTE   N44  Gs2
 BYTE   W48
//  #04 //001   ----------------------------------------
Label_015F68B4:
 BYTE   N44  Fs2  v076
 BYTE   N44  Fs3
 BYTE   W48
 BYTE   Fs1
 BYTE   N44  Fs2
 BYTE   W48
 BYTE   PEND 
//  #04 //002   ----------------------------------------
 BYTE   N48  En2
 BYTE   N23  En3
 BYTE   W24
 BYTE   N11  Gs1
 BYTE   W12
 BYTE   Bn1
 BYTE   W12
 BYTE   En2
 BYTE   W12
 BYTE   Gs2
 BYTE   W12
 BYTE   Bn2
 BYTE   W12
 BYTE   En3
 BYTE   W12
//  #04 //003   ----------------------------------------
 BYTE   N44  En2
 BYTE   N11  Gs3
 BYTE   W12
 BYTE   En3
 BYTE   W12
 BYTE   Bn3
 BYTE   W12
 BYTE   Gs3
 BYTE   W12
 BYTE   N32  Fs2  v084
 BYTE   N44  Fs3  v076
 BYTE   W36
 BYTE   N11  Fs1  v088
 BYTE   W12
//  #04 //004   ----------------------------------------
Label_015F68E7:
 BYTE   N92  Gs1  v080
 BYTE   W08
 BYTE   N07  Ds2  v076
 BYTE   W08
 BYTE   Gs2
 BYTE   W08
 BYTE   Bn2
 BYTE   W08
 BYTE   Ds3
 BYTE   W08
 BYTE   Gs3
 BYTE   W08
 BYTE   Bn3
 BYTE   W08
 BYTE   Gs3
 BYTE   W08
 BYTE   Ds3
 BYTE   W08
 BYTE   Bn2
 BYTE   W08
 BYTE   Gs2
 BYTE   W08
 BYTE   Ds2
 BYTE   W08
 BYTE   PEND 
//  #04 //005   ----------------------------------------
 BYTE   N68  Gs1  v080
 BYTE   W08
 BYTE   N07  Ds2  v076
 BYTE   W08
 BYTE   Gs2
 BYTE   W08
 BYTE   Bn2
 BYTE   W08
 BYTE   Ds3
 BYTE   W08
 BYTE   Gs3
 BYTE   W08
 BYTE   Bn3
 BYTE   W08
 BYTE   Gs3
 BYTE   W08
 BYTE   Ds3
 BYTE   W08
 BYTE   Bn2
 BYTE   W08
 BYTE   Gs2
 BYTE   W08
 BYTE   Ds2
 BYTE   W06
Label_015F6920:
 BYTE   W02
//  #04 //006   ----------------------------------------
 BYTE   PATT
  POIN2 Label_015F68E7
//  #04 //007   ----------------------------------------
Label_015F6926:
 BYTE   N92  Fs1  v080
 BYTE   W08
 BYTE   N07  Ds2  v076
 BYTE   W08
 BYTE   Fs2
 BYTE   W08
 BYTE   As2
 BYTE   W08
 BYTE   Ds3
 BYTE   W08
 BYTE   Fs3
 BYTE   W08
 BYTE   As3
 BYTE   W08
 BYTE   Fs3
 BYTE   W08
 BYTE   Ds3
 BYTE   W08
 BYTE   As2
 BYTE   W08
 BYTE   Fs2
 BYTE   W08
 BYTE   Ds2
 BYTE   W08
 BYTE   PEND 
//  #04 //008   ----------------------------------------
Label_015F6943:
 BYTE   N92  En1  v080
 BYTE   W08
 BYTE   N07  Bn1  v076
 BYTE   W08
 BYTE   En2
 BYTE   W08
 BYTE   Gs2
 BYTE   W08
 BYTE   Bn2
 BYTE   W08
 BYTE   En3
 BYTE   W08
 BYTE   Gs3
 BYTE   W08
 BYTE   En3
 BYTE   W08
 BYTE   Bn2
 BYTE   W08
 BYTE   Gs2
 BYTE   W08
 BYTE   En2
 BYTE   W08
 BYTE   Bn1
 BYTE   W08
 BYTE   PEND 
//  #04 //009   ----------------------------------------
Label_015F6960:
 BYTE   N92  Ds2  v080
 BYTE   W08
 BYTE   N07  As2  v076
 BYTE   W08
 BYTE   Ds3
 BYTE   W08
 BYTE   Gn3
 BYTE   W08
 BYTE   As3
 BYTE   W08
 BYTE   Ds4
 BYTE   W08
 BYTE   N05  Gn4
 BYTE   W06
 BYTE   Ds4
 BYTE   W06
 BYTE   As3
 BYTE   W06
 BYTE   Gn3
 BYTE   W06
 BYTE   Ds4
 BYTE   W06
 BYTE   As3
 BYTE   W06
 BYTE   Gn3
 BYTE   W06
 BYTE   Ds3
 BYTE   W06
 BYTE   PEND 
//  #04 //010   ----------------------------------------
Label_015F6982:
 BYTE   N92  En1  v080
 BYTE   W06
 BYTE   N05  Bn1  v076
 BYTE   W06
 BYTE   En2
 BYTE   W06
 BYTE   Gs2
 BYTE   W06
 BYTE   Bn2
 BYTE   W06
 BYTE   En3
 BYTE   W06
 BYTE   Gs3
 BYTE   W06
 BYTE   Bn3
 BYTE   W06
 BYTE   En4
 BYTE   W06
 BYTE   Bn3
 BYTE   W06
 BYTE   Gs3
 BYTE   W06
 BYTE   En3
 BYTE   W06
 BYTE   Bn2
 BYTE   W06
 BYTE   Gs2
 BYTE   W06
 BYTE   En2
 BYTE   W06
 BYTE   Bn1
 BYTE   W06
 BYTE   PEND 
//  #04 //011   ----------------------------------------
Label_015F69A7:
 BYTE   N92  En1  v080
 BYTE   W06
 BYTE   N05  Bn1  v076
 BYTE   W06
 BYTE   Gs2
 BYTE   W06
 BYTE   Bn2
 BYTE   W06
 BYTE   En3
 BYTE   W06
 BYTE   Gs3
 BYTE   W06
 BYTE   Bn3
 BYTE   W06
 BYTE   En4
 BYTE   W06
 BYTE   Gs4
 BYTE   W06
 BYTE   En4
 BYTE   W06
 BYTE   Bn3
 BYTE   W06
 BYTE   Gs3
 BYTE   W06
 BYTE   En3
 BYTE   W06
 BYTE   Bn2
 BYTE   W06
 BYTE   Gs2
 BYTE   W06
 BYTE   En2
 BYTE   W06
 BYTE   PEND 
//  #04 //012   ----------------------------------------
Label_015F69CC:
 BYTE   N92  Fs1  v080
 BYTE   W06
 BYTE   N05  Cs2  v076
 BYTE   W06
 BYTE   Fs2
 BYTE   W06
 BYTE   As2
 BYTE   W06
 BYTE   Cs3
 BYTE   W06
 BYTE   Fs3
 BYTE   W06
 BYTE   As3
 BYTE   W06
 BYTE   Cs4
 BYTE   W06
 BYTE   Fs4
 BYTE   W06
 BYTE   Cs4
 BYTE   W06
 BYTE   As3
 BYTE   W06
 BYTE   Fs3
 BYTE   W06
 BYTE   Cs3
 BYTE   W06
 BYTE   As2
 BYTE   W06
 BYTE   Fs2
 BYTE   W06
 BYTE   Cs2
 BYTE   W06
 BYTE   PEND 
//  #04 //013   ----------------------------------------
 BYTE   N92  Gn1  v080
 BYTE   W06
 BYTE   N05  As1  v076
 BYTE   W06
 BYTE   Ds2
 BYTE   W06
 BYTE   Gn2
 BYTE   W06
 BYTE   As2
 BYTE   W06
 BYTE   Ds3
 BYTE   W06
 BYTE   Gn3
 BYTE   W06
 BYTE   As3
 BYTE   W06
 BYTE   N03  Ds4  v080
 BYTE   W04
 BYTE   As3  v076
 BYTE   W04
 BYTE   Gn3
 BYTE   W04
 BYTE   Ds3
 BYTE   W04
 BYTE   As2
 BYTE   W04
 BYTE   Gn2
 BYTE   W04
 BYTE   As3
 BYTE   W04
 BYTE   Gn3
 BYTE   W04
 BYTE   Ds3
 BYTE   W04
 BYTE   As2
 BYTE   W04
 BYTE   Gn2
 BYTE   W04
 BYTE   N02  Ds2
 BYTE   W04
//  #04 //014   ----------------------------------------
 BYTE   N17  Gs1  v084
 BYTE   N17  Gs2
 BYTE   W96
//  #04 //015   ----------------------------------------
 BYTE   W96
//  #04 //016   ----------------------------------------
 BYTE   Gs1
 BYTE   N17  Gs2
 BYTE   W96
//  #04 //017   ----------------------------------------
 BYTE   W96
//  #04 //018   ----------------------------------------
 BYTE   PATT
  POIN2 Label_015F68E7
//  #04 //019   ----------------------------------------
 BYTE   PATT
  POIN2 Label_015F6926
//  #04 //020   ----------------------------------------
 BYTE   PATT
  POIN2 Label_015F6943
//  #04 //021   ----------------------------------------
 BYTE   PATT
  POIN2 Label_015F6960
//  #04 //022   ----------------------------------------
 BYTE   PATT
  POIN2 Label_015F6982
//  #04 //023   ----------------------------------------
 BYTE   PATT
  POIN2 Label_015F69A7
//  #04 //024   ----------------------------------------
 BYTE   PATT
  POIN2 Label_015F69CC
//  #04 //025   ----------------------------------------
 BYTE   N44  Gn1  v080
 BYTE   W06
 BYTE   N05  As1  v076
 BYTE   W06
 BYTE   Ds2
 BYTE   W06
 BYTE   Gn2
 BYTE   W06
 BYTE   As2
 BYTE   W06
 BYTE   Ds3
 BYTE   W06
 BYTE   Gn3
 BYTE   W06
 BYTE   As3
 BYTE   W06
 BYTE   N03  Ds4  v072
 BYTE   W04
 BYTE   As3  v068
 BYTE   W04
 BYTE   Gn3
 BYTE   W04
 BYTE   Ds3
 BYTE   W04
 BYTE   As2
 BYTE   W04
 BYTE   Gn2
 BYTE   W04
 BYTE   As3
 BYTE   W04
 BYTE   Gn3
 BYTE   W04
 BYTE   Ds3
 BYTE   W04
 BYTE   As2
 BYTE   W04
 BYTE   Gn2
 BYTE   W04
 BYTE   N02  Ds2
 BYTE   W04
//  #04 //026   ----------------------------------------
 BYTE   N07  Ds3  v072
 BYTE   N07  Gs3
 BYTE   N07  Ds4
 BYTE   W24
 BYTE   Gs3
 BYTE   N07  Ds4
 BYTE   W24
 BYTE   Gs3
 BYTE   N07  Ds4
 BYTE   W24
 BYTE   Gs3
 BYTE   N07  Ds4
 BYTE   W24
//  #04 //027   ----------------------------------------
Label_015F6A94:
 BYTE   N07  Gs3  v072
 BYTE   N07  Ds4
 BYTE   W24
 BYTE   Gs3
 BYTE   N07  Ds4
 BYTE   W24
 BYTE   Gs3
 BYTE   N07  Ds4
 BYTE   W24
 BYTE   Gs3
 BYTE   N07  Ds4
 BYTE   W24
 BYTE   PEND 
//  #04 //028   ----------------------------------------
 BYTE   PATT
  POIN2 Label_015F6A94
//  #04 //029   ----------------------------------------
 BYTE   PATT
  POIN2 Label_015F6A94
//  #04 //030   ----------------------------------------
 BYTE   N07  Fs3  v072
 BYTE   N07  Cs4
 BYTE   W24
 BYTE   Fs3
 BYTE   N07  Cs4
 BYTE   W24
 BYTE   Fs3
 BYTE   N07  Cs4
 BYTE   W24
 BYTE   Fs3
 BYTE   N07  Cs4
 BYTE   W24
//  #04 //031   ----------------------------------------
 BYTE   Gn3
 BYTE   N07  Cs4
 BYTE   W24
 BYTE   Gn3
 BYTE   N07  Cs4
 BYTE   W24
 BYTE   Gn3
 BYTE   N07  Cs4
 BYTE   W24
 BYTE   Gn3
 BYTE   N07  Cs4
 BYTE   W24
//  #04 //032   ----------------------------------------
 BYTE   As3
 BYTE   N07  Ds4
 BYTE   W24
 BYTE   As3
 BYTE   N07  Ds4
 BYTE   W24
 BYTE   As3
 BYTE   N07  Ds4
 BYTE   W24
 BYTE   As3
 BYTE   N07  Ds4
 BYTE   W24
//  #04 //033   ----------------------------------------
 BYTE   As3
 BYTE   N07  Ds4
 BYTE   W24
 BYTE   As3
 BYTE   N07  Ds4
 BYTE   W24
 BYTE   N44  Ds1  v084
 BYTE   W06
 BYTE   N05  As1  v080
 BYTE   W06
 BYTE   Ds2
 BYTE   W06
 BYTE   Gn2
 BYTE   W06
 BYTE   As2
 BYTE   N17  As3  v072
 BYTE   N17  Ds4
 BYTE   W06
 BYTE   N05  Ds3  v084
 BYTE   W06
 BYTE   Gn3  v088
 BYTE   W06
 BYTE   As3  v096
 BYTE   W06
//  #04 //034   ----------------------------------------
 BYTE   N92  Gs1
 BYTE   W06
 BYTE   N05  Ds2  v076
 BYTE   W06
 BYTE   Gs2
 BYTE   W06
 BYTE   Bn2
 BYTE   W06
 BYTE   Ds3
 BYTE   W06
 BYTE   Gs3
 BYTE   W06
 BYTE   Bn3
 BYTE   W06
 BYTE   Ds4
 BYTE   W06
 BYTE   Gs4
 BYTE   W06
 BYTE   Ds4
 BYTE   W06
 BYTE   Bn3
 BYTE   W06
 BYTE   Gs3
 BYTE   W06
 BYTE   Ds3
 BYTE   W06
 BYTE   Bn2
 BYTE   W06
 BYTE   Gs2
 BYTE   W06
 BYTE   Ds2
 BYTE   W06
//  #04 //035   ----------------------------------------
Label_015F6B2B:
 BYTE   N92  Fs1  v080
 BYTE   W06
 BYTE   N05  Ds2  v076
 BYTE   W06
 BYTE   Fs2
 BYTE   W06
 BYTE   As2
 BYTE   W06
 BYTE   Ds3
 BYTE   W06
 BYTE   Fs3
 BYTE   W06
 BYTE   As3
 BYTE   W06
 BYTE   Ds4
 BYTE   W06
 BYTE   Fs4
 BYTE   W06
 BYTE   Ds4
 BYTE   W06
 BYTE   As3
 BYTE   W06
 BYTE   Fs3
 BYTE   W06
 BYTE   Ds3
 BYTE   W06
 BYTE   As2
 BYTE   W06
 BYTE   Fs2
 BYTE   W06
 BYTE   Ds2
 BYTE   W06
 BYTE   PEND 
//  #04 //036   ----------------------------------------
Label_015F6B50:
 BYTE   N92  Fn1  v080
 BYTE   W06
 BYTE   N05  Bn1  v076
 BYTE   W06
 BYTE   Fn2
 BYTE   W06
 BYTE   Gs2
 BYTE   W06
 BYTE   Bn2
 BYTE   W06
 BYTE   Fn3
 BYTE   W06
 BYTE   Gs3
 BYTE   W06
 BYTE   Bn3
 BYTE   W06
 BYTE   Fn4
 BYTE   W06
 BYTE   Bn3
 BYTE   W06
 BYTE   Gs3
 BYTE   W06
 BYTE   N05
 BYTE   W06
 BYTE   Bn2
 BYTE   W06
 BYTE   Gs2
 BYTE   W06
 BYTE   Fn2
 BYTE   W06
 BYTE   Bn1
 BYTE   W06
 BYTE   PEND 
//  #04 //037   ----------------------------------------
 BYTE   N44  En1  v080
 BYTE   W06
 BYTE   N05  Bn1  v076
 BYTE   W06
 BYTE   En2
 BYTE   W06
 BYTE   Gs2
 BYTE   W06
 BYTE   Bn2
 BYTE   W06
 BYTE   En3
 BYTE   W06
 BYTE   Gs3
 BYTE   W06
 BYTE   En3
 BYTE   W06
 BYTE   N44  Fs1  v080
 BYTE   W06
 BYTE   N05  Cs2  v076
 BYTE   W06
 BYTE   Fs2
 BYTE   W06
 BYTE   As2
 BYTE   W06
 BYTE   Cs3
 BYTE   W06
 BYTE   Fs3
 BYTE   W06
 BYTE   As3
 BYTE   W06
 BYTE   Fs3
 BYTE   W06
//  #04 //038   ----------------------------------------
Label_015F6B9D:
 BYTE   N92  Fn1  v080
 BYTE   W06
 BYTE   N05  Cs2  v076
 BYTE   W06
 BYTE   Fn2
 BYTE   W06
 BYTE   Gs2
 BYTE   W06
 BYTE   Cs3
 BYTE   W06
 BYTE   Fn3
 BYTE   W06
 BYTE   Gs3
 BYTE   W06
 BYTE   Cs4
 BYTE   W06
 BYTE   Fn4
 BYTE   W06
 BYTE   Cs4
 BYTE   W06
 BYTE   Gs3
 BYTE   W06
 BYTE   Fn3
 BYTE   W06
 BYTE   Cs3
 BYTE   W06
 BYTE   Gs2
 BYTE   W06
 BYTE   Fn2
 BYTE   W06
 BYTE   Cs2
 BYTE   W06
 BYTE   PEND 
//  #04 //039   ----------------------------------------
 BYTE   PATT
  POIN2 Label_015F6B9D
//  #04 //040   ----------------------------------------
 BYTE   PATT
  POIN2 Label_015F69CC
//  #04 //041   ----------------------------------------
 BYTE   N44  Gn1  v080
 BYTE   W06
 BYTE   N05  Ds2  v076
 BYTE   W06
 BYTE   Gn2
 BYTE   W06
 BYTE   As2
 BYTE   W06
 BYTE   Ds3
 BYTE   W06
 BYTE   Gn3
 BYTE   W06
 BYTE   As3
 BYTE   W06
 BYTE   Gn3
 BYTE   W06
 BYTE   N44  Ds2  v080
 BYTE   W06
 BYTE   N05  As2  v076
 BYTE   W06
 BYTE   Ds3
 BYTE   W06
 BYTE   Gn3
 BYTE   W06
 BYTE   As3
 BYTE   W06
 BYTE   Ds4
 BYTE   W06
 BYTE   Gn4
 BYTE   W06
 BYTE   Ds4
 BYTE   W06
//  #04 //042   ----------------------------------------
 BYTE   N92  Gs1  v080
 BYTE   W06
 BYTE   N05  Ds2  v076
 BYTE   W06
 BYTE   Gs2
 BYTE   W06
 BYTE   Bn2
 BYTE   W06
 BYTE   Ds3
 BYTE   W06
 BYTE   Gs3
 BYTE   W06
 BYTE   Bn3
 BYTE   W06
 BYTE   Ds4
 BYTE   W06
 BYTE   Gs4
 BYTE   W06
 BYTE   Ds4
 BYTE   W06
 BYTE   Bn3
 BYTE   W06
 BYTE   Gs3
 BYTE   W06
 BYTE   Ds3
 BYTE   W06
 BYTE   Bn2
 BYTE   W06
 BYTE   Gs2
 BYTE   W06
 BYTE   Ds2
 BYTE   W06
//  #04 //043   ----------------------------------------
 BYTE   PATT
  POIN2 Label_015F6B2B
//  #04 //044   ----------------------------------------
 BYTE   PATT
  POIN2 Label_015F6B50
//  #04 //045   ----------------------------------------
 BYTE   N44  En1  v080
 BYTE   W06
 BYTE   N05  Bn1  v076
 BYTE   W06
 BYTE   En2
 BYTE   W06
 BYTE   Gs2
 BYTE   W06
 BYTE   Bn2
 BYTE   W06
 BYTE   En3
 BYTE   W06
 BYTE   Gs3
 BYTE   W06
 BYTE   En3
 BYTE   W06
 BYTE   N23  Fs1  v080
 BYTE   W06
 BYTE   N05  Cs2  v076
 BYTE   W06
 BYTE   Fs2
 BYTE   W06
 BYTE   As2
 BYTE   W06
 BYTE   N23  Cs3  v080
 BYTE   W06
 BYTE   N05  Fs3  v076
 BYTE   W06
 BYTE   As3
 BYTE   W06
 BYTE   Cs4  v080
 BYTE   W06
//  #04 //046   ----------------------------------------
 BYTE   PATT
  POIN2 Label_015F6B9D
//  #04 //047   ----------------------------------------
 BYTE   PATT
  POIN2 Label_015F6B9D
//  #04 //048   ----------------------------------------
 BYTE   PATT
  POIN2 Label_015F69CC
//  #04 //049   ----------------------------------------
 BYTE   N44  Gn1  v080
 BYTE   W06
 BYTE   N05  Ds2  v076
 BYTE   W06
 BYTE   Gn2
 BYTE   W06
 BYTE   As2
 BYTE   W06
 BYTE   Ds3
 BYTE   W06
 BYTE   Gn3
 BYTE   W06
 BYTE   As3
 BYTE   W06
 BYTE   Gn3
 BYTE   W06
 BYTE   N28  Ds2  v080
 BYTE   W06
 BYTE   N05  As2  v076
 BYTE   W06
 BYTE   Ds3
 BYTE   W06
 BYTE   Gn3
 BYTE   W06
 BYTE   As3  v080
 BYTE   W06
 BYTE   Ds4
 BYTE   W06
 BYTE   Gn4  v084
 BYTE   W06
 BYTE   Ds4  v080
 BYTE   W06
//  #04 //050   ----------------------------------------
 BYTE   N44  Gs2  v084
 BYTE   N44  Gs3  v080
 BYTE   W48
 BYTE   Gs1  v076
 BYTE   N44  Gs2
 BYTE   W48
//  #04 //051   ----------------------------------------
 BYTE   PATT
  POIN2 Label_015F68B4
//  #04 //052   ----------------------------------------
Label_015F6C9A:
 BYTE   N48  En2  v076
 BYTE   N23  En3
 BYTE   W24
 BYTE   N11  Gs1
 BYTE   W12
 BYTE   Bn1
 BYTE   W12
 BYTE   En2
 BYTE   W12
 BYTE   Gs2
 BYTE   W12
 BYTE   Bn2
 BYTE   W12
 BYTE   Gs2
 BYTE   W12
 BYTE   PEND 
//  #04 //053   ----------------------------------------
 BYTE   N44  En2
 BYTE   N11  Gs3
 BYTE   W12
 BYTE   N23  En3
 BYTE   W24
 BYTE   N11  Gs3
 BYTE   W12
 BYTE   N44  Ds2
 BYTE   N44  Ds3
 BYTE   W48
//  #04 //054   ----------------------------------------
 BYTE   Gs2
 BYTE   N44  Gs3
 BYTE   W48
 BYTE   Gs1
 BYTE   N44  Gs2
 BYTE   W48
//  #04 //055   ----------------------------------------
 BYTE   PATT
  POIN2 Label_015F68B4
//  #04 //056   ----------------------------------------
 BYTE   PATT
  POIN2 Label_015F6C9A
//  #04 //057   ----------------------------------------
 BYTE   N44  En2  v076
 BYTE   N11  Gs3
 BYTE   W12
 BYTE   N23  En3
 BYTE   W24
 BYTE   N11  Gs3
 BYTE   W12
 BYTE   N44  Ds1  v084
 BYTE   W06
 BYTE   N05  As1  v080
 BYTE   W06
 BYTE   Ds2
 BYTE   W06
 BYTE   Gn2
 BYTE   W06
 BYTE   As2
 BYTE   W06
 BYTE   Ds3  v084
 BYTE   W06
 BYTE   Gn3  v088
 BYTE   W06
 BYTE   As3  v084
 BYTE   W06
//  #04 //058   ----------------------------------------
 BYTE   N92  Gs1
 BYTE   W08
 BYTE   N07  Ds2  v076
 BYTE   W08
 BYTE   Gs2
 BYTE   W08
 BYTE   Bn2
 BYTE   W08
 BYTE   Ds3
 BYTE   W08
 BYTE   Gs3
 BYTE   W08
 BYTE   Bn3
 BYTE   W08
 BYTE   Gs3
 BYTE   W08
 BYTE   Ds3
 BYTE   W08
 BYTE   Bn2
 BYTE   W08
 BYTE   Gs2
 BYTE   W08
 BYTE   Ds2
 BYTE   W08
//  #04 //059   ----------------------------------------
 BYTE   N68  Gs1  v080
 BYTE   W08
 BYTE   N07  Ds2  v076
 BYTE   W08
 BYTE   Gs2
 BYTE   W08
 BYTE   Bn2
 BYTE   W08
 BYTE   Ds3
 BYTE   W08
 BYTE   Gs3
 BYTE   W08
 BYTE   Bn3
 BYTE   W08
 BYTE   Gs3
 BYTE   W08
 BYTE   Ds3
 BYTE   W08
 BYTE   Bn2
 BYTE   W08
 BYTE   Gs2
 BYTE   W08
 BYTE   Ds2
 BYTE   W07
 BYTE   GoTo
  POIN2 Label_015F6920
 BYTE   FINE

//**************** Track 5 (Midi-Chn.4) ****************//

song45_005:
//  #05 //000   ----------------------------------------
 BYTE   KEYSH   song45_key+0
 BYTE   VOICE   45
 BYTE   VOL   29*song45_mvl/mxv
 BYTE   PAN   c_v-8
 BYTE   W96
//  #05 //001   ----------------------------------------
 BYTE   W96
//  #05 //002   ----------------------------------------
 BYTE   W96
//  #05 //003   ----------------------------------------
 BYTE   W96
//  #05 //004   ----------------------------------------
 BYTE   W96
//  #05 //005   ----------------------------------------
 BYTE   W92
 BYTE   W02
Label_015F6317:
 BYTE   W02
//  #05 //006   ----------------------------------------
 BYTE   W96
//  #05 //007   ----------------------------------------
 BYTE   W96
//  #05 //008   ----------------------------------------
 BYTE   W96
//  #05 //009   ----------------------------------------
 BYTE   W96
//  #05 //010   ----------------------------------------
 BYTE   W96
//  #05 //011   ----------------------------------------
 BYTE   W96
//  #05 //012   ----------------------------------------
 BYTE   W96
//  #05 //013   ----------------------------------------
 BYTE   W96
//  #05 //014   ----------------------------------------
 BYTE   W12
 BYTE   N11  Gs2  v064
 BYTE   W12
 BYTE   N11
 BYTE   W12
 BYTE   Gn2
 BYTE   N11  Gs2
 BYTE   W12
 BYTE   Gn2
 BYTE   N11  Gs2
 BYTE   W12
 BYTE   Fs2
 BYTE   N11  Gs2
 BYTE   W12
 BYTE   Fs2
 BYTE   N11  Gs2
 BYTE   W12
 BYTE   Fn2
 BYTE   N11  Gs2
 BYTE   W12
//  #05 //015   ----------------------------------------
 BYTE   En2
 BYTE   N11  Gs2
 BYTE   W12
 BYTE   Ds2
 BYTE   N11  Gs2
 BYTE   W12
 BYTE   Ds2
 BYTE   N11  Gs2
 BYTE   W12
 BYTE   Dn2
 BYTE   N11  Gs2
 BYTE   W12
 BYTE   Dn2
 BYTE   N11  Gs2
 BYTE   W12
 BYTE   Cs2
 BYTE   N11  Gs2
 BYTE   W12
 BYTE   Cs2
 BYTE   N11  Gs2
 BYTE   W12
 BYTE   Bn1
 BYTE   N11  Gs2
 BYTE   W12
//  #05 //016   ----------------------------------------
 BYTE   W12
 BYTE   Gs2  v060
 BYTE   W12
 BYTE   N11
 BYTE   W12
 BYTE   Gn2
 BYTE   N11  Gs2
 BYTE   W12
 BYTE   Gn2
 BYTE   N11  Gs2
 BYTE   W12
 BYTE   Fs2
 BYTE   N11  Gs2
 BYTE   W12
 BYTE   Fs2
 BYTE   N11  Gs2
 BYTE   W12
 BYTE   Fn2
 BYTE   N11  Gs2
 BYTE   W12
//  #05 //017   ----------------------------------------
 BYTE   En2
 BYTE   N11  Gs2
 BYTE   W12
 BYTE   Ds2
 BYTE   N11  Gs2
 BYTE   W12
 BYTE   Ds2
 BYTE   N11  Gs2
 BYTE   W12
 BYTE   Dn2
 BYTE   N11  Gs2
 BYTE   W12
 BYTE   Dn2
 BYTE   N11  Gs2
 BYTE   W12
 BYTE   Cs2
 BYTE   N11  Gs2
 BYTE   W12
 BYTE   Cs2
 BYTE   N11  Gs2
 BYTE   W12
 BYTE   Bn1
 BYTE   N11  Gs2
 BYTE   W12
//  #05 //018   ----------------------------------------
 BYTE   W96
//  #05 //019   ----------------------------------------
 BYTE   W96
//  #05 //020   ----------------------------------------
 BYTE   W96
//  #05 //021   ----------------------------------------
 BYTE   W96
//  #05 //022   ----------------------------------------
 BYTE   W96
//  #05 //023   ----------------------------------------
 BYTE   W96
//  #05 //024   ----------------------------------------
 BYTE   W96
//  #05 //025   ----------------------------------------
 BYTE   W96
//  #05 //026   ----------------------------------------
 BYTE   W96
//  #05 //027   ----------------------------------------
 BYTE   W96
//  #05 //028   ----------------------------------------
 BYTE   W96
//  #05 //029   ----------------------------------------
 BYTE   W96
//  #05 //030   ----------------------------------------
 BYTE   W96
//  #05 //031   ----------------------------------------
 BYTE   W96
//  #05 //032   ----------------------------------------
 BYTE   W96
//  #05 //033   ----------------------------------------
 BYTE   W96
//  #05 //034   ----------------------------------------
 BYTE   W96
//  #05 //035   ----------------------------------------
 BYTE   W96
//  #05 //036   ----------------------------------------
 BYTE   W96
//  #05 //037   ----------------------------------------
 BYTE   W96
//  #05 //038   ----------------------------------------
 BYTE   W96
//  #05 //039   ----------------------------------------
 BYTE   W96
//  #05 //040   ----------------------------------------
 BYTE   W96
//  #05 //041   ----------------------------------------
 BYTE   W96
//  #05 //042   ----------------------------------------
 BYTE   W96
//  #05 //043   ----------------------------------------
 BYTE   W96
//  #05 //044   ----------------------------------------
 BYTE   W96
//  #05 //045   ----------------------------------------
 BYTE   W96
//  #05 //046   ----------------------------------------
 BYTE   W96
//  #05 //047   ----------------------------------------
 BYTE   W96
//  #05 //048   ----------------------------------------
 BYTE   W96
//  #05 //049   ----------------------------------------
 BYTE   W96
//  #05 //050   ----------------------------------------
Label_015F63B5:
 BYTE   W12
 BYTE   N11  Gs2  v064
 BYTE   W12
 BYTE   Gn2
 BYTE   N11  Gs2
 BYTE   W12
 BYTE   Fs2
 BYTE   N11  Gs2
 BYTE   W12
 BYTE   Fn2
 BYTE   N11  Gs2
 BYTE   W12
 BYTE   En2
 BYTE   N11  Gs2
 BYTE   W12
 BYTE   En2
 BYTE   N11  Gs2
 BYTE   W12
 BYTE   Ds2
 BYTE   N11  Gs2
 BYTE   W12
 BYTE   PEND 
//  #05 //051   ----------------------------------------
Label_015F63D3:
 BYTE   N11  Ds2  v064
 BYTE   N11  Fs2
 BYTE   W12
 BYTE   Gs1
 BYTE   N11  Bn1
 BYTE   W12
 BYTE   As1
 BYTE   N11  Cs2
 BYTE   W12
 BYTE   Bn1
 BYTE   N11  Ds2
 BYTE   W12
 BYTE   Cs2
 BYTE   N11  En2
 BYTE   W12
 BYTE   As1
 BYTE   N11  Cs2
 BYTE   W12
 BYTE   Bn1
 BYTE   N11  Ds2
 BYTE   W12
 BYTE   Cs2
 BYTE   N11  En2
 BYTE   W12
 BYTE   PEND 
//  #05 //052   ----------------------------------------
Label_015F63F6:
 BYTE   W12
 BYTE   N11  Gs2  v064
 BYTE   W12
 BYTE   Gn2
 BYTE   N11  Gs2
 BYTE   W12
 BYTE   Fs2
 BYTE   N11  Gs2
 BYTE   W12
 BYTE   Fn2
 BYTE   N11  Gs2
 BYTE   W12
 BYTE   En2
 BYTE   N11  Gs2
 BYTE   W12
 BYTE   Ds2
 BYTE   N11  Gs2
 BYTE   W12
 BYTE   Cs2
 BYTE   N11  Gs2
 BYTE   W12
 BYTE   PEND 
//  #05 //053   ----------------------------------------
Label_015F6414:
 BYTE   N11  Ds2  v064
 BYTE   N11  Gs2
 BYTE   W12
 BYTE   Gs1
 BYTE   N11  Bn1
 BYTE   W12
 BYTE   As1
 BYTE   N11  Cs2
 BYTE   W12
 BYTE   Bn1
 BYTE   N11  Ds2
 BYTE   W12
 BYTE   Cs2
 BYTE   N11  Gn2
 BYTE   W12
 BYTE   Ds2
 BYTE   N11  Gn2
 BYTE   W12
 BYTE   Cs2
 BYTE   N11  Gn2
 BYTE   W12
 BYTE   Bn1
 BYTE   N11  Gn2
 BYTE   W12
 BYTE   PEND 
//  #05 //054   ----------------------------------------
 BYTE   PATT
  POIN2 Label_015F63B5
//  #05 //055   ----------------------------------------
 BYTE   PATT
  POIN2 Label_015F63D3
//  #05 //056   ----------------------------------------
 BYTE   PATT
  POIN2 Label_015F63F6
//  #05 //057   ----------------------------------------
 BYTE   PATT
  POIN2 Label_015F6414
//  #05 //058   ----------------------------------------
 BYTE   W96
//  #05 //059   ----------------------------------------
 BYTE   W92
 BYTE   W03
 BYTE   GoTo
  POIN2 Label_015F6317
 BYTE   FINE

//**************** Track 6 (Midi-Chn.5) ****************//

song45_006:
//  #06 //000   ----------------------------------------
 BYTE   KEYSH   song45_key+0
 BYTE   VOICE   52
 BYTE   VOL   29*song45_mvl/mxv
 BYTE   N92  Gs0  v052
 BYTE   N92  Gs1
 BYTE   N92  Ds2
 BYTE   N92  Bn2
 BYTE   W96
//  #06 //001   ----------------------------------------
 BYTE   Fs0
 BYTE   N92  Fs1
 BYTE   N92  Ds2
 BYTE   N92  As2
 BYTE   W96
//  #06 //002   ----------------------------------------
 BYTE   TIE  En0
 BYTE   TIE  En1
 BYTE   TIE  Ds2
 BYTE   TIE  Bn2
 BYTE   W96
//  #06 //003   ----------------------------------------
 BYTE   W44
 BYTE   W03
 BYTE   EOT
 BYTE   En0  v040
 BYTE   Ds2  v059
 BYTE   W01
 BYTE   N44  Fs0
 BYTE   N44  Fs1
 BYTE   N44  Ds2
 BYTE   N44  Bn2
 BYTE   W48
//  #06 //004   ----------------------------------------
Label_015F6D62:
 BYTE   TIE  Ds2  v052
 BYTE   TIE  Bn2
 BYTE   W96
 BYTE   PEND 
//  #06 //005   ----------------------------------------
 BYTE   W92
 BYTE   W02
Label_015F6D6B:
 BYTE   W01
 BYTE   EOT
 BYTE   Ds2  v059
 BYTE   W01
//  #06 //006   ----------------------------------------
 BYTE   N92  Ds2  v052
 BYTE   N92  Bn2
 BYTE   W96
//  #06 //007   ----------------------------------------
 BYTE   Ds2
 BYTE   N92  As2
 BYTE   W96
//  #06 //008   ----------------------------------------
 BYTE   En2
 BYTE   N92  Bn2
 BYTE   W96
//  #06 //009   ----------------------------------------
 BYTE   Ds2
 BYTE   N92  As2
 BYTE   W96
//  #06 //010   ----------------------------------------
Label_015F6D82:
 BYTE   N92  Ds2  v052
 BYTE   TIE  Bn2
 BYTE   W96
 BYTE   PEND 
//  #06 //011   ----------------------------------------
Label_015F6D89:
 BYTE   N92  En2  v052
 BYTE   W92
 BYTE   W03
 BYTE   PEND 
 BYTE   EOT
 BYTE   Bn2
 BYTE   W01
//  #06 //012   ----------------------------------------
 BYTE   N92  Fs2
 BYTE   N92  Cs3
 BYTE   W96
//  #06 //013   ----------------------------------------
 BYTE   Gn2
 BYTE   N92  Cs3
 BYTE   W96
//  #06 //014   ----------------------------------------
 BYTE   W96
//  #06 //015   ----------------------------------------
 BYTE   W96
//  #06 //016   ----------------------------------------
 BYTE   W96
//  #06 //017   ----------------------------------------
 BYTE   W96
//  #06 //018   ----------------------------------------
 BYTE   Ds2
 BYTE   N92  Bn2
 BYTE   W96
//  #06 //019   ----------------------------------------
 BYTE   Ds2
 BYTE   N92  As2
 BYTE   W96
//  #06 //020   ----------------------------------------
 BYTE   En2
 BYTE   N92  Bn2
 BYTE   W96
//  #06 //021   ----------------------------------------
 BYTE   Ds2
 BYTE   N92  As2
 BYTE   W96
//  #06 //022   ----------------------------------------
 BYTE   PATT
  POIN2 Label_015F6D82
//  #06 //023   ----------------------------------------
 BYTE   PATT
  POIN2 Label_015F6D89
//  #06 //024   ----------------------------------------
 BYTE   EOT
 BYTE   Bn2
 BYTE   W01
 BYTE   N92  Fs2  v052
 BYTE   N92  Cs3
 BYTE   W96
//  #06 //025   ----------------------------------------
 BYTE   Gn2
 BYTE   N92  Cs3
 BYTE   W96
//  #06 //026   ----------------------------------------
Label_015F6DC6:
 BYTE   TIE  Gs1  v064
 BYTE   TIE  Bn2
 BYTE   W96
 BYTE   PEND 
//  #06 //027   ----------------------------------------
 BYTE   W92
 BYTE   W03
 BYTE   EOT
 BYTE   Gs1  v059
 BYTE   W01
//  #06 //028   ----------------------------------------
 BYTE   PATT
  POIN2 Label_015F6DC6
//  #06 //029   ----------------------------------------
 BYTE   W92
 BYTE   W03
 BYTE   EOT
 BYTE   Gs1  v059
 BYTE   W01
//  #06 //030   ----------------------------------------
 BYTE   N96  As1  v064
 BYTE   TIE  Cs3
 BYTE   W96
//  #06 //031   ----------------------------------------
 BYTE   N92  Bn1
 BYTE   W92
 BYTE   W03
 BYTE   EOT
 BYTE   Cs3
 BYTE   W01
//  #06 //032   ----------------------------------------
 BYTE   TIE  As1
 BYTE   TIE  Gn2
 BYTE   TIE  Ds3
 BYTE   W96
//  #06 //033   ----------------------------------------
 BYTE   W68
 BYTE   W03
 BYTE   EOT
 BYTE   As1  v055
 BYTE   Ds3
 BYTE   W24
 BYTE   W01
//  #06 //034   ----------------------------------------
 BYTE   N92  Gs1
 BYTE   N92  Ds2
 BYTE   W96
//  #06 //035   ----------------------------------------
 BYTE   Fs1
 BYTE   N92  Ds2
 BYTE   W96
//  #06 //036   ----------------------------------------
 BYTE   Fn1
 BYTE   N92  Ds2
 BYTE   W96
//  #06 //037   ----------------------------------------
Label_015F6E07:
 BYTE   N44  En1  v064
 BYTE   N44  Ds2
 BYTE   W48
 BYTE   Fs1
 BYTE   N44  Cs2
 BYTE   W48
 BYTE   PEND 
//  #06 //038   ----------------------------------------
Label_015F6E12:
 BYTE   TIE  Fn1  v064
 BYTE   TIE  Cs2
 BYTE   W96
 BYTE   PEND 
//  #06 //039   ----------------------------------------
 BYTE   W92
 BYTE   W03
 BYTE   EOT
 BYTE   Fn1  v049
 BYTE   W01
//  #06 //040   ----------------------------------------
 BYTE   N92  Fs1
 BYTE   N92  Cs2
 BYTE   W96
//  #06 //041   ----------------------------------------
 BYTE   Gn1
 BYTE   N92  Ds2
 BYTE   W96
//  #06 //042   ----------------------------------------
 BYTE   Gs1
 BYTE   N92  Ds2
 BYTE   W96
//  #06 //043   ----------------------------------------
 BYTE   Fs1
 BYTE   N92  Ds2
 BYTE   W96
//  #06 //044   ----------------------------------------
 BYTE   Fn1
 BYTE   N92  Ds2
 BYTE   W96
//  #06 //045   ----------------------------------------
 BYTE   PATT
  POIN2 Label_015F6E07
//  #06 //046   ----------------------------------------
 BYTE   PATT
  POIN2 Label_015F6E12
//  #06 //047   ----------------------------------------
 BYTE   W92
 BYTE   W03
 BYTE   EOT
 BYTE   Fn1  v049
 BYTE   W01
//  #06 //048   ----------------------------------------
 BYTE   N92  Fs1  v064
 BYTE   N92  Cs2
 BYTE   W96
//  #06 //049   ----------------------------------------
 BYTE   Gn1
 BYTE   N92  Ds2
 BYTE   W96
//  #06 //050   ----------------------------------------
 BYTE   W96
//  #06 //051   ----------------------------------------
 BYTE   W96
//  #06 //052   ----------------------------------------
 BYTE   W96
//  #06 //053   ----------------------------------------
 BYTE   W96
//  #06 //054   ----------------------------------------
 BYTE   W96
//  #06 //055   ----------------------------------------
 BYTE   W96
//  #06 //056   ----------------------------------------
 BYTE   W96
//  #06 //057   ----------------------------------------
 BYTE   W96
//  #06 //058   ----------------------------------------
 BYTE   PATT
  POIN2 Label_015F6D62
//  #06 //059   ----------------------------------------
 BYTE   W92
 BYTE   W03
 BYTE   EOT
 BYTE   Ds2  v059
 BYTE   GoTo
  POIN2 Label_015F6D6B
 BYTE   FINE

//**************** Track 7 (Midi-Chn.6) ****************//

song45_007:
//  #07 //000   ----------------------------------------
 BYTE   KEYSH   song45_key+0
 BYTE   VOICE   38
 BYTE   VOL   29*song45_mvl/mxv
 BYTE   W96
//  #07 //001   ----------------------------------------
 BYTE   W96
//  #07 //002   ----------------------------------------
 BYTE   W96
//  #07 //003   ----------------------------------------
 BYTE   W96
//  #07 //004   ----------------------------------------
Label_015F6E72:
 BYTE   N02  Gs1  v104
 BYTE   W12
 BYTE   N02
 BYTE   W12
 BYTE   Gs2
 BYTE   W12
 BYTE   Gs1
 BYTE   W06
 BYTE   N02
 BYTE   W06
 BYTE   N01  Gs2
 BYTE   W06
 BYTE   Gs1
 BYTE   W12
 BYTE   N01
 BYTE   W06
 BYTE   N02  Gs2
 BYTE   W12
 BYTE   Gs1
 BYTE   W06
 BYTE   N01  Gs2
 BYTE   W06
 BYTE   PEND 
//  #07 //005   ----------------------------------------
 BYTE   N02  Gs1
 BYTE   W12
 BYTE   N02
 BYTE   W12
 BYTE   Gs2
 BYTE   W12
 BYTE   Gs1
 BYTE   W06
 BYTE   N08  Gs1  v112
 BYTE   W12
 BYTE   N01  Gs1  v104
 BYTE   W12
 BYTE   N01
 BYTE   W06
 BYTE   N02  Gs2
 BYTE   W12
 BYTE   Gs1
 BYTE   W06
 BYTE   N01  Gs2
 BYTE   W04
Label_015F6EA9:
 BYTE   W02
//  #07 //006   ----------------------------------------
 BYTE   PATT
  POIN2 Label_015F6E72
//  #07 //007   ----------------------------------------
Label_015F6EAF:
 BYTE   N02  Fs1  v104
 BYTE   W12
 BYTE   N02
 BYTE   W12
 BYTE   Fs2
 BYTE   W12
 BYTE   Fs1
 BYTE   W06
 BYTE   N08  Fs1  v112
 BYTE   W12
 BYTE   N01  Fs1  v104
 BYTE   W12
 BYTE   N01
 BYTE   W06
 BYTE   N02  Fs2
 BYTE   W12
 BYTE   Fs1
 BYTE   W06
 BYTE   N01  Fs2
 BYTE   W06
 BYTE   PEND 
//  #07 //008   ----------------------------------------
Label_015F6ECC:
 BYTE   N02  En1  v104
 BYTE   W12
 BYTE   N02
 BYTE   W12
 BYTE   En2
 BYTE   W12
 BYTE   En1
 BYTE   W06
 BYTE   N02
 BYTE   W06
 BYTE   N01  En2
 BYTE   W06
 BYTE   En1
 BYTE   W12
 BYTE   N01
 BYTE   W06
 BYTE   N02  En2
 BYTE   W12
 BYTE   En1
 BYTE   W06
 BYTE   N01  En2
 BYTE   W06
 BYTE   PEND 
//  #07 //009   ----------------------------------------
Label_015F6EE8:
 BYTE   N02  Ds1  v104
 BYTE   W12
 BYTE   N02
 BYTE   W12
 BYTE   Ds2
 BYTE   W12
 BYTE   Ds1
 BYTE   W06
 BYTE   N08  Ds1  v112
 BYTE   W12
 BYTE   N01  Ds1  v104
 BYTE   W12
 BYTE   N01
 BYTE   W06
 BYTE   N02  Ds2
 BYTE   W12
 BYTE   Ds1
 BYTE   W06
 BYTE   N01  Ds2
 BYTE   W06
 BYTE   PEND 
//  #07 //010   ----------------------------------------
 BYTE   PATT
  POIN2 Label_015F6ECC
//  #07 //011   ----------------------------------------
Label_015F6F0A:
 BYTE   N02  En1  v104
 BYTE   W12
 BYTE   N02
 BYTE   W12
 BYTE   En2
 BYTE   W12
 BYTE   En1
 BYTE   W06
 BYTE   N08  En1  v112
 BYTE   W12
 BYTE   N01  En1  v104
 BYTE   W12
 BYTE   N01
 BYTE   W06
 BYTE   N02  En2
 BYTE   W12
 BYTE   En1
 BYTE   W06
 BYTE   N01  En2
 BYTE   W06
 BYTE   PEND 
//  #07 //012   ----------------------------------------
Label_015F6F27:
 BYTE   N02  Fs1  v104
 BYTE   W12
 BYTE   N02
 BYTE   W12
 BYTE   Fs2
 BYTE   W12
 BYTE   Fs1
 BYTE   W06
 BYTE   N02
 BYTE   W06
 BYTE   N01  Fs2
 BYTE   W06
 BYTE   Fs1
 BYTE   W12
 BYTE   N01
 BYTE   W06
 BYTE   N02  Fs2
 BYTE   W12
 BYTE   Fs1
 BYTE   W06
 BYTE   N01  Fs2
 BYTE   W06
 BYTE   PEND 
//  #07 //013   ----------------------------------------
 BYTE   PATT
  POIN2 Label_015F6EE8
//  #07 //014   ----------------------------------------
 BYTE   W96
//  #07 //015   ----------------------------------------
 BYTE   W96
//  #07 //016   ----------------------------------------
 BYTE   W96
//  #07 //017   ----------------------------------------
 BYTE   W96
//  #07 //018   ----------------------------------------
 BYTE   PATT
  POIN2 Label_015F6E72
//  #07 //019   ----------------------------------------
 BYTE   PATT
  POIN2 Label_015F6EAF
//  #07 //020   ----------------------------------------
 BYTE   PATT
  POIN2 Label_015F6ECC
//  #07 //021   ----------------------------------------
 BYTE   PATT
  POIN2 Label_015F6EE8
//  #07 //022   ----------------------------------------
 BYTE   PATT
  POIN2 Label_015F6ECC
//  #07 //023   ----------------------------------------
 BYTE   PATT
  POIN2 Label_015F6F0A
//  #07 //024   ----------------------------------------
 BYTE   PATT
  POIN2 Label_015F6F27
//  #07 //025   ----------------------------------------
 BYTE   PATT
  POIN2 Label_015F6EE8
//  #07 //026   ----------------------------------------
 BYTE   PATT
  POIN2 Label_015F6ECC
//  #07 //027   ----------------------------------------
 BYTE   PATT
  POIN2 Label_015F6F0A
//  #07 //028   ----------------------------------------
Label_015F6F7E:
 BYTE   N02  Fn1  v104
 BYTE   W12
 BYTE   N02
 BYTE   W12
 BYTE   Fn2
 BYTE   W12
 BYTE   Fn1
 BYTE   W06
 BYTE   N02
 BYTE   W06
 BYTE   N01  Fn2
 BYTE   W06
 BYTE   Fn1
 BYTE   W12
 BYTE   N01
 BYTE   W06
 BYTE   N02  Fn2
 BYTE   W12
 BYTE   Fn1
 BYTE   W06
 BYTE   N01  Fn2
 BYTE   W06
 BYTE   PEND 
//  #07 //029   ----------------------------------------
Label_015F6F9A:
 BYTE   N02  Fn1  v104
 BYTE   W12
 BYTE   N02
 BYTE   W12
 BYTE   Fn2
 BYTE   W12
 BYTE   Fn1
 BYTE   W06
 BYTE   N08  Fn1  v112
 BYTE   W12
 BYTE   N01  Fn1  v104
 BYTE   W12
 BYTE   N01
 BYTE   W06
 BYTE   N02  Fn2
 BYTE   W12
 BYTE   Fn1
 BYTE   W06
 BYTE   N01  Fn2
 BYTE   W06
 BYTE   PEND 
//  #07 //030   ----------------------------------------
 BYTE   PATT
  POIN2 Label_015F6F27
//  #07 //031   ----------------------------------------
 BYTE   N02  Gn1  v104
 BYTE   W12
 BYTE   N02
 BYTE   W12
 BYTE   Gn2
 BYTE   W12
 BYTE   Gn1
 BYTE   W06
 BYTE   N08  Gn1  v112
 BYTE   W12
 BYTE   N01  Gn1  v104
 BYTE   W12
 BYTE   N01
 BYTE   W06
 BYTE   N02  Gn2
 BYTE   W12
 BYTE   Gn1
 BYTE   W06
 BYTE   N01  Gn2
 BYTE   W06
//  #07 //032   ----------------------------------------
 BYTE   N02  Ds1
 BYTE   W12
 BYTE   N02
 BYTE   W12
 BYTE   Ds2
 BYTE   W12
 BYTE   Ds1
 BYTE   W06
 BYTE   N02
 BYTE   W06
 BYTE   N01  Ds2
 BYTE   W06
 BYTE   Ds1
 BYTE   W12
 BYTE   N01
 BYTE   W06
 BYTE   N02  Ds2
 BYTE   W12
 BYTE   Ds1
 BYTE   W06
 BYTE   N01  Ds2
 BYTE   W06
//  #07 //033   ----------------------------------------
 BYTE   N02  Ds1
 BYTE   W12
 BYTE   N02
 BYTE   W12
 BYTE   Fn1
 BYTE   W12
 BYTE   Fn2
 BYTE   W06
 BYTE   N08  Gn1  v112
 BYTE   W12
 BYTE   N01  Gn1  v104
 BYTE   W12
 BYTE   Gn2
 BYTE   W06
 BYTE   N02  Ds1
 BYTE   W12
 BYTE   Ds2
 BYTE   W06
 BYTE   N01  Ds1
 BYTE   W06
//  #07 //034   ----------------------------------------
 BYTE   PATT
  POIN2 Label_015F6E72
//  #07 //035   ----------------------------------------
 BYTE   PATT
  POIN2 Label_015F6EAF
//  #07 //036   ----------------------------------------
 BYTE   PATT
  POIN2 Label_015F6F7E
//  #07 //037   ----------------------------------------
Label_015F701C:
 BYTE   N02  En1  v104
 BYTE   W12
 BYTE   N02
 BYTE   W12
 BYTE   En2
 BYTE   W12
 BYTE   En1
 BYTE   W06
 BYTE   N08  Fs1  v112
 BYTE   W12
 BYTE   N01  Fs1  v104
 BYTE   W12
 BYTE   N01
 BYTE   W06
 BYTE   N02  Fs2
 BYTE   W12
 BYTE   Fs1
 BYTE   W06
 BYTE   N01  Fs2
 BYTE   W06
 BYTE   PEND 
//  #07 //038   ----------------------------------------
 BYTE   PATT
  POIN2 Label_015F6F7E
//  #07 //039   ----------------------------------------
 BYTE   PATT
  POIN2 Label_015F6F9A
//  #07 //040   ----------------------------------------
 BYTE   PATT
  POIN2 Label_015F6F27
//  #07 //041   ----------------------------------------
Label_015F7048:
 BYTE   N02  Gn1  v104
 BYTE   W12
 BYTE   N02
 BYTE   W12
 BYTE   Gn2
 BYTE   W12
 BYTE   Gn1
 BYTE   W06
 BYTE   N08  Ds1  v112
 BYTE   W12
 BYTE   N01  Ds1  v104
 BYTE   W12
 BYTE   N01
 BYTE   W06
 BYTE   N02  Ds2
 BYTE   W12
 BYTE   Ds1
 BYTE   W06
 BYTE   N01  Ds2
 BYTE   W06
 BYTE   PEND 
//  #07 //042   ----------------------------------------
 BYTE   PATT
  POIN2 Label_015F6E72
//  #07 //043   ----------------------------------------
 BYTE   PATT
  POIN2 Label_015F6EAF
//  #07 //044   ----------------------------------------
 BYTE   PATT
  POIN2 Label_015F6F7E
//  #07 //045   ----------------------------------------
 BYTE   PATT
  POIN2 Label_015F701C
//  #07 //046   ----------------------------------------
 BYTE   PATT
  POIN2 Label_015F6F7E
//  #07 //047   ----------------------------------------
 BYTE   PATT
  POIN2 Label_015F6F9A
//  #07 //048   ----------------------------------------
 BYTE   PATT
  POIN2 Label_015F6F27
//  #07 //049   ----------------------------------------
 BYTE   PATT
  POIN2 Label_015F7048
//  #07 //050   ----------------------------------------
 BYTE   W96
//  #07 //051   ----------------------------------------
 BYTE   W96
//  #07 //052   ----------------------------------------
 BYTE   W96
//  #07 //053   ----------------------------------------
 BYTE   W96
//  #07 //054   ----------------------------------------
 BYTE   W96
//  #07 //055   ----------------------------------------
 BYTE   W96
//  #07 //056   ----------------------------------------
 BYTE   W96
//  #07 //057   ----------------------------------------
 BYTE   W96
//  #07 //058   ----------------------------------------
 BYTE   PATT
  POIN2 Label_015F6E72
//  #07 //059   ----------------------------------------
 BYTE   N02  Gs1  v104
 BYTE   W12
 BYTE   N02
 BYTE   W12
 BYTE   Gs2
 BYTE   W12
 BYTE   Gs1
 BYTE   W06
 BYTE   N08  Gs1  v112
 BYTE   W12
 BYTE   N01  Gs1  v104
 BYTE   W12
 BYTE   N01
 BYTE   W06
 BYTE   N02  Gs2
 BYTE   W12
 BYTE   Gs1
 BYTE   W06
 BYTE   N01  Gs2
 BYTE   W05
 BYTE   GoTo
  POIN2 Label_015F6EA9
 BYTE   FINE

//**************** Track 8 (Midi-Chn.7) ****************//

song45_008:
//  #08 //000   ----------------------------------------
 BYTE   KEYSH   song45_key+0
 BYTE   VOICE   56
 BYTE   VOL   24*song45_mvl/mxv
 BYTE   PAN   c_v-6
 BYTE   W96
//  #08 //001   ----------------------------------------
 BYTE   W96
//  #08 //002   ----------------------------------------
 BYTE   W96
//  #08 //003   ----------------------------------------
 BYTE   W96
//  #08 //004   ----------------------------------------
 BYTE   W96
//  #08 //005   ----------------------------------------
 BYTE   W92
 BYTE   W02
Label_015F4897:
 BYTE   W02
//  #08 //006   ----------------------------------------
 BYTE   W96
//  #08 //007   ----------------------------------------
 BYTE   W96
//  #08 //008   ----------------------------------------
 BYTE   W96
//  #08 //009   ----------------------------------------
 BYTE   W96
//  #08 //010   ----------------------------------------
 BYTE   W96
//  #08 //011   ----------------------------------------
 BYTE   W96
//  #08 //012   ----------------------------------------
 BYTE   W96
//  #08 //013   ----------------------------------------
 BYTE   W96
//  #08 //014   ----------------------------------------
 BYTE   TIE  Gs0  v100
 BYTE   W96
//  #08 //015   ----------------------------------------
 BYTE   W96
//  #08 //016   ----------------------------------------
 BYTE   W96
//  #08 //017   ----------------------------------------
 BYTE   W92
 BYTE   W03
 BYTE   EOT
 BYTE   W01
//  #08 //018   ----------------------------------------
 BYTE   W96
//  #08 //019   ----------------------------------------
 BYTE   W96
//  #08 //020   ----------------------------------------
 BYTE   W96
//  #08 //021   ----------------------------------------
 BYTE   W96
//  #08 //022   ----------------------------------------
 BYTE   W96
//  #08 //023   ----------------------------------------
 BYTE   W96
//  #08 //024   ----------------------------------------
 BYTE   W96
//  #08 //025   ----------------------------------------
 BYTE   W96
//  #08 //026   ----------------------------------------
 BYTE   PAN   c_v+0
 BYTE   TIE  En0  v116
 BYTE   W96
//  #08 //027   ----------------------------------------
 BYTE   W92
 BYTE   W03
 BYTE   EOT
 BYTE   W01
//  #08 //028   ----------------------------------------
 BYTE   TIE  Fn0
 BYTE   W96
//  #08 //029   ----------------------------------------
 BYTE   W92
 BYTE   W03
 BYTE   EOT
 BYTE   W01
//  #08 //030   ----------------------------------------
 BYTE   N92  Fs0
 BYTE   W96
//  #08 //031   ----------------------------------------
 BYTE   Gn0
 BYTE   W96
//  #08 //032   ----------------------------------------
 BYTE   TIE  Ds0
 BYTE   W96
//  #08 //033   ----------------------------------------
 BYTE   W44
 BYTE   W03
 BYTE   EOT
 BYTE   W48
 BYTE   W01
//  #08 //034   ----------------------------------------
 BYTE   W96
//  #08 //035   ----------------------------------------
 BYTE   W96
//  #08 //036   ----------------------------------------
 BYTE   W96
//  #08 //037   ----------------------------------------
 BYTE   W96
//  #08 //038   ----------------------------------------
 BYTE   W96
//  #08 //039   ----------------------------------------
 BYTE   W96
//  #08 //040   ----------------------------------------
 BYTE   W96
//  #08 //041   ----------------------------------------
 BYTE   W96
//  #08 //042   ----------------------------------------
 BYTE   W96
//  #08 //043   ----------------------------------------
 BYTE   W96
//  #08 //044   ----------------------------------------
 BYTE   W96
//  #08 //045   ----------------------------------------
 BYTE   W96
//  #08 //046   ----------------------------------------
 BYTE   W96
//  #08 //047   ----------------------------------------
 BYTE   W96
//  #08 //048   ----------------------------------------
 BYTE   W96
//  #08 //049   ----------------------------------------
 BYTE   W72
 BYTE   PAN   c_v-6
 BYTE   W24
//  #08 //050   ----------------------------------------
 BYTE   N92  Gs0  v100
 BYTE   W96
//  #08 //051   ----------------------------------------
 BYTE   Fs0
 BYTE   W96
//  #08 //052   ----------------------------------------
 BYTE   TIE  En0  v108
 BYTE   W96
//  #08 //053   ----------------------------------------
 BYTE   W44
 BYTE   W03
 BYTE   EOT
 BYTE   W01
 BYTE   N44  Ds0
 BYTE   W48
//  #08 //054   ----------------------------------------
 BYTE   N92  Gs0  v100
 BYTE   W96
//  #08 //055   ----------------------------------------
 BYTE   Fs0
 BYTE   W96
//  #08 //056   ----------------------------------------
 BYTE   TIE  En0  v108
 BYTE   W96
//  #08 //057   ----------------------------------------
 BYTE   W44
 BYTE   W03
 BYTE   EOT
 BYTE   W01
 BYTE   N44  Ds0
 BYTE   W48
//  #08 //058   ----------------------------------------
 BYTE   W96
//  #08 //059   ----------------------------------------
 BYTE   W92
 BYTE   W03
 BYTE   GoTo
  POIN2 Label_015F4897
 BYTE   FINE

//**************** Track 9 (Midi-Chn.8) ****************//

song45_009:
//  #09 //000   ----------------------------------------
 BYTE   KEYSH   song45_key+0
 BYTE   VOICE   84
 BYTE   VOL   49*song45_mvl/mxv
 BYTE   PAN   c_v+16
 BYTE   N02  Gs4  v080
 BYTE   W06
 BYTE   Bn4
 BYTE   W06
 BYTE   Ds5
 BYTE   W06
 BYTE   Gs5
 BYTE   W06
 BYTE   Bn5
 BYTE   W06
 BYTE   Ds6
 BYTE   W06
 BYTE   Gs6
 BYTE   W06
 BYTE   Ds6
 BYTE   W06
 BYTE   Bn6
 BYTE   W06
 BYTE   Gs6
 BYTE   W06
 BYTE   Ds6
 BYTE   W06
 BYTE   Bn5
 BYTE   W06
 BYTE   Gs5
 BYTE   W06
 BYTE   Ds5
 BYTE   W06
 BYTE   Bn4
 BYTE   W06
 BYTE   Ds5
 BYTE   W06
//  #09 //001   ----------------------------------------
 BYTE   Fs4
 BYTE   W06
 BYTE   As4
 BYTE   W06
 BYTE   Cs5
 BYTE   W06
 BYTE   Fs5
 BYTE   W06
 BYTE   As5
 BYTE   W06
 BYTE   Cs6
 BYTE   W06
 BYTE   Fs6
 BYTE   W06
 BYTE   Cs6
 BYTE   W06
 BYTE   As6
 BYTE   W06
 BYTE   Fs6
 BYTE   W06
 BYTE   Cs6
 BYTE   W06
 BYTE   As5
 BYTE   W06
 BYTE   Fs5
 BYTE   W06
 BYTE   Cs5
 BYTE   W06
 BYTE   As4
 BYTE   W06
 BYTE   Cs5
 BYTE   W06
//  #09 //002   ----------------------------------------
 BYTE   Gs4
 BYTE   W06
 BYTE   Bn4
 BYTE   W06
 BYTE   Ds5
 BYTE   W06
 BYTE   Gs5
 BYTE   W06
 BYTE   Bn5
 BYTE   W06
 BYTE   Ds6
 BYTE   W06
 BYTE   Gs6
 BYTE   W06
 BYTE   Ds6
 BYTE   W06
 BYTE   Bn6
 BYTE   W06
 BYTE   Gs6
 BYTE   W06
 BYTE   Ds6
 BYTE   W06
 BYTE   Bn5
 BYTE   W06
 BYTE   Gs5
 BYTE   W06
 BYTE   Ds5
 BYTE   W06
 BYTE   Bn4
 BYTE   W06
 BYTE   Ds5
 BYTE   W06
//  #09 //003   ----------------------------------------
 BYTE   Gs4
 BYTE   W06
 BYTE   Bn4
 BYTE   W06
 BYTE   Ds5
 BYTE   W06
 BYTE   Gs5
 BYTE   W06
 BYTE   Bn5
 BYTE   W06
 BYTE   Ds6
 BYTE   W06
 BYTE   Gs6
 BYTE   W06
 BYTE   Ds6
 BYTE   W06
 BYTE   As6
 BYTE   W06
 BYTE   Fs6
 BYTE   W06
 BYTE   Ds6
 BYTE   W06
 BYTE   As5
 BYTE   W06
 BYTE   Fs5
 BYTE   W06
 BYTE   Ds5
 BYTE   W06
 BYTE   As4
 BYTE   W06
 BYTE   Ds5
 BYTE   W06
//  #09 //004   ----------------------------------------
 BYTE   W96
//  #09 //005   ----------------------------------------
 BYTE   W92
 BYTE   W02
Label_015F7149:
 BYTE   W02
//  #09 //006   ----------------------------------------
Label_015F714A:
 BYTE   N02  Gs5  v080
 BYTE   W12
 BYTE   N02
 BYTE   W12
 BYTE   Gs6
 BYTE   W12
 BYTE   Gs5
 BYTE   W12
 BYTE   N02
 BYTE   W12
 BYTE   Gs6
 BYTE   W12
 BYTE   Gs5
 BYTE   W12
 BYTE   N02
 BYTE   W12
 BYTE   PEND 
//  #09 //007   ----------------------------------------
Label_015F715D:
 BYTE   N02  Gs6  v080
 BYTE   W12
 BYTE   Gs5
 BYTE   W12
 BYTE   N02
 BYTE   W12
 BYTE   Gs6
 BYTE   W12
 BYTE   Gs5
 BYTE   W12
 BYTE   N02
 BYTE   W12
 BYTE   Gs6
 BYTE   W12
 BYTE   Gs5
 BYTE   W12
 BYTE   PEND 
//  #09 //008   ----------------------------------------
 BYTE   PATT
  POIN2 Label_015F714A
//  #09 //009   ----------------------------------------
Label_015F7175:
 BYTE   N02  Gn6  v080
 BYTE   W12
 BYTE   Gn5
 BYTE   W12
 BYTE   N02
 BYTE   W12
 BYTE   Gn6
 BYTE   W12
 BYTE   N04  Ds4  v088
 BYTE   W06
 BYTE   Gn4
 BYTE   W06
 BYTE   As4
 BYTE   W06
 BYTE   Cs5
 BYTE   W06
 BYTE   Ds5
 BYTE   W06
 BYTE   Gn5
 BYTE   W06
 BYTE   As5
 BYTE   W06
 BYTE   N05  Cs6
 BYTE   W06
 BYTE   PEND 
//  #09 //010   ----------------------------------------
 BYTE   PATT
  POIN2 Label_015F714A
//  #09 //011   ----------------------------------------
 BYTE   PATT
  POIN2 Label_015F715D
//  #09 //012   ----------------------------------------
 BYTE   N02  Fs5  v080
 BYTE   W12
 BYTE   N02
 BYTE   W12
 BYTE   Fs6
 BYTE   W12
 BYTE   Fs5
 BYTE   W12
 BYTE   N02
 BYTE   W12
 BYTE   Fs6
 BYTE   W12
 BYTE   Fs5
 BYTE   W12
 BYTE   N02
 BYTE   W12
//  #09 //013   ----------------------------------------
 BYTE   PATT
  POIN2 Label_015F7175
//  #09 //014   ----------------------------------------
 BYTE   W96
//  #09 //015   ----------------------------------------
 BYTE   W48
 BYTE   N02  Gs3  v092
 BYTE   W06
 BYTE   Ds4
 BYTE   W06
 BYTE   Gs4
 BYTE   W06
 BYTE   Ds5
 BYTE   W06
 BYTE   Gs5
 BYTE   W06
 BYTE   Ds6
 BYTE   W06
 BYTE   Gs6
 BYTE   W06
 BYTE   Ds7
 BYTE   W06
//  #09 //016   ----------------------------------------
 BYTE   PATT
  POIN2 Label_015F714A
//  #09 //017   ----------------------------------------
 BYTE   PATT
  POIN2 Label_015F715D
//  #09 //018   ----------------------------------------
Label_015F71D2:
 BYTE   N02  Gs5  v084
 BYTE   W12
 BYTE   N02
 BYTE   W12
 BYTE   Gs6
 BYTE   W12
 BYTE   Gs5
 BYTE   W12
 BYTE   N02
 BYTE   W12
 BYTE   Gs6
 BYTE   W12
 BYTE   Gs5
 BYTE   W12
 BYTE   N02
 BYTE   W12
 BYTE   PEND 
//  #09 //019   ----------------------------------------
Label_015F71E5:
 BYTE   N02  Gs6  v084
 BYTE   W12
 BYTE   Gs5
 BYTE   W12
 BYTE   N02
 BYTE   W12
 BYTE   Gs6
 BYTE   W12
 BYTE   Gs5
 BYTE   W12
 BYTE   N02
 BYTE   W12
 BYTE   Gs6
 BYTE   W12
 BYTE   Gs5
 BYTE   W12
 BYTE   PEND 
//  #09 //020   ----------------------------------------
 BYTE   PATT
  POIN2 Label_015F71D2
//  #09 //021   ----------------------------------------
 BYTE   N02  Gn6  v084
 BYTE   W12
 BYTE   Gn5
 BYTE   W12
 BYTE   N02
 BYTE   W12
 BYTE   Gn6
 BYTE   W12
 BYTE   N04  Ds4  v092
 BYTE   W06
 BYTE   Gn4
 BYTE   W06
 BYTE   As4
 BYTE   W06
 BYTE   Cs5
 BYTE   W06
 BYTE   Ds5
 BYTE   W06
 BYTE   Gn5
 BYTE   W06
 BYTE   As5
 BYTE   W06
 BYTE   N05  Cs6
 BYTE   W06
//  #09 //022   ----------------------------------------
 BYTE   PATT
  POIN2 Label_015F71D2
//  #09 //023   ----------------------------------------
 BYTE   PATT
  POIN2 Label_015F71E5
//  #09 //024   ----------------------------------------
 BYTE   N02  Fs5  v084
 BYTE   W12
 BYTE   N02
 BYTE   W12
 BYTE   Fs6
 BYTE   W12
 BYTE   Fs5
 BYTE   W12
 BYTE   N02
 BYTE   W12
 BYTE   Fs6
 BYTE   W12
 BYTE   Fs5
 BYTE   W12
 BYTE   N02
 BYTE   W12
//  #09 //025   ----------------------------------------
 BYTE   Gn6
 BYTE   W12
 BYTE   Gn5
 BYTE   W12
 BYTE   N02
 BYTE   W12
 BYTE   Gn6
 BYTE   W12
 BYTE   N04  Ds4  v096
 BYTE   W06
 BYTE   Gn4
 BYTE   W06
 BYTE   As4
 BYTE   W06
 BYTE   Cs5
 BYTE   W06
 BYTE   Ds5
 BYTE   W06
 BYTE   Gn5
 BYTE   W06
 BYTE   As5
 BYTE   W06
 BYTE   N05  Cs6
 BYTE   W06
//  #09 //026   ----------------------------------------
 BYTE   N11  Bn5
 BYTE   W12
 BYTE   N02  Bn4
 BYTE   W12
 BYTE   En5
 BYTE   W12
 BYTE   Bn4
 BYTE   W12
 BYTE   Gs5
 BYTE   W12
 BYTE   En5
 BYTE   W12
 BYTE   Bn4
 BYTE   W12
 BYTE   Gs4
 BYTE   W12
//  #09 //027   ----------------------------------------
 BYTE   N02
 BYTE   W12
 BYTE   Bn4
 BYTE   W12
 BYTE   En5
 BYTE   W12
 BYTE   Bn4
 BYTE   W12
 BYTE   Gs5
 BYTE   W12
 BYTE   En5
 BYTE   W12
 BYTE   Bn4
 BYTE   W12
 BYTE   Gs4
 BYTE   W12
//  #09 //028   ----------------------------------------
Label_015F7273:
 BYTE   N02  Gs4  v096
 BYTE   W12
 BYTE   Bn4
 BYTE   W12
 BYTE   Fn5
 BYTE   W12
 BYTE   Bn4
 BYTE   W12
 BYTE   Gs5
 BYTE   W12
 BYTE   Fn5
 BYTE   W12
 BYTE   Bn4
 BYTE   W12
 BYTE   Gs4
 BYTE   W12
 BYTE   PEND 
//  #09 //029   ----------------------------------------
 BYTE   PATT
  POIN2 Label_015F7273
//  #09 //030   ----------------------------------------
 BYTE   N02  As4  v096
 BYTE   W12
 BYTE   Cs5
 BYTE   W12
 BYTE   Fs5
 BYTE   W12
 BYTE   Cs5
 BYTE   W12
 BYTE   As5
 BYTE   W12
 BYTE   Fs5
 BYTE   W12
 BYTE   Cs5
 BYTE   W12
 BYTE   As4
 BYTE   W12
//  #09 //031   ----------------------------------------
 BYTE   N02
 BYTE   W12
 BYTE   Cs5
 BYTE   W12
 BYTE   Gn5
 BYTE   W12
 BYTE   Cs5
 BYTE   W12
 BYTE   As5
 BYTE   W12
 BYTE   Gn5
 BYTE   W12
 BYTE   Cs5
 BYTE   W12
 BYTE   As4
 BYTE   W12
//  #09 //032   ----------------------------------------
Label_015F72AD:
 BYTE   N02  As4  v096
 BYTE   W12
 BYTE   Ds5
 BYTE   W12
 BYTE   Gn5
 BYTE   W12
 BYTE   Ds5
 BYTE   W12
 BYTE   As5
 BYTE   W12
 BYTE   Gn5
 BYTE   W12
 BYTE   Ds5
 BYTE   W12
 BYTE   As4
 BYTE   W12
 BYTE   PEND 
//  #09 //033   ----------------------------------------
 BYTE   PATT
  POIN2 Label_015F72AD
//  #09 //034   ----------------------------------------
Label_015F72C5:
 BYTE   N02  Gs5  v092
 BYTE   W12
 BYTE   N02
 BYTE   W12
 BYTE   Gs6
 BYTE   W12
 BYTE   Gs5
 BYTE   W12
 BYTE   N02
 BYTE   W12
 BYTE   Gs6
 BYTE   W12
 BYTE   Gs5
 BYTE   W12
 BYTE   N02
 BYTE   W12
 BYTE   PEND 
//  #09 //035   ----------------------------------------
Label_015F72D8:
 BYTE   N02  Gs6  v092
 BYTE   W12
 BYTE   Gs5
 BYTE   W12
 BYTE   N02
 BYTE   W12
 BYTE   Gs6
 BYTE   W12
 BYTE   Gs5
 BYTE   W12
 BYTE   N02
 BYTE   W12
 BYTE   Gs6
 BYTE   W12
 BYTE   Gs5
 BYTE   W12
 BYTE   PEND 
//  #09 //036   ----------------------------------------
 BYTE   PATT
  POIN2 Label_015F72C5
//  #09 //037   ----------------------------------------
Label_015F72F0:
 BYTE   N02  Gs6  v092
 BYTE   W12
 BYTE   Gs5
 BYTE   W12
 BYTE   N02
 BYTE   W12
 BYTE   Gs6
 BYTE   W12
 BYTE   Fs5
 BYTE   W12
 BYTE   N02
 BYTE   W12
 BYTE   Fs6
 BYTE   W12
 BYTE   Fs5
 BYTE   W12
 BYTE   PEND 
//  #09 //038   ----------------------------------------
 BYTE   PATT
  POIN2 Label_015F72C5
//  #09 //039   ----------------------------------------
 BYTE   PATT
  POIN2 Label_015F72D8
//  #09 //040   ----------------------------------------
Label_015F730D:
 BYTE   N02  Fs5  v092
 BYTE   W12
 BYTE   N02
 BYTE   W12
 BYTE   Fs6
 BYTE   W12
 BYTE   Fs5
 BYTE   W12
 BYTE   N02
 BYTE   W12
 BYTE   Fs6
 BYTE   W12
 BYTE   Fs5
 BYTE   W12
 BYTE   N02
 BYTE   W12
 BYTE   PEND 
//  #09 //041   ----------------------------------------
Label_015F7320:
 BYTE   N02  Gn6  v092
 BYTE   W12
 BYTE   Gn5
 BYTE   W12
 BYTE   N02
 BYTE   W12
 BYTE   Gn6
 BYTE   W12
 BYTE   Gn5
 BYTE   W12
 BYTE   N02
 BYTE   W12
 BYTE   Gn6
 BYTE   W12
 BYTE   Gn5
 BYTE   W12
 BYTE   PEND 
//  #09 //042   ----------------------------------------
 BYTE   PATT
  POIN2 Label_015F72C5
//  #09 //043   ----------------------------------------
 BYTE   PATT
  POIN2 Label_015F72D8
//  #09 //044   ----------------------------------------
 BYTE   PATT
  POIN2 Label_015F72C5
//  #09 //045   ----------------------------------------
 BYTE   PATT
  POIN2 Label_015F72F0
//  #09 //046   ----------------------------------------
 BYTE   PATT
  POIN2 Label_015F72C5
//  #09 //047   ----------------------------------------
 BYTE   PATT
  POIN2 Label_015F72D8
//  #09 //048   ----------------------------------------
 BYTE   PATT
  POIN2 Label_015F730D
//  #09 //049   ----------------------------------------
 BYTE   PATT
  POIN2 Label_015F7320
//  #09 //050   ----------------------------------------
 BYTE   W96
//  #09 //051   ----------------------------------------
 BYTE   W48
 BYTE   N02  Fs3  v088
 BYTE   W06
 BYTE   Ds4
 BYTE   W06
 BYTE   Fs4
 BYTE   W06
 BYTE   Ds5
 BYTE   W06
 BYTE   Fs5
 BYTE   W06
 BYTE   Ds6
 BYTE   W06
 BYTE   Fs6
 BYTE   W06
 BYTE   Ds7
 BYTE   W06
//  #09 //052   ----------------------------------------
 BYTE   PATT
  POIN2 Label_015F714A
//  #09 //053   ----------------------------------------
 BYTE   PATT
  POIN2 Label_015F715D
//  #09 //054   ----------------------------------------
 BYTE   PATT
  POIN2 Label_015F714A
//  #09 //055   ----------------------------------------
 BYTE   PATT
  POIN2 Label_015F715D
//  #09 //056   ----------------------------------------
 BYTE   N02  Gs5  v080
 BYTE   W12
 BYTE   N02
 BYTE   W12
 BYTE   Gs6
 BYTE   W12
 BYTE   Gs5
 BYTE   W12
 BYTE   N02
 BYTE   W12
 BYTE   Gs6
 BYTE   W12
 BYTE   Gs5  v072
 BYTE   W12
 BYTE   N02
 BYTE   W12
//  #09 //057   ----------------------------------------
 BYTE   Gs4  v084
 BYTE   W06
 BYTE   Bn4
 BYTE   W06
 BYTE   Ds5
 BYTE   W06
 BYTE   Gs5
 BYTE   W06
 BYTE   Bn5
 BYTE   W06
 BYTE   Ds6
 BYTE   W06
 BYTE   Gs6
 BYTE   W06
 BYTE   Ds6
 BYTE   W06
 BYTE   As6
 BYTE   W06
 BYTE   Fs6
 BYTE   W06
 BYTE   Ds6
 BYTE   W06
 BYTE   As5
 BYTE   W06
 BYTE   Fs5
 BYTE   W06
 BYTE   Ds5
 BYTE   W06
 BYTE   As4
 BYTE   W06
 BYTE   Ds5
 BYTE   W06
//  #09 //058   ----------------------------------------
 BYTE   W96
//  #09 //059   ----------------------------------------
 BYTE   W92
 BYTE   W03
 BYTE   GoTo
  POIN2 Label_015F7149
 BYTE   FINE

//**************** Track 10 (Midi-Chn.9) ****************//

song45_010:
//  #10 //000   ----------------------------------------
 BYTE   VOL   100*song45_mvl/mxv
 BYTE   KEYSH   song45_key+0
 BYTE   VOICE   55
 BYTE   W96
//  #10 //001   ----------------------------------------
 BYTE   W96
//  #10 //002   ----------------------------------------
 BYTE   W96
//  #10 //003   ----------------------------------------
 BYTE   W96
//  #10 //004   ----------------------------------------
 BYTE   W96
//  #10 //005   ----------------------------------------
 BYTE   W92
 BYTE   W02
Label_015F5E75:
 BYTE   W02
//  #10 //006   ----------------------------------------
 BYTE   W96
//  #10 //007   ----------------------------------------
 BYTE   W96
//  #10 //008   ----------------------------------------
 BYTE   W96
//  #10 //009   ----------------------------------------
 BYTE   W96
//  #10 //010   ----------------------------------------
 BYTE   W96
//  #10 //011   ----------------------------------------
 BYTE   W96
//  #10 //012   ----------------------------------------
 BYTE   W96
//  #10 //013   ----------------------------------------
 BYTE   W96
//  #10 //014   ----------------------------------------
 BYTE   N11  Gs3  v092
 BYTE   N11  Gs4
 BYTE   W12
 BYTE   Gs3  v044
 BYTE   N11  Gs4
 BYTE   W84
//  #10 //015   ----------------------------------------
Label_015F5E89:
 BYTE   W84
 BYTE   N11  Gs3  v084
 BYTE   N11  Gs4
 BYTE   W12
 BYTE   PEND 
//  #10 //016   ----------------------------------------
 BYTE   Gs3
 BYTE   N11  Gs4
 BYTE   W12
 BYTE   Gs3  v032
 BYTE   N11  Gs4
 BYTE   W84
//  #10 //017   ----------------------------------------
 BYTE   PATT
  POIN2 Label_015F5E89
//  #10 //018   ----------------------------------------
 BYTE   N23  Gs3  v092
 BYTE   N23  Gs4
 BYTE   W96
//  #10 //019   ----------------------------------------
 BYTE   W96
//  #10 //020   ----------------------------------------
 BYTE   W96
//  #10 //021   ----------------------------------------
 BYTE   W96
//  #10 //022   ----------------------------------------
 BYTE   W96
//  #10 //023   ----------------------------------------
 BYTE   W96
//  #10 //024   ----------------------------------------
 BYTE   W96
//  #10 //025   ----------------------------------------
 BYTE   W96
//  #10 //026   ----------------------------------------
 BYTE   W96
//  #10 //027   ----------------------------------------
 BYTE   W96
//  #10 //028   ----------------------------------------
 BYTE   W96
//  #10 //029   ----------------------------------------
 BYTE   W96
//  #10 //030   ----------------------------------------
 BYTE   W96
//  #10 //031   ----------------------------------------
 BYTE   W96
//  #10 //032   ----------------------------------------
 BYTE   W96
//  #10 //033   ----------------------------------------
 BYTE   W72
 BYTE   N11  Ds3  v100
 BYTE   N11  Ds4
 BYTE   W12
 BYTE   Ds3  v048
 BYTE   N11  Ds4
 BYTE   W12
//  #10 //034   ----------------------------------------
Label_015F5EBF:
 BYTE   N11  Gs3  v104
 BYTE   N11  Gs4
 BYTE   W12
 BYTE   Gs3  v052
 BYTE   N11  Gs4
 BYTE   W84
 BYTE   PEND 
//  #10 //035   ----------------------------------------
 BYTE   W96
//  #10 //036   ----------------------------------------
 BYTE   W96
//  #10 //037   ----------------------------------------
 BYTE   W96
//  #10 //038   ----------------------------------------
 BYTE   W96
//  #10 //039   ----------------------------------------
 BYTE   W96
//  #10 //040   ----------------------------------------
 BYTE   W96
//  #10 //041   ----------------------------------------
 BYTE   W96
//  #10 //042   ----------------------------------------
 BYTE   PATT
  POIN2 Label_015F5EBF
//  #10 //043   ----------------------------------------
 BYTE   W96
//  #10 //044   ----------------------------------------
 BYTE   W96
//  #10 //045   ----------------------------------------
 BYTE   W96
//  #10 //046   ----------------------------------------
 BYTE   W96
//  #10 //047   ----------------------------------------
 BYTE   W96
//  #10 //048   ----------------------------------------
 BYTE   W96
//  #10 //049   ----------------------------------------
 BYTE   W96
//  #10 //050   ----------------------------------------
Label_015F5EDE:
 BYTE   N11  Gs3  v100
 BYTE   N11  Gs4
 BYTE   W12
 BYTE   Gs3  v048
 BYTE   N11  Gs4
 BYTE   W84
 BYTE   PEND 
//  #10 //051   ----------------------------------------
Label_015F5EEA:
 BYTE   W72
 BYTE   N11  Gs3  v088
 BYTE   N11  Gs4
 BYTE   W12
 BYTE   Gs3  v040
 BYTE   N11  Gs4
 BYTE   W12
 BYTE   PEND 
//  #10 //052   ----------------------------------------
Label_015F5EF7:
 BYTE   N11  Gs3  v088
 BYTE   N11  Gs4
 BYTE   W12
 BYTE   Gs3  v040
 BYTE   N11  Gs4
 BYTE   W84
 BYTE   PEND 
//  #10 //053   ----------------------------------------
 BYTE   W72
 BYTE   Ds3  v088
 BYTE   N11  Ds4
 BYTE   W12
 BYTE   Ds3  v040
 BYTE   N11  Ds4
 BYTE   W12
//  #10 //054   ----------------------------------------
 BYTE   PATT
  POIN2 Label_015F5EDE
//  #10 //055   ----------------------------------------
 BYTE   PATT
  POIN2 Label_015F5EEA
//  #10 //056   ----------------------------------------
 BYTE   PATT
  POIN2 Label_015F5EF7
//  #10 //057   ----------------------------------------
 BYTE   W96
//  #10 //058   ----------------------------------------
 BYTE   W96
//  #10 //059   ----------------------------------------
 BYTE   W92
 BYTE   W03
 BYTE   GoTo
  POIN2 Label_015F5E75
 BYTE   FINE

//**************** Track 11 (Midi-Chn.10) ****************//

song45_011:
//  #11 //000   ----------------------------------------
 BYTE   KEYSH   song45_key+0
 BYTE   VOICE   47
 BYTE   VOL   34*song45_mvl/mxv
 BYTE   W96
//  #11 //001   ----------------------------------------
 BYTE   W96
//  #11 //002   ----------------------------------------
 BYTE   W96
//  #11 //003   ----------------------------------------
 BYTE   W84
 BYTE   N03  Ds1  v108
 BYTE   W04
 BYTE   Ds1  v100
 BYTE   W04
 BYTE   Ds1  v108
 BYTE   W04
//  #11 //004   ----------------------------------------
 BYTE   N23  Gs1  v120
 BYTE   W96
//  #11 //005   ----------------------------------------
 BYTE   W84
 BYTE   N05  Ds1  v108
 BYTE   W06
 BYTE   Ds1  v100
 BYTE   W04
Label_015F73E0:
 BYTE   W02
//  #11 //006   ----------------------------------------
 BYTE   N23  Gs1  v120
 BYTE   W96
//  #11 //007   ----------------------------------------
 BYTE   W96
//  #11 //008   ----------------------------------------
 BYTE   W96
//  #11 //009   ----------------------------------------
 BYTE   W96
//  #11 //010   ----------------------------------------
 BYTE   W96
//  #11 //011   ----------------------------------------
 BYTE   W96
//  #11 //012   ----------------------------------------
 BYTE   W96
//  #11 //013   ----------------------------------------
Label_015F73EB:
 BYTE   W72
 BYTE   N11  Ds1  v108
 BYTE   W12
 BYTE   N03  Ds1  v100
 BYTE   W04
 BYTE   Ds1  v088
 BYTE   W04
 BYTE   Ds1  v108
 BYTE   W04
 BYTE   PEND 
//  #11 //014   ----------------------------------------
 BYTE   N23  Gs1  v120
 BYTE   W96
//  #11 //015   ----------------------------------------
 BYTE   W72
 BYTE   N11  Ds1  v108
 BYTE   W12
 BYTE   N05  Ds1  v100
 BYTE   W06
 BYTE   Ds1  v108
 BYTE   W06
//  #11 //016   ----------------------------------------
 BYTE   N23  Gs1  v120
 BYTE   W96
//  #11 //017   ----------------------------------------
 BYTE   W84
 BYTE   N05  Ds1  v108
 BYTE   W06
 BYTE   Ds1  v100
 BYTE   W06
//  #11 //018   ----------------------------------------
 BYTE   N23  Gs1  v120
 BYTE   W96
//  #11 //019   ----------------------------------------
 BYTE   W84
 BYTE   N11  Ds1  v108
 BYTE   W12
//  #11 //020   ----------------------------------------
 BYTE   N23  En1
 BYTE   W96
//  #11 //021   ----------------------------------------
 BYTE   W48
 BYTE   Ds1
 BYTE   W24
 BYTE   N11
 BYTE   W12
 BYTE   N11
 BYTE   W12
//  #11 //022   ----------------------------------------
 BYTE   N23  En1
 BYTE   W96
//  #11 //023   ----------------------------------------
 BYTE   W84
 BYTE   N03  En1  v100
 BYTE   W04
 BYTE   En1  v088
 BYTE   W04
 BYTE   En1  v108
 BYTE   W04
//  #11 //024   ----------------------------------------
 BYTE   N28  Fs1  v120
 BYTE   W96
//  #11 //025   ----------------------------------------
 BYTE   N23  Ds1  v108
 BYTE   W48
 BYTE   N23
 BYTE   W24
 BYTE   N11
 BYTE   W12
 BYTE   N03  Ds1  v100
 BYTE   W04
 BYTE   Ds1  v088
 BYTE   W04
 BYTE   Ds1  v108
 BYTE   W04
//  #11 //026   ----------------------------------------
 BYTE   N23  En1  v120
 BYTE   W96
//  #11 //027   ----------------------------------------
 BYTE   W96
//  #11 //028   ----------------------------------------
 BYTE   W96
//  #11 //029   ----------------------------------------
 BYTE   W96
//  #11 //030   ----------------------------------------
 BYTE   W96
//  #11 //031   ----------------------------------------
 BYTE   W96
//  #11 //032   ----------------------------------------
 BYTE   W96
//  #11 //033   ----------------------------------------
 BYTE   PATT
  POIN2 Label_015F73EB
//  #11 //034   ----------------------------------------
Label_015F745D:
 BYTE   N23  Gs1  v120
 BYTE   W84
 BYTE   N11  Gs1  v108
 BYTE   W12
 BYTE   PEND 
//  #11 //035   ----------------------------------------
 BYTE   N23  Fs1
 BYTE   W96
//  #11 //036   ----------------------------------------
Label_015F7469:
 BYTE   N23  Fn1  v108
 BYTE   W84
 BYTE   N05
 BYTE   W06
 BYTE   Fn1  v100
 BYTE   W06
 BYTE   PEND 
//  #11 //037   ----------------------------------------
Label_015F7473:
 BYTE   N23  En1  v120
 BYTE   W48
 BYTE   Fs1  v108
 BYTE   W24
 BYTE   N11
 BYTE   W12
 BYTE   Cs2
 BYTE   W12
 BYTE   PEND 
//  #11 //038   ----------------------------------------
Label_015F747F:
 BYTE   N23  Fn1  v120
 BYTE   W84
 BYTE   N11  Fn1  v108
 BYTE   W12
 BYTE   PEND 
//  #11 //039   ----------------------------------------
 BYTE   N23
 BYTE   W96
//  #11 //040   ----------------------------------------
Label_015F748A:
 BYTE   N23  Fs1  v108
 BYTE   W84
 BYTE   N05
 BYTE   W06
 BYTE   Fs1  v100
 BYTE   W06
 BYTE   PEND 
//  #11 //041   ----------------------------------------
 BYTE   N23  Ds1  v120
 BYTE   W48
 BYTE   Ds1  v108
 BYTE   W24
 BYTE   N11
 BYTE   W12
 BYTE   As1
 BYTE   W12
//  #11 //042   ----------------------------------------
 BYTE   PATT
  POIN2 Label_015F745D
//  #11 //043   ----------------------------------------
 BYTE   N23  Fs1  v108
 BYTE   W96
//  #11 //044   ----------------------------------------
 BYTE   PATT
  POIN2 Label_015F7469
//  #11 //045   ----------------------------------------
 BYTE   PATT
  POIN2 Label_015F7473
//  #11 //046   ----------------------------------------
 BYTE   PATT
  POIN2 Label_015F747F
//  #11 //047   ----------------------------------------
 BYTE   N23  Fn1  v108
 BYTE   W96
//  #11 //048   ----------------------------------------
 BYTE   PATT
  POIN2 Label_015F748A
//  #11 //049   ----------------------------------------
 BYTE   N23  Ds1  v120
 BYTE   W48
 BYTE   Ds1  v108
 BYTE   W24
 BYTE   N11
 BYTE   W12
 BYTE   N03  Ds1  v100
 BYTE   W04
 BYTE   Ds1  v088
 BYTE   W04
 BYTE   Ds1  v108
 BYTE   W04
//  #11 //050   ----------------------------------------
 BYTE   N23  Gs1  v120
 BYTE   W96
//  #11 //051   ----------------------------------------
 BYTE   W72
 BYTE   Fs1  v108
 BYTE   W24
//  #11 //052   ----------------------------------------
 BYTE   En1  v120
 BYTE   W96
//  #11 //053   ----------------------------------------
Label_015F74DE:
 BYTE   W72
 BYTE   N07  Fs1  v100
 BYTE   W08
 BYTE   Fs1  v088
 BYTE   W08
 BYTE   Fs1  v108
 BYTE   W08
 BYTE   PEND 
//  #11 //054   ----------------------------------------
 BYTE   N23  Gs1  v120
 BYTE   W96
//  #11 //055   ----------------------------------------
 BYTE   W72
 BYTE   Fs1  v108
 BYTE   W24
//  #11 //056   ----------------------------------------
 BYTE   En1  v120
 BYTE   W96
//  #11 //057   ----------------------------------------
 BYTE   PATT
  POIN2 Label_015F74DE
//  #11 //058   ----------------------------------------
 BYTE   N23  Gs1  v120
 BYTE   W96
//  #11 //059   ----------------------------------------
 BYTE   W84
 BYTE   N05  Ds1  v108
 BYTE   W06
 BYTE   Ds1  v100
 BYTE   W05
 BYTE   GoTo
  POIN2 Label_015F73E0
 BYTE   FINE

//**************** Track 12 (Midi-Chn.11) ****************//

song45_012:
//  #12 //000   ----------------------------------------
 BYTE   KEYSH   song45_key+0
 BYTE   VOICE   124
 BYTE   VOL   29*song45_mvl/mxv
 BYTE   W96
//  #12 //001   ----------------------------------------
 BYTE   W96
//  #12 //002   ----------------------------------------
 BYTE   W96
//  #12 //003   ----------------------------------------
 BYTE   W96
//  #12 //004   ----------------------------------------
Label_015F7516:
 BYTE   N12  Cn1  v127
 BYTE   W12
 BYTE   N12
 BYTE   W12
 BYTE   Dn1
 BYTE   W12
 BYTE   N06  Cn1
 BYTE   W06
 BYTE   N12
 BYTE   W12
 BYTE   N06
 BYTE   W06
 BYTE   N12
 BYTE   W12
 BYTE   Dn1
 BYTE   W24
 BYTE   PEND 
//  #12 //005   ----------------------------------------
 BYTE   Cn1
 BYTE   W12
 BYTE   N12
 BYTE   W12
 BYTE   Dn1
 BYTE   W12
 BYTE   N06  Cn1
 BYTE   W06
 BYTE   N12
 BYTE   W12
 BYTE   N06
 BYTE   W06
 BYTE   N12
 BYTE   W12
 BYTE   Dn1
 BYTE   W22
Label_015F753B:
 BYTE   W02
//  #12 //006   ----------------------------------------
 BYTE   PATT
  POIN2 Label_015F7516
//  #12 //007   ----------------------------------------
 BYTE   PATT
  POIN2 Label_015F7516
//  #12 //008   ----------------------------------------
 BYTE   PATT
  POIN2 Label_015F7516
//  #12 //009   ----------------------------------------
 BYTE   PATT
  POIN2 Label_015F7516
//  #12 //010   ----------------------------------------
 BYTE   PATT
  POIN2 Label_015F7516
//  #12 //011   ----------------------------------------
 BYTE   PATT
  POIN2 Label_015F7516
//  #12 //012   ----------------------------------------
 BYTE   PATT
  POIN2 Label_015F7516
//  #12 //013   ----------------------------------------
 BYTE   PATT
  POIN2 Label_015F7516
//  #12 //014   ----------------------------------------
 BYTE   W96
//  #12 //015   ----------------------------------------
 BYTE   W96
//  #12 //016   ----------------------------------------
 BYTE   W96
//  #12 //017   ----------------------------------------
 BYTE   W72
 BYTE   N24  Cn1  v064
 BYTE   W24
//  #12 //018   ----------------------------------------
 BYTE   PATT
  POIN2 Label_015F7516
//  #12 //019   ----------------------------------------
 BYTE   PATT
  POIN2 Label_015F7516
//  #12 //020   ----------------------------------------
 BYTE   PATT
  POIN2 Label_015F7516
//  #12 //021   ----------------------------------------
 BYTE   PATT
  POIN2 Label_015F7516
//  #12 //022   ----------------------------------------
 BYTE   PATT
  POIN2 Label_015F7516
//  #12 //023   ----------------------------------------
 BYTE   PATT
  POIN2 Label_015F7516
//  #12 //024   ----------------------------------------
 BYTE   PATT
  POIN2 Label_015F7516
//  #12 //025   ----------------------------------------
 BYTE   PATT
  POIN2 Label_015F7516
//  #12 //026   ----------------------------------------
 BYTE   PATT
  POIN2 Label_015F7516
//  #12 //027   ----------------------------------------
 BYTE   PATT
  POIN2 Label_015F7516
//  #12 //028   ----------------------------------------
 BYTE   PATT
  POIN2 Label_015F7516
//  #12 //029   ----------------------------------------
 BYTE   PATT
  POIN2 Label_015F7516
//  #12 //030   ----------------------------------------
 BYTE   PATT
  POIN2 Label_015F7516
//  #12 //031   ----------------------------------------
 BYTE   PATT
  POIN2 Label_015F7516
//  #12 //032   ----------------------------------------
 BYTE   PATT
  POIN2 Label_015F7516
//  #12 //033   ----------------------------------------
 BYTE   PATT
  POIN2 Label_015F7516
//  #12 //034   ----------------------------------------
 BYTE   PATT
  POIN2 Label_015F7516
//  #12 //035   ----------------------------------------
 BYTE   PATT
  POIN2 Label_015F7516
//  #12 //036   ----------------------------------------
 BYTE   PATT
  POIN2 Label_015F7516
//  #12 //037   ----------------------------------------
 BYTE   PATT
  POIN2 Label_015F7516
//  #12 //038   ----------------------------------------
 BYTE   PATT
  POIN2 Label_015F7516
//  #12 //039   ----------------------------------------
 BYTE   PATT
  POIN2 Label_015F7516
//  #12 //040   ----------------------------------------
 BYTE   PATT
  POIN2 Label_015F7516
//  #12 //041   ----------------------------------------
 BYTE   PATT
  POIN2 Label_015F7516
//  #12 //042   ----------------------------------------
 BYTE   PATT
  POIN2 Label_015F7516
//  #12 //043   ----------------------------------------
 BYTE   PATT
  POIN2 Label_015F7516
//  #12 //044   ----------------------------------------
 BYTE   PATT
  POIN2 Label_015F7516
//  #12 //045   ----------------------------------------
 BYTE   PATT
  POIN2 Label_015F7516
//  #12 //046   ----------------------------------------
 BYTE   PATT
  POIN2 Label_015F7516
//  #12 //047   ----------------------------------------
 BYTE   PATT
  POIN2 Label_015F7516
//  #12 //048   ----------------------------------------
 BYTE   PATT
  POIN2 Label_015F7516
//  #12 //049   ----------------------------------------
 BYTE   W96
//  #12 //050   ----------------------------------------
 BYTE   W96
//  #12 //051   ----------------------------------------
 BYTE   W96
//  #12 //052   ----------------------------------------
 BYTE   W96
//  #12 //053   ----------------------------------------
 BYTE   W96
//  #12 //054   ----------------------------------------
 BYTE   W96
//  #12 //055   ----------------------------------------
 BYTE   W96
//  #12 //056   ----------------------------------------
 BYTE   W96
//  #12 //057   ----------------------------------------
 BYTE   W96
//  #12 //058   ----------------------------------------
 BYTE   W96
//  #12 //059   ----------------------------------------
 BYTE   W92
 BYTE   W03
 BYTE   GoTo
  POIN2 Label_015F753B
 BYTE   FINE

//******************************************************//
	ALIGN 4

song45:
	BYTE	12	// NumTrks
	BYTE	0	// NumBlks
	BYTE	song45_pri	// Priority
	BYTE	song45_rev	// Reverb.
    
	POIN2	song45_grp
    
	POIN2	song45_001
	POIN2	song45_002
	POIN2	song45_003
	POIN2	song45_004
	POIN2	song45_005
	POIN2	song45_006
	POIN2	song45_007
	POIN2	song45_008
	POIN2	song45_009
	POIN2	song45_010
	POIN2	song45_011
	POIN2	song45_012

	
