//Event file generated from Sappy .s format.
	#include "MPlayDef.event"

	#define	song2F_grp  voicegroup000
	#define	song2F_pri  0
	#define	song2F_rev  0
	#define	song2F_mvl  127
	#define	song2F_key  0
	#define	song2F_tbs  1
	#define	song2F_exg  0
	#define	song2F_cmp  1

	// .rodata
	//	song2F
	ALIGN 4


//**************** Track 1 (Midi-Chn.0) ****************//

song2F_001:
//  #01 //000   ----------------------------------------
 BYTE   KEYSH   song2F_key+0
Label_018189AE:
 BYTE   TEMPO   120*song2F_tbs/2
 BYTE   VOICE   45
 BYTE   VOL   19*song2F_mvl/mxv
 BYTE   PAN   c_v-40
 BYTE   N11  As2  v100
 BYTE   W12
 BYTE   N24  Ds3
 BYTE   W24
 BYTE   N11  As2
 BYTE   W12
 BYTE   N12  Fn3
 BYTE   W12
 BYTE   N11  As2
 BYTE   W12
 BYTE   Ds3
 BYTE   W12
 BYTE   N12  As2
 BYTE   W12
//  #01 //001   ----------------------------------------
 BYTE   N11  Fn3
 BYTE   W12
 BYTE   N12  As2
 BYTE   W12
 BYTE   N24  Gs3
 BYTE   W24
Label_018189D4:
 BYTE   N11  As2  v100
 BYTE   W12
 BYTE   N24  Ds3
 BYTE   W24
 BYTE   N11  As2
 BYTE   W12
//  #01 //002   ----------------------------------------
 BYTE   N12  Fn3
 BYTE   W12
 BYTE   N11  As2
 BYTE   W12
 BYTE   Ds3
 BYTE   W12
 BYTE   N12  As2
 BYTE   W12
 BYTE   N11  Fn3
 BYTE   W12
 BYTE   N12  As2
 BYTE   W12
 BYTE   N24  Fs3
 BYTE   W24
 BYTE   PEND 
//  #01 //003   ----------------------------------------
Label_018189F3:
 BYTE   N11  As2  v100
 BYTE   W12
 BYTE   N24  Ds3
 BYTE   W24
 BYTE   N11  As2
 BYTE   W12
 BYTE   N12  Fn3
 BYTE   W12
 BYTE   N11  As2
 BYTE   W12
 BYTE   Ds3
 BYTE   W12
 BYTE   N12  As2
 BYTE   W12
//  #01 //004   ----------------------------------------
 BYTE   N11  Fn3
 BYTE   W12
 BYTE   N12  As2
 BYTE   W12
 BYTE   N24  Gs3
 BYTE   W24
 BYTE   PEND 
//  #01 //005   ----------------------------------------
 BYTE   PATT
  POIN2 Label_018189D4
//  #01 //006   ----------------------------------------
 BYTE   PATT
  POIN2 Label_018189F3
//  #01 //007   ----------------------------------------
 BYTE   PATT
  POIN2 Label_018189D4
//  #01 //008   ----------------------------------------
 BYTE   PATT
  POIN2 Label_018189F3
//  #01 //009   ----------------------------------------
 BYTE   PATT
  POIN2 Label_018189D4
//  #01 //010   ----------------------------------------
 BYTE   PATT
  POIN2 Label_018189F3
//  #01 //011   ----------------------------------------
 BYTE   PATT
  POIN2 Label_018189D4
//  #01 //012   ----------------------------------------
 BYTE   PATT
  POIN2 Label_018189F3
//  #01 //013   ----------------------------------------
 BYTE   PATT
  POIN2 Label_018189D4
//  #01 //014   ----------------------------------------
 BYTE   PATT
  POIN2 Label_018189F3
//  #01 //015   ----------------------------------------
 BYTE   PATT
  POIN2 Label_018189D4
//  #01 //016   ----------------------------------------
 BYTE   PATT
  POIN2 Label_018189F3
//  #01 //017   ----------------------------------------
 BYTE   PATT
  POIN2 Label_018189D4
//  #01 //018   ----------------------------------------
 BYTE   PATT
  POIN2 Label_018189F3
//  #01 //019   ----------------------------------------
 BYTE   PATT
  POIN2 Label_018189D4
//  #01 //020   ----------------------------------------
 BYTE   PATT
  POIN2 Label_018189F3
//  #01 //021   ----------------------------------------
 BYTE   PATT
  POIN2 Label_018189D4
//  #01 //022   ----------------------------------------
 BYTE   PATT
  POIN2 Label_018189F3
//  #01 //023   ----------------------------------------
 BYTE   PATT
  POIN2 Label_018189D4
//  #01 //024   ----------------------------------------
 BYTE   PATT
  POIN2 Label_018189F3
//  #01 //025   ----------------------------------------
 BYTE   PATT
  POIN2 Label_018189D4
//  #01 //026   ----------------------------------------
Label_01818A7B:
 BYTE   N11  Bn2  v100
 BYTE   W12
 BYTE   N24  En3
 BYTE   W24
 BYTE   N11  Bn2
 BYTE   W12
 BYTE   N12  Fs3
 BYTE   W12
 BYTE   N11  Bn2
 BYTE   W12
 BYTE   En3
 BYTE   W12
 BYTE   N12  Bn2
 BYTE   W12
//  #01 //027   ----------------------------------------
 BYTE   N11  Fs3
 BYTE   W12
 BYTE   N12  Bn2
 BYTE   W12
 BYTE   N24  An3
 BYTE   W24
 BYTE   PEND 
Label_01818A9A:
 BYTE   N11  Bn2  v100
 BYTE   W12
 BYTE   N24  En3
 BYTE   W24
 BYTE   N11  Bn2
 BYTE   W12
//  #01 //028   ----------------------------------------
 BYTE   N12  Fs3
 BYTE   W12
 BYTE   N11  Bn2
 BYTE   W12
 BYTE   En3
 BYTE   W12
 BYTE   N12  Bn2
 BYTE   W12
 BYTE   N11  Fs3
 BYTE   W12
 BYTE   N12  Bn2
 BYTE   W12
 BYTE   N24  Gn3
 BYTE   W24
 BYTE   PEND 
//  #01 //029   ----------------------------------------
 BYTE   PATT
  POIN2 Label_01818A7B
//  #01 //030   ----------------------------------------
 BYTE   PATT
  POIN2 Label_01818A9A
//  #01 //031   ----------------------------------------
 BYTE   PATT
  POIN2 Label_018189F3
//  #01 //032   ----------------------------------------
 BYTE   PATT
  POIN2 Label_018189D4
//  #01 //033   ----------------------------------------
 BYTE   PATT
  POIN2 Label_018189F3
//  #01 //034   ----------------------------------------
 BYTE   PATT
  POIN2 Label_018189D4
//  #01 //035   ----------------------------------------
 BYTE   PATT
  POIN2 Label_01818A7B
//  #01 //036   ----------------------------------------
 BYTE   PATT
  POIN2 Label_01818A9A
//  #01 //037   ----------------------------------------
 BYTE   PATT
  POIN2 Label_01818A7B
//  #01 //038   ----------------------------------------
 BYTE   PATT
  POIN2 Label_01818A9A
//  #01 //039   ----------------------------------------
 BYTE   PATT
  POIN2 Label_018189F3
//  #01 //040   ----------------------------------------
 BYTE   PATT
  POIN2 Label_018189D4
//  #01 //041   ----------------------------------------
 BYTE   PATT
  POIN2 Label_018189F3
//  #01 //042   ----------------------------------------
 BYTE   PATT
  POIN2 Label_018189D4
//  #01 //043   ----------------------------------------
 BYTE   PATT
  POIN2 Label_01818A7B
//  #01 //044   ----------------------------------------
 BYTE   PATT
  POIN2 Label_01818A9A
//  #01 //045   ----------------------------------------
 BYTE   PATT
  POIN2 Label_01818A7B
//  #01 //046   ----------------------------------------
 BYTE   PATT
  POIN2 Label_01818A9A
//  #01 //047   ----------------------------------------
 BYTE   PATT
  POIN2 Label_018189F3
//  #01 //048   ----------------------------------------
 BYTE   PATT
  POIN2 Label_018189D4
//  #01 //049   ----------------------------------------
 BYTE   PATT
  POIN2 Label_018189F3
//  #01 //050   ----------------------------------------
 BYTE   PATT
  POIN2 Label_018189D4
//  #01 //051   ----------------------------------------
 BYTE   PATT
  POIN2 Label_01818A7B
//  #01 //052   ----------------------------------------
 BYTE   PATT
  POIN2 Label_01818A9A
//  #01 //053   ----------------------------------------
 BYTE   PATT
  POIN2 Label_01818A7B
//  #01 //054   ----------------------------------------
 BYTE   PATT
  POIN2 Label_01818A9A
//  #01 //055   ----------------------------------------
 BYTE   PATT
  POIN2 Label_018189F3
//  #01 //056   ----------------------------------------
 BYTE   PATT
  POIN2 Label_018189D4
//  #01 //057   ----------------------------------------
 BYTE   PATT
  POIN2 Label_018189F3
//  #01 //058   ----------------------------------------
 BYTE   PATT
  POIN2 Label_018189D4
//  #01 //059   ----------------------------------------
 BYTE   PATT
  POIN2 Label_01818A7B
//  #01 //060   ----------------------------------------
 BYTE   PATT
  POIN2 Label_01818A9A
//  #01 //061   ----------------------------------------
 BYTE   PATT
  POIN2 Label_01818A7B
//  #01 //062   ----------------------------------------
 BYTE   PATT
  POIN2 Label_01818A9A
//  #01 //063   ----------------------------------------
 BYTE   W96
//  #01 //064   ----------------------------------------
 BYTE   W48
 BYTE   W96
//  #01 //065   ----------------------------------------
 BYTE   W48
 BYTE   W96
//  #01 //066   ----------------------------------------
 BYTE   W48
 BYTE   W96
//  #01 //067   ----------------------------------------
 BYTE   W48
 BYTE   W96
//  #01 //068   ----------------------------------------
 BYTE   W48
 BYTE   W96
//  #01 //069   ----------------------------------------
 BYTE   W48
 BYTE   W96
//  #01 //070   ----------------------------------------
 BYTE   W48
 BYTE   W96
//  #01 //071   ----------------------------------------
 BYTE   W48
 BYTE   GoTo
  POIN2 Label_018189AE
 BYTE   FINE

//**************** Track 2 (Midi-Chn.1) ****************//

song2F_002:
//  #02 //000   ----------------------------------------
 BYTE   KEYSH   song2F_key+0
Label_018191BA:
 BYTE   VOICE   13
 BYTE   VOL   34*song2F_mvl/mxv
 BYTE   PAN   c_v-40
 BYTE   N08  As3  v100
 BYTE   W12
 BYTE   N18  Ds4
 BYTE   W24
 BYTE   N08  As3
 BYTE   W12
 BYTE   N09  Fn4
 BYTE   W12
 BYTE   N08  As3
 BYTE   W12
 BYTE   Ds4
 BYTE   W12
 BYTE   N09  As3
 BYTE   W12
//  #02 //001   ----------------------------------------
 BYTE   N08  Fn4
 BYTE   W12
 BYTE   N09  As3
 BYTE   W12
 BYTE   N18  Gs4
 BYTE   W24
Label_018191DE:
 BYTE   N08  As3  v100
 BYTE   W12
 BYTE   N18  Ds4
 BYTE   W24
 BYTE   N08  As3
 BYTE   W12
//  #02 //002   ----------------------------------------
 BYTE   N09  Fn4
 BYTE   W12
 BYTE   N08  As3
 BYTE   W12
 BYTE   Ds4
 BYTE   W12
 BYTE   N09  As3
 BYTE   W12
 BYTE   N08  Fn4
 BYTE   W12
 BYTE   N09  As3
 BYTE   W12
 BYTE   N18  Fs4
 BYTE   W24
 BYTE   PEND 
//  #02 //003   ----------------------------------------
Label_018191FD:
 BYTE   N08  As3  v100
 BYTE   W12
 BYTE   N18  Ds4
 BYTE   W24
 BYTE   N08  As3
 BYTE   W12
 BYTE   N09  Fn4
 BYTE   W12
 BYTE   N08  As3
 BYTE   W12
 BYTE   Ds4
 BYTE   W12
 BYTE   N09  As3
 BYTE   W12
//  #02 //004   ----------------------------------------
 BYTE   N08  Fn4
 BYTE   W12
 BYTE   N09  As3
 BYTE   W12
 BYTE   N18  Gs4
 BYTE   W24
 BYTE   PEND 
//  #02 //005   ----------------------------------------
 BYTE   PATT
  POIN2 Label_018191DE
//  #02 //006   ----------------------------------------
 BYTE   PATT
  POIN2 Label_018191FD
//  #02 //007   ----------------------------------------
 BYTE   PATT
  POIN2 Label_018191DE
//  #02 //008   ----------------------------------------
 BYTE   PATT
  POIN2 Label_018191FD
//  #02 //009   ----------------------------------------
 BYTE   PATT
  POIN2 Label_018191DE
//  #02 //010   ----------------------------------------
 BYTE   PATT
  POIN2 Label_018191FD
//  #02 //011   ----------------------------------------
 BYTE   PATT
  POIN2 Label_018191DE
//  #02 //012   ----------------------------------------
 BYTE   PATT
  POIN2 Label_018191FD
//  #02 //013   ----------------------------------------
 BYTE   PATT
  POIN2 Label_018191DE
//  #02 //014   ----------------------------------------
 BYTE   PATT
  POIN2 Label_018191FD
//  #02 //015   ----------------------------------------
 BYTE   PATT
  POIN2 Label_018191DE
//  #02 //016   ----------------------------------------
 BYTE   PATT
  POIN2 Label_018191FD
//  #02 //017   ----------------------------------------
 BYTE   PATT
  POIN2 Label_018191DE
//  #02 //018   ----------------------------------------
 BYTE   PATT
  POIN2 Label_018191FD
//  #02 //019   ----------------------------------------
 BYTE   PATT
  POIN2 Label_018191DE
//  #02 //020   ----------------------------------------
 BYTE   PATT
  POIN2 Label_018191FD
//  #02 //021   ----------------------------------------
 BYTE   PATT
  POIN2 Label_018191DE
//  #02 //022   ----------------------------------------
 BYTE   PATT
  POIN2 Label_018191FD
//  #02 //023   ----------------------------------------
 BYTE   PATT
  POIN2 Label_018191DE
//  #02 //024   ----------------------------------------
 BYTE   PATT
  POIN2 Label_018191FD
//  #02 //025   ----------------------------------------
 BYTE   PATT
  POIN2 Label_018191DE
//  #02 //026   ----------------------------------------
Label_01819285:
 BYTE   N08  Bn3  v100
 BYTE   W12
 BYTE   N18  En4
 BYTE   W24
 BYTE   N08  Bn3
 BYTE   W12
 BYTE   N09  Fs4
 BYTE   W12
 BYTE   N08  Bn3
 BYTE   W12
 BYTE   En4
 BYTE   W12
 BYTE   N09  Bn3
 BYTE   W12
//  #02 //027   ----------------------------------------
 BYTE   N08  Fs4
 BYTE   W12
 BYTE   N09  Bn3
 BYTE   W12
 BYTE   N18  An4
 BYTE   W24
 BYTE   PEND 
Label_018192A4:
 BYTE   N08  Bn3  v100
 BYTE   W12
 BYTE   N18  En4
 BYTE   W24
 BYTE   N08  Bn3
 BYTE   W12
//  #02 //028   ----------------------------------------
 BYTE   N09  Fs4
 BYTE   W12
 BYTE   N08  Bn3
 BYTE   W12
 BYTE   En4
 BYTE   W12
 BYTE   N09  Bn3
 BYTE   W12
 BYTE   N08  Fs4
 BYTE   W12
 BYTE   N09  Bn3
 BYTE   W12
 BYTE   N18  Gn4
 BYTE   W24
 BYTE   PEND 
//  #02 //029   ----------------------------------------
 BYTE   PATT
  POIN2 Label_01819285
//  #02 //030   ----------------------------------------
 BYTE   PATT
  POIN2 Label_018192A4
//  #02 //031   ----------------------------------------
 BYTE   PATT
  POIN2 Label_018191FD
//  #02 //032   ----------------------------------------
 BYTE   PATT
  POIN2 Label_018191DE
//  #02 //033   ----------------------------------------
 BYTE   PATT
  POIN2 Label_018191FD
//  #02 //034   ----------------------------------------
 BYTE   PATT
  POIN2 Label_018191DE
//  #02 //035   ----------------------------------------
 BYTE   PATT
  POIN2 Label_01819285
//  #02 //036   ----------------------------------------
 BYTE   PATT
  POIN2 Label_018192A4
//  #02 //037   ----------------------------------------
 BYTE   PATT
  POIN2 Label_01819285
//  #02 //038   ----------------------------------------
 BYTE   PATT
  POIN2 Label_018192A4
//  #02 //039   ----------------------------------------
 BYTE   PATT
  POIN2 Label_018191FD
//  #02 //040   ----------------------------------------
 BYTE   PATT
  POIN2 Label_018191DE
//  #02 //041   ----------------------------------------
 BYTE   PATT
  POIN2 Label_018191FD
//  #02 //042   ----------------------------------------
 BYTE   PATT
  POIN2 Label_018191DE
//  #02 //043   ----------------------------------------
 BYTE   PATT
  POIN2 Label_01819285
//  #02 //044   ----------------------------------------
 BYTE   PATT
  POIN2 Label_018192A4
//  #02 //045   ----------------------------------------
 BYTE   PATT
  POIN2 Label_01819285
//  #02 //046   ----------------------------------------
 BYTE   PATT
  POIN2 Label_018192A4
//  #02 //047   ----------------------------------------
 BYTE   PATT
  POIN2 Label_018191FD
//  #02 //048   ----------------------------------------
 BYTE   PATT
  POIN2 Label_018191DE
//  #02 //049   ----------------------------------------
 BYTE   PATT
  POIN2 Label_018191FD
//  #02 //050   ----------------------------------------
 BYTE   PATT
  POIN2 Label_018191DE
//  #02 //051   ----------------------------------------
 BYTE   PATT
  POIN2 Label_01819285
//  #02 //052   ----------------------------------------
 BYTE   PATT
  POIN2 Label_018192A4
//  #02 //053   ----------------------------------------
 BYTE   PATT
  POIN2 Label_01819285
//  #02 //054   ----------------------------------------
 BYTE   PATT
  POIN2 Label_018192A4
//  #02 //055   ----------------------------------------
 BYTE   PATT
  POIN2 Label_018191FD
//  #02 //056   ----------------------------------------
 BYTE   PATT
  POIN2 Label_018191DE
//  #02 //057   ----------------------------------------
 BYTE   PATT
  POIN2 Label_018191FD
//  #02 //058   ----------------------------------------
 BYTE   PATT
  POIN2 Label_018191DE
//  #02 //059   ----------------------------------------
 BYTE   PATT
  POIN2 Label_01819285
//  #02 //060   ----------------------------------------
 BYTE   PATT
  POIN2 Label_018192A4
//  #02 //061   ----------------------------------------
 BYTE   PATT
  POIN2 Label_01819285
//  #02 //062   ----------------------------------------
 BYTE   PATT
  POIN2 Label_018192A4
//  #02 //063   ----------------------------------------
 BYTE   W96
//  #02 //064   ----------------------------------------
 BYTE   W48
 BYTE   W96
//  #02 //065   ----------------------------------------
 BYTE   W48
 BYTE   W96
//  #02 //066   ----------------------------------------
 BYTE   W48
 BYTE   W96
//  #02 //067   ----------------------------------------
 BYTE   W48
 BYTE   W96
//  #02 //068   ----------------------------------------
 BYTE   W48
 BYTE   W96
//  #02 //069   ----------------------------------------
 BYTE   W48
 BYTE   N24  Cs3  v127
 BYTE   N32  Fn3
 BYTE   W24
 BYTE   N96  Ds3
 BYTE   W12
 BYTE   N36  Fn3
 BYTE   W36
//  #02 //070   ----------------------------------------
 BYTE   Gs3
 BYTE   W36
 BYTE   As3
 BYTE   W12
 BYTE   N24  Fn3
 BYTE   W24
 BYTE   Cs3
 BYTE   N01  Fn3
 BYTE   W24
//  #02 //071   ----------------------------------------
 BYTE   N56  Ds3
 BYTE   W12
 BYTE   N36  Fn3
 BYTE   W36
 BYTE   N06  Fs3
 BYTE   W06
 BYTE   Fn3
 BYTE   W06
 BYTE   N12  Ds3
 BYTE   W60
//  #02 //072   ----------------------------------------
 BYTE   GoTo
  POIN2 Label_018191BA
 BYTE   FINE

//**************** Track 3 (Midi-Chn.2) ****************//

song2F_003:
//  #03 //000   ----------------------------------------
 BYTE   KEYSH   song2F_key+0
Label_0181880A:
 BYTE   VOICE   34
 BYTE   VOL   29*song2F_mvl/mxv
 BYTE   PAN   c_v-15
 BYTE   W96
//  #03 //001   ----------------------------------------
 BYTE   W48
 BYTE   W96
//  #03 //002   ----------------------------------------
 BYTE   W48
 BYTE   W96
//  #03 //003   ----------------------------------------
 BYTE   W48
 BYTE   W96
//  #03 //004   ----------------------------------------
 BYTE   W48
Label_01818818:
 BYTE   N12  As0  v100
 BYTE   W12
 BYTE   N12
 BYTE   W12
 BYTE   Cs2
 BYTE   W12
 BYTE   Cn2
 BYTE   W24
//  #03 //005   ----------------------------------------
 BYTE   Fn1
 BYTE   W24
 BYTE   Gs1
 BYTE   W24
 BYTE   As1
 BYTE   W12
 BYTE   Fn1
 BYTE   W24
 BYTE   PEND 
Label_0181882B:
 BYTE   N12  As0  v100
 BYTE   W12
//  #03 //006   ----------------------------------------
 BYTE   N12
 BYTE   W12
 BYTE   Cs2
 BYTE   W12
 BYTE   Cn2
 BYTE   W24
 BYTE   Fn1
 BYTE   W24
 BYTE   Gs1
 BYTE   W24
//  #03 //007   ----------------------------------------
 BYTE   N36  As1
 BYTE   W36
 BYTE   PEND 
//  #03 //008   ----------------------------------------
 BYTE   PATT
  POIN2 Label_01818818
//  #03 //009   ----------------------------------------
 BYTE   PATT
  POIN2 Label_0181882B
//  #03 //010   ----------------------------------------
 BYTE   PATT
  POIN2 Label_01818818
//  #03 //011   ----------------------------------------
 BYTE   PATT
  POIN2 Label_0181882B
//  #03 //012   ----------------------------------------
 BYTE   PATT
  POIN2 Label_01818818
//  #03 //013   ----------------------------------------
 BYTE   PATT
  POIN2 Label_0181882B
//  #03 //014   ----------------------------------------
 BYTE   PATT
  POIN2 Label_01818818
//  #03 //015   ----------------------------------------
 BYTE   PATT
  POIN2 Label_0181882B
//  #03 //016   ----------------------------------------
 BYTE   PATT
  POIN2 Label_01818818
//  #03 //017   ----------------------------------------
 BYTE   PATT
  POIN2 Label_0181882B
//  #03 //018   ----------------------------------------
 BYTE   PATT
  POIN2 Label_01818818
//  #03 //019   ----------------------------------------
 BYTE   PATT
  POIN2 Label_0181882B
//  #03 //020   ----------------------------------------
 BYTE   PATT
  POIN2 Label_01818818
//  #03 //021   ----------------------------------------
 BYTE   PATT
  POIN2 Label_0181882B
//  #03 //022   ----------------------------------------
 BYTE   PATT
  POIN2 Label_01818818
//  #03 //023   ----------------------------------------
 BYTE   PATT
  POIN2 Label_0181882B
//  #03 //024   ----------------------------------------
 BYTE   PATT
  POIN2 Label_01818818
//  #03 //025   ----------------------------------------
 BYTE   PATT
  POIN2 Label_0181882B
//  #03 //026   ----------------------------------------
Label_01818897:
 BYTE   N12  Bn0  v100
 BYTE   W12
 BYTE   N12
 BYTE   W12
 BYTE   Dn2
 BYTE   W12
 BYTE   Cs2
 BYTE   W24
 BYTE   Fs1
 BYTE   W24
 BYTE   An1
 BYTE   W24
//  #03 //027   ----------------------------------------
 BYTE   Bn1
 BYTE   W12
 BYTE   Fs1
 BYTE   W24
 BYTE   PEND 
Label_018188AA:
 BYTE   N12  Bn0  v100
 BYTE   W12
 BYTE   N12
 BYTE   W12
 BYTE   Dn2
 BYTE   W12
 BYTE   Cs2
 BYTE   W24
//  #03 //028   ----------------------------------------
 BYTE   Fs1
 BYTE   W24
 BYTE   An1
 BYTE   W24
 BYTE   N36  Bn1
 BYTE   W36
 BYTE   PEND 
//  #03 //029   ----------------------------------------
 BYTE   PATT
  POIN2 Label_01818897
//  #03 //030   ----------------------------------------
 BYTE   PATT
  POIN2 Label_018188AA
//  #03 //031   ----------------------------------------
 BYTE   PATT
  POIN2 Label_01818818
//  #03 //032   ----------------------------------------
 BYTE   PATT
  POIN2 Label_0181882B
//  #03 //033   ----------------------------------------
 BYTE   PATT
  POIN2 Label_01818818
//  #03 //034   ----------------------------------------
 BYTE   PATT
  POIN2 Label_0181882B
//  #03 //035   ----------------------------------------
 BYTE   PATT
  POIN2 Label_01818897
//  #03 //036   ----------------------------------------
 BYTE   PATT
  POIN2 Label_018188AA
//  #03 //037   ----------------------------------------
 BYTE   PATT
  POIN2 Label_01818897
//  #03 //038   ----------------------------------------
 BYTE   PATT
  POIN2 Label_018188AA
//  #03 //039   ----------------------------------------
 BYTE   PATT
  POIN2 Label_01818818
//  #03 //040   ----------------------------------------
 BYTE   PATT
  POIN2 Label_0181882B
//  #03 //041   ----------------------------------------
 BYTE   PATT
  POIN2 Label_01818818
//  #03 //042   ----------------------------------------
 BYTE   PATT
  POIN2 Label_0181882B
//  #03 //043   ----------------------------------------
 BYTE   PATT
  POIN2 Label_01818897
//  #03 //044   ----------------------------------------
 BYTE   PATT
  POIN2 Label_018188AA
//  #03 //045   ----------------------------------------
 BYTE   PATT
  POIN2 Label_01818897
//  #03 //046   ----------------------------------------
 BYTE   PATT
  POIN2 Label_018188AA
//  #03 //047   ----------------------------------------
 BYTE   PATT
  POIN2 Label_01818818
//  #03 //048   ----------------------------------------
 BYTE   PATT
  POIN2 Label_0181882B
//  #03 //049   ----------------------------------------
 BYTE   PATT
  POIN2 Label_01818818
//  #03 //050   ----------------------------------------
 BYTE   PATT
  POIN2 Label_0181882B
//  #03 //051   ----------------------------------------
 BYTE   PATT
  POIN2 Label_01818897
//  #03 //052   ----------------------------------------
 BYTE   PATT
  POIN2 Label_018188AA
//  #03 //053   ----------------------------------------
 BYTE   PATT
  POIN2 Label_01818897
//  #03 //054   ----------------------------------------
 BYTE   PATT
  POIN2 Label_018188AA
//  #03 //055   ----------------------------------------
 BYTE   PATT
  POIN2 Label_01818818
//  #03 //056   ----------------------------------------
 BYTE   PATT
  POIN2 Label_0181882B
//  #03 //057   ----------------------------------------
 BYTE   PATT
  POIN2 Label_01818818
//  #03 //058   ----------------------------------------
 BYTE   PATT
  POIN2 Label_0181882B
//  #03 //059   ----------------------------------------
 BYTE   PATT
  POIN2 Label_01818897
//  #03 //060   ----------------------------------------
 BYTE   PATT
  POIN2 Label_018188AA
//  #03 //061   ----------------------------------------
 BYTE   PATT
  POIN2 Label_01818897
//  #03 //062   ----------------------------------------
 BYTE   PATT
  POIN2 Label_018188AA
//  #03 //063   ----------------------------------------
 BYTE   W96
//  #03 //064   ----------------------------------------
 BYTE   W48
 BYTE   W96
//  #03 //065   ----------------------------------------
 BYTE   W48
 BYTE   W96
//  #03 //066   ----------------------------------------
 BYTE   W48
 BYTE   W96
//  #03 //067   ----------------------------------------
 BYTE   W48
 BYTE   W96
//  #03 //068   ----------------------------------------
 BYTE   W48
 BYTE   W96
//  #03 //069   ----------------------------------------
 BYTE   W48
 BYTE   W96
//  #03 //070   ----------------------------------------
 BYTE   W48
 BYTE   W96
//  #03 //071   ----------------------------------------
 BYTE   W48
 BYTE   GoTo
  POIN2 Label_0181880A
 BYTE   FINE

//**************** Track 4 (Midi-Chn.3) ****************//

song2F_004:
//  #04 //000   ----------------------------------------
 BYTE   KEYSH   song2F_key+0
Label_017F679A:
 BYTE   VOICE   75
 BYTE   VOL   30*song2F_mvl/mxv
 BYTE   PAN   c_v-20
 BYTE   W96
//  #04 //001   ----------------------------------------
 BYTE   W48
 BYTE   W96
//  #04 //002   ----------------------------------------
 BYTE   W48
 BYTE   W96
//  #04 //003   ----------------------------------------
 BYTE   W48
 BYTE   W96
//  #04 //004   ----------------------------------------
 BYTE   W48
 BYTE   W96
//  #04 //005   ----------------------------------------
 BYTE   W48
 BYTE   W96
//  #04 //006   ----------------------------------------
 BYTE   W48
 BYTE   W96
//  #04 //007   ----------------------------------------
 BYTE   W48
 BYTE   W96
//  #04 //008   ----------------------------------------
 BYTE   W48
Label_017F67B0:
 BYTE   N06  Cn4  v100
 BYTE   W24
 BYTE   Cs4
 BYTE   W12
 BYTE   As3
 BYTE   W24
//  #04 //009   ----------------------------------------
 BYTE   Cn4
 BYTE   W24
 BYTE   Gs3
 BYTE   W24
 BYTE   As3
 BYTE   W12
 BYTE   Ds4
 BYTE   W24
 BYTE   PEND 
Label_017F67C1:
 BYTE   N06  Cn4  v100
 BYTE   W24
//  #04 //010   ----------------------------------------
 BYTE   Cs4
 BYTE   W12
 BYTE   As3
 BYTE   W24
 BYTE   Cn4
 BYTE   W24
 BYTE   Gs3
 BYTE   W24
 BYTE   As3
 BYTE   W36
 BYTE   PEND 
//  #04 //011   ----------------------------------------
 BYTE   PATT
  POIN2 Label_017F67B0
//  #04 //012   ----------------------------------------
 BYTE   PATT
  POIN2 Label_017F67C1
//  #04 //013   ----------------------------------------
Label_017F67DA:
 BYTE   N06  Gs3  v100
 BYTE   N06  Cn4
 BYTE   W24
 BYTE   As3
 BYTE   N06  Cs4
 BYTE   W12
 BYTE   Fn3
 BYTE   N06  As3
 BYTE   W24
 BYTE   Ds3
 BYTE   N06  Cn4
 BYTE   W12
 BYTE   Cs4
 BYTE   W12
 BYTE   Gs3
 BYTE   W12
//  #04 //014   ----------------------------------------
 BYTE   Cn4
 BYTE   W12
 BYTE   As3
 BYTE   W12
 BYTE   Ds4
 BYTE   W24
 BYTE   PEND 
Label_017F67F7:
 BYTE   N06  Gs3  v100
 BYTE   N06  Cn4
 BYTE   W24
 BYTE   As3
 BYTE   N06  Cs4
 BYTE   W12
 BYTE   Fn3
 BYTE   N06  As3
 BYTE   W24
//  #04 //015   ----------------------------------------
 BYTE   Ds3
 BYTE   N06  Cn4
 BYTE   W12
 BYTE   Cs4
 BYTE   W12
 BYTE   Gs3
 BYTE   W12
 BYTE   Cn4
 BYTE   W12
 BYTE   As3
 BYTE   W36
 BYTE   PEND 
//  #04 //016   ----------------------------------------
 BYTE   PATT
  POIN2 Label_017F67DA
//  #04 //017   ----------------------------------------
 BYTE   PATT
  POIN2 Label_017F67F7
//  #04 //018   ----------------------------------------
 BYTE   PATT
  POIN2 Label_017F67DA
//  #04 //019   ----------------------------------------
 BYTE   PATT
  POIN2 Label_017F67F7
//  #04 //020   ----------------------------------------
 BYTE   PATT
  POIN2 Label_017F67DA
//  #04 //021   ----------------------------------------
 BYTE   PATT
  POIN2 Label_017F67F7
//  #04 //022   ----------------------------------------
 BYTE   PATT
  POIN2 Label_017F67DA
//  #04 //023   ----------------------------------------
 BYTE   PATT
  POIN2 Label_017F67F7
//  #04 //024   ----------------------------------------
 BYTE   PATT
  POIN2 Label_017F67DA
//  #04 //025   ----------------------------------------
 BYTE   PATT
  POIN2 Label_017F67F7
//  #04 //026   ----------------------------------------
Label_017F6844:
 BYTE   N06  An3  v100
 BYTE   N06  Cs4
 BYTE   W24
 BYTE   Bn3
 BYTE   N06  Dn4
 BYTE   W12
 BYTE   Fs3
 BYTE   N06  Bn3
 BYTE   W24
 BYTE   En3
 BYTE   N06  Cs4
 BYTE   W12
 BYTE   Dn4
 BYTE   W12
 BYTE   An3
 BYTE   W12
//  #04 //027   ----------------------------------------
 BYTE   Cs4
 BYTE   W12
 BYTE   Bn3
 BYTE   W12
 BYTE   En4
 BYTE   W24
 BYTE   PEND 
Label_017F6861:
 BYTE   N06  An3  v100
 BYTE   N06  Cs4
 BYTE   W24
 BYTE   Bn3
 BYTE   N06  Dn4
 BYTE   W12
 BYTE   Fs3
 BYTE   N06  Bn3
 BYTE   W24
//  #04 //028   ----------------------------------------
 BYTE   En3
 BYTE   N06  Cs4
 BYTE   W12
 BYTE   Dn4
 BYTE   W12
 BYTE   An3
 BYTE   W12
 BYTE   Cs4
 BYTE   W12
 BYTE   Bn3
 BYTE   W36
 BYTE   PEND 
//  #04 //029   ----------------------------------------
 BYTE   PATT
  POIN2 Label_017F6844
//  #04 //030   ----------------------------------------
 BYTE   PATT
  POIN2 Label_017F6861
//  #04 //031   ----------------------------------------
 BYTE   PATT
  POIN2 Label_017F67DA
//  #04 //032   ----------------------------------------
 BYTE   PATT
  POIN2 Label_017F67F7
//  #04 //033   ----------------------------------------
 BYTE   PATT
  POIN2 Label_017F67DA
//  #04 //034   ----------------------------------------
 BYTE   PATT
  POIN2 Label_017F67F7
//  #04 //035   ----------------------------------------
 BYTE   PATT
  POIN2 Label_017F6844
//  #04 //036   ----------------------------------------
 BYTE   PATT
  POIN2 Label_017F6861
//  #04 //037   ----------------------------------------
 BYTE   PATT
  POIN2 Label_017F6844
//  #04 //038   ----------------------------------------
 BYTE   PATT
  POIN2 Label_017F6861
//  #04 //039   ----------------------------------------
 BYTE   PATT
  POIN2 Label_017F67DA
//  #04 //040   ----------------------------------------
 BYTE   PATT
  POIN2 Label_017F67F7
//  #04 //041   ----------------------------------------
 BYTE   PATT
  POIN2 Label_017F67DA
//  #04 //042   ----------------------------------------
 BYTE   PATT
  POIN2 Label_017F67F7
//  #04 //043   ----------------------------------------
 BYTE   PATT
  POIN2 Label_017F6844
//  #04 //044   ----------------------------------------
 BYTE   PATT
  POIN2 Label_017F6861
//  #04 //045   ----------------------------------------
 BYTE   PATT
  POIN2 Label_017F6844
//  #04 //046   ----------------------------------------
 BYTE   PATT
  POIN2 Label_017F6861
//  #04 //047   ----------------------------------------
 BYTE   PATT
  POIN2 Label_017F67DA
//  #04 //048   ----------------------------------------
 BYTE   PATT
  POIN2 Label_017F67F7
//  #04 //049   ----------------------------------------
 BYTE   PATT
  POIN2 Label_017F67DA
//  #04 //050   ----------------------------------------
 BYTE   PATT
  POIN2 Label_017F67F7
//  #04 //051   ----------------------------------------
 BYTE   PATT
  POIN2 Label_017F6844
//  #04 //052   ----------------------------------------
 BYTE   PATT
  POIN2 Label_017F6861
//  #04 //053   ----------------------------------------
 BYTE   PATT
  POIN2 Label_017F6844
//  #04 //054   ----------------------------------------
 BYTE   PATT
  POIN2 Label_017F6861
//  #04 //055   ----------------------------------------
 BYTE   PATT
  POIN2 Label_017F67DA
//  #04 //056   ----------------------------------------
 BYTE   PATT
  POIN2 Label_017F67F7
//  #04 //057   ----------------------------------------
 BYTE   PATT
  POIN2 Label_017F67DA
//  #04 //058   ----------------------------------------
 BYTE   PATT
  POIN2 Label_017F67F7
//  #04 //059   ----------------------------------------
 BYTE   PATT
  POIN2 Label_017F6844
//  #04 //060   ----------------------------------------
 BYTE   PATT
  POIN2 Label_017F6861
//  #04 //061   ----------------------------------------
 BYTE   PATT
  POIN2 Label_017F6844
//  #04 //062   ----------------------------------------
 BYTE   PATT
  POIN2 Label_017F6861
//  #04 //063   ----------------------------------------
 BYTE   W96
//  #04 //064   ----------------------------------------
 BYTE   W48
 BYTE   W96
//  #04 //065   ----------------------------------------
 BYTE   W48
 BYTE   W96
//  #04 //066   ----------------------------------------
 BYTE   W48
 BYTE   W96
//  #04 //067   ----------------------------------------
 BYTE   W48
 BYTE   W96
//  #04 //068   ----------------------------------------
 BYTE   W48
 BYTE   W96
//  #04 //069   ----------------------------------------
 BYTE   W48
 BYTE   W96
//  #04 //070   ----------------------------------------
 BYTE   W48
 BYTE   W96
//  #04 //071   ----------------------------------------
 BYTE   W48
 BYTE   GoTo
  POIN2 Label_017F679A
 BYTE   FINE

//**************** Track 5 (Midi-Chn.4) ****************//

song2F_005:
//  #05 //000   ----------------------------------------
 BYTE   KEYSH   song2F_key+0
Label_018197C6:
 BYTE   VOICE   14
 BYTE   VOL   24*song2F_mvl/mxv
 BYTE   PAN   c_v+60
 BYTE   W96
//  #05 //001   ----------------------------------------
 BYTE   W48
 BYTE   W96
//  #05 //002   ----------------------------------------
 BYTE   W48
 BYTE   W96
//  #05 //003   ----------------------------------------
 BYTE   W48
 BYTE   W96
//  #05 //004   ----------------------------------------
 BYTE   W48
 BYTE   W96
//  #05 //005   ----------------------------------------
 BYTE   W48
 BYTE   W96
//  #05 //006   ----------------------------------------
 BYTE   W48
 BYTE   W96
//  #05 //007   ----------------------------------------
 BYTE   W48
 BYTE   W96
//  #05 //008   ----------------------------------------
 BYTE   W48
 BYTE   W96
//  #05 //009   ----------------------------------------
 BYTE   W48
 BYTE   W96
//  #05 //010   ----------------------------------------
 BYTE   W48
 BYTE   W96
//  #05 //011   ----------------------------------------
 BYTE   W48
 BYTE   W96
//  #05 //012   ----------------------------------------
 BYTE   W48
Label_018197E4:
 BYTE   W24
 BYTE   TIE  As2  v100
 BYTE   TIE  As3
 BYTE   W96
//  #05 //013   ----------------------------------------
 BYTE   W24
 BYTE   PEND 
 BYTE   EOT
 BYTE   As2  v070
//  #05 //014   ----------------------------------------
 BYTE   PATT
  POIN2 Label_018197E4
//  #05 //015   ----------------------------------------
 BYTE   EOT
 BYTE   As2  v070
//  #05 //016   ----------------------------------------
 BYTE   PATT
  POIN2 Label_018197E4
//  #05 //017   ----------------------------------------
 BYTE   EOT
 BYTE   As2  v070
//  #05 //018   ----------------------------------------
 BYTE   PATT
  POIN2 Label_018197E4
//  #05 //019   ----------------------------------------
 BYTE   EOT
 BYTE   As2  v070
Label_01819808:
 BYTE   N24  As2  v127
 BYTE   W24
 BYTE   TIE  As2  v100
 BYTE   TIE  As3
 BYTE   W96
//  #05 //020   ----------------------------------------
 BYTE   W24
 BYTE   PEND 
 BYTE   EOT
 BYTE   As2  v070
//  #05 //021   ----------------------------------------
 BYTE   PATT
  POIN2 Label_018197E4
//  #05 //022   ----------------------------------------
 BYTE   EOT
 BYTE   As2  v070
//  #05 //023   ----------------------------------------
 BYTE   PATT
  POIN2 Label_01819808
//  #05 //024   ----------------------------------------
 BYTE   EOT
 BYTE   As2  v070
//  #05 //025   ----------------------------------------
 BYTE   PATT
  POIN2 Label_018197E4
//  #05 //026   ----------------------------------------
 BYTE   EOT
 BYTE   As2  v070
//  #05 //027   ----------------------------------------
 BYTE   PATT
  POIN2 Label_01819808
//  #05 //028   ----------------------------------------
 BYTE   EOT
 BYTE   As2  v070
//  #05 //029   ----------------------------------------
 BYTE   PATT
  POIN2 Label_018197E4
//  #05 //030   ----------------------------------------
 BYTE   EOT
 BYTE   As2  v070
//  #05 //031   ----------------------------------------
 BYTE   PATT
  POIN2 Label_01819808
//  #05 //032   ----------------------------------------
 BYTE   EOT
 BYTE   As2  v070
//  #05 //033   ----------------------------------------
 BYTE   PATT
  POIN2 Label_018197E4
//  #05 //034   ----------------------------------------
 BYTE   EOT
 BYTE   As2  v070
Label_0181984F:
 BYTE   N24  Bn2  v127
 BYTE   W24
 BYTE   TIE  Bn2  v100
 BYTE   TIE  Bn3
 BYTE   W96
//  #05 //035   ----------------------------------------
 BYTE   W24
 BYTE   PEND 
 BYTE   EOT
 BYTE   Bn2  v071
Label_0181985E:
 BYTE   W24
 BYTE   TIE  Bn2  v100
 BYTE   TIE  Bn3
 BYTE   W96
//  #05 //036   ----------------------------------------
 BYTE   W24
 BYTE   PEND 
 BYTE   EOT
 BYTE   Bn2  v071
//  #05 //037   ----------------------------------------
 BYTE   PATT
  POIN2 Label_0181984F
//  #05 //038   ----------------------------------------
 BYTE   EOT
 BYTE   Bn2  v071
//  #05 //039   ----------------------------------------
 BYTE   PATT
  POIN2 Label_0181985E
//  #05 //040   ----------------------------------------
 BYTE   EOT
 BYTE   Bn2  v071
//  #05 //041   ----------------------------------------
 BYTE   PATT
  POIN2 Label_01819808
//  #05 //042   ----------------------------------------
 BYTE   EOT
 BYTE   As2  v070
//  #05 //043   ----------------------------------------
 BYTE   PATT
  POIN2 Label_018197E4
//  #05 //044   ----------------------------------------
 BYTE   EOT
 BYTE   As2  v070
//  #05 //045   ----------------------------------------
 BYTE   PATT
  POIN2 Label_01819808
//  #05 //046   ----------------------------------------
 BYTE   EOT
 BYTE   As2  v070
//  #05 //047   ----------------------------------------
 BYTE   PATT
  POIN2 Label_018197E4
//  #05 //048   ----------------------------------------
 BYTE   EOT
 BYTE   As2  v070
//  #05 //049   ----------------------------------------
 BYTE   PATT
  POIN2 Label_0181984F
//  #05 //050   ----------------------------------------
 BYTE   EOT
 BYTE   Bn2  v071
//  #05 //051   ----------------------------------------
 BYTE   PATT
  POIN2 Label_0181985E
//  #05 //052   ----------------------------------------
 BYTE   EOT
 BYTE   Bn2  v071
//  #05 //053   ----------------------------------------
 BYTE   PATT
  POIN2 Label_0181984F
//  #05 //054   ----------------------------------------
 BYTE   EOT
 BYTE   Bn2  v071
//  #05 //055   ----------------------------------------
 BYTE   PATT
  POIN2 Label_0181985E
//  #05 //056   ----------------------------------------
 BYTE   EOT
 BYTE   Bn2  v071
//  #05 //057   ----------------------------------------
 BYTE   PATT
  POIN2 Label_01819808
//  #05 //058   ----------------------------------------
 BYTE   EOT
 BYTE   As2  v070
//  #05 //059   ----------------------------------------
 BYTE   PATT
  POIN2 Label_018197E4
//  #05 //060   ----------------------------------------
 BYTE   EOT
 BYTE   As2  v070
//  #05 //061   ----------------------------------------
 BYTE   PATT
  POIN2 Label_01819808
//  #05 //062   ----------------------------------------
 BYTE   EOT
 BYTE   As2  v070
//  #05 //063   ----------------------------------------
 BYTE   PATT
  POIN2 Label_018197E4
//  #05 //064   ----------------------------------------
 BYTE   EOT
 BYTE   As2  v070
//  #05 //065   ----------------------------------------
 BYTE   PATT
  POIN2 Label_0181984F
//  #05 //066   ----------------------------------------
 BYTE   EOT
 BYTE   Bn2  v071
//  #05 //067   ----------------------------------------
 BYTE   PATT
  POIN2 Label_0181985E
//  #05 //068   ----------------------------------------
 BYTE   EOT
 BYTE   Bn2  v071
//  #05 //069   ----------------------------------------
 BYTE   PATT
  POIN2 Label_0181984F
//  #05 //070   ----------------------------------------
 BYTE   EOT
 BYTE   Bn2  v071
//  #05 //071   ----------------------------------------
 BYTE   PATT
  POIN2 Label_0181985E
//  #05 //072   ----------------------------------------
 BYTE   EOT
 BYTE   Bn2  v071
//  #05 //073   ----------------------------------------
 BYTE   PATT
  POIN2 Label_01819808
//  #05 //074   ----------------------------------------
 BYTE   EOT
 BYTE   As2  v070
//  #05 //075   ----------------------------------------
 BYTE   PATT
  POIN2 Label_018197E4
//  #05 //076   ----------------------------------------
 BYTE   EOT
 BYTE   As2  v070
//  #05 //077   ----------------------------------------
 BYTE   PATT
  POIN2 Label_01819808
//  #05 //078   ----------------------------------------
 BYTE   EOT
 BYTE   As2  v070
//  #05 //079   ----------------------------------------
 BYTE   PATT
  POIN2 Label_018197E4
//  #05 //080   ----------------------------------------
 BYTE   EOT
 BYTE   As2  v070
//  #05 //081   ----------------------------------------
 BYTE   PATT
  POIN2 Label_0181984F
//  #05 //082   ----------------------------------------
 BYTE   EOT
 BYTE   Bn2  v071
//  #05 //083   ----------------------------------------
 BYTE   PATT
  POIN2 Label_0181985E
//  #05 //084   ----------------------------------------
 BYTE   EOT
 BYTE   Bn2  v071
//  #05 //085   ----------------------------------------
 BYTE   PATT
  POIN2 Label_0181984F
//  #05 //086   ----------------------------------------
 BYTE   EOT
 BYTE   Bn2  v071
//  #05 //087   ----------------------------------------
 BYTE   PATT
  POIN2 Label_0181985E
//  #05 //088   ----------------------------------------
 BYTE   EOT
 BYTE   Bn2  v071
//  #05 //089   ----------------------------------------
 BYTE   PATT
  POIN2 Label_01819808
//  #05 //090   ----------------------------------------
 BYTE   EOT
 BYTE   As2  v070
//  #05 //091   ----------------------------------------
 BYTE   PATT
  POIN2 Label_018197E4
//  #05 //092   ----------------------------------------
 BYTE   EOT
 BYTE   As2  v070
//  #05 //093   ----------------------------------------
 BYTE   PATT
  POIN2 Label_01819808
//  #05 //094   ----------------------------------------
 BYTE   EOT
 BYTE   As2  v070
//  #05 //095   ----------------------------------------
 BYTE   PATT
  POIN2 Label_018197E4
//  #05 //096   ----------------------------------------
 BYTE   EOT
 BYTE   As2  v070
//  #05 //097   ----------------------------------------
 BYTE   PATT
  POIN2 Label_0181984F
//  #05 //098   ----------------------------------------
 BYTE   EOT
 BYTE   Bn2  v071
//  #05 //099   ----------------------------------------
 BYTE   PATT
  POIN2 Label_0181985E
//  #05 //100   ----------------------------------------
 BYTE   EOT
 BYTE   Bn2  v071
//  #05 //101   ----------------------------------------
 BYTE   PATT
  POIN2 Label_0181984F
//  #05 //102   ----------------------------------------
 BYTE   EOT
 BYTE   Bn2  v071
//  #05 //103   ----------------------------------------
 BYTE   PATT
  POIN2 Label_0181985E
//  #05 //104   ----------------------------------------
 BYTE   EOT
 BYTE   Bn2  v071
//  #05 //105   ----------------------------------------
 BYTE   PATT
  POIN2 Label_018197E4
//  #05 //106   ----------------------------------------
 BYTE   EOT
 BYTE   As2  v070
//  #05 //107   ----------------------------------------
 BYTE   PATT
  POIN2 Label_018197E4
//  #05 //108   ----------------------------------------
 BYTE   EOT
 BYTE   As2  v070
//  #05 //109   ----------------------------------------
 BYTE   PATT
  POIN2 Label_018197E4
//  #05 //110   ----------------------------------------
 BYTE   EOT
 BYTE   As2  v070
//  #05 //111   ----------------------------------------
 BYTE   PATT
  POIN2 Label_018197E4
//  #05 //112   ----------------------------------------
 BYTE   EOT
 BYTE   As2  v070
//  #05 //113   ----------------------------------------
 BYTE   PATT
  POIN2 Label_018197E4
//  #05 //114   ----------------------------------------
 BYTE   EOT
 BYTE   As2  v070
//  #05 //115   ----------------------------------------
 BYTE   PATT
  POIN2 Label_018197E4
//  #05 //116   ----------------------------------------
 BYTE   EOT
 BYTE   As2  v070
//  #05 //117   ----------------------------------------
 BYTE   PATT
  POIN2 Label_018197E4
//  #05 //118   ----------------------------------------
 BYTE   EOT
 BYTE   As2  v070
//  #05 //119   ----------------------------------------
 BYTE   PATT
  POIN2 Label_018197E4
//  #05 //120   ----------------------------------------
 BYTE   EOT
 BYTE   As2  v070
 BYTE   GoTo
  POIN2 Label_018197C6
 BYTE   FINE

//**************** Track 6 (Midi-Chn.5) ****************//

song2F_006:
//  #06 //000   ----------------------------------------
 BYTE   KEYSH   song2F_key+0
Label_01819CEA:
 BYTE   VOICE   91
 BYTE   VOL   50*song2F_mvl/mxv
 BYTE   PAN   c_v-20
 BYTE   W96
//  #06 //001   ----------------------------------------
 BYTE   W48
 BYTE   W96
//  #06 //002   ----------------------------------------
 BYTE   W48
 BYTE   W96
//  #06 //003   ----------------------------------------
 BYTE   W48
 BYTE   W96
//  #06 //004   ----------------------------------------
 BYTE   W48
 BYTE   W96
//  #06 //005   ----------------------------------------
 BYTE   W48
 BYTE   W96
//  #06 //006   ----------------------------------------
 BYTE   W48
 BYTE   W96
//  #06 //007   ----------------------------------------
 BYTE   W48
 BYTE   W96
//  #06 //008   ----------------------------------------
 BYTE   W48
 BYTE   W96
//  #06 //009   ----------------------------------------
 BYTE   W48
 BYTE   W96
//  #06 //010   ----------------------------------------
 BYTE   W48
 BYTE   W96
//  #06 //011   ----------------------------------------
 BYTE   W48
 BYTE   W96
//  #06 //012   ----------------------------------------
 BYTE   W48
 BYTE   W96
//  #06 //013   ----------------------------------------
 BYTE   W48
 BYTE   W96
//  #06 //014   ----------------------------------------
 BYTE   W48
Label_01819D0C:
 BYTE   VOL   0*song2F_mvl/mxv
 BYTE   TIE  As2  v127
 BYTE   W01
 BYTE   VOL   0*song2F_mvl/mxv
 BYTE   W01
 BYTE   VOL   0*song2F_mvl/mxv
 BYTE   W01
 BYTE   VOL   0*song2F_mvl/mxv
 BYTE   W01
 BYTE   VOL   0*song2F_mvl/mxv
 BYTE   W01
 BYTE   VOL   0*song2F_mvl/mxv
 BYTE   W01
 BYTE   VOL   0*song2F_mvl/mxv
 BYTE   W01
 BYTE   VOL   0*song2F_mvl/mxv
 BYTE   W01
 BYTE   VOL   0*song2F_mvl/mxv
 BYTE   W01
 BYTE   VOL   0*song2F_mvl/mxv
 BYTE   W01
 BYTE   VOL   0*song2F_mvl/mxv
 BYTE   W01
 BYTE   VOL   0*song2F_mvl/mxv
 BYTE   W01
 BYTE   VOL   0*song2F_mvl/mxv
 BYTE   W01
 BYTE   VOL   0*song2F_mvl/mxv
 BYTE   W01
 BYTE   VOL   0*song2F_mvl/mxv
 BYTE   W01
 BYTE   VOL   0*song2F_mvl/mxv
 BYTE   W01
 BYTE   VOL   0*song2F_mvl/mxv
 BYTE   W01
 BYTE   VOL   0*song2F_mvl/mxv
 BYTE   W01
 BYTE   VOL   0*song2F_mvl/mxv
 BYTE   W01
 BYTE   VOL   0*song2F_mvl/mxv
 BYTE   W01
 BYTE   VOL   0*song2F_mvl/mxv
 BYTE   W01
 BYTE   VOL   0*song2F_mvl/mxv
 BYTE   W01
 BYTE   VOL   0*song2F_mvl/mxv
 BYTE   W01
 BYTE   VOL   0*song2F_mvl/mxv
 BYTE   W01
 BYTE   VOL   0*song2F_mvl/mxv
 BYTE   W01
 BYTE   VOL   0*song2F_mvl/mxv
 BYTE   W01
 BYTE   VOL   0*song2F_mvl/mxv
 BYTE   W01
 BYTE   VOL   0*song2F_mvl/mxv
 BYTE   W01
 BYTE   VOL   0*song2F_mvl/mxv
 BYTE   W01
 BYTE   VOL   0*song2F_mvl/mxv
 BYTE   W01
 BYTE   VOL   0*song2F_mvl/mxv
 BYTE   W01
 BYTE   VOL   0*song2F_mvl/mxv
 BYTE   W01
 BYTE   VOL   0*song2F_mvl/mxv
 BYTE   W01
 BYTE   VOL   0*song2F_mvl/mxv
 BYTE   W01
 BYTE   VOL   0*song2F_mvl/mxv
 BYTE   W01
 BYTE   VOL   0*song2F_mvl/mxv
 BYTE   W01
 BYTE   VOL   1*song2F_mvl/mxv
 BYTE   W01
 BYTE   VOL   1*song2F_mvl/mxv
 BYTE   W01
 BYTE   VOL   1*song2F_mvl/mxv
 BYTE   W01
 BYTE   VOL   1*song2F_mvl/mxv
 BYTE   W01
 BYTE   VOL   1*song2F_mvl/mxv
 BYTE   W01
 BYTE   VOL   1*song2F_mvl/mxv
 BYTE   W01
 BYTE   VOL   1*song2F_mvl/mxv
 BYTE   W01
 BYTE   VOL   1*song2F_mvl/mxv
 BYTE   W01
 BYTE   VOL   1*song2F_mvl/mxv
 BYTE   W01
 BYTE   VOL   1*song2F_mvl/mxv
 BYTE   W01
 BYTE   VOL   1*song2F_mvl/mxv
 BYTE   W01
 BYTE   VOL   1*song2F_mvl/mxv
 BYTE   W01
//  #06 //015   ----------------------------------------
 BYTE   VOL   1*song2F_mvl/mxv
 BYTE   W01
 BYTE   VOL   1*song2F_mvl/mxv
 BYTE   W01
 BYTE   VOL   1*song2F_mvl/mxv
 BYTE   W01
 BYTE   VOL   1*song2F_mvl/mxv
 BYTE   W01
 BYTE   VOL   1*song2F_mvl/mxv
 BYTE   W01
 BYTE   VOL   1*song2F_mvl/mxv
 BYTE   W01
 BYTE   VOL   1*song2F_mvl/mxv
 BYTE   W01
 BYTE   VOL   1*song2F_mvl/mxv
 BYTE   W01
 BYTE   VOL   1*song2F_mvl/mxv
 BYTE   W01
 BYTE   VOL   1*song2F_mvl/mxv
 BYTE   W01
 BYTE   VOL   1*song2F_mvl/mxv
 BYTE   W01
 BYTE   VOL   1*song2F_mvl/mxv
 BYTE   W01
 BYTE   VOL   1*song2F_mvl/mxv
 BYTE   W01
 BYTE   VOL   1*song2F_mvl/mxv
 BYTE   W01
 BYTE   VOL   2*song2F_mvl/mxv
 BYTE   W01
 BYTE   VOL   2*song2F_mvl/mxv
 BYTE   W01
 BYTE   VOL   2*song2F_mvl/mxv
 BYTE   W01
 BYTE   VOL   2*song2F_mvl/mxv
 BYTE   W01
 BYTE   VOL   2*song2F_mvl/mxv
 BYTE   W01
 BYTE   VOL   2*song2F_mvl/mxv
 BYTE   W01
 BYTE   VOL   2*song2F_mvl/mxv
 BYTE   W01
 BYTE   VOL   2*song2F_mvl/mxv
 BYTE   W01
 BYTE   VOL   2*song2F_mvl/mxv
 BYTE   W01
 BYTE   VOL   2*song2F_mvl/mxv
 BYTE   W01
 BYTE   VOL   2*song2F_mvl/mxv
 BYTE   W01
 BYTE   VOL   2*song2F_mvl/mxv
 BYTE   W01
 BYTE   VOL   2*song2F_mvl/mxv
 BYTE   W01
 BYTE   VOL   2*song2F_mvl/mxv
 BYTE   W01
 BYTE   VOL   3*song2F_mvl/mxv
 BYTE   W01
 BYTE   VOL   3*song2F_mvl/mxv
 BYTE   W01
 BYTE   VOL   3*song2F_mvl/mxv
 BYTE   W01
 BYTE   VOL   3*song2F_mvl/mxv
 BYTE   W01
 BYTE   VOL   3*song2F_mvl/mxv
 BYTE   W01
 BYTE   VOL   3*song2F_mvl/mxv
 BYTE   W01
 BYTE   VOL   3*song2F_mvl/mxv
 BYTE   W01
 BYTE   VOL   3*song2F_mvl/mxv
 BYTE   W01
 BYTE   VOL   3*song2F_mvl/mxv
 BYTE   W01
 BYTE   VOL   3*song2F_mvl/mxv
 BYTE   W01
 BYTE   VOL   3*song2F_mvl/mxv
 BYTE   W01
 BYTE   VOL   3*song2F_mvl/mxv
 BYTE   W01
 BYTE   VOL   3*song2F_mvl/mxv
 BYTE   W01
 BYTE   VOL   3*song2F_mvl/mxv
 BYTE   W01
 BYTE   VOL   3*song2F_mvl/mxv
 BYTE   W01
 BYTE   VOL   3*song2F_mvl/mxv
 BYTE   W01
 BYTE   VOL   3*song2F_mvl/mxv
 BYTE   W01
 BYTE   VOL   3*song2F_mvl/mxv
 BYTE   W01
 BYTE   VOL   4*song2F_mvl/mxv
 BYTE   W01
 BYTE   VOL   4*song2F_mvl/mxv
 BYTE   W01
 BYTE   VOL   4*song2F_mvl/mxv
 BYTE   W01
 BYTE   VOL   4*song2F_mvl/mxv
 BYTE   W01
 BYTE   VOL   4*song2F_mvl/mxv
 BYTE   W01
 BYTE   VOL   4*song2F_mvl/mxv
 BYTE   W01
 BYTE   VOL   4*song2F_mvl/mxv
 BYTE   W01
 BYTE   VOL   4*song2F_mvl/mxv
 BYTE   W01
 BYTE   VOL   4*song2F_mvl/mxv
 BYTE   W01
 BYTE   VOL   4*song2F_mvl/mxv
 BYTE   W01
 BYTE   VOL   5*song2F_mvl/mxv
 BYTE   W01
 BYTE   VOL   5*song2F_mvl/mxv
 BYTE   W01
 BYTE   VOL   5*song2F_mvl/mxv
 BYTE   W01
 BYTE   VOL   5*song2F_mvl/mxv
 BYTE   W01
 BYTE   VOL   5*song2F_mvl/mxv
 BYTE   W01
 BYTE   VOL   5*song2F_mvl/mxv
 BYTE   W01
 BYTE   VOL   5*song2F_mvl/mxv
 BYTE   W01
 BYTE   VOL   5*song2F_mvl/mxv
 BYTE   W01
 BYTE   VOL   5*song2F_mvl/mxv
 BYTE   W01
 BYTE   VOL   5*song2F_mvl/mxv
 BYTE   W01
 BYTE   VOL   5*song2F_mvl/mxv
 BYTE   W01
 BYTE   VOL   5*song2F_mvl/mxv
 BYTE   W01
 BYTE   VOL   5*song2F_mvl/mxv
 BYTE   W01
 BYTE   VOL   5*song2F_mvl/mxv
 BYTE   W01
 BYTE   VOL   6*song2F_mvl/mxv
 BYTE   W01
 BYTE   VOL   6*song2F_mvl/mxv
 BYTE   W01
 BYTE   VOL   6*song2F_mvl/mxv
 BYTE   W01
 BYTE   VOL   6*song2F_mvl/mxv
 BYTE   W01
 BYTE   VOL   6*song2F_mvl/mxv
 BYTE   W01
 BYTE   VOL   6*song2F_mvl/mxv
 BYTE   W01
 BYTE   VOL   6*song2F_mvl/mxv
 BYTE   W01
 BYTE   VOL   6*song2F_mvl/mxv
 BYTE   W01
 BYTE   VOL   7*song2F_mvl/mxv
 BYTE   W01
 BYTE   VOL   7*song2F_mvl/mxv
 BYTE   W01
 BYTE   VOL   7*song2F_mvl/mxv
 BYTE   W01
 BYTE   VOL   7*song2F_mvl/mxv
 BYTE   W01
 BYTE   VOL   7*song2F_mvl/mxv
 BYTE   W01
 BYTE   VOL   7*song2F_mvl/mxv
 BYTE   W01
 BYTE   VOL   7*song2F_mvl/mxv
 BYTE   W01
 BYTE   VOL   7*song2F_mvl/mxv
 BYTE   W01
 BYTE   VOL   7*song2F_mvl/mxv
 BYTE   W01
 BYTE   VOL   7*song2F_mvl/mxv
 BYTE   W01
 BYTE   VOL   7*song2F_mvl/mxv
 BYTE   W01
 BYTE   VOL   8*song2F_mvl/mxv
 BYTE   W01
 BYTE   VOL   8*song2F_mvl/mxv
 BYTE   W01
 BYTE   VOL   8*song2F_mvl/mxv
 BYTE   W01
 BYTE   VOL   8*song2F_mvl/mxv
 BYTE   W01
 BYTE   VOL   8*song2F_mvl/mxv
 BYTE   W01
 BYTE   VOL   8*song2F_mvl/mxv
 BYTE   W01
 BYTE   VOL   9*song2F_mvl/mxv
 BYTE   W01
 BYTE   PEND 
//  #06 //016   ----------------------------------------
Label_01819E32:
 BYTE   VOL   9*song2F_mvl/mxv
 BYTE   W01
 BYTE   VOL   9*song2F_mvl/mxv
 BYTE   W01
 BYTE   VOL   9*song2F_mvl/mxv
 BYTE   W01
 BYTE   VOL   9*song2F_mvl/mxv
 BYTE   W01
 BYTE   VOL   9*song2F_mvl/mxv
 BYTE   W01
 BYTE   VOL   9*song2F_mvl/mxv
 BYTE   W01
 BYTE   VOL   9*song2F_mvl/mxv
 BYTE   W01
 BYTE   VOL   9*song2F_mvl/mxv
 BYTE   W01
 BYTE   VOL   9*song2F_mvl/mxv
 BYTE   W01
 BYTE   VOL   10*song2F_mvl/mxv
 BYTE   W01
 BYTE   VOL   10*song2F_mvl/mxv
 BYTE   W01
 BYTE   VOL   10*song2F_mvl/mxv
 BYTE   W01
 BYTE   VOL   10*song2F_mvl/mxv
 BYTE   W01
 BYTE   VOL   10*song2F_mvl/mxv
 BYTE   W01
 BYTE   VOL   11*song2F_mvl/mxv
 BYTE   W01
 BYTE   VOL   11*song2F_mvl/mxv
 BYTE   W01
 BYTE   VOL   11*song2F_mvl/mxv
 BYTE   W01
 BYTE   VOL   11*song2F_mvl/mxv
 BYTE   W01
 BYTE   VOL   11*song2F_mvl/mxv
 BYTE   W01
 BYTE   VOL   11*song2F_mvl/mxv
 BYTE   W01
 BYTE   VOL   11*song2F_mvl/mxv
 BYTE   W01
 BYTE   VOL   11*song2F_mvl/mxv
 BYTE   W01
 BYTE   VOL   12*song2F_mvl/mxv
 BYTE   W01
 BYTE   VOL   12*song2F_mvl/mxv
 BYTE   W01
 BYTE   VOL   12*song2F_mvl/mxv
 BYTE   W01
 BYTE   VOL   12*song2F_mvl/mxv
 BYTE   W01
 BYTE   VOL   12*song2F_mvl/mxv
 BYTE   W01
 BYTE   VOL   12*song2F_mvl/mxv
 BYTE   W01
 BYTE   VOL   12*song2F_mvl/mxv
 BYTE   W01
 BYTE   VOL   12*song2F_mvl/mxv
 BYTE   W01
 BYTE   VOL   13*song2F_mvl/mxv
 BYTE   W01
 BYTE   VOL   13*song2F_mvl/mxv
 BYTE   W01
 BYTE   VOL   13*song2F_mvl/mxv
 BYTE   W01
 BYTE   VOL   13*song2F_mvl/mxv
 BYTE   W01
 BYTE   VOL   14*song2F_mvl/mxv
 BYTE   W01
 BYTE   VOL   14*song2F_mvl/mxv
 BYTE   W01
 BYTE   VOL   14*song2F_mvl/mxv
 BYTE   W01
 BYTE   VOL   14*song2F_mvl/mxv
 BYTE   W01
 BYTE   VOL   14*song2F_mvl/mxv
 BYTE   W01
 BYTE   VOL   14*song2F_mvl/mxv
 BYTE   W01
 BYTE   VOL   14*song2F_mvl/mxv
 BYTE   W01
 BYTE   VOL   15*song2F_mvl/mxv
 BYTE   W01
 BYTE   VOL   15*song2F_mvl/mxv
 BYTE   W01
 BYTE   VOL   15*song2F_mvl/mxv
 BYTE   W01
 BYTE   VOL   15*song2F_mvl/mxv
 BYTE   W01
 BYTE   VOL   16*song2F_mvl/mxv
 BYTE   W01
 BYTE   VOL   16*song2F_mvl/mxv
 BYTE   W01
 BYTE   VOL   16*song2F_mvl/mxv
 BYTE   W01
 BYTE   VOL   16*song2F_mvl/mxv
 BYTE   W01
 BYTE   VOL   16*song2F_mvl/mxv
 BYTE   W01
 BYTE   VOL   16*song2F_mvl/mxv
 BYTE   W01
 BYTE   VOL   17*song2F_mvl/mxv
 BYTE   W01
 BYTE   VOL   17*song2F_mvl/mxv
 BYTE   W01
 BYTE   VOL   17*song2F_mvl/mxv
 BYTE   W01
 BYTE   VOL   18*song2F_mvl/mxv
 BYTE   W01
 BYTE   VOL   18*song2F_mvl/mxv
 BYTE   W01
 BYTE   VOL   18*song2F_mvl/mxv
 BYTE   W01
 BYTE   VOL   18*song2F_mvl/mxv
 BYTE   W01
 BYTE   VOL   18*song2F_mvl/mxv
 BYTE   W01
 BYTE   VOL   18*song2F_mvl/mxv
 BYTE   W01
 BYTE   VOL   19*song2F_mvl/mxv
 BYTE   W01
 BYTE   VOL   19*song2F_mvl/mxv
 BYTE   W01
 BYTE   VOL   19*song2F_mvl/mxv
 BYTE   W01
 BYTE   VOL   20*song2F_mvl/mxv
 BYTE   W01
 BYTE   VOL   20*song2F_mvl/mxv
 BYTE   W01
 BYTE   VOL   20*song2F_mvl/mxv
 BYTE   W01
 BYTE   VOL   20*song2F_mvl/mxv
 BYTE   W01
 BYTE   VOL   20*song2F_mvl/mxv
 BYTE   W01
 BYTE   VOL   21*song2F_mvl/mxv
 BYTE   W01
 BYTE   VOL   21*song2F_mvl/mxv
 BYTE   W01
 BYTE   VOL   21*song2F_mvl/mxv
 BYTE   W01
 BYTE   VOL   22*song2F_mvl/mxv
 BYTE   W01
 BYTE   VOL   22*song2F_mvl/mxv
 BYTE   W01
 BYTE   VOL   22*song2F_mvl/mxv
 BYTE   W01
 BYTE   VOL   22*song2F_mvl/mxv
 BYTE   W01
 BYTE   VOL   22*song2F_mvl/mxv
 BYTE   W01
 BYTE   VOL   23*song2F_mvl/mxv
 BYTE   W01
 BYTE   VOL   23*song2F_mvl/mxv
 BYTE   W01
 BYTE   VOL   23*song2F_mvl/mxv
 BYTE   W01
 BYTE   VOL   24*song2F_mvl/mxv
 BYTE   W01
 BYTE   VOL   24*song2F_mvl/mxv
 BYTE   W01
 BYTE   VOL   24*song2F_mvl/mxv
 BYTE   W01
 BYTE   VOL   24*song2F_mvl/mxv
 BYTE   W01
 BYTE   VOL   25*song2F_mvl/mxv
 BYTE   W01
 BYTE   VOL   25*song2F_mvl/mxv
 BYTE   W01
 BYTE   VOL   25*song2F_mvl/mxv
 BYTE   W01
 BYTE   VOL   25*song2F_mvl/mxv
 BYTE   W01
 BYTE   VOL   26*song2F_mvl/mxv
 BYTE   W01
 BYTE   VOL   26*song2F_mvl/mxv
 BYTE   W01
 BYTE   VOL   27*song2F_mvl/mxv
 BYTE   W01
 BYTE   VOL   27*song2F_mvl/mxv
 BYTE   W01
 BYTE   VOL   27*song2F_mvl/mxv
 BYTE   W01
 BYTE   VOL   27*song2F_mvl/mxv
 BYTE   W01
 BYTE   VOL   28*song2F_mvl/mxv
 BYTE   W01
 BYTE   VOL   28*song2F_mvl/mxv
 BYTE   W01
 BYTE   VOL   29*song2F_mvl/mxv
 BYTE   W01
//  #06 //017   ----------------------------------------
 BYTE   VOL   29*song2F_mvl/mxv
 BYTE   W01
 BYTE   VOL   29*song2F_mvl/mxv
 BYTE   W01
 BYTE   VOL   29*song2F_mvl/mxv
 BYTE   W01
 BYTE   VOL   30*song2F_mvl/mxv
 BYTE   W01
 BYTE   VOL   30*song2F_mvl/mxv
 BYTE   W01
 BYTE   VOL   31*song2F_mvl/mxv
 BYTE   W01
 BYTE   VOL   31*song2F_mvl/mxv
 BYTE   W01
 BYTE   VOL   31*song2F_mvl/mxv
 BYTE   W01
 BYTE   VOL   32*song2F_mvl/mxv
 BYTE   W01
 BYTE   VOL   32*song2F_mvl/mxv
 BYTE   W01
 BYTE   VOL   32*song2F_mvl/mxv
 BYTE   W01
 BYTE   VOL   33*song2F_mvl/mxv
 BYTE   W01
 BYTE   VOL   33*song2F_mvl/mxv
 BYTE   W01
 BYTE   VOL   33*song2F_mvl/mxv
 BYTE   W01
 BYTE   VOL   34*song2F_mvl/mxv
 BYTE   W01
 BYTE   VOL   34*song2F_mvl/mxv
 BYTE   W01
 BYTE   VOL   35*song2F_mvl/mxv
 BYTE   W01
 BYTE   VOL   35*song2F_mvl/mxv
 BYTE   W01
 BYTE   VOL   35*song2F_mvl/mxv
 BYTE   W01
 BYTE   VOL   36*song2F_mvl/mxv
 BYTE   W01
 BYTE   VOL   36*song2F_mvl/mxv
 BYTE   W01
 BYTE   VOL   37*song2F_mvl/mxv
 BYTE   W01
 BYTE   VOL   37*song2F_mvl/mxv
 BYTE   W01
 BYTE   VOL   38*song2F_mvl/mxv
 BYTE   W01
 BYTE   VOL   38*song2F_mvl/mxv
 BYTE   W01
 BYTE   VOL   38*song2F_mvl/mxv
 BYTE   W01
 BYTE   VOL   39*song2F_mvl/mxv
 BYTE   W01
 BYTE   VOL   39*song2F_mvl/mxv
 BYTE   W01
 BYTE   VOL   40*song2F_mvl/mxv
 BYTE   W01
 BYTE   VOL   40*song2F_mvl/mxv
 BYTE   W01
 BYTE   VOL   40*song2F_mvl/mxv
 BYTE   W01
 BYTE   VOL   41*song2F_mvl/mxv
 BYTE   W01
 BYTE   VOL   42*song2F_mvl/mxv
 BYTE   W01
 BYTE   VOL   42*song2F_mvl/mxv
 BYTE   W01
 BYTE   VOL   42*song2F_mvl/mxv
 BYTE   W01
 BYTE   VOL   43*song2F_mvl/mxv
 BYTE   W01
 BYTE   VOL   44*song2F_mvl/mxv
 BYTE   W01
 BYTE   VOL   44*song2F_mvl/mxv
 BYTE   W01
 BYTE   VOL   44*song2F_mvl/mxv
 BYTE   W01
 BYTE   VOL   45*song2F_mvl/mxv
 BYTE   W01
 BYTE   VOL   46*song2F_mvl/mxv
 BYTE   W01
 BYTE   VOL   46*song2F_mvl/mxv
 BYTE   W01
 BYTE   VOL   46*song2F_mvl/mxv
 BYTE   W01
 BYTE   VOL   47*song2F_mvl/mxv
 BYTE   W01
 BYTE   VOL   48*song2F_mvl/mxv
 BYTE   W01
 BYTE   VOL   48*song2F_mvl/mxv
 BYTE   W01
 BYTE   VOL   49*song2F_mvl/mxv
 BYTE   W01
 BYTE   VOL   49*song2F_mvl/mxv
 BYTE   W01
 BYTE   PEND 
 BYTE   EOT
 BYTE   As2
 BYTE   VOL   49*song2F_mvl/mxv
 BYTE   TIE  As2  v127
 BYTE   W01
 BYTE   VOL   49*song2F_mvl/mxv
 BYTE   W01
 BYTE   VOL   49*song2F_mvl/mxv
 BYTE   W01
 BYTE   VOL   49*song2F_mvl/mxv
 BYTE   W01
 BYTE   VOL   49*song2F_mvl/mxv
 BYTE   W01
 BYTE   VOL   48*song2F_mvl/mxv
 BYTE   W01
 BYTE   VOL   48*song2F_mvl/mxv
 BYTE   W01
 BYTE   VOL   48*song2F_mvl/mxv
 BYTE   W01
 BYTE   VOL   48*song2F_mvl/mxv
 BYTE   W01
 BYTE   VOL   48*song2F_mvl/mxv
 BYTE   W01
 BYTE   VOL   48*song2F_mvl/mxv
 BYTE   W01
 BYTE   VOL   47*song2F_mvl/mxv
 BYTE   W01
 BYTE   VOL   47*song2F_mvl/mxv
 BYTE   W01
 BYTE   VOL   47*song2F_mvl/mxv
 BYTE   W01
 BYTE   VOL   47*song2F_mvl/mxv
 BYTE   W01
 BYTE   VOL   47*song2F_mvl/mxv
 BYTE   W01
 BYTE   VOL   46*song2F_mvl/mxv
 BYTE   W01
 BYTE   VOL   46*song2F_mvl/mxv
 BYTE   W01
 BYTE   VOL   46*song2F_mvl/mxv
 BYTE   W01
 BYTE   VOL   46*song2F_mvl/mxv
 BYTE   W01
 BYTE   VOL   46*song2F_mvl/mxv
 BYTE   W01
 BYTE   VOL   46*song2F_mvl/mxv
 BYTE   W01
 BYTE   VOL   46*song2F_mvl/mxv
 BYTE   W01
 BYTE   VOL   45*song2F_mvl/mxv
 BYTE   W01
 BYTE   VOL   45*song2F_mvl/mxv
 BYTE   W01
 BYTE   VOL   45*song2F_mvl/mxv
 BYTE   W01
 BYTE   VOL   45*song2F_mvl/mxv
 BYTE   W01
 BYTE   VOL   44*song2F_mvl/mxv
 BYTE   W01
 BYTE   VOL   44*song2F_mvl/mxv
 BYTE   W01
 BYTE   VOL   44*song2F_mvl/mxv
 BYTE   W01
 BYTE   VOL   44*song2F_mvl/mxv
 BYTE   W01
 BYTE   VOL   44*song2F_mvl/mxv
 BYTE   W01
 BYTE   VOL   44*song2F_mvl/mxv
 BYTE   W01
 BYTE   VOL   44*song2F_mvl/mxv
 BYTE   W01
 BYTE   VOL   43*song2F_mvl/mxv
 BYTE   W01
 BYTE   VOL   43*song2F_mvl/mxv
 BYTE   W01
 BYTE   VOL   43*song2F_mvl/mxv
 BYTE   W01
 BYTE   VOL   43*song2F_mvl/mxv
 BYTE   W01
 BYTE   VOL   43*song2F_mvl/mxv
 BYTE   W01
 BYTE   VOL   42*song2F_mvl/mxv
 BYTE   W01
 BYTE   VOL   42*song2F_mvl/mxv
 BYTE   W01
 BYTE   VOL   42*song2F_mvl/mxv
 BYTE   W01
 BYTE   VOL   42*song2F_mvl/mxv
 BYTE   W01
 BYTE   VOL   42*song2F_mvl/mxv
 BYTE   W01
 BYTE   VOL   42*song2F_mvl/mxv
 BYTE   W01
 BYTE   VOL   41*song2F_mvl/mxv
 BYTE   W01
 BYTE   VOL   41*song2F_mvl/mxv
 BYTE   W01
 BYTE   VOL   41*song2F_mvl/mxv
 BYTE   W01
//  #06 //018   ----------------------------------------
 BYTE   VOL   41*song2F_mvl/mxv
 BYTE   W01
 BYTE   VOL   41*song2F_mvl/mxv
 BYTE   W01
 BYTE   VOL   40*song2F_mvl/mxv
 BYTE   W01
 BYTE   VOL   40*song2F_mvl/mxv
 BYTE   W01
 BYTE   VOL   40*song2F_mvl/mxv
 BYTE   W01
 BYTE   VOL   40*song2F_mvl/mxv
 BYTE   W01
 BYTE   VOL   40*song2F_mvl/mxv
 BYTE   W01
 BYTE   VOL   40*song2F_mvl/mxv
 BYTE   W01
 BYTE   VOL   40*song2F_mvl/mxv
 BYTE   W01
 BYTE   VOL   39*song2F_mvl/mxv
 BYTE   W01
 BYTE   VOL   39*song2F_mvl/mxv
 BYTE   W01
 BYTE   VOL   39*song2F_mvl/mxv
 BYTE   W01
 BYTE   VOL   39*song2F_mvl/mxv
 BYTE   W01
 BYTE   VOL   38*song2F_mvl/mxv
 BYTE   W01
 BYTE   VOL   38*song2F_mvl/mxv
 BYTE   W01
 BYTE   VOL   38*song2F_mvl/mxv
 BYTE   W01
 BYTE   VOL   38*song2F_mvl/mxv
 BYTE   W01
 BYTE   VOL   38*song2F_mvl/mxv
 BYTE   W01
 BYTE   VOL   38*song2F_mvl/mxv
 BYTE   W01
 BYTE   VOL   38*song2F_mvl/mxv
 BYTE   W01
 BYTE   VOL   37*song2F_mvl/mxv
 BYTE   W01
 BYTE   VOL   37*song2F_mvl/mxv
 BYTE   W01
 BYTE   VOL   37*song2F_mvl/mxv
 BYTE   W01
 BYTE   VOL   37*song2F_mvl/mxv
 BYTE   W01
 BYTE   VOL   37*song2F_mvl/mxv
 BYTE   W01
 BYTE   VOL   37*song2F_mvl/mxv
 BYTE   W01
 BYTE   VOL   37*song2F_mvl/mxv
 BYTE   W01
 BYTE   VOL   36*song2F_mvl/mxv
 BYTE   W01
 BYTE   VOL   36*song2F_mvl/mxv
 BYTE   W01
 BYTE   VOL   36*song2F_mvl/mxv
 BYTE   W01
 BYTE   VOL   36*song2F_mvl/mxv
 BYTE   W01
 BYTE   VOL   35*song2F_mvl/mxv
 BYTE   W01
 BYTE   VOL   35*song2F_mvl/mxv
 BYTE   W01
 BYTE   VOL   35*song2F_mvl/mxv
 BYTE   W01
 BYTE   VOL   35*song2F_mvl/mxv
 BYTE   W01
 BYTE   VOL   35*song2F_mvl/mxv
 BYTE   W01
 BYTE   VOL   35*song2F_mvl/mxv
 BYTE   W01
 BYTE   VOL   35*song2F_mvl/mxv
 BYTE   W01
 BYTE   VOL   34*song2F_mvl/mxv
 BYTE   W01
 BYTE   VOL   34*song2F_mvl/mxv
 BYTE   W01
 BYTE   VOL   34*song2F_mvl/mxv
 BYTE   W01
 BYTE   VOL   34*song2F_mvl/mxv
 BYTE   W01
 BYTE   VOL   34*song2F_mvl/mxv
 BYTE   W01
 BYTE   VOL   33*song2F_mvl/mxv
 BYTE   W01
 BYTE   VOL   33*song2F_mvl/mxv
 BYTE   W01
 BYTE   VOL   33*song2F_mvl/mxv
 BYTE   W01
 BYTE   VOL   33*song2F_mvl/mxv
 BYTE   W01
 BYTE   VOL   33*song2F_mvl/mxv
 BYTE   W01
 BYTE   VOL   33*song2F_mvl/mxv
 BYTE   W01
 BYTE   VOL   32*song2F_mvl/mxv
 BYTE   W01
 BYTE   VOL   32*song2F_mvl/mxv
 BYTE   W01
 BYTE   VOL   32*song2F_mvl/mxv
 BYTE   W01
 BYTE   VOL   32*song2F_mvl/mxv
 BYTE   W01
 BYTE   VOL   32*song2F_mvl/mxv
 BYTE   W01
 BYTE   VOL   31*song2F_mvl/mxv
 BYTE   W01
 BYTE   VOL   31*song2F_mvl/mxv
 BYTE   W01
 BYTE   VOL   31*song2F_mvl/mxv
 BYTE   W01
 BYTE   VOL   31*song2F_mvl/mxv
 BYTE   W01
 BYTE   VOL   31*song2F_mvl/mxv
 BYTE   W01
 BYTE   VOL   31*song2F_mvl/mxv
 BYTE   W01
 BYTE   VOL   31*song2F_mvl/mxv
 BYTE   W01
 BYTE   VOL   30*song2F_mvl/mxv
 BYTE   W01
 BYTE   VOL   30*song2F_mvl/mxv
 BYTE   W01
 BYTE   VOL   30*song2F_mvl/mxv
 BYTE   W01
 BYTE   VOL   30*song2F_mvl/mxv
 BYTE   W01
 BYTE   VOL   29*song2F_mvl/mxv
 BYTE   W01
 BYTE   VOL   29*song2F_mvl/mxv
 BYTE   W01
 BYTE   VOL   29*song2F_mvl/mxv
 BYTE   W01
 BYTE   VOL   29*song2F_mvl/mxv
 BYTE   W01
 BYTE   VOL   29*song2F_mvl/mxv
 BYTE   W01
 BYTE   VOL   29*song2F_mvl/mxv
 BYTE   W01
 BYTE   VOL   29*song2F_mvl/mxv
 BYTE   W01
 BYTE   VOL   28*song2F_mvl/mxv
 BYTE   W01
 BYTE   VOL   28*song2F_mvl/mxv
 BYTE   W01
 BYTE   VOL   28*song2F_mvl/mxv
 BYTE   W01
 BYTE   VOL   28*song2F_mvl/mxv
 BYTE   W01
 BYTE   VOL   28*song2F_mvl/mxv
 BYTE   W01
 BYTE   VOL   27*song2F_mvl/mxv
 BYTE   W01
 BYTE   VOL   27*song2F_mvl/mxv
 BYTE   W01
 BYTE   VOL   27*song2F_mvl/mxv
 BYTE   W01
 BYTE   VOL   27*song2F_mvl/mxv
 BYTE   W01
 BYTE   VOL   27*song2F_mvl/mxv
 BYTE   W01
 BYTE   VOL   27*song2F_mvl/mxv
 BYTE   W01
 BYTE   VOL   27*song2F_mvl/mxv
 BYTE   W01
 BYTE   VOL   26*song2F_mvl/mxv
 BYTE   W01
 BYTE   VOL   26*song2F_mvl/mxv
 BYTE   W01
 BYTE   VOL   26*song2F_mvl/mxv
 BYTE   W01
 BYTE   VOL   26*song2F_mvl/mxv
 BYTE   W01
 BYTE   VOL   25*song2F_mvl/mxv
 BYTE   W01
 BYTE   VOL   25*song2F_mvl/mxv
 BYTE   W01
 BYTE   VOL   25*song2F_mvl/mxv
 BYTE   W01
 BYTE   VOL   25*song2F_mvl/mxv
 BYTE   W01
 BYTE   VOL   25*song2F_mvl/mxv
 BYTE   W01
 BYTE   VOL   25*song2F_mvl/mxv
 BYTE   W01
 BYTE   VOL   25*song2F_mvl/mxv
 BYTE   W01
 BYTE   VOL   24*song2F_mvl/mxv
 BYTE   W01
//  #06 //019   ----------------------------------------
 BYTE   VOL   24*song2F_mvl/mxv
 BYTE   W01
 BYTE   VOL   24*song2F_mvl/mxv
 BYTE   W01
 BYTE   VOL   24*song2F_mvl/mxv
 BYTE   W01
 BYTE   VOL   24*song2F_mvl/mxv
 BYTE   W01
 BYTE   VOL   24*song2F_mvl/mxv
 BYTE   W01
 BYTE   VOL   24*song2F_mvl/mxv
 BYTE   W01
 BYTE   VOL   23*song2F_mvl/mxv
 BYTE   W01
 BYTE   VOL   23*song2F_mvl/mxv
 BYTE   W01
 BYTE   VOL   23*song2F_mvl/mxv
 BYTE   W01
 BYTE   VOL   23*song2F_mvl/mxv
 BYTE   W01
 BYTE   VOL   22*song2F_mvl/mxv
 BYTE   W01
 BYTE   VOL   22*song2F_mvl/mxv
 BYTE   W01
 BYTE   VOL   22*song2F_mvl/mxv
 BYTE   W01
 BYTE   VOL   22*song2F_mvl/mxv
 BYTE   W01
 BYTE   VOL   22*song2F_mvl/mxv
 BYTE   W01
 BYTE   VOL   22*song2F_mvl/mxv
 BYTE   W01
 BYTE   VOL   22*song2F_mvl/mxv
 BYTE   W01
 BYTE   VOL   21*song2F_mvl/mxv
 BYTE   W01
 BYTE   VOL   21*song2F_mvl/mxv
 BYTE   W01
 BYTE   VOL   21*song2F_mvl/mxv
 BYTE   W01
 BYTE   VOL   21*song2F_mvl/mxv
 BYTE   W01
 BYTE   VOL   21*song2F_mvl/mxv
 BYTE   W01
 BYTE   VOL   20*song2F_mvl/mxv
 BYTE   W01
 BYTE   VOL   20*song2F_mvl/mxv
 BYTE   W01
 BYTE   VOL   20*song2F_mvl/mxv
 BYTE   W01
 BYTE   VOL   20*song2F_mvl/mxv
 BYTE   W01
 BYTE   VOL   20*song2F_mvl/mxv
 BYTE   W01
 BYTE   VOL   20*song2F_mvl/mxv
 BYTE   W01
 BYTE   VOL   19*song2F_mvl/mxv
 BYTE   W01
 BYTE   VOL   19*song2F_mvl/mxv
 BYTE   W01
 BYTE   VOL   19*song2F_mvl/mxv
 BYTE   W01
 BYTE   VOL   19*song2F_mvl/mxv
 BYTE   W01
 BYTE   VOL   19*song2F_mvl/mxv
 BYTE   W01
 BYTE   VOL   18*song2F_mvl/mxv
 BYTE   W01
 BYTE   VOL   18*song2F_mvl/mxv
 BYTE   W01
 BYTE   VOL   18*song2F_mvl/mxv
 BYTE   W01
 BYTE   VOL   18*song2F_mvl/mxv
 BYTE   W01
 BYTE   VOL   18*song2F_mvl/mxv
 BYTE   W01
 BYTE   VOL   18*song2F_mvl/mxv
 BYTE   W01
 BYTE   VOL   18*song2F_mvl/mxv
 BYTE   W01
 BYTE   VOL   17*song2F_mvl/mxv
 BYTE   W01
 BYTE   VOL   17*song2F_mvl/mxv
 BYTE   W01
 BYTE   VOL   17*song2F_mvl/mxv
 BYTE   W01
 BYTE   VOL   17*song2F_mvl/mxv
 BYTE   W01
 BYTE   VOL   16*song2F_mvl/mxv
 BYTE   W01
 BYTE   VOL   16*song2F_mvl/mxv
 BYTE   W01
 BYTE   VOL   16*song2F_mvl/mxv
 BYTE   W01
 BYTE   VOL   16*song2F_mvl/mxv
 BYTE   W01
 BYTE   VOL   16*song2F_mvl/mxv
 BYTE   W01
 BYTE   VOL   16*song2F_mvl/mxv
 BYTE   W01
 BYTE   VOL   16*song2F_mvl/mxv
 BYTE   W01
 BYTE   VOL   15*song2F_mvl/mxv
 BYTE   W01
 BYTE   VOL   15*song2F_mvl/mxv
 BYTE   W01
 BYTE   VOL   15*song2F_mvl/mxv
 BYTE   W01
 BYTE   VOL   15*song2F_mvl/mxv
 BYTE   W01
 BYTE   VOL   15*song2F_mvl/mxv
 BYTE   W01
 BYTE   VOL   14*song2F_mvl/mxv
 BYTE   W01
 BYTE   VOL   14*song2F_mvl/mxv
 BYTE   W01
 BYTE   VOL   14*song2F_mvl/mxv
 BYTE   W01
 BYTE   VOL   14*song2F_mvl/mxv
 BYTE   W01
 BYTE   VOL   14*song2F_mvl/mxv
 BYTE   W01
 BYTE   VOL   14*song2F_mvl/mxv
 BYTE   W01
 BYTE   VOL   13*song2F_mvl/mxv
 BYTE   W01
 BYTE   VOL   13*song2F_mvl/mxv
 BYTE   W01
 BYTE   VOL   13*song2F_mvl/mxv
 BYTE   W01
 BYTE   VOL   13*song2F_mvl/mxv
 BYTE   W01
 BYTE   VOL   13*song2F_mvl/mxv
 BYTE   W01
 BYTE   VOL   12*song2F_mvl/mxv
 BYTE   W01
 BYTE   VOL   12*song2F_mvl/mxv
 BYTE   W01
 BYTE   VOL   12*song2F_mvl/mxv
 BYTE   W01
 BYTE   VOL   12*song2F_mvl/mxv
 BYTE   W01
 BYTE   VOL   12*song2F_mvl/mxv
 BYTE   W01
 BYTE   VOL   12*song2F_mvl/mxv
 BYTE   W01
 BYTE   VOL   12*song2F_mvl/mxv
 BYTE   W01
 BYTE   VOL   11*song2F_mvl/mxv
 BYTE   W01
 BYTE   VOL   11*song2F_mvl/mxv
 BYTE   W01
 BYTE   VOL   11*song2F_mvl/mxv
 BYTE   W01
 BYTE   VOL   11*song2F_mvl/mxv
 BYTE   W01
 BYTE   VOL   11*song2F_mvl/mxv
 BYTE   W01
 BYTE   VOL   11*song2F_mvl/mxv
 BYTE   W01
 BYTE   VOL   10*song2F_mvl/mxv
 BYTE   W01
 BYTE   VOL   10*song2F_mvl/mxv
 BYTE   W01
 BYTE   VOL   10*song2F_mvl/mxv
 BYTE   W01
 BYTE   VOL   10*song2F_mvl/mxv
 BYTE   W01
 BYTE   VOL   10*song2F_mvl/mxv
 BYTE   W01
 BYTE   VOL   9*song2F_mvl/mxv
 BYTE   W01
 BYTE   VOL   9*song2F_mvl/mxv
 BYTE   W01
 BYTE   VOL   9*song2F_mvl/mxv
 BYTE   W01
 BYTE   VOL   9*song2F_mvl/mxv
 BYTE   W01
 BYTE   VOL   9*song2F_mvl/mxv
 BYTE   W01
 BYTE   VOL   9*song2F_mvl/mxv
 BYTE   W01
 BYTE   VOL   9*song2F_mvl/mxv
 BYTE   W01
 BYTE   VOL   8*song2F_mvl/mxv
 BYTE   W01
 BYTE   VOL   8*song2F_mvl/mxv
 BYTE   W01
 BYTE   VOL   8*song2F_mvl/mxv
 BYTE   W01
 BYTE   VOL   8*song2F_mvl/mxv
 BYTE   W01
//  #06 //020   ----------------------------------------
 BYTE   VOL   7*song2F_mvl/mxv
 BYTE   W01
 BYTE   VOL   7*song2F_mvl/mxv
 BYTE   W01
 BYTE   VOL   7*song2F_mvl/mxv
 BYTE   W01
 BYTE   VOL   7*song2F_mvl/mxv
 BYTE   W01
 BYTE   VOL   7*song2F_mvl/mxv
 BYTE   W01
 BYTE   VOL   7*song2F_mvl/mxv
 BYTE   W01
 BYTE   VOL   7*song2F_mvl/mxv
 BYTE   W01
 BYTE   VOL   6*song2F_mvl/mxv
 BYTE   W01
 BYTE   VOL   6*song2F_mvl/mxv
 BYTE   W01
 BYTE   VOL   6*song2F_mvl/mxv
 BYTE   W01
 BYTE   VOL   6*song2F_mvl/mxv
 BYTE   W01
 BYTE   VOL   6*song2F_mvl/mxv
 BYTE   W01
 BYTE   VOL   5*song2F_mvl/mxv
 BYTE   W01
 BYTE   VOL   5*song2F_mvl/mxv
 BYTE   W01
 BYTE   VOL   5*song2F_mvl/mxv
 BYTE   W01
 BYTE   VOL   5*song2F_mvl/mxv
 BYTE   W01
 BYTE   VOL   5*song2F_mvl/mxv
 BYTE   W01
 BYTE   VOL   5*song2F_mvl/mxv
 BYTE   W01
 BYTE   VOL   4*song2F_mvl/mxv
 BYTE   W01
 BYTE   VOL   4*song2F_mvl/mxv
 BYTE   W01
 BYTE   VOL   4*song2F_mvl/mxv
 BYTE   W01
 BYTE   VOL   4*song2F_mvl/mxv
 BYTE   W01
 BYTE   VOL   4*song2F_mvl/mxv
 BYTE   W01
 BYTE   VOL   3*song2F_mvl/mxv
 BYTE   W01
 BYTE   VOL   3*song2F_mvl/mxv
 BYTE   W01
 BYTE   VOL   3*song2F_mvl/mxv
 BYTE   W01
 BYTE   VOL   3*song2F_mvl/mxv
 BYTE   W01
 BYTE   VOL   3*song2F_mvl/mxv
 BYTE   W01
 BYTE   VOL   3*song2F_mvl/mxv
 BYTE   W01
 BYTE   VOL   3*song2F_mvl/mxv
 BYTE   W01
 BYTE   VOL   2*song2F_mvl/mxv
 BYTE   W01
 BYTE   VOL   2*song2F_mvl/mxv
 BYTE   W01
 BYTE   VOL   2*song2F_mvl/mxv
 BYTE   W01
 BYTE   VOL   2*song2F_mvl/mxv
 BYTE   W01
 BYTE   VOL   1*song2F_mvl/mxv
 BYTE   W01
 BYTE   VOL   1*song2F_mvl/mxv
 BYTE   W01
 BYTE   VOL   1*song2F_mvl/mxv
 BYTE   W01
 BYTE   VOL   1*song2F_mvl/mxv
 BYTE   W01
 BYTE   VOL   1*song2F_mvl/mxv
 BYTE   W01
 BYTE   VOL   1*song2F_mvl/mxv
 BYTE   W01
 BYTE   VOL   1*song2F_mvl/mxv
 BYTE   W01
 BYTE   VOL   0*song2F_mvl/mxv
 BYTE   W01
 BYTE   VOL   0*song2F_mvl/mxv
 BYTE   W01
 BYTE   VOL   0*song2F_mvl/mxv
 BYTE   W01
 BYTE   VOL   0*song2F_mvl/mxv
 BYTE   W01
 BYTE   VOL   0*song2F_mvl/mxv
 BYTE   W01
 BYTE   VOL   0*song2F_mvl/mxv
 BYTE   W01
 BYTE   VOL   0*song2F_mvl/mxv
 BYTE   W01
 BYTE   EOT
 BYTE   VOL   50*song2F_mvl/mxv
 BYTE   W96
//  #06 //021   ----------------------------------------
 BYTE   W48
 BYTE   W96
//  #06 //022   ----------------------------------------
 BYTE   W48
Label_0181A1A2:
 BYTE   VOICE   52
 BYTE   N24  Cs3  v127
 BYTE   W24
 BYTE   N96  Ds3
 BYTE   W96
//  #06 //023   ----------------------------------------
 BYTE   N24  Fn3
 BYTE   W24
 BYTE   PEND 
Label_0181A1AF:
 BYTE   N24  Cs3  v127
 BYTE   W24
 BYTE   N72  Ds3
 BYTE   W96
//  #06 //024   ----------------------------------------
 BYTE   W24
 BYTE   PEND 
Label_0181A1B8:
 BYTE   N24  Cs3  v127
 BYTE   W24
 BYTE   N96  Ds3
 BYTE   W96
//  #06 //025   ----------------------------------------
 BYTE   N24  Fn3
 BYTE   W24
 BYTE   PEND 
//  #06 //026   ----------------------------------------
 BYTE   PATT
  POIN2 Label_0181A1AF
//  #06 //027   ----------------------------------------
Label_0181A1C8:
 BYTE   VOICE   52
 BYTE   N24  Dn3  v127
 BYTE   W24
 BYTE   N96  En3
 BYTE   W96
//  #06 //028   ----------------------------------------
 BYTE   N24  Fs3
 BYTE   W24
 BYTE   PEND 
Label_0181A1D5:
 BYTE   N24  Dn3  v127
 BYTE   W24
 BYTE   N72  En3
 BYTE   W96
//  #06 //029   ----------------------------------------
 BYTE   W24
 BYTE   PEND 
Label_0181A1DE:
 BYTE   N24  Dn3  v127
 BYTE   W24
 BYTE   N96  En3
 BYTE   W96
//  #06 //030   ----------------------------------------
 BYTE   N24  Fs3
 BYTE   W24
 BYTE   PEND 
//  #06 //031   ----------------------------------------
 BYTE   PATT
  POIN2 Label_0181A1D5
//  #06 //032   ----------------------------------------
 BYTE   PATT
  POIN2 Label_0181A1A2
//  #06 //033   ----------------------------------------
 BYTE   PATT
  POIN2 Label_0181A1AF
//  #06 //034   ----------------------------------------
 BYTE   PATT
  POIN2 Label_0181A1B8
//  #06 //035   ----------------------------------------
 BYTE   PATT
  POIN2 Label_0181A1AF
//  #06 //036   ----------------------------------------
 BYTE   PATT
  POIN2 Label_0181A1C8
//  #06 //037   ----------------------------------------
 BYTE   PATT
  POIN2 Label_0181A1D5
//  #06 //038   ----------------------------------------
 BYTE   PATT
  POIN2 Label_0181A1DE
//  #06 //039   ----------------------------------------
 BYTE   PATT
  POIN2 Label_0181A1D5
//  #06 //040   ----------------------------------------
Label_0181A216:
 BYTE   VOICE   52
 BYTE   N24  Cs3  v127
 BYTE   N32  Fn3
 BYTE   W24
 BYTE   N96  Ds3
 BYTE   W12
 BYTE   N36  Fn3
 BYTE   W36
 BYTE   Gs3
 BYTE   W36
//  #06 //041   ----------------------------------------
 BYTE   As3
 BYTE   W12
 BYTE   N24  Fn3
 BYTE   W24
 BYTE   PEND 
Label_0181A22C:
 BYTE   N24  Cs3  v127
 BYTE   N01  Fn3
 BYTE   W24
 BYTE   N56  Ds3
 BYTE   W12
 BYTE   N36  Fn3
 BYTE   W36
//  #06 //042   ----------------------------------------
 BYTE   N06  Fs3
 BYTE   W06
 BYTE   Fn3
 BYTE   W06
 BYTE   N12  Ds3
 BYTE   W60
 BYTE   PEND 
//  #06 //043   ----------------------------------------
 BYTE   PATT
  POIN2 Label_0181A216
//  #06 //044   ----------------------------------------
 BYTE   PATT
  POIN2 Label_0181A22C
//  #06 //045   ----------------------------------------
Label_0181A24B:
 BYTE   VOICE   52
 BYTE   N24  Dn3  v127
 BYTE   N32  Fs3
 BYTE   W24
 BYTE   N96  En3
 BYTE   W12
 BYTE   N36  Fs3
 BYTE   W36
 BYTE   An3
 BYTE   W36
//  #06 //046   ----------------------------------------
 BYTE   Bn3
 BYTE   W12
 BYTE   N24  Fs3
 BYTE   W24
 BYTE   PEND 
Label_0181A261:
 BYTE   N24  Dn3  v127
 BYTE   N01  Fs3
 BYTE   W24
 BYTE   N56  En3
 BYTE   W12
 BYTE   N36  Fs3
 BYTE   W36
//  #06 //047   ----------------------------------------
 BYTE   N06  Gn3
 BYTE   W06
 BYTE   Fs3
 BYTE   W06
 BYTE   N12  En3
 BYTE   W60
 BYTE   PEND 
//  #06 //048   ----------------------------------------
 BYTE   PATT
  POIN2 Label_0181A24B
//  #06 //049   ----------------------------------------
 BYTE   PATT
  POIN2 Label_0181A261
//  #06 //050   ----------------------------------------
 BYTE   PATT
  POIN2 Label_0181A216
//  #06 //051   ----------------------------------------
 BYTE   PATT
  POIN2 Label_0181A22C
//  #06 //052   ----------------------------------------
 BYTE   PATT
  POIN2 Label_0181A216
//  #06 //053   ----------------------------------------
 BYTE   PATT
  POIN2 Label_0181A22C
//  #06 //054   ----------------------------------------
 BYTE   PATT
  POIN2 Label_0181A24B
//  #06 //055   ----------------------------------------
 BYTE   PATT
  POIN2 Label_0181A261
//  #06 //056   ----------------------------------------
 BYTE   PATT
  POIN2 Label_0181A24B
//  #06 //057   ----------------------------------------
 BYTE   PATT
  POIN2 Label_0181A261
//  #06 //058   ----------------------------------------
 BYTE   PATT
  POIN2 Label_0181A216
//  #06 //059   ----------------------------------------
 BYTE   PATT
  POIN2 Label_0181A22C
//  #06 //060   ----------------------------------------
 BYTE   PATT
  POIN2 Label_0181A216
//  #06 //061   ----------------------------------------
 BYTE   PATT
  POIN2 Label_0181A22C
//  #06 //062   ----------------------------------------
 BYTE   PATT
  POIN2 Label_0181A24B
//  #06 //063   ----------------------------------------
 BYTE   PATT
  POIN2 Label_0181A261
//  #06 //064   ----------------------------------------
 BYTE   PATT
  POIN2 Label_0181A24B
//  #06 //065   ----------------------------------------
 BYTE   PATT
  POIN2 Label_0181A261
//  #06 //066   ----------------------------------------
 BYTE   PATT
  POIN2 Label_0181A216
//  #06 //067   ----------------------------------------
 BYTE   PATT
  POIN2 Label_0181A22C
//  #06 //068   ----------------------------------------
 BYTE   PATT
  POIN2 Label_0181A216
//  #06 //069   ----------------------------------------
 BYTE   PATT
  POIN2 Label_0181A22C
//  #06 //070   ----------------------------------------
 BYTE   PATT
  POIN2 Label_0181A216
//  #06 //071   ----------------------------------------
 BYTE   PATT
  POIN2 Label_0181A22C
//  #06 //072   ----------------------------------------
 BYTE   PATT
  POIN2 Label_01819D0C
//  #06 //073   ----------------------------------------
 BYTE   PATT
  POIN2 Label_01819E32
//  #06 //074   ----------------------------------------
 BYTE   EOT
 BYTE   As2
 BYTE   GoTo
  POIN2 Label_01819CEA
 BYTE   FINE

//**************** Track 7 (Midi-Chn.6) ****************//

song2F_007:
//  #07 //000   ----------------------------------------
 BYTE   KEYSH   song2F_key+0
Label_01818BA6:
 BYTE   VOICE   85
 BYTE   VOL   50*song2F_mvl/mxv
 BYTE   PAN   c_v+30
 BYTE   W96
//  #07 //001   ----------------------------------------
 BYTE   W48
 BYTE   W96
//  #07 //002   ----------------------------------------
 BYTE   W48
 BYTE   W96
//  #07 //003   ----------------------------------------
 BYTE   W48
 BYTE   W96
//  #07 //004   ----------------------------------------
 BYTE   W48
 BYTE   W96
//  #07 //005   ----------------------------------------
 BYTE   W48
 BYTE   W96
//  #07 //006   ----------------------------------------
 BYTE   W48
 BYTE   W96
//  #07 //007   ----------------------------------------
 BYTE   W48
 BYTE   W96
//  #07 //008   ----------------------------------------
 BYTE   W48
 BYTE   W96
//  #07 //009   ----------------------------------------
 BYTE   W48
 BYTE   W96
//  #07 //010   ----------------------------------------
 BYTE   W48
 BYTE   W96
//  #07 //011   ----------------------------------------
 BYTE   W48
 BYTE   W96
//  #07 //012   ----------------------------------------
 BYTE   W48
 BYTE   W96
//  #07 //013   ----------------------------------------
 BYTE   W48
 BYTE   W96
//  #07 //014   ----------------------------------------
 BYTE   W48
Label_01818BC8:
 BYTE   VOL   0*song2F_mvl/mxv
 BYTE   TIE  As3  v127
 BYTE   W01
 BYTE   VOL   0*song2F_mvl/mxv
 BYTE   W01
 BYTE   VOL   0*song2F_mvl/mxv
 BYTE   W01
 BYTE   VOL   0*song2F_mvl/mxv
 BYTE   W01
 BYTE   VOL   0*song2F_mvl/mxv
 BYTE   W01
 BYTE   VOL   0*song2F_mvl/mxv
 BYTE   W01
 BYTE   VOL   0*song2F_mvl/mxv
 BYTE   W01
 BYTE   VOL   0*song2F_mvl/mxv
 BYTE   W01
 BYTE   VOL   0*song2F_mvl/mxv
 BYTE   W01
 BYTE   VOL   0*song2F_mvl/mxv
 BYTE   W01
 BYTE   VOL   0*song2F_mvl/mxv
 BYTE   W01
 BYTE   VOL   0*song2F_mvl/mxv
 BYTE   W01
 BYTE   VOL   0*song2F_mvl/mxv
 BYTE   W01
 BYTE   VOL   0*song2F_mvl/mxv
 BYTE   W01
 BYTE   VOL   0*song2F_mvl/mxv
 BYTE   W01
 BYTE   VOL   0*song2F_mvl/mxv
 BYTE   W01
 BYTE   VOL   0*song2F_mvl/mxv
 BYTE   W01
 BYTE   VOL   0*song2F_mvl/mxv
 BYTE   W01
 BYTE   VOL   0*song2F_mvl/mxv
 BYTE   W01
 BYTE   VOL   0*song2F_mvl/mxv
 BYTE   W01
 BYTE   VOL   0*song2F_mvl/mxv
 BYTE   W01
 BYTE   VOL   0*song2F_mvl/mxv
 BYTE   W01
 BYTE   VOL   0*song2F_mvl/mxv
 BYTE   W01
 BYTE   VOL   0*song2F_mvl/mxv
 BYTE   W01
 BYTE   VOL   0*song2F_mvl/mxv
 BYTE   W01
 BYTE   VOL   0*song2F_mvl/mxv
 BYTE   W01
 BYTE   VOL   0*song2F_mvl/mxv
 BYTE   W01
 BYTE   VOL   0*song2F_mvl/mxv
 BYTE   W01
 BYTE   VOL   0*song2F_mvl/mxv
 BYTE   W01
 BYTE   VOL   0*song2F_mvl/mxv
 BYTE   W01
 BYTE   VOL   0*song2F_mvl/mxv
 BYTE   W01
 BYTE   VOL   0*song2F_mvl/mxv
 BYTE   W01
 BYTE   VOL   0*song2F_mvl/mxv
 BYTE   W01
 BYTE   VOL   0*song2F_mvl/mxv
 BYTE   W01
 BYTE   VOL   0*song2F_mvl/mxv
 BYTE   W01
 BYTE   VOL   0*song2F_mvl/mxv
 BYTE   W01
 BYTE   VOL   1*song2F_mvl/mxv
 BYTE   W01
 BYTE   VOL   1*song2F_mvl/mxv
 BYTE   W01
 BYTE   VOL   1*song2F_mvl/mxv
 BYTE   W01
 BYTE   VOL   1*song2F_mvl/mxv
 BYTE   W01
 BYTE   VOL   1*song2F_mvl/mxv
 BYTE   W01
 BYTE   VOL   1*song2F_mvl/mxv
 BYTE   W01
 BYTE   VOL   1*song2F_mvl/mxv
 BYTE   W01
 BYTE   VOL   1*song2F_mvl/mxv
 BYTE   W01
 BYTE   VOL   1*song2F_mvl/mxv
 BYTE   W01
 BYTE   VOL   1*song2F_mvl/mxv
 BYTE   W01
 BYTE   VOL   1*song2F_mvl/mxv
 BYTE   W01
 BYTE   VOL   1*song2F_mvl/mxv
 BYTE   W01
//  #07 //015   ----------------------------------------
 BYTE   VOL   1*song2F_mvl/mxv
 BYTE   W01
 BYTE   VOL   1*song2F_mvl/mxv
 BYTE   W01
 BYTE   VOL   1*song2F_mvl/mxv
 BYTE   W01
 BYTE   VOL   1*song2F_mvl/mxv
 BYTE   W01
 BYTE   VOL   1*song2F_mvl/mxv
 BYTE   W01
 BYTE   VOL   1*song2F_mvl/mxv
 BYTE   W01
 BYTE   VOL   1*song2F_mvl/mxv
 BYTE   W01
 BYTE   VOL   1*song2F_mvl/mxv
 BYTE   W01
 BYTE   VOL   1*song2F_mvl/mxv
 BYTE   W01
 BYTE   VOL   1*song2F_mvl/mxv
 BYTE   W01
 BYTE   VOL   1*song2F_mvl/mxv
 BYTE   W01
 BYTE   VOL   1*song2F_mvl/mxv
 BYTE   W01
 BYTE   VOL   1*song2F_mvl/mxv
 BYTE   W01
 BYTE   VOL   1*song2F_mvl/mxv
 BYTE   W01
 BYTE   VOL   2*song2F_mvl/mxv
 BYTE   W01
 BYTE   VOL   2*song2F_mvl/mxv
 BYTE   W01
 BYTE   VOL   2*song2F_mvl/mxv
 BYTE   W01
 BYTE   VOL   2*song2F_mvl/mxv
 BYTE   W01
 BYTE   VOL   2*song2F_mvl/mxv
 BYTE   W01
 BYTE   VOL   2*song2F_mvl/mxv
 BYTE   W01
 BYTE   VOL   2*song2F_mvl/mxv
 BYTE   W01
 BYTE   VOL   2*song2F_mvl/mxv
 BYTE   W01
 BYTE   VOL   2*song2F_mvl/mxv
 BYTE   W01
 BYTE   VOL   2*song2F_mvl/mxv
 BYTE   W01
 BYTE   VOL   2*song2F_mvl/mxv
 BYTE   W01
 BYTE   VOL   2*song2F_mvl/mxv
 BYTE   W01
 BYTE   VOL   2*song2F_mvl/mxv
 BYTE   W01
 BYTE   VOL   2*song2F_mvl/mxv
 BYTE   W01
 BYTE   VOL   3*song2F_mvl/mxv
 BYTE   W01
 BYTE   VOL   3*song2F_mvl/mxv
 BYTE   W01
 BYTE   VOL   3*song2F_mvl/mxv
 BYTE   W01
 BYTE   VOL   3*song2F_mvl/mxv
 BYTE   W01
 BYTE   VOL   3*song2F_mvl/mxv
 BYTE   W01
 BYTE   VOL   3*song2F_mvl/mxv
 BYTE   W01
 BYTE   VOL   3*song2F_mvl/mxv
 BYTE   W01
 BYTE   VOL   3*song2F_mvl/mxv
 BYTE   W01
 BYTE   VOL   3*song2F_mvl/mxv
 BYTE   W01
 BYTE   VOL   3*song2F_mvl/mxv
 BYTE   W01
 BYTE   VOL   3*song2F_mvl/mxv
 BYTE   W01
 BYTE   VOL   3*song2F_mvl/mxv
 BYTE   W01
 BYTE   VOL   3*song2F_mvl/mxv
 BYTE   W01
 BYTE   VOL   3*song2F_mvl/mxv
 BYTE   W01
 BYTE   VOL   3*song2F_mvl/mxv
 BYTE   W01
 BYTE   VOL   3*song2F_mvl/mxv
 BYTE   W01
 BYTE   VOL   3*song2F_mvl/mxv
 BYTE   W01
 BYTE   VOL   3*song2F_mvl/mxv
 BYTE   W01
 BYTE   VOL   4*song2F_mvl/mxv
 BYTE   W01
 BYTE   VOL   4*song2F_mvl/mxv
 BYTE   W01
 BYTE   VOL   4*song2F_mvl/mxv
 BYTE   W01
 BYTE   VOL   4*song2F_mvl/mxv
 BYTE   W01
 BYTE   VOL   4*song2F_mvl/mxv
 BYTE   W01
 BYTE   VOL   4*song2F_mvl/mxv
 BYTE   W01
 BYTE   VOL   4*song2F_mvl/mxv
 BYTE   W01
 BYTE   VOL   4*song2F_mvl/mxv
 BYTE   W01
 BYTE   VOL   4*song2F_mvl/mxv
 BYTE   W01
 BYTE   VOL   4*song2F_mvl/mxv
 BYTE   W01
 BYTE   VOL   5*song2F_mvl/mxv
 BYTE   W01
 BYTE   VOL   5*song2F_mvl/mxv
 BYTE   W01
 BYTE   VOL   5*song2F_mvl/mxv
 BYTE   W01
 BYTE   VOL   5*song2F_mvl/mxv
 BYTE   W01
 BYTE   VOL   5*song2F_mvl/mxv
 BYTE   W01
 BYTE   VOL   5*song2F_mvl/mxv
 BYTE   W01
 BYTE   VOL   5*song2F_mvl/mxv
 BYTE   W01
 BYTE   VOL   5*song2F_mvl/mxv
 BYTE   W01
 BYTE   VOL   5*song2F_mvl/mxv
 BYTE   W01
 BYTE   VOL   5*song2F_mvl/mxv
 BYTE   W01
 BYTE   VOL   5*song2F_mvl/mxv
 BYTE   W01
 BYTE   VOL   5*song2F_mvl/mxv
 BYTE   W01
 BYTE   VOL   5*song2F_mvl/mxv
 BYTE   W01
 BYTE   VOL   5*song2F_mvl/mxv
 BYTE   W01
 BYTE   VOL   6*song2F_mvl/mxv
 BYTE   W01
 BYTE   VOL   6*song2F_mvl/mxv
 BYTE   W01
 BYTE   VOL   6*song2F_mvl/mxv
 BYTE   W01
 BYTE   VOL   6*song2F_mvl/mxv
 BYTE   W01
 BYTE   VOL   6*song2F_mvl/mxv
 BYTE   W01
 BYTE   VOL   6*song2F_mvl/mxv
 BYTE   W01
 BYTE   VOL   6*song2F_mvl/mxv
 BYTE   W01
 BYTE   VOL   6*song2F_mvl/mxv
 BYTE   W01
 BYTE   VOL   7*song2F_mvl/mxv
 BYTE   W01
 BYTE   VOL   7*song2F_mvl/mxv
 BYTE   W01
 BYTE   VOL   7*song2F_mvl/mxv
 BYTE   W01
 BYTE   VOL   7*song2F_mvl/mxv
 BYTE   W01
 BYTE   VOL   7*song2F_mvl/mxv
 BYTE   W01
 BYTE   VOL   7*song2F_mvl/mxv
 BYTE   W01
 BYTE   VOL   7*song2F_mvl/mxv
 BYTE   W01
 BYTE   VOL   7*song2F_mvl/mxv
 BYTE   W01
 BYTE   VOL   7*song2F_mvl/mxv
 BYTE   W01
 BYTE   VOL   7*song2F_mvl/mxv
 BYTE   W01
 BYTE   VOL   7*song2F_mvl/mxv
 BYTE   W01
 BYTE   VOL   8*song2F_mvl/mxv
 BYTE   W01
 BYTE   VOL   8*song2F_mvl/mxv
 BYTE   W01
 BYTE   VOL   8*song2F_mvl/mxv
 BYTE   W01
 BYTE   VOL   8*song2F_mvl/mxv
 BYTE   W01
 BYTE   VOL   8*song2F_mvl/mxv
 BYTE   W01
 BYTE   VOL   8*song2F_mvl/mxv
 BYTE   W01
 BYTE   VOL   9*song2F_mvl/mxv
 BYTE   W01
 BYTE   PEND 
//  #07 //016   ----------------------------------------
Label_01818CEE:
 BYTE   VOL   9*song2F_mvl/mxv
 BYTE   W01
 BYTE   VOL   9*song2F_mvl/mxv
 BYTE   W01
 BYTE   VOL   9*song2F_mvl/mxv
 BYTE   W01
 BYTE   VOL   9*song2F_mvl/mxv
 BYTE   W01
 BYTE   VOL   9*song2F_mvl/mxv
 BYTE   W01
 BYTE   VOL   9*song2F_mvl/mxv
 BYTE   W01
 BYTE   VOL   9*song2F_mvl/mxv
 BYTE   W01
 BYTE   VOL   9*song2F_mvl/mxv
 BYTE   W01
 BYTE   VOL   9*song2F_mvl/mxv
 BYTE   W01
 BYTE   VOL   10*song2F_mvl/mxv
 BYTE   W01
 BYTE   VOL   10*song2F_mvl/mxv
 BYTE   W01
 BYTE   VOL   10*song2F_mvl/mxv
 BYTE   W01
 BYTE   VOL   10*song2F_mvl/mxv
 BYTE   W01
 BYTE   VOL   10*song2F_mvl/mxv
 BYTE   W01
 BYTE   VOL   11*song2F_mvl/mxv
 BYTE   W01
 BYTE   VOL   11*song2F_mvl/mxv
 BYTE   W01
 BYTE   VOL   11*song2F_mvl/mxv
 BYTE   W01
 BYTE   VOL   11*song2F_mvl/mxv
 BYTE   W01
 BYTE   VOL   11*song2F_mvl/mxv
 BYTE   W01
 BYTE   VOL   11*song2F_mvl/mxv
 BYTE   W01
 BYTE   VOL   11*song2F_mvl/mxv
 BYTE   W01
 BYTE   VOL   11*song2F_mvl/mxv
 BYTE   W01
 BYTE   VOL   12*song2F_mvl/mxv
 BYTE   W01
 BYTE   VOL   12*song2F_mvl/mxv
 BYTE   W01
 BYTE   VOL   12*song2F_mvl/mxv
 BYTE   W01
 BYTE   VOL   12*song2F_mvl/mxv
 BYTE   W01
 BYTE   VOL   12*song2F_mvl/mxv
 BYTE   W01
 BYTE   VOL   12*song2F_mvl/mxv
 BYTE   W01
 BYTE   VOL   12*song2F_mvl/mxv
 BYTE   W01
 BYTE   VOL   12*song2F_mvl/mxv
 BYTE   W01
 BYTE   VOL   13*song2F_mvl/mxv
 BYTE   W01
 BYTE   VOL   13*song2F_mvl/mxv
 BYTE   W01
 BYTE   VOL   13*song2F_mvl/mxv
 BYTE   W01
 BYTE   VOL   13*song2F_mvl/mxv
 BYTE   W01
 BYTE   VOL   14*song2F_mvl/mxv
 BYTE   W01
 BYTE   VOL   14*song2F_mvl/mxv
 BYTE   W01
 BYTE   VOL   14*song2F_mvl/mxv
 BYTE   W01
 BYTE   VOL   14*song2F_mvl/mxv
 BYTE   W01
 BYTE   VOL   14*song2F_mvl/mxv
 BYTE   W01
 BYTE   VOL   14*song2F_mvl/mxv
 BYTE   W01
 BYTE   VOL   14*song2F_mvl/mxv
 BYTE   W01
 BYTE   VOL   15*song2F_mvl/mxv
 BYTE   W01
 BYTE   VOL   15*song2F_mvl/mxv
 BYTE   W01
 BYTE   VOL   15*song2F_mvl/mxv
 BYTE   W01
 BYTE   VOL   15*song2F_mvl/mxv
 BYTE   W01
 BYTE   VOL   16*song2F_mvl/mxv
 BYTE   W01
 BYTE   VOL   16*song2F_mvl/mxv
 BYTE   W01
 BYTE   VOL   16*song2F_mvl/mxv
 BYTE   W01
 BYTE   VOL   16*song2F_mvl/mxv
 BYTE   W01
 BYTE   VOL   16*song2F_mvl/mxv
 BYTE   W01
 BYTE   VOL   16*song2F_mvl/mxv
 BYTE   W01
 BYTE   VOL   17*song2F_mvl/mxv
 BYTE   W01
 BYTE   VOL   17*song2F_mvl/mxv
 BYTE   W01
 BYTE   VOL   17*song2F_mvl/mxv
 BYTE   W01
 BYTE   VOL   18*song2F_mvl/mxv
 BYTE   W01
 BYTE   VOL   18*song2F_mvl/mxv
 BYTE   W01
 BYTE   VOL   18*song2F_mvl/mxv
 BYTE   W01
 BYTE   VOL   18*song2F_mvl/mxv
 BYTE   W01
 BYTE   VOL   18*song2F_mvl/mxv
 BYTE   W01
 BYTE   VOL   18*song2F_mvl/mxv
 BYTE   W01
 BYTE   VOL   19*song2F_mvl/mxv
 BYTE   W01
 BYTE   VOL   19*song2F_mvl/mxv
 BYTE   W01
 BYTE   VOL   19*song2F_mvl/mxv
 BYTE   W01
 BYTE   VOL   20*song2F_mvl/mxv
 BYTE   W01
 BYTE   VOL   20*song2F_mvl/mxv
 BYTE   W01
 BYTE   VOL   20*song2F_mvl/mxv
 BYTE   W01
 BYTE   VOL   20*song2F_mvl/mxv
 BYTE   W01
 BYTE   VOL   20*song2F_mvl/mxv
 BYTE   W01
 BYTE   VOL   21*song2F_mvl/mxv
 BYTE   W01
 BYTE   VOL   21*song2F_mvl/mxv
 BYTE   W01
 BYTE   VOL   21*song2F_mvl/mxv
 BYTE   W01
 BYTE   VOL   22*song2F_mvl/mxv
 BYTE   W01
 BYTE   VOL   22*song2F_mvl/mxv
 BYTE   W01
 BYTE   VOL   22*song2F_mvl/mxv
 BYTE   W01
 BYTE   VOL   22*song2F_mvl/mxv
 BYTE   W01
 BYTE   VOL   22*song2F_mvl/mxv
 BYTE   W01
 BYTE   VOL   23*song2F_mvl/mxv
 BYTE   W01
 BYTE   VOL   23*song2F_mvl/mxv
 BYTE   W01
 BYTE   VOL   23*song2F_mvl/mxv
 BYTE   W01
 BYTE   VOL   24*song2F_mvl/mxv
 BYTE   W01
 BYTE   VOL   24*song2F_mvl/mxv
 BYTE   W01
 BYTE   VOL   24*song2F_mvl/mxv
 BYTE   W01
 BYTE   VOL   24*song2F_mvl/mxv
 BYTE   W01
 BYTE   VOL   25*song2F_mvl/mxv
 BYTE   W01
 BYTE   VOL   25*song2F_mvl/mxv
 BYTE   W01
 BYTE   VOL   25*song2F_mvl/mxv
 BYTE   W01
 BYTE   VOL   25*song2F_mvl/mxv
 BYTE   W01
 BYTE   VOL   26*song2F_mvl/mxv
 BYTE   W01
 BYTE   VOL   26*song2F_mvl/mxv
 BYTE   W01
 BYTE   VOL   27*song2F_mvl/mxv
 BYTE   W01
 BYTE   VOL   27*song2F_mvl/mxv
 BYTE   W01
 BYTE   VOL   27*song2F_mvl/mxv
 BYTE   W01
 BYTE   VOL   27*song2F_mvl/mxv
 BYTE   W01
 BYTE   VOL   28*song2F_mvl/mxv
 BYTE   W01
 BYTE   VOL   28*song2F_mvl/mxv
 BYTE   W01
 BYTE   VOL   29*song2F_mvl/mxv
 BYTE   W01
//  #07 //017   ----------------------------------------
 BYTE   VOL   29*song2F_mvl/mxv
 BYTE   W01
 BYTE   VOL   29*song2F_mvl/mxv
 BYTE   W01
 BYTE   VOL   29*song2F_mvl/mxv
 BYTE   W01
 BYTE   VOL   30*song2F_mvl/mxv
 BYTE   W01
 BYTE   VOL   30*song2F_mvl/mxv
 BYTE   W01
 BYTE   VOL   31*song2F_mvl/mxv
 BYTE   W01
 BYTE   VOL   31*song2F_mvl/mxv
 BYTE   W01
 BYTE   VOL   31*song2F_mvl/mxv
 BYTE   W01
 BYTE   VOL   32*song2F_mvl/mxv
 BYTE   W01
 BYTE   VOL   32*song2F_mvl/mxv
 BYTE   W01
 BYTE   VOL   32*song2F_mvl/mxv
 BYTE   W01
 BYTE   VOL   33*song2F_mvl/mxv
 BYTE   W01
 BYTE   VOL   33*song2F_mvl/mxv
 BYTE   W01
 BYTE   VOL   33*song2F_mvl/mxv
 BYTE   W01
 BYTE   VOL   34*song2F_mvl/mxv
 BYTE   W01
 BYTE   VOL   34*song2F_mvl/mxv
 BYTE   W01
 BYTE   VOL   35*song2F_mvl/mxv
 BYTE   W01
 BYTE   VOL   35*song2F_mvl/mxv
 BYTE   W01
 BYTE   VOL   35*song2F_mvl/mxv
 BYTE   W01
 BYTE   VOL   36*song2F_mvl/mxv
 BYTE   W01
 BYTE   VOL   36*song2F_mvl/mxv
 BYTE   W01
 BYTE   VOL   37*song2F_mvl/mxv
 BYTE   W01
 BYTE   VOL   37*song2F_mvl/mxv
 BYTE   W01
 BYTE   VOL   38*song2F_mvl/mxv
 BYTE   W01
 BYTE   VOL   38*song2F_mvl/mxv
 BYTE   W01
 BYTE   VOL   38*song2F_mvl/mxv
 BYTE   W01
 BYTE   VOL   39*song2F_mvl/mxv
 BYTE   W01
 BYTE   VOL   39*song2F_mvl/mxv
 BYTE   W01
 BYTE   VOL   40*song2F_mvl/mxv
 BYTE   W01
 BYTE   VOL   40*song2F_mvl/mxv
 BYTE   W01
 BYTE   VOL   40*song2F_mvl/mxv
 BYTE   W01
 BYTE   VOL   41*song2F_mvl/mxv
 BYTE   W01
 BYTE   VOL   42*song2F_mvl/mxv
 BYTE   W01
 BYTE   VOL   42*song2F_mvl/mxv
 BYTE   W01
 BYTE   VOL   42*song2F_mvl/mxv
 BYTE   W01
 BYTE   VOL   43*song2F_mvl/mxv
 BYTE   W01
 BYTE   VOL   44*song2F_mvl/mxv
 BYTE   W01
 BYTE   VOL   44*song2F_mvl/mxv
 BYTE   W01
 BYTE   VOL   44*song2F_mvl/mxv
 BYTE   W01
 BYTE   VOL   45*song2F_mvl/mxv
 BYTE   W01
 BYTE   VOL   46*song2F_mvl/mxv
 BYTE   W01
 BYTE   VOL   46*song2F_mvl/mxv
 BYTE   W01
 BYTE   VOL   46*song2F_mvl/mxv
 BYTE   W01
 BYTE   VOL   47*song2F_mvl/mxv
 BYTE   W01
 BYTE   VOL   48*song2F_mvl/mxv
 BYTE   W01
 BYTE   VOL   48*song2F_mvl/mxv
 BYTE   W01
 BYTE   VOL   49*song2F_mvl/mxv
 BYTE   W01
 BYTE   VOL   49*song2F_mvl/mxv
 BYTE   W01
 BYTE   PEND 
 BYTE   EOT
 BYTE   As3
 BYTE   VOL   49*song2F_mvl/mxv
 BYTE   TIE  As3  v127
 BYTE   W01
 BYTE   VOL   49*song2F_mvl/mxv
 BYTE   W01
 BYTE   VOL   49*song2F_mvl/mxv
 BYTE   W01
 BYTE   VOL   49*song2F_mvl/mxv
 BYTE   W01
 BYTE   VOL   49*song2F_mvl/mxv
 BYTE   W01
 BYTE   VOL   48*song2F_mvl/mxv
 BYTE   W01
 BYTE   VOL   48*song2F_mvl/mxv
 BYTE   W01
 BYTE   VOL   48*song2F_mvl/mxv
 BYTE   W01
 BYTE   VOL   48*song2F_mvl/mxv
 BYTE   W01
 BYTE   VOL   48*song2F_mvl/mxv
 BYTE   W01
 BYTE   VOL   48*song2F_mvl/mxv
 BYTE   W01
 BYTE   VOL   47*song2F_mvl/mxv
 BYTE   W01
 BYTE   VOL   47*song2F_mvl/mxv
 BYTE   W01
 BYTE   VOL   47*song2F_mvl/mxv
 BYTE   W01
 BYTE   VOL   47*song2F_mvl/mxv
 BYTE   W01
 BYTE   VOL   47*song2F_mvl/mxv
 BYTE   W01
 BYTE   VOL   46*song2F_mvl/mxv
 BYTE   W01
 BYTE   VOL   46*song2F_mvl/mxv
 BYTE   W01
 BYTE   VOL   46*song2F_mvl/mxv
 BYTE   W01
 BYTE   VOL   46*song2F_mvl/mxv
 BYTE   W01
 BYTE   VOL   46*song2F_mvl/mxv
 BYTE   W01
 BYTE   VOL   46*song2F_mvl/mxv
 BYTE   W01
 BYTE   VOL   46*song2F_mvl/mxv
 BYTE   W01
 BYTE   VOL   45*song2F_mvl/mxv
 BYTE   W01
 BYTE   VOL   45*song2F_mvl/mxv
 BYTE   W01
 BYTE   VOL   45*song2F_mvl/mxv
 BYTE   W01
 BYTE   VOL   45*song2F_mvl/mxv
 BYTE   W01
 BYTE   VOL   44*song2F_mvl/mxv
 BYTE   W01
 BYTE   VOL   44*song2F_mvl/mxv
 BYTE   W01
 BYTE   VOL   44*song2F_mvl/mxv
 BYTE   W01
 BYTE   VOL   44*song2F_mvl/mxv
 BYTE   W01
 BYTE   VOL   44*song2F_mvl/mxv
 BYTE   W01
 BYTE   VOL   44*song2F_mvl/mxv
 BYTE   W01
 BYTE   VOL   44*song2F_mvl/mxv
 BYTE   W01
 BYTE   VOL   43*song2F_mvl/mxv
 BYTE   W01
 BYTE   VOL   43*song2F_mvl/mxv
 BYTE   W01
 BYTE   VOL   43*song2F_mvl/mxv
 BYTE   W01
 BYTE   VOL   43*song2F_mvl/mxv
 BYTE   W01
 BYTE   VOL   43*song2F_mvl/mxv
 BYTE   W01
 BYTE   VOL   42*song2F_mvl/mxv
 BYTE   W01
 BYTE   VOL   42*song2F_mvl/mxv
 BYTE   W01
 BYTE   VOL   42*song2F_mvl/mxv
 BYTE   W01
 BYTE   VOL   42*song2F_mvl/mxv
 BYTE   W01
 BYTE   VOL   42*song2F_mvl/mxv
 BYTE   W01
 BYTE   VOL   42*song2F_mvl/mxv
 BYTE   W01
 BYTE   VOL   41*song2F_mvl/mxv
 BYTE   W01
 BYTE   VOL   41*song2F_mvl/mxv
 BYTE   W01
 BYTE   VOL   41*song2F_mvl/mxv
 BYTE   W01
//  #07 //018   ----------------------------------------
 BYTE   VOL   41*song2F_mvl/mxv
 BYTE   W01
 BYTE   VOL   41*song2F_mvl/mxv
 BYTE   W01
 BYTE   VOL   40*song2F_mvl/mxv
 BYTE   W01
 BYTE   VOL   40*song2F_mvl/mxv
 BYTE   W01
 BYTE   VOL   40*song2F_mvl/mxv
 BYTE   W01
 BYTE   VOL   40*song2F_mvl/mxv
 BYTE   W01
 BYTE   VOL   40*song2F_mvl/mxv
 BYTE   W01
 BYTE   VOL   40*song2F_mvl/mxv
 BYTE   W01
 BYTE   VOL   40*song2F_mvl/mxv
 BYTE   W01
 BYTE   VOL   39*song2F_mvl/mxv
 BYTE   W01
 BYTE   VOL   39*song2F_mvl/mxv
 BYTE   W01
 BYTE   VOL   39*song2F_mvl/mxv
 BYTE   W01
 BYTE   VOL   39*song2F_mvl/mxv
 BYTE   W01
 BYTE   VOL   38*song2F_mvl/mxv
 BYTE   W01
 BYTE   VOL   38*song2F_mvl/mxv
 BYTE   W01
 BYTE   VOL   38*song2F_mvl/mxv
 BYTE   W01
 BYTE   VOL   38*song2F_mvl/mxv
 BYTE   W01
 BYTE   VOL   38*song2F_mvl/mxv
 BYTE   W01
 BYTE   VOL   38*song2F_mvl/mxv
 BYTE   W01
 BYTE   VOL   38*song2F_mvl/mxv
 BYTE   W01
 BYTE   VOL   37*song2F_mvl/mxv
 BYTE   W01
 BYTE   VOL   37*song2F_mvl/mxv
 BYTE   W01
 BYTE   VOL   37*song2F_mvl/mxv
 BYTE   W01
 BYTE   VOL   37*song2F_mvl/mxv
 BYTE   W01
 BYTE   VOL   37*song2F_mvl/mxv
 BYTE   W01
 BYTE   VOL   37*song2F_mvl/mxv
 BYTE   W01
 BYTE   VOL   37*song2F_mvl/mxv
 BYTE   W01
 BYTE   VOL   36*song2F_mvl/mxv
 BYTE   W01
 BYTE   VOL   36*song2F_mvl/mxv
 BYTE   W01
 BYTE   VOL   36*song2F_mvl/mxv
 BYTE   W01
 BYTE   VOL   36*song2F_mvl/mxv
 BYTE   W01
 BYTE   VOL   35*song2F_mvl/mxv
 BYTE   W01
 BYTE   VOL   35*song2F_mvl/mxv
 BYTE   W01
 BYTE   VOL   35*song2F_mvl/mxv
 BYTE   W01
 BYTE   VOL   35*song2F_mvl/mxv
 BYTE   W01
 BYTE   VOL   35*song2F_mvl/mxv
 BYTE   W01
 BYTE   VOL   35*song2F_mvl/mxv
 BYTE   W01
 BYTE   VOL   35*song2F_mvl/mxv
 BYTE   W01
 BYTE   VOL   34*song2F_mvl/mxv
 BYTE   W01
 BYTE   VOL   34*song2F_mvl/mxv
 BYTE   W01
 BYTE   VOL   34*song2F_mvl/mxv
 BYTE   W01
 BYTE   VOL   34*song2F_mvl/mxv
 BYTE   W01
 BYTE   VOL   34*song2F_mvl/mxv
 BYTE   W01
 BYTE   VOL   33*song2F_mvl/mxv
 BYTE   W01
 BYTE   VOL   33*song2F_mvl/mxv
 BYTE   W01
 BYTE   VOL   33*song2F_mvl/mxv
 BYTE   W01
 BYTE   VOL   33*song2F_mvl/mxv
 BYTE   W01
 BYTE   VOL   33*song2F_mvl/mxv
 BYTE   W01
 BYTE   VOL   33*song2F_mvl/mxv
 BYTE   W01
 BYTE   VOL   32*song2F_mvl/mxv
 BYTE   W01
 BYTE   VOL   32*song2F_mvl/mxv
 BYTE   W01
 BYTE   VOL   32*song2F_mvl/mxv
 BYTE   W01
 BYTE   VOL   32*song2F_mvl/mxv
 BYTE   W01
 BYTE   VOL   32*song2F_mvl/mxv
 BYTE   W01
 BYTE   VOL   31*song2F_mvl/mxv
 BYTE   W01
 BYTE   VOL   31*song2F_mvl/mxv
 BYTE   W01
 BYTE   VOL   31*song2F_mvl/mxv
 BYTE   W01
 BYTE   VOL   31*song2F_mvl/mxv
 BYTE   W01
 BYTE   VOL   31*song2F_mvl/mxv
 BYTE   W01
 BYTE   VOL   31*song2F_mvl/mxv
 BYTE   W01
 BYTE   VOL   31*song2F_mvl/mxv
 BYTE   W01
 BYTE   VOL   30*song2F_mvl/mxv
 BYTE   W01
 BYTE   VOL   30*song2F_mvl/mxv
 BYTE   W01
 BYTE   VOL   30*song2F_mvl/mxv
 BYTE   W01
 BYTE   VOL   30*song2F_mvl/mxv
 BYTE   W01
 BYTE   VOL   29*song2F_mvl/mxv
 BYTE   W01
 BYTE   VOL   29*song2F_mvl/mxv
 BYTE   W01
 BYTE   VOL   29*song2F_mvl/mxv
 BYTE   W01
 BYTE   VOL   29*song2F_mvl/mxv
 BYTE   W01
 BYTE   VOL   29*song2F_mvl/mxv
 BYTE   W01
 BYTE   VOL   29*song2F_mvl/mxv
 BYTE   W01
 BYTE   VOL   29*song2F_mvl/mxv
 BYTE   W01
 BYTE   VOL   28*song2F_mvl/mxv
 BYTE   W01
 BYTE   VOL   28*song2F_mvl/mxv
 BYTE   W01
 BYTE   VOL   28*song2F_mvl/mxv
 BYTE   W01
 BYTE   VOL   28*song2F_mvl/mxv
 BYTE   W01
 BYTE   VOL   28*song2F_mvl/mxv
 BYTE   W01
 BYTE   VOL   27*song2F_mvl/mxv
 BYTE   W01
 BYTE   VOL   27*song2F_mvl/mxv
 BYTE   W01
 BYTE   VOL   27*song2F_mvl/mxv
 BYTE   W01
 BYTE   VOL   27*song2F_mvl/mxv
 BYTE   W01
 BYTE   VOL   27*song2F_mvl/mxv
 BYTE   W01
 BYTE   VOL   27*song2F_mvl/mxv
 BYTE   W01
 BYTE   VOL   27*song2F_mvl/mxv
 BYTE   W01
 BYTE   VOL   26*song2F_mvl/mxv
 BYTE   W01
 BYTE   VOL   26*song2F_mvl/mxv
 BYTE   W01
 BYTE   VOL   26*song2F_mvl/mxv
 BYTE   W01
 BYTE   VOL   26*song2F_mvl/mxv
 BYTE   W01
 BYTE   VOL   25*song2F_mvl/mxv
 BYTE   W01
 BYTE   VOL   25*song2F_mvl/mxv
 BYTE   W01
 BYTE   VOL   25*song2F_mvl/mxv
 BYTE   W01
 BYTE   VOL   25*song2F_mvl/mxv
 BYTE   W01
 BYTE   VOL   25*song2F_mvl/mxv
 BYTE   W01
 BYTE   VOL   25*song2F_mvl/mxv
 BYTE   W01
 BYTE   VOL   25*song2F_mvl/mxv
 BYTE   W01
 BYTE   VOL   24*song2F_mvl/mxv
 BYTE   W01
//  #07 //019   ----------------------------------------
 BYTE   VOL   24*song2F_mvl/mxv
 BYTE   W01
 BYTE   VOL   24*song2F_mvl/mxv
 BYTE   W01
 BYTE   VOL   24*song2F_mvl/mxv
 BYTE   W01
 BYTE   VOL   24*song2F_mvl/mxv
 BYTE   W01
 BYTE   VOL   24*song2F_mvl/mxv
 BYTE   W01
 BYTE   VOL   24*song2F_mvl/mxv
 BYTE   W01
 BYTE   VOL   23*song2F_mvl/mxv
 BYTE   W01
 BYTE   VOL   23*song2F_mvl/mxv
 BYTE   W01
 BYTE   VOL   23*song2F_mvl/mxv
 BYTE   W01
 BYTE   VOL   23*song2F_mvl/mxv
 BYTE   W01
 BYTE   VOL   22*song2F_mvl/mxv
 BYTE   W01
 BYTE   VOL   22*song2F_mvl/mxv
 BYTE   W01
 BYTE   VOL   22*song2F_mvl/mxv
 BYTE   W01
 BYTE   VOL   22*song2F_mvl/mxv
 BYTE   W01
 BYTE   VOL   22*song2F_mvl/mxv
 BYTE   W01
 BYTE   VOL   22*song2F_mvl/mxv
 BYTE   W01
 BYTE   VOL   22*song2F_mvl/mxv
 BYTE   W01
 BYTE   VOL   21*song2F_mvl/mxv
 BYTE   W01
 BYTE   VOL   21*song2F_mvl/mxv
 BYTE   W01
 BYTE   VOL   21*song2F_mvl/mxv
 BYTE   W01
 BYTE   VOL   21*song2F_mvl/mxv
 BYTE   W01
 BYTE   VOL   21*song2F_mvl/mxv
 BYTE   W01
 BYTE   VOL   20*song2F_mvl/mxv
 BYTE   W01
 BYTE   VOL   20*song2F_mvl/mxv
 BYTE   W01
 BYTE   VOL   20*song2F_mvl/mxv
 BYTE   W01
 BYTE   VOL   20*song2F_mvl/mxv
 BYTE   W01
 BYTE   VOL   20*song2F_mvl/mxv
 BYTE   W01
 BYTE   VOL   20*song2F_mvl/mxv
 BYTE   W01
 BYTE   VOL   19*song2F_mvl/mxv
 BYTE   W01
 BYTE   VOL   19*song2F_mvl/mxv
 BYTE   W01
 BYTE   VOL   19*song2F_mvl/mxv
 BYTE   W01
 BYTE   VOL   19*song2F_mvl/mxv
 BYTE   W01
 BYTE   VOL   19*song2F_mvl/mxv
 BYTE   W01
 BYTE   VOL   18*song2F_mvl/mxv
 BYTE   W01
 BYTE   VOL   18*song2F_mvl/mxv
 BYTE   W01
 BYTE   VOL   18*song2F_mvl/mxv
 BYTE   W01
 BYTE   VOL   18*song2F_mvl/mxv
 BYTE   W01
 BYTE   VOL   18*song2F_mvl/mxv
 BYTE   W01
 BYTE   VOL   18*song2F_mvl/mxv
 BYTE   W01
 BYTE   VOL   18*song2F_mvl/mxv
 BYTE   W01
 BYTE   VOL   17*song2F_mvl/mxv
 BYTE   W01
 BYTE   VOL   17*song2F_mvl/mxv
 BYTE   W01
 BYTE   VOL   17*song2F_mvl/mxv
 BYTE   W01
 BYTE   VOL   17*song2F_mvl/mxv
 BYTE   W01
 BYTE   VOL   16*song2F_mvl/mxv
 BYTE   W01
 BYTE   VOL   16*song2F_mvl/mxv
 BYTE   W01
 BYTE   VOL   16*song2F_mvl/mxv
 BYTE   W01
 BYTE   VOL   16*song2F_mvl/mxv
 BYTE   W01
 BYTE   VOL   16*song2F_mvl/mxv
 BYTE   W01
 BYTE   VOL   16*song2F_mvl/mxv
 BYTE   W01
 BYTE   VOL   16*song2F_mvl/mxv
 BYTE   W01
 BYTE   VOL   15*song2F_mvl/mxv
 BYTE   W01
 BYTE   VOL   15*song2F_mvl/mxv
 BYTE   W01
 BYTE   VOL   15*song2F_mvl/mxv
 BYTE   W01
 BYTE   VOL   15*song2F_mvl/mxv
 BYTE   W01
 BYTE   VOL   15*song2F_mvl/mxv
 BYTE   W01
 BYTE   VOL   14*song2F_mvl/mxv
 BYTE   W01
 BYTE   VOL   14*song2F_mvl/mxv
 BYTE   W01
 BYTE   VOL   14*song2F_mvl/mxv
 BYTE   W01
 BYTE   VOL   14*song2F_mvl/mxv
 BYTE   W01
 BYTE   VOL   14*song2F_mvl/mxv
 BYTE   W01
 BYTE   VOL   14*song2F_mvl/mxv
 BYTE   W01
 BYTE   VOL   13*song2F_mvl/mxv
 BYTE   W01
 BYTE   VOL   13*song2F_mvl/mxv
 BYTE   W01
 BYTE   VOL   13*song2F_mvl/mxv
 BYTE   W01
 BYTE   VOL   13*song2F_mvl/mxv
 BYTE   W01
 BYTE   VOL   13*song2F_mvl/mxv
 BYTE   W01
 BYTE   VOL   12*song2F_mvl/mxv
 BYTE   W01
 BYTE   VOL   12*song2F_mvl/mxv
 BYTE   W01
 BYTE   VOL   12*song2F_mvl/mxv
 BYTE   W01
 BYTE   VOL   12*song2F_mvl/mxv
 BYTE   W01
 BYTE   VOL   12*song2F_mvl/mxv
 BYTE   W01
 BYTE   VOL   12*song2F_mvl/mxv
 BYTE   W01
 BYTE   VOL   12*song2F_mvl/mxv
 BYTE   W01
 BYTE   VOL   11*song2F_mvl/mxv
 BYTE   W01
 BYTE   VOL   11*song2F_mvl/mxv
 BYTE   W01
 BYTE   VOL   11*song2F_mvl/mxv
 BYTE   W01
 BYTE   VOL   11*song2F_mvl/mxv
 BYTE   W01
 BYTE   VOL   11*song2F_mvl/mxv
 BYTE   W01
 BYTE   VOL   11*song2F_mvl/mxv
 BYTE   W01
 BYTE   VOL   10*song2F_mvl/mxv
 BYTE   W01
 BYTE   VOL   10*song2F_mvl/mxv
 BYTE   W01
 BYTE   VOL   10*song2F_mvl/mxv
 BYTE   W01
 BYTE   VOL   10*song2F_mvl/mxv
 BYTE   W01
 BYTE   VOL   10*song2F_mvl/mxv
 BYTE   W01
 BYTE   VOL   9*song2F_mvl/mxv
 BYTE   W01
 BYTE   VOL   9*song2F_mvl/mxv
 BYTE   W01
 BYTE   VOL   9*song2F_mvl/mxv
 BYTE   W01
 BYTE   VOL   9*song2F_mvl/mxv
 BYTE   W01
 BYTE   VOL   9*song2F_mvl/mxv
 BYTE   W01
 BYTE   VOL   9*song2F_mvl/mxv
 BYTE   W01
 BYTE   VOL   9*song2F_mvl/mxv
 BYTE   W01
 BYTE   VOL   8*song2F_mvl/mxv
 BYTE   W01
 BYTE   VOL   8*song2F_mvl/mxv
 BYTE   W01
 BYTE   VOL   8*song2F_mvl/mxv
 BYTE   W01
 BYTE   VOL   8*song2F_mvl/mxv
 BYTE   W01
//  #07 //020   ----------------------------------------
 BYTE   VOL   7*song2F_mvl/mxv
 BYTE   W01
 BYTE   VOL   7*song2F_mvl/mxv
 BYTE   W01
 BYTE   VOL   7*song2F_mvl/mxv
 BYTE   W01
 BYTE   VOL   7*song2F_mvl/mxv
 BYTE   W01
 BYTE   VOL   7*song2F_mvl/mxv
 BYTE   W01
 BYTE   VOL   7*song2F_mvl/mxv
 BYTE   W01
 BYTE   VOL   7*song2F_mvl/mxv
 BYTE   W01
 BYTE   VOL   6*song2F_mvl/mxv
 BYTE   W01
 BYTE   VOL   6*song2F_mvl/mxv
 BYTE   W01
 BYTE   VOL   6*song2F_mvl/mxv
 BYTE   W01
 BYTE   VOL   6*song2F_mvl/mxv
 BYTE   W01
 BYTE   VOL   6*song2F_mvl/mxv
 BYTE   W01
 BYTE   VOL   5*song2F_mvl/mxv
 BYTE   W01
 BYTE   VOL   5*song2F_mvl/mxv
 BYTE   W01
 BYTE   VOL   5*song2F_mvl/mxv
 BYTE   W01
 BYTE   VOL   5*song2F_mvl/mxv
 BYTE   W01
 BYTE   VOL   5*song2F_mvl/mxv
 BYTE   W01
 BYTE   VOL   5*song2F_mvl/mxv
 BYTE   W01
 BYTE   VOL   4*song2F_mvl/mxv
 BYTE   W01
 BYTE   VOL   4*song2F_mvl/mxv
 BYTE   W01
 BYTE   VOL   4*song2F_mvl/mxv
 BYTE   W01
 BYTE   VOL   4*song2F_mvl/mxv
 BYTE   W01
 BYTE   VOL   4*song2F_mvl/mxv
 BYTE   W01
 BYTE   VOL   3*song2F_mvl/mxv
 BYTE   W01
 BYTE   VOL   3*song2F_mvl/mxv
 BYTE   W01
 BYTE   VOL   3*song2F_mvl/mxv
 BYTE   W01
 BYTE   VOL   3*song2F_mvl/mxv
 BYTE   W01
 BYTE   VOL   3*song2F_mvl/mxv
 BYTE   W01
 BYTE   VOL   3*song2F_mvl/mxv
 BYTE   W01
 BYTE   VOL   3*song2F_mvl/mxv
 BYTE   W01
 BYTE   VOL   2*song2F_mvl/mxv
 BYTE   W01
 BYTE   VOL   2*song2F_mvl/mxv
 BYTE   W01
 BYTE   VOL   2*song2F_mvl/mxv
 BYTE   W01
 BYTE   VOL   2*song2F_mvl/mxv
 BYTE   W01
 BYTE   VOL   1*song2F_mvl/mxv
 BYTE   W01
 BYTE   VOL   1*song2F_mvl/mxv
 BYTE   W01
 BYTE   VOL   1*song2F_mvl/mxv
 BYTE   W01
 BYTE   VOL   1*song2F_mvl/mxv
 BYTE   W01
 BYTE   VOL   1*song2F_mvl/mxv
 BYTE   W01
 BYTE   VOL   1*song2F_mvl/mxv
 BYTE   W01
 BYTE   VOL   1*song2F_mvl/mxv
 BYTE   W01
 BYTE   VOL   0*song2F_mvl/mxv
 BYTE   W01
 BYTE   VOL   0*song2F_mvl/mxv
 BYTE   W01
 BYTE   VOL   0*song2F_mvl/mxv
 BYTE   W01
 BYTE   VOL   0*song2F_mvl/mxv
 BYTE   W01
 BYTE   VOL   0*song2F_mvl/mxv
 BYTE   W01
 BYTE   VOL   0*song2F_mvl/mxv
 BYTE   W01
 BYTE   VOL   0*song2F_mvl/mxv
 BYTE   W01
 BYTE   EOT
 BYTE   VOL   50*song2F_mvl/mxv
 BYTE   W96
//  #07 //021   ----------------------------------------
 BYTE   W48
 BYTE   W96
//  #07 //022   ----------------------------------------
 BYTE   W48
 BYTE   W96
//  #07 //023   ----------------------------------------
 BYTE   W48
 BYTE   W96
//  #07 //024   ----------------------------------------
 BYTE   W48
 BYTE   W96
//  #07 //025   ----------------------------------------
 BYTE   W48
 BYTE   W96
//  #07 //026   ----------------------------------------
 BYTE   W48
 BYTE   W96
//  #07 //027   ----------------------------------------
 BYTE   W48
 BYTE   W96
//  #07 //028   ----------------------------------------
 BYTE   W48
 BYTE   W96
//  #07 //029   ----------------------------------------
 BYTE   W48
 BYTE   W96
//  #07 //030   ----------------------------------------
 BYTE   W48
 BYTE   W96
//  #07 //031   ----------------------------------------
 BYTE   W48
 BYTE   W96
//  #07 //032   ----------------------------------------
 BYTE   W48
 BYTE   W96
//  #07 //033   ----------------------------------------
 BYTE   W48
 BYTE   W96
//  #07 //034   ----------------------------------------
 BYTE   W48
 BYTE   W96
//  #07 //035   ----------------------------------------
 BYTE   W48
 BYTE   W96
//  #07 //036   ----------------------------------------
 BYTE   W48
 BYTE   W96
//  #07 //037   ----------------------------------------
 BYTE   W48
 BYTE   W96
//  #07 //038   ----------------------------------------
 BYTE   W48
 BYTE   W96
//  #07 //039   ----------------------------------------
 BYTE   W48
 BYTE   W96
//  #07 //040   ----------------------------------------
 BYTE   W48
 BYTE   W96
//  #07 //041   ----------------------------------------
 BYTE   W48
 BYTE   W96
//  #07 //042   ----------------------------------------
 BYTE   W48
 BYTE   W96
//  #07 //043   ----------------------------------------
 BYTE   W48
 BYTE   W96
//  #07 //044   ----------------------------------------
 BYTE   W48
 BYTE   W96
//  #07 //045   ----------------------------------------
 BYTE   W48
 BYTE   W96
//  #07 //046   ----------------------------------------
 BYTE   W48
 BYTE   W96
//  #07 //047   ----------------------------------------
 BYTE   W48
 BYTE   W96
//  #07 //048   ----------------------------------------
 BYTE   W48
 BYTE   W96
//  #07 //049   ----------------------------------------
 BYTE   W48
 BYTE   W96
//  #07 //050   ----------------------------------------
 BYTE   W48
 BYTE   W96
//  #07 //051   ----------------------------------------
 BYTE   W48
 BYTE   W96
//  #07 //052   ----------------------------------------
 BYTE   W48
 BYTE   W96
//  #07 //053   ----------------------------------------
 BYTE   W48
 BYTE   W96
//  #07 //054   ----------------------------------------
 BYTE   W48
 BYTE   W96
//  #07 //055   ----------------------------------------
 BYTE   W48
 BYTE   W96
//  #07 //056   ----------------------------------------
 BYTE   W48
 BYTE   W96
//  #07 //057   ----------------------------------------
 BYTE   W48
 BYTE   W96
//  #07 //058   ----------------------------------------
 BYTE   W48
 BYTE   W96
//  #07 //059   ----------------------------------------
 BYTE   W48
 BYTE   W96
//  #07 //060   ----------------------------------------
 BYTE   W48
 BYTE   W96
//  #07 //061   ----------------------------------------
 BYTE   W48
 BYTE   W96
//  #07 //062   ----------------------------------------
 BYTE   W48
 BYTE   W96
//  #07 //063   ----------------------------------------
 BYTE   W48
 BYTE   W96
//  #07 //064   ----------------------------------------
 BYTE   W48
 BYTE   W96
//  #07 //065   ----------------------------------------
 BYTE   W48
 BYTE   W96
//  #07 //066   ----------------------------------------
 BYTE   W48
 BYTE   W96
//  #07 //067   ----------------------------------------
 BYTE   W48
 BYTE   W96
//  #07 //068   ----------------------------------------
 BYTE   W48
//  #07 //069   ----------------------------------------
 BYTE   PATT
  POIN2 Label_01818BC8
//  #07 //070   ----------------------------------------
 BYTE   PATT
  POIN2 Label_01818CEE
//  #07 //071   ----------------------------------------
 BYTE   EOT
 BYTE   As3
 BYTE   GoTo
  POIN2 Label_01818BA6
 BYTE   FINE

//**************** Track 8 (Midi-Chn.7) ****************//

song2F_008:
//  #08 //000   ----------------------------------------
 BYTE   KEYSH   song2F_key+0
Label_017F65A2:
 BYTE   VOICE   69
 BYTE   VOL   39*song2F_mvl/mxv
 BYTE   PAN   c_v-11
 BYTE   W96
//  #08 //001   ----------------------------------------
 BYTE   W48
 BYTE   W96
//  #08 //002   ----------------------------------------
 BYTE   W48
 BYTE   W96
//  #08 //003   ----------------------------------------
 BYTE   W48
 BYTE   W96
//  #08 //004   ----------------------------------------
 BYTE   W48
 BYTE   W96
//  #08 //005   ----------------------------------------
 BYTE   W48
 BYTE   W96
//  #08 //006   ----------------------------------------
 BYTE   W48
 BYTE   W96
//  #08 //007   ----------------------------------------
 BYTE   W48
 BYTE   W96
//  #08 //008   ----------------------------------------
 BYTE   W48
 BYTE   W96
//  #08 //009   ----------------------------------------
 BYTE   W48
 BYTE   W96
//  #08 //010   ----------------------------------------
 BYTE   W48
 BYTE   W96
//  #08 //011   ----------------------------------------
 BYTE   W48
 BYTE   W96
//  #08 //012   ----------------------------------------
 BYTE   W48
 BYTE   W96
//  #08 //013   ----------------------------------------
 BYTE   W48
 BYTE   W96
//  #08 //014   ----------------------------------------
 BYTE   W48
 BYTE   W96
//  #08 //015   ----------------------------------------
 BYTE   W48
 BYTE   W96
//  #08 //016   ----------------------------------------
 BYTE   W48
 BYTE   W96
//  #08 //017   ----------------------------------------
 BYTE   W48
 BYTE   W96
//  #08 //018   ----------------------------------------
 BYTE   W48
 BYTE   W96
//  #08 //019   ----------------------------------------
 BYTE   W48
 BYTE   W96
//  #08 //020   ----------------------------------------
 BYTE   W48
 BYTE   W96
//  #08 //021   ----------------------------------------
 BYTE   W48
 BYTE   W96
//  #08 //022   ----------------------------------------
 BYTE   W48
 BYTE   W96
//  #08 //023   ----------------------------------------
 BYTE   W48
 BYTE   W96
//  #08 //024   ----------------------------------------
 BYTE   W48
 BYTE   W96
//  #08 //025   ----------------------------------------
 BYTE   W48
 BYTE   W96
//  #08 //026   ----------------------------------------
 BYTE   W48
 BYTE   W96
//  #08 //027   ----------------------------------------
 BYTE   W48
 BYTE   W96
//  #08 //028   ----------------------------------------
 BYTE   W48
 BYTE   W96
//  #08 //029   ----------------------------------------
 BYTE   W48
 BYTE   W96
//  #08 //030   ----------------------------------------
 BYTE   W48
 BYTE   W96
//  #08 //031   ----------------------------------------
 BYTE   W48
 BYTE   W96
//  #08 //032   ----------------------------------------
 BYTE   W48
 BYTE   W96
//  #08 //033   ----------------------------------------
 BYTE   W48
 BYTE   W96
//  #08 //034   ----------------------------------------
 BYTE   W48
 BYTE   W96
//  #08 //035   ----------------------------------------
 BYTE   W48
 BYTE   W96
//  #08 //036   ----------------------------------------
 BYTE   W48
 BYTE   W96
//  #08 //037   ----------------------------------------
 BYTE   W48
 BYTE   W96
//  #08 //038   ----------------------------------------
 BYTE   W48
 BYTE   W96
//  #08 //039   ----------------------------------------
 BYTE   W48
 BYTE   W96
//  #08 //040   ----------------------------------------
 BYTE   W48
 BYTE   W96
//  #08 //041   ----------------------------------------
 BYTE   W48
 BYTE   W96
//  #08 //042   ----------------------------------------
 BYTE   W48
 BYTE   W96
//  #08 //043   ----------------------------------------
 BYTE   W48
 BYTE   W96
//  #08 //044   ----------------------------------------
 BYTE   W48
 BYTE   W96
//  #08 //045   ----------------------------------------
 BYTE   W48
 BYTE   W96
//  #08 //046   ----------------------------------------
 BYTE   W48
 BYTE   W96
//  #08 //047   ----------------------------------------
 BYTE   W48
 BYTE   W96
//  #08 //048   ----------------------------------------
 BYTE   N24  Ds3  v127
 BYTE   W24
 BYTE   Fn3
 BYTE   W24
Label_017F660D:
 BYTE   N48  Fs3  v127
 BYTE   W48
//  #08 //049   ----------------------------------------
 BYTE   N24  En3
 BYTE   W24
 BYTE   N48  An3
 BYTE   W48
 BYTE   N24  Bn3
 BYTE   W24
 BYTE   PEND 
//  #08 //050   ----------------------------------------
Label_017F661B:
 BYTE   N72  Fs3  v127
 BYTE   W72
 BYTE   N11  En3
 BYTE   W24
//  #08 //051   ----------------------------------------
 BYTE   N24  Dn3
 BYTE   W24
 BYTE   En3
 BYTE   W24
 BYTE   PEND 
//  #08 //052   ----------------------------------------
 BYTE   PATT
  POIN2 Label_017F660D
//  #08 //053   ----------------------------------------
 BYTE   PATT
  POIN2 Label_017F661B
//  #08 //054   ----------------------------------------
Label_017F6632:
 BYTE   N48  Fn3  v127
 BYTE   W48
 BYTE   N24  Ds3
 BYTE   W24
 BYTE   N48  Gs3
 BYTE   W48
//  #08 //055   ----------------------------------------
 BYTE   N24  As3
 BYTE   W24
 BYTE   PEND 
 BYTE   N72  Fn3
 BYTE   W72
//  #08 //056   ----------------------------------------
 BYTE   N11  Ds3
 BYTE   W24
 BYTE   N24  Cs3
 BYTE   W24
 BYTE   Ds3
 BYTE   W24
//  #08 //057   ----------------------------------------
 BYTE   PATT
  POIN2 Label_017F6632
//  #08 //058   ----------------------------------------
 BYTE   N72  Fn3  v127
 BYTE   W72
 BYTE   N11  Ds3
 BYTE   W24
//  #08 //059   ----------------------------------------
 BYTE   N24
 BYTE   W24
 BYTE   Fn3
 BYTE   W24
//  #08 //060   ----------------------------------------
 BYTE   PATT
  POIN2 Label_017F660D
//  #08 //061   ----------------------------------------
 BYTE   PATT
  POIN2 Label_017F661B
//  #08 //062   ----------------------------------------
 BYTE   PATT
  POIN2 Label_017F660D
//  #08 //063   ----------------------------------------
 BYTE   N72  Fs3  v127
 BYTE   W72
 BYTE   N11  En3
 BYTE   W72
//  #08 //064   ----------------------------------------
 BYTE   W96
//  #08 //065   ----------------------------------------
 BYTE   W48
 BYTE   W96
//  #08 //066   ----------------------------------------
 BYTE   W48
 BYTE   W96
//  #08 //067   ----------------------------------------
 BYTE   W48
 BYTE   W96
//  #08 //068   ----------------------------------------
 BYTE   W48
 BYTE   W96
//  #08 //069   ----------------------------------------
 BYTE   W48
 BYTE   W96
//  #08 //070   ----------------------------------------
 BYTE   W48
 BYTE   W96
//  #08 //071   ----------------------------------------
 BYTE   W48
 BYTE   W96
//  #08 //072   ----------------------------------------
 BYTE   W48
 BYTE   GoTo
  POIN2 Label_017F65A2
 BYTE   FINE

//**************** Track 9 (Midi-Chn.8) ****************//

song2F_009:
//  #09 //000   ----------------------------------------
 BYTE   KEYSH   song2F_key+0
Label_017E898E:
 BYTE   VOICE   117
 BYTE   VOL   33*song2F_mvl/mxv
 BYTE   PAN   c_v+40
 BYTE   W96
//  #09 //001   ----------------------------------------
 BYTE   W48
 BYTE   W96
//  #09 //002   ----------------------------------------
 BYTE   W48
 BYTE   W96
//  #09 //003   ----------------------------------------
 BYTE   W48
 BYTE   W96
//  #09 //004   ----------------------------------------
 BYTE   W48
 BYTE   W96
//  #09 //005   ----------------------------------------
 BYTE   W48
 BYTE   W96
//  #09 //006   ----------------------------------------
 BYTE   W48
 BYTE   W96
//  #09 //007   ----------------------------------------
 BYTE   W48
 BYTE   W96
//  #09 //008   ----------------------------------------
 BYTE   W48
 BYTE   W96
//  #09 //009   ----------------------------------------
 BYTE   W48
 BYTE   W96
//  #09 //010   ----------------------------------------
 BYTE   W48
 BYTE   W96
//  #09 //011   ----------------------------------------
 BYTE   W48
 BYTE   W96
//  #09 //012   ----------------------------------------
 BYTE   W48
Label_017E89AC:
 BYTE   W24
 BYTE   N24  Fn1  v100
 BYTE   W96
//  #09 //013   ----------------------------------------
 BYTE   W24
 BYTE   PEND 
//  #09 //014   ----------------------------------------
 BYTE   PATT
  POIN2 Label_017E89AC
//  #09 //015   ----------------------------------------
 BYTE   PATT
  POIN2 Label_017E89AC
//  #09 //016   ----------------------------------------
 BYTE   PATT
  POIN2 Label_017E89AC
//  #09 //017   ----------------------------------------
 BYTE   PATT
  POIN2 Label_017E89AC
//  #09 //018   ----------------------------------------
 BYTE   PATT
  POIN2 Label_017E89AC
//  #09 //019   ----------------------------------------
 BYTE   PATT
  POIN2 Label_017E89AC
//  #09 //020   ----------------------------------------
 BYTE   PATT
  POIN2 Label_017E89AC
//  #09 //021   ----------------------------------------
 BYTE   PATT
  POIN2 Label_017E89AC
//  #09 //022   ----------------------------------------
 BYTE   PATT
  POIN2 Label_017E89AC
//  #09 //023   ----------------------------------------
 BYTE   PATT
  POIN2 Label_017E89AC
//  #09 //024   ----------------------------------------
 BYTE   PATT
  POIN2 Label_017E89AC
//  #09 //025   ----------------------------------------
Label_017E89EA:
 BYTE   W24
 BYTE   N24  Fs1  v100
 BYTE   W96
//  #09 //026   ----------------------------------------
 BYTE   W24
 BYTE   PEND 
//  #09 //027   ----------------------------------------
 BYTE   PATT
  POIN2 Label_017E89EA
//  #09 //028   ----------------------------------------
 BYTE   PATT
  POIN2 Label_017E89EA
//  #09 //029   ----------------------------------------
 BYTE   PATT
  POIN2 Label_017E89EA
//  #09 //030   ----------------------------------------
 BYTE   PATT
  POIN2 Label_017E89AC
//  #09 //031   ----------------------------------------
 BYTE   PATT
  POIN2 Label_017E89AC
//  #09 //032   ----------------------------------------
 BYTE   PATT
  POIN2 Label_017E89AC
//  #09 //033   ----------------------------------------
 BYTE   PATT
  POIN2 Label_017E89AC
//  #09 //034   ----------------------------------------
 BYTE   PATT
  POIN2 Label_017E89EA
//  #09 //035   ----------------------------------------
 BYTE   PATT
  POIN2 Label_017E89EA
//  #09 //036   ----------------------------------------
 BYTE   PATT
  POIN2 Label_017E89EA
//  #09 //037   ----------------------------------------
 BYTE   PATT
  POIN2 Label_017E89EA
//  #09 //038   ----------------------------------------
 BYTE   PATT
  POIN2 Label_017E89AC
//  #09 //039   ----------------------------------------
 BYTE   PATT
  POIN2 Label_017E89AC
//  #09 //040   ----------------------------------------
 BYTE   PATT
  POIN2 Label_017E89AC
//  #09 //041   ----------------------------------------
 BYTE   PATT
  POIN2 Label_017E89AC
//  #09 //042   ----------------------------------------
 BYTE   PATT
  POIN2 Label_017E89EA
//  #09 //043   ----------------------------------------
 BYTE   PATT
  POIN2 Label_017E89EA
//  #09 //044   ----------------------------------------
 BYTE   PATT
  POIN2 Label_017E89EA
//  #09 //045   ----------------------------------------
 BYTE   PATT
  POIN2 Label_017E89EA
//  #09 //046   ----------------------------------------
 BYTE   PATT
  POIN2 Label_017E89AC
//  #09 //047   ----------------------------------------
 BYTE   PATT
  POIN2 Label_017E89AC
//  #09 //048   ----------------------------------------
 BYTE   PATT
  POIN2 Label_017E89AC
//  #09 //049   ----------------------------------------
 BYTE   PATT
  POIN2 Label_017E89AC
//  #09 //050   ----------------------------------------
 BYTE   PATT
  POIN2 Label_017E89EA
//  #09 //051   ----------------------------------------
 BYTE   PATT
  POIN2 Label_017E89EA
//  #09 //052   ----------------------------------------
 BYTE   PATT
  POIN2 Label_017E89EA
//  #09 //053   ----------------------------------------
 BYTE   PATT
  POIN2 Label_017E89EA
//  #09 //054   ----------------------------------------
 BYTE   PATT
  POIN2 Label_017E89AC
//  #09 //055   ----------------------------------------
 BYTE   PATT
  POIN2 Label_017E89AC
//  #09 //056   ----------------------------------------
 BYTE   PATT
  POIN2 Label_017E89AC
//  #09 //057   ----------------------------------------
 BYTE   PATT
  POIN2 Label_017E89AC
//  #09 //058   ----------------------------------------
 BYTE   PATT
  POIN2 Label_017E89EA
//  #09 //059   ----------------------------------------
 BYTE   PATT
  POIN2 Label_017E89EA
//  #09 //060   ----------------------------------------
 BYTE   PATT
  POIN2 Label_017E89EA
//  #09 //061   ----------------------------------------
 BYTE   PATT
  POIN2 Label_017E89EA
//  #09 //062   ----------------------------------------
 BYTE   PATT
  POIN2 Label_017E89AC
//  #09 //063   ----------------------------------------
 BYTE   PATT
  POIN2 Label_017E89AC
//  #09 //064   ----------------------------------------
 BYTE   PATT
  POIN2 Label_017E89AC
//  #09 //065   ----------------------------------------
 BYTE   PATT
  POIN2 Label_017E89AC
//  #09 //066   ----------------------------------------
 BYTE   PATT
  POIN2 Label_017E89AC
//  #09 //067   ----------------------------------------
 BYTE   PATT
  POIN2 Label_017E89AC
//  #09 //068   ----------------------------------------
 BYTE   PATT
  POIN2 Label_017E89AC
//  #09 //069   ----------------------------------------
 BYTE   PATT
  POIN2 Label_017E89AC
//  #09 //070   ----------------------------------------
 BYTE   GoTo
  POIN2 Label_017E898E
 BYTE   FINE

//**************** Track 10 (Midi-Chn.9) ****************//

song2F_010:
//  #10 //000   ----------------------------------------
 BYTE   KEYSH   song2F_key+0
Label_017F696A:
 BYTE   VOICE   116
 BYTE   VOL   34*song2F_mvl/mxv
 BYTE   PAN   c_v+40
 BYTE   W96
//  #10 //001   ----------------------------------------
 BYTE   W48
 BYTE   W96
//  #10 //002   ----------------------------------------
 BYTE   W48
 BYTE   W96
//  #10 //003   ----------------------------------------
 BYTE   W48
 BYTE   W96
//  #10 //004   ----------------------------------------
 BYTE   W48
 BYTE   W96
//  #10 //005   ----------------------------------------
 BYTE   W48
 BYTE   W96
//  #10 //006   ----------------------------------------
 BYTE   W48
 BYTE   W96
//  #10 //007   ----------------------------------------
 BYTE   W48
 BYTE   W96
//  #10 //008   ----------------------------------------
 BYTE   W48
 BYTE   W96
//  #10 //009   ----------------------------------------
 BYTE   W48
 BYTE   W96
//  #10 //010   ----------------------------------------
 BYTE   W48
 BYTE   W96
//  #10 //011   ----------------------------------------
 BYTE   W48
 BYTE   W96
//  #10 //012   ----------------------------------------
 BYTE   W48
 BYTE   W96
//  #10 //013   ----------------------------------------
 BYTE   W48
 BYTE   W96
//  #10 //014   ----------------------------------------
 BYTE   W48
 BYTE   W96
//  #10 //015   ----------------------------------------
 BYTE   W48
 BYTE   W96
//  #10 //016   ----------------------------------------
 BYTE   W48
 BYTE   W96
//  #10 //017   ----------------------------------------
 BYTE   W48
 BYTE   W96
//  #10 //018   ----------------------------------------
 BYTE   W48
 BYTE   W96
//  #10 //019   ----------------------------------------
 BYTE   W48
 BYTE   W96
//  #10 //020   ----------------------------------------
 BYTE   W48
 BYTE   W96
//  #10 //021   ----------------------------------------
 BYTE   W48
 BYTE   W96
//  #10 //022   ----------------------------------------
 BYTE   W48
 BYTE   W96
//  #10 //023   ----------------------------------------
 BYTE   W48
 BYTE   W96
//  #10 //024   ----------------------------------------
 BYTE   W48
 BYTE   W96
//  #10 //025   ----------------------------------------
 BYTE   W48
 BYTE   W96
//  #10 //026   ----------------------------------------
 BYTE   W48
 BYTE   W96
//  #10 //027   ----------------------------------------
 BYTE   W48
 BYTE   W96
//  #10 //028   ----------------------------------------
 BYTE   W48
 BYTE   W96
//  #10 //029   ----------------------------------------
 BYTE   W48
 BYTE   W96
//  #10 //030   ----------------------------------------
 BYTE   W48
 BYTE   W96
//  #10 //031   ----------------------------------------
 BYTE   W48
 BYTE   W96
//  #10 //032   ----------------------------------------
 BYTE   W48
 BYTE   W96
//  #10 //033   ----------------------------------------
 BYTE   W48
 BYTE   W96
//  #10 //034   ----------------------------------------
 BYTE   W48
 BYTE   W96
//  #10 //035   ----------------------------------------
 BYTE   W48
 BYTE   W96
//  #10 //036   ----------------------------------------
 BYTE   W48
 BYTE   W96
//  #10 //037   ----------------------------------------
 BYTE   W48
 BYTE   W96
//  #10 //038   ----------------------------------------
 BYTE   W48
 BYTE   W96
//  #10 //039   ----------------------------------------
 BYTE   W48
 BYTE   W96
//  #10 //040   ----------------------------------------
 BYTE   W36
 BYTE   N12  Cn2  v127
 BYTE   W12
Label_017F69C4:
 BYTE   N24  Cn2  v127
 BYTE   W60
//  #10 //041   ----------------------------------------
 BYTE   N12
 BYTE   W12
 BYTE   N24
 BYTE   W60
 BYTE   N12
 BYTE   W12
 BYTE   PEND 
//  #10 //042   ----------------------------------------
 BYTE   PATT
  POIN2 Label_017F69C4
//  #10 //043   ----------------------------------------
 BYTE   PATT
  POIN2 Label_017F69C4
//  #10 //044   ----------------------------------------
 BYTE   PATT
  POIN2 Label_017F69C4
//  #10 //045   ----------------------------------------
 BYTE   PATT
  POIN2 Label_017F69C4
//  #10 //046   ----------------------------------------
 BYTE   PATT
  POIN2 Label_017F69C4
//  #10 //047   ----------------------------------------
 BYTE   PATT
  POIN2 Label_017F69C4
//  #10 //048   ----------------------------------------
 BYTE   PATT
  POIN2 Label_017F69C4
//  #10 //049   ----------------------------------------
 BYTE   PATT
  POIN2 Label_017F69C4
//  #10 //050   ----------------------------------------
 BYTE   PATT
  POIN2 Label_017F69C4
//  #10 //051   ----------------------------------------
 BYTE   PATT
  POIN2 Label_017F69C4
//  #10 //052   ----------------------------------------
 BYTE   PATT
  POIN2 Label_017F69C4
//  #10 //053   ----------------------------------------
 BYTE   PATT
  POIN2 Label_017F69C4
//  #10 //054   ----------------------------------------
 BYTE   PATT
  POIN2 Label_017F69C4
//  #10 //055   ----------------------------------------
 BYTE   PATT
  POIN2 Label_017F69C4
//  #10 //056   ----------------------------------------
 BYTE   PATT
  POIN2 Label_017F69C4
//  #10 //057   ----------------------------------------
 BYTE   PATT
  POIN2 Label_017F69C4
//  #10 //058   ----------------------------------------
 BYTE   PATT
  POIN2 Label_017F69C4
//  #10 //059   ----------------------------------------
 BYTE   PATT
  POIN2 Label_017F69C4
//  #10 //060   ----------------------------------------
 BYTE   PATT
  POIN2 Label_017F69C4
//  #10 //061   ----------------------------------------
 BYTE   PATT
  POIN2 Label_017F69C4
//  #10 //062   ----------------------------------------
 BYTE   PATT
  POIN2 Label_017F69C4
//  #10 //063   ----------------------------------------
 BYTE   PATT
  POIN2 Label_017F69C4
//  #10 //064   ----------------------------------------
 BYTE   PATT
  POIN2 Label_017F69C4
//  #10 //065   ----------------------------------------
 BYTE   PATT
  POIN2 Label_017F69C4
//  #10 //066   ----------------------------------------
 BYTE   PATT
  POIN2 Label_017F69C4
//  #10 //067   ----------------------------------------
 BYTE   PATT
  POIN2 Label_017F69C4
//  #10 //068   ----------------------------------------
 BYTE   PATT
  POIN2 Label_017F69C4
//  #10 //069   ----------------------------------------
 BYTE   GoTo
  POIN2 Label_017F696A
 BYTE   FINE

//**************** Track 11 (Midi-Chn.10) ****************//

song2F_011:
//  #11 //000   ----------------------------------------
 BYTE   KEYSH   song2F_key+0
Label_017E8B36:
 BYTE   VOICE   47
 BYTE   VOL   33*song2F_mvl/mxv
 BYTE   PAN   c_v+30
 BYTE   W96
//  #11 //001   ----------------------------------------
 BYTE   W48
 BYTE   W96
//  #11 //002   ----------------------------------------
 BYTE   W48
 BYTE   W96
//  #11 //003   ----------------------------------------
 BYTE   W48
 BYTE   W96
//  #11 //004   ----------------------------------------
 BYTE   W48
 BYTE   W96
//  #11 //005   ----------------------------------------
 BYTE   W48
 BYTE   W96
//  #11 //006   ----------------------------------------
 BYTE   W48
 BYTE   W96
//  #11 //007   ----------------------------------------
 BYTE   W48
 BYTE   W96
//  #11 //008   ----------------------------------------
 BYTE   W48
 BYTE   W96
//  #11 //009   ----------------------------------------
 BYTE   W48
 BYTE   W96
//  #11 //010   ----------------------------------------
 BYTE   W48
 BYTE   W96
//  #11 //011   ----------------------------------------
 BYTE   W48
 BYTE   W96
//  #11 //012   ----------------------------------------
 BYTE   W48
 BYTE   W96
//  #11 //013   ----------------------------------------
 BYTE   W48
 BYTE   W96
//  #11 //014   ----------------------------------------
 BYTE   W48
 BYTE   W96
//  #11 //015   ----------------------------------------
 BYTE   W48
Label_017E8B5A:
 BYTE   W96
//  #11 //016   ----------------------------------------
 BYTE   W36
 BYTE   N06  As0  v100
 BYTE   W06
 BYTE   N06
 BYTE   W06
 BYTE   PEND 
Label_017E8B63:
 BYTE   TIE  As0  v100
 BYTE   W96
//  #11 //017   ----------------------------------------
 BYTE   W48
 BYTE   PEND 
 BYTE   EOT
 BYTE   W96
//  #11 //018   ----------------------------------------
 BYTE   W48
//  #11 //019   ----------------------------------------
 BYTE   PATT
  POIN2 Label_017E8B63
//  #11 //020   ----------------------------------------
 BYTE   EOT
 BYTE   As0
 BYTE   W96
//  #11 //021   ----------------------------------------
 BYTE   W48
//  #11 //022   ----------------------------------------
 BYTE   PATT
  POIN2 Label_017E8B63
//  #11 //023   ----------------------------------------
 BYTE   EOT
 BYTE   As0
 BYTE   W96
//  #11 //024   ----------------------------------------
 BYTE   W48
//  #11 //025   ----------------------------------------
 BYTE   PATT
  POIN2 Label_017E8B63
//  #11 //026   ----------------------------------------
 BYTE   EOT
 BYTE   As0
 BYTE   W96
//  #11 //027   ----------------------------------------
 BYTE   W48
Label_017E8B87:
 BYTE   TIE  Bn0  v100
 BYTE   W96
//  #11 //028   ----------------------------------------
 BYTE   W48
 BYTE   PEND 
 BYTE   EOT
 BYTE   W96
//  #11 //029   ----------------------------------------
 BYTE   W48
//  #11 //030   ----------------------------------------
 BYTE   PATT
  POIN2 Label_017E8B87
//  #11 //031   ----------------------------------------
 BYTE   EOT
 BYTE   Bn0
 BYTE   W96
//  #11 //032   ----------------------------------------
 BYTE   W48
//  #11 //033   ----------------------------------------
 BYTE   PATT
  POIN2 Label_017E8B63
//  #11 //034   ----------------------------------------
 BYTE   EOT
 BYTE   As0
 BYTE   W96
//  #11 //035   ----------------------------------------
 BYTE   W48
//  #11 //036   ----------------------------------------
 BYTE   PATT
  POIN2 Label_017E8B63
//  #11 //037   ----------------------------------------
 BYTE   EOT
 BYTE   As0
 BYTE   W96
//  #11 //038   ----------------------------------------
 BYTE   W48
//  #11 //039   ----------------------------------------
 BYTE   PATT
  POIN2 Label_017E8B87
//  #11 //040   ----------------------------------------
 BYTE   EOT
 BYTE   Bn0
 BYTE   W96
//  #11 //041   ----------------------------------------
 BYTE   W48
//  #11 //042   ----------------------------------------
 BYTE   PATT
  POIN2 Label_017E8B87
//  #11 //043   ----------------------------------------
 BYTE   EOT
 BYTE   Bn0
 BYTE   W96
//  #11 //044   ----------------------------------------
 BYTE   W48
//  #11 //045   ----------------------------------------
 BYTE   PATT
  POIN2 Label_017E8B63
//  #11 //046   ----------------------------------------
 BYTE   EOT
 BYTE   As0
 BYTE   W96
//  #11 //047   ----------------------------------------
 BYTE   W48
//  #11 //048   ----------------------------------------
 BYTE   PATT
  POIN2 Label_017E8B63
//  #11 //049   ----------------------------------------
 BYTE   EOT
 BYTE   As0
 BYTE   W96
//  #11 //050   ----------------------------------------
 BYTE   W48
//  #11 //051   ----------------------------------------
 BYTE   PATT
  POIN2 Label_017E8B87
//  #11 //052   ----------------------------------------
 BYTE   EOT
 BYTE   Bn0
 BYTE   W96
//  #11 //053   ----------------------------------------
 BYTE   W48
//  #11 //054   ----------------------------------------
 BYTE   PATT
  POIN2 Label_017E8B87
//  #11 //055   ----------------------------------------
 BYTE   EOT
 BYTE   Bn0
 BYTE   W96
//  #11 //056   ----------------------------------------
 BYTE   W48
//  #11 //057   ----------------------------------------
 BYTE   PATT
  POIN2 Label_017E8B63
//  #11 //058   ----------------------------------------
 BYTE   EOT
 BYTE   As0
 BYTE   W96
//  #11 //059   ----------------------------------------
 BYTE   W48
//  #11 //060   ----------------------------------------
 BYTE   PATT
  POIN2 Label_017E8B63
//  #11 //061   ----------------------------------------
 BYTE   EOT
 BYTE   As0
 BYTE   W96
//  #11 //062   ----------------------------------------
 BYTE   W48
//  #11 //063   ----------------------------------------
 BYTE   PATT
  POIN2 Label_017E8B87
//  #11 //064   ----------------------------------------
 BYTE   EOT
 BYTE   Bn0
 BYTE   W96
//  #11 //065   ----------------------------------------
 BYTE   W48
//  #11 //066   ----------------------------------------
 BYTE   PATT
  POIN2 Label_017E8B87
//  #11 //067   ----------------------------------------
 BYTE   EOT
 BYTE   Bn0
 BYTE   W96
//  #11 //068   ----------------------------------------
 BYTE   W48
//  #11 //069   ----------------------------------------
 BYTE   PATT
  POIN2 Label_017E8B63
//  #11 //070   ----------------------------------------
 BYTE   EOT
 BYTE   As0
 BYTE   W96
//  #11 //071   ----------------------------------------
 BYTE   W48
//  #11 //072   ----------------------------------------
 BYTE   PATT
  POIN2 Label_017E8B63
//  #11 //073   ----------------------------------------
 BYTE   EOT
 BYTE   As0
 BYTE   W96
//  #11 //074   ----------------------------------------
 BYTE   W48
//  #11 //075   ----------------------------------------
 BYTE   PATT
  POIN2 Label_017E8B87
//  #11 //076   ----------------------------------------
 BYTE   EOT
 BYTE   Bn0
 BYTE   W96
//  #11 //077   ----------------------------------------
 BYTE   W48
//  #11 //078   ----------------------------------------
 BYTE   PATT
  POIN2 Label_017E8B87
//  #11 //079   ----------------------------------------
 BYTE   EOT
 BYTE   Bn0
 BYTE   VOICE   119
 BYTE   W72
 BYTE   N72  Gs2  v127
 BYTE   W72
//  #11 //080   ----------------------------------------
 BYTE   VOICE   47
 BYTE   W96
//  #11 //081   ----------------------------------------
 BYTE   W48
 BYTE   W96
//  #11 //082   ----------------------------------------
 BYTE   W48
 BYTE   W96
//  #11 //083   ----------------------------------------
 BYTE   W48
 BYTE   W96
//  #11 //084   ----------------------------------------
 BYTE   W48
 BYTE   W96
//  #11 //085   ----------------------------------------
 BYTE   W48
 BYTE   W96
//  #11 //086   ----------------------------------------
 BYTE   W48
 BYTE   W96
//  #11 //087   ----------------------------------------
 BYTE   W48
//  #11 //088   ----------------------------------------
 BYTE   PATT
  POIN2 Label_017E8B5A
//  #11 //089   ----------------------------------------
 BYTE   GoTo
  POIN2 Label_017E8B36
 BYTE   FINE

//**************** Track 12 (Midi-Chn.11) ****************//

song2F_012:
//  #12 //000   ----------------------------------------
 BYTE   KEYSH   song2F_key+0
Label_017F6416:
 BYTE   VOICE   127
 BYTE   VOL   31*song2F_mvl/mxv
 BYTE   PAN   c_v+40
 BYTE   W48
 BYTE   N24  Bn0  v100
 BYTE   W96
//  #12 //001   ----------------------------------------
 BYTE   W48
 BYTE   N24
 BYTE   W96
//  #12 //002   ----------------------------------------
 BYTE   W48
 BYTE   N24
 BYTE   W96
//  #12 //003   ----------------------------------------
 BYTE   W48
 BYTE   N24
 BYTE   W96
//  #12 //004   ----------------------------------------
 BYTE   W48
 BYTE   N24
 BYTE   W96
//  #12 //005   ----------------------------------------
 BYTE   W48
 BYTE   N24
 BYTE   W96
//  #12 //006   ----------------------------------------
 BYTE   W48
 BYTE   N24
 BYTE   W96
//  #12 //007   ----------------------------------------
 BYTE   W48
 BYTE   N24
 BYTE   W96
//  #12 //008   ----------------------------------------
 BYTE   W48
 BYTE   N24
 BYTE   W96
//  #12 //009   ----------------------------------------
 BYTE   W48
 BYTE   N24
 BYTE   W96
//  #12 //010   ----------------------------------------
 BYTE   W48
 BYTE   N24
 BYTE   W96
//  #12 //011   ----------------------------------------
 BYTE   W48
 BYTE   N24
 BYTE   W96
//  #12 //012   ----------------------------------------
 BYTE   W48
 BYTE   N24
 BYTE   W96
//  #12 //013   ----------------------------------------
 BYTE   W48
 BYTE   N24
 BYTE   W96
//  #12 //014   ----------------------------------------
 BYTE   W48
 BYTE   N24
 BYTE   W96
//  #12 //015   ----------------------------------------
 BYTE   W48
 BYTE   N24
 BYTE   W96
//  #12 //016   ----------------------------------------
 BYTE   N72  As1
 BYTE   N72  En2
 BYTE   N72  An2
 BYTE   W48
 BYTE   N24  Bn0
 BYTE   W96
//  #12 //017   ----------------------------------------
 BYTE   W48
 BYTE   N24
 BYTE   W96
//  #12 //018   ----------------------------------------
 BYTE   W48
 BYTE   N24
 BYTE   W96
//  #12 //019   ----------------------------------------
 BYTE   W48
 BYTE   N24
 BYTE   W96
//  #12 //020   ----------------------------------------
 BYTE   W48
 BYTE   N24
 BYTE   W96
//  #12 //021   ----------------------------------------
 BYTE   W48
 BYTE   N24
 BYTE   W96
//  #12 //022   ----------------------------------------
 BYTE   W48
 BYTE   N24
 BYTE   W96
//  #12 //023   ----------------------------------------
 BYTE   W48
 BYTE   N24
 BYTE   W96
//  #12 //024   ----------------------------------------
 BYTE   W48
 BYTE   N24
 BYTE   W96
//  #12 //025   ----------------------------------------
 BYTE   W48
 BYTE   N24
 BYTE   W96
//  #12 //026   ----------------------------------------
 BYTE   W48
 BYTE   N24
 BYTE   W96
//  #12 //027   ----------------------------------------
 BYTE   W48
 BYTE   N24
 BYTE   W96
//  #12 //028   ----------------------------------------
 BYTE   W48
 BYTE   N24
 BYTE   W96
//  #12 //029   ----------------------------------------
 BYTE   W48
 BYTE   N24
 BYTE   W96
//  #12 //030   ----------------------------------------
 BYTE   W48
 BYTE   N24
 BYTE   W96
//  #12 //031   ----------------------------------------
 BYTE   W48
 BYTE   N24
 BYTE   W96
//  #12 //032   ----------------------------------------
 BYTE   W48
 BYTE   N24
 BYTE   W96
//  #12 //033   ----------------------------------------
 BYTE   W48
 BYTE   N24
 BYTE   W96
//  #12 //034   ----------------------------------------
 BYTE   W48
 BYTE   N24
 BYTE   W96
//  #12 //035   ----------------------------------------
 BYTE   W48
 BYTE   N24
 BYTE   W96
//  #12 //036   ----------------------------------------
 BYTE   W48
 BYTE   N24
 BYTE   W96
//  #12 //037   ----------------------------------------
 BYTE   W48
 BYTE   N24
 BYTE   W96
//  #12 //038   ----------------------------------------
 BYTE   W48
 BYTE   N24
 BYTE   W96
//  #12 //039   ----------------------------------------
 BYTE   W48
 BYTE   N24
 BYTE   W96
//  #12 //040   ----------------------------------------
 BYTE   W48
 BYTE   N24
 BYTE   W96
//  #12 //041   ----------------------------------------
 BYTE   W48
 BYTE   N24
 BYTE   W96
//  #12 //042   ----------------------------------------
 BYTE   W48
 BYTE   N24
 BYTE   W96
//  #12 //043   ----------------------------------------
 BYTE   W48
 BYTE   N24
 BYTE   W96
//  #12 //044   ----------------------------------------
 BYTE   W48
 BYTE   N24
 BYTE   W96
//  #12 //045   ----------------------------------------
 BYTE   W48
 BYTE   N24
 BYTE   W96
//  #12 //046   ----------------------------------------
 BYTE   W48
 BYTE   N24
 BYTE   W96
//  #12 //047   ----------------------------------------
 BYTE   W48
 BYTE   N24
 BYTE   W96
//  #12 //048   ----------------------------------------
 BYTE   W48
 BYTE   N24
 BYTE   W96
//  #12 //049   ----------------------------------------
 BYTE   W48
 BYTE   N24
 BYTE   W96
//  #12 //050   ----------------------------------------
 BYTE   W48
 BYTE   N24
 BYTE   W96
//  #12 //051   ----------------------------------------
 BYTE   W48
 BYTE   N24
 BYTE   W96
//  #12 //052   ----------------------------------------
 BYTE   W48
 BYTE   N24
 BYTE   W96
//  #12 //053   ----------------------------------------
 BYTE   W48
 BYTE   N24
 BYTE   W96
//  #12 //054   ----------------------------------------
 BYTE   W48
 BYTE   N24
 BYTE   W96
//  #12 //055   ----------------------------------------
 BYTE   W48
 BYTE   N24
 BYTE   W96
//  #12 //056   ----------------------------------------
 BYTE   W48
 BYTE   N24
 BYTE   W96
//  #12 //057   ----------------------------------------
 BYTE   W48
 BYTE   N24
 BYTE   W96
//  #12 //058   ----------------------------------------
 BYTE   W48
 BYTE   N24
 BYTE   W96
//  #12 //059   ----------------------------------------
 BYTE   W48
 BYTE   N24
 BYTE   W96
//  #12 //060   ----------------------------------------
 BYTE   N96  As1  v127
 BYTE   N96  En2
 BYTE   N96  An2
 BYTE   W48
 BYTE   N24  Bn0  v100
 BYTE   W96
//  #12 //061   ----------------------------------------
 BYTE   W48
 BYTE   N24
 BYTE   W96
//  #12 //062   ----------------------------------------
 BYTE   W48
 BYTE   N24
 BYTE   W96
//  #12 //063   ----------------------------------------
 BYTE   W48
 BYTE   N24
 BYTE   W96
//  #12 //064   ----------------------------------------
 BYTE   W48
 BYTE   N24
 BYTE   W96
//  #12 //065   ----------------------------------------
 BYTE   W48
 BYTE   N24
 BYTE   W96
//  #12 //066   ----------------------------------------
 BYTE   W48
 BYTE   N24
 BYTE   W96
//  #12 //067   ----------------------------------------
 BYTE   W48
 BYTE   N24
 BYTE   W96
//  #12 //068   ----------------------------------------
 BYTE   GoTo
  POIN2 Label_017F6416
 BYTE   FINE

//******************************************************//
	ALIGN 4

song2F:
	BYTE	12	// NumTrks
	BYTE	0	// NumBlks
	BYTE	song2F_pri	// Priority
	BYTE	song2F_rev	// Reverb.
    
	POIN2	song2F_grp
    
	POIN2	song2F_001
	POIN2	song2F_002
	POIN2	song2F_003
	POIN2	song2F_004
	POIN2	song2F_005
	POIN2	song2F_006
	POIN2	song2F_007
	POIN2	song2F_008
	POIN2	song2F_009
	POIN2	song2F_010
	POIN2	song2F_011
	POIN2	song2F_012

	
