//Event file generated from Sappy .s format.
	#include "MPlayDef.event"

	#define	song34_grp  voicegroup000
	#define	song34_pri  0
	#define	song34_rev  0
	#define	song34_mvl  127
	#define	song34_key  0
	#define	song34_tbs  1
	#define	song34_exg  0
	#define	song34_cmp  1

	// .rodata
	//	song34
	ALIGN 4


//**************** Track 1 (Midi-Chn.0) ****************//

song34_001:
//  #01 //000   ----------------------------------------
 BYTE   KEYSH   song34_key+0
Label_015F4F3A:
 BYTE   TEMPO   108*song34_tbs/2
 BYTE   VOICE   48
 BYTE   VOL   39*song34_mvl/mxv
 BYTE   PAN   c_v+13
 BYTE   BEND   c_v+0
 BYTE   W96
//  #01 //001   ----------------------------------------
 BYTE   W48
 BYTE   W01
 BYTE   W10
 BYTE   W05
 BYTE   W05
 BYTE   W06
 BYTE   W01
 BYTE   W02
 BYTE   W01
 BYTE   W02
 BYTE   W01
 BYTE   W02
 BYTE   W01
 BYTE   W02
 BYTE   W01
 BYTE   W02
 BYTE   W01
 BYTE   W02
 BYTE   W01
 BYTE   W02
//  #01 //002   ----------------------------------------
 BYTE   N32  As3  v096
 BYTE   W01
 BYTE   W02
 BYTE   W01
 BYTE   W02
 BYTE   W01
 BYTE   W02
 BYTE   W01
 BYTE   W02
 BYTE   W01
 BYTE   W02
 BYTE   W01
 BYTE   W02
 BYTE   W01
 BYTE   W02
 BYTE   W01
 BYTE   W02
 BYTE   W01
 BYTE   W02
 BYTE   W01
 BYTE   W02
 BYTE   W01
 BYTE   W02
 BYTE   W01
 BYTE   W02
 BYTE   N11  Cn4
 BYTE   W01
 BYTE   W02
 BYTE   W01
 BYTE   W02
 BYTE   W01
 BYTE   W02
 BYTE   W01
 BYTE   W02
 BYTE   W01
 BYTE   W02
 BYTE   W01
 BYTE   W02
 BYTE   W01
 BYTE   W02
 BYTE   W01
 BYTE   W02
 BYTE   W01
 BYTE   W02
 BYTE   W01
 BYTE   W02
 BYTE   W01
 BYTE   W02
 BYTE   W01
 BYTE   W02
 BYTE   W01
 BYTE   W02
 BYTE   W01
 BYTE   W02
 BYTE   W01
 BYTE   W02
 BYTE   W01
 BYTE   W02
 BYTE   W01
 BYTE   W02
 BYTE   W01
 BYTE   W02
 BYTE   W01
 BYTE   W02
 BYTE   W01
 BYTE   W02
//  #01 //003   ----------------------------------------
 BYTE   W01
 BYTE   W02
 BYTE   W01
 BYTE   W02
 BYTE   W01
 BYTE   W02
 BYTE   W01
 BYTE   W02
 BYTE   W01
 BYTE   W02
 BYTE   W01
 BYTE   W02
 BYTE   W01
 BYTE   W01
 BYTE   W02
 BYTE   W01
 BYTE   W01
 BYTE   N44  As3
 BYTE   W01
 BYTE   W01
 BYTE   W02
 BYTE   W01
 BYTE   W02
 BYTE   W01
 BYTE   W02
 BYTE   W01
 BYTE   W02
 BYTE   W01
 BYTE   W02
 BYTE   W01
 BYTE   W02
 BYTE   W01
 BYTE   W02
 BYTE   W01
 BYTE   W02
 BYTE   W01
 BYTE   W01
 BYTE   W21
 BYTE   N11  Cn4
 BYTE   W02
 BYTE   W11
 BYTE   W10
 BYTE   W01
//  #01 //004   ----------------------------------------
 BYTE   W04
 BYTE   W05
 BYTE   W05
 BYTE   W04
 BYTE   N02  Gn3  v084
 BYTE   W01
 BYTE   W02
 BYTE   Gs3
 BYTE   W01
 BYTE   W02
 BYTE   TIE  An3  v096
 BYTE   W01
 BYTE   W02
 BYTE   W01
 BYTE   W02
 BYTE   W01
 BYTE   W02
 BYTE   W01
 BYTE   W01
 BYTE   W05
 BYTE   W03
 BYTE   W03
 BYTE   W03
 BYTE   W03
 BYTE   W03
 BYTE   W03
 BYTE   W03
 BYTE   W03
 BYTE   W03
 BYTE   W03
 BYTE   W01
 BYTE   W03
 BYTE   W03
 BYTE   W03
 BYTE   W03
 BYTE   W03
 BYTE   W03
 BYTE   W03
 BYTE   W03
 BYTE   W01
//  #01 //005   ----------------------------------------
 BYTE   W02
 BYTE   W03
 BYTE   W03
 BYTE   W03
 BYTE   W03
 BYTE   W03
 BYTE   W03
 BYTE   W03
 BYTE   W03
 BYTE   W03
 BYTE   W03
 BYTE   W03
 BYTE   W03
 BYTE   W03
 BYTE   W03
 BYTE   W03
 BYTE   W01
 BYTE   W02
 BYTE   W01
 BYTE   W02
 BYTE   W01
 BYTE   W02
 BYTE   W01
 BYTE   W02
 BYTE   W01
 BYTE   W02
 BYTE   W01
 BYTE   W02
 BYTE   W01
 BYTE   W02
 BYTE   W01
 BYTE   W02
 BYTE   EOT
 BYTE   W01
 BYTE   W02
 BYTE   W01
 BYTE   W02
 BYTE   W01
 BYTE   W02
 BYTE   W01
 BYTE   W02
 BYTE   W01
 BYTE   W02
 BYTE   W01
 BYTE   W01
 BYTE   W01
 BYTE   W01
 BYTE   W01
 BYTE   W01
 BYTE   W01
 BYTE   W01
 BYTE   W02
//  #01 //006   ----------------------------------------
 BYTE   N32  As3
 BYTE   W01
 BYTE   W02
 BYTE   W01
 BYTE   W02
 BYTE   W01
 BYTE   W02
 BYTE   W01
 BYTE   W02
 BYTE   W01
 BYTE   W02
 BYTE   W01
 BYTE   W02
 BYTE   W01
 BYTE   W01
 BYTE   W03
 BYTE   W03
 BYTE   W03
 BYTE   W03
 BYTE   W03
 BYTE   W01
 BYTE   N11  Cn4
 BYTE   W01
 BYTE   W02
 BYTE   W01
 BYTE   W02
 BYTE   W01
 BYTE   W02
 BYTE   W01
 BYTE   W02
 BYTE   W01
 BYTE   W02
 BYTE   W01
 BYTE   W02
 BYTE   W01
 BYTE   W02
 BYTE   W01
 BYTE   W02
 BYTE   W01
 BYTE   W02
 BYTE   W01
 BYTE   W02
 BYTE   W01
 BYTE   W02
 BYTE   W01
 BYTE   W02
 BYTE   W01
 BYTE   W02
 BYTE   W01
 BYTE   W02
 BYTE   W01
 BYTE   W02
 BYTE   W01
 BYTE   W02
 BYTE   W01
 BYTE   W02
 BYTE   W01
 BYTE   W02
 BYTE   W01
 BYTE   W02
 BYTE   W01
 BYTE   W02
//  #01 //007   ----------------------------------------
 BYTE   W01
 BYTE   W02
 BYTE   W01
 BYTE   W02
 BYTE   W01
 BYTE   W02
 BYTE   W01
 BYTE   W02
 BYTE   W01
 BYTE   W02
 BYTE   W01
 BYTE   W02
 BYTE   W01
 BYTE   W01
 BYTE   W02
 BYTE   W01
 BYTE   W01
 BYTE   N44  As3
 BYTE   W01
 BYTE   W01
 BYTE   W02
 BYTE   W01
 BYTE   W02
 BYTE   W01
 BYTE   W02
 BYTE   W02
 BYTE   W01
 BYTE   W02
 BYTE   W01
 BYTE   W02
 BYTE   W01
 BYTE   W02
 BYTE   W01
 BYTE   W02
 BYTE   W01
 BYTE   W02
 BYTE   W21
 BYTE   N11  Cn4
 BYTE   W02
 BYTE   W11
 BYTE   W10
 BYTE   W01
//  #01 //008   ----------------------------------------
 BYTE   W04
 BYTE   W05
 BYTE   W05
 BYTE   W05
 BYTE   W02
 BYTE   W01
 BYTE   W02
 BYTE   TIE  Gn3
 BYTE   W01
 BYTE   W02
 BYTE   W01
 BYTE   W02
 BYTE   W01
 BYTE   W02
 BYTE   W01
 BYTE   W01
 BYTE   W05
 BYTE   W03
 BYTE   W03
 BYTE   W03
 BYTE   W03
 BYTE   W03
 BYTE   W03
 BYTE   W03
 BYTE   W03
 BYTE   W03
 BYTE   W03
 BYTE   W01
 BYTE   W03
 BYTE   W03
 BYTE   W03
 BYTE   W03
 BYTE   W03
 BYTE   W03
 BYTE   W03
 BYTE   W03
 BYTE   W01
//  #01 //009   ----------------------------------------
 BYTE   W02
 BYTE   W03
 BYTE   W03
 BYTE   W03
 BYTE   W03
 BYTE   W03
 BYTE   W03
 BYTE   W03
 BYTE   W03
 BYTE   W03
 BYTE   W03
 BYTE   W03
 BYTE   W03
 BYTE   W03
 BYTE   W03
 BYTE   W03
 BYTE   W01
 BYTE   W02
 BYTE   W01
 BYTE   W02
 BYTE   W01
 BYTE   W02
 BYTE   W01
 BYTE   W02
 BYTE   W01
 BYTE   W02
 BYTE   W01
 BYTE   W02
 BYTE   W01
 BYTE   W02
 BYTE   W01
 BYTE   W02
 BYTE   EOT
 BYTE   W01
 BYTE   W02
 BYTE   W01
 BYTE   W02
 BYTE   W01
 BYTE   W02
 BYTE   W01
 BYTE   W02
 BYTE   W01
 BYTE   W02
 BYTE   W01
 BYTE   W01
 BYTE   W01
 BYTE   W01
 BYTE   W01
 BYTE   W01
 BYTE   W01
 BYTE   W01
 BYTE   W01
 BYTE   W01
//  #01 //010   ----------------------------------------
 BYTE   N32  As3  v088
 BYTE   W01
 BYTE   W01
 BYTE   W01
 BYTE   W01
 BYTE   W01
 BYTE   W01
 BYTE   W01
 BYTE   W01
 BYTE   W01
 BYTE   W01
 BYTE   W03
 BYTE   W03
 BYTE   W03
 BYTE   W03
 BYTE   W03
 BYTE   W03
 BYTE   W03
 BYTE   W03
 BYTE   W02
 BYTE   N11  Cn4
 BYTE   W01
 BYTE   W02
 BYTE   W01
 BYTE   W02
 BYTE   W01
 BYTE   W02
 BYTE   W01
 BYTE   W02
 BYTE   W01
 BYTE   W02
 BYTE   W01
 BYTE   W02
 BYTE   W01
 BYTE   W02
 BYTE   W01
 BYTE   W02
 BYTE   W01
 BYTE   W02
 BYTE   W01
 BYTE   W02
 BYTE   W01
 BYTE   W02
 BYTE   W01
 BYTE   W02
 BYTE   W01
 BYTE   W02
 BYTE   W01
 BYTE   W02
 BYTE   W01
 BYTE   W02
 BYTE   W01
 BYTE   W02
 BYTE   W01
 BYTE   W02
 BYTE   W01
 BYTE   W02
 BYTE   W01
 BYTE   W02
 BYTE   W01
 BYTE   W02
//  #01 //011   ----------------------------------------
Label_015F5132:
 BYTE   W01
 BYTE   W02
 BYTE   W01
 BYTE   W02
 BYTE   W01
 BYTE   W02
 BYTE   W01
 BYTE   W02
 BYTE   W01
 BYTE   W02
 BYTE   W01
 BYTE   W02
 BYTE   W01
 BYTE   W01
 BYTE   W02
 BYTE   W01
 BYTE   W01
 BYTE   N44  As3  v088
 BYTE   W01
 BYTE   W01
 BYTE   W02
 BYTE   W01
 BYTE   W02
 BYTE   W01
 BYTE   W02
 BYTE   W02
 BYTE   W01
 BYTE   W02
 BYTE   W01
 BYTE   W02
 BYTE   W01
 BYTE   W02
 BYTE   W01
 BYTE   W02
 BYTE   W01
 BYTE   W02
 BYTE   W21
 BYTE   N11  Cn4
 BYTE   W02
 BYTE   W11
 BYTE   W10
 BYTE   W01
 BYTE   PEND 
//  #01 //012   ----------------------------------------
 BYTE   W04
 BYTE   W05
 BYTE   W05
 BYTE   W04
 BYTE   N02  Gn3  v084
 BYTE   W01
 BYTE   W02
 BYTE   Gs3
 BYTE   W01
 BYTE   W02
 BYTE   TIE  An3  v088
 BYTE   W01
 BYTE   W02
 BYTE   W01
 BYTE   W02
 BYTE   W01
 BYTE   W02
 BYTE   W01
 BYTE   W01
 BYTE   W05
 BYTE   W03
 BYTE   W03
 BYTE   W03
 BYTE   W03
 BYTE   W03
 BYTE   W03
 BYTE   W03
 BYTE   W03
 BYTE   W03
 BYTE   W03
 BYTE   W01
 BYTE   W03
 BYTE   W03
 BYTE   W03
 BYTE   W03
 BYTE   W03
 BYTE   W03
 BYTE   W03
 BYTE   W03
 BYTE   W01
//  #01 //013   ----------------------------------------
 BYTE   W02
 BYTE   W03
 BYTE   W03
 BYTE   W03
 BYTE   W03
 BYTE   W03
 BYTE   W03
 BYTE   W03
 BYTE   W03
 BYTE   W03
 BYTE   W03
 BYTE   W03
 BYTE   W03
 BYTE   W03
 BYTE   W03
 BYTE   W03
 BYTE   W01
 BYTE   W02
 BYTE   W01
 BYTE   W02
 BYTE   W01
 BYTE   W02
 BYTE   W01
 BYTE   W02
 BYTE   W01
 BYTE   W02
 BYTE   W01
 BYTE   W02
 BYTE   W01
 BYTE   W02
 BYTE   W01
 BYTE   W02
 BYTE   EOT
 BYTE   W01
 BYTE   W02
 BYTE   W01
 BYTE   W02
 BYTE   W01
 BYTE   W02
 BYTE   W01
 BYTE   W02
 BYTE   W01
 BYTE   W02
 BYTE   W01
 BYTE   W02
 BYTE   W01
 BYTE   W02
 BYTE   W01
 BYTE   W01
 BYTE   W01
 BYTE   W01
//  #01 //014   ----------------------------------------
 BYTE   N32  As3
 BYTE   W01
 BYTE   W01
 BYTE   W01
 BYTE   W01
 BYTE   W01
 BYTE   W01
 BYTE   W01
 BYTE   W01
 BYTE   W01
 BYTE   W01
 BYTE   W03
 BYTE   W03
 BYTE   W03
 BYTE   W03
 BYTE   W03
 BYTE   W03
 BYTE   W03
 BYTE   W03
 BYTE   W02
 BYTE   N11  Cn4
 BYTE   W01
 BYTE   W02
 BYTE   W01
 BYTE   W02
 BYTE   W01
 BYTE   W02
 BYTE   W01
 BYTE   W02
 BYTE   W01
 BYTE   W02
 BYTE   W01
 BYTE   W02
 BYTE   W01
 BYTE   W02
 BYTE   W01
 BYTE   W02
 BYTE   W01
 BYTE   W02
 BYTE   W01
 BYTE   W02
 BYTE   W01
 BYTE   W02
 BYTE   W01
 BYTE   W02
 BYTE   W01
 BYTE   W02
 BYTE   W01
 BYTE   W02
 BYTE   W01
 BYTE   W02
 BYTE   W01
 BYTE   W02
 BYTE   W01
 BYTE   W02
 BYTE   W01
 BYTE   W02
 BYTE   W01
 BYTE   W02
 BYTE   W01
 BYTE   W02
//  #01 //015   ----------------------------------------
 BYTE   PATT
  POIN2 Label_015F5132
//  #01 //016   ----------------------------------------
 BYTE   W04
 BYTE   W05
 BYTE   W05
 BYTE   W05
 BYTE   W02
 BYTE   W01
 BYTE   W02
 BYTE   TIE  Dn4  v088
 BYTE   W01
 BYTE   W02
 BYTE   W01
 BYTE   W02
 BYTE   W01
 BYTE   W02
 BYTE   W01
 BYTE   W01
 BYTE   W05
 BYTE   W03
 BYTE   W03
 BYTE   W03
 BYTE   W03
 BYTE   W03
 BYTE   W03
 BYTE   W03
 BYTE   W03
 BYTE   W03
 BYTE   W03
 BYTE   W01
 BYTE   W03
 BYTE   W03
 BYTE   W03
 BYTE   W03
 BYTE   W03
 BYTE   W03
 BYTE   W03
 BYTE   W03
 BYTE   W01
//  #01 //017   ----------------------------------------
 BYTE   W02
 BYTE   W03
 BYTE   W03
 BYTE   W03
 BYTE   W03
 BYTE   W03
 BYTE   W03
 BYTE   W03
 BYTE   W03
 BYTE   W03
 BYTE   W03
 BYTE   W03
 BYTE   W03
 BYTE   W03
 BYTE   W03
 BYTE   W03
 BYTE   W01
 BYTE   W02
 BYTE   W01
 BYTE   W02
 BYTE   W01
 BYTE   W02
 BYTE   W01
 BYTE   W02
 BYTE   W01
 BYTE   W02
 BYTE   W01
 BYTE   W02
 BYTE   W01
 BYTE   W02
 BYTE   W01
 BYTE   W02
 BYTE   EOT
 BYTE   W01
 BYTE   W02
 BYTE   W01
 BYTE   W02
 BYTE   W01
 BYTE   W01
 BYTE   W17
//  #01 //018   ----------------------------------------
 BYTE   W96
//  #01 //019   ----------------------------------------
 BYTE   W96
//  #01 //020   ----------------------------------------
 BYTE   W96
//  #01 //021   ----------------------------------------
 BYTE   W96
//  #01 //022   ----------------------------------------
 BYTE   W96
//  #01 //023   ----------------------------------------
 BYTE   W96
//  #01 //024   ----------------------------------------
 BYTE   W92
 BYTE   W03
 BYTE   W01
//  #01 //025   ----------------------------------------
 BYTE   W54
 BYTE   W01
 BYTE   W02
 BYTE   W01
 BYTE   W02
 BYTE   W01
 BYTE   W02
 BYTE   W01
 BYTE   W02
 BYTE   W01
 BYTE   W02
 BYTE   W01
 BYTE   W02
 BYTE   N03  Gn3  v092
 BYTE   W01
 BYTE   W02
 BYTE   W01
 BYTE   An3
 BYTE   W02
 BYTE   W01
 BYTE   W01
 BYTE   As3
 BYTE   W01
 BYTE   W01
 BYTE   W02
 BYTE   Cn4
 BYTE   W01
 BYTE   W02
 BYTE   W01
 BYTE   Dn4
 BYTE   W02
 BYTE   W01
 BYTE   W01
 BYTE   En4
 BYTE   W01
 BYTE   W01
 BYTE   W02
//  #01 //026   ----------------------------------------
 BYTE   N32  Fn4  v096
 BYTE   W01
 BYTE   W01
 BYTE   W01
 BYTE   W02
 BYTE   W01
 BYTE   W02
 BYTE   W01
 BYTE   W02
 BYTE   W01
 BYTE   W02
 BYTE   W01
 BYTE   W02
 BYTE   W03
 BYTE   W03
 BYTE   W03
 BYTE   W03
 BYTE   W03
 BYTE   W03
 BYTE   W01
 BYTE   En4
 BYTE   W02
 BYTE   W03
 BYTE   W01
 BYTE   W03
 BYTE   W03
 BYTE   W03
 BYTE   W03
 BYTE   W03
 BYTE   W03
 BYTE   W03
 BYTE   W03
 BYTE   W03
 BYTE   W02
 BYTE   W01
 BYTE   Cn4
 BYTE   W02
 BYTE   W03
 BYTE   W03
 BYTE   W03
 BYTE   W03
 BYTE   W03
 BYTE   W03
 BYTE   W03
 BYTE   W01
//  #01 //027   ----------------------------------------
 BYTE   W02
 BYTE   W03
 BYTE   W03
 BYTE   W01
 BYTE   W03
 BYTE   N56  Dn4
 BYTE   W03
 BYTE   W03
 BYTE   W03
 BYTE   W03
 BYTE   W03
 BYTE   W03
 BYTE   W03
 BYTE   W03
 BYTE   W03
 BYTE   W03
 BYTE   W03
 BYTE   W03
 BYTE   W03
 BYTE   W03
 BYTE   W03
 BYTE   W03
 BYTE   W03
 BYTE   W03
 BYTE   W03
 BYTE   W03
 BYTE   N23  Cn4
 BYTE   W03
 BYTE   W03
 BYTE   W03
 BYTE   W03
 BYTE   W03
 BYTE   W03
 BYTE   W03
 BYTE   W03
//  #01 //028   ----------------------------------------
 BYTE   N32
 BYTE   W03
 BYTE   W03
 BYTE   W03
 BYTE   W03
 BYTE   W03
 BYTE   W03
 BYTE   W03
 BYTE   W03
 BYTE   W03
 BYTE   W03
 BYTE   W03
 BYTE   W03
 BYTE   As3
 BYTE   W01
 BYTE   W03
 BYTE   W03
 BYTE   W03
 BYTE   W03
 BYTE   W03
 BYTE   W03
 BYTE   W03
 BYTE   W03
 BYTE   W03
 BYTE   W03
 BYTE   W03
 BYTE   W02
 BYTE   An3
 BYTE   W01
 BYTE   W03
 BYTE   W03
 BYTE   W03
 BYTE   W03
 BYTE   W03
 BYTE   W03
 BYTE   W03
 BYTE   W02
//  #01 //029   ----------------------------------------
 BYTE   W01
 BYTE   W02
 BYTE   W01
 BYTE   W02
 BYTE   W01
 BYTE   W02
 BYTE   W01
 BYTE   W02
 BYTE   N56  Gn3
 BYTE   W01
 BYTE   W01
 BYTE   W03
 BYTE   W03
 BYTE   W03
 BYTE   W03
 BYTE   W03
 BYTE   W03
 BYTE   W03
 BYTE   W03
 BYTE   W03
 BYTE   W03
 BYTE   W03
 BYTE   W03
 BYTE   W03
 BYTE   W03
 BYTE   W03
 BYTE   W01
 BYTE   W01
 BYTE   W02
 BYTE   W01
 BYTE   W02
 BYTE   W01
 BYTE   W02
 BYTE   W01
 BYTE   W02
 BYTE   N23  Fn3
 BYTE   W01
 BYTE   W02
 BYTE   W01
 BYTE   W02
 BYTE   W01
 BYTE   W02
 BYTE   W01
 BYTE   W02
 BYTE   W01
 BYTE   W02
 BYTE   W01
 BYTE   W02
 BYTE   W01
 BYTE   W02
 BYTE   W03
//  #01 //030   ----------------------------------------
 BYTE   N32  Gn3
 BYTE   W03
 BYTE   W03
 BYTE   W03
 BYTE   W03
 BYTE   W03
 BYTE   W03
 BYTE   W03
 BYTE   W03
 BYTE   W03
 BYTE   W03
 BYTE   W03
 BYTE   W03
 BYTE   TIE  Cn4
 BYTE   W03
 BYTE   W03
 BYTE   W01
 BYTE   W02
 BYTE   W01
 BYTE   W02
 BYTE   W01
 BYTE   W02
 BYTE   W01
 BYTE   W02
 BYTE   W01
 BYTE   W02
 BYTE   W01
 BYTE   W02
 BYTE   W01
 BYTE   W02
 BYTE   W01
 BYTE   W02
 BYTE   W01
 BYTE   W01
 BYTE   W03
 BYTE   W03
 BYTE   W03
 BYTE   W03
 BYTE   W03
 BYTE   W03
 BYTE   W03
 BYTE   W03
 BYTE   W03
 BYTE   W01
//  #01 //031   ----------------------------------------
 BYTE   W02
 BYTE   W03
 BYTE   W03
 BYTE   W03
 BYTE   W03
 BYTE   W03
 BYTE   W03
 BYTE   W03
 BYTE   W03
 BYTE   W02
 BYTE   W03
 BYTE   W03
 BYTE   W03
 BYTE   W03
 BYTE   W03
 BYTE   W03
 BYTE   W03
 BYTE   W03
 BYTE   W03
 BYTE   W03
 BYTE   W03
 BYTE   W03
 BYTE   W02
 BYTE   W01
 BYTE   W02
 BYTE   W01
 BYTE   W01
 BYTE   EOT
 BYTE   W01
 BYTE   N23  Fn3
 BYTE   W01
 BYTE   W02
 BYTE   W01
 BYTE   W02
 BYTE   W01
 BYTE   W02
 BYTE   W01
 BYTE   W02
 BYTE   W01
 BYTE   W02
 BYTE   W01
 BYTE   W02
 BYTE   W01
 BYTE   W02
 BYTE   W01
 BYTE   W02
//  #01 //032   ----------------------------------------
 BYTE   N32  Gn3
 BYTE   W01
 BYTE   W03
 BYTE   W03
 BYTE   W03
 BYTE   W03
 BYTE   W03
 BYTE   W03
 BYTE   W02
 BYTE   W07
 BYTE   W04
 BYTE   W03
 BYTE   W01
 BYTE   TIE  Dn4
 BYTE   W03
 BYTE   W03
 BYTE   W04
 BYTE   W04
 BYTE   W03
 BYTE   W04
 BYTE   W03
 BYTE   W04
 BYTE   W03
 BYTE   W04
 BYTE   W03
 BYTE   W04
 BYTE   W04
 BYTE   W03
 BYTE   W07
 BYTE   W03
 BYTE   W01
//  #01 //033   ----------------------------------------
 BYTE   W02
 BYTE   W04
 BYTE   W03
 BYTE   W03
 BYTE   W03
 BYTE   W04
 BYTE   W03
 BYTE   W03
 BYTE   W03
 BYTE   W04
 BYTE   W03
 BYTE   W03
 BYTE   W04
 BYTE   W03
 BYTE   W03
 BYTE   W03
 BYTE   W04
 BYTE   W01
 BYTE   W02
 BYTE   W01
 BYTE   W02
 BYTE   W01
 BYTE   W02
 BYTE   W01
 BYTE   W02
 BYTE   W01
 BYTE   W02
 BYTE   W01
 BYTE   W02
 BYTE   W01
 BYTE   W02
 BYTE   W01
 BYTE   W02
 BYTE   W01
 BYTE   W02
 BYTE   W01
 BYTE   W02
 BYTE   W01
 BYTE   W02
 BYTE   W01
 BYTE   W02
 BYTE   W01
 BYTE   W01
 BYTE   W02
 BYTE   EOT
 BYTE   W01
//  #01 //034   ----------------------------------------
 BYTE   GoTo
  POIN2 Label_015F4F3A
 BYTE   FINE

//**************** Track 2 (Midi-Chn.1) ****************//

song34_002:
//  #02 //000   ----------------------------------------
 BYTE   KEYSH   song34_key+0
Label_015F4012:
 BYTE   VOICE   48
 BYTE   VOL   37*song34_mvl/mxv
 BYTE   PAN   c_v+39
 BYTE   BEND   c_v+0
 BYTE   W96
//  #02 //001   ----------------------------------------
 BYTE   W48
 BYTE   W12
 BYTE   W04
 BYTE   W04
 BYTE   W08
 BYTE   W04
 BYTE   W04
 BYTE   W04
 BYTE   W04
 BYTE   W04
//  #02 //002   ----------------------------------------
 BYTE   N32  Fn3  v096
 BYTE   W04
 BYTE   W04
 BYTE   W04
 BYTE   W04
 BYTE   W04
 BYTE   W04
 BYTE   W04
 BYTE   W04
 BYTE   W04
 BYTE   N11  Gn3
 BYTE   W04
 BYTE   W04
 BYTE   W04
 BYTE   W04
 BYTE   W04
 BYTE   W04
 BYTE   W04
 BYTE   W04
 BYTE   W04
 BYTE   W04
 BYTE   W04
 BYTE   W04
 BYTE   W04
 BYTE   W04
 BYTE   W04
//  #02 //003   ----------------------------------------
 BYTE   W04
 BYTE   W04
 BYTE   W04
 BYTE   W04
 BYTE   W04
 BYTE   W04
 BYTE   N44  Fn3
 BYTE   W04
 BYTE   W04
 BYTE   W04
 BYTE   W04
 BYTE   W04
 BYTE   W04
 BYTE   W04
 BYTE   W20
 BYTE   N11  Gn3
 BYTE   W04
 BYTE   W12
 BYTE   W08
//  #02 //004   ----------------------------------------
 BYTE   W04
 BYTE   W04
 BYTE   W08
 BYTE   W04
 BYTE   W04
 BYTE   TIE  En3
 BYTE   W04
 BYTE   W04
 BYTE   W04
 BYTE   W04
 BYTE   W04
 BYTE   W04
 BYTE   W04
 BYTE   W04
 BYTE   W04
 BYTE   W04
 BYTE   W04
 BYTE   W04
 BYTE   W04
 BYTE   W04
 BYTE   W04
 BYTE   W04
 BYTE   W04
 BYTE   W04
//  #02 //005   ----------------------------------------
 BYTE   W04
 BYTE   W04
 BYTE   W04
 BYTE   W04
 BYTE   W04
 BYTE   W04
 BYTE   W04
 BYTE   W04
 BYTE   W04
 BYTE   W04
 BYTE   W04
 BYTE   W04
 BYTE   W04
 BYTE   W04
 BYTE   W04
 BYTE   W04
 BYTE   W04
 BYTE   W03
 BYTE   EOT
 BYTE   W01
 BYTE   W04
 BYTE   W04
 BYTE   W04
 BYTE   W04
 BYTE   W04
 BYTE   W04
//  #02 //006   ----------------------------------------
 BYTE   N32  Fn3
 BYTE   W04
 BYTE   W04
 BYTE   W04
 BYTE   W04
 BYTE   W04
 BYTE   W04
 BYTE   W04
 BYTE   W04
 BYTE   W04
 BYTE   N11  Gn3
 BYTE   W04
 BYTE   W04
 BYTE   W04
 BYTE   W04
 BYTE   W04
 BYTE   W04
 BYTE   W04
 BYTE   W04
 BYTE   W04
 BYTE   W04
 BYTE   W04
 BYTE   W04
 BYTE   W04
 BYTE   W04
 BYTE   W04
//  #02 //007   ----------------------------------------
 BYTE   W04
 BYTE   W04
 BYTE   W04
 BYTE   W04
 BYTE   W04
 BYTE   W04
 BYTE   N44  Fn3
 BYTE   W04
 BYTE   W04
 BYTE   W04
 BYTE   W04
 BYTE   W04
 BYTE   W04
 BYTE   W04
 BYTE   W20
 BYTE   N11  Gn3
 BYTE   W04
 BYTE   W12
 BYTE   W08
//  #02 //008   ----------------------------------------
 BYTE   W04
 BYTE   W04
 BYTE   W08
 BYTE   W04
 BYTE   W04
 BYTE   TIE  Dn3
 BYTE   W04
 BYTE   W04
 BYTE   W04
 BYTE   W04
 BYTE   W04
 BYTE   W04
 BYTE   W04
 BYTE   W04
 BYTE   W04
 BYTE   W04
 BYTE   W04
 BYTE   W04
 BYTE   W04
 BYTE   W04
 BYTE   W04
 BYTE   W04
 BYTE   W04
 BYTE   W04
//  #02 //009   ----------------------------------------
 BYTE   W04
 BYTE   W04
 BYTE   W04
 BYTE   W04
 BYTE   W04
 BYTE   W04
 BYTE   W04
 BYTE   W04
 BYTE   W04
 BYTE   W04
 BYTE   W04
 BYTE   W04
 BYTE   W04
 BYTE   W04
 BYTE   W04
 BYTE   W04
 BYTE   W04
 BYTE   W03
 BYTE   EOT
 BYTE   W01
 BYTE   W04
 BYTE   W04
 BYTE   W04
 BYTE   W04
 BYTE   W04
 BYTE   W04
//  #02 //010   ----------------------------------------
Label_015F40EE:
 BYTE   N32  Fn3  v088
 BYTE   W04
 BYTE   W04
 BYTE   W04
 BYTE   W04
 BYTE   W04
 BYTE   W04
 BYTE   W04
 BYTE   W04
 BYTE   W04
 BYTE   N11  Gn3
 BYTE   W04
 BYTE   W04
 BYTE   W04
 BYTE   W04
 BYTE   W04
 BYTE   W04
 BYTE   W04
 BYTE   W04
 BYTE   W04
 BYTE   W04
 BYTE   W04
 BYTE   W04
 BYTE   W04
 BYTE   W04
 BYTE   W04
 BYTE   PEND 
//  #02 //011   ----------------------------------------
Label_015F410C:
 BYTE   W04
 BYTE   W04
 BYTE   W04
 BYTE   W04
 BYTE   W04
 BYTE   W04
 BYTE   N44  Fn3  v088
 BYTE   W04
 BYTE   W04
 BYTE   W04
 BYTE   W04
 BYTE   W04
 BYTE   W04
 BYTE   W04
 BYTE   W20
 BYTE   N11  Gn3
 BYTE   W04
 BYTE   W12
 BYTE   W08
 BYTE   PEND 
//  #02 //012   ----------------------------------------
 BYTE   W04
 BYTE   W04
 BYTE   W08
 BYTE   W04
 BYTE   W04
 BYTE   TIE  En3
 BYTE   W04
 BYTE   W04
 BYTE   W04
 BYTE   W04
 BYTE   W04
 BYTE   W04
 BYTE   W04
 BYTE   W04
 BYTE   W04
 BYTE   W04
 BYTE   W04
 BYTE   W04
 BYTE   W04
 BYTE   W04
 BYTE   W04
 BYTE   W04
 BYTE   W04
 BYTE   W04
//  #02 //013   ----------------------------------------
 BYTE   W04
 BYTE   W04
 BYTE   W04
 BYTE   W04
 BYTE   W04
 BYTE   W04
 BYTE   W04
 BYTE   W04
 BYTE   W04
 BYTE   W04
 BYTE   W04
 BYTE   W04
 BYTE   W04
 BYTE   W04
 BYTE   W04
 BYTE   W04
 BYTE   W04
 BYTE   W03
 BYTE   EOT
 BYTE   W01
 BYTE   W04
 BYTE   W04
 BYTE   W04
 BYTE   W04
 BYTE   W04
 BYTE   W04
//  #02 //014   ----------------------------------------
 BYTE   PATT
  POIN2 Label_015F40EE
//  #02 //015   ----------------------------------------
 BYTE   PATT
  POIN2 Label_015F410C
//  #02 //016   ----------------------------------------
 BYTE   W04
 BYTE   W04
 BYTE   W08
 BYTE   W04
 BYTE   W04
 BYTE   TIE  An3  v088
 BYTE   W04
 BYTE   W04
 BYTE   W04
 BYTE   W04
 BYTE   W04
 BYTE   W04
 BYTE   W04
 BYTE   W04
 BYTE   W04
 BYTE   W04
 BYTE   W04
 BYTE   W04
 BYTE   W04
 BYTE   W04
 BYTE   W04
 BYTE   W04
 BYTE   W04
 BYTE   W04
//  #02 //017   ----------------------------------------
 BYTE   W04
 BYTE   W04
 BYTE   W04
 BYTE   W04
 BYTE   W04
 BYTE   W04
 BYTE   W04
 BYTE   W04
 BYTE   W04
 BYTE   W04
 BYTE   W04
 BYTE   W04
 BYTE   W04
 BYTE   W04
 BYTE   W04
 BYTE   W04
 BYTE   W04
 BYTE   W03
 BYTE   EOT
 BYTE   W01
 BYTE   W04
 BYTE   W04
 BYTE   W16
//  #02 //018   ----------------------------------------
 BYTE   W96
//  #02 //019   ----------------------------------------
 BYTE   W96
//  #02 //020   ----------------------------------------
 BYTE   W96
//  #02 //021   ----------------------------------------
 BYTE   W96
//  #02 //022   ----------------------------------------
 BYTE   W96
//  #02 //023   ----------------------------------------
 BYTE   W96
//  #02 //024   ----------------------------------------
 BYTE   W96
//  #02 //025   ----------------------------------------
 BYTE   W56
 BYTE   W04
 BYTE   W04
 BYTE   W04
 BYTE   W04
 BYTE   W04
 BYTE   W04
 BYTE   W04
 BYTE   W04
 BYTE   W04
 BYTE   W04
//  #02 //026   ----------------------------------------
 BYTE   N32  Cn4  v096
 BYTE   W04
 BYTE   W04
 BYTE   W04
 BYTE   W04
 BYTE   W04
 BYTE   W04
 BYTE   W04
 BYTE   W04
 BYTE   W04
 BYTE   N32
 BYTE   W04
 BYTE   W04
 BYTE   W04
 BYTE   W04
 BYTE   W04
 BYTE   W04
 BYTE   W04
 BYTE   W04
 BYTE   W04
 BYTE   Gn3
 BYTE   W04
 BYTE   W04
 BYTE   W04
 BYTE   W04
 BYTE   W04
 BYTE   W04
//  #02 //027   ----------------------------------------
 BYTE   W04
 BYTE   W04
 BYTE   W04
 BYTE   As3
 BYTE   W04
 BYTE   W04
 BYTE   W04
 BYTE   W04
 BYTE   W04
 BYTE   W04
 BYTE   W04
 BYTE   W04
 BYTE   W04
 BYTE   N44  An3
 BYTE   W04
 BYTE   W04
 BYTE   W04
 BYTE   W04
 BYTE   W04
 BYTE   W04
 BYTE   W04
 BYTE   W04
 BYTE   W04
 BYTE   W04
 BYTE   W04
 BYTE   W04
//  #02 //028   ----------------------------------------
 BYTE   N32  Gs3
 BYTE   W04
 BYTE   W04
 BYTE   W04
 BYTE   W04
 BYTE   W04
 BYTE   W04
 BYTE   W04
 BYTE   W04
 BYTE   W04
 BYTE   Gn3
 BYTE   W04
 BYTE   W04
 BYTE   W04
 BYTE   W04
 BYTE   W04
 BYTE   W04
 BYTE   W04
 BYTE   W04
 BYTE   W04
 BYTE   Fn3
 BYTE   W04
 BYTE   W04
 BYTE   W04
 BYTE   W04
 BYTE   W04
 BYTE   W04
//  #02 //029   ----------------------------------------
 BYTE   W04
 BYTE   W04
 BYTE   W04
 BYTE   N56  Dn3
 BYTE   W04
 BYTE   W04
 BYTE   W04
 BYTE   W04
 BYTE   W04
 BYTE   W04
 BYTE   W04
 BYTE   W04
 BYTE   W04
 BYTE   W04
 BYTE   W04
 BYTE   W04
 BYTE   W04
 BYTE   W04
 BYTE   W04
 BYTE   N23  Cn3
 BYTE   W04
 BYTE   W04
 BYTE   W04
 BYTE   W04
 BYTE   W04
 BYTE   W04
//  #02 //030   ----------------------------------------
 BYTE   N32  Dn3
 BYTE   W04
 BYTE   W04
 BYTE   W04
 BYTE   W04
 BYTE   W04
 BYTE   W04
 BYTE   W04
 BYTE   W04
 BYTE   W04
 BYTE   TIE  Gn3
 BYTE   W04
 BYTE   W04
 BYTE   W04
 BYTE   W04
 BYTE   W04
 BYTE   W04
 BYTE   W04
 BYTE   W04
 BYTE   W04
 BYTE   W04
 BYTE   W04
 BYTE   W04
 BYTE   W04
 BYTE   W04
 BYTE   W04
//  #02 //031   ----------------------------------------
 BYTE   W04
 BYTE   W04
 BYTE   W04
 BYTE   W04
 BYTE   W04
 BYTE   W04
 BYTE   W04
 BYTE   W04
 BYTE   W04
 BYTE   W04
 BYTE   W04
 BYTE   W04
 BYTE   W04
 BYTE   W04
 BYTE   W04
 BYTE   W04
 BYTE   W04
 BYTE   W03
 BYTE   EOT
 BYTE   W01
 BYTE   N23  Dn3
 BYTE   W04
 BYTE   W04
 BYTE   W04
 BYTE   W04
 BYTE   W04
 BYTE   W04
//  #02 //032   ----------------------------------------
 BYTE   N32  En3
 BYTE   W04
 BYTE   W04
 BYTE   W04
 BYTE   W04
 BYTE   W04
 BYTE   W08
 BYTE   W04
 BYTE   W04
 BYTE   TIE  An3
 BYTE   W04
 BYTE   W04
 BYTE   W04
 BYTE   W04
 BYTE   W04
 BYTE   W04
 BYTE   W04
 BYTE   W04
 BYTE   W04
 BYTE   W04
 BYTE   W04
 BYTE   W04
 BYTE   W04
 BYTE   W04
 BYTE   W04
//  #02 //033   ----------------------------------------
 BYTE   W04
 BYTE   W04
 BYTE   W04
 BYTE   W04
 BYTE   W04
 BYTE   W04
 BYTE   W04
 BYTE   W04
 BYTE   W04
 BYTE   W04
 BYTE   W04
 BYTE   W04
 BYTE   W04
 BYTE   W04
 BYTE   W04
 BYTE   W04
 BYTE   W04
 BYTE   W04
 BYTE   W04
 BYTE   W04
 BYTE   W04
 BYTE   W04
 BYTE   W04
 BYTE   W03
 BYTE   EOT
 BYTE   W01
//  #02 //034   ----------------------------------------
 BYTE   GoTo
  POIN2 Label_015F4012
 BYTE   FINE

//**************** Track 3 (Midi-Chn.2) ****************//

song34_003:
//  #03 //000   ----------------------------------------
 BYTE   KEYSH   song34_key+0
Label_015F3DA2:
 BYTE   VOICE   48
 BYTE   VOL   34*song34_mvl/mxv
 BYTE   PAN   c_v-2
 BYTE   BEND   c_v+0
 BYTE   W96
//  #03 //001   ----------------------------------------
 BYTE   W48
 BYTE   W12
 BYTE   W04
 BYTE   W04
 BYTE   W08
 BYTE   W04
 BYTE   W04
 BYTE   W04
 BYTE   W04
 BYTE   W04
//  #03 //002   ----------------------------------------
 BYTE   N32  Cn3  v096
 BYTE   W04
 BYTE   W04
 BYTE   W04
 BYTE   W04
 BYTE   W04
 BYTE   W04
 BYTE   W04
 BYTE   W04
 BYTE   W04
 BYTE   N11  Dn3
 BYTE   W04
 BYTE   W04
 BYTE   W04
 BYTE   W04
 BYTE   W04
 BYTE   W04
 BYTE   W04
 BYTE   W04
 BYTE   W04
 BYTE   W04
 BYTE   W04
 BYTE   W04
 BYTE   W04
 BYTE   W04
 BYTE   W04
//  #03 //003   ----------------------------------------
 BYTE   W04
 BYTE   W04
 BYTE   W04
 BYTE   W04
 BYTE   W04
 BYTE   W04
 BYTE   N44  Cn3
 BYTE   W04
 BYTE   W04
 BYTE   W04
 BYTE   W04
 BYTE   W04
 BYTE   W04
 BYTE   W04
 BYTE   W20
 BYTE   N11  Dn3
 BYTE   W04
 BYTE   W12
 BYTE   W08
//  #03 //004   ----------------------------------------
 BYTE   W04
 BYTE   W04
 BYTE   W08
 BYTE   W04
 BYTE   W04
 BYTE   TIE  Bn2
 BYTE   W04
 BYTE   W04
 BYTE   W04
 BYTE   W04
 BYTE   W04
 BYTE   W04
 BYTE   W04
 BYTE   W04
 BYTE   W04
 BYTE   W04
 BYTE   W04
 BYTE   W04
 BYTE   W04
 BYTE   W04
 BYTE   W04
 BYTE   W04
 BYTE   W04
 BYTE   W04
//  #03 //005   ----------------------------------------
 BYTE   W04
 BYTE   W04
 BYTE   W04
 BYTE   W04
 BYTE   W04
 BYTE   W04
 BYTE   W04
 BYTE   W04
 BYTE   W04
 BYTE   W04
 BYTE   W04
 BYTE   W04
 BYTE   W04
 BYTE   W04
 BYTE   W04
 BYTE   W04
 BYTE   W04
 BYTE   W03
 BYTE   EOT
 BYTE   W01
 BYTE   W04
 BYTE   W04
 BYTE   W04
 BYTE   W04
 BYTE   W04
 BYTE   W04
//  #03 //006   ----------------------------------------
 BYTE   N32  Cn3
 BYTE   W04
 BYTE   W04
 BYTE   W04
 BYTE   W04
 BYTE   W04
 BYTE   W04
 BYTE   W04
 BYTE   W04
 BYTE   W04
 BYTE   N11  Dn3
 BYTE   W04
 BYTE   W04
 BYTE   W04
 BYTE   W04
 BYTE   W04
 BYTE   W04
 BYTE   W04
 BYTE   W04
 BYTE   W04
 BYTE   W04
 BYTE   W04
 BYTE   W04
 BYTE   W04
 BYTE   W04
 BYTE   W04
//  #03 //007   ----------------------------------------
 BYTE   W04
 BYTE   W04
 BYTE   W04
 BYTE   W04
 BYTE   W04
 BYTE   W04
 BYTE   N44  Cn3
 BYTE   W04
 BYTE   W04
 BYTE   W04
 BYTE   W04
 BYTE   W04
 BYTE   W04
 BYTE   W04
 BYTE   W20
 BYTE   N11  Dn3
 BYTE   W04
 BYTE   W12
 BYTE   W08
//  #03 //008   ----------------------------------------
 BYTE   W04
 BYTE   W04
 BYTE   W08
 BYTE   W04
 BYTE   W04
 BYTE   TIE  An2
 BYTE   W04
 BYTE   W04
 BYTE   W04
 BYTE   W04
 BYTE   W04
 BYTE   W04
 BYTE   W04
 BYTE   W04
 BYTE   W04
 BYTE   W04
 BYTE   W04
 BYTE   W04
 BYTE   W04
 BYTE   W04
 BYTE   W04
 BYTE   W04
 BYTE   W04
 BYTE   W04
//  #03 //009   ----------------------------------------
 BYTE   W04
 BYTE   W04
 BYTE   W04
 BYTE   W04
 BYTE   W04
 BYTE   W04
 BYTE   W04
 BYTE   W04
 BYTE   W04
 BYTE   W04
 BYTE   W04
 BYTE   W04
 BYTE   W04
 BYTE   W04
 BYTE   W04
 BYTE   W04
 BYTE   W04
 BYTE   W03
 BYTE   EOT
 BYTE   W01
 BYTE   W04
 BYTE   W04
 BYTE   W04
 BYTE   W04
 BYTE   W04
 BYTE   W04
//  #03 //010   ----------------------------------------
 BYTE   W04
 BYTE   W04
 BYTE   W04
 BYTE   W04
 BYTE   W04
 BYTE   W04
 BYTE   W04
 BYTE   W04
 BYTE   W04
 BYTE   W04
 BYTE   W04
 BYTE   W04
 BYTE   W04
 BYTE   W04
 BYTE   W04
 BYTE   W04
 BYTE   W04
 BYTE   W04
 BYTE   W04
 BYTE   W04
 BYTE   W04
 BYTE   W04
 BYTE   W04
 BYTE   W04
//  #03 //011   ----------------------------------------
Label_015F3E96:
 BYTE   W04
 BYTE   W04
 BYTE   W04
 BYTE   W04
 BYTE   W04
 BYTE   W04
 BYTE   W04
 BYTE   W04
 BYTE   W04
 BYTE   W04
 BYTE   W04
 BYTE   W04
 BYTE   W04
 BYTE   W24
 BYTE   W12
 BYTE   W08
 BYTE   PEND 
//  #03 //012   ----------------------------------------
Label_015F3EA7:
 BYTE   W04
 BYTE   W04
 BYTE   W08
 BYTE   W04
 BYTE   W04
 BYTE   W04
 BYTE   W04
 BYTE   W04
 BYTE   W04
 BYTE   W04
 BYTE   W04
 BYTE   W04
 BYTE   W04
 BYTE   W04
 BYTE   W04
 BYTE   W04
 BYTE   W04
 BYTE   W04
 BYTE   W04
 BYTE   W04
 BYTE   W04
 BYTE   W04
 BYTE   W04
 BYTE   PEND 
//  #03 //013   ----------------------------------------
 BYTE   W04
 BYTE   W04
 BYTE   W04
 BYTE   W04
 BYTE   W04
 BYTE   W04
 BYTE   W04
 BYTE   W04
 BYTE   W04
 BYTE   W04
 BYTE   W04
 BYTE   W04
 BYTE   W04
 BYTE   W04
 BYTE   W04
 BYTE   W04
 BYTE   W04
 BYTE   W04
 BYTE   W04
 BYTE   W04
 BYTE   W04
 BYTE   W04
 BYTE   W04
 BYTE   W04
//  #03 //014   ----------------------------------------
 BYTE   W04
 BYTE   W04
 BYTE   W04
 BYTE   W04
 BYTE   W04
 BYTE   W04
 BYTE   W04
 BYTE   W04
 BYTE   W04
 BYTE   W04
 BYTE   W04
 BYTE   W04
 BYTE   W04
 BYTE   W04
 BYTE   W04
 BYTE   W04
 BYTE   W04
 BYTE   W04
 BYTE   W04
 BYTE   W04
 BYTE   W04
 BYTE   W04
 BYTE   W04
 BYTE   W04
//  #03 //015   ----------------------------------------
 BYTE   PATT
  POIN2 Label_015F3E96
//  #03 //016   ----------------------------------------
 BYTE   PATT
  POIN2 Label_015F3EA7
//  #03 //017   ----------------------------------------
 BYTE   W04
 BYTE   W04
 BYTE   W04
 BYTE   W04
 BYTE   W04
 BYTE   W04
 BYTE   W04
 BYTE   W04
 BYTE   W04
 BYTE   W04
 BYTE   W04
 BYTE   W04
 BYTE   W04
 BYTE   W04
 BYTE   W04
 BYTE   W04
 BYTE   W04
 BYTE   W04
 BYTE   W04
 BYTE   W04
 BYTE   W16
//  #03 //018   ----------------------------------------
 BYTE   W96
//  #03 //019   ----------------------------------------
 BYTE   W96
//  #03 //020   ----------------------------------------
 BYTE   W96
//  #03 //021   ----------------------------------------
 BYTE   W96
//  #03 //022   ----------------------------------------
 BYTE   W96
//  #03 //023   ----------------------------------------
 BYTE   W96
//  #03 //024   ----------------------------------------
 BYTE   W96
//  #03 //025   ----------------------------------------
 BYTE   W56
 BYTE   W04
 BYTE   W04
 BYTE   W04
 BYTE   W04
 BYTE   N03  As2  v092
 BYTE   W04
 BYTE   Cn3
 BYTE   W04
 BYTE   Dn3
 BYTE   W04
 BYTE   En3
 BYTE   W04
 BYTE   Fn3
 BYTE   W04
 BYTE   Gn3
 BYTE   W04
//  #03 //026   ----------------------------------------
 BYTE   N32  An3  v096
 BYTE   W04
 BYTE   W04
 BYTE   W04
 BYTE   W04
 BYTE   W04
 BYTE   W04
 BYTE   W04
 BYTE   W04
 BYTE   W04
 BYTE   Gn3
 BYTE   W04
 BYTE   W04
 BYTE   W04
 BYTE   W04
 BYTE   W04
 BYTE   W04
 BYTE   W04
 BYTE   W04
 BYTE   W04
 BYTE   En3
 BYTE   W04
 BYTE   W04
 BYTE   W04
 BYTE   W04
 BYTE   W04
 BYTE   W04
//  #03 //027   ----------------------------------------
 BYTE   W04
 BYTE   W04
 BYTE   W04
 BYTE   Fn3
 BYTE   W04
 BYTE   W04
 BYTE   W04
 BYTE   W04
 BYTE   W04
 BYTE   W04
 BYTE   W04
 BYTE   W04
 BYTE   W04
 BYTE   N44  En3
 BYTE   W04
 BYTE   W04
 BYTE   W04
 BYTE   W04
 BYTE   W04
 BYTE   W04
 BYTE   W04
 BYTE   W04
 BYTE   W04
 BYTE   W04
 BYTE   W04
 BYTE   W04
//  #03 //028   ----------------------------------------
 BYTE   N32  Ds3
 BYTE   W04
 BYTE   W04
 BYTE   W04
 BYTE   W04
 BYTE   W04
 BYTE   W04
 BYTE   W04
 BYTE   W04
 BYTE   W04
 BYTE   Dn3
 BYTE   W04
 BYTE   W04
 BYTE   W04
 BYTE   W04
 BYTE   W04
 BYTE   W04
 BYTE   W04
 BYTE   W04
 BYTE   W04
 BYTE   Cn3
 BYTE   W04
 BYTE   W04
 BYTE   W04
 BYTE   W04
 BYTE   W04
 BYTE   W04
//  #03 //029   ----------------------------------------
 BYTE   W04
 BYTE   W04
 BYTE   W04
 BYTE   N56
 BYTE   W04
 BYTE   W04
 BYTE   W04
 BYTE   W04
 BYTE   W04
 BYTE   W04
 BYTE   W04
 BYTE   W04
 BYTE   W04
 BYTE   W04
 BYTE   W04
 BYTE   W04
 BYTE   W04
 BYTE   W04
 BYTE   W04
 BYTE   N23  An2
 BYTE   W04
 BYTE   W04
 BYTE   W04
 BYTE   W04
 BYTE   W04
 BYTE   W04
//  #03 //030   ----------------------------------------
 BYTE   N32  Cn3
 BYTE   W04
 BYTE   W04
 BYTE   W04
 BYTE   W04
 BYTE   W04
 BYTE   W04
 BYTE   W04
 BYTE   W04
 BYTE   W04
 BYTE   N56  En3
 BYTE   W04
 BYTE   W04
 BYTE   W04
 BYTE   W04
 BYTE   W04
 BYTE   W04
 BYTE   W04
 BYTE   W04
 BYTE   W04
 BYTE   W04
 BYTE   W04
 BYTE   W04
 BYTE   W04
 BYTE   W04
 BYTE   W04
//  #03 //031   ----------------------------------------
 BYTE   N68  Dn3
 BYTE   W04
 BYTE   W04
 BYTE   W04
 BYTE   W04
 BYTE   W04
 BYTE   W04
 BYTE   W04
 BYTE   W04
 BYTE   W04
 BYTE   W04
 BYTE   W04
 BYTE   W04
 BYTE   W04
 BYTE   W04
 BYTE   W04
 BYTE   W04
 BYTE   W04
 BYTE   W04
 BYTE   N23  As2
 BYTE   W04
 BYTE   W04
 BYTE   W04
 BYTE   W04
 BYTE   W04
 BYTE   W04
//  #03 //032   ----------------------------------------
 BYTE   N32  Cn3
 BYTE   W04
 BYTE   W04
 BYTE   W04
 BYTE   W04
 BYTE   W04
 BYTE   W08
 BYTE   W04
 BYTE   W04
 BYTE   N56  Gn3
 BYTE   W04
 BYTE   W04
 BYTE   W04
 BYTE   W04
 BYTE   W04
 BYTE   W04
 BYTE   W04
 BYTE   W04
 BYTE   W04
 BYTE   W04
 BYTE   W04
 BYTE   W04
 BYTE   W04
 BYTE   W04
 BYTE   W04
//  #03 //033   ----------------------------------------
 BYTE   N44  En3
 BYTE   W04
 BYTE   W04
 BYTE   W04
 BYTE   W04
 BYTE   W04
 BYTE   W04
 BYTE   W04
 BYTE   W04
 BYTE   W04
 BYTE   W04
 BYTE   W04
 BYTE   W04
 BYTE   Fs3
 BYTE   W04
 BYTE   W04
 BYTE   W04
 BYTE   W04
 BYTE   W04
 BYTE   W04
 BYTE   W04
 BYTE   W04
 BYTE   W04
 BYTE   W04
 BYTE   W04
 BYTE   W04
//  #03 //034   ----------------------------------------
 BYTE   GoTo
  POIN2 Label_015F3DA2
 BYTE   FINE

//**************** Track 4 (Midi-Chn.3) ****************//

song34_004:
//  #04 //000   ----------------------------------------
 BYTE   KEYSH   song34_key+0
Label_015F45F6:
 BYTE   VOICE   41
 BYTE   VOL   50*song34_mvl/mxv
 BYTE   W96
//  #04 //001   ----------------------------------------
 BYTE   W96
//  #04 //002   ----------------------------------------
 BYTE   W96
//  #04 //003   ----------------------------------------
 BYTE   W96
//  #04 //004   ----------------------------------------
 BYTE   W96
//  #04 //005   ----------------------------------------
 BYTE   W96
//  #04 //006   ----------------------------------------
 BYTE   W96
//  #04 //007   ----------------------------------------
 BYTE   W96
//  #04 //008   ----------------------------------------
 BYTE   W96
//  #04 //009   ----------------------------------------
 BYTE   W96
//  #04 //010   ----------------------------------------
 BYTE   W96
//  #04 //011   ----------------------------------------
 BYTE   PAN   c_v+19
 BYTE   BEND   c_v+0
 BYTE   W96
//  #04 //012   ----------------------------------------
 BYTE   W96
//  #04 //013   ----------------------------------------
 BYTE   W96
//  #04 //014   ----------------------------------------
 BYTE   W96
//  #04 //015   ----------------------------------------
 BYTE   W96
//  #04 //016   ----------------------------------------
 BYTE   W96
//  #04 //017   ----------------------------------------
 BYTE   W96
//  #04 //018   ----------------------------------------
 BYTE   N05  Dn4  v052
 BYTE   W06
 BYTE   Dn4  v020
 BYTE   W06
 BYTE   Gn3  v052
 BYTE   W06
 BYTE   Gn3  v020
 BYTE   W06
 BYTE   Dn4  v052
 BYTE   W06
 BYTE   Dn4  v020
 BYTE   W06
 BYTE   Gn3  v052
 BYTE   W06
 BYTE   Gn3  v020
 BYTE   W06
 BYTE   Dn4  v052
 BYTE   W06
 BYTE   Dn4  v020
 BYTE   W06
 BYTE   Gn3  v052
 BYTE   W06
 BYTE   Gn3  v020
 BYTE   W06
 BYTE   Dn4  v052
 BYTE   W06
 BYTE   Dn4  v020
 BYTE   W06
 BYTE   Gn3  v052
 BYTE   W06
 BYTE   Gn3  v020
 BYTE   W06
//  #04 //019   ----------------------------------------
Label_015F4641:
 BYTE   N05  Dn4  v052
 BYTE   W06
 BYTE   Dn4  v020
 BYTE   W06
 BYTE   Gn3  v052
 BYTE   W06
 BYTE   Gn3  v020
 BYTE   W06
 BYTE   Dn4  v052
 BYTE   W06
 BYTE   Dn4  v020
 BYTE   W06
 BYTE   Gn3  v052
 BYTE   W06
 BYTE   Gn3  v020
 BYTE   W06
 BYTE   Dn4  v052
 BYTE   W06
 BYTE   Dn4  v020
 BYTE   W06
 BYTE   Gn3  v052
 BYTE   W06
 BYTE   Gn3  v020
 BYTE   W06
 BYTE   Dn4  v052
 BYTE   W06
 BYTE   Dn4  v020
 BYTE   W06
 BYTE   Gn3  v052
 BYTE   W06
 BYTE   Gn3  v020
 BYTE   W06
 BYTE   PEND 
//  #04 //020   ----------------------------------------
 BYTE   PATT
  POIN2 Label_015F4641
//  #04 //021   ----------------------------------------
 BYTE   PATT
  POIN2 Label_015F4641
//  #04 //022   ----------------------------------------
 BYTE   PATT
  POIN2 Label_015F4641
//  #04 //023   ----------------------------------------
 BYTE   PATT
  POIN2 Label_015F4641
//  #04 //024   ----------------------------------------
 BYTE   PATT
  POIN2 Label_015F4641
//  #04 //025   ----------------------------------------
 BYTE   N05  Dn4  v052
 BYTE   W06
 BYTE   Dn4  v020
 BYTE   W06
 BYTE   Gn3  v052
 BYTE   W06
 BYTE   Gn3  v020
 BYTE   W06
 BYTE   Dn4  v052
 BYTE   W06
 BYTE   Dn4  v020
 BYTE   W06
 BYTE   Gn3  v052
 BYTE   W06
 BYTE   Gn3  v020
 BYTE   W06
 BYTE   Dn4  v052
 BYTE   W06
 BYTE   Dn4  v020
 BYTE   W06
 BYTE   Gn3  v052
 BYTE   W06
 BYTE   Gn3  v020
 BYTE   W30
//  #04 //026   ----------------------------------------
 BYTE   W96
//  #04 //027   ----------------------------------------
 BYTE   W96
//  #04 //028   ----------------------------------------
 BYTE   W96
//  #04 //029   ----------------------------------------
 BYTE   W96
//  #04 //030   ----------------------------------------
 BYTE   W96
//  #04 //031   ----------------------------------------
 BYTE   W96
//  #04 //032   ----------------------------------------
 BYTE   W96
//  #04 //033   ----------------------------------------
 BYTE   W96
//  #04 //034   ----------------------------------------
 BYTE   GoTo
  POIN2 Label_015F45F6
 BYTE   FINE

//**************** Track 5 (Midi-Chn.4) ****************//

song34_005:
//  #05 //000   ----------------------------------------
 BYTE   KEYSH   song34_key+0
Label_015F429E:
 BYTE   VOICE   61
 BYTE   VOL   34*song34_mvl/mxv
 BYTE   PAN   c_v-30
 BYTE   BEND   c_v+0
 BYTE   W96
//  #05 //001   ----------------------------------------
 BYTE   W96
//  #05 //002   ----------------------------------------
 BYTE   W96
//  #05 //003   ----------------------------------------
 BYTE   W96
//  #05 //004   ----------------------------------------
 BYTE   W96
//  #05 //005   ----------------------------------------
 BYTE   W96
//  #05 //006   ----------------------------------------
 BYTE   W96
//  #05 //007   ----------------------------------------
 BYTE   W96
//  #05 //008   ----------------------------------------
 BYTE   W96
//  #05 //009   ----------------------------------------
 BYTE   W48
 BYTE   W12
 BYTE   W04
 BYTE   W04
 BYTE   W08
 BYTE   W04
 BYTE   W04
 BYTE   N03  An2  v080
 BYTE   W04
 BYTE   As2
 BYTE   W04
 BYTE   Bn2
 BYTE   W04
//  #05 //010   ----------------------------------------
 BYTE   N32  Fn2
 BYTE   N32  Cn3
 BYTE   W04
 BYTE   W04
 BYTE   W04
 BYTE   W04
 BYTE   W04
 BYTE   W04
 BYTE   W04
 BYTE   W04
 BYTE   W04
 BYTE   N11  Gn2
 BYTE   N11  Dn3
 BYTE   W04
 BYTE   W04
 BYTE   W04
 BYTE   W04
 BYTE   W04
 BYTE   W04
 BYTE   W04
 BYTE   W04
 BYTE   W04
 BYTE   W04
 BYTE   W04
 BYTE   W04
 BYTE   W04
 BYTE   W04
 BYTE   W04
//  #05 //011   ----------------------------------------
Label_015F42DE:
 BYTE   W04
 BYTE   W04
 BYTE   W04
 BYTE   W04
 BYTE   W04
 BYTE   W04
 BYTE   N44  Fn2  v080
 BYTE   N44  Cn3
 BYTE   W04
 BYTE   W04
 BYTE   W04
 BYTE   W04
 BYTE   W04
 BYTE   W04
 BYTE   W04
 BYTE   W20
 BYTE   N11  Gn2
 BYTE   N11  Dn3
 BYTE   W04
 BYTE   W12
 BYTE   W08
 BYTE   PEND 
//  #05 //012   ----------------------------------------
 BYTE   W04
 BYTE   W04
 BYTE   W08
 BYTE   W04
 BYTE   W04
 BYTE   TIE  En2
 BYTE   TIE  Bn2
 BYTE   W04
 BYTE   W04
 BYTE   W04
 BYTE   W04
 BYTE   W04
 BYTE   W04
 BYTE   W04
 BYTE   W04
 BYTE   W04
 BYTE   W04
 BYTE   W04
 BYTE   W04
 BYTE   W04
 BYTE   W04
 BYTE   W04
 BYTE   W04
 BYTE   W04
 BYTE   W04
//  #05 //013   ----------------------------------------
 BYTE   W04
 BYTE   W04
 BYTE   W04
 BYTE   W04
 BYTE   W04
 BYTE   W04
 BYTE   W04
 BYTE   W04
 BYTE   W04
 BYTE   W04
 BYTE   W04
 BYTE   W03
 BYTE   EOT
 BYTE   En2  v059
 BYTE   W01
 BYTE   W04
 BYTE   W04
 BYTE   W04
 BYTE   W04
 BYTE   W04
 BYTE   W04
 BYTE   W04
 BYTE   W04
 BYTE   W04
 BYTE   N03  An2
 BYTE   W04
 BYTE   As2
 BYTE   W04
 BYTE   Bn2
 BYTE   W04
//  #05 //014   ----------------------------------------
 BYTE   N32  Fn2
 BYTE   N32  Cn3
 BYTE   W04
 BYTE   W04
 BYTE   W04
 BYTE   W04
 BYTE   W04
 BYTE   W04
 BYTE   W04
 BYTE   W04
 BYTE   W04
 BYTE   N11  Gn2
 BYTE   N11  Dn3
 BYTE   W04
 BYTE   W04
 BYTE   W04
 BYTE   W04
 BYTE   W04
 BYTE   W04
 BYTE   W04
 BYTE   W04
 BYTE   W04
 BYTE   W04
 BYTE   W04
 BYTE   W04
 BYTE   W04
 BYTE   W04
 BYTE   W04
//  #05 //015   ----------------------------------------
 BYTE   PATT
  POIN2 Label_015F42DE
//  #05 //016   ----------------------------------------
 BYTE   W04
 BYTE   W04
 BYTE   W08
 BYTE   W04
 BYTE   W04
 BYTE   TIE  An2  v080
 BYTE   TIE  En3
 BYTE   W04
 BYTE   W04
 BYTE   W04
 BYTE   W04
 BYTE   W04
 BYTE   W04
 BYTE   W04
 BYTE   W04
 BYTE   W04
 BYTE   W04
 BYTE   W04
 BYTE   W04
 BYTE   W04
 BYTE   W04
 BYTE   W04
 BYTE   W04
 BYTE   W04
 BYTE   W04
//  #05 //017   ----------------------------------------
 BYTE   W04
 BYTE   W04
 BYTE   W04
 BYTE   W04
 BYTE   W04
 BYTE   W04
 BYTE   W04
 BYTE   W04
 BYTE   W04
 BYTE   W04
 BYTE   W04
 BYTE   W03
 BYTE   EOT
 BYTE   An2  v064
 BYTE   W01
 BYTE   W04
 BYTE   W04
 BYTE   W12
 BYTE   W04
 BYTE   W12
 BYTE   N03  Dn3  v088
 BYTE   W04
 BYTE   Ds3
 BYTE   W04
 BYTE   En3
 BYTE   W04
//  #05 //018   ----------------------------------------
 BYTE   N32  An2
 BYTE   N32  Fn3  v100
 BYTE   W04
 BYTE   W04
 BYTE   W04
 BYTE   W04
 BYTE   W04
 BYTE   W04
 BYTE   W04
 BYTE   W04
 BYTE   W04
 BYTE   Gn2  v088
 BYTE   N32  En3  v100
 BYTE   W04
 BYTE   W04
 BYTE   W04
 BYTE   W04
 BYTE   W04
 BYTE   W04
 BYTE   W04
 BYTE   W04
 BYTE   W04
 BYTE   En2  v088
 BYTE   N32  Cn3  v100
 BYTE   W04
 BYTE   W04
 BYTE   W04
 BYTE   W04
 BYTE   W04
 BYTE   W04
//  #05 //019   ----------------------------------------
 BYTE   W04
 BYTE   W04
 BYTE   W04
 BYTE   Fn2  v088
 BYTE   N56  Dn3  v100
 BYTE   W08
 BYTE   W04
 BYTE   W04
 BYTE   W04
 BYTE   W04
 BYTE   W04
 BYTE   W04
 BYTE   W04
 BYTE   N44  En2  v088
 BYTE   W04
 BYTE   W04
 BYTE   W04
 BYTE   W04
 BYTE   W04
 BYTE   W04
 BYTE   N23  Cn3  v100
 BYTE   W04
 BYTE   W04
 BYTE   W04
 BYTE   W04
 BYTE   W04
 BYTE   W04
//  #05 //020   ----------------------------------------
 BYTE   N32  Ds2  v088
 BYTE   N32  Cn3  v100
 BYTE   W04
 BYTE   W04
 BYTE   W04
 BYTE   W04
 BYTE   W04
 BYTE   W04
 BYTE   W04
 BYTE   W04
 BYTE   W04
 BYTE   Dn2  v088
 BYTE   N32  As2  v100
 BYTE   W04
 BYTE   W04
 BYTE   W04
 BYTE   W04
 BYTE   W04
 BYTE   W04
 BYTE   W04
 BYTE   W04
 BYTE   W04
 BYTE   Cn2  v088
 BYTE   N32  An2  v100
 BYTE   W04
 BYTE   W04
 BYTE   W04
 BYTE   W04
 BYTE   W04
 BYTE   W04
//  #05 //021   ----------------------------------------
 BYTE   W04
 BYTE   W04
 BYTE   W04
 BYTE   Cn2  v088
 BYTE   N56  Gn2  v100
 BYTE   W04
 BYTE   W04
 BYTE   W04
 BYTE   W04
 BYTE   W04
 BYTE   W04
 BYTE   W04
 BYTE   W04
 BYTE   W04
 BYTE   N23  An1
 BYTE   W04
 BYTE   W04
 BYTE   W04
 BYTE   W04
 BYTE   W04
 BYTE   W04
 BYTE   N17  As1
 BYTE   W04
 BYTE   W04
 BYTE   W04
 BYTE   W04
 BYTE   W04
 BYTE   W04
//  #05 //022   ----------------------------------------
 BYTE   N32  An2  v084
 BYTE   N32  Fn3  v100
 BYTE   W04
 BYTE   W04
 BYTE   W04
 BYTE   W04
 BYTE   W04
 BYTE   W04
 BYTE   W04
 BYTE   W08
 BYTE   Gn2  v084
 BYTE   N32  En3  v100
 BYTE   W04
 BYTE   W04
 BYTE   W04
 BYTE   W04
 BYTE   W04
 BYTE   W04
 BYTE   W04
 BYTE   W04
 BYTE   W04
 BYTE   En2  v084
 BYTE   N32  Cn3  v100
 BYTE   W20
 BYTE   W04
//  #05 //023   ----------------------------------------
 BYTE   W08
 BYTE   W04
 BYTE   Fn2  v084
 BYTE   N44  Dn3  v100
 BYTE   W08
 BYTE   W12
 BYTE   W04
 BYTE   W04
 BYTE   W04
 BYTE   W04
 BYTE   N11  En2  v084
 BYTE   W04
 BYTE   W04
 BYTE   W04
 BYTE   N03  Fs2  v100
 BYTE   N03  Ds3
 BYTE   W04
 BYTE   Gn2
 BYTE   N03  En3
 BYTE   W04
 BYTE   Gs2
 BYTE   N03  Fn3
 BYTE   W04
 BYTE   N23  An2
 BYTE   N23  Gn3
 BYTE   W04
 BYTE   W04
 BYTE   W04
 BYTE   W04
 BYTE   W04
 BYTE   W04
//  #05 //024   ----------------------------------------
 BYTE   N32  As2  v084
 BYTE   N32  Gn3  v100
 BYTE   W04
 BYTE   W04
 BYTE   W04
 BYTE   W04
 BYTE   W04
 BYTE   W04
 BYTE   W04
 BYTE   W04
 BYTE   W04
 BYTE   An2  v084
 BYTE   N32  Fn3  v100
 BYTE   W04
 BYTE   W04
 BYTE   W04
 BYTE   W04
 BYTE   W04
 BYTE   W04
 BYTE   W04
 BYTE   W04
 BYTE   W04
 BYTE   Gn2  v084
 BYTE   N32  En3  v100
 BYTE   W04
 BYTE   W20
//  #05 //025   ----------------------------------------
 BYTE   W04
 BYTE   W04
 BYTE   W04
 BYTE   Gn2  v084
 BYTE   N80  Dn3  v100
 BYTE   W04
 BYTE   W04
 BYTE   W04
 BYTE   W04
 BYTE   W04
 BYTE   W04
 BYTE   W04
 BYTE   W04
 BYTE   W04
 BYTE   N23  En2
 BYTE   W04
 BYTE   W04
 BYTE   W04
 BYTE   W04
 BYTE   W04
 BYTE   W04
 BYTE   Fn2
 BYTE   W04
 BYTE   W04
 BYTE   W04
 BYTE   W04
 BYTE   W04
 BYTE   W04
//  #05 //026   ----------------------------------------
 BYTE   W04
 BYTE   W04
 BYTE   W04
 BYTE   W04
 BYTE   W04
 BYTE   W04
 BYTE   N68  As1  v104
 BYTE   N68  Fn2
 BYTE   W04
 BYTE   W04
 BYTE   W04
 BYTE   W04
 BYTE   W04
 BYTE   W04
 BYTE   W04
 BYTE   W04
 BYTE   W04
 BYTE   W04
 BYTE   W04
 BYTE   W04
 BYTE   W04
 BYTE   W04
 BYTE   W04
 BYTE   W04
 BYTE   W04
 BYTE   W04
//  #05 //027   ----------------------------------------
 BYTE   N92  As1
 BYTE   N92  Fn2
 BYTE   W04
 BYTE   W04
 BYTE   W04
 BYTE   W04
 BYTE   W04
 BYTE   W04
 BYTE   W04
 BYTE   W04
 BYTE   W04
 BYTE   W04
 BYTE   W04
 BYTE   W04
 BYTE   W04
 BYTE   W04
 BYTE   W04
 BYTE   W04
 BYTE   W04
 BYTE   W04
 BYTE   W04
 BYTE   W04
 BYTE   W04
 BYTE   W04
 BYTE   W04
 BYTE   W04
//  #05 //028   ----------------------------------------
 BYTE   As1
 BYTE   N92  Fn2
 BYTE   W04
 BYTE   W04
 BYTE   W04
 BYTE   W04
 BYTE   W04
 BYTE   W04
 BYTE   W04
 BYTE   W04
 BYTE   W04
 BYTE   W04
 BYTE   W04
 BYTE   W04
 BYTE   W04
 BYTE   W12
 BYTE   W08
 BYTE   W04
 BYTE   W04
 BYTE   W04
 BYTE   W04
 BYTE   W04
 BYTE   W04
//  #05 //029   ----------------------------------------
 BYTE   Dn2
 BYTE   N92  As2
 BYTE   W04
 BYTE   W04
 BYTE   W04
 BYTE   W04
 BYTE   W04
 BYTE   W04
 BYTE   W04
 BYTE   W04
 BYTE   W04
 BYTE   W04
 BYTE   W04
 BYTE   W04
 BYTE   W04
 BYTE   W04
 BYTE   W04
 BYTE   W04
 BYTE   W04
 BYTE   W04
 BYTE   W08
 BYTE   W04
 BYTE   W04
 BYTE   W04
 BYTE   W04
//  #05 //030   ----------------------------------------
 BYTE   En2
 BYTE   N92  Cn3
 BYTE   W04
 BYTE   W04
 BYTE   W04
 BYTE   W04
 BYTE   W04
 BYTE   W04
 BYTE   W04
 BYTE   W04
 BYTE   W04
 BYTE   W04
 BYTE   W04
 BYTE   W04
 BYTE   W04
 BYTE   W04
 BYTE   W04
 BYTE   W04
 BYTE   W04
 BYTE   W04
 BYTE   W04
 BYTE   W08
 BYTE   W04
 BYTE   W04
 BYTE   W04
//  #05 //031   ----------------------------------------
 BYTE   Cn2
 BYTE   N92  Gn2
 BYTE   W04
 BYTE   W04
 BYTE   W04
 BYTE   W04
 BYTE   W04
 BYTE   W04
 BYTE   W04
 BYTE   W04
 BYTE   W04
 BYTE   W04
 BYTE   W04
 BYTE   W04
 BYTE   W04
 BYTE   W04
 BYTE   W04
 BYTE   W04
 BYTE   W04
 BYTE   W04
 BYTE   W04
 BYTE   W04
 BYTE   W04
 BYTE   W04
 BYTE   W04
 BYTE   W04
//  #05 //032   ----------------------------------------
 BYTE   Dn2
 BYTE   N92  An2
 BYTE   W04
 BYTE   W04
 BYTE   W04
 BYTE   W04
 BYTE   W04
 BYTE   W04
 BYTE   W04
 BYTE   W04
 BYTE   W04
 BYTE   W04
 BYTE   W04
 BYTE   W04
 BYTE   W04
 BYTE   W04
 BYTE   W04
 BYTE   W04
 BYTE   W04
 BYTE   W04
 BYTE   W04
 BYTE   W04
 BYTE   W04
 BYTE   W04
 BYTE   W04
 BYTE   W04
//  #05 //033   ----------------------------------------
 BYTE   Fs2
 BYTE   N92  Dn3
 BYTE   W04
 BYTE   W04
 BYTE   W04
 BYTE   W04
 BYTE   W04
 BYTE   W04
 BYTE   W04
 BYTE   W04
 BYTE   W04
 BYTE   W04
 BYTE   W04
 BYTE   W04
 BYTE   W04
 BYTE   W04
 BYTE   W04
 BYTE   W04
 BYTE   W04
 BYTE   W04
 BYTE   W04
 BYTE   W04
 BYTE   W04
 BYTE   W04
 BYTE   W04
 BYTE   W04
//  #05 //034   ----------------------------------------
 BYTE   GoTo
  POIN2 Label_015F429E
 BYTE   FINE

//**************** Track 6 (Midi-Chn.5) ****************//

song34_006:
//  #06 //000   ----------------------------------------
 BYTE   KEYSH   song34_key+0
Label_015F46CE:
 BYTE   VOICE   86
 BYTE   VOL   32*song34_mvl/mxv
 BYTE   PAN   c_v+3
 BYTE   BEND   c_v+0
 BYTE   W96
//  #06 //001   ----------------------------------------
 BYTE   W96
//  #06 //002   ----------------------------------------
 BYTE   W96
//  #06 //003   ----------------------------------------
 BYTE   W96
//  #06 //004   ----------------------------------------
 BYTE   W96
//  #06 //005   ----------------------------------------
 BYTE   W96
//  #06 //006   ----------------------------------------
 BYTE   W96
//  #06 //007   ----------------------------------------
 BYTE   W96
//  #06 //008   ----------------------------------------
 BYTE   W96
//  #06 //009   ----------------------------------------
 BYTE   W48
 BYTE   W12
 BYTE   W04
 BYTE   W04
 BYTE   W08
 BYTE   W04
 BYTE   W04
 BYTE   W04
 BYTE   W04
 BYTE   W04
//  #06 //010   ----------------------------------------
 BYTE   N32  As2  v064
 BYTE   W04
 BYTE   W04
 BYTE   W04
 BYTE   W04
 BYTE   W04
 BYTE   W04
 BYTE   W04
 BYTE   W04
 BYTE   W04
 BYTE   N11  Cn3
 BYTE   W04
 BYTE   W04
 BYTE   W04
 BYTE   W04
 BYTE   W04
 BYTE   W04
 BYTE   W04
 BYTE   W04
 BYTE   W04
 BYTE   W04
 BYTE   W04
 BYTE   W04
 BYTE   W04
 BYTE   W04
 BYTE   W04
//  #06 //011   ----------------------------------------
 BYTE   W04
 BYTE   W04
 BYTE   W04
 BYTE   W04
 BYTE   W04
 BYTE   W04
 BYTE   N44  As2
 BYTE   W04
 BYTE   W04
 BYTE   W04
 BYTE   W04
 BYTE   W04
 BYTE   W04
 BYTE   W04
 BYTE   W20
 BYTE   N11  Cn3
 BYTE   W04
 BYTE   W12
 BYTE   W08
//  #06 //012   ----------------------------------------
 BYTE   W04
 BYTE   W04
 BYTE   W08
 BYTE   W04
 BYTE   W04
 BYTE   TIE  An2
 BYTE   W04
 BYTE   W04
 BYTE   W04
 BYTE   W04
 BYTE   W04
 BYTE   W04
 BYTE   W04
 BYTE   W04
 BYTE   W04
 BYTE   W04
 BYTE   W04
 BYTE   W04
 BYTE   W04
 BYTE   W04
 BYTE   W04
 BYTE   W04
 BYTE   W04
 BYTE   W04
//  #06 //013   ----------------------------------------
 BYTE   W04
 BYTE   W04
 BYTE   W04
 BYTE   W04
 BYTE   W04
 BYTE   W04
 BYTE   W04
 BYTE   W04
 BYTE   W04
 BYTE   W04
 BYTE   W04
 BYTE   W04
 BYTE   W04
 BYTE   W04
 BYTE   W04
 BYTE   W04
 BYTE   W04
 BYTE   W03
 BYTE   EOT
 BYTE   W01
 BYTE   W04
 BYTE   W04
 BYTE   W04
 BYTE   W04
 BYTE   W04
 BYTE   W04
//  #06 //014   ----------------------------------------
 BYTE   N32  As2
 BYTE   W04
 BYTE   W04
 BYTE   W04
 BYTE   W04
 BYTE   W04
 BYTE   W04
 BYTE   W04
 BYTE   W04
 BYTE   W04
 BYTE   N11  Cn3
 BYTE   W04
 BYTE   W04
 BYTE   W04
 BYTE   W04
 BYTE   W04
 BYTE   W04
 BYTE   W04
 BYTE   W04
 BYTE   W04
 BYTE   W04
 BYTE   W04
 BYTE   W04
 BYTE   W04
 BYTE   W04
 BYTE   W04
//  #06 //015   ----------------------------------------
 BYTE   W04
 BYTE   W04
 BYTE   W04
 BYTE   W04
 BYTE   W04
 BYTE   W04
 BYTE   N44  As2
 BYTE   W04
 BYTE   W04
 BYTE   W04
 BYTE   W04
 BYTE   W04
 BYTE   W04
 BYTE   W04
 BYTE   W20
 BYTE   N11  Cn3
 BYTE   W04
 BYTE   W12
 BYTE   W08
//  #06 //016   ----------------------------------------
 BYTE   W04
 BYTE   W04
 BYTE   W08
 BYTE   W04
 BYTE   W04
 BYTE   TIE  Dn3
 BYTE   W04
 BYTE   W04
 BYTE   W04
 BYTE   W04
 BYTE   W04
 BYTE   W04
 BYTE   W04
 BYTE   W04
 BYTE   W04
 BYTE   W04
 BYTE   W04
 BYTE   W04
 BYTE   W08
 BYTE   W04
 BYTE   W04
 BYTE   W04
 BYTE   W04
//  #06 //017   ----------------------------------------
 BYTE   W04
 BYTE   W04
 BYTE   W04
 BYTE   W04
 BYTE   W04
 BYTE   W04
 BYTE   W04
 BYTE   W04
 BYTE   W04
 BYTE   W04
 BYTE   W04
 BYTE   W04
 BYTE   W04
 BYTE   W04
 BYTE   W04
 BYTE   W04
 BYTE   W04
 BYTE   W03
 BYTE   EOT
 BYTE   W01
 BYTE   W04
 BYTE   W04
 BYTE   W04
 BYTE   W04
 BYTE   W04
 BYTE   W04
//  #06 //018   ----------------------------------------
 BYTE   N32  Cn3  v084
 BYTE   W04
 BYTE   W04
 BYTE   W04
 BYTE   W04
 BYTE   W04
 BYTE   W04
 BYTE   W04
 BYTE   W04
 BYTE   W04
 BYTE   N32
 BYTE   W04
 BYTE   W04
 BYTE   W04
 BYTE   W04
 BYTE   W04
 BYTE   W04
 BYTE   W04
 BYTE   W04
 BYTE   W04
 BYTE   Gn2
 BYTE   W04
 BYTE   W04
 BYTE   W04
 BYTE   W04
 BYTE   W04
 BYTE   W04
//  #06 //019   ----------------------------------------
 BYTE   W04
 BYTE   W04
 BYTE   W04
 BYTE   As2
 BYTE   W12
 BYTE   W08
 BYTE   W04
 BYTE   W08
 BYTE   W04
 BYTE   N44  An2
 BYTE   W08
 BYTE   W04
 BYTE   W08
 BYTE   W04
 BYTE   W08
 BYTE   W04
 BYTE   W08
 BYTE   W04
//  #06 //020   ----------------------------------------
 BYTE   N32  Gs2
 BYTE   W04
 BYTE   W04
 BYTE   W04
 BYTE   W04
 BYTE   W04
 BYTE   W04
 BYTE   W04
 BYTE   W04
 BYTE   W04
 BYTE   Gn2
 BYTE   W08
 BYTE   W04
 BYTE   W04
 BYTE   W04
 BYTE   W04
 BYTE   W04
 BYTE   W04
 BYTE   W04
 BYTE   Fn2
 BYTE   W04
 BYTE   W04
 BYTE   W04
 BYTE   W04
 BYTE   W04
 BYTE   W04
//  #06 //021   ----------------------------------------
 BYTE   W04
 BYTE   W04
 BYTE   W04
 BYTE   N80  Dn2
 BYTE   W04
 BYTE   W04
 BYTE   W04
 BYTE   W04
 BYTE   W04
 BYTE   W04
 BYTE   W04
 BYTE   W04
 BYTE   W04
 BYTE   W04
 BYTE   W04
 BYTE   W04
 BYTE   W04
 BYTE   W04
 BYTE   W04
 BYTE   W04
 BYTE   W04
 BYTE   W04
 BYTE   W04
 BYTE   W04
 BYTE   W04
//  #06 //022   ----------------------------------------
 BYTE   N32  Cn3
 BYTE   W04
 BYTE   W04
 BYTE   W04
 BYTE   W04
 BYTE   W04
 BYTE   W16
 BYTE   N32
 BYTE   W04
 BYTE   W04
 BYTE   W04
 BYTE   W04
 BYTE   W04
 BYTE   W04
 BYTE   W04
 BYTE   W04
 BYTE   W04
 BYTE   Gn2
 BYTE   W08
 BYTE   W04
 BYTE   W08
 BYTE   W04
//  #06 //023   ----------------------------------------
 BYTE   W08
 BYTE   W04
 BYTE   As2
 BYTE   W08
 BYTE   W04
 BYTE   W08
 BYTE   W04
 BYTE   W08
 BYTE   W04
 BYTE   N23  An2
 BYTE   W08
 BYTE   W04
 BYTE   W04
 BYTE   W04
 BYTE   W04
 BYTE   Dn3
 BYTE   W04
 BYTE   W04
 BYTE   W04
 BYTE   W04
 BYTE   W04
 BYTE   W04
//  #06 //024   ----------------------------------------
 BYTE   N32  Ds3
 BYTE   W04
 BYTE   W04
 BYTE   W04
 BYTE   W04
 BYTE   W04
 BYTE   W04
 BYTE   W04
 BYTE   W04
 BYTE   W04
 BYTE   Dn3
 BYTE   W04
 BYTE   W04
 BYTE   W04
 BYTE   W04
 BYTE   W04
 BYTE   W04
 BYTE   W04
 BYTE   W04
 BYTE   W04
 BYTE   Cn3
 BYTE   W04
 BYTE   W20
//  #06 //025   ----------------------------------------
 BYTE   W04
 BYTE   W08
 BYTE   N56  An2
 BYTE   W04
 BYTE   W04
 BYTE   W04
 BYTE   W04
 BYTE   W04
 BYTE   W04
 BYTE   W04
 BYTE   W04
 BYTE   W04
 BYTE   W04
 BYTE   W04
 BYTE   W04
 BYTE   W04
 BYTE   W04
 BYTE   W04
 BYTE   W04
 BYTE   W04
 BYTE   W04
 BYTE   W04
 BYTE   W04
 BYTE   W04
//  #06 //026   ----------------------------------------
 BYTE   W96
//  #06 //027   ----------------------------------------
 BYTE   W96
//  #06 //028   ----------------------------------------
 BYTE   W96
//  #06 //029   ----------------------------------------
 BYTE   W96
//  #06 //030   ----------------------------------------
 BYTE   W96
//  #06 //031   ----------------------------------------
 BYTE   W96
//  #06 //032   ----------------------------------------
 BYTE   W96
//  #06 //033   ----------------------------------------
 BYTE   W96
//  #06 //034   ----------------------------------------
 BYTE   GoTo
  POIN2 Label_015F46CE
 BYTE   FINE

//**************** Track 7 (Midi-Chn.6) ****************//

song34_007:
//  #07 //000   ----------------------------------------
 BYTE   KEYSH   song34_key+0
Label_015F39A2:
 BYTE   VOICE   40
 BYTE   VOL   50*song34_mvl/mxv
 BYTE   PAN   c_v-8
 BYTE   BEND   c_v+0
 BYTE   W96
//  #07 //001   ----------------------------------------
 BYTE   W96
//  #07 //002   ----------------------------------------
 BYTE   W96
//  #07 //003   ----------------------------------------
Label_015F39AD:
 BYTE   W90
 BYTE   N02  Dn3  v100
 BYTE   W03
 BYTE   Ds3
 BYTE   W03
 BYTE   PEND 
//  #07 //004   ----------------------------------------
Label_015F39B5:
 BYTE   N05  En3  v100
 BYTE   W06
 BYTE   An3
 BYTE   W06
 BYTE   Bn3
 BYTE   W06
 BYTE   En4
 BYTE   W06
 BYTE   En4  v088
 BYTE   W06
 BYTE   En4  v068
 BYTE   W06
 BYTE   Bn3  v100
 BYTE   W06
 BYTE   An3
 BYTE   W06
 BYTE   Bn3
 BYTE   W06
 BYTE   En4
 BYTE   W06
 BYTE   Bn3
 BYTE   W06
 BYTE   An3
 BYTE   W06
 BYTE   En3
 BYTE   W06
 BYTE   Bn2
 BYTE   W06
 BYTE   An2
 BYTE   W06
 BYTE   Bn2
 BYTE   W06
 BYTE   PEND 
//  #07 //005   ----------------------------------------
 BYTE   PATT
  POIN2 Label_015F39B5
//  #07 //006   ----------------------------------------
 BYTE   W96
//  #07 //007   ----------------------------------------
 BYTE   PATT
  POIN2 Label_015F39AD
//  #07 //008   ----------------------------------------
 BYTE   PATT
  POIN2 Label_015F39B5
//  #07 //009   ----------------------------------------
 BYTE   PATT
  POIN2 Label_015F39B5
//  #07 //010   ----------------------------------------
 BYTE   W96
//  #07 //011   ----------------------------------------
 BYTE   PATT
  POIN2 Label_015F39AD
//  #07 //012   ----------------------------------------
Label_015F39F6:
 BYTE   N05  En3  v120
 BYTE   W06
 BYTE   An3
 BYTE   W06
 BYTE   Bn3
 BYTE   W06
 BYTE   En4
 BYTE   W06
 BYTE   En4  v104
 BYTE   W06
 BYTE   En4  v084
 BYTE   W06
 BYTE   Bn3  v120
 BYTE   W06
 BYTE   An3
 BYTE   W06
 BYTE   Bn3
 BYTE   W06
 BYTE   En4
 BYTE   W06
 BYTE   Bn3
 BYTE   W06
 BYTE   An3
 BYTE   W06
 BYTE   En3
 BYTE   W06
 BYTE   Bn2
 BYTE   W06
 BYTE   An2
 BYTE   W06
 BYTE   Bn2
 BYTE   W06
 BYTE   PEND 
//  #07 //013   ----------------------------------------
 BYTE   PATT
  POIN2 Label_015F39F6
//  #07 //014   ----------------------------------------
 BYTE   W96
//  #07 //015   ----------------------------------------
 BYTE   PATT
  POIN2 Label_015F39AD
//  #07 //016   ----------------------------------------
 BYTE   PATT
  POIN2 Label_015F39F6
//  #07 //017   ----------------------------------------
 BYTE   PATT
  POIN2 Label_015F39F6
//  #07 //018   ----------------------------------------
 BYTE   W96
//  #07 //019   ----------------------------------------
 BYTE   W96
//  #07 //020   ----------------------------------------
 BYTE   W96
//  #07 //021   ----------------------------------------
 BYTE   W96
//  #07 //022   ----------------------------------------
 BYTE   W96
//  #07 //023   ----------------------------------------
 BYTE   W96
//  #07 //024   ----------------------------------------
 BYTE   W96
//  #07 //025   ----------------------------------------
 BYTE   W96
//  #07 //026   ----------------------------------------
 BYTE   W96
//  #07 //027   ----------------------------------------
 BYTE   W96
//  #07 //028   ----------------------------------------
 BYTE   W96
//  #07 //029   ----------------------------------------
 BYTE   W96
//  #07 //030   ----------------------------------------
 BYTE   W96
//  #07 //031   ----------------------------------------
 BYTE   W96
//  #07 //032   ----------------------------------------
 BYTE   W96
//  #07 //033   ----------------------------------------
 BYTE   W96
//  #07 //034   ----------------------------------------
 BYTE   GoTo
  POIN2 Label_015F39A2
 BYTE   FINE

//**************** Track 8 (Midi-Chn.7) ****************//

song34_008:
//  #08 //000   ----------------------------------------
 BYTE   KEYSH   song34_key+0
Label_015F488A:
 BYTE   VOICE   46
 BYTE   VOL   39*song34_mvl/mxv
 BYTE   PAN   c_v-14
 BYTE   BEND   c_v+0
 BYTE   W96
//  #08 //001   ----------------------------------------
 BYTE   W96
//  #08 //002   ----------------------------------------
 BYTE   W96
//  #08 //003   ----------------------------------------
 BYTE   W96
//  #08 //004   ----------------------------------------
 BYTE   W96
//  #08 //005   ----------------------------------------
 BYTE   W96
//  #08 //006   ----------------------------------------
 BYTE   W96
//  #08 //007   ----------------------------------------
 BYTE   W96
//  #08 //008   ----------------------------------------
 BYTE   W96
//  #08 //009   ----------------------------------------
 BYTE   W96
//  #08 //010   ----------------------------------------
Label_015F489C:
 BYTE   N05  Fn3  v068
 BYTE   W06
 BYTE   As3
 BYTE   W06
 BYTE   Cn4
 BYTE   W06
 BYTE   N15  Fn4
 BYTE   W18
 BYTE   N05  Cn4
 BYTE   W06
 BYTE   As3
 BYTE   W06
 BYTE   Cn4
 BYTE   W06
 BYTE   Fn4
 BYTE   W06
 BYTE   Cn4
 BYTE   W06
 BYTE   As3
 BYTE   W06
 BYTE   Fn3
 BYTE   W06
 BYTE   Cn3
 BYTE   W06
 BYTE   As2
 BYTE   W06
 BYTE   Cn3
 BYTE   W06
 BYTE   PEND 
//  #08 //011   ----------------------------------------
Label_015F48BD:
 BYTE   N05  Fn3  v068
 BYTE   W06
 BYTE   As3
 BYTE   W06
 BYTE   Cn4
 BYTE   W06
 BYTE   N15  Fn4
 BYTE   W18
 BYTE   N05  Cn4
 BYTE   W06
 BYTE   As3
 BYTE   W06
 BYTE   Cn4
 BYTE   W06
 BYTE   Fn4
 BYTE   W06
 BYTE   Cn4
 BYTE   W06
 BYTE   As3
 BYTE   W06
 BYTE   Fn3
 BYTE   W06
 BYTE   Cn3
 BYTE   W06
 BYTE   As2
 BYTE   W12
 BYTE   PEND 
//  #08 //012   ----------------------------------------
 BYTE   W96
//  #08 //013   ----------------------------------------
 BYTE   W96
//  #08 //014   ----------------------------------------
 BYTE   PATT
  POIN2 Label_015F489C
//  #08 //015   ----------------------------------------
 BYTE   PATT
  POIN2 Label_015F48BD
//  #08 //016   ----------------------------------------
 BYTE   W96
//  #08 //017   ----------------------------------------
 BYTE   W96
//  #08 //018   ----------------------------------------
Label_015F48EA:
 BYTE   N03  Gn4  v080
 BYTE   W06
 BYTE   Gn3  v056
 BYTE   W06
 BYTE   Dn4  v080
 BYTE   W06
 BYTE   Gn3  v056
 BYTE   W06
 BYTE   Gn4  v080
 BYTE   W06
 BYTE   Gn3  v056
 BYTE   W06
 BYTE   Dn4  v080
 BYTE   W06
 BYTE   Gn3  v056
 BYTE   W06
 BYTE   Gn4  v080
 BYTE   W06
 BYTE   Gn3  v056
 BYTE   W06
 BYTE   Dn4  v080
 BYTE   W06
 BYTE   Gn3  v056
 BYTE   W06
 BYTE   Gn4  v080
 BYTE   W06
 BYTE   Gn3  v056
 BYTE   W06
 BYTE   Dn4  v080
 BYTE   W06
 BYTE   Gn3  v056
 BYTE   W06
 BYTE   PEND 
//  #08 //019   ----------------------------------------
 BYTE   PATT
  POIN2 Label_015F48EA
//  #08 //020   ----------------------------------------
 BYTE   PATT
  POIN2 Label_015F48EA
//  #08 //021   ----------------------------------------
 BYTE   PATT
  POIN2 Label_015F48EA
//  #08 //022   ----------------------------------------
 BYTE   PATT
  POIN2 Label_015F48EA
//  #08 //023   ----------------------------------------
 BYTE   PATT
  POIN2 Label_015F48EA
//  #08 //024   ----------------------------------------
 BYTE   PATT
  POIN2 Label_015F48EA
//  #08 //025   ----------------------------------------
 BYTE   PATT
  POIN2 Label_015F48EA
//  #08 //026   ----------------------------------------
Label_015F493F:
 BYTE   N05  Gn3  v068
 BYTE   W06
 BYTE   Cn4
 BYTE   W06
 BYTE   Dn4
 BYTE   W06
 BYTE   N15  Gn4
 BYTE   W18
 BYTE   N05  Dn4
 BYTE   W06
 BYTE   Cn4
 BYTE   W06
 BYTE   Dn4
 BYTE   W06
 BYTE   Gn4
 BYTE   W06
 BYTE   Dn4
 BYTE   W06
 BYTE   Cn4
 BYTE   W06
 BYTE   Gn3
 BYTE   W06
 BYTE   Dn3
 BYTE   W06
 BYTE   Cn3
 BYTE   W06
 BYTE   Dn3
 BYTE   W06
 BYTE   PEND 
//  #08 //027   ----------------------------------------
 BYTE   PATT
  POIN2 Label_015F493F
//  #08 //028   ----------------------------------------
 BYTE   PATT
  POIN2 Label_015F493F
//  #08 //029   ----------------------------------------
 BYTE   PATT
  POIN2 Label_015F493F
//  #08 //030   ----------------------------------------
 BYTE   PATT
  POIN2 Label_015F493F
//  #08 //031   ----------------------------------------
 BYTE   PATT
  POIN2 Label_015F493F
//  #08 //032   ----------------------------------------
Label_015F4979:
 BYTE   N05  An3  v068
 BYTE   W06
 BYTE   Dn4
 BYTE   W06
 BYTE   En4
 BYTE   W06
 BYTE   N15  An4
 BYTE   W18
 BYTE   N05  En4
 BYTE   W06
 BYTE   Dn4
 BYTE   W06
 BYTE   En4
 BYTE   W06
 BYTE   An4
 BYTE   W06
 BYTE   En4
 BYTE   W06
 BYTE   Dn4
 BYTE   W06
 BYTE   An3
 BYTE   W06
 BYTE   En3
 BYTE   W06
 BYTE   Dn3
 BYTE   W06
 BYTE   En3
 BYTE   W06
 BYTE   PEND 
//  #08 //033   ----------------------------------------
 BYTE   PATT
  POIN2 Label_015F4979
//  #08 //034   ----------------------------------------
 BYTE   GoTo
  POIN2 Label_015F488A
 BYTE   FINE

//**************** Track 9 (Midi-Chn.8) ****************//

song34_009:
//  #09 //000   ----------------------------------------
 BYTE   KEYSH   song34_key+0
Label_01047C02:
 BYTE   VOICE   47
 BYTE   VOL   39*song34_mvl/mxv
 BYTE   PAN   c_v-18
 BYTE   BEND   c_v+0
 BYTE   N32  Gn1  v116
 BYTE   W36
 BYTE   Gn1  v092
 BYTE   W36
 BYTE   N05  Gn1  v076
 BYTE   W06
 BYTE   N17  Gn1  v100
 BYTE   W18
//  #09 //001   ----------------------------------------
Label_01047C19:
 BYTE   N32  Gn1  v116
 BYTE   W36
 BYTE   N52  Gn1  v092
 BYTE   W54
 BYTE   N02  Gn1  v072
 BYTE   W03
 BYTE   Gn1  v112
 BYTE   W03
 BYTE   PEND 
//  #09 //002   ----------------------------------------
Label_01047C29:
 BYTE   N32  Gn1  v116
 BYTE   W36
 BYTE   Gn1  v092
 BYTE   W36
 BYTE   N05  Gn1  v076
 BYTE   W06
 BYTE   N17  Gn1  v100
 BYTE   W18
 BYTE   PEND 
//  #09 //003   ----------------------------------------
 BYTE   PATT
  POIN2 Label_01047C19
//  #09 //004   ----------------------------------------
 BYTE   PATT
  POIN2 Label_01047C29
//  #09 //005   ----------------------------------------
 BYTE   PATT
  POIN2 Label_01047C19
//  #09 //006   ----------------------------------------
 BYTE   PATT
  POIN2 Label_01047C29
//  #09 //007   ----------------------------------------
 BYTE   PATT
  POIN2 Label_01047C19
//  #09 //008   ----------------------------------------
 BYTE   PATT
  POIN2 Label_01047C29
//  #09 //009   ----------------------------------------
 BYTE   PATT
  POIN2 Label_01047C19
//  #09 //010   ----------------------------------------
 BYTE   PATT
  POIN2 Label_01047C29
//  #09 //011   ----------------------------------------
 BYTE   PATT
  POIN2 Label_01047C19
//  #09 //012   ----------------------------------------
 BYTE   PATT
  POIN2 Label_01047C29
//  #09 //013   ----------------------------------------
 BYTE   PATT
  POIN2 Label_01047C19
//  #09 //014   ----------------------------------------
 BYTE   PATT
  POIN2 Label_01047C29
//  #09 //015   ----------------------------------------
 BYTE   PATT
  POIN2 Label_01047C19
//  #09 //016   ----------------------------------------
 BYTE   PATT
  POIN2 Label_01047C29
//  #09 //017   ----------------------------------------
 BYTE   PATT
  POIN2 Label_01047C19
//  #09 //018   ----------------------------------------
 BYTE   PATT
  POIN2 Label_01047C29
//  #09 //019   ----------------------------------------
 BYTE   PATT
  POIN2 Label_01047C19
//  #09 //020   ----------------------------------------
 BYTE   PATT
  POIN2 Label_01047C29
//  #09 //021   ----------------------------------------
 BYTE   PATT
  POIN2 Label_01047C19
//  #09 //022   ----------------------------------------
 BYTE   PATT
  POIN2 Label_01047C29
//  #09 //023   ----------------------------------------
 BYTE   PATT
  POIN2 Label_01047C19
//  #09 //024   ----------------------------------------
 BYTE   PATT
  POIN2 Label_01047C29
//  #09 //025   ----------------------------------------
 BYTE   PATT
  POIN2 Label_01047C19
//  #09 //026   ----------------------------------------
Label_01047CAC:
 BYTE   N32  As1  v116
 BYTE   W36
 BYTE   As1  v092
 BYTE   W36
 BYTE   N05  As1  v076
 BYTE   W06
 BYTE   N17  As1  v100
 BYTE   W18
 BYTE   PEND 
//  #09 //027   ----------------------------------------
Label_01047CBC:
 BYTE   N32  As1  v116
 BYTE   W36
 BYTE   N52  As1  v092
 BYTE   W54
 BYTE   N02  As1  v072
 BYTE   W03
 BYTE   As1  v112
 BYTE   W03
 BYTE   PEND 
//  #09 //028   ----------------------------------------
 BYTE   PATT
  POIN2 Label_01047CAC
//  #09 //029   ----------------------------------------
 BYTE   PATT
  POIN2 Label_01047CBC
//  #09 //030   ----------------------------------------
 BYTE   N32  Cn2  v116
 BYTE   W36
 BYTE   Cn2  v092
 BYTE   W36
 BYTE   N05  Cn2  v076
 BYTE   W06
 BYTE   N17  Cn2  v100
 BYTE   W18
//  #09 //031   ----------------------------------------
 BYTE   N32  Cn2  v116
 BYTE   W36
 BYTE   N52  Cn2  v092
 BYTE   W54
 BYTE   N02  Cn2  v072
 BYTE   W03
 BYTE   Cn2  v112
 BYTE   W03
//  #09 //032   ----------------------------------------
 BYTE   N32  Dn2  v116
 BYTE   W36
 BYTE   Dn2  v092
 BYTE   W36
 BYTE   N05  Dn2  v076
 BYTE   W06
 BYTE   N17  Dn2  v100
 BYTE   W18
//  #09 //033   ----------------------------------------
 BYTE   N32  Dn2  v116
 BYTE   W36
 BYTE   Dn2  v092
 BYTE   W36
 BYTE   N03
 BYTE   W04
 BYTE   Dn2  v064
 BYTE   W04
 BYTE   Dn2  v036
 BYTE   W04
 BYTE   Dn2  v072
 BYTE   W04
 BYTE   Dn2  v084
 BYTE   W04
 BYTE   Dn2  v100
 BYTE   W04
//  #09 //034   ----------------------------------------
 BYTE   GoTo
  POIN2 Label_01047C02
 BYTE   FINE

//**************** Track 10 (Midi-Chn.9) ****************//

song34_010:
//  #10 //000   ----------------------------------------
 BYTE   KEYSH   song34_key+0
Label_015F49AA:
 BYTE   VOICE   34
 BYTE   VOL   34*song34_mvl/mxv
 BYTE   PAN   c_v+0
 BYTE   BEND   c_v+0
 BYTE   N05  Gn0  v116
 BYTE   W06
 BYTE   Gn1  v084
 BYTE   W06
 BYTE   Gn1  v072
 BYTE   W06
 BYTE   Gn1  v056
 BYTE   W06
 BYTE   Gn1  v104
 BYTE   W06
 BYTE   Gn1  v116
 BYTE   W06
 BYTE   Gn1  v127
 BYTE   W06
 BYTE   Gn1  v084
 BYTE   W06
 BYTE   Gn1  v072
 BYTE   W06
 BYTE   Gn1  v056
 BYTE   W06
 BYTE   Gn1  v044
 BYTE   W12
 BYTE   Gn1  v108
 BYTE   W06
 BYTE   Gn1  v127
 BYTE   W06
 BYTE   Gn1  v084
 BYTE   W06
 BYTE   Gn1  v072
 BYTE   W06
//  #10 //001   ----------------------------------------
Label_015F49E0:
 BYTE   N05  Gn1  v127
 BYTE   W06
 BYTE   Gn1  v084
 BYTE   W06
 BYTE   Gn1  v072
 BYTE   W06
 BYTE   Gn1  v056
 BYTE   W06
 BYTE   Gn1  v104
 BYTE   W06
 BYTE   Gn1  v116
 BYTE   W06
 BYTE   Gn1  v127
 BYTE   W06
 BYTE   Gn1  v084
 BYTE   W06
 BYTE   Gn1  v072
 BYTE   W06
 BYTE   Gn1  v056
 BYTE   W06
 BYTE   Gn1  v044
 BYTE   W12
 BYTE   Gn1  v108
 BYTE   W06
 BYTE   Gn1  v127
 BYTE   W06
 BYTE   Gn1  v084
 BYTE   W06
 BYTE   Gn1  v072
 BYTE   W06
 BYTE   PEND 
//  #10 //002   ----------------------------------------
 BYTE   PATT
  POIN2 Label_015F49E0
//  #10 //003   ----------------------------------------
 BYTE   PATT
  POIN2 Label_015F49E0
//  #10 //004   ----------------------------------------
 BYTE   PATT
  POIN2 Label_015F49E0
//  #10 //005   ----------------------------------------
 BYTE   PATT
  POIN2 Label_015F49E0
//  #10 //006   ----------------------------------------
 BYTE   PATT
  POIN2 Label_015F49E0
//  #10 //007   ----------------------------------------
 BYTE   PATT
  POIN2 Label_015F49E0
//  #10 //008   ----------------------------------------
 BYTE   PATT
  POIN2 Label_015F49E0
//  #10 //009   ----------------------------------------
 BYTE   PATT
  POIN2 Label_015F49E0
//  #10 //010   ----------------------------------------
 BYTE   PATT
  POIN2 Label_015F49E0
//  #10 //011   ----------------------------------------
 BYTE   PATT
  POIN2 Label_015F49E0
//  #10 //012   ----------------------------------------
 BYTE   PATT
  POIN2 Label_015F49E0
//  #10 //013   ----------------------------------------
 BYTE   PATT
  POIN2 Label_015F49E0
//  #10 //014   ----------------------------------------
 BYTE   PATT
  POIN2 Label_015F49E0
//  #10 //015   ----------------------------------------
 BYTE   PATT
  POIN2 Label_015F49E0
//  #10 //016   ----------------------------------------
 BYTE   PATT
  POIN2 Label_015F49E0
//  #10 //017   ----------------------------------------
 BYTE   PATT
  POIN2 Label_015F49E0
//  #10 //018   ----------------------------------------
 BYTE   PATT
  POIN2 Label_015F49E0
//  #10 //019   ----------------------------------------
 BYTE   PATT
  POIN2 Label_015F49E0
//  #10 //020   ----------------------------------------
 BYTE   PATT
  POIN2 Label_015F49E0
//  #10 //021   ----------------------------------------
 BYTE   PATT
  POIN2 Label_015F49E0
//  #10 //022   ----------------------------------------
 BYTE   PATT
  POIN2 Label_015F49E0
//  #10 //023   ----------------------------------------
 BYTE   PATT
  POIN2 Label_015F49E0
//  #10 //024   ----------------------------------------
 BYTE   PATT
  POIN2 Label_015F49E0
//  #10 //025   ----------------------------------------
 BYTE   PATT
  POIN2 Label_015F49E0
//  #10 //026   ----------------------------------------
Label_015F4A87:
 BYTE   N05  As1  v127
 BYTE   W06
 BYTE   As1  v084
 BYTE   W06
 BYTE   As1  v072
 BYTE   W06
 BYTE   As1  v056
 BYTE   W06
 BYTE   As1  v104
 BYTE   W06
 BYTE   As1  v116
 BYTE   W06
 BYTE   As1  v127
 BYTE   W06
 BYTE   As1  v084
 BYTE   W06
 BYTE   As1  v072
 BYTE   W06
 BYTE   As1  v056
 BYTE   W06
 BYTE   As1  v044
 BYTE   W12
 BYTE   As1  v108
 BYTE   W06
 BYTE   As1  v127
 BYTE   W06
 BYTE   As1  v084
 BYTE   W06
 BYTE   As1  v072
 BYTE   W06
 BYTE   PEND 
//  #10 //027   ----------------------------------------
 BYTE   PATT
  POIN2 Label_015F4A87
//  #10 //028   ----------------------------------------
 BYTE   PATT
  POIN2 Label_015F4A87
//  #10 //029   ----------------------------------------
 BYTE   PATT
  POIN2 Label_015F4A87
//  #10 //030   ----------------------------------------
Label_015F4AC5:
 BYTE   N05  Cn2  v127
 BYTE   W06
 BYTE   Cn2  v084
 BYTE   W06
 BYTE   Cn2  v072
 BYTE   W06
 BYTE   Cn2  v056
 BYTE   W06
 BYTE   Cn2  v104
 BYTE   W06
 BYTE   Cn2  v116
 BYTE   W06
 BYTE   Cn2  v127
 BYTE   W06
 BYTE   Cn2  v084
 BYTE   W06
 BYTE   Cn2  v072
 BYTE   W06
 BYTE   Cn2  v056
 BYTE   W06
 BYTE   Cn2  v044
 BYTE   W12
 BYTE   Cn2  v108
 BYTE   W06
 BYTE   Cn2  v127
 BYTE   W06
 BYTE   Cn2  v084
 BYTE   W06
 BYTE   Cn2  v072
 BYTE   W06
 BYTE   PEND 
//  #10 //031   ----------------------------------------
 BYTE   PATT
  POIN2 Label_015F4AC5
//  #10 //032   ----------------------------------------
Label_015F4AF9:
 BYTE   N05  Dn2  v127
 BYTE   W06
 BYTE   Dn2  v084
 BYTE   W06
 BYTE   Dn2  v072
 BYTE   W06
 BYTE   Dn2  v056
 BYTE   W06
 BYTE   Dn2  v104
 BYTE   W06
 BYTE   Dn2  v116
 BYTE   W06
 BYTE   Dn2  v127
 BYTE   W06
 BYTE   Dn2  v084
 BYTE   W06
 BYTE   Dn2  v072
 BYTE   W06
 BYTE   Dn2  v056
 BYTE   W06
 BYTE   Dn2  v044
 BYTE   W12
 BYTE   Dn2  v108
 BYTE   W06
 BYTE   Dn2  v127
 BYTE   W06
 BYTE   Dn2  v084
 BYTE   W06
 BYTE   Dn2  v072
 BYTE   W06
 BYTE   PEND 
//  #10 //033   ----------------------------------------
 BYTE   PATT
  POIN2 Label_015F4AF9
//  #10 //034   ----------------------------------------
 BYTE   GoTo
  POIN2 Label_015F49AA
 BYTE   FINE

//**************** Track 11 (Midi-Chn.10) ****************//

song34_011:
//  #11 //000   ----------------------------------------
 BYTE   KEYSH   song34_key+0
Label_015F3AAE:
 BYTE   VOICE   48
 BYTE   VOL   33*song34_mvl/mxv
 BYTE   PAN   c_v+21
 BYTE   BEND   c_v+0
 BYTE   N05  Gn1  v116
 BYTE   W06
 BYTE   Gn1  v056
 BYTE   W06
 BYTE   Gn1  v044
 BYTE   W06
 BYTE   Gn1  v028
 BYTE   W06
 BYTE   Gn1  v076
 BYTE   W06
 BYTE   Gn1  v088
 BYTE   W06
 BYTE   Gn1  v100
 BYTE   W06
 BYTE   Gn1  v056
 BYTE   W06
 BYTE   Gn1  v044
 BYTE   W06
 BYTE   Gn1  v028
 BYTE   W06
 BYTE   Gn1  v016
 BYTE   W12
 BYTE   Gn1  v076
 BYTE   W06
 BYTE   Gn1  v100
 BYTE   W06
 BYTE   Gn1  v056
 BYTE   W06
 BYTE   Gn1  v044
 BYTE   W06
//  #11 //001   ----------------------------------------
Label_015F3AE4:
 BYTE   N05  Gn1  v116
 BYTE   W06
 BYTE   Gn1  v056
 BYTE   W06
 BYTE   Gn1  v044
 BYTE   W06
 BYTE   Gn1  v028
 BYTE   W06
 BYTE   Gn1  v076
 BYTE   W06
 BYTE   Gn1  v088
 BYTE   W06
 BYTE   Gn1  v100
 BYTE   W06
 BYTE   Gn1  v056
 BYTE   W06
 BYTE   Gn1  v044
 BYTE   W06
 BYTE   Gn1  v028
 BYTE   W06
 BYTE   Gn1  v016
 BYTE   W12
 BYTE   Gn1  v076
 BYTE   W06
 BYTE   Gn1  v100
 BYTE   W06
 BYTE   Gn1  v056
 BYTE   W06
 BYTE   Gn1  v044
 BYTE   W06
 BYTE   PEND 
//  #11 //002   ----------------------------------------
 BYTE   PATT
  POIN2 Label_015F3AE4
//  #11 //003   ----------------------------------------
 BYTE   PATT
  POIN2 Label_015F3AE4
//  #11 //004   ----------------------------------------
 BYTE   PATT
  POIN2 Label_015F3AE4
//  #11 //005   ----------------------------------------
 BYTE   PATT
  POIN2 Label_015F3AE4
//  #11 //006   ----------------------------------------
 BYTE   PATT
  POIN2 Label_015F3AE4
//  #11 //007   ----------------------------------------
 BYTE   PATT
  POIN2 Label_015F3AE4
//  #11 //008   ----------------------------------------
 BYTE   PATT
  POIN2 Label_015F3AE4
//  #11 //009   ----------------------------------------
 BYTE   PATT
  POIN2 Label_015F3AE4
//  #11 //010   ----------------------------------------
 BYTE   PATT
  POIN2 Label_015F3AE4
//  #11 //011   ----------------------------------------
 BYTE   PATT
  POIN2 Label_015F3AE4
//  #11 //012   ----------------------------------------
 BYTE   PATT
  POIN2 Label_015F3AE4
//  #11 //013   ----------------------------------------
 BYTE   PATT
  POIN2 Label_015F3AE4
//  #11 //014   ----------------------------------------
 BYTE   PATT
  POIN2 Label_015F3AE4
//  #11 //015   ----------------------------------------
 BYTE   PATT
  POIN2 Label_015F3AE4
//  #11 //016   ----------------------------------------
 BYTE   PATT
  POIN2 Label_015F3AE4
//  #11 //017   ----------------------------------------
 BYTE   PATT
  POIN2 Label_015F3AE4
//  #11 //018   ----------------------------------------
 BYTE   PATT
  POIN2 Label_015F3AE4
//  #11 //019   ----------------------------------------
 BYTE   PATT
  POIN2 Label_015F3AE4
//  #11 //020   ----------------------------------------
 BYTE   PATT
  POIN2 Label_015F3AE4
//  #11 //021   ----------------------------------------
 BYTE   PATT
  POIN2 Label_015F3AE4
//  #11 //022   ----------------------------------------
 BYTE   PATT
  POIN2 Label_015F3AE4
//  #11 //023   ----------------------------------------
 BYTE   PATT
  POIN2 Label_015F3AE4
//  #11 //024   ----------------------------------------
 BYTE   PATT
  POIN2 Label_015F3AE4
//  #11 //025   ----------------------------------------
 BYTE   PATT
  POIN2 Label_015F3AE4
//  #11 //026   ----------------------------------------
Label_015F3B8B:
 BYTE   N05  As1  v116
 BYTE   W06
 BYTE   As1  v056
 BYTE   W06
 BYTE   As1  v044
 BYTE   W06
 BYTE   As1  v028
 BYTE   W06
 BYTE   As1  v076
 BYTE   W06
 BYTE   As1  v088
 BYTE   W06
 BYTE   As1  v100
 BYTE   W06
 BYTE   As1  v056
 BYTE   W06
 BYTE   As1  v044
 BYTE   W06
 BYTE   As1  v028
 BYTE   W06
 BYTE   As1  v016
 BYTE   W12
 BYTE   As1  v076
 BYTE   W06
 BYTE   As1  v100
 BYTE   W06
 BYTE   As1  v056
 BYTE   W06
 BYTE   As1  v044
 BYTE   W06
 BYTE   PEND 
//  #11 //027   ----------------------------------------
 BYTE   PATT
  POIN2 Label_015F3B8B
//  #11 //028   ----------------------------------------
 BYTE   PATT
  POIN2 Label_015F3B8B
//  #11 //029   ----------------------------------------
 BYTE   PATT
  POIN2 Label_015F3B8B
//  #11 //030   ----------------------------------------
Label_015F3BC9:
 BYTE   N05  Cn1  v116
 BYTE   W06
 BYTE   Cn1  v056
 BYTE   W06
 BYTE   Cn1  v044
 BYTE   W06
 BYTE   Cn1  v028
 BYTE   W06
 BYTE   Cn1  v076
 BYTE   W06
 BYTE   Cn1  v088
 BYTE   W06
 BYTE   Cn1  v100
 BYTE   W06
 BYTE   Cn1  v056
 BYTE   W06
 BYTE   Cn1  v044
 BYTE   W06
 BYTE   Cn1  v028
 BYTE   W06
 BYTE   Cn1  v016
 BYTE   W12
 BYTE   Cn1  v076
 BYTE   W06
 BYTE   Cn1  v100
 BYTE   W06
 BYTE   Cn1  v056
 BYTE   W06
 BYTE   Cn1  v044
 BYTE   W06
 BYTE   PEND 
//  #11 //031   ----------------------------------------
 BYTE   PATT
  POIN2 Label_015F3BC9
//  #11 //032   ----------------------------------------
Label_015F3BFD:
 BYTE   N05  Dn1  v116
 BYTE   W06
 BYTE   Dn1  v056
 BYTE   W06
 BYTE   Dn1  v044
 BYTE   W06
 BYTE   Dn1  v028
 BYTE   W06
 BYTE   Dn1  v076
 BYTE   W06
 BYTE   Dn1  v088
 BYTE   W06
 BYTE   Dn1  v100
 BYTE   W06
 BYTE   Dn1  v056
 BYTE   W06
 BYTE   Dn1  v044
 BYTE   W06
 BYTE   Dn1  v028
 BYTE   W06
 BYTE   Dn1  v016
 BYTE   W12
 BYTE   Dn1  v076
 BYTE   W06
 BYTE   Dn1  v100
 BYTE   W06
 BYTE   Dn1  v056
 BYTE   W06
 BYTE   Dn1  v044
 BYTE   W06
 BYTE   PEND 
//  #11 //033   ----------------------------------------
 BYTE   PATT
  POIN2 Label_015F3BFD
//  #11 //034   ----------------------------------------
 BYTE   GoTo
  POIN2 Label_015F3AAE
 BYTE   FINE

//**************** Track 12 (Midi-Chn.11) ****************//

song34_012:
//  #12 //000   ----------------------------------------
 BYTE   KEYSH   song34_key+0
Label_015F588E:
 BYTE   VOICE   124
 BYTE   VOL   29*song34_mvl/mxv
 BYTE   PAN   c_v+0
 BYTE   BEND   c_v+0
 BYTE   N05  Cn1  v108
 BYTE   N06  Fs1  v080
 BYTE   TIE  Cs2  v064
 BYTE   W06
 BYTE   N04  Gs1
 BYTE   W06
 BYTE   N05  Gs1  v040
 BYTE   W06
 BYTE   Cn1  v056
 BYTE   N06  Fs1  v048
 BYTE   W06
 BYTE   N04  Gs1  v056
 BYTE   W06
 BYTE   Gs1  v040
 BYTE   W06
 BYTE   N05  Cn1  v100
 BYTE   N04  Gs1  v064
 BYTE   W06
 BYTE   N02  Gs1  v040
 BYTE   W03
 BYTE   Gs1  v052
 BYTE   W03
 BYTE   N05  Gs1  v068
 BYTE   W06
 BYTE   Cn1  v056
 BYTE   N05  Fs1  v080
 BYTE   W06
 BYTE   Gs1  v060
 BYTE   W06
 BYTE   Gs1  v048
 BYTE   W06
 BYTE   Fs1  v072
 BYTE   W06
 BYTE   Gs1  v040
 BYTE   W06
 BYTE   Gs1  v064
 BYTE   W06
 BYTE   Gs1  v040
 BYTE   W06
//  #12 //001   ----------------------------------------
Label_015F58DE:
 BYTE   N05  Cn1  v108
 BYTE   N04  Gs1  v052
 BYTE   W06
 BYTE   Fs1  v076
 BYTE   W03
 BYTE   PEND 
 BYTE   EOT
 BYTE   Cs2
 BYTE   W03
 BYTE   N04  Gs1  v056
 BYTE   W06
 BYTE   N05  Cn1
 BYTE   N04  Gs1  v036
 BYTE   W06
 BYTE   Fs1  v056
 BYTE   W06
 BYTE   Gs1  v036
 BYTE   W06
 BYTE   N05  Cn1  v100
 BYTE   N04  Fs1  v072
 BYTE   W06
 BYTE   Fs1  v084
 BYTE   W06
 BYTE   Gs1  v036
 BYTE   W06
 BYTE   N05  Cn1  v056
 BYTE   N04  Fs1  v072
 BYTE   W06
 BYTE   Gs1  v060
 BYTE   W06
 BYTE   N05  Gs1  v040
 BYTE   W06
 BYTE   Fs1  v048
 BYTE   W06
 BYTE   As1  v036
 BYTE   W06
 BYTE   As1  v056
 BYTE   W06
 BYTE   As1  v076
 BYTE   W06
//  #12 //002   ----------------------------------------
Label_015F5923:
 BYTE   N05  Cn1  v108
 BYTE   N06  As1  v080
 BYTE   W06
 BYTE   N04  Fs1  v064
 BYTE   W06
 BYTE   N05  Gs1  v040
 BYTE   W06
 BYTE   Cn1  v056
 BYTE   N06  As1  v048
 BYTE   W06
 BYTE   N04  Fs1  v056
 BYTE   W06
 BYTE   Gs1  v040
 BYTE   W06
 BYTE   N05  Cn1  v100
 BYTE   N04  Gs1  v064
 BYTE   W06
 BYTE   N02  Gs1  v040
 BYTE   W03
 BYTE   Gs1  v052
 BYTE   W03
 BYTE   N05  Gs1  v068
 BYTE   W06
 BYTE   Cn1  v056
 BYTE   N05  Fs1  v092
 BYTE   W06
 BYTE   Gs1  v060
 BYTE   W06
 BYTE   Gs1  v048
 BYTE   W06
 BYTE   Fs1  v072
 BYTE   W06
 BYTE   Gs1  v040
 BYTE   W06
 BYTE   Gs1  v064
 BYTE   W06
 BYTE   Gs1  v040
 BYTE   W06
 BYTE   PEND 
//  #12 //003   ----------------------------------------
Label_015F596A:
 BYTE   N05  Cn1  v108
 BYTE   N04  Gs1  v052
 BYTE   W06
 BYTE   Fs1  v076
 BYTE   W06
 BYTE   Gs1  v056
 BYTE   W06
 BYTE   N05  Cn1
 BYTE   N04  Gs1  v036
 BYTE   W06
 BYTE   Fs1  v056
 BYTE   W06
 BYTE   Gs1  v036
 BYTE   W06
 BYTE   N05  Cn1  v100
 BYTE   N04  Gs1  v060
 BYTE   W06
 BYTE   Gs1  v032
 BYTE   W06
 BYTE   Gs1  v068
 BYTE   W06
 BYTE   N05  Cn1  v056
 BYTE   N04  Gs1  v036
 BYTE   W06
 BYTE   Gs1  v060
 BYTE   W06
 BYTE   Gs1  v032
 BYTE   W06
 BYTE   Gs1  v056
 BYTE   W06
 BYTE   Gs1  v036
 BYTE   W06
 BYTE   N02  Gs1  v016
 BYTE   W03
 BYTE   Gs1  v040
 BYTE   W03
 BYTE   Gs1  v056
 BYTE   W03
 BYTE   Gs1  v072
 BYTE   W03
 BYTE   PEND 
//  #12 //004   ----------------------------------------
Label_015F59B1:
 BYTE   N05  Cn1  v108
 BYTE   N06  As1  v080
 BYTE   W06
 BYTE   N04  Fs1  v064
 BYTE   W06
 BYTE   N05  Gs1  v040
 BYTE   W06
 BYTE   Cn1  v056
 BYTE   N06  As1  v048
 BYTE   W06
 BYTE   N04  Fs1  v056
 BYTE   TIE  En2
 BYTE   W06
 BYTE   N04  Gs1  v040
 BYTE   W06
 BYTE   N05  Cn1  v100
 BYTE   N04  Gs1  v064
 BYTE   W06
 BYTE   N02  Gs1  v040
 BYTE   W03
 BYTE   Gs1  v052
 BYTE   W03
 BYTE   N05  Gs1  v068
 BYTE   W06
 BYTE   Cn1  v056
 BYTE   N05  Fs1  v092
 BYTE   W06
 BYTE   Gs1  v060
 BYTE   W06
 BYTE   Gs1  v048
 BYTE   W06
 BYTE   Fs1  v072
 BYTE   W06
 BYTE   Gs1  v040
 BYTE   W06
 BYTE   Gs1  v064
 BYTE   W06
 BYTE   Gs1  v040
 BYTE   W06
 BYTE   PEND 
//  #12 //005   ----------------------------------------
Label_015F59FB:
 BYTE   N05  Cn1  v108
 BYTE   N04  Gs1  v052
 BYTE   W06
 BYTE   Fs1  v076
 BYTE   W06
 BYTE   Gs1  v056
 BYTE   W06
 BYTE   N05  Cn1
 BYTE   N04  Gs1  v036
 BYTE   W06
 BYTE   Fs1  v056
 BYTE   W06
 BYTE   Gs1  v036
 BYTE   W03
 BYTE   PEND 
 BYTE   EOT
 BYTE   En2
 BYTE   W03
 BYTE   N05  Cn1  v100
 BYTE   N04  Gs1  v060
 BYTE   W06
 BYTE   Gs1  v032
 BYTE   W06
 BYTE   Gs1  v068
 BYTE   W06
 BYTE   N05  Cn1  v056
 BYTE   N04  Gs1  v036
 BYTE   W06
 BYTE   Fs1  v060
 BYTE   W06
 BYTE   N05  As1  v040
 BYTE   W06
 BYTE   As1  v064
 BYTE   W06
 BYTE   As1  v076
 BYTE   W06
 BYTE   N04  Fs1  v052
 BYTE   W06
 BYTE   Gs1  v044
 BYTE   W06
//  #12 //006   ----------------------------------------
Label_015F5A40:
 BYTE   N05  Cn1  v108
 BYTE   N06  As1  v080
 BYTE   TIE  Cs2  v056
 BYTE   W06
 BYTE   N04  Fs1  v064
 BYTE   W06
 BYTE   N05  Gs1  v040
 BYTE   W06
 BYTE   Cn1  v056
 BYTE   N06  As1  v048
 BYTE   W06
 BYTE   N04  Fs1  v056
 BYTE   W06
 BYTE   Gs1  v040
 BYTE   W06
 BYTE   N05  Cn1  v100
 BYTE   N04  Gs1  v064
 BYTE   W06
 BYTE   N02  Gs1  v040
 BYTE   W03
 BYTE   Gs1  v052
 BYTE   W03
 BYTE   N05  Gs1  v068
 BYTE   W06
 BYTE   Cn1  v056
 BYTE   N05  Fs1  v092
 BYTE   W06
 BYTE   Gs1  v060
 BYTE   W06
 BYTE   Gs1  v048
 BYTE   W06
 BYTE   Fs1  v072
 BYTE   W06
 BYTE   Gs1  v040
 BYTE   W06
 BYTE   Gs1  v064
 BYTE   W06
 BYTE   Gs1  v040
 BYTE   W06
 BYTE   PEND 
//  #12 //007   ----------------------------------------
 BYTE   PATT
  POIN2 Label_015F58DE
//  #12 //008   ----------------------------------------
 BYTE   EOT
 BYTE   Cs2
 BYTE   W03
 BYTE   N04  Gs1  v056
 BYTE   W06
 BYTE   N05  Cn1
 BYTE   N04  Gs1  v036
 BYTE   W06
 BYTE   Fs1  v056
 BYTE   W06
 BYTE   Gs1  v036
 BYTE   W06
 BYTE   N05  Cn1  v100
 BYTE   N04  Gs1  v060
 BYTE   W06
 BYTE   Gs1  v032
 BYTE   W06
 BYTE   Gs1  v068
 BYTE   W06
 BYTE   N05  Cn1  v056
 BYTE   N04  Gs1  v036
 BYTE   W06
 BYTE   Gs1  v060
 BYTE   W06
 BYTE   N11  As1  v056
 BYTE   W12
 BYTE   N04  Gs1  v036
 BYTE   W06
 BYTE   N02  Gs1  v016
 BYTE   W03
 BYTE   Gs1  v040
 BYTE   W03
 BYTE   Gs1  v056
 BYTE   W03
 BYTE   Gs1  v072
 BYTE   W03
//  #12 //009   ----------------------------------------
 BYTE   PATT
  POIN2 Label_015F59B1
//  #12 //010   ----------------------------------------
 BYTE   PATT
  POIN2 Label_015F59FB
//  #12 //011   ----------------------------------------
 BYTE   EOT
 BYTE   En2
 BYTE   W03
 BYTE   N05  Cn1  v100
 BYTE   N04  Fs1  v072
 BYTE   W06
 BYTE   Fs1  v084
 BYTE   W06
 BYTE   Gs1  v036
 BYTE   W06
 BYTE   N05  Cn1  v056
 BYTE   N04  Fs1  v072
 BYTE   W06
 BYTE   Gs1  v060
 BYTE   W06
 BYTE   N05  Gs1  v040
 BYTE   W06
 BYTE   Fs1  v048
 BYTE   W06
 BYTE   As1  v036
 BYTE   W06
 BYTE   As1  v056
 BYTE   W06
 BYTE   As1  v076
 BYTE   W06
//  #12 //012   ----------------------------------------
 BYTE   PATT
  POIN2 Label_015F5A40
//  #12 //013   ----------------------------------------
 BYTE   PATT
  POIN2 Label_015F58DE
//  #12 //014   ----------------------------------------
 BYTE   EOT
 BYTE   Cs2
 BYTE   W03
 BYTE   N04  Gs1  v056
 BYTE   W06
 BYTE   N05  Cn1
 BYTE   N04  Gs1  v036
 BYTE   W06
 BYTE   Fs1  v056
 BYTE   W06
 BYTE   Gs1  v036
 BYTE   W06
 BYTE   N05  Cn1  v100
 BYTE   N04  Gs1  v060
 BYTE   W06
 BYTE   Gs1  v032
 BYTE   W06
 BYTE   Gs1  v068
 BYTE   W06
 BYTE   N05  Cn1  v056
 BYTE   N04  Gs1  v036
 BYTE   W06
 BYTE   Gs1  v060
 BYTE   W06
 BYTE   Gs1  v032
 BYTE   W06
 BYTE   Gs1  v056
 BYTE   W06
 BYTE   Gs1  v036
 BYTE   W06
 BYTE   N02  Gs1  v016
 BYTE   W03
 BYTE   Gs1  v040
 BYTE   W03
 BYTE   Gs1  v056
 BYTE   W03
 BYTE   Gs1  v072
 BYTE   W03
//  #12 //015   ----------------------------------------
 BYTE   PATT
  POIN2 Label_015F59B1
//  #12 //016   ----------------------------------------
 BYTE   PATT
  POIN2 Label_015F59FB
//  #12 //017   ----------------------------------------
 BYTE   EOT
 BYTE   En2
 BYTE   W03
 BYTE   N05  Cn1  v100
 BYTE   N04  Gs1  v060
 BYTE   W06
 BYTE   Gs1  v032
 BYTE   W06
 BYTE   Gs1  v068
 BYTE   W06
 BYTE   N05  Cn1  v056
 BYTE   N04  Gs1  v036
 BYTE   W06
 BYTE   Fs1  v060
 BYTE   W06
 BYTE   N05  As1  v040
 BYTE   W06
 BYTE   As1  v064
 BYTE   W06
 BYTE   As1  v076
 BYTE   W06
 BYTE   N04  Fs1  v052
 BYTE   W06
 BYTE   Gs1  v044
 BYTE   W06
//  #12 //018   ----------------------------------------
 BYTE   PATT
  POIN2 Label_015F5A40
//  #12 //019   ----------------------------------------
 BYTE   PATT
  POIN2 Label_015F58DE
//  #12 //020   ----------------------------------------
 BYTE   EOT
 BYTE   Cs2
 BYTE   W03
 BYTE   N04  Gs1  v056
 BYTE   W06
 BYTE   N05  Cn1
 BYTE   N04  Gs1  v036
 BYTE   W06
 BYTE   Fs1  v056
 BYTE   W06
 BYTE   Gs1  v036
 BYTE   W06
 BYTE   N05  Cn1  v100
 BYTE   N04  Gs1  v060
 BYTE   W06
 BYTE   Gs1  v032
 BYTE   W06
 BYTE   Gs1  v068
 BYTE   W06
 BYTE   N05  Cn1  v056
 BYTE   N04  Gs1  v036
 BYTE   W06
 BYTE   Gs1  v060
 BYTE   W06
 BYTE   N11  As1  v056
 BYTE   W12
 BYTE   N04  Gs1  v036
 BYTE   W06
 BYTE   N02  Gs1  v016
 BYTE   W03
 BYTE   Gs1  v040
 BYTE   W03
 BYTE   Gs1  v056
 BYTE   W03
 BYTE   Gs1  v072
 BYTE   W03
//  #12 //021   ----------------------------------------
 BYTE   PATT
  POIN2 Label_015F59B1
//  #12 //022   ----------------------------------------
 BYTE   PATT
  POIN2 Label_015F59FB
//  #12 //023   ----------------------------------------
 BYTE   EOT
 BYTE   En2
 BYTE   W03
 BYTE   N05  Cn1  v100
 BYTE   N04  Fs1  v072
 BYTE   W06
 BYTE   Fs1  v084
 BYTE   W06
 BYTE   Gs1  v036
 BYTE   W06
 BYTE   N05  Cn1  v056
 BYTE   N04  Fs1  v072
 BYTE   W06
 BYTE   Gs1  v060
 BYTE   W06
 BYTE   N05  Gs1  v040
 BYTE   W06
 BYTE   Fs1  v048
 BYTE   W06
 BYTE   As1  v036
 BYTE   W06
 BYTE   As1  v056
 BYTE   W06
 BYTE   As1  v076
 BYTE   W06
//  #12 //024   ----------------------------------------
 BYTE   PATT
  POIN2 Label_015F5923
//  #12 //025   ----------------------------------------
 BYTE   PATT
  POIN2 Label_015F596A
//  #12 //026   ----------------------------------------
 BYTE   PATT
  POIN2 Label_015F5923
//  #12 //027   ----------------------------------------
 BYTE   N05  Cn1  v108
 BYTE   N04  Gs1  v052
 BYTE   W06
 BYTE   Fs1  v076
 BYTE   W06
 BYTE   Gs1  v056
 BYTE   W06
 BYTE   N05  Cn1
 BYTE   N04  Gs1  v036
 BYTE   W06
 BYTE   Fs1  v056
 BYTE   W06
 BYTE   Gs1  v036
 BYTE   W06
 BYTE   N05  Cn1  v100
 BYTE   N04  Gs1  v060
 BYTE   W06
 BYTE   Gs1  v032
 BYTE   W06
 BYTE   Gs1  v068
 BYTE   W06
 BYTE   N05  Cn1  v056
 BYTE   N04  Gs1  v036
 BYTE   W06
 BYTE   Fs1  v060
 BYTE   W06
 BYTE   N05  As1  v040
 BYTE   W06
 BYTE   As1  v064
 BYTE   W06
 BYTE   As1  v076
 BYTE   W06
 BYTE   N04  Fs1  v052
 BYTE   W06
 BYTE   Gs1  v044
 BYTE   W06
//  #12 //028   ----------------------------------------
 BYTE   PATT
  POIN2 Label_015F5923
//  #12 //029   ----------------------------------------
 BYTE   N05  Cn1  v108
 BYTE   N04  Gs1  v052
 BYTE   W06
 BYTE   Fs1  v076
 BYTE   W06
 BYTE   Gs1  v056
 BYTE   W06
 BYTE   N05  Cn1
 BYTE   N04  Gs1  v036
 BYTE   W06
 BYTE   Fs1  v056
 BYTE   W06
 BYTE   Gs1  v036
 BYTE   W06
 BYTE   N05  Cn1  v100
 BYTE   N04  Gs1  v060
 BYTE   W06
 BYTE   Gs1  v032
 BYTE   W06
 BYTE   Gs1  v068
 BYTE   W06
 BYTE   N05  Cn1  v056
 BYTE   N04  Gs1  v036
 BYTE   W06
 BYTE   Gs1  v060
 BYTE   W06
 BYTE   N11  As1  v056
 BYTE   W12
 BYTE   N04  Gs1  v036
 BYTE   W06
 BYTE   N02  Gs1  v016
 BYTE   W03
 BYTE   Gs1  v040
 BYTE   W03
 BYTE   Gs1  v056
 BYTE   W03
 BYTE   Gs1  v072
 BYTE   W03
//  #12 //030   ----------------------------------------
 BYTE   PATT
  POIN2 Label_015F5923
//  #12 //031   ----------------------------------------
 BYTE   N05  Cn1  v108
 BYTE   N04  Gs1  v052
 BYTE   W06
 BYTE   Fs1  v076
 BYTE   W06
 BYTE   Gs1  v056
 BYTE   W06
 BYTE   N05  Cn1
 BYTE   N04  Gs1  v036
 BYTE   W06
 BYTE   Fs1  v056
 BYTE   W06
 BYTE   Gs1  v036
 BYTE   W06
 BYTE   N05  Cn1  v100
 BYTE   N04  Fs1  v072
 BYTE   W06
 BYTE   Fs1  v084
 BYTE   W06
 BYTE   Gs1  v036
 BYTE   W06
 BYTE   N05  Cn1  v056
 BYTE   N04  Fs1  v072
 BYTE   W06
 BYTE   Gs1  v060
 BYTE   W06
 BYTE   N05  Gs1  v040
 BYTE   W06
 BYTE   Fs1  v048
 BYTE   W06
 BYTE   As1  v036
 BYTE   W06
 BYTE   As1  v056
 BYTE   W06
 BYTE   As1  v076
 BYTE   W06
//  #12 //032   ----------------------------------------
Label_015F5CDD:
 BYTE   N05  Cn1  v108
 BYTE   N06  As1  v080
 BYTE   W06
 BYTE   N04  Fs1  v064
 BYTE   W06
 BYTE   N05  Gs1  v040
 BYTE   W06
 BYTE   N06  As1  v048
 BYTE   W06
 BYTE   N05  Cn1  v100
 BYTE   N04  Fs1  v056
 BYTE   W06
 BYTE   Gs1  v040
 BYTE   W06
 BYTE   Gs1  v064
 BYTE   W06
 BYTE   N02  Gs1  v040
 BYTE   W03
 BYTE   Gs1  v052
 BYTE   W03
 BYTE   N05  Cn1  v100
 BYTE   N05  Gs1  v068
 BYTE   W06
 BYTE   Fs1  v092
 BYTE   W06
 BYTE   Gs1  v060
 BYTE   W06
 BYTE   Gs1  v048
 BYTE   W06
 BYTE   Cn1  v084
 BYTE   N05  Fs1  v072
 BYTE   W06
 BYTE   Gs1  v040
 BYTE   W06
 BYTE   Gs1  v064
 BYTE   W06
 BYTE   Gs1  v040
 BYTE   W06
 BYTE   PEND 
//  #12 //033   ----------------------------------------
 BYTE   Cn1  v108
 BYTE   N04  Gs1  v052
 BYTE   W06
 BYTE   Fs1  v076
 BYTE   W06
 BYTE   Gs1  v056
 BYTE   W06
 BYTE   Gs1  v036
 BYTE   W06
 BYTE   N05  Cn1  v100
 BYTE   N04  Fs1  v056
 BYTE   W06
 BYTE   Gs1  v036
 BYTE   W06
 BYTE   Gs1  v060
 BYTE   W06
 BYTE   Gs1  v032
 BYTE   W06
 BYTE   N05  Cn1  v100
 BYTE   N04  Gs1  v068
 BYTE   W06
 BYTE   Gs1  v036
 BYTE   W06
 BYTE   Gs1  v060
 BYTE   W06
 BYTE   Gs1  v032
 BYTE   W06
 BYTE   N05  Cn1  v084
 BYTE   N04  Gs1  v056
 BYTE   W06
 BYTE   Gs1  v036
 BYTE   W06
 BYTE   N02  Gs1  v016
 BYTE   W03
 BYTE   Gs1  v040
 BYTE   W03
 BYTE   Gs1  v056
 BYTE   W03
 BYTE   Gs1  v072
 BYTE   W03
//  #12 //034   ----------------------------------------
 BYTE   PATT
  POIN2 Label_015F5CDD
//  #12 //035   ----------------------------------------
 BYTE   N05  Cn1  v108
 BYTE   N04  Gs1  v052
 BYTE   W06
 BYTE   Fs1  v076
 BYTE   W06
 BYTE   Gs1  v056
 BYTE   W06
 BYTE   Gs1  v036
 BYTE   W06
 BYTE   N05  Cn1  v100
 BYTE   N04  Fs1  v056
 BYTE   W06
 BYTE   Gs1  v036
 BYTE   W06
 BYTE   Gs1  v060
 BYTE   W06
 BYTE   Gs1  v032
 BYTE   W06
 BYTE   N05  Cn1  v100
 BYTE   N04  Gs1  v068
 BYTE   W06
 BYTE   Gs1  v036
 BYTE   W06
 BYTE   Fs1  v060
 BYTE   W06
 BYTE   N05  As1  v040
 BYTE   W06
 BYTE   Cn1  v084
 BYTE   N05  As1  v064
 BYTE   W06
 BYTE   As1  v076
 BYTE   W06
 BYTE   N04  Fs1  v052
 BYTE   W06
 BYTE   Gs1  v044
 BYTE   W06
//  #12 //036   ----------------------------------------
 BYTE   PATT
  POIN2 Label_015F5CDD
//  #12 //037   ----------------------------------------
 BYTE   N05  Cn1  v108
 BYTE   N04  Gs1  v052
 BYTE   W06
 BYTE   Fs1  v076
 BYTE   W06
 BYTE   Gs1  v056
 BYTE   W06
 BYTE   Gs1  v036
 BYTE   W06
 BYTE   N05  Cn1  v100
 BYTE   N04  Fs1  v056
 BYTE   W06
 BYTE   Gs1  v036
 BYTE   W06
 BYTE   Gs1  v060
 BYTE   W06
 BYTE   Gs1  v032
 BYTE   W06
 BYTE   N05  Cn1  v100
 BYTE   N04  Gs1  v068
 BYTE   W06
 BYTE   Gs1  v036
 BYTE   W06
 BYTE   Gs1  v060
 BYTE   W06
 BYTE   N11  As1  v056
 BYTE   W06
 BYTE   N05  Cn1  v084
 BYTE   W06
 BYTE   N04  Gs1  v036
 BYTE   W06
 BYTE   N02  Gs1  v016
 BYTE   W03
 BYTE   Gs1  v040
 BYTE   W03
 BYTE   Gs1  v056
 BYTE   W03
 BYTE   Gs1  v072
 BYTE   W03
//  #12 //038   ----------------------------------------
 BYTE   PATT
  POIN2 Label_015F5CDD
//  #12 //039   ----------------------------------------
 BYTE   N05  Cn1  v108
 BYTE   N04  Gs1  v052
 BYTE   W06
 BYTE   Fs1  v076
 BYTE   W06
 BYTE   Gs1  v056
 BYTE   W06
 BYTE   Gs1  v036
 BYTE   W06
 BYTE   N05  Cn1  v100
 BYTE   N04  Fs1  v056
 BYTE   W06
 BYTE   Gs1  v036
 BYTE   W06
 BYTE   Fs1  v072
 BYTE   W06
 BYTE   Fs1  v084
 BYTE   W06
 BYTE   N05  Cn1  v100
 BYTE   N04  Gs1  v036
 BYTE   W06
 BYTE   Fs1  v072
 BYTE   W06
 BYTE   Gs1  v060
 BYTE   W06
 BYTE   N05  Gs1  v040
 BYTE   W06
 BYTE   Cn1  v092
 BYTE   N05  Fs1  v048
 BYTE   W06
 BYTE   As1  v036
 BYTE   W06
 BYTE   N02  Cn1  v064
 BYTE   N05  As1  v056
 BYTE   W04
 BYTE   N02  Cn1  v080
 BYTE   W02
 BYTE   N05  As1  v076
 BYTE   W02
 BYTE   N02  Cn1  v116
 BYTE   W04
//  #12 //040   ----------------------------------------
 BYTE   GoTo
  POIN2 Label_015F588E
 BYTE   FINE

//******************************************************//
	ALIGN 4

song34:
	BYTE	12	// NumTrks
	BYTE	0	// NumBlks
	BYTE	song34_pri	// Priority
	BYTE	song34_rev	// Reverb.
    
	POIN2	song34_grp
    
	POIN2	song34_001
	POIN2	song34_002
	POIN2	song34_003
	POIN2	song34_004
	POIN2	song34_005
	POIN2	song34_006
	POIN2	song34_007
	POIN2	song34_008
	POIN2	song34_009
	POIN2	song34_010
	POIN2	song34_011
	POIN2	song34_012

	
