//Event file generated from Sappy .s format.
	#include "MPlayDef.event"

	#define	song37_grp  voicegroup000
	#define	song37_pri  0
	#define	song37_rev  0
	#define	song37_mvl  127
	#define	song37_key  0
	#define	song37_tbs  1
	#define	song37_exg  0
	#define	song37_cmp  1

	// .rodata
	//	song37
	ALIGN 4


//**************** Track 1 (Midi-Chn.0) ****************//

song37_001:
//  #01 //000   ----------------------------------------
 BYTE   KEYSH   song37_key+0
 BYTE   TEMPO   112*song37_tbs/2
 BYTE   VOICE   68
 BYTE   PAN   c_v+0
 BYTE   VOL   43*song37_mvl/mxv
 BYTE   W96
//  #01 //001   ----------------------------------------
Label_015F5E73:
 BYTE   BEND   c_v-12
 BYTE   TIE  Dn4  v100
 BYTE   W01
 BYTE   BEND   c_v-9
 BYTE   W01
 BYTE   BEND   c_v-4
 BYTE   W01
 BYTE   BEND   c_v-1
 BYTE   W01
 BYTE   BEND   c_v+0
 BYTE   W92
 BYTE   PEND 
//  #01 //002   ----------------------------------------
 BYTE   W48
 BYTE   EOT
 BYTE   N18
 BYTE   W18
 BYTE   Cn4
 BYTE   W18
 BYTE   N12  Bn3
 BYTE   W12
//  #01 //003   ----------------------------------------
Label_015F5E8C:
 BYTE   N36  An3  v100
 BYTE   W36
 BYTE   BEND   c_v-12
 BYTE   N36  Fn4
 BYTE   W01
 BYTE   BEND   c_v-9
 BYTE   W01
 BYTE   BEND   c_v-4
 BYTE   W01
 BYTE   BEND   c_v-1
 BYTE   W01
 BYTE   BEND   c_v+0
 BYTE   W32
 BYTE   N24  En4
 BYTE   W24
 BYTE   PEND 
//  #01 //004   ----------------------------------------
Label_015F5EA2:
 BYTE   N72  Dn4  v100
 BYTE   W84
 BYTE   N06  Bn3
 BYTE   W06
 BYTE   Cn4
 BYTE   W06
//  #01 //005   ----------------------------------------
 BYTE   N48  Dn4
 BYTE   W48
 BYTE   BEND   c_v-12
 BYTE   N48  Gn4
 BYTE   W01
 BYTE   BEND   c_v-9
 BYTE   W01
 BYTE   BEND   c_v-4
 BYTE   W01
 BYTE   BEND   c_v-1
 BYTE   W01
 BYTE   BEND   c_v+0
 BYTE   W44
//  #01 //006   ----------------------------------------
 BYTE   N24
 BYTE   W24
 BYTE   N12  Fn4
 BYTE   W12
 BYTE   N24  Dn4
 BYTE   W24
 BYTE   Cn4
 BYTE   W24
 BYTE   TIE  Dn4
 BYTE   W12
//  #01 //007   ----------------------------------------
 BYTE   W96
//  #01 //008   ----------------------------------------
 BYTE   W96
//  #01 //009   ----------------------------------------
 BYTE   EOT
 BYTE   W96
//  #01 //010   ----------------------------------------
 BYTE   W96
//  #01 //011   ----------------------------------------
 BYTE   W96
//  #01 //012   ----------------------------------------
 BYTE   W24
 BYTE   N24  Cn4
 BYTE   W24
 BYTE   Bn3
 BYTE   W24
 BYTE   An3
 BYTE   W24
//  #01 //013   ----------------------------------------
 BYTE   N96  Gn3
 BYTE   W96
//  #01 //014   ----------------------------------------
 BYTE   W96
//  #01 //015   ----------------------------------------
 BYTE   W72
 BYTE   N12  Bn3
 BYTE   W12
 BYTE   Cn4
 BYTE   W12
//  #01 //016   ----------------------------------------
 BYTE   N36  Dn4
 BYTE   W36
 BYTE   N12  Bn3
 BYTE   W12
 BYTE   N36  An3
 BYTE   W36
 BYTE   N06  Gn3
 BYTE   W06
 BYTE   En3
 BYTE   W06
//  #01 //017   ----------------------------------------
 BYTE   N96  Dn3
 BYTE   W96
//  #01 //018   ----------------------------------------
 BYTE   W96
//  #01 //019   ----------------------------------------
 BYTE   W96
//  #01 //020   ----------------------------------------
 BYTE   W36
 BYTE   N12  Gn4
 BYTE   W12
 BYTE   N36  Fs4
 BYTE   W36
 BYTE   N12  Gn4
 BYTE   W12
//  #01 //021   ----------------------------------------
 BYTE   N96  Dn4
 BYTE   W96
//  #01 //022   ----------------------------------------
 BYTE   W96
//  #01 //023   ----------------------------------------
 BYTE   W96
//  #01 //024   ----------------------------------------
 BYTE   W96
//  #01 //025   ----------------------------------------
 BYTE   W96
//  #01 //026   ----------------------------------------
 BYTE   W96
//  #01 //027   ----------------------------------------
 BYTE   W84
 BYTE   N12  Gn4
 BYTE   W12
//  #01 //028   ----------------------------------------
 BYTE   N18  An4
 BYTE   W18
 BYTE   Gn4
 BYTE   W18
 BYTE   N60  Bn4
 BYTE   W60
//  #01 //029   ----------------------------------------
 BYTE   W96
//  #01 //030   ----------------------------------------
 BYTE   W96
//  #01 //031   ----------------------------------------
 BYTE   W96
//  #01 //032   ----------------------------------------
 BYTE   N48  Fs4
 BYTE   W48
 BYTE   N24  Gn4
 BYTE   W24
 BYTE   N12  Fs4
 BYTE   W12
 BYTE   TIE  En4
 BYTE   W12
//  #01 //033   ----------------------------------------
 BYTE   W96
//  #01 //034   ----------------------------------------
 BYTE   EOT
 BYTE   N96  Dn4
 BYTE   W96
//  #01 //035   ----------------------------------------
 BYTE   W96
//  #01 //036   ----------------------------------------
 BYTE   W96
//  #01 //037   ----------------------------------------
 BYTE   N36  Gn4
 BYTE   W36
 BYTE   N24  Fs4
 BYTE   W24
 BYTE   Gn4
 BYTE   W24
 BYTE   En4
 BYTE   W12
//  #01 //038   ----------------------------------------
 BYTE   W12
 BYTE   Dn4
 BYTE   W24
 BYTE   N24
 BYTE   W60
//  #01 //039   ----------------------------------------
 BYTE   N36  Bn4
 BYTE   W36
 BYTE   Dn4
 BYTE   W36
 BYTE   N24  En4
 BYTE   W24
//  #01 //040   ----------------------------------------
 BYTE   N36
 BYTE   W36
 BYTE   N06  Fs4
 BYTE   W06
 BYTE   En4
 BYTE   W06
 BYTE   N48  Dn4
 BYTE   W48
//  #01 //041   ----------------------------------------
 BYTE   PATT
  POIN2 Label_015F5E73
//  #01 //042   ----------------------------------------
 BYTE   W48
 BYTE   EOT
 BYTE   Dn4
 BYTE   N18  Dn4  v100
 BYTE   W18
 BYTE   Cn4
 BYTE   W18
 BYTE   N12  Bn3
 BYTE   W12
//  #01 //043   ----------------------------------------
 BYTE   PATT
  POIN2 Label_015F5E8C
//  #01 //044   ----------------------------------------
 BYTE   GoTo
  POIN2 Label_015F5EA2
//  #01 //045   ----------------------------------------
 BYTE   BEND   c_v+0
 BYTE   FINE

//**************** Track 2 (Midi-Chn.1) ****************//

song37_002:
//  #02 //000   ----------------------------------------
 BYTE   KEYSH   song37_key+0
 BYTE   VOICE   40
 BYTE   PAN   c_v+0
 BYTE   VOL   50*song37_mvl/mxv
 BYTE   W96
//  #02 //001   ----------------------------------------
 BYTE   W96
//  #02 //002   ----------------------------------------
 BYTE   W96
//  #02 //003   ----------------------------------------
 BYTE   W96
//  #02 //004   ----------------------------------------
Label_015F5F74:
 BYTE   W96
//  #02 //005   ----------------------------------------
 BYTE   W96
//  #02 //006   ----------------------------------------
 BYTE   W96
//  #02 //007   ----------------------------------------
 BYTE   W96
//  #02 //008   ----------------------------------------
 BYTE   W96
//  #02 //009   ----------------------------------------
Label_015F5F79:
 BYTE   W36
 BYTE   N24  Dn3  v127
 BYTE   W24
 BYTE   N06  En3
 BYTE   W06
 BYTE   Dn3
 BYTE   W06
 BYTE   N12  Cn3
 BYTE   W12
 BYTE   N36  Dn3
 BYTE   W12
 BYTE   PEND 
//  #02 //010   ----------------------------------------
 BYTE   W48
 BYTE   N18
 BYTE   W18
 BYTE   Gn3
 BYTE   W18
 BYTE   N24  Fn3
 BYTE   W12
//  #02 //011   ----------------------------------------
 BYTE   W12
 BYTE   En3
 BYTE   W24
 BYTE   Dn3
 BYTE   W24
 BYTE   Cn3
 BYTE   W24
 BYTE   TIE  Dn3
 BYTE   W12
//  #02 //012   ----------------------------------------
 BYTE   W96
//  #02 //013   ----------------------------------------
 BYTE   EOT
 BYTE   W36
 BYTE   N12  Bn2
 BYTE   W12
 BYTE   N18
 BYTE   W18
 BYTE   Dn3
 BYTE   W18
 BYTE   N24  Gn3
 BYTE   W12
//  #02 //014   ----------------------------------------
 BYTE   W12
 BYTE   Fn3
 BYTE   W24
 BYTE   Dn3
 BYTE   W24
 BYTE   Cn3
 BYTE   W24
 BYTE   TIE  Dn3
 BYTE   W12
//  #02 //015   ----------------------------------------
 BYTE   W96
//  #02 //016   ----------------------------------------
 BYTE   W96
//  #02 //017   ----------------------------------------
 BYTE   EOT
//  #02 //018   ----------------------------------------
 BYTE   PATT
  POIN2 Label_015F5F79
//  #02 //019   ----------------------------------------
 BYTE   W48
 BYTE   N18  Dn3  v127
 BYTE   W18
 BYTE   Gn3
 BYTE   W18
 BYTE   N24  An3
 BYTE   W12
//  #02 //020   ----------------------------------------
 BYTE   W12
 BYTE   Gn3
 BYTE   W24
 BYTE   Fn3
 BYTE   W24
 BYTE   Gn3
 BYTE   W24
 BYTE   TIE  Dn3
 BYTE   W12
//  #02 //021   ----------------------------------------
 BYTE   W96
//  #02 //022   ----------------------------------------
 BYTE   EOT
 BYTE   W36
 BYTE   N12
 BYTE   W12
 BYTE   N18
 BYTE   W18
 BYTE   Gn3
 BYTE   W18
 BYTE   N24
 BYTE   W12
//  #02 //023   ----------------------------------------
 BYTE   W12
 BYTE   N06  An3
 BYTE   W06
 BYTE   Gn3
 BYTE   W06
 BYTE   N12  Fs3
 BYTE   W12
 BYTE   N24  Gn3
 BYTE   W24
 BYTE   An3
 BYTE   W24
 BYTE   TIE
 BYTE   W12
//  #02 //024   ----------------------------------------
 BYTE   W96
//  #02 //025   ----------------------------------------
 BYTE   EOT
 BYTE   W36
 BYTE   N24  Dn3
 BYTE   W24
 BYTE   An3
 BYTE   W24
 BYTE   Cn4
 BYTE   W12
//  #02 //026   ----------------------------------------
 BYTE   W12
 BYTE   Bn3
 BYTE   W24
 BYTE   Gn3
 BYTE   W24
 BYTE   Bn3
 BYTE   W24
 BYTE   N96  An3
 BYTE   W12
//  #02 //027   ----------------------------------------
 BYTE   W84
 BYTE   N12  Dn3
 BYTE   W12
//  #02 //028   ----------------------------------------
 BYTE   N18  An3
 BYTE   W18
 BYTE   Gn3
 BYTE   W18
 BYTE   TIE  Bn3
 BYTE   W60
//  #02 //029   ----------------------------------------
 BYTE   W96
//  #02 //030   ----------------------------------------
 BYTE   EOT
Label_015F600C:
 BYTE   N18  Cn4  v127
 BYTE   W18
 BYTE   Bn3
 BYTE   W18
 BYTE   N36  Gn3
 BYTE   W36
 BYTE   N12  Bn3
 BYTE   W12
 BYTE   N48  An3
 BYTE   W12
 BYTE   PEND 
//  #02 //031   ----------------------------------------
Label_015F601C:
 BYTE   W36
 BYTE   N24  Dn3  v127
 BYTE   W24
 BYTE   N24
 BYTE   W24
 BYTE   N12
 BYTE   W12
 BYTE   PEND 
//  #02 //032   ----------------------------------------
 BYTE   N36  Dn4
 BYTE   W36
 BYTE   TIE  Gn3
 BYTE   W60
//  #02 //033   ----------------------------------------
 BYTE   W96
//  #02 //034   ----------------------------------------
 BYTE   EOT
//  #02 //035   ----------------------------------------
 BYTE   PATT
  POIN2 Label_015F600C
//  #02 //036   ----------------------------------------
 BYTE   PATT
  POIN2 Label_015F601C
//  #02 //037   ----------------------------------------
 BYTE   N18  An3  v127
 BYTE   W18
 BYTE   Bn3
 BYTE   W18
 BYTE   TIE  Gn3
 BYTE   W60
//  #02 //038   ----------------------------------------
 BYTE   W96
//  #02 //039   ----------------------------------------
 BYTE   EOT
 BYTE   N36  Bn3
 BYTE   W36
 BYTE   N24  An3
 BYTE   W24
 BYTE   Bn3
 BYTE   W24
 BYTE   N84  Gn3
 BYTE   W12
//  #02 //040   ----------------------------------------
 BYTE   W96
//  #02 //041   ----------------------------------------
 BYTE   N36  Bn3
 BYTE   W36
 BYTE   Dn3
 BYTE   W36
 BYTE   N24  En3
 BYTE   W24
//  #02 //042   ----------------------------------------
 BYTE   N36
 BYTE   W36
 BYTE   N06  Fs3
 BYTE   W06
 BYTE   En3
 BYTE   W06
 BYTE   N48  Dn3
 BYTE   W48
//  #02 //043   ----------------------------------------
 BYTE   W96
//  #02 //044   ----------------------------------------
 BYTE   W96
//  #02 //045   ----------------------------------------
 BYTE   W96
//  #02 //046   ----------------------------------------
 BYTE   GoTo
  POIN2 Label_015F5F74
 BYTE   FINE

//**************** Track 3 (Midi-Chn.2) ****************//

song37_003:
//  #03 //000   ----------------------------------------
 BYTE   KEYSH   song37_key+0
 BYTE   VOICE   24
 BYTE   VOL   37*song37_mvl/mxv
 BYTE   PAN   c_v+0
 BYTE   W96
//  #03 //001   ----------------------------------------
Label_015F6075:
 BYTE   N12  Gn1  v100
 BYTE   W12
 BYTE   Dn2
 BYTE   W12
 BYTE   Gn2
 BYTE   W12
 BYTE   N24  An2
 BYTE   W24
 BYTE   N12  Dn2
 BYTE   W12
 BYTE   Gn2
 BYTE   W12
 BYTE   Dn3
 BYTE   W12
 BYTE   PEND 
//  #03 //002   ----------------------------------------
 BYTE   PATT
  POIN2 Label_015F6075
//  #03 //003   ----------------------------------------
Label_015F608D:
 BYTE   N12  Fn1  v100
 BYTE   W12
 BYTE   Cn2
 BYTE   W12
 BYTE   Fn2
 BYTE   W12
 BYTE   N24  Gn2
 BYTE   W24
 BYTE   N12  Cn2
 BYTE   W12
 BYTE   Fn2
 BYTE   W12
 BYTE   Cn3
 BYTE   W12
 BYTE   PEND 
//  #03 //004   ----------------------------------------
Label_015F60A0:
//  #03 //005   ----------------------------------------
 BYTE   PATT
  POIN2 Label_015F6075
//  #03 //006   ----------------------------------------
 BYTE   N12  Gn1  v100
 BYTE   W12
 BYTE   En2
 BYTE   W12
 BYTE   Fs2
 BYTE   W12
 BYTE   N24  Gn2
 BYTE   W24
 BYTE   Dn3
 BYTE   W24
 BYTE   N12  Gn2
 BYTE   W12
//  #03 //007   ----------------------------------------
 BYTE   Gn1
 BYTE   W12
 BYTE   Ds2
 BYTE   W12
 BYTE   Gn2
 BYTE   W12
 BYTE   N24  As2
 BYTE   W24
 BYTE   Ds3
 BYTE   W24
 BYTE   N12  As2
 BYTE   W12
//  #03 //008   ----------------------------------------
 BYTE   Dn2
 BYTE   W12
 BYTE   Gn2
 BYTE   W12
 BYTE   An2
 BYTE   W12
 BYTE   N24  Dn3
 BYTE   W24
 BYTE   An2
 BYTE   W24
 BYTE   N12  Gn2
 BYTE   W12
//  #03 //009   ----------------------------------------
Label_015F60D1:
 BYTE   N96  Dn2  v100
 BYTE   N92  Fs2
 BYTE   W01
 BYTE   An2
 BYTE   W01
 BYTE   Dn3
 BYTE   W92
 BYTE   W02
 BYTE   PEND 
//  #03 //010   ----------------------------------------
 BYTE   PATT
  POIN2 Label_015F6075
//  #03 //011   ----------------------------------------
 BYTE   PATT
  POIN2 Label_015F6075
//  #03 //012   ----------------------------------------
 BYTE   PATT
  POIN2 Label_015F608D
//  #03 //013   ----------------------------------------
 BYTE   N12  Gn1  v100
 BYTE   W12
 BYTE   Dn2
 BYTE   W12
 BYTE   Gn2
 BYTE   W12
 BYTE   N24  Bn2
 BYTE   W24
 BYTE   N12  Dn2
 BYTE   W12
 BYTE   Gn2
 BYTE   W12
 BYTE   An2
 BYTE   W12
//  #03 //014   ----------------------------------------
 BYTE   En1
 BYTE   W12
 BYTE   En2
 BYTE   W12
 BYTE   Fs2
 BYTE   W12
 BYTE   N24  Gn2
 BYTE   W24
 BYTE   Bn2
 BYTE   W24
 BYTE   N12  Dn3
 BYTE   W12
//  #03 //015   ----------------------------------------
 BYTE   Gn1
 BYTE   W12
 BYTE   As1
 BYTE   W12
 BYTE   Ds2
 BYTE   W12
 BYTE   N24  Gn2
 BYTE   W24
 BYTE   N12  As1
 BYTE   W12
 BYTE   Ds2
 BYTE   W12
 BYTE   As2
 BYTE   W12
//  #03 //016   ----------------------------------------
 BYTE   An1
 BYTE   W12
 BYTE   Dn2
 BYTE   W12
 BYTE   Gn2
 BYTE   W12
 BYTE   N24  An2
 BYTE   W24
 BYTE   N12  Dn2
 BYTE   W12
 BYTE   An2
 BYTE   W12
 BYTE   Dn3
 BYTE   W12
//  #03 //017   ----------------------------------------
 BYTE   An1
 BYTE   W12
 BYTE   Dn2
 BYTE   W12
 BYTE   Fs2
 BYTE   W12
 BYTE   N24  An2
 BYTE   W24
 BYTE   N12  Dn2
 BYTE   W12
 BYTE   Fs2
 BYTE   W12
 BYTE   Dn3
 BYTE   W12
//  #03 //018   ----------------------------------------
 BYTE   PATT
  POIN2 Label_015F6075
//  #03 //019   ----------------------------------------
 BYTE   PATT
  POIN2 Label_015F6075
//  #03 //020   ----------------------------------------
 BYTE   PATT
  POIN2 Label_015F608D
//  #03 //021   ----------------------------------------
 BYTE   N12  Gn1  v100
 BYTE   W12
 BYTE   Dn2
 BYTE   W12
 BYTE   Gn2
 BYTE   W12
 BYTE   N24  An2
 BYTE   W24
 BYTE   N12  Dn3
 BYTE   W12
 BYTE   Cn3
 BYTE   W12
 BYTE   Bn2
 BYTE   W12
//  #03 //022   ----------------------------------------
 BYTE   En1
 BYTE   W12
 BYTE   En2
 BYTE   W12
 BYTE   Gn2
 BYTE   W12
 BYTE   N24  Bn2
 BYTE   W24
 BYTE   N12  En2
 BYTE   W12
 BYTE   Gn2
 BYTE   W12
 BYTE   Dn3
 BYTE   W12
//  #03 //023   ----------------------------------------
 BYTE   Cn2
 BYTE   W12
 BYTE   Gn2
 BYTE   W12
 BYTE   Cn3
 BYTE   W12
 BYTE   N24  Dn3
 BYTE   W24
 BYTE   N12  Gn2
 BYTE   W12
 BYTE   Cn3
 BYTE   W12
 BYTE   En3
 BYTE   W12
//  #03 //024   ----------------------------------------
 BYTE   Dn2
 BYTE   W12
 BYTE   Gn2
 BYTE   W12
 BYTE   An2
 BYTE   W12
 BYTE   N24  Dn3
 BYTE   W24
 BYTE   An2
 BYTE   W24
 BYTE   Dn3
 BYTE   W12
//  #03 //025   ----------------------------------------
 BYTE   W24
 BYTE   Dn2
 BYTE   N23  Gn2
 BYTE   W01
 BYTE   N22  An2
 BYTE   W01
 BYTE   N21  Dn3
 BYTE   W22
 BYTE   N48  Dn2
 BYTE   N44  Gn2
 BYTE   W01
 BYTE   An2
 BYTE   W01
 BYTE   Dn3
 BYTE   W44
 BYTE   W02
//  #03 //026   ----------------------------------------
Label_015F619F:
 BYTE   N18  Cn2  v080
 BYTE   N17  En2
 BYTE   W01
 BYTE   N16  Gn2
 BYTE   W01
 BYTE   N15  Cn3
 BYTE   W16
 BYTE   N12  Cn2
 BYTE   N11  En2
 BYTE   W01
 BYTE   N10  Gn2
 BYTE   W01
 BYTE   N09  Cn3
 BYTE   W16
 BYTE   N24  Cn2
 BYTE   N23  En2
 BYTE   W01
 BYTE   N22  Gn2
 BYTE   W01
 BYTE   N21  Cn3
 BYTE   W22
 BYTE   N12  Cn2
 BYTE   N11  En2
 BYTE   W01
 BYTE   N10  Gn2
 BYTE   W01
 BYTE   N09  Cn3
 BYTE   W10
 BYTE   N24  Cn2
 BYTE   N23  En2
 BYTE   W01
 BYTE   N22  Gn2
 BYTE   W01
 BYTE   N21  Cn3
 BYTE   W22
 BYTE   PEND 
//  #03 //027   ----------------------------------------
Label_015F61D8:
 BYTE   N18  Dn2  v080
 BYTE   N17  Fs2
 BYTE   W01
 BYTE   N16  An2
 BYTE   W01
 BYTE   N15  Dn3
 BYTE   W16
 BYTE   N12  Dn2
 BYTE   N11  Fs2
 BYTE   W01
 BYTE   N10  An2
 BYTE   W01
 BYTE   N09  Dn3
 BYTE   W16
 BYTE   N24  Dn2
 BYTE   N23  Fs2
 BYTE   W01
 BYTE   N22  An2
 BYTE   W01
 BYTE   N21  Dn3
 BYTE   W22
 BYTE   N12  Dn2
 BYTE   N11  Fs2
 BYTE   W01
 BYTE   N10  An2
 BYTE   W01
 BYTE   N09  Dn3
 BYTE   W10
 BYTE   N24  Dn2
 BYTE   N23  Fs2
 BYTE   W01
 BYTE   N22  An2
 BYTE   W01
 BYTE   N21  Dn3
 BYTE   W22
 BYTE   PEND 
//  #03 //028   ----------------------------------------
Label_015F6211:
 BYTE   N18  En2  v080
 BYTE   N17  Gn2
 BYTE   W01
 BYTE   N16  Bn2
 BYTE   W01
 BYTE   N15  En3
 BYTE   W16
 BYTE   N12  En2
 BYTE   N11  Gn2
 BYTE   W01
 BYTE   N10  Bn2
 BYTE   W01
 BYTE   N09  En3
 BYTE   W16
 BYTE   N24  En2
 BYTE   N23  Gn2
 BYTE   W01
 BYTE   N22  Bn2
 BYTE   W01
 BYTE   N21  En3
 BYTE   W22
 BYTE   N12  En2
 BYTE   N11  Gn2
 BYTE   W01
 BYTE   N10  Bn2
 BYTE   W01
 BYTE   N09  En3
 BYTE   W10
 BYTE   N24  En2
 BYTE   N23  Gn2
 BYTE   W01
 BYTE   N22  Bn2
 BYTE   W01
 BYTE   N21  En3
 BYTE   W22
 BYTE   PEND 
//  #03 //029   ----------------------------------------
 BYTE   PATT
  POIN2 Label_015F6211
//  #03 //030   ----------------------------------------
 BYTE   PATT
  POIN2 Label_015F619F
//  #03 //031   ----------------------------------------
 BYTE   PATT
  POIN2 Label_015F61D8
//  #03 //032   ----------------------------------------
 BYTE   PATT
  POIN2 Label_015F6211
//  #03 //033   ----------------------------------------
 BYTE   PATT
  POIN2 Label_015F6211
//  #03 //034   ----------------------------------------
 BYTE   PATT
  POIN2 Label_015F619F
//  #03 //035   ----------------------------------------
 BYTE   PATT
  POIN2 Label_015F61D8
//  #03 //036   ----------------------------------------
 BYTE   N18  Gn2  v080
 BYTE   N17  Bn2
 BYTE   W01
 BYTE   N16  Dn3
 BYTE   W01
 BYTE   N15  Gn3
 BYTE   W16
 BYTE   N12  Gn2
 BYTE   N11  Bn2
 BYTE   W01
 BYTE   N10  Dn3
 BYTE   W01
 BYTE   N09  Gn3
 BYTE   W16
 BYTE   N24  Gn2
 BYTE   N23  Bn2
 BYTE   W01
 BYTE   N22  Dn3
 BYTE   W01
 BYTE   N21  Gn3
 BYTE   W22
 BYTE   N12  Gn2
 BYTE   N11  Bn2
 BYTE   W01
 BYTE   N10  Dn3
 BYTE   W01
 BYTE   N09  Gn3
 BYTE   W10
 BYTE   N24  Gn2
 BYTE   N23  Bn2
 BYTE   W01
 BYTE   N22  Dn3
 BYTE   W01
 BYTE   N21  Gn3
 BYTE   W22
//  #03 //037   ----------------------------------------
 BYTE   PATT
  POIN2 Label_015F6211
//  #03 //038   ----------------------------------------
 BYTE   PATT
  POIN2 Label_015F619F
//  #03 //039   ----------------------------------------
 BYTE   PATT
  POIN2 Label_015F619F
//  #03 //040   ----------------------------------------
 BYTE   N18  An1  v080
 BYTE   N17  Cn2
 BYTE   W01
 BYTE   N16  En2
 BYTE   W01
 BYTE   N15  An2
 BYTE   W16
 BYTE   N12  An1
 BYTE   N11  Cn2
 BYTE   W01
 BYTE   N10  En2
 BYTE   W01
 BYTE   N09  An2
 BYTE   W16
 BYTE   N24  An1
 BYTE   N23  Cn2
 BYTE   W01
 BYTE   N22  En2
 BYTE   W01
 BYTE   N21  An2
 BYTE   W22
 BYTE   N12  An1
 BYTE   N11  Cn2
 BYTE   W01
 BYTE   N10  En2
 BYTE   W01
 BYTE   N09  An2
 BYTE   W10
 BYTE   N24  An1
 BYTE   N23  Cn2
 BYTE   W01
 BYTE   N22  En2
 BYTE   W01
 BYTE   N21  An2
 BYTE   W22
//  #03 //041   ----------------------------------------
 BYTE   PATT
  POIN2 Label_015F60D1
//  #03 //042   ----------------------------------------
 BYTE   PATT
  POIN2 Label_015F6075
//  #03 //043   ----------------------------------------
 BYTE   PATT
  POIN2 Label_015F6075
//  #03 //044   ----------------------------------------
 BYTE   PATT
  POIN2 Label_015F608D
//  #03 //045   ----------------------------------------
 BYTE   GoTo
  POIN2 Label_015F60A0
 BYTE   FINE

//**************** Track 4 (Midi-Chn.3) ****************//

song37_004:
//  #04 //000   ----------------------------------------
 BYTE   KEYSH   song37_key+0
 BYTE   VOICE   33
 BYTE   VOL   32*song37_mvl/mxv
 BYTE   PAN   c_v+0
 BYTE   W96
//  #04 //001   ----------------------------------------
Label_015F6311:
 BYTE   N84  Gn1  v100
 BYTE   W84
 BYTE   N12  Dn2
 BYTE   W12
 BYTE   PEND 
//  #04 //002   ----------------------------------------
Label_015F6319:
 BYTE   N84  Gn2  v100
 BYTE   W84
 BYTE   N12  Dn2
 BYTE   W12
 BYTE   PEND 
//  #04 //003   ----------------------------------------
Label_015F6321:
 BYTE   N36  Fn1  v100
 BYTE   W36
 BYTE   N48  Cn2
 BYTE   W48
 BYTE   N12  Fn1
 BYTE   W12
 BYTE   PEND 
//  #04 //004   ----------------------------------------
Label_015F632C:
 BYTE   N36  Gn1  v100
 BYTE   W36
 BYTE   N24  Dn2
 BYTE   W24
 BYTE   Gn2
 BYTE   W24
 BYTE   N12  Dn2
 BYTE   W12
//  #04 //005   ----------------------------------------
 BYTE   N18  En1
 BYTE   W18
 BYTE   Bn1
 BYTE   W18
 BYTE   N48  En2
 BYTE   W48
 BYTE   N12  Bn1
 BYTE   W12
//  #04 //006   ----------------------------------------
 BYTE   N18  Ds2
 BYTE   W18
 BYTE   Gn1
 BYTE   W18
 BYTE   N30  Ds2
 BYTE   W24
 BYTE   As2
 BYTE   W24
 BYTE   N12  Ds2
 BYTE   W12
//  #04 //007   ----------------------------------------
 BYTE   N18  Dn2
 BYTE   W18
 BYTE   An1
 BYTE   W18
 BYTE   N24  Dn2
 BYTE   W24
 BYTE   An2
 BYTE   W24
 BYTE   N12  Gn2
 BYTE   W12
//  #04 //008   ----------------------------------------
 BYTE   N60  Fs2
 BYTE   W60
 BYTE   N12  En2
 BYTE   W12
 BYTE   Dn2
 BYTE   W12
 BYTE   An1
 BYTE   W12
//  #04 //009   ----------------------------------------
Label_015F6367:
 BYTE   N18  Gn1  v100
 BYTE   W18
 BYTE   N12
 BYTE   W18
 BYTE   N48
 BYTE   W48
 BYTE   N12  Dn2
 BYTE   W12
 BYTE   PEND 
//  #04 //010   ----------------------------------------
 BYTE   PATT
  POIN2 Label_015F6367
//  #04 //011   ----------------------------------------
Label_015F6378:
 BYTE   N18  Fn1  v100
 BYTE   W18
 BYTE   N12
 BYTE   W18
 BYTE   N48
 BYTE   W48
 BYTE   N12  Cn2
 BYTE   W12
 BYTE   PEND 
//  #04 //012   ----------------------------------------
 BYTE   N18  Gn1
 BYTE   W18
 BYTE   N12
 BYTE   W18
 BYTE   N24  Dn2
 BYTE   W24
 BYTE   An2
 BYTE   W24
 BYTE   N06  Dn2
 BYTE   W06
 BYTE   Gn1
 BYTE   W06
//  #04 //013   ----------------------------------------
 BYTE   N18  En1
 BYTE   W18
 BYTE   N12
 BYTE   W18
 BYTE   N24
 BYTE   W24
 BYTE   Bn1
 BYTE   W24
 BYTE   N12  En2
 BYTE   W12
//  #04 //014   ----------------------------------------
 BYTE   N18  Ds2
 BYTE   W18
 BYTE   As1
 BYTE   W18
 BYTE   N24  Ds2
 BYTE   W24
 BYTE   As2
 BYTE   W24
 BYTE   N12  Ds2
 BYTE   W12
//  #04 //015   ----------------------------------------
 BYTE   N18  Dn2
 BYTE   W18
 BYTE   An1
 BYTE   W18
 BYTE   N24  Dn2
 BYTE   W24
 BYTE   An2
 BYTE   W24
 BYTE   Dn3
 BYTE   W12
//  #04 //016   ----------------------------------------
 BYTE   W12
 BYTE   An2
 BYTE   W24
 BYTE   Dn2
 BYTE   W24
 BYTE   N12  An1
 BYTE   W12
 BYTE   N24  Dn2
 BYTE   W24
//  #04 //017   ----------------------------------------
 BYTE   PATT
  POIN2 Label_015F6367
//  #04 //018   ----------------------------------------
 BYTE   N18  Gn1  v100
 BYTE   W18
 BYTE   N12
 BYTE   W18
 BYTE   N24  Gn2
 BYTE   W24
 BYTE   Dn2
 BYTE   W24
 BYTE   N12  Gn1
 BYTE   W12
//  #04 //019   ----------------------------------------
 BYTE   PATT
  POIN2 Label_015F6378
//  #04 //020   ----------------------------------------
 BYTE   N18  Gn1  v100
 BYTE   W18
 BYTE   N12
 BYTE   W18
 BYTE   N24  Dn2
 BYTE   W24
 BYTE   Gn2
 BYTE   W24
 BYTE   N12  Dn2
 BYTE   W12
//  #04 //021   ----------------------------------------
 BYTE   N18  En1
 BYTE   W18
 BYTE   N12
 BYTE   W18
 BYTE   N24  Bn1
 BYTE   W24
 BYTE   En2
 BYTE   W24
 BYTE   N12  Bn1
 BYTE   W12
//  #04 //022   ----------------------------------------
 BYTE   N18  Cn2
 BYTE   W18
 BYTE   Gn1
 BYTE   W18
 BYTE   N24  Cn2
 BYTE   W24
 BYTE   Gn2
 BYTE   W24
 BYTE   N12  Cn2
 BYTE   W12
//  #04 //023   ----------------------------------------
 BYTE   N18  Dn2
 BYTE   W18
 BYTE   An1
 BYTE   W18
 BYTE   N24  Dn2
 BYTE   W24
 BYTE   An2
 BYTE   W24
 BYTE   Dn2
 BYTE   W12
//  #04 //024   ----------------------------------------
 BYTE   W12
 BYTE   N12  Dn3
 BYTE   W12
 BYTE   Cn3
 BYTE   W12
 BYTE   N24  Bn2
 BYTE   W24
 BYTE   Gn2
 BYTE   W24
 BYTE   N12  An2
 BYTE   W12
//  #04 //025   ----------------------------------------
Label_015F641D:
 BYTE   N18  Cn2  v100
 BYTE   W18
 BYTE   N12  Gn1
 BYTE   W18
 BYTE   N24  Cn2
 BYTE   W24
 BYTE   Gn2
 BYTE   W24
 BYTE   N12  Cn2
 BYTE   W12
 BYTE   PEND 
//  #04 //026   ----------------------------------------
Label_015F642D:
 BYTE   N18  Dn2  v100
 BYTE   W18
 BYTE   N12  An1
 BYTE   W18
 BYTE   N24  Dn2
 BYTE   W24
 BYTE   An2
 BYTE   W24
 BYTE   N12  Dn2
 BYTE   W12
 BYTE   PEND 
//  #04 //027   ----------------------------------------
 BYTE   N18  En2
 BYTE   W18
 BYTE   N12  Bn1
 BYTE   W18
 BYTE   N24  En2
 BYTE   W24
 BYTE   Bn2
 BYTE   W24
 BYTE   En3
 BYTE   W12
//  #04 //028   ----------------------------------------
 BYTE   W12
 BYTE   N12  Dn3
 BYTE   W12
 BYTE   Bn2
 BYTE   W12
 BYTE   N24  Dn2
 BYTE   W24
 BYTE   N12
 BYTE   W12
 BYTE   N24  Gn2
 BYTE   W24
//  #04 //029   ----------------------------------------
 BYTE   PATT
  POIN2 Label_015F641D
//  #04 //030   ----------------------------------------
 BYTE   PATT
  POIN2 Label_015F642D
//  #04 //031   ----------------------------------------
 BYTE   N18  En2  v100
 BYTE   W18
 BYTE   N12  Bn1
 BYTE   W18
 BYTE   N24  En2
 BYTE   W24
 BYTE   Bn2
 BYTE   W24
 BYTE   N12  En2
 BYTE   W12
//  #04 //032   ----------------------------------------
 BYTE   N18  En3
 BYTE   W18
 BYTE   Fs3
 BYTE   W18
 BYTE   N24  En3
 BYTE   W24
 BYTE   N12  Bn2
 BYTE   W12
 BYTE   N24  En2
 BYTE   W24
//  #04 //033   ----------------------------------------
 BYTE   N18  Cn2
 BYTE   W18
 BYTE   N12
 BYTE   W18
 BYTE   N24
 BYTE   W24
 BYTE   Gn2
 BYTE   W24
 BYTE   N12  Cn2
 BYTE   W12
//  #04 //034   ----------------------------------------
 BYTE   N18  Dn2
 BYTE   W18
 BYTE   N12
 BYTE   W18
 BYTE   N24
 BYTE   W24
 BYTE   An2
 BYTE   W24
 BYTE   N12  Dn2
 BYTE   W12
//  #04 //035   ----------------------------------------
 BYTE   N18  Gn2
 BYTE   W18
 BYTE   N12
 BYTE   W18
 BYTE   N48
 BYTE   W48
 BYTE   N12
 BYTE   W12
//  #04 //036   ----------------------------------------
 BYTE   N18  En2
 BYTE   W18
 BYTE   N12  Bn2
 BYTE   W18
 BYTE   N24
 BYTE   W24
 BYTE   N12  En2
 BYTE   W12
 BYTE   N24  Bn2
 BYTE   W24
//  #04 //037   ----------------------------------------
 BYTE   N18  Cn2
 BYTE   W18
 BYTE   N12
 BYTE   W18
 BYTE   N24
 BYTE   W24
 BYTE   Cn3
 BYTE   W24
 BYTE   N12  Cn2
 BYTE   W12
//  #04 //038   ----------------------------------------
 BYTE   N18  Cn3
 BYTE   W18
 BYTE   N12  Cn2
 BYTE   W18
 BYTE   N24
 BYTE   W24
 BYTE   Cn3
 BYTE   W24
 BYTE   N12  Cn2
 BYTE   W12
//  #04 //039   ----------------------------------------
 BYTE   N18  An1
 BYTE   W18
 BYTE   N12
 BYTE   W18
 BYTE   N24
 BYTE   W24
 BYTE   En2
 BYTE   W24
 BYTE   N12  An1
 BYTE   W12
//  #04 //040   ----------------------------------------
 BYTE   N72  Dn2
 BYTE   W72
 BYTE   N24  An1
 BYTE   W24
//  #04 //041   ----------------------------------------
 BYTE   PATT
  POIN2 Label_015F6311
//  #04 //042   ----------------------------------------
 BYTE   PATT
  POIN2 Label_015F6319
//  #04 //043   ----------------------------------------
 BYTE   PATT
  POIN2 Label_015F6321
//  #04 //044   ----------------------------------------
 BYTE   GoTo
  POIN2 Label_015F632C
 BYTE   FINE

//**************** Track 5 (Midi-Chn.4) ****************//

song37_005:
//  #05 //000   ----------------------------------------
 BYTE   KEYSH   song37_key+0
 BYTE   VOICE   48
 BYTE   PAN   c_v+0
 BYTE   VOL   20*song37_mvl/mxv
 BYTE   W96
//  #05 //001   ----------------------------------------
 BYTE   W96
//  #05 //002   ----------------------------------------
 BYTE   W96
//  #05 //003   ----------------------------------------
 BYTE   W96
//  #05 //004   ----------------------------------------
Label_015F4894:
 BYTE   W96
//  #05 //005   ----------------------------------------
 BYTE   W96
//  #05 //006   ----------------------------------------
 BYTE   W96
//  #05 //007   ----------------------------------------
 BYTE   W96
//  #05 //008   ----------------------------------------
 BYTE   W96
//  #05 //009   ----------------------------------------
Label_015F4899:
 BYTE   N24  Gn3  v068
 BYTE   N24  An3
 BYTE   N24  Dn4
 BYTE   W36
 BYTE   Gn3
 BYTE   N24  An3
 BYTE   N24  Dn4
 BYTE   W60
 BYTE   PEND 
//  #05 //010   ----------------------------------------
 BYTE   PATT
  POIN2 Label_015F4899
//  #05 //011   ----------------------------------------
Label_015F48AD:
 BYTE   N24  Fn3  v068
 BYTE   N24  Gn3
 BYTE   N24  Cn4
 BYTE   W36
 BYTE   Fn3
 BYTE   N24  Gn3
 BYTE   N24  Cn4
 BYTE   W60
 BYTE   PEND 
//  #05 //012   ----------------------------------------
 BYTE   PATT
  POIN2 Label_015F4899
//  #05 //013   ----------------------------------------
Label_015F48C1:
 BYTE   N24  Gn3  v068
 BYTE   N24  Bn3
 BYTE   N24  Dn4
 BYTE   W36
 BYTE   Gn3
 BYTE   N24  Bn3
 BYTE   N24  Dn4
 BYTE   W60
 BYTE   PEND 
//  #05 //014   ----------------------------------------
 BYTE   Gn3
 BYTE   N24  As3
 BYTE   N24  Dn4
 BYTE   W36
 BYTE   Gn3
 BYTE   N24  As3
 BYTE   N24  Dn4
 BYTE   W60
//  #05 //015   ----------------------------------------
 BYTE   PATT
  POIN2 Label_015F4899
//  #05 //016   ----------------------------------------
Label_015F48E1:
 BYTE   N24  Fs3  v068
 BYTE   N24  An3
 BYTE   N24  Dn4
 BYTE   W36
 BYTE   Fs3
 BYTE   N24  An3
 BYTE   N24  Dn4
 BYTE   W60
 BYTE   PEND 
//  #05 //017   ----------------------------------------
 BYTE   PATT
  POIN2 Label_015F4899
//  #05 //018   ----------------------------------------
 BYTE   PATT
  POIN2 Label_015F4899
//  #05 //019   ----------------------------------------
 BYTE   PATT
  POIN2 Label_015F48AD
//  #05 //020   ----------------------------------------
 BYTE   PATT
  POIN2 Label_015F4899
//  #05 //021   ----------------------------------------
 BYTE   PATT
  POIN2 Label_015F48C1
//  #05 //022   ----------------------------------------
 BYTE   N24  En3  v068
 BYTE   N24  Gn3
 BYTE   N24  Cn4
 BYTE   W36
 BYTE   En3
 BYTE   N24  Gn3
 BYTE   N24  Cn4
 BYTE   W60
//  #05 //023   ----------------------------------------
 BYTE   PATT
  POIN2 Label_015F4899
//  #05 //024   ----------------------------------------
 BYTE   PATT
  POIN2 Label_015F48E1
//  #05 //025   ----------------------------------------
 BYTE   W96
//  #05 //026   ----------------------------------------
 BYTE   W96
//  #05 //027   ----------------------------------------
 BYTE   W96
//  #05 //028   ----------------------------------------
 BYTE   W96
//  #05 //029   ----------------------------------------
 BYTE   W96
//  #05 //030   ----------------------------------------
 BYTE   W96
//  #05 //031   ----------------------------------------
 BYTE   W96
//  #05 //032   ----------------------------------------
 BYTE   W96
//  #05 //033   ----------------------------------------
 BYTE   W96
//  #05 //034   ----------------------------------------
 BYTE   W96
//  #05 //035   ----------------------------------------
 BYTE   W96
//  #05 //036   ----------------------------------------
 BYTE   W96
//  #05 //037   ----------------------------------------
 BYTE   W96
//  #05 //038   ----------------------------------------
 BYTE   W96
//  #05 //039   ----------------------------------------
 BYTE   W96
//  #05 //040   ----------------------------------------
 BYTE   W96
//  #05 //041   ----------------------------------------
 BYTE   W96
//  #05 //042   ----------------------------------------
 BYTE   W96
//  #05 //043   ----------------------------------------
 BYTE   W96
//  #05 //044   ----------------------------------------
 BYTE   GoTo
  POIN2 Label_015F4894
 BYTE   FINE

//**************** Track 6 (Midi-Chn.5) ****************//

song37_006:
//  #06 //000   ----------------------------------------
 BYTE   KEYSH   song37_key+0
 BYTE   VOICE   49
 BYTE   PAN   c_v+0
 BYTE   VOL   25*song37_mvl/mxv
 BYTE   W96
//  #06 //001   ----------------------------------------
Label_01047C09:
 BYTE   TIE  Gn3  v100
 BYTE   TIE  An3
 BYTE   W96
 BYTE   PEND 
//  #06 //002   ----------------------------------------
 BYTE   W96
//  #06 //003   ----------------------------------------
 BYTE   EOT
 BYTE   Gn3
 BYTE   N96  Fn3
 BYTE   W96
//  #06 //004   ----------------------------------------
 BYTE   EOT
 BYTE   An3
Label_01047C18:
 BYTE   TIE  Gn3  v100
 BYTE   N48  Bn3
 BYTE   W48
 BYTE   An3
 BYTE   W48
//  #06 //005   ----------------------------------------
 BYTE   N96  En3
 BYTE   W96
//  #06 //006   ----------------------------------------
 BYTE   Ds3
 BYTE   W96
//  #06 //007   ----------------------------------------
 BYTE   TIE  An3
 BYTE   W96
//  #06 //008   ----------------------------------------
 BYTE   EOT
 BYTE   Gn3
 BYTE   N96  Fs3
 BYTE   W96
//  #06 //009   ----------------------------------------
 BYTE   EOT
 BYTE   An3
 BYTE   W96
//  #06 //010   ----------------------------------------
 BYTE   W96
//  #06 //011   ----------------------------------------
 BYTE   W96
//  #06 //012   ----------------------------------------
 BYTE   W96
//  #06 //013   ----------------------------------------
 BYTE   W96
//  #06 //014   ----------------------------------------
 BYTE   W96
//  #06 //015   ----------------------------------------
 BYTE   W96
//  #06 //016   ----------------------------------------
 BYTE   W96
//  #06 //017   ----------------------------------------
 BYTE   W96
//  #06 //018   ----------------------------------------
 BYTE   W96
//  #06 //019   ----------------------------------------
 BYTE   W96
//  #06 //020   ----------------------------------------
 BYTE   W96
//  #06 //021   ----------------------------------------
 BYTE   W96
//  #06 //022   ----------------------------------------
 BYTE   W96
//  #06 //023   ----------------------------------------
 BYTE   W96
//  #06 //024   ----------------------------------------
 BYTE   W96
//  #06 //025   ----------------------------------------
 BYTE   N96  Gn3  v127
 BYTE   N96  Dn4
 BYTE   W96
//  #06 //026   ----------------------------------------
 BYTE   Fs3
 BYTE   N96  An3
 BYTE   W96
//  #06 //027   ----------------------------------------
Label_01047C49:
 BYTE   TIE  Gn3  v127
 BYTE   TIE  Bn3
 BYTE   W96
 BYTE   PEND 
//  #06 //028   ----------------------------------------
 BYTE   W96
//  #06 //029   ----------------------------------------
 BYTE   EOT
 BYTE   Gn3  v071
 BYTE   N96  Gn3
 BYTE   N96  Dn4
 BYTE   W96
//  #06 //030   ----------------------------------------
 BYTE   Fs3
 BYTE   N96  An3
 BYTE   W96
//  #06 //031   ----------------------------------------
 BYTE   PATT
  POIN2 Label_01047C49
//  #06 //032   ----------------------------------------
 BYTE   W96
//  #06 //033   ----------------------------------------
 BYTE   EOT
 BYTE   Gn3  v071
 BYTE   N96  Gn3  v127
 BYTE   N96  Dn4
 BYTE   W96
//  #06 //034   ----------------------------------------
 BYTE   Fs3
 BYTE   N96  An3
 BYTE   W96
//  #06 //035   ----------------------------------------
 BYTE   TIE  Gn3
 BYTE   N72  Bn3
 BYTE   W72
 BYTE   N24  Cn4
 BYTE   W24
//  #06 //036   ----------------------------------------
 BYTE   N48  Dn4
 BYTE   W48
 BYTE   EOT
 BYTE   Gn3
 BYTE   N48  En4
 BYTE   N48  Gn4
 BYTE   W48
//  #06 //037   ----------------------------------------
 BYTE   TIE  Cn4
 BYTE   TIE  Gn4
 BYTE   W96
//  #06 //038   ----------------------------------------
 BYTE   W96
//  #06 //039   ----------------------------------------
 BYTE   EOT
 BYTE   Cn4  v079
 BYTE   N96  An3
 BYTE   N96  En4
 BYTE   W96
//  #06 //040   ----------------------------------------
 BYTE   An3
 BYTE   N96  Dn4
 BYTE   W96
//  #06 //041   ----------------------------------------
 BYTE   PATT
  POIN2 Label_01047C09
//  #06 //042   ----------------------------------------
 BYTE   W96
//  #06 //043   ----------------------------------------
 BYTE   EOT
 BYTE   Gn3
 BYTE   N96  Fn3  v100
 BYTE   W96
//  #06 //044   ----------------------------------------
 BYTE   EOT
 BYTE   An3
 BYTE   GoTo
  POIN2 Label_01047C18
 BYTE   FINE

//**************** Track 7 (Midi-Chn.6) ****************//

song37_007:
//  #07 //000   ----------------------------------------
 BYTE   KEYSH   song37_key+0
 BYTE   VOICE   124
 BYTE   PAN   c_v+0
 BYTE   VOL   35*song37_mvl/mxv
 BYTE   W68
 BYTE   W03
 BYTE   N24  Cs2  v127
 BYTE   W24
 BYTE   W01
//  #07 //001   ----------------------------------------
 BYTE   N96
 BYTE   W96
//  #07 //002   ----------------------------------------
 BYTE   W96
//  #07 //003   ----------------------------------------
 BYTE   W96
//  #07 //004   ----------------------------------------
Label_015F6503:
 BYTE   W96
//  #07 //005   ----------------------------------------
 BYTE   W96
//  #07 //006   ----------------------------------------
 BYTE   W96
//  #07 //007   ----------------------------------------
 BYTE   W96
//  #07 //008   ----------------------------------------
 BYTE   W96
//  #07 //009   ----------------------------------------
 BYTE   W96
//  #07 //010   ----------------------------------------
 BYTE   W96
//  #07 //011   ----------------------------------------
 BYTE   W96
//  #07 //012   ----------------------------------------
 BYTE   W96
//  #07 //013   ----------------------------------------
 BYTE   W96
//  #07 //014   ----------------------------------------
 BYTE   W96
//  #07 //015   ----------------------------------------
 BYTE   W96
//  #07 //016   ----------------------------------------
 BYTE   W96
//  #07 //017   ----------------------------------------
 BYTE   W96
//  #07 //018   ----------------------------------------
 BYTE   W96
//  #07 //019   ----------------------------------------
 BYTE   W96
//  #07 //020   ----------------------------------------
 BYTE   W96
//  #07 //021   ----------------------------------------
 BYTE   W96
//  #07 //022   ----------------------------------------
 BYTE   W96
//  #07 //023   ----------------------------------------
 BYTE   W96
//  #07 //024   ----------------------------------------
 BYTE   W72
 BYTE   N06  Fs2  v080
 BYTE   W06
 BYTE   N06
 BYTE   W06
 BYTE   N06
 BYTE   W06
 BYTE   N06
 BYTE   W06
//  #07 //025   ----------------------------------------
Label_015F6522:
 BYTE   N06  Fs2  v080
 BYTE   W06
 BYTE   N06
 BYTE   W06
 BYTE   N06
 BYTE   W06
 BYTE   N06
 BYTE   W06
 BYTE   N06
 BYTE   N06  Gn2
 BYTE   W06
 BYTE   Fs2
 BYTE   W06
 BYTE   N06
 BYTE   W06
 BYTE   N06
 BYTE   W06
 BYTE   N06
 BYTE   W06
 BYTE   N06
 BYTE   W06
 BYTE   N06
 BYTE   W06
 BYTE   N06
 BYTE   W06
 BYTE   N06
 BYTE   N06  Gn2
 BYTE   W06
 BYTE   Fs2
 BYTE   W06
 BYTE   N06
 BYTE   W06
 BYTE   N06
 BYTE   W06
 BYTE   PEND 
//  #07 //026   ----------------------------------------
 BYTE   PATT
  POIN2 Label_015F6522
//  #07 //027   ----------------------------------------
 BYTE   PATT
  POIN2 Label_015F6522
//  #07 //028   ----------------------------------------
 BYTE   PATT
  POIN2 Label_015F6522
//  #07 //029   ----------------------------------------
 BYTE   PATT
  POIN2 Label_015F6522
//  #07 //030   ----------------------------------------
 BYTE   PATT
  POIN2 Label_015F6522
//  #07 //031   ----------------------------------------
 BYTE   PATT
  POIN2 Label_015F6522
//  #07 //032   ----------------------------------------
 BYTE   PATT
  POIN2 Label_015F6522
//  #07 //033   ----------------------------------------
 BYTE   PATT
  POIN2 Label_015F6522
//  #07 //034   ----------------------------------------
 BYTE   PATT
  POIN2 Label_015F6522
//  #07 //035   ----------------------------------------
 BYTE   PATT
  POIN2 Label_015F6522
//  #07 //036   ----------------------------------------
 BYTE   PATT
  POIN2 Label_015F6522
//  #07 //037   ----------------------------------------
 BYTE   PATT
  POIN2 Label_015F6522
//  #07 //038   ----------------------------------------
 BYTE   PATT
  POIN2 Label_015F6522
//  #07 //039   ----------------------------------------
 BYTE   PATT
  POIN2 Label_015F6522
//  #07 //040   ----------------------------------------
 BYTE   N03  Fs2  v032
 BYTE   W03
 BYTE   Fs2  v036
 BYTE   W03
 BYTE   Fs2  v044
 BYTE   W03
 BYTE   Fs2  v048
 BYTE   W03
 BYTE   Fs2  v052
 BYTE   W03
 BYTE   Fs2  v056
 BYTE   W03
 BYTE   Fs2  v064
 BYTE   W03
 BYTE   Fs2  v068
 BYTE   W03
 BYTE   Fs2  v072
 BYTE   W03
 BYTE   Fs2  v076
 BYTE   W03
 BYTE   Fs2  v084
 BYTE   W03
 BYTE   Fs2  v088
 BYTE   W03
 BYTE   Fs2  v092
 BYTE   W03
 BYTE   Fs2  v096
 BYTE   W03
 BYTE   Fs2  v104
 BYTE   W03
 BYTE   Fs2  v108
 BYTE   W03
 BYTE   Fs2  v112
 BYTE   W03
 BYTE   Fs2  v108
 BYTE   W03
 BYTE   Fs2  v104
 BYTE   W03
 BYTE   Fs2  v096
 BYTE   W03
 BYTE   Fs2  v092
 BYTE   W03
 BYTE   Fs2  v088
 BYTE   W03
 BYTE   Fs2  v084
 BYTE   W03
 BYTE   Fs2  v076
 BYTE   W03
 BYTE   Fs2  v072
 BYTE   W03
 BYTE   Fs2  v068
 BYTE   W03
 BYTE   Fs2  v064
 BYTE   W03
 BYTE   Fs2  v056
 BYTE   W03
 BYTE   Fs2  v052
 BYTE   W03
 BYTE   Fs2  v048
 BYTE   W03
 BYTE   Fs2  v044
 BYTE   W03
 BYTE   Fs2  v036
 BYTE   W03
//  #07 //041   ----------------------------------------
 BYTE   N96  Cs2  v127
 BYTE   W96
//  #07 //042   ----------------------------------------
 BYTE   W96
//  #07 //043   ----------------------------------------
 BYTE   W96
//  #07 //044   ----------------------------------------
 BYTE   GoTo
  POIN2 Label_015F6503
 BYTE   FINE

//******************************************************//
	ALIGN 4

song37:
	BYTE	7	// NumTrks
	BYTE	0	// NumBlks
	BYTE	song37_pri	// Priority
	BYTE	song37_rev	// Reverb.
    
	POIN2	song37_grp
    
	POIN2	song37_001
	POIN2	song37_002
	POIN2	song37_003
	POIN2	song37_004
	POIN2	song37_005
	POIN2	song37_006
	POIN2	song37_007

	
