//Event file generated from Sappy .s format.
	#include "MPlayDef.event"

	#define	song24_grp  voicegroup000
	#define	song24_pri  0
	#define	song24_rev  0
	#define	song24_mvl  127
	#define	song24_key  0
	#define	song24_tbs  1
	#define	song24_exg  0
	#define	song24_cmp  1

	// .rodata
	//	song24
	ALIGN 4


//**************** Track 1 (Midi-Chn.0) ****************//

song24_001:
//  #01 //000   ----------------------------------------
 BYTE   KEYSH   song24_key+0
 BYTE   TEMPO   134*song24_tbs/2
 BYTE   VOICE   57
 BYTE   PAN   c_v+0
 BYTE   VOL   50*song24_mvl/mxv
 BYTE   BEND   c_v+0
 BYTE   W14
 BYTE   W07
 BYTE   W03
Label_0182CC9F:
 BYTE   N68  Gs2  v127
 BYTE   W01
 BYTE   W04
 BYTE   W04
 BYTE   W03
 BYTE   W04
 BYTE   W03
 BYTE   W03
 BYTE   W03
 BYTE   W03
 BYTE   W03
 BYTE   W03
 BYTE   W03
 BYTE   W03
 BYTE   W03
 BYTE   W03
 BYTE   W03
 BYTE   W03
 BYTE   W03
 BYTE   W03
 BYTE   W03
 BYTE   W03
 BYTE   W03
 BYTE   W03
 BYTE   W02
//  #01 //001   ----------------------------------------
 BYTE   N23  Fn2
 BYTE   W01
 BYTE   W02
 BYTE   W01
 BYTE   W02
 BYTE   W01
 BYTE   W02
 BYTE   W01
 BYTE   W02
 BYTE   W01
 BYTE   W02
 BYTE   W01
 BYTE   W02
 BYTE   W01
 BYTE   W03
 BYTE   W02
 BYTE   Gs2
 BYTE   W01
 BYTE   W03
 BYTE   W03
 BYTE   W03
 BYTE   W03
 BYTE   W03
 BYTE   W03
 BYTE   W03
 BYTE   W02
 BYTE   N80  Cs3
 BYTE   W01
 BYTE   W03
 BYTE   W03
 BYTE   W03
 BYTE   W01
 BYTE   W02
 BYTE   W01
 BYTE   W02
 BYTE   W01
 BYTE   W02
 BYTE   W01
 BYTE   W02
 BYTE   W01
 BYTE   W02
 BYTE   W01
 BYTE   W02
 BYTE   W06
 BYTE   W04
 BYTE   W03
 BYTE   W03
 BYTE   W04
//  #01 //002   ----------------------------------------
 BYTE   W03
 BYTE   W03
 BYTE   W03
 BYTE   W03
 BYTE   W03
 BYTE   W03
 BYTE   W03
 BYTE   W03
 BYTE   W07
 BYTE   W05
 BYTE   N11  Cs3  v076
 BYTE   W01
 BYTE   W06
 BYTE   W05
 BYTE   N32  Bn2  v127
 BYTE   W01
 BYTE   W02
 BYTE   W01
 BYTE   W02
 BYTE   W01
 BYTE   W01
 BYTE   W03
 BYTE   W03
 BYTE   W03
 BYTE   W03
 BYTE   W03
 BYTE   W03
 BYTE   W03
 BYTE   W02
 BYTE   W01
 BYTE   W02
 BYTE   W01
 BYTE   W01
 BYTE   N11  As2
 BYTE   W12
//  #01 //003   ----------------------------------------
 BYTE   Gs2
 BYTE   W12
 BYTE   Fs2
 BYTE   W01
 BYTE   W06
 BYTE   W05
 BYTE   Fn2
 BYTE   W01
 BYTE   W06
 BYTE   W05
 BYTE   Fs2
 BYTE   W01
 BYTE   W03
 BYTE   W03
 BYTE   W04
 BYTE   W01
 BYTE   TIE  Gs2
 BYTE   W02
 BYTE   W03
 BYTE   W01
 BYTE   W02
 BYTE   W01
 BYTE   W02
 BYTE   W01
 BYTE   W02
 BYTE   W01
 BYTE   W02
 BYTE   W01
 BYTE   W02
 BYTE   W01
 BYTE   W02
 BYTE   W01
 BYTE   W02
 BYTE   W01
 BYTE   W02
 BYTE   W01
 BYTE   W02
 BYTE   W01
 BYTE   W01
 BYTE   W07
 BYTE   W03
 BYTE   W04
//  #01 //004   ----------------------------------------
 BYTE   W04
 BYTE   W03
 BYTE   W04
 BYTE   W03
 BYTE   W04
 BYTE   W03
 BYTE   W04
 BYTE   W03
 BYTE   W04
 BYTE   W04
 BYTE   W09
 BYTE   W05
 BYTE   W05
 BYTE   W05
 BYTE   W05
 BYTE   W05
 BYTE   W04
 BYTE   W05
 BYTE   W05
 BYTE   W05
 BYTE   W05
 BYTE   W02
//  #01 //005   ----------------------------------------
 BYTE   W03
 BYTE   W05
 BYTE   W05
 BYTE   W04
 BYTE   W05
 BYTE   W03
 BYTE   W03
 BYTE   W03
 BYTE   W03
 BYTE   W03
 BYTE   W03
 BYTE   W03
 BYTE   W03
 BYTE   W03
 BYTE   W03
 BYTE   W03
 BYTE   W03
 BYTE   W03
 BYTE   W03
 BYTE   W03
 BYTE   W03
 BYTE   W02
 BYTE   W01
 BYTE   W02
 BYTE   W01
 BYTE   W02
 BYTE   W01
 BYTE   W02
 BYTE   W01
 BYTE   W02
 BYTE   W01
 BYTE   W02
 BYTE   W01
 BYTE   W02
 BYTE   W01
 BYTE   W02
 BYTE   W01
 BYTE   W02
//  #01 //006   ----------------------------------------
 BYTE   W01
 BYTE   W02
 BYTE   W01
 BYTE   W02
 BYTE   W01
 BYTE   W02
 BYTE   W01
 BYTE   W02
 BYTE   W01
 BYTE   W02
 BYTE   W01
 BYTE   W02
 BYTE   W01
 BYTE   EOT
 BYTE   W44
 BYTE   W01
 BYTE   W01
 BYTE   W01
 BYTE   W01
 BYTE   W01
 BYTE   W01
 BYTE   W01
 BYTE   W01
 BYTE   W01
 BYTE   N23  Cs2
 BYTE   W01
 BYTE   W02
 BYTE   W01
 BYTE   W02
 BYTE   W01
 BYTE   W02
 BYTE   W01
 BYTE   W02
 BYTE   W01
 BYTE   W02
 BYTE   W01
 BYTE   W02
 BYTE   W01
 BYTE   W02
 BYTE   W01
 BYTE   W02
//  #01 //007   ----------------------------------------
 BYTE   Ds2
 BYTE   W03
 BYTE   W03
 BYTE   W03
 BYTE   W03
 BYTE   W03
 BYTE   W03
 BYTE   W03
 BYTE   W03
 BYTE   Fn2
 BYTE   W02
 BYTE   W04
 BYTE   W04
 BYTE   W05
 BYTE   W04
 BYTE   W04
 BYTE   W01
 BYTE   Gs2
 BYTE   W03
 BYTE   W04
 BYTE   W05
 BYTE   W04
 BYTE   W04
 BYTE   W04
 BYTE   N11  Fs2
 BYTE   W04
 BYTE   W05
 BYTE   W03
 BYTE   Bn2
 BYTE   W01
 BYTE   W04
 BYTE   W04
 BYTE   W02
 BYTE   W01
//  #01 //008   ----------------------------------------
 BYTE   N66  Cs3
 BYTE   W02
 BYTE   W01
 BYTE   W02
 BYTE   W01
 BYTE   W02
 BYTE   W01
 BYTE   W02
 BYTE   W01
 BYTE   W02
 BYTE   W01
 BYTE   W11
 BYTE   W05
 BYTE   W05
 BYTE   W06
 BYTE   W05
 BYTE   W05
 BYTE   W05
 BYTE   W06
 BYTE   W05
 BYTE   W04
 BYTE   N23  Ds3
 BYTE   W01
 BYTE   W03
 BYTE   W03
 BYTE   W03
 BYTE   W03
 BYTE   W03
 BYTE   W03
 BYTE   W03
 BYTE   W02
//  #01 //009   ----------------------------------------
 BYTE   Fs3
 BYTE   W01
 BYTE   W03
 BYTE   W03
 BYTE   W03
 BYTE   W02
 BYTE   W01
 BYTE   W02
 BYTE   W01
 BYTE   W02
 BYTE   W01
 BYTE   W02
 BYTE   W01
 BYTE   W02
 BYTE   N44  Fn3
 BYTE   W02
 BYTE   W01
 BYTE   W02
 BYTE   W01
 BYTE   W02
 BYTE   W01
 BYTE   W02
 BYTE   W03
 BYTE   W03
 BYTE   W03
 BYTE   W03
 BYTE   W03
 BYTE   W03
 BYTE   W03
 BYTE   W03
 BYTE   W03
 BYTE   W03
 BYTE   W03
 BYTE   W03
 BYTE   W01
 BYTE   N11  Ds3
 BYTE   W03
 BYTE   W03
 BYTE   W03
 BYTE   W03
 BYTE   Cs3
 BYTE   W03
 BYTE   W03
 BYTE   W03
 BYTE   W03
//  #01 //010   ----------------------------------------
 BYTE   N42  Gs2
 BYTE   W03
 BYTE   W03
 BYTE   W03
 BYTE   W03
 BYTE   W03
 BYTE   W03
 BYTE   W01
 BYTE   W06
 BYTE   W05
 BYTE   W05
 BYTE   W05
 BYTE   W05
 BYTE   W03
 BYTE   N23  Ds3
 BYTE   W03
 BYTE   W03
 BYTE   W03
 BYTE   W03
 BYTE   W03
 BYTE   W03
 BYTE   W03
 BYTE   W03
 BYTE   N11
 BYTE   W03
 BYTE   W03
 BYTE   W03
 BYTE   W03
 BYTE   Fn3
 BYTE   W03
 BYTE   W03
 BYTE   W03
 BYTE   W03
//  #01 //011   ----------------------------------------
 BYTE   TIE  Cs3
 BYTE   W02
 BYTE   W01
 BYTE   W02
 BYTE   W01
 BYTE   W02
 BYTE   W01
 BYTE   W02
 BYTE   W01
 BYTE   W02
 BYTE   W01
 BYTE   W02
 BYTE   W01
 BYTE   W02
 BYTE   W01
 BYTE   W02
 BYTE   W01
 BYTE   W02
 BYTE   W03
 BYTE   W03
 BYTE   W03
 BYTE   W03
 BYTE   W03
 BYTE   W03
 BYTE   W03
 BYTE   W02
 BYTE   W03
 BYTE   W03
 BYTE   W03
 BYTE   W03
 BYTE   W03
 BYTE   W03
 BYTE   W03
 BYTE   W03
 BYTE   W02
 BYTE   W03
 BYTE   W03
 BYTE   W03
 BYTE   W03
 BYTE   W03
 BYTE   W03
 BYTE   W03
//  #01 //012   ----------------------------------------
 BYTE   W02
 BYTE   W01
 BYTE   W02
 BYTE   W01
 BYTE   W02
 BYTE   W01
 BYTE   W02
 BYTE   W01
 BYTE   W02
 BYTE   W01
 BYTE   W02
 BYTE   W01
 BYTE   W01
 BYTE   EOT
 BYTE   W01
 BYTE   W01
 BYTE   W02
 BYTE   W01
 BYTE   W02
 BYTE   W01
 BYTE   W01
 BYTE   W68
//  #01 //013   ----------------------------------------
 BYTE   W96
//  #01 //014   ----------------------------------------
 BYTE   W96
//  #01 //015   ----------------------------------------
 BYTE   W96
//  #01 //016   ----------------------------------------
 BYTE   W96
//  #01 //017   ----------------------------------------
 BYTE   W96
//  #01 //018   ----------------------------------------
 BYTE   W96
//  #01 //019   ----------------------------------------
 BYTE   W96
//  #01 //020   ----------------------------------------
 BYTE   W96
//  #01 //021   ----------------------------------------
 BYTE   W96
//  #01 //022   ----------------------------------------
 BYTE   W96
//  #01 //023   ----------------------------------------
 BYTE   W96
//  #01 //024   ----------------------------------------
 BYTE   W24
 BYTE   W03
 BYTE   W01
 BYTE   W02
 BYTE   W01
 BYTE   W02
 BYTE   W01
 BYTE   W02
 BYTE   W01
 BYTE   W02
 BYTE   W01
 BYTE   W02
 BYTE   W01
 BYTE   W02
 BYTE   W01
 BYTE   W02
 BYTE   W01
 BYTE   W02
 BYTE   W01
 BYTE   W02
 BYTE   W01
 BYTE   W02
 BYTE   W01
 BYTE   W02
 BYTE   W01
 BYTE   W02
 BYTE   W01
 BYTE   W02
 BYTE   W01
 BYTE   W02
 BYTE   W03
 BYTE   N44  Cs2
 BYTE   W03
 BYTE   W03
 BYTE   W03
 BYTE   W02
 BYTE   W08
 BYTE   W05
//  #01 //025   ----------------------------------------
 BYTE   W04
 BYTE   W04
 BYTE   W04
 BYTE   W05
 BYTE   W04
 BYTE   W03
 BYTE   Ds2
 BYTE   W01
 BYTE   W04
 BYTE   W05
 BYTE   W04
 BYTE   W04
 BYTE   W05
 BYTE   W04
 BYTE   W04
 BYTE   W04
 BYTE   W05
 BYTE   W04
 BYTE   W04
 BYTE   En2
 BYTE   W04
 BYTE   W03
 BYTE   W03
 BYTE   W03
 BYTE   W03
 BYTE   W03
 BYTE   W03
 BYTE   W02
//  #01 //026   ----------------------------------------
 BYTE   W01
 BYTE   W01
 BYTE   W03
 BYTE   W03
 BYTE   W03
 BYTE   W03
 BYTE   W03
 BYTE   W03
 BYTE   W01
 BYTE   W03
 BYTE   Ds2
 BYTE   W03
 BYTE   W03
 BYTE   W03
 BYTE   W03
 BYTE   W03
 BYTE   W03
 BYTE   W03
 BYTE   W03
 BYTE   W03
 BYTE   W03
 BYTE   W03
 BYTE   W03
 BYTE   W03
 BYTE   W03
 BYTE   W03
 BYTE   W02
 BYTE   W01
 BYTE   N23  Bn1
 BYTE   W05
 BYTE   W03
 BYTE   W03
 BYTE   W03
 BYTE   W03
 BYTE   W03
 BYTE   W03
 BYTE   W01
//  #01 //027   ----------------------------------------
 BYTE   Fs2
 BYTE   W03
 BYTE   W03
 BYTE   W03
 BYTE   W03
 BYTE   W03
 BYTE   W03
 BYTE   W03
 BYTE   W03
 BYTE   N32  Fn2
 BYTE   W02
 BYTE   W01
 BYTE   W02
 BYTE   W01
 BYTE   W02
 BYTE   W01
 BYTE   W02
 BYTE   W01
 BYTE   W02
 BYTE   W01
 BYTE   W01
 BYTE   W03
 BYTE   W03
 BYTE   W03
 BYTE   W03
 BYTE   W03
 BYTE   W03
 BYTE   W02
 BYTE   N11  Fs2
 BYTE   W03
 BYTE   W03
 BYTE   W03
 BYTE   W03
 BYTE   TIE  Gs2  v124
 BYTE   W03
 BYTE   W03
 BYTE   W01
 BYTE   W03
 BYTE   W03
 BYTE   W03
 BYTE   W03
 BYTE   W03
 BYTE   W02
//  #01 //028   ----------------------------------------
 BYTE   W14
 BYTE   W08
 BYTE   W08
 BYTE   W09
 BYTE   W06
 BYTE   W03
 BYTE   W04
 BYTE   W03
 BYTE   W03
 BYTE   W03
 BYTE   W03
 BYTE   W04
 BYTE   W03
 BYTE   W03
 BYTE   W03
 BYTE   W04
 BYTE   W03
 BYTE   W03
 BYTE   W03
 BYTE   W03
 BYTE   W03
//  #01 //029   ----------------------------------------
 BYTE   W03
 BYTE   W03
 BYTE   W03
 BYTE   W03
 BYTE   W03
 BYTE   W03
 BYTE   W03
 BYTE   W03
 BYTE   W03
 BYTE   W03
 BYTE   W03
 BYTE   W03
 BYTE   W03
 BYTE   W03
 BYTE   W03
 BYTE   W03
 BYTE   W03
 BYTE   W03
 BYTE   W03
 BYTE   W03
 BYTE   W03
 BYTE   W03
 BYTE   W03
 BYTE   W03
 BYTE   W03
 BYTE   W03
 BYTE   W03
 BYTE   W03
 BYTE   W03
 BYTE   W03
 BYTE   W03
 BYTE   W03
//  #01 //030   ----------------------------------------
 BYTE   W03
 BYTE   W03
 BYTE   W03
 BYTE   W03
 BYTE   W03
 BYTE   W02
 BYTE   EOT
 BYTE   W42
 BYTE   W01
 BYTE   W01
 BYTE   W01
 BYTE   W01
 BYTE   W01
 BYTE   W01
 BYTE   W01
 BYTE   W01
 BYTE   W01
 BYTE   W01
 BYTE   W01
 BYTE   W01
 BYTE   W01
 BYTE   N44  Cs3  v127
 BYTE   W01
 BYTE   W01
 BYTE   W07
 BYTE   W03
 BYTE   W04
 BYTE   W03
 BYTE   W03
 BYTE   W02
//  #01 //031   ----------------------------------------
 BYTE   W01
 BYTE   W03
 BYTE   W03
 BYTE   W03
 BYTE   W03
 BYTE   W03
 BYTE   W03
 BYTE   W03
 BYTE   W02
 BYTE   Ds3
 BYTE   W01
 BYTE   W03
 BYTE   W03
 BYTE   W03
 BYTE   W03
 BYTE   W02
 BYTE   W03
 BYTE   W03
 BYTE   W03
 BYTE   W03
 BYTE   W03
 BYTE   W03
 BYTE   W03
 BYTE   W03
 BYTE   W03
 BYTE   W03
 BYTE   W03
 BYTE   En3
 BYTE   W03
 BYTE   W01
 BYTE   W03
 BYTE   W03
 BYTE   W03
 BYTE   W03
 BYTE   W03
 BYTE   W03
 BYTE   W01
 BYTE   W01
//  #01 //032   ----------------------------------------
 BYTE   W02
 BYTE   W03
 BYTE   W03
 BYTE   W04
 BYTE   W03
 BYTE   W03
 BYTE   W03
 BYTE   W03
 BYTE   Ds3
 BYTE   W03
 BYTE   W03
 BYTE   W03
 BYTE   W03
 BYTE   W01
 BYTE   W12
 BYTE   W06
 BYTE   W06
 BYTE   W06
 BYTE   W03
 BYTE   W02
 BYTE   N23  Bn2
 BYTE   W01
 BYTE   W04
 BYTE   W03
 BYTE   W03
 BYTE   W04
 BYTE   W03
 BYTE   W03
 BYTE   W03
//  #01 //033   ----------------------------------------
 BYTE   Fs3
 BYTE   W01
 BYTE   W03
 BYTE   W03
 BYTE   W04
 BYTE   W03
 BYTE   W03
 BYTE   W04
 BYTE   W03
 BYTE   N44  En3
 BYTE   W02
 BYTE   W01
 BYTE   W02
 BYTE   W01
 BYTE   W02
 BYTE   W01
 BYTE   W01
 BYTE   W03
 BYTE   W03
 BYTE   W03
 BYTE   W03
 BYTE   W03
 BYTE   W03
 BYTE   W03
 BYTE   W03
 BYTE   W03
 BYTE   W03
 BYTE   W03
 BYTE   W03
 BYTE   W02
 BYTE   N11  Ds3
 BYTE   W01
 BYTE   W01
 BYTE   W10
 BYTE   Cs3
 BYTE   W11
 BYTE   W01
//  #01 //034   ----------------------------------------
 BYTE   N32  Bn2
 BYTE   W02
 BYTE   W03
 BYTE   W03
 BYTE   W03
 BYTE   W03
 BYTE   W03
 BYTE   W03
 BYTE   W03
 BYTE   W03
 BYTE   W03
 BYTE   W03
 BYTE   W03
 BYTE   W03
 BYTE   W03
 BYTE   W02
 BYTE   W03
 BYTE   W02
 BYTE   N23  Ds3
 BYTE   W02
 BYTE   W01
 BYTE   W02
 BYTE   W01
 BYTE   W02
 BYTE   W01
 BYTE   W02
 BYTE   W01
 BYTE   W02
 BYTE   W01
 BYTE   W02
 BYTE   W01
 BYTE   W02
 BYTE   W01
 BYTE   W02
 BYTE   W01
 BYTE   N44  Fs3
 BYTE   W02
 BYTE   W01
 BYTE   W02
 BYTE   W01
 BYTE   W02
 BYTE   W01
 BYTE   W02
 BYTE   W01
 BYTE   W02
 BYTE   W01
 BYTE   W02
 BYTE   W01
 BYTE   W02
 BYTE   W01
 BYTE   W02
 BYTE   W01
//  #01 //035   ----------------------------------------
 BYTE   W02
 BYTE   W03
 BYTE   W03
 BYTE   W03
 BYTE   W03
 BYTE   W03
 BYTE   W03
 BYTE   W03
 BYTE   W01
 BYTE   N11  En3
 BYTE   W02
 BYTE   W02
 BYTE   W08
 BYTE   Dn3
 BYTE   W12
 BYTE   N68  Bn2
 BYTE   W03
 BYTE   W03
 BYTE   W03
 BYTE   W03
 BYTE   W03
 BYTE   W03
 BYTE   W03
 BYTE   W03
 BYTE   W03
 BYTE   W03
 BYTE   W03
 BYTE   W03
 BYTE   W03
 BYTE   W01
 BYTE   W01
 BYTE   W02
 BYTE   W01
 BYTE   W02
 BYTE   W01
 BYTE   W01
//  #01 //036   ----------------------------------------
 BYTE   W01
 BYTE   W01
 BYTE   W02
 BYTE   W01
 BYTE   W02
 BYTE   W01
 BYTE   W02
 BYTE   W01
 BYTE   W02
 BYTE   W01
 BYTE   W02
 BYTE   W01
 BYTE   W02
 BYTE   W01
 BYTE   W02
 BYTE   W01
 BYTE   W01
 BYTE   TIE  Gs2
 BYTE   W01
 BYTE   W01
 BYTE   W02
 BYTE   W01
 BYTE   W02
 BYTE   W01
 BYTE   W02
 BYTE   W01
 BYTE   W02
 BYTE   W01
 BYTE   W02
 BYTE   W01
 BYTE   W02
 BYTE   W01
 BYTE   W02
 BYTE   W01
 BYTE   W02
 BYTE   W01
 BYTE   W02
 BYTE   W01
 BYTE   W01
 BYTE   W10
 BYTE   W06
 BYTE   W05
 BYTE   W05
 BYTE   W05
 BYTE   W05
 BYTE   W05
 BYTE   W01
//  #01 //037   ----------------------------------------
 BYTE   W05
 BYTE   W05
 BYTE   W13
 BYTE   W12
 BYTE   W13
 BYTE   W13
 BYTE   W13
 BYTE   W13
 BYTE   W09
//  #01 //038   ----------------------------------------
 BYTE   W03
 BYTE   W13
 BYTE   W08
 BYTE   W04
 BYTE   W03
 BYTE   W04
 BYTE   W04
 BYTE   W04
 BYTE   W03
 BYTE   W04
 BYTE   W04
 BYTE   W04
 BYTE   W03
 BYTE   W04
 BYTE   W04
 BYTE   W03
 BYTE   W04
 BYTE   W04
 BYTE   W04
 BYTE   W03
 BYTE   W04
 BYTE   W04
 BYTE   W01
//  #01 //039   ----------------------------------------
 BYTE   W03
 BYTE   W03
 BYTE   W04
 BYTE   W04
 BYTE   W03
 BYTE   W03
 BYTE   W03
 BYTE   W03
 BYTE   W03
 BYTE   W03
 BYTE   W03
 BYTE   W03
 BYTE   W03
 BYTE   W03
 BYTE   W03
 BYTE   W03
 BYTE   W03
 BYTE   W03
 BYTE   W03
 BYTE   W03
 BYTE   W03
 BYTE   W03
 BYTE   W03
 BYTE   W03
 BYTE   W03
 BYTE   W03
 BYTE   W03
 BYTE   W02
 BYTE   W04
 BYTE   EOT
 BYTE   W07
//  #01 //040   ----------------------------------------
 BYTE   W96
//  #01 //041   ----------------------------------------
 BYTE   W96
//  #01 //042   ----------------------------------------
 BYTE   W24
 BYTE   GoTo
  POIN2 Label_0182CC9F
 BYTE   FINE

//**************** Track 2 (Midi-Chn.1) ****************//

song24_002:
//  #02 //000   ----------------------------------------
 BYTE   KEYSH   song24_key+0
 BYTE   VOICE   61
 BYTE   PAN   c_v+0
 BYTE   VOL   49*song24_mvl/mxv
 BYTE   BEND   c_v+0
 BYTE   W24
Label_017E947B:
 BYTE   W72
//  #02 //001   ----------------------------------------
 BYTE   W96
//  #02 //002   ----------------------------------------
 BYTE   W96
//  #02 //003   ----------------------------------------
 BYTE   W96
//  #02 //004   ----------------------------------------
 BYTE   W96
//  #02 //005   ----------------------------------------
 BYTE   W96
//  #02 //006   ----------------------------------------
 BYTE   W96
//  #02 //007   ----------------------------------------
 BYTE   W96
//  #02 //008   ----------------------------------------
 BYTE   W96
//  #02 //009   ----------------------------------------
 BYTE   W96
//  #02 //010   ----------------------------------------
 BYTE   W96
//  #02 //011   ----------------------------------------
 BYTE   W80
 BYTE   W01
 BYTE   W01
 BYTE   W02
 BYTE   W01
 BYTE   W02
 BYTE   W01
 BYTE   W02
 BYTE   W01
 BYTE   W02
 BYTE   W01
 BYTE   W02
//  #02 //012   ----------------------------------------
 BYTE   W01
 BYTE   W02
 BYTE   W01
 BYTE   W02
 BYTE   W01
 BYTE   W02
 BYTE   W01
 BYTE   W02
 BYTE   W01
 BYTE   W02
 BYTE   W01
 BYTE   W02
 BYTE   W01
 BYTE   W01
 BYTE   W02
 BYTE   W01
 BYTE   W01
 BYTE   N68  Gs2  v127
 BYTE   W01
 BYTE   W01
 BYTE   W02
 BYTE   W01
 BYTE   W02
 BYTE   W01
 BYTE   W02
 BYTE   W01
 BYTE   W02
 BYTE   W01
 BYTE   W02
 BYTE   W01
 BYTE   W02
 BYTE   W03
 BYTE   W03
 BYTE   W03
 BYTE   W03
 BYTE   W03
 BYTE   W03
 BYTE   W03
 BYTE   W03
 BYTE   W03
 BYTE   W03
 BYTE   W03
 BYTE   W03
 BYTE   W03
 BYTE   W03
 BYTE   W03
 BYTE   W03
 BYTE   W01
 BYTE   W04
//  #02 //013   ----------------------------------------
 BYTE   N23  Fn2
 BYTE   W24
 BYTE   Gs2
 BYTE   W24
 BYTE   N92  Cs3
 BYTE   W02
 BYTE   W03
 BYTE   W03
 BYTE   W03
 BYTE   W03
 BYTE   W03
 BYTE   W03
 BYTE   W02
 BYTE   W03
 BYTE   W03
 BYTE   W03
 BYTE   W07
 BYTE   W08
 BYTE   W02
//  #02 //014   ----------------------------------------
 BYTE   W06
 BYTE   W07
 BYTE   W10
 BYTE   W05
 BYTE   W05
 BYTE   W05
 BYTE   W04
 BYTE   W05
 BYTE   W01
 BYTE   N32  Bn2
 BYTE   W04
 BYTE   W05
 BYTE   W05
 BYTE   W03
 BYTE   W03
 BYTE   W03
 BYTE   W03
 BYTE   W03
 BYTE   W03
 BYTE   W03
 BYTE   W01
 BYTE   N11  As2
 BYTE   W02
 BYTE   W02
 BYTE   W08
//  #02 //015   ----------------------------------------
 BYTE   Gs2
 BYTE   W12
 BYTE   Fs2
 BYTE   W12
 BYTE   Fn2
 BYTE   W12
 BYTE   Fs2
 BYTE   W12
 BYTE   TIE  Gs2
 BYTE   W06
 BYTE   W03
 BYTE   W03
 BYTE   W03
 BYTE   W03
 BYTE   W03
 BYTE   W03
 BYTE   W03
 BYTE   W21
//  #02 //016   ----------------------------------------
 BYTE   W02
 BYTE   W11
 BYTE   W12
 BYTE   W11
 BYTE   W12
 BYTE   W07
 BYTE   W04
 BYTE   W04
 BYTE   W04
 BYTE   W04
 BYTE   W04
 BYTE   W03
 BYTE   W04
 BYTE   W04
 BYTE   W04
 BYTE   W04
 BYTE   W02
//  #02 //017   ----------------------------------------
 BYTE   W02
 BYTE   W04
 BYTE   W03
 BYTE   W04
 BYTE   W04
 BYTE   W03
 BYTE   W03
 BYTE   W03
 BYTE   W03
 BYTE   W03
 BYTE   W03
 BYTE   W03
 BYTE   W03
 BYTE   W03
 BYTE   W03
 BYTE   W03
 BYTE   W03
 BYTE   W03
 BYTE   W03
 BYTE   W03
 BYTE   W03
 BYTE   W03
 BYTE   W03
 BYTE   W03
 BYTE   W03
 BYTE   W03
 BYTE   W03
 BYTE   W03
 BYTE   W03
 BYTE   W03
 BYTE   W03
 BYTE   W01
//  #02 //018   ----------------------------------------
 BYTE   W02
 BYTE   W03
 BYTE   W03
 BYTE   W03
 BYTE   W03
 BYTE   W03
 BYTE   W02
 BYTE   EOT
 BYTE   W01
 BYTE   W03
 BYTE   W03
 BYTE   W40
 BYTE   W01
 BYTE   W01
 BYTE   W01
 BYTE   W02
 BYTE   W01
 BYTE   N23  Cs2
 BYTE   W02
 BYTE   W01
 BYTE   W02
 BYTE   W01
 BYTE   W02
 BYTE   W01
 BYTE   W01
 BYTE   W01
 BYTE   W02
 BYTE   W01
 BYTE   W02
 BYTE   W01
 BYTE   W02
 BYTE   W01
 BYTE   W02
 BYTE   W01
 BYTE   W01
//  #02 //019   ----------------------------------------
 BYTE   Ds2
 BYTE   W24
 BYTE   Fn2
 BYTE   W24
 BYTE   Gs2
 BYTE   W24
 BYTE   N11  Fs2
 BYTE   W12
 BYTE   Bn2
 BYTE   W12
//  #02 //020   ----------------------------------------
 BYTE   N66  Cs3
 BYTE   W06
 BYTE   W03
 BYTE   W03
 BYTE   W03
 BYTE   W03
 BYTE   W03
 BYTE   W03
 BYTE   W03
 BYTE   W03
 BYTE   W03
 BYTE   W03
 BYTE   W01
 BYTE   W07
 BYTE   W03
 BYTE   W04
 BYTE   W03
 BYTE   W04
 BYTE   W03
 BYTE   W03
 BYTE   W04
 BYTE   W03
 BYTE   W01
 BYTE   N23  Ds3
 BYTE   W03
 BYTE   W03
 BYTE   W03
 BYTE   W04
 BYTE   W03
 BYTE   W04
 BYTE   W03
 BYTE   W01
//  #02 //021   ----------------------------------------
 BYTE   Fs3
 BYTE   W02
 BYTE   W04
 BYTE   W03
 BYTE   W04
 BYTE   W03
 BYTE   W03
 BYTE   W03
 BYTE   W02
 BYTE   N44  Fn3
 BYTE   W01
 BYTE   W03
 BYTE   W03
 BYTE   W03
 BYTE   W03
 BYTE   W03
 BYTE   W03
 BYTE   W01
 BYTE   W03
 BYTE   W03
 BYTE   W03
 BYTE   W03
 BYTE   W03
 BYTE   W03
 BYTE   W03
 BYTE   W03
 BYTE   W02
 BYTE   W02
 BYTE   N11  Ds3
 BYTE   W12
 BYTE   Cs3
 BYTE   W01
 BYTE   W11
//  #02 //022   ----------------------------------------
 BYTE   N42  Gs2
 BYTE   W04
 BYTE   W03
 BYTE   W03
 BYTE   W03
 BYTE   W03
 BYTE   W03
 BYTE   W03
 BYTE   W03
 BYTE   W03
 BYTE   W03
 BYTE   W03
 BYTE   W03
 BYTE   W03
 BYTE   W03
 BYTE   W02
 BYTE   W02
 BYTE   W01
 BYTE   N23  Ds3
 BYTE   W02
 BYTE   W01
 BYTE   W02
 BYTE   W01
 BYTE   W02
 BYTE   W01
 BYTE   W02
 BYTE   W01
 BYTE   W02
 BYTE   W01
 BYTE   W02
 BYTE   W01
 BYTE   W02
 BYTE   W01
 BYTE   W02
 BYTE   W01
 BYTE   N11
 BYTE   W12
 BYTE   Fn3
 BYTE   W12
//  #02 //023   ----------------------------------------
 BYTE   TIE  Cs3
 BYTE   W03
 BYTE   W03
 BYTE   W04
 BYTE   W04
 BYTE   W03
 BYTE   W04
 BYTE   W04
 BYTE   W03
 BYTE   W04
 BYTE   W04
 BYTE   W03
 BYTE   W04
 BYTE   W04
 BYTE   W03
 BYTE   W04
 BYTE   W04
 BYTE   W03
 BYTE   W03
 BYTE   W03
 BYTE   W03
 BYTE   W03
 BYTE   W03
 BYTE   W03
 BYTE   W03
 BYTE   W03
 BYTE   W03
 BYTE   W03
 BYTE   W02
 BYTE   W01
 BYTE   W02
//  #02 //024   ----------------------------------------
 BYTE   W01
 BYTE   W02
 BYTE   W01
 BYTE   W02
 BYTE   W01
 BYTE   W02
 BYTE   W01
 BYTE   W02
 BYTE   W01
 BYTE   W02
 BYTE   W01
 BYTE   W02
 BYTE   W01
 BYTE   EOT
 BYTE   W02
 BYTE   W01
 BYTE   W02
 BYTE   W01
 BYTE   W02
 BYTE   W01
 BYTE   W02
 BYTE   W36
 BYTE   W01
 BYTE   W01
 BYTE   W01
 BYTE   W01
 BYTE   W02
 BYTE   N44  En2
 BYTE   W01
 BYTE   W03
 BYTE   W03
 BYTE   W03
 BYTE   W03
 BYTE   W03
 BYTE   W03
 BYTE   W02
 BYTE   W03
//  #02 //025   ----------------------------------------
 BYTE   W03
 BYTE   W03
 BYTE   W03
 BYTE   W03
 BYTE   W03
 BYTE   W03
 BYTE   W03
 BYTE   W02
 BYTE   W01
 BYTE   Fs2
 BYTE   W02
 BYTE   W03
 BYTE   W03
 BYTE   W03
 BYTE   W03
 BYTE   W03
 BYTE   W03
 BYTE   W03
 BYTE   W03
 BYTE   W03
 BYTE   W03
 BYTE   W03
 BYTE   W03
 BYTE   W03
 BYTE   W03
 BYTE   W02
 BYTE   W01
 BYTE   W01
 BYTE   An2
 BYTE   W01
 BYTE   W01
 BYTE   W02
 BYTE   W01
 BYTE   W02
 BYTE   W01
 BYTE   W02
 BYTE   W01
 BYTE   W02
 BYTE   W01
 BYTE   W01
 BYTE   W03
 BYTE   W03
 BYTE   W03
//  #02 //026   ----------------------------------------
 BYTE   W03
 BYTE   W03
 BYTE   W03
 BYTE   W03
 BYTE   W03
 BYTE   W03
 BYTE   W03
 BYTE   W02
 BYTE   W01
 BYTE   Fs2
 BYTE   W07
 BYTE   W03
 BYTE   W04
 BYTE   W04
 BYTE   W03
 BYTE   W04
 BYTE   W04
 BYTE   W03
 BYTE   W04
 BYTE   W04
 BYTE   W03
 BYTE   W04
 BYTE   W01
 BYTE   N23  Ds2
 BYTE   W03
 BYTE   W03
 BYTE   W03
 BYTE   W03
 BYTE   W03
 BYTE   W03
 BYTE   W03
 BYTE   W03
//  #02 //027   ----------------------------------------
 BYTE   Bn2
 BYTE   W03
 BYTE   W03
 BYTE   W03
 BYTE   W03
 BYTE   W03
 BYTE   W03
 BYTE   W03
 BYTE   W03
 BYTE   N32  Gs2
 BYTE   W03
 BYTE   W03
 BYTE   W03
 BYTE   W03
 BYTE   W03
 BYTE   W01
 BYTE   W10
 BYTE   W05
 BYTE   W05
 BYTE   N11  As2
 BYTE   W05
 BYTE   W04
 BYTE   W03
 BYTE   TIE  Cs3
 BYTE   W02
 BYTE   W05
 BYTE   W05
 BYTE   W05
 BYTE   W05
 BYTE   W02
//  #02 //028   ----------------------------------------
 BYTE   W08
 BYTE   W10
 BYTE   W11
 BYTE   W10
 BYTE   W10
 BYTE   W10
 BYTE   W11
 BYTE   W10
 BYTE   W04
 BYTE   W03
 BYTE   W04
 BYTE   W03
 BYTE   W02
//  #02 //029   ----------------------------------------
 BYTE   W02
 BYTE   W04
 BYTE   W03
 BYTE   W04
 BYTE   W03
 BYTE   W04
 BYTE   W04
 BYTE   W03
 BYTE   W04
 BYTE   W03
 BYTE   W04
 BYTE   W04
 BYTE   W03
 BYTE   W04
 BYTE   W03
 BYTE   W04
 BYTE   W04
 BYTE   W03
 BYTE   W03
 BYTE   W03
 BYTE   W03
 BYTE   W03
 BYTE   W03
 BYTE   W03
 BYTE   W03
 BYTE   W03
 BYTE   W03
 BYTE   W03
 BYTE   W03
//  #02 //030   ----------------------------------------
 BYTE   W03
 BYTE   W03
 BYTE   W03
 BYTE   W03
 BYTE   W03
 BYTE   W03
 BYTE   W03
 BYTE   W02
 BYTE   EOT
 BYTE   W01
 BYTE   W03
 BYTE   W03
 BYTE   W01
 BYTE   W01
 BYTE   W02
 BYTE   W01
 BYTE   W02
 BYTE   W01
 BYTE   W02
 BYTE   W01
 BYTE   W02
 BYTE   W01
 BYTE   W02
 BYTE   W01
 BYTE   W02
 BYTE   W01
 BYTE   W02
 BYTE   W01
 BYTE   W02
 BYTE   W01
 BYTE   W02
 BYTE   W01
 BYTE   W02
 BYTE   W01
 BYTE   W02
 BYTE   W01
 BYTE   W02
 BYTE   W01
 BYTE   W02
 BYTE   W01
 BYTE   W01
 BYTE   N44  En3
 BYTE   W03
 BYTE   W03
 BYTE   W03
 BYTE   W03
 BYTE   W03
 BYTE   W03
 BYTE   W02
 BYTE   W03
 BYTE   W01
//  #02 //031   ----------------------------------------
 BYTE   W02
 BYTE   W03
 BYTE   W03
 BYTE   W03
 BYTE   W03
 BYTE   W03
 BYTE   W03
 BYTE   W03
 BYTE   W01
 BYTE   Fs3
 BYTE   W01
 BYTE   W07
 BYTE   W07
 BYTE   W07
 BYTE   W07
 BYTE   W07
 BYTE   W07
 BYTE   W05
 BYTE   An3
 BYTE   W03
 BYTE   W07
 BYTE   W07
 BYTE   W07
//  #02 //032   ----------------------------------------
 BYTE   W07
 BYTE   W07
 BYTE   W08
 BYTE   W02
 BYTE   Fs3
 BYTE   W02
 BYTE   W03
 BYTE   W04
 BYTE   W04
 BYTE   W04
 BYTE   W04
 BYTE   W04
 BYTE   W04
 BYTE   W04
 BYTE   W04
 BYTE   W03
 BYTE   W04
 BYTE   W04
 BYTE   N23  Ds3
 BYTE   W04
 BYTE   W04
 BYTE   W03
 BYTE   W03
 BYTE   W03
 BYTE   W03
 BYTE   W03
 BYTE   W01
//  #02 //033   ----------------------------------------
 BYTE   Bn3
 BYTE   W02
 BYTE   W03
 BYTE   W03
 BYTE   W03
 BYTE   W03
 BYTE   W03
 BYTE   W03
 BYTE   W03
 BYTE   W01
 BYTE   N44  An3
 BYTE   W03
 BYTE   W03
 BYTE   W03
 BYTE   W03
 BYTE   W03
 BYTE   W04
 BYTE   W03
 BYTE   W03
 BYTE   W05
 BYTE   W05
 BYTE   W04
 BYTE   W05
 BYTE   W04
 BYTE   N11  Fs3
 BYTE   W01
 BYTE   W11
 BYTE   En3
 BYTE   W12
//  #02 //034   ----------------------------------------
 BYTE   N32  Ds3
 BYTE   W03
 BYTE   W03
 BYTE   W03
 BYTE   W03
 BYTE   W03
 BYTE   W03
 BYTE   W03
 BYTE   W03
 BYTE   W03
 BYTE   W03
 BYTE   W03
 BYTE   W03
 BYTE   W03
 BYTE   W03
 BYTE   W02
 BYTE   W01
 BYTE   W02
 BYTE   W01
 BYTE   N23  Fs3
 BYTE   W02
 BYTE   W01
 BYTE   W02
 BYTE   W01
 BYTE   W02
 BYTE   W01
 BYTE   W02
 BYTE   W01
 BYTE   W02
 BYTE   W01
 BYTE   W04
 BYTE   W05
 BYTE   N44  An3
 BYTE   W05
 BYTE   W04
 BYTE   W05
 BYTE   W05
 BYTE   W05
//  #02 //035   ----------------------------------------
 BYTE   W06
 BYTE   W04
 BYTE   W03
 BYTE   W04
 BYTE   W03
 BYTE   W04
 BYTE   N11  Gs3
 BYTE   W12
 BYTE   Fs3
 BYTE   W12
 BYTE   N68  En3
 BYTE   W04
 BYTE   W06
 BYTE   W04
 BYTE   W03
 BYTE   W03
 BYTE   W04
 BYTE   W03
 BYTE   W03
 BYTE   W04
 BYTE   W03
 BYTE   W04
 BYTE   W03
 BYTE   W01
 BYTE   W02
 BYTE   W01
//  #02 //036   ----------------------------------------
 BYTE   W02
 BYTE   W01
 BYTE   W02
 BYTE   W01
 BYTE   W02
 BYTE   W01
 BYTE   W02
 BYTE   W01
 BYTE   W02
 BYTE   W01
 BYTE   W02
 BYTE   W01
 BYTE   W02
 BYTE   W01
 BYTE   W02
 BYTE   W01
 BYTE   TIE  Cs3
 BYTE   W01
 BYTE   W01
 BYTE   W02
 BYTE   W01
 BYTE   W02
 BYTE   W01
 BYTE   W02
 BYTE   W01
 BYTE   W02
 BYTE   W01
 BYTE   W02
 BYTE   W01
 BYTE   W02
 BYTE   W06
 BYTE   W04
 BYTE   W03
 BYTE   W03
 BYTE   W04
 BYTE   W03
 BYTE   W03
 BYTE   W03
 BYTE   W03
 BYTE   W03
 BYTE   W03
 BYTE   W03
 BYTE   W03
 BYTE   W01
 BYTE   W05
 BYTE   W03
//  #02 //037   ----------------------------------------
 BYTE   W03
 BYTE   W05
 BYTE   W06
 BYTE   W05
 BYTE   W05
 BYTE   W06
 BYTE   W05
 BYTE   W06
 BYTE   W05
 BYTE   W13
 BYTE   W07
 BYTE   W06
 BYTE   W07
 BYTE   W06
 BYTE   W07
 BYTE   W04
//  #02 //038   ----------------------------------------
 BYTE   W02
 BYTE   W07
 BYTE   W06
 BYTE   W07
 BYTE   W06
 BYTE   W07
 BYTE   W07
 BYTE   W03
 BYTE   W03
 BYTE   W03
 BYTE   W03
 BYTE   W03
 BYTE   W03
 BYTE   W03
 BYTE   W03
 BYTE   W03
 BYTE   W03
 BYTE   W03
 BYTE   W03
 BYTE   W03
 BYTE   W03
 BYTE   W03
 BYTE   W03
 BYTE   W03
 BYTE   W03
//  #02 //039   ----------------------------------------
 BYTE   W03
 BYTE   W03
 BYTE   W03
 BYTE   W03
 BYTE   W03
 BYTE   W03
 BYTE   W03
 BYTE   W03
 BYTE   W03
 BYTE   W03
 BYTE   W03
 BYTE   W03
 BYTE   W03
 BYTE   W03
 BYTE   W03
 BYTE   W03
 BYTE   W03
 BYTE   W03
 BYTE   W03
 BYTE   W03
 BYTE   W03
 BYTE   W03
 BYTE   W03
 BYTE   W03
 BYTE   W03
 BYTE   W03
 BYTE   W03
 BYTE   W03
 BYTE   W03
 BYTE   W03
 BYTE   W03
 BYTE   W02
 BYTE   EOT
 BYTE   W01
//  #02 //040   ----------------------------------------
 BYTE   W03
 BYTE   W01
 BYTE   W92
//  #02 //041   ----------------------------------------
 BYTE   W96
//  #02 //042   ----------------------------------------
 BYTE   W24
 BYTE   GoTo
  POIN2 Label_017E947B
 BYTE   FINE

//**************** Track 3 (Midi-Chn.2) ****************//

song24_003:
//  #03 //000   ----------------------------------------
 BYTE   KEYSH   song24_key+0
 BYTE   VOICE   40
 BYTE   VOL   19*song24_mvl/mxv
 BYTE   PAN   c_v+0
 BYTE   BEND   c_v+0
 BYTE   W24
Label_0182D0BF:
 BYTE   N10  Cs3  v112
 BYTE   W12
 BYTE   Cs3  v044
 BYTE   W12
 BYTE   Cs3  v032
 BYTE   W12
 BYTE   Cs3  v080
 BYTE   W12
 BYTE   Cs3  v096
 BYTE   W12
 BYTE   Cs3  v112
 BYTE   W12
//  #03 //001   ----------------------------------------
Label_0182D0D2:
 BYTE   N10  Cs3  v112
 BYTE   W12
 BYTE   Cs3  v044
 BYTE   W12
 BYTE   Cs3  v032
 BYTE   W12
 BYTE   Cs3  v080
 BYTE   W12
 BYTE   Cs3  v096
 BYTE   W12
 BYTE   Cs3  v112
 BYTE   W12
 BYTE   N10
 BYTE   W12
 BYTE   Cs3  v044
 BYTE   W12
 BYTE   PEND 
//  #03 //002   ----------------------------------------
Label_0182D0EB:
 BYTE   N10  Cs3  v032
 BYTE   W12
 BYTE   Cs3  v080
 BYTE   W12
 BYTE   Cs3  v096
 BYTE   W12
 BYTE   Cs3  v112
 BYTE   W12
 BYTE   N10
 BYTE   W12
 BYTE   Cs3  v044
 BYTE   W12
 BYTE   Cs3  v032
 BYTE   W12
 BYTE   Cs3  v080
 BYTE   W12
 BYTE   PEND 
//  #03 //003   ----------------------------------------
Label_0182D104:
 BYTE   N10  Cs3  v096
 BYTE   W12
 BYTE   Cs3  v112
 BYTE   W12
 BYTE   Bn2
 BYTE   W12
 BYTE   Bn2  v044
 BYTE   W12
 BYTE   Bn2  v032
 BYTE   W12
 BYTE   Bn2  v080
 BYTE   W12
 BYTE   Bn2  v096
 BYTE   W12
 BYTE   Bn2  v112
 BYTE   W12
 BYTE   PEND 
//  #03 //004   ----------------------------------------
Label_0182D11D:
 BYTE   N10  Bn2  v112
 BYTE   W12
 BYTE   Bn2  v044
 BYTE   W12
 BYTE   Bn2  v032
 BYTE   W12
 BYTE   Bn2  v080
 BYTE   W12
 BYTE   Bn2  v096
 BYTE   W12
 BYTE   Bn2  v112
 BYTE   W12
 BYTE   Cs3
 BYTE   W12
 BYTE   Cs3  v044
 BYTE   W12
 BYTE   PEND 
//  #03 //005   ----------------------------------------
 BYTE   PATT
  POIN2 Label_0182D0EB
//  #03 //006   ----------------------------------------
Label_0182D13B:
 BYTE   N10  Cs3  v096
 BYTE   W12
 BYTE   Cs3  v112
 BYTE   W12
 BYTE   N10
 BYTE   W12
 BYTE   Cs3  v044
 BYTE   W12
 BYTE   Cs3  v032
 BYTE   W12
 BYTE   Cs3  v080
 BYTE   W12
 BYTE   Cs3  v096
 BYTE   W12
 BYTE   Cs3  v112
 BYTE   W12
 BYTE   PEND 
//  #03 //007   ----------------------------------------
 BYTE   PATT
  POIN2 Label_0182D0D2
//  #03 //008   ----------------------------------------
 BYTE   PATT
  POIN2 Label_0182D0EB
//  #03 //009   ----------------------------------------
 BYTE   PATT
  POIN2 Label_0182D104
//  #03 //010   ----------------------------------------
Label_0182D163:
 BYTE   N10  Bn2  v112
 BYTE   W12
 BYTE   Bn2  v044
 BYTE   W12
 BYTE   Bn2  v032
 BYTE   W12
 BYTE   Bn2  v080
 BYTE   W12
 BYTE   Bn2  v096
 BYTE   W12
 BYTE   Bn2  v112
 BYTE   W12
 BYTE   Fs2
 BYTE   W12
 BYTE   Fs2  v044
 BYTE   W12
 BYTE   PEND 
//  #03 //011   ----------------------------------------
Label_0182D17C:
 BYTE   N10  Fs2  v032
 BYTE   W12
 BYTE   Fs2  v080
 BYTE   W12
 BYTE   Fs2  v096
 BYTE   W12
 BYTE   Fs2  v112
 BYTE   W12
 BYTE   N10
 BYTE   W12
 BYTE   Fs2  v044
 BYTE   W12
 BYTE   Fs2  v032
 BYTE   W12
 BYTE   Fs2  v080
 BYTE   W12
 BYTE   PEND 
//  #03 //012   ----------------------------------------
 BYTE   Fs2  v096
 BYTE   W12
 BYTE   Fs2  v112
 BYTE   W12
 BYTE   Cs3
 BYTE   W12
 BYTE   Cs3  v044
 BYTE   W12
 BYTE   Cs3  v032
 BYTE   W12
 BYTE   Cs3  v080
 BYTE   W12
 BYTE   Cs3  v096
 BYTE   W12
 BYTE   Cs3  v112
 BYTE   W12
//  #03 //013   ----------------------------------------
 BYTE   PATT
  POIN2 Label_0182D0D2
//  #03 //014   ----------------------------------------
 BYTE   PATT
  POIN2 Label_0182D0EB
//  #03 //015   ----------------------------------------
 BYTE   PATT
  POIN2 Label_0182D104
//  #03 //016   ----------------------------------------
 BYTE   PATT
  POIN2 Label_0182D11D
//  #03 //017   ----------------------------------------
 BYTE   PATT
  POIN2 Label_0182D0EB
//  #03 //018   ----------------------------------------
 BYTE   PATT
  POIN2 Label_0182D13B
//  #03 //019   ----------------------------------------
 BYTE   PATT
  POIN2 Label_0182D0D2
//  #03 //020   ----------------------------------------
 BYTE   PATT
  POIN2 Label_0182D0EB
//  #03 //021   ----------------------------------------
 BYTE   PATT
  POIN2 Label_0182D104
//  #03 //022   ----------------------------------------
 BYTE   PATT
  POIN2 Label_0182D163
//  #03 //023   ----------------------------------------
 BYTE   PATT
  POIN2 Label_0182D17C
//  #03 //024   ----------------------------------------
 BYTE   N10  Fs2  v096
 BYTE   W12
 BYTE   Fs2  v112
 BYTE   W12
 BYTE   N92  An0  v084
 BYTE   W04
 BYTE   W01
 BYTE   W02
 BYTE   W01
 BYTE   W02
 BYTE   W01
 BYTE   W02
 BYTE   W01
 BYTE   W02
 BYTE   W01
 BYTE   W02
 BYTE   W01
 BYTE   W02
 BYTE   W01
 BYTE   W02
 BYTE   W01
 BYTE   W02
 BYTE   W01
 BYTE   W02
 BYTE   W01
 BYTE   W01
 BYTE   W03
 BYTE   W03
 BYTE   W03
 BYTE   W03
 BYTE   W03
 BYTE   W03
 BYTE   W03
 BYTE   W03
 BYTE   W03
 BYTE   W03
 BYTE   W03
 BYTE   W03
 BYTE   W03
//  #03 //025   ----------------------------------------
 BYTE   W03
 BYTE   W03
 BYTE   W03
 BYTE   W03
 BYTE   W03
 BYTE   W03
 BYTE   W03
 BYTE   W02
 BYTE   W01
 BYTE   N23  En1
 BYTE   W24
 BYTE   An0
 BYTE   W24
 BYTE   N44  Bn0
 BYTE   W04
 BYTE   W01
 BYTE   W02
 BYTE   W01
 BYTE   W02
 BYTE   W01
 BYTE   W02
 BYTE   W01
 BYTE   W02
 BYTE   W01
 BYTE   W02
 BYTE   W01
 BYTE   W02
 BYTE   W01
 BYTE   W01
//  #03 //026   ----------------------------------------
 BYTE   W01
 BYTE   W02
 BYTE   W01
 BYTE   W02
 BYTE   W01
 BYTE   W02
 BYTE   W01
 BYTE   W02
 BYTE   W01
 BYTE   W02
 BYTE   W01
 BYTE   W02
 BYTE   W01
 BYTE   W02
 BYTE   W03
 BYTE   N23  Fs1
 BYTE   W24
 BYTE   N68  Bn0
 BYTE   W04
 BYTE   W02
 BYTE   W01
 BYTE   W02
 BYTE   W01
 BYTE   W02
 BYTE   W01
 BYTE   W02
 BYTE   W01
 BYTE   W02
 BYTE   W01
 BYTE   W02
 BYTE   W01
 BYTE   W02
 BYTE   W01
 BYTE   W02
 BYTE   W01
 BYTE   W02
 BYTE   W01
 BYTE   W02
 BYTE   W02
 BYTE   W01
 BYTE   W02
 BYTE   W01
 BYTE   W02
 BYTE   W01
 BYTE   W02
 BYTE   W01
 BYTE   W02
 BYTE   W01
//  #03 //027   ----------------------------------------
 BYTE   W02
 BYTE   W01
 BYTE   W02
 BYTE   W01
 BYTE   W02
 BYTE   W01
 BYTE   W02
 BYTE   W01
 BYTE   W02
 BYTE   W01
 BYTE   W02
 BYTE   W01
 BYTE   W02
 BYTE   W01
 BYTE   W02
 BYTE   W01
 BYTE   N10  Fs2  v112
 BYTE   W12
 BYTE   Fs2  v044
 BYTE   W12
 BYTE   Fs2  v032
 BYTE   W12
 BYTE   Fs2  v080
 BYTE   W12
 BYTE   Fs2  v096
 BYTE   W12
 BYTE   Fs2  v112
 BYTE   W12
//  #03 //028   ----------------------------------------
 BYTE   N10
 BYTE   W12
 BYTE   Fs2  v044
 BYTE   W12
 BYTE   Fs2  v032
 BYTE   W12
 BYTE   Fs2  v080
 BYTE   W12
 BYTE   Fs2  v096
 BYTE   W12
 BYTE   Fs2  v112
 BYTE   W12
 BYTE   N10
 BYTE   W12
 BYTE   Fs2  v044
 BYTE   W12
//  #03 //029   ----------------------------------------
 BYTE   Fs2  v032
 BYTE   W12
 BYTE   Fs2  v080
 BYTE   W12
 BYTE   Fs2  v096
 BYTE   W12
 BYTE   Fs2  v112
 BYTE   W12
 BYTE   N10
 BYTE   W12
 BYTE   Fs2  v044
 BYTE   W12
 BYTE   Fs2  v032
 BYTE   W12
 BYTE   Cs2  v088
 BYTE   W12
//  #03 //030   ----------------------------------------
 BYTE   Fs2  v076
 BYTE   W12
 BYTE   Gs2  v096
 BYTE   W12
 BYTE   N92  An0  v084
 BYTE   W02
 BYTE   W01
 BYTE   W02
 BYTE   W01
 BYTE   W02
 BYTE   W01
 BYTE   W02
 BYTE   W01
 BYTE   W02
 BYTE   W01
 BYTE   W02
 BYTE   W01
 BYTE   W02
 BYTE   W01
 BYTE   W02
 BYTE   W01
 BYTE   W02
 BYTE   W01
 BYTE   W02
 BYTE   W01
 BYTE   W02
 BYTE   W01
 BYTE   W02
 BYTE   W01
 BYTE   W02
 BYTE   W01
 BYTE   W02
 BYTE   W01
 BYTE   W02
 BYTE   W01
 BYTE   W02
 BYTE   W01
 BYTE   W02
 BYTE   W01
 BYTE   W02
 BYTE   W01
 BYTE   W02
 BYTE   W01
 BYTE   W02
 BYTE   W01
 BYTE   W02
 BYTE   W01
 BYTE   W02
 BYTE   W01
 BYTE   W02
 BYTE   W01
 BYTE   W02
 BYTE   W01
//  #03 //031   ----------------------------------------
 BYTE   W02
 BYTE   W01
 BYTE   W02
 BYTE   W01
 BYTE   W02
 BYTE   W01
 BYTE   W02
 BYTE   W01
 BYTE   W02
 BYTE   W01
 BYTE   W02
 BYTE   W07
 BYTE   N23  En1
 BYTE   W24
 BYTE   An0
 BYTE   W24
 BYTE   N44  Bn0
 BYTE   W02
 BYTE   W01
 BYTE   W02
 BYTE   W01
 BYTE   W02
 BYTE   W01
 BYTE   W02
 BYTE   W01
 BYTE   W02
 BYTE   W01
 BYTE   W02
 BYTE   W01
 BYTE   W02
 BYTE   W01
 BYTE   W02
 BYTE   W01
//  #03 //032   ----------------------------------------
 BYTE   W02
 BYTE   W01
 BYTE   W02
 BYTE   W01
 BYTE   W02
 BYTE   W01
 BYTE   W02
 BYTE   W01
 BYTE   W02
 BYTE   W01
 BYTE   W02
 BYTE   W01
 BYTE   W02
 BYTE   W01
 BYTE   W02
 BYTE   W01
 BYTE   N23  Fs1
 BYTE   W24
 BYTE   N68  Bn0
 BYTE   W01
 BYTE   W03
 BYTE   W03
 BYTE   W03
 BYTE   W03
 BYTE   W03
 BYTE   W03
 BYTE   W03
 BYTE   W03
 BYTE   W03
 BYTE   W03
 BYTE   W03
 BYTE   W03
 BYTE   W02
 BYTE   W01
 BYTE   W02
 BYTE   W01
 BYTE   W02
 BYTE   W01
 BYTE   W02
//  #03 //033   ----------------------------------------
 BYTE   W01
 BYTE   W02
 BYTE   W01
 BYTE   W02
 BYTE   W01
 BYTE   W02
 BYTE   W01
 BYTE   W02
 BYTE   W01
 BYTE   W02
 BYTE   W01
 BYTE   W02
 BYTE   W01
 BYTE   W02
 BYTE   W02
 BYTE   W01
 BYTE   Cs1  v088
 BYTE   W02
 BYTE   W01
 BYTE   W02
 BYTE   W01
 BYTE   W02
 BYTE   W01
 BYTE   W02
 BYTE   W01
 BYTE   W02
 BYTE   W01
 BYTE   W02
 BYTE   W01
 BYTE   W02
 BYTE   W01
 BYTE   W02
 BYTE   W01
 BYTE   W02
 BYTE   W01
 BYTE   W02
 BYTE   W01
 BYTE   W03
 BYTE   W03
 BYTE   W03
 BYTE   W03
 BYTE   W03
 BYTE   W03
 BYTE   W03
 BYTE   W03
 BYTE   W03
 BYTE   W03
 BYTE   W03
 BYTE   W03
 BYTE   W03
 BYTE   W01
 BYTE   W01
 BYTE   W01
//  #03 //034   ----------------------------------------
 BYTE   Cs0
 BYTE   W01
 BYTE   W01
 BYTE   W02
 BYTE   W01
 BYTE   W02
 BYTE   W01
 BYTE   W02
 BYTE   W01
 BYTE   W02
 BYTE   W01
 BYTE   W02
 BYTE   W01
 BYTE   W02
 BYTE   W01
 BYTE   W02
 BYTE   W01
 BYTE   W02
 BYTE   W01
 BYTE   W03
 BYTE   W03
 BYTE   W03
 BYTE   W03
 BYTE   W03
 BYTE   W03
 BYTE   W03
 BYTE   W03
 BYTE   W03
 BYTE   W03
 BYTE   W03
 BYTE   W03
 BYTE   W03
 BYTE   W03
 BYTE   W03
 BYTE   W01
 BYTE   Cs1
 BYTE   W01
 BYTE   W03
 BYTE   W03
 BYTE   W03
 BYTE   W03
 BYTE   W03
 BYTE   W03
 BYTE   W03
 BYTE   W02
//  #03 //035   ----------------------------------------
 BYTE   W01
 BYTE   W03
 BYTE   W03
 BYTE   W03
 BYTE   W02
 BYTE   W03
 BYTE   W03
 BYTE   W03
 BYTE   W03
 BYTE   W03
 BYTE   W03
 BYTE   W03
 BYTE   W03
 BYTE   W03
 BYTE   W03
 BYTE   W03
 BYTE   W02
 BYTE   W01
 BYTE   Gs0
 BYTE   W02
 BYTE   W01
 BYTE   W02
 BYTE   W01
 BYTE   W02
 BYTE   W01
 BYTE   W02
 BYTE   W01
 BYTE   W02
 BYTE   W01
 BYTE   W02
 BYTE   W01
 BYTE   W02
 BYTE   W01
 BYTE   W02
 BYTE   W01
 BYTE   W02
 BYTE   W01
 BYTE   W02
 BYTE   W01
 BYTE   W02
 BYTE   W03
 BYTE   W03
 BYTE   W03
 BYTE   W03
 BYTE   W03
 BYTE   W01
//  #03 //036   ----------------------------------------
 BYTE   W02
 BYTE   W03
 BYTE   W03
 BYTE   W03
 BYTE   W03
 BYTE   W03
 BYTE   W03
 BYTE   W03
 BYTE   W01
 BYTE   N10  Cs3  v112
 BYTE   W12
 BYTE   Cs3  v044
 BYTE   W12
 BYTE   Cs3  v032
 BYTE   W12
 BYTE   Cs3  v080
 BYTE   W12
 BYTE   Cs3  v096
 BYTE   W12
 BYTE   Cs3  v112
 BYTE   W12
//  #03 //037   ----------------------------------------
 BYTE   PATT
  POIN2 Label_0182D0D2
//  #03 //038   ----------------------------------------
 BYTE   PATT
  POIN2 Label_0182D0EB
//  #03 //039   ----------------------------------------
 BYTE   PATT
  POIN2 Label_0182D13B
//  #03 //040   ----------------------------------------
 BYTE   PATT
  POIN2 Label_0182D0D2
//  #03 //041   ----------------------------------------
 BYTE   PATT
  POIN2 Label_0182D0EB
//  #03 //042   ----------------------------------------
 BYTE   N10  Cs3  v096
 BYTE   W12
 BYTE   Cs3  v112
 BYTE   W12
 BYTE   GoTo
  POIN2 Label_0182D0BF
 BYTE   FINE

//**************** Track 4 (Midi-Chn.3) ****************//

song24_004:
//  #04 //000   ----------------------------------------
 BYTE   KEYSH   song24_key+0
 BYTE   VOICE   68
 BYTE   PAN   c_v+0
 BYTE   VOL   41*song24_mvl/mxv
 BYTE   BEND   c_v+0
 BYTE   W24
Label_0182D413:
 BYTE   W32
 BYTE   W40
//  #04 //001   ----------------------------------------
 BYTE   W36
 BYTE   W02
 BYTE   W36
 BYTE   W03
 BYTE   W19
//  #04 //002   ----------------------------------------
 BYTE   W20
 BYTE   W40
 BYTE   W36
//  #04 //003   ----------------------------------------
 BYTE   W03
 BYTE   W36
 BYTE   W03
 BYTE   W01
 BYTE   W01
 BYTE   W01
 BYTE   W01
 BYTE   W01
 BYTE   W01
 BYTE   N23  Fn2  v127
 BYTE   W03
 BYTE   W03
 BYTE   W03
 BYTE   W03
 BYTE   W03
 BYTE   W03
 BYTE   W03
 BYTE   W03
 BYTE   Gs2
 BYTE   W03
 BYTE   W03
 BYTE   W03
 BYTE   W03
 BYTE   W03
 BYTE   W03
 BYTE   W03
 BYTE   W02
 BYTE   W01
//  #04 //004   ----------------------------------------
 BYTE   Cs3
 BYTE   W01
 BYTE   W01
 BYTE   W02
 BYTE   W01
 BYTE   W02
 BYTE   W01
 BYTE   W02
 BYTE   W01
 BYTE   W02
 BYTE   W01
 BYTE   W02
 BYTE   W01
 BYTE   W02
 BYTE   W01
 BYTE   W02
 BYTE   W01
 BYTE   W01
 BYTE   Ds3
 BYTE   W01
 BYTE   W09
 BYTE   W10
 BYTE   W04
 BYTE   Fs3
 BYTE   W06
 BYTE   W09
 BYTE   W09
 BYTE   Fn3
 BYTE   W01
 BYTE   W03
 BYTE   W03
 BYTE   W03
 BYTE   W03
 BYTE   W03
 BYTE   W03
 BYTE   W02
 BYTE   W03
//  #04 //005   ----------------------------------------
 BYTE   TIE  Cs3
 BYTE   W03
 BYTE   W05
 BYTE   W06
 BYTE   W06
 BYTE   W05
 BYTE   W06
 BYTE   W05
 BYTE   W06
 BYTE   W06
 BYTE   W05
 BYTE   W06
 BYTE   W05
 BYTE   W07
 BYTE   W03
 BYTE   W03
 BYTE   W03
 BYTE   W04
 BYTE   W03
 BYTE   W03
 BYTE   W03
 BYTE   W03
//  #04 //006   ----------------------------------------
 BYTE   W01
 BYTE   W03
 BYTE   W03
 BYTE   W03
 BYTE   W03
 BYTE   W04
 BYTE   W03
 BYTE   W03
 BYTE   W03
 BYTE   W04
 BYTE   W01
 BYTE   W02
 BYTE   W01
 BYTE   W02
 BYTE   W01
 BYTE   W02
 BYTE   W01
 BYTE   W02
 BYTE   W01
 BYTE   W02
 BYTE   W01
 BYTE   W02
 BYTE   W01
 BYTE   W02
 BYTE   W01
 BYTE   W02
 BYTE   W01
 BYTE   W02
 BYTE   W01
 BYTE   W02
 BYTE   W01
 BYTE   W02
 BYTE   W01
 BYTE   W02
 BYTE   W01
 BYTE   W02
 BYTE   W01
 BYTE   W02
 BYTE   W01
 BYTE   W02
 BYTE   W01
 BYTE   W02
 BYTE   W01
 BYTE   W02
 BYTE   W01
 BYTE   W09
 BYTE   EOT
 BYTE   W05
//  #04 //007   ----------------------------------------
 BYTE   W12
 BYTE   W01
 BYTE   W01
 BYTE   W01
 BYTE   W01
 BYTE   W01
 BYTE   W01
 BYTE   W06
 BYTE   N23  Gs2
 BYTE   W24
 BYTE   Cs3
 BYTE   W24
 BYTE   N11  Bn2
 BYTE   W01
 BYTE   W01
 BYTE   W02
 BYTE   W01
 BYTE   W02
 BYTE   W01
 BYTE   W02
 BYTE   W01
 BYTE   W01
 BYTE   Ds3
 BYTE   W01
 BYTE   W01
 BYTE   W02
 BYTE   W01
 BYTE   W02
 BYTE   W01
 BYTE   W02
 BYTE   W01
 BYTE   W01
//  #04 //008   ----------------------------------------
 BYTE   N44  Fs3
 BYTE   W01
 BYTE   W01
 BYTE   W02
 BYTE   W01
 BYTE   W02
 BYTE   W01
 BYTE   W02
 BYTE   W01
 BYTE   W02
 BYTE   W01
 BYTE   W02
 BYTE   W01
 BYTE   W02
 BYTE   W13
 BYTE   W06
 BYTE   W06
 BYTE   W04
 BYTE   N23  Fn3
 BYTE   W03
 BYTE   W10
 BYTE   W05
 BYTE   W05
 BYTE   W01
 BYTE   Gs3
 BYTE   W04
 BYTE   W09
 BYTE   W04
 BYTE   W05
 BYTE   W02
//  #04 //009   ----------------------------------------
 BYTE   Cs3
 BYTE   W02
 BYTE   W04
 BYTE   W05
 BYTE   W01
 BYTE   W02
 BYTE   W01
 BYTE   W02
 BYTE   W01
 BYTE   W02
 BYTE   W01
 BYTE   W03
 BYTE   N44  Bn3
 BYTE   W03
 BYTE   W01
 BYTE   W01
 BYTE   W01
 BYTE   W01
 BYTE   W01
 BYTE   W01
 BYTE   W01
 BYTE   W01
 BYTE   W01
 BYTE   W08
 BYTE   W08
 BYTE   W02
 BYTE   W01
 BYTE   W02
 BYTE   W01
 BYTE   W02
 BYTE   W01
 BYTE   W02
 BYTE   W01
 BYTE   W02
 BYTE   W01
 BYTE   W02
 BYTE   W01
 BYTE   W02
 BYTE   N23  Fs3
 BYTE   W01
 BYTE   W02
 BYTE   W01
 BYTE   W02
 BYTE   W01
 BYTE   W02
 BYTE   W01
 BYTE   W02
 BYTE   W01
 BYTE   W02
 BYTE   W01
 BYTE   W02
 BYTE   W01
 BYTE   W02
 BYTE   W01
 BYTE   W02
//  #04 //010   ----------------------------------------
 BYTE   N32  Ds3
 BYTE   W01
 BYTE   W01
 BYTE   W03
 BYTE   W03
 BYTE   W03
 BYTE   W03
 BYTE   W03
 BYTE   W03
 BYTE   W03
 BYTE   W03
 BYTE   W03
 BYTE   W03
 BYTE   W03
 BYTE   W01
 BYTE   N11  Bn2
 BYTE   W02
 BYTE   W03
 BYTE   W03
 BYTE   W03
 BYTE   W01
 BYTE   N23  Fs3
 BYTE   W02
 BYTE   W03
 BYTE   W03
 BYTE   W03
 BYTE   W03
 BYTE   W03
 BYTE   W03
 BYTE   W03
 BYTE   W01
 BYTE   N68  Gs3
 BYTE   W01
 BYTE   W02
 BYTE   W01
 BYTE   W02
 BYTE   W01
 BYTE   W02
 BYTE   W01
 BYTE   W02
 BYTE   W01
 BYTE   W02
 BYTE   W03
 BYTE   W03
 BYTE   W03
//  #04 //011   ----------------------------------------
 BYTE   W03
 BYTE   W03
 BYTE   W03
 BYTE   W03
 BYTE   W03
 BYTE   W03
 BYTE   W03
 BYTE   W03
 BYTE   W03
 BYTE   W03
 BYTE   W03
 BYTE   W03
 BYTE   W03
 BYTE   W03
 BYTE   W03
 BYTE   W02
 BYTE   W01
 BYTE   N23  Ds3
 BYTE   W06
 BYTE   W03
 BYTE   W03
 BYTE   W04
 BYTE   W03
 BYTE   W03
 BYTE   W02
 BYTE   N24  Cs3
 BYTE   W02
 BYTE   W03
 BYTE   W03
 BYTE   W04
 BYTE   W03
 BYTE   W03
 BYTE   W04
 BYTE   W02
//  #04 //012   ----------------------------------------
 BYTE   Gs2
 BYTE   W01
 BYTE   W03
 BYTE   W04
 BYTE   W03
 BYTE   W03
 BYTE   W04
 BYTE   W03
 BYTE   W03
 BYTE   TIE  Fn2
 BYTE   W04
 BYTE   W03
 BYTE   W10
 BYTE   W04
 BYTE   W05
 BYTE   W05
 BYTE   W05
 BYTE   W04
 BYTE   W05
 BYTE   W05
 BYTE   W11
 BYTE   W06
 BYTE   W05
//  #04 //013   ----------------------------------------
 BYTE   W06
 BYTE   W05
 BYTE   W06
 BYTE   W05
 BYTE   W06
 BYTE   W05
 BYTE   W06
 BYTE   W05
 BYTE   W06
 BYTE   W03
 BYTE   W03
 BYTE   W03
 BYTE   W03
 BYTE   W03
 BYTE   W03
 BYTE   W03
 BYTE   W03
 BYTE   W03
 BYTE   W03
 BYTE   W03
 BYTE   W03
 BYTE   W03
 BYTE   W03
 BYTE   W03
 BYTE   W01
//  #04 //014   ----------------------------------------
 BYTE   W02
 BYTE   W03
 BYTE   EOT
 BYTE   W03
 BYTE   W03
 BYTE   W03
 BYTE   W02
 BYTE   W80
//  #04 //015   ----------------------------------------
 BYTE   W40
 BYTE   W01
 BYTE   W01
 BYTE   W01
 BYTE   W01
 BYTE   W01
 BYTE   W01
 BYTE   W01
 BYTE   W01
 BYTE   N23
 BYTE   W09
 BYTE   W06
 BYTE   W05
 BYTE   W04
 BYTE   Gs2
 BYTE   W01
 BYTE   W06
 BYTE   W05
 BYTE   W05
 BYTE   W05
 BYTE   W02
//  #04 //016   ----------------------------------------
 BYTE   Cs3
 BYTE   W01
 BYTE   W03
 BYTE   W03
 BYTE   W03
 BYTE   W03
 BYTE   W03
 BYTE   W03
 BYTE   W03
 BYTE   W02
 BYTE   Ds3
 BYTE   W08
 BYTE   W06
 BYTE   W05
 BYTE   W05
 BYTE   Fs3
 BYTE   W06
 BYTE   W05
 BYTE   W05
 BYTE   W06
 BYTE   W02
 BYTE   Fn3
 BYTE   W13
 BYTE   W11
//  #04 //017   ----------------------------------------
 BYTE   TIE  Cs3
 BYTE   W05
 BYTE   W15
 BYTE   W16
 BYTE   W07
 BYTE   W04
 BYTE   W04
 BYTE   W03
 BYTE   W04
 BYTE   W04
 BYTE   W04
 BYTE   W04
 BYTE   W03
 BYTE   W04
 BYTE   W04
 BYTE   W04
 BYTE   W03
 BYTE   W04
 BYTE   W04
//  #04 //018   ----------------------------------------
 BYTE   W04
 BYTE   W04
 BYTE   W03
 BYTE   W04
 BYTE   W03
 BYTE   W03
 BYTE   W03
 BYTE   W03
 BYTE   W03
 BYTE   W03
 BYTE   W03
 BYTE   W03
 BYTE   W03
 BYTE   W03
 BYTE   W03
 BYTE   W03
 BYTE   W03
 BYTE   W03
 BYTE   W03
 BYTE   W03
 BYTE   W03
 BYTE   W03
 BYTE   W03
 BYTE   W03
 BYTE   W03
 BYTE   W03
 BYTE   W03
 BYTE   W03
 BYTE   W03
 BYTE   W01
 BYTE   EOT
 BYTE   W02
 BYTE   W03
//  #04 //019   ----------------------------------------
 BYTE   W03
 BYTE   W92
 BYTE   W01
//  #04 //020   ----------------------------------------
 BYTE   W96
//  #04 //021   ----------------------------------------
 BYTE   W96
//  #04 //022   ----------------------------------------
 BYTE   W96
//  #04 //023   ----------------------------------------
 BYTE   W96
//  #04 //024   ----------------------------------------
 BYTE   W40
 BYTE   W02
 BYTE   W01
 BYTE   W02
 BYTE   W01
 BYTE   W02
 BYTE   W01
 BYTE   W02
 BYTE   W01
 BYTE   W02
 BYTE   W01
 BYTE   W02
 BYTE   W01
 BYTE   W02
 BYTE   W01
 BYTE   W02
 BYTE   W01
 BYTE   W02
 BYTE   W01
 BYTE   W02
 BYTE   W01
 BYTE   W02
 BYTE   N44  An2
 BYTE   W01
 BYTE   W13
 BYTE   W07
 BYTE   W03
//  #04 //025   ----------------------------------------
 BYTE   W04
 BYTE   W06
 BYTE   W07
 BYTE   W06
 BYTE   W01
 BYTE   Bn2
 BYTE   W06
 BYTE   W07
 BYTE   W06
 BYTE   W07
 BYTE   W07
 BYTE   W06
 BYTE   W07
 BYTE   W01
 BYTE   W01
 BYTE   Cs3
 BYTE   W01
 BYTE   W01
 BYTE   W02
 BYTE   W01
 BYTE   W02
 BYTE   W01
 BYTE   W02
 BYTE   W01
 BYTE   W02
 BYTE   W01
 BYTE   W01
 BYTE   W03
 BYTE   W03
 BYTE   W03
//  #04 //026   ----------------------------------------
 BYTE   W03
 BYTE   W03
 BYTE   W03
 BYTE   W03
 BYTE   W03
 BYTE   W03
 BYTE   W03
 BYTE   W03
 BYTE   Bn2
 BYTE   W03
 BYTE   W03
 BYTE   W03
 BYTE   W03
 BYTE   W03
 BYTE   W03
 BYTE   W03
 BYTE   W03
 BYTE   W03
 BYTE   W03
 BYTE   W03
 BYTE   W03
 BYTE   W03
 BYTE   W03
 BYTE   W03
 BYTE   W02
 BYTE   W01
 BYTE   N23  Fs2
 BYTE   W24
//  #04 //027   ----------------------------------------
 BYTE   Ds3
 BYTE   W02
 BYTE   W01
 BYTE   W02
 BYTE   W01
 BYTE   W02
 BYTE   W01
 BYTE   W02
 BYTE   W01
 BYTE   W02
 BYTE   W01
 BYTE   W02
 BYTE   W01
 BYTE   W02
 BYTE   W01
 BYTE   W02
 BYTE   W01
 BYTE   N32  Cs3
 BYTE   W09
 BYTE   W02
 BYTE   W01
 BYTE   W02
 BYTE   W01
 BYTE   W02
 BYTE   W01
 BYTE   W01
 BYTE   W03
 BYTE   W03
 BYTE   W03
 BYTE   W03
 BYTE   W03
 BYTE   W02
 BYTE   N11
 BYTE   W01
 BYTE   W03
 BYTE   W02
 BYTE   W06
 BYTE   TIE  Fn3
 BYTE   W03
 BYTE   W09
 BYTE   W09
 BYTE   W03
//  #04 //028   ----------------------------------------
 BYTE   W06
 BYTE   W14
 BYTE   W07
 BYTE   W07
 BYTE   W07
 BYTE   W07
 BYTE   W07
 BYTE   W10
 BYTE   W06
 BYTE   W05
 BYTE   W05
 BYTE   W06
 BYTE   W05
 BYTE   W04
//  #04 //029   ----------------------------------------
 BYTE   W01
 BYTE   W06
 BYTE   W05
 BYTE   W06
 BYTE   W06
 BYTE   W03
 BYTE   W04
 BYTE   W03
 BYTE   W03
 BYTE   W03
 BYTE   W04
 BYTE   W03
 BYTE   W03
 BYTE   W03
 BYTE   W04
 BYTE   W03
 BYTE   W03
 BYTE   W03
 BYTE   W04
 BYTE   W03
 BYTE   W03
 BYTE   W03
 BYTE   W03
 BYTE   W03
 BYTE   W03
 BYTE   W03
 BYTE   W03
 BYTE   W02
//  #04 //030   ----------------------------------------
 BYTE   W01
 BYTE   W03
 BYTE   W03
 BYTE   W03
 BYTE   W03
 BYTE   W03
 BYTE   W03
 BYTE   W03
 BYTE   W03
 BYTE   W03
 BYTE   W01
 BYTE   EOT
 BYTE   W02
 BYTE   W01
 BYTE   W30
 BYTE   W01
 BYTE   W01
 BYTE   W01
 BYTE   W01
 BYTE   W01
 BYTE   W01
 BYTE   W01
 BYTE   W01
 BYTE   W01
 BYTE   W01
 BYTE   N44  An3  v116
 BYTE   W13
 BYTE   W06
 BYTE   W05
//  #04 //031   ----------------------------------------
 BYTE   W02
 BYTE   W07
 BYTE   W06
 BYTE   W07
 BYTE   W02
 BYTE   Bn3
 BYTE   W05
 BYTE   W06
 BYTE   W07
 BYTE   W07
 BYTE   W06
 BYTE   W07
 BYTE   W07
 BYTE   W03
 BYTE   Cs4
 BYTE   W03
 BYTE   W18
 BYTE   W03
//  #04 //032   ----------------------------------------
 BYTE   W15
 BYTE   W09
 BYTE   Bn3
 BYTE   W09
 BYTE   W18
 BYTE   W18
 BYTE   W03
 BYTE   N23  Fs3  v100
 BYTE   W15
 BYTE   W09
//  #04 //033   ----------------------------------------
 BYTE   Ds4
 BYTE   W02
 BYTE   W03
 BYTE   W03
 BYTE   W03
 BYTE   W03
 BYTE   W03
 BYTE   W03
 BYTE   W03
 BYTE   W01
 BYTE   N44  Cs4
 BYTE   W02
 BYTE   W03
 BYTE   W03
 BYTE   W03
 BYTE   W03
 BYTE   W03
 BYTE   W03
 BYTE   W03
 BYTE   W03
 BYTE   W03
 BYTE   W03
 BYTE   W03
 BYTE   W03
 BYTE   W03
 BYTE   W03
 BYTE   W03
 BYTE   W01
 BYTE   N11  Bn3
 BYTE   W02
 BYTE   W03
 BYTE   W01
 BYTE   W06
 BYTE   An3
 BYTE   W08
 BYTE   W04
//  #04 //034   ----------------------------------------
 BYTE   N36  Fs3
 BYTE   W03
 BYTE   W03
 BYTE   W03
 BYTE   W03
 BYTE   W03
 BYTE   W03
 BYTE   W03
 BYTE   W03
 BYTE   W03
 BYTE   W03
 BYTE   W03
 BYTE   W03
 BYTE   W03
 BYTE   W03
 BYTE   W03
 BYTE   W02
 BYTE   W01
 BYTE   N23  Bn3
 BYTE   W02
 BYTE   W01
 BYTE   W02
 BYTE   W01
 BYTE   W02
 BYTE   W03
 BYTE   W03
 BYTE   W03
 BYTE   W03
 BYTE   W02
 BYTE   W02
 BYTE   N44  Dn4
 BYTE   W01
 BYTE   W03
 BYTE   W03
 BYTE   W03
 BYTE   W03
 BYTE   W03
 BYTE   W03
 BYTE   W03
 BYTE   W02
//  #04 //035   ----------------------------------------
 BYTE   W03
 BYTE   W03
 BYTE   W03
 BYTE   W03
 BYTE   W03
 BYTE   W03
 BYTE   W03
 BYTE   W02
 BYTE   W01
 BYTE   N11  Bn3
 BYTE   W12
 BYTE   An3
 BYTE   W12
 BYTE   N68  Gs3
 BYTE   W02
 BYTE   W08
 BYTE   W05
 BYTE   W04
 BYTE   W04
 BYTE   W05
 BYTE   W04
 BYTE   W05
 BYTE   W04
 BYTE   W01
 BYTE   W02
 BYTE   W01
 BYTE   W02
 BYTE   W01
//  #04 //036   ----------------------------------------
 BYTE   W02
 BYTE   W01
 BYTE   W02
 BYTE   W01
 BYTE   W02
 BYTE   W02
 BYTE   W01
 BYTE   W02
 BYTE   W01
 BYTE   W02
 BYTE   W01
 BYTE   W02
 BYTE   W01
 BYTE   W02
 BYTE   W01
 BYTE   W01
 BYTE   TIE  Ds3  v084
 BYTE   W01
 BYTE   W03
 BYTE   W03
 BYTE   W03
 BYTE   W03
 BYTE   W03
 BYTE   W03
 BYTE   W03
 BYTE   W03
 BYTE   W03
 BYTE   W03
 BYTE   W03
 BYTE   W03
 BYTE   W03
 BYTE   W03
 BYTE   W03
 BYTE   W03
 BYTE   W03
 BYTE   W01
 BYTE   W19
//  #04 //037   ----------------------------------------
 BYTE   W02
 BYTE   W20
 BYTE   W21
 BYTE   W20
 BYTE   W03
 BYTE   W03
 BYTE   W03
 BYTE   W03
 BYTE   W03
 BYTE   W03
 BYTE   W03
 BYTE   W03
 BYTE   W03
 BYTE   W03
 BYTE   W03
//  #04 //038   ----------------------------------------
 BYTE   W03
 BYTE   W03
 BYTE   W03
 BYTE   W03
 BYTE   W03
 BYTE   W03
 BYTE   W03
 BYTE   W03
 BYTE   W03
 BYTE   W03
 BYTE   W03
 BYTE   W03
 BYTE   W03
 BYTE   W03
 BYTE   W03
 BYTE   W03
 BYTE   W03
 BYTE   W03
 BYTE   W03
 BYTE   W03
 BYTE   W03
 BYTE   W03
 BYTE   W03
 BYTE   W03
 BYTE   W03
 BYTE   W03
 BYTE   W03
 BYTE   W03
 BYTE   W03
 BYTE   W03
 BYTE   W03
 BYTE   W03
//  #04 //039   ----------------------------------------
 BYTE   W03
 BYTE   W03
 BYTE   W03
 BYTE   W03
 BYTE   W03
 BYTE   W03
 BYTE   W03
 BYTE   W03
 BYTE   W03
 BYTE   W03
 BYTE   W03
 BYTE   W03
 BYTE   W03
 BYTE   W03
 BYTE   W03
 BYTE   W03
 BYTE   W03
 BYTE   W03
 BYTE   W03
 BYTE   W03
 BYTE   W03
 BYTE   W03
 BYTE   W03
 BYTE   W03
 BYTE   W03
 BYTE   W03
 BYTE   W03
 BYTE   W02
 BYTE   EOT
 BYTE   W01
 BYTE   W01
 BYTE   W11
//  #04 //040   ----------------------------------------
 BYTE   W96
//  #04 //041   ----------------------------------------
 BYTE   W96
//  #04 //042   ----------------------------------------
 BYTE   W24
 BYTE   GoTo
  POIN2 Label_0182D413
 BYTE   FINE

//**************** Track 5 (Midi-Chn.4) ****************//

song24_005:
//  #05 //000   ----------------------------------------
 BYTE   KEYSH   song24_key+0
 BYTE   VOICE   73
 BYTE   PAN   c_v+0
 BYTE   VOL   20*song24_mvl/mxv
 BYTE   BEND   c_v+0
 BYTE   W24
Label_017E4837:
 BYTE   W24
 BYTE   N05  Cs3  v084
 BYTE   W12
 BYTE   Ds3
 BYTE   W12
 BYTE   N28  Gs3
 BYTE   W24
//  #05 //001   ----------------------------------------
 BYTE   W12
 BYTE   N05  Ds3
 BYTE   W12
 BYTE   Fn3
 BYTE   W12
 BYTE   N28  Cs4
 BYTE   W36
 BYTE   N14  Gs3
 BYTE   W24
//  #05 //002   ----------------------------------------
 BYTE   Fn3
 BYTE   W24
 BYTE   N05  Gs3
 BYTE   W12
 BYTE   Cs3
 BYTE   W12
 BYTE   Ds3
 BYTE   W12
 BYTE   Cs4
 BYTE   W12
 BYTE   Gs3
 BYTE   W12
 BYTE   Ds4
 BYTE   W12
//  #05 //003   ----------------------------------------
 BYTE   Gs3
 BYTE   W12
 BYTE   Gs4
 BYTE   W12
 BYTE   Cs4
 BYTE   W12
 BYTE   Ds4
 BYTE   W12
 BYTE   As4
 BYTE   W12
 BYTE   Gs4
 BYTE   W12
 BYTE   Gs3
 BYTE   W12
 BYTE   Fs4  v096
 BYTE   W12
//  #05 //004   ----------------------------------------
 BYTE   Fn4
 BYTE   W12
 BYTE   Gs3  v084
 BYTE   W12
 BYTE   Ds3
 BYTE   W12
 BYTE   Ds4
 BYTE   W12
 BYTE   Cs4
 BYTE   W12
 BYTE   Gs3
 BYTE   W12
 BYTE   Cs3
 BYTE   W12
 BYTE   Ds3
 BYTE   W12
//  #05 //005   ----------------------------------------
 BYTE   Gs3
 BYTE   W12
 BYTE   Cs4
 BYTE   W12
 BYTE   Fn3
 BYTE   W12
 BYTE   Fn4
 BYTE   W12
 BYTE   Ds4  v092
 BYTE   W12
 BYTE   Fs3
 BYTE   W12
 BYTE   Bn3
 BYTE   W12
 BYTE   Cs4
 BYTE   W12
//  #05 //006   ----------------------------------------
 BYTE   Fs4
 BYTE   W12
 BYTE   Bn3  v068
 BYTE   W12
 BYTE   Ds4  v080
 BYTE   W12
 BYTE   Cs4  v088
 BYTE   W12
 BYTE   N17  Gs3  v084
 BYTE   W24
 BYTE   N05  Fn3
 BYTE   W12
 BYTE   Cs4
 BYTE   W12
//  #05 //007   ----------------------------------------
 BYTE   Ds4
 BYTE   W12
 BYTE   Gs3
 BYTE   W12
 BYTE   Cs4
 BYTE   W12
 BYTE   Ds4
 BYTE   W12
 BYTE   Gs3
 BYTE   W12
 BYTE   Fs4
 BYTE   W12
 BYTE   Gs3
 BYTE   W12
 BYTE   Fn4
 BYTE   W12
//  #05 //008   ----------------------------------------
 BYTE   Gs3
 BYTE   W12
 BYTE   Ds4
 BYTE   W12
 BYTE   Gs3
 BYTE   W12
 BYTE   Cs4
 BYTE   W12
 BYTE   Fn3
 BYTE   W12
 BYTE   Gs3
 BYTE   W12
 BYTE   Cs4
 BYTE   W12
 BYTE   Gs3
 BYTE   W12
//  #05 //009   ----------------------------------------
 BYTE   Ds3
 BYTE   W12
 BYTE   Fn3
 BYTE   W12
 BYTE   Gs3
 BYTE   W12
 BYTE   Ds3
 BYTE   W12
 BYTE   Fs3  v096
 BYTE   W12
 BYTE   Gs3
 BYTE   W12
 BYTE   Cs4  v084
 BYTE   W12
 BYTE   Ds4
 BYTE   W12
//  #05 //010   ----------------------------------------
 BYTE   Fs4
 BYTE   W12
 BYTE   Cs4
 BYTE   W12
 BYTE   Cs5  v096
 BYTE   W12
 BYTE   Gs4  v092
 BYTE   W12
 BYTE   Fs4  v084
 BYTE   W12
 BYTE   Cs4
 BYTE   W12
 BYTE   Fs4
 BYTE   W12
 BYTE   Gs4
 BYTE   W12
//  #05 //011   ----------------------------------------
 BYTE   Fn4
 BYTE   W12
 BYTE   Fn3
 BYTE   W12
 BYTE   Gs3
 BYTE   W12
 BYTE   Ds4
 BYTE   W12
 BYTE   Gs3
 BYTE   W12
 BYTE   Ds4
 BYTE   W12
 BYTE   Fn4  v096
 BYTE   W12
 BYTE   Cs4
 BYTE   W12
//  #05 //012   ----------------------------------------
 BYTE   Gs3
 BYTE   W12
 BYTE   Fs3
 BYTE   W12
 BYTE   Fn3
 BYTE   W12
 BYTE   Cs3  v084
 BYTE   W12
 BYTE   Gs3
 BYTE   W12
 BYTE   Cs4
 BYTE   W12
 BYTE   Fn3
 BYTE   W12
 BYTE   N15  Ds4
 BYTE   W12
//  #05 //013   ----------------------------------------
 BYTE   W12
 BYTE   Cs4
 BYTE   W24
 BYTE   N05  Fn3
 BYTE   W12
 BYTE   Gs3
 BYTE   W12
 BYTE   Cs4
 BYTE   W12
 BYTE   Cs3
 BYTE   W12
 BYTE   Ds3
 BYTE   W12
//  #05 //014   ----------------------------------------
 BYTE   Gs3
 BYTE   W12
 BYTE   Cs4
 BYTE   W12
 BYTE   Ds4  v096
 BYTE   W12
 BYTE   Gs4
 BYTE   W12
 BYTE   Fn4
 BYTE   W12
 BYTE   Cs4  v084
 BYTE   W12
 BYTE   Gs3
 BYTE   W12
 BYTE   Fn3
 BYTE   W12
//  #05 //015   ----------------------------------------
 BYTE   Ds3
 BYTE   W12
 BYTE   Cs3
 BYTE   W12
 BYTE   Ds3
 BYTE   W12
 BYTE   Bn3
 BYTE   W12
 BYTE   Fs3
 BYTE   W12
 BYTE   N17  Ds4  v100
 BYTE   W24
 BYTE   Bn3
 BYTE   W12
//  #05 //016   ----------------------------------------
 BYTE   W12
 BYTE   N05  Ds3  v084
 BYTE   W12
 BYTE   Fn3
 BYTE   W12
 BYTE   Fs3
 BYTE   W12
 BYTE   Bn3
 BYTE   W12
 BYTE   Ds4
 BYTE   W12
 BYTE   Cs4
 BYTE   W12
 BYTE   Fn3
 BYTE   W12
//  #05 //017   ----------------------------------------
 BYTE   Gs3
 BYTE   W12
 BYTE   Cs4
 BYTE   W12
 BYTE   Ds4
 BYTE   W12
 BYTE   Fn4
 BYTE   W12
 BYTE   Fs4
 BYTE   W12
 BYTE   Bn3
 BYTE   W12
 BYTE   Ds4
 BYTE   W12
 BYTE   Fs4
 BYTE   W12
//  #05 //018   ----------------------------------------
 BYTE   Fn4
 BYTE   W12
 BYTE   Bn3  v096
 BYTE   W12
 BYTE   Gs3
 BYTE   W12
 BYTE   Ds3
 BYTE   W12
 BYTE   Fn3
 BYTE   W12
 BYTE   N17  Cs4
 BYTE   W24
 BYTE   N05  Cs3  v084
 BYTE   W12
//  #05 //019   ----------------------------------------
 BYTE   Ds3
 BYTE   W12
 BYTE   Fs3
 BYTE   W12
 BYTE   Fn3
 BYTE   W12
 BYTE   Gs3
 BYTE   W12
 BYTE   Cs4
 BYTE   W12
 BYTE   Ds4
 BYTE   W12
 BYTE   Cs4
 BYTE   W12
 BYTE   Gs3
 BYTE   W12
//  #05 //020   ----------------------------------------
 BYTE   Fn3
 BYTE   W12
 BYTE   N17  Ds3
 BYTE   W24
 BYTE   N05  Fn3  v104
 BYTE   W12
 BYTE   Cs3
 BYTE   W12
 BYTE   Gs3  v096
 BYTE   W12
 BYTE   Cs3  v104
 BYTE   W12
 BYTE   Cs4  v084
 BYTE   W12
//  #05 //021   ----------------------------------------
 BYTE   Fn3
 BYTE   W12
 BYTE   Fn4
 BYTE   W12
 BYTE   Ds4
 BYTE   W12
 BYTE   Fs3
 BYTE   W12
 BYTE   Bn3
 BYTE   W12
 BYTE   Ds4  v104
 BYTE   W12
 BYTE   Fs3  v084
 BYTE   W12
 BYTE   Bn3  v104
 BYTE   W12
//  #05 //022   ----------------------------------------
 BYTE   Fs4
 BYTE   W12
 BYTE   Bn3  v084
 BYTE   W12
 BYTE   Fn4
 BYTE   W12
 BYTE   Bn3
 BYTE   W12
 BYTE   Ds4
 BYTE   W12
 BYTE   Bn3
 BYTE   W12
 BYTE   Cs4
 BYTE   W12
 BYTE   Fs3
 BYTE   W12
//  #05 //023   ----------------------------------------
 BYTE   Gs3
 BYTE   W12
 BYTE   Cs4  v096
 BYTE   W12
 BYTE   Gs3
 BYTE   W12
 BYTE   Fs3
 BYTE   W12
 BYTE   Cs3
 BYTE   W12
 BYTE   Gs3  v084
 BYTE   W12
 BYTE   Fs3
 BYTE   W12
 BYTE   Cs3
 BYTE   W12
//  #05 //024   ----------------------------------------
 BYTE   Fs3  v096
 BYTE   W12
 BYTE   Gs3
 BYTE   W84
//  #05 //025   ----------------------------------------
 BYTE   W96
//  #05 //026   ----------------------------------------
 BYTE   W96
//  #05 //027   ----------------------------------------
 BYTE   W24
 BYTE   Gs3  v084
 BYTE   W12
 BYTE   Cs4
 BYTE   W12
 BYTE   Gs4
 BYTE   W12
 BYTE   Cs4
 BYTE   W12
 BYTE   Gs3
 BYTE   W12
 BYTE   Fs3
 BYTE   W12
//  #05 //028   ----------------------------------------
 BYTE   Fn3
 BYTE   W12
 BYTE   Gs3
 BYTE   W12
 BYTE   Cs4
 BYTE   W12
 BYTE   Gs4
 BYTE   W12
 BYTE   Cs4
 BYTE   W12
 BYTE   Gs3
 BYTE   W12
 BYTE   Fs3
 BYTE   W12
 BYTE   Fn3
 BYTE   W12
//  #05 //029   ----------------------------------------
 BYTE   Gs3
 BYTE   W12
 BYTE   Cs4
 BYTE   W12
 BYTE   Gs4
 BYTE   W12
 BYTE   Cs4
 BYTE   W12
 BYTE   Gs3
 BYTE   W12
 BYTE   Fs3
 BYTE   W12
 BYTE   Fn3
 BYTE   W12
 BYTE   Gs3
 BYTE   W12
//  #05 //030   ----------------------------------------
 BYTE   Cs4
 BYTE   W12
 BYTE   Gs4
 BYTE   W84
//  #05 //031   ----------------------------------------
 BYTE   W96
//  #05 //032   ----------------------------------------
 BYTE   W96
//  #05 //033   ----------------------------------------
 BYTE   W24
 BYTE   En3
 BYTE   W12
 BYTE   An3
 BYTE   W12
 BYTE   En4
 BYTE   W12
 BYTE   An3
 BYTE   W12
 BYTE   En3
 BYTE   W12
 BYTE   Cs3
 BYTE   W12
//  #05 //034   ----------------------------------------
 BYTE   Fs3
 BYTE   W12
 BYTE   Bn3
 BYTE   W12
 BYTE   Ds4
 BYTE   W12
 BYTE   Fs4
 BYTE   W12
 BYTE   Ds4
 BYTE   W12
 BYTE   Bn3
 BYTE   W12
 BYTE   An3
 BYTE   W12
 BYTE   Fs3
 BYTE   W12
//  #05 //035   ----------------------------------------
 BYTE   An3
 BYTE   W12
 BYTE   Dn4
 BYTE   W12
 BYTE   Fs4
 BYTE   W12
 BYTE   Dn4
 BYTE   W12
 BYTE   Bn3
 BYTE   W12
 BYTE   Gs3
 BYTE   W12
 BYTE   En3
 BYTE   W12
 BYTE   Gs3
 BYTE   W12
//  #05 //036   ----------------------------------------
 BYTE   En4
 BYTE   W12
 BYTE   Gs4
 BYTE   W84
//  #05 //037   ----------------------------------------
 BYTE   W96
//  #05 //038   ----------------------------------------
 BYTE   W96
//  #05 //039   ----------------------------------------
 BYTE   W48
 BYTE   Gs3
 BYTE   W12
 BYTE   Cs4
 BYTE   W12
 BYTE   Ds4
 BYTE   W12
 BYTE   Gs3
 BYTE   W12
//  #05 //040   ----------------------------------------
 BYTE   Gs4
 BYTE   W12
 BYTE   Gs3
 BYTE   W72
 BYTE   N05
 BYTE   W12
//  #05 //041   ----------------------------------------
 BYTE   Cs4
 BYTE   W12
 BYTE   Ds4
 BYTE   W12
 BYTE   Gs3
 BYTE   W12
 BYTE   Gs4
 BYTE   W12
 BYTE   Gs3
 BYTE   W48
//  #05 //042   ----------------------------------------
 BYTE   W24
 BYTE   GoTo
  POIN2 Label_017E4837
 BYTE   FINE

//**************** Track 6 (Midi-Chn.5) ****************//

song24_006:
//  #06 //000   ----------------------------------------
 BYTE   KEYSH   song24_key+0
 BYTE   VOICE   48
 BYTE   PAN   c_v-26
 BYTE   VOL   38*song24_mvl/mxv
 BYTE   BEND   c_v+0
 BYTE   W24
Label_0182D7FF:
 BYTE   N09  Gs1  v064
 BYTE   W24
 BYTE   N10  Cs2
 BYTE   W11
 BYTE   Ds2  v072
 BYTE   W12
 BYTE   N09  Gs2  v068
 BYTE   W13
 BYTE   N10  Cs2  v072
 BYTE   W12
//  #06 //001   ----------------------------------------
 BYTE   N09  Gs1
 BYTE   W23
 BYTE   N10  Cs2
 BYTE   W13
 BYTE   Ds2  v076
 BYTE   W12
 BYTE   N09  Gs2  v072
 BYTE   W12
 BYTE   N10  Cs2  v064
 BYTE   W11
 BYTE   N09  Fs1
 BYTE   W24
 BYTE   Bn1  v072
 BYTE   W01
//  #06 //002   ----------------------------------------
 BYTE   W11
 BYTE   N10  Cs2
 BYTE   W13
 BYTE   Fs2  v068
 BYTE   W11
 BYTE   N09  Bn1
 BYTE   W13
 BYTE   N10  Gs1  v076
 BYTE   W23
 BYTE   N09  Cs2
 BYTE   W13
 BYTE   Ds2  v068
 BYTE   W11
 BYTE   Gs2  v076
 BYTE   W01
//  #06 //003   ----------------------------------------
 BYTE   W12
 BYTE   N10  Cs2
 BYTE   W12
 BYTE   N09  Fs1  v068
 BYTE   W23
 BYTE   Bn1  v076
 BYTE   W12
 BYTE   Cs2
 BYTE   W13
 BYTE   Fs2
 BYTE   W11
 BYTE   N10  Bn1  v068
 BYTE   W13
//  #06 //004   ----------------------------------------
 BYTE   Fs1  v072
 BYTE   W23
 BYTE   Bn1  v068
 BYTE   W12
 BYTE   N09  Cs2  v072
 BYTE   W13
 BYTE   Fs2  v076
 BYTE   W12
 BYTE   Bn1
 BYTE   W11
 BYTE   Gs1  v072
 BYTE   W24
 BYTE   N10  Cs2  v068
 BYTE   W01
//  #06 //005   ----------------------------------------
 BYTE   W11
 BYTE   Ds2
 BYTE   W13
 BYTE   Gs2  v064
 BYTE   W12
 BYTE   Cs2  v072
 BYTE   W11
 BYTE   Fs1  v076
 BYTE   W24
 BYTE   W01
 BYTE   Bn1  v068
 BYTE   W11
 BYTE   Cs2  v072
 BYTE   W12
 BYTE   Fs2  v068
 BYTE   W01
//  #06 //006   ----------------------------------------
 BYTE   W12
 BYTE   N09  Bn1
 BYTE   W12
 BYTE   Gs1  v076
 BYTE   W23
 BYTE   N10  Cs2  v064
 BYTE   W12
 BYTE   Ds2  v072
 BYTE   W12
 BYTE   Gs2  v064
 BYTE   W13
 BYTE   Cs2  v068
 BYTE   W11
 BYTE   Gs1  v064
 BYTE   W01
//  #06 //007   ----------------------------------------
 BYTE   W24
 BYTE   Cs2
 BYTE   W11
 BYTE   Ds2  v068
 BYTE   W12
 BYTE   N09  Gs2  v072
 BYTE   W12
 BYTE   N10  Cs2
 BYTE   W13
 BYTE   N09  Fs1
 BYTE   W23
 BYTE   Bn1  v076
 BYTE   W01
//  #06 //008   ----------------------------------------
 BYTE   W12
 BYTE   Cs2  v068
 BYTE   W12
 BYTE   Fs2  v072
 BYTE   W11
 BYTE   Bn1  v076
 BYTE   W12
 BYTE   N10  Gs1
 BYTE   W24
 BYTE   N09  Cs2
 BYTE   W12
 BYTE   Ds2  v068
 BYTE   W13
//  #06 //009   ----------------------------------------
 BYTE   N10  Gs2  v072
 BYTE   W11
 BYTE   Cs2  v068
 BYTE   W12
 BYTE   Fs1  v064
 BYTE   W24
 BYTE   N09  Bn1  v072
 BYTE   W13
 BYTE   Cs2  v064
 BYTE   W11
 BYTE   Fs2  v068
 BYTE   W12
 BYTE   Bn1  v072
 BYTE   W12
 BYTE   N10  Fs1  v076
 BYTE   W01
//  #06 //010   ----------------------------------------
 BYTE   W24
 BYTE   Bn1  v072
 BYTE   W12
 BYTE   N09  Cs2
 BYTE   W12
 BYTE   N10  Fs2  v068
 BYTE   W12
 BYTE   N09  Bn1  v072
 BYTE   W11
 BYTE   N10  Gs1  v068
 BYTE   W24
 BYTE   W01
//  #06 //011   ----------------------------------------
 BYTE   Cs2  v076
 BYTE   W11
 BYTE   Ds2  v068
 BYTE   W13
 BYTE   N09  Gs2  v072
 BYTE   W11
 BYTE   Cs2
 BYTE   W12
 BYTE   Gs1
 BYTE   W24
 BYTE   N10  Cs2  v076
 BYTE   W12
 BYTE   Ds2  v068
 BYTE   W13
//  #06 //012   ----------------------------------------
 BYTE   Gs2  v072
 BYTE   W11
 BYTE   N09  Cs2
 BYTE   W13
 BYTE   N10  Gs2  v068
 BYTE   W24
 BYTE   N09  Cs3
 BYTE   W12
 BYTE   N10  Ds3  v072
 BYTE   W12
 BYTE   Gs3  v060
 BYTE   W12
 BYTE   N09  Cs3  v068
 BYTE   W11
 BYTE   N10  Gs2  v060
 BYTE   W01
//  #06 //013   ----------------------------------------
 BYTE   W23
 BYTE   Cs3  v064
 BYTE   W12
 BYTE   Ds3  v068
 BYTE   W12
 BYTE   Gs3
 BYTE   W13
 BYTE   Cs3  v064
 BYTE   W11
 BYTE   N09  Fs2  v072
 BYTE   W24
 BYTE   Bn2  v076
 BYTE   W01
//  #06 //014   ----------------------------------------
 BYTE   W12
 BYTE   Cs3  v072
 BYTE   W11
 BYTE   N10  Fs3  v076
 BYTE   W12
 BYTE   Bn2  v072
 BYTE   W12
 BYTE   Gs2
 BYTE   W24
 BYTE   W01
 BYTE   Cs3  v068
 BYTE   W12
 BYTE   Ds3  v064
 BYTE   W12
//  #06 //015   ----------------------------------------
 BYTE   Gs3
 BYTE   W11
 BYTE   N09  Cs3  v068
 BYTE   W13
 BYTE   Fs2  v072
 BYTE   W24
 BYTE   N10  Bn2  v068
 BYTE   W12
 BYTE   Cs3  v064
 BYTE   W12
 BYTE   N09  Fs3
 BYTE   W12
 BYTE   Bn2  v068
 BYTE   W12
//  #06 //016   ----------------------------------------
 BYTE   N10  Fs2
 BYTE   W24
 BYTE   Bn2  v072
 BYTE   W11
 BYTE   Cs3  v068
 BYTE   W13
 BYTE   N09  Fs3  v060
 BYTE   W12
 BYTE   N10  Bn2  v072
 BYTE   W12
 BYTE   N09  Gs2  v068
 BYTE   W24
//  #06 //017   ----------------------------------------
 BYTE   Cs3
 BYTE   W11
 BYTE   Ds3  v072
 BYTE   W12
 BYTE   N10  Gs3  v068
 BYTE   W13
 BYTE   Cs3  v064
 BYTE   W12
 BYTE   Fs2  v068
 BYTE   W24
 BYTE   N09  Bn2  v072
 BYTE   W11
 BYTE   Cs3
 BYTE   W13
//  #06 //018   ----------------------------------------
 BYTE   Fs3  v068
 BYTE   W12
 BYTE   N10  Bn2  v072
 BYTE   W11
 BYTE   N09  Gs2  v076
 BYTE   W24
 BYTE   W01
 BYTE   Cs3  v064
 BYTE   W12
 BYTE   N10  Ds3
 BYTE   W12
 BYTE   Gs3
 BYTE   W11
 BYTE   N09  Cs3  v072
 BYTE   W12
 BYTE   N10  Gs2
 BYTE   W01
//  #06 //019   ----------------------------------------
 BYTE   W24
 BYTE   Cs3  v076
 BYTE   W11
 BYTE   Ds3  v068
 BYTE   W13
 BYTE   Gs3
 BYTE   W12
 BYTE   Cs3  v072
 BYTE   W11
 BYTE   Fs2  v076
 BYTE   W24
 BYTE   W01
//  #06 //020   ----------------------------------------
 BYTE   N09  Bn2  v068
 BYTE   W11
 BYTE   N10  Cs3
 BYTE   W13
 BYTE   Fs3  v072
 BYTE   W12
 BYTE   N09  Bn2  v068
 BYTE   W11
 BYTE   N10  Gs2  v064
 BYTE   W24
 BYTE   N09  Cs3  v072
 BYTE   W12
 BYTE   N10  Ds3  v064
 BYTE   W12
 BYTE   N09  Gs3  v068
 BYTE   W01
//  #06 //021   ----------------------------------------
 BYTE   W12
 BYTE   N10  Cs3  v072
 BYTE   W12
 BYTE   Fs2  v064
 BYTE   W23
 BYTE   Bn2  v076
 BYTE   W12
 BYTE   Cs3  v068
 BYTE   W13
 BYTE   Fs3
 BYTE   W11
 BYTE   Bn2  v060
 BYTE   W12
 BYTE   Fs2  v072
 BYTE   W01
//  #06 //022   ----------------------------------------
 BYTE   W23
 BYTE   Bn2
 BYTE   W13
 BYTE   Cs3  v064
 BYTE   W12
 BYTE   Fs3  v072
 BYTE   W12
 BYTE   Bn2
 BYTE   W12
 BYTE   Gs2  v068
 BYTE   W24
//  #06 //023   ----------------------------------------
 BYTE   Cs3  v072
 BYTE   W11
 BYTE   N09  Ds3  v068
 BYTE   W13
 BYTE   Gs3  v060
 BYTE   W11
 BYTE   Cs3
 BYTE   W13
 BYTE   N10  Gs2  v068
 BYTE   W23
 BYTE   Cs3
 BYTE   W12
 BYTE   Ds3  v064
 BYTE   W12
 BYTE   Gs3  v068
 BYTE   W01
//  #06 //024   ----------------------------------------
 BYTE   W11
 BYTE   Cs3
 BYTE   W84
 BYTE   W01
//  #06 //025   ----------------------------------------
 BYTE   W96
//  #06 //026   ----------------------------------------
 BYTE   W96
//  #06 //027   ----------------------------------------
 BYTE   W23
 BYTE   N09  Gs2
 BYTE   W24
 BYTE   W01
 BYTE   Cs3  v072
 BYTE   W12
 BYTE   Ds3  v068
 BYTE   W12
 BYTE   N10  Gs3  v064
 BYTE   W12
 BYTE   Cs3  v068
 BYTE   W12
//  #06 //028   ----------------------------------------
 BYTE   Gs2  v076
 BYTE   W23
 BYTE   N09  Cs3  v072
 BYTE   W13
 BYTE   N10  Ds3  v064
 BYTE   W12
 BYTE   N09  Gs3  v060
 BYTE   W12
 BYTE   N10  Cs3  v064
 BYTE   W12
 BYTE   Gs2  v072
 BYTE   W23
 BYTE   Cs3  v060
 BYTE   W01
//  #06 //029   ----------------------------------------
 BYTE   W12
 BYTE   N09  Ds3  v064
 BYTE   W11
 BYTE   Gs3  v072
 BYTE   W13
 BYTE   N10  Cs3  v076
 BYTE   W12
 BYTE   N09  Gs2  v068
 BYTE   W24
 BYTE   N10  Cs3
 BYTE   W11
 BYTE   N09  Ds3  v064
 BYTE   W13
//  #06 //030   ----------------------------------------
 BYTE   Gs3  v068
 BYTE   W12
 BYTE   N10  Cs3  v064
 BYTE   W84
//  #06 //031   ----------------------------------------
 BYTE   W96
//  #06 //032   ----------------------------------------
 BYTE   W96
//  #06 //033   ----------------------------------------
 BYTE   W23
 BYTE   N09  En1  v080
 BYTE   W24
 BYTE   An1  v088
 BYTE   W13
 BYTE   Bn1
 BYTE   W11
 BYTE   En2  v084
 BYTE   W12
 BYTE   N10  An1
 BYTE   W13
//  #06 //034   ----------------------------------------
 BYTE   Fs1
 BYTE   W23
 BYTE   Bn1
 BYTE   W12
 BYTE   N09  Cs2  v088
 BYTE   W12
 BYTE   Fs2  v080
 BYTE   W12
 BYTE   Bn1  v076
 BYTE   W12
 BYTE   An1  v080
 BYTE   W24
 BYTE   W01
//  #06 //035   ----------------------------------------
 BYTE   N10  Dn2  v076
 BYTE   W11
 BYTE   En2  v088
 BYTE   W13
 BYTE   An2
 BYTE   W11
 BYTE   Dn2  v084
 BYTE   W13
 BYTE   Bn1  v080
 BYTE   W24
 BYTE   N09  En2
 BYTE   W12
 BYTE   Fs2  v088
 BYTE   W11
 BYTE   Bn2  v084
 BYTE   W01
//  #06 //036   ----------------------------------------
 BYTE   W11
 BYTE   N10  En2
 BYTE   W13
 BYTE   N09  Gs1  v076
 BYTE   W12
 BYTE   N10  Gs1  v044
 BYTE   W12
 BYTE   Cs2  v088
 BYTE   W12
 BYTE   N09  Ds2
 BYTE   W12
 BYTE   N10  Gs2
 BYTE   W12
 BYTE   Cs2
 BYTE   W11
 BYTE   Gs1  v084
 BYTE   W01
//  #06 //037   ----------------------------------------
 BYTE   W11
 BYTE   N09  Gs1  v048
 BYTE   W13
 BYTE   N10  Cs2  v076
 BYTE   W12
 BYTE   Ds2  v080
 BYTE   W12
 BYTE   Gs2  v076
 BYTE   W12
 BYTE   Cs2  v088
 BYTE   W11
 BYTE   Fs1
 BYTE   W13
 BYTE   Fs1  v040
 BYTE   W12
//  #06 //038   ----------------------------------------
 BYTE   Bn1  v088
 BYTE   W11
 BYTE   N09  Cs2  v080
 BYTE   W12
 BYTE   N10  Fs2
 BYTE   W13
 BYTE   Bn1
 BYTE   W12
 BYTE   N09  Fs1
 BYTE   W12
 BYTE   Fs1  v040
 BYTE   W11
 BYTE   N10  Bn1  v088
 BYTE   W13
 BYTE   N09  Cs2  v080
 BYTE   W11
 BYTE   N10  Fs2
 BYTE   W01
//  #06 //039   ----------------------------------------
 BYTE   W12
 BYTE   N09  Bn1
 BYTE   W11
 BYTE   Gs1  v084
 BYTE   W13
 BYTE   Gs1  v032
 BYTE   W11
 BYTE   N10  Cs2  v076
 BYTE   W13
 BYTE   Ds2  v088
 BYTE   W11
 BYTE   Gs2  v076
 BYTE   W12
 BYTE   Cs2  v080
 BYTE   W13
//  #06 //040   ----------------------------------------
 BYTE   N09  Gs1  v084
 BYTE   W12
 BYTE   N10  Gs1  v040
 BYTE   W12
 BYTE   Cs2  v080
 BYTE   W12
 BYTE   Ds2
 BYTE   W11
 BYTE   Gs2  v088
 BYTE   W12
 BYTE   N09  Cs2  v076
 BYTE   W13
 BYTE   N10  Fs1  v080
 BYTE   W12
 BYTE   N09  Fs1  v044
 BYTE   W12
//  #06 //041   ----------------------------------------
 BYTE   N10  Bn1  v088
 BYTE   W11
 BYTE   Cs2  v076
 BYTE   W12
 BYTE   Fs2  v088
 BYTE   W13
 BYTE   Bn1  v076
 BYTE   W12
 BYTE   Fs1  v084
 BYTE   W12
 BYTE   Fs1  v044
 BYTE   W12
 BYTE   N09  Bn1  v076
 BYTE   W11
 BYTE   N10  Cs2  v084
 BYTE   W12
 BYTE   Fs2  v080
 BYTE   W01
//  #06 //042   ----------------------------------------
 BYTE   W11
 BYTE   N09  Bn1  v084
 BYTE   W13
 BYTE   GoTo
  POIN2 Label_0182D7FF
 BYTE   FINE

//**************** Track 7 (Midi-Chn.6) ****************//

song24_007:
//  #07 //000   ----------------------------------------
 BYTE   KEYSH   song24_key+0
 BYTE   VOICE   48
 BYTE   PAN   c_v+26
 BYTE   VOL   37*song24_mvl/mxv
 BYTE   BEND   c_v+0
 BYTE   W24
Label_0182DB47:
 BYTE   N09  Fn1  v068
 BYTE   W23
 BYTE   N10  Gs1  v076
 BYTE   W12
 BYTE   N10
 BYTE   W12
 BYTE   Ds2  v068
 BYTE   W13
 BYTE   Gs1  v064
 BYTE   W12
//  #07 //001   ----------------------------------------
 BYTE   Fn1  v068
 BYTE   W23
 BYTE   N09  Gs1  v072
 BYTE   W13
 BYTE   N09
 BYTE   W11
 BYTE   N10  Ds2  v064
 BYTE   W12
 BYTE   N09  Gs1  v072
 BYTE   W13
 BYTE   N10  Ds1
 BYTE   W23
 BYTE   Fs1
 BYTE   W01
//  #07 //002   ----------------------------------------
 BYTE   W11
 BYTE   N09
 BYTE   W13
 BYTE   N10  Cs2  v068
 BYTE   W12
 BYTE   N09  Fs1  v076
 BYTE   W12
 BYTE   N10  Fn1  v072
 BYTE   W23
 BYTE   N09  Gs1
 BYTE   W12
 BYTE   N10
 BYTE   W12
 BYTE   Ds2  v076
 BYTE   W01
//  #07 //003   ----------------------------------------
 BYTE   W11
 BYTE   N09  Gs1  v072
 BYTE   W12
 BYTE   N10  Ds1  v076
 BYTE   W24
 BYTE   W01
 BYTE   N09  Fs1  v072
 BYTE   W11
 BYTE   N10
 BYTE   W12
 BYTE   N09  Cs2
 BYTE   W12
 BYTE   Fs1  v068
 BYTE   W12
 BYTE   N10  Ds1  v076
 BYTE   W01
//  #07 //004   ----------------------------------------
 BYTE   W24
 BYTE   N09  Fs1  v072
 BYTE   W11
 BYTE   N10  Fs1  v068
 BYTE   W13
 BYTE   N09  Cs2
 BYTE   W11
 BYTE   Fs1  v064
 BYTE   W12
 BYTE   N10  Fn1  v076
 BYTE   W24
 BYTE   N09  Gs1  v068
 BYTE   W01
//  #07 //005   ----------------------------------------
 BYTE   W11
 BYTE   N10
 BYTE   W13
 BYTE   N09  Ds2  v072
 BYTE   W12
 BYTE   N10  Gs1  v064
 BYTE   W11
 BYTE   N09  Ds1  v068
 BYTE   W24
 BYTE   Fs1  v076
 BYTE   W12
 BYTE   N10  Fs1  v072
 BYTE   W12
 BYTE   Cs2
 BYTE   W01
//  #07 //006   ----------------------------------------
 BYTE   W12
 BYTE   N09  Fs1  v064
 BYTE   W12
 BYTE   N10  Fn1  v072
 BYTE   W24
 BYTE   N09  Gs1  v064
 BYTE   W11
 BYTE   N09
 BYTE   W13
 BYTE   Ds2  v076
 BYTE   W11
 BYTE   Gs1
 BYTE   W12
 BYTE   N10  Fn1  v064
 BYTE   W01
//  #07 //007   ----------------------------------------
 BYTE   W23
 BYTE   N09  Gs1  v068
 BYTE   W13
 BYTE   N10
 BYTE   W11
 BYTE   N09  Ds2
 BYTE   W13
 BYTE   Gs1
 BYTE   W11
 BYTE   N10  Ds1  v072
 BYTE   W24
 BYTE   W01
//  #07 //008   ----------------------------------------
 BYTE   Fs1  v076
 BYTE   W12
 BYTE   Fs1  v072
 BYTE   W11
 BYTE   Cs2
 BYTE   W13
 BYTE   Fs1  v064
 BYTE   W11
 BYTE   N09  Fn1
 BYTE   W24
 BYTE   N10  Gs1  v076
 BYTE   W12
 BYTE   Gs1  v068
 BYTE   W13
//  #07 //009   ----------------------------------------
 BYTE   Ds2  v076
 BYTE   W11
 BYTE   Gs1  v072
 BYTE   W13
 BYTE   N09  Ds1  v068
 BYTE   W23
 BYTE   N10  Fs1  v072
 BYTE   W13
 BYTE   N09  Fs1  v076
 BYTE   W12
 BYTE   N10  Cs2  v064
 BYTE   W12
 BYTE   N09  Fs1  v068
 BYTE   W12
//  #07 //010   ----------------------------------------
 BYTE   N10  Ds1  v064
 BYTE   W24
 BYTE   Fs1  v072
 BYTE   W11
 BYTE   N09  Fs1  v076
 BYTE   W13
 BYTE   N10  Cs2  v064
 BYTE   W12
 BYTE   N09  Fs1  v072
 BYTE   W12
 BYTE   Cs1  v076
 BYTE   W24
//  #07 //011   ----------------------------------------
 BYTE   Gs1  v068
 BYTE   W12
 BYTE   Gs1  v076
 BYTE   W12
 BYTE   Ds2  v064
 BYTE   W12
 BYTE   Gs1  v068
 BYTE   W12
 BYTE   Cs1  v072
 BYTE   W23
 BYTE   Gs1  v076
 BYTE   W12
 BYTE   Gs1  v072
 BYTE   W12
 BYTE   N10  Ds2
 BYTE   W01
//  #07 //012   ----------------------------------------
 BYTE   W12
 BYTE   N09  Gs1  v064
 BYTE   W11
 BYTE   N10  Fn2  v068
 BYTE   W24
 BYTE   W01
 BYTE   N09  Gs2  v072
 BYTE   W11
 BYTE   N10
 BYTE   W13
 BYTE   N09  Ds3  v064
 BYTE   W11
 BYTE   Gs2
 BYTE   W12
 BYTE   Fn2
 BYTE   W01
//  #07 //013   ----------------------------------------
 BYTE   W23
 BYTE   N10  Gs2  v060
 BYTE   W12
 BYTE   N10
 BYTE   W12
 BYTE   N09  Ds3  v064
 BYTE   W12
 BYTE   Gs2  v060
 BYTE   W13
 BYTE   N10  Ds2  v068
 BYTE   W24
//  #07 //014   ----------------------------------------
 BYTE   Fs2  v072
 BYTE   W12
 BYTE   Fs2  v060
 BYTE   W12
 BYTE   Cs3  v064
 BYTE   W11
 BYTE   Fs2
 BYTE   W12
 BYTE   Fn2
 BYTE   W24
 BYTE   W01
 BYTE   N09  Gs2  v072
 BYTE   W11
 BYTE   N10
 BYTE   W13
//  #07 //015   ----------------------------------------
 BYTE   N09  Ds3  v068
 BYTE   W12
 BYTE   N10  Gs2  v064
 BYTE   W11
 BYTE   N09  Ds2  v060
 BYTE   W24
 BYTE   W01
 BYTE   Fs2  v072
 BYTE   W12
 BYTE   N10  Fs2  v064
 BYTE   W11
 BYTE   Cs3  v068
 BYTE   W13
 BYTE   Fs2  v072
 BYTE   W11
 BYTE   N09  Ds2  v060
 BYTE   W01
//  #07 //016   ----------------------------------------
 BYTE   W24
 BYTE   N10  Fs2  v064
 BYTE   W11
 BYTE   N09  Fs2  v072
 BYTE   W13
 BYTE   Cs3  v060
 BYTE   W12
 BYTE   Fs2  v064
 BYTE   W11
 BYTE   N10  Fn2  v068
 BYTE   W24
 BYTE   Gs2
 BYTE   W01
//  #07 //017   ----------------------------------------
 BYTE   W12
 BYTE   N10
 BYTE   W12
 BYTE   Ds3  v064
 BYTE   W11
 BYTE   Gs2
 BYTE   W12
 BYTE   Ds2  v060
 BYTE   W24
 BYTE   W01
 BYTE   Fs2  v064
 BYTE   W12
 BYTE   Fs2  v068
 BYTE   W11
 BYTE   N09  Cs3
 BYTE   W01
//  #07 //018   ----------------------------------------
 BYTE   W12
 BYTE   Fs2
 BYTE   W12
 BYTE   Fn2
 BYTE   W24
 BYTE   Gs2  v072
 BYTE   W12
 BYTE   N10  Gs2  v064
 BYTE   W12
 BYTE   Ds3
 BYTE   W11
 BYTE   Gs2  v068
 BYTE   W13
//  #07 //019   ----------------------------------------
 BYTE   N09  Fn2  v060
 BYTE   W24
 BYTE   N10  Gs2  v068
 BYTE   W12
 BYTE   Gs2  v072
 BYTE   W11
 BYTE   Ds3  v068
 BYTE   W13
 BYTE   N09  Gs2  v072
 BYTE   W12
 BYTE   N10  Ds2  v076
 BYTE   W24
//  #07 //020   ----------------------------------------
 BYTE   N09  Fs2  v068
 BYTE   W11
 BYTE   N10
 BYTE   W12
 BYTE   N09  Cs3  v064
 BYTE   W13
 BYTE   Fs2  v068
 BYTE   W12
 BYTE   N10  Fn2
 BYTE   W24
 BYTE   N09  Gs2  v060
 BYTE   W11
 BYTE   Gs2  v072
 BYTE   W13
//  #07 //021   ----------------------------------------
 BYTE   N10  Ds3  v068
 BYTE   W12
 BYTE   Gs2
 BYTE   W12
 BYTE   N09  Ds2  v072
 BYTE   W24
 BYTE   N10  Fs2  v068
 BYTE   W11
 BYTE   Fs2  v060
 BYTE   W12
 BYTE   Cs3  v072
 BYTE   W12
 BYTE   Fs2  v064
 BYTE   W12
 BYTE   N09  Ds2  v060
 BYTE   W01
//  #07 //022   ----------------------------------------
 BYTE   W24
 BYTE   Fs2
 BYTE   W11
 BYTE   Fs2  v064
 BYTE   W12
 BYTE   Cs3  v072
 BYTE   W13
 BYTE   Fs2  v064
 BYTE   W11
 BYTE   N10  Cs2
 BYTE   W24
 BYTE   N09  Gs2
 BYTE   W01
//  #07 //023   ----------------------------------------
 BYTE   W12
 BYTE   N10
 BYTE   W12
 BYTE   Ds3  v068
 BYTE   W11
 BYTE   Gs2  v072
 BYTE   W12
 BYTE   Cs2  v068
 BYTE   W24
 BYTE   W01
 BYTE   Gs2
 BYTE   W11
 BYTE   Gs2  v072
 BYTE   W13
//  #07 //024   ----------------------------------------
 BYTE   N09  Ds3  v060
 BYTE   W11
 BYTE   Gs2  v064
 BYTE   W84
 BYTE   W01
//  #07 //025   ----------------------------------------
 BYTE   W96
//  #07 //026   ----------------------------------------
 BYTE   W96
//  #07 //027   ----------------------------------------
 BYTE   W24
 BYTE   N10  Cs2  v060
 BYTE   W23
 BYTE   Gs2  v068
 BYTE   W12
 BYTE   N09  Gs2  v064
 BYTE   W12
 BYTE   Ds3  v068
 BYTE   W13
 BYTE   N10  Gs2  v064
 BYTE   W11
 BYTE   Cs2  v068
 BYTE   W01
//  #07 //028   ----------------------------------------
 BYTE   W24
 BYTE   Gs2
 BYTE   W11
 BYTE   N09  Gs2  v072
 BYTE   W13
 BYTE   N10  Ds3
 BYTE   W12
 BYTE   N09  Gs2  v064
 BYTE   W12
 BYTE   N10  Cs2  v068
 BYTE   W24
//  #07 //029   ----------------------------------------
 BYTE   Gs2  v072
 BYTE   W12
 BYTE   Gs2  v068
 BYTE   W11
 BYTE   Ds3  v072
 BYTE   W12
 BYTE   Gs2  v060
 BYTE   W13
 BYTE   Cs2  v068
 BYTE   W23
 BYTE   N09  Gs2  v072
 BYTE   W13
 BYTE   N09
 BYTE   W12
//  #07 //030   ----------------------------------------
 BYTE   N10  Ds3  v060
 BYTE   W12
 BYTE   Gs2  v072
 BYTE   W84
//  #07 //031   ----------------------------------------
 BYTE   W96
//  #07 //032   ----------------------------------------
 BYTE   W96
//  #07 //033   ----------------------------------------
 BYTE   W24
 BYTE   An0  v084
 BYTE   W24
 BYTE   En1  v080
 BYTE   W11
 BYTE   En1  v084
 BYTE   W13
 BYTE   N09  Bn1  v080
 BYTE   W12
 BYTE   En1
 BYTE   W11
 BYTE   N10  Bn0  v088
 BYTE   W01
//  #07 //034   ----------------------------------------
 BYTE   W23
 BYTE   Fs1  v080
 BYTE   W12
 BYTE   N09  Fs1  v084
 BYTE   W13
 BYTE   N10  Cs2  v080
 BYTE   W12
 BYTE   N09  Fs1  v088
 BYTE   W12
 BYTE   Dn1
 BYTE   W24
//  #07 //035   ----------------------------------------
 BYTE   An1  v080
 BYTE   W12
 BYTE   An1  v076
 BYTE   W12
 BYTE   En2  v084
 BYTE   W11
 BYTE   N10  An1  v076
 BYTE   W12
 BYTE   En1  v088
 BYTE   W24
 BYTE   W01
 BYTE   N09  Bn1  v084
 BYTE   W12
 BYTE   N10  Bn1  v080
 BYTE   W11
 BYTE   Fs2  v088
 BYTE   W01
//  #07 //036   ----------------------------------------
 BYTE   W11
 BYTE   N09  Bn1
 BYTE   W13
 BYTE   N10  Fn1  v084
 BYTE   W12
 BYTE   N09  Fn1  v032
 BYTE   W11
 BYTE   N10  Gs1  v084
 BYTE   W13
 BYTE   Gs1  v076
 BYTE   W12
 BYTE   N09  Ds2  v084
 BYTE   W12
 BYTE   N10  Gs1  v080
 BYTE   W12
//  #07 //037   ----------------------------------------
 BYTE   Fn1
 BYTE   W11
 BYTE   Fn1  v040
 BYTE   W12
 BYTE   Gs1  v080
 BYTE   W13
 BYTE   N10
 BYTE   W11
 BYTE   N09  Ds2  v088
 BYTE   W12
 BYTE   Gs1  v080
 BYTE   W13
 BYTE   Ds1  v084
 BYTE   W12
 BYTE   Ds1  v036
 BYTE   W11
 BYTE   N10  Fs1  v076
 BYTE   W01
//  #07 //038   ----------------------------------------
 BYTE   W11
 BYTE   N09
 BYTE   W13
 BYTE   N10  Cs2  v084
 BYTE   W12
 BYTE   Fs1  v088
 BYTE   W12
 BYTE   Ds1  v076
 BYTE   W12
 BYTE   N09  Ds1  v040
 BYTE   W12
 BYTE   N10  Fs1  v088
 BYTE   W12
 BYTE   Fs1  v076
 BYTE   W11
 BYTE   N09  Cs2  v084
 BYTE   W01
//  #07 //039   ----------------------------------------
 BYTE   W12
 BYTE   N10  Fs1  v080
 BYTE   W11
 BYTE   Fn1  v076
 BYTE   W12
 BYTE   N09  Fn1  v036
 BYTE   W13
 BYTE   Gs1  v084
 BYTE   W12
 BYTE   N10  Gs1  v080
 BYTE   W12
 BYTE   N09  Ds2  v088
 BYTE   W12
 BYTE   N10  Gs1  v076
 BYTE   W11
 BYTE   Fn1  v080
 BYTE   W01
//  #07 //040   ----------------------------------------
 BYTE   W12
 BYTE   N09  Fn1  v032
 BYTE   W11
 BYTE   N10  Gs1  v080
 BYTE   W13
 BYTE   Gs1  v076
 BYTE   W12
 BYTE   N09  Ds2  v080
 BYTE   W12
 BYTE   N10  Gs1
 BYTE   W11
 BYTE   N09  Ds1
 BYTE   W13
 BYTE   N10  Ds1  v044
 BYTE   W12
//  #07 //041   ----------------------------------------
 BYTE   N09  Fs1  v084
 BYTE   W11
 BYTE   N10  Fs1  v088
 BYTE   W12
 BYTE   Cs2  v084
 BYTE   W13
 BYTE   Fs1
 BYTE   W12
 BYTE   Ds1  v088
 BYTE   W11
 BYTE   N09  Ds1  v044
 BYTE   W12
 BYTE   N10  Fs1  v080
 BYTE   W13
 BYTE   N09
 BYTE   W12
//  #07 //042   ----------------------------------------
 BYTE   Cs2
 BYTE   W12
 BYTE   N10  Fs1  v088
 BYTE   W12
 BYTE   GoTo
  POIN2 Label_0182DB47
 BYTE   FINE

//**************** Track 8 (Midi-Chn.7) ****************//

song24_008:
//  #08 //000   ----------------------------------------
 BYTE   KEYSH   song24_key+0
 BYTE   VOICE   105
 BYTE   VOL   32*song24_mvl/mxv
 BYTE   PAN   c_v+0
 BYTE   BEND   c_v+0
 BYTE   W12
 BYTE   W03
 BYTE   W03
 BYTE   W03
 BYTE   W03
Label_0182DEA7:
 BYTE   TIE  Cs2  v104
 BYTE   TIE  Gs2
 BYTE   W02
 BYTE   W06
 BYTE   W04
 BYTE   W03
 BYTE   W04
 BYTE   W03
 BYTE   W04
 BYTE   W03
 BYTE   W03
 BYTE   W04
 BYTE   W03
 BYTE   W04
 BYTE   W03
 BYTE   W04
 BYTE   W03
 BYTE   W03
 BYTE   W04
 BYTE   W03
 BYTE   W04
 BYTE   W03
 BYTE   W02
//  #08 //001   ----------------------------------------
 BYTE   W02
 BYTE   W03
 BYTE   W03
 BYTE   W04
 BYTE   W03
 BYTE   W04
 BYTE   W03
 BYTE   W04
 BYTE   W03
 BYTE   W03
 BYTE   W04
 BYTE   W03
 BYTE   W04
 BYTE   W03
 BYTE   W04
 BYTE   W03
 BYTE   W03
 BYTE   W04
 BYTE   W03
 BYTE   W04
 BYTE   W03
 BYTE   W01
 BYTE   EOT
 BYTE   Cs2  v056
 BYTE   W01
 BYTE   N68  Fs2
 BYTE   N68  Ds3
 BYTE   W02
 BYTE   W08
 BYTE   W04
 BYTE   W05
 BYTE   W04
 BYTE   W01
//  #08 //002   ----------------------------------------
 BYTE   W03
 BYTE   W05
 BYTE   W04
 BYTE   W04
 BYTE   W05
 BYTE   W04
 BYTE   W04
 BYTE   W05
 BYTE   W04
 BYTE   W04
 BYTE   W05
 BYTE   W01
 BYTE   Fn2
 BYTE   N68  Cs3
 BYTE   W03
 BYTE   W04
 BYTE   W05
 BYTE   W04
 BYTE   W04
 BYTE   W05
 BYTE   W04
 BYTE   W04
 BYTE   W05
 BYTE   W04
 BYTE   W04
 BYTE   W02
//  #08 //003   ----------------------------------------
 BYTE   W03
 BYTE   W04
 BYTE   W04
 BYTE   W05
 BYTE   W04
 BYTE   W04
 BYTE   Ds2
 BYTE   N68  Bn2
 BYTE   W05
 BYTE   W04
 BYTE   W04
 BYTE   W05
 BYTE   W07
 BYTE   W04
 BYTE   W04
 BYTE   W04
 BYTE   W04
 BYTE   W03
 BYTE   W04
 BYTE   W04
 BYTE   W04
 BYTE   W04
 BYTE   W04
 BYTE   W03
 BYTE   W04
 BYTE   W01
//  #08 //004   ----------------------------------------
 BYTE   Bn1
 BYTE   N68  Fs2
 BYTE   W03
 BYTE   W04
 BYTE   W04
 BYTE   W04
 BYTE   W03
 BYTE   W04
 BYTE   W04
 BYTE   W04
 BYTE   W04
 BYTE   W04
 BYTE   W03
 BYTE   W04
 BYTE   W04
 BYTE   W04
 BYTE   W04
 BYTE   W04
 BYTE   W03
 BYTE   W04
 BYTE   W04
 BYTE   N44  Cs2
 BYTE   N44  Gs2
 BYTE   W04
 BYTE   W04
 BYTE   W04
 BYTE   W04
 BYTE   W06
 BYTE   W02
//  #08 //005   ----------------------------------------
 BYTE   W02
 BYTE   W03
 BYTE   W03
 BYTE   W04
 BYTE   W03
 BYTE   W04
 BYTE   W03
 BYTE   W02
 BYTE   N23  Fn2
 BYTE   N23  Cs3
 BYTE   W01
 BYTE   W04
 BYTE   W03
 BYTE   W03
 BYTE   W04
 BYTE   W03
 BYTE   W04
 BYTE   W02
 BYTE   N68  Fs2
 BYTE   N23  Ds3
 BYTE   W01
 BYTE   W03
 BYTE   W04
 BYTE   W03
 BYTE   W04
 BYTE   W03
 BYTE   W06
 BYTE   Fs3
 BYTE   W07
 BYTE   W06
 BYTE   W06
 BYTE   W05
//  #08 //006   ----------------------------------------
 BYTE   Fn3
 BYTE   W02
 BYTE   W06
 BYTE   W06
 BYTE   W07
 BYTE   W03
 BYTE   N68  Fn2
 BYTE   N68  Cs3
 BYTE   W03
 BYTE   W03
 BYTE   W03
 BYTE   W03
 BYTE   W03
 BYTE   W03
 BYTE   W02
 BYTE   W02
 BYTE   W01
 BYTE   W02
 BYTE   W01
 BYTE   W02
 BYTE   W01
 BYTE   W02
 BYTE   W01
 BYTE   W02
 BYTE   W01
 BYTE   W03
 BYTE   W03
 BYTE   W03
 BYTE   W03
 BYTE   W03
 BYTE   W03
 BYTE   W03
 BYTE   W03
 BYTE   W03
 BYTE   W03
 BYTE   W02
 BYTE   W05
//  #08 //007   ----------------------------------------
 BYTE   Cs2
 BYTE   N68  Gs2
 BYTE   W04
 BYTE   W04
 BYTE   W04
 BYTE   W05
 BYTE   W04
 BYTE   W04
 BYTE   W05
 BYTE   W04
 BYTE   W04
 BYTE   W04
 BYTE   W05
 BYTE   W04
 BYTE   W04
 BYTE   W05
 BYTE   W04
 BYTE   W04
 BYTE   W04
 BYTE   N44  Fs2
 BYTE   N44  Bn2
 BYTE   W01
 BYTE   W04
 BYTE   W04
 BYTE   W05
 BYTE   W03
 BYTE   W04
 BYTE   W03
//  #08 //008   ----------------------------------------
 BYTE   W01
 BYTE   W04
 BYTE   W04
 BYTE   W04
 BYTE   W04
 BYTE   W04
 BYTE   W03
 BYTE   N23  Ds2
 BYTE   N23  Gs2
 BYTE   W01
 BYTE   W04
 BYTE   W04
 BYTE   W04
 BYTE   W04
 BYTE   W04
 BYTE   W03
 BYTE   Fn2
 BYTE   N23  Cs3
 BYTE   W01
 BYTE   W04
 BYTE   W04
 BYTE   W04
 BYTE   W04
 BYTE   W04
 BYTE   W03
 BYTE   N44
 BYTE   N44  Gs3
 BYTE   W03
 BYTE   W03
 BYTE   W03
 BYTE   W03
 BYTE   W03
 BYTE   W03
 BYTE   W03
 BYTE   W03
//  #08 //009   ----------------------------------------
 BYTE   W03
 BYTE   W03
 BYTE   W03
 BYTE   W03
 BYTE   W03
 BYTE   W03
 BYTE   W03
 BYTE   W01
 BYTE   W02
 BYTE   N68  Fs2
 BYTE   N68  Ds3
 BYTE   W06
 BYTE   W04
 BYTE   W03
 BYTE   W04
 BYTE   W04
 BYTE   W04
 BYTE   W03
 BYTE   W04
 BYTE   W04
 BYTE   W04
 BYTE   W04
 BYTE   W03
 BYTE   W04
 BYTE   W12
 BYTE   W06
 BYTE   W03
//  #08 //010   ----------------------------------------
 BYTE   Ds2
 BYTE   N68  Bn2
 BYTE   W03
 BYTE   W06
 BYTE   W06
 BYTE   W06
 BYTE   W06
 BYTE   W06
 BYTE   W06
 BYTE   W06
 BYTE   W06
 BYTE   W06
 BYTE   W06
 BYTE   W06
 BYTE   W03
 BYTE   TIE  Cs2
 BYTE   TIE  Gs2
 BYTE   W04
 BYTE   W06
 BYTE   W04
 BYTE   W04
 BYTE   W04
 BYTE   W02
//  #08 //011   ----------------------------------------
 BYTE   W02
 BYTE   W04
 BYTE   W04
 BYTE   W04
 BYTE   W04
 BYTE   W04
 BYTE   W04
 BYTE   W04
 BYTE   W04
 BYTE   W04
 BYTE   W04
 BYTE   W04
 BYTE   W04
 BYTE   W04
 BYTE   W04
 BYTE   W04
 BYTE   W04
 BYTE   W04
 BYTE   W04
 BYTE   W04
 BYTE   W04
 BYTE   W04
 BYTE   W04
 BYTE   W04
 BYTE   W02
//  #08 //012   ----------------------------------------
 BYTE   W02
 BYTE   W04
 BYTE   W04
 BYTE   W04
 BYTE   W04
 BYTE   W04
 BYTE   W01
 BYTE   EOT
 BYTE   Cs2  v056
 BYTE   W01
 BYTE   TIE  Cs2
 BYTE   TIE  Gs2
 BYTE   W02
 BYTE   W04
 BYTE   W04
 BYTE   W04
 BYTE   W07
 BYTE   W04
 BYTE   W04
 BYTE   W04
 BYTE   W04
 BYTE   W03
 BYTE   W04
 BYTE   W04
 BYTE   W04
 BYTE   W04
 BYTE   W04
 BYTE   W03
 BYTE   W04
 BYTE   W04
 BYTE   W01
//  #08 //013   ----------------------------------------
 BYTE   W03
 BYTE   W04
 BYTE   W04
 BYTE   W03
 BYTE   W04
 BYTE   W04
 BYTE   W04
 BYTE   W04
 BYTE   W04
 BYTE   W03
 BYTE   W04
 BYTE   W04
 BYTE   W04
 BYTE   W04
 BYTE   W04
 BYTE   W03
 BYTE   W04
 BYTE   W04
 BYTE   W03
 BYTE   EOT
 BYTE   Cs2  v056
 BYTE   W01
 BYTE   N68  Fs2
 BYTE   N68  Ds3
 BYTE   W04
 BYTE   W04
 BYTE   W07
 BYTE   W04
 BYTE   W04
 BYTE   W01
//  #08 //014   ----------------------------------------
 BYTE   W03
 BYTE   W04
 BYTE   W04
 BYTE   W04
 BYTE   W04
 BYTE   W04
 BYTE   W04
 BYTE   W04
 BYTE   W04
 BYTE   W04
 BYTE   W04
 BYTE   W04
 BYTE   W01
 BYTE   Fn2
 BYTE   N68  Cs3
 BYTE   W03
 BYTE   W04
 BYTE   W03
 BYTE   W04
 BYTE   W04
 BYTE   W04
 BYTE   W04
 BYTE   W04
 BYTE   W04
 BYTE   W04
 BYTE   W04
 BYTE   W04
 BYTE   W02
//  #08 //015   ----------------------------------------
 BYTE   W02
 BYTE   W04
 BYTE   W04
 BYTE   W04
 BYTE   W04
 BYTE   W04
 BYTE   W02
 BYTE   Ds2
 BYTE   N68  Bn2
 BYTE   W02
 BYTE   W04
 BYTE   W07
 BYTE   W04
 BYTE   W04
 BYTE   W03
 BYTE   W04
 BYTE   W04
 BYTE   W04
 BYTE   W04
 BYTE   W03
 BYTE   W04
 BYTE   W04
 BYTE   W04
 BYTE   W04
 BYTE   W03
 BYTE   W04
 BYTE   W04
 BYTE   W02
//  #08 //016   ----------------------------------------
 BYTE   Bn1
 BYTE   N68  Fs2
 BYTE   W02
 BYTE   W04
 BYTE   W03
 BYTE   W04
 BYTE   W04
 BYTE   W04
 BYTE   W03
 BYTE   W04
 BYTE   W04
 BYTE   W04
 BYTE   W04
 BYTE   W03
 BYTE   W04
 BYTE   W04
 BYTE   W04
 BYTE   W04
 BYTE   W03
 BYTE   W04
 BYTE   W04
 BYTE   W02
 BYTE   N44  Cs2
 BYTE   N44  Gs2
 BYTE   W02
 BYTE   W04
 BYTE   W16
 BYTE   W02
//  #08 //017   ----------------------------------------
 BYTE   W07
 BYTE   W08
 BYTE   W08
 BYTE   W01
 BYTE   N23  Fn2
 BYTE   N23  Cs3
 BYTE   W08
 BYTE   W08
 BYTE   W08
 BYTE   N68  Fs2
 BYTE   N23  Ds3
 BYTE   W09
 BYTE   W08
 BYTE   W07
 BYTE   Fs3
 BYTE   W02
 BYTE   W04
 BYTE   W04
 BYTE   W04
 BYTE   W05
 BYTE   W04
 BYTE   W01
//  #08 //018   ----------------------------------------
 BYTE   Fn3
 BYTE   W03
 BYTE   W05
 BYTE   W04
 BYTE   W04
 BYTE   W05
 BYTE   W03
 BYTE   N72  Fn2
 BYTE   N72  Cs3
 BYTE   W03
 BYTE   W03
 BYTE   W03
 BYTE   W03
 BYTE   W03
 BYTE   W03
 BYTE   W03
 BYTE   W02
 BYTE   W01
 BYTE   W02
 BYTE   W01
 BYTE   W02
 BYTE   W01
 BYTE   W02
 BYTE   W01
 BYTE   W02
 BYTE   W01
 BYTE   W02
 BYTE   W01
 BYTE   W02
 BYTE   W01
 BYTE   W02
 BYTE   W01
 BYTE   W02
 BYTE   W01
 BYTE   W02
 BYTE   W01
 BYTE   W02
 BYTE   W01
 BYTE   W02
 BYTE   W01
 BYTE   W02
 BYTE   W01
 BYTE   W02
 BYTE   W01
 BYTE   W02
 BYTE   W01
 BYTE   W02
 BYTE   W03
 BYTE   W01
//  #08 //019   ----------------------------------------
 BYTE   N68  Cs2
 BYTE   N68  Gs2
 BYTE   W02
 BYTE   W03
 BYTE   W03
 BYTE   W03
 BYTE   W03
 BYTE   W03
 BYTE   W03
 BYTE   W03
 BYTE   W03
 BYTE   W03
 BYTE   W03
 BYTE   W03
 BYTE   W03
 BYTE   W03
 BYTE   W03
 BYTE   W03
 BYTE   W03
 BYTE   W03
 BYTE   W03
 BYTE   W03
 BYTE   W03
 BYTE   W03
 BYTE   W03
 BYTE   W04
 BYTE   N44  Fs2
 BYTE   N44  Bn2
 BYTE   W06
 BYTE   W05
 BYTE   W05
 BYTE   W05
 BYTE   W03
//  #08 //020   ----------------------------------------
 BYTE   W02
 BYTE   W05
 BYTE   W05
 BYTE   W05
 BYTE   W05
 BYTE   W02
 BYTE   N23
 BYTE   N23  Ds3
 BYTE   W03
 BYTE   W05
 BYTE   W05
 BYTE   W05
 BYTE   W05
 BYTE   W01
 BYTE   N68  Cs3
 BYTE   N68  Gs3
 BYTE   W04
 BYTE   W05
 BYTE   W02
 BYTE   W01
 BYTE   W02
 BYTE   W01
 BYTE   W02
 BYTE   W01
 BYTE   W02
 BYTE   W01
 BYTE   W02
 BYTE   W01
 BYTE   W02
 BYTE   W01
 BYTE   W02
 BYTE   W01
 BYTE   W02
 BYTE   W03
 BYTE   W03
 BYTE   W03
 BYTE   W03
 BYTE   W03
 BYTE   W01
//  #08 //021   ----------------------------------------
 BYTE   W02
 BYTE   W03
 BYTE   W03
 BYTE   W03
 BYTE   W03
 BYTE   W03
 BYTE   W03
 BYTE   W03
 BYTE   W01
 BYTE   Fs2
 BYTE   N68  Ds3
 BYTE   W01
 BYTE   W02
 BYTE   W01
 BYTE   W02
 BYTE   W01
 BYTE   W02
 BYTE   W01
 BYTE   W02
 BYTE   W01
 BYTE   W02
 BYTE   W01
 BYTE   W02
 BYTE   W01
 BYTE   W02
 BYTE   W01
 BYTE   W02
 BYTE   W01
 BYTE   W02
 BYTE   W01
 BYTE   W02
 BYTE   W01
 BYTE   W02
 BYTE   W01
 BYTE   W03
 BYTE   W03
 BYTE   W03
 BYTE   W03
 BYTE   W03
 BYTE   W03
 BYTE   W03
 BYTE   W03
 BYTE   W03
 BYTE   W03
 BYTE   W03
 BYTE   W03
 BYTE   W01
 BYTE   W01
//  #08 //022   ----------------------------------------
 BYTE   Ds2
 BYTE   N68  Bn2
 BYTE   W05
 BYTE   W03
 BYTE   W04
 BYTE   W03
 BYTE   W03
 BYTE   W03
 BYTE   W03
 BYTE   W04
 BYTE   W03
 BYTE   W03
 BYTE   W03
 BYTE   W04
 BYTE   W03
 BYTE   W03
 BYTE   W03
 BYTE   W03
 BYTE   W04
 BYTE   W03
 BYTE   W03
 BYTE   W03
 BYTE   W04
 BYTE   W02
 BYTE   TIE  Cs2
 BYTE   TIE  Gs2
 BYTE   W06
 BYTE   W04
 BYTE   W05
 BYTE   W04
 BYTE   W04
 BYTE   W01
//  #08 //023   ----------------------------------------
 BYTE   W03
 BYTE   W05
 BYTE   W04
 BYTE   W04
 BYTE   W04
 BYTE   W05
 BYTE   W04
 BYTE   W04
 BYTE   W05
 BYTE   W04
 BYTE   W04
 BYTE   W04
 BYTE   W05
 BYTE   W04
 BYTE   W04
 BYTE   W04
 BYTE   W05
 BYTE   W04
 BYTE   W04
 BYTE   W05
 BYTE   W04
 BYTE   W04
 BYTE   W03
//  #08 //024   ----------------------------------------
 BYTE   W01
 BYTE   W05
 BYTE   W04
 BYTE   W04
 BYTE   W04
 BYTE   W05
 BYTE   EOT
 BYTE   Cs2  v056
 BYTE   W01
 BYTE   N44  Cs2
 BYTE   N44  An2
 BYTE   W03
 BYTE   W04
 BYTE   W05
 BYTE   W07
 BYTE   W03
 BYTE   W04
 BYTE   W04
 BYTE   W03
 BYTE   W04
 BYTE   W04
 BYTE   W03
 BYTE   W04
 BYTE   En2
 BYTE   N44  Cs3
 BYTE   W04
 BYTE   W03
 BYTE   W04
 BYTE   W03
 BYTE   W04
 BYTE   W04
 BYTE   W02
//  #08 //025   ----------------------------------------
 BYTE   W01
 BYTE   W04
 BYTE   W04
 BYTE   W03
 BYTE   W04
 BYTE   W04
 BYTE   W03
 BYTE   W01
 BYTE   Fs2
 BYTE   N44  Ds3
 BYTE   W03
 BYTE   W04
 BYTE   W03
 BYTE   W04
 BYTE   W03
 BYTE   W04
 BYTE   W04
 BYTE   W03
 BYTE   W04
 BYTE   W04
 BYTE   W03
 BYTE   W04
 BYTE   W04
 BYTE   W01
 BYTE   An2
 BYTE   N44  En3
 BYTE   W02
 BYTE   W04
 BYTE   W04
 BYTE   W08
 BYTE   W04
 BYTE   W02
//  #08 //026   ----------------------------------------
 BYTE   W02
 BYTE   W04
 BYTE   W04
 BYTE   W04
 BYTE   W04
 BYTE   W05
 BYTE   W01
 BYTE   Fs2
 BYTE   N44  Ds3
 BYTE   W03
 BYTE   W04
 BYTE   W04
 BYTE   W04
 BYTE   W04
 BYTE   W04
 BYTE   W04
 BYTE   W05
 BYTE   W04
 BYTE   W04
 BYTE   W04
 BYTE   W04
 BYTE   Ds2
 BYTE   N44  Bn2
 BYTE   W04
 BYTE   W04
 BYTE   W04
 BYTE   W05
 BYTE   W04
 BYTE   W03
//  #08 //027   ----------------------------------------
 BYTE   W01
 BYTE   W04
 BYTE   W04
 BYTE   W04
 BYTE   W04
 BYTE   W04
 BYTE   W03
 BYTE   TIE  Cs2
 BYTE   TIE  Gs2
 BYTE   W02
 BYTE   W09
 BYTE   W05
 BYTE   W04
 BYTE   W05
 BYTE   W05
 BYTE   W04
 BYTE   W05
 BYTE   W05
 BYTE   W04
 BYTE   W05
 BYTE   W05
 BYTE   W04
 BYTE   W05
 BYTE   W05
//  #08 //028   ----------------------------------------
 BYTE   W04
 BYTE   W05
 BYTE   W05
 BYTE   W04
 BYTE   W05
 BYTE   W05
 BYTE   W04
 BYTE   W05
 BYTE   W05
 BYTE   W04
 BYTE   W05
 BYTE   W05
 BYTE   W04
 BYTE   W05
 BYTE   W05
 BYTE   W01
 BYTE   EOT
 BYTE   Cs2  v056
 BYTE   W01
 BYTE   TIE
 BYTE   TIE  Cs3
 BYTE   W08
 BYTE   W05
 BYTE   W06
 BYTE   W05
//  #08 //029   ----------------------------------------
 BYTE   W05
 BYTE   W05
 BYTE   W06
 BYTE   W05
 BYTE   W05
 BYTE   W05
 BYTE   W06
 BYTE   W05
 BYTE   W05
 BYTE   W06
 BYTE   W05
 BYTE   W05
 BYTE   W05
 BYTE   W06
 BYTE   W05
 BYTE   W05
 BYTE   W05
 BYTE   W06
 BYTE   W01
//  #08 //030   ----------------------------------------
 BYTE   W04
 BYTE   W05
 BYTE   W05
 BYTE   W06
 BYTE   W03
 BYTE   EOT
 BYTE   Gs2  v061
 BYTE   W01
 BYTE   N44  Cs2
 BYTE   N44  An2
 BYTE   W01
 BYTE   W05
 BYTE   W06
 BYTE   W09
 BYTE   W04
 BYTE   W05
 BYTE   W04
 BYTE   W05
 BYTE   W04
 BYTE   W05
 BYTE   En2
 BYTE   N44  Cs3
 BYTE   W04
 BYTE   W05
 BYTE   W04
 BYTE   W05
 BYTE   W04
 BYTE   W02
//  #08 //031   ----------------------------------------
 BYTE   W03
 BYTE   W05
 BYTE   W04
 BYTE   W05
 BYTE   W04
 BYTE   W03
 BYTE   Fs2
 BYTE   N44  Ds3
 BYTE   W02
 BYTE   W04
 BYTE   W05
 BYTE   W04
 BYTE   W05
 BYTE   W04
 BYTE   W05
 BYTE   W04
 BYTE   W05
 BYTE   W04
 BYTE   W05
 BYTE   W01
 BYTE   An2
 BYTE   N44  En3
 BYTE   W04
 BYTE   W04
 BYTE   W04
 BYTE   W05
 BYTE   W04
 BYTE   W03
//  #08 //032   ----------------------------------------
 BYTE   W02
 BYTE   W04
 BYTE   W04
 BYTE   W05
 BYTE   W04
 BYTE   W05
 BYTE   Fs2
 BYTE   N44  Ds3
 BYTE   W04
 BYTE   W04
 BYTE   W05
 BYTE   W04
 BYTE   W05
 BYTE   W04
 BYTE   W04
 BYTE   W05
 BYTE   W04
 BYTE   W05
 BYTE   W04
 BYTE   Ds2
 BYTE   N44  Bn2
 BYTE   W04
 BYTE   W05
 BYTE   W04
 BYTE   W05
 BYTE   W04
 BYTE   W02
//  #08 //033   ----------------------------------------
 BYTE   W02
 BYTE   W05
 BYTE   W04
 BYTE   W05
 BYTE   W04
 BYTE   W04
 BYTE   N68  En2
 BYTE   N68  An2
 BYTE   W05
 BYTE   W04
 BYTE   W05
 BYTE   W04
 BYTE   W04
 BYTE   W04
 BYTE   W04
 BYTE   W04
 BYTE   W04
 BYTE   W04
 BYTE   W04
 BYTE   W04
 BYTE   W04
 BYTE   W04
 BYTE   W04
 BYTE   W04
 BYTE   W04
 BYTE   W02
//  #08 //034   ----------------------------------------
 BYTE   Fs2
 BYTE   N68  Bn2
 BYTE   W02
 BYTE   W04
 BYTE   W04
 BYTE   W04
 BYTE   W04
 BYTE   W04
 BYTE   W04
 BYTE   W04
 BYTE   W04
 BYTE   W04
 BYTE   W04
 BYTE   W04
 BYTE   W04
 BYTE   W04
 BYTE   W04
 BYTE   W04
 BYTE   W04
 BYTE   W04
 BYTE   W02
 BYTE   An2
 BYTE   N68  Dn3
 BYTE   W02
 BYTE   W05
 BYTE   W05
 BYTE   W05
 BYTE   W05
 BYTE   W02
//  #08 //035   ----------------------------------------
 BYTE   W03
 BYTE   W05
 BYTE   W05
 BYTE   W05
 BYTE   W05
 BYTE   W05
 BYTE   W05
 BYTE   W05
 BYTE   W05
 BYTE   W05
 BYTE   Bn2
 BYTE   N68  En3
 BYTE   W05
 BYTE   W04
 BYTE   W05
 BYTE   W05
 BYTE   W05
 BYTE   W05
 BYTE   W05
 BYTE   W05
 BYTE   W05
 BYTE   W04
//  #08 //036   ----------------------------------------
 BYTE   W01
 BYTE   W05
 BYTE   W05
 BYTE   W05
 BYTE   W05
 BYTE   W03
 BYTE   Gs2
 BYTE   N68  Fn3
 BYTE   W02
 BYTE   W05
 BYTE   W05
 BYTE   W04
 BYTE   W04
 BYTE   W04
 BYTE   W04
 BYTE   W04
 BYTE   W04
 BYTE   W04
 BYTE   W04
 BYTE   W04
 BYTE   W04
 BYTE   W04
 BYTE   W04
 BYTE   W04
 BYTE   W04
 BYTE   W04
//  #08 //037   ----------------------------------------
 BYTE   Fn2
 BYTE   N68  Cs3
 BYTE   W04
 BYTE   W04
 BYTE   W04
 BYTE   W04
 BYTE   W04
 BYTE   W04
 BYTE   W04
 BYTE   W04
 BYTE   W04
 BYTE   W04
 BYTE   W04
 BYTE   W04
 BYTE   W04
 BYTE   W04
 BYTE   W04
 BYTE   W04
 BYTE   W04
 BYTE   W04
 BYTE   Ds2
 BYTE   N68  Bn2
 BYTE   W05
 BYTE   W05
 BYTE   W05
 BYTE   W05
 BYTE   W04
//  #08 //038   ----------------------------------------
 BYTE   W01
 BYTE   W05
 BYTE   W05
 BYTE   W05
 BYTE   W05
 BYTE   W05
 BYTE   W05
 BYTE   W05
 BYTE   W05
 BYTE   W05
 BYTE   W02
 BYTE   Cs2
 BYTE   N68  As2
 BYTE   W03
 BYTE   W05
 BYTE   W05
 BYTE   W05
 BYTE   W05
 BYTE   W05
 BYTE   W05
 BYTE   W05
 BYTE   W05
 BYTE   W05
//  #08 //039   ----------------------------------------
 BYTE   W05
 BYTE   W05
 BYTE   W05
 BYTE   W05
 BYTE   W04
 BYTE   Cs2
 BYTE   N68  Gs2
 BYTE   W01
 BYTE   W05
 BYTE   W05
 BYTE   W05
 BYTE   W07
 BYTE   W04
 BYTE   W04
 BYTE   W04
 BYTE   W03
 BYTE   W04
 BYTE   W04
 BYTE   W04
 BYTE   W03
 BYTE   W04
 BYTE   W04
 BYTE   W04
 BYTE   W04
 BYTE   W03
//  #08 //040   ----------------------------------------
 BYTE   Fn2
 BYTE   N68  Cs3
 BYTE   W04
 BYTE   W04
 BYTE   W04
 BYTE   W04
 BYTE   W03
 BYTE   W04
 BYTE   W04
 BYTE   W04
 BYTE   W04
 BYTE   W03
 BYTE   W04
 BYTE   W04
 BYTE   W04
 BYTE   W04
 BYTE   W04
 BYTE   W05
 BYTE   W05
 BYTE   W04
 BYTE   Ds2
 BYTE   N68  Bn2
 BYTE   W01
 BYTE   W05
 BYTE   W05
 BYTE   W05
 BYTE   W05
 BYTE   W03
//  #08 //041   ----------------------------------------
 BYTE   W02
 BYTE   W05
 BYTE   W05
 BYTE   W05
 BYTE   W05
 BYTE   W05
 BYTE   W05
 BYTE   W05
 BYTE   W04
 BYTE   W05
 BYTE   W02
 BYTE   Cs2
 BYTE   N68  As2
 BYTE   W03
 BYTE   W05
 BYTE   W05
 BYTE   W05
 BYTE   W05
 BYTE   W05
 BYTE   W05
 BYTE   W05
 BYTE   W05
 BYTE   W05
//  #08 //042   ----------------------------------------
 BYTE   W05
 BYTE   W05
 BYTE   W05
 BYTE   W05
 BYTE   W04
 BYTE   GoTo
  POIN2 Label_0182DEA7
 BYTE   FINE

//**************** Track 9 (Midi-Chn.8) ****************//

song24_009:
//  #09 //000   ----------------------------------------
 BYTE   KEYSH   song24_key+0
 BYTE   VOICE   34
 BYTE   VOL   29*song24_mvl/mxv
 BYTE   PAN   c_v+0
 BYTE   BEND   c_v+0
 BYTE   W24
Label_0182E3CF:
 BYTE   N10  Cs2  v104
 BYTE   W36
 BYTE   Cs2  v052
 BYTE   W12
 BYTE   Cs2  v068
 BYTE   W12
 BYTE   Cs2  v084
 BYTE   W12
//  #09 //001   ----------------------------------------
Label_0182E3DC:
 BYTE   N10  Cs2  v104
 BYTE   W36
 BYTE   Cs2  v052
 BYTE   W12
 BYTE   Cs2  v068
 BYTE   W12
 BYTE   Cs2  v084
 BYTE   W12
 BYTE   Cs2  v104
 BYTE   W24
 BYTE   PEND 
//  #09 //002   ----------------------------------------
Label_0182E3ED:
 BYTE   W12
 BYTE   N10  Cs2  v052
 BYTE   W12
 BYTE   Cs2  v068
 BYTE   W12
 BYTE   Cs2  v084
 BYTE   W12
 BYTE   Cs2  v104
 BYTE   W36
 BYTE   Cs2  v052
 BYTE   W12
 BYTE   PEND 
//  #09 //003   ----------------------------------------
Label_0182E3FF:
 BYTE   N10  Cs2  v068
 BYTE   W12
 BYTE   Cs2  v084
 BYTE   W12
 BYTE   Bn1  v104
 BYTE   W36
 BYTE   Bn1  v052
 BYTE   W12
 BYTE   Bn1  v068
 BYTE   W12
 BYTE   Bn1  v084
 BYTE   W12
 BYTE   PEND 
//  #09 //004   ----------------------------------------
Label_0182E413:
 BYTE   N10  Bn1  v104
 BYTE   W36
 BYTE   Bn1  v052
 BYTE   W12
 BYTE   Bn1  v068
 BYTE   W12
 BYTE   Bn1  v084
 BYTE   W12
 BYTE   Cs2  v104
 BYTE   W24
 BYTE   PEND 
//  #09 //005   ----------------------------------------
 BYTE   PATT
  POIN2 Label_0182E3ED
//  #09 //006   ----------------------------------------
Label_0182E429:
 BYTE   N10  Cs2  v068
 BYTE   W12
 BYTE   Cs2  v084
 BYTE   W12
 BYTE   Cs2  v104
 BYTE   W36
 BYTE   Cs2  v052
 BYTE   W12
 BYTE   Cs2  v068
 BYTE   W12
 BYTE   Cs2  v084
 BYTE   W12
 BYTE   PEND 
//  #09 //007   ----------------------------------------
 BYTE   PATT
  POIN2 Label_0182E3DC
//  #09 //008   ----------------------------------------
 BYTE   PATT
  POIN2 Label_0182E3ED
//  #09 //009   ----------------------------------------
 BYTE   PATT
  POIN2 Label_0182E3FF
//  #09 //010   ----------------------------------------
Label_0182E44C:
 BYTE   N10  Bn1  v104
 BYTE   W36
 BYTE   Bn1  v052
 BYTE   W12
 BYTE   Bn1  v068
 BYTE   W12
 BYTE   Bn1  v084
 BYTE   W12
 BYTE   Fs1  v104
 BYTE   W24
 BYTE   PEND 
//  #09 //011   ----------------------------------------
Label_0182E45D:
 BYTE   W12
 BYTE   N10  Fs1  v052
 BYTE   W12
 BYTE   Fs1  v068
 BYTE   W12
 BYTE   Fs1  v084
 BYTE   W12
 BYTE   Fs1  v104
 BYTE   W36
 BYTE   Fs1  v052
 BYTE   W12
 BYTE   PEND 
//  #09 //012   ----------------------------------------
 BYTE   Fs1  v068
 BYTE   W12
 BYTE   Fs1  v084
 BYTE   W12
 BYTE   Cs2  v104
 BYTE   W36
 BYTE   Cs2  v052
 BYTE   W12
 BYTE   Cs2  v068
 BYTE   W12
 BYTE   Cs2  v084
 BYTE   W12
//  #09 //013   ----------------------------------------
 BYTE   PATT
  POIN2 Label_0182E3DC
//  #09 //014   ----------------------------------------
 BYTE   PATT
  POIN2 Label_0182E3ED
//  #09 //015   ----------------------------------------
 BYTE   PATT
  POIN2 Label_0182E3FF
//  #09 //016   ----------------------------------------
 BYTE   PATT
  POIN2 Label_0182E413
//  #09 //017   ----------------------------------------
 BYTE   PATT
  POIN2 Label_0182E3ED
//  #09 //018   ----------------------------------------
 BYTE   PATT
  POIN2 Label_0182E429
//  #09 //019   ----------------------------------------
 BYTE   PATT
  POIN2 Label_0182E3DC
//  #09 //020   ----------------------------------------
 BYTE   PATT
  POIN2 Label_0182E3ED
//  #09 //021   ----------------------------------------
 BYTE   PATT
  POIN2 Label_0182E3FF
//  #09 //022   ----------------------------------------
 BYTE   PATT
  POIN2 Label_0182E44C
//  #09 //023   ----------------------------------------
 BYTE   PATT
  POIN2 Label_0182E45D
//  #09 //024   ----------------------------------------
 BYTE   N10  Fs1  v068
 BYTE   W12
 BYTE   Fs1  v084
 BYTE   W12
 BYTE   N92  An2  v104
 BYTE   W72
//  #09 //025   ----------------------------------------
Label_0182E4C3:
 BYTE   W24
 BYTE   N23  En2  v104
 BYTE   W24
 BYTE   An1
 BYTE   W24
 BYTE   N44  Bn1
 BYTE   W24
 BYTE   PEND 
//  #09 //026   ----------------------------------------
Label_0182E4CE:
 BYTE   W24
 BYTE   N23  Fs2  v104
 BYTE   W24
 BYTE   N68  Bn2
 BYTE   W48
 BYTE   PEND 
//  #09 //027   ----------------------------------------
 BYTE   W24
 BYTE   N10  Fs1
 BYTE   W36
 BYTE   Fs1  v052
 BYTE   W12
 BYTE   Fs1  v068
 BYTE   W12
 BYTE   Fs1  v084
 BYTE   W12
//  #09 //028   ----------------------------------------
 BYTE   Fs1  v104
 BYTE   W36
 BYTE   Fs1  v052
 BYTE   W12
 BYTE   Fs1  v068
 BYTE   W12
 BYTE   Fs1  v084
 BYTE   W12
 BYTE   Fs1  v104
 BYTE   W24
//  #09 //029   ----------------------------------------
 BYTE   W12
 BYTE   Fs1  v052
 BYTE   W12
 BYTE   Fs1  v068
 BYTE   W12
 BYTE   Fs1  v084
 BYTE   W12
 BYTE   Fs1  v104
 BYTE   W36
 BYTE   Cs2
 BYTE   W12
//  #09 //030   ----------------------------------------
 BYTE   Fs2
 BYTE   W12
 BYTE   Gs2
 BYTE   W12
 BYTE   N92  An2
 BYTE   W72
//  #09 //031   ----------------------------------------
 BYTE   PATT
  POIN2 Label_0182E4C3
//  #09 //032   ----------------------------------------
 BYTE   PATT
  POIN2 Label_0182E4CE
//  #09 //033   ----------------------------------------
 BYTE   W24
 BYTE   N68  Cs2  v104
 BYTE   W72
//  #09 //034   ----------------------------------------
 BYTE   Cs1
 BYTE   W72
 BYTE   Cs2
 BYTE   W24
//  #09 //035   ----------------------------------------
 BYTE   W48
 BYTE   Gs1
 BYTE   W48
//  #09 //036   ----------------------------------------
 BYTE   W24
 BYTE   N10  Cs2
 BYTE   W36
 BYTE   Cs2  v052
 BYTE   W12
 BYTE   Cs2  v068
 BYTE   W12
 BYTE   Cs2  v084
 BYTE   W12
//  #09 //037   ----------------------------------------
 BYTE   PATT
  POIN2 Label_0182E3DC
//  #09 //038   ----------------------------------------
 BYTE   PATT
  POIN2 Label_0182E3ED
//  #09 //039   ----------------------------------------
 BYTE   PATT
  POIN2 Label_0182E429
//  #09 //040   ----------------------------------------
 BYTE   PATT
  POIN2 Label_0182E3DC
//  #09 //041   ----------------------------------------
 BYTE   PATT
  POIN2 Label_0182E3ED
//  #09 //042   ----------------------------------------
 BYTE   N10  Cs2  v068
 BYTE   W12
 BYTE   Cs2  v084
 BYTE   W12
 BYTE   GoTo
  POIN2 Label_0182E3CF
 BYTE   FINE

//**************** Track 10 (Midi-Chn.9) ****************//

song24_010:
//  #10 //000   ----------------------------------------
 BYTE   KEYSH   song24_key+0
 BYTE   VOICE   124
 BYTE   VOL   37*song24_mvl/mxv
 BYTE   PAN   c_v+0
 BYTE   BEND   c_v+0
 BYTE   N01  Dn1  v044
 BYTE   W01
 BYTE   N01
 BYTE   W02
 BYTE   N01
 BYTE   W01
 BYTE   N01
 BYTE   W02
 BYTE   N01
 BYTE   W01
 BYTE   N01
 BYTE   W02
 BYTE   N01
 BYTE   W01
 BYTE   N01
 BYTE   W01
 BYTE   W01
 BYTE   N01
 BYTE   W01
 BYTE   N01
 BYTE   W01
 BYTE   W01
 BYTE   N01
 BYTE   W01
 BYTE   N01
 BYTE   W01
 BYTE   W01
 BYTE   N01
 BYTE   W01
 BYTE   N01
 BYTE   W01
 BYTE   W01
 BYTE   Dn1  v056
 BYTE   W01
 BYTE   N01
 BYTE   W01
 BYTE   W01
Label_0182E586:
 BYTE   N10  Dn1  v104
 BYTE   W01
 BYTE   N11  En1  v088
 BYTE   W17
 BYTE   N10  Dn1  v060
 BYTE   W01
 BYTE   N11  En1  v044
 BYTE   W17
 BYTE   N10  Dn1  v048
 BYTE   W01
 BYTE   N11  En1  v032
 BYTE   W32
 BYTE   W03
//  #10 //001   ----------------------------------------
Label_0182E59F:
 BYTE   N14  Dn1  v088
 BYTE   W18
 BYTE   Dn1  v052
 BYTE   W18
 BYTE   Dn1  v044
 BYTE   W24
 BYTE   N04  Dn1  v052
 BYTE   W06
 BYTE   En1  v072
 BYTE   W06
 BYTE   N10  Dn1  v104
 BYTE   W18
 BYTE   Dn1  v060
 BYTE   W06
 BYTE   PEND 
//  #10 //002   ----------------------------------------
Label_0182E5B8:
 BYTE   W12
 BYTE   N10  Dn1  v048
 BYTE   W36
 BYTE   N14  Dn1  v088
 BYTE   W18
 BYTE   Dn1  v052
 BYTE   W18
 BYTE   N08  Dn1  v044
 BYTE   W12
 BYTE   PEND 
//  #10 //003   ----------------------------------------
 BYTE   N01  Dn1  v068
 BYTE   W01
 BYTE   N01
 BYTE   W02
 BYTE   N01
 BYTE   W01
 BYTE   N01
 BYTE   W02
 BYTE   N01
 BYTE   W01
 BYTE   N01
 BYTE   W02
 BYTE   N01
 BYTE   W01
 BYTE   N01
 BYTE   W02
 BYTE   N01
 BYTE   W01
 BYTE   N01
 BYTE   W02
 BYTE   N01
 BYTE   W01
 BYTE   N01
 BYTE   W02
 BYTE   N01
 BYTE   W01
 BYTE   N01
 BYTE   W02
 BYTE   Dn1  v084
 BYTE   W01
 BYTE   N01
 BYTE   W02
 BYTE   N10  Dn1  v104
 BYTE   W01
 BYTE   N11  En1  v088
 BYTE   W17
 BYTE   N10  Dn1  v060
 BYTE   W01
 BYTE   N11  En1  v044
 BYTE   W17
 BYTE   N10  Dn1  v048
 BYTE   W01
 BYTE   N11  En1  v032
 BYTE   W32
 BYTE   W03
//  #10 //004   ----------------------------------------
 BYTE   PATT
  POIN2 Label_0182E59F
//  #10 //005   ----------------------------------------
 BYTE   PATT
  POIN2 Label_0182E5B8
//  #10 //006   ----------------------------------------
 BYTE   N01  Dn1  v068
 BYTE   W01
 BYTE   N01
 BYTE   W02
 BYTE   N01
 BYTE   W01
 BYTE   N01
 BYTE   W02
 BYTE   N01
 BYTE   W01
 BYTE   N01
 BYTE   W02
 BYTE   N01
 BYTE   W01
 BYTE   N01
 BYTE   W02
 BYTE   N01
 BYTE   W01
 BYTE   N01
 BYTE   W02
 BYTE   N01
 BYTE   W01
 BYTE   N01
 BYTE   W02
 BYTE   N01
 BYTE   W01
 BYTE   N01
 BYTE   W02
 BYTE   Dn1  v088
 BYTE   W01
 BYTE   N01
 BYTE   W02
 BYTE   N10  Dn1  v104
 BYTE   W01
 BYTE   N11  En1  v088
 BYTE   W17
 BYTE   N10  Dn1  v060
 BYTE   W01
 BYTE   N11  En1  v044
 BYTE   W17
 BYTE   N10  Dn1  v048
 BYTE   W01
 BYTE   N11  En1  v032
 BYTE   W32
 BYTE   W03
//  #10 //007   ----------------------------------------
 BYTE   PATT
  POIN2 Label_0182E59F
//  #10 //008   ----------------------------------------
 BYTE   PATT
  POIN2 Label_0182E5B8
//  #10 //009   ----------------------------------------
Label_0182E655:
 BYTE   N01  Dn1  v084
 BYTE   W01
 BYTE   N01
 BYTE   W02
 BYTE   N01
 BYTE   W01
 BYTE   N01
 BYTE   W02
 BYTE   N01
 BYTE   W01
 BYTE   N01
 BYTE   W02
 BYTE   N01
 BYTE   W01
 BYTE   N01
 BYTE   W02
 BYTE   N01
 BYTE   W01
 BYTE   N01
 BYTE   W02
 BYTE   N01
 BYTE   W01
 BYTE   N01
 BYTE   W02
 BYTE   N01
 BYTE   W01
 BYTE   N01
 BYTE   W02
 BYTE   N01
 BYTE   W01
 BYTE   N01
 BYTE   W02
 BYTE   N10  Dn1  v104
 BYTE   W01
 BYTE   N11  En1  v088
 BYTE   W17
 BYTE   N10  Dn1  v060
 BYTE   W01
 BYTE   N11  En1  v044
 BYTE   W17
 BYTE   N10  Dn1  v048
 BYTE   W01
 BYTE   N11  En1  v032
 BYTE   W32
 BYTE   W03
 BYTE   PEND 
//  #10 //010   ----------------------------------------
 BYTE   PATT
  POIN2 Label_0182E59F
//  #10 //011   ----------------------------------------
 BYTE   PATT
  POIN2 Label_0182E5B8
//  #10 //012   ----------------------------------------
 BYTE   PATT
  POIN2 Label_0182E655
//  #10 //013   ----------------------------------------
 BYTE   PATT
  POIN2 Label_0182E59F
//  #10 //014   ----------------------------------------
 BYTE   PATT
  POIN2 Label_0182E5B8
//  #10 //015   ----------------------------------------
 BYTE   PATT
  POIN2 Label_0182E655
//  #10 //016   ----------------------------------------
 BYTE   PATT
  POIN2 Label_0182E59F
//  #10 //017   ----------------------------------------
 BYTE   PATT
  POIN2 Label_0182E5B8
//  #10 //018   ----------------------------------------
 BYTE   PATT
  POIN2 Label_0182E655
//  #10 //019   ----------------------------------------
 BYTE   PATT
  POIN2 Label_0182E59F
//  #10 //020   ----------------------------------------
 BYTE   PATT
  POIN2 Label_0182E5B8
//  #10 //021   ----------------------------------------
 BYTE   PATT
  POIN2 Label_0182E655
//  #10 //022   ----------------------------------------
 BYTE   PATT
  POIN2 Label_0182E59F
//  #10 //023   ----------------------------------------
 BYTE   PATT
  POIN2 Label_0182E5B8
//  #10 //024   ----------------------------------------
 BYTE   N01  Dn1  v088
 BYTE   W01
 BYTE   N01
 BYTE   W02
 BYTE   N01
 BYTE   W01
 BYTE   N01
 BYTE   W02
 BYTE   N01
 BYTE   W01
 BYTE   N01
 BYTE   W02
 BYTE   N01
 BYTE   W01
 BYTE   N01
 BYTE   W02
 BYTE   N01
 BYTE   W01
 BYTE   N01
 BYTE   W02
 BYTE   N01
 BYTE   W01
 BYTE   N01
 BYTE   W02
 BYTE   N01
 BYTE   W01
 BYTE   N01
 BYTE   W02
 BYTE   N01
 BYTE   W01
 BYTE   N01
 BYTE   W02
 BYTE   N10  Dn1  v104
 BYTE   W01
 BYTE   N11  En1  v088
 BYTE   W17
 BYTE   N10  Dn1  v060
 BYTE   W01
 BYTE   N11  En1  v044
 BYTE   W17
 BYTE   N10  Dn1  v048
 BYTE   W01
 BYTE   N11  En1  v032
 BYTE   W32
 BYTE   W03
//  #10 //025   ----------------------------------------
 BYTE   N14  Dn1  v052
 BYTE   W24
 BYTE   En1
 BYTE   W36
 BYTE   N04  Dn1
 BYTE   W06
 BYTE   En1  v072
 BYTE   W06
 BYTE   N10  Dn1  v104
 BYTE   W18
 BYTE   Dn1  v060
 BYTE   W06
//  #10 //026   ----------------------------------------
Label_0182E725:
 BYTE   W12
 BYTE   N10  Dn1  v048
 BYTE   W36
 BYTE   N14  Dn1  v060
 BYTE   W24
 BYTE   En1
 BYTE   W24
 BYTE   PEND 
//  #10 //027   ----------------------------------------
 BYTE   PATT
  POIN2 Label_0182E655
//  #10 //028   ----------------------------------------
 BYTE   PATT
  POIN2 Label_0182E59F
//  #10 //029   ----------------------------------------
 BYTE   PATT
  POIN2 Label_0182E5B8
//  #10 //030   ----------------------------------------
 BYTE   PATT
  POIN2 Label_0182E655
//  #10 //031   ----------------------------------------
 BYTE   N14  Dn1  v060
 BYTE   W24
 BYTE   En1
 BYTE   W36
 BYTE   N04  Dn1  v052
 BYTE   W06
 BYTE   En1  v072
 BYTE   W06
 BYTE   N10  Dn1  v104
 BYTE   W18
 BYTE   Dn1  v060
 BYTE   W06
//  #10 //032   ----------------------------------------
 BYTE   PATT
  POIN2 Label_0182E725
//  #10 //033   ----------------------------------------
 BYTE   N01  Dn1  v084
 BYTE   W01
 BYTE   N01
 BYTE   W02
 BYTE   N01
 BYTE   W01
 BYTE   N01
 BYTE   W02
 BYTE   N01
 BYTE   W01
 BYTE   N01
 BYTE   W02
 BYTE   N01
 BYTE   W01
 BYTE   N01
 BYTE   W02
 BYTE   N01
 BYTE   W01
 BYTE   N01
 BYTE   W02
 BYTE   N01
 BYTE   W01
 BYTE   N01
 BYTE   W02
 BYTE   N01
 BYTE   W01
 BYTE   N01
 BYTE   W02
 BYTE   N01
 BYTE   W01
 BYTE   N01
 BYTE   W02
 BYTE   N10  Dn1  v108
 BYTE   W12
 BYTE   N05  En1  v056
 BYTE   W06
 BYTE   Dn1  v084
 BYTE   W06
 BYTE   N01
 BYTE   W01
 BYTE   N01
 BYTE   W02
 BYTE   N01
 BYTE   W01
 BYTE   N01
 BYTE   W02
 BYTE   N01
 BYTE   W01
 BYTE   N01
 BYTE   W02
 BYTE   N01
 BYTE   W01
 BYTE   N01
 BYTE   W02
 BYTE   N05  En1  v072
 BYTE   W06
 BYTE   Dn1  v088
 BYTE   W06
 BYTE   En1  v052
 BYTE   W06
 BYTE   En1  v100
 BYTE   W06
 BYTE   Dn1  v076
 BYTE   W06
 BYTE   En1  v064
 BYTE   W06
//  #10 //034   ----------------------------------------
 BYTE   Dn1  v084
 BYTE   W06
 BYTE   En1  v048
 BYTE   W06
 BYTE   Dn1  v108
 BYTE   W06
 BYTE   En1  v056
 BYTE   W06
 BYTE   Dn1  v044
 BYTE   W06
 BYTE   En1  v088
 BYTE   W06
 BYTE   Dn1  v096
 BYTE   W06
 BYTE   En1  v036
 BYTE   W06
 BYTE   Dn1  v084
 BYTE   W06
 BYTE   En1  v076
 BYTE   W06
 BYTE   N01  Dn1  v084
 BYTE   W01
 BYTE   N01
 BYTE   W02
 BYTE   N01
 BYTE   W01
 BYTE   N01
 BYTE   W02
 BYTE   N01
 BYTE   W01
 BYTE   N01
 BYTE   W02
 BYTE   N01
 BYTE   W01
 BYTE   N01
 BYTE   W02
 BYTE   N10  Dn1  v108
 BYTE   W12
 BYTE   N05  En1  v056
 BYTE   W06
 BYTE   Dn1  v084
 BYTE   W06
//  #10 //035   ----------------------------------------
 BYTE   N01
 BYTE   W01
 BYTE   N01
 BYTE   W02
 BYTE   N01
 BYTE   W01
 BYTE   N01
 BYTE   W02
 BYTE   N01
 BYTE   W01
 BYTE   N01
 BYTE   W02
 BYTE   N01
 BYTE   W01
 BYTE   N01
 BYTE   W02
 BYTE   N05  En1  v072
 BYTE   W06
 BYTE   Dn1  v088
 BYTE   W06
 BYTE   En1  v052
 BYTE   W06
 BYTE   En1  v100
 BYTE   W06
 BYTE   Dn1  v076
 BYTE   W06
 BYTE   En1  v064
 BYTE   W06
 BYTE   Dn1  v084
 BYTE   W06
 BYTE   En1  v048
 BYTE   W06
 BYTE   Dn1  v108
 BYTE   W06
 BYTE   En1  v056
 BYTE   W06
 BYTE   Dn1  v052
 BYTE   W06
 BYTE   En1  v088
 BYTE   W06
 BYTE   Dn1  v096
 BYTE   W06
 BYTE   En1  v048
 BYTE   W06
//  #10 //036   ----------------------------------------
 BYTE   N03  Dn1  v044
 BYTE   W04
 BYTE   En1  v060
 BYTE   W04
 BYTE   Dn1  v068
 BYTE   W04
 BYTE   En1  v072
 BYTE   W04
 BYTE   Dn1  v088
 BYTE   W04
 BYTE   En1  v092
 BYTE   W04
 BYTE   N10  Dn1  v104
 BYTE   W01
 BYTE   N11  En1  v088
 BYTE   W17
 BYTE   N10  Dn1  v060
 BYTE   W01
 BYTE   N11  En1  v044
 BYTE   W17
 BYTE   N10  Dn1  v048
 BYTE   W01
 BYTE   N11  En1  v032
 BYTE   W32
 BYTE   W03
//  #10 //037   ----------------------------------------
 BYTE   PATT
  POIN2 Label_0182E59F
//  #10 //038   ----------------------------------------
 BYTE   PATT
  POIN2 Label_0182E5B8
//  #10 //039   ----------------------------------------
 BYTE   PATT
  POIN2 Label_0182E655
//  #10 //040   ----------------------------------------
 BYTE   PATT
  POIN2 Label_0182E59F
//  #10 //041   ----------------------------------------
 BYTE   PATT
  POIN2 Label_0182E5B8
//  #10 //042   ----------------------------------------
 BYTE   N01  Dn1  v044
 BYTE   W01
 BYTE   N01
 BYTE   W02
 BYTE   N01
 BYTE   W01
 BYTE   N01
 BYTE   W02
 BYTE   N01
 BYTE   W01
 BYTE   N01
 BYTE   W02
 BYTE   N01
 BYTE   W01
 BYTE   N01
 BYTE   W02
 BYTE   N01
 BYTE   W01
 BYTE   N01
 BYTE   W02
 BYTE   N01
 BYTE   W01
 BYTE   N01
 BYTE   W02
 BYTE   N01
 BYTE   W01
 BYTE   N01
 BYTE   W02
 BYTE   N01
 BYTE   W01
 BYTE   N01
 BYTE   W02
 BYTE   GoTo
  POIN2 Label_0182E586
 BYTE   FINE

//******************************************************//
	ALIGN 4

song24:
	BYTE	10	// NumTrks
	BYTE	0	// NumBlks
	BYTE	song24_pri	// Priority
	BYTE	song24_rev	// Reverb.
    
	POIN2	song24_grp
    
	POIN2	song24_001
	POIN2	song24_002
	POIN2	song24_003
	POIN2	song24_004
	POIN2	song24_005
	POIN2	song24_006
	POIN2	song24_007
	POIN2	song24_008
	POIN2	song24_009
	POIN2	song24_010

	
