//Event file generated from Sappy .s format.
	#include "MPlayDef.event"

	#define	song5F_grp  voicegroup000
	#define	song5F_pri  0
	#define	song5F_rev  0
	#define	song5F_mvl  127
	#define	song5F_key  0
	#define	song5F_tbs  1
	#define	song5F_exg  0
	#define	song5F_cmp  1

	// .rodata
	//	song5F
	ALIGN 4


//**************** Track 1 (Midi-Chn.0) ****************//

song5F_001:
//  #01 //000   ----------------------------------------
 BYTE   VOL   50*song5F_mvl/mxv
 BYTE   KEYSH   song5F_key+0
 BYTE   TEMPO   180*song5F_tbs/2
 BYTE   VOICE   40
 BYTE   N05  Dn2  v120
 BYTE   N05  Dn3
 BYTE   W03
 BYTE   W09
 BYTE   An2
 BYTE   N05  An3
 BYTE   W12
 BYTE   Gn2
 BYTE   N05  Gn3
 BYTE   W06
 BYTE   An2
 BYTE   N05  An3
 BYTE   W12
 BYTE   En2
 BYTE   N05  En3
 BYTE   W12
 BYTE   Fn2
 BYTE   N05  Fn3
 BYTE   W12
 BYTE   An2
 BYTE   N05  An3
 BYTE   W06
 BYTE   Gn2
 BYTE   N05  Gn3
 BYTE   W06
 BYTE   Fn2
 BYTE   N05  Fn3
 BYTE   W06
 BYTE   En2
 BYTE   N05  En3
 BYTE   W06
 BYTE   Dn2
 BYTE   N05  Dn3
 BYTE   W06
//  #01 //001   ----------------------------------------
Label_015FA59B:
 BYTE   W06
 BYTE   N05  Dn2  v120
 BYTE   N05  Dn3
 BYTE   W06
 BYTE   An2
 BYTE   N05  An3
 BYTE   W12
 BYTE   Gn2
 BYTE   N05  Gn3
 BYTE   W06
 BYTE   An2
 BYTE   N05  An3
 BYTE   W12
 BYTE   En2
 BYTE   N05  En3
 BYTE   W12
 BYTE   Fn2
 BYTE   N05  Fn3
 BYTE   W12
 BYTE   An2
 BYTE   N05  An3
 BYTE   W06
 BYTE   Cn2
 BYTE   N05  Cn3
 BYTE   W12
 BYTE   Cs2
 BYTE   N05  Cs3
 BYTE   W12
 BYTE   PEND 
//  #01 //002   ----------------------------------------
Label_015FA5C3:
 BYTE   N05  Dn2  v120
 BYTE   N05  Dn3
 BYTE   W12
 BYTE   An2
 BYTE   N05  An3
 BYTE   W12
 BYTE   Gn2
 BYTE   N05  Gn3
 BYTE   W06
 BYTE   An2
 BYTE   N05  An3
 BYTE   W12
 BYTE   En2
 BYTE   N05  En3
 BYTE   W12
 BYTE   Fn2
 BYTE   N05  Fn3
 BYTE   W12
 BYTE   An2
 BYTE   N05  An3
 BYTE   W06
 BYTE   Gn2
 BYTE   N05  Gn3
 BYTE   W06
 BYTE   Fn2
 BYTE   N05  Fn3
 BYTE   W06
 BYTE   En2
 BYTE   N05  En3
 BYTE   W06
 BYTE   Dn2
 BYTE   N05  Dn3
 BYTE   W06
 BYTE   PEND 
//  #01 //003   ----------------------------------------
 BYTE   PATT
  POIN2 Label_015FA59B
//  #01 //004   ----------------------------------------
 BYTE   PATT
  POIN2 Label_015FA5C3
//  #01 //005   ----------------------------------------
 BYTE   PATT
  POIN2 Label_015FA59B
//  #01 //006   ----------------------------------------
 BYTE   PATT
  POIN2 Label_015FA5C3
//  #01 //007   ----------------------------------------
 BYTE   W06
 BYTE   N05  Dn2  v120
 BYTE   N05  Dn3
 BYTE   W06
 BYTE   An2
 BYTE   N05  An3
 BYTE   W12
 BYTE   Gn2
 BYTE   N05  Gn3
 BYTE   W06
 BYTE   An2
 BYTE   N05  An3
 BYTE   W12
 BYTE   Cn3
 BYTE   N05  Cn4
 BYTE   W12
 BYTE   Cn3
 BYTE   N05  Cn4
 BYTE   W06
 BYTE   An2
 BYTE   N05  An3
 BYTE   W06
 BYTE   An2
 BYTE   N05  An3
 BYTE   W06
 BYTE   En2
 BYTE   N05  En3
 BYTE   W06
 BYTE   N05
 BYTE   N05  En4
 BYTE   W06
 BYTE   Cn2
 BYTE   N05  Cn3
 BYTE   W06
 BYTE   Cs3
 BYTE   N05  Cs4
 BYTE   W06
//  #01 //008   ----------------------------------------
Label_015FA639:
 BYTE   N05  An2  v120
 BYTE   N05  Dn3
 BYTE   W12
 BYTE   Fn3
 BYTE   N05  An3
 BYTE   W12
 BYTE   En3
 BYTE   N05  Gn3
 BYTE   W06
 BYTE   Fn3
 BYTE   N05  An3
 BYTE   W12
 BYTE   Cn3
 BYTE   N05  En3
 BYTE   W12
 BYTE   Dn3
 BYTE   N05  Fn3
 BYTE   W12
 BYTE   N05
 BYTE   N05  An3
 BYTE   W06
 BYTE   En3
 BYTE   N05  Gn3
 BYTE   W06
 BYTE   Dn3
 BYTE   N05  Fn3
 BYTE   W06
 BYTE   Cn3
 BYTE   N05  En3
 BYTE   W06
 BYTE   An2
 BYTE   N05  Dn3
 BYTE   W06
 BYTE   PEND 
//  #01 //009   ----------------------------------------
Label_015FA668:
 BYTE   W06
 BYTE   N05  An2  v120
 BYTE   N05  Dn3
 BYTE   W06
 BYTE   Fn3
 BYTE   N05  An3
 BYTE   W12
 BYTE   En3
 BYTE   N05  Gn3
 BYTE   W06
 BYTE   Fn3
 BYTE   N05  An3
 BYTE   W12
 BYTE   Cn3
 BYTE   N05  En3
 BYTE   W12
 BYTE   Dn3
 BYTE   N05  Fn3
 BYTE   W12
 BYTE   N05
 BYTE   N05  An3
 BYTE   W06
 BYTE   An2
 BYTE   N05  Cn3
 BYTE   W12
 BYTE   An2
 BYTE   N05  Cs3
 BYTE   W12
 BYTE   PEND 
//  #01 //010   ----------------------------------------
 BYTE   PATT
  POIN2 Label_015FA639
//  #01 //011   ----------------------------------------
 BYTE   PATT
  POIN2 Label_015FA668
//  #01 //012   ----------------------------------------
 BYTE   PATT
  POIN2 Label_015FA639
//  #01 //013   ----------------------------------------
 BYTE   PATT
  POIN2 Label_015FA668
//  #01 //014   ----------------------------------------
 BYTE   PATT
  POIN2 Label_015FA639
//  #01 //015   ----------------------------------------
 BYTE   W06
 BYTE   N05  An2  v120
 BYTE   N05  Dn3
 BYTE   W06
 BYTE   Fn3
 BYTE   N05  An3
 BYTE   W12
 BYTE   En3
 BYTE   N05  Gn3
 BYTE   W06
 BYTE   Fn3
 BYTE   N05  An3
 BYTE   W12
 BYTE   Gn3
 BYTE   N05  Cn4
 BYTE   W12
 BYTE   An3
 BYTE   N05  Dn4
 BYTE   W12
 BYTE   Cn4
 BYTE   N05  Fn4
 BYTE   W06
 BYTE   Cn4
 BYTE   N05  En4
 BYTE   W06
 BYTE   An3
 BYTE   N05  Dn4
 BYTE   W06
 BYTE   Gn3
 BYTE   N05  Cn4
 BYTE   W06
 BYTE   N04  Gn3
 BYTE   N04  Cn4
 BYTE   W06
//  #01 //016   ----------------------------------------
Label_015FA6D9:
 BYTE   N10  Fn2  v120
 BYTE   N10  An2
 BYTE   W12
 BYTE   Dn3
 BYTE   N10  Fn3
 BYTE   W12
 BYTE   N04  Cn3
 BYTE   N04  En3
 BYTE   W06
 BYTE   Dn3
 BYTE   N04  Fn3
 BYTE   W06
 BYTE   N10  Cn3
 BYTE   N10  En3
 BYTE   W12
 BYTE   BEND   c_v-11
 BYTE   N10
 BYTE   N10  Gn3
 BYTE   W01
 BYTE   BEND   c_v-12
 BYTE   W01
 BYTE   BEND   c_v-8
 BYTE   W01
 BYTE   BEND   c_v-3
 BYTE   W01
 BYTE   BEND   c_v+0
 BYTE   W08
 BYTE   N10  Dn3
 BYTE   N10  Fn3
 BYTE   W12
 BYTE   N04  Cn3
 BYTE   N04  En3
 BYTE   W06
 BYTE   Dn3
 BYTE   N04  Fn3
 BYTE   W06
 BYTE   Cn3
 BYTE   N04  En3
 BYTE   W06
 BYTE   Gn2
 BYTE   N04  Cn3
 BYTE   W06
 BYTE   PEND 
//  #01 //017   ----------------------------------------
Label_015FA717:
 BYTE   N10  An2  v120
 BYTE   N10  Dn3
 BYTE   W12
 BYTE   BEND   c_v-11
 BYTE   N10  Fn3
 BYTE   N10  An3
 BYTE   W01
 BYTE   BEND   c_v-12
 BYTE   W01
 BYTE   BEND   c_v-8
 BYTE   W01
 BYTE   BEND   c_v-3
 BYTE   W01
 BYTE   BEND   c_v+0
 BYTE   W02
 BYTE   BEND   c_v+0
 BYTE   W06
 BYTE   N04  En3
 BYTE   N04  Gn3
 BYTE   W06
 BYTE   Fn3
 BYTE   N04  An3
 BYTE   W06
 BYTE   En3
 BYTE   N04  Gn3
 BYTE   W06
 BYTE   Fn3
 BYTE   N04  An3
 BYTE   W06
 BYTE   N09
 BYTE   N09  Cn4
 BYTE   W12
 BYTE   Fn3
 BYTE   N09  An3
 BYTE   W12
 BYTE   En3
 BYTE   N09  Gn3
 BYTE   W12
 BYTE   Fn3
 BYTE   N09  An3
 BYTE   W12
 BYTE   PEND 
//  #01 //018   ----------------------------------------
Label_015FA751:
 BYTE   N10  Fn2  v120
 BYTE   N10  An2
 BYTE   W12
 BYTE   Dn3
 BYTE   N10  Fn3
 BYTE   W12
 BYTE   N04  Cn3
 BYTE   N04  En3
 BYTE   W06
 BYTE   Dn3
 BYTE   N04  Fn3
 BYTE   W06
 BYTE   N10  Cn3
 BYTE   N10  En3
 BYTE   W12
 BYTE   BEND   c_v-11
 BYTE   N10
 BYTE   N10  Gn3
 BYTE   W01
 BYTE   BEND   c_v-12
 BYTE   W01
 BYTE   BEND   c_v-8
 BYTE   W01
 BYTE   BEND   c_v-3
 BYTE   W01
 BYTE   BEND   c_v+0
 BYTE   W02
 BYTE   BEND   c_v+0
 BYTE   W06
 BYTE   N10  Dn3
 BYTE   N10  Fn3
 BYTE   W12
 BYTE   N04  Cn3
 BYTE   N04  En3
 BYTE   W06
 BYTE   Dn3
 BYTE   N04  Fn3
 BYTE   W06
 BYTE   Cn3
 BYTE   N04  En3
 BYTE   W06
 BYTE   Gn2
 BYTE   N04  Cn3
 BYTE   W06
 BYTE   PEND 
//  #01 //019   ----------------------------------------
Label_015FA791:
 BYTE   N10  An2  v120
 BYTE   N10  Dn3
 BYTE   W12
 BYTE   BEND   c_v-11
 BYTE   N10  Fn3
 BYTE   N10  An3
 BYTE   W01
 BYTE   BEND   c_v-12
 BYTE   W01
 BYTE   BEND   c_v-8
 BYTE   W01
 BYTE   BEND   c_v-3
 BYTE   W01
 BYTE   BEND   c_v+0
 BYTE   W02
 BYTE   BEND   c_v+0
 BYTE   W06
 BYTE   N04  En3
 BYTE   N04  Gn3
 BYTE   W06
 BYTE   Fn3
 BYTE   N04  An3
 BYTE   W06
 BYTE   En3
 BYTE   N04  Gn3
 BYTE   W06
 BYTE   Fn3
 BYTE   N04  An3
 BYTE   W06
 BYTE   BEND   c_v-11
 BYTE   N09
 BYTE   N09  Cs4
 BYTE   W01
 BYTE   BEND   c_v-12
 BYTE   W01
 BYTE   BEND   c_v-8
 BYTE   W01
 BYTE   BEND   c_v-3
 BYTE   W01
 BYTE   BEND   c_v+0
 BYTE   W02
 BYTE   BEND   c_v+0
 BYTE   W06
 BYTE   N09  Fn3
 BYTE   N09  An3
 BYTE   W12
 BYTE   En3
 BYTE   N09  Gn3
 BYTE   W12
 BYTE   Fn3
 BYTE   N09  An3
 BYTE   W12
 BYTE   PEND 
//  #01 //020   ----------------------------------------
 BYTE   N10  Fn2
 BYTE   N10  An2
 BYTE   W12
 BYTE   Dn3
 BYTE   N10  Fn3
 BYTE   W12
 BYTE   N04  Cn3
 BYTE   N04  En3
 BYTE   W06
 BYTE   Dn3
 BYTE   N04  Fn3
 BYTE   W06
 BYTE   N10  Cn3
 BYTE   N10  En3
 BYTE   W12
 BYTE   BEND   c_v-11
 BYTE   N10
 BYTE   N10  Gn3
 BYTE   W01
 BYTE   BEND   c_v-12
 BYTE   W01
 BYTE   BEND   c_v-8
 BYTE   W01
 BYTE   BEND   c_v-3
 BYTE   W01
 BYTE   BEND   c_v+0
 BYTE   W08
 BYTE   N10  Dn3
 BYTE   N10  Fn3
 BYTE   W12
 BYTE   N04  Cn3
 BYTE   N04  En3
 BYTE   W06
 BYTE   Dn3
 BYTE   N04  Fn3
 BYTE   W06
 BYTE   Cn3
 BYTE   N04  En3
 BYTE   W06
 BYTE   Cn2
 BYTE   N04  Gn2
 BYTE   W06
//  #01 //021   ----------------------------------------
Label_015FA815:
 BYTE   N10  An2  v120
 BYTE   N10  Dn3
 BYTE   W12
 BYTE   BEND   c_v-11
 BYTE   N10  Fn3
 BYTE   N10  An3
 BYTE   W01
 BYTE   BEND   c_v-12
 BYTE   W01
 BYTE   BEND   c_v-8
 BYTE   W01
 BYTE   BEND   c_v-3
 BYTE   W01
 BYTE   BEND   c_v+0
 BYTE   W02
 BYTE   BEND   c_v+0
 BYTE   W06
 BYTE   N04  En3
 BYTE   N04  Gn3
 BYTE   W06
 BYTE   Fn3
 BYTE   N04  An3
 BYTE   W06
 BYTE   En3
 BYTE   N04  Gn3
 BYTE   W06
 BYTE   Fn3
 BYTE   N04  An3
 BYTE   W06
 BYTE   N12
 BYTE   N12  Cn4
 BYTE   W12
 BYTE   N04  Fn3
 BYTE   N04  An3
 BYTE   W04
 BYTE   N04
 BYTE   N04  Cn4
 BYTE   W04
 BYTE   Fn3
 BYTE   N04  An3
 BYTE   W04
 BYTE   N10  Cn3
 BYTE   N10  Fn3
 BYTE   W12
 BYTE   Cn3
 BYTE   N10  Fs3
 BYTE   W12
 BYTE   PEND 
//  #01 //022   ----------------------------------------
 BYTE   BEND   c_v-11
 BYTE   N10  Dn3
 BYTE   N10  Gn3
 BYTE   W01
 BYTE   BEND   c_v-12
 BYTE   W01
 BYTE   BEND   c_v-8
 BYTE   W01
 BYTE   BEND   c_v-3
 BYTE   W01
 BYTE   BEND   c_v+0
 BYTE   W02
 BYTE   BEND   c_v+0
 BYTE   W06
 BYTE   N04
 BYTE   N04  As3
 BYTE   W06
 BYTE   Dn3
 BYTE   N04  Gn3
 BYTE   W06
 BYTE   N05
 BYTE   N05  As3
 BYTE   W12
 BYTE   N10  Dn3
 BYTE   N10  Gn3
 BYTE   W12
 BYTE   BEND   c_v-11
 BYTE   N10  En3
 BYTE   N10  An3
 BYTE   W01
 BYTE   BEND   c_v-12
 BYTE   W01
 BYTE   BEND   c_v-8
 BYTE   W01
 BYTE   BEND   c_v-3
 BYTE   W01
 BYTE   BEND   c_v+0
 BYTE   W02
 BYTE   BEND   c_v+0
 BYTE   W06
 BYTE   N04  An2
 BYTE   N04  Cn3
 BYTE   W06
 BYTE   En3
 BYTE   N04  An3
 BYTE   W06
 BYTE   N05  An2
 BYTE   N05  Cn3
 BYTE   W12
 BYTE   N10  En3
 BYTE   N10  An3
 BYTE   W12
//  #01 //023   ----------------------------------------
 BYTE   BEND   c_v-11
 BYTE   N09  Fn3
 BYTE   N09  As3
 BYTE   W01
 BYTE   BEND   c_v-12
 BYTE   W01
 BYTE   BEND   c_v-8
 BYTE   W01
 BYTE   BEND   c_v-3
 BYTE   W01
 BYTE   BEND   c_v+0
 BYTE   W02
 BYTE   BEND   c_v+0
 BYTE   W06
 BYTE   N04  Fn3
 BYTE   N04  As3
 BYTE   W06
 BYTE   Fn3
 BYTE   N04  As3
 BYTE   W06
 BYTE   N05  Fn3
 BYTE   N05  As3
 BYTE   W12
 BYTE   Fs3
 BYTE   N05  Bn3
 BYTE   W12
 BYTE   BEND   c_v-11
 BYTE   N42  Cn3
 BYTE   N42  Gn3
 BYTE   N42  Cn4
 BYTE   W01
 BYTE   BEND   c_v-12
 BYTE   W01
 BYTE   BEND   c_v-8
 BYTE   W01
 BYTE   BEND   c_v-3
 BYTE   W01
 BYTE   BEND   c_v+0
 BYTE   W02
 BYTE   BEND   c_v+0
 BYTE   W42
//  #01 //024   ----------------------------------------
 BYTE   PATT
  POIN2 Label_015FA6D9
//  #01 //025   ----------------------------------------
 BYTE   PATT
  POIN2 Label_015FA717
//  #01 //026   ----------------------------------------
 BYTE   PATT
  POIN2 Label_015FA751
//  #01 //027   ----------------------------------------
 BYTE   PATT
  POIN2 Label_015FA791
//  #01 //028   ----------------------------------------
 BYTE   PATT
  POIN2 Label_015FA6D9
//  #01 //029   ----------------------------------------
 BYTE   PATT
  POIN2 Label_015FA815
//  #01 //030   ----------------------------------------
 BYTE   BEND   c_v-11
 BYTE   N10  Dn3  v120
 BYTE   N10  Gn3
 BYTE   W01
 BYTE   BEND   c_v-12
 BYTE   W01
 BYTE   BEND   c_v-8
 BYTE   W01
 BYTE   BEND   c_v-3
 BYTE   W01
 BYTE   BEND   c_v+0
 BYTE   W02
 BYTE   BEND   c_v+0
 BYTE   W06
 BYTE   N04  Gn2
 BYTE   N04  As2
 BYTE   W06
 BYTE   Dn3
 BYTE   N04  Gn3
 BYTE   W06
 BYTE   N05  Gn2
 BYTE   N05  As2
 BYTE   W12
 BYTE   N10  Dn3
 BYTE   N10  Gn3
 BYTE   W12
 BYTE   BEND   c_v-11
 BYTE   N12  Fn3
 BYTE   N12  An3
 BYTE   W01
 BYTE   BEND   c_v-12
 BYTE   W01
 BYTE   BEND   c_v-8
 BYTE   W01
 BYTE   BEND   c_v-3
 BYTE   W01
 BYTE   BEND   c_v+0
 BYTE   W02
 BYTE   BEND   c_v+0
 BYTE   W06
 BYTE   N04  En3
 BYTE   N04  Gn3
 BYTE   W04
 BYTE   Fn3
 BYTE   N04  An3
 BYTE   W04
 BYTE   En3
 BYTE   N04  Gn3
 BYTE   W04
 BYTE   N10  Dn3
 BYTE   N10  Fn3
 BYTE   W12
 BYTE   Cn3
 BYTE   N10  En3
 BYTE   W12
//  #01 //031   ----------------------------------------
 BYTE   BEND   c_v-11
 BYTE   N96  Dn2
 BYTE   N96  An2
 BYTE   N96  Dn3
 BYTE   W01
 BYTE   BEND   c_v-12
 BYTE   W01
 BYTE   BEND   c_v-8
 BYTE   W01
 BYTE   BEND   c_v-3
 BYTE   W01
 BYTE   BEND   c_v+0
 BYTE   W02
 BYTE   BEND   c_v+0
 BYTE   W90
//  #01 //032   ----------------------------------------
Label_015FA959:
 BYTE   N09  An2  v120
 BYTE   W12
 BYTE   Fn2
 BYTE   N09  Fn3
 BYTE   W12
 BYTE   N03  En2
 BYTE   N03  En3
 BYTE   W06
 BYTE   Fn2
 BYTE   N03  Fn3
 BYTE   W06
 BYTE   N09  En2
 BYTE   N09  En3
 BYTE   W12
 BYTE   Gn2
 BYTE   N09  Gn3
 BYTE   W12
 BYTE   Fn2
 BYTE   N09  Fn3
 BYTE   W12
 BYTE   N03  En2
 BYTE   N03  En3
 BYTE   W06
 BYTE   Fn2
 BYTE   N03  Fn3
 BYTE   W06
 BYTE   En2
 BYTE   N03  En3
 BYTE   W06
 BYTE   Cn2
 BYTE   N03  Cn3
 BYTE   W06
 BYTE   PEND 
//  #01 //033   ----------------------------------------
 BYTE   N09  Dn2
 BYTE   N09  Dn3
 BYTE   W12
 BYTE   An2
 BYTE   N09  An3
 BYTE   W12
 BYTE   N03  Gn2
 BYTE   N03  Gn3
 BYTE   W06
 BYTE   An2
 BYTE   N03  An3
 BYTE   W06
 BYTE   Gn2
 BYTE   N03  Gn3
 BYTE   W06
 BYTE   An2
 BYTE   N03  An3
 BYTE   W06
 BYTE   N09  Cn3
 BYTE   N09  Cn4
 BYTE   W12
 BYTE   An2
 BYTE   N09  An3
 BYTE   W12
 BYTE   Gn2
 BYTE   N09  Gn3
 BYTE   W12
 BYTE   An2
 BYTE   N09  An3
 BYTE   W12
//  #01 //034   ----------------------------------------
 BYTE   PATT
  POIN2 Label_015FA959
//  #01 //035   ----------------------------------------
 BYTE   N09  Dn2  v120
 BYTE   N09  Dn3
 BYTE   W12
 BYTE   An2
 BYTE   N09  An3
 BYTE   W12
 BYTE   N03  Gn2
 BYTE   N03  Gn3
 BYTE   W06
 BYTE   An2
 BYTE   N03  An3
 BYTE   W06
 BYTE   Gn2
 BYTE   N03  Gn3
 BYTE   W06
 BYTE   An2
 BYTE   N03  An3
 BYTE   W06
 BYTE   N09  Cn3
 BYTE   N09  Cn4
 BYTE   W12
 BYTE   N03  An2
 BYTE   N03  An3
 BYTE   W04
 BYTE   Cn3
 BYTE   N03  Cn4
 BYTE   W04
 BYTE   An2
 BYTE   N03  An3
 BYTE   W04
 BYTE   N09  Gn2
 BYTE   N09  Gn3
 BYTE   W12
 BYTE   En2
 BYTE   N09  En3
 BYTE   W12
//  #01 //036   ----------------------------------------
 BYTE   Fn2
 BYTE   N09  Fn3
 BYTE   W12
 BYTE   N03  En2
 BYTE   N03  En3
 BYTE   W06
 BYTE   Fn2
 BYTE   N03  Fn3
 BYTE   W06
 BYTE   N09  En2
 BYTE   N09  En3
 BYTE   W12
 BYTE   Cn2
 BYTE   N09  Cn3
 BYTE   W12
 BYTE   N03  Dn2
 BYTE   N03  Dn3
 BYTE   W06
 BYTE   An2
 BYTE   W06
 BYTE   N09  Cn2
 BYTE   N09  Cn3
 BYTE   W12
 BYTE   Gn2
 BYTE   W12
 BYTE   En2
 BYTE   W12
//  #01 //037   ----------------------------------------
 BYTE   Dn1
 BYTE   N09  Dn2
 BYTE   W12
 BYTE   En1
 BYTE   N09  En2
 BYTE   W12
 BYTE   Fn1
 BYTE   N09  Fn2
 BYTE   W12
 BYTE   Gn1
 BYTE   N09  Gn2
 BYTE   W12
 BYTE   An1
 BYTE   N09  An2
 BYTE   W12
 BYTE   Cs2
 BYTE   N09  Cs3
 BYTE   W12
 BYTE   Dn2
 BYTE   N09  Dn3
 BYTE   W12
 BYTE   En2
 BYTE   N09  En3
 BYTE   W12
//  #01 //038   ----------------------------------------
 BYTE   Cs2
 BYTE   N09  Cs3
 BYTE   W12
 BYTE   An2
 BYTE   N09  An3
 BYTE   W12
 BYTE   N03  Gn2
 BYTE   N03  Gn3
 BYTE   W06
 BYTE   An2
 BYTE   N03  An3
 BYTE   W06
 BYTE   N09  Gn2
 BYTE   N09  Gn3
 BYTE   W12
 BYTE   Cs3
 BYTE   N09  Cs4
 BYTE   W12
 BYTE   An2
 BYTE   N09  An3
 BYTE   W12
 BYTE   N03  Gn2
 BYTE   N03  Gn3
 BYTE   W06
 BYTE   An2
 BYTE   N03  An3
 BYTE   W06
 BYTE   Gn2
 BYTE   N03  Gn3
 BYTE   W06
 BYTE   En2
 BYTE   N03  En3
 BYTE   W06
//  #01 //039   ----------------------------------------
 BYTE   N09  Cs2
 BYTE   N09  Cs3
 BYTE   W12
 BYTE   N09
 BYTE   N09  Cs4
 BYTE   W12
 BYTE   N03  An2
 BYTE   N03  An3
 BYTE   W06
 BYTE   Cs3
 BYTE   N03  Cs4
 BYTE   W06
 BYTE   An2
 BYTE   N03  An3
 BYTE   W06
 BYTE   Cs3
 BYTE   N03  Cs4
 BYTE   W06
 BYTE   N09  En3
 BYTE   N09  En4
 BYTE   W12
 BYTE   N03  Cs3
 BYTE   N03  Cs4
 BYTE   W04
 BYTE   En3
 BYTE   N03  En4
 BYTE   W04
 BYTE   Cs3
 BYTE   N03  Cs4
 BYTE   W04
 BYTE   N09  Fn2
 BYTE   N09  Fn3
 BYTE   W12
 BYTE   En2
 BYTE   N09  En3
 BYTE   W12
//  #01 //040   ----------------------------------------
Label_015FAA99:
 BYTE   N09  Fn2  v120
 BYTE   N09  An2
 BYTE   W12
 BYTE   Dn3
 BYTE   N09  Fn3
 BYTE   W12
 BYTE   N03  Cn3
 BYTE   N03  En3
 BYTE   W06
 BYTE   Dn3
 BYTE   N03  Fn3
 BYTE   W06
 BYTE   N09  Cn3
 BYTE   N09  En3
 BYTE   W12
 BYTE   N09
 BYTE   N09  Gn3
 BYTE   W12
 BYTE   Dn3
 BYTE   N09  Fn3
 BYTE   W12
 BYTE   N03  Cn3
 BYTE   N03  En3
 BYTE   W06
 BYTE   Dn3
 BYTE   N03  Fn3
 BYTE   W06
 BYTE   Cn3
 BYTE   N03  En3
 BYTE   W06
 BYTE   Gn2
 BYTE   N03  Cn3
 BYTE   W06
 BYTE   PEND 
//  #01 //041   ----------------------------------------
 BYTE   N09  An2
 BYTE   N09  Dn3
 BYTE   W12
 BYTE   Fn3
 BYTE   N09  An3
 BYTE   W12
 BYTE   N03  En3
 BYTE   N03  Gn3
 BYTE   W06
 BYTE   Fn3
 BYTE   N03  An3
 BYTE   W06
 BYTE   En3
 BYTE   N03  Gn3
 BYTE   W06
 BYTE   Fn3
 BYTE   N03  An3
 BYTE   W06
 BYTE   N09
 BYTE   N09  Cn4
 BYTE   W12
 BYTE   Fn3
 BYTE   N09  An3
 BYTE   W12
 BYTE   En3
 BYTE   N09  Gn3
 BYTE   W12
 BYTE   Fn3
 BYTE   N09  An3
 BYTE   W12
//  #01 //042   ----------------------------------------
 BYTE   PATT
  POIN2 Label_015FAA99
//  #01 //043   ----------------------------------------
 BYTE   N09  An2  v120
 BYTE   N09  Dn3
 BYTE   W12
 BYTE   Fn3
 BYTE   N09  An3
 BYTE   W12
 BYTE   N03  En3
 BYTE   N03  Gn3
 BYTE   W06
 BYTE   Fn3
 BYTE   N03  An3
 BYTE   W06
 BYTE   En3
 BYTE   N03  Gn3
 BYTE   W06
 BYTE   Fn3
 BYTE   N03  An3
 BYTE   W06
 BYTE   N09
 BYTE   N09  Cn4
 BYTE   W12
 BYTE   N03  Fn3
 BYTE   N03  An3
 BYTE   W04
 BYTE   N03
 BYTE   N03  Cn4
 BYTE   W04
 BYTE   Fn3
 BYTE   N03  An3
 BYTE   W04
 BYTE   N09  En3
 BYTE   N09  Gn3
 BYTE   W12
 BYTE   Cn3
 BYTE   N09  En3
 BYTE   W12
//  #01 //044   ----------------------------------------
 BYTE   Dn3
 BYTE   N09  Fn3
 BYTE   W12
 BYTE   N03  Cn3
 BYTE   N03  En3
 BYTE   W06
 BYTE   Dn3
 BYTE   N03  Fn3
 BYTE   W06
 BYTE   N09  Cn3
 BYTE   N09  En3
 BYTE   W12
 BYTE   Gn2
 BYTE   N09  Cn3
 BYTE   W12
 BYTE   N03  An2
 BYTE   N03  Dn3
 BYTE   W06
 BYTE   En2
 BYTE   N03  An2
 BYTE   W06
 BYTE   N09  Gn2
 BYTE   N09  Cn3
 BYTE   W12
 BYTE   En2
 BYTE   N09  Gn2
 BYTE   W12
 BYTE   Cn2
 BYTE   N09  En2
 BYTE   W12
//  #01 //045   ----------------------------------------
 BYTE   Dn1
 BYTE   N09  Dn2
 BYTE   W12
 BYTE   En1
 BYTE   N09  En2
 BYTE   W12
 BYTE   Cs2
 BYTE   N09  Fn2
 BYTE   W12
 BYTE   En2
 BYTE   N09  Gn2
 BYTE   W12
 BYTE   En2
 BYTE   N09  An2
 BYTE   W12
 BYTE   Gn2
 BYTE   N09  Cs3
 BYTE   W12
 BYTE   An2
 BYTE   N09  Dn3
 BYTE   W12
 BYTE   Gs2
 BYTE   N09  En3
 BYTE   W12
//  #01 //046   ----------------------------------------
 BYTE   An2
 BYTE   N09  Cs3
 BYTE   W12
 BYTE   N09
 BYTE   N09  An3
 BYTE   W12
 BYTE   N03  An2
 BYTE   N03  Gn3
 BYTE   W06
 BYTE   Cs3
 BYTE   N03  An3
 BYTE   W06
 BYTE   N09  An2
 BYTE   N09  Gn3
 BYTE   W12
 BYTE   An3
 BYTE   N09  Cs4
 BYTE   W12
 BYTE   Cs3
 BYTE   N09  An3
 BYTE   W12
 BYTE   N03  An2
 BYTE   N03  Gn3
 BYTE   W06
 BYTE   Cs3
 BYTE   N03  An3
 BYTE   W06
 BYTE   An2
 BYTE   N03  Gn3
 BYTE   W06
 BYTE   Cs3
 BYTE   N03  En3
 BYTE   W06
//  #01 //047   ----------------------------------------
 BYTE   N09  An2
 BYTE   N09  Cs3
 BYTE   W12
 BYTE   An3
 BYTE   N09  Cs4
 BYTE   W12
 BYTE   N03  En3
 BYTE   N03  An3
 BYTE   W06
 BYTE   N03
 BYTE   N03  Cs4
 BYTE   W06
 BYTE   En3
 BYTE   N03  An3
 BYTE   W06
 BYTE   N03
 BYTE   N03  Cs4
 BYTE   W06
 BYTE   N09
 BYTE   N09  En4
 BYTE   W12
 BYTE   An2
 BYTE   N09  An3
 BYTE   N09  An4
 BYTE   W12
 BYTE   BEND   c_v-9
 BYTE   TIE  An2
 BYTE   TIE  An3
 BYTE   TIE  An4
 BYTE   W05
 BYTE   BEND   c_v-2
 BYTE   W01
 BYTE   BEND   c_v-1
 BYTE   W01
 BYTE   BEND   c_v+0
 BYTE   W17
//  #01 //048   ----------------------------------------
 BYTE   W96
//  #01 //049   ----------------------------------------
 BYTE   EOT
 BYTE   An2  v069
 BYTE   An4
 BYTE   W96
//  #01 //050   ----------------------------------------
 BYTE   W96
//  #01 //051   ----------------------------------------
 BYTE   W96
//  #01 //052   ----------------------------------------
 BYTE   W05
 BYTE   BEND   c_v+0
 BYTE   W42
 BYTE   W01
 BYTE   BEND   c_v-11
 BYTE   W01
 BYTE   BEND   c_v-12
 BYTE   W01
 BYTE   BEND   c_v-8
 BYTE   W01
 BYTE   BEND   c_v-3
 BYTE   W01
 BYTE   BEND   c_v+0
 BYTE   W44
//  #01 //053   ----------------------------------------
Label_015FABF5:
 BYTE   W12
 BYTE   BEND   c_v-11
 BYTE   W01
 BYTE   BEND   c_v-12
 BYTE   W01
 BYTE   BEND   c_v-8
 BYTE   W01
 BYTE   BEND   c_v-3
 BYTE   W01
 BYTE   BEND   c_v+0
 BYTE   W02
 BYTE   BEND   c_v+0
 BYTE   W78
 BYTE   PEND 
//  #01 //054   ----------------------------------------
Label_015FAC04:
 BYTE   BEND   c_v-11
 BYTE   W01
 BYTE   BEND   c_v-12
 BYTE   W01
 BYTE   BEND   c_v-8
 BYTE   W01
 BYTE   BEND   c_v-3
 BYTE   W01
 BYTE   BEND   c_v+0
 BYTE   W02
 BYTE   BEND   c_v+0
 BYTE   W42
 BYTE   BEND   c_v-11
 BYTE   W01
 BYTE   BEND   c_v-12
 BYTE   W01
 BYTE   BEND   c_v-8
 BYTE   W01
 BYTE   BEND   c_v-3
 BYTE   W01
 BYTE   BEND   c_v+0
 BYTE   W02
 BYTE   BEND   c_v+0
 BYTE   W42
 BYTE   PEND 
//  #01 //055   ----------------------------------------
 BYTE   PATT
  POIN2 Label_015FAC04
//  #01 //056   ----------------------------------------
Label_015FAC23:
 BYTE   W48
 BYTE   BEND   c_v-11
 BYTE   W01
 BYTE   BEND   c_v-12
 BYTE   W01
 BYTE   BEND   c_v-8
 BYTE   W01
 BYTE   BEND   c_v-3
 BYTE   W01
 BYTE   BEND   c_v+0
 BYTE   W44
 BYTE   PEND 
//  #01 //057   ----------------------------------------
 BYTE   PATT
  POIN2 Label_015FABF5
//  #01 //058   ----------------------------------------
 BYTE   W48
 BYTE   BEND   c_v-11
 BYTE   W01
 BYTE   BEND   c_v-12
 BYTE   W01
 BYTE   BEND   c_v-8
 BYTE   W01
 BYTE   BEND   c_v-3
 BYTE   W01
 BYTE   BEND   c_v+0
 BYTE   W02
 BYTE   BEND   c_v+0
 BYTE   W42
//  #01 //059   ----------------------------------------
 BYTE   W12
 BYTE   BEND   c_v-11
 BYTE   W01
 BYTE   BEND   c_v-12
 BYTE   W01
 BYTE   BEND   c_v-8
 BYTE   W01
 BYTE   BEND   c_v-3
 BYTE   W01
 BYTE   BEND   c_v+0
 BYTE   W02
 BYTE   BEND   c_v+0
 BYTE   W30
 BYTE   BEND   c_v-11
 BYTE   W01
 BYTE   BEND   c_v-12
 BYTE   W01
 BYTE   BEND   c_v-8
 BYTE   W01
 BYTE   BEND   c_v-3
 BYTE   W01
 BYTE   BEND   c_v+0
 BYTE   W02
 BYTE   BEND   c_v+0
 BYTE   W42
//  #01 //060   ----------------------------------------
 BYTE   PATT
  POIN2 Label_015FAC23
//  #01 //061   ----------------------------------------
 BYTE   PATT
  POIN2 Label_015FABF5
//  #01 //062   ----------------------------------------
 BYTE   PATT
  POIN2 Label_015FAC04
//  #01 //063   ----------------------------------------
 BYTE   PATT
  POIN2 Label_015FAC04
//  #01 //064   ----------------------------------------
Label_015FAC70:
 BYTE   N10  Fs2  v120
 BYTE   N10  As2
 BYTE   W12
 BYTE   Ds3
 BYTE   N10  Fs3
 BYTE   W12
 BYTE   N04  Cs3
 BYTE   N04  Fn3
 BYTE   W06
 BYTE   Ds3
 BYTE   N04  Fs3
 BYTE   W06
 BYTE   N10  Cs3
 BYTE   N10  Fn3
 BYTE   W12
 BYTE   BEND   c_v-11
 BYTE   N10
 BYTE   N10  Gs3
 BYTE   W01
 BYTE   BEND   c_v-12
 BYTE   W01
 BYTE   BEND   c_v-8
 BYTE   W01
 BYTE   BEND   c_v-3
 BYTE   W01
 BYTE   BEND   c_v+0
 BYTE   W08
 BYTE   N10  Ds3
 BYTE   N10  Fs3
 BYTE   W12
 BYTE   N04  Cs3
 BYTE   N04  Fn3
 BYTE   W06
 BYTE   Ds3
 BYTE   N04  Fs3
 BYTE   W06
 BYTE   Cs3
 BYTE   N04  Fn3
 BYTE   W06
 BYTE   Gs2
 BYTE   N04  Cs3
 BYTE   W06
 BYTE   PEND 
//  #01 //065   ----------------------------------------
Label_015FACAE:
 BYTE   N10  As2  v120
 BYTE   N10  Ds3
 BYTE   W12
 BYTE   BEND   c_v-11
 BYTE   N10  Fs3
 BYTE   N10  As3
 BYTE   W01
 BYTE   BEND   c_v-12
 BYTE   W01
 BYTE   BEND   c_v-8
 BYTE   W01
 BYTE   BEND   c_v-3
 BYTE   W01
 BYTE   BEND   c_v+0
 BYTE   W02
 BYTE   BEND   c_v+0
 BYTE   W06
 BYTE   N04  Fn3
 BYTE   N04  Gs3
 BYTE   W06
 BYTE   Fs3
 BYTE   N04  As3
 BYTE   W06
 BYTE   Fn3
 BYTE   N04  Gs3
 BYTE   W06
 BYTE   Fs3
 BYTE   N04  As3
 BYTE   W06
 BYTE   N09
 BYTE   N09  Cs4
 BYTE   W12
 BYTE   Fs3
 BYTE   N09  As3
 BYTE   W12
 BYTE   Fn3
 BYTE   N09  Gs3
 BYTE   W12
 BYTE   Fs3
 BYTE   N09  As3
 BYTE   W12
 BYTE   PEND 
//  #01 //066   ----------------------------------------
Label_015FACE8:
 BYTE   N10  Fs2  v120
 BYTE   N10  As2
 BYTE   W12
 BYTE   Ds3
 BYTE   N10  Fs3
 BYTE   W12
 BYTE   N04  Cs3
 BYTE   N04  Fn3
 BYTE   W06
 BYTE   Ds3
 BYTE   N04  Fs3
 BYTE   W06
 BYTE   N10  Cs3
 BYTE   N10  Fn3
 BYTE   W12
 BYTE   BEND   c_v-11
 BYTE   N10
 BYTE   N10  Gs3
 BYTE   W01
 BYTE   BEND   c_v-12
 BYTE   W01
 BYTE   BEND   c_v-8
 BYTE   W01
 BYTE   BEND   c_v-3
 BYTE   W01
 BYTE   BEND   c_v+0
 BYTE   W02
 BYTE   BEND   c_v+0
 BYTE   W06
 BYTE   N10  Ds3
 BYTE   N10  Fs3
 BYTE   W12
 BYTE   N04  Cs3
 BYTE   N04  Fn3
 BYTE   W06
 BYTE   Ds3
 BYTE   N04  Fs3
 BYTE   W06
 BYTE   Cs3
 BYTE   N04  Fn3
 BYTE   W06
 BYTE   Gs2
 BYTE   N04  Cs3
 BYTE   W06
 BYTE   PEND 
//  #01 //067   ----------------------------------------
 BYTE   N10  As2
 BYTE   N10  Ds3
 BYTE   W12
 BYTE   BEND   c_v-11
 BYTE   N10  Fs3
 BYTE   N10  As3
 BYTE   W01
 BYTE   BEND   c_v-12
 BYTE   W01
 BYTE   BEND   c_v-8
 BYTE   W01
 BYTE   BEND   c_v-3
 BYTE   W01
 BYTE   BEND   c_v+0
 BYTE   W02
 BYTE   BEND   c_v+0
 BYTE   W06
 BYTE   N04  Fn3
 BYTE   N04  Gs3
 BYTE   W06
 BYTE   Fs3
 BYTE   N04  As3
 BYTE   W06
 BYTE   Fn3
 BYTE   N04  Gs3
 BYTE   W06
 BYTE   Fs3
 BYTE   N04  As3
 BYTE   W06
 BYTE   BEND   c_v-11
 BYTE   N09
 BYTE   N09  Dn4
 BYTE   W01
 BYTE   BEND   c_v-12
 BYTE   W01
 BYTE   BEND   c_v-8
 BYTE   W01
 BYTE   BEND   c_v-3
 BYTE   W01
 BYTE   BEND   c_v+0
 BYTE   W02
 BYTE   BEND   c_v+0
 BYTE   W06
 BYTE   N09  Fs3
 BYTE   N09  As3
 BYTE   W12
 BYTE   Fn3
 BYTE   N09  Gs3
 BYTE   W12
 BYTE   Fs3
 BYTE   N09  As3
 BYTE   W12
//  #01 //068   ----------------------------------------
 BYTE   PATT
  POIN2 Label_015FAC70
//  #01 //069   ----------------------------------------
 BYTE   N10  As2  v120
 BYTE   N10  Ds3
 BYTE   W12
 BYTE   BEND   c_v-11
 BYTE   N10  Fs3
 BYTE   N10  As3
 BYTE   W01
 BYTE   BEND   c_v-12
 BYTE   W01
 BYTE   BEND   c_v-8
 BYTE   W01
 BYTE   BEND   c_v-3
 BYTE   W01
 BYTE   BEND   c_v+0
 BYTE   W02
 BYTE   BEND   c_v+0
 BYTE   W06
 BYTE   N04  Fn3
 BYTE   N04  Gs3
 BYTE   W06
 BYTE   Fs3
 BYTE   N04  As3
 BYTE   W06
 BYTE   Fn3
 BYTE   N04  Gs3
 BYTE   W06
 BYTE   Fs3
 BYTE   N04  As3
 BYTE   W06
 BYTE   N12
 BYTE   N12  Cs4
 BYTE   W12
 BYTE   N04  Fs3
 BYTE   N04  As3
 BYTE   W04
 BYTE   N04
 BYTE   N04  Cs4
 BYTE   W04
 BYTE   Fs3
 BYTE   N04  As3
 BYTE   W04
 BYTE   N10  Cs3
 BYTE   N10  Fs3
 BYTE   W12
 BYTE   Cs3
 BYTE   N10  Gn3
 BYTE   W12
//  #01 //070   ----------------------------------------
 BYTE   BEND   c_v-11
 BYTE   N10  Ds3
 BYTE   N10  Gs3
 BYTE   W01
 BYTE   BEND   c_v-12
 BYTE   W01
 BYTE   BEND   c_v-8
 BYTE   W01
 BYTE   BEND   c_v-3
 BYTE   W01
 BYTE   BEND   c_v+0
 BYTE   W02
 BYTE   BEND   c_v+0
 BYTE   W06
 BYTE   N04  Gs2
 BYTE   N04  Bn2
 BYTE   W06
 BYTE   Ds3
 BYTE   N04  Gs3
 BYTE   W06
 BYTE   N05  Gs2
 BYTE   N05  Bn2
 BYTE   W12
 BYTE   N10  Ds3
 BYTE   N10  Gs3
 BYTE   W12
 BYTE   BEND   c_v-11
 BYTE   N10  Fn3
 BYTE   N10  As3
 BYTE   W01
 BYTE   BEND   c_v-12
 BYTE   W01
 BYTE   BEND   c_v-8
 BYTE   W01
 BYTE   BEND   c_v-3
 BYTE   W01
 BYTE   BEND   c_v+0
 BYTE   W02
 BYTE   BEND   c_v+0
 BYTE   W06
 BYTE   N04  As2
 BYTE   N04  Cs3
 BYTE   W06
 BYTE   Fn3
 BYTE   N04  As3
 BYTE   W06
 BYTE   N05  As2
 BYTE   N05  Cs3
 BYTE   W12
 BYTE   N10  Fn3
 BYTE   N10  As3
 BYTE   W12
//  #01 //071   ----------------------------------------
 BYTE   BEND   c_v-11
 BYTE   N09  Fs3
 BYTE   N09  Bn3
 BYTE   W01
 BYTE   BEND   c_v-12
 BYTE   W01
 BYTE   BEND   c_v-8
 BYTE   W01
 BYTE   BEND   c_v-3
 BYTE   W01
 BYTE   BEND   c_v+0
 BYTE   W02
 BYTE   BEND   c_v+0
 BYTE   W06
 BYTE   N04  Fs3
 BYTE   N04  Bn3
 BYTE   W06
 BYTE   Fs3
 BYTE   N04  Bn3
 BYTE   W06
 BYTE   N05  Fs3
 BYTE   N05  Bn3
 BYTE   W12
 BYTE   Gn3
 BYTE   N05  Cn4
 BYTE   W12
 BYTE   BEND   c_v-11
 BYTE   N42  Cs3
 BYTE   N42  Gs3
 BYTE   N42  Cs4
 BYTE   W01
 BYTE   BEND   c_v-12
 BYTE   W01
 BYTE   BEND   c_v-8
 BYTE   W01
 BYTE   BEND   c_v-3
 BYTE   W01
 BYTE   BEND   c_v+0
 BYTE   W02
 BYTE   BEND   c_v+0
 BYTE   W42
//  #01 //072   ----------------------------------------
 BYTE   PATT
  POIN2 Label_015FAC70
//  #01 //073   ----------------------------------------
 BYTE   PATT
  POIN2 Label_015FACAE
//  #01 //074   ----------------------------------------
 BYTE   PATT
  POIN2 Label_015FACE8
//  #01 //075   ----------------------------------------
 BYTE   N10  As2  v120
 BYTE   N10  Ds3
 BYTE   W12
 BYTE   BEND   c_v-11
 BYTE   N10  Fs3
 BYTE   N10  As3
 BYTE   W01
 BYTE   BEND   c_v-12
 BYTE   W01
 BYTE   BEND   c_v-8
 BYTE   W01
 BYTE   BEND   c_v-3
 BYTE   W01
 BYTE   BEND   c_v+0
 BYTE   W02
 BYTE   BEND   c_v+0
 BYTE   W06
 BYTE   N04  Fn3
 BYTE   N04  Gs3
 BYTE   W06
 BYTE   Fs3
 BYTE   N04  As3
 BYTE   W06
 BYTE   Fn3
 BYTE   N04  Gs3
 BYTE   W06
 BYTE   Fs3
 BYTE   N04  As3
 BYTE   W06
 BYTE   BEND   c_v-11
 BYTE   N09
 BYTE   N09  Dn4
 BYTE   W01
 BYTE   BEND   c_v-12
 BYTE   W01
 BYTE   BEND   c_v-8
 BYTE   W01
 BYTE   BEND   c_v-3
 BYTE   W01
 BYTE   BEND   c_v+0
 BYTE   W02
 BYTE   BEND   c_v+0
 BYTE   W06
 BYTE   N09  Fs3
 BYTE   N09  As3
 BYTE   W12
 BYTE   N09
 BYTE   N09  Dn4
 BYTE   W12
 BYTE   N09
 BYTE   N09  Fn4
 BYTE   W12
//  #01 //076   ----------------------------------------
 BYTE   N30  As3
 BYTE   N30  Ds4
 BYTE   W36
 BYTE   N03  As3
 BYTE   N03  Ds4
 BYTE   W06
 BYTE   As3
 BYTE   N03  Ds4
 BYTE   W04
 BYTE   BEND   c_v+0
 BYTE   W02
 BYTE   N09  As3
 BYTE   N09  Ds4
 BYTE   W12
 BYTE   N03  Gs3
 BYTE   N03  Cs4
 BYTE   W12
 BYTE   Gs3
 BYTE   N03  Cs4
 BYTE   W12
 BYTE   BEND   c_v-11
 BYTE   N21  As3
 BYTE   N21  Ds4
 BYTE   W01
 BYTE   BEND   c_v-12
 BYTE   W01
 BYTE   BEND   c_v-8
 BYTE   W01
 BYTE   BEND   c_v-3
 BYTE   W01
 BYTE   BEND   c_v+0
 BYTE   W08
//  #01 //077   ----------------------------------------
 BYTE   W09
 BYTE   BEND   c_v+0
 BYTE   W03
 BYTE   N03  As3
 BYTE   N03  Ds4
 BYTE   W06
 BYTE   As3
 BYTE   N03  Ds4
 BYTE   W06
 BYTE   N09  Gs3
 BYTE   N09  Cs4
 BYTE   W12
 BYTE   N03  As3
 BYTE   N03  Ds4
 BYTE   W06
 BYTE   As3
 BYTE   N03  Ds4
 BYTE   W06
 BYTE   As3
 BYTE   N03  Ds4
 BYTE   W06
 BYTE   Gs3
 BYTE   N03  Cs4
 BYTE   W06
 BYTE   Gs3
 BYTE   N03  Cs4
 BYTE   W06
 BYTE   Fs3
 BYTE   N03  As3
 BYTE   W06
 BYTE   N09  Cs3
 BYTE   N09  Fs3
 BYTE   W12
 BYTE   Cs3
 BYTE   N09  Gn3
 BYTE   W12
//  #01 //078   ----------------------------------------
 BYTE   BEND   c_v-11
 BYTE   N10  Ds3
 BYTE   N10  Gs3
 BYTE   W01
 BYTE   BEND   c_v-12
 BYTE   W01
 BYTE   BEND   c_v-8
 BYTE   W01
 BYTE   BEND   c_v-3
 BYTE   W01
 BYTE   BEND   c_v+0
 BYTE   W02
 BYTE   BEND   c_v+0
 BYTE   W06
 BYTE   N04  Gs2
 BYTE   N04  Bn2
 BYTE   W06
 BYTE   Ds3
 BYTE   N04  Gs3
 BYTE   W06
 BYTE   N05  Gs2
 BYTE   N05  Bn2
 BYTE   W12
 BYTE   N10  Ds3
 BYTE   N10  Gs3
 BYTE   W12
 BYTE   BEND   c_v-11
 BYTE   N12  Fs3
 BYTE   N12  As3
 BYTE   W01
 BYTE   BEND   c_v-12
 BYTE   W01
 BYTE   BEND   c_v-8
 BYTE   W01
 BYTE   BEND   c_v-3
 BYTE   W01
 BYTE   BEND   c_v+0
 BYTE   W02
 BYTE   BEND   c_v+0
 BYTE   W06
 BYTE   N03  Ds3
 BYTE   N03  Fs3
 BYTE   W06
 BYTE   Ds3
 BYTE   N03  Fs3
 BYTE   W06
 BYTE   Cs3
 BYTE   N03  Fn3
 BYTE   W12
 BYTE   Gs3
 BYTE   N03  Cs4
 BYTE   W12
//  #01 //079   ----------------------------------------
 BYTE   BEND   c_v-11
 BYTE   N96  Ds3
 BYTE   N96  As3
 BYTE   N96  Ds4
 BYTE   W01
 BYTE   BEND   c_v-12
 BYTE   W01
 BYTE   BEND   c_v-8
 BYTE   W01
 BYTE   BEND   c_v-3
 BYTE   W01
 BYTE   BEND   c_v+0
 BYTE   W02
 BYTE   BEND   c_v+0
 BYTE   W90
//  #01 //080   ----------------------------------------
 BYTE   GoTo
  POIN2 Label_015FA6D9
 BYTE   FINE

//**************** Track 2 (Midi-Chn.1) ****************//

song5F_002:
//  #02 //000   ----------------------------------------
 BYTE   KEYSH   song5F_key+0
 BYTE   VOICE   110
 BYTE   VOL   45*song5F_mvl/mxv
 BYTE   W96
//  #02 //001   ----------------------------------------
 BYTE   W96
//  #02 //002   ----------------------------------------
 BYTE   W96
//  #02 //003   ----------------------------------------
 BYTE   W96
//  #02 //004   ----------------------------------------
 BYTE   W96
//  #02 //005   ----------------------------------------
 BYTE   W96
//  #02 //006   ----------------------------------------
 BYTE   W96
//  #02 //007   ----------------------------------------
 BYTE   W96
//  #02 //008   ----------------------------------------
 BYTE   W96
//  #02 //009   ----------------------------------------
 BYTE   W96
//  #02 //010   ----------------------------------------
 BYTE   W96
//  #02 //011   ----------------------------------------
 BYTE   W96
//  #02 //012   ----------------------------------------
 BYTE   W96
//  #02 //013   ----------------------------------------
 BYTE   W96
//  #02 //014   ----------------------------------------
 BYTE   W96
//  #02 //015   ----------------------------------------
 BYTE   W96
//  #02 //016   ----------------------------------------
Label_015F523A:
 BYTE   W96
//  #02 //017   ----------------------------------------
 BYTE   W96
//  #02 //018   ----------------------------------------
 BYTE   W96
//  #02 //019   ----------------------------------------
 BYTE   W96
//  #02 //020   ----------------------------------------
 BYTE   W96
//  #02 //021   ----------------------------------------
 BYTE   W96
//  #02 //022   ----------------------------------------
Label_015F5240:
 BYTE   W44
 BYTE   BEND   c_v-64
 BYTE   W01
 BYTE   PAN   c_v+0
 BYTE   BEND   c_v-64
 BYTE   W01
 BYTE   PAN   c_v-64
 BYTE   BEND   c_v-63
 BYTE   W01
 BYTE   PAN   c_v+63
 BYTE   BEND   c_v-63
 BYTE   W01
 BYTE   BEND   c_v-62
 BYTE   TIE  Fn4  v028
 BYTE   W01
 BYTE   PAN   c_v+62
 BYTE   BEND   c_v-62
 BYTE   W01
 BYTE   PAN   c_v+61
 BYTE   BEND   c_v-61
 BYTE   W01
 BYTE   PAN   c_v+60
 BYTE   BEND   c_v-61
 BYTE   W01
 BYTE   PAN   c_v+59
 BYTE   BEND   c_v-60
 BYTE   W01
 BYTE   PAN   c_v+58
 BYTE   BEND   c_v-59
 BYTE   W01
 BYTE   PAN   c_v+57
 BYTE   BEND   c_v-59
 BYTE   W01
 BYTE   PAN   c_v+56
 BYTE   BEND   c_v-58
 BYTE   W01
 BYTE   BEND   c_v-58
 BYTE   W01
 BYTE   PAN   c_v+55
 BYTE   BEND   c_v-57
 BYTE   W01
 BYTE   PAN   c_v+54
 BYTE   BEND   c_v-57
 BYTE   W01
 BYTE   PAN   c_v+53
 BYTE   BEND   c_v-56
 BYTE   W01
 BYTE   PAN   c_v+52
 BYTE   BEND   c_v-56
 BYTE   W01
 BYTE   PAN   c_v+51
 BYTE   BEND   c_v-55
 BYTE   W01
 BYTE   PAN   c_v+50
 BYTE   BEND   c_v-54
 BYTE   W01
 BYTE   PAN   c_v+49
 BYTE   BEND   c_v-54
 BYTE   W01
 BYTE   BEND   c_v-53
 BYTE   W01
 BYTE   PAN   c_v+48
 BYTE   BEND   c_v-53
 BYTE   W01
 BYTE   PAN   c_v+47
 BYTE   BEND   c_v-52
 BYTE   W01
 BYTE   PAN   c_v+46
 BYTE   BEND   c_v-52
 BYTE   W01
 BYTE   PAN   c_v+45
 BYTE   BEND   c_v-51
 BYTE   W01
 BYTE   PAN   c_v+44
 BYTE   BEND   c_v-50
 BYTE   W01
 BYTE   PAN   c_v+43
 BYTE   BEND   c_v-50
 BYTE   W01
 BYTE   PAN   c_v+42
 BYTE   BEND   c_v-49
 BYTE   W01
 BYTE   BEND   c_v-49
 BYTE   W01
 BYTE   PAN   c_v+41
 BYTE   BEND   c_v-48
 BYTE   W01
 BYTE   PAN   c_v+40
 BYTE   BEND   c_v-48
 BYTE   W01
 BYTE   PAN   c_v+39
 BYTE   BEND   c_v-47
 BYTE   W01
 BYTE   PAN   c_v+38
 BYTE   BEND   c_v-47
 BYTE   W01
 BYTE   PAN   c_v+37
 BYTE   BEND   c_v-46
 BYTE   W01
 BYTE   PAN   c_v+36
 BYTE   BEND   c_v-45
 BYTE   W01
 BYTE   PAN   c_v+35
 BYTE   BEND   c_v-45
 BYTE   W01
 BYTE   PAN   c_v+34
 BYTE   BEND   c_v-44
 BYTE   W01
 BYTE   BEND   c_v-44
 BYTE   W01
 BYTE   PAN   c_v+33
 BYTE   BEND   c_v-43
 BYTE   W01
 BYTE   PAN   c_v+32
 BYTE   BEND   c_v-43
 BYTE   W01
 BYTE   PAN   c_v+31
 BYTE   BEND   c_v-42
 BYTE   W01
 BYTE   PAN   c_v+30
 BYTE   BEND   c_v-41
 BYTE   W01
 BYTE   PAN   c_v+29
 BYTE   BEND   c_v-41
 BYTE   W01
 BYTE   PAN   c_v+28
 BYTE   BEND   c_v-40
 BYTE   W01
 BYTE   PAN   c_v+27
 BYTE   BEND   c_v-40
 BYTE   W01
 BYTE   BEND   c_v-39
 BYTE   W01
 BYTE   PAN   c_v+26
 BYTE   BEND   c_v-39
 BYTE   W01
 BYTE   PAN   c_v+25
 BYTE   BEND   c_v-38
 BYTE   W01
 BYTE   PAN   c_v+24
 BYTE   BEND   c_v-38
 BYTE   W01
 BYTE   PAN   c_v+23
 BYTE   BEND   c_v-37
 BYTE   W01
 BYTE   PAN   c_v+22
 BYTE   BEND   c_v-36
 BYTE   W01
 BYTE   PAN   c_v+21
 BYTE   BEND   c_v-36
 BYTE   W01
 BYTE   PEND 
//  #02 //023   ----------------------------------------
Label_015F5335:
 BYTE   PAN   c_v+20
 BYTE   BEND   c_v-35
 BYTE   W01
 BYTE   BEND   c_v-35
 BYTE   W01
 BYTE   PAN   c_v+19
 BYTE   BEND   c_v-34
 BYTE   W01
 BYTE   PAN   c_v+18
 BYTE   BEND   c_v-34
 BYTE   W01
 BYTE   PAN   c_v+17
 BYTE   BEND   c_v-33
 BYTE   W01
 BYTE   PAN   c_v+16
 BYTE   BEND   c_v-33
 BYTE   W01
 BYTE   PAN   c_v+15
 BYTE   BEND   c_v-32
 BYTE   W01
 BYTE   PAN   c_v+14
 BYTE   BEND   c_v-31
 BYTE   W01
 BYTE   PAN   c_v+13
 BYTE   BEND   c_v-31
 BYTE   W01
 BYTE   BEND   c_v-30
 BYTE   W01
 BYTE   PAN   c_v+12
 BYTE   BEND   c_v-30
 BYTE   W01
 BYTE   PAN   c_v+11
 BYTE   BEND   c_v-29
 BYTE   W01
 BYTE   PAN   c_v+10
 BYTE   BEND   c_v-29
 BYTE   W01
 BYTE   PAN   c_v+9
 BYTE   BEND   c_v-28
 BYTE   W01
 BYTE   PAN   c_v+8
 BYTE   BEND   c_v-27
 BYTE   W01
 BYTE   PAN   c_v+7
 BYTE   BEND   c_v-27
 BYTE   W01
 BYTE   PAN   c_v+6
 BYTE   BEND   c_v-26
 BYTE   W01
 BYTE   PAN   c_v+5
 BYTE   BEND   c_v-26
 BYTE   W01
 BYTE   BEND   c_v-25
 BYTE   W01
 BYTE   PAN   c_v+4
 BYTE   BEND   c_v-25
 BYTE   W01
 BYTE   PAN   c_v+3
 BYTE   BEND   c_v-24
 BYTE   W01
 BYTE   PAN   c_v+2
 BYTE   BEND   c_v-24
 BYTE   W01
 BYTE   PAN   c_v+1
 BYTE   BEND   c_v-23
 BYTE   W01
 BYTE   PAN   c_v+0
 BYTE   BEND   c_v-21
 BYTE   W01
 BYTE   PAN   c_v-1
 BYTE   BEND   c_v-20
 BYTE   W01
 BYTE   PAN   c_v-2
 BYTE   BEND   c_v-20
 BYTE   W01
 BYTE   BEND   c_v-19
 BYTE   W01
 BYTE   PAN   c_v-3
 BYTE   BEND   c_v-18
 BYTE   W01
 BYTE   PAN   c_v-4
 BYTE   BEND   c_v-17
 BYTE   W01
 BYTE   PAN   c_v-5
 BYTE   BEND   c_v-17
 BYTE   W01
 BYTE   PAN   c_v-6
 BYTE   BEND   c_v-16
 BYTE   W01
 BYTE   PAN   c_v-7
 BYTE   BEND   c_v-15
 BYTE   W01
 BYTE   PAN   c_v-8
 BYTE   BEND   c_v-15
 BYTE   W01
 BYTE   PAN   c_v-9
 BYTE   BEND   c_v-14
 BYTE   W01
 BYTE   BEND   c_v-13
 BYTE   W01
 BYTE   PAN   c_v-10
 BYTE   BEND   c_v-12
 BYTE   W01
 BYTE   PAN   c_v-11
 BYTE   BEND   c_v-12
 BYTE   W01
 BYTE   PAN   c_v-12
 BYTE   BEND   c_v-11
 BYTE   W01
 BYTE   PAN   c_v-13
 BYTE   BEND   c_v-10
 BYTE   W01
 BYTE   PAN   c_v-14
 BYTE   BEND   c_v-9
 BYTE   W01
 BYTE   PAN   c_v-15
 BYTE   BEND   c_v-9
 BYTE   W01
 BYTE   PAN   c_v-16
 BYTE   BEND   c_v-8
 BYTE   W01
 BYTE   BEND   c_v-7
 BYTE   W01
 BYTE   PAN   c_v-17
 BYTE   BEND   c_v-6
 BYTE   W01
 BYTE   PAN   c_v-18
 BYTE   BEND   c_v-6
 BYTE   W01
 BYTE   PAN   c_v-19
 BYTE   BEND   c_v-5
 BYTE   W01
 BYTE   PAN   c_v-20
 BYTE   BEND   c_v-4
 BYTE   W01
 BYTE   PAN   c_v-21
 BYTE   BEND   c_v-4
 BYTE   W01
 BYTE   PAN   c_v-22
 BYTE   BEND   c_v-3
 BYTE   W01
 BYTE   PAN   c_v-23
 BYTE   BEND   c_v-2
 BYTE   W01
 BYTE   PAN   c_v-24
 BYTE   BEND   c_v-1
 BYTE   W01
 BYTE   BEND   c_v-1
 BYTE   W01
 BYTE   PAN   c_v-25
 BYTE   BEND   c_v+0
 BYTE   W01
 BYTE   PAN   c_v-26
 BYTE   BEND   c_v+1
 BYTE   W01
 BYTE   PAN   c_v-27
 BYTE   BEND   c_v+2
 BYTE   W01
 BYTE   PAN   c_v-28
 BYTE   BEND   c_v+2
 BYTE   W01
 BYTE   PAN   c_v-29
 BYTE   BEND   c_v+3
 BYTE   W01
 BYTE   PAN   c_v-30
 BYTE   BEND   c_v+4
 BYTE   W01
 BYTE   PAN   c_v-31
 BYTE   BEND   c_v+5
 BYTE   W01
 BYTE   BEND   c_v+5
 BYTE   W01
 BYTE   PAN   c_v-32
 BYTE   BEND   c_v+6
 BYTE   W01
 BYTE   PAN   c_v-33
 BYTE   BEND   c_v+7
 BYTE   W01
 BYTE   PAN   c_v-34
 BYTE   BEND   c_v+7
 BYTE   W01
 BYTE   PAN   c_v-35
 BYTE   BEND   c_v+8
 BYTE   W01
 BYTE   PAN   c_v-36
 BYTE   BEND   c_v+9
 BYTE   W01
 BYTE   PAN   c_v-37
 BYTE   BEND   c_v+11
 BYTE   W01
 BYTE   PAN   c_v-38
 BYTE   BEND   c_v+12
 BYTE   W01
 BYTE   BEND   c_v+13
 BYTE   W01
 BYTE   PAN   c_v-39
 BYTE   BEND   c_v+14
 BYTE   W01
 BYTE   PAN   c_v-40
 BYTE   BEND   c_v+15
 BYTE   W01
 BYTE   PAN   c_v-41
 BYTE   BEND   c_v+16
 BYTE   W01
 BYTE   PAN   c_v-42
 BYTE   BEND   c_v+17
 BYTE   W01
 BYTE   PAN   c_v-43
 BYTE   BEND   c_v+19
 BYTE   W01
 BYTE   PAN   c_v-44
 BYTE   BEND   c_v+20
 BYTE   W01
 BYTE   PAN   c_v-45
 BYTE   BEND   c_v+21
 BYTE   W01
 BYTE   BEND   c_v+23
 BYTE   W01
 BYTE   PAN   c_v-46
 BYTE   BEND   c_v+24
 BYTE   W01
 BYTE   PAN   c_v-47
 BYTE   BEND   c_v+26
 BYTE   W01
 BYTE   PAN   c_v-48
 BYTE   BEND   c_v+27
 BYTE   W01
 BYTE   PAN   c_v-49
 BYTE   BEND   c_v+30
 BYTE   W01
 BYTE   PAN   c_v-50
 BYTE   BEND   c_v+32
 BYTE   W01
 BYTE   PAN   c_v-51
 BYTE   BEND   c_v+34
 BYTE   W01
 BYTE   PAN   c_v-52
 BYTE   BEND   c_v+36
 BYTE   W01
 BYTE   PAN   c_v-53
 BYTE   BEND   c_v+37
 BYTE   W01
 BYTE   BEND   c_v+39
 BYTE   W01
 BYTE   PAN   c_v-54
 BYTE   BEND   c_v+41
 BYTE   W01
 BYTE   PAN   c_v-55
 BYTE   BEND   c_v+43
 BYTE   W01
 BYTE   PAN   c_v-56
 BYTE   BEND   c_v+45
 BYTE   W01
 BYTE   PAN   c_v-57
 BYTE   BEND   c_v+47
 BYTE   W01
 BYTE   PAN   c_v-58
 BYTE   BEND   c_v+50
 BYTE   W01
 BYTE   PAN   c_v-59
 BYTE   BEND   c_v+53
 BYTE   W01
 BYTE   PAN   c_v-60
 BYTE   BEND   c_v+56
 BYTE   W01
 BYTE   BEND   c_v+59
 BYTE   W01
 BYTE   PAN   c_v-61
 BYTE   BEND   c_v+62
 BYTE   W01
 BYTE   PAN   c_v-62
 BYTE   BEND   c_v+63
 BYTE   W01
 BYTE   PAN   c_v-63
 BYTE   W01
 BYTE   PEND 
//  #02 //024   ----------------------------------------
 BYTE   EOT
 BYTE   Fn4
 BYTE   BEND   c_v+63
 BYTE   W96
//  #02 //025   ----------------------------------------
 BYTE   W56
 BYTE   W02
 BYTE   BEND   c_v+0
 BYTE   W36
 BYTE   W02
//  #02 //026   ----------------------------------------
 BYTE   W96
//  #02 //027   ----------------------------------------
 BYTE   W96
//  #02 //028   ----------------------------------------
 BYTE   W96
//  #02 //029   ----------------------------------------
 BYTE   W96
//  #02 //030   ----------------------------------------
 BYTE   W96
//  #02 //031   ----------------------------------------
 BYTE   W96
//  #02 //032   ----------------------------------------
 BYTE   W96
//  #02 //033   ----------------------------------------
 BYTE   W96
//  #02 //034   ----------------------------------------
 BYTE   W96
//  #02 //035   ----------------------------------------
 BYTE   W96
//  #02 //036   ----------------------------------------
 BYTE   W96
//  #02 //037   ----------------------------------------
 BYTE   W96
//  #02 //038   ----------------------------------------
 BYTE   W96
//  #02 //039   ----------------------------------------
 BYTE   W96
//  #02 //040   ----------------------------------------
 BYTE   W96
//  #02 //041   ----------------------------------------
 BYTE   W96
//  #02 //042   ----------------------------------------
 BYTE   W96
//  #02 //043   ----------------------------------------
 BYTE   W96
//  #02 //044   ----------------------------------------
 BYTE   W96
//  #02 //045   ----------------------------------------
 BYTE   W96
//  #02 //046   ----------------------------------------
 BYTE   W96
//  #02 //047   ----------------------------------------
 BYTE   W96
//  #02 //048   ----------------------------------------
 BYTE   PAN   c_v+0
 BYTE   N12  Dn4  v112
 BYTE   W01
 BYTE   W01
 BYTE   W10
 BYTE   An3
 BYTE   W12
 BYTE   Fn4
 BYTE   W12
 BYTE   An3
 BYTE   W12
 BYTE   En4
 BYTE   W12
 BYTE   An3
 BYTE   W12
 BYTE   Dn4
 BYTE   W12
 BYTE   N24  Cn4
 BYTE   W12
//  #02 //049   ----------------------------------------
Label_015F5527:
 BYTE   W12
 BYTE   N12  An3  v112
 BYTE   W12
 BYTE   An4
 BYTE   W12
 BYTE   An3
 BYTE   W12
 BYTE   En4
 BYTE   W12
 BYTE   An3
 BYTE   W12
 BYTE   Cn4
 BYTE   W12
 BYTE   An3
 BYTE   W12
 BYTE   PEND 
//  #02 //050   ----------------------------------------
Label_015F5539:
 BYTE   N12  Dn4  v112
 BYTE   W12
 BYTE   An3
 BYTE   W12
 BYTE   Fn4
 BYTE   W12
 BYTE   An3
 BYTE   W12
 BYTE   En4
 BYTE   W12
 BYTE   An3
 BYTE   W12
 BYTE   Dn4
 BYTE   W12
 BYTE   N24  Cn4
 BYTE   W12
 BYTE   PEND 
//  #02 //051   ----------------------------------------
 BYTE   W12
 BYTE   N12  An3
 BYTE   W12
 BYTE   An4
 BYTE   W12
 BYTE   An3
 BYTE   W12
 BYTE   En4
 BYTE   W12
 BYTE   An3
 BYTE   W12
 BYTE   Cn4
 BYTE   W12
 BYTE   Cs4
 BYTE   W12
//  #02 //052   ----------------------------------------
 BYTE   PATT
  POIN2 Label_015F5539
//  #02 //053   ----------------------------------------
 BYTE   PATT
  POIN2 Label_015F5527
//  #02 //054   ----------------------------------------
 BYTE   N12  Dn4  v112
 BYTE   W12
 BYTE   An3
 BYTE   W12
 BYTE   Fn4
 BYTE   W12
 BYTE   An3
 BYTE   W12
 BYTE   En4
 BYTE   W12
 BYTE   An3
 BYTE   W12
 BYTE   Fn4
 BYTE   W12
 BYTE   N24  Gn4
 BYTE   W12
//  #02 //055   ----------------------------------------
 BYTE   W12
 BYTE   N12  An3
 BYTE   W12
 BYTE   Fn4
 BYTE   W12
 BYTE   An3
 BYTE   W12
 BYTE   En4
 BYTE   W12
 BYTE   An3
 BYTE   W12
 BYTE   Cn4  v100
 BYTE   N12  En4
 BYTE   W12
 BYTE   Cs4
 BYTE   N12  En4
 BYTE   W12
//  #02 //056   ----------------------------------------
 BYTE   Dn4
 BYTE   N12  Fn4
 BYTE   W12
 BYTE   An3
 BYTE   W12
 BYTE   Fn4
 BYTE   N12  An4
 BYTE   W12
 BYTE   An3
 BYTE   W12
 BYTE   En4
 BYTE   N12  Gn4
 BYTE   W12
 BYTE   An3
 BYTE   W12
 BYTE   Dn4
 BYTE   N12  Fn4
 BYTE   W12
 BYTE   N24  Cn4
 BYTE   N24  En4
 BYTE   W12
//  #02 //057   ----------------------------------------
 BYTE   W12
 BYTE   N12  An3
 BYTE   W12
 BYTE   An4
 BYTE   N12  Cn5
 BYTE   W12
 BYTE   An3
 BYTE   W12
 BYTE   En4
 BYTE   N12  Gn4
 BYTE   W12
 BYTE   An3
 BYTE   W12
 BYTE   Cn4
 BYTE   N12  En4
 BYTE   W12
 BYTE   Cs4
 BYTE   N12  En4
 BYTE   W12
//  #02 //058   ----------------------------------------
 BYTE   Dn4
 BYTE   N12  Fn4
 BYTE   W12
 BYTE   An3
 BYTE   W12
 BYTE   Fn4
 BYTE   N12  An4
 BYTE   W12
 BYTE   An3
 BYTE   W12
 BYTE   En4
 BYTE   N12  Gn4
 BYTE   W12
 BYTE   Fn4
 BYTE   N12  An4
 BYTE   W12
 BYTE   An3
 BYTE   W12
 BYTE   N24  Gn4
 BYTE   N24  As4
 BYTE   W12
//  #02 //059   ----------------------------------------
 BYTE   W12
 BYTE   N12  An3
 BYTE   W12
 BYTE   Fn4
 BYTE   N12  An4
 BYTE   W12
 BYTE   An3
 BYTE   W12
 BYTE   En4
 BYTE   N12  Gn4
 BYTE   W12
 BYTE   An3
 BYTE   W12
 BYTE   Cn4
 BYTE   N12  En4
 BYTE   W12
 BYTE   An3
 BYTE   W12
//  #02 //060   ----------------------------------------
 BYTE   As3
 BYTE   N12  Dn4
 BYTE   W12
 BYTE   An3
 BYTE   W12
 BYTE   Dn4
 BYTE   N12  Fn4
 BYTE   W12
 BYTE   An3
 BYTE   W12
 BYTE   Cn4
 BYTE   N12  En4
 BYTE   W12
 BYTE   An3
 BYTE   W12
 BYTE   As3
 BYTE   N12  Dn4
 BYTE   W12
 BYTE   N24  As3
 BYTE   N24  Dn4
 BYTE   W12
//  #02 //061   ----------------------------------------
 BYTE   W12
 BYTE   N12  As3
 BYTE   W12
 BYTE   Fn4
 BYTE   N12  As4
 BYTE   W12
 BYTE   As3
 BYTE   W12
 BYTE   En4
 BYTE   N12  An4
 BYTE   W12
 BYTE   As3
 BYTE   W12
 BYTE   Dn4
 BYTE   N12  Gn4
 BYTE   W12
 BYTE   Dn4
 BYTE   N12  Gs4
 BYTE   W12
//  #02 //062   ----------------------------------------
 BYTE   Cs4
 BYTE   N12  An4
 BYTE   W12
 BYTE   En4
 BYTE   W12
 BYTE   N12
 BYTE   W12
 BYTE   Cs4
 BYTE   N12  An4
 BYTE   W12
 BYTE   Dn4
 BYTE   N12  Bn4
 BYTE   W12
 BYTE   Dn4
 BYTE   W12
 BYTE   N12
 BYTE   N12  Bn4
 BYTE   W12
 BYTE   N24  En4
 BYTE   N24  Cs5
 BYTE   W12
//  #02 //063   ----------------------------------------
 BYTE   W12
 BYTE   N12  En4
 BYTE   W12
 BYTE   An4
 BYTE   N12  Cs5
 BYTE   W12
 BYTE   Bn4
 BYTE   N12  Dn5
 BYTE   W12
 BYTE   N42  Cs5
 BYTE   N42  En5
 BYTE   W42
 BYTE   W01
 BYTE   BEND   c_v+63
 BYTE   W05
//  #02 //064   ----------------------------------------
 BYTE   W96
//  #02 //065   ----------------------------------------
 BYTE   W96
//  #02 //066   ----------------------------------------
 BYTE   W96
//  #02 //067   ----------------------------------------
 BYTE   W96
//  #02 //068   ----------------------------------------
 BYTE   W96
//  #02 //069   ----------------------------------------
 BYTE   W96
//  #02 //070   ----------------------------------------
 BYTE   PATT
  POIN2 Label_015F5240
//  #02 //071   ----------------------------------------
 BYTE   PATT
  POIN2 Label_015F5335
//  #02 //072   ----------------------------------------
 BYTE   EOT
 BYTE   Fn4
 BYTE   W96
//  #02 //073   ----------------------------------------
 BYTE   W96
//  #02 //074   ----------------------------------------
 BYTE   W96
//  #02 //075   ----------------------------------------
 BYTE   W96
//  #02 //076   ----------------------------------------
 BYTE   W96
//  #02 //077   ----------------------------------------
 BYTE   W96
//  #02 //078   ----------------------------------------
 BYTE   W96
//  #02 //079   ----------------------------------------
 BYTE   W96
//  #02 //080   ----------------------------------------
 BYTE   GoTo
  POIN2 Label_015F523A
//  #02 //081   ----------------------------------------
 BYTE   BEND   c_v+0
 BYTE   FINE

//**************** Track 3 (Midi-Chn.2) ****************//

song5F_003:
//  #03 //000   ----------------------------------------
 BYTE   KEYSH   song5F_key+0
 BYTE   VOICE   1
 BYTE   VOL   20*song5F_mvl/mxv
 BYTE   PAN   c_v+32
 BYTE   N21  An3  v108
 BYTE   N21  Dn4
 BYTE   W24
 BYTE   An3
 BYTE   N21  Dn4
 BYTE   W24
 BYTE   Gn3
 BYTE   N21  Dn4
 BYTE   W24
 BYTE   An3
 BYTE   N21  Dn4
 BYTE   W24
//  #03 //001   ----------------------------------------
Label_015F56A2:
 BYTE   N21  Fn3  v108
 BYTE   N21  An3
 BYTE   W24
 BYTE   Fn3
 BYTE   N21  An3
 BYTE   W24
 BYTE   En3
 BYTE   N21  Gn3
 BYTE   W24
 BYTE   Fn3
 BYTE   N21  An3
 BYTE   W24
 BYTE   PEND 
//  #03 //002   ----------------------------------------
Label_015F56B5:
 BYTE   N21  An3  v108
 BYTE   N21  Dn4
 BYTE   W24
 BYTE   An3
 BYTE   N21  Dn4
 BYTE   W24
 BYTE   Gn3
 BYTE   N21  Dn4
 BYTE   W24
 BYTE   An3
 BYTE   N21  Dn4
 BYTE   W24
 BYTE   PEND 
//  #03 //003   ----------------------------------------
 BYTE   PATT
  POIN2 Label_015F56A2
//  #03 //004   ----------------------------------------
 BYTE   PATT
  POIN2 Label_015F56B5
//  #03 //005   ----------------------------------------
 BYTE   PATT
  POIN2 Label_015F56A2
//  #03 //006   ----------------------------------------
 BYTE   PATT
  POIN2 Label_015F56B5
//  #03 //007   ----------------------------------------
 BYTE   PATT
  POIN2 Label_015F56A2
//  #03 //008   ----------------------------------------
 BYTE   PATT
  POIN2 Label_015F56B5
//  #03 //009   ----------------------------------------
Label_015F56E6:
 BYTE   N21  An3  v108
 BYTE   N21  Dn4
 BYTE   W24
 BYTE   N10  An3
 BYTE   N10  En4
 BYTE   W12
 BYTE   An3
 BYTE   N10  En4
 BYTE   W12
 BYTE   N10
 BYTE   N10  Gn4
 BYTE   W12
 BYTE   Dn4
 BYTE   N10  Fn4
 BYTE   W12
 BYTE   Cn4
 BYTE   N10  En4
 BYTE   W12
 BYTE   An3
 BYTE   N10  En4
 BYTE   W12
 BYTE   PEND 
//  #03 //010   ----------------------------------------
 BYTE   PATT
  POIN2 Label_015F56B5
//  #03 //011   ----------------------------------------
 BYTE   PATT
  POIN2 Label_015F56E6
//  #03 //012   ----------------------------------------
 BYTE   PATT
  POIN2 Label_015F56E6
//  #03 //013   ----------------------------------------
 BYTE   PATT
  POIN2 Label_015F56E6
//  #03 //014   ----------------------------------------
 BYTE   PATT
  POIN2 Label_015F56E6
//  #03 //015   ----------------------------------------
Label_015F571F:
 BYTE   N10  An3  v108
 BYTE   N10  Dn4
 BYTE   W12
 BYTE   An3
 BYTE   N10  Dn4
 BYTE   W12
 BYTE   Cn4
 BYTE   N10  En4
 BYTE   W12
 BYTE   N21  Dn4
 BYTE   N21  Fn4
 BYTE   W24
 BYTE   N10  Cn4
 BYTE   N10  Gn4
 BYTE   W12
 BYTE   En4
 BYTE   N10  An4
 BYTE   W12
 BYTE   Gn4
 BYTE   N10  Cn5
 BYTE   W12
 BYTE   PEND 
//  #03 //016   ----------------------------------------
Label_015F5740:
 BYTE   N21  Dn3  v108
 BYTE   N21  An3
 BYTE   W24
 BYTE   Dn3
 BYTE   N21  An3
 BYTE   W24
 BYTE   N10  Cn4
 BYTE   N10  Gn4
 BYTE   W12
 BYTE   An3
 BYTE   N10  En4
 BYTE   W12
 BYTE   Gn3
 BYTE   N10  Cn4
 BYTE   W12
 BYTE   Gn3
 BYTE   N10  Cn4
 BYTE   W12
 BYTE   PEND 
//  #03 //017   ----------------------------------------
Label_015F575C:
 BYTE   N21  Fn3  v108
 BYTE   N21  Dn4
 BYTE   W24
 BYTE   Fn3
 BYTE   N21  Dn4
 BYTE   W24
 BYTE   N10  Fn4
 BYTE   N10  Cn5
 BYTE   W12
 BYTE   Dn4
 BYTE   N10  An4
 BYTE   W12
 BYTE   Cn4
 BYTE   N10  Gn4
 BYTE   W12
 BYTE   Dn4
 BYTE   N10  An4
 BYTE   W12
 BYTE   PEND 
//  #03 //018   ----------------------------------------
 BYTE   PATT
  POIN2 Label_015F5740
//  #03 //019   ----------------------------------------
 BYTE   PATT
  POIN2 Label_015F571F
//  #03 //020   ----------------------------------------
 BYTE   PATT
  POIN2 Label_015F5740
//  #03 //021   ----------------------------------------
 BYTE   PATT
  POIN2 Label_015F575C
//  #03 //022   ----------------------------------------
 BYTE   N21  An3  v108
 BYTE   N21  Gn4
 BYTE   W24
 BYTE   An3
 BYTE   N21  Gn4
 BYTE   W24
 BYTE   An3
 BYTE   N21  An4
 BYTE   W24
 BYTE   An3
 BYTE   N21  An4
 BYTE   W24
//  #03 //023   ----------------------------------------
 BYTE   N10  As3
 BYTE   N10  Fn4
 BYTE   W12
 BYTE   An3
 BYTE   N10  En4
 BYTE   W12
 BYTE   As3
 BYTE   N10  Fn4
 BYTE   W12
 BYTE   Dn4
 BYTE   N10  An4
 BYTE   W12
 BYTE   Cn4
 BYTE   N10  Gn4
 BYTE   W12
 BYTE   N32  Gn3
 BYTE   N32  En4
 BYTE   W36
//  #03 //024   ----------------------------------------
 BYTE   PATT
  POIN2 Label_015F5740
//  #03 //025   ----------------------------------------
 BYTE   N21  An3  v108
 BYTE   N21  Dn4
 BYTE   W24
 BYTE   An3
 BYTE   N21  Dn4
 BYTE   W24
 BYTE   N10  Fn4
 BYTE   N10  Cn5
 BYTE   W12
 BYTE   Dn4
 BYTE   N10  An4
 BYTE   W12
 BYTE   Cn4
 BYTE   N10  Gn4
 BYTE   W12
 BYTE   Dn4
 BYTE   N10  An4
 BYTE   W12
//  #03 //026   ----------------------------------------
 BYTE   PATT
  POIN2 Label_015F5740
//  #03 //027   ----------------------------------------
 BYTE   N21  An3  v108
 BYTE   N21  Dn4
 BYTE   W24
 BYTE   An3
 BYTE   N21  Dn4
 BYTE   W24
 BYTE   N10
 BYTE   N10  Fn4
 BYTE   W12
 BYTE   Dn4
 BYTE   N10  En4
 BYTE   W12
 BYTE   Dn4
 BYTE   N10  Gn4
 BYTE   W12
 BYTE   Dn4
 BYTE   N10  An4
 BYTE   W12
//  #03 //028   ----------------------------------------
 BYTE   PATT
  POIN2 Label_015F5740
//  #03 //029   ----------------------------------------
 BYTE   N21  Fn3  v108
 BYTE   N21  Dn4
 BYTE   W24
 BYTE   Fn3
 BYTE   N21  Dn4
 BYTE   W24
 BYTE   N10  Fn4
 BYTE   N10  Cn5
 BYTE   W12
 BYTE   Dn4
 BYTE   N10  An4
 BYTE   W12
 BYTE   Cn4
 BYTE   N10  Fn4
 BYTE   W12
 BYTE   An3
 BYTE   N10  Fn4
 BYTE   W12
//  #03 //030   ----------------------------------------
 BYTE   N21  Dn4
 BYTE   N21  Gn4
 BYTE   W24
 BYTE   Dn4
 BYTE   N21  Gn4
 BYTE   W24
 BYTE   N10  En4
 BYTE   N10  An4
 BYTE   W12
 BYTE   Dn4
 BYTE   N10  Gn4
 BYTE   W12
 BYTE   Cn4
 BYTE   N10  Fn4
 BYTE   W12
 BYTE   Cn4
 BYTE   N10  En4
 BYTE   W12
//  #03 //031   ----------------------------------------
 BYTE   N21  Fn3
 BYTE   N21  Dn4
 BYTE   W24
 BYTE   Fn3
 BYTE   N21  Dn4
 BYTE   W24
 BYTE   Fn3
 BYTE   N21  Dn4
 BYTE   W24
 BYTE   Fn3
 BYTE   N21  Dn4
 BYTE   W24
//  #03 //032   ----------------------------------------
 BYTE   Fn3
 BYTE   N21  Dn4
 BYTE   W24
 BYTE   Dn3
 BYTE   N21  An3
 BYTE   W24
 BYTE   Dn3
 BYTE   N21  Fn3
 BYTE   W24
 BYTE   Dn3
 BYTE   N21  Gn3
 BYTE   W24
//  #03 //033   ----------------------------------------
 BYTE   Dn3
 BYTE   N21  An3
 BYTE   W24
 BYTE   Dn3
 BYTE   N21  Gn3
 BYTE   W24
 BYTE   Dn3
 BYTE   N21  An3
 BYTE   W24
 BYTE   N21
 BYTE   N21  En4
 BYTE   W24
//  #03 //034   ----------------------------------------
 BYTE   N10  An3
 BYTE   N10  Fn4
 BYTE   W12
 BYTE   Dn3
 BYTE   N10  An3
 BYTE   W12
 BYTE   N10
 BYTE   N10  En4
 BYTE   W12
 BYTE   Dn3
 BYTE   N10  An3
 BYTE   W12
 BYTE   Dn3
 BYTE   N10  Gn3
 BYTE   W12
 BYTE   N10
 BYTE   N10  Dn4
 BYTE   W12
 BYTE   Fn3
 BYTE   N10  Cn4
 BYTE   W12
 BYTE   Fn2
 BYTE   N10  Cn3
 BYTE   W12
//  #03 //035   ----------------------------------------
 BYTE   Fn2
 BYTE   N10  Dn3
 BYTE   W12
 BYTE   Fn3
 BYTE   N10  Dn4
 BYTE   W12
 BYTE   Fn3
 BYTE   N10  Cn4
 BYTE   W12
 BYTE   Fn2
 BYTE   N10  Dn3
 BYTE   W12
 BYTE   An2
 BYTE   N10  Gn3
 BYTE   W12
 BYTE   An2
 BYTE   N10  Gn3
 BYTE   W12
 BYTE   N10
 BYTE   N10  Cn4
 BYTE   W12
 BYTE   Gn3
 BYTE   N10  Cn4
 BYTE   W12
//  #03 //036   ----------------------------------------
Label_015F58A3:
 BYTE   N21  Gn2  v108
 BYTE   N21  Dn3
 BYTE   W24
 BYTE   Gn2
 BYTE   N21  Dn3
 BYTE   W24
 BYTE   Gn2
 BYTE   N21  Fn3
 BYTE   W24
 BYTE   Gn2
 BYTE   N21  An3
 BYTE   W24
 BYTE   PEND 
//  #03 //037   ----------------------------------------
 BYTE   Gn2
 BYTE   N21  An3
 BYTE   W24
 BYTE   Gn2
 BYTE   N21  Gn3
 BYTE   W24
 BYTE   Gn2
 BYTE   N21  Fn3
 BYTE   W24
 BYTE   Gn2
 BYTE   N21  Gn3
 BYTE   W24
//  #03 //038   ----------------------------------------
 BYTE   N10  En4
 BYTE   N10  Cs5
 BYTE   W12
 BYTE   Cs4
 BYTE   N10  An4
 BYTE   W12
 BYTE   N05  An3
 BYTE   N05  En4
 BYTE   W06
 BYTE   Cs4
 BYTE   N05  An4
 BYTE   W06
 BYTE   N10  En4
 BYTE   N10  Cs5
 BYTE   W12
 BYTE   N05  An3
 BYTE   N05  En4
 BYTE   W06
 BYTE   En3
 BYTE   N05  Cs4
 BYTE   W06
 BYTE   An3
 BYTE   N05  En4
 BYTE   W06
 BYTE   En3
 BYTE   N05  Cs4
 BYTE   W12
 BYTE   N16  An3
 BYTE   N16  En4
 BYTE   W18
//  #03 //039   ----------------------------------------
 BYTE   N05
 BYTE   N05  Cs5
 BYTE   W06
 BYTE   Cs4
 BYTE   N05  An4
 BYTE   W06
 BYTE   N10  An3
 BYTE   N10  En4
 BYTE   W12
 BYTE   N05  An3
 BYTE   N05  En4
 BYTE   W06
 BYTE   Cs4
 BYTE   N05  An4
 BYTE   W06
 BYTE   N10  En4
 BYTE   N10  Cs5
 BYTE   W12
 BYTE   N05  Cs4
 BYTE   N05  An4
 BYTE   W06
 BYTE   En4
 BYTE   N05  Cs5
 BYTE   W06
 BYTE   N10
 BYTE   N10  En5
 BYTE   W12
 BYTE   Dn4
 BYTE   N10  An4
 BYTE   W12
 BYTE   Cn4
 BYTE   N10  Gn4
 BYTE   W12
//  #03 //040   ----------------------------------------
 BYTE   N21  An3
 BYTE   N21  Dn4
 BYTE   W24
 BYTE   Fn3
 BYTE   N21  An3
 BYTE   W24
 BYTE   An2
 BYTE   N21  Fn3
 BYTE   W24
 BYTE   An2
 BYTE   N21  Gn3
 BYTE   W24
//  #03 //041   ----------------------------------------
 BYTE   Dn3
 BYTE   N21  An3
 BYTE   W24
 BYTE   Dn3
 BYTE   N21  Gn3
 BYTE   W24
 BYTE   Dn3
 BYTE   N21  An3
 BYTE   W24
 BYTE   Fn3
 BYTE   N21  En4
 BYTE   W24
//  #03 //042   ----------------------------------------
 BYTE   N10  Dn4
 BYTE   N10  Fn4
 BYTE   W12
 BYTE   Dn3
 BYTE   N10  An3
 BYTE   W12
 BYTE   N10
 BYTE   N10  En4
 BYTE   W12
 BYTE   Dn3
 BYTE   N10  An3
 BYTE   W12
 BYTE   Dn3
 BYTE   N10  Gn3
 BYTE   W12
 BYTE   N10
 BYTE   N10  Dn4
 BYTE   W12
 BYTE   Fn3
 BYTE   N10  Cn4
 BYTE   W12
 BYTE   Fn2
 BYTE   N10  Cn3
 BYTE   W12
//  #03 //043   ----------------------------------------
 BYTE   Fn2
 BYTE   N10  Dn3
 BYTE   W12
 BYTE   An3
 BYTE   N10  Dn4
 BYTE   W12
 BYTE   Fn3
 BYTE   N10  Cn4
 BYTE   W12
 BYTE   Fn2
 BYTE   N10  Dn3
 BYTE   W12
 BYTE   An2
 BYTE   N10  Gn3
 BYTE   W12
 BYTE   An2
 BYTE   N10  Gn3
 BYTE   W12
 BYTE   N10
 BYTE   N10  Cn4
 BYTE   W12
 BYTE   Gn3
 BYTE   N10  Cn4
 BYTE   W12
//  #03 //044   ----------------------------------------
 BYTE   PATT
  POIN2 Label_015F58A3
//  #03 //045   ----------------------------------------
 BYTE   N21  Gs2  v108
 BYTE   N21  An3
 BYTE   W24
 BYTE   Gs2
 BYTE   N21  Gs3
 BYTE   W24
 BYTE   Gs2
 BYTE   N21  Gn3
 BYTE   W24
 BYTE   Gs2
 BYTE   N21  Gs3
 BYTE   W24
//  #03 //046   ----------------------------------------
 BYTE   N10  An4
 BYTE   N10  Cs5
 BYTE   W12
 BYTE   En4
 BYTE   N10  An4
 BYTE   W12
 BYTE   N05  Cs4
 BYTE   N05  En4
 BYTE   W06
 BYTE   N05
 BYTE   N05  An4
 BYTE   W06
 BYTE   N10
 BYTE   N10  Cs5
 BYTE   W12
 BYTE   N05  An3
 BYTE   N05  En4
 BYTE   W06
 BYTE   An3
 BYTE   N05  Cs4
 BYTE   W06
 BYTE   N05
 BYTE   N05  En4
 BYTE   W06
 BYTE   An3
 BYTE   N05  Cs4
 BYTE   W12
 BYTE   N16  An3
 BYTE   N16  En4
 BYTE   W18
//  #03 //047   ----------------------------------------
 BYTE   N10  An4
 BYTE   N10  Cs5
 BYTE   W12
 BYTE   En4
 BYTE   N10  An4
 BYTE   W12
 BYTE   N05  An3
 BYTE   N05  Cs4
 BYTE   W06
 BYTE   An3
 BYTE   N05  En4
 BYTE   W06
 BYTE   An3
 BYTE   N05  Cs4
 BYTE   W06
 BYTE   An3
 BYTE   N05  En4
 BYTE   W06
 BYTE   N10  An4
 BYTE   N10  Cs5
 BYTE   W12
 BYTE   En4
 BYTE   N10  An4
 BYTE   W12
 BYTE   N05  En4
 BYTE   N05  An4
 BYTE   W06
 BYTE   En4
 BYTE   N05  Cs5
 BYTE   W06
 BYTE   N10
 BYTE   N10  En5
 BYTE   W12
//  #03 //048   ----------------------------------------
 BYTE   N24  Fn3  v112
 BYTE   N12  Dn4
 BYTE   W12
 BYTE   An3
 BYTE   W12
 BYTE   N24  Fn3
 BYTE   N12  Fn4
 BYTE   W12
 BYTE   An3
 BYTE   W12
 BYTE   N24  Fn3
 BYTE   N12  En4
 BYTE   W12
 BYTE   An3
 BYTE   W12
 BYTE   Cn3
 BYTE   N12  Dn4
 BYTE   W12
 BYTE   As2
 BYTE   N12  Dn4
 BYTE   W12
//  #03 //049   ----------------------------------------
 BYTE   N60  En3
 BYTE   N48  Gn3
 BYTE   W12
 BYTE   N12  Cn4
 BYTE   W12
 BYTE   An4
 BYTE   W12
 BYTE   An3
 BYTE   W12
 BYTE   En4
 BYTE   W12
 BYTE   Cn3
 BYTE   N12  An3
 BYTE   W12
 BYTE   Dn3
 BYTE   N12  Cn4
 BYTE   W12
 BYTE   Gn2
 BYTE   N12  En3
 BYTE   W12
//  #03 //050   ----------------------------------------
 BYTE   N24  Dn3
 BYTE   N12  Fn4
 BYTE   W12
 BYTE   An3
 BYTE   W12
 BYTE   N24  Dn3
 BYTE   N12  Dn4
 BYTE   W12
 BYTE   An3
 BYTE   W12
 BYTE   Dn3
 BYTE   N12  Dn4
 BYTE   W12
 BYTE   Dn3
 BYTE   N12  An3
 BYTE   W12
 BYTE   Dn3
 BYTE   N12  Cn4
 BYTE   W12
 BYTE   N24  Dn3
 BYTE   N12  Cn4
 BYTE   W12
//  #03 //051   ----------------------------------------
 BYTE   An3
 BYTE   W12
 BYTE   N18  Dn3
 BYTE   N12  Fn4
 BYTE   W12
 BYTE   N06  En4
 BYTE   W06
 BYTE   N18  Dn3
 BYTE   N06  Fn4
 BYTE   W06
 BYTE   En4
 BYTE   W06
 BYTE   Fn4
 BYTE   W06
 BYTE   N24  Dn3
 BYTE   N12  Gn4
 BYTE   W12
 BYTE   Fn4
 BYTE   W12
 BYTE   N24  Cn3
 BYTE   N12  En4
 BYTE   W12
 BYTE   An3
 BYTE   W12
//  #03 //052   ----------------------------------------
 BYTE   N24  As2
 BYTE   N12  Dn4
 BYTE   W12
 BYTE   An3
 BYTE   W12
 BYTE   N24  As2
 BYTE   N12  Fn4
 BYTE   W12
 BYTE   An3
 BYTE   W12
 BYTE   N24  As2
 BYTE   N12  En4
 BYTE   W12
 BYTE   An3
 BYTE   W12
 BYTE   Cn3
 BYTE   N12  Dn4
 BYTE   W12
 BYTE   Dn3
 BYTE   N12  Dn4
 BYTE   W12
//  #03 //053   ----------------------------------------
 BYTE   N60  Cn3
 BYTE   N12  En4
 BYTE   W12
 BYTE   Cn4
 BYTE   W12
 BYTE   An4
 BYTE   W12
 BYTE   An3
 BYTE   W12
 BYTE   En4
 BYTE   W12
 BYTE   Cn3
 BYTE   N12  An3
 BYTE   W12
 BYTE   Cn3
 BYTE   N12  Cn4
 BYTE   W12
 BYTE   Cn3
 BYTE   N12  An3
 BYTE   W12
//  #03 //054   ----------------------------------------
 BYTE   N48  Dn3
 BYTE   N12  Dn4
 BYTE   W12
 BYTE   An3
 BYTE   W12
 BYTE   Fn4
 BYTE   W12
 BYTE   An3
 BYTE   W12
 BYTE   N48  Dn3
 BYTE   N12  En4
 BYTE   W12
 BYTE   En3
 BYTE   N12  An3
 BYTE   W12
 BYTE   N24  Fn3
 BYTE   N12  Fn4
 BYTE   W12
 BYTE   Gn4
 BYTE   W12
//  #03 //055   ----------------------------------------
 BYTE   N24  Dn3
 BYTE   N24  Fn3
 BYTE   W12
 BYTE   N12  An3
 BYTE   W12
 BYTE   N24  Dn3
 BYTE   N12  Fn4
 BYTE   W12
 BYTE   En4
 BYTE   W12
 BYTE   N24  Dn3
 BYTE   N12  Fn4
 BYTE   W12
 BYTE   Gn4
 BYTE   W12
 BYTE   N24  Dn3
 BYTE   N12  An4
 BYTE   W12
 BYTE   Cn5
 BYTE   W12
//  #03 //056   ----------------------------------------
 BYTE   N24  Fn3
 BYTE   N12  Dn5  v100
 BYTE   W12
 BYTE   An4
 BYTE   W12
 BYTE   N24  Fn3  v112
 BYTE   N12  Fn5  v100
 BYTE   W12
 BYTE   An4
 BYTE   W12
 BYTE   Cn5
 BYTE   N12  En5
 BYTE   W12
 BYTE   As4
 BYTE   N12  Dn5
 BYTE   W12
 BYTE   En3  v112
 BYTE   N12  An4  v100
 BYTE   W12
 BYTE   N24  Gn4
 BYTE   N24  Cn5
 BYTE   W12
//  #03 //057   ----------------------------------------
 BYTE   N60  Gn3  v112
 BYTE   W12
 BYTE   N12  An4  v100
 BYTE   W12
 BYTE   Cn5
 BYTE   W12
 BYTE   An4
 BYTE   W12
 BYTE   Cn5
 BYTE   W12
 BYTE   En3  v112
 BYTE   N12  An4  v100
 BYTE   W12
 BYTE   Dn3  v112
 BYTE   N12  En4  v100
 BYTE   W12
 BYTE   Cn3  v112
 BYTE   N12  As4  v100
 BYTE   W12
//  #03 //058   ----------------------------------------
 BYTE   N24  Fn3  v112
 BYTE   N06  Fn4  v100
 BYTE   W06
 BYTE   Ds4
 BYTE   N06  Fs4
 BYTE   W06
 BYTE   En4
 BYTE   N06  Gn4
 BYTE   W06
 BYTE   Fn4
 BYTE   N06  Gs4
 BYTE   W06
 BYTE   Fn4
 BYTE   N06  An4
 BYTE   W06
 BYTE   N18
 BYTE   N18  Dn5
 BYTE   W18
 BYTE   N12  Fn3  v112
 BYTE   N12  Gn4  v100
 BYTE   W12
 BYTE   En3  v112
 BYTE   N12  An4  v100
 BYTE   W12
 BYTE   Dn3  v112
 BYTE   N12  Dn4  v100
 BYTE   W12
 BYTE   N24  An2  v112
 BYTE   N24  Gn3
 BYTE   N24  As4  v100
 BYTE   W12
//  #03 //059   ----------------------------------------
 BYTE   W12
 BYTE   N18  Dn3  v112
 BYTE   N12  Dn4  v100
 BYTE   W12
 BYTE   Fn4
 BYTE   N12  An4
 BYTE   W06
 BYTE   N18  An2  v112
 BYTE   N18  Dn3
 BYTE   W06
 BYTE   N12  Dn4  v100
 BYTE   W12
 BYTE   N24  Dn3  v112
 BYTE   N12  En4  v100
 BYTE   N12  Gn4
 BYTE   W12
 BYTE   Dn4
 BYTE   W12
 BYTE   N24  Cn3  v112
 BYTE   N12  Cn4  v100
 BYTE   N12  En4
 BYTE   W12
 BYTE   Dn4
 BYTE   W12
//  #03 //060   ----------------------------------------
 BYTE   N24  Fn3  v112
 BYTE   N12  Dn4  v100
 BYTE   W12
 BYTE   An3
 BYTE   W12
 BYTE   N24  Fn3  v112
 BYTE   N12  Fn4  v100
 BYTE   W12
 BYTE   An3
 BYTE   W12
 BYTE   N24  Fn3  v112
 BYTE   N12  En4  v100
 BYTE   W12
 BYTE   An3
 BYTE   W12
 BYTE   Cn3  v112
 BYTE   N12  Dn4  v100
 BYTE   W12
 BYTE   Dn3  v112
 BYTE   N24  As3  v100
 BYTE   W12
//  #03 //061   ----------------------------------------
 BYTE   Dn3  v112
 BYTE   W12
 BYTE   N12  As3  v100
 BYTE   W12
 BYTE   N24  Fn3  v112
 BYTE   N12  As4  v100
 BYTE   W12
 BYTE   As3
 BYTE   W12
 BYTE   N24  Fn3  v112
 BYTE   N12  An4  v100
 BYTE   W12
 BYTE   As3
 BYTE   W12
 BYTE   Fn3  v112
 BYTE   N12  Gn4  v100
 BYTE   W12
 BYTE   Gn3  v112
 BYTE   N12  Gs4  v100
 BYTE   W12
//  #03 //062   ----------------------------------------
 BYTE   Cs4
 BYTE   N12  An4
 BYTE   W12
 BYTE   Cs3  v112
 BYTE   N12  En4  v100
 BYTE   W12
 BYTE   N24  Cs3  v112
 BYTE   N12  En4  v100
 BYTE   W12
 BYTE   Cs4
 BYTE   N12  An4
 BYTE   W12
 BYTE   Cs3  v112
 BYTE   N12  Bn4  v100
 BYTE   W12
 BYTE   Cs3  v112
 BYTE   N12  En4  v100
 BYTE   W12
 BYTE   Cs3  v112
 BYTE   N12  Bn4  v100
 BYTE   W12
 BYTE   N24  Cs3  v112
 BYTE   N24  En3
 BYTE   N24  Cs5  v100
 BYTE   W12
//  #03 //063   ----------------------------------------
 BYTE   W12
 BYTE   N12  En4
 BYTE   W12
 BYTE   An4
 BYTE   N12  Cs5
 BYTE   W12
 BYTE   Bn4
 BYTE   N12  Dn5
 BYTE   W12
 BYTE   En4
 BYTE   N12  An4
 BYTE   W12
 BYTE   Gs4
 BYTE   N12  Bn4
 BYTE   W12
 BYTE   N01  An4
 BYTE   N01  Cs5
 BYTE   W24
//  #03 //064   ----------------------------------------
Label_015F5C1A:
 BYTE   N21  Ds3  v108
 BYTE   N21  As3
 BYTE   W24
 BYTE   Ds3
 BYTE   N21  As3
 BYTE   W24
 BYTE   N10  Cs4
 BYTE   N10  Gs4
 BYTE   W12
 BYTE   As3
 BYTE   N10  Fn4
 BYTE   W12
 BYTE   Gs3
 BYTE   N10  Cs4
 BYTE   W12
 BYTE   Gs3
 BYTE   N10  Cs4
 BYTE   W12
 BYTE   PEND 
//  #03 //065   ----------------------------------------
Label_015F5C36:
 BYTE   N21  Fs3  v108
 BYTE   N21  Ds4
 BYTE   W24
 BYTE   Fs3
 BYTE   N21  Ds4
 BYTE   W24
 BYTE   N10  Fs4
 BYTE   N10  Cs5
 BYTE   W12
 BYTE   Ds4
 BYTE   N10  As4
 BYTE   W12
 BYTE   Cs4
 BYTE   N10  Gs4
 BYTE   W12
 BYTE   Ds4
 BYTE   N10  As4
 BYTE   W12
 BYTE   PEND 
//  #03 //066   ----------------------------------------
 BYTE   PATT
  POIN2 Label_015F5C1A
//  #03 //067   ----------------------------------------
 BYTE   N10  As3  v108
 BYTE   N10  Ds4
 BYTE   W12
 BYTE   As3
 BYTE   N10  Ds4
 BYTE   W12
 BYTE   Cs4
 BYTE   N10  Fn4
 BYTE   W12
 BYTE   N21  Ds4
 BYTE   N21  Fs4
 BYTE   W24
 BYTE   N10  Gs3
 BYTE   N10  Gs4
 BYTE   W12
 BYTE   Fn4
 BYTE   N10  As4
 BYTE   W12
 BYTE   Gs4
 BYTE   N10  Cs5
 BYTE   W12
//  #03 //068   ----------------------------------------
 BYTE   PATT
  POIN2 Label_015F5C1A
//  #03 //069   ----------------------------------------
 BYTE   PATT
  POIN2 Label_015F5C36
//  #03 //070   ----------------------------------------
 BYTE   N21  As3  v108
 BYTE   N21  Gs4
 BYTE   W24
 BYTE   As3
 BYTE   N21  Gs4
 BYTE   W24
 BYTE   As3
 BYTE   N21  As4
 BYTE   W24
 BYTE   As3
 BYTE   N21  As4
 BYTE   W24
//  #03 //071   ----------------------------------------
 BYTE   N10  Bn3
 BYTE   N10  Fs4
 BYTE   W12
 BYTE   As3
 BYTE   N10  Fn4
 BYTE   W12
 BYTE   Bn3
 BYTE   N10  Fs4
 BYTE   W12
 BYTE   Ds4
 BYTE   N10  As4
 BYTE   W12
 BYTE   Cs4
 BYTE   N10  Gs4
 BYTE   W12
 BYTE   N32  Gs3
 BYTE   N32  Fn4
 BYTE   W36
//  #03 //072   ----------------------------------------
 BYTE   PATT
  POIN2 Label_015F5C1A
//  #03 //073   ----------------------------------------
 BYTE   PATT
  POIN2 Label_015F5C36
//  #03 //074   ----------------------------------------
 BYTE   PATT
  POIN2 Label_015F5C1A
//  #03 //075   ----------------------------------------
 BYTE   N21  Fs3  v108
 BYTE   N21  Ds4
 BYTE   W24
 BYTE   Fs3
 BYTE   N21  Ds4
 BYTE   W24
 BYTE   N10
 BYTE   N10  Fs4
 BYTE   W12
 BYTE   Ds4
 BYTE   N10  Fn4
 BYTE   W12
 BYTE   Ds4
 BYTE   N10  Gs4
 BYTE   W12
 BYTE   Fs4
 BYTE   N10  As4
 BYTE   W12
//  #03 //076   ----------------------------------------
 BYTE   N21  Ds3
 BYTE   N21  As3
 BYTE   W24
 BYTE   Ds3
 BYTE   N21  As3
 BYTE   W24
 BYTE   N10  Fn4
 BYTE   N10  Gs4
 BYTE   W12
 BYTE   Cs4
 BYTE   N10  Fn4
 BYTE   W12
 BYTE   Gs3
 BYTE   N10  Cs4
 BYTE   W12
 BYTE   Gs3
 BYTE   N10  Cs4
 BYTE   W12
//  #03 //077   ----------------------------------------
 BYTE   N21  Fs3
 BYTE   N21  Ds4
 BYTE   W24
 BYTE   Fs3
 BYTE   N21  Ds4
 BYTE   W24
 BYTE   N10  Fs4
 BYTE   N10  Cs5
 BYTE   W12
 BYTE   Ds4
 BYTE   N10  As4
 BYTE   W12
 BYTE   Cs4
 BYTE   N10  Fs4
 BYTE   W12
 BYTE   As3
 BYTE   N10  Fs4
 BYTE   W12
//  #03 //078   ----------------------------------------
 BYTE   N21  Ds4
 BYTE   N21  Gs4
 BYTE   W24
 BYTE   Ds4
 BYTE   N21  Gs4
 BYTE   W24
 BYTE   N10  Fn4
 BYTE   N10  As4
 BYTE   W12
 BYTE   Ds4
 BYTE   N10  Gs4
 BYTE   W12
 BYTE   Cs4
 BYTE   N10  Fs4
 BYTE   W12
 BYTE   Cs4
 BYTE   N10  Fn4
 BYTE   W12
//  #03 //079   ----------------------------------------
 BYTE   N21  Fs3
 BYTE   N21  Ds4
 BYTE   W24
 BYTE   Fs3
 BYTE   N21  Ds4
 BYTE   W24
 BYTE   Fs3
 BYTE   N21  Ds4
 BYTE   W24
 BYTE   Fs3
 BYTE   N21  Ds4
 BYTE   W24
//  #03 //080   ----------------------------------------
 BYTE   GoTo
  POIN2 Label_015F5740
 BYTE   FINE

//**************** Track 4 (Midi-Chn.3) ****************//

song5F_004:
//  #04 //000   ----------------------------------------
 BYTE   KEYSH   song5F_key+0
 BYTE   VOICE   34
 BYTE   VOL   34*song5F_mvl/mxv
 BYTE   N07  Dn1  v092
 BYTE   W12
 BYTE   N10  Dn2  v112
 BYTE   W12
 BYTE   N07  Dn1  v092
 BYTE   W12
 BYTE   N10  Dn2  v112
 BYTE   W12
 BYTE   N07  Dn1  v092
 BYTE   W12
 BYTE   N10  Dn2  v112
 BYTE   W12
 BYTE   N07  Dn1  v092
 BYTE   W12
 BYTE   N10  Dn2  v112
 BYTE   W12
//  #04 //001   ----------------------------------------
Label_015F5D76:
 BYTE   N07  Dn1  v092
 BYTE   W12
 BYTE   N10  Dn2  v112
 BYTE   W12
 BYTE   N07  Dn1  v092
 BYTE   W12
 BYTE   N10  Dn2  v112
 BYTE   W12
 BYTE   N07  Dn1  v092
 BYTE   W12
 BYTE   N10  Dn2  v112
 BYTE   W12
 BYTE   N07  Dn1  v092
 BYTE   W12
 BYTE   N10  Dn2  v112
 BYTE   W12
 BYTE   PEND 
//  #04 //002   ----------------------------------------
 BYTE   PATT
  POIN2 Label_015F5D76
//  #04 //003   ----------------------------------------
 BYTE   PATT
  POIN2 Label_015F5D76
//  #04 //004   ----------------------------------------
 BYTE   PATT
  POIN2 Label_015F5D76
//  #04 //005   ----------------------------------------
 BYTE   PATT
  POIN2 Label_015F5D76
//  #04 //006   ----------------------------------------
 BYTE   PATT
  POIN2 Label_015F5D76
//  #04 //007   ----------------------------------------
 BYTE   PATT
  POIN2 Label_015F5D76
//  #04 //008   ----------------------------------------
 BYTE   PATT
  POIN2 Label_015F5D76
//  #04 //009   ----------------------------------------
 BYTE   PATT
  POIN2 Label_015F5D76
//  #04 //010   ----------------------------------------
 BYTE   PATT
  POIN2 Label_015F5D76
//  #04 //011   ----------------------------------------
 BYTE   PATT
  POIN2 Label_015F5D76
//  #04 //012   ----------------------------------------
 BYTE   PATT
  POIN2 Label_015F5D76
//  #04 //013   ----------------------------------------
 BYTE   PATT
  POIN2 Label_015F5D76
//  #04 //014   ----------------------------------------
 BYTE   N07  Dn1  v092
 BYTE   W12
 BYTE   N10  Dn2  v112
 BYTE   W12
 BYTE   N07  Dn1  v092
 BYTE   W12
 BYTE   N10  Dn2  v112
 BYTE   W12
 BYTE   N07  En1  v092
 BYTE   W12
 BYTE   N10  En2  v112
 BYTE   W12
 BYTE   N07  En1  v092
 BYTE   W12
 BYTE   N10  En2  v112
 BYTE   W12
//  #04 //015   ----------------------------------------
 BYTE   N07  Fn1  v092
 BYTE   W12
 BYTE   N10  Fn2  v112
 BYTE   W12
 BYTE   N07  Gn1  v092
 BYTE   W12
 BYTE   N10  Gn2  v112
 BYTE   W12
 BYTE   N07  An1  v092
 BYTE   W12
 BYTE   N10  An2  v112
 BYTE   W12
 BYTE   N07  Cn2  v092
 BYTE   W12
 BYTE   N10  Cn3  v112
 BYTE   W12
//  #04 //016   ----------------------------------------
Label_015F5E13:
 BYTE   N07  As0  v092
 BYTE   W12
 BYTE   N10  As1  v112
 BYTE   W12
 BYTE   N07  As0  v092
 BYTE   W12
 BYTE   N10  As1  v112
 BYTE   W12
 BYTE   N07  Cn1  v092
 BYTE   W12
 BYTE   N10  Cn2  v112
 BYTE   W12
 BYTE   N07  Cn1  v092
 BYTE   W12
 BYTE   N10  Cn2  v112
 BYTE   W12
 BYTE   PEND 
//  #04 //017   ----------------------------------------
Label_015F5E34:
 BYTE   N07  Dn1  v092
 BYTE   W12
 BYTE   N10  Dn2  v112
 BYTE   W12
 BYTE   N07  Dn1  v092
 BYTE   W12
 BYTE   N10  Dn2  v112
 BYTE   W12
 BYTE   N07  Dn1  v092
 BYTE   W12
 BYTE   N10  Dn2  v112
 BYTE   W12
 BYTE   N07  Cn1  v092
 BYTE   W12
 BYTE   N10  Cn2  v112
 BYTE   W12
 BYTE   PEND 
//  #04 //018   ----------------------------------------
 BYTE   PATT
  POIN2 Label_015F5E13
//  #04 //019   ----------------------------------------
Label_015F5E5A:
 BYTE   N07  Dn1  v092
 BYTE   W12
 BYTE   N10  Dn2  v112
 BYTE   W12
 BYTE   N07  En1  v092
 BYTE   W12
 BYTE   N10  En2  v112
 BYTE   W12
 BYTE   N07  Fn1  v092
 BYTE   W12
 BYTE   N10  Fn2  v112
 BYTE   W12
 BYTE   N07  Gn1  v092
 BYTE   W12
 BYTE   N10  Gn2  v112
 BYTE   W12
 BYTE   PEND 
//  #04 //020   ----------------------------------------
 BYTE   PATT
  POIN2 Label_015F5E13
//  #04 //021   ----------------------------------------
 BYTE   PATT
  POIN2 Label_015F5E34
//  #04 //022   ----------------------------------------
Label_015F5E85:
 BYTE   N07  Gn0  v092
 BYTE   W12
 BYTE   N10  Gn1  v112
 BYTE   W12
 BYTE   N07  Gn0  v092
 BYTE   W12
 BYTE   N10  Gn1  v112
 BYTE   W12
 BYTE   N07  An0  v092
 BYTE   W12
 BYTE   N10  An1  v112
 BYTE   W12
 BYTE   N07  An0  v092
 BYTE   W12
 BYTE   N10  An1  v112
 BYTE   W12
 BYTE   PEND 
//  #04 //023   ----------------------------------------
 BYTE   N07  As0  v092
 BYTE   W12
 BYTE   N10  As1  v112
 BYTE   W12
 BYTE   N07  As0  v092
 BYTE   W12
 BYTE   N10  As1  v112
 BYTE   W12
 BYTE   N07  Cn1  v092
 BYTE   W12
 BYTE   N10  Cn2  v112
 BYTE   W12
 BYTE   N07  Cn1  v092
 BYTE   W12
 BYTE   N10  Bn1  v112
 BYTE   W12
//  #04 //024   ----------------------------------------
 BYTE   PATT
  POIN2 Label_015F5E13
//  #04 //025   ----------------------------------------
 BYTE   PATT
  POIN2 Label_015F5E34
//  #04 //026   ----------------------------------------
 BYTE   PATT
  POIN2 Label_015F5E13
//  #04 //027   ----------------------------------------
 BYTE   PATT
  POIN2 Label_015F5E5A
//  #04 //028   ----------------------------------------
 BYTE   PATT
  POIN2 Label_015F5E13
//  #04 //029   ----------------------------------------
 BYTE   PATT
  POIN2 Label_015F5E34
//  #04 //030   ----------------------------------------
 BYTE   PATT
  POIN2 Label_015F5E85
//  #04 //031   ----------------------------------------
 BYTE   PATT
  POIN2 Label_015F5E5A
//  #04 //032   ----------------------------------------
 BYTE   PATT
  POIN2 Label_015F5D76
//  #04 //033   ----------------------------------------
 BYTE   PATT
  POIN2 Label_015F5D76
//  #04 //034   ----------------------------------------
Label_015F5EF8:
 BYTE   N07  As0  v092
 BYTE   W12
 BYTE   N10  As1  v112
 BYTE   W12
 BYTE   N07  As0  v092
 BYTE   W12
 BYTE   N10  As1  v112
 BYTE   W12
 BYTE   N07  As0  v092
 BYTE   W12
 BYTE   N10  As1  v112
 BYTE   W12
 BYTE   N07  As0  v092
 BYTE   W12
 BYTE   N10  As1  v112
 BYTE   W12
 BYTE   PEND 
//  #04 //035   ----------------------------------------
 BYTE   PATT
  POIN2 Label_015F5EF8
//  #04 //036   ----------------------------------------
Label_015F5F1E:
 BYTE   N07  Gn0  v092
 BYTE   W12
 BYTE   N10  Gn1  v112
 BYTE   W12
 BYTE   N07  Gn0  v092
 BYTE   W12
 BYTE   N10  Gn1  v112
 BYTE   W12
 BYTE   N07  Gn0  v092
 BYTE   W12
 BYTE   N10  Gn1  v112
 BYTE   W12
 BYTE   N07  Gn0  v092
 BYTE   W12
 BYTE   N10  Gn1  v112
 BYTE   W12
 BYTE   PEND 
//  #04 //037   ----------------------------------------
 BYTE   PATT
  POIN2 Label_015F5F1E
//  #04 //038   ----------------------------------------
Label_015F5F44:
 BYTE   N07  An0  v092
 BYTE   W12
 BYTE   N10  An1  v112
 BYTE   W12
 BYTE   N07  An0  v092
 BYTE   W12
 BYTE   N10  An1  v112
 BYTE   W12
 BYTE   N07  An0  v092
 BYTE   W12
 BYTE   N10  An1  v112
 BYTE   W12
 BYTE   N07  An0  v092
 BYTE   W12
 BYTE   N10  An1  v112
 BYTE   W12
 BYTE   PEND 
//  #04 //039   ----------------------------------------
 BYTE   N07  An0  v092
 BYTE   W12
 BYTE   N10  An1  v112
 BYTE   W12
 BYTE   N07  An0  v092
 BYTE   W12
 BYTE   N10  An1  v112
 BYTE   W12
 BYTE   N07  An0  v092
 BYTE   W12
 BYTE   N10  An1  v112
 BYTE   W12
 BYTE   N07  Gn1  v092
 BYTE   W12
 BYTE   N10  En1  v112
 BYTE   W12
//  #04 //040   ----------------------------------------
 BYTE   PATT
  POIN2 Label_015F5D76
//  #04 //041   ----------------------------------------
 BYTE   PATT
  POIN2 Label_015F5D76
//  #04 //042   ----------------------------------------
 BYTE   PATT
  POIN2 Label_015F5EF8
//  #04 //043   ----------------------------------------
 BYTE   PATT
  POIN2 Label_015F5EF8
//  #04 //044   ----------------------------------------
 BYTE   PATT
  POIN2 Label_015F5F1E
//  #04 //045   ----------------------------------------
 BYTE   N07  Gs0  v092
 BYTE   W12
 BYTE   N10  Gs1  v112
 BYTE   W12
 BYTE   N07  Gs0  v092
 BYTE   W12
 BYTE   N10  Gs1  v112
 BYTE   W12
 BYTE   N07  Gs0  v092
 BYTE   W12
 BYTE   N10  Gs1  v112
 BYTE   W12
 BYTE   N07  Gs0  v092
 BYTE   W12
 BYTE   N10  Gs1  v112
 BYTE   W12
//  #04 //046   ----------------------------------------
 BYTE   PATT
  POIN2 Label_015F5F44
//  #04 //047   ----------------------------------------
 BYTE   N07  An0  v092
 BYTE   W12
 BYTE   N10  An1  v112
 BYTE   W12
 BYTE   N07  Bn0  v092
 BYTE   W12
 BYTE   N10  Bn1  v112
 BYTE   W12
 BYTE   N07  Cs1  v092
 BYTE   W12
 BYTE   N10  Cs2  v112
 BYTE   W12
 BYTE   N07  An0  v092
 BYTE   W12
 BYTE   N10  An1  v112
 BYTE   W12
//  #04 //048   ----------------------------------------
 BYTE   PATT
  POIN2 Label_015F5EF8
//  #04 //049   ----------------------------------------
Label_015F5FE8:
 BYTE   N07  Cn1  v092
 BYTE   W12
 BYTE   N10  Cn2  v112
 BYTE   W12
 BYTE   N07  Cn1  v092
 BYTE   W12
 BYTE   N10  Cn2  v112
 BYTE   W12
 BYTE   N07  Cn1  v092
 BYTE   W12
 BYTE   N10  Cn2  v112
 BYTE   W12
 BYTE   N07  Cn1  v092
 BYTE   W12
 BYTE   N10  Cn2  v112
 BYTE   W12
 BYTE   PEND 
//  #04 //050   ----------------------------------------
 BYTE   PATT
  POIN2 Label_015F5D76
//  #04 //051   ----------------------------------------
 BYTE   PATT
  POIN2 Label_015F5E34
//  #04 //052   ----------------------------------------
 BYTE   PATT
  POIN2 Label_015F5EF8
//  #04 //053   ----------------------------------------
 BYTE   PATT
  POIN2 Label_015F5FE8
//  #04 //054   ----------------------------------------
 BYTE   PATT
  POIN2 Label_015F5D76
//  #04 //055   ----------------------------------------
 BYTE   N07  Dn1  v092
 BYTE   W12
 BYTE   N10  Dn2  v112
 BYTE   W12
 BYTE   N07  En1  v092
 BYTE   W12
 BYTE   N10  En2  v112
 BYTE   W12
 BYTE   N07  Fn1  v092
 BYTE   W12
 BYTE   N10  Fn2  v112
 BYTE   W12
 BYTE   N07  Cn1  v092
 BYTE   W12
 BYTE   N10  Cn2  v112
 BYTE   W12
//  #04 //056   ----------------------------------------
 BYTE   PATT
  POIN2 Label_015F5EF8
//  #04 //057   ----------------------------------------
 BYTE   PATT
  POIN2 Label_015F5FE8
//  #04 //058   ----------------------------------------
 BYTE   PATT
  POIN2 Label_015F5D76
//  #04 //059   ----------------------------------------
 BYTE   PATT
  POIN2 Label_015F5E34
//  #04 //060   ----------------------------------------
 BYTE   PATT
  POIN2 Label_015F5EF8
//  #04 //061   ----------------------------------------
 BYTE   PATT
  POIN2 Label_015F5EF8
//  #04 //062   ----------------------------------------
 BYTE   PATT
  POIN2 Label_015F5F44
//  #04 //063   ----------------------------------------
 BYTE   W12
 BYTE   N07  An0  v092
 BYTE   W12
 BYTE   An1
 BYTE   W12
 BYTE   Bn1
 BYTE   W12
 BYTE   Cs2
 BYTE   W24
 BYTE   An0
 BYTE   W12
 BYTE   N10  An1  v112
 BYTE   W12
//  #04 //064   ----------------------------------------
Label_015F6076:
 BYTE   N12  Bn0  v112
 BYTE   W12
 BYTE   Bn1
 BYTE   W12
 BYTE   Bn0
 BYTE   W12
 BYTE   Bn1
 BYTE   W12
 BYTE   Cs1
 BYTE   W12
 BYTE   Cs2
 BYTE   W12
 BYTE   Cs1
 BYTE   W12
 BYTE   Cs2
 BYTE   W12
 BYTE   PEND 
//  #04 //065   ----------------------------------------
Label_015F6089:
 BYTE   N12  Ds1  v112
 BYTE   W12
 BYTE   Ds2
 BYTE   W12
 BYTE   Ds1
 BYTE   W12
 BYTE   Ds2
 BYTE   W12
 BYTE   Ds1
 BYTE   W12
 BYTE   Ds2
 BYTE   W12
 BYTE   Cs1
 BYTE   W12
 BYTE   Cs2
 BYTE   W12
 BYTE   PEND 
//  #04 //066   ----------------------------------------
 BYTE   PATT
  POIN2 Label_015F6076
//  #04 //067   ----------------------------------------
Label_015F60A1:
 BYTE   N12  Ds1  v112
 BYTE   W12
 BYTE   Ds2
 BYTE   W12
 BYTE   Fn1
 BYTE   W12
 BYTE   Fn2
 BYTE   W12
 BYTE   Fs1
 BYTE   W12
 BYTE   Fs2
 BYTE   W12
 BYTE   Gs1
 BYTE   W12
 BYTE   Gs2
 BYTE   W12
 BYTE   PEND 
//  #04 //068   ----------------------------------------
 BYTE   PATT
  POIN2 Label_015F6076
//  #04 //069   ----------------------------------------
 BYTE   PATT
  POIN2 Label_015F6089
//  #04 //070   ----------------------------------------
 BYTE   N12  Gs0  v112
 BYTE   W12
 BYTE   Gs1
 BYTE   W12
 BYTE   Gs0
 BYTE   W12
 BYTE   Gs1
 BYTE   W12
 BYTE   As0
 BYTE   W12
 BYTE   As1
 BYTE   W12
 BYTE   As0
 BYTE   W12
 BYTE   As1
 BYTE   W12
//  #04 //071   ----------------------------------------
 BYTE   Bn0
 BYTE   W12
 BYTE   Bn1
 BYTE   W12
 BYTE   Bn0
 BYTE   W12
 BYTE   Bn1
 BYTE   W12
 BYTE   Cs1
 BYTE   W12
 BYTE   Cs2
 BYTE   W12
 BYTE   Cs1
 BYTE   W12
 BYTE   Cn2
 BYTE   W12
//  #04 //072   ----------------------------------------
 BYTE   PATT
  POIN2 Label_015F6076
//  #04 //073   ----------------------------------------
 BYTE   PATT
  POIN2 Label_015F6089
//  #04 //074   ----------------------------------------
 BYTE   PATT
  POIN2 Label_015F6076
//  #04 //075   ----------------------------------------
 BYTE   PATT
  POIN2 Label_015F60A1
//  #04 //076   ----------------------------------------
 BYTE   PATT
  POIN2 Label_015F6076
//  #04 //077   ----------------------------------------
 BYTE   PATT
  POIN2 Label_015F6089
//  #04 //078   ----------------------------------------
 BYTE   N12  Gs0  v112
 BYTE   W12
 BYTE   Gs1
 BYTE   W36
 BYTE   As0
 BYTE   W12
 BYTE   As1
 BYTE   W36
//  #04 //079   ----------------------------------------
 BYTE   Ds1
 BYTE   W12
 BYTE   Ds2
 BYTE   W12
 BYTE   Fn1
 BYTE   W12
 BYTE   Fn2
 BYTE   W12
 BYTE   Fs1
 BYTE   W12
 BYTE   Fs2
 BYTE   W12
 BYTE   Gs1
 BYTE   W12
 BYTE   N01  Gs2
 BYTE   W12
//  #04 //080   ----------------------------------------
 BYTE   GoTo
  POIN2 Label_015F5E13
 BYTE   FINE

//**************** Track 5 (Midi-Chn.4) ****************//

song5F_005:
//  #05 //000   ----------------------------------------
 BYTE   VOL   100*song5F_mvl/mxv
 BYTE   KEYSH   song5F_key+0
 BYTE   VOICE   55
 BYTE   W96
//  #05 //001   ----------------------------------------
 BYTE   W96
//  #05 //002   ----------------------------------------
 BYTE   W96
//  #05 //003   ----------------------------------------
 BYTE   W96
//  #05 //004   ----------------------------------------
 BYTE   W96
//  #05 //005   ----------------------------------------
 BYTE   W96
//  #05 //006   ----------------------------------------
 BYTE   W96
//  #05 //007   ----------------------------------------
 BYTE   W96
//  #05 //008   ----------------------------------------
 BYTE   N24  Dn2  v127
 BYTE   W24
 BYTE   Ds2
 BYTE   W24
 BYTE   En2
 BYTE   W24
 BYTE   Fn2
 BYTE   W24
//  #05 //009   ----------------------------------------
 BYTE   Fs2
 BYTE   W24
 BYTE   Gn2
 BYTE   W24
 BYTE   Gs2
 BYTE   W24
 BYTE   An2
 BYTE   W24
//  #05 //010   ----------------------------------------
 BYTE   As2
 BYTE   W24
 BYTE   Bn2
 BYTE   W24
 BYTE   Cn3
 BYTE   W24
 BYTE   Cs3
 BYTE   W24
//  #05 //011   ----------------------------------------
 BYTE   Dn3
 BYTE   W24
 BYTE   Ds3
 BYTE   W24
 BYTE   En3
 BYTE   W24
 BYTE   Fn3
 BYTE   W24
//  #05 //012   ----------------------------------------
 BYTE   Fs3
 BYTE   W24
 BYTE   Gn3
 BYTE   W24
 BYTE   Gs3
 BYTE   W24
 BYTE   An3
 BYTE   W24
//  #05 //013   ----------------------------------------
 BYTE   As3
 BYTE   W24
 BYTE   Bn3
 BYTE   W24
 BYTE   Cn4
 BYTE   W24
 BYTE   Cs4
 BYTE   W24
//  #05 //014   ----------------------------------------
 BYTE   Dn4
 BYTE   W24
 BYTE   Ds4
 BYTE   W24
 BYTE   En4
 BYTE   W24
 BYTE   Fn4
 BYTE   W24
//  #05 //015   ----------------------------------------
 BYTE   Fs4
 BYTE   W24
 BYTE   Gn4
 BYTE   W24
 BYTE   Gs4
 BYTE   W24
 BYTE   An4
 BYTE   W21
 BYTE   W03
//  #05 //016   ----------------------------------------
Label_015F515D:
 BYTE   N42  Dn4  v127
 BYTE   W01
 BYTE   W92
 BYTE   W03
//  #05 //017   ----------------------------------------
Label_015F5163:
 BYTE   W72
 BYTE   N12  Cn4  v127
 BYTE   W12
 BYTE   N84  Dn4
 BYTE   W12
 BYTE   PEND 
//  #05 //018   ----------------------------------------
 BYTE   W96
//  #05 //019   ----------------------------------------
Label_015F516D:
 BYTE   N21  Dn4  v127
 BYTE   W24
 BYTE   En4
 BYTE   W24
 BYTE   Fn4
 BYTE   W24
 BYTE   Gn4
 BYTE   W24
 BYTE   PEND 
//  #05 //020   ----------------------------------------
 BYTE   N42  Dn4
 BYTE   W96
//  #05 //021   ----------------------------------------
 BYTE   W96
//  #05 //022   ----------------------------------------
Label_015F517C:
 BYTE   N42  Gn3  v127
 BYTE   W48
 BYTE   An3
 BYTE   W48
 BYTE   PEND 
//  #05 //023   ----------------------------------------
 BYTE   N21  As3
 BYTE   W24
 BYTE   Bn3
 BYTE   W24
 BYTE   N42  Cn4
 BYTE   W48
//  #05 //024   ----------------------------------------
 BYTE   Dn4
 BYTE   W96
//  #05 //025   ----------------------------------------
 BYTE   PATT
  POIN2 Label_015F5163
//  #05 //026   ----------------------------------------
 BYTE   W96
//  #05 //027   ----------------------------------------
 BYTE   PATT
  POIN2 Label_015F516D
//  #05 //028   ----------------------------------------
 BYTE   N42  Dn4  v127
 BYTE   W96
//  #05 //029   ----------------------------------------
 BYTE   W96
//  #05 //030   ----------------------------------------
 BYTE   PATT
  POIN2 Label_015F517C
//  #05 //031   ----------------------------------------
 BYTE   N42  Dn4  v127
 BYTE   W96
//  #05 //032   ----------------------------------------
 BYTE   W96
//  #05 //033   ----------------------------------------
 BYTE   W96
//  #05 //034   ----------------------------------------
 BYTE   W96
//  #05 //035   ----------------------------------------
 BYTE   W96
//  #05 //036   ----------------------------------------
 BYTE   W96
//  #05 //037   ----------------------------------------
 BYTE   W96
//  #05 //038   ----------------------------------------
 BYTE   W96
//  #05 //039   ----------------------------------------
 BYTE   W96
//  #05 //040   ----------------------------------------
 BYTE   W96
//  #05 //041   ----------------------------------------
 BYTE   W96
//  #05 //042   ----------------------------------------
 BYTE   W96
//  #05 //043   ----------------------------------------
 BYTE   W96
//  #05 //044   ----------------------------------------
 BYTE   W96
//  #05 //045   ----------------------------------------
 BYTE   W96
//  #05 //046   ----------------------------------------
 BYTE   W96
//  #05 //047   ----------------------------------------
 BYTE   W96
//  #05 //048   ----------------------------------------
 BYTE   W96
//  #05 //049   ----------------------------------------
 BYTE   W96
//  #05 //050   ----------------------------------------
 BYTE   W96
//  #05 //051   ----------------------------------------
 BYTE   W96
//  #05 //052   ----------------------------------------
 BYTE   W96
//  #05 //053   ----------------------------------------
 BYTE   W96
//  #05 //054   ----------------------------------------
 BYTE   W96
//  #05 //055   ----------------------------------------
 BYTE   W96
//  #05 //056   ----------------------------------------
 BYTE   W96
//  #05 //057   ----------------------------------------
 BYTE   W96
//  #05 //058   ----------------------------------------
 BYTE   W96
//  #05 //059   ----------------------------------------
 BYTE   W96
//  #05 //060   ----------------------------------------
 BYTE   W96
//  #05 //061   ----------------------------------------
 BYTE   W96
//  #05 //062   ----------------------------------------
 BYTE   W96
//  #05 //063   ----------------------------------------
 BYTE   W96
//  #05 //064   ----------------------------------------
 BYTE   Ds4
 BYTE   W96
//  #05 //065   ----------------------------------------
Label_015F51C8:
 BYTE   W72
 BYTE   N12  Cs4  v127
 BYTE   W12
 BYTE   N84  Ds4
 BYTE   W12
 BYTE   PEND 
//  #05 //066   ----------------------------------------
 BYTE   W96
//  #05 //067   ----------------------------------------
Label_015F51D2:
 BYTE   N21  Ds4  v127
 BYTE   W24
 BYTE   Fn4
 BYTE   W24
 BYTE   Fs4
 BYTE   W24
 BYTE   Gs4
 BYTE   W24
 BYTE   PEND 
//  #05 //068   ----------------------------------------
 BYTE   N42  Ds4
 BYTE   W96
//  #05 //069   ----------------------------------------
 BYTE   W96
//  #05 //070   ----------------------------------------
Label_015F51E1:
 BYTE   N42  Gs3  v127
 BYTE   W48
 BYTE   As3
 BYTE   W48
 BYTE   PEND 
//  #05 //071   ----------------------------------------
 BYTE   N21  Bn3
 BYTE   W24
 BYTE   Cn4
 BYTE   W24
 BYTE   N42  Cs4
 BYTE   W48
//  #05 //072   ----------------------------------------
 BYTE   Ds4
 BYTE   W96
//  #05 //073   ----------------------------------------
 BYTE   PATT
  POIN2 Label_015F51C8
//  #05 //074   ----------------------------------------
 BYTE   W96
//  #05 //075   ----------------------------------------
 BYTE   PATT
  POIN2 Label_015F51D2
//  #05 //076   ----------------------------------------
 BYTE   N42  Ds4  v127
 BYTE   W96
//  #05 //077   ----------------------------------------
 BYTE   W96
//  #05 //078   ----------------------------------------
 BYTE   PATT
  POIN2 Label_015F51E1
//  #05 //079   ----------------------------------------
 BYTE   N42  Ds4  v127
 BYTE   W96
//  #05 //080   ----------------------------------------
 BYTE   GoTo
  POIN2 Label_015F515D
 BYTE   FINE

//**************** Track 6 (Midi-Chn.5) ****************//

song5F_006:
//  #06 //000   ----------------------------------------
 BYTE   KEYSH   song5F_key+0
 BYTE   VOICE   124
 BYTE   VOL   37*song5F_mvl/mxv
 BYTE   N01  Cn1  v127
 BYTE   N01  Fs1  v120
 BYTE   N01  Cs2  v108
 BYTE   W12
 BYTE   As1  v120
 BYTE   W12
 BYTE   Fs1
 BYTE   W12
 BYTE   As1
 BYTE   W12
 BYTE   Fs1
 BYTE   W12
 BYTE   As1
 BYTE   W12
 BYTE   Fs1
 BYTE   W12
 BYTE   As1
 BYTE   W12
//  #06 //001   ----------------------------------------
Label_015FAF73:
 BYTE   N01  Fs1  v120
 BYTE   W12
 BYTE   As1
 BYTE   W12
 BYTE   Fs1
 BYTE   W12
 BYTE   As1
 BYTE   W12
 BYTE   Fs1
 BYTE   W12
 BYTE   As1
 BYTE   W12
 BYTE   Fs1
 BYTE   N01  An2  v108
 BYTE   W12
 BYTE   As1  v120
 BYTE   W12
 BYTE   PEND 
//  #06 //002   ----------------------------------------
 BYTE   Cn1  v127
 BYTE   N01  Fs1  v120
 BYTE   N01  Cs2  v108
 BYTE   W12
 BYTE   As1  v120
 BYTE   W12
 BYTE   Fs1
 BYTE   W12
 BYTE   As1
 BYTE   W12
 BYTE   Fs1
 BYTE   W12
 BYTE   As1
 BYTE   W12
 BYTE   Fs1
 BYTE   W12
 BYTE   As1
 BYTE   W12
//  #06 //003   ----------------------------------------
 BYTE   PATT
  POIN2 Label_015FAF73
//  #06 //004   ----------------------------------------
Label_015FAFA7:
 BYTE   N01  Cn1  v127
 BYTE   N01  Fs1  v120
 BYTE   N01  Cs2  v108
 BYTE   W12
 BYTE   As1  v120
 BYTE   W12
 BYTE   Fs1
 BYTE   W12
 BYTE   As1
 BYTE   W12
 BYTE   Fs1
 BYTE   W12
 BYTE   As1
 BYTE   W12
 BYTE   Fs1
 BYTE   N01  An2  v108
 BYTE   W12
 BYTE   As1  v120
 BYTE   W12
 BYTE   PEND 
//  #06 //005   ----------------------------------------
 BYTE   PATT
  POIN2 Label_015FAFA7
//  #06 //006   ----------------------------------------
 BYTE   N01  Cn1  v127
 BYTE   N01  Fs1  v120
 BYTE   N01  Cs2  v108
 BYTE   W12
 BYTE   As1  v120
 BYTE   W12
 BYTE   Fs1
 BYTE   W12
 BYTE   As1
 BYTE   W12
 BYTE   Cn1  v127
 BYTE   N01  Fs1  v120
 BYTE   N01  Cs2  v108
 BYTE   W12
 BYTE   As1  v120
 BYTE   W12
 BYTE   Fs1
 BYTE   W12
 BYTE   As1
 BYTE   W12
//  #06 //007   ----------------------------------------
 BYTE   Cn1  v127
 BYTE   N01  Fs1  v120
 BYTE   N01  An2  v108
 BYTE   W12
 BYTE   As1  v120
 BYTE   W12
 BYTE   Cn1  v127
 BYTE   N01  Fs1  v120
 BYTE   N01  An2  v108
 BYTE   W12
 BYTE   As1  v120
 BYTE   W12
 BYTE   Cn1  v127
 BYTE   N01  Fs1  v120
 BYTE   N01  An2  v108
 BYTE   W12
 BYTE   Cn1  v127
 BYTE   N01  As1  v120
 BYTE   W06
 BYTE   Cn1  v127
 BYTE   W06
 BYTE   N01
 BYTE   N01  Fs1  v120
 BYTE   W12
 BYTE   Cn1  v127
 BYTE   N01  As1  v120
 BYTE   W12
//  #06 //008   ----------------------------------------
 BYTE   Cn1  v127
 BYTE   N01  Fs1  v120
 BYTE   N01  An2  v108
 BYTE   W12
 BYTE   As1  v120
 BYTE   W12
 BYTE   Cn1  v127
 BYTE   N01  Fs1  v120
 BYTE   W12
 BYTE   As1
 BYTE   W12
 BYTE   Cn1  v127
 BYTE   N01  Fs1  v120
 BYTE   W12
 BYTE   As1
 BYTE   W12
 BYTE   Cn1  v127
 BYTE   N01  Fs1  v120
 BYTE   W12
 BYTE   As1
 BYTE   W12
//  #06 //009   ----------------------------------------
 BYTE   Cn1  v127
 BYTE   N01  Fs1  v120
 BYTE   W12
 BYTE   As1
 BYTE   W12
 BYTE   Cn1  v127
 BYTE   N01  Fs1  v120
 BYTE   W12
 BYTE   As1
 BYTE   W12
 BYTE   Cn1  v127
 BYTE   N01  Fs1  v120
 BYTE   W12
 BYTE   Cn1  v127
 BYTE   N01  As1  v120
 BYTE   W06
 BYTE   Cn1  v127
 BYTE   W06
 BYTE   N01
 BYTE   N01  Fs1  v120
 BYTE   N01  An2  v108
 BYTE   W12
 BYTE   Cn1  v127
 BYTE   N01  As1  v120
 BYTE   W12
//  #06 //010   ----------------------------------------
 BYTE   Cn1  v127
 BYTE   N01  Fs1  v120
 BYTE   N01  Cs2  v108
 BYTE   W12
 BYTE   As1  v120
 BYTE   W12
 BYTE   Cn1  v127
 BYTE   N01  Fs1  v120
 BYTE   W12
 BYTE   As1
 BYTE   W12
 BYTE   Cn1  v127
 BYTE   N01  Fs1  v120
 BYTE   W12
 BYTE   As1
 BYTE   W12
 BYTE   Cn1  v127
 BYTE   N01  Fs1  v120
 BYTE   W12
 BYTE   As1
 BYTE   W12
//  #06 //011   ----------------------------------------
 BYTE   Cn1  v127
 BYTE   N01  Fs1  v120
 BYTE   W12
 BYTE   As1
 BYTE   W12
 BYTE   Cn1  v127
 BYTE   N01  Fs1  v120
 BYTE   W12
 BYTE   Cn1  v127
 BYTE   N01  As1  v120
 BYTE   W12
 BYTE   Cn1  v127
 BYTE   N01  Fs1  v120
 BYTE   W12
 BYTE   Cn1  v127
 BYTE   N01  As1  v120
 BYTE   W06
 BYTE   Cn1  v127
 BYTE   W06
 BYTE   N01
 BYTE   N01  Fs1  v120
 BYTE   N01  An2  v108
 BYTE   W12
 BYTE   Cn1  v127
 BYTE   N01  As1  v120
 BYTE   W12
//  #06 //012   ----------------------------------------
Label_015FB0C6:
 BYTE   N01  Cn1  v127
 BYTE   N01  Fs1  v120
 BYTE   N01  Cs2  v108
 BYTE   W12
 BYTE   As1  v120
 BYTE   W12
 BYTE   Cn1  v127
 BYTE   N01  Fs1  v120
 BYTE   W12
 BYTE   As1
 BYTE   W12
 BYTE   Cn1  v127
 BYTE   N01  Fs1  v120
 BYTE   W12
 BYTE   Cn1  v127
 BYTE   N01  As1  v120
 BYTE   W12
 BYTE   Cn1  v127
 BYTE   N01  Fs1  v120
 BYTE   N01  An2  v108
 BYTE   W12
 BYTE   As1  v120
 BYTE   W12
 BYTE   PEND 
//  #06 //013   ----------------------------------------
 BYTE   PATT
  POIN2 Label_015FB0C6
//  #06 //014   ----------------------------------------
 BYTE   N01  Cn1  v127
 BYTE   N01  Fs1  v120
 BYTE   N01  Cs2  v108
 BYTE   W12
 BYTE   Cn1  v127
 BYTE   N01  As1  v120
 BYTE   W12
 BYTE   Cn1  v127
 BYTE   N01  Fs1  v120
 BYTE   W12
 BYTE   As1
 BYTE   W12
 BYTE   Cn1  v127
 BYTE   N01  Fs1  v120
 BYTE   N01  Cs2  v108
 BYTE   W12
 BYTE   Cn1  v127
 BYTE   N01  As1  v120
 BYTE   W12
 BYTE   Cn1  v127
 BYTE   N01  Fs1  v120
 BYTE   W12
 BYTE   As1
 BYTE   W12
//  #06 //015   ----------------------------------------
 BYTE   Cn1  v127
 BYTE   N01  Fs1  v120
 BYTE   N01  An2  v108
 BYTE   W12
 BYTE   Cn1  v127
 BYTE   N01  As1  v120
 BYTE   W12
 BYTE   Cn1  v127
 BYTE   N01  Fs1  v120
 BYTE   N01  An2  v108
 BYTE   W12
 BYTE   Cn1  v127
 BYTE   N01  As1  v120
 BYTE   W12
 BYTE   Cn1  v127
 BYTE   N01  Fs1  v120
 BYTE   N01  An2  v108
 BYTE   W12
 BYTE   As1  v120
 BYTE   W06
 BYTE   Cn1  v127
 BYTE   W06
 BYTE   N01
 BYTE   N01  Fs1  v120
 BYTE   N01  An2  v108
 BYTE   W12
 BYTE   Cn1  v127
 BYTE   N01  As1  v120
 BYTE   W12
//  #06 //016   ----------------------------------------
Label_015FB163:
 BYTE   N01  Cn1  v127
 BYTE   N01  Fs1  v120
 BYTE   N01  Cs2  v108
 BYTE   W06
 BYTE   Fs1  v120
 BYTE   W06
 BYTE   As1
 BYTE   W12
 BYTE   Cn1  v127
 BYTE   N01  Fs1  v120
 BYTE   W12
 BYTE   As1
 BYTE   W12
 BYTE   Cn1  v127
 BYTE   N01  Fs1  v120
 BYTE   W06
 BYTE   N01
 BYTE   W06
 BYTE   As1
 BYTE   W12
 BYTE   Cn1  v127
 BYTE   N01  Fs1  v120
 BYTE   W12
 BYTE   As1
 BYTE   W12
 BYTE   PEND 
//  #06 //017   ----------------------------------------
Label_015FB18D:
 BYTE   N01  Cn1  v127
 BYTE   N01  Fs1  v120
 BYTE   W06
 BYTE   N01
 BYTE   W06
 BYTE   As1
 BYTE   W12
 BYTE   Cn1  v127
 BYTE   N01  Fs1  v120
 BYTE   W12
 BYTE   As1
 BYTE   W12
 BYTE   Cn1  v127
 BYTE   N01  Fs1  v120
 BYTE   W06
 BYTE   N01
 BYTE   W06
 BYTE   As1
 BYTE   W06
 BYTE   Fs1
 BYTE   W06
 BYTE   Cn1  v127
 BYTE   N01  Fs1  v120
 BYTE   W12
 BYTE   As1
 BYTE   W12
 BYTE   PEND 
//  #06 //018   ----------------------------------------
Label_015FB1B5:
 BYTE   N01  Cn1  v127
 BYTE   N01  Fs1  v120
 BYTE   W06
 BYTE   N01
 BYTE   W06
 BYTE   As1
 BYTE   W12
 BYTE   Cn1  v127
 BYTE   N01  Fs1  v120
 BYTE   W12
 BYTE   As1
 BYTE   W12
 BYTE   Cn1  v127
 BYTE   N01  Fs1  v120
 BYTE   W06
 BYTE   N01
 BYTE   W06
 BYTE   As1
 BYTE   W12
 BYTE   Cn1  v127
 BYTE   N01  Fs1  v120
 BYTE   W12
 BYTE   As1
 BYTE   W12
 BYTE   PEND 
//  #06 //019   ----------------------------------------
Label_015FB1DB:
 BYTE   N01  Cn1  v127
 BYTE   N01  Fs1  v120
 BYTE   W06
 BYTE   N01
 BYTE   W06
 BYTE   As1
 BYTE   W12
 BYTE   Cn1  v127
 BYTE   N01  Fs1  v120
 BYTE   W12
 BYTE   As1
 BYTE   W12
 BYTE   Cn1  v127
 BYTE   N01  Fs1  v120
 BYTE   W06
 BYTE   N01
 BYTE   W06
 BYTE   As1
 BYTE   W06
 BYTE   Fs1
 BYTE   W06
 BYTE   Cn1  v127
 BYTE   N01  Fs1  v120
 BYTE   W12
 BYTE   Cn1  v127
 BYTE   N01  As1  v120
 BYTE   W12
 BYTE   PEND 
//  #06 //020   ----------------------------------------
 BYTE   PATT
  POIN2 Label_015FB163
//  #06 //021   ----------------------------------------
 BYTE   PATT
  POIN2 Label_015FB1DB
//  #06 //022   ----------------------------------------
 BYTE   N01  Cn1  v127
 BYTE   N01  Fs1  v120
 BYTE   N01  Cs2  v108
 BYTE   W12
 BYTE   Fs1  v120
 BYTE   W06
 BYTE   N01
 BYTE   W06
 BYTE   Cn1  v127
 BYTE   N01  As1  v120
 BYTE   W12
 BYTE   Fs1
 BYTE   W12
 BYTE   Cn1  v127
 BYTE   N01  Fs1  v120
 BYTE   N01  Cs2  v108
 BYTE   W12
 BYTE   Fs1  v120
 BYTE   W06
 BYTE   N01
 BYTE   W06
 BYTE   Cn1  v127
 BYTE   N01  As1  v120
 BYTE   W12
 BYTE   Fs1
 BYTE   W12
//  #06 //023   ----------------------------------------
 BYTE   Cn1  v127
 BYTE   N01  Fs1  v120
 BYTE   N01  An2  v108
 BYTE   W12
 BYTE   As1  v120
 BYTE   W12
 BYTE   Cn1  v127
 BYTE   N01  Fs1  v120
 BYTE   N01  An2  v108
 BYTE   W12
 BYTE   As1  v120
 BYTE   W12
 BYTE   Cn1  v127
 BYTE   N01  Fs1  v120
 BYTE   N01  An2  v108
 BYTE   W12
 BYTE   Cn1  v127
 BYTE   N01  As1  v120
 BYTE   W12
 BYTE   Cn1  v127
 BYTE   N01  As1  v120
 BYTE   W06
 BYTE   Fs1
 BYTE   W06
 BYTE   Cn1  v127
 BYTE   N01  Fs1  v120
 BYTE   W06
 BYTE   N01
 BYTE   W06
//  #06 //024   ----------------------------------------
 BYTE   PATT
  POIN2 Label_015FB163
//  #06 //025   ----------------------------------------
 BYTE   PATT
  POIN2 Label_015FB18D
//  #06 //026   ----------------------------------------
 BYTE   PATT
  POIN2 Label_015FB1B5
//  #06 //027   ----------------------------------------
 BYTE   PATT
  POIN2 Label_015FB1DB
//  #06 //028   ----------------------------------------
 BYTE   PATT
  POIN2 Label_015FB163
//  #06 //029   ----------------------------------------
Label_015FB28E:
 BYTE   N01  Cn1  v127
 BYTE   N01  Fs1  v120
 BYTE   N01  Cs2  v108
 BYTE   W06
 BYTE   Fs1  v120
 BYTE   W06
 BYTE   As1
 BYTE   W12
 BYTE   Cn1  v127
 BYTE   N01  Fs1  v120
 BYTE   W12
 BYTE   As1
 BYTE   W12
 BYTE   Cn1  v127
 BYTE   N01  Fs1  v120
 BYTE   W06
 BYTE   N01
 BYTE   W06
 BYTE   As1
 BYTE   W06
 BYTE   Fs1
 BYTE   W06
 BYTE   Cn1  v127
 BYTE   N01  Fs1  v120
 BYTE   W12
 BYTE   As1
 BYTE   W12
 BYTE   PEND 
//  #06 //030   ----------------------------------------
Label_015FB2BA:
 BYTE   N01  Cn1  v127
 BYTE   N01  Fs1  v120
 BYTE   N01  Cs2  v108
 BYTE   W06
 BYTE   Fs1  v120
 BYTE   W06
 BYTE   As1
 BYTE   W12
 BYTE   Cn1  v127
 BYTE   N01  Fs1  v120
 BYTE   W12
 BYTE   As1
 BYTE   W12
 BYTE   Cn1  v127
 BYTE   N01  Fs1  v120
 BYTE   N01  Cs2  v108
 BYTE   W06
 BYTE   Fs1  v120
 BYTE   W06
 BYTE   As1
 BYTE   W12
 BYTE   Cn1  v127
 BYTE   N01  Fs1  v120
 BYTE   W12
 BYTE   As1
 BYTE   W12
 BYTE   PEND 
//  #06 //031   ----------------------------------------
Label_015FB2E8:
 BYTE   N01  Cn1  v127
 BYTE   N01  Fs1  v120
 BYTE   N01  An2  v108
 BYTE   W06
 BYTE   Fs1  v120
 BYTE   W06
 BYTE   As1
 BYTE   W12
 BYTE   Cn1  v127
 BYTE   N01  Fs1  v120
 BYTE   N01  An2  v108
 BYTE   W12
 BYTE   As1  v120
 BYTE   W12
 BYTE   Cn1  v127
 BYTE   N01  Fs1  v120
 BYTE   N01  An2  v108
 BYTE   W06
 BYTE   Fs1  v120
 BYTE   W06
 BYTE   As1
 BYTE   W06
 BYTE   Cn1  v127
 BYTE   N01  Fs1  v120
 BYTE   W06
 BYTE   Cn1  v127
 BYTE   N01  Fs1  v120
 BYTE   N01  An2  v108
 BYTE   W12
 BYTE   Cn1  v127
 BYTE   N01  As1  v120
 BYTE   W12
 BYTE   PEND 
//  #06 //032   ----------------------------------------
 BYTE   PATT
  POIN2 Label_015FB163
//  #06 //033   ----------------------------------------
 BYTE   PATT
  POIN2 Label_015FB18D
//  #06 //034   ----------------------------------------
 BYTE   PATT
  POIN2 Label_015FB1B5
//  #06 //035   ----------------------------------------
 BYTE   PATT
  POIN2 Label_015FB1DB
//  #06 //036   ----------------------------------------
 BYTE   PATT
  POIN2 Label_015FB1B5
//  #06 //037   ----------------------------------------
 BYTE   PATT
  POIN2 Label_015FB18D
//  #06 //038   ----------------------------------------
 BYTE   PATT
  POIN2 Label_015FB2BA
//  #06 //039   ----------------------------------------
Label_015FB34A:
 BYTE   N01  Cn1  v127
 BYTE   N01  Fs1  v120
 BYTE   N01  Cs2  v108
 BYTE   W06
 BYTE   Fs1  v120
 BYTE   W06
 BYTE   As1
 BYTE   W12
 BYTE   Cn1  v127
 BYTE   N01  Fs1  v120
 BYTE   N01  Cs2  v108
 BYTE   W12
 BYTE   As1  v120
 BYTE   W12
 BYTE   Cn1  v127
 BYTE   N01  Fs1  v120
 BYTE   N01  Cs2  v108
 BYTE   W06
 BYTE   Fs1  v120
 BYTE   W06
 BYTE   Cn1  v127
 BYTE   N01  As1  v120
 BYTE   W06
 BYTE   Fs1
 BYTE   W06
 BYTE   Cn1  v127
 BYTE   N01  Fs1  v120
 BYTE   W12
 BYTE   Cn1  v127
 BYTE   N01  As1  v120
 BYTE   W12
 BYTE   PEND 
//  #06 //040   ----------------------------------------
 BYTE   PATT
  POIN2 Label_015FB163
//  #06 //041   ----------------------------------------
 BYTE   PATT
  POIN2 Label_015FB18D
//  #06 //042   ----------------------------------------
 BYTE   PATT
  POIN2 Label_015FB1B5
//  #06 //043   ----------------------------------------
 BYTE   PATT
  POIN2 Label_015FB1DB
//  #06 //044   ----------------------------------------
 BYTE   PATT
  POIN2 Label_015FB163
//  #06 //045   ----------------------------------------
 BYTE   N01  Cn1  v127
 BYTE   N01  Fs1  v120
 BYTE   N01  Cs2  v108
 BYTE   W06
 BYTE   Fs1  v120
 BYTE   W06
 BYTE   As1
 BYTE   W12
 BYTE   Cn1  v127
 BYTE   N01  Fs1  v120
 BYTE   W12
 BYTE   As1
 BYTE   W12
 BYTE   Cn1  v127
 BYTE   N01  Fs1  v120
 BYTE   W06
 BYTE   N01
 BYTE   W06
 BYTE   As1
 BYTE   W06
 BYTE   Fs1
 BYTE   W06
 BYTE   Cn1  v127
 BYTE   N01  Fs1  v120
 BYTE   N01  An2  v108
 BYTE   W12
 BYTE   As1  v120
 BYTE   W12
//  #06 //046   ----------------------------------------
 BYTE   PATT
  POIN2 Label_015FB2BA
//  #06 //047   ----------------------------------------
 BYTE   N01  Cn1  v127
 BYTE   N01  Fs1  v120
 BYTE   N01  Cs2  v108
 BYTE   W06
 BYTE   Fs1  v120
 BYTE   W06
 BYTE   As1
 BYTE   W12
 BYTE   Cn1  v127
 BYTE   N01  Fs1  v120
 BYTE   N01  Cs2  v108
 BYTE   W12
 BYTE   As1  v120
 BYTE   W12
 BYTE   Cn1  v127
 BYTE   N01  Fs1  v120
 BYTE   N01  Cs2  v108
 BYTE   W06
 BYTE   Fs1  v120
 BYTE   W06
 BYTE   As1
 BYTE   W06
 BYTE   Cn1  v127
 BYTE   N01  Fs1  v120
 BYTE   W06
 BYTE   Cn1  v127
 BYTE   N01  Fs1  v120
 BYTE   N01  Cs2  v108
 BYTE   W12
 BYTE   Cn1  v127
 BYTE   N01  As1  v120
 BYTE   W12
//  #06 //048   ----------------------------------------
 BYTE   PATT
  POIN2 Label_015FB163
//  #06 //049   ----------------------------------------
 BYTE   PATT
  POIN2 Label_015FB18D
//  #06 //050   ----------------------------------------
 BYTE   PATT
  POIN2 Label_015FB1B5
//  #06 //051   ----------------------------------------
 BYTE   PATT
  POIN2 Label_015FB1DB
//  #06 //052   ----------------------------------------
 BYTE   PATT
  POIN2 Label_015FB1B5
//  #06 //053   ----------------------------------------
 BYTE   PATT
  POIN2 Label_015FB18D
//  #06 //054   ----------------------------------------
 BYTE   PATT
  POIN2 Label_015FB2BA
//  #06 //055   ----------------------------------------
 BYTE   PATT
  POIN2 Label_015FB34A
//  #06 //056   ----------------------------------------
 BYTE   PATT
  POIN2 Label_015FB163
//  #06 //057   ----------------------------------------
 BYTE   PATT
  POIN2 Label_015FB18D
//  #06 //058   ----------------------------------------
 BYTE   PATT
  POIN2 Label_015FB1B5
//  #06 //059   ----------------------------------------
 BYTE   PATT
  POIN2 Label_015FB1DB
//  #06 //060   ----------------------------------------
 BYTE   PATT
  POIN2 Label_015FB163
//  #06 //061   ----------------------------------------
 BYTE   PATT
  POIN2 Label_015FB28E
//  #06 //062   ----------------------------------------
 BYTE   N01  Cn1  v127
 BYTE   N01  Fs1  v120
 BYTE   N01  Cs2  v108
 BYTE   W06
 BYTE   Fs1  v120
 BYTE   W06
 BYTE   As1
 BYTE   W12
 BYTE   Cn1  v127
 BYTE   N01  Fs1  v120
 BYTE   W12
 BYTE   As1
 BYTE   W12
 BYTE   Cn1  v127
 BYTE   N01  Fs1  v120
 BYTE   N01  Cs2  v108
 BYTE   W06
 BYTE   Fs1  v120
 BYTE   W06
 BYTE   As1
 BYTE   W12
 BYTE   Cn1  v127
 BYTE   N01  Fs1  v120
 BYTE   W12
 BYTE   Cn1  v127
 BYTE   N01  As1  v120
 BYTE   N01  An2  v108
 BYTE   W12
//  #06 //063   ----------------------------------------
 BYTE   Fs1  v120
 BYTE   W06
 BYTE   N01
 BYTE   W06
 BYTE   Cn1  v127
 BYTE   N01  As1  v120
 BYTE   W12
 BYTE   Cn1  v127
 BYTE   N01  Fs1  v120
 BYTE   N01  An2  v108
 BYTE   W12
 BYTE   As1  v120
 BYTE   W12
 BYTE   Cn1  v127
 BYTE   N01  Fs1  v120
 BYTE   N01  An2  v108
 BYTE   W24
 BYTE   Cn1  v127
 BYTE   N01  Fs1  v120
 BYTE   N01  Cs2  v108
 BYTE   W12
 BYTE   As1  v120
 BYTE   W12
//  #06 //064   ----------------------------------------
 BYTE   PATT
  POIN2 Label_015FB163
//  #06 //065   ----------------------------------------
 BYTE   PATT
  POIN2 Label_015FB18D
//  #06 //066   ----------------------------------------
 BYTE   PATT
  POIN2 Label_015FB1B5
//  #06 //067   ----------------------------------------
 BYTE   PATT
  POIN2 Label_015FB1DB
//  #06 //068   ----------------------------------------
 BYTE   PATT
  POIN2 Label_015FB163
//  #06 //069   ----------------------------------------
 BYTE   PATT
  POIN2 Label_015FB18D
//  #06 //070   ----------------------------------------
 BYTE   PATT
  POIN2 Label_015FB2BA
//  #06 //071   ----------------------------------------
 BYTE   N01  Cn1  v127
 BYTE   N01  Fs1  v120
 BYTE   N01  An2  v108
 BYTE   W06
 BYTE   Fs1  v120
 BYTE   W06
 BYTE   As1
 BYTE   W12
 BYTE   Cn1  v127
 BYTE   N01  Fs1  v120
 BYTE   N01  An2  v108
 BYTE   W12
 BYTE   As1  v120
 BYTE   W12
 BYTE   Cn1  v127
 BYTE   N01  Fs1  v120
 BYTE   N01  An2  v108
 BYTE   W06
 BYTE   Fs1  v120
 BYTE   W06
 BYTE   Cn1  v127
 BYTE   N01  As1  v120
 BYTE   W06
 BYTE   Fs1
 BYTE   W06
 BYTE   Cn1  v127
 BYTE   N01  Fs1  v120
 BYTE   W12
 BYTE   Cn1  v127
 BYTE   N01  As1  v120
 BYTE   W12
//  #06 //072   ----------------------------------------
 BYTE   PATT
  POIN2 Label_015FB163
//  #06 //073   ----------------------------------------
 BYTE   PATT
  POIN2 Label_015FB18D
//  #06 //074   ----------------------------------------
 BYTE   PATT
  POIN2 Label_015FB1B5
//  #06 //075   ----------------------------------------
 BYTE   PATT
  POIN2 Label_015FB1DB
//  #06 //076   ----------------------------------------
 BYTE   PATT
  POIN2 Label_015FB163
//  #06 //077   ----------------------------------------
 BYTE   PATT
  POIN2 Label_015FB28E
//  #06 //078   ----------------------------------------
 BYTE   N01  Cn1  v127
 BYTE   N01  Cs2  v108
 BYTE   W48
 BYTE   Cn1  v127
 BYTE   N01  Cs2  v108
 BYTE   W48
//  #06 //079   ----------------------------------------
 BYTE   PATT
  POIN2 Label_015FB2E8
//  #06 //080   ----------------------------------------
 BYTE   GoTo
  POIN2 Label_015FB163
 BYTE   FINE

//******************************************************//
	ALIGN 4

song5F:
	BYTE	6	// NumTrks
	BYTE	0	// NumBlks
	BYTE	song5F_pri	// Priority
	BYTE	song5F_rev	// Reverb.
    
	POIN2	song5F_grp
    
	POIN2	song5F_001
	POIN2	song5F_002
	POIN2	song5F_003
	POIN2	song5F_004
	POIN2	song5F_005
	POIN2	song5F_006

	
