//Event file generated from Sappy .s format.
	#include "MPlayDef.event"

	#define	song64_grp  voicegroup000
	#define	song64_pri  0
	#define	song64_rev  0
	#define	song64_mvl  127
	#define	song64_key  0
	#define	song64_tbs  1
	#define	song64_exg  0
	#define	song64_cmp  1

	// .rodata
	//	song64
	ALIGN 4


//**************** Track 1 (Midi-Chn.0) ****************//

song64_001:
//  #01 //000   ----------------------------------------
 BYTE   KEYSH   song64_key+0
 BYTE   TEMPO   166*song64_tbs/2
 BYTE   VOICE   110
 BYTE   VOL   50*song64_mvl/mxv
 BYTE   PAN   c_v-18
 BYTE   W96
//  #01 //001   ----------------------------------------
Label_015F5D5B:
 BYTE   N11  En3  v100
 BYTE   W12
 BYTE   Fs3
 BYTE   W12
 BYTE   Gn3
 BYTE   W12
 BYTE   An3
 BYTE   W12
 BYTE   Bn3
 BYTE   W12
 BYTE   Cn4
 BYTE   W12
 BYTE   Dn4
 BYTE   W12
 BYTE   En4
 BYTE   W12
 BYTE   PEND 
//  #01 //002   ----------------------------------------
Label_015F5D6E:
 BYTE   N11  Fs4  v100
 BYTE   W12
 BYTE   Gn4
 BYTE   W12
 BYTE   An4
 BYTE   W12
 BYTE   Bn4
 BYTE   W12
 BYTE   Cn5
 BYTE   W12
 BYTE   Dn5
 BYTE   W12
 BYTE   En5
 BYTE   W12
 BYTE   Fs5
 BYTE   W12
 BYTE   PEND 
//  #01 //003   ----------------------------------------
 BYTE   PATT
  POIN2 Label_015F5D5B
//  #01 //004   ----------------------------------------
 BYTE   PATT
  POIN2 Label_015F5D6E
//  #01 //005   ----------------------------------------
 BYTE   PATT
  POIN2 Label_015F5D5B
//  #01 //006   ----------------------------------------
 BYTE   PATT
  POIN2 Label_015F5D6E
//  #01 //007   ----------------------------------------
 BYTE   PATT
  POIN2 Label_015F5D5B
//  #01 //008   ----------------------------------------
 BYTE   PATT
  POIN2 Label_015F5D6E
//  #01 //009   ----------------------------------------
 BYTE   W96
//  #01 //010   ----------------------------------------
 BYTE   W96
//  #01 //011   ----------------------------------------
 BYTE   W96
//  #01 //012   ----------------------------------------
 BYTE   W96
//  #01 //013   ----------------------------------------
 BYTE   W96
//  #01 //014   ----------------------------------------
 BYTE   W96
//  #01 //015   ----------------------------------------
 BYTE   W96
//  #01 //016   ----------------------------------------
 BYTE   W96
//  #01 //017   ----------------------------------------
Label_015F5DA7:
 BYTE   W96
//  #01 //018   ----------------------------------------
 BYTE   W96
//  #01 //019   ----------------------------------------
 BYTE   W96
//  #01 //020   ----------------------------------------
 BYTE   W96
//  #01 //021   ----------------------------------------
 BYTE   W96
//  #01 //022   ----------------------------------------
 BYTE   W96
//  #01 //023   ----------------------------------------
 BYTE   W96
//  #01 //024   ----------------------------------------
 BYTE   W96
//  #01 //025   ----------------------------------------
 BYTE   W96
//  #01 //026   ----------------------------------------
 BYTE   W96
//  #01 //027   ----------------------------------------
 BYTE   W96
//  #01 //028   ----------------------------------------
 BYTE   W96
//  #01 //029   ----------------------------------------
 BYTE   W96
//  #01 //030   ----------------------------------------
 BYTE   W96
//  #01 //031   ----------------------------------------
 BYTE   W96
//  #01 //032   ----------------------------------------
 BYTE   W96
//  #01 //033   ----------------------------------------
 BYTE   W96
//  #01 //034   ----------------------------------------
 BYTE   W96
//  #01 //035   ----------------------------------------
 BYTE   W96
//  #01 //036   ----------------------------------------
 BYTE   W96
//  #01 //037   ----------------------------------------
 BYTE   W96
//  #01 //038   ----------------------------------------
 BYTE   W96
//  #01 //039   ----------------------------------------
 BYTE   W96
//  #01 //040   ----------------------------------------
 BYTE   W96
//  #01 //041   ----------------------------------------
 BYTE   PAN   c_v-18
 BYTE   N11  En4  v100
 BYTE   W24
 BYTE   En4  v096
 BYTE   W12
 BYTE   Gn4  v100
 BYTE   W24
 BYTE   Fs4  v096
 BYTE   W24
 BYTE   An4  v100
 BYTE   W12
//  #01 //042   ----------------------------------------
Label_015F5DD1:
 BYTE   W12
 BYTE   N11  Gn4  v096
 BYTE   W12
 BYTE   Bn4  v100
 BYTE   W24
 BYTE   As4
 BYTE   W24
 BYTE   An4  v096
 BYTE   W24
 BYTE   PEND 
//  #01 //043   ----------------------------------------
Label_015F5DDF:
 BYTE   N11  En4  v100
 BYTE   W24
 BYTE   En4  v096
 BYTE   W12
 BYTE   Gn4  v100
 BYTE   W24
 BYTE   Fs4  v096
 BYTE   W24
 BYTE   An4  v100
 BYTE   W12
 BYTE   PEND 
//  #01 //044   ----------------------------------------
Label_015F5DF0:
 BYTE   W12
 BYTE   N11  Dn4  v100
 BYTE   W12
 BYTE   Dn4  v096
 BYTE   W72
 BYTE   PEND 
//  #01 //045   ----------------------------------------
 BYTE   PATT
  POIN2 Label_015F5DDF
//  #01 //046   ----------------------------------------
 BYTE   PATT
  POIN2 Label_015F5DD1
//  #01 //047   ----------------------------------------
 BYTE   PATT
  POIN2 Label_015F5DDF
//  #01 //048   ----------------------------------------
 BYTE   PATT
  POIN2 Label_015F5DF0
//  #01 //049   ----------------------------------------
 BYTE   W96
//  #01 //050   ----------------------------------------
Label_015F5E0E:
 BYTE   W24
 BYTE   N22  En4  v096
 BYTE   W24
 BYTE   Fs4  v100
 BYTE   W24
 BYTE   Gn4
 BYTE   W24
 BYTE   PEND 
//  #01 //051   ----------------------------------------
Label_015F5E19:
 BYTE   N44  An4  v096
 BYTE   W48
 BYTE   Bn4  v100
 BYTE   W48
 BYTE   PEND 
//  #01 //052   ----------------------------------------
Label_015F5E21:
 BYTE   N44  Gn4  v096
 BYTE   W48
 BYTE   An4  v100
 BYTE   W48
 BYTE   PEND 
//  #01 //053   ----------------------------------------
 BYTE   N92  Fs4  v080
 BYTE   W96
//  #01 //054   ----------------------------------------
Label_015F5E2D:
 BYTE   N22  En4  v096
 BYTE   W24
 BYTE   N68  Bn3  v092
 BYTE   W72
 BYTE   PEND 
//  #01 //055   ----------------------------------------
 BYTE   N92  En4  v096
 BYTE   W96
//  #01 //056   ----------------------------------------
Label_015F5E3A:
 BYTE   N44  Dn4  v096
 BYTE   W48
 BYTE   Gn4
 BYTE   W48
 BYTE   PEND 
//  #01 //057   ----------------------------------------
 BYTE   N92  Fs4  v068
 BYTE   W96
//  #01 //058   ----------------------------------------
 BYTE   PATT
  POIN2 Label_015F5E0E
//  #01 //059   ----------------------------------------
 BYTE   PATT
  POIN2 Label_015F5E19
//  #01 //060   ----------------------------------------
 BYTE   PATT
  POIN2 Label_015F5E21
//  #01 //061   ----------------------------------------
 BYTE   N92  Fs4  v080
 BYTE   W96
//  #01 //062   ----------------------------------------
 BYTE   PATT
  POIN2 Label_015F5E2D
//  #01 //063   ----------------------------------------
 BYTE   N92  En4  v096
 BYTE   W96
//  #01 //064   ----------------------------------------
 BYTE   PATT
  POIN2 Label_015F5E3A
//  #01 //065   ----------------------------------------
 BYTE   TIE  Fs4  v092
 BYTE   W08
 BYTE   W08
 BYTE   W09
 BYTE   W08
 BYTE   W08
 BYTE   W08
 BYTE   W08
 BYTE   W08
 BYTE   W09
 BYTE   W08
 BYTE   W08
 BYTE   W06
//  #01 //066   ----------------------------------------
 BYTE   W02
 BYTE   W08
 BYTE   W08
 BYTE   W09
 BYTE   W08
 BYTE   W08
 BYTE   W08
 BYTE   W08
 BYTE   W08
 BYTE   W09
 BYTE   W08
 BYTE   W08
 BYTE   W04
//  #01 //067   ----------------------------------------
 BYTE   W04
 BYTE   W08
 BYTE   W08
 BYTE   W09
 BYTE   W08
 BYTE   W08
 BYTE   W08
 BYTE   W08
 BYTE   W08
 BYTE   W09
 BYTE   W08
 BYTE   W08
 BYTE   W02
//  #01 //068   ----------------------------------------
 BYTE   W06
 BYTE   W08
 BYTE   W08
 BYTE   W09
 BYTE   W08
 BYTE   W08
 BYTE   W08
 BYTE   W08
 BYTE   W08
 BYTE   W09
 BYTE   W08
 BYTE   W07
 BYTE   EOT
 BYTE   W01
//  #01 //069   ----------------------------------------
 BYTE   W96
//  #01 //070   ----------------------------------------
 BYTE   W96
//  #01 //071   ----------------------------------------
 BYTE   W96
//  #01 //072   ----------------------------------------
 BYTE   W96
//  #01 //073   ----------------------------------------
 BYTE   PAN   c_v+0
 BYTE   N92  En4  v116
 BYTE   W96
//  #01 //074   ----------------------------------------
 BYTE   N44  Gn4  v124
 BYTE   W48
 BYTE   Fs4  v116
 BYTE   W48
//  #01 //075   ----------------------------------------
 BYTE   TIE  An4  v120
 BYTE   W96
//  #01 //076   ----------------------------------------
 BYTE   W44
 BYTE   W02
 BYTE   EOT
 BYTE   W02
 BYTE   N22  Bn4  v112
 BYTE   W24
 BYTE   Cn5  v124
 BYTE   W24
//  #01 //077   ----------------------------------------
 BYTE   TIE  Bn4  v120
 BYTE   W96
//  #01 //078   ----------------------------------------
 BYTE   W92
 BYTE   W03
 BYTE   EOT
 BYTE   W01
//  #01 //079   ----------------------------------------
 BYTE   TIE  As4
 BYTE   N01  Bn4
 BYTE   W96
//  #01 //080   ----------------------------------------
 BYTE   W44
 BYTE   W02
 BYTE   EOT
 BYTE   As4
 BYTE   W02
 BYTE   N44  Fs4  v116
 BYTE   W48
//  #01 //081   ----------------------------------------
 BYTE   TIE  An4  v124
 BYTE   W96
//  #01 //082   ----------------------------------------
 BYTE   W44
 BYTE   W02
 BYTE   EOT
 BYTE   W02
 BYTE   N44  Ds4  v104
 BYTE   W48
//  #01 //083   ----------------------------------------
 BYTE   TIE  En4  v127
 BYTE   W96
//  #01 //084   ----------------------------------------
 BYTE   W96
//  #01 //085   ----------------------------------------
 BYTE   W96
//  #01 //086   ----------------------------------------
 BYTE   W92
 BYTE   W03
 BYTE   EOT
 BYTE   W01
//  #01 //087   ----------------------------------------
 BYTE   W96
//  #01 //088   ----------------------------------------
 BYTE   W96
//  #01 //089   ----------------------------------------
 BYTE   W96
//  #01 //090   ----------------------------------------
 BYTE   W96
//  #01 //091   ----------------------------------------
 BYTE   W96
//  #01 //092   ----------------------------------------
 BYTE   W96
//  #01 //093   ----------------------------------------
 BYTE   W96
//  #01 //094   ----------------------------------------
 BYTE   W96
//  #01 //095   ----------------------------------------
 BYTE   GoTo
  POIN2 Label_015F5DA7
 BYTE   FINE

//**************** Track 2 (Midi-Chn.1) ****************//

song64_002:
//  #02 //000   ----------------------------------------
 BYTE   KEYSH   song64_key+0
 BYTE   VOICE   48
 BYTE   VOL   40*song64_mvl/mxv
 BYTE   PAN   c_v-11
 BYTE   W96
//  #02 //001   ----------------------------------------
 BYTE   W96
//  #02 //002   ----------------------------------------
 BYTE   W96
//  #02 //003   ----------------------------------------
 BYTE   W96
//  #02 //004   ----------------------------------------
 BYTE   W96
//  #02 //005   ----------------------------------------
 BYTE   W96
//  #02 //006   ----------------------------------------
 BYTE   W96
//  #02 //007   ----------------------------------------
 BYTE   W96
//  #02 //008   ----------------------------------------
 BYTE   W96
//  #02 //009   ----------------------------------------
 BYTE   W96
//  #02 //010   ----------------------------------------
 BYTE   W96
//  #02 //011   ----------------------------------------
 BYTE   W96
//  #02 //012   ----------------------------------------
 BYTE   W96
//  #02 //013   ----------------------------------------
Label_015F5F0D:
 BYTE   TIE  An3  v127
 BYTE   TIE  Dn4
 BYTE   W96
 BYTE   PEND 
//  #02 //014   ----------------------------------------
 BYTE   W92
 BYTE   W03
 BYTE   EOT
 BYTE   An3  v074
 BYTE   W01
//  #02 //015   ----------------------------------------
Label_015F5F1A:
 BYTE   TIE  Gs3  v127
 BYTE   TIE  Cs4
 BYTE   W96
 BYTE   PEND 
//  #02 //016   ----------------------------------------
 BYTE   W92
 BYTE   W03
 BYTE   EOT
 BYTE   Gs3  v073
 BYTE   W01
//  #02 //017   ----------------------------------------
Label_015F5F27:
 BYTE   TIE  Gn3  v127
 BYTE   TIE  Cn4
 BYTE   W96
 BYTE   PEND 
//  #02 //018   ----------------------------------------
 BYTE   W92
 BYTE   W03
 BYTE   EOT
 BYTE   Gn3  v072
 BYTE   W01
//  #02 //019   ----------------------------------------
Label_015F5F34:
 BYTE   TIE  Fs3  v127
 BYTE   TIE  Bn3
 BYTE   W96
 BYTE   PEND 
//  #02 //020   ----------------------------------------
 BYTE   W92
 BYTE   W03
 BYTE   EOT
 BYTE   Fs3  v071
 BYTE   W01
//  #02 //021   ----------------------------------------
 BYTE   PATT
  POIN2 Label_015F5F0D
//  #02 //022   ----------------------------------------
 BYTE   W92
 BYTE   W03
 BYTE   EOT
 BYTE   An3  v074
 BYTE   W01
//  #02 //023   ----------------------------------------
 BYTE   PATT
  POIN2 Label_015F5F1A
//  #02 //024   ----------------------------------------
 BYTE   W92
 BYTE   W03
 BYTE   EOT
 BYTE   Gs3  v073
 BYTE   W01
//  #02 //025   ----------------------------------------
 BYTE   PATT
  POIN2 Label_015F5F27
//  #02 //026   ----------------------------------------
 BYTE   W92
 BYTE   W03
 BYTE   EOT
 BYTE   Gn3  v072
 BYTE   W01
//  #02 //027   ----------------------------------------
 BYTE   PATT
  POIN2 Label_015F5F34
//  #02 //028   ----------------------------------------
 BYTE   W96
//  #02 //029   ----------------------------------------
 BYTE   W96
//  #02 //030   ----------------------------------------
 BYTE   W96
//  #02 //031   ----------------------------------------
 BYTE   W07
 BYTE   W07
 BYTE   W07
 BYTE   W07
 BYTE   W08
 BYTE   W07
 BYTE   W07
 BYTE   W07
 BYTE   W07
 BYTE   W07
 BYTE   W07
 BYTE   W07
 BYTE   W07
 BYTE   W04
//  #02 //032   ----------------------------------------
 BYTE   W04
 BYTE   W07
 BYTE   W07
 BYTE   W07
 BYTE   W07
 BYTE   W07
 BYTE   W07
 BYTE   W07
 BYTE   W07
 BYTE   W08
 BYTE   W07
 BYTE   W07
 BYTE   W07
 BYTE   W07
//  #02 //033   ----------------------------------------
 BYTE   EOT
 BYTE   Fs3  v071
 BYTE   PAN   c_v+10
 BYTE   N11  En3  v124
 BYTE   W24
 BYTE   En3  v127
 BYTE   W12
 BYTE   Gn3
 BYTE   W24
 BYTE   Fs3  v124
 BYTE   W24
 BYTE   An3  v127
 BYTE   W12
//  #02 //034   ----------------------------------------
 BYTE   W12
 BYTE   Gn3  v124
 BYTE   W12
 BYTE   Bn3  v127
 BYTE   W24
 BYTE   As3  v124
 BYTE   W24
 BYTE   An3  v127
 BYTE   W24
//  #02 //035   ----------------------------------------
Label_015F5FA7:
 BYTE   N11  En3  v124
 BYTE   W24
 BYTE   En3  v127
 BYTE   W12
 BYTE   Gn3
 BYTE   W24
 BYTE   Fs3  v124
 BYTE   W24
 BYTE   An3  v127
 BYTE   W12
 BYTE   PEND 
//  #02 //036   ----------------------------------------
Label_015F5FB7:
 BYTE   W12
 BYTE   N11  Dn3  v124
 BYTE   W12
 BYTE   Dn3  v127
 BYTE   W72
 BYTE   PEND 
//  #02 //037   ----------------------------------------
 BYTE   PATT
  POIN2 Label_015F5FA7
//  #02 //038   ----------------------------------------
 BYTE   W12
 BYTE   N11  Gn3  v124
 BYTE   W12
 BYTE   Bn3  v127
 BYTE   W24
 BYTE   As3
 BYTE   W24
 BYTE   An3  v124
 BYTE   W24
//  #02 //039   ----------------------------------------
 BYTE   PATT
  POIN2 Label_015F5FA7
//  #02 //040   ----------------------------------------
 BYTE   PATT
  POIN2 Label_015F5FB7
//  #02 //041   ----------------------------------------
 BYTE   W96
//  #02 //042   ----------------------------------------
 BYTE   W96
//  #02 //043   ----------------------------------------
 BYTE   W96
//  #02 //044   ----------------------------------------
 BYTE   W96
//  #02 //045   ----------------------------------------
 BYTE   W96
//  #02 //046   ----------------------------------------
 BYTE   W96
//  #02 //047   ----------------------------------------
 BYTE   W96
//  #02 //048   ----------------------------------------
 BYTE   W96
//  #02 //049   ----------------------------------------
 BYTE   W96
//  #02 //050   ----------------------------------------
Label_015F5FE5:
 BYTE   W24
 BYTE   N22  En3  v104
 BYTE   W24
 BYTE   Fs3  v108
 BYTE   W24
 BYTE   Gn3
 BYTE   W24
 BYTE   PEND 
//  #02 //051   ----------------------------------------
Label_015F5FF0:
 BYTE   N44  An3  v104
 BYTE   W48
 BYTE   Bn3  v108
 BYTE   W48
 BYTE   PEND 
//  #02 //052   ----------------------------------------
Label_015F5FF8:
 BYTE   N44  Gn3  v104
 BYTE   W48
 BYTE   An3  v108
 BYTE   W48
 BYTE   PEND 
//  #02 //053   ----------------------------------------
 BYTE   N92  Fs3  v100
 BYTE   W96
//  #02 //054   ----------------------------------------
Label_015F6004:
 BYTE   N22  En3  v100
 BYTE   W24
 BYTE   N68  Bn2
 BYTE   W72
 BYTE   PEND 
//  #02 //055   ----------------------------------------
 BYTE   N92  En3
 BYTE   W96
//  #02 //056   ----------------------------------------
Label_015F600F:
 BYTE   N44  Dn3  v104
 BYTE   W48
 BYTE   Gn3
 BYTE   W48
 BYTE   PEND 
//  #02 //057   ----------------------------------------
 BYTE   N92  Fs3  v060
 BYTE   W96
//  #02 //058   ----------------------------------------
 BYTE   PATT
  POIN2 Label_015F5FE5
//  #02 //059   ----------------------------------------
 BYTE   PATT
  POIN2 Label_015F5FF0
//  #02 //060   ----------------------------------------
 BYTE   PATT
  POIN2 Label_015F5FF8
//  #02 //061   ----------------------------------------
 BYTE   N92  Fs3  v100
 BYTE   W96
//  #02 //062   ----------------------------------------
 BYTE   PATT
  POIN2 Label_015F6004
//  #02 //063   ----------------------------------------
 BYTE   N92  En3  v100
 BYTE   W96
//  #02 //064   ----------------------------------------
 BYTE   PATT
  POIN2 Label_015F600F
//  #02 //065   ----------------------------------------
 BYTE   TIE  Fs3  v116
 BYTE   W08
 BYTE   W08
 BYTE   W09
 BYTE   W08
 BYTE   W08
 BYTE   W08
 BYTE   W08
 BYTE   W08
 BYTE   W09
 BYTE   W08
 BYTE   W08
 BYTE   W06
//  #02 //066   ----------------------------------------
 BYTE   W02
 BYTE   W08
 BYTE   W08
 BYTE   W09
 BYTE   W08
 BYTE   W08
 BYTE   W08
 BYTE   W08
 BYTE   W08
 BYTE   W09
 BYTE   W08
 BYTE   W08
 BYTE   W04
//  #02 //067   ----------------------------------------
 BYTE   W04
 BYTE   W08
 BYTE   W08
 BYTE   W09
 BYTE   W08
 BYTE   W08
 BYTE   W08
 BYTE   W08
 BYTE   W08
 BYTE   W09
 BYTE   W08
 BYTE   W08
 BYTE   W02
//  #02 //068   ----------------------------------------
 BYTE   W06
 BYTE   W08
 BYTE   W08
 BYTE   W09
 BYTE   W08
 BYTE   W08
 BYTE   W08
 BYTE   W08
 BYTE   W08
 BYTE   W09
 BYTE   W08
 BYTE   W07
 BYTE   EOT
 BYTE   W01
//  #02 //069   ----------------------------------------
 BYTE   W96
//  #02 //070   ----------------------------------------
 BYTE   W96
//  #02 //071   ----------------------------------------
 BYTE   W96
//  #02 //072   ----------------------------------------
 BYTE   W96
//  #02 //073   ----------------------------------------
 BYTE   W96
//  #02 //074   ----------------------------------------
 BYTE   W96
//  #02 //075   ----------------------------------------
 BYTE   TIE
 BYTE   W96
//  #02 //076   ----------------------------------------
 BYTE   W92
 BYTE   W03
 BYTE   EOT
 BYTE   W01
//  #02 //077   ----------------------------------------
 BYTE   TIE  Gn3
 BYTE   W96
//  #02 //078   ----------------------------------------
 BYTE   W92
 BYTE   W03
 BYTE   EOT
 BYTE   W01
//  #02 //079   ----------------------------------------
 BYTE   TIE  Cs3  v092
 BYTE   TIE  As3  v116
 BYTE   W96
//  #02 //080   ----------------------------------------
 BYTE   W92
 BYTE   W03
 BYTE   EOT
 BYTE   Cs3  v070
 BYTE   W01
//  #02 //081   ----------------------------------------
 BYTE   TIE  Ds3
 BYTE   TIE  An3
 BYTE   W96
//  #02 //082   ----------------------------------------
 BYTE   W92
 BYTE   W03
 BYTE   EOT
 BYTE   Ds3  v069
 BYTE   W01
//  #02 //083   ----------------------------------------
 BYTE   TIE  Bn2  v084
 BYTE   TIE  En3  v116
 BYTE   W19
 BYTE   W19
 BYTE   W20
 BYTE   W19
 BYTE   W19
//  #02 //084   ----------------------------------------
 BYTE   W12
 BYTE   W12
 BYTE   W12
 BYTE   W12
 BYTE   W12
 BYTE   W12
 BYTE   W12
 BYTE   W12
//  #02 //085   ----------------------------------------
 BYTE   W19
 BYTE   W19
 BYTE   W20
 BYTE   W19
 BYTE   W19
//  #02 //086   ----------------------------------------
 BYTE   W03
 BYTE   W04
 BYTE   W03
 BYTE   W03
 BYTE   W04
 BYTE   W03
 BYTE   W03
 BYTE   W03
 BYTE   W04
 BYTE   W03
 BYTE   W03
 BYTE   W04
 BYTE   W03
 BYTE   W03
 BYTE   W04
 BYTE   W03
 BYTE   W03
 BYTE   W04
 BYTE   W03
 BYTE   W03
 BYTE   W03
 BYTE   W04
 BYTE   W03
 BYTE   W03
 BYTE   W04
 BYTE   W03
 BYTE   W03
 BYTE   W04
 BYTE   W02
 BYTE   EOT
 BYTE   Bn2  v064
 BYTE   W01
//  #02 //087   ----------------------------------------
 BYTE   W96
//  #02 //088   ----------------------------------------
 BYTE   W96
//  #02 //089   ----------------------------------------
 BYTE   W96
//  #02 //090   ----------------------------------------
 BYTE   W96
//  #02 //091   ----------------------------------------
 BYTE   PATT
  POIN2 Label_015F5F0D
//  #02 //092   ----------------------------------------
 BYTE   W92
 BYTE   W03
 BYTE   EOT
 BYTE   An3  v074
 BYTE   W01
//  #02 //093   ----------------------------------------
 BYTE   PATT
  POIN2 Label_015F5F1A
//  #02 //094   ----------------------------------------
 BYTE   W92
 BYTE   W03
 BYTE   EOT
 BYTE   Gs3  v073
 BYTE   W01
//  #02 //095   ----------------------------------------
 BYTE   GoTo
  POIN2 Label_015F5F27
 BYTE   FINE

//**************** Track 3 (Midi-Chn.2) ****************//

song64_003:
//  #03 //000   ----------------------------------------
 BYTE   KEYSH   song64_key+0
 BYTE   VOICE   49
 BYTE   VOL   22*song64_mvl/mxv
 BYTE   W96
//  #03 //001   ----------------------------------------
 BYTE   W96
//  #03 //002   ----------------------------------------
 BYTE   W96
//  #03 //003   ----------------------------------------
 BYTE   W96
//  #03 //004   ----------------------------------------
 BYTE   W96
//  #03 //005   ----------------------------------------
 BYTE   W96
//  #03 //006   ----------------------------------------
 BYTE   W96
//  #03 //007   ----------------------------------------
 BYTE   W96
//  #03 //008   ----------------------------------------
 BYTE   W96
//  #03 //009   ----------------------------------------
 BYTE   W96
//  #03 //010   ----------------------------------------
 BYTE   W96
//  #03 //011   ----------------------------------------
 BYTE   W96
//  #03 //012   ----------------------------------------
 BYTE   W96
//  #03 //013   ----------------------------------------
 BYTE   W96
//  #03 //014   ----------------------------------------
 BYTE   W96
//  #03 //015   ----------------------------------------
 BYTE   W96
//  #03 //016   ----------------------------------------
 BYTE   W96
//  #03 //017   ----------------------------------------
Label_015F5123:
 BYTE   W96
//  #03 //018   ----------------------------------------
 BYTE   W96
//  #03 //019   ----------------------------------------
 BYTE   W96
//  #03 //020   ----------------------------------------
 BYTE   W96
//  #03 //021   ----------------------------------------
 BYTE   W96
//  #03 //022   ----------------------------------------
 BYTE   W96
//  #03 //023   ----------------------------------------
 BYTE   W96
//  #03 //024   ----------------------------------------
 BYTE   W96
//  #03 //025   ----------------------------------------
 BYTE   W96
//  #03 //026   ----------------------------------------
 BYTE   W96
//  #03 //027   ----------------------------------------
 BYTE   W96
//  #03 //028   ----------------------------------------
 BYTE   W96
//  #03 //029   ----------------------------------------
 BYTE   W96
//  #03 //030   ----------------------------------------
 BYTE   W96
//  #03 //031   ----------------------------------------
 BYTE   W96
//  #03 //032   ----------------------------------------
 BYTE   W96
//  #03 //033   ----------------------------------------
 BYTE   W96
//  #03 //034   ----------------------------------------
 BYTE   W96
//  #03 //035   ----------------------------------------
 BYTE   W96
//  #03 //036   ----------------------------------------
 BYTE   W96
//  #03 //037   ----------------------------------------
 BYTE   W96
//  #03 //038   ----------------------------------------
 BYTE   W96
//  #03 //039   ----------------------------------------
 BYTE   W96
//  #03 //040   ----------------------------------------
 BYTE   W96
//  #03 //041   ----------------------------------------
 BYTE   W96
//  #03 //042   ----------------------------------------
 BYTE   W96
//  #03 //043   ----------------------------------------
 BYTE   W96
//  #03 //044   ----------------------------------------
 BYTE   W96
//  #03 //045   ----------------------------------------
 BYTE   W01
 BYTE   W01
 BYTE   PAN   c_v+0
 BYTE   W03
 BYTE   W02
 BYTE   W01
 BYTE   W01
 BYTE   W01
 BYTE   W84
 BYTE   W02
//  #03 //046   ----------------------------------------
 BYTE   W96
//  #03 //047   ----------------------------------------
 BYTE   W96
//  #03 //048   ----------------------------------------
 BYTE   W96
//  #03 //049   ----------------------------------------
Label_015F514D:
 BYTE   TIE  Fs3  v127
 BYTE   TIE  Bn3
 BYTE   W96
 BYTE   PEND 
//  #03 //050   ----------------------------------------
 BYTE   W96
//  #03 //051   ----------------------------------------
 BYTE   W44
 BYTE   W02
 BYTE   EOT
 BYTE   Fs3  v071
 BYTE   W02
 BYTE   N44  An3  v124
 BYTE   N44  Dn4
 BYTE   W48
//  #03 //052   ----------------------------------------
Label_015F5161:
 BYTE   N44  En3  v124
 BYTE   N44  Gn3
 BYTE   W48
 BYTE   Dn3
 BYTE   N44  Fs3
 BYTE   W48
 BYTE   PEND 
//  #03 //053   ----------------------------------------
Label_015F516C:
 BYTE   TIE  En3  v127
 BYTE   TIE  Bn3
 BYTE   W96
 BYTE   PEND 
//  #03 //054   ----------------------------------------
 BYTE   W96
//  #03 //055   ----------------------------------------
 BYTE   W92
 BYTE   W03
 BYTE   EOT
 BYTE   En3  v071
 BYTE   W01
//  #03 //056   ----------------------------------------
Label_015F517A:
 BYTE   N44  Fs3  v124
 BYTE   N44  Dn4
 BYTE   W48
 BYTE   Bn3  v096
 BYTE   W48
 BYTE   PEND 
//  #03 //057   ----------------------------------------
 BYTE   PATT
  POIN2 Label_015F514D
//  #03 //058   ----------------------------------------
 BYTE   W96
//  #03 //059   ----------------------------------------
 BYTE   W44
 BYTE   W02
 BYTE   EOT
 BYTE   Fs3  v071
 BYTE   W02
 BYTE   N44  Bn3  v124
 BYTE   N44  Dn4
 BYTE   W48
//  #03 //060   ----------------------------------------
 BYTE   PATT
  POIN2 Label_015F5161
//  #03 //061   ----------------------------------------
 BYTE   PATT
  POIN2 Label_015F516C
//  #03 //062   ----------------------------------------
 BYTE   W96
//  #03 //063   ----------------------------------------
 BYTE   W92
 BYTE   W03
 BYTE   EOT
 BYTE   En3  v071
 BYTE   W01
//  #03 //064   ----------------------------------------
 BYTE   PATT
  POIN2 Label_015F517A
//  #03 //065   ----------------------------------------
 BYTE   TIE  Fs3  v127
 BYTE   TIE  Bn3
 BYTE   W08
 BYTE   W08
 BYTE   W09
 BYTE   W08
 BYTE   W08
 BYTE   W08
 BYTE   W08
 BYTE   W08
 BYTE   W09
 BYTE   W08
 BYTE   W08
 BYTE   W06
//  #03 //066   ----------------------------------------
 BYTE   W02
 BYTE   W08
 BYTE   W08
 BYTE   W09
 BYTE   W08
 BYTE   W08
 BYTE   W08
 BYTE   W08
 BYTE   W08
 BYTE   W09
 BYTE   W08
 BYTE   W08
 BYTE   W04
//  #03 //067   ----------------------------------------
 BYTE   W04
 BYTE   W08
 BYTE   W08
 BYTE   W09
 BYTE   W08
 BYTE   W08
 BYTE   W08
 BYTE   W08
 BYTE   W08
 BYTE   W09
 BYTE   W08
 BYTE   W08
 BYTE   W02
//  #03 //068   ----------------------------------------
 BYTE   W06
 BYTE   W08
 BYTE   W08
 BYTE   W09
 BYTE   W08
 BYTE   W08
 BYTE   W08
 BYTE   W08
 BYTE   W08
 BYTE   W09
 BYTE   W08
 BYTE   W08
//  #03 //069   ----------------------------------------
 BYTE   W01
 BYTE   EOT
 BYTE   Fs3  v071
 BYTE   W92
 BYTE   W03
//  #03 //070   ----------------------------------------
 BYTE   W96
//  #03 //071   ----------------------------------------
 BYTE   W96
//  #03 //072   ----------------------------------------
 BYTE   W96
//  #03 //073   ----------------------------------------
 BYTE   W96
//  #03 //074   ----------------------------------------
 BYTE   W96
//  #03 //075   ----------------------------------------
 BYTE   W96
//  #03 //076   ----------------------------------------
 BYTE   W96
//  #03 //077   ----------------------------------------
 BYTE   W96
//  #03 //078   ----------------------------------------
 BYTE   W96
//  #03 //079   ----------------------------------------
 BYTE   W96
//  #03 //080   ----------------------------------------
 BYTE   W96
//  #03 //081   ----------------------------------------
 BYTE   W96
//  #03 //082   ----------------------------------------
 BYTE   W96
//  #03 //083   ----------------------------------------
 BYTE   W96
//  #03 //084   ----------------------------------------
 BYTE   W96
//  #03 //085   ----------------------------------------
 BYTE   W96
//  #03 //086   ----------------------------------------
 BYTE   W96
//  #03 //087   ----------------------------------------
 BYTE   W96
//  #03 //088   ----------------------------------------
 BYTE   W96
//  #03 //089   ----------------------------------------
 BYTE   W96
//  #03 //090   ----------------------------------------
 BYTE   W96
//  #03 //091   ----------------------------------------
 BYTE   W96
//  #03 //092   ----------------------------------------
 BYTE   W96
//  #03 //093   ----------------------------------------
 BYTE   W96
//  #03 //094   ----------------------------------------
 BYTE   W96
//  #03 //095   ----------------------------------------
 BYTE   GoTo
  POIN2 Label_015F5123
 BYTE   FINE

//**************** Track 4 (Midi-Chn.3) ****************//

song64_004:
//  #04 //000   ----------------------------------------
 BYTE   KEYSH   song64_key+0
 BYTE   VOICE   55
 BYTE   VOL   100*song64_mvl/mxv
 BYTE   PAN   c_v+6
 BYTE   W96
//  #04 //001   ----------------------------------------
 BYTE   N96  En3  v127
 BYTE   N96  En4
 BYTE   W96
//  #04 //002   ----------------------------------------
 BYTE   W96
//  #04 //003   ----------------------------------------
 BYTE   En3
 BYTE   N96  En4
 BYTE   W96
//  #04 //004   ----------------------------------------
 BYTE   W96
//  #04 //005   ----------------------------------------
 BYTE   En3
 BYTE   N96  En4
 BYTE   W96
//  #04 //006   ----------------------------------------
 BYTE   W96
//  #04 //007   ----------------------------------------
 BYTE   En3
 BYTE   N96  En4
 BYTE   W96
//  #04 //008   ----------------------------------------
 BYTE   W96
//  #04 //009   ----------------------------------------
 BYTE   En3
 BYTE   N96  En4
 BYTE   W96
//  #04 //010   ----------------------------------------
 BYTE   W96
//  #04 //011   ----------------------------------------
 BYTE   W96
//  #04 //012   ----------------------------------------
 BYTE   W96
//  #04 //013   ----------------------------------------
Label_015F524A:
 BYTE   TIE  An3  v116
 BYTE   TIE  Dn4
 BYTE   W96
 BYTE   PEND 
//  #04 //014   ----------------------------------------
 BYTE   W92
 BYTE   W02
 BYTE   EOT
 BYTE   W01
 BYTE   EOT
 BYTE   An3
 BYTE   W01
//  #04 //015   ----------------------------------------
Label_015F5258:
 BYTE   TIE  Gs3  v116
 BYTE   TIE  Cs4
 BYTE   W96
 BYTE   PEND 
//  #04 //016   ----------------------------------------
 BYTE   W92
 BYTE   W02
 BYTE   EOT
 BYTE   W01
 BYTE   EOT
 BYTE   Gs3
 BYTE   W01
//  #04 //017   ----------------------------------------
Label_015F5266:
 BYTE   TIE  Gn3  v116
 BYTE   TIE  Cn4
 BYTE   W96
 BYTE   PEND 
//  #04 //018   ----------------------------------------
 BYTE   W92
 BYTE   W02
 BYTE   EOT
 BYTE   W01
 BYTE   EOT
 BYTE   Gn3
 BYTE   W01
//  #04 //019   ----------------------------------------
Label_015F5274:
 BYTE   TIE  Fs3  v116
 BYTE   TIE  Bn3
 BYTE   W96
 BYTE   PEND 
//  #04 //020   ----------------------------------------
 BYTE   W92
 BYTE   W02
 BYTE   EOT
 BYTE   W01
 BYTE   EOT
 BYTE   Fs3
 BYTE   W01
//  #04 //021   ----------------------------------------
 BYTE   PATT
  POIN2 Label_015F524A
//  #04 //022   ----------------------------------------
 BYTE   W92
 BYTE   W02
 BYTE   EOT
 BYTE   Dn4
 BYTE   W01
 BYTE   An3
 BYTE   W01
//  #04 //023   ----------------------------------------
 BYTE   PATT
  POIN2 Label_015F5258
//  #04 //024   ----------------------------------------
 BYTE   W92
 BYTE   W02
 BYTE   EOT
 BYTE   Cs4
 BYTE   W01
 BYTE   Gs3
 BYTE   W01
//  #04 //025   ----------------------------------------
 BYTE   PATT
  POIN2 Label_015F5266
//  #04 //026   ----------------------------------------
 BYTE   W92
 BYTE   W02
 BYTE   EOT
 BYTE   Cn4
 BYTE   W01
 BYTE   Gn3
 BYTE   W01
//  #04 //027   ----------------------------------------
 BYTE   PATT
  POIN2 Label_015F5274
//  #04 //028   ----------------------------------------
 BYTE   W96
//  #04 //029   ----------------------------------------
 BYTE   W96
//  #04 //030   ----------------------------------------
 BYTE   W96
//  #04 //031   ----------------------------------------
 BYTE   W07
 BYTE   W07
 BYTE   W07
 BYTE   W07
 BYTE   W08
 BYTE   W07
 BYTE   W07
 BYTE   W07
 BYTE   W07
 BYTE   W07
 BYTE   W07
 BYTE   W07
 BYTE   W07
 BYTE   W04
//  #04 //032   ----------------------------------------
 BYTE   W04
 BYTE   W07
 BYTE   W07
 BYTE   W07
 BYTE   W07
 BYTE   W07
 BYTE   W07
 BYTE   W07
 BYTE   W07
 BYTE   W08
 BYTE   W07
 BYTE   W07
 BYTE   W07
 BYTE   W05
 BYTE   EOT
 BYTE   Bn3
 BYTE   W01
 BYTE   Fs3
 BYTE   W01
//  #04 //033   ----------------------------------------
 BYTE   W96
//  #04 //034   ----------------------------------------
 BYTE   W96
//  #04 //035   ----------------------------------------
 BYTE   W96
//  #04 //036   ----------------------------------------
 BYTE   W48
 BYTE   PAN   c_v+6
 BYTE   W48
//  #04 //037   ----------------------------------------
 BYTE   W96
//  #04 //038   ----------------------------------------
 BYTE   W96
//  #04 //039   ----------------------------------------
 BYTE   W96
//  #04 //040   ----------------------------------------
 BYTE   W48
 BYTE   PAN   c_v+6
 BYTE   W48
//  #04 //041   ----------------------------------------
 BYTE   W96
//  #04 //042   ----------------------------------------
 BYTE   W96
//  #04 //043   ----------------------------------------
 BYTE   W96
//  #04 //044   ----------------------------------------
 BYTE   W96
//  #04 //045   ----------------------------------------
 BYTE   W96
//  #04 //046   ----------------------------------------
 BYTE   W96
//  #04 //047   ----------------------------------------
 BYTE   W96
//  #04 //048   ----------------------------------------
 BYTE   W96
//  #04 //049   ----------------------------------------
 BYTE   W96
//  #04 //050   ----------------------------------------
 BYTE   W96
//  #04 //051   ----------------------------------------
 BYTE   W96
//  #04 //052   ----------------------------------------
 BYTE   W96
//  #04 //053   ----------------------------------------
 BYTE   W96
//  #04 //054   ----------------------------------------
 BYTE   W96
//  #04 //055   ----------------------------------------
 BYTE   W96
//  #04 //056   ----------------------------------------
 BYTE   W96
//  #04 //057   ----------------------------------------
 BYTE   W96
//  #04 //058   ----------------------------------------
 BYTE   W96
//  #04 //059   ----------------------------------------
 BYTE   W96
//  #04 //060   ----------------------------------------
 BYTE   W96
//  #04 //061   ----------------------------------------
 BYTE   W96
//  #04 //062   ----------------------------------------
 BYTE   W96
//  #04 //063   ----------------------------------------
 BYTE   W96
//  #04 //064   ----------------------------------------
 BYTE   W96
//  #04 //065   ----------------------------------------
 BYTE   W96
//  #04 //066   ----------------------------------------
 BYTE   W96
//  #04 //067   ----------------------------------------
 BYTE   W96
//  #04 //068   ----------------------------------------
 BYTE   W96
//  #04 //069   ----------------------------------------
 BYTE   W96
//  #04 //070   ----------------------------------------
 BYTE   W96
//  #04 //071   ----------------------------------------
 BYTE   W96
//  #04 //072   ----------------------------------------
 BYTE   W96
//  #04 //073   ----------------------------------------
 BYTE   W96
//  #04 //074   ----------------------------------------
 BYTE   W96
//  #04 //075   ----------------------------------------
 BYTE   W96
//  #04 //076   ----------------------------------------
 BYTE   W96
//  #04 //077   ----------------------------------------
 BYTE   W96
//  #04 //078   ----------------------------------------
 BYTE   W96
//  #04 //079   ----------------------------------------
 BYTE   W96
//  #04 //080   ----------------------------------------
 BYTE   W96
//  #04 //081   ----------------------------------------
 BYTE   W96
//  #04 //082   ----------------------------------------
 BYTE   W96
//  #04 //083   ----------------------------------------
 BYTE   W96
//  #04 //084   ----------------------------------------
 BYTE   W96
//  #04 //085   ----------------------------------------
 BYTE   W96
//  #04 //086   ----------------------------------------
 BYTE   W96
//  #04 //087   ----------------------------------------
 BYTE   N10  En3  v127
 BYTE   N10  En4
 BYTE   W96
//  #04 //088   ----------------------------------------
 BYTE   W96
//  #04 //089   ----------------------------------------
 BYTE   W96
//  #04 //090   ----------------------------------------
 BYTE   W96
//  #04 //091   ----------------------------------------
 BYTE   PATT
  POIN2 Label_015F524A
//  #04 //092   ----------------------------------------
 BYTE   W92
 BYTE   W02
 BYTE   EOT
 BYTE   Dn4
 BYTE   W01
 BYTE   An3
 BYTE   W01
//  #04 //093   ----------------------------------------
 BYTE   PATT
  POIN2 Label_015F5258
//  #04 //094   ----------------------------------------
 BYTE   W92
 BYTE   W02
 BYTE   EOT
 BYTE   Cs4
 BYTE   W01
 BYTE   Gs3
 BYTE   W01
//  #04 //095   ----------------------------------------
 BYTE   GoTo
  POIN2 Label_015F5266
 BYTE   FINE

//**************** Track 5 (Midi-Chn.4) ****************//

song64_005:
//  #05 //000   ----------------------------------------
 BYTE   KEYSH   song64_key+0
 BYTE   VOICE   86
 BYTE   VOL   34*song64_mvl/mxv
 BYTE   W96
//  #05 //001   ----------------------------------------
 BYTE   W96
//  #05 //002   ----------------------------------------
 BYTE   W96
//  #05 //003   ----------------------------------------
 BYTE   W96
//  #05 //004   ----------------------------------------
 BYTE   W96
//  #05 //005   ----------------------------------------
 BYTE   W96
//  #05 //006   ----------------------------------------
 BYTE   W96
//  #05 //007   ----------------------------------------
 BYTE   W96
//  #05 //008   ----------------------------------------
 BYTE   W96
//  #05 //009   ----------------------------------------
 BYTE   W96
//  #05 //010   ----------------------------------------
 BYTE   W96
//  #05 //011   ----------------------------------------
 BYTE   W96
//  #05 //012   ----------------------------------------
 BYTE   W96
//  #05 //013   ----------------------------------------
 BYTE   W96
//  #05 //014   ----------------------------------------
 BYTE   W96
//  #05 //015   ----------------------------------------
 BYTE   W96
//  #05 //016   ----------------------------------------
 BYTE   W96
//  #05 //017   ----------------------------------------
Label_015F534B:
 BYTE   W96
//  #05 //018   ----------------------------------------
 BYTE   W96
//  #05 //019   ----------------------------------------
 BYTE   W96
//  #05 //020   ----------------------------------------
 BYTE   W96
//  #05 //021   ----------------------------------------
 BYTE   W96
//  #05 //022   ----------------------------------------
 BYTE   W96
//  #05 //023   ----------------------------------------
 BYTE   W96
//  #05 //024   ----------------------------------------
 BYTE   W96
//  #05 //025   ----------------------------------------
 BYTE   W96
//  #05 //026   ----------------------------------------
 BYTE   W96
//  #05 //027   ----------------------------------------
 BYTE   W96
//  #05 //028   ----------------------------------------
 BYTE   W96
//  #05 //029   ----------------------------------------
 BYTE   W96
//  #05 //030   ----------------------------------------
 BYTE   W96
//  #05 //031   ----------------------------------------
 BYTE   W96
//  #05 //032   ----------------------------------------
 BYTE   W96
//  #05 //033   ----------------------------------------
 BYTE   PAN   c_v+6
 BYTE   N11  Fs3  v068
 BYTE   N11  Bn3
 BYTE   W36
 BYTE   Fs3  v064
 BYTE   N11  Bn3
 BYTE   W36
 BYTE   Fs3  v068
 BYTE   N11  Bn3
 BYTE   W24
//  #05 //034   ----------------------------------------
 BYTE   W12
 BYTE   Fs3
 BYTE   N11  Bn3
 BYTE   W36
 BYTE   N10  Fs3
 BYTE   N10  Bn3
 BYTE   W48
//  #05 //035   ----------------------------------------
Label_015F5377:
 BYTE   N11  Fs3  v068
 BYTE   N11  Bn3
 BYTE   W36
 BYTE   Fs3
 BYTE   N11  Bn3
 BYTE   W60
 BYTE   PEND 
//  #05 //036   ----------------------------------------
 BYTE   W12
 BYTE   Gn3  v064
 BYTE   N11  Bn3
 BYTE   W12
 BYTE   Gn3  v068
 BYTE   N11  Bn3
 BYTE   W24
 BYTE   En4  v096
 BYTE   N11  Gn4
 BYTE   W24
 BYTE   En3  v100
 BYTE   N11  An3
 BYTE   W24
//  #05 //037   ----------------------------------------
 BYTE   PAN   c_v+6
 BYTE   N11  Fs3  v068
 BYTE   N11  Bn3
 BYTE   W36
 BYTE   Fs3  v064
 BYTE   N11  Bn3
 BYTE   W36
 BYTE   Fs3  v068
 BYTE   N11  Bn3
 BYTE   W24
//  #05 //038   ----------------------------------------
Label_015F53A9:
 BYTE   W12
 BYTE   N11  Fs3  v064
 BYTE   N11  Bn3
 BYTE   W36
 BYTE   N10  Fs3  v068
 BYTE   N10  Bn3
 BYTE   W48
 BYTE   PEND 
//  #05 //039   ----------------------------------------
 BYTE   PATT
  POIN2 Label_015F5377
//  #05 //040   ----------------------------------------
 BYTE   W12
 BYTE   N11  Gn3  v068
 BYTE   N11  Bn3
 BYTE   W12
 BYTE   Gn3
 BYTE   N11  Bn3
 BYTE   W24
 BYTE   En4  v096
 BYTE   N11  Gn4
 BYTE   W24
 BYTE   En3  v100
 BYTE   N11  An3
 BYTE   W24
//  #05 //041   ----------------------------------------
 BYTE   Fs3  v064
 BYTE   N11  Bn3
 BYTE   W36
 BYTE   Fs3  v068
 BYTE   N11  Bn3
 BYTE   W36
 BYTE   Fs3
 BYTE   N11  Bn3
 BYTE   W24
//  #05 //042   ----------------------------------------
 BYTE   PATT
  POIN2 Label_015F53A9
//  #05 //043   ----------------------------------------
Label_015F53E4:
 BYTE   N11  Fs3  v068
 BYTE   N11  Bn3
 BYTE   W36
 BYTE   Fs3  v064
 BYTE   N11  Bn3
 BYTE   W60
 BYTE   PEND 
//  #05 //044   ----------------------------------------
 BYTE   W12
 BYTE   Gn3  v068
 BYTE   N11  Bn3
 BYTE   W12
 BYTE   Gn3
 BYTE   N11  Bn3
 BYTE   W24
 BYTE   En4  v100
 BYTE   W01
 BYTE   Gn4
 BYTE   W23
 BYTE   En3
 BYTE   N11  An3
 BYTE   W24
//  #05 //045   ----------------------------------------
 BYTE   Fs3  v068
 BYTE   N11  Bn3
 BYTE   W36
 BYTE   Fs3  v064
 BYTE   N11  Bn3
 BYTE   W36
 BYTE   Fs3  v068
 BYTE   N11  Bn3
 BYTE   W24
//  #05 //046   ----------------------------------------
 BYTE   W12
 BYTE   Fs3
 BYTE   N11  Bn3
 BYTE   W36
 BYTE   N10  Fs3  v064
 BYTE   N10  Bn3
 BYTE   W48
//  #05 //047   ----------------------------------------
 BYTE   PATT
  POIN2 Label_015F53E4
//  #05 //048   ----------------------------------------
 BYTE   W12
 BYTE   N11  Gn3  v068
 BYTE   N11  Bn3
 BYTE   W12
 BYTE   Gn3  v064
 BYTE   N11  Bn3
 BYTE   W24
 BYTE   En4  v100
 BYTE   N11  Gn4
 BYTE   W24
 BYTE   En3
 BYTE   W01
 BYTE   An3
 BYTE   W23
//  #05 //049   ----------------------------------------
 BYTE   W96
//  #05 //050   ----------------------------------------
 BYTE   W96
//  #05 //051   ----------------------------------------
 BYTE   W96
//  #05 //052   ----------------------------------------
 BYTE   W96
//  #05 //053   ----------------------------------------
 BYTE   W96
//  #05 //054   ----------------------------------------
 BYTE   W96
//  #05 //055   ----------------------------------------
 BYTE   W96
//  #05 //056   ----------------------------------------
 BYTE   W96
//  #05 //057   ----------------------------------------
 BYTE   W96
//  #05 //058   ----------------------------------------
 BYTE   W96
//  #05 //059   ----------------------------------------
 BYTE   W96
//  #05 //060   ----------------------------------------
 BYTE   W96
//  #05 //061   ----------------------------------------
 BYTE   W96
//  #05 //062   ----------------------------------------
 BYTE   W96
//  #05 //063   ----------------------------------------
 BYTE   W96
//  #05 //064   ----------------------------------------
 BYTE   W96
//  #05 //065   ----------------------------------------
 BYTE   W96
//  #05 //066   ----------------------------------------
 BYTE   W96
//  #05 //067   ----------------------------------------
 BYTE   W96
//  #05 //068   ----------------------------------------
 BYTE   W96
//  #05 //069   ----------------------------------------
 BYTE   W96
//  #05 //070   ----------------------------------------
 BYTE   W96
//  #05 //071   ----------------------------------------
 BYTE   W96
//  #05 //072   ----------------------------------------
 BYTE   W96
//  #05 //073   ----------------------------------------
 BYTE   W96
//  #05 //074   ----------------------------------------
 BYTE   W96
//  #05 //075   ----------------------------------------
 BYTE   W96
//  #05 //076   ----------------------------------------
 BYTE   W96
//  #05 //077   ----------------------------------------
 BYTE   W96
//  #05 //078   ----------------------------------------
 BYTE   W96
//  #05 //079   ----------------------------------------
 BYTE   W96
//  #05 //080   ----------------------------------------
 BYTE   W96
//  #05 //081   ----------------------------------------
 BYTE   W96
//  #05 //082   ----------------------------------------
 BYTE   W96
//  #05 //083   ----------------------------------------
 BYTE   W96
//  #05 //084   ----------------------------------------
 BYTE   W96
//  #05 //085   ----------------------------------------
 BYTE   W96
//  #05 //086   ----------------------------------------
 BYTE   W96
//  #05 //087   ----------------------------------------
 BYTE   W96
//  #05 //088   ----------------------------------------
 BYTE   W96
//  #05 //089   ----------------------------------------
 BYTE   W96
//  #05 //090   ----------------------------------------
 BYTE   W96
//  #05 //091   ----------------------------------------
 BYTE   W96
//  #05 //092   ----------------------------------------
 BYTE   W96
//  #05 //093   ----------------------------------------
 BYTE   W96
//  #05 //094   ----------------------------------------
 BYTE   W96
//  #05 //095   ----------------------------------------
 BYTE   GoTo
  POIN2 Label_015F534B
 BYTE   FINE

//**************** Track 6 (Midi-Chn.5) ****************//

song64_006:
//  #06 //000   ----------------------------------------
 BYTE   KEYSH   song64_key+0
 BYTE   VOICE   52
 BYTE   VOL   40*song64_mvl/mxv
 BYTE   PAN   c_v+12
 BYTE   W96
//  #06 //001   ----------------------------------------
 BYTE   W96
//  #06 //002   ----------------------------------------
 BYTE   W96
//  #06 //003   ----------------------------------------
 BYTE   W96
//  #06 //004   ----------------------------------------
 BYTE   W96
//  #06 //005   ----------------------------------------
 BYTE   W96
//  #06 //006   ----------------------------------------
 BYTE   W96
//  #06 //007   ----------------------------------------
 BYTE   W96
//  #06 //008   ----------------------------------------
 BYTE   W96
//  #06 //009   ----------------------------------------
 BYTE   W96
//  #06 //010   ----------------------------------------
 BYTE   W96
//  #06 //011   ----------------------------------------
 BYTE   W96
//  #06 //012   ----------------------------------------
 BYTE   W96
//  #06 //013   ----------------------------------------
 BYTE   W96
//  #06 //014   ----------------------------------------
 BYTE   W96
//  #06 //015   ----------------------------------------
 BYTE   W96
//  #06 //016   ----------------------------------------
 BYTE   W96
//  #06 //017   ----------------------------------------
Label_015F5485:
 BYTE   W96
//  #06 //018   ----------------------------------------
 BYTE   W96
//  #06 //019   ----------------------------------------
 BYTE   W96
//  #06 //020   ----------------------------------------
 BYTE   W96
//  #06 //021   ----------------------------------------
 BYTE   W96
//  #06 //022   ----------------------------------------
 BYTE   W96
//  #06 //023   ----------------------------------------
 BYTE   W96
//  #06 //024   ----------------------------------------
 BYTE   W96
//  #06 //025   ----------------------------------------
 BYTE   W96
//  #06 //026   ----------------------------------------
 BYTE   W96
//  #06 //027   ----------------------------------------
 BYTE   W96
//  #06 //028   ----------------------------------------
 BYTE   W96
//  #06 //029   ----------------------------------------
 BYTE   W96
//  #06 //030   ----------------------------------------
 BYTE   W96
//  #06 //031   ----------------------------------------
 BYTE   W96
//  #06 //032   ----------------------------------------
 BYTE   W96
//  #06 //033   ----------------------------------------
 BYTE   W96
//  #06 //034   ----------------------------------------
 BYTE   W96
//  #06 //035   ----------------------------------------
 BYTE   W96
//  #06 //036   ----------------------------------------
 BYTE   W96
//  #06 //037   ----------------------------------------
 BYTE   W96
//  #06 //038   ----------------------------------------
 BYTE   W96
//  #06 //039   ----------------------------------------
 BYTE   W96
//  #06 //040   ----------------------------------------
 BYTE   W96
//  #06 //041   ----------------------------------------
 BYTE   W96
//  #06 //042   ----------------------------------------
 BYTE   W96
//  #06 //043   ----------------------------------------
 BYTE   W96
//  #06 //044   ----------------------------------------
 BYTE   W96
//  #06 //045   ----------------------------------------
 BYTE   W96
//  #06 //046   ----------------------------------------
 BYTE   W96
//  #06 //047   ----------------------------------------
 BYTE   W96
//  #06 //048   ----------------------------------------
 BYTE   W96
//  #06 //049   ----------------------------------------
Label_015F54A5:
 BYTE   N84  Fs3  v127
 BYTE   N84  Fs4  v032
 BYTE   W84
 BYTE   N11  Gn3  v127
 BYTE   N11  Gn4  v032
 BYTE   W06
 BYTE   N06  Fs3  v127
 BYTE   N06  Fs4  v032
 BYTE   W06
 BYTE   PEND 
//  #06 //050   ----------------------------------------
 BYTE   N11  En3  v127
 BYTE   N11  En4  v032
 BYTE   W96
//  #06 //051   ----------------------------------------
 BYTE   W96
//  #06 //052   ----------------------------------------
 BYTE   W96
//  #06 //053   ----------------------------------------
 BYTE   PATT
  POIN2 Label_015F54A5
//  #06 //054   ----------------------------------------
 BYTE   N11  En3  v127
 BYTE   N11  En4  v032
 BYTE   W96
//  #06 //055   ----------------------------------------
 BYTE   W96
//  #06 //056   ----------------------------------------
 BYTE   W96
//  #06 //057   ----------------------------------------
 BYTE   PATT
  POIN2 Label_015F54A5
//  #06 //058   ----------------------------------------
 BYTE   N11  En3  v127
 BYTE   N11  En4  v032
 BYTE   W96
//  #06 //059   ----------------------------------------
 BYTE   W96
//  #06 //060   ----------------------------------------
 BYTE   W96
//  #06 //061   ----------------------------------------
 BYTE   PATT
  POIN2 Label_015F54A5
//  #06 //062   ----------------------------------------
 BYTE   N11  En3  v127
 BYTE   N11  En4  v032
 BYTE   W96
//  #06 //063   ----------------------------------------
 BYTE   W96
//  #06 //064   ----------------------------------------
 BYTE   W96
//  #06 //065   ----------------------------------------
 BYTE   W96
//  #06 //066   ----------------------------------------
 BYTE   W96
//  #06 //067   ----------------------------------------
 BYTE   W96
//  #06 //068   ----------------------------------------
 BYTE   W96
//  #06 //069   ----------------------------------------
 BYTE   W96
//  #06 //070   ----------------------------------------
 BYTE   W96
//  #06 //071   ----------------------------------------
 BYTE   W96
//  #06 //072   ----------------------------------------
 BYTE   W96
//  #06 //073   ----------------------------------------
 BYTE   W96
//  #06 //074   ----------------------------------------
 BYTE   W96
//  #06 //075   ----------------------------------------
 BYTE   W96
//  #06 //076   ----------------------------------------
 BYTE   W96
//  #06 //077   ----------------------------------------
 BYTE   W96
//  #06 //078   ----------------------------------------
 BYTE   W96
//  #06 //079   ----------------------------------------
 BYTE   W96
//  #06 //080   ----------------------------------------
 BYTE   W96
//  #06 //081   ----------------------------------------
 BYTE   W96
//  #06 //082   ----------------------------------------
 BYTE   W96
//  #06 //083   ----------------------------------------
 BYTE   W96
//  #06 //084   ----------------------------------------
 BYTE   W96
//  #06 //085   ----------------------------------------
 BYTE   W96
//  #06 //086   ----------------------------------------
 BYTE   W96
//  #06 //087   ----------------------------------------
 BYTE   W96
//  #06 //088   ----------------------------------------
 BYTE   W96
//  #06 //089   ----------------------------------------
 BYTE   W96
//  #06 //090   ----------------------------------------
 BYTE   W96
//  #06 //091   ----------------------------------------
 BYTE   W96
//  #06 //092   ----------------------------------------
 BYTE   W96
//  #06 //093   ----------------------------------------
 BYTE   W96
//  #06 //094   ----------------------------------------
 BYTE   W96
//  #06 //095   ----------------------------------------
 BYTE   GoTo
  POIN2 Label_015F5485
 BYTE   FINE

//**************** Track 7 (Midi-Chn.6) ****************//

song64_007:
//  #07 //000   ----------------------------------------
 BYTE   KEYSH   song64_key+0
 BYTE   VOICE   81
 BYTE   VOL   70*song64_mvl/mxv
 BYTE   PAN   c_v+46
 BYTE   W96
//  #07 //001   ----------------------------------------
 BYTE   W96
//  #07 //002   ----------------------------------------
 BYTE   W96
//  #07 //003   ----------------------------------------
 BYTE   W96
//  #07 //004   ----------------------------------------
 BYTE   W96
//  #07 //005   ----------------------------------------
 BYTE   W96
//  #07 //006   ----------------------------------------
 BYTE   W96
//  #07 //007   ----------------------------------------
 BYTE   W96
//  #07 //008   ----------------------------------------
 BYTE   W96
//  #07 //009   ----------------------------------------
 BYTE   W96
//  #07 //010   ----------------------------------------
 BYTE   W96
//  #07 //011   ----------------------------------------
 BYTE   W96
//  #07 //012   ----------------------------------------
 BYTE   W96
//  #07 //013   ----------------------------------------
 BYTE   W96
//  #07 //014   ----------------------------------------
 BYTE   W96
//  #07 //015   ----------------------------------------
 BYTE   W96
//  #07 //016   ----------------------------------------
 BYTE   W96
//  #07 //017   ----------------------------------------
Label_015F552D:
 BYTE   W96
//  #07 //018   ----------------------------------------
 BYTE   W96
//  #07 //019   ----------------------------------------
 BYTE   W96
//  #07 //020   ----------------------------------------
 BYTE   W96
//  #07 //021   ----------------------------------------
 BYTE   W96
//  #07 //022   ----------------------------------------
 BYTE   W96
//  #07 //023   ----------------------------------------
 BYTE   W96
//  #07 //024   ----------------------------------------
 BYTE   W96
//  #07 //025   ----------------------------------------
 BYTE   W96
//  #07 //026   ----------------------------------------
 BYTE   W96
//  #07 //027   ----------------------------------------
 BYTE   W96
//  #07 //028   ----------------------------------------
 BYTE   W96
//  #07 //029   ----------------------------------------
 BYTE   W96
//  #07 //030   ----------------------------------------
 BYTE   W96
//  #07 //031   ----------------------------------------
 BYTE   W48
 BYTE   PAN   c_v+51
 BYTE   N03  En4  v056
 BYTE   W04
 BYTE   PAN   c_v+52
 BYTE   N03  Fs4  v060
 BYTE   W04
 BYTE   PAN   c_v+53
 BYTE   N03  Gn4
 BYTE   W04
 BYTE   PAN   c_v+54
 BYTE   N03  An4  v064
 BYTE   W04
 BYTE   PAN   c_v+55
 BYTE   N03  En4  v068
 BYTE   W04
 BYTE   PAN   c_v+56
 BYTE   N03  Fs4
 BYTE   W04
 BYTE   PAN   c_v+57
 BYTE   N03  Gn4  v072
 BYTE   W04
 BYTE   PAN   c_v+58
 BYTE   N03  An4
 BYTE   W04
 BYTE   PAN   c_v+59
 BYTE   N03  Bn4  v076
 BYTE   W04
 BYTE   PAN   c_v+60
 BYTE   N03  Cn5
 BYTE   W04
 BYTE   PAN   c_v+61
 BYTE   N03  Bn4  v080
 BYTE   W04
 BYTE   PAN   c_v+62
 BYTE   N03  Cn5
 BYTE   W04
//  #07 //032   ----------------------------------------
 BYTE   PAN   c_v+63
 BYTE   N03  Dn5  v084
 BYTE   W04
 BYTE   PAN   c_v+63
 BYTE   N03  En5  v088
 BYTE   W04
 BYTE   PAN   c_v+63
 BYTE   N03  Fn5
 BYTE   W04
 BYTE   PAN   c_v+59
 BYTE   N03  Gn5  v092
 BYTE   W04
 BYTE   PAN   c_v+54
 BYTE   N03  An5
 BYTE   W04
 BYTE   PAN   c_v+49
 BYTE   N03  Bn5  v096
 BYTE   W04
 BYTE   PAN   c_v+43
 BYTE   N03  Dn6
 BYTE   W04
 BYTE   PAN   c_v+38
 BYTE   N03  Cn6  v092
 BYTE   W04
 BYTE   PAN   c_v+33
 BYTE   N03  Bn5
 BYTE   W04
 BYTE   PAN   c_v+28
 BYTE   N03  An5  v088
 BYTE   W04
 BYTE   PAN   c_v+22
 BYTE   N03  Gn5  v084
 BYTE   W04
 BYTE   PAN   c_v+19
 BYTE   N03  Fs5  v080
 BYTE   W04
 BYTE   PAN   c_v+14
 BYTE   N03  En5  v076
 BYTE   W04
 BYTE   PAN   c_v+9
 BYTE   N03  Dn5  v072
 BYTE   W04
 BYTE   PAN   c_v+4
 BYTE   N03  Cn5  v068
 BYTE   W04
 BYTE   PAN   c_v-1
 BYTE   N03  Bn4  v064
 BYTE   W04
 BYTE   PAN   c_v-6
 BYTE   N03  An4
 BYTE   W04
 BYTE   PAN   c_v-14
 BYTE   N03  Gn4  v060
 BYTE   W04
 BYTE   PAN   c_v-21
 BYTE   N03  Fs4  v056
 BYTE   W04
 BYTE   PAN   c_v-28
 BYTE   N03  En4  v052
 BYTE   W04
 BYTE   PAN   c_v-34
 BYTE   N03  Dn4  v048
 BYTE   W04
 BYTE   PAN   c_v-41
 BYTE   N03  Cn4  v044
 BYTE   W04
 BYTE   PAN   c_v-48
 BYTE   N03  Bn3  v040
 BYTE   W04
 BYTE   PAN   c_v-54
 BYTE   N03  An3  v036
 BYTE   W04
//  #07 //033   ----------------------------------------
 BYTE   W96
//  #07 //034   ----------------------------------------
 BYTE   W96
//  #07 //035   ----------------------------------------
 BYTE   W96
//  #07 //036   ----------------------------------------
 BYTE   W96
//  #07 //037   ----------------------------------------
 BYTE   W96
//  #07 //038   ----------------------------------------
 BYTE   W96
//  #07 //039   ----------------------------------------
 BYTE   W96
//  #07 //040   ----------------------------------------
 BYTE   W96
//  #07 //041   ----------------------------------------
 BYTE   W96
//  #07 //042   ----------------------------------------
 BYTE   W96
//  #07 //043   ----------------------------------------
 BYTE   W96
//  #07 //044   ----------------------------------------
 BYTE   W96
//  #07 //045   ----------------------------------------
 BYTE   W96
//  #07 //046   ----------------------------------------
 BYTE   W96
//  #07 //047   ----------------------------------------
 BYTE   W96
//  #07 //048   ----------------------------------------
 BYTE   W96
//  #07 //049   ----------------------------------------
 BYTE   W96
//  #07 //050   ----------------------------------------
 BYTE   W96
//  #07 //051   ----------------------------------------
 BYTE   W96
//  #07 //052   ----------------------------------------
 BYTE   W96
//  #07 //053   ----------------------------------------
 BYTE   W96
//  #07 //054   ----------------------------------------
 BYTE   W96
//  #07 //055   ----------------------------------------
 BYTE   W96
//  #07 //056   ----------------------------------------
 BYTE   W96
//  #07 //057   ----------------------------------------
 BYTE   W96
//  #07 //058   ----------------------------------------
 BYTE   W96
//  #07 //059   ----------------------------------------
 BYTE   W96
//  #07 //060   ----------------------------------------
 BYTE   W96
//  #07 //061   ----------------------------------------
 BYTE   W96
//  #07 //062   ----------------------------------------
 BYTE   W96
//  #07 //063   ----------------------------------------
 BYTE   W96
//  #07 //064   ----------------------------------------
 BYTE   W96
//  #07 //065   ----------------------------------------
 BYTE   W96
//  #07 //066   ----------------------------------------
 BYTE   W96
//  #07 //067   ----------------------------------------
 BYTE   W96
//  #07 //068   ----------------------------------------
 BYTE   W96
//  #07 //069   ----------------------------------------
 BYTE   W96
//  #07 //070   ----------------------------------------
 BYTE   W96
//  #07 //071   ----------------------------------------
 BYTE   W96
//  #07 //072   ----------------------------------------
 BYTE   W96
//  #07 //073   ----------------------------------------
 BYTE   W96
//  #07 //074   ----------------------------------------
 BYTE   W96
//  #07 //075   ----------------------------------------
 BYTE   W96
//  #07 //076   ----------------------------------------
 BYTE   W96
//  #07 //077   ----------------------------------------
 BYTE   W96
//  #07 //078   ----------------------------------------
 BYTE   W96
//  #07 //079   ----------------------------------------
 BYTE   W96
//  #07 //080   ----------------------------------------
 BYTE   W96
//  #07 //081   ----------------------------------------
 BYTE   W96
//  #07 //082   ----------------------------------------
 BYTE   W96
//  #07 //083   ----------------------------------------
 BYTE   W96
//  #07 //084   ----------------------------------------
 BYTE   W96
//  #07 //085   ----------------------------------------
 BYTE   W96
//  #07 //086   ----------------------------------------
 BYTE   W96
//  #07 //087   ----------------------------------------
 BYTE   W96
//  #07 //088   ----------------------------------------
 BYTE   W96
//  #07 //089   ----------------------------------------
 BYTE   W96
//  #07 //090   ----------------------------------------
 BYTE   W96
//  #07 //091   ----------------------------------------
 BYTE   W96
//  #07 //092   ----------------------------------------
 BYTE   W96
//  #07 //093   ----------------------------------------
 BYTE   W96
//  #07 //094   ----------------------------------------
 BYTE   W96
//  #07 //095   ----------------------------------------
 BYTE   GoTo
  POIN2 Label_015F552D
 BYTE   FINE

//**************** Track 8 (Midi-Chn.7) ****************//

song64_008:
//  #08 //000   ----------------------------------------
 BYTE   KEYSH   song64_key+0
 BYTE   VOICE   14
 BYTE   VOL   29*song64_mvl/mxv
 BYTE   PAN   c_v+0
 BYTE   W96
//  #08 //001   ----------------------------------------
 BYTE   N92  En3  v116
 BYTE   W96
//  #08 //002   ----------------------------------------
 BYTE   W96
//  #08 //003   ----------------------------------------
 BYTE   N92
 BYTE   W96
//  #08 //004   ----------------------------------------
 BYTE   W96
//  #08 //005   ----------------------------------------
 BYTE   N92
 BYTE   W96
//  #08 //006   ----------------------------------------
 BYTE   W96
//  #08 //007   ----------------------------------------
 BYTE   N92
 BYTE   W96
//  #08 //008   ----------------------------------------
 BYTE   W96
//  #08 //009   ----------------------------------------
 BYTE   N92
 BYTE   W96
//  #08 //010   ----------------------------------------
 BYTE   W96
//  #08 //011   ----------------------------------------
 BYTE   N92
 BYTE   W96
//  #08 //012   ----------------------------------------
 BYTE   W96
//  #08 //013   ----------------------------------------
 BYTE   W96
//  #08 //014   ----------------------------------------
 BYTE   W96
//  #08 //015   ----------------------------------------
 BYTE   W96
//  #08 //016   ----------------------------------------
 BYTE   W96
//  #08 //017   ----------------------------------------
Label_015FAF75:
 BYTE   W96
//  #08 //018   ----------------------------------------
 BYTE   W96
//  #08 //019   ----------------------------------------
 BYTE   W96
//  #08 //020   ----------------------------------------
 BYTE   W96
//  #08 //021   ----------------------------------------
 BYTE   W96
//  #08 //022   ----------------------------------------
 BYTE   W96
//  #08 //023   ----------------------------------------
 BYTE   W96
//  #08 //024   ----------------------------------------
 BYTE   W96
//  #08 //025   ----------------------------------------
 BYTE   W96
//  #08 //026   ----------------------------------------
 BYTE   W96
//  #08 //027   ----------------------------------------
 BYTE   W96
//  #08 //028   ----------------------------------------
 BYTE   W96
//  #08 //029   ----------------------------------------
 BYTE   W96
//  #08 //030   ----------------------------------------
 BYTE   W96
//  #08 //031   ----------------------------------------
 BYTE   N92  En3  v116
 BYTE   W96
//  #08 //032   ----------------------------------------
 BYTE   W96
//  #08 //033   ----------------------------------------
 BYTE   W96
//  #08 //034   ----------------------------------------
 BYTE   W96
//  #08 //035   ----------------------------------------
 BYTE   W96
//  #08 //036   ----------------------------------------
 BYTE   W96
//  #08 //037   ----------------------------------------
 BYTE   W96
//  #08 //038   ----------------------------------------
 BYTE   W96
//  #08 //039   ----------------------------------------
 BYTE   W96
//  #08 //040   ----------------------------------------
 BYTE   W96
//  #08 //041   ----------------------------------------
 BYTE   W96
//  #08 //042   ----------------------------------------
 BYTE   W96
//  #08 //043   ----------------------------------------
 BYTE   W96
//  #08 //044   ----------------------------------------
 BYTE   W96
//  #08 //045   ----------------------------------------
 BYTE   W96
//  #08 //046   ----------------------------------------
 BYTE   W96
//  #08 //047   ----------------------------------------
 BYTE   W96
//  #08 //048   ----------------------------------------
 BYTE   W96
//  #08 //049   ----------------------------------------
 BYTE   W96
//  #08 //050   ----------------------------------------
 BYTE   W96
//  #08 //051   ----------------------------------------
 BYTE   W96
//  #08 //052   ----------------------------------------
 BYTE   W96
//  #08 //053   ----------------------------------------
 BYTE   W96
//  #08 //054   ----------------------------------------
 BYTE   W96
//  #08 //055   ----------------------------------------
 BYTE   W96
//  #08 //056   ----------------------------------------
 BYTE   W96
//  #08 //057   ----------------------------------------
 BYTE   W96
//  #08 //058   ----------------------------------------
 BYTE   W96
//  #08 //059   ----------------------------------------
 BYTE   W96
//  #08 //060   ----------------------------------------
 BYTE   W96
//  #08 //061   ----------------------------------------
 BYTE   W96
//  #08 //062   ----------------------------------------
 BYTE   W96
//  #08 //063   ----------------------------------------
 BYTE   W96
//  #08 //064   ----------------------------------------
 BYTE   W96
//  #08 //065   ----------------------------------------
 BYTE   W96
//  #08 //066   ----------------------------------------
 BYTE   W96
//  #08 //067   ----------------------------------------
 BYTE   W96
//  #08 //068   ----------------------------------------
 BYTE   W96
//  #08 //069   ----------------------------------------
 BYTE   W96
//  #08 //070   ----------------------------------------
 BYTE   W96
//  #08 //071   ----------------------------------------
 BYTE   W96
//  #08 //072   ----------------------------------------
 BYTE   W96
//  #08 //073   ----------------------------------------
 BYTE   W96
//  #08 //074   ----------------------------------------
 BYTE   W96
//  #08 //075   ----------------------------------------
 BYTE   W96
//  #08 //076   ----------------------------------------
 BYTE   W96
//  #08 //077   ----------------------------------------
 BYTE   W96
//  #08 //078   ----------------------------------------
 BYTE   W96
//  #08 //079   ----------------------------------------
 BYTE   W96
//  #08 //080   ----------------------------------------
 BYTE   W96
//  #08 //081   ----------------------------------------
 BYTE   W96
//  #08 //082   ----------------------------------------
 BYTE   W96
//  #08 //083   ----------------------------------------
 BYTE   W96
//  #08 //084   ----------------------------------------
 BYTE   W96
//  #08 //085   ----------------------------------------
 BYTE   W96
//  #08 //086   ----------------------------------------
 BYTE   W96
//  #08 //087   ----------------------------------------
 BYTE   N92
 BYTE   W96
//  #08 //088   ----------------------------------------
 BYTE   W96
//  #08 //089   ----------------------------------------
 BYTE   N92
 BYTE   W96
//  #08 //090   ----------------------------------------
 BYTE   W96
//  #08 //091   ----------------------------------------
 BYTE   W96
//  #08 //092   ----------------------------------------
 BYTE   W96
//  #08 //093   ----------------------------------------
 BYTE   W96
//  #08 //094   ----------------------------------------
 BYTE   W96
//  #08 //095   ----------------------------------------
 BYTE   GoTo
  POIN2 Label_015FAF75
 BYTE   FINE

//**************** Track 9 (Midi-Chn.8) ****************//

song64_009:
//  #09 //000   ----------------------------------------
 BYTE   KEYSH   song64_key+0
 BYTE   VOICE   34
 BYTE   PAN   c_v+0
 BYTE   VOL   35*song64_mvl/mxv
 BYTE   W96
//  #09 //001   ----------------------------------------
 BYTE   W96
//  #09 //002   ----------------------------------------
 BYTE   W96
//  #09 //003   ----------------------------------------
 BYTE   W96
//  #09 //004   ----------------------------------------
 BYTE   W96
//  #09 //005   ----------------------------------------
 BYTE   W96
//  #09 //006   ----------------------------------------
 BYTE   W96
//  #09 //007   ----------------------------------------
 BYTE   W96
//  #09 //008   ----------------------------------------
 BYTE   W96
//  #09 //009   ----------------------------------------
Label_015F5699:
 BYTE   N11  En1  v104
 BYTE   W12
 BYTE   En1  v096
 BYTE   W12
 BYTE   En1  v100
 BYTE   W12
 BYTE   En1  v108
 BYTE   W12
 BYTE   En1  v120
 BYTE   W12
 BYTE   En1  v112
 BYTE   W12
 BYTE   En1  v100
 BYTE   W12
 BYTE   En1  v120
 BYTE   W12
 BYTE   PEND 
//  #09 //010   ----------------------------------------
Label_015F56B3:
 BYTE   N11  En1  v096
 BYTE   W12
 BYTE   En1  v108
 BYTE   W12
 BYTE   En1  v120
 BYTE   W12
 BYTE   En1  v100
 BYTE   W12
 BYTE   En1  v112
 BYTE   W12
 BYTE   En1  v096
 BYTE   W12
 BYTE   En1  v108
 BYTE   W12
 BYTE   En1  v116
 BYTE   W12
 BYTE   PEND 
//  #09 //011   ----------------------------------------
 BYTE   PATT
  POIN2 Label_015F5699
//  #09 //012   ----------------------------------------
 BYTE   PATT
  POIN2 Label_015F56B3
//  #09 //013   ----------------------------------------
Label_015F56D7:
 BYTE   N11  En1  v088
 BYTE   W12
 BYTE   En1  v108
 BYTE   W12
 BYTE   En1  v088
 BYTE   W12
 BYTE   En1  v112
 BYTE   W12
 BYTE   En1  v116
 BYTE   W12
 BYTE   En1  v088
 BYTE   W12
 BYTE   En1  v112
 BYTE   W12
 BYTE   En1  v120
 BYTE   W12
 BYTE   PEND 
//  #09 //014   ----------------------------------------
Label_015F56F1:
 BYTE   N11  En1  v088
 BYTE   W12
 BYTE   En1  v112
 BYTE   W12
 BYTE   En1  v120
 BYTE   W12
 BYTE   En1  v088
 BYTE   W12
 BYTE   En1  v100
 BYTE   W12
 BYTE   En1  v088
 BYTE   W12
 BYTE   N11
 BYTE   W12
 BYTE   En1  v120
 BYTE   W12
 BYTE   PEND 
//  #09 //015   ----------------------------------------
Label_015F570A:
 BYTE   N11  En1  v088
 BYTE   W12
 BYTE   N11
 BYTE   W12
 BYTE   N11
 BYTE   W12
 BYTE   En1  v112
 BYTE   W12
 BYTE   En1  v120
 BYTE   W12
 BYTE   En1  v088
 BYTE   W12
 BYTE   En1  v112
 BYTE   W12
 BYTE   En1  v120
 BYTE   W12
 BYTE   PEND 
//  #09 //016   ----------------------------------------
 BYTE   PATT
  POIN2 Label_015F56F1
//  #09 //017   ----------------------------------------
Label_015F5727:
//  #09 //018   ----------------------------------------
 BYTE   PATT
  POIN2 Label_015F570A
//  #09 //019   ----------------------------------------
Label_015F572C:
 BYTE   N11  En1  v088
 BYTE   W12
 BYTE   En1  v112
 BYTE   W12
 BYTE   En1  v120
 BYTE   W12
 BYTE   En1  v088
 BYTE   W12
 BYTE   En1  v100
 BYTE   W12
 BYTE   En1  v088
 BYTE   W12
 BYTE   N11
 BYTE   W12
 BYTE   En1  v112
 BYTE   W12
 BYTE   PEND 
//  #09 //020   ----------------------------------------
 BYTE   PATT
  POIN2 Label_015F570A
//  #09 //021   ----------------------------------------
 BYTE   PATT
  POIN2 Label_015F572C
//  #09 //022   ----------------------------------------
 BYTE   PATT
  POIN2 Label_015F570A
//  #09 //023   ----------------------------------------
 BYTE   PATT
  POIN2 Label_015F56F1
//  #09 //024   ----------------------------------------
 BYTE   PATT
  POIN2 Label_015F570A
//  #09 //025   ----------------------------------------
 BYTE   PATT
  POIN2 Label_015F56F1
//  #09 //026   ----------------------------------------
 BYTE   PATT
  POIN2 Label_015F570A
//  #09 //027   ----------------------------------------
 BYTE   PATT
  POIN2 Label_015F572C
//  #09 //028   ----------------------------------------
 BYTE   PATT
  POIN2 Label_015F570A
//  #09 //029   ----------------------------------------
 BYTE   PATT
  POIN2 Label_015F572C
//  #09 //030   ----------------------------------------
 BYTE   PATT
  POIN2 Label_015F570A
//  #09 //031   ----------------------------------------
 BYTE   PATT
  POIN2 Label_015F572C
//  #09 //032   ----------------------------------------
 BYTE   PATT
  POIN2 Label_015F570A
//  #09 //033   ----------------------------------------
 BYTE   PATT
  POIN2 Label_015F572C
//  #09 //034   ----------------------------------------
 BYTE   PATT
  POIN2 Label_015F572C
//  #09 //035   ----------------------------------------
Label_015F5790:
 BYTE   N11  En1  v088
 BYTE   W12
 BYTE   En1  v100
 BYTE   W12
 BYTE   En1  v120
 BYTE   W12
 BYTE   En1  v088
 BYTE   W12
 BYTE   En1  v112
 BYTE   W12
 BYTE   En1  v088
 BYTE   W12
 BYTE   N11
 BYTE   W12
 BYTE   En1  v120
 BYTE   W12
 BYTE   PEND 
//  #09 //036   ----------------------------------------
 BYTE   PATT
  POIN2 Label_015F572C
//  #09 //037   ----------------------------------------
 BYTE   PATT
  POIN2 Label_015F5790
//  #09 //038   ----------------------------------------
 BYTE   PATT
  POIN2 Label_015F572C
//  #09 //039   ----------------------------------------
 BYTE   PATT
  POIN2 Label_015F5790
//  #09 //040   ----------------------------------------
 BYTE   PATT
  POIN2 Label_015F572C
//  #09 //041   ----------------------------------------
 BYTE   PATT
  POIN2 Label_015F5790
//  #09 //042   ----------------------------------------
 BYTE   PATT
  POIN2 Label_015F572C
//  #09 //043   ----------------------------------------
 BYTE   PATT
  POIN2 Label_015F5790
//  #09 //044   ----------------------------------------
 BYTE   PATT
  POIN2 Label_015F572C
//  #09 //045   ----------------------------------------
 BYTE   PATT
  POIN2 Label_015F5790
//  #09 //046   ----------------------------------------
 BYTE   PATT
  POIN2 Label_015F572C
//  #09 //047   ----------------------------------------
 BYTE   PATT
  POIN2 Label_015F5790
//  #09 //048   ----------------------------------------
 BYTE   PATT
  POIN2 Label_015F572C
//  #09 //049   ----------------------------------------
 BYTE   PATT
  POIN2 Label_015F5790
//  #09 //050   ----------------------------------------
Label_015F57EF:
 BYTE   N11  En1  v120
 BYTE   W12
 BYTE   En1  v088
 BYTE   W12
 BYTE   En1  v112
 BYTE   W12
 BYTE   En1  v120
 BYTE   W12
 BYTE   En1  v088
 BYTE   W12
 BYTE   En1  v120
 BYTE   W12
 BYTE   En1  v088
 BYTE   W12
 BYTE   En1  v112
 BYTE   W12
 BYTE   PEND 
//  #09 //051   ----------------------------------------
Label_015F5809:
 BYTE   N11  En1  v120
 BYTE   W12
 BYTE   En1  v088
 BYTE   W12
 BYTE   En1  v112
 BYTE   W12
 BYTE   En1  v120
 BYTE   W12
 BYTE   En1  v088
 BYTE   W12
 BYTE   En1  v112
 BYTE   W12
 BYTE   En1  v088
 BYTE   W12
 BYTE   En1  v120
 BYTE   W12
 BYTE   PEND 
//  #09 //052   ----------------------------------------
 BYTE   PATT
  POIN2 Label_015F57EF
//  #09 //053   ----------------------------------------
 BYTE   PATT
  POIN2 Label_015F5809
//  #09 //054   ----------------------------------------
Label_015F582D:
 BYTE   N11  Cn1  v120
 BYTE   W12
 BYTE   Cn1  v088
 BYTE   W12
 BYTE   Cn1  v112
 BYTE   W12
 BYTE   Cn1  v120
 BYTE   W12
 BYTE   Cn1  v088
 BYTE   W12
 BYTE   Cn1  v120
 BYTE   W12
 BYTE   Cn1  v088
 BYTE   W12
 BYTE   Cn1  v112
 BYTE   W12
 BYTE   PEND 
//  #09 //055   ----------------------------------------
Label_015F5847:
 BYTE   N11  Cn1  v120
 BYTE   W12
 BYTE   Cn1  v088
 BYTE   W12
 BYTE   Cn1  v112
 BYTE   W12
 BYTE   Cn1  v120
 BYTE   W12
 BYTE   Cn1  v088
 BYTE   W12
 BYTE   Cn1  v112
 BYTE   W12
 BYTE   Cn1  v088
 BYTE   W12
 BYTE   Cn1  v120
 BYTE   W12
 BYTE   PEND 
//  #09 //056   ----------------------------------------
 BYTE   PATT
  POIN2 Label_015F582D
//  #09 //057   ----------------------------------------
 BYTE   PATT
  POIN2 Label_015F5847
//  #09 //058   ----------------------------------------
 BYTE   PATT
  POIN2 Label_015F57EF
//  #09 //059   ----------------------------------------
 BYTE   PATT
  POIN2 Label_015F5809
//  #09 //060   ----------------------------------------
 BYTE   PATT
  POIN2 Label_015F57EF
//  #09 //061   ----------------------------------------
 BYTE   PATT
  POIN2 Label_015F5809
//  #09 //062   ----------------------------------------
 BYTE   PATT
  POIN2 Label_015F582D
//  #09 //063   ----------------------------------------
 BYTE   PATT
  POIN2 Label_015F5847
//  #09 //064   ----------------------------------------
 BYTE   PATT
  POIN2 Label_015F582D
//  #09 //065   ----------------------------------------
 BYTE   PATT
  POIN2 Label_015F5847
//  #09 //066   ----------------------------------------
 BYTE   W96
//  #09 //067   ----------------------------------------
 BYTE   W96
//  #09 //068   ----------------------------------------
 BYTE   W96
//  #09 //069   ----------------------------------------
 BYTE   W96
//  #09 //070   ----------------------------------------
 BYTE   W96
//  #09 //071   ----------------------------------------
 BYTE   W96
//  #09 //072   ----------------------------------------
 BYTE   W96
//  #09 //073   ----------------------------------------
 BYTE   W96
//  #09 //074   ----------------------------------------
 BYTE   W96
//  #09 //075   ----------------------------------------
 BYTE   W96
//  #09 //076   ----------------------------------------
 BYTE   W96
//  #09 //077   ----------------------------------------
 BYTE   W96
//  #09 //078   ----------------------------------------
 BYTE   W96
//  #09 //079   ----------------------------------------
 BYTE   W96
//  #09 //080   ----------------------------------------
 BYTE   W96
//  #09 //081   ----------------------------------------
 BYTE   W96
//  #09 //082   ----------------------------------------
 BYTE   W96
//  #09 //083   ----------------------------------------
 BYTE   W96
//  #09 //084   ----------------------------------------
 BYTE   W96
//  #09 //085   ----------------------------------------
 BYTE   W96
//  #09 //086   ----------------------------------------
 BYTE   W96
//  #09 //087   ----------------------------------------
 BYTE   W96
//  #09 //088   ----------------------------------------
 BYTE   PATT
  POIN2 Label_015F5699
//  #09 //089   ----------------------------------------
 BYTE   PATT
  POIN2 Label_015F56B3
//  #09 //090   ----------------------------------------
 BYTE   PATT
  POIN2 Label_015F5699
//  #09 //091   ----------------------------------------
 BYTE   PATT
  POIN2 Label_015F56B3
//  #09 //092   ----------------------------------------
 BYTE   PATT
  POIN2 Label_015F56D7
//  #09 //093   ----------------------------------------
 BYTE   PATT
  POIN2 Label_015F56F1
//  #09 //094   ----------------------------------------
 BYTE   PATT
  POIN2 Label_015F570A
//  #09 //095   ----------------------------------------
 BYTE   PATT
  POIN2 Label_015F56F1
//  #09 //096   ----------------------------------------
 BYTE   GoTo
  POIN2 Label_015F5727
 BYTE   FINE

//**************** Track 10 (Midi-Chn.9) ****************//

song64_010:
//  #10 //000   ----------------------------------------
 BYTE   KEYSH   song64_key+0
 BYTE   VOICE   81
 BYTE   PAN   c_v+0
 BYTE   VOL   37*song64_mvl/mxv
 BYTE   W96
//  #10 //001   ----------------------------------------
 BYTE   W96
//  #10 //002   ----------------------------------------
 BYTE   W96
//  #10 //003   ----------------------------------------
 BYTE   W96
//  #10 //004   ----------------------------------------
 BYTE   W96
//  #10 //005   ----------------------------------------
 BYTE   W96
//  #10 //006   ----------------------------------------
 BYTE   W96
//  #10 //007   ----------------------------------------
 BYTE   W96
//  #10 //008   ----------------------------------------
 BYTE   W96
//  #10 //009   ----------------------------------------
 BYTE   W96
//  #10 //010   ----------------------------------------
 BYTE   W96
//  #10 //011   ----------------------------------------
 BYTE   W96
//  #10 //012   ----------------------------------------
 BYTE   W96
//  #10 //013   ----------------------------------------
 BYTE   W96
//  #10 //014   ----------------------------------------
 BYTE   W96
//  #10 //015   ----------------------------------------
 BYTE   W96
//  #10 //016   ----------------------------------------
 BYTE   W96
//  #10 //017   ----------------------------------------
Label_015F58F1:
 BYTE   W96
//  #10 //018   ----------------------------------------
 BYTE   W96
//  #10 //019   ----------------------------------------
 BYTE   W96
//  #10 //020   ----------------------------------------
 BYTE   W96
//  #10 //021   ----------------------------------------
 BYTE   W96
//  #10 //022   ----------------------------------------
 BYTE   W96
//  #10 //023   ----------------------------------------
 BYTE   W96
//  #10 //024   ----------------------------------------
 BYTE   W96
//  #10 //025   ----------------------------------------
 BYTE   W96
//  #10 //026   ----------------------------------------
 BYTE   W96
//  #10 //027   ----------------------------------------
 BYTE   W96
//  #10 //028   ----------------------------------------
 BYTE   W96
//  #10 //029   ----------------------------------------
 BYTE   W96
//  #10 //030   ----------------------------------------
 BYTE   W96
//  #10 //031   ----------------------------------------
 BYTE   W96
//  #10 //032   ----------------------------------------
 BYTE   W96
//  #10 //033   ----------------------------------------
 BYTE   W96
//  #10 //034   ----------------------------------------
 BYTE   W96
//  #10 //035   ----------------------------------------
 BYTE   W96
//  #10 //036   ----------------------------------------
 BYTE   W96
//  #10 //037   ----------------------------------------
 BYTE   W96
//  #10 //038   ----------------------------------------
 BYTE   W96
//  #10 //039   ----------------------------------------
 BYTE   W96
//  #10 //040   ----------------------------------------
 BYTE   W96
//  #10 //041   ----------------------------------------
 BYTE   W96
//  #10 //042   ----------------------------------------
 BYTE   W96
//  #10 //043   ----------------------------------------
 BYTE   W96
//  #10 //044   ----------------------------------------
 BYTE   W96
//  #10 //045   ----------------------------------------
 BYTE   W96
//  #10 //046   ----------------------------------------
 BYTE   W96
//  #10 //047   ----------------------------------------
 BYTE   W96
//  #10 //048   ----------------------------------------
 BYTE   W96
//  #10 //049   ----------------------------------------
 BYTE   W96
//  #10 //050   ----------------------------------------
 BYTE   W96
//  #10 //051   ----------------------------------------
 BYTE   W96
//  #10 //052   ----------------------------------------
 BYTE   W96
//  #10 //053   ----------------------------------------
 BYTE   W96
//  #10 //054   ----------------------------------------
 BYTE   W96
//  #10 //055   ----------------------------------------
 BYTE   W96
//  #10 //056   ----------------------------------------
 BYTE   W96
//  #10 //057   ----------------------------------------
 BYTE   W96
//  #10 //058   ----------------------------------------
 BYTE   W96
//  #10 //059   ----------------------------------------
 BYTE   W96
//  #10 //060   ----------------------------------------
 BYTE   W96
//  #10 //061   ----------------------------------------
 BYTE   W96
//  #10 //062   ----------------------------------------
 BYTE   W96
//  #10 //063   ----------------------------------------
 BYTE   W96
//  #10 //064   ----------------------------------------
 BYTE   W96
//  #10 //065   ----------------------------------------
 BYTE   W96
//  #10 //066   ----------------------------------------
 BYTE   W96
//  #10 //067   ----------------------------------------
 BYTE   W96
//  #10 //068   ----------------------------------------
 BYTE   W96
//  #10 //069   ----------------------------------------
Label_015F5925:
 BYTE   BEND   c_v-3
 BYTE   TIE  En1  v112
 BYTE   W03
 BYTE   W03
 BYTE   W02
 BYTE   BEND   c_v-2
 BYTE   W01
 BYTE   W04
 BYTE   W03
 BYTE   W01
 BYTE   BEND   c_v-1
 BYTE   W02
 BYTE   W03
 BYTE   W03
 BYTE   BEND   c_v+0
 BYTE   W03
 BYTE   W03
 BYTE   W04
 BYTE   W03
 BYTE   W03
 BYTE   W03
 BYTE   W03
 BYTE   W03
 BYTE   W04
 BYTE   W03
 BYTE   W03
 BYTE   W03
 BYTE   W03
 BYTE   W03
 BYTE   W03
 BYTE   W04
 BYTE   W03
 BYTE   W03
 BYTE   W03
 BYTE   W03
 BYTE   W03
 BYTE   W03
 BYTE   W02
 BYTE   PEND 
//  #10 //070   ----------------------------------------
Label_015F5950:
 BYTE   W02
 BYTE   W03
 BYTE   W03
 BYTE   W03
 BYTE   W03
 BYTE   W03
 BYTE   W03
 BYTE   W04
 BYTE   W03
 BYTE   W03
 BYTE   W03
 BYTE   W03
 BYTE   W03
 BYTE   W03
 BYTE   W04
 BYTE   W03
 BYTE   W03
 BYTE   W03
 BYTE   W03
 BYTE   W03
 BYTE   W04
 BYTE   W03
 BYTE   W03
 BYTE   W03
 BYTE   W03
 BYTE   W03
 BYTE   W03
 BYTE   W04
 BYTE   W03
 BYTE   W03
 BYTE   W03
 BYTE   PEND 
//  #10 //071   ----------------------------------------
Label_015F5970:
 BYTE   W03
 BYTE   W03
 BYTE   W03
 BYTE   W04
 BYTE   W03
 BYTE   W03
 BYTE   W03
 BYTE   W03
 BYTE   W03
 BYTE   W03
 BYTE   W04
 BYTE   W03
 BYTE   W03
 BYTE   W03
 BYTE   W03
 BYTE   W03
 BYTE   W03
 BYTE   W04
 BYTE   W03
 BYTE   W03
 BYTE   W03
 BYTE   W03
 BYTE   W03
 BYTE   W04
 BYTE   W03
 BYTE   W03
 BYTE   W03
 BYTE   W03
 BYTE   W03
 BYTE   W03
 BYTE   W02
 BYTE   PEND 
//  #10 //072   ----------------------------------------
Label_015F5990:
 BYTE   W02
 BYTE   W03
 BYTE   W03
 BYTE   W03
 BYTE   W03
 BYTE   W03
 BYTE   W03
 BYTE   W04
 BYTE   W03
 BYTE   W03
 BYTE   W03
 BYTE   W03
 BYTE   W03
 BYTE   W03
 BYTE   W04
 BYTE   W03
 BYTE   W03
 BYTE   W03
 BYTE   W03
 BYTE   W03
 BYTE   W03
 BYTE   W04
 BYTE   W03
 BYTE   W03
 BYTE   W03
 BYTE   W03
 BYTE   W03
 BYTE   W04
 BYTE   W03
 BYTE   W03
 BYTE   W02
 BYTE   PEND 
 BYTE   EOT
 BYTE   En1
 BYTE   W01
//  #10 //073   ----------------------------------------
 BYTE   PATT
  POIN2 Label_015F5925
//  #10 //074   ----------------------------------------
 BYTE   PATT
  POIN2 Label_015F5950
//  #10 //075   ----------------------------------------
 BYTE   PATT
  POIN2 Label_015F5970
//  #10 //076   ----------------------------------------
 BYTE   PATT
  POIN2 Label_015F5990
//  #10 //077   ----------------------------------------
 BYTE   EOT
 BYTE   En1
 BYTE   W01
//  #10 //078   ----------------------------------------
 BYTE   PATT
  POIN2 Label_015F5925
//  #10 //079   ----------------------------------------
 BYTE   PATT
  POIN2 Label_015F5950
//  #10 //080   ----------------------------------------
 BYTE   PATT
  POIN2 Label_015F5970
//  #10 //081   ----------------------------------------
 BYTE   PATT
  POIN2 Label_015F5990
//  #10 //082   ----------------------------------------
 BYTE   EOT
 BYTE   En1
 BYTE   W01
//  #10 //083   ----------------------------------------
 BYTE   PATT
  POIN2 Label_015F5925
//  #10 //084   ----------------------------------------
 BYTE   PATT
  POIN2 Label_015F5950
//  #10 //085   ----------------------------------------
 BYTE   PATT
  POIN2 Label_015F5970
//  #10 //086   ----------------------------------------
 BYTE   PATT
  POIN2 Label_015F5990
//  #10 //087   ----------------------------------------
 BYTE   EOT
 BYTE   En1
 BYTE   W01
//  #10 //088   ----------------------------------------
 BYTE   PATT
  POIN2 Label_015F5925
//  #10 //089   ----------------------------------------
 BYTE   PATT
  POIN2 Label_015F5950
//  #10 //090   ----------------------------------------
 BYTE   EOT
 BYTE   En1
 BYTE   W96
//  #10 //091   ----------------------------------------
 BYTE   BEND   c_v+0
 BYTE   W96
//  #10 //092   ----------------------------------------
 BYTE   W96
//  #10 //093   ----------------------------------------
 BYTE   W96
//  #10 //094   ----------------------------------------
 BYTE   W96
//  #10 //095   ----------------------------------------
 BYTE   W96
//  #10 //096   ----------------------------------------
 BYTE   W96
//  #10 //097   ----------------------------------------
 BYTE   W96
//  #10 //098   ----------------------------------------
 BYTE   GoTo
  POIN2 Label_015F58F1
 BYTE   FINE

//**************** Track 11 (Midi-Chn.10) ****************//

song64_011:
//  #11 //000   ----------------------------------------
 BYTE   KEYSH   song64_key+0
 BYTE   VOICE   49
 BYTE   PAN   c_v-6
 BYTE   VOL   33*song64_mvl/mxv
 BYTE   W96
//  #11 //001   ----------------------------------------
 BYTE   TIE  En1  v112
 BYTE   W96
//  #11 //002   ----------------------------------------
 BYTE   W92
 BYTE   W03
 BYTE   EOT
 BYTE   W01
//  #11 //003   ----------------------------------------
 BYTE   TIE
 BYTE   W96
//  #11 //004   ----------------------------------------
 BYTE   W96
//  #11 //005   ----------------------------------------
 BYTE   W96
//  #11 //006   ----------------------------------------
 BYTE   W92
 BYTE   W03
 BYTE   EOT
 BYTE   W01
//  #11 //007   ----------------------------------------
 BYTE   TIE
 BYTE   W96
//  #11 //008   ----------------------------------------
 BYTE   W96
//  #11 //009   ----------------------------------------
 BYTE   VOL   33*song64_mvl/mxv
 BYTE   W96
//  #11 //010   ----------------------------------------
 BYTE   W96
//  #11 //011   ----------------------------------------
 BYTE   W92
 BYTE   W03
 BYTE   EOT
 BYTE   W01
//  #11 //012   ----------------------------------------
 BYTE   TIE
 BYTE   W96
//  #11 //013   ----------------------------------------
 BYTE   W96
//  #11 //014   ----------------------------------------
 BYTE   W96
//  #11 //015   ----------------------------------------
 BYTE   W96
//  #11 //016   ----------------------------------------
 BYTE   W92
 BYTE   W03
 BYTE   EOT
 BYTE   W01
//  #11 //017   ----------------------------------------
Label_015F5A41:
 BYTE   TIE  En1  v112
 BYTE   W96
//  #11 //018   ----------------------------------------
 BYTE   W96
//  #11 //019   ----------------------------------------
 BYTE   W96
//  #11 //020   ----------------------------------------
 BYTE   W96
//  #11 //021   ----------------------------------------
 BYTE   W96
//  #11 //022   ----------------------------------------
 BYTE   W96
//  #11 //023   ----------------------------------------
 BYTE   W96
//  #11 //024   ----------------------------------------
 BYTE   W92
 BYTE   W03
 BYTE   EOT
 BYTE   W01
//  #11 //025   ----------------------------------------
 BYTE   TIE
 BYTE   W96
//  #11 //026   ----------------------------------------
 BYTE   W96
//  #11 //027   ----------------------------------------
 BYTE   W96
//  #11 //028   ----------------------------------------
 BYTE   W96
//  #11 //029   ----------------------------------------
 BYTE   W96
//  #11 //030   ----------------------------------------
 BYTE   W96
//  #11 //031   ----------------------------------------
 BYTE   W96
//  #11 //032   ----------------------------------------
 BYTE   W96
//  #11 //033   ----------------------------------------
 BYTE   W96
//  #11 //034   ----------------------------------------
 BYTE   W96
//  #11 //035   ----------------------------------------
 BYTE   W96
//  #11 //036   ----------------------------------------
 BYTE   W96
//  #11 //037   ----------------------------------------
 BYTE   W96
//  #11 //038   ----------------------------------------
 BYTE   W96
//  #11 //039   ----------------------------------------
 BYTE   W96
//  #11 //040   ----------------------------------------
 BYTE   W96
//  #11 //041   ----------------------------------------
 BYTE   W96
//  #11 //042   ----------------------------------------
 BYTE   W96
//  #11 //043   ----------------------------------------
 BYTE   W96
//  #11 //044   ----------------------------------------
 BYTE   W96
//  #11 //045   ----------------------------------------
 BYTE   W96
//  #11 //046   ----------------------------------------
 BYTE   W96
//  #11 //047   ----------------------------------------
 BYTE   W96
//  #11 //048   ----------------------------------------
 BYTE   W96
//  #11 //049   ----------------------------------------
 BYTE   W96
//  #11 //050   ----------------------------------------
 BYTE   W96
//  #11 //051   ----------------------------------------
 BYTE   W96
//  #11 //052   ----------------------------------------
 BYTE   W96
//  #11 //053   ----------------------------------------
 BYTE   EOT
 BYTE   TIE  Cn1
 BYTE   W96
//  #11 //054   ----------------------------------------
 BYTE   W96
//  #11 //055   ----------------------------------------
 BYTE   W96
//  #11 //056   ----------------------------------------
 BYTE   W92
 BYTE   W03
 BYTE   EOT
 BYTE   W01
//  #11 //057   ----------------------------------------
 BYTE   TIE  En1
 BYTE   W96
//  #11 //058   ----------------------------------------
 BYTE   W96
//  #11 //059   ----------------------------------------
 BYTE   W96
//  #11 //060   ----------------------------------------
 BYTE   W96
//  #11 //061   ----------------------------------------
 BYTE   EOT
 BYTE   TIE  Cn1
 BYTE   W96
//  #11 //062   ----------------------------------------
 BYTE   W96
//  #11 //063   ----------------------------------------
 BYTE   W96
//  #11 //064   ----------------------------------------
 BYTE   W92
 BYTE   W03
 BYTE   EOT
 BYTE   W01
//  #11 //065   ----------------------------------------
 BYTE   TIE  En1
 BYTE   W96
//  #11 //066   ----------------------------------------
 BYTE   W96
//  #11 //067   ----------------------------------------
 BYTE   W96
//  #11 //068   ----------------------------------------
 BYTE   W96
//  #11 //069   ----------------------------------------
 BYTE   W96
//  #11 //070   ----------------------------------------
 BYTE   W96
//  #11 //071   ----------------------------------------
 BYTE   W96
//  #11 //072   ----------------------------------------
 BYTE   W96
//  #11 //073   ----------------------------------------
 BYTE   W96
//  #11 //074   ----------------------------------------
 BYTE   W96
//  #11 //075   ----------------------------------------
 BYTE   W96
//  #11 //076   ----------------------------------------
 BYTE   W96
//  #11 //077   ----------------------------------------
 BYTE   W96
//  #11 //078   ----------------------------------------
 BYTE   W96
//  #11 //079   ----------------------------------------
 BYTE   W96
//  #11 //080   ----------------------------------------
 BYTE   W96
//  #11 //081   ----------------------------------------
 BYTE   W96
//  #11 //082   ----------------------------------------
 BYTE   W96
//  #11 //083   ----------------------------------------
 BYTE   VOL   33*song64_mvl/mxv
 BYTE   W19
 BYTE   VOL   34*song64_mvl/mxv
 BYTE   W19
 BYTE   VOL   34*song64_mvl/mxv
 BYTE   W20
 BYTE   VOL   35*song64_mvl/mxv
 BYTE   W19
 BYTE   VOL   35*song64_mvl/mxv
 BYTE   W19
//  #11 //084   ----------------------------------------
 BYTE   VOL   35*song64_mvl/mxv
 BYTE   W14
 BYTE   VOL   36*song64_mvl/mxv
 BYTE   W13
 BYTE   VOL   36*song64_mvl/mxv
 BYTE   W14
 BYTE   VOL   37*song64_mvl/mxv
 BYTE   W14
 BYTE   VOL   37*song64_mvl/mxv
 BYTE   W14
 BYTE   VOL   37*song64_mvl/mxv
 BYTE   W13
 BYTE   VOL   38*song64_mvl/mxv
 BYTE   W14
//  #11 //085   ----------------------------------------
 BYTE   VOL   38*song64_mvl/mxv
 BYTE   W19
 BYTE   VOL   38*song64_mvl/mxv
 BYTE   W19
 BYTE   VOL   39*song64_mvl/mxv
 BYTE   W20
 BYTE   VOL   39*song64_mvl/mxv
 BYTE   W19
 BYTE   VOL   40*song64_mvl/mxv
 BYTE   W19
//  #11 //086   ----------------------------------------
 BYTE   VOL   40*song64_mvl/mxv
 BYTE   W04
 BYTE   VOL   40*song64_mvl/mxv
 BYTE   W04
 BYTE   VOL   41*song64_mvl/mxv
 BYTE   W04
 BYTE   VOL   41*song64_mvl/mxv
 BYTE   W04
 BYTE   VOL   42*song64_mvl/mxv
 BYTE   W04
 BYTE   VOL   42*song64_mvl/mxv
 BYTE   W04
 BYTE   VOL   42*song64_mvl/mxv
 BYTE   W04
 BYTE   VOL   43*song64_mvl/mxv
 BYTE   W04
 BYTE   VOL   43*song64_mvl/mxv
 BYTE   W04
 BYTE   VOL   44*song64_mvl/mxv
 BYTE   W04
 BYTE   VOL   44*song64_mvl/mxv
 BYTE   W04
 BYTE   VOL   44*song64_mvl/mxv
 BYTE   W04
 BYTE   VOL   45*song64_mvl/mxv
 BYTE   W04
 BYTE   VOL   45*song64_mvl/mxv
 BYTE   W04
 BYTE   VOL   46*song64_mvl/mxv
 BYTE   W04
 BYTE   VOL   46*song64_mvl/mxv
 BYTE   W04
 BYTE   VOL   46*song64_mvl/mxv
 BYTE   W04
 BYTE   VOL   47*song64_mvl/mxv
 BYTE   W04
 BYTE   VOL   47*song64_mvl/mxv
 BYTE   W04
 BYTE   VOL   48*song64_mvl/mxv
 BYTE   W04
 BYTE   VOL   48*song64_mvl/mxv
 BYTE   W04
 BYTE   VOL   48*song64_mvl/mxv
 BYTE   W04
 BYTE   VOL   49*song64_mvl/mxv
 BYTE   W04
 BYTE   VOL   49*song64_mvl/mxv
 BYTE   W04
//  #11 //087   ----------------------------------------
 BYTE   VOL   33*song64_mvl/mxv
 BYTE   W96
//  #11 //088   ----------------------------------------
 BYTE   W96
//  #11 //089   ----------------------------------------
 BYTE   W92
 BYTE   W03
 BYTE   EOT
 BYTE   W01
//  #11 //090   ----------------------------------------
 BYTE   TIE
 BYTE   W96
//  #11 //091   ----------------------------------------
 BYTE   W96
//  #11 //092   ----------------------------------------
 BYTE   W96
//  #11 //093   ----------------------------------------
 BYTE   W96
//  #11 //094   ----------------------------------------
 BYTE   W92
 BYTE   W03
 BYTE   EOT
 BYTE   W01
//  #11 //095   ----------------------------------------
 BYTE   GoTo
  POIN2 Label_015F5A41
 BYTE   FINE

//**************** Track 12 (Midi-Chn.11) ****************//

song64_012:
//  #12 //000   ----------------------------------------
 BYTE   KEYSH   song64_key+0
 BYTE   VOICE   47
 BYTE   PAN   c_v+0
 BYTE   VOL   43*song64_mvl/mxv
 BYTE   W84
 BYTE   N05  En1  v112
 BYTE   W06
 BYTE   En1  v116
 BYTE   W06
//  #12 //001   ----------------------------------------
 BYTE   N92
 BYTE   W96
//  #12 //002   ----------------------------------------
Label_015F5B16:
 BYTE   W60
 BYTE   N11  En1  v112
 BYTE   W12
 BYTE   N11
 BYTE   W12
 BYTE   En1  v116
 BYTE   W12
 BYTE   PEND 
//  #12 //003   ----------------------------------------
 BYTE   N92
 BYTE   W96
//  #12 //004   ----------------------------------------
Label_015F5B23:
 BYTE   W84
 BYTE   N05  En1  v112
 BYTE   W06
 BYTE   En1  v116
 BYTE   W06
 BYTE   PEND 
//  #12 //005   ----------------------------------------
 BYTE   N92
 BYTE   W96
//  #12 //006   ----------------------------------------
 BYTE   PATT
  POIN2 Label_015F5B16
//  #12 //007   ----------------------------------------
 BYTE   N92  En1  v116
 BYTE   W96
//  #12 //008   ----------------------------------------
 BYTE   PATT
  POIN2 Label_015F5B23
//  #12 //009   ----------------------------------------
 BYTE   N92  En1  v116
 BYTE   W96
//  #12 //010   ----------------------------------------
 BYTE   W96
//  #12 //011   ----------------------------------------
 BYTE   N92
 BYTE   W96
//  #12 //012   ----------------------------------------
 BYTE   W96
//  #12 //013   ----------------------------------------
 BYTE   N92
 BYTE   W96
//  #12 //014   ----------------------------------------
 BYTE   W96
//  #12 //015   ----------------------------------------
 BYTE   N92
 BYTE   W96
//  #12 //016   ----------------------------------------
 BYTE   W96
//  #12 //017   ----------------------------------------
Label_015F5B4A:
 BYTE   N92  En1  v116
 BYTE   W96
//  #12 //018   ----------------------------------------
 BYTE   W96
//  #12 //019   ----------------------------------------
 BYTE   N92
 BYTE   W96
//  #12 //020   ----------------------------------------
 BYTE   W96
//  #12 //021   ----------------------------------------
 BYTE   N92
 BYTE   W96
//  #12 //022   ----------------------------------------
 BYTE   W96
//  #12 //023   ----------------------------------------
 BYTE   N92
 BYTE   W96
//  #12 //024   ----------------------------------------
 BYTE   W96
//  #12 //025   ----------------------------------------
 BYTE   N92
 BYTE   W96
//  #12 //026   ----------------------------------------
 BYTE   W96
//  #12 //027   ----------------------------------------
 BYTE   N92
 BYTE   W96
//  #12 //028   ----------------------------------------
 BYTE   W96
//  #12 //029   ----------------------------------------
 BYTE   N92
 BYTE   W96
//  #12 //030   ----------------------------------------
 BYTE   W96
//  #12 //031   ----------------------------------------
 BYTE   N92
 BYTE   W96
//  #12 //032   ----------------------------------------
 BYTE   W96
//  #12 //033   ----------------------------------------
Label_015F5B64:
 BYTE   N32  En1  v116
 BYTE   W36
 BYTE   N32
 BYTE   W60
 BYTE   PEND 
//  #12 //034   ----------------------------------------
Label_015F5B6B:
 BYTE   W12
 BYTE   N32  En1  v116
 BYTE   W36
 BYTE   N32
 BYTE   W48
 BYTE   PEND 
//  #12 //035   ----------------------------------------
 BYTE   PATT
  POIN2 Label_015F5B64
//  #12 //036   ----------------------------------------
Label_015F5B78:
 BYTE   W12
 BYTE   N11  En1  v116
 BYTE   W12
 BYTE   N32
 BYTE   W36
 BYTE   N22
 BYTE   W24
 BYTE   N05
 BYTE   W06
 BYTE   N05
 BYTE   W06
 BYTE   PEND 
//  #12 //037   ----------------------------------------
 BYTE   PATT
  POIN2 Label_015F5B64
//  #12 //038   ----------------------------------------
 BYTE   PATT
  POIN2 Label_015F5B6B
//  #12 //039   ----------------------------------------
 BYTE   PATT
  POIN2 Label_015F5B64
//  #12 //040   ----------------------------------------
 BYTE   PATT
  POIN2 Label_015F5B78
//  #12 //041   ----------------------------------------
 BYTE   PATT
  POIN2 Label_015F5B64
//  #12 //042   ----------------------------------------
 BYTE   PATT
  POIN2 Label_015F5B6B
//  #12 //043   ----------------------------------------
 BYTE   PATT
  POIN2 Label_015F5B64
//  #12 //044   ----------------------------------------
 BYTE   PATT
  POIN2 Label_015F5B78
//  #12 //045   ----------------------------------------
 BYTE   PATT
  POIN2 Label_015F5B64
//  #12 //046   ----------------------------------------
 BYTE   PATT
  POIN2 Label_015F5B6B
//  #12 //047   ----------------------------------------
 BYTE   PATT
  POIN2 Label_015F5B64
//  #12 //048   ----------------------------------------
 BYTE   PATT
  POIN2 Label_015F5B78
//  #12 //049   ----------------------------------------
 BYTE   N92  En1  v116
 BYTE   W96
//  #12 //050   ----------------------------------------
Label_015F5BC6:
 BYTE   W60
 BYTE   N11  En1  v104
 BYTE   W12
 BYTE   En1  v108
 BYTE   W12
 BYTE   En1  v112
 BYTE   W12
 BYTE   PEND 
//  #12 //051   ----------------------------------------
Label_015F5BD2:
 BYTE   N68  En1  v116
 BYTE   W72
 BYTE   N22  Bn0
 BYTE   W24
 BYTE   PEND 
//  #12 //052   ----------------------------------------
Label_015F5BDA:
 BYTE   W12
 BYTE   N32  En1  v116
 BYTE   W36
 BYTE   N22  Bn0
 BYTE   W24
 BYTE   En1
 BYTE   W24
 BYTE   PEND 
//  #12 //053   ----------------------------------------
 BYTE   N92  Bn0
 BYTE   W96
//  #12 //054   ----------------------------------------
Label_015F5BE8:
 BYTE   W60
 BYTE   N11  Bn0  v104
 BYTE   W12
 BYTE   Bn0  v108
 BYTE   W12
 BYTE   Bn0  v112
 BYTE   W12
 BYTE   PEND 
//  #12 //055   ----------------------------------------
Label_015F5BF4:
 BYTE   N68  Bn0  v112
 BYTE   W72
 BYTE   N22
 BYTE   W24
 BYTE   PEND 
//  #12 //056   ----------------------------------------
Label_015F5BFB:
 BYTE   W12
 BYTE   N32  En1  v112
 BYTE   W36
 BYTE   N22  Bn0
 BYTE   W24
 BYTE   En1
 BYTE   W24
 BYTE   PEND 
//  #12 //057   ----------------------------------------
 BYTE   N92  En1  v116
 BYTE   W96
//  #12 //058   ----------------------------------------
 BYTE   PATT
  POIN2 Label_015F5BC6
//  #12 //059   ----------------------------------------
 BYTE   PATT
  POIN2 Label_015F5BD2
//  #12 //060   ----------------------------------------
 BYTE   PATT
  POIN2 Label_015F5BDA
//  #12 //061   ----------------------------------------
 BYTE   N92  Bn0  v116
 BYTE   W96
//  #12 //062   ----------------------------------------
 BYTE   PATT
  POIN2 Label_015F5BE8
//  #12 //063   ----------------------------------------
 BYTE   PATT
  POIN2 Label_015F5BF4
//  #12 //064   ----------------------------------------
 BYTE   PATT
  POIN2 Label_015F5BFB
//  #12 //065   ----------------------------------------
Label_015F5C2C:
 BYTE   N68  En1  v112
 BYTE   W84
 BYTE   N11
 BYTE   W12
 BYTE   PEND 
//  #12 //066   ----------------------------------------
 BYTE   PATT
  POIN2 Label_015F5C2C
//  #12 //067   ----------------------------------------
 BYTE   PATT
  POIN2 Label_015F5C2C
//  #12 //068   ----------------------------------------
 BYTE   PATT
  POIN2 Label_015F5C2C
//  #12 //069   ----------------------------------------
 BYTE   PATT
  POIN2 Label_015F5C2C
//  #12 //070   ----------------------------------------
 BYTE   PATT
  POIN2 Label_015F5C2C
//  #12 //071   ----------------------------------------
 BYTE   PATT
  POIN2 Label_015F5C2C
//  #12 //072   ----------------------------------------
 BYTE   PATT
  POIN2 Label_015F5C2C
//  #12 //073   ----------------------------------------
 BYTE   PATT
  POIN2 Label_015F5C2C
//  #12 //074   ----------------------------------------
 BYTE   PATT
  POIN2 Label_015F5C2C
//  #12 //075   ----------------------------------------
 BYTE   PATT
  POIN2 Label_015F5C2C
//  #12 //076   ----------------------------------------
 BYTE   PATT
  POIN2 Label_015F5C2C
//  #12 //077   ----------------------------------------
 BYTE   PATT
  POIN2 Label_015F5C2C
//  #12 //078   ----------------------------------------
 BYTE   PATT
  POIN2 Label_015F5C2C
//  #12 //079   ----------------------------------------
 BYTE   PATT
  POIN2 Label_015F5C2C
//  #12 //080   ----------------------------------------
 BYTE   PATT
  POIN2 Label_015F5C2C
//  #12 //081   ----------------------------------------
 BYTE   PATT
  POIN2 Label_015F5C2C
//  #12 //082   ----------------------------------------
 BYTE   PATT
  POIN2 Label_015F5C2C
//  #12 //083   ----------------------------------------
 BYTE   PATT
  POIN2 Label_015F5C2C
//  #12 //084   ----------------------------------------
 BYTE   PATT
  POIN2 Label_015F5C2C
//  #12 //085   ----------------------------------------
 BYTE   PATT
  POIN2 Label_015F5C2C
//  #12 //086   ----------------------------------------
 BYTE   N68  En1  v112
 BYTE   W84
 BYTE   N05
 BYTE   W06
 BYTE   N05
 BYTE   W06
//  #12 //087   ----------------------------------------
 BYTE   N92  En1  v116
 BYTE   W96
//  #12 //088   ----------------------------------------
 BYTE   W96
//  #12 //089   ----------------------------------------
 BYTE   N92
 BYTE   W96
//  #12 //090   ----------------------------------------
 BYTE   W96
//  #12 //091   ----------------------------------------
 BYTE   N92
 BYTE   W96
//  #12 //092   ----------------------------------------
 BYTE   W96
//  #12 //093   ----------------------------------------
 BYTE   N92
 BYTE   W96
//  #12 //094   ----------------------------------------
 BYTE   W96
//  #12 //095   ----------------------------------------
 BYTE   GoTo
  POIN2 Label_015F5B4A
 BYTE   FINE

//**************** Track 13 (Midi-Chn.12) ****************//

song64_013:
//  #13 //000   ----------------------------------------
 BYTE   KEYSH   song64_key+0
 BYTE   VOICE   124
 BYTE   VOL   40*song64_mvl/mxv
 BYTE   PAN   c_v+0
 BYTE   W48
 BYTE   N02  Dn1  v036
 BYTE   W03
 BYTE   Dn1  v040
 BYTE   W03
 BYTE   N02
 BYTE   W03
 BYTE   Dn1  v044
 BYTE   W03
 BYTE   Dn1  v048
 BYTE   W03
 BYTE   Dn1  v052
 BYTE   W03
 BYTE   N02
 BYTE   W03
 BYTE   Dn1  v056
 BYTE   W03
 BYTE   Dn1  v060
 BYTE   W03
 BYTE   Dn1  v064
 BYTE   W03
 BYTE   Dn1  v068
 BYTE   W03
 BYTE   N02
 BYTE   W03
 BYTE   Dn1  v072
 BYTE   W03
 BYTE   Dn1  v076
 BYTE   W03
 BYTE   Dn1  v080
 BYTE   W03
 BYTE   N02
 BYTE   W03
//  #13 //001   ----------------------------------------
 BYTE   W96
//  #13 //002   ----------------------------------------
 BYTE   W96
//  #13 //003   ----------------------------------------
 BYTE   N22  An2  v116
 BYTE   W96
//  #13 //004   ----------------------------------------
 BYTE   W96
//  #13 //005   ----------------------------------------
 BYTE   N22
 BYTE   W96
//  #13 //006   ----------------------------------------
 BYTE   W96
//  #13 //007   ----------------------------------------
 BYTE   N22
 BYTE   W96
//  #13 //008   ----------------------------------------
 BYTE   W96
//  #13 //009   ----------------------------------------
Label_015FA5A7:
 BYTE   N11  Cn1  v060
 BYTE   N22  Bn2  v116
 BYTE   W12
 BYTE   N32  Cn1  v060
 BYTE   W12
 BYTE   N11  Dn1
 BYTE   W12
 BYTE   N22  Dn1  v056
 BYTE   W12
 BYTE   N11  Cn1  v060
 BYTE   N32  Fs2  v064
 BYTE   W12
 BYTE   Cn1  v060
 BYTE   N11  Dn1  v048
 BYTE   W12
 BYTE   Dn1  v052
 BYTE   W12
 BYTE   Dn1  v056
 BYTE   N32  Fs2  v072
 BYTE   W12
 BYTE   PEND 
//  #13 //010   ----------------------------------------
Label_015FA5D0:
 BYTE   N11  Cn1  v056
 BYTE   N11  Dn1  v052
 BYTE   W12
 BYTE   N32  Cn1  v056
 BYTE   W12
 BYTE   N11  Dn1  v048
 BYTE   N32  Fs2  v068
 BYTE   W12
 BYTE   N22  Dn1  v060
 BYTE   W12
 BYTE   N11  Cn1
 BYTE   W12
 BYTE   N32
 BYTE   N11  Dn1  v048
 BYTE   W12
 BYTE   Dn1  v052
 BYTE   W12
 BYTE   N05  Dn1  v048
 BYTE   W06
 BYTE   Dn1  v052
 BYTE   W06
 BYTE   PEND 
//  #13 //011   ----------------------------------------
Label_015FA5F9:
 BYTE   N11  Cn1  v060
 BYTE   N22  Bn2  v112
 BYTE   W12
 BYTE   N32  Cn1  v060
 BYTE   W12
 BYTE   N11  Dn1
 BYTE   W12
 BYTE   N22  Dn1  v056
 BYTE   W12
 BYTE   N11  Cn1  v060
 BYTE   N32  Fs2  v064
 BYTE   W12
 BYTE   Cn1  v060
 BYTE   N11  Dn1  v048
 BYTE   W12
 BYTE   Dn1  v052
 BYTE   W12
 BYTE   Dn1  v056
 BYTE   N32  Fs2  v072
 BYTE   W12
 BYTE   PEND 
//  #13 //012   ----------------------------------------
Label_015FA622:
 BYTE   N11  Cn1  v056
 BYTE   N22  Dn1  v052
 BYTE   W12
 BYTE   N32  Cn1  v056
 BYTE   W12
 BYTE   N11  Dn1
 BYTE   N32  Fs2  v068
 BYTE   W12
 BYTE   N22  Dn1  v060
 BYTE   W12
 BYTE   N11  Cn1
 BYTE   W12
 BYTE   N32
 BYTE   N11  Dn1  v048
 BYTE   W12
 BYTE   Dn1  v052
 BYTE   W12
 BYTE   N05  Dn1  v048
 BYTE   W06
 BYTE   Dn1  v052
 BYTE   W06
 BYTE   PEND 
//  #13 //013   ----------------------------------------
Label_015FA64A:
 BYTE   N11  Cn1  v060
 BYTE   N22  Bn2  v112
 BYTE   W12
 BYTE   N32  Cn1  v060
 BYTE   W12
 BYTE   N11  Dn1  v052
 BYTE   W12
 BYTE   N22  Dn1  v056
 BYTE   W12
 BYTE   N11  Cn1  v060
 BYTE   N12  Fs2  v064
 BYTE   W12
 BYTE   N32  Cn1  v060
 BYTE   N11  Dn1  v052
 BYTE   W12
 BYTE   N22  Dn1  v056
 BYTE   W12
 BYTE   N32  Fs2  v072
 BYTE   W12
 BYTE   PEND 
//  #13 //014   ----------------------------------------
Label_015FA674:
 BYTE   N11  Cn1  v056
 BYTE   N11  Dn1  v052
 BYTE   W12
 BYTE   N32  Cn1  v056
 BYTE   N22  Dn1
 BYTE   W12
 BYTE   N32  Fs2  v068
 BYTE   W12
 BYTE   N11  Dn1  v052
 BYTE   W12
 BYTE   Cn1  v060
 BYTE   N22  Dn1  v056
 BYTE   W12
 BYTE   N32  Cn1  v060
 BYTE   W12
 BYTE   N11  Dn1  v052
 BYTE   W12
 BYTE   N05
 BYTE   W06
 BYTE   Dn1  v056
 BYTE   W06
 BYTE   PEND 
//  #13 //015   ----------------------------------------
Label_015FA69D:
 BYTE   N11  Cn1  v060
 BYTE   N22  Bn2  v112
 BYTE   W12
 BYTE   N32  Cn1  v060
 BYTE   W12
 BYTE   N11  Dn1  v052
 BYTE   W12
 BYTE   N22  Dn1  v056
 BYTE   W12
 BYTE   N11  Cn1  v060
 BYTE   N32  Fs2  v064
 BYTE   W12
 BYTE   Cn1  v060
 BYTE   N11  Dn1  v052
 BYTE   W12
 BYTE   N22  Dn1  v056
 BYTE   W12
 BYTE   N32  Fs2  v072
 BYTE   W12
 BYTE   PEND 
//  #13 //016   ----------------------------------------
 BYTE   PATT
  POIN2 Label_015FA674
//  #13 //017   ----------------------------------------
Label_015FA6CB:
//  #13 //018   ----------------------------------------
 BYTE   PATT
  POIN2 Label_015FA69D
//  #13 //019   ----------------------------------------
 BYTE   PATT
  POIN2 Label_015FA674
//  #13 //020   ----------------------------------------
 BYTE   PATT
  POIN2 Label_015FA69D
//  #13 //021   ----------------------------------------
 BYTE   PATT
  POIN2 Label_015FA674
//  #13 //022   ----------------------------------------
 BYTE   PATT
  POIN2 Label_015FA64A
//  #13 //023   ----------------------------------------
 BYTE   PATT
  POIN2 Label_015FA674
//  #13 //024   ----------------------------------------
 BYTE   PATT
  POIN2 Label_015FA69D
//  #13 //025   ----------------------------------------
 BYTE   PATT
  POIN2 Label_015FA674
//  #13 //026   ----------------------------------------
 BYTE   PATT
  POIN2 Label_015FA69D
//  #13 //027   ----------------------------------------
 BYTE   PATT
  POIN2 Label_015FA674
//  #13 //028   ----------------------------------------
 BYTE   PATT
  POIN2 Label_015FA69D
//  #13 //029   ----------------------------------------
 BYTE   PATT
  POIN2 Label_015FA674
//  #13 //030   ----------------------------------------
 BYTE   PATT
  POIN2 Label_015FA69D
//  #13 //031   ----------------------------------------
 BYTE   PATT
  POIN2 Label_015FA674
//  #13 //032   ----------------------------------------
 BYTE   PATT
  POIN2 Label_015FA69D
//  #13 //033   ----------------------------------------
 BYTE   PATT
  POIN2 Label_015FA674
//  #13 //034   ----------------------------------------
Label_015FA71B:
 BYTE   N11  Cn1  v060
 BYTE   N22  Bn2  v112
 BYTE   W12
 BYTE   N32  Cn1  v060
 BYTE   N22  Dn1  v052
 BYTE   W24
 BYTE   N11  Dn1  v056
 BYTE   W12
 BYTE   Cn1  v060
 BYTE   N22  Dn1  v052
 BYTE   N32  Fs2  v064
 BYTE   W12
 BYTE   Cn1  v060
 BYTE   W12
 BYTE   N11  Dn1  v056
 BYTE   W12
 BYTE   Dn1  v052
 BYTE   N32  Fs2  v072
 BYTE   W12
 BYTE   PEND 
//  #13 //035   ----------------------------------------
Label_015FA744:
 BYTE   N11  Cn1  v056
 BYTE   W12
 BYTE   N32
 BYTE   N05  Dn1  v052
 BYTE   W06
 BYTE   Dn1  v056
 BYTE   W06
 BYTE   N11
 BYTE   N32  Fs2  v068
 BYTE   W12
 BYTE   N11  Dn1  v052
 BYTE   W12
 BYTE   Cn1  v060
 BYTE   N11  Dn1  v056
 BYTE   W12
 BYTE   N32  Cn1  v060
 BYTE   N22  Dn1  v056
 BYTE   W24
 BYTE   N05  Dn1  v052
 BYTE   W06
 BYTE   Dn1  v056
 BYTE   W06
 BYTE   PEND 
//  #13 //036   ----------------------------------------
 BYTE   PATT
  POIN2 Label_015FA71B
//  #13 //037   ----------------------------------------
 BYTE   N11  Cn1  v056
 BYTE   W12
 BYTE   N32
 BYTE   N05  Dn1  v052
 BYTE   W06
 BYTE   Dn1  v056
 BYTE   W06
 BYTE   N11
 BYTE   N32  Fs2  v068
 BYTE   W12
 BYTE   N11  Dn1  v052
 BYTE   W12
 BYTE   Cn1  v060
 BYTE   N11  Dn1  v056
 BYTE   W12
 BYTE   N32  Cn1  v060
 BYTE   N22  Dn1  v056
 BYTE   W24
 BYTE   N05  Dn1  v052
 BYTE   W06
 BYTE   Dn1  v056
 BYTE   W06
//  #13 //038   ----------------------------------------
 BYTE   PATT
  POIN2 Label_015FA71B
//  #13 //039   ----------------------------------------
 BYTE   PATT
  POIN2 Label_015FA744
//  #13 //040   ----------------------------------------
 BYTE   PATT
  POIN2 Label_015FA71B
//  #13 //041   ----------------------------------------
 BYTE   N11  Cn1  v060
 BYTE   W12
 BYTE   N11
 BYTE   N05  Dn1  v052
 BYTE   W06
 BYTE   Dn1  v056
 BYTE   W06
 BYTE   N11
 BYTE   N32  Fs2  v068
 BYTE   W12
 BYTE   N11  Dn1  v052
 BYTE   W12
 BYTE   Cn1  v060
 BYTE   N11  Dn1  v056
 BYTE   W12
 BYTE   N32  Cn1  v060
 BYTE   N22  Dn1  v056
 BYTE   W24
 BYTE   N05  Dn1  v052
 BYTE   W06
 BYTE   Dn1  v056
 BYTE   W06
//  #13 //042   ----------------------------------------
 BYTE   PATT
  POIN2 Label_015FA71B
//  #13 //043   ----------------------------------------
 BYTE   PATT
  POIN2 Label_015FA744
//  #13 //044   ----------------------------------------
 BYTE   PATT
  POIN2 Label_015FA71B
//  #13 //045   ----------------------------------------
Label_015FA7E3:
 BYTE   N11  Cn1  v060
 BYTE   W12
 BYTE   N32
 BYTE   N05  Dn1  v052
 BYTE   W06
 BYTE   Dn1  v056
 BYTE   W06
 BYTE   N11
 BYTE   N32  Fs2  v068
 BYTE   W12
 BYTE   N11  Dn1  v052
 BYTE   W12
 BYTE   Cn1  v060
 BYTE   N11  Dn1  v056
 BYTE   W12
 BYTE   N32  Cn1  v060
 BYTE   N22  Dn1  v056
 BYTE   W24
 BYTE   N05  Dn1  v052
 BYTE   W06
 BYTE   Dn1  v056
 BYTE   W06
 BYTE   PEND 
//  #13 //046   ----------------------------------------
 BYTE   PATT
  POIN2 Label_015FA71B
//  #13 //047   ----------------------------------------
 BYTE   PATT
  POIN2 Label_015FA744
//  #13 //048   ----------------------------------------
 BYTE   PATT
  POIN2 Label_015FA71B
//  #13 //049   ----------------------------------------
 BYTE   PATT
  POIN2 Label_015FA7E3
//  #13 //050   ----------------------------------------
Label_015FA821:
 BYTE   N11  Cn1  v060
 BYTE   N22  Bn2  v112
 BYTE   W12
 BYTE   N32  Cn1  v060
 BYTE   W12
 BYTE   N22  Dn1  v052
 BYTE   W24
 BYTE   N11  Cn1  v060
 BYTE   N11  Dn1  v056
 BYTE   N32  Fs2  v064
 BYTE   W12
 BYTE   Cn1  v060
 BYTE   N11  Dn1  v052
 BYTE   W12
 BYTE   Dn1  v056
 BYTE   W12
 BYTE   N05
 BYTE   N32  Fs2  v072
 BYTE   W06
 BYTE   N05  Dn1  v056
 BYTE   W06
 BYTE   PEND 
//  #13 //051   ----------------------------------------
Label_015FA84D:
 BYTE   N11  Cn1  v056
 BYTE   N22  Dn1
 BYTE   W12
 BYTE   N32  Cn1
 BYTE   W12
 BYTE   Fs2  v068
 BYTE   W12
 BYTE   N22  Dn1  v056
 BYTE   W12
 BYTE   N11  Cn1  v060
 BYTE   W12
 BYTE   N32
 BYTE   N11  Dn1  v056
 BYTE   W12
 BYTE   Dn1  v052
 BYTE   W12
 BYTE   Dn1  v056
 BYTE   W12
 BYTE   PEND 
//  #13 //052   ----------------------------------------
Label_015FA86D:
 BYTE   N11  Cn1  v060
 BYTE   N22  Bn2  v112
 BYTE   W12
 BYTE   N32  Cn1  v060
 BYTE   W12
 BYTE   N22  Dn1  v052
 BYTE   W24
 BYTE   N11  Cn1  v060
 BYTE   N11  Dn1  v056
 BYTE   N32  Fs2  v064
 BYTE   W12
 BYTE   Cn1  v060
 BYTE   N22  Dn1  v052
 BYTE   W24
 BYTE   N05  Dn1  v056
 BYTE   N32  Fs2  v072
 BYTE   W06
 BYTE   N05  Dn1  v056
 BYTE   W06
 BYTE   PEND 
//  #13 //053   ----------------------------------------
Label_015FA898:
 BYTE   N11  Cn1  v056
 BYTE   N22  Dn1
 BYTE   W12
 BYTE   N32  Cn1
 BYTE   W12
 BYTE   Fs2  v068
 BYTE   W12
 BYTE   N22  Dn1  v056
 BYTE   W12
 BYTE   N11  Cn1  v060
 BYTE   W12
 BYTE   N32
 BYTE   N11  Dn1  v056
 BYTE   W12
 BYTE   N11
 BYTE   W12
 BYTE   N05  Dn1  v052
 BYTE   W06
 BYTE   Dn1  v056
 BYTE   W06
 BYTE   PEND 
//  #13 //054   ----------------------------------------
 BYTE   PATT
  POIN2 Label_015FA821
//  #13 //055   ----------------------------------------
 BYTE   PATT
  POIN2 Label_015FA84D
//  #13 //056   ----------------------------------------
 BYTE   PATT
  POIN2 Label_015FA86D
//  #13 //057   ----------------------------------------
 BYTE   PATT
  POIN2 Label_015FA898
//  #13 //058   ----------------------------------------
 BYTE   PATT
  POIN2 Label_015FA821
//  #13 //059   ----------------------------------------
 BYTE   PATT
  POIN2 Label_015FA84D
//  #13 //060   ----------------------------------------
 BYTE   PATT
  POIN2 Label_015FA86D
//  #13 //061   ----------------------------------------
 BYTE   PATT
  POIN2 Label_015FA898
//  #13 //062   ----------------------------------------
 BYTE   PATT
  POIN2 Label_015FA821
//  #13 //063   ----------------------------------------
 BYTE   PATT
  POIN2 Label_015FA84D
//  #13 //064   ----------------------------------------
 BYTE   PATT
  POIN2 Label_015FA86D
//  #13 //065   ----------------------------------------
 BYTE   PATT
  POIN2 Label_015FA898
//  #13 //066   ----------------------------------------
 BYTE   N22  Bn2  v112
 BYTE   W96
//  #13 //067   ----------------------------------------
 BYTE   W96
//  #13 //068   ----------------------------------------
 BYTE   W96
//  #13 //069   ----------------------------------------
 BYTE   W96
//  #13 //070   ----------------------------------------
 BYTE   W96
//  #13 //071   ----------------------------------------
 BYTE   W96
//  #13 //072   ----------------------------------------
 BYTE   W96
//  #13 //073   ----------------------------------------
 BYTE   W48
 BYTE   N02  An2  v040
 BYTE   W03
 BYTE   An2  v044
 BYTE   W03
 BYTE   An2  v048
 BYTE   W03
 BYTE   An2  v052
 BYTE   W03
 BYTE   N02
 BYTE   W03
 BYTE   An2  v056
 BYTE   W03
 BYTE   An2  v060
 BYTE   W03
 BYTE   An2  v064
 BYTE   W03
 BYTE   An2  v068
 BYTE   W03
 BYTE   N02
 BYTE   W03
 BYTE   An2  v072
 BYTE   W03
 BYTE   An2  v076
 BYTE   W03
 BYTE   An2  v080
 BYTE   W03
 BYTE   N02
 BYTE   W03
 BYTE   An2  v084
 BYTE   W03
 BYTE   An2  v088
 BYTE   W03
//  #13 //074   ----------------------------------------
Label_015FA930:
 BYTE   N11  Cn1  v060
 BYTE   W12
 BYTE   N32
 BYTE   W36
 BYTE   N11
 BYTE   W12
 BYTE   N32
 BYTE   W36
 BYTE   PEND 
//  #13 //075   ----------------------------------------
Label_015FA93B:
 BYTE   N11  Cn1  v056
 BYTE   W12
 BYTE   N32
 BYTE   W36
 BYTE   N11  Cn1  v060
 BYTE   W12
 BYTE   N32
 BYTE   W36
 BYTE   PEND 
//  #13 //076   ----------------------------------------
 BYTE   PATT
  POIN2 Label_015FA930
//  #13 //077   ----------------------------------------
 BYTE   PATT
  POIN2 Label_015FA93B
//  #13 //078   ----------------------------------------
 BYTE   PATT
  POIN2 Label_015FA930
//  #13 //079   ----------------------------------------
 BYTE   PATT
  POIN2 Label_015FA93B
//  #13 //080   ----------------------------------------
 BYTE   PATT
  POIN2 Label_015FA930
//  #13 //081   ----------------------------------------
 BYTE   PATT
  POIN2 Label_015FA93B
//  #13 //082   ----------------------------------------
 BYTE   PATT
  POIN2 Label_015FA930
//  #13 //083   ----------------------------------------
 BYTE   PATT
  POIN2 Label_015FA93B
//  #13 //084   ----------------------------------------
 BYTE   PATT
  POIN2 Label_015FA930
//  #13 //085   ----------------------------------------
 BYTE   PATT
  POIN2 Label_015FA93B
//  #13 //086   ----------------------------------------
 BYTE   PATT
  POIN2 Label_015FA930
//  #13 //087   ----------------------------------------
 BYTE   N11  Cn1  v056
 BYTE   W12
 BYTE   N32
 BYTE   W36
 BYTE   N11  Cn1  v060
 BYTE   N02  An2  v040
 BYTE   W03
 BYTE   An2  v044
 BYTE   W03
 BYTE   An2  v048
 BYTE   W03
 BYTE   An2  v052
 BYTE   W03
 BYTE   N32  Cn1  v060
 BYTE   N02  An2  v052
 BYTE   W03
 BYTE   An2  v056
 BYTE   W03
 BYTE   An2  v060
 BYTE   W03
 BYTE   An2  v064
 BYTE   W03
 BYTE   An2  v068
 BYTE   W03
 BYTE   N02
 BYTE   W03
 BYTE   An2  v072
 BYTE   W03
 BYTE   An2  v076
 BYTE   W03
 BYTE   An2  v080
 BYTE   W03
 BYTE   N02
 BYTE   W03
 BYTE   An2  v084
 BYTE   W03
 BYTE   An2  v088
 BYTE   W03
//  #13 //088   ----------------------------------------
 BYTE   PATT
  POIN2 Label_015FA5A7
//  #13 //089   ----------------------------------------
 BYTE   PATT
  POIN2 Label_015FA5D0
//  #13 //090   ----------------------------------------
 BYTE   PATT
  POIN2 Label_015FA5F9
//  #13 //091   ----------------------------------------
 BYTE   PATT
  POIN2 Label_015FA622
//  #13 //092   ----------------------------------------
 BYTE   PATT
  POIN2 Label_015FA64A
//  #13 //093   ----------------------------------------
 BYTE   PATT
  POIN2 Label_015FA674
//  #13 //094   ----------------------------------------
 BYTE   PATT
  POIN2 Label_015FA69D
//  #13 //095   ----------------------------------------
 BYTE   PATT
  POIN2 Label_015FA674
//  #13 //096   ----------------------------------------
 BYTE   GoTo
  POIN2 Label_015FA6CB
 BYTE   FINE

//**************** Track 14 (Midi-Chn.13) ****************//

song64_014:
//  #14 //000   ----------------------------------------
 BYTE   KEYSH   song64_key+0
 BYTE   VOICE   1
 BYTE   VOL   26*song64_mvl/mxv
 BYTE   W01
 BYTE   W01
 BYTE   PAN   c_v+0
 BYTE   W03
 BYTE   W02
 BYTE   W01
 BYTE   W01
 BYTE   W01
 BYTE   W84
 BYTE   W02
//  #14 //001   ----------------------------------------
 BYTE   W96
//  #14 //002   ----------------------------------------
 BYTE   W96
//  #14 //003   ----------------------------------------
 BYTE   W96
//  #14 //004   ----------------------------------------
 BYTE   W96
//  #14 //005   ----------------------------------------
 BYTE   W96
//  #14 //006   ----------------------------------------
 BYTE   W96
//  #14 //007   ----------------------------------------
 BYTE   W96
//  #14 //008   ----------------------------------------
 BYTE   W96
//  #14 //009   ----------------------------------------
 BYTE   W96
//  #14 //010   ----------------------------------------
Label_015FAA06:
 BYTE   N11  Gs3  v064
 BYTE   W12
 BYTE   N11
 BYTE   W12
 BYTE   N11
 BYTE   W12
 BYTE   N56  Fs1  v108
 BYTE   N11  Gs3  v064
 BYTE   W12
 BYTE   An3
 BYTE   W12
 BYTE   Gs3
 BYTE   W12
 BYTE   N11
 BYTE   W12
 BYTE   N11
 BYTE   W12
 BYTE   PEND 
//  #14 //011   ----------------------------------------
Label_015FAA1E:
 BYTE   N11  Gs3  v064
 BYTE   W12
 BYTE   N11
 BYTE   W12
 BYTE   An3  v060
 BYTE   W12
 BYTE   Gs3  v064
 BYTE   W12
 BYTE   N11
 BYTE   W12
 BYTE   An3  v060
 BYTE   W12
 BYTE   Gs3  v064
 BYTE   W12
 BYTE   Gs3  v060
 BYTE   W12
 BYTE   PEND 
//  #14 //012   ----------------------------------------
Label_015FAA36:
 BYTE   N11  Gs3  v064
 BYTE   W12
 BYTE   N11
 BYTE   W12
 BYTE   N11
 BYTE   W12
 BYTE   N56  Fs1  v108
 BYTE   N11  Gs3  v064
 BYTE   W12
 BYTE   An3
 BYTE   W12
 BYTE   Gs3
 BYTE   W12
 BYTE   N11
 BYTE   W12
 BYTE   N11
 BYTE   W12
 BYTE   PEND 
//  #14 //013   ----------------------------------------
 BYTE   PATT
  POIN2 Label_015FAA1E
//  #14 //014   ----------------------------------------
Label_015FAA53:
 BYTE   N11  Gs3  v064
 BYTE   W12
 BYTE   N11
 BYTE   W12
 BYTE   N11
 BYTE   W12
 BYTE   N56  Fs1  v108
 BYTE   N11  Gs3  v064
 BYTE   W24
 BYTE   N11
 BYTE   W12
 BYTE   N11
 BYTE   W12
 BYTE   N11
 BYTE   W12
 BYTE   PEND 
//  #14 //015   ----------------------------------------
 BYTE   PATT
  POIN2 Label_015FAA1E
//  #14 //016   ----------------------------------------
Label_015FAA6E:
 BYTE   N11  Gs3  v064
 BYTE   W12
 BYTE   N11
 BYTE   W12
 BYTE   N11
 BYTE   W12
 BYTE   N56  Fs1  v108
 BYTE   N11  Gs3  v064
 BYTE   W24
 BYTE   N11
 BYTE   W12
 BYTE   N11
 BYTE   W12
 BYTE   N11
 BYTE   W12
 BYTE   PEND 
//  #14 //017   ----------------------------------------
Label_015FAA84:
//  #14 //018   ----------------------------------------
 BYTE   PATT
  POIN2 Label_015FAA1E
//  #14 //019   ----------------------------------------
Label_015FAA89:
 BYTE   N11  Gs3  v064
 BYTE   W12
 BYTE   N11
 BYTE   W12
 BYTE   N11
 BYTE   W12
 BYTE   N56  Fs1  v108
 BYTE   N11  Gs3  v064
 BYTE   W24
 BYTE   N11
 BYTE   W12
 BYTE   N11
 BYTE   W12
 BYTE   N11
 BYTE   W12
 BYTE   PEND 
//  #14 //020   ----------------------------------------
 BYTE   PATT
  POIN2 Label_015FAA1E
//  #14 //021   ----------------------------------------
 BYTE   PATT
  POIN2 Label_015FAA6E
//  #14 //022   ----------------------------------------
 BYTE   PATT
  POIN2 Label_015FAA1E
//  #14 //023   ----------------------------------------
 BYTE   PATT
  POIN2 Label_015FAA53
//  #14 //024   ----------------------------------------
 BYTE   PATT
  POIN2 Label_015FAA1E
//  #14 //025   ----------------------------------------
 BYTE   PATT
  POIN2 Label_015FAA6E
//  #14 //026   ----------------------------------------
 BYTE   PATT
  POIN2 Label_015FAA1E
//  #14 //027   ----------------------------------------
 BYTE   PATT
  POIN2 Label_015FAA89
//  #14 //028   ----------------------------------------
 BYTE   PATT
  POIN2 Label_015FAA1E
//  #14 //029   ----------------------------------------
 BYTE   PATT
  POIN2 Label_015FAA6E
//  #14 //030   ----------------------------------------
 BYTE   PATT
  POIN2 Label_015FAA1E
//  #14 //031   ----------------------------------------
 BYTE   PATT
  POIN2 Label_015FAA53
//  #14 //032   ----------------------------------------
 BYTE   PATT
  POIN2 Label_015FAA1E
//  #14 //033   ----------------------------------------
 BYTE   PATT
  POIN2 Label_015FAA6E
//  #14 //034   ----------------------------------------
 BYTE   PATT
  POIN2 Label_015FAA1E
//  #14 //035   ----------------------------------------
 BYTE   PATT
  POIN2 Label_015FAA89
//  #14 //036   ----------------------------------------
 BYTE   PATT
  POIN2 Label_015FAA1E
//  #14 //037   ----------------------------------------
 BYTE   PATT
  POIN2 Label_015FAA6E
//  #14 //038   ----------------------------------------
 BYTE   PATT
  POIN2 Label_015FAA1E
//  #14 //039   ----------------------------------------
 BYTE   PATT
  POIN2 Label_015FAA53
//  #14 //040   ----------------------------------------
 BYTE   PATT
  POIN2 Label_015FAA1E
//  #14 //041   ----------------------------------------
 BYTE   PATT
  POIN2 Label_015FAA6E
//  #14 //042   ----------------------------------------
 BYTE   PATT
  POIN2 Label_015FAA1E
//  #14 //043   ----------------------------------------
 BYTE   PATT
  POIN2 Label_015FAA89
//  #14 //044   ----------------------------------------
 BYTE   PATT
  POIN2 Label_015FAA1E
//  #14 //045   ----------------------------------------
 BYTE   PATT
  POIN2 Label_015FAA6E
//  #14 //046   ----------------------------------------
 BYTE   PATT
  POIN2 Label_015FAA1E
//  #14 //047   ----------------------------------------
 BYTE   PATT
  POIN2 Label_015FAA53
//  #14 //048   ----------------------------------------
 BYTE   PATT
  POIN2 Label_015FAA1E
//  #14 //049   ----------------------------------------
 BYTE   PATT
  POIN2 Label_015FAA6E
//  #14 //050   ----------------------------------------
 BYTE   PATT
  POIN2 Label_015FAA1E
//  #14 //051   ----------------------------------------
 BYTE   PATT
  POIN2 Label_015FAA89
//  #14 //052   ----------------------------------------
 BYTE   PATT
  POIN2 Label_015FAA1E
//  #14 //053   ----------------------------------------
 BYTE   PATT
  POIN2 Label_015FAA6E
//  #14 //054   ----------------------------------------
 BYTE   PATT
  POIN2 Label_015FAA1E
//  #14 //055   ----------------------------------------
 BYTE   PATT
  POIN2 Label_015FAA53
//  #14 //056   ----------------------------------------
 BYTE   PATT
  POIN2 Label_015FAA1E
//  #14 //057   ----------------------------------------
 BYTE   PATT
  POIN2 Label_015FAA6E
//  #14 //058   ----------------------------------------
 BYTE   PATT
  POIN2 Label_015FAA1E
//  #14 //059   ----------------------------------------
 BYTE   PATT
  POIN2 Label_015FAA89
//  #14 //060   ----------------------------------------
 BYTE   PATT
  POIN2 Label_015FAA1E
//  #14 //061   ----------------------------------------
 BYTE   PATT
  POIN2 Label_015FAA6E
//  #14 //062   ----------------------------------------
 BYTE   PATT
  POIN2 Label_015FAA1E
//  #14 //063   ----------------------------------------
 BYTE   PATT
  POIN2 Label_015FAA53
//  #14 //064   ----------------------------------------
 BYTE   PATT
  POIN2 Label_015FAA1E
//  #14 //065   ----------------------------------------
 BYTE   PATT
  POIN2 Label_015FAA6E
//  #14 //066   ----------------------------------------
 BYTE   PATT
  POIN2 Label_015FAA1E
//  #14 //067   ----------------------------------------
 BYTE   W36
 BYTE   N56  Fs1  v112
 BYTE   W60
//  #14 //068   ----------------------------------------
 BYTE   W96
//  #14 //069   ----------------------------------------
 BYTE   W96
//  #14 //070   ----------------------------------------
 BYTE   W96
//  #14 //071   ----------------------------------------
 BYTE   W96
//  #14 //072   ----------------------------------------
 BYTE   W96
//  #14 //073   ----------------------------------------
 BYTE   W96
//  #14 //074   ----------------------------------------
 BYTE   W96
//  #14 //075   ----------------------------------------
Label_015FAB96:
 BYTE   N11  Gs3  v076
 BYTE   W12
 BYTE   N11
 BYTE   W12
 BYTE   N11
 BYTE   W12
 BYTE   N56  Fs1  v100
 BYTE   N11  Gs3  v072
 BYTE   W12
 BYTE   An3  v076
 BYTE   W12
 BYTE   Gs3
 BYTE   W12
 BYTE   Gs3  v072
 BYTE   W12
 BYTE   Gs3  v076
 BYTE   W12
 BYTE   PEND 
//  #14 //076   ----------------------------------------
Label_015FABB1:
 BYTE   N11  Gs3  v072
 BYTE   W12
 BYTE   Gs3  v076
 BYTE   W12
 BYTE   An3
 BYTE   W12
 BYTE   Gs3  v072
 BYTE   W12
 BYTE   Gs3  v076
 BYTE   W12
 BYTE   An3  v072
 BYTE   W12
 BYTE   Gs3
 BYTE   W12
 BYTE   Gs3  v076
 BYTE   W12
 BYTE   PEND 
//  #14 //077   ----------------------------------------
 BYTE   PATT
  POIN2 Label_015FAB96
//  #14 //078   ----------------------------------------
 BYTE   PATT
  POIN2 Label_015FABB1
//  #14 //079   ----------------------------------------
 BYTE   PATT
  POIN2 Label_015FAB96
//  #14 //080   ----------------------------------------
 BYTE   PATT
  POIN2 Label_015FABB1
//  #14 //081   ----------------------------------------
 BYTE   PATT
  POIN2 Label_015FAB96
//  #14 //082   ----------------------------------------
 BYTE   PATT
  POIN2 Label_015FABB1
//  #14 //083   ----------------------------------------
 BYTE   PATT
  POIN2 Label_015FAB96
//  #14 //084   ----------------------------------------
 BYTE   PATT
  POIN2 Label_015FABB1
//  #14 //085   ----------------------------------------
 BYTE   PATT
  POIN2 Label_015FAB96
//  #14 //086   ----------------------------------------
 BYTE   PATT
  POIN2 Label_015FABB1
//  #14 //087   ----------------------------------------
 BYTE   PATT
  POIN2 Label_015FAB96
//  #14 //088   ----------------------------------------
 BYTE   PATT
  POIN2 Label_015FABB1
//  #14 //089   ----------------------------------------
 BYTE   PATT
  POIN2 Label_015FAA06
//  #14 //090   ----------------------------------------
 BYTE   PATT
  POIN2 Label_015FAA1E
//  #14 //091   ----------------------------------------
 BYTE   PATT
  POIN2 Label_015FAA36
//  #14 //092   ----------------------------------------
 BYTE   PATT
  POIN2 Label_015FAA1E
//  #14 //093   ----------------------------------------
 BYTE   PATT
  POIN2 Label_015FAA53
//  #14 //094   ----------------------------------------
 BYTE   PATT
  POIN2 Label_015FAA1E
//  #14 //095   ----------------------------------------
 BYTE   PATT
  POIN2 Label_015FAA6E
//  #14 //096   ----------------------------------------
 BYTE   GoTo
  POIN2 Label_015FAA84
 BYTE   FINE

//******************************************************//
	ALIGN 4

song64:
	BYTE	14	// NumTrks
	BYTE	0	// NumBlks
	BYTE	song64_pri	// Priority
	BYTE	song64_rev	// Reverb.
    
	POIN2	song64_grp
    
	POIN2	song64_001
	POIN2	song64_002
	POIN2	song64_003
	POIN2	song64_004
	POIN2	song64_005
	POIN2	song64_006
	POIN2	song64_007
	POIN2	song64_008
	POIN2	song64_009
	POIN2	song64_010
	POIN2	song64_011
	POIN2	song64_012
	POIN2	song64_013
	POIN2	song64_014

	
