	.include "MPlayDef.s"

	.equ	feb20230729212622_grp, voicegroup000
	.equ	feb20230729212622_pri, 0
	.equ	feb20230729212622_rev, 0
	.equ	feb20230729212622_mvl, 50
	.equ	feb20230729212622_key, 0
	.equ	feb20230729212622_tbs, 1
	.equ	feb20230729212622_exg, 0
	.equ	feb20230729212622_cmp, 1

	.section .rodata
	.global	feb20230729212622
	.align	2

@**************** Track 1 (Midi-Chn.1) ****************@

feb20230729212622_1:
	.byte	KEYSH , feb20230729212622_key+0
@ 000   ----------------------------------------
	.byte	TEMPO , 164*feb20230729212622_tbs/2
	.byte		VOICE , 48
	.byte		VOL   , 116*feb20230729212622_mvl/mxv
	.byte		N05   , Dn3 , v096
	.byte	W06
	.byte		        En3 
	.byte	W06
	.byte		        Fn3 
	.byte	W06
	.byte		        Gn3 
	.byte	W06
	.byte		        An3 
	.byte	W18
	.byte		        Dn4 
	.byte	W18
	.byte		        Cn4 
	.byte	W18
	.byte		        Fn4 
	.byte	W18
@ 001   ----------------------------------------
	.byte		        Ds4 
	.byte	W12
	.byte		        As3 
	.byte	W12
feb20230729212622_1_B1:
	.byte		N23   , En3 , v088
	.byte	W24
	.byte		N92   , Cn4 
	.byte	W48
@ 002   ----------------------------------------
feb20230729212622_1_002:
	.byte	W60
	.byte		N05   , Bn3 , v088
	.byte	W06
	.byte		        Cn4 
	.byte	W06
	.byte		N17   , Dn4 
	.byte	W18
	.byte		        Cn4 
	.byte	W06
	.byte	PEND
@ 003   ----------------------------------------
feb20230729212622_1_003:
	.byte	W12
	.byte		N11   , Bn3 , v088
	.byte	W12
	.byte		N68   , An3 
	.byte	W72
	.byte	PEND
@ 004   ----------------------------------------
feb20230729212622_1_004:
	.byte	W12
	.byte		N05   , An3 , v088
	.byte	W06
	.byte		        Cn4 
	.byte	W06
	.byte		N23   , Bn3 
	.byte	W24
	.byte		        Gn3 
	.byte	W24
	.byte		        An3 
	.byte	W24
	.byte	PEND
@ 005   ----------------------------------------
feb20230729212622_1_005:
	.byte		N23   , En3 , v088
	.byte	W24
	.byte		N23   
	.byte	W24
	.byte		N92   , Cn4 
	.byte	W48
	.byte	PEND
@ 006   ----------------------------------------
	.byte	PATT
	 .word	feb20230729212622_1_002
@ 007   ----------------------------------------
feb20230729212622_1_007:
	.byte	W12
	.byte		N11   , Dn4 , v088
	.byte	W12
	.byte		N32   , En4 
	.byte	W36
	.byte		N05   , Dn4 
	.byte	W06
	.byte		        Cn4 
	.byte	W06
	.byte		N23   , Bn3 
	.byte	W24
	.byte	PEND
@ 008   ----------------------------------------
feb20230729212622_1_008:
	.byte		N23   , Dn4 , v088
	.byte	W24
	.byte		        Cn4 
	.byte	W24
	.byte		        An3 
	.byte	W24
	.byte		        Bn3 
	.byte	W24
	.byte	PEND
@ 009   ----------------------------------------
feb20230729212622_1_009:
	.byte		N23   , Gn3 , v088
	.byte	W24
	.byte		        En3 
	.byte	W24
	.byte		N92   , Cn4 
	.byte	W48
	.byte	PEND
@ 010   ----------------------------------------
	.byte	PATT
	 .word	feb20230729212622_1_002
@ 011   ----------------------------------------
	.byte	PATT
	 .word	feb20230729212622_1_003
@ 012   ----------------------------------------
	.byte	PATT
	 .word	feb20230729212622_1_004
@ 013   ----------------------------------------
	.byte	PATT
	 .word	feb20230729212622_1_005
@ 014   ----------------------------------------
	.byte	PATT
	 .word	feb20230729212622_1_002
@ 015   ----------------------------------------
	.byte	PATT
	 .word	feb20230729212622_1_007
@ 016   ----------------------------------------
	.byte	PATT
	 .word	feb20230729212622_1_008
@ 017   ----------------------------------------
	.byte		N23   , Gn3 , v088
	.byte	W96
@ 018   ----------------------------------------
	.byte	W96
@ 019   ----------------------------------------
	.byte	W96
@ 020   ----------------------------------------
	.byte	W96
@ 021   ----------------------------------------
	.byte	W96
@ 022   ----------------------------------------
	.byte	W96
@ 023   ----------------------------------------
	.byte	W96
@ 024   ----------------------------------------
	.byte	W96
@ 025   ----------------------------------------
	.byte	W96
@ 026   ----------------------------------------
	.byte	W96
@ 027   ----------------------------------------
	.byte	W96
@ 028   ----------------------------------------
	.byte	W96
@ 029   ----------------------------------------
	.byte	W96
@ 030   ----------------------------------------
	.byte	W96
@ 031   ----------------------------------------
	.byte	W96
@ 032   ----------------------------------------
	.byte	W96
@ 033   ----------------------------------------
	.byte	W96
@ 034   ----------------------------------------
	.byte	W96
@ 035   ----------------------------------------
	.byte	W96
@ 036   ----------------------------------------
	.byte	W24
	.byte		N05   , Cn3 
	.byte	W12
	.byte		        Fn2 
	.byte	W12
	.byte		        Gn2 
	.byte	W12
	.byte		        Cn3 
	.byte	W12
	.byte		        En3 
	.byte	W12
	.byte		        Fn2 
	.byte	W12
@ 037   ----------------------------------------
	.byte		        Dn3 
	.byte	W12
	.byte		        En3 
	.byte	W12
	.byte		N05   
	.byte	W12
	.byte		        An2 
	.byte	W12
	.byte		        Dn3 
	.byte	W12
	.byte		        Fn3 
	.byte	W12
	.byte		        En3 
	.byte	W12
	.byte		        Cn3 
	.byte	W12
@ 038   ----------------------------------------
	.byte		        Dn3 
	.byte	W12
	.byte		        Bn2 
	.byte	W12
	.byte		        En3 
	.byte	W12
	.byte		        An2 
	.byte	W12
	.byte		        Dn3 
	.byte	W12
	.byte		        Fn3 
	.byte	W12
	.byte		        Gn3 
	.byte	W06
	.byte		        Fn3 
	.byte	W06
	.byte		        En3 
	.byte	W12
@ 039   ----------------------------------------
	.byte		        Dn3 
	.byte	W12
	.byte		        Bn2 
	.byte	W12
	.byte		        En3 
	.byte	W12
	.byte		        An2 
	.byte	W12
	.byte		        Dn3 
	.byte	W12
	.byte		        Fn3 
	.byte	W12
	.byte		        Gn3 
	.byte	W12
	.byte		        Fn3 
	.byte	W12
@ 040   ----------------------------------------
	.byte		        Gn3 
	.byte	W12
	.byte		        Bn3 
	.byte	W12
	.byte		        Cn4 
	.byte	W12
	.byte		        Gn3 
	.byte	W12
	.byte		        Bn3 
	.byte	W12
	.byte		        En4 
	.byte	W12
	.byte		        Fn3 
	.byte	W12
	.byte		        Dn4 
	.byte	W12
@ 041   ----------------------------------------
	.byte		        Gn4 
	.byte	W12
	.byte		        Fn4 
	.byte	W12
	.byte		N23   , En3 
	.byte	W24
	.byte		N92   , Cn4 
	.byte	W48
@ 042   ----------------------------------------
	.byte	PATT
	 .word	feb20230729212622_1_002
@ 043   ----------------------------------------
	.byte	PATT
	 .word	feb20230729212622_1_003
@ 044   ----------------------------------------
	.byte	PATT
	 .word	feb20230729212622_1_004
@ 045   ----------------------------------------
	.byte	PATT
	 .word	feb20230729212622_1_005
@ 046   ----------------------------------------
	.byte	PATT
	 .word	feb20230729212622_1_002
@ 047   ----------------------------------------
	.byte	PATT
	 .word	feb20230729212622_1_007
@ 048   ----------------------------------------
	.byte	PATT
	 .word	feb20230729212622_1_008
@ 049   ----------------------------------------
	.byte	PATT
	 .word	feb20230729212622_1_009
@ 050   ----------------------------------------
	.byte	PATT
	 .word	feb20230729212622_1_002
@ 051   ----------------------------------------
	.byte	PATT
	 .word	feb20230729212622_1_003
@ 052   ----------------------------------------
	.byte	PATT
	 .word	feb20230729212622_1_004
@ 053   ----------------------------------------
	.byte	PATT
	 .word	feb20230729212622_1_005
@ 054   ----------------------------------------
	.byte	PATT
	 .word	feb20230729212622_1_002
@ 055   ----------------------------------------
	.byte	PATT
	 .word	feb20230729212622_1_007
@ 056   ----------------------------------------
	.byte	PATT
	 .word	feb20230729212622_1_008
@ 057   ----------------------------------------
	.byte		N23   , Gn3 , v088
	.byte	W96
@ 058   ----------------------------------------
	.byte	W96
@ 059   ----------------------------------------
	.byte	W96
@ 060   ----------------------------------------
	.byte	W96
@ 061   ----------------------------------------
	.byte	W96
@ 062   ----------------------------------------
	.byte	W96
@ 063   ----------------------------------------
	.byte	W96
@ 064   ----------------------------------------
	.byte	W96
@ 065   ----------------------------------------
	.byte	W96
@ 066   ----------------------------------------
	.byte	W96
@ 067   ----------------------------------------
	.byte	W96
@ 068   ----------------------------------------
	.byte	W96
@ 069   ----------------------------------------
	.byte	W96
@ 070   ----------------------------------------
	.byte	W96
@ 071   ----------------------------------------
	.byte	W96
@ 072   ----------------------------------------
	.byte	W96
@ 073   ----------------------------------------
	.byte	W24
	.byte		N05   , En3 , v080
	.byte	W72
@ 074   ----------------------------------------
	.byte	W96
@ 075   ----------------------------------------
	.byte	W24
	.byte		N05   
	.byte	W72
@ 076   ----------------------------------------
	.byte	W96
@ 077   ----------------------------------------
	.byte	W24
	.byte		        En4 
	.byte	W12
	.byte		        Cn4 
	.byte	W24
	.byte		        An3 
	.byte	W24
	.byte		        Bn3 
	.byte	W12
@ 078   ----------------------------------------
	.byte	W12
	.byte		        Cn4 
	.byte	W12
	.byte		N17   , Dn4 
	.byte	W24
	.byte		N05   , Cn4 
	.byte	W12
	.byte		N17   , Bn3 
	.byte	W24
	.byte		        Cn4 
	.byte	W12
@ 079   ----------------------------------------
	.byte	W12
	.byte		N05   , Dn4 
	.byte	W12
	.byte		N11   , An3 
	.byte	W24
	.byte		        Gn3 
	.byte	W24
	.byte		        Fn3 
	.byte	W24
@ 080   ----------------------------------------
	.byte		        En3 
	.byte	W24
	.byte		N11   
	.byte	W24
	.byte		        Dn3 
	.byte	W24
	.byte		        Cn3 
	.byte	W24
@ 081   ----------------------------------------
	.byte		        Bn2 
	.byte	W24
	.byte		N05   , An2 
	.byte	W72
@ 082   ----------------------------------------
	.byte	W96
@ 083   ----------------------------------------
	.byte	W96
@ 084   ----------------------------------------
	.byte	W96
@ 085   ----------------------------------------
	.byte	W96
@ 086   ----------------------------------------
	.byte	W96
@ 087   ----------------------------------------
	.byte	W96
@ 088   ----------------------------------------
	.byte	W96
	.byte	GOTO
	 .word	feb20230729212622_1_B1
feb20230729212622_1_B2:
@ 089   ----------------------------------------
	.byte	FINE

@**************** Track 2 (Midi-Chn.2) ****************@

feb20230729212622_2:
	.byte	KEYSH , feb20230729212622_key+0
@ 000   ----------------------------------------
	.byte		VOICE , 48
	.byte		VOL   , 90*feb20230729212622_mvl/mxv
	.byte		N05   , Fn2 , v096
	.byte	W06
	.byte		        Gn2 
	.byte	W06
	.byte		        An2 
	.byte	W06
	.byte		        Bn2 
	.byte	W06
	.byte		        Cn3 
	.byte	W18
	.byte		        Fn3 
	.byte	W18
	.byte		        Ds3 
	.byte	W18
	.byte		        As3 
	.byte	W18
@ 001   ----------------------------------------
	.byte		        Gs3 
	.byte	W12
	.byte		        Ds3 
	.byte	W12
feb20230729212622_2_B1:
	.byte		N05   , Cn3 , v088
	.byte	W12
	.byte		        En2 
	.byte	W12
	.byte		        Bn2 
	.byte	W12
	.byte		        Dn3 
	.byte	W12
	.byte		        Cn3 
	.byte	W12
	.byte		        An2 
	.byte	W12
@ 002   ----------------------------------------
feb20230729212622_2_002:
	.byte		N05   , Bn2 , v088
	.byte	W12
	.byte		        Gn2 
	.byte	W12
	.byte		        Cn3 
	.byte	W12
	.byte		        En2 
	.byte	W12
	.byte		        Bn2 
	.byte	W12
	.byte		        Dn3 
	.byte	W12
	.byte		        Cn3 
	.byte	W12
	.byte		        An2 
	.byte	W12
	.byte	PEND
@ 003   ----------------------------------------
	.byte	PATT
	 .word	feb20230729212622_2_002
@ 004   ----------------------------------------
	.byte	PATT
	 .word	feb20230729212622_2_002
@ 005   ----------------------------------------
	.byte	PATT
	 .word	feb20230729212622_2_002
@ 006   ----------------------------------------
	.byte	PATT
	 .word	feb20230729212622_2_002
@ 007   ----------------------------------------
	.byte	PATT
	 .word	feb20230729212622_2_002
@ 008   ----------------------------------------
	.byte	PATT
	 .word	feb20230729212622_2_002
@ 009   ----------------------------------------
	.byte	PATT
	 .word	feb20230729212622_2_002
@ 010   ----------------------------------------
	.byte	PATT
	 .word	feb20230729212622_2_002
@ 011   ----------------------------------------
	.byte	PATT
	 .word	feb20230729212622_2_002
@ 012   ----------------------------------------
	.byte		N05   , Cn3 , v088
	.byte	W12
	.byte		        Gn2 
	.byte	W12
	.byte		        Cn3 
	.byte	W12
	.byte		        En2 
	.byte	W12
	.byte		        Bn2 
	.byte	W12
	.byte		        Dn3 
	.byte	W12
	.byte		        Cn3 
	.byte	W12
	.byte		        An2 
	.byte	W12
@ 013   ----------------------------------------
	.byte	PATT
	 .word	feb20230729212622_2_002
@ 014   ----------------------------------------
	.byte	PATT
	 .word	feb20230729212622_2_002
@ 015   ----------------------------------------
	.byte	PATT
	 .word	feb20230729212622_2_002
@ 016   ----------------------------------------
	.byte		N05   , Bn2 , v088
	.byte	W12
	.byte		        Gn2 
	.byte	W12
	.byte		        Cn3 
	.byte	W12
	.byte		        En2 
	.byte	W12
	.byte		        Bn2 
	.byte	W12
	.byte		        Dn3 
	.byte	W12
	.byte		        Bn2 
	.byte	W12
	.byte		        An2 
	.byte	W12
@ 017   ----------------------------------------
feb20230729212622_2_017:
	.byte		N05   , Bn2 , v088
	.byte	W12
	.byte		        Gn2 
	.byte	W84
	.byte	PEND
@ 018   ----------------------------------------
	.byte	W96
@ 019   ----------------------------------------
	.byte	W96
@ 020   ----------------------------------------
	.byte	W96
@ 021   ----------------------------------------
	.byte	W96
@ 022   ----------------------------------------
	.byte	W96
@ 023   ----------------------------------------
	.byte	W96
@ 024   ----------------------------------------
	.byte	W96
@ 025   ----------------------------------------
	.byte	W96
@ 026   ----------------------------------------
	.byte	W96
@ 027   ----------------------------------------
	.byte	W96
@ 028   ----------------------------------------
	.byte	W96
@ 029   ----------------------------------------
	.byte	W96
@ 030   ----------------------------------------
	.byte	W96
@ 031   ----------------------------------------
	.byte	W96
@ 032   ----------------------------------------
	.byte	W96
@ 033   ----------------------------------------
	.byte	W96
@ 034   ----------------------------------------
	.byte	W96
@ 035   ----------------------------------------
	.byte	W96
@ 036   ----------------------------------------
	.byte	W96
@ 037   ----------------------------------------
	.byte	W96
@ 038   ----------------------------------------
	.byte	W96
@ 039   ----------------------------------------
	.byte	W96
@ 040   ----------------------------------------
	.byte	W96
@ 041   ----------------------------------------
	.byte	W24
	.byte		        Cn3 
	.byte	W12
	.byte		        En2 
	.byte	W12
	.byte		        Bn2 
	.byte	W12
	.byte		        Dn3 
	.byte	W12
	.byte		        Cn3 
	.byte	W12
	.byte		        An2 
	.byte	W12
@ 042   ----------------------------------------
	.byte	PATT
	 .word	feb20230729212622_2_002
@ 043   ----------------------------------------
	.byte	PATT
	 .word	feb20230729212622_2_002
@ 044   ----------------------------------------
	.byte	PATT
	 .word	feb20230729212622_2_002
@ 045   ----------------------------------------
	.byte	PATT
	 .word	feb20230729212622_2_002
@ 046   ----------------------------------------
	.byte	PATT
	 .word	feb20230729212622_2_002
@ 047   ----------------------------------------
	.byte	PATT
	 .word	feb20230729212622_2_002
@ 048   ----------------------------------------
	.byte	PATT
	 .word	feb20230729212622_2_002
@ 049   ----------------------------------------
	.byte	PATT
	 .word	feb20230729212622_2_017
@ 050   ----------------------------------------
	.byte	W96
@ 051   ----------------------------------------
	.byte	W96
@ 052   ----------------------------------------
	.byte	W96
@ 053   ----------------------------------------
	.byte	W96
@ 054   ----------------------------------------
	.byte	W96
@ 055   ----------------------------------------
	.byte	W96
@ 056   ----------------------------------------
	.byte	W96
@ 057   ----------------------------------------
	.byte	W96
@ 058   ----------------------------------------
	.byte	W96
@ 059   ----------------------------------------
	.byte	W96
@ 060   ----------------------------------------
	.byte	W96
@ 061   ----------------------------------------
	.byte	W96
@ 062   ----------------------------------------
	.byte	W96
@ 063   ----------------------------------------
	.byte	W96
@ 064   ----------------------------------------
	.byte	W96
@ 065   ----------------------------------------
	.byte	W96
@ 066   ----------------------------------------
	.byte	W96
@ 067   ----------------------------------------
	.byte	W96
@ 068   ----------------------------------------
	.byte	W96
@ 069   ----------------------------------------
	.byte	W96
@ 070   ----------------------------------------
	.byte	W96
@ 071   ----------------------------------------
	.byte	W96
@ 072   ----------------------------------------
	.byte	W96
@ 073   ----------------------------------------
	.byte	W24
	.byte		N05   , Cn3 , v088
	.byte	W12
	.byte		        An2 
	.byte	W24
	.byte		        Cn3 
	.byte	W24
	.byte		        Dn3 
	.byte	W12
@ 074   ----------------------------------------
feb20230729212622_2_074:
	.byte	W12
	.byte		N05   , En3 , v088
	.byte	W12
	.byte		N17   , Fn3 
	.byte	W24
	.byte		N05   , En3 
	.byte	W12
	.byte		N17   , Dn3 
	.byte	W24
	.byte		        En3 
	.byte	W12
	.byte	PEND
@ 075   ----------------------------------------
	.byte	W12
	.byte		N05   , Fn3 
	.byte	W12
	.byte		        Cn3 
	.byte	W12
	.byte		        An2 
	.byte	W24
	.byte		        Cn3 
	.byte	W24
	.byte		        Dn3 
	.byte	W12
@ 076   ----------------------------------------
	.byte	W12
	.byte		        En3 
	.byte	W12
	.byte		N17   , Dn3 
	.byte	W24
	.byte		N05   , Cn3 
	.byte	W12
	.byte		N17   , Bn2 
	.byte	W24
	.byte		N05   , Cn3 
	.byte	W12
@ 077   ----------------------------------------
	.byte		        Dn3 
	.byte	W12
	.byte		        Gn3 
	.byte	W12
	.byte		        Cn3 
	.byte	W12
	.byte		        An2 
	.byte	W24
	.byte		        Cn3 
	.byte	W24
	.byte		        Dn3 
	.byte	W12
@ 078   ----------------------------------------
	.byte	PATT
	 .word	feb20230729212622_2_074
@ 079   ----------------------------------------
	.byte	W12
	.byte		N05   , Fn3 , v088
	.byte	W12
	.byte		N11   , Cn4 
	.byte	W24
	.byte		        Bn3 
	.byte	W24
	.byte		        An3 
	.byte	W24
@ 080   ----------------------------------------
	.byte		        Gn3 
	.byte	W24
	.byte		N11   
	.byte	W24
	.byte		        Fs3 
	.byte	W24
	.byte		        En3 
	.byte	W24
@ 081   ----------------------------------------
	.byte		        Dn3 
	.byte	W24
	.byte		N05   , Cn3 
	.byte	W12
	.byte		        En2 
	.byte	W12
	.byte		        Bn2 
	.byte	W12
	.byte		        Dn3 
	.byte	W12
	.byte		        Cn3 
	.byte	W12
	.byte		        An2 
	.byte	W12
@ 082   ----------------------------------------
	.byte	PATT
	 .word	feb20230729212622_2_002
@ 083   ----------------------------------------
	.byte	PATT
	 .word	feb20230729212622_2_002
@ 084   ----------------------------------------
	.byte	PATT
	 .word	feb20230729212622_2_002
@ 085   ----------------------------------------
	.byte	PATT
	 .word	feb20230729212622_2_002
@ 086   ----------------------------------------
	.byte	PATT
	 .word	feb20230729212622_2_002
@ 087   ----------------------------------------
	.byte	PATT
	 .word	feb20230729212622_2_002
@ 088   ----------------------------------------
	.byte	PATT
	 .word	feb20230729212622_2_002
	.byte	GOTO
	 .word	feb20230729212622_2_B1
feb20230729212622_2_B2:
@ 089   ----------------------------------------
	.byte	FINE

@**************** Track 3 (Midi-Chn.3) ****************@

feb20230729212622_3:
	.byte	KEYSH , feb20230729212622_key+0
@ 000   ----------------------------------------
	.byte		VOICE , 110
	.byte		VOL   , 88*feb20230729212622_mvl/mxv
	.byte	W96
@ 001   ----------------------------------------
	.byte	W24
feb20230729212622_3_B1:
	.byte	W72
@ 002   ----------------------------------------
	.byte	W96
@ 003   ----------------------------------------
	.byte	W96
@ 004   ----------------------------------------
	.byte	W96
@ 005   ----------------------------------------
	.byte	W96
@ 006   ----------------------------------------
	.byte	W96
@ 007   ----------------------------------------
	.byte	W96
@ 008   ----------------------------------------
	.byte	W96
@ 009   ----------------------------------------
feb20230729212622_3_009:
	.byte	W24
	.byte		N23   , En4 , v088
	.byte	W24
	.byte		N92   , Cn5 
	.byte	W48
	.byte	PEND
@ 010   ----------------------------------------
feb20230729212622_3_010:
	.byte	W60
	.byte		N05   , Bn4 , v088
	.byte	W06
	.byte		        Cn5 
	.byte	W06
	.byte		N17   , Dn5 
	.byte	W18
	.byte		        Cn5 
	.byte	W06
	.byte	PEND
@ 011   ----------------------------------------
feb20230729212622_3_011:
	.byte	W12
	.byte		N11   , Bn4 , v088
	.byte	W12
	.byte		N68   , An4 
	.byte	W72
	.byte	PEND
@ 012   ----------------------------------------
feb20230729212622_3_012:
	.byte	W12
	.byte		N05   , An4 , v088
	.byte	W06
	.byte		        Cn5 
	.byte	W06
	.byte		N23   , Bn4 
	.byte	W24
	.byte		        Gn4 
	.byte	W24
	.byte		        An4 
	.byte	W24
	.byte	PEND
@ 013   ----------------------------------------
feb20230729212622_3_013:
	.byte		N23   , En4 , v088
	.byte	W24
	.byte		N23   
	.byte	W24
	.byte		N92   , Cn5 
	.byte	W48
	.byte	PEND
@ 014   ----------------------------------------
	.byte	PATT
	 .word	feb20230729212622_3_010
@ 015   ----------------------------------------
feb20230729212622_3_015:
	.byte	W12
	.byte		N11   , Dn5 , v088
	.byte	W12
	.byte		N32   , En5 
	.byte	W36
	.byte		N05   , Dn5 
	.byte	W06
	.byte		        Cn5 
	.byte	W06
	.byte		N23   , Bn4 
	.byte	W24
	.byte	PEND
@ 016   ----------------------------------------
feb20230729212622_3_016:
	.byte		N23   , Dn5 , v088
	.byte	W24
	.byte		        Cn5 
	.byte	W24
	.byte		        An4 
	.byte	W24
	.byte		        Bn4 
	.byte	W24
	.byte	PEND
@ 017   ----------------------------------------
	.byte		        Gn4 
	.byte	W96
@ 018   ----------------------------------------
	.byte	W96
@ 019   ----------------------------------------
	.byte	W96
@ 020   ----------------------------------------
	.byte	W96
@ 021   ----------------------------------------
	.byte	W96
@ 022   ----------------------------------------
	.byte	W96
@ 023   ----------------------------------------
	.byte	W96
@ 024   ----------------------------------------
feb20230729212622_3_024:
	.byte	W24
	.byte		N05   , En2 , v080
	.byte	W12
	.byte		        An2 
	.byte	W12
	.byte		        En3 
	.byte	W12
	.byte		        An2 
	.byte	W12
	.byte		        Cs3 
	.byte	W12
	.byte		        En3 
	.byte	W12
	.byte	PEND
@ 025   ----------------------------------------
feb20230729212622_3_025:
	.byte		N05   , Cs3 , v080
	.byte	W12
	.byte		        An2 
	.byte	W12
	.byte		        Cn4 , v040
	.byte	W12
	.byte		        Fn3 
	.byte	W12
	.byte		        Cn4 
	.byte	W12
	.byte		        En3 
	.byte	W12
	.byte		        Cn4 
	.byte	W12
	.byte		        Fn3 
	.byte	W12
	.byte	PEND
@ 026   ----------------------------------------
feb20230729212622_3_026:
	.byte		N05   , Bn3 , v040
	.byte	W12
	.byte		        Gn3 
	.byte	W12
	.byte		        Bn3 
	.byte	W12
	.byte		        En3 
	.byte	W12
	.byte		        Bn3 
	.byte	W12
	.byte		        Gn3 
	.byte	W12
	.byte		        Bn3 
	.byte	W12
	.byte		        En3 
	.byte	W12
	.byte	PEND
@ 027   ----------------------------------------
feb20230729212622_3_027:
	.byte		N05   , An3 , v040
	.byte	W12
	.byte		        Fn3 
	.byte	W12
	.byte		        As3 
	.byte	W06
	.byte		        An3 
	.byte	W06
	.byte		        Gn3 
	.byte	W12
	.byte		N17   , As3 
	.byte	W24
	.byte		N05   , Cn4 
	.byte	W12
	.byte		        As3 
	.byte	W12
	.byte	PEND
@ 028   ----------------------------------------
feb20230729212622_3_028:
	.byte		N05   , Cn4 , v040
	.byte	W12
	.byte		        Dn4 
	.byte	W12
	.byte		        An4 
	.byte	W06
	.byte		        Gn4 
	.byte	W06
	.byte		        Fn4 
	.byte	W12
	.byte		        An4 
	.byte	W06
	.byte		        Gn4 
	.byte	W06
	.byte		        Fn4 
	.byte	W12
	.byte		        Gn4 
	.byte	W06
	.byte		        Fn4 
	.byte	W06
	.byte		        En4 
	.byte	W12
	.byte	PEND
@ 029   ----------------------------------------
feb20230729212622_3_029:
	.byte		N05   , An4 , v040
	.byte	W06
	.byte		        Gn4 
	.byte	W06
	.byte		        Fn4 
	.byte	W12
	.byte		        An4 
	.byte	W06
	.byte		        Gn4 
	.byte	W06
	.byte		        Fn4 
	.byte	W12
	.byte		N17   , An4 
	.byte	W24
	.byte		N05   
	.byte	W12
	.byte		        Fn4 
	.byte	W12
	.byte	PEND
@ 030   ----------------------------------------
feb20230729212622_3_030:
	.byte		N05   , Gn4 , v040
	.byte	W12
	.byte		        En4 
	.byte	W12
	.byte		        Gn4 
	.byte	W06
	.byte		        Fn4 
	.byte	W06
	.byte		        En4 
	.byte	W12
	.byte		N17   , Gn4 
	.byte	W24
	.byte		N05   
	.byte	W12
	.byte		        Dn4 
	.byte	W12
	.byte	PEND
@ 031   ----------------------------------------
feb20230729212622_3_031:
	.byte		N05   , En4 , v040
	.byte	W12
	.byte		        Cn4 
	.byte	W12
	.byte		        As4 
	.byte	W06
	.byte		        An4 
	.byte	W06
	.byte		        Gn4 
	.byte	W12
	.byte		N17   , As4 
	.byte	W24
	.byte		N05   
	.byte	W12
	.byte		        Fn4 
	.byte	W12
	.byte	PEND
@ 032   ----------------------------------------
feb20230729212622_3_032:
	.byte		N05   , Gn4 , v040
	.byte	W12
	.byte		        Dn4 
	.byte	W12
	.byte		        En3 , v080
	.byte	W12
	.byte		        An3 
	.byte	W12
	.byte		        En4 
	.byte	W12
	.byte		        An3 
	.byte	W12
	.byte		        Cs4 
	.byte	W12
	.byte		        En4 
	.byte	W12
	.byte	PEND
@ 033   ----------------------------------------
	.byte		        Cs4 
	.byte	W12
	.byte		        An3 
	.byte	W12
	.byte		        Cn3 , v088
	.byte	W12
	.byte		        En2 
	.byte	W12
	.byte		        Bn2 
	.byte	W12
	.byte		        Dn3 
	.byte	W12
	.byte		        Cn3 
	.byte	W12
	.byte		        An2 
	.byte	W12
@ 034   ----------------------------------------
	.byte		        Bn2 
	.byte	W12
	.byte		        Gn2 
	.byte	W12
	.byte		        Cn3 
	.byte	W12
	.byte		        En2 
	.byte	W12
	.byte		        Bn2 
	.byte	W12
	.byte		        Dn3 
	.byte	W12
	.byte		        En3 
	.byte	W06
	.byte		        Dn3 
	.byte	W06
	.byte		        Cn3 
	.byte	W12
@ 035   ----------------------------------------
	.byte		        Bn2 
	.byte	W12
	.byte		        Gn2 
	.byte	W12
	.byte		        Cn3 
	.byte	W12
	.byte		        En2 
	.byte	W12
	.byte		        Bn2 
	.byte	W12
	.byte		        Dn3 
	.byte	W12
	.byte		        En3 
	.byte	W12
	.byte		        Cn3 
	.byte	W12
@ 036   ----------------------------------------
	.byte		        Dn3 
	.byte	W12
	.byte		        En3 
	.byte	W12
	.byte		        An3 
	.byte	W12
	.byte		        Dn3 
	.byte	W12
	.byte		        En3 
	.byte	W12
	.byte		        An3 
	.byte	W12
	.byte		        Cn4 
	.byte	W12
	.byte		        Dn3 
	.byte	W12
@ 037   ----------------------------------------
	.byte		        Bn3 
	.byte	W12
	.byte		        Cn4 
	.byte	W12
	.byte		N05   
	.byte	W12
	.byte		        En3 
	.byte	W12
	.byte		        Bn3 
	.byte	W12
	.byte		        Dn4 
	.byte	W12
	.byte		        Cn4 
	.byte	W12
	.byte		        An3 
	.byte	W12
@ 038   ----------------------------------------
	.byte		        Bn3 
	.byte	W12
	.byte		        Gn3 
	.byte	W12
	.byte		        Cn4 
	.byte	W12
	.byte		        En3 
	.byte	W12
	.byte		        Bn3 
	.byte	W12
	.byte		        Dn4 
	.byte	W12
	.byte		        En4 
	.byte	W06
	.byte		        Dn4 
	.byte	W06
	.byte		        Cn4 
	.byte	W12
@ 039   ----------------------------------------
	.byte		        Bn3 
	.byte	W12
	.byte		        Gn3 
	.byte	W12
	.byte		        Cn4 
	.byte	W12
	.byte		        En3 
	.byte	W12
	.byte		        Bn3 
	.byte	W12
	.byte		        Dn4 
	.byte	W12
	.byte		        En4 
	.byte	W12
	.byte		        Dn4 
	.byte	W12
@ 040   ----------------------------------------
	.byte		        En4 
	.byte	W12
	.byte		        Gn4 
	.byte	W12
	.byte		        An4 
	.byte	W12
	.byte		        En4 
	.byte	W12
	.byte		        Gn4 
	.byte	W12
	.byte		        Cn5 
	.byte	W12
	.byte		        Dn4 
	.byte	W12
	.byte		        Bn4 
	.byte	W12
@ 041   ----------------------------------------
	.byte		        En5 
	.byte	W12
	.byte		        Dn5 
	.byte	W84
@ 042   ----------------------------------------
	.byte	W96
@ 043   ----------------------------------------
	.byte	W96
@ 044   ----------------------------------------
	.byte	W96
@ 045   ----------------------------------------
	.byte	W96
@ 046   ----------------------------------------
	.byte	W96
@ 047   ----------------------------------------
	.byte	W96
@ 048   ----------------------------------------
	.byte	W96
@ 049   ----------------------------------------
	.byte	PATT
	 .word	feb20230729212622_3_009
@ 050   ----------------------------------------
	.byte	PATT
	 .word	feb20230729212622_3_010
@ 051   ----------------------------------------
	.byte	PATT
	 .word	feb20230729212622_3_011
@ 052   ----------------------------------------
	.byte	PATT
	 .word	feb20230729212622_3_012
@ 053   ----------------------------------------
	.byte	PATT
	 .word	feb20230729212622_3_013
@ 054   ----------------------------------------
	.byte	PATT
	 .word	feb20230729212622_3_010
@ 055   ----------------------------------------
	.byte	PATT
	 .word	feb20230729212622_3_015
@ 056   ----------------------------------------
	.byte	PATT
	 .word	feb20230729212622_3_016
@ 057   ----------------------------------------
	.byte		N23   , Gn4 , v088
	.byte	W96
@ 058   ----------------------------------------
	.byte	W96
@ 059   ----------------------------------------
	.byte	W96
@ 060   ----------------------------------------
	.byte	W96
@ 061   ----------------------------------------
	.byte	W96
@ 062   ----------------------------------------
	.byte	W96
@ 063   ----------------------------------------
	.byte	W96
@ 064   ----------------------------------------
	.byte	PATT
	 .word	feb20230729212622_3_024
@ 065   ----------------------------------------
	.byte	PATT
	 .word	feb20230729212622_3_025
@ 066   ----------------------------------------
	.byte	PATT
	 .word	feb20230729212622_3_026
@ 067   ----------------------------------------
	.byte	PATT
	 .word	feb20230729212622_3_027
@ 068   ----------------------------------------
	.byte	PATT
	 .word	feb20230729212622_3_028
@ 069   ----------------------------------------
	.byte	PATT
	 .word	feb20230729212622_3_029
@ 070   ----------------------------------------
	.byte	PATT
	 .word	feb20230729212622_3_030
@ 071   ----------------------------------------
	.byte	PATT
	 .word	feb20230729212622_3_031
@ 072   ----------------------------------------
	.byte	PATT
	 .word	feb20230729212622_3_032
@ 073   ----------------------------------------
	.byte		N05   , Cs4 , v080
	.byte	W12
	.byte		        An3 
	.byte	W12
	.byte		        An3 , v088
	.byte	W12
	.byte		        En3 
	.byte	W12
	.byte		        Bn3 
	.byte	W12
	.byte		        Gn3 
	.byte	W12
	.byte		        En4 
	.byte	W06
	.byte		        Dn4 
	.byte	W06
	.byte		        Cn4 
	.byte	W12
@ 074   ----------------------------------------
	.byte		        Dn4 
	.byte	W12
	.byte		        An3 
	.byte	W12
	.byte		N17   , Dn4 
	.byte	W24
	.byte		N05   , Cn4 
	.byte	W12
	.byte		N17   , Bn3 
	.byte	W24
	.byte		        Cn4 
	.byte	W12
@ 075   ----------------------------------------
	.byte	W12
	.byte		N05   , Dn4 
	.byte	W12
	.byte		        An3 
	.byte	W12
	.byte		        En3 
	.byte	W12
	.byte		        Bn3 
	.byte	W12
	.byte		        Gn3 
	.byte	W12
	.byte		        En4 
	.byte	W06
	.byte		        Dn4 
	.byte	W06
	.byte		        Cn4 
	.byte	W12
@ 076   ----------------------------------------
	.byte		        Dn4 
	.byte	W12
	.byte		        An3 
	.byte	W12
	.byte		N17   , Bn3 
	.byte	W24
	.byte		N05   , An3 
	.byte	W12
	.byte		N17   , Gs3 
	.byte	W24
	.byte		N05   , An3 
	.byte	W12
@ 077   ----------------------------------------
	.byte		        Bn3 
	.byte	W12
	.byte		        En4 
	.byte	W12
	.byte		        An4 
	.byte	W12
	.byte		        En4 
	.byte	W12
	.byte		        Bn4 
	.byte	W12
	.byte		        Gn4 
	.byte	W12
	.byte		        En5 
	.byte	W06
	.byte		        Dn5 
	.byte	W06
	.byte		        Cn5 
	.byte	W12
@ 078   ----------------------------------------
	.byte		        Dn5 
	.byte	W12
	.byte		        An4 
	.byte	W12
	.byte		        Bn4 
	.byte	W12
	.byte		        Dn5 
	.byte	W12
	.byte		        Cn5 
	.byte	W12
	.byte		        Bn4 
	.byte	W12
	.byte		        Dn4 
	.byte	W12
	.byte		        An4 
	.byte	W12
@ 079   ----------------------------------------
	.byte		        Bn4 
	.byte	W12
	.byte		        Dn5 
	.byte	W12
	.byte		N11   , An5 
	.byte	W24
	.byte		        Gn5 
	.byte	W24
	.byte		        Fn5 
	.byte	W24
@ 080   ----------------------------------------
	.byte		        En5 
	.byte	W24
	.byte		N11   
	.byte	W24
	.byte		        Dn5 
	.byte	W24
	.byte		        Cn5 
	.byte	W24
@ 081   ----------------------------------------
	.byte		        Bn4 
	.byte	W24
	.byte		N05   , An4 
	.byte	W72
@ 082   ----------------------------------------
	.byte	W96
@ 083   ----------------------------------------
	.byte	W96
@ 084   ----------------------------------------
	.byte	W96
@ 085   ----------------------------------------
	.byte	W96
@ 086   ----------------------------------------
	.byte	W96
@ 087   ----------------------------------------
	.byte	W96
@ 088   ----------------------------------------
	.byte	W96
	.byte	GOTO
	 .word	feb20230729212622_3_B1
feb20230729212622_3_B2:
@ 089   ----------------------------------------
	.byte	FINE

@**************** Track 4 (Midi-Chn.4) ****************@

feb20230729212622_4:
	.byte	KEYSH , feb20230729212622_key+0
@ 000   ----------------------------------------
	.byte		VOICE , 57
	.byte		VOL   , 115*feb20230729212622_mvl/mxv
	.byte	W96
@ 001   ----------------------------------------
	.byte	W24
feb20230729212622_4_B1:
	.byte	W72
@ 002   ----------------------------------------
	.byte	W96
@ 003   ----------------------------------------
	.byte	W96
@ 004   ----------------------------------------
	.byte	W96
@ 005   ----------------------------------------
	.byte	W96
@ 006   ----------------------------------------
	.byte	W96
@ 007   ----------------------------------------
	.byte	W96
@ 008   ----------------------------------------
	.byte	W96
@ 009   ----------------------------------------
	.byte	W96
@ 010   ----------------------------------------
	.byte	W96
@ 011   ----------------------------------------
	.byte	W96
@ 012   ----------------------------------------
	.byte	W96
@ 013   ----------------------------------------
	.byte	W96
@ 014   ----------------------------------------
	.byte	W96
@ 015   ----------------------------------------
	.byte	W96
@ 016   ----------------------------------------
	.byte	W96
@ 017   ----------------------------------------
feb20230729212622_4_017:
	.byte	W24
	.byte		N23   , An3 , v080
	.byte	W36
	.byte		N05   , En4 
	.byte	W12
	.byte		N32   
	.byte	W24
	.byte	PEND
@ 018   ----------------------------------------
feb20230729212622_4_018:
	.byte	W24
	.byte		N23   , Gn3 , v080
	.byte	W36
	.byte		N05   , Dn4 
	.byte	W12
	.byte		N32   
	.byte	W24
	.byte	PEND
@ 019   ----------------------------------------
feb20230729212622_4_019:
	.byte	W24
	.byte		N23   , As3 , v080
	.byte	W36
	.byte		N05   , Gn4 
	.byte	W12
	.byte		N23   
	.byte	W24
	.byte	PEND
@ 020   ----------------------------------------
feb20230729212622_4_020:
	.byte		N23   , Dn4 , v080
	.byte	W24
	.byte		        Fn4 
	.byte	W24
	.byte		        En4 
	.byte	W24
	.byte		        Dn4 
	.byte	W24
	.byte	PEND
@ 021   ----------------------------------------
feb20230729212622_4_021:
	.byte		N23   , En4 , v080
	.byte	W24
	.byte		        Cn4 
	.byte	W36
	.byte		N05   , An4 
	.byte	W12
	.byte		N32   
	.byte	W24
	.byte	PEND
@ 022   ----------------------------------------
feb20230729212622_4_022:
	.byte	W24
	.byte		N23   , Cn4 , v080
	.byte	W36
	.byte		N05   , Gn4 
	.byte	W12
	.byte		N32   
	.byte	W24
	.byte	PEND
@ 023   ----------------------------------------
feb20230729212622_4_023:
	.byte	W24
	.byte		N23   , Dn4 , v080
	.byte	W36
	.byte		N05   , As4 
	.byte	W12
	.byte		N23   
	.byte	W24
	.byte	PEND
@ 024   ----------------------------------------
feb20230729212622_4_024:
	.byte		N23   , Dn4 , v080
	.byte	W24
	.byte		N80   , An4 
	.byte	W72
	.byte	PEND
@ 025   ----------------------------------------
	.byte	PATT
	 .word	feb20230729212622_4_017
@ 026   ----------------------------------------
	.byte	PATT
	 .word	feb20230729212622_4_018
@ 027   ----------------------------------------
	.byte	PATT
	 .word	feb20230729212622_4_019
@ 028   ----------------------------------------
	.byte	PATT
	 .word	feb20230729212622_4_020
@ 029   ----------------------------------------
	.byte	PATT
	 .word	feb20230729212622_4_021
@ 030   ----------------------------------------
	.byte	PATT
	 .word	feb20230729212622_4_022
@ 031   ----------------------------------------
	.byte	PATT
	 .word	feb20230729212622_4_023
@ 032   ----------------------------------------
	.byte	PATT
	 .word	feb20230729212622_4_024
@ 033   ----------------------------------------
	.byte	W96
@ 034   ----------------------------------------
	.byte	W96
@ 035   ----------------------------------------
	.byte	W96
@ 036   ----------------------------------------
	.byte	W96
@ 037   ----------------------------------------
	.byte	W96
@ 038   ----------------------------------------
	.byte	W96
@ 039   ----------------------------------------
	.byte	W96
@ 040   ----------------------------------------
	.byte	W96
@ 041   ----------------------------------------
	.byte	W96
@ 042   ----------------------------------------
	.byte	W96
@ 043   ----------------------------------------
	.byte	W96
@ 044   ----------------------------------------
	.byte	W96
@ 045   ----------------------------------------
	.byte	W96
@ 046   ----------------------------------------
	.byte	W96
@ 047   ----------------------------------------
	.byte	W96
@ 048   ----------------------------------------
	.byte	W96
@ 049   ----------------------------------------
	.byte	W96
@ 050   ----------------------------------------
	.byte	W96
@ 051   ----------------------------------------
	.byte	W96
@ 052   ----------------------------------------
	.byte	W96
@ 053   ----------------------------------------
	.byte	W96
@ 054   ----------------------------------------
	.byte	W96
@ 055   ----------------------------------------
	.byte	W96
@ 056   ----------------------------------------
	.byte	W96
@ 057   ----------------------------------------
	.byte	PATT
	 .word	feb20230729212622_4_017
@ 058   ----------------------------------------
	.byte	PATT
	 .word	feb20230729212622_4_018
@ 059   ----------------------------------------
	.byte	PATT
	 .word	feb20230729212622_4_019
@ 060   ----------------------------------------
	.byte	PATT
	 .word	feb20230729212622_4_020
@ 061   ----------------------------------------
	.byte	PATT
	 .word	feb20230729212622_4_021
@ 062   ----------------------------------------
	.byte	PATT
	 .word	feb20230729212622_4_022
@ 063   ----------------------------------------
	.byte	PATT
	 .word	feb20230729212622_4_023
@ 064   ----------------------------------------
	.byte	PATT
	 .word	feb20230729212622_4_024
@ 065   ----------------------------------------
	.byte	PATT
	 .word	feb20230729212622_4_017
@ 066   ----------------------------------------
	.byte	PATT
	 .word	feb20230729212622_4_018
@ 067   ----------------------------------------
	.byte	PATT
	 .word	feb20230729212622_4_019
@ 068   ----------------------------------------
	.byte	PATT
	 .word	feb20230729212622_4_020
@ 069   ----------------------------------------
	.byte	PATT
	 .word	feb20230729212622_4_021
@ 070   ----------------------------------------
	.byte	PATT
	 .word	feb20230729212622_4_022
@ 071   ----------------------------------------
	.byte	PATT
	 .word	feb20230729212622_4_023
@ 072   ----------------------------------------
	.byte		N23   , Dn5 , v080
	.byte	W24
	.byte		N80   , An4 
	.byte	W72
@ 073   ----------------------------------------
	.byte	W96
@ 074   ----------------------------------------
	.byte	W96
@ 075   ----------------------------------------
	.byte	W96
@ 076   ----------------------------------------
	.byte	W96
@ 077   ----------------------------------------
	.byte	W96
@ 078   ----------------------------------------
	.byte	W96
@ 079   ----------------------------------------
	.byte	W96
@ 080   ----------------------------------------
	.byte	W96
@ 081   ----------------------------------------
	.byte	W96
@ 082   ----------------------------------------
	.byte	W96
@ 083   ----------------------------------------
	.byte	W96
@ 084   ----------------------------------------
	.byte	W96
@ 085   ----------------------------------------
	.byte	W96
@ 086   ----------------------------------------
	.byte	W96
@ 087   ----------------------------------------
	.byte	W96
@ 088   ----------------------------------------
	.byte	W96
	.byte	GOTO
	 .word	feb20230729212622_4_B1
feb20230729212622_4_B2:
@ 089   ----------------------------------------
	.byte	FINE

@**************** Track 5 (Midi-Chn.5) ****************@

feb20230729212622_5:
	.byte	KEYSH , feb20230729212622_key+0
@ 000   ----------------------------------------
	.byte		VOICE , 101
	.byte		VOL   , 88*feb20230729212622_mvl/mxv
	.byte		N05   , Fn2 , v088
	.byte	W06
	.byte		        Gn2 
	.byte	W06
	.byte		        An2 
	.byte	W06
	.byte		        Bn2 
	.byte	W06
	.byte		        Cn3 
	.byte	W18
	.byte		        Fn3 
	.byte	W18
	.byte		        Ds3 
	.byte	W18
	.byte		        As3 
	.byte	W18
@ 001   ----------------------------------------
	.byte		        Gs3 
	.byte	W12
	.byte		        Ds3 
	.byte	W12
feb20230729212622_5_B1:
	.byte	W72
@ 002   ----------------------------------------
	.byte	W96
@ 003   ----------------------------------------
	.byte	W96
@ 004   ----------------------------------------
	.byte	W96
@ 005   ----------------------------------------
	.byte	W96
@ 006   ----------------------------------------
	.byte	W96
@ 007   ----------------------------------------
	.byte	W96
@ 008   ----------------------------------------
	.byte	W96
@ 009   ----------------------------------------
	.byte	W96
@ 010   ----------------------------------------
	.byte	W96
@ 011   ----------------------------------------
	.byte	W96
@ 012   ----------------------------------------
	.byte	W96
@ 013   ----------------------------------------
	.byte	W96
@ 014   ----------------------------------------
	.byte	W96
@ 015   ----------------------------------------
	.byte	W96
@ 016   ----------------------------------------
	.byte	W96
@ 017   ----------------------------------------
	.byte	W24
	.byte		N23   , An2 , v072
	.byte	W24
	.byte		        Fn2 
	.byte	W24
	.byte		        An2 
	.byte	W24
@ 018   ----------------------------------------
feb20230729212622_5_018:
	.byte		N23   , En3 , v072
	.byte	W24
	.byte		        Dn3 
	.byte	W36
	.byte		N05   , Gn2 
	.byte	W12
	.byte		N44   
	.byte	W24
	.byte	PEND
@ 019   ----------------------------------------
feb20230729212622_5_019:
	.byte	W24
	.byte		N23   , Dn2 , v072
	.byte	W24
	.byte		        Gn2 
	.byte	W24
	.byte		        Dn3 
	.byte	W24
	.byte	PEND
@ 020   ----------------------------------------
feb20230729212622_5_020:
	.byte		N23   , Gn3 , v072
	.byte	W24
	.byte		        Fn3 
	.byte	W24
	.byte		        En3 
	.byte	W24
	.byte		        Dn3 
	.byte	W24
	.byte	PEND
@ 021   ----------------------------------------
feb20230729212622_5_021:
	.byte		N23   , En3 , v072
	.byte	W24
	.byte		        Cn3 
	.byte	W24
	.byte		        An2 
	.byte	W24
	.byte		        Cn3 
	.byte	W24
	.byte	PEND
@ 022   ----------------------------------------
feb20230729212622_5_022:
	.byte		N23   , An3 , v072
	.byte	W24
	.byte		        Gn3 
	.byte	W36
	.byte		N05   , Cn3 
	.byte	W12
	.byte		N44   
	.byte	W24
	.byte	PEND
@ 023   ----------------------------------------
feb20230729212622_5_023:
	.byte	W24
	.byte		N23   , Dn2 , v072
	.byte	W24
	.byte		        As2 
	.byte	W24
	.byte		        Dn3 
	.byte	W24
	.byte	PEND
@ 024   ----------------------------------------
feb20230729212622_5_024:
	.byte		N23   , As3 , v072
	.byte	W24
	.byte		N92   , An3 
	.byte	W72
	.byte	PEND
@ 025   ----------------------------------------
feb20230729212622_5_025:
	.byte	W24
	.byte		N23   , An2 , v072
	.byte	W24
	.byte		        En3 
	.byte	W24
	.byte		        Dn3 
	.byte	W24
	.byte	PEND
@ 026   ----------------------------------------
feb20230729212622_5_026:
	.byte		N23   , Cn3 , v072
	.byte	W24
	.byte		        Dn3 
	.byte	W36
	.byte		N05   , Gn2 
	.byte	W12
	.byte		N44   
	.byte	W24
	.byte	PEND
@ 027   ----------------------------------------
feb20230729212622_5_027:
	.byte	W24
	.byte		N23   , As2 , v072
	.byte	W24
	.byte		        Gn2 
	.byte	W24
	.byte		        As2 
	.byte	W24
	.byte	PEND
@ 028   ----------------------------------------
feb20230729212622_5_028:
	.byte		N23   , Dn3 , v072
	.byte	W24
	.byte		        Fn3 
	.byte	W24
	.byte		        En3 
	.byte	W24
	.byte		        Dn3 
	.byte	W24
	.byte	PEND
@ 029   ----------------------------------------
feb20230729212622_5_029:
	.byte		N23   , En3 , v072
	.byte	W24
	.byte		        Cn3 
	.byte	W24
	.byte		        An2 
	.byte	W24
	.byte		        Bn2 
	.byte	W24
	.byte	PEND
@ 030   ----------------------------------------
feb20230729212622_5_030:
	.byte		N23   , Cn3 , v072
	.byte	W24
	.byte		        Gn3 
	.byte	W36
	.byte		N05   , En3 
	.byte	W12
	.byte		N44   
	.byte	W24
	.byte	PEND
@ 031   ----------------------------------------
feb20230729212622_5_031:
	.byte	W24
	.byte		N23   , As2 , v072
	.byte	W24
	.byte		        As3 
	.byte	W24
	.byte		N23   
	.byte	W24
	.byte	PEND
@ 032   ----------------------------------------
feb20230729212622_5_032:
	.byte		N23   , Gn3 , v072
	.byte	W24
	.byte		N92   , An3 
	.byte	W72
	.byte	PEND
@ 033   ----------------------------------------
	.byte	W24
	.byte		TIE   , An2 
	.byte	W72
@ 034   ----------------------------------------
	.byte	W80
	.byte	W03
	.byte	W12
	.byte	W01
@ 035   ----------------------------------------
	.byte	W02
	.byte	W01
	.byte	W01
	.byte	W02
	.byte	W01
	.byte	W01
	.byte	W01
	.byte	W01
	.byte	W01
	.byte	W01
	.byte	W01
	.byte	W01
	.byte	W01
	.byte	W01
	.byte	W01
	.byte	W01
	.byte	W01
	.byte	W01
	.byte	W01
	.byte	W01
	.byte	W01
	.byte		EOT   
	.byte	W72
	.byte	W01
@ 036   ----------------------------------------
	.byte	W96
@ 037   ----------------------------------------
	.byte	W24
	.byte		TIE   
	.byte	W72
@ 038   ----------------------------------------
	.byte	W84
	.byte	W11
	.byte	W01
@ 039   ----------------------------------------
	.byte	W02
	.byte	W01
	.byte	W01
	.byte	W02
	.byte	W01
	.byte	W01
	.byte	W01
	.byte	W01
	.byte	W01
	.byte	W01
	.byte	W01
	.byte	W01
	.byte	W01
	.byte	W01
	.byte	W01
	.byte	W01
	.byte	W01
	.byte	W01
	.byte	W01
	.byte	W01
	.byte	W01
	.byte		EOT   
	.byte	W72
	.byte	W01
@ 040   ----------------------------------------
	.byte	W96
@ 041   ----------------------------------------
	.byte	W48
	.byte		N40   , An3 
	.byte	W36
	.byte	W01
	.byte	W01
	.byte	W01
	.byte	W01
	.byte	W01
	.byte	W07
@ 042   ----------------------------------------
feb20230729212622_5_042:
	.byte		N40   , Gn3 , v072
	.byte	W36
	.byte	W01
	.byte	W01
	.byte	W01
	.byte	W01
	.byte	W01
	.byte	W07
	.byte		        Fn3 
	.byte	W36
	.byte	W01
	.byte	W01
	.byte	W01
	.byte	W01
	.byte	W01
	.byte	W07
	.byte	PEND
@ 043   ----------------------------------------
feb20230729212622_5_043:
	.byte		N40   , En3 , v072
	.byte	W36
	.byte	W01
	.byte	W01
	.byte	W01
	.byte	W01
	.byte	W01
	.byte	W07
	.byte		        Dn3 
	.byte	W36
	.byte	W01
	.byte	W01
	.byte	W01
	.byte	W01
	.byte	W01
	.byte	W07
	.byte	PEND
@ 044   ----------------------------------------
feb20230729212622_5_044:
	.byte		N40   , Cn3 , v072
	.byte	W36
	.byte	W01
	.byte	W01
	.byte	W01
	.byte	W01
	.byte	W01
	.byte	W07
	.byte		        Dn3 
	.byte	W36
	.byte	W01
	.byte	W01
	.byte	W01
	.byte	W01
	.byte	W01
	.byte	W07
	.byte	PEND
@ 045   ----------------------------------------
feb20230729212622_5_045:
	.byte		N23   , En3 , v072
	.byte	W48
	.byte		N40   , An3 
	.byte	W36
	.byte	W01
	.byte	W01
	.byte	W01
	.byte	W01
	.byte	W01
	.byte	W07
	.byte	PEND
@ 046   ----------------------------------------
	.byte	PATT
	 .word	feb20230729212622_5_042
@ 047   ----------------------------------------
feb20230729212622_5_047:
	.byte		N40   , En3 , v072
	.byte	W36
	.byte	W01
	.byte	W01
	.byte	W01
	.byte	W01
	.byte	W01
	.byte	W07
	.byte		N23   , Dn3 
	.byte	W24
	.byte		N23   
	.byte	W24
	.byte	PEND
@ 048   ----------------------------------------
feb20230729212622_5_048:
	.byte		N23   , En3 , v072
	.byte	W24
	.byte		        Fn3 
	.byte	W24
	.byte		        Dn3 
	.byte	W24
	.byte		        Bn2 
	.byte	W24
	.byte	PEND
@ 049   ----------------------------------------
	.byte		        Gn2 
	.byte	W48
	.byte		N40   , An3 
	.byte	W36
	.byte	W01
	.byte	W01
	.byte	W01
	.byte	W01
	.byte	W01
	.byte	W07
@ 050   ----------------------------------------
	.byte	PATT
	 .word	feb20230729212622_5_042
@ 051   ----------------------------------------
	.byte	PATT
	 .word	feb20230729212622_5_043
@ 052   ----------------------------------------
	.byte	PATT
	 .word	feb20230729212622_5_044
@ 053   ----------------------------------------
	.byte	PATT
	 .word	feb20230729212622_5_045
@ 054   ----------------------------------------
	.byte	PATT
	 .word	feb20230729212622_5_042
@ 055   ----------------------------------------
	.byte	PATT
	 .word	feb20230729212622_5_047
@ 056   ----------------------------------------
	.byte	PATT
	 .word	feb20230729212622_5_048
@ 057   ----------------------------------------
	.byte		N23   , Gn2 , v072
	.byte	W24
	.byte		        An2 
	.byte	W24
	.byte		        Fn2 
	.byte	W24
	.byte		        An2 
	.byte	W24
@ 058   ----------------------------------------
	.byte	PATT
	 .word	feb20230729212622_5_018
@ 059   ----------------------------------------
	.byte	PATT
	 .word	feb20230729212622_5_019
@ 060   ----------------------------------------
	.byte	PATT
	 .word	feb20230729212622_5_020
@ 061   ----------------------------------------
	.byte	PATT
	 .word	feb20230729212622_5_021
@ 062   ----------------------------------------
	.byte	PATT
	 .word	feb20230729212622_5_022
@ 063   ----------------------------------------
	.byte	PATT
	 .word	feb20230729212622_5_023
@ 064   ----------------------------------------
	.byte	PATT
	 .word	feb20230729212622_5_024
@ 065   ----------------------------------------
	.byte	PATT
	 .word	feb20230729212622_5_025
@ 066   ----------------------------------------
	.byte	PATT
	 .word	feb20230729212622_5_026
@ 067   ----------------------------------------
	.byte	PATT
	 .word	feb20230729212622_5_027
@ 068   ----------------------------------------
	.byte	PATT
	 .word	feb20230729212622_5_028
@ 069   ----------------------------------------
	.byte	PATT
	 .word	feb20230729212622_5_029
@ 070   ----------------------------------------
	.byte	PATT
	 .word	feb20230729212622_5_030
@ 071   ----------------------------------------
	.byte	PATT
	 .word	feb20230729212622_5_031
@ 072   ----------------------------------------
	.byte	PATT
	 .word	feb20230729212622_5_032
@ 073   ----------------------------------------
	.byte	W96
@ 074   ----------------------------------------
	.byte	W96
@ 075   ----------------------------------------
	.byte	W96
@ 076   ----------------------------------------
	.byte	W96
@ 077   ----------------------------------------
	.byte	W96
@ 078   ----------------------------------------
	.byte	W96
@ 079   ----------------------------------------
	.byte	W24
	.byte		N32   , An3 , v072
	.byte	W48
	.byte		N23   , Bn3 
	.byte	W24
@ 080   ----------------------------------------
	.byte		        En3 
	.byte	W24
	.byte		N23   
	.byte	W24
	.byte		        Fs3 
	.byte	W24
	.byte		        Gs3 
	.byte	W24
@ 081   ----------------------------------------
	.byte		        Bn3 
	.byte	W96
@ 082   ----------------------------------------
	.byte	W96
@ 083   ----------------------------------------
	.byte	W96
@ 084   ----------------------------------------
	.byte	W96
@ 085   ----------------------------------------
	.byte	W96
@ 086   ----------------------------------------
	.byte	W96
@ 087   ----------------------------------------
	.byte	W96
@ 088   ----------------------------------------
	.byte	W96
	.byte	GOTO
	 .word	feb20230729212622_5_B1
feb20230729212622_5_B2:
@ 089   ----------------------------------------
	.byte	FINE

@**************** Track 6 (Midi-Chn.6) ****************@

feb20230729212622_6:
	.byte	KEYSH , feb20230729212622_key+0
@ 000   ----------------------------------------
	.byte		VOICE , 68
	.byte		VOL   , 104*feb20230729212622_mvl/mxv
	.byte	W96
@ 001   ----------------------------------------
	.byte	W24
feb20230729212622_6_B1:
	.byte	W72
@ 002   ----------------------------------------
	.byte	W96
@ 003   ----------------------------------------
	.byte	W96
@ 004   ----------------------------------------
	.byte	W96
@ 005   ----------------------------------------
	.byte	W96
@ 006   ----------------------------------------
	.byte	W96
@ 007   ----------------------------------------
	.byte	W96
@ 008   ----------------------------------------
	.byte	W96
@ 009   ----------------------------------------
	.byte	W96
@ 010   ----------------------------------------
	.byte	W96
@ 011   ----------------------------------------
	.byte	W96
@ 012   ----------------------------------------
	.byte	W96
@ 013   ----------------------------------------
	.byte	W96
@ 014   ----------------------------------------
	.byte	W96
@ 015   ----------------------------------------
	.byte	W96
@ 016   ----------------------------------------
	.byte	W96
@ 017   ----------------------------------------
	.byte	W96
@ 018   ----------------------------------------
	.byte	W96
@ 019   ----------------------------------------
	.byte	W96
@ 020   ----------------------------------------
	.byte	W96
@ 021   ----------------------------------------
	.byte	W96
@ 022   ----------------------------------------
	.byte	W96
@ 023   ----------------------------------------
	.byte	W96
@ 024   ----------------------------------------
	.byte	W96
@ 025   ----------------------------------------
feb20230729212622_6_025:
	.byte	W24
	.byte		N23   , An2 , v072
	.byte	W36
	.byte		N01   , Ds3 , v056
	.byte	W01
	.byte		N04   , En3 , v072
	.byte	W11
	.byte		N01   , Ds3 , v048
	.byte	W01
	.byte		N32   , En3 , v072
	.byte	W23
	.byte	PEND
@ 026   ----------------------------------------
feb20230729212622_6_026:
	.byte	W24
	.byte		N23   , Gn2 , v072
	.byte	W36
	.byte		N01   , Cs3 , v056
	.byte	W01
	.byte		N04   , Dn3 , v072
	.byte	W11
	.byte		N01   , Cs3 , v048
	.byte	W01
	.byte		N32   , Dn3 , v072
	.byte	W23
	.byte	PEND
@ 027   ----------------------------------------
feb20230729212622_6_027:
	.byte	W24
	.byte		N23   , As2 , v072
	.byte	W36
	.byte		N01   , Fs3 , v056
	.byte	W01
	.byte		N04   , Gn3 , v072
	.byte	W11
	.byte		N01   , Fs3 , v056
	.byte	W01
	.byte		N22   , Gn3 , v072
	.byte	W23
	.byte	PEND
@ 028   ----------------------------------------
feb20230729212622_6_028:
	.byte		N23   , Dn3 , v072
	.byte	W24
	.byte		        Fn3 
	.byte	W24
	.byte		        En3 
	.byte	W24
	.byte		        Dn3 
	.byte	W24
	.byte	PEND
@ 029   ----------------------------------------
feb20230729212622_6_029:
	.byte		N23   , En3 , v072
	.byte	W24
	.byte		        Cn3 
	.byte	W36
	.byte		N01   , Gs3 , v056
	.byte	W01
	.byte		N04   , An3 , v072
	.byte	W11
	.byte		N01   , Gs3 , v048
	.byte	W01
	.byte		N32   , An3 , v072
	.byte	W23
	.byte	PEND
@ 030   ----------------------------------------
feb20230729212622_6_030:
	.byte	W24
	.byte		N23   , Cn3 , v072
	.byte	W36
	.byte		N01   , Fs3 , v056
	.byte	W01
	.byte		N04   , Gn3 , v072
	.byte	W11
	.byte		N01   , Fs3 , v048
	.byte	W01
	.byte		N32   , Gn3 , v072
	.byte	W23
	.byte	PEND
@ 031   ----------------------------------------
feb20230729212622_6_031:
	.byte	W24
	.byte		N23   , Dn3 , v072
	.byte	W36
	.byte		N01   , An3 , v056
	.byte	W01
	.byte		N04   , As3 , v072
	.byte	W11
	.byte		N01   , An3 , v048
	.byte	W01
	.byte		N22   , As3 , v072
	.byte	W23
	.byte	PEND
@ 032   ----------------------------------------
	.byte		N23   , Dn3 
	.byte	W24
	.byte		N01   , Gs3 , v056
	.byte	W01
	.byte		N80   , An3 , v072
	.byte	W68
	.byte	W03
@ 033   ----------------------------------------
	.byte	W96
@ 034   ----------------------------------------
	.byte	W96
@ 035   ----------------------------------------
	.byte	W96
@ 036   ----------------------------------------
	.byte	W96
@ 037   ----------------------------------------
	.byte	W96
@ 038   ----------------------------------------
	.byte	W96
@ 039   ----------------------------------------
	.byte	W96
@ 040   ----------------------------------------
	.byte	W96
@ 041   ----------------------------------------
	.byte	W96
@ 042   ----------------------------------------
	.byte	W96
@ 043   ----------------------------------------
	.byte	W96
@ 044   ----------------------------------------
	.byte	W96
@ 045   ----------------------------------------
	.byte	W96
@ 046   ----------------------------------------
	.byte	W96
@ 047   ----------------------------------------
	.byte	W96
@ 048   ----------------------------------------
	.byte	W96
@ 049   ----------------------------------------
	.byte	W96
@ 050   ----------------------------------------
	.byte	W96
@ 051   ----------------------------------------
	.byte	W96
@ 052   ----------------------------------------
	.byte	W96
@ 053   ----------------------------------------
	.byte	W96
@ 054   ----------------------------------------
	.byte	W96
@ 055   ----------------------------------------
	.byte	W96
@ 056   ----------------------------------------
	.byte	W96
@ 057   ----------------------------------------
	.byte	W96
@ 058   ----------------------------------------
	.byte	W96
@ 059   ----------------------------------------
	.byte	W96
@ 060   ----------------------------------------
	.byte	W96
@ 061   ----------------------------------------
	.byte	W96
@ 062   ----------------------------------------
	.byte	W96
@ 063   ----------------------------------------
	.byte	W96
@ 064   ----------------------------------------
	.byte	W96
@ 065   ----------------------------------------
	.byte	PATT
	 .word	feb20230729212622_6_025
@ 066   ----------------------------------------
	.byte	PATT
	 .word	feb20230729212622_6_026
@ 067   ----------------------------------------
	.byte	PATT
	 .word	feb20230729212622_6_027
@ 068   ----------------------------------------
	.byte	PATT
	 .word	feb20230729212622_6_028
@ 069   ----------------------------------------
	.byte	PATT
	 .word	feb20230729212622_6_029
@ 070   ----------------------------------------
	.byte	PATT
	 .word	feb20230729212622_6_030
@ 071   ----------------------------------------
	.byte	PATT
	 .word	feb20230729212622_6_031
@ 072   ----------------------------------------
	.byte		N23   , Dn4 , v072
	.byte	W24
	.byte		N01   , Gs3 , v056
	.byte	W01
	.byte		N80   , An3 , v072
	.byte	W68
	.byte	W03
@ 073   ----------------------------------------
	.byte	W96
@ 074   ----------------------------------------
	.byte	W96
@ 075   ----------------------------------------
	.byte	W96
@ 076   ----------------------------------------
	.byte	W96
@ 077   ----------------------------------------
	.byte	W96
@ 078   ----------------------------------------
	.byte	W96
@ 079   ----------------------------------------
	.byte	W96
@ 080   ----------------------------------------
	.byte	W96
@ 081   ----------------------------------------
	.byte	W96
@ 082   ----------------------------------------
	.byte	W96
@ 083   ----------------------------------------
	.byte	W96
@ 084   ----------------------------------------
	.byte	W96
@ 085   ----------------------------------------
	.byte	W96
@ 086   ----------------------------------------
	.byte	W96
@ 087   ----------------------------------------
	.byte	W96
@ 088   ----------------------------------------
	.byte	W96
	.byte	GOTO
	 .word	feb20230729212622_6_B1
feb20230729212622_6_B2:
@ 089   ----------------------------------------
	.byte	FINE

@**************** Track 7 (Midi-Chn.7) ****************@

feb20230729212622_7:
	.byte	KEYSH , feb20230729212622_key+0
@ 000   ----------------------------------------
	.byte		VOICE , 13
	.byte		VOL   , 127*feb20230729212622_mvl/mxv
	.byte	W96
@ 001   ----------------------------------------
	.byte	W24
feb20230729212622_7_B1:
	.byte	W72
@ 002   ----------------------------------------
	.byte	W96
@ 003   ----------------------------------------
	.byte	W96
@ 004   ----------------------------------------
	.byte	W96
@ 005   ----------------------------------------
	.byte	W96
@ 006   ----------------------------------------
	.byte	W96
@ 007   ----------------------------------------
	.byte	W96
@ 008   ----------------------------------------
	.byte	W96
@ 009   ----------------------------------------
	.byte	W96
@ 010   ----------------------------------------
	.byte	W96
@ 011   ----------------------------------------
	.byte	W96
@ 012   ----------------------------------------
	.byte	W96
@ 013   ----------------------------------------
	.byte	W96
@ 014   ----------------------------------------
	.byte	W96
@ 015   ----------------------------------------
	.byte	W96
@ 016   ----------------------------------------
	.byte	W96
@ 017   ----------------------------------------
	.byte	W96
@ 018   ----------------------------------------
	.byte	W96
@ 019   ----------------------------------------
	.byte	W96
@ 020   ----------------------------------------
	.byte	W96
@ 021   ----------------------------------------
	.byte	W96
@ 022   ----------------------------------------
	.byte	W96
@ 023   ----------------------------------------
	.byte	W96
@ 024   ----------------------------------------
	.byte	W96
@ 025   ----------------------------------------
	.byte	W96
@ 026   ----------------------------------------
	.byte	W96
@ 027   ----------------------------------------
	.byte	W96
@ 028   ----------------------------------------
	.byte	W96
@ 029   ----------------------------------------
	.byte	W96
@ 030   ----------------------------------------
	.byte	W96
@ 031   ----------------------------------------
	.byte	W96
@ 032   ----------------------------------------
	.byte	W96
@ 033   ----------------------------------------
	.byte	W96
@ 034   ----------------------------------------
	.byte	W96
@ 035   ----------------------------------------
	.byte	W96
@ 036   ----------------------------------------
	.byte	W96
@ 037   ----------------------------------------
	.byte	W96
@ 038   ----------------------------------------
	.byte	W96
@ 039   ----------------------------------------
	.byte	W96
@ 040   ----------------------------------------
	.byte	W96
@ 041   ----------------------------------------
	.byte	W96
@ 042   ----------------------------------------
	.byte	W96
@ 043   ----------------------------------------
	.byte	W96
@ 044   ----------------------------------------
	.byte	W96
@ 045   ----------------------------------------
	.byte	W96
@ 046   ----------------------------------------
	.byte	W96
@ 047   ----------------------------------------
	.byte	W96
@ 048   ----------------------------------------
	.byte	W96
@ 049   ----------------------------------------
	.byte	W24
	.byte		N03   , Cn6 , v024
	.byte	W12
	.byte		        En5 
	.byte	W12
	.byte		        Bn5 
	.byte	W12
	.byte		        Dn6 
	.byte	W12
	.byte		        Cn6 
	.byte	W12
	.byte		        An5 
	.byte	W12
@ 050   ----------------------------------------
feb20230729212622_7_050:
	.byte		N03   , Bn5 , v024
	.byte	W12
	.byte		        Gn5 
	.byte	W12
	.byte		        Cn6 
	.byte	W12
	.byte		        En5 
	.byte	W12
	.byte		        Bn5 
	.byte	W12
	.byte		        Dn6 
	.byte	W12
	.byte		        Cn6 
	.byte	W12
	.byte		        An5 
	.byte	W12
	.byte	PEND
@ 051   ----------------------------------------
	.byte	PATT
	 .word	feb20230729212622_7_050
@ 052   ----------------------------------------
	.byte		N03   , Cn6 , v024
	.byte	W12
	.byte		        Gn5 
	.byte	W12
	.byte		        Cn6 
	.byte	W12
	.byte		        En5 
	.byte	W12
	.byte		        Bn5 
	.byte	W12
	.byte		        Dn6 
	.byte	W12
	.byte		        Cn6 
	.byte	W12
	.byte		        An5 
	.byte	W12
@ 053   ----------------------------------------
	.byte	PATT
	 .word	feb20230729212622_7_050
@ 054   ----------------------------------------
	.byte	PATT
	 .word	feb20230729212622_7_050
@ 055   ----------------------------------------
	.byte	PATT
	 .word	feb20230729212622_7_050
@ 056   ----------------------------------------
	.byte		N03   , Bn5 , v024
	.byte	W12
	.byte		        Gn5 
	.byte	W12
	.byte		        Cn6 
	.byte	W12
	.byte		        En5 
	.byte	W12
	.byte		        Bn5 
	.byte	W12
	.byte		        Dn6 
	.byte	W12
	.byte		        Bn5 
	.byte	W12
	.byte		        An5 
	.byte	W12
@ 057   ----------------------------------------
	.byte		        Bn5 
	.byte	W12
	.byte		        Gn5 
	.byte	W84
@ 058   ----------------------------------------
	.byte	W96
@ 059   ----------------------------------------
	.byte	W96
@ 060   ----------------------------------------
	.byte	W96
@ 061   ----------------------------------------
	.byte	W96
@ 062   ----------------------------------------
	.byte	W96
@ 063   ----------------------------------------
	.byte	W96
@ 064   ----------------------------------------
	.byte	W96
@ 065   ----------------------------------------
	.byte	W24
	.byte		        Cn6 
	.byte	W12
	.byte		        Fn5 
	.byte	W12
	.byte		        Cn6 
	.byte	W12
	.byte		        En5 
	.byte	W12
	.byte		        Cn6 
	.byte	W12
	.byte		        Fn5 
	.byte	W12
@ 066   ----------------------------------------
	.byte		        Bn5 
	.byte	W12
	.byte		        Gn5 
	.byte	W12
	.byte		        Bn5 
	.byte	W12
	.byte		        En5 
	.byte	W12
	.byte		        Bn5 
	.byte	W12
	.byte		        Gn5 
	.byte	W12
	.byte		        Bn5 
	.byte	W12
	.byte		        En5 
	.byte	W12
@ 067   ----------------------------------------
	.byte		        An5 
	.byte	W12
	.byte		        Fn5 
	.byte	W12
	.byte		        As5 
	.byte	W06
	.byte		        An5 
	.byte	W06
	.byte		        Gn5 
	.byte	W12
	.byte		        As5 
	.byte	W24
	.byte		        Cn6 
	.byte	W12
	.byte		        As5 
	.byte	W12
@ 068   ----------------------------------------
	.byte		        Cn6 
	.byte	W12
	.byte		        Dn6 
	.byte	W12
	.byte		        An5 
	.byte	W06
	.byte		        Gn5 
	.byte	W06
	.byte		        Fn5 
	.byte	W12
	.byte		        An5 
	.byte	W06
	.byte		        Gn5 
	.byte	W06
	.byte		        Fn5 
	.byte	W12
	.byte		        Gn5 
	.byte	W06
	.byte		        Fn5 
	.byte	W06
	.byte		        En5 
	.byte	W12
@ 069   ----------------------------------------
	.byte		        An5 
	.byte	W06
	.byte		        Gn5 
	.byte	W06
	.byte		        Fn5 
	.byte	W12
	.byte		        An5 
	.byte	W06
	.byte		        Gn5 
	.byte	W06
	.byte		        Fn5 
	.byte	W12
	.byte		        An5 
	.byte	W24
	.byte		N03   
	.byte	W12
	.byte		        Fn5 
	.byte	W12
@ 070   ----------------------------------------
	.byte		        Gn5 
	.byte	W12
	.byte		        En5 
	.byte	W12
	.byte		        Gn5 
	.byte	W06
	.byte		        Fn5 
	.byte	W06
	.byte		        En5 
	.byte	W12
	.byte		        Gn5 
	.byte	W24
	.byte		N03   
	.byte	W12
	.byte		        Dn5 
	.byte	W12
@ 071   ----------------------------------------
	.byte		        En5 
	.byte	W12
	.byte		        Cn5 
	.byte	W84
@ 072   ----------------------------------------
	.byte	W96
@ 073   ----------------------------------------
	.byte	W24
	.byte		        An4 
	.byte	W12
	.byte		        En4 
	.byte	W12
	.byte		        Bn4 
	.byte	W12
	.byte		        Gn4 
	.byte	W12
	.byte		        En5 
	.byte	W06
	.byte		        Dn5 
	.byte	W06
	.byte		        Cn5 
	.byte	W12
@ 074   ----------------------------------------
feb20230729212622_7_074:
	.byte		N03   , Dn5 , v024
	.byte	W12
	.byte		        An4 
	.byte	W12
	.byte		        Bn4 
	.byte	W12
	.byte		        Dn5 
	.byte	W12
	.byte		        Cn5 
	.byte	W12
	.byte		        Bn4 
	.byte	W12
	.byte		        Dn4 
	.byte	W12
	.byte		        An4 
	.byte	W12
	.byte	PEND
@ 075   ----------------------------------------
	.byte		        Bn4 
	.byte	W12
	.byte		        Dn5 
	.byte	W12
	.byte		        An4 
	.byte	W12
	.byte		        En4 
	.byte	W12
	.byte		        Bn4 
	.byte	W12
	.byte		        Gn4 
	.byte	W12
	.byte		        En5 
	.byte	W06
	.byte		        Dn5 
	.byte	W06
	.byte		        Cn5 
	.byte	W12
@ 076   ----------------------------------------
	.byte		        Dn5 
	.byte	W12
	.byte		        An4 
	.byte	W12
	.byte		        Bn4 
	.byte	W24
	.byte		        An4 
	.byte	W12
	.byte		        Gs4 
	.byte	W24
	.byte		        An4 
	.byte	W12
@ 077   ----------------------------------------
	.byte		        Bn4 
	.byte	W12
	.byte		        En5 
	.byte	W12
	.byte		        An4 
	.byte	W12
	.byte		        En4 
	.byte	W12
	.byte		        Bn4 
	.byte	W12
	.byte		        Gn4 
	.byte	W12
	.byte		        En5 
	.byte	W06
	.byte		        Dn5 
	.byte	W06
	.byte		        Cn5 
	.byte	W12
@ 078   ----------------------------------------
	.byte	PATT
	 .word	feb20230729212622_7_074
@ 079   ----------------------------------------
	.byte		N03   , Bn4 , v024
	.byte	W12
	.byte		        Dn5 
	.byte	W84
@ 080   ----------------------------------------
	.byte	W96
@ 081   ----------------------------------------
	.byte	W96
@ 082   ----------------------------------------
	.byte	W96
@ 083   ----------------------------------------
	.byte	W96
@ 084   ----------------------------------------
	.byte	W96
@ 085   ----------------------------------------
	.byte	W96
@ 086   ----------------------------------------
	.byte	W96
@ 087   ----------------------------------------
	.byte	W96
@ 088   ----------------------------------------
	.byte	W96
	.byte	GOTO
	 .word	feb20230729212622_7_B1
feb20230729212622_7_B2:
@ 089   ----------------------------------------
	.byte	FINE

@**************** Track 8 (Midi-Chn.8) ****************@

feb20230729212622_8:
	.byte	KEYSH , feb20230729212622_key+0
@ 000   ----------------------------------------
	.byte		VOICE , 14
	.byte		VOL   , 88*feb20230729212622_mvl/mxv
	.byte	W96
@ 001   ----------------------------------------
	.byte	W24
feb20230729212622_8_B1:
	.byte	W72
@ 002   ----------------------------------------
	.byte	W96
@ 003   ----------------------------------------
	.byte	W96
@ 004   ----------------------------------------
	.byte	W96
@ 005   ----------------------------------------
	.byte	W96
@ 006   ----------------------------------------
	.byte	W96
@ 007   ----------------------------------------
	.byte	W96
@ 008   ----------------------------------------
	.byte	W96
@ 009   ----------------------------------------
	.byte	W96
@ 010   ----------------------------------------
	.byte	W96
@ 011   ----------------------------------------
	.byte	W96
@ 012   ----------------------------------------
	.byte	W96
@ 013   ----------------------------------------
	.byte	W96
@ 014   ----------------------------------------
	.byte	W96
@ 015   ----------------------------------------
	.byte	W96
@ 016   ----------------------------------------
	.byte	W96
@ 017   ----------------------------------------
	.byte	W96
@ 018   ----------------------------------------
	.byte	W96
@ 019   ----------------------------------------
	.byte	W96
@ 020   ----------------------------------------
	.byte	W96
@ 021   ----------------------------------------
	.byte	W96
@ 022   ----------------------------------------
	.byte	W96
@ 023   ----------------------------------------
	.byte	W96
@ 024   ----------------------------------------
	.byte	W96
@ 025   ----------------------------------------
	.byte	W96
@ 026   ----------------------------------------
	.byte	W96
@ 027   ----------------------------------------
	.byte	W96
@ 028   ----------------------------------------
	.byte	W96
@ 029   ----------------------------------------
	.byte	W96
@ 030   ----------------------------------------
	.byte	W96
@ 031   ----------------------------------------
	.byte	W96
@ 032   ----------------------------------------
	.byte	W96
@ 033   ----------------------------------------
	.byte	W24
	.byte		N92   , An3 , v088
	.byte	W72
@ 034   ----------------------------------------
	.byte	W96
@ 035   ----------------------------------------
	.byte	W96
@ 036   ----------------------------------------
	.byte	W96
@ 037   ----------------------------------------
	.byte	W24
	.byte		N92   
	.byte	W72
@ 038   ----------------------------------------
	.byte	W96
@ 039   ----------------------------------------
	.byte	W96
@ 040   ----------------------------------------
	.byte	W96
@ 041   ----------------------------------------
	.byte	W24
	.byte		N23   
	.byte	W72
@ 042   ----------------------------------------
	.byte	W96
@ 043   ----------------------------------------
	.byte	W96
@ 044   ----------------------------------------
	.byte	W96
@ 045   ----------------------------------------
	.byte	W24
	.byte		N23   
	.byte	W72
@ 046   ----------------------------------------
	.byte	W96
@ 047   ----------------------------------------
	.byte	W96
@ 048   ----------------------------------------
	.byte	W96
@ 049   ----------------------------------------
	.byte	W24
	.byte		N23   
	.byte	W72
@ 050   ----------------------------------------
	.byte	W96
@ 051   ----------------------------------------
	.byte	W96
@ 052   ----------------------------------------
	.byte	W96
@ 053   ----------------------------------------
	.byte	W24
	.byte		N23   
	.byte	W72
@ 054   ----------------------------------------
	.byte	W96
@ 055   ----------------------------------------
	.byte	W96
@ 056   ----------------------------------------
	.byte	W96
@ 057   ----------------------------------------
	.byte	W96
@ 058   ----------------------------------------
	.byte	W96
@ 059   ----------------------------------------
	.byte	W96
@ 060   ----------------------------------------
	.byte	W96
@ 061   ----------------------------------------
	.byte	W96
@ 062   ----------------------------------------
	.byte	W96
@ 063   ----------------------------------------
	.byte	W96
@ 064   ----------------------------------------
	.byte	W96
@ 065   ----------------------------------------
	.byte	W96
@ 066   ----------------------------------------
	.byte	W96
@ 067   ----------------------------------------
	.byte	W96
@ 068   ----------------------------------------
	.byte	W96
@ 069   ----------------------------------------
	.byte	W96
@ 070   ----------------------------------------
	.byte	W96
@ 071   ----------------------------------------
	.byte	W96
@ 072   ----------------------------------------
	.byte	W96
@ 073   ----------------------------------------
	.byte	W72
	.byte		N92   , An3 , v092
	.byte	W24
@ 074   ----------------------------------------
	.byte	W84
	.byte		N80   , An2 , v072
	.byte	W12
@ 075   ----------------------------------------
	.byte	W72
	.byte		N92   , An3 , v088
	.byte	W24
@ 076   ----------------------------------------
	.byte	W96
@ 077   ----------------------------------------
	.byte	W72
	.byte		N92   
	.byte	W24
@ 078   ----------------------------------------
	.byte	W96
@ 079   ----------------------------------------
	.byte	W96
@ 080   ----------------------------------------
	.byte	W96
@ 081   ----------------------------------------
	.byte	W24
	.byte		N92   
	.byte	W72
@ 082   ----------------------------------------
	.byte	W96
@ 083   ----------------------------------------
	.byte	W96
@ 084   ----------------------------------------
	.byte	W96
@ 085   ----------------------------------------
	.byte	W96
@ 086   ----------------------------------------
	.byte	W96
@ 087   ----------------------------------------
	.byte	W96
@ 088   ----------------------------------------
	.byte	W96
	.byte	GOTO
	 .word	feb20230729212622_8_B1
feb20230729212622_8_B2:
@ 089   ----------------------------------------
	.byte	FINE

@**************** Track 9 (Midi-Chn.9) ****************@

feb20230729212622_9:
	.byte	KEYSH , feb20230729212622_key+0
@ 000   ----------------------------------------
	.byte		VOICE , 105
	.byte		VOL   , 127*feb20230729212622_mvl/mxv
	.byte	W72
	.byte		BEND  , c_v+63
	.byte		N48   , Dn1 , v064
	.byte	W01
	.byte		BEND  , c_v+62
	.byte	W01
	.byte		        c_v+61
	.byte	W01
	.byte		        c_v+59
	.byte	W01
	.byte		        c_v+58
	.byte	W01
	.byte		        c_v+57
	.byte	W01
	.byte		        c_v+55
	.byte	W01
	.byte		        c_v+53
	.byte	W01
	.byte		        c_v+52
	.byte	W01
	.byte		        c_v+51
	.byte	W01
	.byte		        c_v+50
	.byte	W01
	.byte		        c_v+48
	.byte	W01
	.byte		        c_v+47
	.byte	W01
	.byte		        c_v+46
	.byte	W01
	.byte		        c_v+45
	.byte	W01
	.byte		        c_v+43
	.byte	W01
	.byte		        c_v+42
	.byte	W01
	.byte		        c_v+40
	.byte	W01
	.byte		        c_v+39
	.byte	W01
	.byte		        c_v+38
	.byte	W01
	.byte		        c_v+37
	.byte	W01
	.byte		        c_v+35
	.byte	W01
	.byte		        c_v+34
	.byte	W01
	.byte		        c_v+33
	.byte	W01
@ 001   ----------------------------------------
	.byte		        c_v+31
	.byte	W01
	.byte		        c_v+30
	.byte	W01
	.byte		        c_v+28
	.byte	W01
	.byte		        c_v+27
	.byte	W01
	.byte		        c_v+25
	.byte	W01
	.byte		        c_v+24
	.byte	W01
	.byte		        c_v+23
	.byte	W01
	.byte		        c_v+21
	.byte	W01
	.byte		        c_v+20
	.byte	W01
	.byte		        c_v+19
	.byte	W01
	.byte		        c_v+18
	.byte	W01
	.byte		        c_v+16
	.byte	W01
	.byte		        c_v+15
	.byte	W01
	.byte		        c_v+13
	.byte	W01
	.byte		        c_v+12
	.byte	W01
	.byte		        c_v+11
	.byte	W01
	.byte		        c_v+10
	.byte	W01
	.byte		        c_v+8
	.byte	W01
	.byte		        c_v+7
	.byte	W01
	.byte		        c_v+6
	.byte	W01
	.byte		        c_v+5
	.byte	W01
	.byte		        c_v+3
	.byte	W01
	.byte		        c_v+1
	.byte	W01
	.byte		        c_v+0
	.byte	W01
feb20230729212622_9_B1:
	.byte	W72
@ 002   ----------------------------------------
	.byte	W96
@ 003   ----------------------------------------
	.byte	W96
@ 004   ----------------------------------------
	.byte	W96
@ 005   ----------------------------------------
	.byte	W96
@ 006   ----------------------------------------
	.byte	W96
@ 007   ----------------------------------------
	.byte	W96
@ 008   ----------------------------------------
	.byte	W96
@ 009   ----------------------------------------
	.byte	W96
@ 010   ----------------------------------------
	.byte	W96
@ 011   ----------------------------------------
	.byte	W96
@ 012   ----------------------------------------
	.byte	W96
@ 013   ----------------------------------------
	.byte	W96
@ 014   ----------------------------------------
	.byte	W96
@ 015   ----------------------------------------
	.byte	W96
@ 016   ----------------------------------------
	.byte	W96
@ 017   ----------------------------------------
	.byte	W96
@ 018   ----------------------------------------
	.byte	W96
@ 019   ----------------------------------------
	.byte	W96
@ 020   ----------------------------------------
	.byte	W96
@ 021   ----------------------------------------
	.byte	W96
@ 022   ----------------------------------------
	.byte	W96
@ 023   ----------------------------------------
	.byte	W96
@ 024   ----------------------------------------
	.byte	W96
@ 025   ----------------------------------------
	.byte	W96
@ 026   ----------------------------------------
	.byte	W96
@ 027   ----------------------------------------
	.byte	W96
@ 028   ----------------------------------------
	.byte	W96
@ 029   ----------------------------------------
	.byte	W96
@ 030   ----------------------------------------
	.byte	W96
@ 031   ----------------------------------------
	.byte	W96
@ 032   ----------------------------------------
	.byte	W96
@ 033   ----------------------------------------
	.byte	W96
@ 034   ----------------------------------------
	.byte	W96
@ 035   ----------------------------------------
	.byte	W96
@ 036   ----------------------------------------
	.byte	W96
@ 037   ----------------------------------------
	.byte	W96
@ 038   ----------------------------------------
	.byte	W96
@ 039   ----------------------------------------
	.byte	W96
@ 040   ----------------------------------------
	.byte	W96
@ 041   ----------------------------------------
	.byte	W96
@ 042   ----------------------------------------
	.byte	W96
@ 043   ----------------------------------------
	.byte	W96
@ 044   ----------------------------------------
	.byte	W96
@ 045   ----------------------------------------
	.byte	W96
@ 046   ----------------------------------------
	.byte	W96
@ 047   ----------------------------------------
	.byte	W96
@ 048   ----------------------------------------
	.byte	W96
@ 049   ----------------------------------------
	.byte	W96
@ 050   ----------------------------------------
	.byte	W96
@ 051   ----------------------------------------
	.byte	W96
@ 052   ----------------------------------------
	.byte	W96
@ 053   ----------------------------------------
	.byte	W96
@ 054   ----------------------------------------
	.byte	W96
@ 055   ----------------------------------------
	.byte	W96
@ 056   ----------------------------------------
	.byte	W96
@ 057   ----------------------------------------
	.byte	W96
@ 058   ----------------------------------------
	.byte	W96
@ 059   ----------------------------------------
	.byte	W96
@ 060   ----------------------------------------
	.byte	W96
@ 061   ----------------------------------------
	.byte	W96
@ 062   ----------------------------------------
	.byte	W96
@ 063   ----------------------------------------
	.byte	W96
@ 064   ----------------------------------------
	.byte	W96
@ 065   ----------------------------------------
	.byte	W96
@ 066   ----------------------------------------
	.byte	W96
@ 067   ----------------------------------------
	.byte	W96
@ 068   ----------------------------------------
	.byte	W96
@ 069   ----------------------------------------
	.byte	W96
@ 070   ----------------------------------------
	.byte	W96
@ 071   ----------------------------------------
	.byte	W96
@ 072   ----------------------------------------
	.byte	W96
@ 073   ----------------------------------------
	.byte	W96
@ 074   ----------------------------------------
	.byte	W96
@ 075   ----------------------------------------
	.byte	W96
@ 076   ----------------------------------------
	.byte	W96
@ 077   ----------------------------------------
	.byte	W96
@ 078   ----------------------------------------
	.byte	W96
@ 079   ----------------------------------------
	.byte	W96
@ 080   ----------------------------------------
	.byte	W96
@ 081   ----------------------------------------
	.byte	W96
@ 082   ----------------------------------------
	.byte	W96
@ 083   ----------------------------------------
	.byte	W96
@ 084   ----------------------------------------
	.byte	W96
@ 085   ----------------------------------------
	.byte	W96
@ 086   ----------------------------------------
	.byte	W96
@ 087   ----------------------------------------
	.byte	W96
@ 088   ----------------------------------------
	.byte	W96
	.byte	GOTO
	 .word	feb20230729212622_9_B1
feb20230729212622_9_B2:
@ 089   ----------------------------------------
	.byte	FINE

@**************** Track 10 (Midi-Chn.11) ****************@

feb20230729212622_10:
	.byte	KEYSH , feb20230729212622_key+0
@ 000   ----------------------------------------
	.byte		VOICE , 30
	.byte		VOL   , 76*feb20230729212622_mvl/mxv
	.byte	W96
@ 001   ----------------------------------------
	.byte	W24
feb20230729212622_10_B1:
	.byte		N05   , An1 , v032
	.byte	W12
	.byte		        An1 , v024
	.byte	W12
	.byte		N05   
	.byte	W12
	.byte		N05   
	.byte	W12
	.byte		        An1 , v032
	.byte	W12
	.byte		        An1 , v024
	.byte	W12
@ 002   ----------------------------------------
feb20230729212622_10_002:
	.byte		N05   , An1 , v024
	.byte	W12
	.byte		N05   
	.byte	W12
	.byte		        An1 , v032
	.byte	W12
	.byte		        An1 , v024
	.byte	W12
	.byte		N05   
	.byte	W12
	.byte		N05   
	.byte	W12
	.byte		        An1 , v032
	.byte	W12
	.byte		        An1 , v024
	.byte	W12
	.byte	PEND
@ 003   ----------------------------------------
feb20230729212622_10_003:
	.byte		N05   , An1 , v024
	.byte	W12
	.byte		N05   
	.byte	W12
	.byte		        Fn1 , v032
	.byte	W12
	.byte		        Fn1 , v024
	.byte	W12
	.byte		N05   
	.byte	W12
	.byte		N05   
	.byte	W12
	.byte		        Fn1 , v032
	.byte	W12
	.byte		        Fn1 , v024
	.byte	W12
	.byte	PEND
@ 004   ----------------------------------------
feb20230729212622_10_004:
	.byte		N05   , Fn1 , v024
	.byte	W12
	.byte		N05   
	.byte	W12
	.byte		        Gn1 , v032
	.byte	W12
	.byte		        Gn1 , v024
	.byte	W12
	.byte		N05   
	.byte	W12
	.byte		N05   
	.byte	W12
	.byte		        Gn1 , v032
	.byte	W12
	.byte		        Gn1 , v024
	.byte	W12
	.byte	PEND
@ 005   ----------------------------------------
feb20230729212622_10_005:
	.byte		N05   , Gn1 , v024
	.byte	W12
	.byte		N05   
	.byte	W12
	.byte		        An1 , v032
	.byte	W12
	.byte		        An1 , v024
	.byte	W12
	.byte		N05   
	.byte	W12
	.byte		N05   
	.byte	W12
	.byte		        An1 , v032
	.byte	W12
	.byte		        An1 , v024
	.byte	W12
	.byte	PEND
@ 006   ----------------------------------------
	.byte	PATT
	 .word	feb20230729212622_10_002
@ 007   ----------------------------------------
feb20230729212622_10_007:
	.byte		N05   , An1 , v024
	.byte	W12
	.byte		N05   
	.byte	W12
	.byte		        Cn2 , v032
	.byte	W12
	.byte		        Cn2 , v024
	.byte	W12
	.byte		N05   
	.byte	W12
	.byte		N05   
	.byte	W12
	.byte		        Cn2 , v032
	.byte	W12
	.byte		        Cn2 , v024
	.byte	W12
	.byte	PEND
@ 008   ----------------------------------------
feb20230729212622_10_008:
	.byte		N05   , Cn2 , v024
	.byte	W12
	.byte		N05   
	.byte	W12
	.byte		        Dn2 , v032
	.byte	W12
	.byte		        Dn2 , v024
	.byte	W12
	.byte		N05   
	.byte	W12
	.byte		N05   
	.byte	W12
	.byte		        En2 , v032
	.byte	W12
	.byte		        En2 , v024
	.byte	W12
	.byte	PEND
@ 009   ----------------------------------------
feb20230729212622_10_009:
	.byte		N05   , En2 , v024
	.byte	W12
	.byte		N05   
	.byte	W12
	.byte		        An1 , v032
	.byte	W12
	.byte		        An1 , v024
	.byte	W12
	.byte		N10   , An1 , v032
	.byte	W12
	.byte		N05   , An1 , v024
	.byte	W12
	.byte		N05   
	.byte	W12
	.byte		N10   , An1 , v032
	.byte	W12
	.byte	PEND
@ 010   ----------------------------------------
feb20230729212622_10_010:
	.byte		N05   , An1 , v024
	.byte	W12
	.byte		N05   
	.byte	W12
	.byte		        An1 , v032
	.byte	W12
	.byte		        An1 , v024
	.byte	W12
	.byte		N10   , An1 , v032
	.byte	W12
	.byte		N05   , An1 , v024
	.byte	W12
	.byte		N05   
	.byte	W12
	.byte		N10   , An1 , v032
	.byte	W12
	.byte	PEND
@ 011   ----------------------------------------
feb20230729212622_10_011:
	.byte		N05   , An1 , v024
	.byte	W12
	.byte		N05   
	.byte	W12
	.byte		        Fn1 , v032
	.byte	W12
	.byte		        Fn1 , v024
	.byte	W12
	.byte		N10   , Fn1 , v032
	.byte	W12
	.byte		N05   , Fn1 , v024
	.byte	W12
	.byte		N05   
	.byte	W12
	.byte		N10   , Fn1 , v032
	.byte	W12
	.byte	PEND
@ 012   ----------------------------------------
feb20230729212622_10_012:
	.byte		N05   , Fn1 , v024
	.byte	W12
	.byte		N05   
	.byte	W12
	.byte		        Gn1 , v032
	.byte	W12
	.byte		        Gn1 , v024
	.byte	W12
	.byte		N10   , Gn1 , v032
	.byte	W12
	.byte		N05   , Gn1 , v024
	.byte	W12
	.byte		N05   
	.byte	W12
	.byte		N10   , Gn1 , v032
	.byte	W12
	.byte	PEND
@ 013   ----------------------------------------
feb20230729212622_10_013:
	.byte		N05   , Gn1 , v024
	.byte	W12
	.byte		N05   
	.byte	W12
	.byte		        An1 , v032
	.byte	W12
	.byte		        An1 , v024
	.byte	W12
	.byte		N10   , An1 , v032
	.byte	W12
	.byte		N05   , An1 , v024
	.byte	W12
	.byte		N05   
	.byte	W12
	.byte		N10   , An1 , v032
	.byte	W12
	.byte	PEND
@ 014   ----------------------------------------
	.byte	PATT
	 .word	feb20230729212622_10_010
@ 015   ----------------------------------------
feb20230729212622_10_015:
	.byte		N05   , An1 , v024
	.byte	W12
	.byte		N05   
	.byte	W12
	.byte		        Cn2 , v032
	.byte	W12
	.byte		        Cn2 , v024
	.byte	W12
	.byte		N10   , Cn2 , v032
	.byte	W12
	.byte		N05   , Cn2 , v024
	.byte	W12
	.byte		N05   
	.byte	W12
	.byte		N10   , Cn2 , v032
	.byte	W12
	.byte	PEND
@ 016   ----------------------------------------
feb20230729212622_10_016:
	.byte		N05   , Cn2 , v024
	.byte	W12
	.byte		N05   
	.byte	W12
	.byte		        Dn2 , v032
	.byte	W12
	.byte		        Dn2 , v024
	.byte	W12
	.byte		N10   , Dn2 , v032
	.byte	W12
	.byte		N05   , Dn2 , v024
	.byte	W12
	.byte		        En2 
	.byte	W12
	.byte		N10   , En2 , v032
	.byte	W12
	.byte	PEND
@ 017   ----------------------------------------
feb20230729212622_10_017:
	.byte		N05   , En2 , v024
	.byte	W12
	.byte		N05   
	.byte	W12
	.byte		N92   , Fn1 , v032
	.byte	W72
	.byte	PEND
@ 018   ----------------------------------------
	.byte	W24
	.byte		        En1 
	.byte	W72
@ 019   ----------------------------------------
	.byte	W24
	.byte		        Gn1 
	.byte	W72
@ 020   ----------------------------------------
	.byte	W24
	.byte		        Dn2 
	.byte	W72
@ 021   ----------------------------------------
	.byte	W24
	.byte		        Fn1 
	.byte	W72
@ 022   ----------------------------------------
	.byte	W24
	.byte		        Cn2 
	.byte	W72
@ 023   ----------------------------------------
	.byte	W24
	.byte		        Gn1 
	.byte	W72
@ 024   ----------------------------------------
	.byte	W24
	.byte		        An1 
	.byte	W72
@ 025   ----------------------------------------
	.byte	W24
	.byte		N05   , Fn1 
	.byte	W12
	.byte		        Fn1 , v024
	.byte	W12
	.byte		N05   
	.byte	W12
	.byte		N05   
	.byte	W12
	.byte		        Fn1 , v032
	.byte	W12
	.byte		        Fn1 , v024
	.byte	W12
@ 026   ----------------------------------------
feb20230729212622_10_026:
	.byte		N05   , Fn1 , v024
	.byte	W12
	.byte		N05   
	.byte	W12
	.byte		        En1 , v032
	.byte	W12
	.byte		        En1 , v024
	.byte	W12
	.byte		N05   
	.byte	W12
	.byte		N05   
	.byte	W12
	.byte		        En1 , v032
	.byte	W12
	.byte		        En1 , v024
	.byte	W12
	.byte	PEND
@ 027   ----------------------------------------
	.byte		N05   
	.byte	W12
	.byte		N05   
	.byte	W12
	.byte		        Gn1 , v032
	.byte	W12
	.byte		        Gn1 , v024
	.byte	W12
	.byte		N05   
	.byte	W12
	.byte		N05   
	.byte	W12
	.byte		        Gn1 , v032
	.byte	W12
	.byte		        Gn1 , v024
	.byte	W12
@ 028   ----------------------------------------
	.byte		N05   
	.byte	W12
	.byte		N05   
	.byte	W12
	.byte		        Dn2 , v032
	.byte	W12
	.byte		        Dn2 , v024
	.byte	W12
	.byte		N05   
	.byte	W12
	.byte		N05   
	.byte	W12
	.byte		        Dn2 , v032
	.byte	W12
	.byte		        Dn2 , v024
	.byte	W12
@ 029   ----------------------------------------
	.byte		N05   
	.byte	W12
	.byte		N05   
	.byte	W12
	.byte		        Fn1 , v032
	.byte	W12
	.byte		        Fn1 , v024
	.byte	W12
	.byte		N05   
	.byte	W12
	.byte		N05   
	.byte	W12
	.byte		        Fn1 , v032
	.byte	W12
	.byte		        Fn1 , v024
	.byte	W12
@ 030   ----------------------------------------
	.byte		N05   
	.byte	W12
	.byte		N05   
	.byte	W12
	.byte		        Cn2 , v032
	.byte	W12
	.byte		        Cn2 , v024
	.byte	W12
	.byte		N05   
	.byte	W12
	.byte		N05   
	.byte	W12
	.byte		        Cn2 , v032
	.byte	W12
	.byte		        Cn2 , v024
	.byte	W12
@ 031   ----------------------------------------
	.byte		N05   
	.byte	W12
	.byte		N05   
	.byte	W12
	.byte		        Gn1 , v032
	.byte	W12
	.byte		        Gn1 , v024
	.byte	W12
	.byte		N05   
	.byte	W12
	.byte		N05   
	.byte	W12
	.byte		        Gn1 , v032
	.byte	W12
	.byte		        Gn1 , v024
	.byte	W12
@ 032   ----------------------------------------
	.byte	PATT
	 .word	feb20230729212622_10_005
@ 033   ----------------------------------------
	.byte	PATT
	 .word	feb20230729212622_10_002
@ 034   ----------------------------------------
	.byte	PATT
	 .word	feb20230729212622_10_002
@ 035   ----------------------------------------
	.byte	PATT
	 .word	feb20230729212622_10_003
@ 036   ----------------------------------------
	.byte	PATT
	 .word	feb20230729212622_10_004
@ 037   ----------------------------------------
	.byte	PATT
	 .word	feb20230729212622_10_005
@ 038   ----------------------------------------
	.byte	PATT
	 .word	feb20230729212622_10_002
@ 039   ----------------------------------------
	.byte	PATT
	 .word	feb20230729212622_10_003
@ 040   ----------------------------------------
	.byte	PATT
	 .word	feb20230729212622_10_004
@ 041   ----------------------------------------
	.byte	PATT
	 .word	feb20230729212622_10_005
@ 042   ----------------------------------------
	.byte	PATT
	 .word	feb20230729212622_10_002
@ 043   ----------------------------------------
	.byte	PATT
	 .word	feb20230729212622_10_003
@ 044   ----------------------------------------
	.byte	PATT
	 .word	feb20230729212622_10_004
@ 045   ----------------------------------------
	.byte	PATT
	 .word	feb20230729212622_10_005
@ 046   ----------------------------------------
	.byte	PATT
	 .word	feb20230729212622_10_002
@ 047   ----------------------------------------
	.byte	PATT
	 .word	feb20230729212622_10_007
@ 048   ----------------------------------------
	.byte	PATT
	 .word	feb20230729212622_10_008
@ 049   ----------------------------------------
	.byte	PATT
	 .word	feb20230729212622_10_009
@ 050   ----------------------------------------
	.byte	PATT
	 .word	feb20230729212622_10_010
@ 051   ----------------------------------------
	.byte	PATT
	 .word	feb20230729212622_10_011
@ 052   ----------------------------------------
	.byte	PATT
	 .word	feb20230729212622_10_012
@ 053   ----------------------------------------
	.byte	PATT
	 .word	feb20230729212622_10_013
@ 054   ----------------------------------------
	.byte	PATT
	 .word	feb20230729212622_10_010
@ 055   ----------------------------------------
	.byte	PATT
	 .word	feb20230729212622_10_015
@ 056   ----------------------------------------
	.byte	PATT
	 .word	feb20230729212622_10_016
@ 057   ----------------------------------------
	.byte	PATT
	 .word	feb20230729212622_10_017
@ 058   ----------------------------------------
	.byte	W24
	.byte		N92   , En1 , v032
	.byte	W72
@ 059   ----------------------------------------
	.byte	W24
	.byte		        Gn1 
	.byte	W72
@ 060   ----------------------------------------
	.byte	W24
	.byte		        Dn2 
	.byte	W72
@ 061   ----------------------------------------
	.byte	W24
	.byte		        Fn1 
	.byte	W72
@ 062   ----------------------------------------
	.byte	W24
	.byte		        Cn2 
	.byte	W72
@ 063   ----------------------------------------
	.byte	W24
	.byte		        Gn1 
	.byte	W72
@ 064   ----------------------------------------
	.byte	W24
	.byte		        An1 
	.byte	W72
@ 065   ----------------------------------------
	.byte	W96
@ 066   ----------------------------------------
	.byte	PATT
	 .word	feb20230729212622_10_026
@ 067   ----------------------------------------
	.byte		N05   , En1 , v024
	.byte	W12
	.byte		N05   
	.byte	W84
@ 068   ----------------------------------------
	.byte		        Gn1 
	.byte	W12
	.byte		N05   
	.byte	W12
	.byte		        Dn2 , v032
	.byte	W12
	.byte		        Dn2 , v024
	.byte	W60
@ 069   ----------------------------------------
	.byte	W96
@ 070   ----------------------------------------
	.byte		        Fn1 
	.byte	W12
	.byte		N05   
	.byte	W12
	.byte		        Cn2 , v032
	.byte	W12
	.byte		        Cn2 , v024
	.byte	W60
@ 071   ----------------------------------------
	.byte	W24
	.byte		        Gn1 , v032
	.byte	W12
	.byte		        Gn1 , v024
	.byte	W12
	.byte		N05   
	.byte	W12
	.byte		N05   
	.byte	W12
	.byte		        Gn1 , v032
	.byte	W12
	.byte		        Gn1 , v024
	.byte	W12
@ 072   ----------------------------------------
	.byte	PATT
	 .word	feb20230729212622_10_005
@ 073   ----------------------------------------
	.byte		N05   , An1 , v024
	.byte	W12
	.byte		N05   
	.byte	W84
@ 074   ----------------------------------------
	.byte	W96
@ 075   ----------------------------------------
	.byte	W96
@ 076   ----------------------------------------
	.byte	W96
@ 077   ----------------------------------------
	.byte	W96
@ 078   ----------------------------------------
	.byte	W96
@ 079   ----------------------------------------
	.byte	W24
	.byte		N23   
	.byte	W24
	.byte		        Bn1 
	.byte	W24
	.byte		N23   
	.byte	W24
@ 080   ----------------------------------------
	.byte		        Cn2 
	.byte	W24
	.byte		N23   
	.byte	W24
	.byte		        Dn2 
	.byte	W24
	.byte		        En2 
	.byte	W24
@ 081   ----------------------------------------
	.byte		        Gs1 
	.byte	W24
	.byte		N05   , An1 , v032
	.byte	W12
	.byte		        An1 , v024
	.byte	W12
	.byte		N05   
	.byte	W12
	.byte		N05   
	.byte	W12
	.byte		        An1 , v032
	.byte	W12
	.byte		        An1 , v024
	.byte	W12
@ 082   ----------------------------------------
	.byte	PATT
	 .word	feb20230729212622_10_002
@ 083   ----------------------------------------
	.byte	PATT
	 .word	feb20230729212622_10_003
@ 084   ----------------------------------------
	.byte	PATT
	 .word	feb20230729212622_10_004
@ 085   ----------------------------------------
	.byte	PATT
	 .word	feb20230729212622_10_005
@ 086   ----------------------------------------
	.byte	PATT
	 .word	feb20230729212622_10_002
@ 087   ----------------------------------------
	.byte	PATT
	 .word	feb20230729212622_10_003
@ 088   ----------------------------------------
	.byte	PATT
	 .word	feb20230729212622_10_004
	.byte	GOTO
	 .word	feb20230729212622_10_B1
feb20230729212622_10_B2:
@ 089   ----------------------------------------
	.byte	FINE

@**************** Track 11 (Midi-Chn.12) ****************@

feb20230729212622_11:
	.byte	KEYSH , feb20230729212622_key+0
@ 000   ----------------------------------------
	.byte		VOICE , 33
	.byte		VOL   , 76*feb20230729212622_mvl/mxv
	.byte	W24
	.byte		N05   , An1 , v096
	.byte	W18
	.byte		        Dn2 
	.byte	W18
	.byte		        Cn2 
	.byte	W18
	.byte		        Fn2 
	.byte	W18
@ 001   ----------------------------------------
	.byte		        Ds2 
	.byte	W12
	.byte		        As1 
	.byte	W12
feb20230729212622_11_B1:
	.byte		N11   , An1 , v096
	.byte	W12
	.byte		N11   
	.byte	W12
	.byte		N11   
	.byte	W12
	.byte		N11   
	.byte	W12
	.byte		N11   
	.byte	W12
	.byte		N11   
	.byte	W12
@ 002   ----------------------------------------
feb20230729212622_11_002:
	.byte		N11   , An1 , v096
	.byte	W12
	.byte		N11   
	.byte	W12
	.byte		N11   
	.byte	W12
	.byte		N11   
	.byte	W12
	.byte		N11   
	.byte	W12
	.byte		N11   
	.byte	W12
	.byte		N11   
	.byte	W12
	.byte		N11   
	.byte	W12
	.byte	PEND
@ 003   ----------------------------------------
feb20230729212622_11_003:
	.byte		N11   , An1 , v096
	.byte	W12
	.byte		N11   
	.byte	W12
	.byte		        Fn1 
	.byte	W12
	.byte		N11   
	.byte	W12
	.byte		N11   
	.byte	W12
	.byte		N11   
	.byte	W12
	.byte		N11   
	.byte	W12
	.byte		N11   
	.byte	W12
	.byte	PEND
@ 004   ----------------------------------------
feb20230729212622_11_004:
	.byte		N11   , Fn1 , v096
	.byte	W12
	.byte		N11   
	.byte	W12
	.byte		        Gn1 
	.byte	W12
	.byte		N11   
	.byte	W12
	.byte		N11   
	.byte	W12
	.byte		N11   
	.byte	W12
	.byte		N11   
	.byte	W12
	.byte		N11   
	.byte	W12
	.byte	PEND
@ 005   ----------------------------------------
feb20230729212622_11_005:
	.byte		N11   , Gn1 , v096
	.byte	W12
	.byte		N11   
	.byte	W12
	.byte		        An1 
	.byte	W12
	.byte		N11   
	.byte	W12
	.byte		N11   
	.byte	W12
	.byte		N11   
	.byte	W12
	.byte		N11   
	.byte	W12
	.byte		N11   
	.byte	W12
	.byte	PEND
@ 006   ----------------------------------------
	.byte	PATT
	 .word	feb20230729212622_11_002
@ 007   ----------------------------------------
feb20230729212622_11_007:
	.byte		N11   , An1 , v096
	.byte	W12
	.byte		N11   
	.byte	W12
	.byte		        Cn2 
	.byte	W12
	.byte		N11   
	.byte	W12
	.byte		N11   
	.byte	W12
	.byte		N11   
	.byte	W12
	.byte		N11   
	.byte	W12
	.byte		N11   
	.byte	W12
	.byte	PEND
@ 008   ----------------------------------------
feb20230729212622_11_008:
	.byte		N11   , Cn2 , v096
	.byte	W12
	.byte		N11   
	.byte	W12
	.byte		        Dn2 
	.byte	W12
	.byte		N11   
	.byte	W12
	.byte		N11   
	.byte	W12
	.byte		N11   
	.byte	W12
	.byte		        En2 
	.byte	W12
	.byte		N11   
	.byte	W12
	.byte	PEND
@ 009   ----------------------------------------
feb20230729212622_11_009:
	.byte		N11   , En2 , v096
	.byte	W12
	.byte		N11   
	.byte	W12
	.byte		        An1 
	.byte	W12
	.byte		N11   
	.byte	W12
	.byte		N11   
	.byte	W12
	.byte		N11   
	.byte	W12
	.byte		N11   
	.byte	W12
	.byte		N11   
	.byte	W12
	.byte	PEND
@ 010   ----------------------------------------
	.byte	PATT
	 .word	feb20230729212622_11_002
@ 011   ----------------------------------------
	.byte	PATT
	 .word	feb20230729212622_11_003
@ 012   ----------------------------------------
	.byte	PATT
	 .word	feb20230729212622_11_004
@ 013   ----------------------------------------
	.byte	PATT
	 .word	feb20230729212622_11_005
@ 014   ----------------------------------------
	.byte	PATT
	 .word	feb20230729212622_11_002
@ 015   ----------------------------------------
	.byte	PATT
	 .word	feb20230729212622_11_007
@ 016   ----------------------------------------
	.byte	PATT
	 .word	feb20230729212622_11_008
@ 017   ----------------------------------------
feb20230729212622_11_017:
	.byte		N11   , En2 , v096
	.byte	W12
	.byte		N11   
	.byte	W12
	.byte		        Fn1 
	.byte	W12
	.byte		N11   
	.byte	W12
	.byte		N11   
	.byte	W12
	.byte		N11   
	.byte	W12
	.byte		N11   
	.byte	W12
	.byte		N11   
	.byte	W12
	.byte	PEND
@ 018   ----------------------------------------
feb20230729212622_11_018:
	.byte		N11   , Fn1 , v096
	.byte	W12
	.byte		N11   
	.byte	W12
	.byte		        En1 
	.byte	W12
	.byte		N11   
	.byte	W12
	.byte		N11   
	.byte	W12
	.byte		N11   
	.byte	W12
	.byte		N11   
	.byte	W12
	.byte		N11   
	.byte	W12
	.byte	PEND
@ 019   ----------------------------------------
feb20230729212622_11_019:
	.byte		N11   , En1 , v096
	.byte	W12
	.byte		N11   
	.byte	W12
	.byte		        Gn1 
	.byte	W12
	.byte		N11   
	.byte	W12
	.byte		N11   
	.byte	W12
	.byte		N11   
	.byte	W12
	.byte		N11   
	.byte	W12
	.byte		N11   
	.byte	W12
	.byte	PEND
@ 020   ----------------------------------------
feb20230729212622_11_020:
	.byte		N11   , Gn1 , v096
	.byte	W12
	.byte		N11   
	.byte	W12
	.byte		        Dn2 
	.byte	W12
	.byte		N11   
	.byte	W12
	.byte		N11   
	.byte	W12
	.byte		N11   
	.byte	W12
	.byte		N11   
	.byte	W12
	.byte		N11   
	.byte	W12
	.byte	PEND
@ 021   ----------------------------------------
feb20230729212622_11_021:
	.byte		N11   , Dn2 , v096
	.byte	W12
	.byte		N11   
	.byte	W12
	.byte		        Fn1 
	.byte	W12
	.byte		N11   
	.byte	W12
	.byte		N11   
	.byte	W12
	.byte		N11   
	.byte	W12
	.byte		N11   
	.byte	W12
	.byte		N11   
	.byte	W12
	.byte	PEND
@ 022   ----------------------------------------
feb20230729212622_11_022:
	.byte		N11   , Fn1 , v096
	.byte	W12
	.byte		N11   
	.byte	W12
	.byte		        Cn2 
	.byte	W12
	.byte		N11   
	.byte	W12
	.byte		N11   
	.byte	W12
	.byte		N11   
	.byte	W12
	.byte		N11   
	.byte	W12
	.byte		N11   
	.byte	W12
	.byte	PEND
@ 023   ----------------------------------------
feb20230729212622_11_023:
	.byte		N11   , Cn2 , v096
	.byte	W12
	.byte		N11   
	.byte	W12
	.byte		        Gn1 
	.byte	W12
	.byte		N11   
	.byte	W12
	.byte		N11   
	.byte	W12
	.byte		N11   
	.byte	W12
	.byte		N11   
	.byte	W12
	.byte		N11   
	.byte	W12
	.byte	PEND
@ 024   ----------------------------------------
	.byte	PATT
	 .word	feb20230729212622_11_005
@ 025   ----------------------------------------
	.byte	PATT
	 .word	feb20230729212622_11_003
@ 026   ----------------------------------------
	.byte	PATT
	 .word	feb20230729212622_11_018
@ 027   ----------------------------------------
	.byte	PATT
	 .word	feb20230729212622_11_019
@ 028   ----------------------------------------
	.byte	PATT
	 .word	feb20230729212622_11_020
@ 029   ----------------------------------------
	.byte	PATT
	 .word	feb20230729212622_11_021
@ 030   ----------------------------------------
	.byte	PATT
	 .word	feb20230729212622_11_022
@ 031   ----------------------------------------
	.byte	PATT
	 .word	feb20230729212622_11_023
@ 032   ----------------------------------------
	.byte	PATT
	 .word	feb20230729212622_11_005
@ 033   ----------------------------------------
	.byte	PATT
	 .word	feb20230729212622_11_002
@ 034   ----------------------------------------
	.byte	PATT
	 .word	feb20230729212622_11_002
@ 035   ----------------------------------------
	.byte	PATT
	 .word	feb20230729212622_11_003
@ 036   ----------------------------------------
	.byte	PATT
	 .word	feb20230729212622_11_004
@ 037   ----------------------------------------
	.byte	PATT
	 .word	feb20230729212622_11_005
@ 038   ----------------------------------------
	.byte	PATT
	 .word	feb20230729212622_11_002
@ 039   ----------------------------------------
	.byte	PATT
	 .word	feb20230729212622_11_003
@ 040   ----------------------------------------
	.byte	PATT
	 .word	feb20230729212622_11_004
@ 041   ----------------------------------------
	.byte	PATT
	 .word	feb20230729212622_11_005
@ 042   ----------------------------------------
	.byte	PATT
	 .word	feb20230729212622_11_002
@ 043   ----------------------------------------
	.byte	PATT
	 .word	feb20230729212622_11_003
@ 044   ----------------------------------------
	.byte	PATT
	 .word	feb20230729212622_11_004
@ 045   ----------------------------------------
	.byte	PATT
	 .word	feb20230729212622_11_005
@ 046   ----------------------------------------
	.byte	PATT
	 .word	feb20230729212622_11_002
@ 047   ----------------------------------------
	.byte	PATT
	 .word	feb20230729212622_11_007
@ 048   ----------------------------------------
	.byte	PATT
	 .word	feb20230729212622_11_008
@ 049   ----------------------------------------
	.byte	PATT
	 .word	feb20230729212622_11_009
@ 050   ----------------------------------------
	.byte	PATT
	 .word	feb20230729212622_11_002
@ 051   ----------------------------------------
	.byte	PATT
	 .word	feb20230729212622_11_003
@ 052   ----------------------------------------
	.byte	PATT
	 .word	feb20230729212622_11_004
@ 053   ----------------------------------------
	.byte	PATT
	 .word	feb20230729212622_11_005
@ 054   ----------------------------------------
	.byte	PATT
	 .word	feb20230729212622_11_002
@ 055   ----------------------------------------
	.byte	PATT
	 .word	feb20230729212622_11_007
@ 056   ----------------------------------------
	.byte	PATT
	 .word	feb20230729212622_11_008
@ 057   ----------------------------------------
	.byte	PATT
	 .word	feb20230729212622_11_017
@ 058   ----------------------------------------
	.byte	PATT
	 .word	feb20230729212622_11_018
@ 059   ----------------------------------------
	.byte	PATT
	 .word	feb20230729212622_11_019
@ 060   ----------------------------------------
	.byte	PATT
	 .word	feb20230729212622_11_020
@ 061   ----------------------------------------
	.byte	PATT
	 .word	feb20230729212622_11_021
@ 062   ----------------------------------------
	.byte	PATT
	 .word	feb20230729212622_11_022
@ 063   ----------------------------------------
	.byte	PATT
	 .word	feb20230729212622_11_023
@ 064   ----------------------------------------
	.byte	PATT
	 .word	feb20230729212622_11_005
@ 065   ----------------------------------------
	.byte	PATT
	 .word	feb20230729212622_11_003
@ 066   ----------------------------------------
	.byte	PATT
	 .word	feb20230729212622_11_018
@ 067   ----------------------------------------
	.byte	PATT
	 .word	feb20230729212622_11_019
@ 068   ----------------------------------------
	.byte	PATT
	 .word	feb20230729212622_11_020
@ 069   ----------------------------------------
	.byte	PATT
	 .word	feb20230729212622_11_021
@ 070   ----------------------------------------
	.byte	PATT
	 .word	feb20230729212622_11_022
@ 071   ----------------------------------------
	.byte	PATT
	 .word	feb20230729212622_11_023
@ 072   ----------------------------------------
	.byte	PATT
	 .word	feb20230729212622_11_005
@ 073   ----------------------------------------
	.byte		N11   , An1 , v096
	.byte	W12
	.byte		N11   
	.byte	W12
	.byte		N32   
	.byte	W72
@ 074   ----------------------------------------
	.byte	W96
@ 075   ----------------------------------------
	.byte	W24
	.byte		N32   
	.byte	W72
@ 076   ----------------------------------------
	.byte	W96
@ 077   ----------------------------------------
	.byte	W24
	.byte		N32   
	.byte	W72
@ 078   ----------------------------------------
	.byte	W96
@ 079   ----------------------------------------
	.byte	W24
	.byte		N23   
	.byte	W24
	.byte		        Bn1 
	.byte	W24
	.byte		N23   
	.byte	W24
@ 080   ----------------------------------------
	.byte		        Cn2 
	.byte	W24
	.byte		N23   
	.byte	W24
	.byte		        Dn2 
	.byte	W24
	.byte		        En2 
	.byte	W24
@ 081   ----------------------------------------
	.byte		        Gs1 
	.byte	W24
	.byte		N11   , An1 
	.byte	W12
	.byte		N11   
	.byte	W12
	.byte		N11   
	.byte	W12
	.byte		N11   
	.byte	W12
	.byte		N11   
	.byte	W12
	.byte		N11   
	.byte	W12
@ 082   ----------------------------------------
	.byte	PATT
	 .word	feb20230729212622_11_002
@ 083   ----------------------------------------
	.byte	PATT
	 .word	feb20230729212622_11_003
@ 084   ----------------------------------------
	.byte	PATT
	 .word	feb20230729212622_11_004
@ 085   ----------------------------------------
	.byte	PATT
	 .word	feb20230729212622_11_005
@ 086   ----------------------------------------
	.byte	PATT
	 .word	feb20230729212622_11_002
@ 087   ----------------------------------------
	.byte	PATT
	 .word	feb20230729212622_11_003
@ 088   ----------------------------------------
	.byte	PATT
	 .word	feb20230729212622_11_004
	.byte	GOTO
	 .word	feb20230729212622_11_B1
feb20230729212622_11_B2:
@ 089   ----------------------------------------
	.byte	FINE

@**************** Track 12 (Midi-Chn.13) ****************@

feb20230729212622_12:
	.byte	KEYSH , feb20230729212622_key+0
@ 000   ----------------------------------------
	.byte		VOICE , 124
	.byte		VOL   , 78*feb20230729212622_mvl/mxv
	.byte		N06   , An2 , v064
	.byte	W06
	.byte		        An2 , v076
	.byte	W06
	.byte		        An2 , v092
	.byte	W06
	.byte		        An2 , v104
	.byte	W06
	.byte		N12   , Dn1 , v060
	.byte		N12   , Cs2 
	.byte	W18
	.byte		        Dn1 
	.byte		N12   , Cs2 
	.byte	W18
	.byte		        Dn1 
	.byte		N12   , Cs2 
	.byte	W18
	.byte		        Dn1 
	.byte		N12   , Cs2 
	.byte	W18
@ 001   ----------------------------------------
	.byte		N05   , En1 , v104
	.byte	W06
	.byte		        Cn2 
	.byte		N12   , Cs2 , v060
	.byte	W06
	.byte		        Dn1 
	.byte		N05   , Bn1 , v104
	.byte	W06
	.byte		        An1 
	.byte	W06
feb20230729212622_12_B1:
	.byte		N11   , Cn1 , v104
	.byte		N92   , An2 
	.byte	W12
	.byte		N05   , Fs1 
	.byte	W06
	.byte		N05   
	.byte	W06
	.byte		N11   , Cn1 
	.byte	W12
	.byte		N05   , Fs1 
	.byte	W06
	.byte		N05   
	.byte	W06
	.byte		N11   , Cn1 
	.byte	W12
	.byte		N05   , Fs1 
	.byte	W06
	.byte		N05   
	.byte	W06
@ 002   ----------------------------------------
feb20230729212622_12_002:
	.byte		N11   , Cn1 , v104
	.byte	W12
	.byte		N05   , Fs1 
	.byte	W06
	.byte		N05   
	.byte	W06
	.byte		N11   , Cn1 
	.byte	W12
	.byte		N05   , Fs1 
	.byte	W06
	.byte		N05   
	.byte	W06
	.byte		N11   , Cn1 
	.byte	W12
	.byte		N05   , Fs1 
	.byte	W06
	.byte		N05   
	.byte	W06
	.byte		        Cn1 
	.byte	W06
	.byte		        Fs1 
	.byte	W06
	.byte		N11   , As1 
	.byte	W12
	.byte	PEND
@ 003   ----------------------------------------
feb20230729212622_12_003:
	.byte		N11   , Cn1 , v104
	.byte	W12
	.byte		N05   , Fs1 
	.byte	W06
	.byte		N05   
	.byte	W06
	.byte		N11   , Cn1 
	.byte	W12
	.byte		N05   , Fs1 
	.byte	W06
	.byte		N05   
	.byte	W06
	.byte		N11   , Cn1 
	.byte	W12
	.byte		N05   , Fs1 
	.byte	W06
	.byte		N05   
	.byte	W06
	.byte		N11   , Cn1 
	.byte	W12
	.byte		N05   , Fs1 
	.byte	W06
	.byte		N05   
	.byte	W06
	.byte	PEND
@ 004   ----------------------------------------
	.byte	PATT
	 .word	feb20230729212622_12_002
@ 005   ----------------------------------------
feb20230729212622_12_005:
	.byte		N11   , Cn1 , v104
	.byte		N05   , Fs1 
	.byte	W12
	.byte		N05   
	.byte	W06
	.byte		N05   
	.byte	W06
	.byte		N11   , Cn1 
	.byte	W12
	.byte		N05   , Fs1 
	.byte	W06
	.byte		N05   
	.byte	W06
	.byte		N11   , Cn1 
	.byte	W12
	.byte		N05   , Fs1 
	.byte	W06
	.byte		N05   
	.byte	W06
	.byte		N11   , Cn1 
	.byte	W12
	.byte		N05   , Fs1 
	.byte	W06
	.byte		N05   
	.byte	W06
	.byte	PEND
@ 006   ----------------------------------------
	.byte	PATT
	 .word	feb20230729212622_12_002
@ 007   ----------------------------------------
	.byte	PATT
	 .word	feb20230729212622_12_005
@ 008   ----------------------------------------
	.byte		N11   , Cn1 , v104
	.byte	W12
	.byte		N05   , Fs1 
	.byte	W06
	.byte		N05   
	.byte	W06
	.byte		N11   , Cn1 
	.byte	W12
	.byte		N05   , Fs1 
	.byte	W06
	.byte		N05   
	.byte	W06
	.byte		N11   , Cn1 
	.byte	W12
	.byte		N05   , Fs1 
	.byte	W06
	.byte		N05   
	.byte	W06
	.byte		        Cn1 
	.byte	W06
	.byte		        En1 
	.byte	W06
	.byte		N05   
	.byte	W06
	.byte		N05   
	.byte	W06
@ 009   ----------------------------------------
feb20230729212622_12_009:
	.byte		N05   , En1 , v104
	.byte	W06
	.byte		        Cn2 
	.byte	W06
	.byte		        Bn1 
	.byte	W06
	.byte		        An1 
	.byte	W06
	.byte		N11   , Cn1 
	.byte		N92   , An2 
	.byte	W12
	.byte		N05   , Fs1 
	.byte	W06
	.byte		N05   
	.byte	W06
	.byte		N11   , En1 
	.byte	W12
	.byte		N05   , Fs1 
	.byte	W06
	.byte		N05   
	.byte	W06
	.byte		N11   , Cn1 
	.byte	W12
	.byte		N05   , Fs1 
	.byte	W06
	.byte		N05   
	.byte	W06
	.byte	PEND
@ 010   ----------------------------------------
feb20230729212622_12_010:
	.byte		N11   , En1 , v104
	.byte	W12
	.byte		N05   , Fs1 
	.byte	W06
	.byte		N05   
	.byte	W06
	.byte		N11   , Cn1 
	.byte	W12
	.byte		N05   , Fs1 
	.byte	W06
	.byte		N05   
	.byte	W06
	.byte		N11   , En1 
	.byte	W12
	.byte		N05   , Fs1 
	.byte	W06
	.byte		N05   
	.byte	W06
	.byte		        Cn1 
	.byte	W12
	.byte		N11   , As1 
	.byte	W12
	.byte	PEND
@ 011   ----------------------------------------
feb20230729212622_12_011:
	.byte		N11   , En1 , v104
	.byte	W12
	.byte		N05   , Fs1 
	.byte	W06
	.byte		N05   
	.byte	W06
	.byte		N11   , Cn1 
	.byte	W12
	.byte		N05   , Fs1 
	.byte	W06
	.byte		N05   
	.byte	W06
	.byte		N11   , En1 
	.byte	W12
	.byte		N05   , Fs1 
	.byte	W06
	.byte		N05   
	.byte	W06
	.byte		N11   , Cn1 
	.byte	W12
	.byte		N05   , Fs1 
	.byte	W06
	.byte		N05   
	.byte	W06
	.byte	PEND
@ 012   ----------------------------------------
	.byte	PATT
	 .word	feb20230729212622_12_010
@ 013   ----------------------------------------
	.byte	PATT
	 .word	feb20230729212622_12_011
@ 014   ----------------------------------------
	.byte	PATT
	 .word	feb20230729212622_12_010
@ 015   ----------------------------------------
	.byte	PATT
	 .word	feb20230729212622_12_011
@ 016   ----------------------------------------
feb20230729212622_12_016:
	.byte		N11   , En1 , v104
	.byte	W12
	.byte		N05   , Fs1 
	.byte	W06
	.byte		N05   
	.byte	W06
	.byte		N11   , Cn1 
	.byte	W12
	.byte		N05   , Fs1 
	.byte	W06
	.byte		N05   
	.byte	W06
	.byte		N11   , En1 
	.byte	W12
	.byte		N05   , Fs1 
	.byte	W06
	.byte		N05   
	.byte	W06
	.byte		N11   , Cn1 
	.byte	W12
	.byte		N05   , En1 
	.byte	W06
	.byte		N05   
	.byte	W06
	.byte	PEND
@ 017   ----------------------------------------
	.byte		N05   
	.byte	W06
	.byte		        Cn2 
	.byte	W06
	.byte		        Bn1 
	.byte	W06
	.byte		        An1 
	.byte	W06
	.byte		N11   , Cn1 
	.byte		N68   , An2 
	.byte	W12
	.byte		N05   , Fs1 
	.byte	W12
	.byte		N11   , En1 
	.byte	W12
	.byte		N05   , Fs1 
	.byte	W12
	.byte		N11   , Cn1 
	.byte	W12
	.byte		N11   
	.byte	W12
@ 018   ----------------------------------------
feb20230729212622_12_018:
	.byte		N11   , En1 , v104
	.byte		N05   , Fs1 
	.byte	W12
	.byte		N05   
	.byte	W12
	.byte		N11   , Cn1 
	.byte		N11   , As1 
	.byte	W12
	.byte		N05   , Fs1 
	.byte	W12
	.byte		N11   , En1 
	.byte		N05   , Fs1 
	.byte	W12
	.byte		N05   
	.byte	W12
	.byte		N11   , Cn1 
	.byte		N05   , Fs1 
	.byte	W12
	.byte		N11   , Cn1 
	.byte		N05   , Fs1 
	.byte	W12
	.byte	PEND
@ 019   ----------------------------------------
	.byte	PATT
	 .word	feb20230729212622_12_018
@ 020   ----------------------------------------
	.byte	PATT
	 .word	feb20230729212622_12_018
@ 021   ----------------------------------------
	.byte		N11   , En1 , v104
	.byte		N05   , Fs1 
	.byte	W12
	.byte		N05   
	.byte	W12
	.byte		N11   , Cn1 
	.byte		N68   , An2 
	.byte	W12
	.byte		N05   , Fs1 
	.byte	W12
	.byte		N11   , En1 
	.byte	W12
	.byte		N05   , Fs1 
	.byte	W12
	.byte		N11   , Cn1 
	.byte	W12
	.byte		N11   
	.byte	W12
@ 022   ----------------------------------------
	.byte	PATT
	 .word	feb20230729212622_12_018
@ 023   ----------------------------------------
	.byte	PATT
	 .word	feb20230729212622_12_018
@ 024   ----------------------------------------
	.byte		N11   , En1 , v104
	.byte		N05   , Fs1 
	.byte	W12
	.byte		N05   
	.byte	W12
	.byte		N11   , Cn1 
	.byte		N44   , Cs2 
	.byte	W12
	.byte		N05   , En1 
	.byte	W06
	.byte		N05   
	.byte	W06
	.byte		N11   
	.byte	W12
	.byte		        Cn1 
	.byte	W12
	.byte		N05   , En1 
	.byte		N44   , Cs2 
	.byte	W06
	.byte		N05   , En1 
	.byte	W06
	.byte		N11   
	.byte	W12
@ 025   ----------------------------------------
	.byte		N05   , Cn1 
	.byte	W06
	.byte		        Cn2 
	.byte	W06
	.byte		        Bn1 
	.byte	W06
	.byte		        An1 
	.byte	W06
	.byte		N11   , Cn1 
	.byte		N68   , An2 
	.byte	W12
	.byte		N05   , Fs1 
	.byte	W06
	.byte		        Cn1 
	.byte	W06
	.byte		N11   , En1 
	.byte	W12
	.byte		N05   , Fs1 
	.byte	W12
	.byte		N11   , Cn1 
	.byte	W12
	.byte		N11   
	.byte	W12
@ 026   ----------------------------------------
feb20230729212622_12_026:
	.byte		N11   , En1 , v104
	.byte		N05   , Fs1 
	.byte	W12
	.byte		N11   , Cn1 
	.byte		N05   , Fs1 
	.byte	W12
	.byte		N11   , Cn1 
	.byte		N23   , As1 
	.byte	W18
	.byte		N05   , Cn1 
	.byte	W06
	.byte		N11   , En1 
	.byte		N05   , Fs1 
	.byte	W12
	.byte		N05   
	.byte	W12
	.byte		N11   , Cn1 
	.byte		N05   , Fs1 
	.byte	W12
	.byte		        En1 
	.byte		N05   , Fs1 
	.byte	W06
	.byte		        En1 
	.byte	W06
	.byte	PEND
@ 027   ----------------------------------------
	.byte		N05   
	.byte		N05   , Fs1 
	.byte	W06
	.byte		        Cn2 
	.byte	W06
	.byte		        Fs1 
	.byte		N05   , Bn1 
	.byte	W06
	.byte		        An1 
	.byte	W06
	.byte		N11   , Cn1 
	.byte		N68   , An2 
	.byte	W12
	.byte		N05   , Fs1 
	.byte	W06
	.byte		        Cn1 
	.byte	W06
	.byte		N11   , En1 
	.byte	W12
	.byte		N05   , Fs1 
	.byte	W12
	.byte		N11   , Cn1 
	.byte	W12
	.byte		N11   
	.byte	W12
@ 028   ----------------------------------------
	.byte	PATT
	 .word	feb20230729212622_12_026
@ 029   ----------------------------------------
	.byte		N11   , En1 , v104
	.byte		N05   , Fs1 
	.byte	W12
	.byte		        En1 
	.byte		N05   , Fs1 
	.byte	W06
	.byte		        En1 
	.byte	W06
	.byte		N11   , Cn1 
	.byte		N92   , An2 
	.byte	W12
	.byte		N05   , Fs1 
	.byte	W06
	.byte		        Cn1 
	.byte	W06
	.byte		N11   , En1 
	.byte	W12
	.byte		N05   , Fs1 
	.byte	W12
	.byte		N11   , Cn1 
	.byte	W12
	.byte		N11   
	.byte	W12
@ 030   ----------------------------------------
	.byte		        En1 
	.byte	W12
	.byte		        Cn1 
	.byte	W12
	.byte		N11   
	.byte		N92   , An2 
	.byte	W12
	.byte		N05   , Fs1 
	.byte	W06
	.byte		        Cn1 
	.byte	W06
	.byte		N11   , En1 
	.byte	W12
	.byte		N05   , Fs1 
	.byte	W12
	.byte		N11   , Cn1 
	.byte	W12
	.byte		N05   , En1 
	.byte	W06
	.byte		N05   
	.byte	W06
@ 031   ----------------------------------------
	.byte		N05   
	.byte	W06
	.byte		        Cn2 
	.byte	W06
	.byte		        Bn1 
	.byte	W06
	.byte		        An1 
	.byte	W06
	.byte		N11   , Cn1 
	.byte		N92   , An2 
	.byte	W12
	.byte		N05   , Fs1 
	.byte	W06
	.byte		        Cn1 
	.byte	W06
	.byte		N11   , En1 
	.byte	W12
	.byte		N05   , Fs1 
	.byte	W12
	.byte		N11   , Cn1 
	.byte	W12
	.byte		N11   
	.byte	W12
@ 032   ----------------------------------------
	.byte		        En1 
	.byte	W12
	.byte		        Cn1 
	.byte	W12
	.byte		N11   
	.byte		N92   , An2 
	.byte	W12
	.byte		N05   , En1 
	.byte	W06
	.byte		N05   
	.byte	W06
	.byte		N05   
	.byte	W06
	.byte		        Cn2 
	.byte	W06
	.byte		        Bn1 
	.byte	W06
	.byte		        An1 
	.byte	W06
	.byte		        Cn1 
	.byte	W06
	.byte		        Cn2 
	.byte	W06
	.byte		        Bn1 
	.byte	W06
	.byte		        An1 
	.byte	W06
@ 033   ----------------------------------------
	.byte		        Cn1 
	.byte	W06
	.byte		        Cn2 
	.byte	W06
	.byte		        Bn1 
	.byte	W06
	.byte		        An1 
	.byte	W06
	.byte		N11   , Cn1 
	.byte	W24
	.byte		N11   
	.byte	W24
	.byte		N11   
	.byte	W24
@ 034   ----------------------------------------
feb20230729212622_12_034:
	.byte		N11   , Cn1 , v104
	.byte	W24
	.byte		N11   
	.byte	W24
	.byte		N11   
	.byte	W24
	.byte		N11   
	.byte	W24
	.byte	PEND
@ 035   ----------------------------------------
	.byte	PATT
	 .word	feb20230729212622_12_034
@ 036   ----------------------------------------
	.byte	PATT
	 .word	feb20230729212622_12_034
@ 037   ----------------------------------------
	.byte		N11   , Cn1 , v104
	.byte	W24
	.byte		N11   
	.byte	W12
	.byte		N05   , Fs1 
	.byte	W06
	.byte		N05   
	.byte	W06
	.byte		N11   , En1 
	.byte	W12
	.byte		N05   , Fs1 
	.byte	W06
	.byte		N05   
	.byte	W06
	.byte		N11   , Cn1 
	.byte	W12
	.byte		N05   , Fs1 
	.byte	W06
	.byte		N05   
	.byte	W06
@ 038   ----------------------------------------
	.byte	PATT
	 .word	feb20230729212622_12_011
@ 039   ----------------------------------------
	.byte	PATT
	 .word	feb20230729212622_12_011
@ 040   ----------------------------------------
	.byte		N11   , En1 , v104
	.byte	W12
	.byte		N05   , Fs1 
	.byte	W06
	.byte		N05   
	.byte	W06
	.byte		N11   , Cn1 
	.byte	W12
	.byte		N05   , Fs1 
	.byte	W06
	.byte		N05   
	.byte	W06
	.byte		N11   , En1 
	.byte	W12
	.byte		N05   , Fs1 
	.byte	W06
	.byte		N05   
	.byte	W06
	.byte		N11   , Cn1 
	.byte		N23   , As1 
	.byte	W12
	.byte		N05   , En1 
	.byte	W06
	.byte		N05   
	.byte	W06
@ 041   ----------------------------------------
	.byte		N11   
	.byte		N23   , As1 
	.byte	W12
	.byte		N05   , En1 
	.byte	W06
	.byte		N05   
	.byte	W06
	.byte		N11   , Cn1 
	.byte		N92   , An2 
	.byte	W12
	.byte		N05   , Fs1 
	.byte	W06
	.byte		N05   
	.byte	W06
	.byte		N11   , En1 
	.byte	W12
	.byte		N05   , Fs1 
	.byte	W06
	.byte		N05   
	.byte	W06
	.byte		N11   , Cn1 
	.byte	W12
	.byte		N05   , Fs1 
	.byte	W06
	.byte		N05   
	.byte	W06
@ 042   ----------------------------------------
	.byte	PATT
	 .word	feb20230729212622_12_010
@ 043   ----------------------------------------
	.byte	PATT
	 .word	feb20230729212622_12_011
@ 044   ----------------------------------------
	.byte		N11   , En1 , v104
	.byte	W12
	.byte		N05   , Fs1 
	.byte	W06
	.byte		N05   
	.byte	W06
	.byte		N11   , Cn1 
	.byte	W12
	.byte		N05   , Fs1 
	.byte	W06
	.byte		N05   
	.byte	W06
	.byte		N11   , En1 
	.byte	W12
	.byte		N05   , Fs1 
	.byte	W06
	.byte		N05   
	.byte	W06
	.byte		N11   , Cn1 
	.byte	W12
	.byte		        As1 
	.byte	W12
@ 045   ----------------------------------------
	.byte	PATT
	 .word	feb20230729212622_12_011
@ 046   ----------------------------------------
	.byte	PATT
	 .word	feb20230729212622_12_010
@ 047   ----------------------------------------
feb20230729212622_12_047:
	.byte		N11   , En1 , v104
	.byte	W24
	.byte		        Cn1 
	.byte	W12
	.byte		N05   , Fs1 
	.byte	W06
	.byte		N05   
	.byte	W06
	.byte		N11   , En1 
	.byte	W12
	.byte		N05   , Fs1 
	.byte	W06
	.byte		N05   
	.byte	W06
	.byte		N11   , Cn1 
	.byte	W12
	.byte		N05   , Fs1 
	.byte	W06
	.byte		N05   
	.byte	W06
	.byte	PEND
@ 048   ----------------------------------------
	.byte	PATT
	 .word	feb20230729212622_12_016
@ 049   ----------------------------------------
	.byte	PATT
	 .word	feb20230729212622_12_009
@ 050   ----------------------------------------
feb20230729212622_12_050:
	.byte		N11   , En1 , v104
	.byte	W12
	.byte		N05   , Fs1 
	.byte	W06
	.byte		N05   
	.byte	W06
	.byte		N11   , Cn1 
	.byte	W12
	.byte		N05   , Fs1 
	.byte	W06
	.byte		N05   
	.byte	W06
	.byte		N11   , En1 
	.byte	W12
	.byte		N05   , Fs1 
	.byte	W06
	.byte		N05   
	.byte	W06
	.byte		        Cn1 
	.byte	W12
	.byte		        Fs1 
	.byte	W06
	.byte		N05   
	.byte	W06
	.byte	PEND
@ 051   ----------------------------------------
	.byte	PATT
	 .word	feb20230729212622_12_011
@ 052   ----------------------------------------
	.byte	PATT
	 .word	feb20230729212622_12_011
@ 053   ----------------------------------------
	.byte	PATT
	 .word	feb20230729212622_12_011
@ 054   ----------------------------------------
	.byte	PATT
	 .word	feb20230729212622_12_050
@ 055   ----------------------------------------
	.byte	PATT
	 .word	feb20230729212622_12_047
@ 056   ----------------------------------------
	.byte	PATT
	 .word	feb20230729212622_12_016
@ 057   ----------------------------------------
feb20230729212622_12_057:
	.byte		N05   , En1 , v104
	.byte	W06
	.byte		        Cn2 
	.byte	W06
	.byte		        Bn1 
	.byte	W06
	.byte		        An1 
	.byte	W06
	.byte		N11   , Cn1 
	.byte		N92   , Cs2 
	.byte	W18
	.byte		N05   , Cn1 
	.byte	W06
	.byte		N11   , En1 
	.byte	W12
	.byte		        Cn1 
	.byte	W24
	.byte		N11   
	.byte	W12
	.byte	PEND
@ 058   ----------------------------------------
	.byte		        En1 
	.byte	W24
	.byte		        Cn1 
	.byte	W18
	.byte		N05   
	.byte	W06
	.byte		N11   , En1 
	.byte		N68   , An2 
	.byte	W24
	.byte		N05   , En1 
	.byte	W06
	.byte		N05   
	.byte	W06
	.byte		N05   
	.byte	W06
	.byte		N05   
	.byte	W06
@ 059   ----------------------------------------
	.byte	PATT
	 .word	feb20230729212622_12_057
@ 060   ----------------------------------------
	.byte		N11   , En1 , v104
	.byte	W24
	.byte		        Cn1 
	.byte	W18
	.byte		N05   
	.byte	W06
	.byte		N11   , En1 
	.byte		N68   , An2 
	.byte	W24
	.byte		N05   , Cn1 
	.byte	W06
	.byte		        En1 
	.byte	W06
	.byte		        Cn2 
	.byte	W06
	.byte		        Bn1 
	.byte	W06
@ 061   ----------------------------------------
	.byte	PATT
	 .word	feb20230729212622_12_057
@ 062   ----------------------------------------
	.byte		N11   , En1 , v104
	.byte	W24
	.byte		        Cn1 
	.byte	W18
	.byte		N05   
	.byte	W06
	.byte		N11   , En1 
	.byte	W12
	.byte		        Cn1 
	.byte	W24
	.byte		N11   
	.byte	W12
@ 063   ----------------------------------------
	.byte		        En1 
	.byte		N23   , An2 
	.byte	W12
	.byte		N05   , En1 
	.byte	W06
	.byte		N05   
	.byte	W06
	.byte		N11   , Cn1 
	.byte		N92   , Cs2 
	.byte	W18
	.byte		N05   , Cn1 
	.byte	W06
	.byte		N11   , En1 
	.byte	W12
	.byte		        Cn1 
	.byte	W24
	.byte		N11   
	.byte	W12
@ 064   ----------------------------------------
	.byte		        En1 
	.byte	W24
	.byte		N05   , Cn1 
	.byte		N44   , An2 
	.byte	W06
	.byte		N05   , En1 
	.byte	W06
	.byte		N11   
	.byte	W12
	.byte		N11   
	.byte	W12
	.byte		N05   
	.byte	W06
	.byte		N05   
	.byte	W06
	.byte		        Cn1 
	.byte		N44   , As1 
	.byte	W06
	.byte		N05   , Cn2 
	.byte	W06
	.byte		        Bn1 
	.byte	W06
	.byte		        An1 
	.byte	W06
@ 065   ----------------------------------------
	.byte		        Cn1 
	.byte	W06
	.byte		        Bn1 
	.byte	W06
	.byte		        An1 
	.byte	W06
	.byte		        Gn1 
	.byte	W06
	.byte		N11   , Cn1 
	.byte		N68   , Cs2 
	.byte	W18
	.byte		N05   , Cn1 
	.byte	W06
	.byte		N11   , En1 
	.byte	W12
	.byte		        Cn1 
	.byte	W24
	.byte		N11   
	.byte	W12
@ 066   ----------------------------------------
	.byte		        En1 
	.byte	W24
	.byte		        Cn1 
	.byte	W18
	.byte		N05   
	.byte	W06
	.byte		N11   , En1 
	.byte	W12
	.byte		        Cn1 
	.byte	W12
	.byte		N05   
	.byte	W06
	.byte		        En1 
	.byte	W06
	.byte		N05   
	.byte	W06
	.byte		        Cn1 
	.byte	W06
@ 067   ----------------------------------------
	.byte		        En1 
	.byte	W06
	.byte		N11   
	.byte	W18
	.byte		        Cn1 
	.byte		N68   , Cs2 
	.byte	W18
	.byte		N05   , Cn1 
	.byte	W06
	.byte		N11   , En1 
	.byte	W12
	.byte		        Cn1 
	.byte	W24
	.byte		N11   
	.byte	W12
@ 068   ----------------------------------------
	.byte		        En1 
	.byte	W24
	.byte		        Cn1 
	.byte	W18
	.byte		N05   
	.byte	W06
	.byte		N11   , En1 
	.byte		N68   , An2 
	.byte	W12
	.byte		N11   , Cn1 
	.byte	W12
	.byte		N05   
	.byte	W06
	.byte		        En1 
	.byte	W06
	.byte		        Cn2 
	.byte	W06
	.byte		        Bn1 
	.byte	W06
@ 069   ----------------------------------------
	.byte		        En1 
	.byte	W06
	.byte		        Cn2 
	.byte	W06
	.byte		        Bn1 
	.byte	W06
	.byte		        An1 
	.byte	W06
	.byte		N11   , Cn1 
	.byte		N68   , Cs2 
	.byte	W18
	.byte		N05   , Cn1 
	.byte	W06
	.byte		N11   , En1 
	.byte	W12
	.byte		        Cn1 
	.byte	W24
	.byte		N11   
	.byte	W12
@ 070   ----------------------------------------
	.byte		        En1 
	.byte	W24
	.byte		        Cn1 
	.byte	W18
	.byte		N05   
	.byte	W06
	.byte		N11   , En1 
	.byte		N68   , An2 
	.byte	W12
	.byte		N11   , Cn1 
	.byte	W12
	.byte		N05   
	.byte	W06
	.byte		        En1 
	.byte	W06
	.byte		N05   
	.byte	W06
	.byte		        Cn1 
	.byte	W06
@ 071   ----------------------------------------
	.byte		N11   , En1 
	.byte	W12
	.byte		N05   
	.byte	W06
	.byte		N05   
	.byte	W06
	.byte		N11   , Cn1 
	.byte		N92   , Cs2 
	.byte	W18
	.byte		N05   , Cn1 
	.byte	W06
	.byte		N11   , En1 
	.byte	W12
	.byte		        Cn1 
	.byte	W24
	.byte		N11   
	.byte	W12
@ 072   ----------------------------------------
	.byte		        En1 
	.byte	W24
	.byte		        Cn1 
	.byte		N44   , An2 
	.byte	W12
	.byte		N05   , En1 
	.byte	W06
	.byte		N05   
	.byte	W06
	.byte		N05   
	.byte	W06
	.byte		        Cn2 
	.byte	W06
	.byte		N05   
	.byte	W06
	.byte		        Bn1 
	.byte	W06
	.byte		N05   
	.byte		N44   , Cs2 
	.byte	W06
	.byte		N05   , An1 
	.byte	W06
	.byte		N05   
	.byte	W06
	.byte		        Gn1 
	.byte	W06
@ 073   ----------------------------------------
	.byte		N05   
	.byte	W06
	.byte		        Fn1 
	.byte	W06
	.byte		N11   
	.byte	W12
	.byte		        Cn1 
	.byte		N92   , Cs2 
	.byte	W60
	.byte		N01   , Cn2 
	.byte	W02
	.byte		        Bn1 
	.byte	W02
	.byte		N13   , An1 
	.byte	W08
@ 074   ----------------------------------------
	.byte	W24
	.byte		N01   , Bn1 
	.byte	W02
	.byte		        An1 
	.byte	W02
	.byte		N13   , Gn1 
	.byte	W32
	.byte		N01   , An1 
	.byte	W02
	.byte		        Gn1 
	.byte	W02
	.byte		N13   , Fn1 
	.byte	W20
	.byte		N11   , Bn1 
	.byte	W12
@ 075   ----------------------------------------
	.byte		        An1 
	.byte	W12
	.byte		        Gn1 
	.byte	W12
	.byte		        Cn1 
	.byte		N32   , Cs2 
	.byte	W18
	.byte		N05   , Cn2 
	.byte	W06
	.byte		N11   , Bn1 
	.byte	W12
	.byte		        Cn1 
	.byte		N44   , Cs2 
	.byte	W36
@ 076   ----------------------------------------
	.byte		N11   , En1 
	.byte	W12
	.byte		N80   , Cs2 
	.byte	W24
	.byte		N05   , Cn2 
	.byte	W06
	.byte		N05   
	.byte	W06
	.byte		N11   , Bn1 
	.byte	W12
	.byte		N05   
	.byte	W06
	.byte		N05   
	.byte	W06
	.byte		N11   , An1 
	.byte	W12
	.byte		N05   
	.byte	W06
	.byte		N05   
	.byte	W06
@ 077   ----------------------------------------
	.byte		N11   , Gn1 
	.byte	W24
	.byte		        Cn1 
	.byte		N32   , En2 
	.byte	W18
	.byte		N05   , Cn2 
	.byte	W06
	.byte		N11   , Bn1 
	.byte	W12
	.byte		        En1 
	.byte		N32   , Cs2 
	.byte	W18
	.byte		N05   , Cn2 
	.byte	W06
	.byte		N11   , Bn1 
	.byte	W12
@ 078   ----------------------------------------
	.byte		        En1 
	.byte		N32   , Cs2 
	.byte	W18
	.byte		N05   , Cn2 
	.byte	W06
	.byte		N11   , Bn1 
	.byte	W12
	.byte		        En1 
	.byte		N32   , Cs2 
	.byte	W18
	.byte		N05   , Cn2 
	.byte	W06
	.byte		N11   , Bn1 
	.byte	W12
	.byte		        En1 
	.byte		N44   , Cs2 
	.byte	W24
@ 079   ----------------------------------------
	.byte		N05   , En1 
	.byte	W06
	.byte		        Cn2 
	.byte	W06
	.byte		        Bn1 
	.byte	W06
	.byte		        An1 
	.byte	W06
	.byte		N11   , Cn1 
	.byte		N44   , An2 
	.byte	W12
	.byte		N05   , En1 
	.byte	W06
	.byte		N05   
	.byte	W06
	.byte		N11   , Cn1 
	.byte	W12
	.byte		N05   , En1 
	.byte	W06
	.byte		N05   
	.byte	W06
	.byte		N11   , Cn1 
	.byte		N44   , Cs2 
	.byte	W12
	.byte		N05   , En1 
	.byte	W06
	.byte		N05   
	.byte	W06
@ 080   ----------------------------------------
	.byte		N11   , Cn1 
	.byte	W12
	.byte		N05   , En1 
	.byte	W06
	.byte		N05   
	.byte	W06
	.byte		N11   , Cn1 
	.byte		N44   , An2 
	.byte	W12
	.byte		N05   , En1 
	.byte	W06
	.byte		N05   
	.byte	W06
	.byte		N05   
	.byte	W06
	.byte		N05   
	.byte	W06
	.byte		N05   
	.byte	W06
	.byte		N05   
	.byte	W06
	.byte		N05   
	.byte		N44   , Cs2 
	.byte	W06
	.byte		N05   , En1 
	.byte	W06
	.byte		        Cn2 
	.byte	W06
	.byte		N05   
	.byte	W06
@ 081   ----------------------------------------
	.byte		        Bn1 
	.byte	W06
	.byte		N05   
	.byte	W06
	.byte		        An1 
	.byte	W06
	.byte		N05   
	.byte	W06
	.byte		N11   , Cn1 
	.byte		N92   , An2 
	.byte	W12
	.byte		N05   , Fs1 
	.byte	W06
	.byte		N05   
	.byte	W06
	.byte		N11   , Cn1 
	.byte	W12
	.byte		N05   , Fs1 
	.byte	W06
	.byte		N05   
	.byte	W06
	.byte		N11   , Cn1 
	.byte	W12
	.byte		N05   , Fs1 
	.byte	W06
	.byte		N05   
	.byte	W06
@ 082   ----------------------------------------
	.byte		N11   , Cn1 
	.byte	W12
	.byte		N05   , Fs1 
	.byte	W06
	.byte		N05   
	.byte	W06
	.byte		N11   , Cn1 
	.byte	W12
	.byte		N05   , Fs1 
	.byte	W06
	.byte		N05   
	.byte	W06
	.byte		N11   , Cn1 
	.byte	W12
	.byte		N05   , Fs1 
	.byte	W06
	.byte		N05   
	.byte	W06
	.byte		N11   , Cn1 
	.byte	W12
	.byte		        As1 
	.byte	W12
@ 083   ----------------------------------------
	.byte	PATT
	 .word	feb20230729212622_12_003
@ 084   ----------------------------------------
	.byte		N11   , Cn1 , v104
	.byte	W12
	.byte		N05   , Fs1 
	.byte	W06
	.byte		N05   
	.byte	W06
	.byte		N11   , Cn1 
	.byte		N11   , As1 
	.byte	W12
	.byte		N05   , Fs1 
	.byte	W06
	.byte		N05   
	.byte	W06
	.byte		N11   , Cn1 
	.byte		N11   , As1 
	.byte	W12
	.byte		N05   , Fs1 
	.byte	W06
	.byte		N05   
	.byte	W06
	.byte		N11   , Cn1 
	.byte		N05   , Fs1 
	.byte	W06
	.byte		N05   
	.byte	W06
	.byte		N11   , As1 
	.byte		N23   , Fs2 
	.byte	W12
@ 085   ----------------------------------------
	.byte		N11   , Cn1 
	.byte		N05   , Fs1 
	.byte	W06
	.byte		N05   
	.byte	W06
	.byte		N11   , As1 
	.byte		N32   , Fs2 
	.byte	W12
	.byte		N11   , Cn1 
	.byte	W12
	.byte		N05   , Fs1 
	.byte	W06
	.byte		N05   
	.byte	W06
	.byte		N11   , Cn1 
	.byte	W12
	.byte		N05   , Fs1 
	.byte	W06
	.byte		N05   
	.byte	W06
	.byte		N11   , Cn1 
	.byte	W12
	.byte		N05   , Fs1 
	.byte	W06
	.byte		N05   
	.byte	W06
@ 086   ----------------------------------------
	.byte	PATT
	 .word	feb20230729212622_12_003
@ 087   ----------------------------------------
	.byte	PATT
	 .word	feb20230729212622_12_003
@ 088   ----------------------------------------
	.byte		N11   , Cn1 , v104
	.byte	W12
	.byte		N05   , Fs1 
	.byte	W06
	.byte		N05   
	.byte	W06
	.byte		N11   , Cn1 
	.byte	W12
	.byte		N05   , Fs1 
	.byte	W06
	.byte		N05   
	.byte	W06
	.byte		N11   , Cn1 
	.byte	W12
	.byte		N05   , Fs1 
	.byte	W06
	.byte		N05   
	.byte	W06
	.byte		N11   , Cn1 
	.byte	W12
	.byte		N05   , Cn2 
	.byte	W06
	.byte		N05   
	.byte	W06
	.byte	GOTO
	 .word	feb20230729212622_12_B1
feb20230729212622_12_B2:
@ 089   ----------------------------------------
	.byte	FINE

@**************** Track 13 (Midi-Chn.14) ****************@

feb20230729212622_13:
	.byte	KEYSH , feb20230729212622_key+0
@ 000   ----------------------------------------
	.byte		VOICE , 55
	.byte		VOL   , 127*feb20230729212622_mvl/mxv
	.byte	W24
	.byte		N12   , An2 , v127
	.byte	W18
	.byte		        Dn3 
	.byte	W18
	.byte		        Cn3 
	.byte	W18
	.byte		        Fn3 
	.byte	W18
@ 001   ----------------------------------------
	.byte		        Ds3 
	.byte	W12
	.byte		        As2 
	.byte	W12
feb20230729212622_13_B1:
	.byte	W72
@ 002   ----------------------------------------
	.byte	W96
@ 003   ----------------------------------------
	.byte	W96
@ 004   ----------------------------------------
	.byte	W96
@ 005   ----------------------------------------
	.byte	W96
@ 006   ----------------------------------------
	.byte	W96
@ 007   ----------------------------------------
	.byte	W96
@ 008   ----------------------------------------
	.byte	W96
@ 009   ----------------------------------------
	.byte	W96
@ 010   ----------------------------------------
	.byte	W96
@ 011   ----------------------------------------
	.byte	W96
@ 012   ----------------------------------------
	.byte	W96
@ 013   ----------------------------------------
	.byte	W96
@ 014   ----------------------------------------
	.byte	W96
@ 015   ----------------------------------------
	.byte	W96
@ 016   ----------------------------------------
	.byte	W96
@ 017   ----------------------------------------
	.byte	W96
@ 018   ----------------------------------------
	.byte	W96
@ 019   ----------------------------------------
	.byte	W96
@ 020   ----------------------------------------
	.byte	W96
@ 021   ----------------------------------------
	.byte	W96
@ 022   ----------------------------------------
	.byte	W96
@ 023   ----------------------------------------
	.byte	W96
@ 024   ----------------------------------------
	.byte	W96
@ 025   ----------------------------------------
	.byte	W96
@ 026   ----------------------------------------
	.byte	W96
@ 027   ----------------------------------------
	.byte	W96
@ 028   ----------------------------------------
	.byte	W96
@ 029   ----------------------------------------
	.byte	W96
@ 030   ----------------------------------------
	.byte	W96
@ 031   ----------------------------------------
	.byte	W96
@ 032   ----------------------------------------
	.byte	W96
@ 033   ----------------------------------------
	.byte	W96
@ 034   ----------------------------------------
	.byte	W96
@ 035   ----------------------------------------
	.byte	W96
@ 036   ----------------------------------------
	.byte	W96
@ 037   ----------------------------------------
	.byte	W96
@ 038   ----------------------------------------
	.byte	W96
@ 039   ----------------------------------------
	.byte	W96
@ 040   ----------------------------------------
	.byte	W96
@ 041   ----------------------------------------
	.byte	W96
@ 042   ----------------------------------------
	.byte	W96
@ 043   ----------------------------------------
	.byte	W96
@ 044   ----------------------------------------
	.byte	W96
@ 045   ----------------------------------------
	.byte	W96
@ 046   ----------------------------------------
	.byte	W96
@ 047   ----------------------------------------
	.byte	W96
@ 048   ----------------------------------------
	.byte	W96
@ 049   ----------------------------------------
	.byte	W96
@ 050   ----------------------------------------
	.byte	W96
@ 051   ----------------------------------------
	.byte	W96
@ 052   ----------------------------------------
	.byte	W96
@ 053   ----------------------------------------
	.byte	W96
@ 054   ----------------------------------------
	.byte	W96
@ 055   ----------------------------------------
	.byte	W96
@ 056   ----------------------------------------
	.byte	W96
@ 057   ----------------------------------------
	.byte	W96
@ 058   ----------------------------------------
	.byte	W96
@ 059   ----------------------------------------
	.byte	W96
@ 060   ----------------------------------------
	.byte	W96
@ 061   ----------------------------------------
	.byte	W96
@ 062   ----------------------------------------
	.byte	W96
@ 063   ----------------------------------------
	.byte	W96
@ 064   ----------------------------------------
	.byte	W96
@ 065   ----------------------------------------
	.byte	W96
@ 066   ----------------------------------------
	.byte	W96
@ 067   ----------------------------------------
	.byte	W96
@ 068   ----------------------------------------
	.byte	W96
@ 069   ----------------------------------------
	.byte	W96
@ 070   ----------------------------------------
	.byte	W96
@ 071   ----------------------------------------
	.byte	W96
@ 072   ----------------------------------------
	.byte	W96
@ 073   ----------------------------------------
	.byte	W96
@ 074   ----------------------------------------
	.byte	W96
@ 075   ----------------------------------------
	.byte	W96
@ 076   ----------------------------------------
	.byte	W96
@ 077   ----------------------------------------
	.byte	W96
@ 078   ----------------------------------------
	.byte	W96
@ 079   ----------------------------------------
	.byte	W96
@ 080   ----------------------------------------
	.byte	W96
@ 081   ----------------------------------------
	.byte	W96
@ 082   ----------------------------------------
	.byte	W96
@ 083   ----------------------------------------
	.byte	W96
@ 084   ----------------------------------------
	.byte	W96
@ 085   ----------------------------------------
	.byte	W96
@ 086   ----------------------------------------
	.byte	W96
@ 087   ----------------------------------------
	.byte	W96
@ 088   ----------------------------------------
	.byte	W96
	.byte	GOTO
	 .word	feb20230729212622_13_B1
feb20230729212622_13_B2:
@ 089   ----------------------------------------
	.byte	FINE

@******************************************************@
	.align	2

feb20230729212622:
	.byte	13	@ NumTrks
	.byte	0	@ NumBlks
	.byte	feb20230729212622_pri	@ Priority
	.byte	feb20230729212622_rev	@ Reverb.

	.word	feb20230729212622_grp

	.word	feb20230729212622_1
	.word	feb20230729212622_2
	.word	feb20230729212622_3
	.word	feb20230729212622_4
	.word	feb20230729212622_5
	.word	feb20230729212622_6
	.word	feb20230729212622_7
	.word	feb20230729212622_8
	.word	feb20230729212622_9
	.word	feb20230729212622_10
	.word	feb20230729212622_11
	.word	feb20230729212622_12
	.word	feb20230729212622_13

	.end
