	.include "MPlayDef.s"

	.equ	fuse_grp, voicegroup000
	.equ	fuse_pri, 0
	.equ	fuse_rev, 0
	.equ	fuse_mvl, 50
	.equ	fuse_key, 0
	.equ	fuse_tbs, 1
	.equ	fuse_exg, 0
	.equ	fuse_cmp, 1

	.section .rodata
	.global	fuse
	.align	2

@**************** Track 1 (Midi-Chn.2) ****************@

fuse_1:
	.byte	KEYSH , fuse_key+0
@ 000   ----------------------------------------
	.byte	TEMPO , 175*fuse_tbs/2
	.byte		VOICE , 110
	.byte		PAN   , c_v-22
	.byte		VOL   , 105*fuse_mvl/mxv
	.byte		N92   , Fs5 , v088
	.byte	W01
	.byte	W01
	.byte	W01
	.byte	W01
	.byte	W01
	.byte	W01
	.byte	W01
	.byte	W01
	.byte	W01
	.byte	W01
	.byte	W01
	.byte	W01
	.byte	W01
	.byte	W01
	.byte	W01
	.byte	W01
	.byte	W01
	.byte	W01
	.byte	W01
	.byte	W01
	.byte	W01
	.byte	W01
	.byte	W01
	.byte	W01
	.byte	W01
	.byte	W01
	.byte	W01
	.byte	W01
	.byte	W01
	.byte	W01
	.byte	W01
	.byte	W01
	.byte	W01
	.byte	W01
	.byte	W01
	.byte	W01
	.byte	W01
	.byte	W01
	.byte	W01
	.byte	W01
	.byte	W01
	.byte	W01
	.byte	W01
	.byte	W01
	.byte	W01
	.byte	W01
	.byte	W01
	.byte	W01
	.byte	W01
	.byte	W01
	.byte	W01
	.byte	W01
	.byte	W01
	.byte	W01
	.byte	W01
	.byte	W01
	.byte	W01
	.byte	W01
	.byte	W01
	.byte	W01
	.byte	W01
	.byte	W01
	.byte	W01
	.byte	W01
	.byte	W01
	.byte	W01
	.byte	W01
	.byte	W01
	.byte	W01
	.byte	W01
	.byte	W01
	.byte	W01
	.byte	W01
	.byte	W01
	.byte	W01
	.byte	W01
	.byte	W01
	.byte	W01
	.byte	W01
	.byte	W17
@ 001   ----------------------------------------
	.byte	W96
@ 002   ----------------------------------------
	.byte	W96
@ 003   ----------------------------------------
	.byte	W96
@ 004   ----------------------------------------
	.byte	W96
@ 005   ----------------------------------------
	.byte	W96
@ 006   ----------------------------------------
	.byte	W96
@ 007   ----------------------------------------
	.byte	W96
@ 008   ----------------------------------------
	.byte	W96
@ 009   ----------------------------------------
	.byte	W96
@ 010   ----------------------------------------
	.byte	W96
@ 011   ----------------------------------------
	.byte	W96
@ 012   ----------------------------------------
	.byte	W96
@ 013   ----------------------------------------
	.byte	W96
@ 014   ----------------------------------------
	.byte	W96
@ 015   ----------------------------------------
fuse_1_015:
	.byte	W36
	.byte	W01
	.byte		VOL   , 109*fuse_mvl/mxv
	.byte	W56
	.byte	W03
	.byte	PEND
@ 016   ----------------------------------------
	.byte	W72
	.byte		N23   , Cs4 , v096
	.byte	W24
@ 017   ----------------------------------------
fuse_1_017:
	.byte		N32   , Fs4 , v096
	.byte	W36
	.byte		N05   , Gs4 
	.byte	W24
	.byte		        An4 
	.byte	W12
	.byte	PEND
@ 018   ----------------------------------------
fuse_1_018:
	.byte		N32   , Gs4 , v096
	.byte	W36
	.byte		N05   , Fs4 
	.byte	W24
	.byte		        An4 
	.byte	W12
	.byte	PEND
@ 019   ----------------------------------------
	.byte	PATT
	 .word	fuse_1_018
@ 020   ----------------------------------------
	.byte		N44   , Gs4 , v096
	.byte	W48
	.byte		N23   , Fs4 
	.byte	W24
@ 021   ----------------------------------------
	.byte		TIE   , Cs4 
	.byte	W96
@ 022   ----------------------------------------
	.byte	W96
@ 023   ----------------------------------------
	.byte	W96
@ 024   ----------------------------------------
	.byte	W56
	.byte	W03
	.byte		EOT   
	.byte	W13
	.byte		N23   
	.byte	W24
@ 025   ----------------------------------------
	.byte	PATT
	 .word	fuse_1_017
@ 026   ----------------------------------------
	.byte	PATT
	 .word	fuse_1_018
@ 027   ----------------------------------------
	.byte	PATT
	 .word	fuse_1_018
@ 028   ----------------------------------------
	.byte		N32   , Gs4 , v096
	.byte	W36
	.byte		N05   , An4 
	.byte	W24
	.byte		        Bn4 
	.byte	W12
@ 029   ----------------------------------------
	.byte		TIE   , Cs5 
	.byte	W96
@ 030   ----------------------------------------
	.byte	W96
@ 031   ----------------------------------------
	.byte	W96
@ 032   ----------------------------------------
	.byte	W56
	.byte	W03
	.byte		EOT   
	.byte	W36
	.byte	W01
@ 033   ----------------------------------------
	.byte		TIE   , Cs4 , v080
	.byte	W96
@ 034   ----------------------------------------
	.byte	W92
	.byte	W03
	.byte		EOT   
	.byte	W01
@ 035   ----------------------------------------
	.byte		TIE   , Ds4 
	.byte	W96
@ 036   ----------------------------------------
	.byte	W92
	.byte	W03
	.byte		EOT   
	.byte	W01
@ 037   ----------------------------------------
fuse_1_037:
	.byte		N32   , En4 , v084
	.byte	W01
	.byte	W01
	.byte	W01
	.byte	W01
	.byte	W01
	.byte	W01
	.byte	W01
	.byte	W01
	.byte	W01
	.byte	W01
	.byte	W01
	.byte	W01
	.byte	W01
	.byte	W01
	.byte	W22
	.byte		N08   , Ds4 
	.byte	W32
	.byte	W01
	.byte	W01
	.byte	W01
	.byte	W01
	.byte		N32   , En4 
	.byte	W01
	.byte	W01
	.byte	W01
	.byte	W01
	.byte	W01
	.byte	W01
	.byte	W01
	.byte	W01
	.byte	W01
	.byte	W01
	.byte	W01
	.byte	W01
	.byte	W12
	.byte	PEND
@ 038   ----------------------------------------
fuse_1_038:
	.byte	W12
	.byte		N08   , Ds4 , v084
	.byte	W36
	.byte		N11   , En4 
	.byte	W24
	.byte		        Ds4 
	.byte	W24
	.byte	PEND
@ 039   ----------------------------------------
	.byte		TIE   , Dn4 
	.byte	W96
@ 040   ----------------------------------------
	.byte	W92
	.byte	W03
	.byte		EOT   
	.byte	W01
@ 041   ----------------------------------------
	.byte		TIE   , Cs4 , v080
	.byte	W96
@ 042   ----------------------------------------
	.byte	W92
	.byte	W03
	.byte		EOT   
	.byte	W01
@ 043   ----------------------------------------
	.byte		TIE   , Ds4 
	.byte	W96
@ 044   ----------------------------------------
	.byte	W92
	.byte	W03
	.byte		EOT   
	.byte	W01
@ 045   ----------------------------------------
	.byte	PATT
	 .word	fuse_1_037
@ 046   ----------------------------------------
	.byte	PATT
	 .word	fuse_1_038
@ 047   ----------------------------------------
	.byte		TIE   , Dn4 , v084
	.byte	W96
@ 048   ----------------------------------------
	.byte	W44
	.byte	W03
	.byte		EOT   
	.byte	W01
	.byte		N15   , Dn4 , v088
	.byte	W16
	.byte		        Ds4 
	.byte	W16
	.byte		        En4 
	.byte	W16
@ 049   ----------------------------------------
	.byte		TIE   , Fn4 , v092
	.byte	W96
@ 050   ----------------------------------------
	.byte	W96
@ 051   ----------------------------------------
	.byte	W96
@ 052   ----------------------------------------
	.byte	W92
	.byte	W03
	.byte		EOT   
	.byte	W01
@ 053   ----------------------------------------
	.byte	W96
@ 054   ----------------------------------------
	.byte	W96
@ 055   ----------------------------------------
	.byte	W96
@ 056   ----------------------------------------
	.byte	W96
@ 057   ----------------------------------------
	.byte	W96
@ 058   ----------------------------------------
	.byte	W96
@ 059   ----------------------------------------
	.byte	PATT
	 .word	fuse_1_015
@ 060   ----------------------------------------
	.byte	W96
@ 061   ----------------------------------------
	.byte	W96
@ 062   ----------------------------------------
	.byte	W96
@ 063   ----------------------------------------
	.byte	W96
@ 064   ----------------------------------------
	.byte	W96
@ 065   ----------------------------------------
	.byte	W96
@ 066   ----------------------------------------
	.byte	W96
@ 067   ----------------------------------------
	.byte	W96
@ 068   ----------------------------------------
	.byte	W96
@ 069   ----------------------------------------
	.byte	FINE

@**************** Track 2 (Midi-Chn.3) ****************@

fuse_2:
	.byte	KEYSH , fuse_key+0
@ 000   ----------------------------------------
	.byte		VOICE , 48
	.byte		PAN   , c_v+21
	.byte		VOL   , 103*fuse_mvl/mxv
	.byte	W96
@ 001   ----------------------------------------
	.byte	W96
@ 002   ----------------------------------------
	.byte	W96
@ 003   ----------------------------------------
	.byte	W96
@ 004   ----------------------------------------
	.byte	W96
@ 005   ----------------------------------------
	.byte	W96
@ 006   ----------------------------------------
	.byte	W96
@ 007   ----------------------------------------
	.byte	W96
@ 008   ----------------------------------------
	.byte	W96
@ 009   ----------------------------------------
	.byte	W96
@ 010   ----------------------------------------
	.byte	W96
@ 011   ----------------------------------------
	.byte	W96
@ 012   ----------------------------------------
	.byte	W96
@ 013   ----------------------------------------
	.byte	W96
@ 014   ----------------------------------------
	.byte	W96
@ 015   ----------------------------------------
fuse_2_015:
	.byte	W36
	.byte	W03
	.byte		VOL   , 109*fuse_mvl/mxv
	.byte	W56
	.byte	W01
	.byte	PEND
@ 016   ----------------------------------------
	.byte	W72
	.byte		N23   , Cs3 , v088
	.byte	W24
@ 017   ----------------------------------------
fuse_2_017:
	.byte		N32   , Fs3 , v088
	.byte	W36
	.byte		N05   , Gs3 
	.byte	W24
	.byte		        An3 
	.byte	W12
	.byte	PEND
@ 018   ----------------------------------------
fuse_2_018:
	.byte		N32   , Gs3 , v088
	.byte	W36
	.byte		N05   , Fs3 
	.byte	W24
	.byte		        An3 
	.byte	W12
	.byte	PEND
@ 019   ----------------------------------------
	.byte	PATT
	 .word	fuse_2_018
@ 020   ----------------------------------------
	.byte		N44   , Gs3 , v088
	.byte	W48
	.byte		N23   , Fs3 
	.byte	W24
@ 021   ----------------------------------------
	.byte		TIE   , Cs3 
	.byte	W96
@ 022   ----------------------------------------
	.byte	W96
@ 023   ----------------------------------------
	.byte	W96
@ 024   ----------------------------------------
	.byte	W56
	.byte	W03
	.byte		EOT   
	.byte	W13
	.byte		N23   
	.byte	W24
@ 025   ----------------------------------------
	.byte	PATT
	 .word	fuse_2_017
@ 026   ----------------------------------------
	.byte	PATT
	 .word	fuse_2_018
@ 027   ----------------------------------------
	.byte	PATT
	 .word	fuse_2_018
@ 028   ----------------------------------------
	.byte		N32   , Gs3 , v088
	.byte	W36
	.byte		N05   , An3 
	.byte	W24
	.byte		        Bn3 
	.byte	W12
@ 029   ----------------------------------------
	.byte		TIE   , Cs4 
	.byte	W96
@ 030   ----------------------------------------
	.byte	W96
@ 031   ----------------------------------------
	.byte	W96
@ 032   ----------------------------------------
	.byte	W56
	.byte	W03
	.byte		EOT   
	.byte	W36
	.byte	W01
@ 033   ----------------------------------------
	.byte		TIE   , An3 , v080
	.byte	W96
@ 034   ----------------------------------------
	.byte	W92
	.byte	W03
	.byte		EOT   
	.byte	W01
@ 035   ----------------------------------------
	.byte		TIE   , Cn4 
	.byte	W96
@ 036   ----------------------------------------
	.byte	W92
	.byte	W03
	.byte		EOT   
	.byte	W01
@ 037   ----------------------------------------
fuse_2_037:
	.byte		N32   , Cs4 , v084
	.byte	W01
	.byte	W01
	.byte	W01
	.byte	W01
	.byte	W01
	.byte	W01
	.byte	W01
	.byte	W01
	.byte	W01
	.byte	W01
	.byte	W01
	.byte	W01
	.byte	W01
	.byte	W01
	.byte	W22
	.byte		N08   , Cn4 
	.byte	W32
	.byte	W01
	.byte	W01
	.byte	W01
	.byte	W01
	.byte		N32   , Cs4 
	.byte	W01
	.byte	W01
	.byte	W01
	.byte	W01
	.byte	W01
	.byte	W01
	.byte	W01
	.byte	W01
	.byte	W01
	.byte	W01
	.byte	W01
	.byte	W01
	.byte	W12
	.byte	PEND
@ 038   ----------------------------------------
fuse_2_038:
	.byte	W12
	.byte		N08   , Cn4 , v084
	.byte	W36
	.byte		N11   , Cs4 
	.byte	W24
	.byte		        Cn4 
	.byte	W24
	.byte	PEND
@ 039   ----------------------------------------
	.byte		TIE   , Bn3 
	.byte	W96
@ 040   ----------------------------------------
	.byte	W92
	.byte	W03
	.byte		EOT   
	.byte	W01
@ 041   ----------------------------------------
	.byte		TIE   , An3 , v080
	.byte	W96
@ 042   ----------------------------------------
	.byte	W92
	.byte	W03
	.byte		EOT   
	.byte	W01
@ 043   ----------------------------------------
	.byte		TIE   , Cn4 
	.byte	W96
@ 044   ----------------------------------------
	.byte	W92
	.byte	W03
	.byte		EOT   
	.byte	W01
@ 045   ----------------------------------------
	.byte	PATT
	 .word	fuse_2_037
@ 046   ----------------------------------------
	.byte	PATT
	 .word	fuse_2_038
@ 047   ----------------------------------------
	.byte		TIE   , Bn3 , v084
	.byte	W96
@ 048   ----------------------------------------
	.byte	W44
	.byte	W03
	.byte		EOT   
	.byte	W01
	.byte		N15   , Bn3 , v076
	.byte	W16
	.byte		N15   
	.byte	W16
	.byte		        Cn4 
	.byte	W16
@ 049   ----------------------------------------
	.byte		TIE   , Cs4 , v084
	.byte	W96
@ 050   ----------------------------------------
	.byte	W96
@ 051   ----------------------------------------
	.byte	W96
@ 052   ----------------------------------------
	.byte	W92
	.byte	W03
	.byte		EOT   
	.byte	W01
@ 053   ----------------------------------------
	.byte	W96
@ 054   ----------------------------------------
	.byte	W96
@ 055   ----------------------------------------
	.byte	W96
@ 056   ----------------------------------------
	.byte	W96
@ 057   ----------------------------------------
	.byte	W96
@ 058   ----------------------------------------
	.byte	W96
@ 059   ----------------------------------------
	.byte	PATT
	 .word	fuse_2_015
@ 060   ----------------------------------------
	.byte	W96
@ 061   ----------------------------------------
	.byte	W96
@ 062   ----------------------------------------
	.byte	W96
@ 063   ----------------------------------------
	.byte	W96
@ 064   ----------------------------------------
	.byte	W96
@ 065   ----------------------------------------
	.byte	W96
@ 066   ----------------------------------------
	.byte	W96
@ 067   ----------------------------------------
	.byte	W96
@ 068   ----------------------------------------
	.byte	W96
@ 069   ----------------------------------------
	.byte	FINE

@**************** Track 3 (Midi-Chn.4) ****************@

fuse_3:
	.byte	KEYSH , fuse_key+0
@ 000   ----------------------------------------
	.byte		VOICE , 49
	.byte		VOL   , 76*fuse_mvl/mxv
	.byte		PAN   , c_v+0
	.byte	W96
@ 001   ----------------------------------------
	.byte	W96
@ 002   ----------------------------------------
	.byte	W96
@ 003   ----------------------------------------
	.byte	W96
@ 004   ----------------------------------------
	.byte	W96
@ 005   ----------------------------------------
	.byte	W96
@ 006   ----------------------------------------
	.byte	W96
@ 007   ----------------------------------------
	.byte	W96
@ 008   ----------------------------------------
	.byte	W96
@ 009   ----------------------------------------
	.byte	W96
@ 010   ----------------------------------------
	.byte	W96
@ 011   ----------------------------------------
	.byte	W96
@ 012   ----------------------------------------
	.byte	W96
@ 013   ----------------------------------------
	.byte	W96
@ 014   ----------------------------------------
	.byte	W96
@ 015   ----------------------------------------
	.byte	W96
@ 016   ----------------------------------------
	.byte	W96
@ 017   ----------------------------------------
	.byte		N68   , Cs4 , v080
	.byte	W72
@ 018   ----------------------------------------
	.byte		        Bn3 
	.byte	W72
@ 019   ----------------------------------------
	.byte		        Cs4 
	.byte	W72
@ 020   ----------------------------------------
	.byte		        Bn3 
	.byte	W72
@ 021   ----------------------------------------
	.byte		N92   , An3 
	.byte	W96
@ 022   ----------------------------------------
	.byte		        Bn3 
	.byte	W96
@ 023   ----------------------------------------
	.byte		        Cs4 
	.byte	W96
@ 024   ----------------------------------------
	.byte	W96
@ 025   ----------------------------------------
	.byte		N68   
	.byte	W72
@ 026   ----------------------------------------
	.byte		        Bn3 
	.byte	W72
@ 027   ----------------------------------------
	.byte		        Cs4 
	.byte	W72
@ 028   ----------------------------------------
	.byte		        Bn3 
	.byte	W72
@ 029   ----------------------------------------
	.byte		N92   , An3 
	.byte	W96
@ 030   ----------------------------------------
	.byte		        Bn3 
	.byte	W96
@ 031   ----------------------------------------
	.byte		        Cs4 
	.byte	W96
@ 032   ----------------------------------------
	.byte	W96
@ 033   ----------------------------------------
	.byte	W96
@ 034   ----------------------------------------
	.byte	W96
@ 035   ----------------------------------------
	.byte	W96
@ 036   ----------------------------------------
	.byte	W96
@ 037   ----------------------------------------
	.byte	W96
@ 038   ----------------------------------------
	.byte	W96
@ 039   ----------------------------------------
	.byte	W96
@ 040   ----------------------------------------
	.byte	W96
@ 041   ----------------------------------------
	.byte	W96
@ 042   ----------------------------------------
	.byte	W96
@ 043   ----------------------------------------
	.byte	W96
@ 044   ----------------------------------------
	.byte	W96
@ 045   ----------------------------------------
	.byte	W96
@ 046   ----------------------------------------
	.byte	W96
@ 047   ----------------------------------------
	.byte	W96
@ 048   ----------------------------------------
	.byte	W96
@ 049   ----------------------------------------
	.byte	W96
@ 050   ----------------------------------------
	.byte	W96
@ 051   ----------------------------------------
	.byte	W96
@ 052   ----------------------------------------
	.byte	W96
@ 053   ----------------------------------------
	.byte	W96
@ 054   ----------------------------------------
	.byte	W96
@ 055   ----------------------------------------
	.byte	W96
@ 056   ----------------------------------------
	.byte	W96
@ 057   ----------------------------------------
	.byte	W96
@ 058   ----------------------------------------
	.byte	W96
@ 059   ----------------------------------------
	.byte	W96
@ 060   ----------------------------------------
	.byte	W96
@ 061   ----------------------------------------
	.byte	W96
@ 062   ----------------------------------------
	.byte	W96
@ 063   ----------------------------------------
	.byte	W96
@ 064   ----------------------------------------
	.byte	W96
@ 065   ----------------------------------------
	.byte	W96
@ 066   ----------------------------------------
	.byte	W96
@ 067   ----------------------------------------
	.byte	W96
@ 068   ----------------------------------------
	.byte	W96
@ 069   ----------------------------------------
	.byte	FINE

@**************** Track 4 (Midi-Chn.6) ****************@

fuse_4:
	.byte	KEYSH , fuse_key+0
@ 000   ----------------------------------------
	.byte		VOICE , 61
	.byte		PAN   , c_v-28
	.byte		VOL   , 90*fuse_mvl/mxv
	.byte	W96
@ 001   ----------------------------------------
	.byte		N17   , Fs3 , v100
	.byte	W96
@ 002   ----------------------------------------
	.byte	W96
@ 003   ----------------------------------------
	.byte	W96
@ 004   ----------------------------------------
	.byte	W72
	.byte		N11   , En3 
	.byte	W24
@ 005   ----------------------------------------
	.byte		N17   , Fs3 
	.byte	W96
@ 006   ----------------------------------------
	.byte	W96
@ 007   ----------------------------------------
	.byte	W96
@ 008   ----------------------------------------
	.byte	W72
	.byte		N11   , En3 
	.byte	W24
@ 009   ----------------------------------------
	.byte		N17   , Fs3 
	.byte	W96
@ 010   ----------------------------------------
	.byte	W96
@ 011   ----------------------------------------
	.byte	W96
@ 012   ----------------------------------------
	.byte	W72
	.byte		N11   , En3 
	.byte	W24
@ 013   ----------------------------------------
	.byte		N17   , Fs3 
	.byte	W96
@ 014   ----------------------------------------
	.byte	W96
@ 015   ----------------------------------------
	.byte	W96
@ 016   ----------------------------------------
	.byte	W96
@ 017   ----------------------------------------
fuse_4_017:
	.byte		N05   , Cs3 , v096
	.byte	W12
	.byte		N02   
	.byte	W24
	.byte		N02   
	.byte	W24
	.byte		N05   
	.byte	W12
	.byte	PEND
@ 018   ----------------------------------------
fuse_4_018:
	.byte		N05   , Bn2 , v096
	.byte	W12
	.byte		N02   
	.byte	W24
	.byte		N02   
	.byte	W24
	.byte		N05   
	.byte	W12
	.byte	PEND
@ 019   ----------------------------------------
	.byte	PATT
	 .word	fuse_4_017
@ 020   ----------------------------------------
	.byte	PATT
	 .word	fuse_4_018
@ 021   ----------------------------------------
fuse_4_021:
	.byte		N05   , An2 , v096
	.byte	W12
	.byte		N02   
	.byte	W24
	.byte		N02   
	.byte	W24
	.byte		N02   
	.byte	W24
	.byte		N02   
	.byte	W12
	.byte	PEND
@ 022   ----------------------------------------
fuse_4_022:
	.byte		N05   , Bn2 , v096
	.byte	W12
	.byte		N02   
	.byte	W24
	.byte		N02   
	.byte	W24
	.byte		N02   
	.byte	W24
	.byte		N02   
	.byte	W12
	.byte	PEND
@ 023   ----------------------------------------
fuse_4_023:
	.byte		N05   , Cs3 , v096
	.byte	W12
	.byte		N02   
	.byte	W24
	.byte		N02   
	.byte	W24
	.byte		N02   
	.byte	W24
	.byte		N02   
	.byte	W12
	.byte	PEND
@ 024   ----------------------------------------
	.byte		N44   , En3 
	.byte	W48
	.byte		        Ds3 
	.byte	W48
@ 025   ----------------------------------------
	.byte	PATT
	 .word	fuse_4_017
@ 026   ----------------------------------------
	.byte	PATT
	 .word	fuse_4_018
@ 027   ----------------------------------------
	.byte	PATT
	 .word	fuse_4_017
@ 028   ----------------------------------------
	.byte	PATT
	 .word	fuse_4_018
@ 029   ----------------------------------------
	.byte	PATT
	 .word	fuse_4_021
@ 030   ----------------------------------------
	.byte	PATT
	 .word	fuse_4_022
@ 031   ----------------------------------------
	.byte	PATT
	 .word	fuse_4_023
@ 032   ----------------------------------------
	.byte		N44   , En3 , v096
	.byte	W48
	.byte		        Ds3 
	.byte	W48
@ 033   ----------------------------------------
fuse_4_033:
	.byte		N05   , An2 , v080
	.byte		N05   , Cs3 
	.byte	W12
	.byte		        An2 
	.byte		N05   , Cs3 
	.byte	W24
	.byte		        An2 
	.byte		N05   , Cs3 
	.byte	W36
	.byte		        An2 
	.byte		N05   , Cs3 
	.byte	W24
	.byte	PEND
@ 034   ----------------------------------------
fuse_4_034:
	.byte	W12
	.byte		N05   , An2 , v080
	.byte		N05   , Cs3 
	.byte	W36
	.byte		        An2 
	.byte		N05   , Cs3 
	.byte	W48
	.byte	PEND
@ 035   ----------------------------------------
fuse_4_035:
	.byte		N05   , Cn3 , v080
	.byte		N05   , Ds3 
	.byte	W12
	.byte		        Cn3 
	.byte		N05   , Ds3 
	.byte	W24
	.byte		        Cn3 
	.byte		N05   , Ds3 
	.byte	W36
	.byte		        Cn3 
	.byte		N05   , Ds3 
	.byte	W24
	.byte	PEND
@ 036   ----------------------------------------
fuse_4_036:
	.byte	W12
	.byte		N05   , Cn3 , v080
	.byte		N05   , Ds3 
	.byte	W36
	.byte		        Cn3 
	.byte		N05   , Ds3 
	.byte	W44
	.byte	W03
	.byte		N28   , En3 , v088
	.byte	W01
	.byte	PEND
@ 037   ----------------------------------------
fuse_4_037:
	.byte		N28   , Cs3 , v080
	.byte	W36
	.byte		N11   , Cn3 
	.byte		N11   , Ds3 , v088
	.byte	W36
	.byte		N28   , Cs3 , v080
	.byte		N28   , En3 , v088
	.byte	W24
	.byte	PEND
@ 038   ----------------------------------------
fuse_4_038:
	.byte	W12
	.byte		N11   , Cn3 , v080
	.byte		N11   , Ds3 , v088
	.byte	W36
	.byte		        Cs3 , v080
	.byte		N11   , En3 , v088
	.byte	W24
	.byte		        Cn3 , v080
	.byte		N11   , Ds3 , v088
	.byte	W24
	.byte	PEND
@ 039   ----------------------------------------
fuse_4_039:
	.byte		N28   , Bn2 , v084
	.byte		N28   , Dn3 , v088
	.byte	W36
	.byte		N05   , Bn2 , v068
	.byte		N05   , Dn3 
	.byte	W12
	.byte		        Bn2 , v076
	.byte		N05   , Dn3 
	.byte	W12
	.byte		        Bn2 
	.byte		N05   , Dn3 
	.byte	W12
	.byte		N28   , Bn2 , v084
	.byte		N28   , Dn3 , v088
	.byte	W24
	.byte	PEND
@ 040   ----------------------------------------
	.byte	W12
	.byte		N05   , Bn2 , v068
	.byte		N05   , Dn3 , v072
	.byte	W12
	.byte		        Bn2 , v080
	.byte		N05   , Dn3 , v088
	.byte	W12
	.byte		        Bn2 , v080
	.byte		N05   , Dn3 , v088
	.byte	W12
	.byte		N08   , Bn2 , v080
	.byte		N08   , Dn3 , v088
	.byte	W24
	.byte		        Bn2 , v080
	.byte		N05   , Dn3 , v084
	.byte		N08   , En3 , v088
	.byte	W24
@ 041   ----------------------------------------
	.byte	PATT
	 .word	fuse_4_033
@ 042   ----------------------------------------
	.byte	PATT
	 .word	fuse_4_034
@ 043   ----------------------------------------
	.byte	PATT
	 .word	fuse_4_035
@ 044   ----------------------------------------
	.byte	PATT
	 .word	fuse_4_036
@ 045   ----------------------------------------
	.byte	PATT
	 .word	fuse_4_037
@ 046   ----------------------------------------
	.byte	PATT
	 .word	fuse_4_038
@ 047   ----------------------------------------
	.byte	PATT
	 .word	fuse_4_039
@ 048   ----------------------------------------
	.byte	W12
	.byte		N05   , Bn2 , v068
	.byte		N05   , Dn3 
	.byte	W12
	.byte		        Bn2 , v076
	.byte		N05   , Dn3 
	.byte	W12
	.byte		        Bn2 
	.byte		N05   , Dn3 
	.byte	W12
	.byte		N15   , Bn2 , v072
	.byte		N15   , Dn3 , v092
	.byte	W16
	.byte		        Bn2 , v072
	.byte		N15   , Ds3 , v092
	.byte	W16
	.byte		        Cn3 , v072
	.byte		N15   , En3 , v092
	.byte	W16
@ 049   ----------------------------------------
	.byte		TIE   , Cs3 , v076
	.byte		TIE   , Fn3 , v092
	.byte	W96
@ 050   ----------------------------------------
	.byte	W96
@ 051   ----------------------------------------
	.byte	W96
@ 052   ----------------------------------------
	.byte	W92
	.byte	W03
	.byte		EOT   , Cs3 
	.byte		        Fn3 
	.byte	W01
@ 053   ----------------------------------------
	.byte	W96
@ 054   ----------------------------------------
	.byte	W96
@ 055   ----------------------------------------
	.byte	W96
@ 056   ----------------------------------------
	.byte	W72
	.byte		N11   , En2 , v088
	.byte	W24
@ 057   ----------------------------------------
	.byte		N17   , Fs2 
	.byte	W96
@ 058   ----------------------------------------
	.byte	W96
@ 059   ----------------------------------------
	.byte	W96
@ 060   ----------------------------------------
	.byte	W72
	.byte		N11   , En2 
	.byte	W24
@ 061   ----------------------------------------
	.byte		N17   , Fs2 
	.byte	W96
@ 062   ----------------------------------------
	.byte	W96
@ 063   ----------------------------------------
	.byte	W96
@ 064   ----------------------------------------
	.byte	W96
@ 065   ----------------------------------------
	.byte	W96
@ 066   ----------------------------------------
	.byte	W96
@ 067   ----------------------------------------
	.byte	W96
@ 068   ----------------------------------------
	.byte	W96
@ 069   ----------------------------------------
	.byte	FINE

@**************** Track 5 (Midi-Chn.7) ****************@

fuse_5:
	.byte	KEYSH , fuse_key+0
@ 000   ----------------------------------------
	.byte		VOICE , 57
	.byte		PAN   , c_v+29
	.byte		VOL   , 90*fuse_mvl/mxv
	.byte	W90
	.byte		N02   , Fs2 , v080
	.byte	W03
	.byte		N03   , Bn2 
	.byte	W03
@ 001   ----------------------------------------
	.byte		N11   , Cs3 , v100
	.byte	W96
@ 002   ----------------------------------------
	.byte	W96
@ 003   ----------------------------------------
	.byte	W96
@ 004   ----------------------------------------
fuse_5_004:
	.byte	W72
	.byte		N11   , Bn2 , v100
	.byte	W18
	.byte		N02   , Fs2 , v080
	.byte	W03
	.byte		N03   , Bn2 
	.byte	W03
	.byte	PEND
@ 005   ----------------------------------------
	.byte		N11   , Cs3 , v100
	.byte	W96
@ 006   ----------------------------------------
	.byte	W96
@ 007   ----------------------------------------
	.byte	W96
@ 008   ----------------------------------------
	.byte	PATT
	 .word	fuse_5_004
@ 009   ----------------------------------------
	.byte		N11   , Cs3 , v100
	.byte	W96
@ 010   ----------------------------------------
	.byte	W96
@ 011   ----------------------------------------
	.byte	W96
@ 012   ----------------------------------------
	.byte	PATT
	 .word	fuse_5_004
@ 013   ----------------------------------------
	.byte		N11   , Cs3 , v100
	.byte	W96
@ 014   ----------------------------------------
	.byte	W96
@ 015   ----------------------------------------
	.byte	W96
@ 016   ----------------------------------------
	.byte	W96
@ 017   ----------------------------------------
fuse_5_017:
	.byte		N05   , Fs2 , v096
	.byte	W12
	.byte		N02   
	.byte	W24
	.byte		N02   
	.byte	W24
	.byte		N05   
	.byte	W12
	.byte	PEND
@ 018   ----------------------------------------
fuse_5_018:
	.byte		N05   , En2 , v096
	.byte	W12
	.byte		N02   
	.byte	W24
	.byte		N02   
	.byte	W24
	.byte		N05   
	.byte	W12
	.byte	PEND
@ 019   ----------------------------------------
	.byte	PATT
	 .word	fuse_5_017
@ 020   ----------------------------------------
fuse_5_020:
	.byte		N05   , Gs2 , v096
	.byte	W12
	.byte		N02   
	.byte	W24
	.byte		N02   
	.byte	W24
	.byte		N05   
	.byte	W12
	.byte	PEND
@ 021   ----------------------------------------
fuse_5_021:
	.byte		N05   , Fs2 , v096
	.byte	W12
	.byte		N02   
	.byte	W24
	.byte		N02   
	.byte	W24
	.byte		N02   
	.byte	W24
	.byte		N02   
	.byte	W12
	.byte	PEND
@ 022   ----------------------------------------
fuse_5_022:
	.byte		N05   , Gs2 , v096
	.byte	W12
	.byte		N02   
	.byte	W24
	.byte		N02   
	.byte	W24
	.byte		N02   
	.byte	W24
	.byte		N02   
	.byte	W12
	.byte	PEND
@ 023   ----------------------------------------
fuse_5_023:
	.byte		N05   , An2 , v096
	.byte	W12
	.byte		N02   
	.byte	W24
	.byte		N02   
	.byte	W24
	.byte		N02   
	.byte	W24
	.byte		N02   
	.byte	W12
	.byte	PEND
@ 024   ----------------------------------------
fuse_5_024:
	.byte		N44   , Cs3 , v096
	.byte	W48
	.byte		        Bn2 
	.byte	W48
	.byte	PEND
@ 025   ----------------------------------------
	.byte	PATT
	 .word	fuse_5_017
@ 026   ----------------------------------------
	.byte	PATT
	 .word	fuse_5_018
@ 027   ----------------------------------------
	.byte	PATT
	 .word	fuse_5_017
@ 028   ----------------------------------------
	.byte	PATT
	 .word	fuse_5_020
@ 029   ----------------------------------------
	.byte	PATT
	 .word	fuse_5_021
@ 030   ----------------------------------------
	.byte	PATT
	 .word	fuse_5_022
@ 031   ----------------------------------------
	.byte	PATT
	 .word	fuse_5_023
@ 032   ----------------------------------------
	.byte	PATT
	 .word	fuse_5_024
@ 033   ----------------------------------------
fuse_5_033:
	.byte		N05   , Fs2 , v080
	.byte	W12
	.byte		N05   
	.byte	W24
	.byte		N05   
	.byte	W24
	.byte		N05   
	.byte	W12
	.byte		N05   
	.byte	W12
	.byte		N05   
	.byte	W12
	.byte	PEND
@ 034   ----------------------------------------
fuse_5_034:
	.byte	W12
	.byte		N05   , Fs2 , v080
	.byte	W12
	.byte		N05   
	.byte	W12
	.byte		N05   
	.byte	W24
	.byte		N05   
	.byte	W12
	.byte		N05   
	.byte	W12
	.byte		N05   
	.byte	W12
	.byte	PEND
@ 035   ----------------------------------------
fuse_5_035:
	.byte		N05   , Gs2 , v080
	.byte	W12
	.byte		N05   
	.byte	W24
	.byte		N05   
	.byte	W24
	.byte		N05   
	.byte	W12
	.byte		N05   
	.byte	W12
	.byte		N05   
	.byte	W12
	.byte	PEND
@ 036   ----------------------------------------
fuse_5_036:
	.byte	W12
	.byte		N05   , Gs2 , v080
	.byte	W12
	.byte		N05   
	.byte	W12
	.byte		N05   
	.byte	W24
	.byte		N05   
	.byte	W12
	.byte		N05   
	.byte	W12
	.byte		N05   
	.byte	W12
	.byte	PEND
@ 037   ----------------------------------------
fuse_5_037:
	.byte		N28   , An2 , v084
	.byte	W36
	.byte		N11   , Gs2 
	.byte	W36
	.byte		N28   , An2 
	.byte	W24
	.byte	PEND
@ 038   ----------------------------------------
fuse_5_038:
	.byte	W12
	.byte		N11   , Gs2 , v084
	.byte	W36
	.byte		        An2 
	.byte	W24
	.byte		        Gs2 
	.byte	W24
	.byte	PEND
@ 039   ----------------------------------------
	.byte		N30   , Gn2 , v088
	.byte	W36
	.byte		N05   , Gn2 , v068
	.byte	W12
	.byte		        Gn2 , v076
	.byte	W12
	.byte		N05   
	.byte	W12
	.byte		N28   , Gn2 , v088
	.byte	W24
@ 040   ----------------------------------------
	.byte	W12
	.byte		N05   , Gn2 , v068
	.byte	W12
	.byte		        Gn2 , v080
	.byte	W12
	.byte		N05   
	.byte	W12
	.byte		N08   , Gn2 , v084
	.byte	W24
	.byte		        An2 
	.byte	W24
@ 041   ----------------------------------------
	.byte	PATT
	 .word	fuse_5_033
@ 042   ----------------------------------------
	.byte	PATT
	 .word	fuse_5_034
@ 043   ----------------------------------------
	.byte	PATT
	 .word	fuse_5_035
@ 044   ----------------------------------------
	.byte	PATT
	 .word	fuse_5_036
@ 045   ----------------------------------------
	.byte	PATT
	 .word	fuse_5_037
@ 046   ----------------------------------------
	.byte	PATT
	 .word	fuse_5_038
@ 047   ----------------------------------------
	.byte		N28   , Gn2 , v088
	.byte	W36
	.byte		N05   , Gn2 , v068
	.byte	W12
	.byte		        Gn2 , v076
	.byte	W12
	.byte		N05   
	.byte	W12
	.byte		N28   , Gn2 , v088
	.byte	W24
@ 048   ----------------------------------------
	.byte	W12
	.byte		N05   , Gn2 , v068
	.byte	W12
	.byte		        Gn2 , v080
	.byte	W12
	.byte		N05   
	.byte	W12
	.byte		N15   , Gn2 , v088
	.byte	W16
	.byte		        Gs2 
	.byte	W16
	.byte		        An2 
	.byte	W16
@ 049   ----------------------------------------
	.byte		TIE   , As2 , v092
	.byte	W96
@ 050   ----------------------------------------
	.byte	W96
@ 051   ----------------------------------------
	.byte	W96
@ 052   ----------------------------------------
	.byte	W92
	.byte	W03
	.byte		EOT   
	.byte	W01
@ 053   ----------------------------------------
	.byte	W96
@ 054   ----------------------------------------
	.byte	W96
@ 055   ----------------------------------------
	.byte	W96
@ 056   ----------------------------------------
	.byte	PATT
	 .word	fuse_5_004
@ 057   ----------------------------------------
	.byte		N11   , Cs3 , v100
	.byte	W96
@ 058   ----------------------------------------
	.byte	W96
@ 059   ----------------------------------------
	.byte	W96
@ 060   ----------------------------------------
	.byte	PATT
	 .word	fuse_5_004
@ 061   ----------------------------------------
	.byte		N11   , Cs3 , v100
	.byte	W96
@ 062   ----------------------------------------
	.byte	W96
@ 063   ----------------------------------------
	.byte	W96
@ 064   ----------------------------------------
	.byte	W96
@ 065   ----------------------------------------
	.byte	W96
@ 066   ----------------------------------------
	.byte	W96
@ 067   ----------------------------------------
	.byte	W96
@ 068   ----------------------------------------
	.byte	W96
@ 069   ----------------------------------------
	.byte	FINE

@**************** Track 6 (Midi-Chn.13) ****************@

fuse_6:
	.byte	KEYSH , fuse_key+0
@ 000   ----------------------------------------
	.byte		VOICE , 48
	.byte		PAN   , c_v+0
	.byte		VOL   , 100*fuse_mvl/mxv
	.byte	W96
@ 001   ----------------------------------------
	.byte	W96
@ 002   ----------------------------------------
	.byte	W96
@ 003   ----------------------------------------
	.byte	W96
@ 004   ----------------------------------------
	.byte	W96
@ 005   ----------------------------------------
	.byte	W96
@ 006   ----------------------------------------
	.byte	W96
@ 007   ----------------------------------------
	.byte	W96
@ 008   ----------------------------------------
	.byte	W96
@ 009   ----------------------------------------
	.byte	W96
@ 010   ----------------------------------------
	.byte	W96
@ 011   ----------------------------------------
	.byte	W96
@ 012   ----------------------------------------
	.byte	W96
@ 013   ----------------------------------------
	.byte	W96
@ 014   ----------------------------------------
	.byte	W96
@ 015   ----------------------------------------
	.byte	W96
@ 016   ----------------------------------------
	.byte	W40
	.byte	W02
	.byte		        105*fuse_mvl/mxv
	.byte	W01
	.byte	W28
	.byte	W01
	.byte		N23   , Cs3 , v080
	.byte	W24
@ 017   ----------------------------------------
	.byte		N68   , Fs3 
	.byte	W72
@ 018   ----------------------------------------
	.byte		        En3 
	.byte	W72
@ 019   ----------------------------------------
	.byte		        Fs3 
	.byte	W72
@ 020   ----------------------------------------
	.byte		        Gs3 
	.byte	W72
@ 021   ----------------------------------------
	.byte		N92   , Fs3 
	.byte	W96
@ 022   ----------------------------------------
	.byte		        Gs3 
	.byte	W96
@ 023   ----------------------------------------
	.byte		        Fs3 
	.byte	W96
@ 024   ----------------------------------------
	.byte	W72
	.byte		N23   , En0 , v096
	.byte	W24
@ 025   ----------------------------------------
	.byte		N68   , Fs3 , v080
	.byte	W72
@ 026   ----------------------------------------
	.byte		        En3 
	.byte	W72
@ 027   ----------------------------------------
	.byte		        Fs3 
	.byte	W72
@ 028   ----------------------------------------
	.byte		        Gs3 
	.byte	W72
@ 029   ----------------------------------------
	.byte		N92   , Fs3 
	.byte	W96
@ 030   ----------------------------------------
	.byte		        Gs3 
	.byte	W96
@ 031   ----------------------------------------
	.byte		        An3 
	.byte	W96
@ 032   ----------------------------------------
	.byte		        Bn3 
	.byte	W72
	.byte		N23   , En0 , v096
	.byte	W24
@ 033   ----------------------------------------
	.byte	W96
@ 034   ----------------------------------------
	.byte	W96
@ 035   ----------------------------------------
	.byte	W96
@ 036   ----------------------------------------
	.byte	W96
@ 037   ----------------------------------------
	.byte	W96
@ 038   ----------------------------------------
	.byte	W96
@ 039   ----------------------------------------
	.byte	W96
@ 040   ----------------------------------------
	.byte	W96
@ 041   ----------------------------------------
	.byte	W96
@ 042   ----------------------------------------
	.byte	W96
@ 043   ----------------------------------------
	.byte	W96
@ 044   ----------------------------------------
	.byte	W96
@ 045   ----------------------------------------
	.byte	W96
@ 046   ----------------------------------------
	.byte	W96
@ 047   ----------------------------------------
	.byte	W96
@ 048   ----------------------------------------
	.byte	W96
@ 049   ----------------------------------------
	.byte	W96
@ 050   ----------------------------------------
	.byte	W96
@ 051   ----------------------------------------
	.byte	W96
@ 052   ----------------------------------------
	.byte	W96
@ 053   ----------------------------------------
	.byte	W96
@ 054   ----------------------------------------
	.byte	W96
@ 055   ----------------------------------------
	.byte	W96
@ 056   ----------------------------------------
	.byte	W96
@ 057   ----------------------------------------
	.byte	W96
@ 058   ----------------------------------------
	.byte	W96
@ 059   ----------------------------------------
	.byte	W96
@ 060   ----------------------------------------
	.byte	W96
@ 061   ----------------------------------------
	.byte	W96
@ 062   ----------------------------------------
	.byte	W96
@ 063   ----------------------------------------
	.byte	W96
@ 064   ----------------------------------------
	.byte	W96
@ 065   ----------------------------------------
	.byte	W96
@ 066   ----------------------------------------
	.byte	W96
@ 067   ----------------------------------------
	.byte	W96
@ 068   ----------------------------------------
	.byte	W96
@ 069   ----------------------------------------
	.byte	FINE

@**************** Track 7 (Midi-Chn.5) ****************@

fuse_7:
	.byte	KEYSH , fuse_key+0
@ 000   ----------------------------------------
	.byte		VOICE , 48
	.byte		VOL   , 76*fuse_mvl/mxv
	.byte		PAN   , c_v+0
	.byte	W96
@ 001   ----------------------------------------
	.byte		TIE   , Fs0 , v096
	.byte	W96
@ 002   ----------------------------------------
	.byte	W96
@ 003   ----------------------------------------
	.byte	W96
@ 004   ----------------------------------------
	.byte	W68
	.byte	W03
	.byte		EOT   
	.byte	W01
	.byte		N23   , En0 
	.byte	W24
@ 005   ----------------------------------------
	.byte		TIE   , Fs0 
	.byte	W96
@ 006   ----------------------------------------
	.byte	W96
@ 007   ----------------------------------------
	.byte	W96
@ 008   ----------------------------------------
	.byte	W68
	.byte	W03
	.byte		EOT   
	.byte	W01
	.byte		N23   , En0 
	.byte	W24
@ 009   ----------------------------------------
	.byte		TIE   , Fs0 
	.byte	W96
@ 010   ----------------------------------------
	.byte	W96
@ 011   ----------------------------------------
	.byte	W96
@ 012   ----------------------------------------
	.byte	W68
	.byte	W03
	.byte		EOT   
	.byte	W01
	.byte		N23   , En0 
	.byte	W24
@ 013   ----------------------------------------
	.byte		TIE   , Fs0 
	.byte	W96
@ 014   ----------------------------------------
	.byte	W96
@ 015   ----------------------------------------
	.byte	W96
@ 016   ----------------------------------------
	.byte	W68
	.byte	W03
	.byte		EOT   
	.byte	W24
	.byte	W01
@ 017   ----------------------------------------
	.byte	W72
@ 018   ----------------------------------------
	.byte	W72
@ 019   ----------------------------------------
	.byte	W72
@ 020   ----------------------------------------
	.byte	W72
@ 021   ----------------------------------------
	.byte	W96
@ 022   ----------------------------------------
	.byte	W96
@ 023   ----------------------------------------
	.byte	W96
@ 024   ----------------------------------------
	.byte	W96
@ 025   ----------------------------------------
	.byte	W72
@ 026   ----------------------------------------
	.byte	W72
@ 027   ----------------------------------------
	.byte	W72
@ 028   ----------------------------------------
	.byte	W72
@ 029   ----------------------------------------
	.byte	W96
@ 030   ----------------------------------------
	.byte	W96
@ 031   ----------------------------------------
	.byte	W96
@ 032   ----------------------------------------
	.byte	W96
@ 033   ----------------------------------------
	.byte	W96
@ 034   ----------------------------------------
	.byte	W96
@ 035   ----------------------------------------
	.byte	W96
@ 036   ----------------------------------------
	.byte	W96
@ 037   ----------------------------------------
	.byte	W96
@ 038   ----------------------------------------
	.byte	W96
@ 039   ----------------------------------------
	.byte	W96
@ 040   ----------------------------------------
	.byte	W96
@ 041   ----------------------------------------
	.byte	W96
@ 042   ----------------------------------------
	.byte	W96
@ 043   ----------------------------------------
	.byte	W96
@ 044   ----------------------------------------
	.byte	W96
@ 045   ----------------------------------------
	.byte	W96
@ 046   ----------------------------------------
	.byte	W96
@ 047   ----------------------------------------
	.byte	W96
@ 048   ----------------------------------------
	.byte	W96
@ 049   ----------------------------------------
	.byte	W96
@ 050   ----------------------------------------
	.byte	W96
@ 051   ----------------------------------------
	.byte	W96
@ 052   ----------------------------------------
	.byte	W96
@ 053   ----------------------------------------
	.byte		TIE   
	.byte	W96
@ 054   ----------------------------------------
	.byte	W96
@ 055   ----------------------------------------
	.byte	W96
@ 056   ----------------------------------------
	.byte	W68
	.byte	W03
	.byte		EOT   
	.byte	W01
	.byte		N23   , En0 
	.byte	W24
@ 057   ----------------------------------------
	.byte		TIE   , Fs0 
	.byte	W96
@ 058   ----------------------------------------
	.byte	W96
@ 059   ----------------------------------------
	.byte	W96
	.byte		EOT   
@ 060   ----------------------------------------
	.byte		N68   
	.byte	W72
	.byte		N23   , En0 
	.byte	W24
@ 061   ----------------------------------------
	.byte	W96
@ 062   ----------------------------------------
	.byte	W96
@ 063   ----------------------------------------
	.byte	W96
@ 064   ----------------------------------------
	.byte	W96
@ 065   ----------------------------------------
	.byte	W96
@ 066   ----------------------------------------
	.byte	W96
@ 067   ----------------------------------------
	.byte	W96
@ 068   ----------------------------------------
	.byte	W96
@ 069   ----------------------------------------
	.byte	FINE

@**************** Track 8 (Midi-Chn.9) ****************@

fuse_8:
	.byte	KEYSH , fuse_key+0
@ 000   ----------------------------------------
	.byte		VOICE , 46
	.byte		VOL   , 90*fuse_mvl/mxv
	.byte		PAN   , c_v+0
	.byte	W84
	.byte	W03
	.byte		N02   , Fs3 , v088
	.byte	W03
	.byte		        Bn3 
	.byte	W02
	.byte		        Cs4 
	.byte	W04
@ 001   ----------------------------------------
	.byte		N44   , Fs4 
	.byte	W96
@ 002   ----------------------------------------
	.byte	W96
@ 003   ----------------------------------------
	.byte	W96
@ 004   ----------------------------------------
fuse_8_004:
	.byte	W84
	.byte	W03
	.byte		N02   , Fs3 , v088
	.byte	W03
	.byte		        Bn3 
	.byte	W02
	.byte		        Cs4 
	.byte	W04
	.byte	PEND
@ 005   ----------------------------------------
	.byte		N44   , Fs4 
	.byte	W96
@ 006   ----------------------------------------
	.byte	W96
@ 007   ----------------------------------------
	.byte	W96
@ 008   ----------------------------------------
	.byte	PATT
	 .word	fuse_8_004
@ 009   ----------------------------------------
	.byte		N44   , Fs4 , v088
	.byte	W96
@ 010   ----------------------------------------
	.byte	W96
@ 011   ----------------------------------------
	.byte	W96
@ 012   ----------------------------------------
	.byte	PATT
	 .word	fuse_8_004
@ 013   ----------------------------------------
	.byte		N44   , Fs4 , v088
	.byte	W96
@ 014   ----------------------------------------
	.byte	W96
@ 015   ----------------------------------------
	.byte	W96
@ 016   ----------------------------------------
	.byte	W96
@ 017   ----------------------------------------
	.byte	W72
@ 018   ----------------------------------------
	.byte	W72
@ 019   ----------------------------------------
	.byte	W72
@ 020   ----------------------------------------
	.byte	W72
@ 021   ----------------------------------------
	.byte	W96
@ 022   ----------------------------------------
	.byte	W96
@ 023   ----------------------------------------
	.byte	W96
@ 024   ----------------------------------------
	.byte	W96
@ 025   ----------------------------------------
	.byte	W72
@ 026   ----------------------------------------
	.byte	W72
@ 027   ----------------------------------------
	.byte	W72
@ 028   ----------------------------------------
	.byte	W72
@ 029   ----------------------------------------
	.byte	W96
@ 030   ----------------------------------------
	.byte	W96
@ 031   ----------------------------------------
	.byte	W96
@ 032   ----------------------------------------
	.byte	W96
@ 033   ----------------------------------------
	.byte	W96
@ 034   ----------------------------------------
	.byte	W96
@ 035   ----------------------------------------
	.byte	W96
@ 036   ----------------------------------------
	.byte	W96
@ 037   ----------------------------------------
	.byte	W96
@ 038   ----------------------------------------
	.byte	W96
@ 039   ----------------------------------------
	.byte	W96
@ 040   ----------------------------------------
	.byte	W96
@ 041   ----------------------------------------
	.byte	W96
@ 042   ----------------------------------------
	.byte	W96
@ 043   ----------------------------------------
	.byte	W96
@ 044   ----------------------------------------
	.byte	W96
@ 045   ----------------------------------------
	.byte	W96
@ 046   ----------------------------------------
	.byte	W96
@ 047   ----------------------------------------
	.byte	W96
@ 048   ----------------------------------------
	.byte	W96
@ 049   ----------------------------------------
	.byte	W96
@ 050   ----------------------------------------
	.byte	W96
@ 051   ----------------------------------------
	.byte	W96
@ 052   ----------------------------------------
	.byte	W96
@ 053   ----------------------------------------
	.byte	W96
@ 054   ----------------------------------------
	.byte	W96
@ 055   ----------------------------------------
	.byte	W96
@ 056   ----------------------------------------
	.byte	PATT
	 .word	fuse_8_004
@ 057   ----------------------------------------
	.byte		N44   , Fs4 , v088
	.byte	W96
@ 058   ----------------------------------------
	.byte	W96
@ 059   ----------------------------------------
	.byte	W96
@ 060   ----------------------------------------
	.byte	PATT
	 .word	fuse_8_004
@ 061   ----------------------------------------
	.byte		N44   , Fs4 , v088
	.byte	W96
@ 062   ----------------------------------------
	.byte	W96
@ 063   ----------------------------------------
	.byte	W96
@ 064   ----------------------------------------
	.byte	W96
@ 065   ----------------------------------------
	.byte	W96
@ 066   ----------------------------------------
	.byte	W96
@ 067   ----------------------------------------
	.byte	W96
@ 068   ----------------------------------------
	.byte	W96
@ 069   ----------------------------------------
	.byte	FINE

@**************** Track 9 (Midi-Chn.11) ****************@

fuse_9:
	.byte	KEYSH , fuse_key+0
@ 000   ----------------------------------------
	.byte		VOICE , 81
	.byte		PAN   , c_v+0
	.byte		VOL   , 100*fuse_mvl/mxv
	.byte	W96
@ 001   ----------------------------------------
	.byte	W96
@ 002   ----------------------------------------
	.byte	W96
@ 003   ----------------------------------------
	.byte	W96
@ 004   ----------------------------------------
	.byte	W96
@ 005   ----------------------------------------
	.byte	W96
@ 006   ----------------------------------------
	.byte	W96
@ 007   ----------------------------------------
	.byte	W96
@ 008   ----------------------------------------
	.byte	W68
	.byte	W03
	.byte		PAN   , c_v+17
	.byte	W13
	.byte		VOL   , 75*fuse_mvl/mxv
	.byte	W12
@ 009   ----------------------------------------
fuse_9_009:
	.byte		N11   , Fs2 , v080
	.byte	W12
	.byte		        Fs3 
	.byte	W12
	.byte		        Fs2 
	.byte	W12
	.byte		        Fs3 
	.byte	W12
	.byte		        Fs2 
	.byte	W12
	.byte		        Fs3 
	.byte	W12
	.byte		        Fs2 
	.byte	W12
	.byte		        Fs3 
	.byte	W12
	.byte	PEND
@ 010   ----------------------------------------
	.byte	PATT
	 .word	fuse_9_009
@ 011   ----------------------------------------
	.byte	PATT
	 .word	fuse_9_009
@ 012   ----------------------------------------
	.byte	PATT
	 .word	fuse_9_009
@ 013   ----------------------------------------
	.byte	PATT
	 .word	fuse_9_009
@ 014   ----------------------------------------
	.byte	PATT
	 .word	fuse_9_009
@ 015   ----------------------------------------
	.byte	PATT
	 .word	fuse_9_009
@ 016   ----------------------------------------
	.byte		N11   , Fs2 , v080
	.byte	W12
	.byte		        Fs3 
	.byte	W12
	.byte		        Fs2 
	.byte	W12
	.byte		        Fs3 
	.byte	W12
	.byte		        Fs2 
	.byte	W12
	.byte		        Fs3 
	.byte	W12
	.byte		        Fs2 
	.byte	W12
	.byte		        Fs3 
	.byte	W09
	.byte		VOL   , 81*fuse_mvl/mxv
	.byte	W03
@ 017   ----------------------------------------
fuse_9_017:
	.byte		N11   , Fs2 , v080
	.byte	W12
	.byte		        Fs3 
	.byte	W12
	.byte		        Fs2 
	.byte	W12
	.byte		        Fs3 
	.byte	W12
	.byte		        Fs2 
	.byte	W12
	.byte		        Fs3 
	.byte	W12
	.byte	PEND
@ 018   ----------------------------------------
	.byte	PATT
	 .word	fuse_9_017
@ 019   ----------------------------------------
	.byte	PATT
	 .word	fuse_9_017
@ 020   ----------------------------------------
	.byte	PATT
	 .word	fuse_9_017
@ 021   ----------------------------------------
	.byte	PATT
	 .word	fuse_9_009
@ 022   ----------------------------------------
	.byte	PATT
	 .word	fuse_9_009
@ 023   ----------------------------------------
	.byte	PATT
	 .word	fuse_9_009
@ 024   ----------------------------------------
	.byte	PATT
	 .word	fuse_9_009
@ 025   ----------------------------------------
	.byte	PATT
	 .word	fuse_9_017
@ 026   ----------------------------------------
	.byte	PATT
	 .word	fuse_9_017
@ 027   ----------------------------------------
	.byte	PATT
	 .word	fuse_9_017
@ 028   ----------------------------------------
	.byte	PATT
	 .word	fuse_9_017
@ 029   ----------------------------------------
	.byte	PATT
	 .word	fuse_9_009
@ 030   ----------------------------------------
	.byte	PATT
	 .word	fuse_9_009
@ 031   ----------------------------------------
	.byte	PATT
	 .word	fuse_9_009
@ 032   ----------------------------------------
	.byte	PATT
	 .word	fuse_9_009
@ 033   ----------------------------------------
	.byte	PATT
	 .word	fuse_9_009
@ 034   ----------------------------------------
	.byte	PATT
	 .word	fuse_9_009
@ 035   ----------------------------------------
	.byte	PATT
	 .word	fuse_9_009
@ 036   ----------------------------------------
	.byte	PATT
	 .word	fuse_9_009
@ 037   ----------------------------------------
	.byte	PATT
	 .word	fuse_9_009
@ 038   ----------------------------------------
	.byte	PATT
	 .word	fuse_9_009
@ 039   ----------------------------------------
	.byte	PATT
	 .word	fuse_9_009
@ 040   ----------------------------------------
	.byte	PATT
	 .word	fuse_9_009
@ 041   ----------------------------------------
	.byte	PATT
	 .word	fuse_9_009
@ 042   ----------------------------------------
	.byte	PATT
	 .word	fuse_9_009
@ 043   ----------------------------------------
	.byte	PATT
	 .word	fuse_9_009
@ 044   ----------------------------------------
	.byte	PATT
	 .word	fuse_9_009
@ 045   ----------------------------------------
	.byte	PATT
	 .word	fuse_9_009
@ 046   ----------------------------------------
	.byte	PATT
	 .word	fuse_9_009
@ 047   ----------------------------------------
	.byte	PATT
	 .word	fuse_9_009
@ 048   ----------------------------------------
	.byte	PATT
	 .word	fuse_9_009
@ 049   ----------------------------------------
	.byte	PATT
	 .word	fuse_9_009
@ 050   ----------------------------------------
	.byte	PATT
	 .word	fuse_9_009
@ 051   ----------------------------------------
	.byte	PATT
	 .word	fuse_9_009
@ 052   ----------------------------------------
	.byte	PATT
	 .word	fuse_9_009
@ 053   ----------------------------------------
	.byte	PATT
	 .word	fuse_9_009
@ 054   ----------------------------------------
	.byte	PATT
	 .word	fuse_9_009
@ 055   ----------------------------------------
	.byte	PATT
	 .word	fuse_9_009
@ 056   ----------------------------------------
	.byte	PATT
	 .word	fuse_9_009
@ 057   ----------------------------------------
	.byte	PATT
	 .word	fuse_9_009
@ 058   ----------------------------------------
	.byte	PATT
	 .word	fuse_9_009
@ 059   ----------------------------------------
	.byte	PATT
	 .word	fuse_9_009
@ 060   ----------------------------------------
	.byte	PATT
	 .word	fuse_9_009
@ 061   ----------------------------------------
	.byte	PATT
	 .word	fuse_9_009
@ 062   ----------------------------------------
	.byte	PATT
	 .word	fuse_9_009
@ 063   ----------------------------------------
	.byte	W96
@ 064   ----------------------------------------
	.byte	W96
@ 065   ----------------------------------------
	.byte	W96
@ 066   ----------------------------------------
	.byte	W96
@ 067   ----------------------------------------
	.byte	W96
@ 068   ----------------------------------------
	.byte	W96
@ 069   ----------------------------------------
	.byte	FINE

@**************** Track 10 (Midi-Chn.12) ****************@

fuse_10:
	.byte	KEYSH , fuse_key+0
@ 000   ----------------------------------------
	.byte		VOICE , 33
	.byte		PAN   , c_v+0
	.byte		VOL   , 100*fuse_mvl/mxv
	.byte	W96
@ 001   ----------------------------------------
	.byte	W96
@ 002   ----------------------------------------
	.byte	W96
@ 003   ----------------------------------------
	.byte	W96
@ 004   ----------------------------------------
	.byte	W96
@ 005   ----------------------------------------
	.byte	W96
@ 006   ----------------------------------------
	.byte	W96
@ 007   ----------------------------------------
	.byte	W96
@ 008   ----------------------------------------
	.byte	W05
	.byte		PAN   , c_v+17
	.byte	W54
	.byte	W01
	.byte	W08
	.byte	W13
	.byte		VOL   , 85*fuse_mvl/mxv
	.byte	W15
@ 009   ----------------------------------------
fuse_10_009:
	.byte		N11   , Fs1 , v080
	.byte	W12
	.byte		        Fs2 
	.byte	W12
	.byte		        Fs1 
	.byte	W12
	.byte		        Fs2 
	.byte	W12
	.byte		        Fs1 
	.byte	W12
	.byte		        Fs2 
	.byte	W12
	.byte		        Fs1 
	.byte	W12
	.byte		        Fs2 
	.byte	W12
	.byte	PEND
@ 010   ----------------------------------------
	.byte	PATT
	 .word	fuse_10_009
@ 011   ----------------------------------------
	.byte	PATT
	 .word	fuse_10_009
@ 012   ----------------------------------------
	.byte	PATT
	 .word	fuse_10_009
@ 013   ----------------------------------------
	.byte	PATT
	 .word	fuse_10_009
@ 014   ----------------------------------------
	.byte	PATT
	 .word	fuse_10_009
@ 015   ----------------------------------------
	.byte	PATT
	 .word	fuse_10_009
@ 016   ----------------------------------------
	.byte	PATT
	 .word	fuse_10_009
@ 017   ----------------------------------------
fuse_10_017:
	.byte		N11   , Fs1 , v080
	.byte	W12
	.byte		        Fs2 
	.byte	W12
	.byte		        Fs1 
	.byte	W12
	.byte		        Fs2 
	.byte	W12
	.byte		        Fs1 
	.byte	W12
	.byte		        Fs2 
	.byte	W12
	.byte	PEND
@ 018   ----------------------------------------
	.byte	PATT
	 .word	fuse_10_017
@ 019   ----------------------------------------
	.byte	PATT
	 .word	fuse_10_017
@ 020   ----------------------------------------
	.byte	PATT
	 .word	fuse_10_017
@ 021   ----------------------------------------
	.byte	PATT
	 .word	fuse_10_009
@ 022   ----------------------------------------
	.byte	PATT
	 .word	fuse_10_009
@ 023   ----------------------------------------
	.byte	PATT
	 .word	fuse_10_009
@ 024   ----------------------------------------
	.byte	PATT
	 .word	fuse_10_009
@ 025   ----------------------------------------
	.byte	PATT
	 .word	fuse_10_017
@ 026   ----------------------------------------
	.byte	PATT
	 .word	fuse_10_017
@ 027   ----------------------------------------
	.byte	PATT
	 .word	fuse_10_017
@ 028   ----------------------------------------
	.byte	PATT
	 .word	fuse_10_017
@ 029   ----------------------------------------
	.byte	PATT
	 .word	fuse_10_009
@ 030   ----------------------------------------
	.byte	PATT
	 .word	fuse_10_009
@ 031   ----------------------------------------
	.byte	PATT
	 .word	fuse_10_009
@ 032   ----------------------------------------
	.byte	PATT
	 .word	fuse_10_009
@ 033   ----------------------------------------
	.byte	PATT
	 .word	fuse_10_009
@ 034   ----------------------------------------
	.byte	PATT
	 .word	fuse_10_009
@ 035   ----------------------------------------
	.byte	PATT
	 .word	fuse_10_009
@ 036   ----------------------------------------
	.byte	PATT
	 .word	fuse_10_009
@ 037   ----------------------------------------
	.byte	PATT
	 .word	fuse_10_009
@ 038   ----------------------------------------
	.byte	PATT
	 .word	fuse_10_009
@ 039   ----------------------------------------
	.byte	PATT
	 .word	fuse_10_009
@ 040   ----------------------------------------
	.byte	PATT
	 .word	fuse_10_009
@ 041   ----------------------------------------
	.byte	PATT
	 .word	fuse_10_009
@ 042   ----------------------------------------
	.byte	PATT
	 .word	fuse_10_009
@ 043   ----------------------------------------
	.byte	PATT
	 .word	fuse_10_009
@ 044   ----------------------------------------
	.byte	PATT
	 .word	fuse_10_009
@ 045   ----------------------------------------
	.byte	PATT
	 .word	fuse_10_009
@ 046   ----------------------------------------
	.byte	PATT
	 .word	fuse_10_009
@ 047   ----------------------------------------
	.byte	PATT
	 .word	fuse_10_009
@ 048   ----------------------------------------
	.byte	PATT
	 .word	fuse_10_009
@ 049   ----------------------------------------
	.byte	PATT
	 .word	fuse_10_009
@ 050   ----------------------------------------
	.byte	PATT
	 .word	fuse_10_009
@ 051   ----------------------------------------
	.byte	PATT
	 .word	fuse_10_009
@ 052   ----------------------------------------
	.byte	PATT
	 .word	fuse_10_009
@ 053   ----------------------------------------
	.byte	PATT
	 .word	fuse_10_009
@ 054   ----------------------------------------
	.byte	PATT
	 .word	fuse_10_009
@ 055   ----------------------------------------
	.byte	PATT
	 .word	fuse_10_009
@ 056   ----------------------------------------
	.byte	PATT
	 .word	fuse_10_009
@ 057   ----------------------------------------
	.byte	PATT
	 .word	fuse_10_009
@ 058   ----------------------------------------
	.byte	PATT
	 .word	fuse_10_009
@ 059   ----------------------------------------
	.byte	PATT
	 .word	fuse_10_009
@ 060   ----------------------------------------
	.byte	PATT
	 .word	fuse_10_009
@ 061   ----------------------------------------
	.byte	PATT
	 .word	fuse_10_009
@ 062   ----------------------------------------
	.byte	PATT
	 .word	fuse_10_009
@ 063   ----------------------------------------
	.byte	W96
@ 064   ----------------------------------------
	.byte	W96
@ 065   ----------------------------------------
	.byte	W96
@ 066   ----------------------------------------
	.byte	W96
@ 067   ----------------------------------------
	.byte	W96
@ 068   ----------------------------------------
	.byte	W96
@ 069   ----------------------------------------
	.byte	FINE

@**************** Track 11 (Midi-Chn.8) ****************@

fuse_11:
	.byte	KEYSH , fuse_key+0
@ 000   ----------------------------------------
	.byte		VOICE , 47
	.byte		VOL   , 91*fuse_mvl/mxv
	.byte		PAN   , c_v+0
	.byte	W96
@ 001   ----------------------------------------
	.byte		N23   , Fs1 , v088
	.byte	W96
@ 002   ----------------------------------------
	.byte	W84
	.byte		N11   
	.byte	W12
@ 003   ----------------------------------------
fuse_11_003:
	.byte		N11   , Fs1 , v088
	.byte	W12
	.byte		N11   
	.byte	W84
	.byte	PEND
@ 004   ----------------------------------------
	.byte	W72
	.byte		N23   , En1 
	.byte	W24
@ 005   ----------------------------------------
	.byte		        Fs1 
	.byte	W96
@ 006   ----------------------------------------
	.byte	W84
	.byte		N11   
	.byte	W12
@ 007   ----------------------------------------
	.byte	PATT
	 .word	fuse_11_003
@ 008   ----------------------------------------
	.byte	W72
	.byte		N23   , En1 , v088
	.byte	W24
@ 009   ----------------------------------------
fuse_11_009:
	.byte		N23   , Fs1 , v088
	.byte	W84
	.byte		N11   
	.byte	W12
	.byte	PEND
@ 010   ----------------------------------------
fuse_11_010:
	.byte		N11   , Fs1 , v088
	.byte	W12
	.byte		N11   
	.byte	W72
	.byte		N11   
	.byte	W12
	.byte	PEND
@ 011   ----------------------------------------
	.byte	PATT
	 .word	fuse_11_003
@ 012   ----------------------------------------
fuse_11_012:
	.byte		N11   , Fs1 , v088
	.byte	W12
	.byte		N11   
	.byte	W24
	.byte		N11   
	.byte	W24
	.byte		N11   
	.byte	W12
	.byte		N23   , En1 
	.byte	W24
	.byte	PEND
@ 013   ----------------------------------------
	.byte	PATT
	 .word	fuse_11_009
@ 014   ----------------------------------------
	.byte	PATT
	 .word	fuse_11_010
@ 015   ----------------------------------------
	.byte	PATT
	 .word	fuse_11_003
@ 016   ----------------------------------------
	.byte	PATT
	 .word	fuse_11_012
@ 017   ----------------------------------------
fuse_11_017:
	.byte		N23   , Fs1 , v100
	.byte	W60
	.byte		N11   , Cs2 
	.byte	W12
	.byte	PEND
@ 018   ----------------------------------------
	.byte		N23   , Fs1 
	.byte	W72
@ 019   ----------------------------------------
	.byte	PATT
	 .word	fuse_11_017
@ 020   ----------------------------------------
	.byte		N23   , Fs1 , v100
	.byte	W72
@ 021   ----------------------------------------
fuse_11_021:
	.byte		N23   , Fs1 , v100
	.byte	W84
	.byte		N11   
	.byte	W12
	.byte	PEND
@ 022   ----------------------------------------
fuse_11_022:
	.byte		N11   , Fs1 , v100
	.byte	W12
	.byte		N23   
	.byte	W72
	.byte		N11   
	.byte	W12
	.byte	PEND
@ 023   ----------------------------------------
	.byte	PATT
	 .word	fuse_11_022
@ 024   ----------------------------------------
fuse_11_024:
	.byte		N11   , Fs1 , v100
	.byte	W12
	.byte		N23   
	.byte	W60
	.byte		N11   , En1 
	.byte	W12
	.byte		        En1 , v092
	.byte	W12
	.byte	PEND
@ 025   ----------------------------------------
	.byte	PATT
	 .word	fuse_11_017
@ 026   ----------------------------------------
	.byte		N23   , Fs1 , v100
	.byte	W72
@ 027   ----------------------------------------
	.byte	PATT
	 .word	fuse_11_017
@ 028   ----------------------------------------
	.byte		N23   , Fs1 , v100
	.byte	W72
@ 029   ----------------------------------------
	.byte	PATT
	 .word	fuse_11_021
@ 030   ----------------------------------------
	.byte	PATT
	 .word	fuse_11_022
@ 031   ----------------------------------------
	.byte	PATT
	 .word	fuse_11_022
@ 032   ----------------------------------------
	.byte	PATT
	 .word	fuse_11_024
@ 033   ----------------------------------------
	.byte		N23   , Fs1 , v100
	.byte	W96
@ 034   ----------------------------------------
fuse_11_034:
	.byte	W60
	.byte		N11   , Fs1 , v092
	.byte	W12
	.byte		        Fs1 , v096
	.byte	W12
	.byte		        Fs1 , v100
	.byte	W12
	.byte	PEND
@ 035   ----------------------------------------
fuse_11_035:
	.byte		N11   , Fs1 , v100
	.byte	W12
	.byte		N23   , Fs1 , v104
	.byte	W84
	.byte	PEND
@ 036   ----------------------------------------
fuse_11_036:
	.byte	W12
	.byte		N23   , Cs2 , v100
	.byte	W36
	.byte		        Fs1 
	.byte	W24
	.byte		        Cs2 
	.byte	W24
	.byte	PEND
@ 037   ----------------------------------------
fuse_11_037:
	.byte		N23   , Fs1 , v100
	.byte	W72
	.byte		N23   
	.byte	W24
	.byte	PEND
@ 038   ----------------------------------------
	.byte	W48
	.byte		N23   
	.byte	W48
@ 039   ----------------------------------------
	.byte		N23   
	.byte	W96
@ 040   ----------------------------------------
	.byte	W12
	.byte		N11   , Fs1 , v092
	.byte	W12
	.byte		N11   
	.byte	W12
	.byte		N11   
	.byte	W12
	.byte		N23   , Fs1 , v100
	.byte	W24
	.byte		        Cs2 
	.byte	W24
@ 041   ----------------------------------------
	.byte		        Fs1 
	.byte	W96
@ 042   ----------------------------------------
	.byte	PATT
	 .word	fuse_11_034
@ 043   ----------------------------------------
	.byte	PATT
	 .word	fuse_11_035
@ 044   ----------------------------------------
	.byte	PATT
	 .word	fuse_11_036
@ 045   ----------------------------------------
	.byte	PATT
	 .word	fuse_11_037
@ 046   ----------------------------------------
	.byte	W48
	.byte		N23   , Fs1 , v100
	.byte	W48
@ 047   ----------------------------------------
	.byte		N23   
	.byte	W96
@ 048   ----------------------------------------
	.byte	W12
	.byte		N11   , Fs1 , v092
	.byte	W12
	.byte		N11   
	.byte	W12
	.byte		N11   
	.byte	W12
	.byte		N15   , Fs1 , v100
	.byte	W16
	.byte		N15   
	.byte	W16
	.byte		N15   
	.byte	W16
@ 049   ----------------------------------------
fuse_11_049:
	.byte		N23   , Fs1 , v096
	.byte	W36
	.byte		        Cs2 
	.byte	W36
	.byte		        Fs1 
	.byte	W24
	.byte	PEND
@ 050   ----------------------------------------
fuse_11_050:
	.byte	W12
	.byte		N23   , Cs2 , v096
	.byte	W36
	.byte		        Fs1 
	.byte	W24
	.byte		        Cs2 
	.byte	W24
	.byte	PEND
@ 051   ----------------------------------------
	.byte	PATT
	 .word	fuse_11_049
@ 052   ----------------------------------------
	.byte	PATT
	 .word	fuse_11_050
@ 053   ----------------------------------------
	.byte		N11   , Fs1 , v088
	.byte	W12
	.byte		N32   
	.byte	W84
@ 054   ----------------------------------------
	.byte	W60
	.byte		N11   
	.byte	W12
	.byte		N11   
	.byte	W12
	.byte		        Fs1 , v092
	.byte	W12
@ 055   ----------------------------------------
	.byte		        Fs1 , v088
	.byte	W12
	.byte		N11   
	.byte	W24
	.byte		N24   
	.byte	W36
	.byte		N11   
	.byte	W12
	.byte		        Fs1 , v092
	.byte	W12
@ 056   ----------------------------------------
	.byte	W12
	.byte		        Fs1 , v080
	.byte	W12
	.byte		        Fs1 , v088
	.byte	W12
	.byte		        Cs2 , v092
	.byte	W24
	.byte		N11   
	.byte	W12
	.byte		N23   , Fn1 
	.byte	W24
@ 057   ----------------------------------------
	.byte	PATT
	 .word	fuse_11_009
@ 058   ----------------------------------------
	.byte	PATT
	 .word	fuse_11_010
@ 059   ----------------------------------------
	.byte	PATT
	 .word	fuse_11_003
@ 060   ----------------------------------------
	.byte	PATT
	 .word	fuse_11_012
@ 061   ----------------------------------------
	.byte	PATT
	 .word	fuse_11_009
@ 062   ----------------------------------------
	.byte	PATT
	 .word	fuse_11_010
@ 063   ----------------------------------------
	.byte	W96
@ 064   ----------------------------------------
	.byte	W96
@ 065   ----------------------------------------
	.byte	W96
@ 066   ----------------------------------------
	.byte	W96
@ 067   ----------------------------------------
	.byte	W96
@ 068   ----------------------------------------
	.byte	W96
@ 069   ----------------------------------------
	.byte	FINE

@**************** Track 12 (Midi-Chn.14) ****************@

fuse_12:
	.byte	KEYSH , fuse_key+0
@ 000   ----------------------------------------
	.byte		VOICE , 124
	.byte		VOL   , 90*fuse_mvl/mxv
	.byte		PAN   , c_v+0
	.byte		        c_v+0
	.byte		N01   , An2 , v040
	.byte	W01
	.byte		N01   
	.byte	W02
	.byte		N01   
	.byte	W01
	.byte		        An2 , v044
	.byte	W02
	.byte		N01   
	.byte	W01
	.byte		N01   
	.byte	W02
	.byte		        An2 , v048
	.byte	W01
	.byte		N01   
	.byte	W02
	.byte		N01   
	.byte	W01
	.byte		        An2 , v052
	.byte	W02
	.byte		N01   
	.byte	W01
	.byte		N01   
	.byte	W02
	.byte		        An2 , v056
	.byte	W01
	.byte		N01   
	.byte	W02
	.byte		N01   
	.byte	W01
	.byte		        An2 , v060
	.byte	W02
	.byte		N01   
	.byte	W01
	.byte		N01   
	.byte	W02
	.byte		N01   
	.byte	W01
	.byte		        An2 , v064
	.byte	W02
	.byte		N01   
	.byte	W01
	.byte		N01   
	.byte	W02
	.byte		        An2 , v068
	.byte	W01
	.byte		N01   
	.byte	W02
	.byte		N01   
	.byte	W01
	.byte		        An2 , v072
	.byte	W02
	.byte		N01   
	.byte	W01
	.byte		        An2 , v076
	.byte	W02
	.byte		N01   
	.byte	W01
	.byte		N01   
	.byte	W02
	.byte		N01   
	.byte	W01
	.byte		        An2 , v080
	.byte	W02
	.byte		N01   
	.byte	W01
	.byte		N01   
	.byte	W02
	.byte		        An2 , v084
	.byte	W01
	.byte		N01   
	.byte	W02
	.byte		N01   
	.byte	W01
	.byte		        An2 , v088
	.byte	W02
	.byte		N01   
	.byte	W01
	.byte		N01   
	.byte	W02
	.byte		N01   
	.byte	W01
	.byte		        An2 , v092
	.byte	W02
	.byte		N01   
	.byte	W01
	.byte		N01   
	.byte	W02
	.byte		        An2 , v096
	.byte	W01
	.byte		N01   
	.byte	W02
	.byte		N01   
	.byte	W01
	.byte		        An2 , v100
	.byte	W02
	.byte		N01   
	.byte	W01
	.byte		N01   
	.byte	W02
	.byte		        An2 , v104
	.byte	W01
	.byte		N01   
	.byte	W02
	.byte		N01   
	.byte	W01
	.byte		        An2 , v108
	.byte	W02
	.byte		        An2 , v092
	.byte	W01
	.byte		        An2 , v108
	.byte	W02
	.byte		N01   
	.byte	W01
	.byte		        An2 , v112
	.byte	W02
	.byte		N01   
	.byte	W01
	.byte		N01   
	.byte	W02
	.byte		        An2 , v116
	.byte	W01
	.byte		N01   
	.byte	W02
	.byte		N01   
	.byte	W01
	.byte		N01   
	.byte	W02
@ 001   ----------------------------------------
fuse_12_001:
	.byte		N02   , Cn1 , v072
	.byte		N02   , Cs1 , v064
	.byte		N02   , An2 , v076
	.byte		N02   , Bn2 , v072
	.byte		N02   , Gs4 
	.byte	W12
	.byte		        Cn1 
	.byte		N02   , Cs1 , v064
	.byte	W12
	.byte		        Cn1 , v088
	.byte		N02   , Cs1 , v084
	.byte	W12
	.byte		        Cs1 , v064
	.byte		N02   , Gs4 , v072
	.byte	W12
	.byte		        Cn1 
	.byte		N02   , Cs1 , v064
	.byte	W12
	.byte		N02   
	.byte		N02   , Gs4 , v072
	.byte	W12
	.byte		        Cn1 , v088
	.byte		N02   , Cs1 , v084
	.byte		N02   , An4 , v072
	.byte	W12
	.byte		        Cs1 , v064
	.byte	W12
	.byte	PEND
@ 002   ----------------------------------------
fuse_12_002:
	.byte		N02   , Cn1 , v072
	.byte		N02   , Cs1 , v064
	.byte		N02   , Gs4 , v072
	.byte	W12
	.byte		        Cn1 
	.byte		N02   , Cs1 , v064
	.byte	W12
	.byte		        Cn1 , v088
	.byte		N02   , Cs1 , v084
	.byte	W12
	.byte		        Cs1 , v068
	.byte		N02   , Gs4 , v072
	.byte	W12
	.byte		        Cn1 
	.byte		N02   , Cs1 , v064
	.byte	W12
	.byte		N02   
	.byte		N02   , Gs4 , v072
	.byte	W12
	.byte		        Cn1 , v088
	.byte		N02   , Cs1 , v084
	.byte		N02   , An4 , v072
	.byte	W12
	.byte		        Cn1 , v064
	.byte		N02   , Cs1 
	.byte	W12
	.byte	PEND
@ 003   ----------------------------------------
fuse_12_003:
	.byte		N02   , Cn1 , v072
	.byte		N03   , Cs1 , v064
	.byte		N02   , Gs4 , v072
	.byte	W12
	.byte		        Cn1 
	.byte		N03   , Cs1 , v064
	.byte	W12
	.byte		        Cn1 , v088
	.byte		N02   , Cs1 , v084
	.byte	W12
	.byte		        Cn1 , v088
	.byte		N02   , Cs1 , v064
	.byte		N02   , Gs4 , v072
	.byte	W06
	.byte		        Cn1 , v064
	.byte	W06
	.byte		        Cn1 , v072
	.byte		N02   , Cs1 , v064
	.byte	W06
	.byte		        Cn1 , v072
	.byte	W06
	.byte		N02   
	.byte		N02   , Cs1 , v064
	.byte		N02   , Gs4 , v072
	.byte	W12
	.byte		        Cn1 , v088
	.byte		N02   , Cs1 , v084
	.byte		N02   , An4 , v072
	.byte	W12
	.byte		        Cs1 , v064
	.byte	W06
	.byte		        Cn1 , v072
	.byte	W06
	.byte	PEND
@ 004   ----------------------------------------
	.byte		        Cn1 , v064
	.byte		N02   , Cs1 
	.byte		N02   , Gs4 , v072
	.byte	W12
	.byte		        Cn1 
	.byte		N02   , Cs1 , v064
	.byte	W12
	.byte		        Cn1 , v088
	.byte		N02   , Cs1 , v084
	.byte	W12
	.byte		        Cn1 , v064
	.byte		N02   , Cs1 
	.byte		N02   , Gs4 , v072
	.byte	W12
	.byte		        Cn1 , v064
	.byte		N02   , Cs1 
	.byte	W12
	.byte		        Cn1 , v072
	.byte		N02   , Cs1 , v064
	.byte		N02   , Gs4 , v072
	.byte	W12
	.byte		        Cn1 , v088
	.byte		N02   , Cs1 , v084
	.byte		N02   , An2 , v072
	.byte		N02   , Bn2 
	.byte		N02   , An4 
	.byte	W12
	.byte		        Cs1 , v064
	.byte	W12
@ 005   ----------------------------------------
	.byte	PATT
	 .word	fuse_12_001
@ 006   ----------------------------------------
	.byte	PATT
	 .word	fuse_12_002
@ 007   ----------------------------------------
	.byte	PATT
	 .word	fuse_12_003
@ 008   ----------------------------------------
	.byte		N02   , Cn1 , v064
	.byte		N02   , Cs1 
	.byte		N02   , Gs4 , v072
	.byte	W12
	.byte		        Cn1 
	.byte		N02   , Cs1 , v064
	.byte	W12
	.byte		        Cn1 , v088
	.byte		N02   , Cs1 , v084
	.byte	W12
	.byte		        Cn1 , v064
	.byte		N02   , Cs1 
	.byte		N02   , Gs4 , v072
	.byte	W12
	.byte		        Cn1 , v064
	.byte		N02   , Cs1 
	.byte		N02   , An2 , v040
	.byte	W03
	.byte		N02   
	.byte	W03
	.byte		        An2 , v048
	.byte	W03
	.byte		N02   
	.byte	W03
	.byte		        Cn1 , v072
	.byte		N02   , Cs1 , v064
	.byte		N02   , An2 , v052
	.byte		N02   , Gs4 , v072
	.byte	W03
	.byte		        An2 , v052
	.byte	W03
	.byte		        An2 , v060
	.byte	W03
	.byte		N02   
	.byte	W03
	.byte		        Cn1 , v088
	.byte		N02   , Cs1 , v084
	.byte		N02   , An2 , v072
	.byte		N02   , Bn2 
	.byte		N02   , An4 
	.byte	W12
	.byte		        Cs1 , v064
	.byte	W12
@ 009   ----------------------------------------
fuse_12_009:
	.byte		N02   , Cn1 , v072
	.byte		N02   , Cs1 , v064
	.byte		N02   , An2 , v076
	.byte		N02   , Bn2 , v072
	.byte		N02   , Gs4 
	.byte	W12
	.byte		        Cn1 , v060
	.byte		N02   , Cs1 , v064
	.byte	W12
	.byte		        Cn1 , v088
	.byte		N02   , Cs1 , v084
	.byte	W12
	.byte		        Cs1 , v064
	.byte		N02   , Gs4 , v072
	.byte	W12
	.byte		        Cn1 
	.byte		N02   , Cs1 , v064
	.byte	W12
	.byte		N02   
	.byte		N02   , Gs4 , v072
	.byte	W12
	.byte		        Cn1 , v088
	.byte		N02   , Cs1 , v084
	.byte		N02   , An4 , v072
	.byte	W12
	.byte		        Cs1 , v064
	.byte	W12
	.byte	PEND
@ 010   ----------------------------------------
fuse_12_010:
	.byte		N02   , Cn1 , v072
	.byte		N02   , Cs1 , v064
	.byte		N02   , Gs4 , v072
	.byte	W12
	.byte		        Cn1 , v060
	.byte		N02   , Cs1 , v064
	.byte	W12
	.byte		        Cn1 , v088
	.byte		N02   , Cs1 , v084
	.byte	W12
	.byte		        Cs1 , v068
	.byte		N02   , Gs4 , v072
	.byte	W12
	.byte		        Cn1 
	.byte		N02   , Cs1 , v064
	.byte	W12
	.byte		N02   
	.byte		N02   , Gs4 , v072
	.byte	W12
	.byte		        Cn1 , v088
	.byte		N02   , Cs1 , v084
	.byte		N02   , An4 , v072
	.byte	W12
	.byte		        Cs1 , v064
	.byte	W12
	.byte	PEND
@ 011   ----------------------------------------
fuse_12_011:
	.byte		N02   , Cn1 , v072
	.byte		N03   , Cs1 , v064
	.byte		N02   , Gs4 , v072
	.byte	W12
	.byte		        Cn1 , v060
	.byte		N03   , Cs1 , v064
	.byte	W12
	.byte		        Cn1 , v088
	.byte		N02   , Cs1 , v084
	.byte	W12
	.byte		        Cs1 , v064
	.byte		N02   , Gs4 , v072
	.byte	W12
	.byte		        Cn1 
	.byte		N02   , Cs1 , v064
	.byte	W12
	.byte		N02   
	.byte		N02   , Gs4 , v072
	.byte	W12
	.byte		        Cn1 , v088
	.byte		N02   , Cs1 , v084
	.byte		N02   , An4 , v072
	.byte	W12
	.byte		        Cs1 , v064
	.byte	W12
	.byte	PEND
@ 012   ----------------------------------------
fuse_12_012:
	.byte		N02   , Cn1 , v064
	.byte		N02   , Cs1 
	.byte		N02   , Gs4 , v072
	.byte	W12
	.byte		        Cn1 , v060
	.byte		N02   , Cs1 , v064
	.byte	W12
	.byte		        Cn1 , v088
	.byte		N02   , Cs1 , v084
	.byte	W12
	.byte		        Cs1 , v064
	.byte		N02   , Gs4 , v072
	.byte	W12
	.byte		        Cn1 
	.byte		N02   , Cs1 , v064
	.byte	W12
	.byte		N02   
	.byte		N02   , Gs4 , v072
	.byte	W12
	.byte		        Cn1 , v088
	.byte		N02   , Cs1 , v084
	.byte		N02   , An2 , v072
	.byte		N02   , Bn2 
	.byte		N02   , An4 
	.byte	W12
	.byte		        Cs1 , v064
	.byte	W12
	.byte	PEND
@ 013   ----------------------------------------
	.byte	PATT
	 .word	fuse_12_009
@ 014   ----------------------------------------
	.byte	PATT
	 .word	fuse_12_010
@ 015   ----------------------------------------
	.byte	PATT
	 .word	fuse_12_011
@ 016   ----------------------------------------
	.byte		N02   , Cn1 , v064
	.byte		N02   , Cs1 
	.byte		N02   , Gs4 , v072
	.byte	W12
	.byte		        Cn1 , v060
	.byte		N02   , Cs1 , v064
	.byte	W12
	.byte		        Cn1 , v088
	.byte		N02   , Cs1 , v084
	.byte	W12
	.byte		        Cs1 , v064
	.byte		N02   , Gs4 , v072
	.byte	W12
	.byte		        Cn1 
	.byte		N02   , Cs1 , v064
	.byte		N02   , An2 , v036
	.byte	W03
	.byte		N02   
	.byte	W03
	.byte		        An2 , v040
	.byte	W03
	.byte		N02   
	.byte	W03
	.byte		        Cs1 , v064
	.byte		N02   , An2 , v048
	.byte		N02   , Gs4 , v072
	.byte	W03
	.byte		        An2 , v048
	.byte	W03
	.byte		        An2 , v052
	.byte	W03
	.byte		N02   
	.byte	W03
	.byte		        Cn1 , v088
	.byte		N02   , Cs1 , v084
	.byte		N02   , An2 , v060
	.byte		N02   , An4 , v072
	.byte	W03
	.byte		        An2 , v060
	.byte	W03
	.byte		        An2 , v068
	.byte	W03
	.byte		        An2 , v064
	.byte	W03
	.byte		        Cs1 
	.byte		N02   , An2 , v072
	.byte	W03
	.byte		N02   
	.byte	W03
	.byte		N02   
	.byte	W03
	.byte		N03   
	.byte	W03
@ 017   ----------------------------------------
fuse_12_017:
	.byte		N02   , Cn1 , v072
	.byte		N02   , Cs1 
	.byte		N02   , An2 , v084
	.byte		N02   , Bn2 , v072
	.byte		N02   , Gs4 
	.byte	W12
	.byte		        Cs1 
	.byte		N02   , Gs4 
	.byte	W12
	.byte		        Cn1 , v088
	.byte		N02   , Cs1 , v084
	.byte		N02   , An4 , v072
	.byte	W12
	.byte		        Cs1 
	.byte	W12
	.byte		        Cn1 
	.byte		N02   , Cs1 
	.byte		N02   , Gs4 
	.byte	W12
	.byte		        Cs1 
	.byte		N02   , Gs4 
	.byte	W12
	.byte	PEND
@ 018   ----------------------------------------
fuse_12_018:
	.byte		N02   , Cn1 , v088
	.byte		N02   , Cs1 , v084
	.byte		N02   , An2 
	.byte		N02   , Bn2 , v072
	.byte		N02   , An4 
	.byte	W12
	.byte		        Cs1 
	.byte	W12
	.byte		        Cn1 
	.byte		N02   , Cs1 
	.byte		N02   , Gs4 
	.byte	W12
	.byte		        Cs1 
	.byte		N02   , Gs4 
	.byte	W12
	.byte		        Cn1 , v088
	.byte		N02   , Cs1 , v084
	.byte		N02   , An4 , v072
	.byte	W12
	.byte		        Cs1 
	.byte	W12
	.byte	PEND
@ 019   ----------------------------------------
	.byte	PATT
	 .word	fuse_12_017
@ 020   ----------------------------------------
	.byte	PATT
	 .word	fuse_12_018
@ 021   ----------------------------------------
fuse_12_021:
	.byte		N02   , Cn1 , v072
	.byte		N02   , Cs1 
	.byte		N02   , An2 
	.byte		N02   , Bn2 
	.byte		N02   , Gs4 
	.byte	W12
	.byte		        Cs1 
	.byte		N02   , Gs4 
	.byte	W12
	.byte		        Cn1 , v088
	.byte		N02   , Cs1 , v084
	.byte		N02   , An4 , v072
	.byte	W12
	.byte		        Cs1 
	.byte	W12
	.byte		        Cn1 
	.byte		N02   , Cs1 
	.byte		N02   , Gs4 
	.byte	W12
	.byte		        Cs1 
	.byte		N02   , Gs4 
	.byte	W12
	.byte		        Cn1 , v088
	.byte		N02   , Cs1 , v084
	.byte		N02   , An4 , v072
	.byte	W12
	.byte		        Cs1 
	.byte	W12
	.byte	PEND
@ 022   ----------------------------------------
fuse_12_022:
	.byte		N02   , Cn1 , v072
	.byte		N02   , Cs1 
	.byte		N02   , Gs4 
	.byte	W12
	.byte		        Cs1 
	.byte		N02   , Gs4 
	.byte	W12
	.byte		        Cn1 , v088
	.byte		N02   , Cs1 , v084
	.byte		N02   , An4 , v072
	.byte	W12
	.byte		        Cs1 
	.byte	W12
	.byte		        Cn1 
	.byte		N02   , Cs1 
	.byte		N02   , Gs4 
	.byte	W12
	.byte		        Cs1 
	.byte		N02   , Gs4 
	.byte	W12
	.byte		        Cn1 , v088
	.byte		N02   , Cs1 , v084
	.byte		N02   , An4 , v072
	.byte	W12
	.byte		        Cs1 
	.byte	W12
	.byte	PEND
@ 023   ----------------------------------------
	.byte	PATT
	 .word	fuse_12_022
@ 024   ----------------------------------------
	.byte	PATT
	 .word	fuse_12_022
@ 025   ----------------------------------------
	.byte	PATT
	 .word	fuse_12_017
@ 026   ----------------------------------------
	.byte	PATT
	 .word	fuse_12_018
@ 027   ----------------------------------------
	.byte	PATT
	 .word	fuse_12_017
@ 028   ----------------------------------------
	.byte	PATT
	 .word	fuse_12_018
@ 029   ----------------------------------------
	.byte	PATT
	 .word	fuse_12_021
@ 030   ----------------------------------------
	.byte	PATT
	 .word	fuse_12_022
@ 031   ----------------------------------------
	.byte	PATT
	 .word	fuse_12_021
@ 032   ----------------------------------------
	.byte		N02   , Cn1 , v072
	.byte		N02   , Cs1 
	.byte		N02   , Gs4 
	.byte	W12
	.byte		        Cs1 
	.byte		N02   , Gs4 
	.byte	W12
	.byte		        Cn1 , v088
	.byte		N02   , Cs1 , v084
	.byte		N02   , An4 , v072
	.byte	W12
	.byte		        Cs1 
	.byte		N02   , Gs4 
	.byte	W12
	.byte		        Cn1 
	.byte		N02   , Cs1 
	.byte	W12
	.byte		N02   
	.byte		N02   , Gs4 
	.byte	W12
	.byte		        Cn1 , v088
	.byte		N02   , Cs1 , v084
	.byte		N02   , An4 , v072
	.byte	W12
	.byte		        Cs1 
	.byte		N02   , Gs4 
	.byte	W12
@ 033   ----------------------------------------
fuse_12_033:
	.byte		N02   , Cn1 , v072
	.byte		N02   , Cs1 
	.byte		N02   , Bn2 , v084
	.byte	W12
	.byte		        Cs1 , v072
	.byte		N02   , Gs4 
	.byte	W12
	.byte		        Cn1 
	.byte		N02   , Cs1 , v084
	.byte		N02   , An4 , v072
	.byte	W12
	.byte		        Cs1 
	.byte	W12
	.byte		        Cn1 
	.byte		N02   , Cs1 
	.byte		N02   , Gs4 
	.byte	W12
	.byte		        Cs1 
	.byte	W12
	.byte		        Cn1 
	.byte		N02   , Cs1 , v084
	.byte	W12
	.byte		        Cs1 , v072
	.byte		N02   , Gs4 
	.byte	W12
	.byte	PEND
@ 034   ----------------------------------------
fuse_12_034:
	.byte		N02   , Cn1 , v072
	.byte		N02   , Cs1 
	.byte	W12
	.byte		N02   
	.byte		N02   , Gs4 
	.byte	W12
	.byte		        Cn1 
	.byte		N02   , Cs1 , v084
	.byte		N02   , An4 , v072
	.byte	W12
	.byte		        Cs1 
	.byte	W12
	.byte		        Cn1 
	.byte		N02   , Cs1 
	.byte		N02   , Gs4 
	.byte	W12
	.byte		        Cs1 
	.byte	W12
	.byte		        Cn1 
	.byte		N02   , Cs1 , v084
	.byte	W12
	.byte		        Cs1 , v072
	.byte		N02   , Gs4 
	.byte	W12
	.byte	PEND
@ 035   ----------------------------------------
	.byte	PATT
	 .word	fuse_12_034
@ 036   ----------------------------------------
	.byte	PATT
	 .word	fuse_12_034
@ 037   ----------------------------------------
fuse_12_037:
	.byte		N02   , Cn1 , v072
	.byte		N02   , Cs1 
	.byte		N02   , An2 
	.byte		N02   , Bn2 , v084
	.byte	W12
	.byte		        Cs1 , v072
	.byte		N02   , Gs4 
	.byte	W12
	.byte		        Cn1 
	.byte		N02   , Cs1 , v084
	.byte		N02   , An4 , v072
	.byte	W12
	.byte		        Cs1 
	.byte	W12
	.byte		        Cn1 
	.byte		N02   , Cs1 
	.byte		N02   , Gs4 
	.byte	W12
	.byte		        Cs1 
	.byte	W12
	.byte		        Cn1 
	.byte		N02   , Cs1 , v084
	.byte		N02   , An2 , v072
	.byte		N02   , Bn2 , v076
	.byte	W12
	.byte		        Cs1 , v072
	.byte		N02   , Gs4 
	.byte	W12
	.byte	PEND
@ 038   ----------------------------------------
	.byte		N03   , Cn1 
	.byte		N02   , Cs1 
	.byte	W12
	.byte		N02   
	.byte		N02   , Gs4 
	.byte	W12
	.byte		        Cn1 
	.byte		N02   , Cs1 , v084
	.byte		N02   , An4 , v072
	.byte	W12
	.byte		        Cs1 
	.byte	W12
	.byte		        Cn1 
	.byte		N02   , Cs1 
	.byte		N02   , An2 
	.byte		N02   , Bn2 , v076
	.byte		N02   , Gs4 , v072
	.byte	W12
	.byte		        Cs1 
	.byte	W12
	.byte		        Cn1 
	.byte		N02   , Cs1 , v084
	.byte	W12
	.byte		        Cs1 , v072
	.byte		N02   , Gs4 
	.byte	W12
@ 039   ----------------------------------------
	.byte		        Cn1 
	.byte		N02   , Cs1 
	.byte		N02   , An2 
	.byte		N02   , Bn2 , v076
	.byte	W12
	.byte		        Cs1 , v072
	.byte		N02   , Gs4 
	.byte	W12
	.byte		        Cn1 
	.byte		N02   , Cs1 , v084
	.byte		N02   , An4 , v072
	.byte	W12
	.byte		        Cs1 
	.byte	W12
	.byte		        Cn1 
	.byte		N02   , Cs1 
	.byte		N02   , Gs4 
	.byte	W12
	.byte		        Cs1 
	.byte	W12
	.byte		        Cn1 
	.byte		N02   , Cs1 , v084
	.byte	W12
	.byte		        Cs1 , v072
	.byte		N02   , Gs4 
	.byte	W12
@ 040   ----------------------------------------
	.byte	PATT
	 .word	fuse_12_034
@ 041   ----------------------------------------
	.byte	PATT
	 .word	fuse_12_033
@ 042   ----------------------------------------
fuse_12_042:
	.byte		N02   , Cn1 , v072
	.byte		N02   , Cs1 
	.byte	W12
	.byte		N02   
	.byte		N02   , Gs4 
	.byte	W12
	.byte		N03   , Cn1 
	.byte		N02   , Cs1 , v084
	.byte		N02   , An4 , v072
	.byte	W12
	.byte		        Cs1 
	.byte	W12
	.byte		        Cn1 
	.byte		N02   , Cs1 
	.byte		N02   , Gs4 
	.byte	W12
	.byte		        Cs1 
	.byte	W12
	.byte		        Cn1 
	.byte		N02   , Cs1 , v084
	.byte	W12
	.byte		        Cs1 , v072
	.byte		N02   , Gs4 
	.byte	W12
	.byte	PEND
@ 043   ----------------------------------------
	.byte	PATT
	 .word	fuse_12_042
@ 044   ----------------------------------------
	.byte	PATT
	 .word	fuse_12_034
@ 045   ----------------------------------------
	.byte	PATT
	 .word	fuse_12_037
@ 046   ----------------------------------------
	.byte		N02   , Cn1 , v072
	.byte		N02   , Cs1 
	.byte	W12
	.byte		N02   
	.byte		N02   , Gs4 
	.byte	W12
	.byte		        Cn1 
	.byte		N02   , Cs1 , v084
	.byte		N02   , An4 , v072
	.byte	W12
	.byte		        Cs1 
	.byte	W12
	.byte		        Cn1 
	.byte		N02   , Cs1 
	.byte		N02   , An2 
	.byte		N02   , Bn2 , v076
	.byte		N02   , Gs4 , v072
	.byte	W12
	.byte		        Cs1 
	.byte	W12
	.byte		        Cn1 
	.byte		N02   , Cs1 , v084
	.byte	W12
	.byte		        Cs1 , v072
	.byte		N02   , Gs4 
	.byte	W12
@ 047   ----------------------------------------
	.byte		        Cn1 
	.byte		N02   , Cs1 
	.byte		N02   , An2 
	.byte		N02   , Bn2 , v076
	.byte	W12
	.byte		        Cs1 , v072
	.byte		N02   , Gs4 
	.byte	W12
	.byte		        Cn1 
	.byte		N02   , Cs1 , v084
	.byte		N02   , An4 , v072
	.byte	W12
	.byte		        Cs1 
	.byte	W12
	.byte		N03   , Cn1 
	.byte		N02   , Cs1 
	.byte		N02   , Gs4 
	.byte	W12
	.byte		        Cs1 
	.byte	W12
	.byte		        Cn1 
	.byte		N02   , Cs1 , v084
	.byte	W12
	.byte		        Cs1 , v072
	.byte		N02   , Gs4 
	.byte	W12
@ 048   ----------------------------------------
	.byte		        Cn1 
	.byte		N02   , Cs1 
	.byte	W12
	.byte		N02   
	.byte		N02   , Gs4 
	.byte	W12
	.byte		N03   , Cn1 
	.byte		N02   , Cs1 , v084
	.byte		N02   , An4 , v072
	.byte	W12
	.byte		        Cs1 
	.byte	W12
	.byte		N03   , Cn1 
	.byte		N02   , Cs1 
	.byte		N02   , Gs4 
	.byte	W12
	.byte		        Cs1 
	.byte	W12
	.byte		        Cn1 
	.byte		N02   , Cs1 , v084
	.byte	W12
	.byte		        Cs1 , v072
	.byte		N02   , Gs4 
	.byte	W12
@ 049   ----------------------------------------
	.byte		        Cn1 
	.byte		N02   , Cs1 
	.byte		N02   , Bn2 , v084
	.byte	W12
	.byte		        Cs1 , v072
	.byte		N02   , Gs4 
	.byte	W12
	.byte		N03   , Cn1 
	.byte		N02   , Cs1 , v084
	.byte		N02   , An4 , v072
	.byte	W12
	.byte		        Cs1 
	.byte	W12
	.byte		        Cn1 
	.byte		N02   , Cs1 
	.byte		N02   , Gs4 
	.byte	W12
	.byte		        Cs1 
	.byte	W12
	.byte		        Cn1 
	.byte		N02   , Cs1 , v084
	.byte	W12
	.byte		        Cs1 , v072
	.byte		N02   , Gs4 
	.byte	W12
@ 050   ----------------------------------------
	.byte		N03   , Cn1 
	.byte		N02   , Cs1 
	.byte	W12
	.byte		N02   
	.byte		N02   , Gs4 
	.byte	W12
	.byte		N03   , Cn1 
	.byte		N02   , Cs1 , v084
	.byte		N02   , An4 , v072
	.byte	W12
	.byte		        Cs1 
	.byte	W12
	.byte		N03   , Cn1 
	.byte		N02   , Cs1 
	.byte		N02   , Gs4 
	.byte	W12
	.byte		        Cs1 
	.byte	W12
	.byte		        Cn1 
	.byte		N02   , Cs1 , v084
	.byte	W12
	.byte		        Cs1 , v072
	.byte		N02   , Gs4 
	.byte	W12
@ 051   ----------------------------------------
	.byte		        Cn1 
	.byte		N02   , Cs1 
	.byte	W12
	.byte		N02   
	.byte		N02   , Gs4 
	.byte	W12
	.byte		        Cn1 
	.byte		N02   , Cs1 , v084
	.byte		N02   , An4 , v072
	.byte	W12
	.byte		        Cs1 
	.byte	W12
	.byte		N03   , Cn1 
	.byte		N02   , Cs1 
	.byte		N02   , Gs4 
	.byte	W12
	.byte		        Cs1 
	.byte	W12
	.byte		        Cn1 
	.byte		N02   , Cs1 , v084
	.byte	W12
	.byte		        Cs1 , v072
	.byte		N02   , Gs4 
	.byte	W12
@ 052   ----------------------------------------
	.byte		        Cn1 
	.byte		N02   , Cs1 
	.byte	W12
	.byte		N02   
	.byte		N02   , Gs4 
	.byte	W12
	.byte		        Cn1 
	.byte		N02   , Cs1 , v084
	.byte		N02   , An4 , v072
	.byte	W12
	.byte		        Cs1 
	.byte	W12
	.byte		        Cn1 
	.byte		N02   , Cs1 
	.byte		N02   , Gs4 
	.byte	W12
	.byte		        Cs1 
	.byte	W12
	.byte		N03   , Cn1 
	.byte		N02   , Cs1 , v084
	.byte	W12
	.byte		        Cs1 , v072
	.byte		N02   , Gs4 
	.byte	W12
@ 053   ----------------------------------------
	.byte	PATT
	 .word	fuse_12_009
@ 054   ----------------------------------------
	.byte		N02   , An0 , v084
	.byte		N02   , Cn1 , v072
	.byte		N02   , Cs1 , v064
	.byte		N02   , Gs4 , v072
	.byte	W12
	.byte		        An0 , v084
	.byte		N02   , Cn1 , v060
	.byte		N02   , Cs1 , v064
	.byte	W12
	.byte		        Cn1 , v088
	.byte		N02   , Cs1 , v084
	.byte	W12
	.byte		        Cs1 , v068
	.byte		N02   , Gs4 , v072
	.byte	W12
	.byte		        Cn1 
	.byte		N02   , Cs1 , v064
	.byte	W12
	.byte		N02   
	.byte		N02   , Gs4 , v072
	.byte	W12
	.byte		        Cn1 , v088
	.byte		N02   , Cs1 , v084
	.byte		N02   , An4 , v072
	.byte	W12
	.byte		        Cs1 , v064
	.byte	W12
@ 055   ----------------------------------------
	.byte	PATT
	 .word	fuse_12_011
@ 056   ----------------------------------------
	.byte	PATT
	 .word	fuse_12_012
@ 057   ----------------------------------------
	.byte	PATT
	 .word	fuse_12_009
@ 058   ----------------------------------------
	.byte	PATT
	 .word	fuse_12_010
@ 059   ----------------------------------------
	.byte	PATT
	 .word	fuse_12_011
@ 060   ----------------------------------------
	.byte	PATT
	 .word	fuse_12_012
@ 061   ----------------------------------------
	.byte	PATT
	 .word	fuse_12_009
@ 062   ----------------------------------------
	.byte	PATT
	 .word	fuse_12_010
@ 063   ----------------------------------------
	.byte	W96
@ 064   ----------------------------------------
	.byte	W96
@ 065   ----------------------------------------
	.byte	W96
@ 066   ----------------------------------------
	.byte	W96
@ 067   ----------------------------------------
	.byte	W96
@ 068   ----------------------------------------
	.byte	W96
@ 069   ----------------------------------------
	.byte	FINE

@******************************************************@
	.align	2

fuse:
	.byte	12	@ NumTrks
	.byte	0	@ NumBlks
	.byte	fuse_pri	@ Priority
	.byte	fuse_rev	@ Reverb.

	.word	fuse_grp

	.word	fuse_1
	.word	fuse_2
	.word	fuse_3
	.word	fuse_4
	.word	fuse_5
	.word	fuse_6
	.word	fuse_7
	.word	fuse_8
	.word	fuse_9
	.word	fuse_10
	.word	fuse_11
	.word	fuse_12

	.end
