	.include "MPlayDef.s"

	.equ	feb20220526210040_grp, voicegroup000
	.equ	feb20220526210040_pri, 0
	.equ	feb20220526210040_rev, 0
	.equ	feb20220526210040_mvl, 50
	.equ	feb20220526210040_key, 0
	.equ	feb20220526210040_tbs, 1
	.equ	feb20220526210040_exg, 0
	.equ	feb20220526210040_cmp, 1

	.section .rodata
	.global	feb20220526210040
	.align	2

@**************** Track 1 (Midi-Chn.1) ****************@

feb20220526210040_1:
	.byte	KEYSH , feb20220526210040_key+0
@ 000   ----------------------------------------
	.byte	TEMPO , 90*feb20220526210040_tbs/2
	.byte		VOICE , 68
	.byte		VOL   , 127*feb20220526210040_mvl/mxv
	.byte		PAN   , c_v+0
	.byte		VOL   , 127*feb20220526210040_mvl/mxv
	.byte		PAN   , c_v+0
	.byte		N32   , An3 , v112
	.byte	W36
	.byte		        Cn3 
	.byte	W36
	.byte		N20   , Fn3 
	.byte	W24
@ 001   ----------------------------------------
	.byte		        Gn3 
	.byte	W24
	.byte		        Fn3 
	.byte	W24
	.byte		        Gn3 
	.byte	W24
	.byte		        An3 
	.byte	W24
@ 002   ----------------------------------------
	.byte		N42   , Cn4 
	.byte	W48
	.byte		N20   , Dn4 
	.byte	W24
	.byte		        Gn3 
	.byte	W24
@ 003   ----------------------------------------
	.byte		N42   , Fn4 
	.byte	W48
	.byte		N20   , En4 
	.byte	W24
	.byte		        Gn3 
	.byte	W24
@ 004   ----------------------------------------
	.byte		N32   , Dn3 
	.byte	W36
	.byte		        Cn3 
	.byte	W36
	.byte		N20   , Fn3 
	.byte	W24
@ 005   ----------------------------------------
	.byte		N42   , Cn4 
	.byte	W48
	.byte		        Bn3 
	.byte	W48
@ 006   ----------------------------------------
	.byte		N66   , Cn4 
	.byte	W72
	.byte		N20   , Gn3 
	.byte	W24
@ 007   ----------------------------------------
	.byte		N90   , Cn3 
	.byte	W96
@ 008   ----------------------------------------
feb20220526210040_1_008:
	.byte		N17   , Gn3 , v112
	.byte	W18
	.byte		N17   
	.byte	W18
	.byte		N11   
	.byte	W12
	.byte		N17   
	.byte	W18
	.byte		        Fn3 
	.byte	W18
	.byte		N11   , En3 
	.byte	W12
	.byte	PEND
@ 009   ----------------------------------------
feb20220526210040_1_009:
	.byte		N42   , Dn3 , v112
	.byte	W48
	.byte		N20   , Cn3 
	.byte	W24
	.byte		        Dn3 
	.byte	W24
	.byte	PEND
@ 010   ----------------------------------------
feb20220526210040_1_010:
	.byte		N32   , Fn3 , v112
	.byte	W36
	.byte		N11   , En3 
	.byte	W12
	.byte		N32   
	.byte	W36
	.byte		N11   , Gn2 
	.byte	W12
	.byte	PEND
@ 011   ----------------------------------------
feb20220526210040_1_011:
	.byte		N32   , Cn3 , v112
	.byte	W36
	.byte		N23   , Dn3 
	.byte	W24
	.byte		N20   , Cn3 
	.byte	W24
	.byte		N11   , Gn2 
	.byte	W12
	.byte	PEND
@ 012   ----------------------------------------
	.byte		N17   , Gn3 
	.byte	W18
	.byte		N17   
	.byte	W18
	.byte		N11   , Cn4 
	.byte	W12
	.byte		N17   
	.byte	W18
	.byte		        Bn3 
	.byte	W18
	.byte		N11   , An3 
	.byte	W12
@ 013   ----------------------------------------
	.byte		N17   
	.byte	W18
	.byte		        Gn3 
	.byte	W18
	.byte		N32   
	.byte	W36
	.byte		N20   , Dn3 
	.byte	W24
@ 014   ----------------------------------------
	.byte		N32   , En3 
	.byte	W36
	.byte		        Gn3 
	.byte	W48
	.byte		N11   , Bn2 
	.byte	W12
@ 015   ----------------------------------------
	.byte		N32   , Cn3 
	.byte	W36
	.byte		        Bn2 
	.byte	W36
	.byte		N20   , Gn2 
	.byte	W24
@ 016   ----------------------------------------
	.byte	PATT
	 .word	feb20220526210040_1_008
@ 017   ----------------------------------------
	.byte	PATT
	 .word	feb20220526210040_1_009
@ 018   ----------------------------------------
	.byte	PATT
	 .word	feb20220526210040_1_010
@ 019   ----------------------------------------
	.byte	PATT
	 .word	feb20220526210040_1_011
@ 020   ----------------------------------------
	.byte		N17   , Cn3 , v112
	.byte	W18
	.byte		        Bn2 
	.byte	W18
	.byte		N23   , Cn3 
	.byte	W24
	.byte		N20   , Gn3 
	.byte	W24
	.byte		N11   
	.byte	W12
@ 021   ----------------------------------------
	.byte		N11   
	.byte	W12
	.byte		N20   , En3 
	.byte	W24
	.byte		N32   , Dn3 
	.byte	W36
	.byte		N11   , Cn3 
	.byte	W12
	.byte		        Bn2 
	.byte	W12
@ 022   ----------------------------------------
	.byte		N66   , Cn3 
	.byte	W72
	.byte		N20   , Gn2 
	.byte	W24
@ 023   ----------------------------------------
	.byte		N32   , Cn2 
	.byte	W36
	.byte		        Dn2 
	.byte	W36
	.byte		N11   , Cn3 
	.byte	W12
	.byte		        Cn4 
	.byte	W12
@ 024   ----------------------------------------
feb20220526210040_1_024:
	.byte		N42   , Bn3 , v112
	.byte	W48
	.byte		        Cn4 
	.byte	W48
	.byte	PEND
@ 025   ----------------------------------------
feb20220526210040_1_025:
	.byte		N42   , Bn3 , v112
	.byte	W48
	.byte		N32   , An3 
	.byte	W36
	.byte		N11   , Gn3 
	.byte	W12
	.byte	PEND
@ 026   ----------------------------------------
feb20220526210040_1_026:
	.byte		N32   , Gn3 , v112
	.byte	W36
	.byte		        Dn3 
	.byte	W36
	.byte		N11   , Cn3 
	.byte	W12
	.byte		        Gn3 
	.byte	W12
	.byte	PEND
@ 027   ----------------------------------------
	.byte		N17   
	.byte	W18
	.byte		        En3 
	.byte	W18
	.byte		N11   , Dn3 
	.byte	W12
	.byte		N20   , An2 
	.byte	W24
	.byte		        Cn4 
	.byte	W24
@ 028   ----------------------------------------
	.byte	PATT
	 .word	feb20220526210040_1_024
@ 029   ----------------------------------------
	.byte	PATT
	 .word	feb20220526210040_1_025
@ 030   ----------------------------------------
	.byte		N32   , Gn3 , v112
	.byte	W36
	.byte		        Dn3 
	.byte	W36
	.byte		N20   , Cn4 
	.byte	W24
@ 031   ----------------------------------------
	.byte		N32   , Bn3 
	.byte	W36
	.byte		        Cn4 
	.byte	W36
	.byte		N20   , Dn4 
	.byte	W24
@ 032   ----------------------------------------
	.byte		N66   , Cn4 
	.byte	W72
	.byte		N20   , En3 
	.byte	W24
@ 033   ----------------------------------------
	.byte	PATT
	 .word	feb20220526210040_1_025
@ 034   ----------------------------------------
	.byte	PATT
	 .word	feb20220526210040_1_026
@ 035   ----------------------------------------
	.byte		N17   , Gn3 , v112
	.byte	W18
	.byte		        En3 
	.byte	W18
	.byte		N11   , Dn3 
	.byte	W12
	.byte		N20   , An2 
	.byte	W24
	.byte		N11   , Cn3 
	.byte	W12
	.byte		        Bn2 
	.byte	W12
@ 036   ----------------------------------------
	.byte		N32   , Cn3 
	.byte	W36
	.byte		        Fn3 
	.byte	W36
	.byte		N20   , Gn3 
	.byte	W24
@ 037   ----------------------------------------
	.byte		N32   , Cn3 
	.byte	W36
	.byte		        An2 
	.byte	W36
	.byte		N11   , Dn3 
	.byte	W12
	.byte		        En3 
	.byte	W12
@ 038   ----------------------------------------
	.byte		TIE   , Cn3 
	.byte	W96
@ 039   ----------------------------------------
	.byte	W90
	.byte		EOT   
	.byte	W06
@ 040   ----------------------------------------
	.byte	FINE

@**************** Track 2 (Midi-Chn.2) ****************@

feb20220526210040_2:
	.byte	KEYSH , feb20220526210040_key+0
@ 000   ----------------------------------------
	.byte		VOICE , 40
	.byte		VOL   , 63*feb20220526210040_mvl/mxv
	.byte		PAN   , c_v+0
	.byte		TIE   , Fn3 , v112
	.byte	W96
@ 001   ----------------------------------------
	.byte	W96
	.byte		EOT   
@ 002   ----------------------------------------
	.byte		N42   , Gn3 
	.byte	W48
	.byte		N48   , Bn3 
	.byte	W48
@ 003   ----------------------------------------
	.byte		N42   , Cn4 
	.byte	W48
	.byte		N48   
	.byte	W48
@ 004   ----------------------------------------
	.byte		N96   , Fn3 
	.byte	W96
@ 005   ----------------------------------------
	.byte		N42   , Gn3 
	.byte	W48
	.byte		N42   
	.byte	W48
@ 006   ----------------------------------------
	.byte		N66   
	.byte	W96
@ 007   ----------------------------------------
	.byte	W96
@ 008   ----------------------------------------
	.byte	W96
@ 009   ----------------------------------------
	.byte	W96
@ 010   ----------------------------------------
	.byte		N32   , Cn3 
	.byte	W96
@ 011   ----------------------------------------
	.byte	W96
@ 012   ----------------------------------------
	.byte	W96
@ 013   ----------------------------------------
	.byte	W96
@ 014   ----------------------------------------
	.byte	W96
@ 015   ----------------------------------------
	.byte	W96
@ 016   ----------------------------------------
	.byte	W96
@ 017   ----------------------------------------
	.byte	W96
@ 018   ----------------------------------------
	.byte		TIE   
	.byte	W96
@ 019   ----------------------------------------
	.byte	W96
	.byte		EOT   
@ 020   ----------------------------------------
	.byte	W96
@ 021   ----------------------------------------
	.byte	W96
@ 022   ----------------------------------------
	.byte	W96
@ 023   ----------------------------------------
	.byte	W72
	.byte		N11   , En2 
	.byte	W24
@ 024   ----------------------------------------
	.byte		N42   , En3 
	.byte	W48
	.byte		        An3 
	.byte	W48
@ 025   ----------------------------------------
feb20220526210040_2_025:
	.byte		N42   , Fn3 , v112
	.byte	W48
	.byte		N48   
	.byte	W48
	.byte	PEND
@ 026   ----------------------------------------
	.byte		TIE   , En3 
	.byte	W96
@ 027   ----------------------------------------
	.byte	W96
	.byte		EOT   
@ 028   ----------------------------------------
	.byte		N42   
	.byte	W48
	.byte		        An3 
	.byte	W48
@ 029   ----------------------------------------
	.byte		        Fn3 
	.byte	W48
	.byte		N32   
	.byte	W48
@ 030   ----------------------------------------
	.byte		TIE   , En3 
	.byte	W96
@ 031   ----------------------------------------
	.byte	W96
	.byte		EOT   
@ 032   ----------------------------------------
	.byte		N96   , An3 
	.byte	W96
@ 033   ----------------------------------------
	.byte	PATT
	 .word	feb20220526210040_2_025
@ 034   ----------------------------------------
	.byte		TIE   , En3 , v112
	.byte	W96
@ 035   ----------------------------------------
	.byte	W96
	.byte		EOT   
@ 036   ----------------------------------------
	.byte	W96
@ 037   ----------------------------------------
	.byte	W96
@ 038   ----------------------------------------
	.byte		TIE   , Gn2 
	.byte	W96
@ 039   ----------------------------------------
	.byte	W90
	.byte		EOT   
	.byte	W06
@ 040   ----------------------------------------
	.byte	FINE

@**************** Track 3 (Midi-Chn.3) ****************@

feb20220526210040_3:
	.byte	KEYSH , feb20220526210040_key+0
@ 000   ----------------------------------------
	.byte		VOICE , 110
	.byte		VOL   , 38*feb20220526210040_mvl/mxv
	.byte		PAN   , c_v+0
	.byte	W96
@ 001   ----------------------------------------
	.byte	W96
@ 002   ----------------------------------------
	.byte	W96
@ 003   ----------------------------------------
	.byte		N42   , Fn4 , v112
	.byte	W48
	.byte		N48   , Gn4 
	.byte	W48
@ 004   ----------------------------------------
	.byte	W96
@ 005   ----------------------------------------
	.byte		N42   , Dn4 
	.byte	W48
	.byte		N42   
	.byte	W48
@ 006   ----------------------------------------
	.byte		N66   , En4 
	.byte	W96
@ 007   ----------------------------------------
	.byte	W96
@ 008   ----------------------------------------
	.byte	W96
@ 009   ----------------------------------------
	.byte	W96
@ 010   ----------------------------------------
	.byte	W96
@ 011   ----------------------------------------
	.byte	W96
@ 012   ----------------------------------------
	.byte	W96
@ 013   ----------------------------------------
	.byte	W96
@ 014   ----------------------------------------
	.byte	W96
@ 015   ----------------------------------------
	.byte	W96
@ 016   ----------------------------------------
	.byte	W96
@ 017   ----------------------------------------
	.byte	W96
@ 018   ----------------------------------------
	.byte	W96
@ 019   ----------------------------------------
	.byte	W96
@ 020   ----------------------------------------
	.byte	W96
@ 021   ----------------------------------------
	.byte	W96
@ 022   ----------------------------------------
	.byte	W96
@ 023   ----------------------------------------
	.byte	W96
@ 024   ----------------------------------------
feb20220526210040_3_024:
	.byte		N42   , Cn4 , v112
	.byte	W48
	.byte		        En4 
	.byte	W48
	.byte	PEND
@ 025   ----------------------------------------
feb20220526210040_3_025:
	.byte		N42   , Cn4 , v112
	.byte	W48
	.byte		N48   
	.byte	W48
	.byte	PEND
@ 026   ----------------------------------------
	.byte		TIE   
	.byte	W96
@ 027   ----------------------------------------
	.byte	W96
	.byte		EOT   
@ 028   ----------------------------------------
	.byte	PATT
	 .word	feb20220526210040_3_024
@ 029   ----------------------------------------
	.byte		N42   , Cn4 , v112
	.byte	W48
	.byte		N32   
	.byte	W48
@ 030   ----------------------------------------
	.byte		TIE   
	.byte	W96
@ 031   ----------------------------------------
	.byte	W96
	.byte		EOT   
@ 032   ----------------------------------------
	.byte		N96   , En4 
	.byte	W96
@ 033   ----------------------------------------
	.byte	PATT
	 .word	feb20220526210040_3_025
@ 034   ----------------------------------------
	.byte		TIE   , Cn4 , v112
	.byte	W96
@ 035   ----------------------------------------
	.byte	W96
	.byte		EOT   
@ 036   ----------------------------------------
	.byte	W96
@ 037   ----------------------------------------
	.byte	W96
@ 038   ----------------------------------------
	.byte		TIE   , En3 
	.byte	W96
@ 039   ----------------------------------------
	.byte	W90
	.byte		EOT   
	.byte	W06
@ 040   ----------------------------------------
	.byte	FINE

@**************** Track 4 (Midi-Chn.4) ****************@

feb20220526210040_4:
	.byte	KEYSH , feb20220526210040_key+0
@ 000   ----------------------------------------
	.byte		VOICE , 48
	.byte		VOL   , 64*feb20220526210040_mvl/mxv
	.byte		PAN   , c_v+0
	.byte	W96
@ 001   ----------------------------------------
	.byte	W96
@ 002   ----------------------------------------
	.byte	W96
@ 003   ----------------------------------------
	.byte	W96
@ 004   ----------------------------------------
	.byte	W96
@ 005   ----------------------------------------
	.byte	W96
@ 006   ----------------------------------------
	.byte	W96
@ 007   ----------------------------------------
	.byte	W96
@ 008   ----------------------------------------
	.byte		N90   , An2 , v112
	.byte	W96
@ 009   ----------------------------------------
	.byte		        Gn2 
	.byte	W96
@ 010   ----------------------------------------
	.byte		TIE   , Cn2 
	.byte	W96
@ 011   ----------------------------------------
	.byte	W90
	.byte		EOT   
	.byte	W06
@ 012   ----------------------------------------
	.byte		N90   , An2 
	.byte	W96
@ 013   ----------------------------------------
	.byte		        Bn2 
	.byte	W96
@ 014   ----------------------------------------
	.byte		TIE   , An2 
	.byte	W96
@ 015   ----------------------------------------
	.byte	W90
	.byte		EOT   
	.byte	W06
@ 016   ----------------------------------------
	.byte		N90   
	.byte	W96
@ 017   ----------------------------------------
	.byte		        Gn2 
	.byte	W96
@ 018   ----------------------------------------
	.byte		TIE   , Cn2 
	.byte	W96
@ 019   ----------------------------------------
	.byte	W90
	.byte		EOT   
	.byte	W06
@ 020   ----------------------------------------
	.byte		N90   , An2 
	.byte	W96
@ 021   ----------------------------------------
	.byte		        Bn2 
	.byte	W96
@ 022   ----------------------------------------
	.byte		        En2 
	.byte	W96
@ 023   ----------------------------------------
	.byte		N90   
	.byte	W96
@ 024   ----------------------------------------
	.byte	W96
@ 025   ----------------------------------------
	.byte	W96
@ 026   ----------------------------------------
	.byte	W96
@ 027   ----------------------------------------
	.byte		        Gn2 
	.byte	W96
@ 028   ----------------------------------------
	.byte	W96
@ 029   ----------------------------------------
	.byte	W96
@ 030   ----------------------------------------
	.byte	W96
@ 031   ----------------------------------------
	.byte		N32   , Bn2 
	.byte	W96
@ 032   ----------------------------------------
	.byte	W96
@ 033   ----------------------------------------
	.byte	W96
@ 034   ----------------------------------------
	.byte	W96
@ 035   ----------------------------------------
	.byte		N66   , Gn2 
	.byte	W96
@ 036   ----------------------------------------
	.byte		N90   , An2 
	.byte	W90
	.byte	FINE

@**************** Track 5 (Midi-Chn.5) ****************@

feb20220526210040_5:
	.byte	KEYSH , feb20220526210040_key+0
@ 000   ----------------------------------------
	.byte		VOICE , 48
	.byte		VOL   , 45*feb20220526210040_mvl/mxv
	.byte		PAN   , c_v+0
	.byte	W96
@ 001   ----------------------------------------
	.byte	W96
@ 002   ----------------------------------------
	.byte	W96
@ 003   ----------------------------------------
	.byte	W96
@ 004   ----------------------------------------
	.byte	W96
@ 005   ----------------------------------------
	.byte	W96
@ 006   ----------------------------------------
	.byte	W96
@ 007   ----------------------------------------
	.byte	W96
@ 008   ----------------------------------------
	.byte		N90   , Fn3 , v112
	.byte	W96
@ 009   ----------------------------------------
	.byte	W96
@ 010   ----------------------------------------
	.byte	W96
@ 011   ----------------------------------------
	.byte	W96
@ 012   ----------------------------------------
	.byte		N90   
	.byte	W96
@ 013   ----------------------------------------
	.byte		        Gn3 
	.byte	W96
@ 014   ----------------------------------------
	.byte	W96
@ 015   ----------------------------------------
	.byte	W96
@ 016   ----------------------------------------
	.byte		        Fn3 
	.byte	W96
@ 017   ----------------------------------------
	.byte	W96
@ 018   ----------------------------------------
	.byte	W96
@ 019   ----------------------------------------
	.byte	W96
@ 020   ----------------------------------------
	.byte		N90   
	.byte	W96
@ 021   ----------------------------------------
	.byte		        Gn3 
	.byte	W96
@ 022   ----------------------------------------
	.byte	W96
@ 023   ----------------------------------------
	.byte	W96
@ 024   ----------------------------------------
	.byte	W96
@ 025   ----------------------------------------
	.byte	W96
@ 026   ----------------------------------------
	.byte	W96
@ 027   ----------------------------------------
	.byte		        Dn3 
	.byte	W96
@ 028   ----------------------------------------
	.byte	W96
@ 029   ----------------------------------------
	.byte	W96
@ 030   ----------------------------------------
	.byte	W96
@ 031   ----------------------------------------
	.byte		N32   , Gn3 
	.byte	W96
@ 032   ----------------------------------------
	.byte	W96
@ 033   ----------------------------------------
	.byte	W96
@ 034   ----------------------------------------
	.byte	W96
@ 035   ----------------------------------------
	.byte		N66   , Dn3 
	.byte	W96
@ 036   ----------------------------------------
	.byte		N90   , Fn3 
	.byte	W90
	.byte	FINE

@**************** Track 6 (Midi-Chn.6) ****************@

feb20220526210040_6:
	.byte	KEYSH , feb20220526210040_key+0
@ 000   ----------------------------------------
	.byte		VOICE , 33
	.byte		VOL   , 76*feb20220526210040_mvl/mxv
	.byte		PAN   , c_v+0
	.byte	W96
@ 001   ----------------------------------------
	.byte	W48
	.byte		N20   , Cn1 , v112
	.byte	W24
	.byte		        Fn1 
	.byte	W24
@ 002   ----------------------------------------
	.byte		N90   , Dn1 
	.byte	W96
@ 003   ----------------------------------------
	.byte		        Cn1 
	.byte	W96
@ 004   ----------------------------------------
	.byte		        Fn1 
	.byte	W96
@ 005   ----------------------------------------
	.byte		N66   , Gn1 
	.byte	W72
	.byte		N20   , Dn1 
	.byte	W24
@ 006   ----------------------------------------
	.byte		N66   , En1 
	.byte	W72
	.byte		N20   , Gn1 
	.byte	W24
@ 007   ----------------------------------------
	.byte		N90   , Cn1 
	.byte	W96
@ 008   ----------------------------------------
	.byte		        Cn2 
	.byte	W96
@ 009   ----------------------------------------
	.byte		        Bn1 
	.byte	W96
@ 010   ----------------------------------------
	.byte		TIE   , Gn1 
	.byte	W96
@ 011   ----------------------------------------
	.byte	W90
	.byte		EOT   
	.byte	W06
@ 012   ----------------------------------------
	.byte		N90   , Cn2 
	.byte	W96
@ 013   ----------------------------------------
	.byte		        Dn2 
	.byte	W96
@ 014   ----------------------------------------
	.byte		TIE   , Cn2 
	.byte	W96
@ 015   ----------------------------------------
	.byte	W90
	.byte		EOT   
	.byte	W06
@ 016   ----------------------------------------
	.byte		N90   
	.byte	W96
@ 017   ----------------------------------------
	.byte		        Bn1 
	.byte	W96
@ 018   ----------------------------------------
	.byte		TIE   , Gn1 
	.byte	W96
@ 019   ----------------------------------------
	.byte	W90
	.byte		EOT   
	.byte	W06
@ 020   ----------------------------------------
	.byte		N90   , Cn2 
	.byte	W96
@ 021   ----------------------------------------
	.byte		        Dn2 
	.byte	W96
@ 022   ----------------------------------------
	.byte		        Gn1 
	.byte	W96
@ 023   ----------------------------------------
	.byte		N90   
	.byte	W96
@ 024   ----------------------------------------
feb20220526210040_6_024:
	.byte		N32   , An1 , v112
	.byte	W36
	.byte		        En1 
	.byte	W36
	.byte		N20   , An1 
	.byte	W24
	.byte	PEND
@ 025   ----------------------------------------
feb20220526210040_6_025:
	.byte		N32   , Fn1 , v112
	.byte	W36
	.byte		        Cn2 
	.byte	W36
	.byte		N20   , Fn1 
	.byte	W24
	.byte	PEND
@ 026   ----------------------------------------
	.byte		N90   , En1 
	.byte	W96
@ 027   ----------------------------------------
	.byte		        Bn1 
	.byte	W96
@ 028   ----------------------------------------
	.byte	PATT
	 .word	feb20220526210040_6_024
@ 029   ----------------------------------------
	.byte	PATT
	 .word	feb20220526210040_6_025
@ 030   ----------------------------------------
	.byte		N90   , En1 , v112
	.byte	W96
@ 031   ----------------------------------------
	.byte		N32   , Dn2 
	.byte	W36
	.byte		        An1 
	.byte	W36
	.byte		N20   , Bn1 
	.byte	W24
@ 032   ----------------------------------------
	.byte	PATT
	 .word	feb20220526210040_6_024
@ 033   ----------------------------------------
	.byte	PATT
	 .word	feb20220526210040_6_025
@ 034   ----------------------------------------
	.byte		N90   , En1 , v112
	.byte	W96
@ 035   ----------------------------------------
	.byte		N66   , Bn1 
	.byte	W72
	.byte		N20   , Gn1 
	.byte	W24
@ 036   ----------------------------------------
	.byte		N90   , Cn2 
	.byte	W96
@ 037   ----------------------------------------
	.byte		N66   , Fn1 
	.byte	W72
	.byte		N20   , Gn1 
	.byte	W24
@ 038   ----------------------------------------
	.byte		N32   , Cn1 
	.byte	W36
	.byte		        Dn1 
	.byte	W36
	.byte		N20   , En1 
	.byte	W24
@ 039   ----------------------------------------
	.byte		N32   , Gn1 
	.byte	W36
	.byte		        Cn2 
	.byte	W36
	.byte		N20   , Dn2 
	.byte	W20
	.byte	FINE

@******************************************************@
	.align	2

feb20220526210040:
	.byte	6	@ NumTrks
	.byte	0	@ NumBlks
	.byte	feb20220526210040_pri	@ Priority
	.byte	feb20220526210040_rev	@ Reverb.

	.word	feb20220526210040_grp

	.word	feb20220526210040_1
	.word	feb20220526210040_2
	.word	feb20220526210040_3
	.word	feb20220526210040_4
	.word	feb20220526210040_5
	.word	feb20220526210040_6

	.end
