	.include "MPlayDef.s"

	.equ	Fuse_grp, voicegroup000
	.equ	Fuse_pri, 0
	.equ	Fuse_rev, 0
	.equ	Fuse_mvl, 50
	.equ	Fuse_key, 0
	.equ	Fuse_tbs, 1
	.equ	Fuse_exg, 0
	.equ	Fuse_cmp, 1

	.section .rodata
	.global	Fuse
	.align	2

@**************** Track 1 (Midi-Chn.1) ****************@

Fuse_1:
	.byte	KEYSH , Fuse_key+0
@ 000   ----------------------------------------
	.byte	TEMPO , 175*Fuse_tbs/2
	.byte		VOICE , 110
	.byte		PAN   , c_v-22
	.byte		VOL   , 105*Fuse_mvl/mxv
	.byte		N92   , Fs5 , v088
	.byte	W01
	.byte	W01
	.byte	W01
	.byte	W01
	.byte	W01
	.byte	W01
	.byte	W01
	.byte	W01
	.byte	W01
	.byte	W01
	.byte	W01
	.byte	W01
	.byte	W01
	.byte	W01
	.byte	W01
	.byte	W01
	.byte	W01
	.byte	W01
	.byte	W01
	.byte	W01
	.byte	W01
	.byte	W01
	.byte	W01
	.byte	W01
	.byte	W01
	.byte	W01
	.byte	W01
	.byte	W01
	.byte	W01
	.byte	W01
	.byte	W01
	.byte	W01
	.byte	W01
	.byte	W01
	.byte	W01
	.byte	W01
	.byte	W01
	.byte	W01
	.byte	W01
	.byte	W01
	.byte	W01
	.byte	W01
	.byte	W01
	.byte	W01
	.byte	W01
	.byte	W01
	.byte	W01
	.byte	W01
	.byte	W01
	.byte	W01
	.byte	W01
	.byte	W01
	.byte	W01
	.byte	W01
	.byte	W01
	.byte	W01
	.byte	W01
	.byte	W01
	.byte	W01
	.byte	W01
	.byte	W01
	.byte	W01
	.byte	W01
	.byte	W01
	.byte	W01
	.byte	W01
	.byte	W01
	.byte	W01
	.byte	W01
	.byte	W01
	.byte	W01
	.byte	W01
	.byte	W01
	.byte	W01
	.byte	W01
	.byte	W01
	.byte	W01
	.byte	W01
	.byte	W01
	.byte	W17
@ 001   ----------------------------------------
	.byte	W96
@ 002   ----------------------------------------
	.byte	W96
@ 003   ----------------------------------------
	.byte	W96
@ 004   ----------------------------------------
	.byte	W96
@ 005   ----------------------------------------
	.byte	W96
@ 006   ----------------------------------------
	.byte	W96
@ 007   ----------------------------------------
	.byte	W96
Fuse_1_B1:
@ 008   ----------------------------------------
	.byte	W72
@ 009   ----------------------------------------
	.byte		N23   , Cs4 , v096
	.byte	W24
@ 010   ----------------------------------------
Fuse_1_010:
	.byte		N32   , Fs4 , v096
	.byte	W36
	.byte		N05   , Gs4 
	.byte	W24
	.byte		        An4 
	.byte	W12
	.byte	PEND
@ 011   ----------------------------------------
Fuse_1_011:
	.byte		N32   , Gs4 , v096
	.byte	W36
	.byte		N05   , Fs4 
	.byte	W24
	.byte		        An4 
	.byte	W12
	.byte	PEND
@ 012   ----------------------------------------
Fuse_1_012:
	.byte		N32   , Gs4 , v096
	.byte	W36
	.byte		N05   , Fs4 
	.byte	W12
	.byte	PEND
@ 013   ----------------------------------------
	.byte	W12
	.byte		        An4 
	.byte	W12
	.byte		N44   , Gs4 
	.byte	W48
	.byte		N23   , Fs4 
	.byte	W24
@ 014   ----------------------------------------
	.byte		TIE   , Cs4 
	.byte	W96
@ 015   ----------------------------------------
	.byte	W96
@ 016   ----------------------------------------
	.byte	W96
@ 017   ----------------------------------------
	.byte	W56
	.byte	W03
	.byte		EOT   
	.byte	W13
@ 018   ----------------------------------------
	.byte		N23   
	.byte	W24
@ 019   ----------------------------------------
	.byte	PATT
	 .word	Fuse_1_010
@ 020   ----------------------------------------
	.byte	PATT
	 .word	Fuse_1_011
@ 021   ----------------------------------------
	.byte	PATT
	 .word	Fuse_1_012
@ 022   ----------------------------------------
	.byte	W12
	.byte		N05   , An4 , v096
	.byte	W12
	.byte		N32   , Gs4 
	.byte	W36
	.byte		N05   , An4 
	.byte	W24
	.byte		        Bn4 
	.byte	W12
@ 023   ----------------------------------------
	.byte		TIE   , Cs5 
	.byte	W96
@ 024   ----------------------------------------
	.byte	W96
@ 025   ----------------------------------------
	.byte	W96
@ 026   ----------------------------------------
	.byte	W56
	.byte	W03
	.byte		EOT   
	.byte	W36
	.byte	W01
@ 027   ----------------------------------------
	.byte		TIE   , Cs4 , v080
	.byte	W96
@ 028   ----------------------------------------
	.byte	W92
	.byte	W03
	.byte		EOT   
	.byte	W01
@ 029   ----------------------------------------
	.byte		TIE   , Ds4 
	.byte	W96
@ 030   ----------------------------------------
	.byte	W92
	.byte	W03
	.byte		EOT   
	.byte	W01
@ 031   ----------------------------------------
Fuse_1_031:
	.byte		N32   , En4 , v084
	.byte	W01
	.byte	W01
	.byte	W01
	.byte	W01
	.byte	W01
	.byte	W01
	.byte	W01
	.byte	W01
	.byte	W01
	.byte	W01
	.byte	W01
	.byte	W01
	.byte	W01
	.byte	W01
	.byte	W22
	.byte		N08   , Ds4 
	.byte	W32
	.byte	W01
	.byte	W01
	.byte	W01
	.byte	W01
	.byte		N32   , En4 
	.byte	W01
	.byte	W01
	.byte	W01
	.byte	W01
	.byte	W01
	.byte	W01
	.byte	W01
	.byte	W01
	.byte	W01
	.byte	W01
	.byte	W01
	.byte	W01
	.byte	W12
	.byte	PEND
@ 032   ----------------------------------------
Fuse_1_032:
	.byte	W12
	.byte		N08   , Ds4 , v084
	.byte	W36
	.byte		N11   , En4 
	.byte	W24
	.byte		        Ds4 
	.byte	W24
	.byte	PEND
@ 033   ----------------------------------------
	.byte		TIE   , Dn4 
	.byte	W96
@ 034   ----------------------------------------
	.byte	W92
	.byte	W03
	.byte		EOT   
	.byte	W01
@ 035   ----------------------------------------
	.byte		TIE   , Cs4 , v080
	.byte	W96
@ 036   ----------------------------------------
	.byte	W92
	.byte	W03
	.byte		EOT   
	.byte	W01
@ 037   ----------------------------------------
	.byte		TIE   , Ds4 
	.byte	W96
@ 038   ----------------------------------------
	.byte	W92
	.byte	W03
	.byte		EOT   
	.byte	W01
@ 039   ----------------------------------------
	.byte	PATT
	 .word	Fuse_1_031
@ 040   ----------------------------------------
	.byte	PATT
	 .word	Fuse_1_032
@ 041   ----------------------------------------
	.byte		TIE   , Dn4 , v084
	.byte	W96
@ 042   ----------------------------------------
	.byte	W44
	.byte	W03
	.byte		EOT   
	.byte	W01
	.byte		N15   , Dn4 , v088
	.byte	W16
	.byte		        Ds4 
	.byte	W16
	.byte		        En4 
	.byte	W16
@ 043   ----------------------------------------
	.byte		TIE   , Fn4 , v092
	.byte	W96
@ 044   ----------------------------------------
	.byte	W96
@ 045   ----------------------------------------
	.byte	W96
@ 046   ----------------------------------------
	.byte	W92
	.byte	W03
	.byte		EOT   
	.byte	W01
@ 047   ----------------------------------------
	.byte	W96
@ 048   ----------------------------------------
	.byte	W96
@ 049   ----------------------------------------
	.byte	W96
@ 050   ----------------------------------------
	.byte	W96
@ 051   ----------------------------------------
	.byte	W96
@ 052   ----------------------------------------
	.byte	W96
@ 053   ----------------------------------------
	.byte	W36
	.byte	W01
	.byte		VOL   , 109*Fuse_mvl/mxv
	.byte	W56
	.byte	W03
@ 054   ----------------------------------------
	.byte	W96
@ 055   ----------------------------------------
	.byte	W96
@ 056   ----------------------------------------
	.byte	W90
	.byte	GOTO
	 .word	Fuse_1_B1
Fuse_1_B2:
	.byte	W06
@ 057   ----------------------------------------
	.byte	W96
@ 058   ----------------------------------------
	.byte	W96
@ 059   ----------------------------------------
	.byte	W96
@ 060   ----------------------------------------
	.byte	W96
@ 061   ----------------------------------------
	.byte	W96
@ 062   ----------------------------------------
	.byte	W96
@ 063   ----------------------------------------
	.byte	FINE

@**************** Track 2 (Midi-Chn.2) ****************@

Fuse_2:
	.byte	KEYSH , Fuse_key+0
@ 000   ----------------------------------------
	.byte		VOICE , 48
	.byte		PAN   , c_v+21
	.byte		VOL   , 103*Fuse_mvl/mxv
	.byte	W96
@ 001   ----------------------------------------
	.byte	W96
@ 002   ----------------------------------------
	.byte	W96
@ 003   ----------------------------------------
	.byte	W96
@ 004   ----------------------------------------
	.byte	W96
@ 005   ----------------------------------------
	.byte	W96
@ 006   ----------------------------------------
	.byte	W96
@ 007   ----------------------------------------
	.byte	W96
Fuse_2_B1:
@ 008   ----------------------------------------
	.byte	W72
@ 009   ----------------------------------------
	.byte		N23   , Cs3 , v088
	.byte	W24
@ 010   ----------------------------------------
Fuse_2_010:
	.byte		N32   , Fs3 , v088
	.byte	W36
	.byte		N05   , Gs3 
	.byte	W24
	.byte		        An3 
	.byte	W12
	.byte	PEND
@ 011   ----------------------------------------
Fuse_2_011:
	.byte		N32   , Gs3 , v088
	.byte	W36
	.byte		N05   , Fs3 
	.byte	W24
	.byte		        An3 
	.byte	W12
	.byte	PEND
@ 012   ----------------------------------------
Fuse_2_012:
	.byte		N32   , Gs3 , v088
	.byte	W36
	.byte		N05   , Fs3 
	.byte	W12
	.byte	PEND
@ 013   ----------------------------------------
	.byte	W12
	.byte		        An3 
	.byte	W12
	.byte		N44   , Gs3 
	.byte	W48
	.byte		N23   , Fs3 
	.byte	W24
@ 014   ----------------------------------------
	.byte		TIE   , Cs3 
	.byte	W96
@ 015   ----------------------------------------
	.byte	W96
@ 016   ----------------------------------------
	.byte	W96
@ 017   ----------------------------------------
	.byte	W56
	.byte	W03
	.byte		EOT   
	.byte	W13
@ 018   ----------------------------------------
	.byte		N23   
	.byte	W24
@ 019   ----------------------------------------
	.byte	PATT
	 .word	Fuse_2_010
@ 020   ----------------------------------------
	.byte	PATT
	 .word	Fuse_2_011
@ 021   ----------------------------------------
	.byte	PATT
	 .word	Fuse_2_012
@ 022   ----------------------------------------
	.byte	W12
	.byte		N05   , An3 , v088
	.byte	W12
	.byte		N32   , Gs3 
	.byte	W36
	.byte		N05   , An3 
	.byte	W24
	.byte		        Bn3 
	.byte	W12
@ 023   ----------------------------------------
	.byte		TIE   , Cs4 
	.byte	W96
@ 024   ----------------------------------------
	.byte	W96
@ 025   ----------------------------------------
	.byte	W96
@ 026   ----------------------------------------
	.byte	W56
	.byte	W03
	.byte		EOT   
	.byte	W36
	.byte	W01
@ 027   ----------------------------------------
	.byte		TIE   , An3 , v080
	.byte	W96
@ 028   ----------------------------------------
	.byte	W92
	.byte	W03
	.byte		EOT   
	.byte	W01
@ 029   ----------------------------------------
	.byte		TIE   , Cn4 
	.byte	W96
@ 030   ----------------------------------------
	.byte	W92
	.byte	W03
	.byte		EOT   
	.byte	W01
@ 031   ----------------------------------------
Fuse_2_031:
	.byte		N32   , Cs4 , v084
	.byte	W01
	.byte	W01
	.byte	W01
	.byte	W01
	.byte	W01
	.byte	W01
	.byte	W01
	.byte	W01
	.byte	W01
	.byte	W01
	.byte	W01
	.byte	W01
	.byte	W01
	.byte	W01
	.byte	W22
	.byte		N08   , Cn4 
	.byte	W32
	.byte	W01
	.byte	W01
	.byte	W01
	.byte	W01
	.byte		N32   , Cs4 
	.byte	W01
	.byte	W01
	.byte	W01
	.byte	W01
	.byte	W01
	.byte	W01
	.byte	W01
	.byte	W01
	.byte	W01
	.byte	W01
	.byte	W01
	.byte	W01
	.byte	W12
	.byte	PEND
@ 032   ----------------------------------------
Fuse_2_032:
	.byte	W12
	.byte		N08   , Cn4 , v084
	.byte	W36
	.byte		N11   , Cs4 
	.byte	W24
	.byte		        Cn4 
	.byte	W24
	.byte	PEND
@ 033   ----------------------------------------
	.byte		TIE   , Bn3 
	.byte	W96
@ 034   ----------------------------------------
	.byte	W92
	.byte	W03
	.byte		EOT   
	.byte	W01
@ 035   ----------------------------------------
	.byte		TIE   , An3 , v080
	.byte	W96
@ 036   ----------------------------------------
	.byte	W92
	.byte	W03
	.byte		EOT   
	.byte	W01
@ 037   ----------------------------------------
	.byte		TIE   , Cn4 
	.byte	W96
@ 038   ----------------------------------------
	.byte	W92
	.byte	W03
	.byte		EOT   
	.byte	W01
@ 039   ----------------------------------------
	.byte	PATT
	 .word	Fuse_2_031
@ 040   ----------------------------------------
	.byte	PATT
	 .word	Fuse_2_032
@ 041   ----------------------------------------
	.byte		TIE   , Bn3 , v084
	.byte	W96
@ 042   ----------------------------------------
	.byte	W44
	.byte	W03
	.byte		EOT   
	.byte	W01
	.byte		N15   , Bn3 , v076
	.byte	W16
	.byte		N15   
	.byte	W16
	.byte		        Cn4 
	.byte	W16
@ 043   ----------------------------------------
	.byte		TIE   , Cs4 , v084
	.byte	W96
@ 044   ----------------------------------------
	.byte	W96
@ 045   ----------------------------------------
	.byte	W96
@ 046   ----------------------------------------
	.byte	W92
	.byte	W03
	.byte		EOT   
	.byte	W01
@ 047   ----------------------------------------
	.byte	W96
@ 048   ----------------------------------------
	.byte	W96
@ 049   ----------------------------------------
	.byte	W96
@ 050   ----------------------------------------
	.byte	W96
@ 051   ----------------------------------------
	.byte	W96
@ 052   ----------------------------------------
	.byte	W96
@ 053   ----------------------------------------
	.byte	W36
	.byte	W03
	.byte		VOL   , 109*Fuse_mvl/mxv
	.byte	W56
	.byte	W01
@ 054   ----------------------------------------
	.byte	W96
@ 055   ----------------------------------------
	.byte	W96
@ 056   ----------------------------------------
	.byte	W90
	.byte	GOTO
	 .word	Fuse_2_B1
Fuse_2_B2:
	.byte	W06
@ 057   ----------------------------------------
	.byte	W96
@ 058   ----------------------------------------
	.byte	W96
@ 059   ----------------------------------------
	.byte	W96
@ 060   ----------------------------------------
	.byte	W96
@ 061   ----------------------------------------
	.byte	W96
@ 062   ----------------------------------------
	.byte	W96
@ 063   ----------------------------------------
	.byte	FINE

@**************** Track 3 (Midi-Chn.3) ****************@

Fuse_3:
	.byte	KEYSH , Fuse_key+0
@ 000   ----------------------------------------
	.byte		VOICE , 49
	.byte		VOL   , 76*Fuse_mvl/mxv
	.byte		PAN   , c_v+0
	.byte	W96
@ 001   ----------------------------------------
	.byte	W96
@ 002   ----------------------------------------
	.byte	W96
@ 003   ----------------------------------------
	.byte	W96
@ 004   ----------------------------------------
	.byte	W96
@ 005   ----------------------------------------
	.byte	W96
@ 006   ----------------------------------------
	.byte	W96
@ 007   ----------------------------------------
	.byte	W96
Fuse_3_B1:
@ 008   ----------------------------------------
	.byte	W72
@ 009   ----------------------------------------
	.byte	W24
@ 010   ----------------------------------------
	.byte		N68   , Cs4 , v080
	.byte	W72
@ 011   ----------------------------------------
	.byte		        Bn3 
	.byte	W72
@ 012   ----------------------------------------
	.byte		        Cs4 
	.byte	W48
@ 013   ----------------------------------------
	.byte	W24
	.byte		        Bn3 
	.byte	W72
@ 014   ----------------------------------------
	.byte		N92   , An3 
	.byte	W96
@ 015   ----------------------------------------
	.byte		        Bn3 
	.byte	W96
@ 016   ----------------------------------------
	.byte		        Cs4 
	.byte	W96
@ 017   ----------------------------------------
	.byte	W72
@ 018   ----------------------------------------
	.byte	W24
@ 019   ----------------------------------------
	.byte		N68   
	.byte	W72
@ 020   ----------------------------------------
	.byte		        Bn3 
	.byte	W72
@ 021   ----------------------------------------
	.byte		        Cs4 
	.byte	W48
@ 022   ----------------------------------------
	.byte	W24
	.byte		        Bn3 
	.byte	W72
@ 023   ----------------------------------------
	.byte		N92   , An3 
	.byte	W96
@ 024   ----------------------------------------
	.byte		        Bn3 
	.byte	W96
@ 025   ----------------------------------------
	.byte		        Cs4 
	.byte	W96
@ 026   ----------------------------------------
	.byte	W96
@ 027   ----------------------------------------
	.byte	W96
@ 028   ----------------------------------------
	.byte	W96
@ 029   ----------------------------------------
	.byte	W96
@ 030   ----------------------------------------
	.byte	W96
@ 031   ----------------------------------------
	.byte	W96
@ 032   ----------------------------------------
	.byte	W96
@ 033   ----------------------------------------
	.byte	W96
@ 034   ----------------------------------------
	.byte	W96
@ 035   ----------------------------------------
	.byte	W96
@ 036   ----------------------------------------
	.byte	W96
@ 037   ----------------------------------------
	.byte	W96
@ 038   ----------------------------------------
	.byte	W96
@ 039   ----------------------------------------
	.byte	W96
@ 040   ----------------------------------------
	.byte	W96
@ 041   ----------------------------------------
	.byte	W96
@ 042   ----------------------------------------
	.byte	W96
@ 043   ----------------------------------------
	.byte	W96
@ 044   ----------------------------------------
	.byte	W96
@ 045   ----------------------------------------
	.byte	W96
@ 046   ----------------------------------------
	.byte	W96
@ 047   ----------------------------------------
	.byte	W96
@ 048   ----------------------------------------
	.byte	W96
@ 049   ----------------------------------------
	.byte	W96
@ 050   ----------------------------------------
	.byte	W96
@ 051   ----------------------------------------
	.byte	W96
@ 052   ----------------------------------------
	.byte	W96
@ 053   ----------------------------------------
	.byte	W96
@ 054   ----------------------------------------
	.byte	W96
@ 055   ----------------------------------------
	.byte	W96
@ 056   ----------------------------------------
	.byte	W90
	.byte	GOTO
	 .word	Fuse_3_B1
Fuse_3_B2:
	.byte	W06
@ 057   ----------------------------------------
	.byte	W96
@ 058   ----------------------------------------
	.byte	W96
@ 059   ----------------------------------------
	.byte	W96
@ 060   ----------------------------------------
	.byte	W96
@ 061   ----------------------------------------
	.byte	W96
@ 062   ----------------------------------------
	.byte	W96
@ 063   ----------------------------------------
	.byte	FINE

@**************** Track 4 (Midi-Chn.4) ****************@

Fuse_4:
	.byte	KEYSH , Fuse_key+0
@ 000   ----------------------------------------
	.byte		VOICE , 61
	.byte		VOL   , 101*Fuse_mvl/mxv
	.byte		PAN   , c_v-28
	.byte	W96
@ 001   ----------------------------------------
	.byte		N17   , Fs3 , v100
	.byte	W96
@ 002   ----------------------------------------
	.byte	W96
@ 003   ----------------------------------------
	.byte	W96
@ 004   ----------------------------------------
	.byte	W72
	.byte		N11   , En3 
	.byte	W24
@ 005   ----------------------------------------
	.byte		N17   , Fs3 
	.byte	W96
@ 006   ----------------------------------------
	.byte	W96
@ 007   ----------------------------------------
	.byte	W96
Fuse_4_B1:
@ 008   ----------------------------------------
	.byte	W72
@ 009   ----------------------------------------
	.byte	W24
@ 010   ----------------------------------------
Fuse_4_010:
	.byte		N12   , Cs3 , v096
	.byte	W12
	.byte		N12   
	.byte	W24
	.byte		N12   
	.byte	W24
	.byte		N12   
	.byte	W12
	.byte	PEND
@ 011   ----------------------------------------
Fuse_4_011:
	.byte		N12   , Bn2 , v096
	.byte	W12
	.byte		N12   
	.byte	W24
	.byte		N12   
	.byte	W24
	.byte		N12   
	.byte	W12
	.byte	PEND
@ 012   ----------------------------------------
Fuse_4_012:
	.byte		N12   , Cs3 , v096
	.byte	W12
	.byte		N12   
	.byte	W24
	.byte		N12   
	.byte	W12
	.byte	PEND
@ 013   ----------------------------------------
Fuse_4_013:
	.byte	W12
	.byte		N12   , Cs3 , v096
	.byte	W12
	.byte		        Bn2 
	.byte	W12
	.byte		N12   
	.byte	W24
	.byte		N12   
	.byte	W24
	.byte		N12   
	.byte	W12
	.byte	PEND
@ 014   ----------------------------------------
Fuse_4_014:
	.byte		N12   , An2 , v096
	.byte	W12
	.byte		N12   
	.byte	W24
	.byte		N12   
	.byte	W24
	.byte		N12   
	.byte	W24
	.byte		N12   
	.byte	W12
	.byte	PEND
@ 015   ----------------------------------------
Fuse_4_015:
	.byte		N12   , Bn2 , v096
	.byte	W12
	.byte		N12   
	.byte	W24
	.byte		N12   
	.byte	W24
	.byte		N12   
	.byte	W24
	.byte		N12   
	.byte	W12
	.byte	PEND
@ 016   ----------------------------------------
Fuse_4_016:
	.byte		N12   , Cs3 , v096
	.byte	W12
	.byte		N12   
	.byte	W24
	.byte		N12   
	.byte	W24
	.byte		N12   
	.byte	W24
	.byte		N12   
	.byte	W12
	.byte	PEND
@ 017   ----------------------------------------
	.byte		N44   , En3 
	.byte	W48
	.byte		        Ds3 
	.byte	W24
@ 018   ----------------------------------------
	.byte	W24
@ 019   ----------------------------------------
	.byte	PATT
	 .word	Fuse_4_010
@ 020   ----------------------------------------
	.byte	PATT
	 .word	Fuse_4_011
@ 021   ----------------------------------------
	.byte	PATT
	 .word	Fuse_4_012
@ 022   ----------------------------------------
	.byte	PATT
	 .word	Fuse_4_013
@ 023   ----------------------------------------
	.byte	PATT
	 .word	Fuse_4_014
@ 024   ----------------------------------------
	.byte	PATT
	 .word	Fuse_4_015
@ 025   ----------------------------------------
	.byte	PATT
	 .word	Fuse_4_016
@ 026   ----------------------------------------
	.byte		N44   , En3 , v096
	.byte	W48
	.byte		        Ds3 
	.byte	W48
@ 027   ----------------------------------------
Fuse_4_027:
	.byte		N12   , An2 , v080
	.byte		N12   , Cs3 
	.byte	W12
	.byte		        An2 
	.byte		N12   , Cs3 
	.byte	W24
	.byte		        An2 
	.byte		N12   , Cs3 
	.byte	W36
	.byte		        An2 
	.byte		N12   , Cs3 
	.byte	W24
	.byte	PEND
@ 028   ----------------------------------------
Fuse_4_028:
	.byte	W12
	.byte		N12   , An2 , v080
	.byte		N12   , Cs3 
	.byte	W36
	.byte		        An2 
	.byte		N12   , Cs3 
	.byte	W48
	.byte	PEND
@ 029   ----------------------------------------
Fuse_4_029:
	.byte		N12   , Cn3 , v080
	.byte		N12   , Ds3 
	.byte	W12
	.byte		        Cn3 
	.byte		N12   , Ds3 
	.byte	W24
	.byte		        Cn3 
	.byte		N12   , Ds3 
	.byte	W36
	.byte		        Cn3 
	.byte		N12   , Ds3 
	.byte	W24
	.byte	PEND
@ 030   ----------------------------------------
Fuse_4_030:
	.byte	W12
	.byte		N12   , Cn3 , v080
	.byte		N12   , Ds3 
	.byte	W36
	.byte		        Cn3 
	.byte		N12   , Ds3 
	.byte	W44
	.byte	W03
	.byte		N24   , En3 , v088
	.byte	W01
	.byte	PEND
@ 031   ----------------------------------------
	.byte		N28   , Cs3 , v080
	.byte	W36
	.byte		N12   , Cn3 
	.byte		N12   , Ds3 , v088
	.byte	W36
	.byte		N28   , Cs3 , v080
	.byte		N28   , En3 , v088
	.byte	W24
@ 032   ----------------------------------------
Fuse_4_032:
	.byte	W12
	.byte		N11   , Cn3 , v080
	.byte		N11   , Ds3 , v088
	.byte	W36
	.byte		        Cs3 , v080
	.byte		N11   , En3 , v088
	.byte	W24
	.byte		        Cn3 , v080
	.byte		N11   , Ds3 , v088
	.byte	W24
	.byte	PEND
@ 033   ----------------------------------------
Fuse_4_033:
	.byte		N28   , Bn2 , v084
	.byte		N28   , Dn3 , v088
	.byte	W36
	.byte		N05   , Bn2 , v068
	.byte		N05   , Dn3 
	.byte	W12
	.byte		        Bn2 , v076
	.byte		N05   , Dn3 
	.byte	W12
	.byte		        Bn2 
	.byte		N05   , Dn3 
	.byte	W12
	.byte		N28   , Bn2 , v084
	.byte		N28   , Dn3 , v088
	.byte	W24
	.byte	PEND
@ 034   ----------------------------------------
	.byte	W12
	.byte		N05   , Bn2 , v068
	.byte		N05   , Dn3 , v072
	.byte	W12
	.byte		        Bn2 , v080
	.byte		N05   , Dn3 , v088
	.byte	W12
	.byte		        Bn2 , v080
	.byte		N05   , Dn3 , v088
	.byte	W12
	.byte		N08   , Bn2 , v080
	.byte		N08   , Dn3 , v088
	.byte	W24
	.byte		        Bn2 , v080
	.byte		N05   , Dn3 , v084
	.byte		N08   , En3 , v088
	.byte	W24
@ 035   ----------------------------------------
	.byte	PATT
	 .word	Fuse_4_027
@ 036   ----------------------------------------
	.byte	PATT
	 .word	Fuse_4_028
@ 037   ----------------------------------------
	.byte	PATT
	 .word	Fuse_4_029
@ 038   ----------------------------------------
	.byte	PATT
	 .word	Fuse_4_030
@ 039   ----------------------------------------
	.byte		N28   , Cs3 , v080
	.byte	W36
	.byte		N11   , Cn3 
	.byte		N11   , Ds3 , v088
	.byte	W36
	.byte		N28   , Cs3 , v080
	.byte		N28   , En3 , v088
	.byte	W24
@ 040   ----------------------------------------
	.byte	PATT
	 .word	Fuse_4_032
@ 041   ----------------------------------------
	.byte	PATT
	 .word	Fuse_4_033
@ 042   ----------------------------------------
	.byte	W12
	.byte		N05   , Bn2 , v068
	.byte		N05   , Dn3 
	.byte	W12
	.byte		        Bn2 , v076
	.byte		N05   , Dn3 
	.byte	W12
	.byte		        Bn2 
	.byte		N05   , Dn3 
	.byte	W12
	.byte		N15   , Bn2 , v072
	.byte		N15   , Dn3 , v092
	.byte	W16
	.byte		        Bn2 , v072
	.byte		N15   , Ds3 , v092
	.byte	W16
	.byte		        Cn3 , v072
	.byte		N15   , En3 , v092
	.byte	W16
@ 043   ----------------------------------------
	.byte		TIE   , Cs3 , v076
	.byte		TIE   , Fn3 , v092
	.byte	W96
@ 044   ----------------------------------------
	.byte	W96
@ 045   ----------------------------------------
	.byte	W96
@ 046   ----------------------------------------
	.byte	W92
	.byte	W03
	.byte		EOT   , Cs3 
	.byte		        Fn3 
	.byte	W01
@ 047   ----------------------------------------
	.byte	W96
@ 048   ----------------------------------------
	.byte	W96
@ 049   ----------------------------------------
	.byte	W96
@ 050   ----------------------------------------
	.byte	W72
	.byte		N11   , En2 , v088
	.byte	W24
@ 051   ----------------------------------------
	.byte		N17   , Fs2 
	.byte	W96
@ 052   ----------------------------------------
	.byte	W96
@ 053   ----------------------------------------
	.byte	W96
@ 054   ----------------------------------------
	.byte	W72
	.byte		N11   , En2 
	.byte	W24
@ 055   ----------------------------------------
	.byte		N17   , Fs2 
	.byte	W96
@ 056   ----------------------------------------
	.byte	W90
	.byte	GOTO
	 .word	Fuse_4_B1
Fuse_4_B2:
	.byte	W06
@ 057   ----------------------------------------
	.byte	W96
@ 058   ----------------------------------------
	.byte	W96
@ 059   ----------------------------------------
	.byte	W96
@ 060   ----------------------------------------
	.byte	W96
@ 061   ----------------------------------------
	.byte	W96
@ 062   ----------------------------------------
	.byte	W96
@ 063   ----------------------------------------
	.byte	FINE

@**************** Track 5 (Midi-Chn.5) ****************@

Fuse_5:
	.byte	KEYSH , Fuse_key+0
@ 000   ----------------------------------------
	.byte		VOICE , 57
	.byte		VOL   , 95*Fuse_mvl/mxv
	.byte		PAN   , c_v+29
	.byte	W90
	.byte		N02   , Fs2 , v080
	.byte	W03
	.byte		N03   , Bn2 
	.byte	W03
@ 001   ----------------------------------------
	.byte		N11   , Cs3 , v100
	.byte	W96
@ 002   ----------------------------------------
	.byte	W96
@ 003   ----------------------------------------
	.byte	W96
@ 004   ----------------------------------------
	.byte	W72
	.byte		        Bn2 
	.byte	W18
	.byte		N02   , Fs2 , v080
	.byte	W03
	.byte		N03   , Bn2 
	.byte	W03
@ 005   ----------------------------------------
	.byte		N11   , Cs3 , v100
	.byte	W96
@ 006   ----------------------------------------
	.byte	W96
@ 007   ----------------------------------------
	.byte	W96
Fuse_5_B1:
@ 008   ----------------------------------------
	.byte	W72
@ 009   ----------------------------------------
	.byte	W24
@ 010   ----------------------------------------
Fuse_5_010:
	.byte		N12   , Fs2 , v096
	.byte	W12
	.byte		N12   
	.byte	W24
	.byte		N12   
	.byte	W24
	.byte		N12   
	.byte	W12
	.byte	PEND
@ 011   ----------------------------------------
Fuse_5_011:
	.byte		N12   , En2 , v096
	.byte	W12
	.byte		N12   
	.byte	W24
	.byte		N12   
	.byte	W24
	.byte		N12   
	.byte	W12
	.byte	PEND
@ 012   ----------------------------------------
Fuse_5_012:
	.byte		N12   , Fs2 , v096
	.byte	W12
	.byte		N12   
	.byte	W24
	.byte		N12   
	.byte	W12
	.byte	PEND
@ 013   ----------------------------------------
Fuse_5_013:
	.byte	W12
	.byte		N12   , Fs2 , v096
	.byte	W12
	.byte		        Gs2 
	.byte	W12
	.byte		N12   
	.byte	W24
	.byte		N12   
	.byte	W24
	.byte		N12   
	.byte	W12
	.byte	PEND
@ 014   ----------------------------------------
Fuse_5_014:
	.byte		N12   , Fs2 , v096
	.byte	W12
	.byte		N12   
	.byte	W24
	.byte		N12   
	.byte	W24
	.byte		N12   
	.byte	W24
	.byte		N12   
	.byte	W12
	.byte	PEND
@ 015   ----------------------------------------
Fuse_5_015:
	.byte		N12   , Gs2 , v096
	.byte	W12
	.byte		N12   
	.byte	W24
	.byte		N12   
	.byte	W24
	.byte		N12   
	.byte	W24
	.byte		N12   
	.byte	W12
	.byte	PEND
@ 016   ----------------------------------------
Fuse_5_016:
	.byte		N12   , An2 , v096
	.byte	W12
	.byte		N12   
	.byte	W24
	.byte		N12   
	.byte	W24
	.byte		N12   
	.byte	W24
	.byte		N12   
	.byte	W12
	.byte	PEND
@ 017   ----------------------------------------
	.byte		N48   , Cs3 
	.byte	W48
	.byte		        Bn2 
	.byte	W24
@ 018   ----------------------------------------
	.byte	W24
@ 019   ----------------------------------------
	.byte	PATT
	 .word	Fuse_5_010
@ 020   ----------------------------------------
	.byte	PATT
	 .word	Fuse_5_011
@ 021   ----------------------------------------
	.byte	PATT
	 .word	Fuse_5_012
@ 022   ----------------------------------------
	.byte	PATT
	 .word	Fuse_5_013
@ 023   ----------------------------------------
	.byte	PATT
	 .word	Fuse_5_014
@ 024   ----------------------------------------
	.byte	PATT
	 .word	Fuse_5_015
@ 025   ----------------------------------------
	.byte	PATT
	 .word	Fuse_5_016
@ 026   ----------------------------------------
	.byte		N44   , Cs3 , v096
	.byte	W48
	.byte		        Bn2 
	.byte	W48
@ 027   ----------------------------------------
Fuse_5_027:
	.byte		N12   , Fs2 , v080
	.byte	W12
	.byte		N12   
	.byte	W24
	.byte		N12   
	.byte	W24
	.byte		N12   
	.byte	W12
	.byte		N12   
	.byte	W12
	.byte		N12   
	.byte	W12
	.byte	PEND
@ 028   ----------------------------------------
Fuse_5_028:
	.byte	W12
	.byte		N12   , Fs2 , v080
	.byte	W12
	.byte		N12   
	.byte	W12
	.byte		N12   
	.byte	W24
	.byte		N12   
	.byte	W12
	.byte		N12   
	.byte	W12
	.byte		N12   
	.byte	W12
	.byte	PEND
@ 029   ----------------------------------------
Fuse_5_029:
	.byte		N12   , Gs2 , v080
	.byte	W12
	.byte		N12   
	.byte	W24
	.byte		N12   
	.byte	W24
	.byte		N12   
	.byte	W12
	.byte		N12   
	.byte	W12
	.byte		N12   
	.byte	W12
	.byte	PEND
@ 030   ----------------------------------------
Fuse_5_030:
	.byte	W12
	.byte		N12   , Gs2 , v080
	.byte	W12
	.byte		N12   
	.byte	W12
	.byte		N12   
	.byte	W24
	.byte		N12   
	.byte	W12
	.byte		N12   
	.byte	W12
	.byte		N12   
	.byte	W12
	.byte	PEND
@ 031   ----------------------------------------
Fuse_5_031:
	.byte		N28   , An2 , v084
	.byte	W36
	.byte		N11   , Gs2 
	.byte	W36
	.byte		N28   , An2 
	.byte	W24
	.byte	PEND
@ 032   ----------------------------------------
Fuse_5_032:
	.byte	W12
	.byte		N11   , Gs2 , v084
	.byte	W36
	.byte		        An2 
	.byte	W24
	.byte		        Gs2 
	.byte	W24
	.byte	PEND
@ 033   ----------------------------------------
	.byte		N30   , Gn2 , v088
	.byte	W36
	.byte		N05   , Gn2 , v068
	.byte	W12
	.byte		        Gn2 , v076
	.byte	W12
	.byte		N05   
	.byte	W12
	.byte		N28   , Gn2 , v088
	.byte	W24
@ 034   ----------------------------------------
	.byte	W12
	.byte		N05   , Gn2 , v068
	.byte	W12
	.byte		        Gn2 , v080
	.byte	W12
	.byte		N05   
	.byte	W12
	.byte		N08   , Gn2 , v084
	.byte	W24
	.byte		        An2 
	.byte	W24
@ 035   ----------------------------------------
	.byte	PATT
	 .word	Fuse_5_027
@ 036   ----------------------------------------
	.byte	PATT
	 .word	Fuse_5_028
@ 037   ----------------------------------------
	.byte	PATT
	 .word	Fuse_5_029
@ 038   ----------------------------------------
	.byte	PATT
	 .word	Fuse_5_030
@ 039   ----------------------------------------
	.byte	PATT
	 .word	Fuse_5_031
@ 040   ----------------------------------------
	.byte	PATT
	 .word	Fuse_5_032
@ 041   ----------------------------------------
	.byte		N28   , Gn2 , v088
	.byte	W36
	.byte		N05   , Gn2 , v068
	.byte	W12
	.byte		        Gn2 , v076
	.byte	W12
	.byte		N05   
	.byte	W12
	.byte		N28   , Gn2 , v088
	.byte	W24
@ 042   ----------------------------------------
	.byte	W12
	.byte		N05   , Gn2 , v068
	.byte	W12
	.byte		        Gn2 , v080
	.byte	W12
	.byte		N05   
	.byte	W12
	.byte		N15   , Gn2 , v088
	.byte	W16
	.byte		        Gs2 
	.byte	W16
	.byte		        An2 
	.byte	W16
@ 043   ----------------------------------------
	.byte		TIE   , As2 , v092
	.byte	W96
@ 044   ----------------------------------------
	.byte	W96
@ 045   ----------------------------------------
	.byte	W96
@ 046   ----------------------------------------
	.byte	W92
	.byte	W03
	.byte		EOT   
	.byte	W01
@ 047   ----------------------------------------
	.byte	W96
@ 048   ----------------------------------------
	.byte	W96
@ 049   ----------------------------------------
	.byte	W96
@ 050   ----------------------------------------
Fuse_5_050:
	.byte	W72
	.byte		N11   , Bn3 , v100
	.byte	W18
	.byte		N02   , Fs3 , v080
	.byte	W03
	.byte		N03   , Bn3 
	.byte	W03
	.byte	PEND
@ 051   ----------------------------------------
	.byte		N11   , Cs4 , v100
	.byte	W96
@ 052   ----------------------------------------
	.byte	W96
@ 053   ----------------------------------------
	.byte	W96
@ 054   ----------------------------------------
	.byte	PATT
	 .word	Fuse_5_050
@ 055   ----------------------------------------
	.byte		N11   , Cs4 , v100
	.byte	W96
@ 056   ----------------------------------------
	.byte	W90
	.byte	GOTO
	 .word	Fuse_5_B1
Fuse_5_B2:
	.byte	W06
@ 057   ----------------------------------------
	.byte	W96
@ 058   ----------------------------------------
	.byte	W96
@ 059   ----------------------------------------
	.byte	W96
@ 060   ----------------------------------------
	.byte	W96
@ 061   ----------------------------------------
	.byte	W96
@ 062   ----------------------------------------
	.byte	W96
@ 063   ----------------------------------------
	.byte	FINE

@**************** Track 6 (Midi-Chn.6) ****************@

Fuse_6:
	.byte	KEYSH , Fuse_key+0
@ 000   ----------------------------------------
	.byte		VOICE , 48
	.byte		PAN   , c_v+0
	.byte		VOL   , 100*Fuse_mvl/mxv
	.byte	W96
@ 001   ----------------------------------------
	.byte	W96
@ 002   ----------------------------------------
	.byte	W96
@ 003   ----------------------------------------
	.byte	W96
@ 004   ----------------------------------------
	.byte	W96
@ 005   ----------------------------------------
	.byte	W96
@ 006   ----------------------------------------
	.byte	W96
@ 007   ----------------------------------------
	.byte	W96
Fuse_6_B1:
@ 008   ----------------------------------------
	.byte	W40
	.byte	W02
	.byte		VOL   , 105*Fuse_mvl/mxv
	.byte	W01
	.byte	W28
	.byte	W01
@ 009   ----------------------------------------
	.byte		N23   , Cs3 , v080
	.byte	W24
@ 010   ----------------------------------------
	.byte		N68   , Fs3 
	.byte	W72
@ 011   ----------------------------------------
	.byte		        En3 
	.byte	W72
@ 012   ----------------------------------------
	.byte		        Fs3 
	.byte	W48
@ 013   ----------------------------------------
	.byte	W24
	.byte		        Gs3 
	.byte	W72
@ 014   ----------------------------------------
	.byte		N92   , Fs3 
	.byte	W96
@ 015   ----------------------------------------
	.byte		        Gs3 
	.byte	W96
@ 016   ----------------------------------------
	.byte		        Fs3 
	.byte	W96
@ 017   ----------------------------------------
	.byte	W72
@ 018   ----------------------------------------
	.byte		N23   , En0 , v096
	.byte	W24
@ 019   ----------------------------------------
	.byte		N68   , Fs3 , v080
	.byte	W72
@ 020   ----------------------------------------
	.byte		        En3 
	.byte	W72
@ 021   ----------------------------------------
	.byte		        Fs3 
	.byte	W48
@ 022   ----------------------------------------
	.byte	W24
	.byte		        Gs3 
	.byte	W72
@ 023   ----------------------------------------
	.byte		N92   , Fs3 
	.byte	W96
@ 024   ----------------------------------------
	.byte		        Gs3 
	.byte	W96
@ 025   ----------------------------------------
	.byte		        An3 
	.byte	W96
@ 026   ----------------------------------------
	.byte		        Bn3 
	.byte	W72
	.byte		N23   , En0 , v096
	.byte	W24
@ 027   ----------------------------------------
	.byte	W96
@ 028   ----------------------------------------
	.byte	W96
@ 029   ----------------------------------------
	.byte	W96
@ 030   ----------------------------------------
	.byte	W96
@ 031   ----------------------------------------
	.byte	W96
@ 032   ----------------------------------------
	.byte	W96
@ 033   ----------------------------------------
	.byte	W96
@ 034   ----------------------------------------
	.byte	W96
@ 035   ----------------------------------------
	.byte	W96
@ 036   ----------------------------------------
	.byte	W96
@ 037   ----------------------------------------
	.byte	W96
@ 038   ----------------------------------------
	.byte	W96
@ 039   ----------------------------------------
	.byte	W96
@ 040   ----------------------------------------
	.byte	W96
@ 041   ----------------------------------------
	.byte	W96
@ 042   ----------------------------------------
	.byte	W96
@ 043   ----------------------------------------
	.byte	W96
@ 044   ----------------------------------------
	.byte	W96
@ 045   ----------------------------------------
	.byte	W96
@ 046   ----------------------------------------
	.byte	W96
@ 047   ----------------------------------------
	.byte	W96
@ 048   ----------------------------------------
	.byte	W96
@ 049   ----------------------------------------
	.byte	W96
@ 050   ----------------------------------------
	.byte	W96
@ 051   ----------------------------------------
	.byte	W96
@ 052   ----------------------------------------
	.byte	W96
@ 053   ----------------------------------------
	.byte	W96
@ 054   ----------------------------------------
	.byte	W96
@ 055   ----------------------------------------
	.byte	W96
@ 056   ----------------------------------------
	.byte	W90
	.byte	GOTO
	 .word	Fuse_6_B1
Fuse_6_B2:
	.byte	W06
@ 057   ----------------------------------------
	.byte	W96
@ 058   ----------------------------------------
	.byte	W96
@ 059   ----------------------------------------
	.byte	W96
@ 060   ----------------------------------------
	.byte	W96
@ 061   ----------------------------------------
	.byte	W96
@ 062   ----------------------------------------
	.byte	W96
@ 063   ----------------------------------------
	.byte	FINE

@**************** Track 7 (Midi-Chn.7) ****************@

Fuse_7:
	.byte	KEYSH , Fuse_key+0
@ 000   ----------------------------------------
	.byte		VOICE , 48
	.byte		VOL   , 76*Fuse_mvl/mxv
	.byte		PAN   , c_v+0
	.byte	W96
@ 001   ----------------------------------------
	.byte	W96
@ 002   ----------------------------------------
	.byte	W96
@ 003   ----------------------------------------
	.byte	W96
@ 004   ----------------------------------------
	.byte	W72
	.byte		N23   , En0 , v096
	.byte	W24
@ 005   ----------------------------------------
	.byte	W96
@ 006   ----------------------------------------
	.byte	W96
@ 007   ----------------------------------------
	.byte	W96
Fuse_7_B1:
@ 008   ----------------------------------------
	.byte	W72
@ 009   ----------------------------------------
	.byte	W24
@ 010   ----------------------------------------
	.byte	W72
@ 011   ----------------------------------------
	.byte	W72
@ 012   ----------------------------------------
	.byte	W48
@ 013   ----------------------------------------
	.byte	W96
@ 014   ----------------------------------------
	.byte	W96
@ 015   ----------------------------------------
	.byte	W96
@ 016   ----------------------------------------
	.byte	W96
@ 017   ----------------------------------------
	.byte	W72
@ 018   ----------------------------------------
	.byte	W24
@ 019   ----------------------------------------
	.byte	W72
@ 020   ----------------------------------------
	.byte	W72
@ 021   ----------------------------------------
	.byte	W48
@ 022   ----------------------------------------
	.byte	W96
@ 023   ----------------------------------------
	.byte	W96
@ 024   ----------------------------------------
	.byte	W96
@ 025   ----------------------------------------
	.byte	W96
@ 026   ----------------------------------------
	.byte	W96
@ 027   ----------------------------------------
	.byte	W96
@ 028   ----------------------------------------
	.byte	W96
@ 029   ----------------------------------------
	.byte	W96
@ 030   ----------------------------------------
	.byte	W96
@ 031   ----------------------------------------
	.byte	W96
@ 032   ----------------------------------------
	.byte	W96
@ 033   ----------------------------------------
	.byte	W96
@ 034   ----------------------------------------
	.byte	W96
@ 035   ----------------------------------------
	.byte	W96
@ 036   ----------------------------------------
	.byte	W96
@ 037   ----------------------------------------
	.byte	W96
@ 038   ----------------------------------------
	.byte	W96
@ 039   ----------------------------------------
	.byte	W96
@ 040   ----------------------------------------
	.byte	W96
@ 041   ----------------------------------------
	.byte	W96
@ 042   ----------------------------------------
	.byte	W96
@ 043   ----------------------------------------
	.byte	W96
@ 044   ----------------------------------------
	.byte	W96
@ 045   ----------------------------------------
	.byte	W96
@ 046   ----------------------------------------
	.byte	W96
@ 047   ----------------------------------------
	.byte		TIE   , Fs0 , v096
	.byte	W96
@ 048   ----------------------------------------
	.byte	W96
@ 049   ----------------------------------------
	.byte	W96
@ 050   ----------------------------------------
	.byte	W68
	.byte	W03
	.byte		EOT   
	.byte	W01
	.byte		N23   , En0 
	.byte	W24
@ 051   ----------------------------------------
	.byte		TIE   , Fs0 
	.byte	W96
@ 052   ----------------------------------------
	.byte	W96
@ 053   ----------------------------------------
	.byte	W96
	.byte		EOT   
@ 054   ----------------------------------------
	.byte		N68   
	.byte	W72
	.byte		N23   , En0 
	.byte	W24
@ 055   ----------------------------------------
	.byte	W96
@ 056   ----------------------------------------
	.byte	W90
	.byte	GOTO
	 .word	Fuse_7_B1
Fuse_7_B2:
	.byte	W06
@ 057   ----------------------------------------
	.byte	W96
@ 058   ----------------------------------------
	.byte	W96
@ 059   ----------------------------------------
	.byte	W96
@ 060   ----------------------------------------
	.byte	W96
@ 061   ----------------------------------------
	.byte	W96
@ 062   ----------------------------------------
	.byte	W96
@ 063   ----------------------------------------
	.byte	FINE

@**************** Track 8 (Midi-Chn.8) ****************@

Fuse_8:
	.byte	KEYSH , Fuse_key+0
@ 000   ----------------------------------------
	.byte		VOICE , 46
	.byte		VOL   , 90*Fuse_mvl/mxv
	.byte		PAN   , c_v+0
	.byte	W84
	.byte	W03
	.byte		N02   , Fs3 , v088
	.byte	W03
	.byte		        Bn3 
	.byte	W02
	.byte		        Cs4 
	.byte	W04
@ 001   ----------------------------------------
	.byte		N44   , Fs4 
	.byte	W96
@ 002   ----------------------------------------
	.byte	W96
@ 003   ----------------------------------------
	.byte	W96
@ 004   ----------------------------------------
Fuse_8_004:
	.byte	W84
	.byte	W03
	.byte		N02   , Fs3 , v088
	.byte	W03
	.byte		        Bn3 
	.byte	W02
	.byte		        Cs4 
	.byte	W04
	.byte	PEND
@ 005   ----------------------------------------
	.byte		N44   , Fs4 
	.byte	W96
@ 006   ----------------------------------------
	.byte	W96
@ 007   ----------------------------------------
	.byte	W96
Fuse_8_B1:
@ 008   ----------------------------------------
	.byte	W72
@ 009   ----------------------------------------
	.byte	W24
@ 010   ----------------------------------------
	.byte	W72
@ 011   ----------------------------------------
	.byte	W72
@ 012   ----------------------------------------
	.byte	W48
@ 013   ----------------------------------------
	.byte	W96
@ 014   ----------------------------------------
	.byte	W96
@ 015   ----------------------------------------
	.byte	W96
@ 016   ----------------------------------------
	.byte	W96
@ 017   ----------------------------------------
	.byte	W72
@ 018   ----------------------------------------
	.byte	W24
@ 019   ----------------------------------------
	.byte	W72
@ 020   ----------------------------------------
	.byte	W72
@ 021   ----------------------------------------
	.byte	W48
@ 022   ----------------------------------------
	.byte	W96
@ 023   ----------------------------------------
	.byte	W96
@ 024   ----------------------------------------
	.byte	W96
@ 025   ----------------------------------------
	.byte	W96
@ 026   ----------------------------------------
	.byte	W96
@ 027   ----------------------------------------
	.byte	W96
@ 028   ----------------------------------------
	.byte	W96
@ 029   ----------------------------------------
	.byte	W96
@ 030   ----------------------------------------
	.byte	W96
@ 031   ----------------------------------------
	.byte	W96
@ 032   ----------------------------------------
	.byte	W96
@ 033   ----------------------------------------
	.byte	W96
@ 034   ----------------------------------------
	.byte	W96
@ 035   ----------------------------------------
	.byte	W96
@ 036   ----------------------------------------
	.byte	W96
@ 037   ----------------------------------------
	.byte	W96
@ 038   ----------------------------------------
	.byte	W96
@ 039   ----------------------------------------
	.byte	W96
@ 040   ----------------------------------------
	.byte	W96
@ 041   ----------------------------------------
	.byte	W96
@ 042   ----------------------------------------
	.byte	W96
@ 043   ----------------------------------------
	.byte	W96
@ 044   ----------------------------------------
	.byte	W96
@ 045   ----------------------------------------
	.byte	W96
@ 046   ----------------------------------------
	.byte	W96
@ 047   ----------------------------------------
	.byte	W96
@ 048   ----------------------------------------
	.byte	W96
@ 049   ----------------------------------------
	.byte	W96
@ 050   ----------------------------------------
	.byte	PATT
	 .word	Fuse_8_004
@ 051   ----------------------------------------
	.byte		N44   , Fs4 , v088
	.byte	W96
@ 052   ----------------------------------------
	.byte	W96
@ 053   ----------------------------------------
	.byte	W96
@ 054   ----------------------------------------
	.byte	PATT
	 .word	Fuse_8_004
@ 055   ----------------------------------------
	.byte		N44   , Fs4 , v088
	.byte	W96
@ 056   ----------------------------------------
	.byte	W90
	.byte	GOTO
	 .word	Fuse_8_B1
Fuse_8_B2:
	.byte	W06
@ 057   ----------------------------------------
	.byte	W96
@ 058   ----------------------------------------
	.byte	W96
@ 059   ----------------------------------------
	.byte	W96
@ 060   ----------------------------------------
	.byte	W96
@ 061   ----------------------------------------
	.byte	W96
@ 062   ----------------------------------------
	.byte	W96
@ 063   ----------------------------------------
	.byte	FINE

@**************** Track 9 (Midi-Chn.9) ****************@

Fuse_9:
	.byte	KEYSH , Fuse_key+0
@ 000   ----------------------------------------
	.byte		VOICE , 81
	.byte		PAN   , c_v+0
	.byte		VOL   , 100*Fuse_mvl/mxv
	.byte	W96
@ 001   ----------------------------------------
	.byte	W96
@ 002   ----------------------------------------
	.byte	W96
@ 003   ----------------------------------------
	.byte	W96
@ 004   ----------------------------------------
	.byte	W68
	.byte	W03
	.byte		PAN   , c_v+17
	.byte	W13
	.byte		VOL   , 75*Fuse_mvl/mxv
	.byte	W12
@ 005   ----------------------------------------
Fuse_9_005:
	.byte		N11   , Fs2 , v080
	.byte	W12
	.byte		        Fs3 
	.byte	W12
	.byte		        Fs2 
	.byte	W12
	.byte		        Fs3 
	.byte	W12
	.byte		        Fs2 
	.byte	W12
	.byte		        Fs3 
	.byte	W12
	.byte		        Fs2 
	.byte	W12
	.byte		        Fs3 
	.byte	W12
	.byte	PEND
@ 006   ----------------------------------------
	.byte	PATT
	 .word	Fuse_9_005
@ 007   ----------------------------------------
	.byte	PATT
	 .word	Fuse_9_005
Fuse_9_B1:
@ 008   ----------------------------------------
Fuse_9_008:
	.byte		N11   , Fs2 , v080
	.byte	W12
	.byte		        Fs3 
	.byte	W12
	.byte		        Fs2 
	.byte	W12
	.byte		        Fs3 
	.byte	W12
	.byte		        Fs2 
	.byte	W12
	.byte		        Fs3 
	.byte	W12
	.byte	PEND
@ 009   ----------------------------------------
	.byte		        Fs2 
	.byte	W12
	.byte		        Fs3 
	.byte	W09
	.byte		VOL   , 81*Fuse_mvl/mxv
	.byte	W03
@ 010   ----------------------------------------
	.byte	PATT
	 .word	Fuse_9_008
@ 011   ----------------------------------------
	.byte	PATT
	 .word	Fuse_9_008
@ 012   ----------------------------------------
Fuse_9_012:
	.byte		N11   , Fs2 , v080
	.byte	W12
	.byte		        Fs3 
	.byte	W12
	.byte		        Fs2 
	.byte	W12
	.byte		        Fs3 
	.byte	W12
	.byte	PEND
@ 013   ----------------------------------------
	.byte	PATT
	 .word	Fuse_9_005
@ 014   ----------------------------------------
	.byte	PATT
	 .word	Fuse_9_005
@ 015   ----------------------------------------
	.byte	PATT
	 .word	Fuse_9_005
@ 016   ----------------------------------------
	.byte	PATT
	 .word	Fuse_9_005
@ 017   ----------------------------------------
	.byte	PATT
	 .word	Fuse_9_008
@ 018   ----------------------------------------
	.byte		N11   , Fs2 , v080
	.byte	W12
	.byte		        Fs3 
	.byte	W12
@ 019   ----------------------------------------
	.byte	PATT
	 .word	Fuse_9_008
@ 020   ----------------------------------------
	.byte	PATT
	 .word	Fuse_9_008
@ 021   ----------------------------------------
	.byte	PATT
	 .word	Fuse_9_012
@ 022   ----------------------------------------
	.byte	PATT
	 .word	Fuse_9_005
@ 023   ----------------------------------------
	.byte	PATT
	 .word	Fuse_9_005
@ 024   ----------------------------------------
	.byte	PATT
	 .word	Fuse_9_005
@ 025   ----------------------------------------
	.byte	PATT
	 .word	Fuse_9_005
@ 026   ----------------------------------------
	.byte	PATT
	 .word	Fuse_9_005
@ 027   ----------------------------------------
	.byte	PATT
	 .word	Fuse_9_005
@ 028   ----------------------------------------
	.byte	PATT
	 .word	Fuse_9_005
@ 029   ----------------------------------------
	.byte	PATT
	 .word	Fuse_9_005
@ 030   ----------------------------------------
	.byte	PATT
	 .word	Fuse_9_005
@ 031   ----------------------------------------
	.byte	PATT
	 .word	Fuse_9_005
@ 032   ----------------------------------------
	.byte	PATT
	 .word	Fuse_9_005
@ 033   ----------------------------------------
	.byte	PATT
	 .word	Fuse_9_005
@ 034   ----------------------------------------
	.byte	PATT
	 .word	Fuse_9_005
@ 035   ----------------------------------------
	.byte	PATT
	 .word	Fuse_9_005
@ 036   ----------------------------------------
	.byte	PATT
	 .word	Fuse_9_005
@ 037   ----------------------------------------
	.byte	PATT
	 .word	Fuse_9_005
@ 038   ----------------------------------------
	.byte	PATT
	 .word	Fuse_9_005
@ 039   ----------------------------------------
	.byte	PATT
	 .word	Fuse_9_005
@ 040   ----------------------------------------
	.byte	PATT
	 .word	Fuse_9_005
@ 041   ----------------------------------------
	.byte	PATT
	 .word	Fuse_9_005
@ 042   ----------------------------------------
	.byte	PATT
	 .word	Fuse_9_005
@ 043   ----------------------------------------
	.byte	PATT
	 .word	Fuse_9_005
@ 044   ----------------------------------------
	.byte	PATT
	 .word	Fuse_9_005
@ 045   ----------------------------------------
	.byte	PATT
	 .word	Fuse_9_005
@ 046   ----------------------------------------
	.byte	PATT
	 .word	Fuse_9_005
@ 047   ----------------------------------------
	.byte	PATT
	 .word	Fuse_9_005
@ 048   ----------------------------------------
	.byte	PATT
	 .word	Fuse_9_005
@ 049   ----------------------------------------
	.byte	PATT
	 .word	Fuse_9_005
@ 050   ----------------------------------------
	.byte	PATT
	 .word	Fuse_9_005
@ 051   ----------------------------------------
	.byte	PATT
	 .word	Fuse_9_005
@ 052   ----------------------------------------
	.byte	PATT
	 .word	Fuse_9_005
@ 053   ----------------------------------------
	.byte	PATT
	 .word	Fuse_9_005
@ 054   ----------------------------------------
	.byte	PATT
	 .word	Fuse_9_005
@ 055   ----------------------------------------
	.byte	PATT
	 .word	Fuse_9_005
@ 056   ----------------------------------------
	.byte		N11   , Fs2 , v080
	.byte	W12
	.byte		        Fs3 
	.byte	W12
	.byte		        Fs2 
	.byte	W12
	.byte		        Fs3 
	.byte	W12
	.byte		        Fs2 
	.byte	W12
	.byte		        Fs3 
	.byte	W12
	.byte		        Fs2 
	.byte	W12
	.byte		        Fs3 
	.byte	W06
	.byte	GOTO
	 .word	Fuse_9_B1
Fuse_9_B2:
	.byte	W06
@ 057   ----------------------------------------
	.byte	W96
@ 058   ----------------------------------------
	.byte	W96
@ 059   ----------------------------------------
	.byte	W96
@ 060   ----------------------------------------
	.byte	W96
@ 061   ----------------------------------------
	.byte	W96
@ 062   ----------------------------------------
	.byte	W96
@ 063   ----------------------------------------
	.byte	FINE

@**************** Track 10 (Midi-Chn.11) ****************@

Fuse_10:
	.byte	KEYSH , Fuse_key+0
@ 000   ----------------------------------------
	.byte		VOICE , 33
	.byte		PAN   , c_v+0
	.byte		VOL   , 100*Fuse_mvl/mxv
	.byte	W96
@ 001   ----------------------------------------
Fuse_10_001:
	.byte		N11   , Fs1 , v080
	.byte	W12
	.byte		        Fs2 
	.byte	W12
	.byte		        Fs1 
	.byte	W12
	.byte		        Fs2 
	.byte	W12
	.byte		        Fs1 
	.byte	W12
	.byte		        Fs2 
	.byte	W12
	.byte		        Fs1 
	.byte	W12
	.byte		        Fs2 
	.byte	W12
	.byte	PEND
@ 002   ----------------------------------------
	.byte	PATT
	 .word	Fuse_10_001
@ 003   ----------------------------------------
	.byte		N11   , Fs1 , v080
	.byte	W05
	.byte		PAN   , c_v+17
	.byte	W07
	.byte		N11   , Fs2 
	.byte	W12
	.byte		        Fs1 
	.byte	W12
	.byte		        Fs2 
	.byte	W12
	.byte		        Fs1 
	.byte	W12
	.byte		        Fs2 
	.byte	W08
	.byte	W04
	.byte		        Fs1 
	.byte	W09
	.byte		VOL   , 85*Fuse_mvl/mxv
	.byte	W03
	.byte		N11   , Fs2 
	.byte	W12
@ 004   ----------------------------------------
	.byte	PATT
	 .word	Fuse_10_001
@ 005   ----------------------------------------
	.byte	PATT
	 .word	Fuse_10_001
@ 006   ----------------------------------------
	.byte	PATT
	 .word	Fuse_10_001
@ 007   ----------------------------------------
	.byte	PATT
	 .word	Fuse_10_001
Fuse_10_B1:
@ 008   ----------------------------------------
Fuse_10_008:
	.byte		N11   , Fs1 , v080
	.byte	W12
	.byte		        Fs2 
	.byte	W12
	.byte		        Fs1 
	.byte	W12
	.byte		        Fs2 
	.byte	W12
	.byte		        Fs1 
	.byte	W12
	.byte		        Fs2 
	.byte	W12
	.byte	PEND
@ 009   ----------------------------------------
Fuse_10_009:
	.byte		N11   , Fs1 , v080
	.byte	W12
	.byte		        Fs2 
	.byte	W12
	.byte	PEND
@ 010   ----------------------------------------
	.byte	PATT
	 .word	Fuse_10_008
@ 011   ----------------------------------------
	.byte	PATT
	 .word	Fuse_10_008
@ 012   ----------------------------------------
Fuse_10_012:
	.byte		N11   , Fs1 , v080
	.byte	W12
	.byte		        Fs2 
	.byte	W12
	.byte		        Fs1 
	.byte	W12
	.byte		        Fs2 
	.byte	W12
	.byte	PEND
@ 013   ----------------------------------------
	.byte	PATT
	 .word	Fuse_10_001
@ 014   ----------------------------------------
	.byte	PATT
	 .word	Fuse_10_001
@ 015   ----------------------------------------
	.byte	PATT
	 .word	Fuse_10_001
@ 016   ----------------------------------------
	.byte	PATT
	 .word	Fuse_10_001
@ 017   ----------------------------------------
	.byte	PATT
	 .word	Fuse_10_008
@ 018   ----------------------------------------
	.byte	PATT
	 .word	Fuse_10_009
@ 019   ----------------------------------------
	.byte	PATT
	 .word	Fuse_10_008
@ 020   ----------------------------------------
	.byte	PATT
	 .word	Fuse_10_008
@ 021   ----------------------------------------
	.byte	PATT
	 .word	Fuse_10_012
@ 022   ----------------------------------------
	.byte	PATT
	 .word	Fuse_10_001
@ 023   ----------------------------------------
	.byte	PATT
	 .word	Fuse_10_001
@ 024   ----------------------------------------
	.byte	PATT
	 .word	Fuse_10_001
@ 025   ----------------------------------------
	.byte	PATT
	 .word	Fuse_10_001
@ 026   ----------------------------------------
	.byte	PATT
	 .word	Fuse_10_001
@ 027   ----------------------------------------
	.byte	PATT
	 .word	Fuse_10_001
@ 028   ----------------------------------------
	.byte	PATT
	 .word	Fuse_10_001
@ 029   ----------------------------------------
	.byte	PATT
	 .word	Fuse_10_001
@ 030   ----------------------------------------
	.byte	PATT
	 .word	Fuse_10_001
@ 031   ----------------------------------------
	.byte	PATT
	 .word	Fuse_10_001
@ 032   ----------------------------------------
	.byte	PATT
	 .word	Fuse_10_001
@ 033   ----------------------------------------
	.byte	PATT
	 .word	Fuse_10_001
@ 034   ----------------------------------------
	.byte	PATT
	 .word	Fuse_10_001
@ 035   ----------------------------------------
	.byte	PATT
	 .word	Fuse_10_001
@ 036   ----------------------------------------
	.byte	PATT
	 .word	Fuse_10_001
@ 037   ----------------------------------------
	.byte	PATT
	 .word	Fuse_10_001
@ 038   ----------------------------------------
	.byte	PATT
	 .word	Fuse_10_001
@ 039   ----------------------------------------
	.byte	PATT
	 .word	Fuse_10_001
@ 040   ----------------------------------------
	.byte	PATT
	 .word	Fuse_10_001
@ 041   ----------------------------------------
	.byte	PATT
	 .word	Fuse_10_001
@ 042   ----------------------------------------
	.byte	PATT
	 .word	Fuse_10_001
@ 043   ----------------------------------------
	.byte	PATT
	 .word	Fuse_10_001
@ 044   ----------------------------------------
	.byte	PATT
	 .word	Fuse_10_001
@ 045   ----------------------------------------
	.byte	PATT
	 .word	Fuse_10_001
@ 046   ----------------------------------------
	.byte	PATT
	 .word	Fuse_10_001
@ 047   ----------------------------------------
	.byte	PATT
	 .word	Fuse_10_001
@ 048   ----------------------------------------
	.byte	PATT
	 .word	Fuse_10_001
@ 049   ----------------------------------------
	.byte	PATT
	 .word	Fuse_10_001
@ 050   ----------------------------------------
	.byte	PATT
	 .word	Fuse_10_001
@ 051   ----------------------------------------
	.byte	PATT
	 .word	Fuse_10_001
@ 052   ----------------------------------------
	.byte	PATT
	 .word	Fuse_10_001
@ 053   ----------------------------------------
	.byte	PATT
	 .word	Fuse_10_001
@ 054   ----------------------------------------
	.byte	PATT
	 .word	Fuse_10_001
@ 055   ----------------------------------------
	.byte	PATT
	 .word	Fuse_10_001
@ 056   ----------------------------------------
	.byte		N11   , Fs1 , v080
	.byte	W12
	.byte		        Fs2 
	.byte	W12
	.byte		        Fs1 
	.byte	W12
	.byte		        Fs2 
	.byte	W12
	.byte		        Fs1 
	.byte	W12
	.byte		        Fs2 
	.byte	W12
	.byte		        Fs1 
	.byte	W12
	.byte		        Fs2 
	.byte	W06
	.byte	GOTO
	 .word	Fuse_10_B1
Fuse_10_B2:
	.byte	W06
@ 057   ----------------------------------------
	.byte	W96
@ 058   ----------------------------------------
	.byte	W96
@ 059   ----------------------------------------
	.byte	W96
@ 060   ----------------------------------------
	.byte	W96
@ 061   ----------------------------------------
	.byte	W96
@ 062   ----------------------------------------
	.byte	W96
@ 063   ----------------------------------------
	.byte	FINE

@**************** Track 11 (Midi-Chn.12) ****************@

Fuse_11:
	.byte	KEYSH , Fuse_key+0
@ 000   ----------------------------------------
	.byte		VOICE , 47
	.byte		VOL   , 103*Fuse_mvl/mxv
	.byte		PAN   , c_v+0
	.byte	W96
@ 001   ----------------------------------------
	.byte		N23   , Fs2 , v088
	.byte	W96
@ 002   ----------------------------------------
	.byte	W84
	.byte		N11   
	.byte	W12
@ 003   ----------------------------------------
Fuse_11_003:
	.byte		N11   , Fs2 , v088
	.byte	W12
	.byte		N11   
	.byte	W84
	.byte	PEND
@ 004   ----------------------------------------
	.byte	W72
	.byte		N23   , En2 
	.byte	W24
@ 005   ----------------------------------------
Fuse_11_005:
	.byte		N23   , Fs2 , v088
	.byte	W84
	.byte		N11   
	.byte	W12
	.byte	PEND
@ 006   ----------------------------------------
Fuse_11_006:
	.byte		N11   , Fs2 , v088
	.byte	W12
	.byte		N11   
	.byte	W72
	.byte		N11   
	.byte	W12
	.byte	PEND
@ 007   ----------------------------------------
	.byte	PATT
	 .word	Fuse_11_003
Fuse_11_B1:
@ 008   ----------------------------------------
	.byte		N11   , Fs2 , v088
	.byte	W12
	.byte		N11   
	.byte	W24
	.byte		N11   
	.byte	W24
	.byte		N11   
	.byte	W12
@ 009   ----------------------------------------
	.byte		N23   , En2 
	.byte	W24
@ 010   ----------------------------------------
Fuse_11_010:
	.byte		N23   , Fs2 , v100
	.byte	W60
	.byte		N11   , Cs3 
	.byte	W12
	.byte	PEND
@ 011   ----------------------------------------
	.byte		N23   , Fs2 
	.byte	W72
@ 012   ----------------------------------------
	.byte		N23   
	.byte	W48
@ 013   ----------------------------------------
Fuse_11_013:
	.byte	W12
	.byte		N11   , Cs3 , v100
	.byte	W12
	.byte		N23   , Fs2 
	.byte	W72
	.byte	PEND
@ 014   ----------------------------------------
Fuse_11_014:
	.byte		N23   , Fs2 , v100
	.byte	W84
	.byte		N11   
	.byte	W12
	.byte	PEND
@ 015   ----------------------------------------
Fuse_11_015:
	.byte		N11   , Fs2 , v100
	.byte	W12
	.byte		N23   
	.byte	W72
	.byte		N11   
	.byte	W12
	.byte	PEND
@ 016   ----------------------------------------
	.byte	PATT
	 .word	Fuse_11_015
@ 017   ----------------------------------------
	.byte		N11   , Fs2 , v100
	.byte	W12
	.byte		N23   
	.byte	W60
@ 018   ----------------------------------------
	.byte		N11   , En2 
	.byte	W12
	.byte		        En2 , v092
	.byte	W12
@ 019   ----------------------------------------
	.byte	PATT
	 .word	Fuse_11_010
@ 020   ----------------------------------------
	.byte		N23   , Fs2 , v100
	.byte	W72
@ 021   ----------------------------------------
	.byte		N23   
	.byte	W48
@ 022   ----------------------------------------
	.byte	PATT
	 .word	Fuse_11_013
@ 023   ----------------------------------------
	.byte	PATT
	 .word	Fuse_11_014
@ 024   ----------------------------------------
	.byte	PATT
	 .word	Fuse_11_015
@ 025   ----------------------------------------
	.byte	PATT
	 .word	Fuse_11_015
@ 026   ----------------------------------------
	.byte		N11   , Fs2 , v100
	.byte	W12
	.byte		N23   
	.byte	W60
	.byte		N11   , En2 
	.byte	W12
	.byte		        En2 , v092
	.byte	W12
@ 027   ----------------------------------------
	.byte		N23   , Fs2 , v100
	.byte	W96
@ 028   ----------------------------------------
Fuse_11_028:
	.byte	W60
	.byte		N11   , Fs2 , v092
	.byte	W12
	.byte		        Fs2 , v096
	.byte	W12
	.byte		        Fs2 , v100
	.byte	W12
	.byte	PEND
@ 029   ----------------------------------------
Fuse_11_029:
	.byte		N11   , Fs2 , v100
	.byte	W12
	.byte		N23   , Fs2 , v104
	.byte	W84
	.byte	PEND
@ 030   ----------------------------------------
Fuse_11_030:
	.byte	W12
	.byte		N23   , Cs3 , v100
	.byte	W36
	.byte		        Fs2 
	.byte	W24
	.byte		        Cs3 
	.byte	W24
	.byte	PEND
@ 031   ----------------------------------------
Fuse_11_031:
	.byte		N23   , Fs2 , v100
	.byte	W72
	.byte		N23   
	.byte	W24
	.byte	PEND
@ 032   ----------------------------------------
	.byte	W48
	.byte		N23   
	.byte	W48
@ 033   ----------------------------------------
	.byte		N23   
	.byte	W96
@ 034   ----------------------------------------
	.byte	W12
	.byte		N11   , Fs2 , v092
	.byte	W12
	.byte		N11   
	.byte	W12
	.byte		N11   
	.byte	W12
	.byte		N23   , Fs2 , v100
	.byte	W24
	.byte		        Cs3 
	.byte	W24
@ 035   ----------------------------------------
	.byte		        Fs2 
	.byte	W96
@ 036   ----------------------------------------
	.byte	PATT
	 .word	Fuse_11_028
@ 037   ----------------------------------------
	.byte	PATT
	 .word	Fuse_11_029
@ 038   ----------------------------------------
	.byte	PATT
	 .word	Fuse_11_030
@ 039   ----------------------------------------
	.byte	PATT
	 .word	Fuse_11_031
@ 040   ----------------------------------------
	.byte	W48
	.byte		N23   , Fs2 , v100
	.byte	W48
@ 041   ----------------------------------------
	.byte		N23   
	.byte	W96
@ 042   ----------------------------------------
	.byte	W12
	.byte		N11   , Fs2 , v092
	.byte	W12
	.byte		N11   
	.byte	W12
	.byte		N11   
	.byte	W12
	.byte		N15   , Fs2 , v100
	.byte	W16
	.byte		N15   
	.byte	W16
	.byte		N15   
	.byte	W16
@ 043   ----------------------------------------
Fuse_11_043:
	.byte		N23   , Fs2 , v096
	.byte	W36
	.byte		        Cs3 
	.byte	W36
	.byte		        Fs2 
	.byte	W24
	.byte	PEND
@ 044   ----------------------------------------
Fuse_11_044:
	.byte	W12
	.byte		N23   , Cs3 , v096
	.byte	W36
	.byte		        Fs2 
	.byte	W24
	.byte		        Cs3 
	.byte	W24
	.byte	PEND
@ 045   ----------------------------------------
	.byte	PATT
	 .word	Fuse_11_043
@ 046   ----------------------------------------
	.byte	PATT
	 .word	Fuse_11_044
@ 047   ----------------------------------------
	.byte		N11   , Fs2 , v088
	.byte	W12
	.byte		N32   
	.byte	W84
@ 048   ----------------------------------------
	.byte	W60
	.byte		N11   
	.byte	W12
	.byte		N11   
	.byte	W12
	.byte		        Fs2 , v092
	.byte	W12
@ 049   ----------------------------------------
	.byte		        Fs2 , v088
	.byte	W12
	.byte		N11   
	.byte	W24
	.byte		N24   
	.byte	W36
	.byte		N11   
	.byte	W12
	.byte		        Fs2 , v092
	.byte	W12
@ 050   ----------------------------------------
	.byte	W12
	.byte		        Fs2 , v080
	.byte	W12
	.byte		        Fs2 , v088
	.byte	W12
	.byte		        Cs3 , v092
	.byte	W24
	.byte		N11   
	.byte	W12
	.byte		N23   , Fn2 
	.byte	W24
@ 051   ----------------------------------------
	.byte	PATT
	 .word	Fuse_11_005
@ 052   ----------------------------------------
	.byte	PATT
	 .word	Fuse_11_006
@ 053   ----------------------------------------
	.byte	PATT
	 .word	Fuse_11_003
@ 054   ----------------------------------------
	.byte		N11   , Fs2 , v088
	.byte	W12
	.byte		N11   
	.byte	W24
	.byte		N11   
	.byte	W24
	.byte		N11   
	.byte	W12
	.byte		N23   , En2 
	.byte	W24
@ 055   ----------------------------------------
	.byte	PATT
	 .word	Fuse_11_005
@ 056   ----------------------------------------
	.byte		N11   , Fs2 , v088
	.byte	W12
	.byte		N11   
	.byte	W72
	.byte		N11   
	.byte	W06
	.byte	GOTO
	 .word	Fuse_11_B1
Fuse_11_B2:
	.byte	W06
@ 057   ----------------------------------------
	.byte	W96
@ 058   ----------------------------------------
	.byte	W96
@ 059   ----------------------------------------
	.byte	W96
@ 060   ----------------------------------------
	.byte	W96
@ 061   ----------------------------------------
	.byte	W96
@ 062   ----------------------------------------
	.byte	W96
@ 063   ----------------------------------------
	.byte	FINE

@**************** Track 12 (Midi-Chn.13) ****************@

Fuse_12:
	.byte	KEYSH , Fuse_key+0
@ 000   ----------------------------------------
	.byte		VOICE , 124
	.byte		VOL   , 90*Fuse_mvl/mxv
	.byte		PAN   , c_v+0
	.byte		        c_v+0
	.byte		N01   , An2 , v040
	.byte	W01
	.byte		N01   
	.byte	W02
	.byte		N01   
	.byte	W01
	.byte		        An2 , v044
	.byte	W02
	.byte		N01   
	.byte	W01
	.byte		N01   
	.byte	W02
	.byte		        An2 , v048
	.byte	W01
	.byte		N01   
	.byte	W02
	.byte		N01   
	.byte	W01
	.byte		        An2 , v052
	.byte	W02
	.byte		N01   
	.byte	W01
	.byte		N01   
	.byte	W02
	.byte		        An2 , v056
	.byte	W01
	.byte		N01   
	.byte	W02
	.byte		N01   
	.byte	W01
	.byte		        An2 , v060
	.byte	W02
	.byte		N01   
	.byte	W01
	.byte		N01   
	.byte	W02
	.byte		N01   
	.byte	W01
	.byte		        An2 , v064
	.byte	W02
	.byte		N01   
	.byte	W01
	.byte		N01   
	.byte	W02
	.byte		        An2 , v068
	.byte	W01
	.byte		N01   
	.byte	W02
	.byte		N01   
	.byte	W01
	.byte		        An2 , v072
	.byte	W02
	.byte		N01   
	.byte	W01
	.byte		        An2 , v076
	.byte	W02
	.byte		N01   
	.byte	W01
	.byte		N01   
	.byte	W02
	.byte		N01   
	.byte	W01
	.byte		        An2 , v080
	.byte	W02
	.byte		N01   
	.byte	W01
	.byte		N01   
	.byte	W02
	.byte		        An2 , v084
	.byte	W01
	.byte		N01   
	.byte	W02
	.byte		N01   
	.byte	W01
	.byte		        An2 , v088
	.byte	W02
	.byte		N01   
	.byte	W01
	.byte		N01   
	.byte	W02
	.byte		N01   
	.byte	W01
	.byte		        An2 , v092
	.byte	W02
	.byte		N01   
	.byte	W01
	.byte		N01   
	.byte	W02
	.byte		        An2 , v096
	.byte	W01
	.byte		N01   
	.byte	W02
	.byte		N01   
	.byte	W01
	.byte		        An2 , v100
	.byte	W02
	.byte		N01   
	.byte	W01
	.byte		N01   
	.byte	W02
	.byte		        An2 , v104
	.byte	W01
	.byte		N01   
	.byte	W02
	.byte		N01   
	.byte	W01
	.byte		        An2 , v108
	.byte	W02
	.byte		        An2 , v092
	.byte	W01
	.byte		        An2 , v108
	.byte	W02
	.byte		N01   
	.byte	W01
	.byte		        An2 , v112
	.byte	W02
	.byte		N01   
	.byte	W01
	.byte		N01   
	.byte	W02
	.byte		        An2 , v116
	.byte	W01
	.byte		N01   
	.byte	W02
	.byte		N01   
	.byte	W01
	.byte		N01   
	.byte	W02
@ 001   ----------------------------------------
	.byte		N02   , Cn1 , v072
	.byte		N02   , Cs1 , v064
	.byte		N02   , An2 , v076
	.byte		N02   , Bn2 , v072
	.byte		N02   , Gs4 
	.byte	W12
	.byte		        Cn1 
	.byte		N02   , Cs1 , v064
	.byte	W12
	.byte		        Cn1 , v088
	.byte		N02   , Cs1 , v084
	.byte	W12
	.byte		        Cs1 , v064
	.byte		N02   , Gs4 , v072
	.byte	W12
	.byte		        Cn1 
	.byte		N02   , Cs1 , v064
	.byte	W12
	.byte		N02   
	.byte		N02   , Gs4 , v072
	.byte	W12
	.byte		        Cn1 , v088
	.byte		N02   , Cs1 , v084
	.byte		N02   , An4 , v072
	.byte	W12
	.byte		        Cs1 , v064
	.byte	W12
@ 002   ----------------------------------------
	.byte		        Cn1 , v072
	.byte		N02   , Cs1 , v064
	.byte		N02   , Gs4 , v072
	.byte	W12
	.byte		        Cn1 
	.byte		N02   , Cs1 , v064
	.byte	W12
	.byte		        Cn1 , v088
	.byte		N02   , Cs1 , v084
	.byte	W12
	.byte		        Cs1 , v068
	.byte		N02   , Gs4 , v072
	.byte	W12
	.byte		        Cn1 
	.byte		N02   , Cs1 , v064
	.byte	W12
	.byte		N02   
	.byte		N02   , Gs4 , v072
	.byte	W12
	.byte		        Cn1 , v088
	.byte		N02   , Cs1 , v084
	.byte		N02   , An4 , v072
	.byte	W12
	.byte		        Cn1 , v064
	.byte		N02   , Cs1 
	.byte	W12
@ 003   ----------------------------------------
	.byte		        Cn1 , v072
	.byte		N03   , Cs1 , v064
	.byte		N02   , Gs4 , v072
	.byte	W12
	.byte		        Cn1 
	.byte		N03   , Cs1 , v064
	.byte	W12
	.byte		        Cn1 , v088
	.byte		N02   , Cs1 , v084
	.byte	W12
	.byte		        Cn1 , v088
	.byte		N02   , Cs1 , v064
	.byte		N02   , Gs4 , v072
	.byte	W06
	.byte		        Cn1 , v064
	.byte	W06
	.byte		        Cn1 , v072
	.byte		N02   , Cs1 , v064
	.byte	W06
	.byte		        Cn1 , v072
	.byte	W06
	.byte		N02   
	.byte		N02   , Cs1 , v064
	.byte		N02   , Gs4 , v072
	.byte	W12
	.byte		        Cn1 , v088
	.byte		N02   , Cs1 , v084
	.byte		N02   , An4 , v072
	.byte	W12
	.byte		        Cs1 , v064
	.byte	W06
	.byte		        Cn1 , v072
	.byte	W06
@ 004   ----------------------------------------
	.byte		        Cn1 , v064
	.byte		N02   , Cs1 
	.byte		N02   , Gs4 , v072
	.byte	W12
	.byte		        Cn1 
	.byte		N02   , Cs1 , v064
	.byte	W12
	.byte		        Cn1 , v088
	.byte		N02   , Cs1 , v084
	.byte	W12
	.byte		        Cn1 , v064
	.byte		N02   , Cs1 
	.byte		N02   , Gs4 , v072
	.byte	W12
	.byte		        Cn1 , v064
	.byte		N02   , Cs1 
	.byte		N02   , An2 , v040
	.byte	W03
	.byte		N02   
	.byte	W03
	.byte		        An2 , v048
	.byte	W03
	.byte		N02   
	.byte	W03
	.byte		        Cn1 , v072
	.byte		N02   , Cs1 , v064
	.byte		N02   , An2 , v052
	.byte		N02   , Gs4 , v072
	.byte	W03
	.byte		        An2 , v052
	.byte	W03
	.byte		        An2 , v060
	.byte	W03
	.byte		N02   
	.byte	W03
	.byte		        Cn1 , v088
	.byte		N02   , Cs1 , v084
	.byte		N02   , An2 , v072
	.byte		N02   , Bn2 
	.byte		N02   , An4 
	.byte	W12
	.byte		        Cs1 , v064
	.byte	W12
@ 005   ----------------------------------------
Fuse_12_005:
	.byte		N02   , Cn1 , v072
	.byte		N02   , Cs1 , v064
	.byte		N02   , An2 , v076
	.byte		N02   , Bn2 , v072
	.byte		N02   , Gs4 
	.byte	W12
	.byte		        Cn1 , v060
	.byte		N02   , Cs1 , v064
	.byte	W12
	.byte		        Cn1 , v088
	.byte		N02   , Cs1 , v084
	.byte	W12
	.byte		        Cs1 , v064
	.byte		N02   , Gs4 , v072
	.byte	W12
	.byte		        Cn1 
	.byte		N02   , Cs1 , v064
	.byte	W12
	.byte		N02   
	.byte		N02   , Gs4 , v072
	.byte	W12
	.byte		        Cn1 , v088
	.byte		N02   , Cs1 , v084
	.byte		N02   , An4 , v072
	.byte	W12
	.byte		        Cs1 , v064
	.byte	W12
	.byte	PEND
@ 006   ----------------------------------------
Fuse_12_006:
	.byte		N02   , Cn1 , v072
	.byte		N02   , Cs1 , v064
	.byte		N02   , Gs4 , v072
	.byte	W12
	.byte		        Cn1 , v060
	.byte		N02   , Cs1 , v064
	.byte	W12
	.byte		        Cn1 , v088
	.byte		N02   , Cs1 , v084
	.byte	W12
	.byte		        Cs1 , v068
	.byte		N02   , Gs4 , v072
	.byte	W12
	.byte		        Cn1 
	.byte		N02   , Cs1 , v064
	.byte	W12
	.byte		N02   
	.byte		N02   , Gs4 , v072
	.byte	W12
	.byte		        Cn1 , v088
	.byte		N02   , Cs1 , v084
	.byte		N02   , An4 , v072
	.byte	W12
	.byte		        Cs1 , v064
	.byte	W12
	.byte	PEND
@ 007   ----------------------------------------
Fuse_12_007:
	.byte		N02   , Cn1 , v072
	.byte		N03   , Cs1 , v064
	.byte		N02   , Gs4 , v072
	.byte	W12
	.byte		        Cn1 , v060
	.byte		N03   , Cs1 , v064
	.byte	W12
	.byte		        Cn1 , v088
	.byte		N02   , Cs1 , v084
	.byte	W12
	.byte		        Cs1 , v064
	.byte		N02   , Gs4 , v072
	.byte	W12
	.byte		        Cn1 
	.byte		N02   , Cs1 , v064
	.byte	W12
	.byte		N02   
	.byte		N02   , Gs4 , v072
	.byte	W12
	.byte		        Cn1 , v088
	.byte		N02   , Cs1 , v084
	.byte		N02   , An4 , v072
	.byte	W12
	.byte		        Cs1 , v064
	.byte	W12
	.byte	PEND
Fuse_12_B1:
@ 008   ----------------------------------------
	.byte		N02   , Cn1 , v064
	.byte		N02   , Cs1 
	.byte		N02   , Gs4 , v072
	.byte	W12
	.byte		        Cn1 , v060
	.byte		N02   , Cs1 , v064
	.byte	W12
	.byte		        Cn1 , v088
	.byte		N02   , Cs1 , v084
	.byte	W12
	.byte		        Cs1 , v064
	.byte		N02   , Gs4 , v072
	.byte	W12
	.byte		        Cn1 
	.byte		N02   , Cs1 , v064
	.byte		N02   , An2 , v036
	.byte	W03
	.byte		N02   
	.byte	W03
	.byte		        An2 , v040
	.byte	W03
	.byte		N02   
	.byte	W03
	.byte		        Cs1 , v064
	.byte		N02   , An2 , v048
	.byte		N02   , Gs4 , v072
	.byte	W03
	.byte		        An2 , v048
	.byte	W03
	.byte		        An2 , v052
	.byte	W03
	.byte		N02   
	.byte	W03
@ 009   ----------------------------------------
	.byte		        Cn1 , v088
	.byte		N02   , Cs1 , v084
	.byte		N02   , An2 , v060
	.byte		N02   , An4 , v072
	.byte	W03
	.byte		        An2 , v060
	.byte	W03
	.byte		        An2 , v068
	.byte	W03
	.byte		        An2 , v064
	.byte	W03
	.byte		        Cs1 
	.byte		N02   , An2 , v072
	.byte	W03
	.byte		N02   
	.byte	W03
	.byte		N02   
	.byte	W03
	.byte		N03   
	.byte	W03
@ 010   ----------------------------------------
Fuse_12_010:
	.byte		N02   , Cn1 , v072
	.byte		N02   , Cs1 
	.byte		N02   , An2 , v084
	.byte		N02   , Bn2 , v072
	.byte		N02   , Gs4 
	.byte	W12
	.byte		        Cs1 
	.byte		N02   , Gs4 
	.byte	W12
	.byte		        Cn1 , v088
	.byte		N02   , Cs1 , v084
	.byte		N02   , An4 , v072
	.byte	W12
	.byte		        Cs1 
	.byte	W12
	.byte		        Cn1 
	.byte		N02   , Cs1 
	.byte		N02   , Gs4 
	.byte	W12
	.byte		        Cs1 
	.byte		N02   , Gs4 
	.byte	W12
	.byte	PEND
@ 011   ----------------------------------------
Fuse_12_011:
	.byte		N02   , Cn1 , v088
	.byte		N02   , Cs1 , v084
	.byte		N02   , An2 
	.byte		N02   , Bn2 , v072
	.byte		N02   , An4 
	.byte	W12
	.byte		        Cs1 
	.byte	W12
	.byte		        Cn1 
	.byte		N02   , Cs1 
	.byte		N02   , Gs4 
	.byte	W12
	.byte		        Cs1 
	.byte		N02   , Gs4 
	.byte	W12
	.byte		        Cn1 , v088
	.byte		N02   , Cs1 , v084
	.byte		N02   , An4 , v072
	.byte	W12
	.byte		        Cs1 
	.byte	W12
	.byte	PEND
@ 012   ----------------------------------------
Fuse_12_012:
	.byte		N02   , Cn1 , v072
	.byte		N02   , Cs1 
	.byte		N02   , An2 , v084
	.byte		N02   , Bn2 , v072
	.byte		N02   , Gs4 
	.byte	W12
	.byte		        Cs1 
	.byte		N02   , Gs4 
	.byte	W12
	.byte		        Cn1 , v088
	.byte		N02   , Cs1 , v084
	.byte		N02   , An4 , v072
	.byte	W12
	.byte		        Cs1 
	.byte	W12
	.byte	PEND
@ 013   ----------------------------------------
Fuse_12_013:
	.byte		N02   , Cn1 , v072
	.byte		N02   , Cs1 
	.byte		N02   , Gs4 
	.byte	W12
	.byte		        Cs1 
	.byte		N02   , Gs4 
	.byte	W12
	.byte		        Cn1 , v088
	.byte		N02   , Cs1 , v084
	.byte		N02   , An2 
	.byte		N02   , Bn2 , v072
	.byte		N02   , An4 
	.byte	W12
	.byte		        Cs1 
	.byte	W12
	.byte		        Cn1 
	.byte		N02   , Cs1 
	.byte		N02   , Gs4 
	.byte	W12
	.byte		        Cs1 
	.byte		N02   , Gs4 
	.byte	W12
	.byte		        Cn1 , v088
	.byte		N02   , Cs1 , v084
	.byte		N02   , An4 , v072
	.byte	W12
	.byte		        Cs1 
	.byte	W12
	.byte	PEND
@ 014   ----------------------------------------
Fuse_12_014:
	.byte		N02   , Cn1 , v072
	.byte		N02   , Cs1 
	.byte		N02   , An2 
	.byte		N02   , Bn2 
	.byte		N02   , Gs4 
	.byte	W12
	.byte		        Cs1 
	.byte		N02   , Gs4 
	.byte	W12
	.byte		        Cn1 , v088
	.byte		N02   , Cs1 , v084
	.byte		N02   , An4 , v072
	.byte	W12
	.byte		        Cs1 
	.byte	W12
	.byte		        Cn1 
	.byte		N02   , Cs1 
	.byte		N02   , Gs4 
	.byte	W12
	.byte		        Cs1 
	.byte		N02   , Gs4 
	.byte	W12
	.byte		        Cn1 , v088
	.byte		N02   , Cs1 , v084
	.byte		N02   , An4 , v072
	.byte	W12
	.byte		        Cs1 
	.byte	W12
	.byte	PEND
@ 015   ----------------------------------------
Fuse_12_015:
	.byte		N02   , Cn1 , v072
	.byte		N02   , Cs1 
	.byte		N02   , Gs4 
	.byte	W12
	.byte		        Cs1 
	.byte		N02   , Gs4 
	.byte	W12
	.byte		        Cn1 , v088
	.byte		N02   , Cs1 , v084
	.byte		N02   , An4 , v072
	.byte	W12
	.byte		        Cs1 
	.byte	W12
	.byte		        Cn1 
	.byte		N02   , Cs1 
	.byte		N02   , Gs4 
	.byte	W12
	.byte		        Cs1 
	.byte		N02   , Gs4 
	.byte	W12
	.byte		        Cn1 , v088
	.byte		N02   , Cs1 , v084
	.byte		N02   , An4 , v072
	.byte	W12
	.byte		        Cs1 
	.byte	W12
	.byte	PEND
@ 016   ----------------------------------------
	.byte	PATT
	 .word	Fuse_12_015
@ 017   ----------------------------------------
	.byte		N02   , Cn1 , v072
	.byte		N02   , Cs1 
	.byte		N02   , Gs4 
	.byte	W12
	.byte		        Cs1 
	.byte		N02   , Gs4 
	.byte	W12
	.byte		        Cn1 , v088
	.byte		N02   , Cs1 , v084
	.byte		N02   , An4 , v072
	.byte	W12
	.byte		        Cs1 
	.byte	W12
	.byte		        Cn1 
	.byte		N02   , Cs1 
	.byte		N02   , Gs4 
	.byte	W12
	.byte		        Cs1 
	.byte		N02   , Gs4 
	.byte	W12
@ 018   ----------------------------------------
	.byte		        Cn1 , v088
	.byte		N02   , Cs1 , v084
	.byte		N02   , An4 , v072
	.byte	W12
	.byte		        Cs1 
	.byte	W12
@ 019   ----------------------------------------
	.byte	PATT
	 .word	Fuse_12_010
@ 020   ----------------------------------------
	.byte	PATT
	 .word	Fuse_12_011
@ 021   ----------------------------------------
	.byte	PATT
	 .word	Fuse_12_012
@ 022   ----------------------------------------
	.byte	PATT
	 .word	Fuse_12_013
@ 023   ----------------------------------------
	.byte	PATT
	 .word	Fuse_12_014
@ 024   ----------------------------------------
	.byte	PATT
	 .word	Fuse_12_015
@ 025   ----------------------------------------
	.byte	PATT
	 .word	Fuse_12_014
@ 026   ----------------------------------------
	.byte		N02   , Cn1 , v072
	.byte		N02   , Cs1 
	.byte		N02   , Gs4 
	.byte	W12
	.byte		        Cs1 
	.byte		N02   , Gs4 
	.byte	W12
	.byte		        Cn1 , v088
	.byte		N02   , Cs1 , v084
	.byte		N02   , An4 , v072
	.byte	W12
	.byte		        Cs1 
	.byte		N02   , Gs4 
	.byte	W12
	.byte		        Cn1 
	.byte		N02   , Cs1 
	.byte	W12
	.byte		N02   
	.byte		N02   , Gs4 
	.byte	W12
	.byte		        Cn1 , v088
	.byte		N02   , Cs1 , v084
	.byte		N02   , An4 , v072
	.byte	W12
	.byte		        Cs1 
	.byte		N02   , Gs4 
	.byte	W12
@ 027   ----------------------------------------
Fuse_12_027:
	.byte		N02   , Cn1 , v072
	.byte		N02   , Cs1 
	.byte		N02   , Bn2 , v084
	.byte	W12
	.byte		        Cs1 , v072
	.byte		N02   , Gs4 
	.byte	W12
	.byte		        Cn1 
	.byte		N02   , Cs1 , v084
	.byte		N02   , An4 , v072
	.byte	W12
	.byte		        Cs1 
	.byte	W12
	.byte		        Cn1 
	.byte		N02   , Cs1 
	.byte		N02   , Gs4 
	.byte	W12
	.byte		        Cs1 
	.byte	W12
	.byte		        Cn1 
	.byte		N02   , Cs1 , v084
	.byte	W12
	.byte		        Cs1 , v072
	.byte		N02   , Gs4 
	.byte	W12
	.byte	PEND
@ 028   ----------------------------------------
Fuse_12_028:
	.byte		N02   , Cn1 , v072
	.byte		N02   , Cs1 
	.byte	W12
	.byte		N02   
	.byte		N02   , Gs4 
	.byte	W12
	.byte		        Cn1 
	.byte		N02   , Cs1 , v084
	.byte		N02   , An4 , v072
	.byte	W12
	.byte		        Cs1 
	.byte	W12
	.byte		        Cn1 
	.byte		N02   , Cs1 
	.byte		N02   , Gs4 
	.byte	W12
	.byte		        Cs1 
	.byte	W12
	.byte		        Cn1 
	.byte		N02   , Cs1 , v084
	.byte	W12
	.byte		        Cs1 , v072
	.byte		N02   , Gs4 
	.byte	W12
	.byte	PEND
@ 029   ----------------------------------------
	.byte	PATT
	 .word	Fuse_12_028
@ 030   ----------------------------------------
	.byte	PATT
	 .word	Fuse_12_028
@ 031   ----------------------------------------
Fuse_12_031:
	.byte		N02   , Cn1 , v072
	.byte		N02   , Cs1 
	.byte		N02   , An2 
	.byte		N02   , Bn2 , v084
	.byte	W12
	.byte		        Cs1 , v072
	.byte		N02   , Gs4 
	.byte	W12
	.byte		        Cn1 
	.byte		N02   , Cs1 , v084
	.byte		N02   , An4 , v072
	.byte	W12
	.byte		        Cs1 
	.byte	W12
	.byte		        Cn1 
	.byte		N02   , Cs1 
	.byte		N02   , Gs4 
	.byte	W12
	.byte		        Cs1 
	.byte	W12
	.byte		        Cn1 
	.byte		N02   , Cs1 , v084
	.byte		N02   , An2 , v072
	.byte		N02   , Bn2 , v076
	.byte	W12
	.byte		        Cs1 , v072
	.byte		N02   , Gs4 
	.byte	W12
	.byte	PEND
@ 032   ----------------------------------------
	.byte		N03   , Cn1 
	.byte		N02   , Cs1 
	.byte	W12
	.byte		N02   
	.byte		N02   , Gs4 
	.byte	W12
	.byte		        Cn1 
	.byte		N02   , Cs1 , v084
	.byte		N02   , An4 , v072
	.byte	W12
	.byte		        Cs1 
	.byte	W12
	.byte		        Cn1 
	.byte		N02   , Cs1 
	.byte		N02   , An2 
	.byte		N02   , Bn2 , v076
	.byte		N02   , Gs4 , v072
	.byte	W12
	.byte		        Cs1 
	.byte	W12
	.byte		        Cn1 
	.byte		N02   , Cs1 , v084
	.byte	W12
	.byte		        Cs1 , v072
	.byte		N02   , Gs4 
	.byte	W12
@ 033   ----------------------------------------
	.byte		        Cn1 
	.byte		N02   , Cs1 
	.byte		N02   , An2 
	.byte		N02   , Bn2 , v076
	.byte	W12
	.byte		        Cs1 , v072
	.byte		N02   , Gs4 
	.byte	W12
	.byte		        Cn1 
	.byte		N02   , Cs1 , v084
	.byte		N02   , An4 , v072
	.byte	W12
	.byte		        Cs1 
	.byte	W12
	.byte		        Cn1 
	.byte		N02   , Cs1 
	.byte		N02   , Gs4 
	.byte	W12
	.byte		        Cs1 
	.byte	W12
	.byte		        Cn1 
	.byte		N02   , Cs1 , v084
	.byte	W12
	.byte		        Cs1 , v072
	.byte		N02   , Gs4 
	.byte	W12
@ 034   ----------------------------------------
	.byte	PATT
	 .word	Fuse_12_028
@ 035   ----------------------------------------
	.byte	PATT
	 .word	Fuse_12_027
@ 036   ----------------------------------------
Fuse_12_036:
	.byte		N02   , Cn1 , v072
	.byte		N02   , Cs1 
	.byte	W12
	.byte		N02   
	.byte		N02   , Gs4 
	.byte	W12
	.byte		N03   , Cn1 
	.byte		N02   , Cs1 , v084
	.byte		N02   , An4 , v072
	.byte	W12
	.byte		        Cs1 
	.byte	W12
	.byte		        Cn1 
	.byte		N02   , Cs1 
	.byte		N02   , Gs4 
	.byte	W12
	.byte		        Cs1 
	.byte	W12
	.byte		        Cn1 
	.byte		N02   , Cs1 , v084
	.byte	W12
	.byte		        Cs1 , v072
	.byte		N02   , Gs4 
	.byte	W12
	.byte	PEND
@ 037   ----------------------------------------
	.byte	PATT
	 .word	Fuse_12_036
@ 038   ----------------------------------------
	.byte	PATT
	 .word	Fuse_12_028
@ 039   ----------------------------------------
	.byte	PATT
	 .word	Fuse_12_031
@ 040   ----------------------------------------
	.byte		N02   , Cn1 , v072
	.byte		N02   , Cs1 
	.byte	W12
	.byte		N02   
	.byte		N02   , Gs4 
	.byte	W12
	.byte		        Cn1 
	.byte		N02   , Cs1 , v084
	.byte		N02   , An4 , v072
	.byte	W12
	.byte		        Cs1 
	.byte	W12
	.byte		        Cn1 
	.byte		N02   , Cs1 
	.byte		N02   , An2 
	.byte		N02   , Bn2 , v076
	.byte		N02   , Gs4 , v072
	.byte	W12
	.byte		        Cs1 
	.byte	W12
	.byte		        Cn1 
	.byte		N02   , Cs1 , v084
	.byte	W12
	.byte		        Cs1 , v072
	.byte		N02   , Gs4 
	.byte	W12
@ 041   ----------------------------------------
	.byte		        Cn1 
	.byte		N02   , Cs1 
	.byte		N02   , An2 
	.byte		N02   , Bn2 , v076
	.byte	W12
	.byte		        Cs1 , v072
	.byte		N02   , Gs4 
	.byte	W12
	.byte		        Cn1 
	.byte		N02   , Cs1 , v084
	.byte		N02   , An4 , v072
	.byte	W12
	.byte		        Cs1 
	.byte	W12
	.byte		N03   , Cn1 
	.byte		N02   , Cs1 
	.byte		N02   , Gs4 
	.byte	W12
	.byte		        Cs1 
	.byte	W12
	.byte		        Cn1 
	.byte		N02   , Cs1 , v084
	.byte	W12
	.byte		        Cs1 , v072
	.byte		N02   , Gs4 
	.byte	W12
@ 042   ----------------------------------------
	.byte		        Cn1 
	.byte		N02   , Cs1 
	.byte	W12
	.byte		N02   
	.byte		N02   , Gs4 
	.byte	W12
	.byte		N03   , Cn1 
	.byte		N02   , Cs1 , v084
	.byte		N02   , An4 , v072
	.byte	W12
	.byte		        Cs1 
	.byte	W12
	.byte		N03   , Cn1 
	.byte		N02   , Cs1 
	.byte		N02   , Gs4 
	.byte	W12
	.byte		        Cs1 
	.byte	W12
	.byte		        Cn1 
	.byte		N02   , Cs1 , v084
	.byte	W12
	.byte		        Cs1 , v072
	.byte		N02   , Gs4 
	.byte	W12
@ 043   ----------------------------------------
	.byte		        Cn1 
	.byte		N02   , Cs1 
	.byte		N02   , Bn2 , v084
	.byte	W12
	.byte		        Cs1 , v072
	.byte		N02   , Gs4 
	.byte	W12
	.byte		N03   , Cn1 
	.byte		N02   , Cs1 , v084
	.byte		N02   , An4 , v072
	.byte	W12
	.byte		        Cs1 
	.byte	W12
	.byte		        Cn1 
	.byte		N02   , Cs1 
	.byte		N02   , Gs4 
	.byte	W12
	.byte		        Cs1 
	.byte	W12
	.byte		        Cn1 
	.byte		N02   , Cs1 , v084
	.byte	W12
	.byte		        Cs1 , v072
	.byte		N02   , Gs4 
	.byte	W12
@ 044   ----------------------------------------
	.byte		N03   , Cn1 
	.byte		N02   , Cs1 
	.byte	W12
	.byte		N02   
	.byte		N02   , Gs4 
	.byte	W12
	.byte		N03   , Cn1 
	.byte		N02   , Cs1 , v084
	.byte		N02   , An4 , v072
	.byte	W12
	.byte		        Cs1 
	.byte	W12
	.byte		N03   , Cn1 
	.byte		N02   , Cs1 
	.byte		N02   , Gs4 
	.byte	W12
	.byte		        Cs1 
	.byte	W12
	.byte		        Cn1 
	.byte		N02   , Cs1 , v084
	.byte	W12
	.byte		        Cs1 , v072
	.byte		N02   , Gs4 
	.byte	W12
@ 045   ----------------------------------------
	.byte		        Cn1 
	.byte		N02   , Cs1 
	.byte	W12
	.byte		N02   
	.byte		N02   , Gs4 
	.byte	W12
	.byte		        Cn1 
	.byte		N02   , Cs1 , v084
	.byte		N02   , An4 , v072
	.byte	W12
	.byte		        Cs1 
	.byte	W12
	.byte		N03   , Cn1 
	.byte		N02   , Cs1 
	.byte		N02   , Gs4 
	.byte	W12
	.byte		        Cs1 
	.byte	W12
	.byte		        Cn1 
	.byte		N02   , Cs1 , v084
	.byte	W12
	.byte		        Cs1 , v072
	.byte		N02   , Gs4 
	.byte	W12
@ 046   ----------------------------------------
	.byte		        Cn1 
	.byte		N02   , Cs1 
	.byte	W12
	.byte		N02   
	.byte		N02   , Gs4 
	.byte	W12
	.byte		        Cn1 
	.byte		N02   , Cs1 , v084
	.byte		N02   , An4 , v072
	.byte	W12
	.byte		        Cs1 
	.byte	W12
	.byte		        Cn1 
	.byte		N02   , Cs1 
	.byte		N02   , Gs4 
	.byte	W12
	.byte		        Cs1 
	.byte	W12
	.byte		N03   , Cn1 
	.byte		N02   , Cs1 , v084
	.byte	W12
	.byte		        Cs1 , v072
	.byte		N02   , Gs4 
	.byte	W12
@ 047   ----------------------------------------
	.byte	PATT
	 .word	Fuse_12_005
@ 048   ----------------------------------------
	.byte		N02   , An0 , v084
	.byte		N02   , Cn1 , v072
	.byte		N02   , Cs1 , v064
	.byte		N02   , Gs4 , v072
	.byte	W12
	.byte		        An0 , v084
	.byte		N02   , Cn1 , v060
	.byte		N02   , Cs1 , v064
	.byte	W12
	.byte		        Cn1 , v088
	.byte		N02   , Cs1 , v084
	.byte	W12
	.byte		        Cs1 , v068
	.byte		N02   , Gs4 , v072
	.byte	W12
	.byte		        Cn1 
	.byte		N02   , Cs1 , v064
	.byte	W12
	.byte		N02   
	.byte		N02   , Gs4 , v072
	.byte	W12
	.byte		        Cn1 , v088
	.byte		N02   , Cs1 , v084
	.byte		N02   , An4 , v072
	.byte	W12
	.byte		        Cs1 , v064
	.byte	W12
@ 049   ----------------------------------------
	.byte	PATT
	 .word	Fuse_12_007
@ 050   ----------------------------------------
Fuse_12_050:
	.byte		N02   , Cn1 , v064
	.byte		N02   , Cs1 
	.byte		N02   , Gs4 , v072
	.byte	W12
	.byte		        Cn1 , v060
	.byte		N02   , Cs1 , v064
	.byte	W12
	.byte		        Cn1 , v088
	.byte		N02   , Cs1 , v084
	.byte	W12
	.byte		        Cs1 , v064
	.byte		N02   , Gs4 , v072
	.byte	W12
	.byte		        Cn1 
	.byte		N02   , Cs1 , v064
	.byte	W12
	.byte		N02   
	.byte		N02   , Gs4 , v072
	.byte	W12
	.byte		        Cn1 , v088
	.byte		N02   , Cs1 , v084
	.byte		N02   , An2 , v072
	.byte		N02   , Bn2 
	.byte		N02   , An4 
	.byte	W12
	.byte		        Cs1 , v064
	.byte	W12
	.byte	PEND
@ 051   ----------------------------------------
	.byte	PATT
	 .word	Fuse_12_005
@ 052   ----------------------------------------
	.byte	PATT
	 .word	Fuse_12_006
@ 053   ----------------------------------------
	.byte	PATT
	 .word	Fuse_12_007
@ 054   ----------------------------------------
	.byte	PATT
	 .word	Fuse_12_050
@ 055   ----------------------------------------
	.byte	PATT
	 .word	Fuse_12_005
@ 056   ----------------------------------------
	.byte		N02   , Cn1 , v072
	.byte		N02   , Cs1 , v064
	.byte		N02   , Gs4 , v072
	.byte	W12
	.byte		        Cn1 , v060
	.byte		N02   , Cs1 , v064
	.byte	W12
	.byte		        Cn1 , v088
	.byte		N02   , Cs1 , v084
	.byte	W12
	.byte		        Cs1 , v068
	.byte		N02   , Gs4 , v072
	.byte	W12
	.byte		        Cn1 
	.byte		N02   , Cs1 , v064
	.byte	W12
	.byte		N02   
	.byte		N02   , Gs4 , v072
	.byte	W12
	.byte		        Cn1 , v088
	.byte		N02   , Cs1 , v084
	.byte		N02   , An4 , v072
	.byte	W12
	.byte		        Cs1 , v064
	.byte	W06
	.byte	GOTO
	 .word	Fuse_12_B1
Fuse_12_B2:
	.byte	W06
@ 057   ----------------------------------------
	.byte	W96
@ 058   ----------------------------------------
	.byte	W96
@ 059   ----------------------------------------
	.byte	W96
@ 060   ----------------------------------------
	.byte	W96
@ 061   ----------------------------------------
	.byte	W96
@ 062   ----------------------------------------
	.byte	W96
@ 063   ----------------------------------------
	.byte	FINE

@******************************************************@
	.align	2

Fuse:
	.byte	12	@ NumTrks
	.byte	0	@ NumBlks
	.byte	Fuse_pri	@ Priority
	.byte	Fuse_rev	@ Reverb.

	.word	Fuse_grp

	.word	Fuse_1
	.word	Fuse_2
	.word	Fuse_3
	.word	Fuse_4
	.word	Fuse_5
	.word	Fuse_6
	.word	Fuse_7
	.word	Fuse_8
	.word	Fuse_9
	.word	Fuse_10
	.word	Fuse_11
	.word	Fuse_12

	.end
