	.include "MPlayDef.s"

	.equ	song01_grp, voicegroup000
	.equ	song01_pri, 0
	.equ	song01_rev, 0
	.equ	song01_mvl, 127
	.equ	song01_key, 0
	.equ	song01_tbs, 1
	.equ	song01_exg, 0
	.equ	song01_cmp, 1

	.section .rodata
	.global	song01
	.align	2


@**************** Track 1 (Midi-Chn.0) ****************@

song01_001:
@  #01 @000   ----------------------------------------
 .byte   KEYSH , song01_key+0
Label_018189AE:
 .byte   TEMPO , 120*song01_tbs/2
 .byte   VOICE , 45
 .byte   VOL , 19*song01_mvl/mxv
 .byte   PAN , c_v-40
 .byte   N11 ,As2 ,v100
 .byte   W12
 .byte   N24 ,Ds3
 .byte   W24
 .byte   N11 ,As2
 .byte   W12
 .byte   N12 ,Fn3
 .byte   W12
 .byte   N11 ,As2
 .byte   W12
 .byte   Ds3
 .byte   W12
 .byte   N12 ,As2
 .byte   W12
@  #01 @001   ----------------------------------------
 .byte   N11 ,Fn3
 .byte   W12
 .byte   N12 ,As2
 .byte   W12
 .byte   N24 ,Gs3
 .byte   W24
Label_018189D4:
 .byte   N11 ,As2 ,v100
 .byte   W12
 .byte   N24 ,Ds3
 .byte   W24
 .byte   N11 ,As2
 .byte   W12
@  #01 @002   ----------------------------------------
 .byte   N12 ,Fn3
 .byte   W12
 .byte   N11 ,As2
 .byte   W12
 .byte   Ds3
 .byte   W12
 .byte   N12 ,As2
 .byte   W12
 .byte   N11 ,Fn3
 .byte   W12
 .byte   N12 ,As2
 .byte   W12
 .byte   N24 ,Fs3
 .byte   W24
 .byte   PEND 
@  #01 @003   ----------------------------------------
Label_018189F3:
 .byte   N11 ,As2 ,v100
 .byte   W12
 .byte   N24 ,Ds3
 .byte   W24
 .byte   N11 ,As2
 .byte   W12
 .byte   N12 ,Fn3
 .byte   W12
 .byte   N11 ,As2
 .byte   W12
 .byte   Ds3
 .byte   W12
 .byte   N12 ,As2
 .byte   W12
@  #01 @004   ----------------------------------------
 .byte   N11 ,Fn3
 .byte   W12
 .byte   N12 ,As2
 .byte   W12
 .byte   N24 ,Gs3
 .byte   W24
 .byte   PEND 
@  #01 @005   ----------------------------------------
 .byte   PATT
  .word Label_018189D4
@  #01 @006   ----------------------------------------
 .byte   PATT
  .word Label_018189F3
@  #01 @007   ----------------------------------------
 .byte   PATT
  .word Label_018189D4
@  #01 @008   ----------------------------------------
 .byte   PATT
  .word Label_018189F3
@  #01 @009   ----------------------------------------
 .byte   PATT
  .word Label_018189D4
@  #01 @010   ----------------------------------------
 .byte   PATT
  .word Label_018189F3
@  #01 @011   ----------------------------------------
 .byte   PATT
  .word Label_018189D4
@  #01 @012   ----------------------------------------
 .byte   PATT
  .word Label_018189F3
@  #01 @013   ----------------------------------------
 .byte   PATT
  .word Label_018189D4
@  #01 @014   ----------------------------------------
 .byte   PATT
  .word Label_018189F3
@  #01 @015   ----------------------------------------
 .byte   PATT
  .word Label_018189D4
@  #01 @016   ----------------------------------------
 .byte   PATT
  .word Label_018189F3
@  #01 @017   ----------------------------------------
 .byte   PATT
  .word Label_018189D4
@  #01 @018   ----------------------------------------
 .byte   PATT
  .word Label_018189F3
@  #01 @019   ----------------------------------------
 .byte   PATT
  .word Label_018189D4
@  #01 @020   ----------------------------------------
 .byte   PATT
  .word Label_018189F3
@  #01 @021   ----------------------------------------
 .byte   PATT
  .word Label_018189D4
@  #01 @022   ----------------------------------------
 .byte   PATT
  .word Label_018189F3
@  #01 @023   ----------------------------------------
 .byte   PATT
  .word Label_018189D4
@  #01 @024   ----------------------------------------
 .byte   PATT
  .word Label_018189F3
@  #01 @025   ----------------------------------------
 .byte   PATT
  .word Label_018189D4
@  #01 @026   ----------------------------------------
Label_01818A7B:
 .byte   N11 ,Bn2 ,v100
 .byte   W12
 .byte   N24 ,En3
 .byte   W24
 .byte   N11 ,Bn2
 .byte   W12
 .byte   N12 ,Fs3
 .byte   W12
 .byte   N11 ,Bn2
 .byte   W12
 .byte   En3
 .byte   W12
 .byte   N12 ,Bn2
 .byte   W12
@  #01 @027   ----------------------------------------
 .byte   N11 ,Fs3
 .byte   W12
 .byte   N12 ,Bn2
 .byte   W12
 .byte   N24 ,An3
 .byte   W24
 .byte   PEND 
Label_01818A9A:
 .byte   N11 ,Bn2 ,v100
 .byte   W12
 .byte   N24 ,En3
 .byte   W24
 .byte   N11 ,Bn2
 .byte   W12
@  #01 @028   ----------------------------------------
 .byte   N12 ,Fs3
 .byte   W12
 .byte   N11 ,Bn2
 .byte   W12
 .byte   En3
 .byte   W12
 .byte   N12 ,Bn2
 .byte   W12
 .byte   N11 ,Fs3
 .byte   W12
 .byte   N12 ,Bn2
 .byte   W12
 .byte   N24 ,Gn3
 .byte   W24
 .byte   PEND 
@  #01 @029   ----------------------------------------
 .byte   PATT
  .word Label_01818A7B
@  #01 @030   ----------------------------------------
 .byte   PATT
  .word Label_01818A9A
@  #01 @031   ----------------------------------------
 .byte   PATT
  .word Label_018189F3
@  #01 @032   ----------------------------------------
 .byte   PATT
  .word Label_018189D4
@  #01 @033   ----------------------------------------
 .byte   PATT
  .word Label_018189F3
@  #01 @034   ----------------------------------------
 .byte   PATT
  .word Label_018189D4
@  #01 @035   ----------------------------------------
 .byte   PATT
  .word Label_01818A7B
@  #01 @036   ----------------------------------------
 .byte   PATT
  .word Label_01818A9A
@  #01 @037   ----------------------------------------
 .byte   PATT
  .word Label_01818A7B
@  #01 @038   ----------------------------------------
 .byte   PATT
  .word Label_01818A9A
@  #01 @039   ----------------------------------------
 .byte   PATT
  .word Label_018189F3
@  #01 @040   ----------------------------------------
 .byte   PATT
  .word Label_018189D4
@  #01 @041   ----------------------------------------
 .byte   PATT
  .word Label_018189F3
@  #01 @042   ----------------------------------------
 .byte   PATT
  .word Label_018189D4
@  #01 @043   ----------------------------------------
 .byte   PATT
  .word Label_01818A7B
@  #01 @044   ----------------------------------------
 .byte   PATT
  .word Label_01818A9A
@  #01 @045   ----------------------------------------
 .byte   PATT
  .word Label_01818A7B
@  #01 @046   ----------------------------------------
 .byte   PATT
  .word Label_01818A9A
@  #01 @047   ----------------------------------------
 .byte   PATT
  .word Label_018189F3
@  #01 @048   ----------------------------------------
 .byte   PATT
  .word Label_018189D4
@  #01 @049   ----------------------------------------
 .byte   PATT
  .word Label_018189F3
@  #01 @050   ----------------------------------------
 .byte   PATT
  .word Label_018189D4
@  #01 @051   ----------------------------------------
 .byte   PATT
  .word Label_01818A7B
@  #01 @052   ----------------------------------------
 .byte   PATT
  .word Label_01818A9A
@  #01 @053   ----------------------------------------
 .byte   PATT
  .word Label_01818A7B
@  #01 @054   ----------------------------------------
 .byte   PATT
  .word Label_01818A9A
@  #01 @055   ----------------------------------------
 .byte   PATT
  .word Label_018189F3
@  #01 @056   ----------------------------------------
 .byte   PATT
  .word Label_018189D4
@  #01 @057   ----------------------------------------
 .byte   PATT
  .word Label_018189F3
@  #01 @058   ----------------------------------------
 .byte   PATT
  .word Label_018189D4
@  #01 @059   ----------------------------------------
 .byte   PATT
  .word Label_01818A7B
@  #01 @060   ----------------------------------------
 .byte   PATT
  .word Label_01818A9A
@  #01 @061   ----------------------------------------
 .byte   PATT
  .word Label_01818A7B
@  #01 @062   ----------------------------------------
 .byte   PATT
  .word Label_01818A9A
@  #01 @063   ----------------------------------------
 .byte   W96
@  #01 @064   ----------------------------------------
 .byte   W48
 .byte   W96
@  #01 @065   ----------------------------------------
 .byte   W48
 .byte   W96
@  #01 @066   ----------------------------------------
 .byte   W48
 .byte   W96
@  #01 @067   ----------------------------------------
 .byte   W48
 .byte   W96
@  #01 @068   ----------------------------------------
 .byte   W48
 .byte   W96
@  #01 @069   ----------------------------------------
 .byte   W48
 .byte   W96
@  #01 @070   ----------------------------------------
 .byte   W48
 .byte   W96
@  #01 @071   ----------------------------------------
 .byte   W48
 .byte   GOTO
  .word Label_018189AE
 .byte   FINE

@**************** Track 2 (Midi-Chn.1) ****************@

song01_002:
@  #02 @000   ----------------------------------------
 .byte   KEYSH , song01_key+0
Label_018191BA:
 .byte   VOICE , 13
 .byte   VOL , 34*song01_mvl/mxv
 .byte   PAN , c_v-40
 .byte   N08 ,As3 ,v100
 .byte   W12
 .byte   N18 ,Ds4
 .byte   W24
 .byte   N08 ,As3
 .byte   W12
 .byte   N09 ,Fn4
 .byte   W12
 .byte   N08 ,As3
 .byte   W12
 .byte   Ds4
 .byte   W12
 .byte   N09 ,As3
 .byte   W12
@  #02 @001   ----------------------------------------
 .byte   N08 ,Fn4
 .byte   W12
 .byte   N09 ,As3
 .byte   W12
 .byte   N18 ,Gs4
 .byte   W24
Label_018191DE:
 .byte   N08 ,As3 ,v100
 .byte   W12
 .byte   N18 ,Ds4
 .byte   W24
 .byte   N08 ,As3
 .byte   W12
@  #02 @002   ----------------------------------------
 .byte   N09 ,Fn4
 .byte   W12
 .byte   N08 ,As3
 .byte   W12
 .byte   Ds4
 .byte   W12
 .byte   N09 ,As3
 .byte   W12
 .byte   N08 ,Fn4
 .byte   W12
 .byte   N09 ,As3
 .byte   W12
 .byte   N18 ,Fs4
 .byte   W24
 .byte   PEND 
@  #02 @003   ----------------------------------------
Label_018191FD:
 .byte   N08 ,As3 ,v100
 .byte   W12
 .byte   N18 ,Ds4
 .byte   W24
 .byte   N08 ,As3
 .byte   W12
 .byte   N09 ,Fn4
 .byte   W12
 .byte   N08 ,As3
 .byte   W12
 .byte   Ds4
 .byte   W12
 .byte   N09 ,As3
 .byte   W12
@  #02 @004   ----------------------------------------
 .byte   N08 ,Fn4
 .byte   W12
 .byte   N09 ,As3
 .byte   W12
 .byte   N18 ,Gs4
 .byte   W24
 .byte   PEND 
@  #02 @005   ----------------------------------------
 .byte   PATT
  .word Label_018191DE
@  #02 @006   ----------------------------------------
 .byte   PATT
  .word Label_018191FD
@  #02 @007   ----------------------------------------
 .byte   PATT
  .word Label_018191DE
@  #02 @008   ----------------------------------------
 .byte   PATT
  .word Label_018191FD
@  #02 @009   ----------------------------------------
 .byte   PATT
  .word Label_018191DE
@  #02 @010   ----------------------------------------
 .byte   PATT
  .word Label_018191FD
@  #02 @011   ----------------------------------------
 .byte   PATT
  .word Label_018191DE
@  #02 @012   ----------------------------------------
 .byte   PATT
  .word Label_018191FD
@  #02 @013   ----------------------------------------
 .byte   PATT
  .word Label_018191DE
@  #02 @014   ----------------------------------------
 .byte   PATT
  .word Label_018191FD
@  #02 @015   ----------------------------------------
 .byte   PATT
  .word Label_018191DE
@  #02 @016   ----------------------------------------
 .byte   PATT
  .word Label_018191FD
@  #02 @017   ----------------------------------------
 .byte   PATT
  .word Label_018191DE
@  #02 @018   ----------------------------------------
 .byte   PATT
  .word Label_018191FD
@  #02 @019   ----------------------------------------
 .byte   PATT
  .word Label_018191DE
@  #02 @020   ----------------------------------------
 .byte   PATT
  .word Label_018191FD
@  #02 @021   ----------------------------------------
 .byte   PATT
  .word Label_018191DE
@  #02 @022   ----------------------------------------
 .byte   PATT
  .word Label_018191FD
@  #02 @023   ----------------------------------------
 .byte   PATT
  .word Label_018191DE
@  #02 @024   ----------------------------------------
 .byte   PATT
  .word Label_018191FD
@  #02 @025   ----------------------------------------
 .byte   PATT
  .word Label_018191DE
@  #02 @026   ----------------------------------------
Label_01819285:
 .byte   N08 ,Bn3 ,v100
 .byte   W12
 .byte   N18 ,En4
 .byte   W24
 .byte   N08 ,Bn3
 .byte   W12
 .byte   N09 ,Fs4
 .byte   W12
 .byte   N08 ,Bn3
 .byte   W12
 .byte   En4
 .byte   W12
 .byte   N09 ,Bn3
 .byte   W12
@  #02 @027   ----------------------------------------
 .byte   N08 ,Fs4
 .byte   W12
 .byte   N09 ,Bn3
 .byte   W12
 .byte   N18 ,An4
 .byte   W24
 .byte   PEND 
Label_018192A4:
 .byte   N08 ,Bn3 ,v100
 .byte   W12
 .byte   N18 ,En4
 .byte   W24
 .byte   N08 ,Bn3
 .byte   W12
@  #02 @028   ----------------------------------------
 .byte   N09 ,Fs4
 .byte   W12
 .byte   N08 ,Bn3
 .byte   W12
 .byte   En4
 .byte   W12
 .byte   N09 ,Bn3
 .byte   W12
 .byte   N08 ,Fs4
 .byte   W12
 .byte   N09 ,Bn3
 .byte   W12
 .byte   N18 ,Gn4
 .byte   W24
 .byte   PEND 
@  #02 @029   ----------------------------------------
 .byte   PATT
  .word Label_01819285
@  #02 @030   ----------------------------------------
 .byte   PATT
  .word Label_018192A4
@  #02 @031   ----------------------------------------
 .byte   PATT
  .word Label_018191FD
@  #02 @032   ----------------------------------------
 .byte   PATT
  .word Label_018191DE
@  #02 @033   ----------------------------------------
 .byte   PATT
  .word Label_018191FD
@  #02 @034   ----------------------------------------
 .byte   PATT
  .word Label_018191DE
@  #02 @035   ----------------------------------------
 .byte   PATT
  .word Label_01819285
@  #02 @036   ----------------------------------------
 .byte   PATT
  .word Label_018192A4
@  #02 @037   ----------------------------------------
 .byte   PATT
  .word Label_01819285
@  #02 @038   ----------------------------------------
 .byte   PATT
  .word Label_018192A4
@  #02 @039   ----------------------------------------
 .byte   PATT
  .word Label_018191FD
@  #02 @040   ----------------------------------------
 .byte   PATT
  .word Label_018191DE
@  #02 @041   ----------------------------------------
 .byte   PATT
  .word Label_018191FD
@  #02 @042   ----------------------------------------
 .byte   PATT
  .word Label_018191DE
@  #02 @043   ----------------------------------------
 .byte   PATT
  .word Label_01819285
@  #02 @044   ----------------------------------------
 .byte   PATT
  .word Label_018192A4
@  #02 @045   ----------------------------------------
 .byte   PATT
  .word Label_01819285
@  #02 @046   ----------------------------------------
 .byte   PATT
  .word Label_018192A4
@  #02 @047   ----------------------------------------
 .byte   PATT
  .word Label_018191FD
@  #02 @048   ----------------------------------------
 .byte   PATT
  .word Label_018191DE
@  #02 @049   ----------------------------------------
 .byte   PATT
  .word Label_018191FD
@  #02 @050   ----------------------------------------
 .byte   PATT
  .word Label_018191DE
@  #02 @051   ----------------------------------------
 .byte   PATT
  .word Label_01819285
@  #02 @052   ----------------------------------------
 .byte   PATT
  .word Label_018192A4
@  #02 @053   ----------------------------------------
 .byte   PATT
  .word Label_01819285
@  #02 @054   ----------------------------------------
 .byte   PATT
  .word Label_018192A4
@  #02 @055   ----------------------------------------
 .byte   PATT
  .word Label_018191FD
@  #02 @056   ----------------------------------------
 .byte   PATT
  .word Label_018191DE
@  #02 @057   ----------------------------------------
 .byte   PATT
  .word Label_018191FD
@  #02 @058   ----------------------------------------
 .byte   PATT
  .word Label_018191DE
@  #02 @059   ----------------------------------------
 .byte   PATT
  .word Label_01819285
@  #02 @060   ----------------------------------------
 .byte   PATT
  .word Label_018192A4
@  #02 @061   ----------------------------------------
 .byte   PATT
  .word Label_01819285
@  #02 @062   ----------------------------------------
 .byte   PATT
  .word Label_018192A4
@  #02 @063   ----------------------------------------
 .byte   W96
@  #02 @064   ----------------------------------------
 .byte   W48
 .byte   W96
@  #02 @065   ----------------------------------------
 .byte   W48
 .byte   W96
@  #02 @066   ----------------------------------------
 .byte   W48
 .byte   W96
@  #02 @067   ----------------------------------------
 .byte   W48
 .byte   W96
@  #02 @068   ----------------------------------------
 .byte   W48
 .byte   W96
@  #02 @069   ----------------------------------------
 .byte   W48
 .byte   N24 ,Cs3 ,v127
 .byte   N32 ,Fn3
 .byte   W24
 .byte   N96 ,Ds3
 .byte   W12
 .byte   N36 ,Fn3
 .byte   W36
@  #02 @070   ----------------------------------------
 .byte   Gs3
 .byte   W36
 .byte   As3
 .byte   W12
 .byte   N24 ,Fn3
 .byte   W24
 .byte   Cs3
 .byte   N01 ,Fn3
 .byte   W24
@  #02 @071   ----------------------------------------
 .byte   N56 ,Ds3
 .byte   W12
 .byte   N36 ,Fn3
 .byte   W36
 .byte   N06 ,Fs3
 .byte   W06
 .byte   Fn3
 .byte   W06
 .byte   N12 ,Ds3
 .byte   W60
@  #02 @072   ----------------------------------------
 .byte   GOTO
  .word Label_018191BA
 .byte   FINE

@**************** Track 3 (Midi-Chn.2) ****************@

song01_003:
@  #03 @000   ----------------------------------------
 .byte   KEYSH , song01_key+0
Label_0181880A:
 .byte   VOICE , 34
 .byte   VOL , 29*song01_mvl/mxv
 .byte   PAN , c_v-15
 .byte   W96
@  #03 @001   ----------------------------------------
 .byte   W48
 .byte   W96
@  #03 @002   ----------------------------------------
 .byte   W48
 .byte   W96
@  #03 @003   ----------------------------------------
 .byte   W48
 .byte   W96
@  #03 @004   ----------------------------------------
 .byte   W48
Label_01818818:
 .byte   N12 ,As0 ,v100
 .byte   W12
 .byte   N12
 .byte   W12
 .byte   Cs2
 .byte   W12
 .byte   Cn2
 .byte   W24
@  #03 @005   ----------------------------------------
 .byte   Fn1
 .byte   W24
 .byte   Gs1
 .byte   W24
 .byte   As1
 .byte   W12
 .byte   Fn1
 .byte   W24
 .byte   PEND 
Label_0181882B:
 .byte   N12 ,As0 ,v100
 .byte   W12
@  #03 @006   ----------------------------------------
 .byte   N12
 .byte   W12
 .byte   Cs2
 .byte   W12
 .byte   Cn2
 .byte   W24
 .byte   Fn1
 .byte   W24
 .byte   Gs1
 .byte   W24
@  #03 @007   ----------------------------------------
 .byte   N36 ,As1
 .byte   W36
 .byte   PEND 
@  #03 @008   ----------------------------------------
 .byte   PATT
  .word Label_01818818
@  #03 @009   ----------------------------------------
 .byte   PATT
  .word Label_0181882B
@  #03 @010   ----------------------------------------
 .byte   PATT
  .word Label_01818818
@  #03 @011   ----------------------------------------
 .byte   PATT
  .word Label_0181882B
@  #03 @012   ----------------------------------------
 .byte   PATT
  .word Label_01818818
@  #03 @013   ----------------------------------------
 .byte   PATT
  .word Label_0181882B
@  #03 @014   ----------------------------------------
 .byte   PATT
  .word Label_01818818
@  #03 @015   ----------------------------------------
 .byte   PATT
  .word Label_0181882B
@  #03 @016   ----------------------------------------
 .byte   PATT
  .word Label_01818818
@  #03 @017   ----------------------------------------
 .byte   PATT
  .word Label_0181882B
@  #03 @018   ----------------------------------------
 .byte   PATT
  .word Label_01818818
@  #03 @019   ----------------------------------------
 .byte   PATT
  .word Label_0181882B
@  #03 @020   ----------------------------------------
 .byte   PATT
  .word Label_01818818
@  #03 @021   ----------------------------------------
 .byte   PATT
  .word Label_0181882B
@  #03 @022   ----------------------------------------
 .byte   PATT
  .word Label_01818818
@  #03 @023   ----------------------------------------
 .byte   PATT
  .word Label_0181882B
@  #03 @024   ----------------------------------------
 .byte   PATT
  .word Label_01818818
@  #03 @025   ----------------------------------------
 .byte   PATT
  .word Label_0181882B
@  #03 @026   ----------------------------------------
Label_01818897:
 .byte   N12 ,Bn0 ,v100
 .byte   W12
 .byte   N12
 .byte   W12
 .byte   Dn2
 .byte   W12
 .byte   Cs2
 .byte   W24
 .byte   Fs1
 .byte   W24
 .byte   An1
 .byte   W24
@  #03 @027   ----------------------------------------
 .byte   Bn1
 .byte   W12
 .byte   Fs1
 .byte   W24
 .byte   PEND 
Label_018188AA:
 .byte   N12 ,Bn0 ,v100
 .byte   W12
 .byte   N12
 .byte   W12
 .byte   Dn2
 .byte   W12
 .byte   Cs2
 .byte   W24
@  #03 @028   ----------------------------------------
 .byte   Fs1
 .byte   W24
 .byte   An1
 .byte   W24
 .byte   N36 ,Bn1
 .byte   W36
 .byte   PEND 
@  #03 @029   ----------------------------------------
 .byte   PATT
  .word Label_01818897
@  #03 @030   ----------------------------------------
 .byte   PATT
  .word Label_018188AA
@  #03 @031   ----------------------------------------
 .byte   PATT
  .word Label_01818818
@  #03 @032   ----------------------------------------
 .byte   PATT
  .word Label_0181882B
@  #03 @033   ----------------------------------------
 .byte   PATT
  .word Label_01818818
@  #03 @034   ----------------------------------------
 .byte   PATT
  .word Label_0181882B
@  #03 @035   ----------------------------------------
 .byte   PATT
  .word Label_01818897
@  #03 @036   ----------------------------------------
 .byte   PATT
  .word Label_018188AA
@  #03 @037   ----------------------------------------
 .byte   PATT
  .word Label_01818897
@  #03 @038   ----------------------------------------
 .byte   PATT
  .word Label_018188AA
@  #03 @039   ----------------------------------------
 .byte   PATT
  .word Label_01818818
@  #03 @040   ----------------------------------------
 .byte   PATT
  .word Label_0181882B
@  #03 @041   ----------------------------------------
 .byte   PATT
  .word Label_01818818
@  #03 @042   ----------------------------------------
 .byte   PATT
  .word Label_0181882B
@  #03 @043   ----------------------------------------
 .byte   PATT
  .word Label_01818897
@  #03 @044   ----------------------------------------
 .byte   PATT
  .word Label_018188AA
@  #03 @045   ----------------------------------------
 .byte   PATT
  .word Label_01818897
@  #03 @046   ----------------------------------------
 .byte   PATT
  .word Label_018188AA
@  #03 @047   ----------------------------------------
 .byte   PATT
  .word Label_01818818
@  #03 @048   ----------------------------------------
 .byte   PATT
  .word Label_0181882B
@  #03 @049   ----------------------------------------
 .byte   PATT
  .word Label_01818818
@  #03 @050   ----------------------------------------
 .byte   PATT
  .word Label_0181882B
@  #03 @051   ----------------------------------------
 .byte   PATT
  .word Label_01818897
@  #03 @052   ----------------------------------------
 .byte   PATT
  .word Label_018188AA
@  #03 @053   ----------------------------------------
 .byte   PATT
  .word Label_01818897
@  #03 @054   ----------------------------------------
 .byte   PATT
  .word Label_018188AA
@  #03 @055   ----------------------------------------
 .byte   PATT
  .word Label_01818818
@  #03 @056   ----------------------------------------
 .byte   PATT
  .word Label_0181882B
@  #03 @057   ----------------------------------------
 .byte   PATT
  .word Label_01818818
@  #03 @058   ----------------------------------------
 .byte   PATT
  .word Label_0181882B
@  #03 @059   ----------------------------------------
 .byte   PATT
  .word Label_01818897
@  #03 @060   ----------------------------------------
 .byte   PATT
  .word Label_018188AA
@  #03 @061   ----------------------------------------
 .byte   PATT
  .word Label_01818897
@  #03 @062   ----------------------------------------
 .byte   PATT
  .word Label_018188AA
@  #03 @063   ----------------------------------------
 .byte   W96
@  #03 @064   ----------------------------------------
 .byte   W48
 .byte   W96
@  #03 @065   ----------------------------------------
 .byte   W48
 .byte   W96
@  #03 @066   ----------------------------------------
 .byte   W48
 .byte   W96
@  #03 @067   ----------------------------------------
 .byte   W48
 .byte   W96
@  #03 @068   ----------------------------------------
 .byte   W48
 .byte   W96
@  #03 @069   ----------------------------------------
 .byte   W48
 .byte   W96
@  #03 @070   ----------------------------------------
 .byte   W48
 .byte   W96
@  #03 @071   ----------------------------------------
 .byte   W48
 .byte   GOTO
  .word Label_0181880A
 .byte   FINE

@**************** Track 4 (Midi-Chn.3) ****************@

song01_004:
@  #04 @000   ----------------------------------------
 .byte   KEYSH , song01_key+0
Label_017F679A:
 .byte   VOICE , 75
 .byte   VOL , 30*song01_mvl/mxv
 .byte   PAN , c_v-20
 .byte   W96
@  #04 @001   ----------------------------------------
 .byte   W48
 .byte   W96
@  #04 @002   ----------------------------------------
 .byte   W48
 .byte   W96
@  #04 @003   ----------------------------------------
 .byte   W48
 .byte   W96
@  #04 @004   ----------------------------------------
 .byte   W48
 .byte   W96
@  #04 @005   ----------------------------------------
 .byte   W48
 .byte   W96
@  #04 @006   ----------------------------------------
 .byte   W48
 .byte   W96
@  #04 @007   ----------------------------------------
 .byte   W48
 .byte   W96
@  #04 @008   ----------------------------------------
 .byte   W48
Label_017F67B0:
 .byte   N06 ,Cn4 ,v100
 .byte   W24
 .byte   Cs4
 .byte   W12
 .byte   As3
 .byte   W24
@  #04 @009   ----------------------------------------
 .byte   Cn4
 .byte   W24
 .byte   Gs3
 .byte   W24
 .byte   As3
 .byte   W12
 .byte   Ds4
 .byte   W24
 .byte   PEND 
Label_017F67C1:
 .byte   N06 ,Cn4 ,v100
 .byte   W24
@  #04 @010   ----------------------------------------
 .byte   Cs4
 .byte   W12
 .byte   As3
 .byte   W24
 .byte   Cn4
 .byte   W24
 .byte   Gs3
 .byte   W24
 .byte   As3
 .byte   W36
 .byte   PEND 
@  #04 @011   ----------------------------------------
 .byte   PATT
  .word Label_017F67B0
@  #04 @012   ----------------------------------------
 .byte   PATT
  .word Label_017F67C1
@  #04 @013   ----------------------------------------
Label_017F67DA:
 .byte   N06 ,Gs3 ,v100
 .byte   N06 ,Cn4
 .byte   W24
 .byte   As3
 .byte   N06 ,Cs4
 .byte   W12
 .byte   Fn3
 .byte   N06 ,As3
 .byte   W24
 .byte   Ds3
 .byte   N06 ,Cn4
 .byte   W12
 .byte   Cs4
 .byte   W12
 .byte   Gs3
 .byte   W12
@  #04 @014   ----------------------------------------
 .byte   Cn4
 .byte   W12
 .byte   As3
 .byte   W12
 .byte   Ds4
 .byte   W24
 .byte   PEND 
Label_017F67F7:
 .byte   N06 ,Gs3 ,v100
 .byte   N06 ,Cn4
 .byte   W24
 .byte   As3
 .byte   N06 ,Cs4
 .byte   W12
 .byte   Fn3
 .byte   N06 ,As3
 .byte   W24
@  #04 @015   ----------------------------------------
 .byte   Ds3
 .byte   N06 ,Cn4
 .byte   W12
 .byte   Cs4
 .byte   W12
 .byte   Gs3
 .byte   W12
 .byte   Cn4
 .byte   W12
 .byte   As3
 .byte   W36
 .byte   PEND 
@  #04 @016   ----------------------------------------
 .byte   PATT
  .word Label_017F67DA
@  #04 @017   ----------------------------------------
 .byte   PATT
  .word Label_017F67F7
@  #04 @018   ----------------------------------------
 .byte   PATT
  .word Label_017F67DA
@  #04 @019   ----------------------------------------
 .byte   PATT
  .word Label_017F67F7
@  #04 @020   ----------------------------------------
 .byte   PATT
  .word Label_017F67DA
@  #04 @021   ----------------------------------------
 .byte   PATT
  .word Label_017F67F7
@  #04 @022   ----------------------------------------
 .byte   PATT
  .word Label_017F67DA
@  #04 @023   ----------------------------------------
 .byte   PATT
  .word Label_017F67F7
@  #04 @024   ----------------------------------------
 .byte   PATT
  .word Label_017F67DA
@  #04 @025   ----------------------------------------
 .byte   PATT
  .word Label_017F67F7
@  #04 @026   ----------------------------------------
Label_017F6844:
 .byte   N06 ,An3 ,v100
 .byte   N06 ,Cs4
 .byte   W24
 .byte   Bn3
 .byte   N06 ,Dn4
 .byte   W12
 .byte   Fs3
 .byte   N06 ,Bn3
 .byte   W24
 .byte   En3
 .byte   N06 ,Cs4
 .byte   W12
 .byte   Dn4
 .byte   W12
 .byte   An3
 .byte   W12
@  #04 @027   ----------------------------------------
 .byte   Cs4
 .byte   W12
 .byte   Bn3
 .byte   W12
 .byte   En4
 .byte   W24
 .byte   PEND 
Label_017F6861:
 .byte   N06 ,An3 ,v100
 .byte   N06 ,Cs4
 .byte   W24
 .byte   Bn3
 .byte   N06 ,Dn4
 .byte   W12
 .byte   Fs3
 .byte   N06 ,Bn3
 .byte   W24
@  #04 @028   ----------------------------------------
 .byte   En3
 .byte   N06 ,Cs4
 .byte   W12
 .byte   Dn4
 .byte   W12
 .byte   An3
 .byte   W12
 .byte   Cs4
 .byte   W12
 .byte   Bn3
 .byte   W36
 .byte   PEND 
@  #04 @029   ----------------------------------------
 .byte   PATT
  .word Label_017F6844
@  #04 @030   ----------------------------------------
 .byte   PATT
  .word Label_017F6861
@  #04 @031   ----------------------------------------
 .byte   PATT
  .word Label_017F67DA
@  #04 @032   ----------------------------------------
 .byte   PATT
  .word Label_017F67F7
@  #04 @033   ----------------------------------------
 .byte   PATT
  .word Label_017F67DA
@  #04 @034   ----------------------------------------
 .byte   PATT
  .word Label_017F67F7
@  #04 @035   ----------------------------------------
 .byte   PATT
  .word Label_017F6844
@  #04 @036   ----------------------------------------
 .byte   PATT
  .word Label_017F6861
@  #04 @037   ----------------------------------------
 .byte   PATT
  .word Label_017F6844
@  #04 @038   ----------------------------------------
 .byte   PATT
  .word Label_017F6861
@  #04 @039   ----------------------------------------
 .byte   PATT
  .word Label_017F67DA
@  #04 @040   ----------------------------------------
 .byte   PATT
  .word Label_017F67F7
@  #04 @041   ----------------------------------------
 .byte   PATT
  .word Label_017F67DA
@  #04 @042   ----------------------------------------
 .byte   PATT
  .word Label_017F67F7
@  #04 @043   ----------------------------------------
 .byte   PATT
  .word Label_017F6844
@  #04 @044   ----------------------------------------
 .byte   PATT
  .word Label_017F6861
@  #04 @045   ----------------------------------------
 .byte   PATT
  .word Label_017F6844
@  #04 @046   ----------------------------------------
 .byte   PATT
  .word Label_017F6861
@  #04 @047   ----------------------------------------
 .byte   PATT
  .word Label_017F67DA
@  #04 @048   ----------------------------------------
 .byte   PATT
  .word Label_017F67F7
@  #04 @049   ----------------------------------------
 .byte   PATT
  .word Label_017F67DA
@  #04 @050   ----------------------------------------
 .byte   PATT
  .word Label_017F67F7
@  #04 @051   ----------------------------------------
 .byte   PATT
  .word Label_017F6844
@  #04 @052   ----------------------------------------
 .byte   PATT
  .word Label_017F6861
@  #04 @053   ----------------------------------------
 .byte   PATT
  .word Label_017F6844
@  #04 @054   ----------------------------------------
 .byte   PATT
  .word Label_017F6861
@  #04 @055   ----------------------------------------
 .byte   PATT
  .word Label_017F67DA
@  #04 @056   ----------------------------------------
 .byte   PATT
  .word Label_017F67F7
@  #04 @057   ----------------------------------------
 .byte   PATT
  .word Label_017F67DA
@  #04 @058   ----------------------------------------
 .byte   PATT
  .word Label_017F67F7
@  #04 @059   ----------------------------------------
 .byte   PATT
  .word Label_017F6844
@  #04 @060   ----------------------------------------
 .byte   PATT
  .word Label_017F6861
@  #04 @061   ----------------------------------------
 .byte   PATT
  .word Label_017F6844
@  #04 @062   ----------------------------------------
 .byte   PATT
  .word Label_017F6861
@  #04 @063   ----------------------------------------
 .byte   W96
@  #04 @064   ----------------------------------------
 .byte   W48
 .byte   W96
@  #04 @065   ----------------------------------------
 .byte   W48
 .byte   W96
@  #04 @066   ----------------------------------------
 .byte   W48
 .byte   W96
@  #04 @067   ----------------------------------------
 .byte   W48
 .byte   W96
@  #04 @068   ----------------------------------------
 .byte   W48
 .byte   W96
@  #04 @069   ----------------------------------------
 .byte   W48
 .byte   W96
@  #04 @070   ----------------------------------------
 .byte   W48
 .byte   W96
@  #04 @071   ----------------------------------------
 .byte   W48
 .byte   GOTO
  .word Label_017F679A
 .byte   FINE

@**************** Track 5 (Midi-Chn.4) ****************@

song01_005:
@  #05 @000   ----------------------------------------
 .byte   KEYSH , song01_key+0
Label_018197C6:
 .byte   VOICE , 14
 .byte   VOL , 24*song01_mvl/mxv
 .byte   PAN , c_v+60
 .byte   W96
@  #05 @001   ----------------------------------------
 .byte   W48
 .byte   W96
@  #05 @002   ----------------------------------------
 .byte   W48
 .byte   W96
@  #05 @003   ----------------------------------------
 .byte   W48
 .byte   W96
@  #05 @004   ----------------------------------------
 .byte   W48
 .byte   W96
@  #05 @005   ----------------------------------------
 .byte   W48
 .byte   W96
@  #05 @006   ----------------------------------------
 .byte   W48
 .byte   W96
@  #05 @007   ----------------------------------------
 .byte   W48
 .byte   W96
@  #05 @008   ----------------------------------------
 .byte   W48
 .byte   W96
@  #05 @009   ----------------------------------------
 .byte   W48
 .byte   W96
@  #05 @010   ----------------------------------------
 .byte   W48
 .byte   W96
@  #05 @011   ----------------------------------------
 .byte   W48
 .byte   W96
@  #05 @012   ----------------------------------------
 .byte   W48
Label_018197E4:
 .byte   W24
 .byte   TIE ,As2 ,v100
 .byte   TIE ,As3
 .byte   W96
@  #05 @013   ----------------------------------------
 .byte   W24
 .byte   PEND 
 .byte   EOT
 .byte   As2 ,v070
@  #05 @014   ----------------------------------------
 .byte   PATT
  .word Label_018197E4
@  #05 @015   ----------------------------------------
 .byte   EOT
 .byte   As2 ,v070
@  #05 @016   ----------------------------------------
 .byte   PATT
  .word Label_018197E4
@  #05 @017   ----------------------------------------
 .byte   EOT
 .byte   As2 ,v070
@  #05 @018   ----------------------------------------
 .byte   PATT
  .word Label_018197E4
@  #05 @019   ----------------------------------------
 .byte   EOT
 .byte   As2 ,v070
Label_01819808:
 .byte   N24 ,As2 ,v127
 .byte   W24
 .byte   TIE ,As2 ,v100
 .byte   TIE ,As3
 .byte   W96
@  #05 @020   ----------------------------------------
 .byte   W24
 .byte   PEND 
 .byte   EOT
 .byte   As2 ,v070
@  #05 @021   ----------------------------------------
 .byte   PATT
  .word Label_018197E4
@  #05 @022   ----------------------------------------
 .byte   EOT
 .byte   As2 ,v070
@  #05 @023   ----------------------------------------
 .byte   PATT
  .word Label_01819808
@  #05 @024   ----------------------------------------
 .byte   EOT
 .byte   As2 ,v070
@  #05 @025   ----------------------------------------
 .byte   PATT
  .word Label_018197E4
@  #05 @026   ----------------------------------------
 .byte   EOT
 .byte   As2 ,v070
@  #05 @027   ----------------------------------------
 .byte   PATT
  .word Label_01819808
@  #05 @028   ----------------------------------------
 .byte   EOT
 .byte   As2 ,v070
@  #05 @029   ----------------------------------------
 .byte   PATT
  .word Label_018197E4
@  #05 @030   ----------------------------------------
 .byte   EOT
 .byte   As2 ,v070
@  #05 @031   ----------------------------------------
 .byte   PATT
  .word Label_01819808
@  #05 @032   ----------------------------------------
 .byte   EOT
 .byte   As2 ,v070
@  #05 @033   ----------------------------------------
 .byte   PATT
  .word Label_018197E4
@  #05 @034   ----------------------------------------
 .byte   EOT
 .byte   As2 ,v070
Label_0181984F:
 .byte   N24 ,Bn2 ,v127
 .byte   W24
 .byte   TIE ,Bn2 ,v100
 .byte   TIE ,Bn3
 .byte   W96
@  #05 @035   ----------------------------------------
 .byte   W24
 .byte   PEND 
 .byte   EOT
 .byte   Bn2 ,v071
Label_0181985E:
 .byte   W24
 .byte   TIE ,Bn2 ,v100
 .byte   TIE ,Bn3
 .byte   W96
@  #05 @036   ----------------------------------------
 .byte   W24
 .byte   PEND 
 .byte   EOT
 .byte   Bn2 ,v071
@  #05 @037   ----------------------------------------
 .byte   PATT
  .word Label_0181984F
@  #05 @038   ----------------------------------------
 .byte   EOT
 .byte   Bn2 ,v071
@  #05 @039   ----------------------------------------
 .byte   PATT
  .word Label_0181985E
@  #05 @040   ----------------------------------------
 .byte   EOT
 .byte   Bn2 ,v071
@  #05 @041   ----------------------------------------
 .byte   PATT
  .word Label_01819808
@  #05 @042   ----------------------------------------
 .byte   EOT
 .byte   As2 ,v070
@  #05 @043   ----------------------------------------
 .byte   PATT
  .word Label_018197E4
@  #05 @044   ----------------------------------------
 .byte   EOT
 .byte   As2 ,v070
@  #05 @045   ----------------------------------------
 .byte   PATT
  .word Label_01819808
@  #05 @046   ----------------------------------------
 .byte   EOT
 .byte   As2 ,v070
@  #05 @047   ----------------------------------------
 .byte   PATT
  .word Label_018197E4
@  #05 @048   ----------------------------------------
 .byte   EOT
 .byte   As2 ,v070
@  #05 @049   ----------------------------------------
 .byte   PATT
  .word Label_0181984F
@  #05 @050   ----------------------------------------
 .byte   EOT
 .byte   Bn2 ,v071
@  #05 @051   ----------------------------------------
 .byte   PATT
  .word Label_0181985E
@  #05 @052   ----------------------------------------
 .byte   EOT
 .byte   Bn2 ,v071
@  #05 @053   ----------------------------------------
 .byte   PATT
  .word Label_0181984F
@  #05 @054   ----------------------------------------
 .byte   EOT
 .byte   Bn2 ,v071
@  #05 @055   ----------------------------------------
 .byte   PATT
  .word Label_0181985E
@  #05 @056   ----------------------------------------
 .byte   EOT
 .byte   Bn2 ,v071
@  #05 @057   ----------------------------------------
 .byte   PATT
  .word Label_01819808
@  #05 @058   ----------------------------------------
 .byte   EOT
 .byte   As2 ,v070
@  #05 @059   ----------------------------------------
 .byte   PATT
  .word Label_018197E4
@  #05 @060   ----------------------------------------
 .byte   EOT
 .byte   As2 ,v070
@  #05 @061   ----------------------------------------
 .byte   PATT
  .word Label_01819808
@  #05 @062   ----------------------------------------
 .byte   EOT
 .byte   As2 ,v070
@  #05 @063   ----------------------------------------
 .byte   PATT
  .word Label_018197E4
@  #05 @064   ----------------------------------------
 .byte   EOT
 .byte   As2 ,v070
@  #05 @065   ----------------------------------------
 .byte   PATT
  .word Label_0181984F
@  #05 @066   ----------------------------------------
 .byte   EOT
 .byte   Bn2 ,v071
@  #05 @067   ----------------------------------------
 .byte   PATT
  .word Label_0181985E
@  #05 @068   ----------------------------------------
 .byte   EOT
 .byte   Bn2 ,v071
@  #05 @069   ----------------------------------------
 .byte   PATT
  .word Label_0181984F
@  #05 @070   ----------------------------------------
 .byte   EOT
 .byte   Bn2 ,v071
@  #05 @071   ----------------------------------------
 .byte   PATT
  .word Label_0181985E
@  #05 @072   ----------------------------------------
 .byte   EOT
 .byte   Bn2 ,v071
@  #05 @073   ----------------------------------------
 .byte   PATT
  .word Label_01819808
@  #05 @074   ----------------------------------------
 .byte   EOT
 .byte   As2 ,v070
@  #05 @075   ----------------------------------------
 .byte   PATT
  .word Label_018197E4
@  #05 @076   ----------------------------------------
 .byte   EOT
 .byte   As2 ,v070
@  #05 @077   ----------------------------------------
 .byte   PATT
  .word Label_01819808
@  #05 @078   ----------------------------------------
 .byte   EOT
 .byte   As2 ,v070
@  #05 @079   ----------------------------------------
 .byte   PATT
  .word Label_018197E4
@  #05 @080   ----------------------------------------
 .byte   EOT
 .byte   As2 ,v070
@  #05 @081   ----------------------------------------
 .byte   PATT
  .word Label_0181984F
@  #05 @082   ----------------------------------------
 .byte   EOT
 .byte   Bn2 ,v071
@  #05 @083   ----------------------------------------
 .byte   PATT
  .word Label_0181985E
@  #05 @084   ----------------------------------------
 .byte   EOT
 .byte   Bn2 ,v071
@  #05 @085   ----------------------------------------
 .byte   PATT
  .word Label_0181984F
@  #05 @086   ----------------------------------------
 .byte   EOT
 .byte   Bn2 ,v071
@  #05 @087   ----------------------------------------
 .byte   PATT
  .word Label_0181985E
@  #05 @088   ----------------------------------------
 .byte   EOT
 .byte   Bn2 ,v071
@  #05 @089   ----------------------------------------
 .byte   PATT
  .word Label_01819808
@  #05 @090   ----------------------------------------
 .byte   EOT
 .byte   As2 ,v070
@  #05 @091   ----------------------------------------
 .byte   PATT
  .word Label_018197E4
@  #05 @092   ----------------------------------------
 .byte   EOT
 .byte   As2 ,v070
@  #05 @093   ----------------------------------------
 .byte   PATT
  .word Label_01819808
@  #05 @094   ----------------------------------------
 .byte   EOT
 .byte   As2 ,v070
@  #05 @095   ----------------------------------------
 .byte   PATT
  .word Label_018197E4
@  #05 @096   ----------------------------------------
 .byte   EOT
 .byte   As2 ,v070
@  #05 @097   ----------------------------------------
 .byte   PATT
  .word Label_0181984F
@  #05 @098   ----------------------------------------
 .byte   EOT
 .byte   Bn2 ,v071
@  #05 @099   ----------------------------------------
 .byte   PATT
  .word Label_0181985E
@  #05 @100   ----------------------------------------
 .byte   EOT
 .byte   Bn2 ,v071
@  #05 @101   ----------------------------------------
 .byte   PATT
  .word Label_0181984F
@  #05 @102   ----------------------------------------
 .byte   EOT
 .byte   Bn2 ,v071
@  #05 @103   ----------------------------------------
 .byte   PATT
  .word Label_0181985E
@  #05 @104   ----------------------------------------
 .byte   EOT
 .byte   Bn2 ,v071
@  #05 @105   ----------------------------------------
 .byte   PATT
  .word Label_018197E4
@  #05 @106   ----------------------------------------
 .byte   EOT
 .byte   As2 ,v070
@  #05 @107   ----------------------------------------
 .byte   PATT
  .word Label_018197E4
@  #05 @108   ----------------------------------------
 .byte   EOT
 .byte   As2 ,v070
@  #05 @109   ----------------------------------------
 .byte   PATT
  .word Label_018197E4
@  #05 @110   ----------------------------------------
 .byte   EOT
 .byte   As2 ,v070
@  #05 @111   ----------------------------------------
 .byte   PATT
  .word Label_018197E4
@  #05 @112   ----------------------------------------
 .byte   EOT
 .byte   As2 ,v070
@  #05 @113   ----------------------------------------
 .byte   PATT
  .word Label_018197E4
@  #05 @114   ----------------------------------------
 .byte   EOT
 .byte   As2 ,v070
@  #05 @115   ----------------------------------------
 .byte   PATT
  .word Label_018197E4
@  #05 @116   ----------------------------------------
 .byte   EOT
 .byte   As2 ,v070
@  #05 @117   ----------------------------------------
 .byte   PATT
  .word Label_018197E4
@  #05 @118   ----------------------------------------
 .byte   EOT
 .byte   As2 ,v070
@  #05 @119   ----------------------------------------
 .byte   PATT
  .word Label_018197E4
@  #05 @120   ----------------------------------------
 .byte   EOT
 .byte   As2 ,v070
 .byte   GOTO
  .word Label_018197C6
 .byte   FINE

@**************** Track 6 (Midi-Chn.5) ****************@

song01_006:
@  #06 @000   ----------------------------------------
 .byte   KEYSH , song01_key+0
Label_01819CEA:
 .byte   VOICE , 91
 .byte   VOL , 50*song01_mvl/mxv
 .byte   PAN , c_v-20
 .byte   W96
@  #06 @001   ----------------------------------------
 .byte   W48
 .byte   W96
@  #06 @002   ----------------------------------------
 .byte   W48
 .byte   W96
@  #06 @003   ----------------------------------------
 .byte   W48
 .byte   W96
@  #06 @004   ----------------------------------------
 .byte   W48
 .byte   W96
@  #06 @005   ----------------------------------------
 .byte   W48
 .byte   W96
@  #06 @006   ----------------------------------------
 .byte   W48
 .byte   W96
@  #06 @007   ----------------------------------------
 .byte   W48
 .byte   W96
@  #06 @008   ----------------------------------------
 .byte   W48
 .byte   W96
@  #06 @009   ----------------------------------------
 .byte   W48
 .byte   W96
@  #06 @010   ----------------------------------------
 .byte   W48
 .byte   W96
@  #06 @011   ----------------------------------------
 .byte   W48
 .byte   W96
@  #06 @012   ----------------------------------------
 .byte   W48
 .byte   W96
@  #06 @013   ----------------------------------------
 .byte   W48
 .byte   W96
@  #06 @014   ----------------------------------------
 .byte   W48
Label_01819D0C:
 .byte   VOL , 0*song01_mvl/mxv
 .byte   TIE ,As2 ,v127
 .byte   W01
 .byte   VOL , 0*song01_mvl/mxv
 .byte   W01
 .byte   VOL , 0*song01_mvl/mxv
 .byte   W01
 .byte   VOL , 0*song01_mvl/mxv
 .byte   W01
 .byte   VOL , 0*song01_mvl/mxv
 .byte   W01
 .byte   VOL , 0*song01_mvl/mxv
 .byte   W01
 .byte   VOL , 0*song01_mvl/mxv
 .byte   W01
 .byte   VOL , 0*song01_mvl/mxv
 .byte   W01
 .byte   VOL , 0*song01_mvl/mxv
 .byte   W01
 .byte   VOL , 0*song01_mvl/mxv
 .byte   W01
 .byte   VOL , 0*song01_mvl/mxv
 .byte   W01
 .byte   VOL , 0*song01_mvl/mxv
 .byte   W01
 .byte   VOL , 0*song01_mvl/mxv
 .byte   W01
 .byte   VOL , 0*song01_mvl/mxv
 .byte   W01
 .byte   VOL , 0*song01_mvl/mxv
 .byte   W01
 .byte   VOL , 0*song01_mvl/mxv
 .byte   W01
 .byte   VOL , 0*song01_mvl/mxv
 .byte   W01
 .byte   VOL , 0*song01_mvl/mxv
 .byte   W01
 .byte   VOL , 0*song01_mvl/mxv
 .byte   W01
 .byte   VOL , 0*song01_mvl/mxv
 .byte   W01
 .byte   VOL , 0*song01_mvl/mxv
 .byte   W01
 .byte   VOL , 0*song01_mvl/mxv
 .byte   W01
 .byte   VOL , 0*song01_mvl/mxv
 .byte   W01
 .byte   VOL , 0*song01_mvl/mxv
 .byte   W01
 .byte   VOL , 0*song01_mvl/mxv
 .byte   W01
 .byte   VOL , 0*song01_mvl/mxv
 .byte   W01
 .byte   VOL , 0*song01_mvl/mxv
 .byte   W01
 .byte   VOL , 0*song01_mvl/mxv
 .byte   W01
 .byte   VOL , 0*song01_mvl/mxv
 .byte   W01
 .byte   VOL , 0*song01_mvl/mxv
 .byte   W01
 .byte   VOL , 0*song01_mvl/mxv
 .byte   W01
 .byte   VOL , 0*song01_mvl/mxv
 .byte   W01
 .byte   VOL , 0*song01_mvl/mxv
 .byte   W01
 .byte   VOL , 0*song01_mvl/mxv
 .byte   W01
 .byte   VOL , 0*song01_mvl/mxv
 .byte   W01
 .byte   VOL , 0*song01_mvl/mxv
 .byte   W01
 .byte   VOL , 1*song01_mvl/mxv
 .byte   W01
 .byte   VOL , 1*song01_mvl/mxv
 .byte   W01
 .byte   VOL , 1*song01_mvl/mxv
 .byte   W01
 .byte   VOL , 1*song01_mvl/mxv
 .byte   W01
 .byte   VOL , 1*song01_mvl/mxv
 .byte   W01
 .byte   VOL , 1*song01_mvl/mxv
 .byte   W01
 .byte   VOL , 1*song01_mvl/mxv
 .byte   W01
 .byte   VOL , 1*song01_mvl/mxv
 .byte   W01
 .byte   VOL , 1*song01_mvl/mxv
 .byte   W01
 .byte   VOL , 1*song01_mvl/mxv
 .byte   W01
 .byte   VOL , 1*song01_mvl/mxv
 .byte   W01
 .byte   VOL , 1*song01_mvl/mxv
 .byte   W01
@  #06 @015   ----------------------------------------
 .byte   VOL , 1*song01_mvl/mxv
 .byte   W01
 .byte   VOL , 1*song01_mvl/mxv
 .byte   W01
 .byte   VOL , 1*song01_mvl/mxv
 .byte   W01
 .byte   VOL , 1*song01_mvl/mxv
 .byte   W01
 .byte   VOL , 1*song01_mvl/mxv
 .byte   W01
 .byte   VOL , 1*song01_mvl/mxv
 .byte   W01
 .byte   VOL , 1*song01_mvl/mxv
 .byte   W01
 .byte   VOL , 1*song01_mvl/mxv
 .byte   W01
 .byte   VOL , 1*song01_mvl/mxv
 .byte   W01
 .byte   VOL , 1*song01_mvl/mxv
 .byte   W01
 .byte   VOL , 1*song01_mvl/mxv
 .byte   W01
 .byte   VOL , 1*song01_mvl/mxv
 .byte   W01
 .byte   VOL , 1*song01_mvl/mxv
 .byte   W01
 .byte   VOL , 1*song01_mvl/mxv
 .byte   W01
 .byte   VOL , 2*song01_mvl/mxv
 .byte   W01
 .byte   VOL , 2*song01_mvl/mxv
 .byte   W01
 .byte   VOL , 2*song01_mvl/mxv
 .byte   W01
 .byte   VOL , 2*song01_mvl/mxv
 .byte   W01
 .byte   VOL , 2*song01_mvl/mxv
 .byte   W01
 .byte   VOL , 2*song01_mvl/mxv
 .byte   W01
 .byte   VOL , 2*song01_mvl/mxv
 .byte   W01
 .byte   VOL , 2*song01_mvl/mxv
 .byte   W01
 .byte   VOL , 2*song01_mvl/mxv
 .byte   W01
 .byte   VOL , 2*song01_mvl/mxv
 .byte   W01
 .byte   VOL , 2*song01_mvl/mxv
 .byte   W01
 .byte   VOL , 2*song01_mvl/mxv
 .byte   W01
 .byte   VOL , 2*song01_mvl/mxv
 .byte   W01
 .byte   VOL , 2*song01_mvl/mxv
 .byte   W01
 .byte   VOL , 3*song01_mvl/mxv
 .byte   W01
 .byte   VOL , 3*song01_mvl/mxv
 .byte   W01
 .byte   VOL , 3*song01_mvl/mxv
 .byte   W01
 .byte   VOL , 3*song01_mvl/mxv
 .byte   W01
 .byte   VOL , 3*song01_mvl/mxv
 .byte   W01
 .byte   VOL , 3*song01_mvl/mxv
 .byte   W01
 .byte   VOL , 3*song01_mvl/mxv
 .byte   W01
 .byte   VOL , 3*song01_mvl/mxv
 .byte   W01
 .byte   VOL , 3*song01_mvl/mxv
 .byte   W01
 .byte   VOL , 3*song01_mvl/mxv
 .byte   W01
 .byte   VOL , 3*song01_mvl/mxv
 .byte   W01
 .byte   VOL , 3*song01_mvl/mxv
 .byte   W01
 .byte   VOL , 3*song01_mvl/mxv
 .byte   W01
 .byte   VOL , 3*song01_mvl/mxv
 .byte   W01
 .byte   VOL , 3*song01_mvl/mxv
 .byte   W01
 .byte   VOL , 3*song01_mvl/mxv
 .byte   W01
 .byte   VOL , 3*song01_mvl/mxv
 .byte   W01
 .byte   VOL , 3*song01_mvl/mxv
 .byte   W01
 .byte   VOL , 4*song01_mvl/mxv
 .byte   W01
 .byte   VOL , 4*song01_mvl/mxv
 .byte   W01
 .byte   VOL , 4*song01_mvl/mxv
 .byte   W01
 .byte   VOL , 4*song01_mvl/mxv
 .byte   W01
 .byte   VOL , 4*song01_mvl/mxv
 .byte   W01
 .byte   VOL , 4*song01_mvl/mxv
 .byte   W01
 .byte   VOL , 4*song01_mvl/mxv
 .byte   W01
 .byte   VOL , 4*song01_mvl/mxv
 .byte   W01
 .byte   VOL , 4*song01_mvl/mxv
 .byte   W01
 .byte   VOL , 4*song01_mvl/mxv
 .byte   W01
 .byte   VOL , 5*song01_mvl/mxv
 .byte   W01
 .byte   VOL , 5*song01_mvl/mxv
 .byte   W01
 .byte   VOL , 5*song01_mvl/mxv
 .byte   W01
 .byte   VOL , 5*song01_mvl/mxv
 .byte   W01
 .byte   VOL , 5*song01_mvl/mxv
 .byte   W01
 .byte   VOL , 5*song01_mvl/mxv
 .byte   W01
 .byte   VOL , 5*song01_mvl/mxv
 .byte   W01
 .byte   VOL , 5*song01_mvl/mxv
 .byte   W01
 .byte   VOL , 5*song01_mvl/mxv
 .byte   W01
 .byte   VOL , 5*song01_mvl/mxv
 .byte   W01
 .byte   VOL , 5*song01_mvl/mxv
 .byte   W01
 .byte   VOL , 5*song01_mvl/mxv
 .byte   W01
 .byte   VOL , 5*song01_mvl/mxv
 .byte   W01
 .byte   VOL , 5*song01_mvl/mxv
 .byte   W01
 .byte   VOL , 6*song01_mvl/mxv
 .byte   W01
 .byte   VOL , 6*song01_mvl/mxv
 .byte   W01
 .byte   VOL , 6*song01_mvl/mxv
 .byte   W01
 .byte   VOL , 6*song01_mvl/mxv
 .byte   W01
 .byte   VOL , 6*song01_mvl/mxv
 .byte   W01
 .byte   VOL , 6*song01_mvl/mxv
 .byte   W01
 .byte   VOL , 6*song01_mvl/mxv
 .byte   W01
 .byte   VOL , 6*song01_mvl/mxv
 .byte   W01
 .byte   VOL , 7*song01_mvl/mxv
 .byte   W01
 .byte   VOL , 7*song01_mvl/mxv
 .byte   W01
 .byte   VOL , 7*song01_mvl/mxv
 .byte   W01
 .byte   VOL , 7*song01_mvl/mxv
 .byte   W01
 .byte   VOL , 7*song01_mvl/mxv
 .byte   W01
 .byte   VOL , 7*song01_mvl/mxv
 .byte   W01
 .byte   VOL , 7*song01_mvl/mxv
 .byte   W01
 .byte   VOL , 7*song01_mvl/mxv
 .byte   W01
 .byte   VOL , 7*song01_mvl/mxv
 .byte   W01
 .byte   VOL , 7*song01_mvl/mxv
 .byte   W01
 .byte   VOL , 7*song01_mvl/mxv
 .byte   W01
 .byte   VOL , 8*song01_mvl/mxv
 .byte   W01
 .byte   VOL , 8*song01_mvl/mxv
 .byte   W01
 .byte   VOL , 8*song01_mvl/mxv
 .byte   W01
 .byte   VOL , 8*song01_mvl/mxv
 .byte   W01
 .byte   VOL , 8*song01_mvl/mxv
 .byte   W01
 .byte   VOL , 8*song01_mvl/mxv
 .byte   W01
 .byte   VOL , 9*song01_mvl/mxv
 .byte   W01
 .byte   PEND 
@  #06 @016   ----------------------------------------
Label_01819E32:
 .byte   VOL , 9*song01_mvl/mxv
 .byte   W01
 .byte   VOL , 9*song01_mvl/mxv
 .byte   W01
 .byte   VOL , 9*song01_mvl/mxv
 .byte   W01
 .byte   VOL , 9*song01_mvl/mxv
 .byte   W01
 .byte   VOL , 9*song01_mvl/mxv
 .byte   W01
 .byte   VOL , 9*song01_mvl/mxv
 .byte   W01
 .byte   VOL , 9*song01_mvl/mxv
 .byte   W01
 .byte   VOL , 9*song01_mvl/mxv
 .byte   W01
 .byte   VOL , 9*song01_mvl/mxv
 .byte   W01
 .byte   VOL , 10*song01_mvl/mxv
 .byte   W01
 .byte   VOL , 10*song01_mvl/mxv
 .byte   W01
 .byte   VOL , 10*song01_mvl/mxv
 .byte   W01
 .byte   VOL , 10*song01_mvl/mxv
 .byte   W01
 .byte   VOL , 10*song01_mvl/mxv
 .byte   W01
 .byte   VOL , 11*song01_mvl/mxv
 .byte   W01
 .byte   VOL , 11*song01_mvl/mxv
 .byte   W01
 .byte   VOL , 11*song01_mvl/mxv
 .byte   W01
 .byte   VOL , 11*song01_mvl/mxv
 .byte   W01
 .byte   VOL , 11*song01_mvl/mxv
 .byte   W01
 .byte   VOL , 11*song01_mvl/mxv
 .byte   W01
 .byte   VOL , 11*song01_mvl/mxv
 .byte   W01
 .byte   VOL , 11*song01_mvl/mxv
 .byte   W01
 .byte   VOL , 12*song01_mvl/mxv
 .byte   W01
 .byte   VOL , 12*song01_mvl/mxv
 .byte   W01
 .byte   VOL , 12*song01_mvl/mxv
 .byte   W01
 .byte   VOL , 12*song01_mvl/mxv
 .byte   W01
 .byte   VOL , 12*song01_mvl/mxv
 .byte   W01
 .byte   VOL , 12*song01_mvl/mxv
 .byte   W01
 .byte   VOL , 12*song01_mvl/mxv
 .byte   W01
 .byte   VOL , 12*song01_mvl/mxv
 .byte   W01
 .byte   VOL , 13*song01_mvl/mxv
 .byte   W01
 .byte   VOL , 13*song01_mvl/mxv
 .byte   W01
 .byte   VOL , 13*song01_mvl/mxv
 .byte   W01
 .byte   VOL , 13*song01_mvl/mxv
 .byte   W01
 .byte   VOL , 14*song01_mvl/mxv
 .byte   W01
 .byte   VOL , 14*song01_mvl/mxv
 .byte   W01
 .byte   VOL , 14*song01_mvl/mxv
 .byte   W01
 .byte   VOL , 14*song01_mvl/mxv
 .byte   W01
 .byte   VOL , 14*song01_mvl/mxv
 .byte   W01
 .byte   VOL , 14*song01_mvl/mxv
 .byte   W01
 .byte   VOL , 14*song01_mvl/mxv
 .byte   W01
 .byte   VOL , 15*song01_mvl/mxv
 .byte   W01
 .byte   VOL , 15*song01_mvl/mxv
 .byte   W01
 .byte   VOL , 15*song01_mvl/mxv
 .byte   W01
 .byte   VOL , 15*song01_mvl/mxv
 .byte   W01
 .byte   VOL , 16*song01_mvl/mxv
 .byte   W01
 .byte   VOL , 16*song01_mvl/mxv
 .byte   W01
 .byte   VOL , 16*song01_mvl/mxv
 .byte   W01
 .byte   VOL , 16*song01_mvl/mxv
 .byte   W01
 .byte   VOL , 16*song01_mvl/mxv
 .byte   W01
 .byte   VOL , 16*song01_mvl/mxv
 .byte   W01
 .byte   VOL , 17*song01_mvl/mxv
 .byte   W01
 .byte   VOL , 17*song01_mvl/mxv
 .byte   W01
 .byte   VOL , 17*song01_mvl/mxv
 .byte   W01
 .byte   VOL , 18*song01_mvl/mxv
 .byte   W01
 .byte   VOL , 18*song01_mvl/mxv
 .byte   W01
 .byte   VOL , 18*song01_mvl/mxv
 .byte   W01
 .byte   VOL , 18*song01_mvl/mxv
 .byte   W01
 .byte   VOL , 18*song01_mvl/mxv
 .byte   W01
 .byte   VOL , 18*song01_mvl/mxv
 .byte   W01
 .byte   VOL , 19*song01_mvl/mxv
 .byte   W01
 .byte   VOL , 19*song01_mvl/mxv
 .byte   W01
 .byte   VOL , 19*song01_mvl/mxv
 .byte   W01
 .byte   VOL , 20*song01_mvl/mxv
 .byte   W01
 .byte   VOL , 20*song01_mvl/mxv
 .byte   W01
 .byte   VOL , 20*song01_mvl/mxv
 .byte   W01
 .byte   VOL , 20*song01_mvl/mxv
 .byte   W01
 .byte   VOL , 20*song01_mvl/mxv
 .byte   W01
 .byte   VOL , 21*song01_mvl/mxv
 .byte   W01
 .byte   VOL , 21*song01_mvl/mxv
 .byte   W01
 .byte   VOL , 21*song01_mvl/mxv
 .byte   W01
 .byte   VOL , 22*song01_mvl/mxv
 .byte   W01
 .byte   VOL , 22*song01_mvl/mxv
 .byte   W01
 .byte   VOL , 22*song01_mvl/mxv
 .byte   W01
 .byte   VOL , 22*song01_mvl/mxv
 .byte   W01
 .byte   VOL , 22*song01_mvl/mxv
 .byte   W01
 .byte   VOL , 23*song01_mvl/mxv
 .byte   W01
 .byte   VOL , 23*song01_mvl/mxv
 .byte   W01
 .byte   VOL , 23*song01_mvl/mxv
 .byte   W01
 .byte   VOL , 24*song01_mvl/mxv
 .byte   W01
 .byte   VOL , 24*song01_mvl/mxv
 .byte   W01
 .byte   VOL , 24*song01_mvl/mxv
 .byte   W01
 .byte   VOL , 24*song01_mvl/mxv
 .byte   W01
 .byte   VOL , 25*song01_mvl/mxv
 .byte   W01
 .byte   VOL , 25*song01_mvl/mxv
 .byte   W01
 .byte   VOL , 25*song01_mvl/mxv
 .byte   W01
 .byte   VOL , 25*song01_mvl/mxv
 .byte   W01
 .byte   VOL , 26*song01_mvl/mxv
 .byte   W01
 .byte   VOL , 26*song01_mvl/mxv
 .byte   W01
 .byte   VOL , 27*song01_mvl/mxv
 .byte   W01
 .byte   VOL , 27*song01_mvl/mxv
 .byte   W01
 .byte   VOL , 27*song01_mvl/mxv
 .byte   W01
 .byte   VOL , 27*song01_mvl/mxv
 .byte   W01
 .byte   VOL , 28*song01_mvl/mxv
 .byte   W01
 .byte   VOL , 28*song01_mvl/mxv
 .byte   W01
 .byte   VOL , 29*song01_mvl/mxv
 .byte   W01
@  #06 @017   ----------------------------------------
 .byte   VOL , 29*song01_mvl/mxv
 .byte   W01
 .byte   VOL , 29*song01_mvl/mxv
 .byte   W01
 .byte   VOL , 29*song01_mvl/mxv
 .byte   W01
 .byte   VOL , 30*song01_mvl/mxv
 .byte   W01
 .byte   VOL , 30*song01_mvl/mxv
 .byte   W01
 .byte   VOL , 31*song01_mvl/mxv
 .byte   W01
 .byte   VOL , 31*song01_mvl/mxv
 .byte   W01
 .byte   VOL , 31*song01_mvl/mxv
 .byte   W01
 .byte   VOL , 32*song01_mvl/mxv
 .byte   W01
 .byte   VOL , 32*song01_mvl/mxv
 .byte   W01
 .byte   VOL , 32*song01_mvl/mxv
 .byte   W01
 .byte   VOL , 33*song01_mvl/mxv
 .byte   W01
 .byte   VOL , 33*song01_mvl/mxv
 .byte   W01
 .byte   VOL , 33*song01_mvl/mxv
 .byte   W01
 .byte   VOL , 34*song01_mvl/mxv
 .byte   W01
 .byte   VOL , 34*song01_mvl/mxv
 .byte   W01
 .byte   VOL , 35*song01_mvl/mxv
 .byte   W01
 .byte   VOL , 35*song01_mvl/mxv
 .byte   W01
 .byte   VOL , 35*song01_mvl/mxv
 .byte   W01
 .byte   VOL , 36*song01_mvl/mxv
 .byte   W01
 .byte   VOL , 36*song01_mvl/mxv
 .byte   W01
 .byte   VOL , 37*song01_mvl/mxv
 .byte   W01
 .byte   VOL , 37*song01_mvl/mxv
 .byte   W01
 .byte   VOL , 38*song01_mvl/mxv
 .byte   W01
 .byte   VOL , 38*song01_mvl/mxv
 .byte   W01
 .byte   VOL , 38*song01_mvl/mxv
 .byte   W01
 .byte   VOL , 39*song01_mvl/mxv
 .byte   W01
 .byte   VOL , 39*song01_mvl/mxv
 .byte   W01
 .byte   VOL , 40*song01_mvl/mxv
 .byte   W01
 .byte   VOL , 40*song01_mvl/mxv
 .byte   W01
 .byte   VOL , 40*song01_mvl/mxv
 .byte   W01
 .byte   VOL , 41*song01_mvl/mxv
 .byte   W01
 .byte   VOL , 42*song01_mvl/mxv
 .byte   W01
 .byte   VOL , 42*song01_mvl/mxv
 .byte   W01
 .byte   VOL , 42*song01_mvl/mxv
 .byte   W01
 .byte   VOL , 43*song01_mvl/mxv
 .byte   W01
 .byte   VOL , 44*song01_mvl/mxv
 .byte   W01
 .byte   VOL , 44*song01_mvl/mxv
 .byte   W01
 .byte   VOL , 44*song01_mvl/mxv
 .byte   W01
 .byte   VOL , 45*song01_mvl/mxv
 .byte   W01
 .byte   VOL , 46*song01_mvl/mxv
 .byte   W01
 .byte   VOL , 46*song01_mvl/mxv
 .byte   W01
 .byte   VOL , 46*song01_mvl/mxv
 .byte   W01
 .byte   VOL , 47*song01_mvl/mxv
 .byte   W01
 .byte   VOL , 48*song01_mvl/mxv
 .byte   W01
 .byte   VOL , 48*song01_mvl/mxv
 .byte   W01
 .byte   VOL , 49*song01_mvl/mxv
 .byte   W01
 .byte   VOL , 49*song01_mvl/mxv
 .byte   W01
 .byte   PEND 
 .byte   EOT
 .byte   As2
 .byte   VOL , 49*song01_mvl/mxv
 .byte   TIE ,As2 ,v127
 .byte   W01
 .byte   VOL , 49*song01_mvl/mxv
 .byte   W01
 .byte   VOL , 49*song01_mvl/mxv
 .byte   W01
 .byte   VOL , 49*song01_mvl/mxv
 .byte   W01
 .byte   VOL , 49*song01_mvl/mxv
 .byte   W01
 .byte   VOL , 48*song01_mvl/mxv
 .byte   W01
 .byte   VOL , 48*song01_mvl/mxv
 .byte   W01
 .byte   VOL , 48*song01_mvl/mxv
 .byte   W01
 .byte   VOL , 48*song01_mvl/mxv
 .byte   W01
 .byte   VOL , 48*song01_mvl/mxv
 .byte   W01
 .byte   VOL , 48*song01_mvl/mxv
 .byte   W01
 .byte   VOL , 47*song01_mvl/mxv
 .byte   W01
 .byte   VOL , 47*song01_mvl/mxv
 .byte   W01
 .byte   VOL , 47*song01_mvl/mxv
 .byte   W01
 .byte   VOL , 47*song01_mvl/mxv
 .byte   W01
 .byte   VOL , 47*song01_mvl/mxv
 .byte   W01
 .byte   VOL , 46*song01_mvl/mxv
 .byte   W01
 .byte   VOL , 46*song01_mvl/mxv
 .byte   W01
 .byte   VOL , 46*song01_mvl/mxv
 .byte   W01
 .byte   VOL , 46*song01_mvl/mxv
 .byte   W01
 .byte   VOL , 46*song01_mvl/mxv
 .byte   W01
 .byte   VOL , 46*song01_mvl/mxv
 .byte   W01
 .byte   VOL , 46*song01_mvl/mxv
 .byte   W01
 .byte   VOL , 45*song01_mvl/mxv
 .byte   W01
 .byte   VOL , 45*song01_mvl/mxv
 .byte   W01
 .byte   VOL , 45*song01_mvl/mxv
 .byte   W01
 .byte   VOL , 45*song01_mvl/mxv
 .byte   W01
 .byte   VOL , 44*song01_mvl/mxv
 .byte   W01
 .byte   VOL , 44*song01_mvl/mxv
 .byte   W01
 .byte   VOL , 44*song01_mvl/mxv
 .byte   W01
 .byte   VOL , 44*song01_mvl/mxv
 .byte   W01
 .byte   VOL , 44*song01_mvl/mxv
 .byte   W01
 .byte   VOL , 44*song01_mvl/mxv
 .byte   W01
 .byte   VOL , 44*song01_mvl/mxv
 .byte   W01
 .byte   VOL , 43*song01_mvl/mxv
 .byte   W01
 .byte   VOL , 43*song01_mvl/mxv
 .byte   W01
 .byte   VOL , 43*song01_mvl/mxv
 .byte   W01
 .byte   VOL , 43*song01_mvl/mxv
 .byte   W01
 .byte   VOL , 43*song01_mvl/mxv
 .byte   W01
 .byte   VOL , 42*song01_mvl/mxv
 .byte   W01
 .byte   VOL , 42*song01_mvl/mxv
 .byte   W01
 .byte   VOL , 42*song01_mvl/mxv
 .byte   W01
 .byte   VOL , 42*song01_mvl/mxv
 .byte   W01
 .byte   VOL , 42*song01_mvl/mxv
 .byte   W01
 .byte   VOL , 42*song01_mvl/mxv
 .byte   W01
 .byte   VOL , 41*song01_mvl/mxv
 .byte   W01
 .byte   VOL , 41*song01_mvl/mxv
 .byte   W01
 .byte   VOL , 41*song01_mvl/mxv
 .byte   W01
@  #06 @018   ----------------------------------------
 .byte   VOL , 41*song01_mvl/mxv
 .byte   W01
 .byte   VOL , 41*song01_mvl/mxv
 .byte   W01
 .byte   VOL , 40*song01_mvl/mxv
 .byte   W01
 .byte   VOL , 40*song01_mvl/mxv
 .byte   W01
 .byte   VOL , 40*song01_mvl/mxv
 .byte   W01
 .byte   VOL , 40*song01_mvl/mxv
 .byte   W01
 .byte   VOL , 40*song01_mvl/mxv
 .byte   W01
 .byte   VOL , 40*song01_mvl/mxv
 .byte   W01
 .byte   VOL , 40*song01_mvl/mxv
 .byte   W01
 .byte   VOL , 39*song01_mvl/mxv
 .byte   W01
 .byte   VOL , 39*song01_mvl/mxv
 .byte   W01
 .byte   VOL , 39*song01_mvl/mxv
 .byte   W01
 .byte   VOL , 39*song01_mvl/mxv
 .byte   W01
 .byte   VOL , 38*song01_mvl/mxv
 .byte   W01
 .byte   VOL , 38*song01_mvl/mxv
 .byte   W01
 .byte   VOL , 38*song01_mvl/mxv
 .byte   W01
 .byte   VOL , 38*song01_mvl/mxv
 .byte   W01
 .byte   VOL , 38*song01_mvl/mxv
 .byte   W01
 .byte   VOL , 38*song01_mvl/mxv
 .byte   W01
 .byte   VOL , 38*song01_mvl/mxv
 .byte   W01
 .byte   VOL , 37*song01_mvl/mxv
 .byte   W01
 .byte   VOL , 37*song01_mvl/mxv
 .byte   W01
 .byte   VOL , 37*song01_mvl/mxv
 .byte   W01
 .byte   VOL , 37*song01_mvl/mxv
 .byte   W01
 .byte   VOL , 37*song01_mvl/mxv
 .byte   W01
 .byte   VOL , 37*song01_mvl/mxv
 .byte   W01
 .byte   VOL , 37*song01_mvl/mxv
 .byte   W01
 .byte   VOL , 36*song01_mvl/mxv
 .byte   W01
 .byte   VOL , 36*song01_mvl/mxv
 .byte   W01
 .byte   VOL , 36*song01_mvl/mxv
 .byte   W01
 .byte   VOL , 36*song01_mvl/mxv
 .byte   W01
 .byte   VOL , 35*song01_mvl/mxv
 .byte   W01
 .byte   VOL , 35*song01_mvl/mxv
 .byte   W01
 .byte   VOL , 35*song01_mvl/mxv
 .byte   W01
 .byte   VOL , 35*song01_mvl/mxv
 .byte   W01
 .byte   VOL , 35*song01_mvl/mxv
 .byte   W01
 .byte   VOL , 35*song01_mvl/mxv
 .byte   W01
 .byte   VOL , 35*song01_mvl/mxv
 .byte   W01
 .byte   VOL , 34*song01_mvl/mxv
 .byte   W01
 .byte   VOL , 34*song01_mvl/mxv
 .byte   W01
 .byte   VOL , 34*song01_mvl/mxv
 .byte   W01
 .byte   VOL , 34*song01_mvl/mxv
 .byte   W01
 .byte   VOL , 34*song01_mvl/mxv
 .byte   W01
 .byte   VOL , 33*song01_mvl/mxv
 .byte   W01
 .byte   VOL , 33*song01_mvl/mxv
 .byte   W01
 .byte   VOL , 33*song01_mvl/mxv
 .byte   W01
 .byte   VOL , 33*song01_mvl/mxv
 .byte   W01
 .byte   VOL , 33*song01_mvl/mxv
 .byte   W01
 .byte   VOL , 33*song01_mvl/mxv
 .byte   W01
 .byte   VOL , 32*song01_mvl/mxv
 .byte   W01
 .byte   VOL , 32*song01_mvl/mxv
 .byte   W01
 .byte   VOL , 32*song01_mvl/mxv
 .byte   W01
 .byte   VOL , 32*song01_mvl/mxv
 .byte   W01
 .byte   VOL , 32*song01_mvl/mxv
 .byte   W01
 .byte   VOL , 31*song01_mvl/mxv
 .byte   W01
 .byte   VOL , 31*song01_mvl/mxv
 .byte   W01
 .byte   VOL , 31*song01_mvl/mxv
 .byte   W01
 .byte   VOL , 31*song01_mvl/mxv
 .byte   W01
 .byte   VOL , 31*song01_mvl/mxv
 .byte   W01
 .byte   VOL , 31*song01_mvl/mxv
 .byte   W01
 .byte   VOL , 31*song01_mvl/mxv
 .byte   W01
 .byte   VOL , 30*song01_mvl/mxv
 .byte   W01
 .byte   VOL , 30*song01_mvl/mxv
 .byte   W01
 .byte   VOL , 30*song01_mvl/mxv
 .byte   W01
 .byte   VOL , 30*song01_mvl/mxv
 .byte   W01
 .byte   VOL , 29*song01_mvl/mxv
 .byte   W01
 .byte   VOL , 29*song01_mvl/mxv
 .byte   W01
 .byte   VOL , 29*song01_mvl/mxv
 .byte   W01
 .byte   VOL , 29*song01_mvl/mxv
 .byte   W01
 .byte   VOL , 29*song01_mvl/mxv
 .byte   W01
 .byte   VOL , 29*song01_mvl/mxv
 .byte   W01
 .byte   VOL , 29*song01_mvl/mxv
 .byte   W01
 .byte   VOL , 28*song01_mvl/mxv
 .byte   W01
 .byte   VOL , 28*song01_mvl/mxv
 .byte   W01
 .byte   VOL , 28*song01_mvl/mxv
 .byte   W01
 .byte   VOL , 28*song01_mvl/mxv
 .byte   W01
 .byte   VOL , 28*song01_mvl/mxv
 .byte   W01
 .byte   VOL , 27*song01_mvl/mxv
 .byte   W01
 .byte   VOL , 27*song01_mvl/mxv
 .byte   W01
 .byte   VOL , 27*song01_mvl/mxv
 .byte   W01
 .byte   VOL , 27*song01_mvl/mxv
 .byte   W01
 .byte   VOL , 27*song01_mvl/mxv
 .byte   W01
 .byte   VOL , 27*song01_mvl/mxv
 .byte   W01
 .byte   VOL , 27*song01_mvl/mxv
 .byte   W01
 .byte   VOL , 26*song01_mvl/mxv
 .byte   W01
 .byte   VOL , 26*song01_mvl/mxv
 .byte   W01
 .byte   VOL , 26*song01_mvl/mxv
 .byte   W01
 .byte   VOL , 26*song01_mvl/mxv
 .byte   W01
 .byte   VOL , 25*song01_mvl/mxv
 .byte   W01
 .byte   VOL , 25*song01_mvl/mxv
 .byte   W01
 .byte   VOL , 25*song01_mvl/mxv
 .byte   W01
 .byte   VOL , 25*song01_mvl/mxv
 .byte   W01
 .byte   VOL , 25*song01_mvl/mxv
 .byte   W01
 .byte   VOL , 25*song01_mvl/mxv
 .byte   W01
 .byte   VOL , 25*song01_mvl/mxv
 .byte   W01
 .byte   VOL , 24*song01_mvl/mxv
 .byte   W01
@  #06 @019   ----------------------------------------
 .byte   VOL , 24*song01_mvl/mxv
 .byte   W01
 .byte   VOL , 24*song01_mvl/mxv
 .byte   W01
 .byte   VOL , 24*song01_mvl/mxv
 .byte   W01
 .byte   VOL , 24*song01_mvl/mxv
 .byte   W01
 .byte   VOL , 24*song01_mvl/mxv
 .byte   W01
 .byte   VOL , 24*song01_mvl/mxv
 .byte   W01
 .byte   VOL , 23*song01_mvl/mxv
 .byte   W01
 .byte   VOL , 23*song01_mvl/mxv
 .byte   W01
 .byte   VOL , 23*song01_mvl/mxv
 .byte   W01
 .byte   VOL , 23*song01_mvl/mxv
 .byte   W01
 .byte   VOL , 22*song01_mvl/mxv
 .byte   W01
 .byte   VOL , 22*song01_mvl/mxv
 .byte   W01
 .byte   VOL , 22*song01_mvl/mxv
 .byte   W01
 .byte   VOL , 22*song01_mvl/mxv
 .byte   W01
 .byte   VOL , 22*song01_mvl/mxv
 .byte   W01
 .byte   VOL , 22*song01_mvl/mxv
 .byte   W01
 .byte   VOL , 22*song01_mvl/mxv
 .byte   W01
 .byte   VOL , 21*song01_mvl/mxv
 .byte   W01
 .byte   VOL , 21*song01_mvl/mxv
 .byte   W01
 .byte   VOL , 21*song01_mvl/mxv
 .byte   W01
 .byte   VOL , 21*song01_mvl/mxv
 .byte   W01
 .byte   VOL , 21*song01_mvl/mxv
 .byte   W01
 .byte   VOL , 20*song01_mvl/mxv
 .byte   W01
 .byte   VOL , 20*song01_mvl/mxv
 .byte   W01
 .byte   VOL , 20*song01_mvl/mxv
 .byte   W01
 .byte   VOL , 20*song01_mvl/mxv
 .byte   W01
 .byte   VOL , 20*song01_mvl/mxv
 .byte   W01
 .byte   VOL , 20*song01_mvl/mxv
 .byte   W01
 .byte   VOL , 19*song01_mvl/mxv
 .byte   W01
 .byte   VOL , 19*song01_mvl/mxv
 .byte   W01
 .byte   VOL , 19*song01_mvl/mxv
 .byte   W01
 .byte   VOL , 19*song01_mvl/mxv
 .byte   W01
 .byte   VOL , 19*song01_mvl/mxv
 .byte   W01
 .byte   VOL , 18*song01_mvl/mxv
 .byte   W01
 .byte   VOL , 18*song01_mvl/mxv
 .byte   W01
 .byte   VOL , 18*song01_mvl/mxv
 .byte   W01
 .byte   VOL , 18*song01_mvl/mxv
 .byte   W01
 .byte   VOL , 18*song01_mvl/mxv
 .byte   W01
 .byte   VOL , 18*song01_mvl/mxv
 .byte   W01
 .byte   VOL , 18*song01_mvl/mxv
 .byte   W01
 .byte   VOL , 17*song01_mvl/mxv
 .byte   W01
 .byte   VOL , 17*song01_mvl/mxv
 .byte   W01
 .byte   VOL , 17*song01_mvl/mxv
 .byte   W01
 .byte   VOL , 17*song01_mvl/mxv
 .byte   W01
 .byte   VOL , 16*song01_mvl/mxv
 .byte   W01
 .byte   VOL , 16*song01_mvl/mxv
 .byte   W01
 .byte   VOL , 16*song01_mvl/mxv
 .byte   W01
 .byte   VOL , 16*song01_mvl/mxv
 .byte   W01
 .byte   VOL , 16*song01_mvl/mxv
 .byte   W01
 .byte   VOL , 16*song01_mvl/mxv
 .byte   W01
 .byte   VOL , 16*song01_mvl/mxv
 .byte   W01
 .byte   VOL , 15*song01_mvl/mxv
 .byte   W01
 .byte   VOL , 15*song01_mvl/mxv
 .byte   W01
 .byte   VOL , 15*song01_mvl/mxv
 .byte   W01
 .byte   VOL , 15*song01_mvl/mxv
 .byte   W01
 .byte   VOL , 15*song01_mvl/mxv
 .byte   W01
 .byte   VOL , 14*song01_mvl/mxv
 .byte   W01
 .byte   VOL , 14*song01_mvl/mxv
 .byte   W01
 .byte   VOL , 14*song01_mvl/mxv
 .byte   W01
 .byte   VOL , 14*song01_mvl/mxv
 .byte   W01
 .byte   VOL , 14*song01_mvl/mxv
 .byte   W01
 .byte   VOL , 14*song01_mvl/mxv
 .byte   W01
 .byte   VOL , 13*song01_mvl/mxv
 .byte   W01
 .byte   VOL , 13*song01_mvl/mxv
 .byte   W01
 .byte   VOL , 13*song01_mvl/mxv
 .byte   W01
 .byte   VOL , 13*song01_mvl/mxv
 .byte   W01
 .byte   VOL , 13*song01_mvl/mxv
 .byte   W01
 .byte   VOL , 12*song01_mvl/mxv
 .byte   W01
 .byte   VOL , 12*song01_mvl/mxv
 .byte   W01
 .byte   VOL , 12*song01_mvl/mxv
 .byte   W01
 .byte   VOL , 12*song01_mvl/mxv
 .byte   W01
 .byte   VOL , 12*song01_mvl/mxv
 .byte   W01
 .byte   VOL , 12*song01_mvl/mxv
 .byte   W01
 .byte   VOL , 12*song01_mvl/mxv
 .byte   W01
 .byte   VOL , 11*song01_mvl/mxv
 .byte   W01
 .byte   VOL , 11*song01_mvl/mxv
 .byte   W01
 .byte   VOL , 11*song01_mvl/mxv
 .byte   W01
 .byte   VOL , 11*song01_mvl/mxv
 .byte   W01
 .byte   VOL , 11*song01_mvl/mxv
 .byte   W01
 .byte   VOL , 11*song01_mvl/mxv
 .byte   W01
 .byte   VOL , 10*song01_mvl/mxv
 .byte   W01
 .byte   VOL , 10*song01_mvl/mxv
 .byte   W01
 .byte   VOL , 10*song01_mvl/mxv
 .byte   W01
 .byte   VOL , 10*song01_mvl/mxv
 .byte   W01
 .byte   VOL , 10*song01_mvl/mxv
 .byte   W01
 .byte   VOL , 9*song01_mvl/mxv
 .byte   W01
 .byte   VOL , 9*song01_mvl/mxv
 .byte   W01
 .byte   VOL , 9*song01_mvl/mxv
 .byte   W01
 .byte   VOL , 9*song01_mvl/mxv
 .byte   W01
 .byte   VOL , 9*song01_mvl/mxv
 .byte   W01
 .byte   VOL , 9*song01_mvl/mxv
 .byte   W01
 .byte   VOL , 9*song01_mvl/mxv
 .byte   W01
 .byte   VOL , 8*song01_mvl/mxv
 .byte   W01
 .byte   VOL , 8*song01_mvl/mxv
 .byte   W01
 .byte   VOL , 8*song01_mvl/mxv
 .byte   W01
 .byte   VOL , 8*song01_mvl/mxv
 .byte   W01
@  #06 @020   ----------------------------------------
 .byte   VOL , 7*song01_mvl/mxv
 .byte   W01
 .byte   VOL , 7*song01_mvl/mxv
 .byte   W01
 .byte   VOL , 7*song01_mvl/mxv
 .byte   W01
 .byte   VOL , 7*song01_mvl/mxv
 .byte   W01
 .byte   VOL , 7*song01_mvl/mxv
 .byte   W01
 .byte   VOL , 7*song01_mvl/mxv
 .byte   W01
 .byte   VOL , 7*song01_mvl/mxv
 .byte   W01
 .byte   VOL , 6*song01_mvl/mxv
 .byte   W01
 .byte   VOL , 6*song01_mvl/mxv
 .byte   W01
 .byte   VOL , 6*song01_mvl/mxv
 .byte   W01
 .byte   VOL , 6*song01_mvl/mxv
 .byte   W01
 .byte   VOL , 6*song01_mvl/mxv
 .byte   W01
 .byte   VOL , 5*song01_mvl/mxv
 .byte   W01
 .byte   VOL , 5*song01_mvl/mxv
 .byte   W01
 .byte   VOL , 5*song01_mvl/mxv
 .byte   W01
 .byte   VOL , 5*song01_mvl/mxv
 .byte   W01
 .byte   VOL , 5*song01_mvl/mxv
 .byte   W01
 .byte   VOL , 5*song01_mvl/mxv
 .byte   W01
 .byte   VOL , 4*song01_mvl/mxv
 .byte   W01
 .byte   VOL , 4*song01_mvl/mxv
 .byte   W01
 .byte   VOL , 4*song01_mvl/mxv
 .byte   W01
 .byte   VOL , 4*song01_mvl/mxv
 .byte   W01
 .byte   VOL , 4*song01_mvl/mxv
 .byte   W01
 .byte   VOL , 3*song01_mvl/mxv
 .byte   W01
 .byte   VOL , 3*song01_mvl/mxv
 .byte   W01
 .byte   VOL , 3*song01_mvl/mxv
 .byte   W01
 .byte   VOL , 3*song01_mvl/mxv
 .byte   W01
 .byte   VOL , 3*song01_mvl/mxv
 .byte   W01
 .byte   VOL , 3*song01_mvl/mxv
 .byte   W01
 .byte   VOL , 3*song01_mvl/mxv
 .byte   W01
 .byte   VOL , 2*song01_mvl/mxv
 .byte   W01
 .byte   VOL , 2*song01_mvl/mxv
 .byte   W01
 .byte   VOL , 2*song01_mvl/mxv
 .byte   W01
 .byte   VOL , 2*song01_mvl/mxv
 .byte   W01
 .byte   VOL , 1*song01_mvl/mxv
 .byte   W01
 .byte   VOL , 1*song01_mvl/mxv
 .byte   W01
 .byte   VOL , 1*song01_mvl/mxv
 .byte   W01
 .byte   VOL , 1*song01_mvl/mxv
 .byte   W01
 .byte   VOL , 1*song01_mvl/mxv
 .byte   W01
 .byte   VOL , 1*song01_mvl/mxv
 .byte   W01
 .byte   VOL , 1*song01_mvl/mxv
 .byte   W01
 .byte   VOL , 0*song01_mvl/mxv
 .byte   W01
 .byte   VOL , 0*song01_mvl/mxv
 .byte   W01
 .byte   VOL , 0*song01_mvl/mxv
 .byte   W01
 .byte   VOL , 0*song01_mvl/mxv
 .byte   W01
 .byte   VOL , 0*song01_mvl/mxv
 .byte   W01
 .byte   VOL , 0*song01_mvl/mxv
 .byte   W01
 .byte   VOL , 0*song01_mvl/mxv
 .byte   W01
 .byte   EOT
 .byte   VOL , 50*song01_mvl/mxv
 .byte   W96
@  #06 @021   ----------------------------------------
 .byte   W48
 .byte   W96
@  #06 @022   ----------------------------------------
 .byte   W48
Label_0181A1A2:
 .byte   VOICE , 52
 .byte   N24 ,Cs3 ,v127
 .byte   W24
 .byte   N96 ,Ds3
 .byte   W96
@  #06 @023   ----------------------------------------
 .byte   N24 ,Fn3
 .byte   W24
 .byte   PEND 
Label_0181A1AF:
 .byte   N24 ,Cs3 ,v127
 .byte   W24
 .byte   N72 ,Ds3
 .byte   W96
@  #06 @024   ----------------------------------------
 .byte   W24
 .byte   PEND 
Label_0181A1B8:
 .byte   N24 ,Cs3 ,v127
 .byte   W24
 .byte   N96 ,Ds3
 .byte   W96
@  #06 @025   ----------------------------------------
 .byte   N24 ,Fn3
 .byte   W24
 .byte   PEND 
@  #06 @026   ----------------------------------------
 .byte   PATT
  .word Label_0181A1AF
@  #06 @027   ----------------------------------------
Label_0181A1C8:
 .byte   VOICE , 52
 .byte   N24 ,Dn3 ,v127
 .byte   W24
 .byte   N96 ,En3
 .byte   W96
@  #06 @028   ----------------------------------------
 .byte   N24 ,Fs3
 .byte   W24
 .byte   PEND 
Label_0181A1D5:
 .byte   N24 ,Dn3 ,v127
 .byte   W24
 .byte   N72 ,En3
 .byte   W96
@  #06 @029   ----------------------------------------
 .byte   W24
 .byte   PEND 
Label_0181A1DE:
 .byte   N24 ,Dn3 ,v127
 .byte   W24
 .byte   N96 ,En3
 .byte   W96
@  #06 @030   ----------------------------------------
 .byte   N24 ,Fs3
 .byte   W24
 .byte   PEND 
@  #06 @031   ----------------------------------------
 .byte   PATT
  .word Label_0181A1D5
@  #06 @032   ----------------------------------------
 .byte   PATT
  .word Label_0181A1A2
@  #06 @033   ----------------------------------------
 .byte   PATT
  .word Label_0181A1AF
@  #06 @034   ----------------------------------------
 .byte   PATT
  .word Label_0181A1B8
@  #06 @035   ----------------------------------------
 .byte   PATT
  .word Label_0181A1AF
@  #06 @036   ----------------------------------------
 .byte   PATT
  .word Label_0181A1C8
@  #06 @037   ----------------------------------------
 .byte   PATT
  .word Label_0181A1D5
@  #06 @038   ----------------------------------------
 .byte   PATT
  .word Label_0181A1DE
@  #06 @039   ----------------------------------------
 .byte   PATT
  .word Label_0181A1D5
@  #06 @040   ----------------------------------------
Label_0181A216:
 .byte   VOICE , 52
 .byte   N24 ,Cs3 ,v127
 .byte   N32 ,Fn3
 .byte   W24
 .byte   N96 ,Ds3
 .byte   W12
 .byte   N36 ,Fn3
 .byte   W36
 .byte   Gs3
 .byte   W36
@  #06 @041   ----------------------------------------
 .byte   As3
 .byte   W12
 .byte   N24 ,Fn3
 .byte   W24
 .byte   PEND 
Label_0181A22C:
 .byte   N24 ,Cs3 ,v127
 .byte   N01 ,Fn3
 .byte   W24
 .byte   N56 ,Ds3
 .byte   W12
 .byte   N36 ,Fn3
 .byte   W36
@  #06 @042   ----------------------------------------
 .byte   N06 ,Fs3
 .byte   W06
 .byte   Fn3
 .byte   W06
 .byte   N12 ,Ds3
 .byte   W60
 .byte   PEND 
@  #06 @043   ----------------------------------------
 .byte   PATT
  .word Label_0181A216
@  #06 @044   ----------------------------------------
 .byte   PATT
  .word Label_0181A22C
@  #06 @045   ----------------------------------------
Label_0181A24B:
 .byte   VOICE , 52
 .byte   N24 ,Dn3 ,v127
 .byte   N32 ,Fs3
 .byte   W24
 .byte   N96 ,En3
 .byte   W12
 .byte   N36 ,Fs3
 .byte   W36
 .byte   An3
 .byte   W36
@  #06 @046   ----------------------------------------
 .byte   Bn3
 .byte   W12
 .byte   N24 ,Fs3
 .byte   W24
 .byte   PEND 
Label_0181A261:
 .byte   N24 ,Dn3 ,v127
 .byte   N01 ,Fs3
 .byte   W24
 .byte   N56 ,En3
 .byte   W12
 .byte   N36 ,Fs3
 .byte   W36
@  #06 @047   ----------------------------------------
 .byte   N06 ,Gn3
 .byte   W06
 .byte   Fs3
 .byte   W06
 .byte   N12 ,En3
 .byte   W60
 .byte   PEND 
@  #06 @048   ----------------------------------------
 .byte   PATT
  .word Label_0181A24B
@  #06 @049   ----------------------------------------
 .byte   PATT
  .word Label_0181A261
@  #06 @050   ----------------------------------------
 .byte   PATT
  .word Label_0181A216
@  #06 @051   ----------------------------------------
 .byte   PATT
  .word Label_0181A22C
@  #06 @052   ----------------------------------------
 .byte   PATT
  .word Label_0181A216
@  #06 @053   ----------------------------------------
 .byte   PATT
  .word Label_0181A22C
@  #06 @054   ----------------------------------------
 .byte   PATT
  .word Label_0181A24B
@  #06 @055   ----------------------------------------
 .byte   PATT
  .word Label_0181A261
@  #06 @056   ----------------------------------------
 .byte   PATT
  .word Label_0181A24B
@  #06 @057   ----------------------------------------
 .byte   PATT
  .word Label_0181A261
@  #06 @058   ----------------------------------------
 .byte   PATT
  .word Label_0181A216
@  #06 @059   ----------------------------------------
 .byte   PATT
  .word Label_0181A22C
@  #06 @060   ----------------------------------------
 .byte   PATT
  .word Label_0181A216
@  #06 @061   ----------------------------------------
 .byte   PATT
  .word Label_0181A22C
@  #06 @062   ----------------------------------------
 .byte   PATT
  .word Label_0181A24B
@  #06 @063   ----------------------------------------
 .byte   PATT
  .word Label_0181A261
@  #06 @064   ----------------------------------------
 .byte   PATT
  .word Label_0181A24B
@  #06 @065   ----------------------------------------
 .byte   PATT
  .word Label_0181A261
@  #06 @066   ----------------------------------------
 .byte   PATT
  .word Label_0181A216
@  #06 @067   ----------------------------------------
 .byte   PATT
  .word Label_0181A22C
@  #06 @068   ----------------------------------------
 .byte   PATT
  .word Label_0181A216
@  #06 @069   ----------------------------------------
 .byte   PATT
  .word Label_0181A22C
@  #06 @070   ----------------------------------------
 .byte   PATT
  .word Label_0181A216
@  #06 @071   ----------------------------------------
 .byte   PATT
  .word Label_0181A22C
@  #06 @072   ----------------------------------------
 .byte   PATT
  .word Label_01819D0C
@  #06 @073   ----------------------------------------
 .byte   PATT
  .word Label_01819E32
@  #06 @074   ----------------------------------------
 .byte   EOT
 .byte   As2
 .byte   GOTO
  .word Label_01819CEA
 .byte   FINE

@**************** Track 7 (Midi-Chn.6) ****************@

song01_007:
@  #07 @000   ----------------------------------------
 .byte   KEYSH , song01_key+0
Label_01818BA6:
 .byte   VOICE , 85
 .byte   VOL , 50*song01_mvl/mxv
 .byte   PAN , c_v+30
 .byte   W96
@  #07 @001   ----------------------------------------
 .byte   W48
 .byte   W96
@  #07 @002   ----------------------------------------
 .byte   W48
 .byte   W96
@  #07 @003   ----------------------------------------
 .byte   W48
 .byte   W96
@  #07 @004   ----------------------------------------
 .byte   W48
 .byte   W96
@  #07 @005   ----------------------------------------
 .byte   W48
 .byte   W96
@  #07 @006   ----------------------------------------
 .byte   W48
 .byte   W96
@  #07 @007   ----------------------------------------
 .byte   W48
 .byte   W96
@  #07 @008   ----------------------------------------
 .byte   W48
 .byte   W96
@  #07 @009   ----------------------------------------
 .byte   W48
 .byte   W96
@  #07 @010   ----------------------------------------
 .byte   W48
 .byte   W96
@  #07 @011   ----------------------------------------
 .byte   W48
 .byte   W96
@  #07 @012   ----------------------------------------
 .byte   W48
 .byte   W96
@  #07 @013   ----------------------------------------
 .byte   W48
 .byte   W96
@  #07 @014   ----------------------------------------
 .byte   W48
Label_01818BC8:
 .byte   VOL , 0*song01_mvl/mxv
 .byte   TIE ,As3 ,v127
 .byte   W01
 .byte   VOL , 0*song01_mvl/mxv
 .byte   W01
 .byte   VOL , 0*song01_mvl/mxv
 .byte   W01
 .byte   VOL , 0*song01_mvl/mxv
 .byte   W01
 .byte   VOL , 0*song01_mvl/mxv
 .byte   W01
 .byte   VOL , 0*song01_mvl/mxv
 .byte   W01
 .byte   VOL , 0*song01_mvl/mxv
 .byte   W01
 .byte   VOL , 0*song01_mvl/mxv
 .byte   W01
 .byte   VOL , 0*song01_mvl/mxv
 .byte   W01
 .byte   VOL , 0*song01_mvl/mxv
 .byte   W01
 .byte   VOL , 0*song01_mvl/mxv
 .byte   W01
 .byte   VOL , 0*song01_mvl/mxv
 .byte   W01
 .byte   VOL , 0*song01_mvl/mxv
 .byte   W01
 .byte   VOL , 0*song01_mvl/mxv
 .byte   W01
 .byte   VOL , 0*song01_mvl/mxv
 .byte   W01
 .byte   VOL , 0*song01_mvl/mxv
 .byte   W01
 .byte   VOL , 0*song01_mvl/mxv
 .byte   W01
 .byte   VOL , 0*song01_mvl/mxv
 .byte   W01
 .byte   VOL , 0*song01_mvl/mxv
 .byte   W01
 .byte   VOL , 0*song01_mvl/mxv
 .byte   W01
 .byte   VOL , 0*song01_mvl/mxv
 .byte   W01
 .byte   VOL , 0*song01_mvl/mxv
 .byte   W01
 .byte   VOL , 0*song01_mvl/mxv
 .byte   W01
 .byte   VOL , 0*song01_mvl/mxv
 .byte   W01
 .byte   VOL , 0*song01_mvl/mxv
 .byte   W01
 .byte   VOL , 0*song01_mvl/mxv
 .byte   W01
 .byte   VOL , 0*song01_mvl/mxv
 .byte   W01
 .byte   VOL , 0*song01_mvl/mxv
 .byte   W01
 .byte   VOL , 0*song01_mvl/mxv
 .byte   W01
 .byte   VOL , 0*song01_mvl/mxv
 .byte   W01
 .byte   VOL , 0*song01_mvl/mxv
 .byte   W01
 .byte   VOL , 0*song01_mvl/mxv
 .byte   W01
 .byte   VOL , 0*song01_mvl/mxv
 .byte   W01
 .byte   VOL , 0*song01_mvl/mxv
 .byte   W01
 .byte   VOL , 0*song01_mvl/mxv
 .byte   W01
 .byte   VOL , 0*song01_mvl/mxv
 .byte   W01
 .byte   VOL , 1*song01_mvl/mxv
 .byte   W01
 .byte   VOL , 1*song01_mvl/mxv
 .byte   W01
 .byte   VOL , 1*song01_mvl/mxv
 .byte   W01
 .byte   VOL , 1*song01_mvl/mxv
 .byte   W01
 .byte   VOL , 1*song01_mvl/mxv
 .byte   W01
 .byte   VOL , 1*song01_mvl/mxv
 .byte   W01
 .byte   VOL , 1*song01_mvl/mxv
 .byte   W01
 .byte   VOL , 1*song01_mvl/mxv
 .byte   W01
 .byte   VOL , 1*song01_mvl/mxv
 .byte   W01
 .byte   VOL , 1*song01_mvl/mxv
 .byte   W01
 .byte   VOL , 1*song01_mvl/mxv
 .byte   W01
 .byte   VOL , 1*song01_mvl/mxv
 .byte   W01
@  #07 @015   ----------------------------------------
 .byte   VOL , 1*song01_mvl/mxv
 .byte   W01
 .byte   VOL , 1*song01_mvl/mxv
 .byte   W01
 .byte   VOL , 1*song01_mvl/mxv
 .byte   W01
 .byte   VOL , 1*song01_mvl/mxv
 .byte   W01
 .byte   VOL , 1*song01_mvl/mxv
 .byte   W01
 .byte   VOL , 1*song01_mvl/mxv
 .byte   W01
 .byte   VOL , 1*song01_mvl/mxv
 .byte   W01
 .byte   VOL , 1*song01_mvl/mxv
 .byte   W01
 .byte   VOL , 1*song01_mvl/mxv
 .byte   W01
 .byte   VOL , 1*song01_mvl/mxv
 .byte   W01
 .byte   VOL , 1*song01_mvl/mxv
 .byte   W01
 .byte   VOL , 1*song01_mvl/mxv
 .byte   W01
 .byte   VOL , 1*song01_mvl/mxv
 .byte   W01
 .byte   VOL , 1*song01_mvl/mxv
 .byte   W01
 .byte   VOL , 2*song01_mvl/mxv
 .byte   W01
 .byte   VOL , 2*song01_mvl/mxv
 .byte   W01
 .byte   VOL , 2*song01_mvl/mxv
 .byte   W01
 .byte   VOL , 2*song01_mvl/mxv
 .byte   W01
 .byte   VOL , 2*song01_mvl/mxv
 .byte   W01
 .byte   VOL , 2*song01_mvl/mxv
 .byte   W01
 .byte   VOL , 2*song01_mvl/mxv
 .byte   W01
 .byte   VOL , 2*song01_mvl/mxv
 .byte   W01
 .byte   VOL , 2*song01_mvl/mxv
 .byte   W01
 .byte   VOL , 2*song01_mvl/mxv
 .byte   W01
 .byte   VOL , 2*song01_mvl/mxv
 .byte   W01
 .byte   VOL , 2*song01_mvl/mxv
 .byte   W01
 .byte   VOL , 2*song01_mvl/mxv
 .byte   W01
 .byte   VOL , 2*song01_mvl/mxv
 .byte   W01
 .byte   VOL , 3*song01_mvl/mxv
 .byte   W01
 .byte   VOL , 3*song01_mvl/mxv
 .byte   W01
 .byte   VOL , 3*song01_mvl/mxv
 .byte   W01
 .byte   VOL , 3*song01_mvl/mxv
 .byte   W01
 .byte   VOL , 3*song01_mvl/mxv
 .byte   W01
 .byte   VOL , 3*song01_mvl/mxv
 .byte   W01
 .byte   VOL , 3*song01_mvl/mxv
 .byte   W01
 .byte   VOL , 3*song01_mvl/mxv
 .byte   W01
 .byte   VOL , 3*song01_mvl/mxv
 .byte   W01
 .byte   VOL , 3*song01_mvl/mxv
 .byte   W01
 .byte   VOL , 3*song01_mvl/mxv
 .byte   W01
 .byte   VOL , 3*song01_mvl/mxv
 .byte   W01
 .byte   VOL , 3*song01_mvl/mxv
 .byte   W01
 .byte   VOL , 3*song01_mvl/mxv
 .byte   W01
 .byte   VOL , 3*song01_mvl/mxv
 .byte   W01
 .byte   VOL , 3*song01_mvl/mxv
 .byte   W01
 .byte   VOL , 3*song01_mvl/mxv
 .byte   W01
 .byte   VOL , 3*song01_mvl/mxv
 .byte   W01
 .byte   VOL , 4*song01_mvl/mxv
 .byte   W01
 .byte   VOL , 4*song01_mvl/mxv
 .byte   W01
 .byte   VOL , 4*song01_mvl/mxv
 .byte   W01
 .byte   VOL , 4*song01_mvl/mxv
 .byte   W01
 .byte   VOL , 4*song01_mvl/mxv
 .byte   W01
 .byte   VOL , 4*song01_mvl/mxv
 .byte   W01
 .byte   VOL , 4*song01_mvl/mxv
 .byte   W01
 .byte   VOL , 4*song01_mvl/mxv
 .byte   W01
 .byte   VOL , 4*song01_mvl/mxv
 .byte   W01
 .byte   VOL , 4*song01_mvl/mxv
 .byte   W01
 .byte   VOL , 5*song01_mvl/mxv
 .byte   W01
 .byte   VOL , 5*song01_mvl/mxv
 .byte   W01
 .byte   VOL , 5*song01_mvl/mxv
 .byte   W01
 .byte   VOL , 5*song01_mvl/mxv
 .byte   W01
 .byte   VOL , 5*song01_mvl/mxv
 .byte   W01
 .byte   VOL , 5*song01_mvl/mxv
 .byte   W01
 .byte   VOL , 5*song01_mvl/mxv
 .byte   W01
 .byte   VOL , 5*song01_mvl/mxv
 .byte   W01
 .byte   VOL , 5*song01_mvl/mxv
 .byte   W01
 .byte   VOL , 5*song01_mvl/mxv
 .byte   W01
 .byte   VOL , 5*song01_mvl/mxv
 .byte   W01
 .byte   VOL , 5*song01_mvl/mxv
 .byte   W01
 .byte   VOL , 5*song01_mvl/mxv
 .byte   W01
 .byte   VOL , 5*song01_mvl/mxv
 .byte   W01
 .byte   VOL , 6*song01_mvl/mxv
 .byte   W01
 .byte   VOL , 6*song01_mvl/mxv
 .byte   W01
 .byte   VOL , 6*song01_mvl/mxv
 .byte   W01
 .byte   VOL , 6*song01_mvl/mxv
 .byte   W01
 .byte   VOL , 6*song01_mvl/mxv
 .byte   W01
 .byte   VOL , 6*song01_mvl/mxv
 .byte   W01
 .byte   VOL , 6*song01_mvl/mxv
 .byte   W01
 .byte   VOL , 6*song01_mvl/mxv
 .byte   W01
 .byte   VOL , 7*song01_mvl/mxv
 .byte   W01
 .byte   VOL , 7*song01_mvl/mxv
 .byte   W01
 .byte   VOL , 7*song01_mvl/mxv
 .byte   W01
 .byte   VOL , 7*song01_mvl/mxv
 .byte   W01
 .byte   VOL , 7*song01_mvl/mxv
 .byte   W01
 .byte   VOL , 7*song01_mvl/mxv
 .byte   W01
 .byte   VOL , 7*song01_mvl/mxv
 .byte   W01
 .byte   VOL , 7*song01_mvl/mxv
 .byte   W01
 .byte   VOL , 7*song01_mvl/mxv
 .byte   W01
 .byte   VOL , 7*song01_mvl/mxv
 .byte   W01
 .byte   VOL , 7*song01_mvl/mxv
 .byte   W01
 .byte   VOL , 8*song01_mvl/mxv
 .byte   W01
 .byte   VOL , 8*song01_mvl/mxv
 .byte   W01
 .byte   VOL , 8*song01_mvl/mxv
 .byte   W01
 .byte   VOL , 8*song01_mvl/mxv
 .byte   W01
 .byte   VOL , 8*song01_mvl/mxv
 .byte   W01
 .byte   VOL , 8*song01_mvl/mxv
 .byte   W01
 .byte   VOL , 9*song01_mvl/mxv
 .byte   W01
 .byte   PEND 
@  #07 @016   ----------------------------------------
Label_01818CEE:
 .byte   VOL , 9*song01_mvl/mxv
 .byte   W01
 .byte   VOL , 9*song01_mvl/mxv
 .byte   W01
 .byte   VOL , 9*song01_mvl/mxv
 .byte   W01
 .byte   VOL , 9*song01_mvl/mxv
 .byte   W01
 .byte   VOL , 9*song01_mvl/mxv
 .byte   W01
 .byte   VOL , 9*song01_mvl/mxv
 .byte   W01
 .byte   VOL , 9*song01_mvl/mxv
 .byte   W01
 .byte   VOL , 9*song01_mvl/mxv
 .byte   W01
 .byte   VOL , 9*song01_mvl/mxv
 .byte   W01
 .byte   VOL , 10*song01_mvl/mxv
 .byte   W01
 .byte   VOL , 10*song01_mvl/mxv
 .byte   W01
 .byte   VOL , 10*song01_mvl/mxv
 .byte   W01
 .byte   VOL , 10*song01_mvl/mxv
 .byte   W01
 .byte   VOL , 10*song01_mvl/mxv
 .byte   W01
 .byte   VOL , 11*song01_mvl/mxv
 .byte   W01
 .byte   VOL , 11*song01_mvl/mxv
 .byte   W01
 .byte   VOL , 11*song01_mvl/mxv
 .byte   W01
 .byte   VOL , 11*song01_mvl/mxv
 .byte   W01
 .byte   VOL , 11*song01_mvl/mxv
 .byte   W01
 .byte   VOL , 11*song01_mvl/mxv
 .byte   W01
 .byte   VOL , 11*song01_mvl/mxv
 .byte   W01
 .byte   VOL , 11*song01_mvl/mxv
 .byte   W01
 .byte   VOL , 12*song01_mvl/mxv
 .byte   W01
 .byte   VOL , 12*song01_mvl/mxv
 .byte   W01
 .byte   VOL , 12*song01_mvl/mxv
 .byte   W01
 .byte   VOL , 12*song01_mvl/mxv
 .byte   W01
 .byte   VOL , 12*song01_mvl/mxv
 .byte   W01
 .byte   VOL , 12*song01_mvl/mxv
 .byte   W01
 .byte   VOL , 12*song01_mvl/mxv
 .byte   W01
 .byte   VOL , 12*song01_mvl/mxv
 .byte   W01
 .byte   VOL , 13*song01_mvl/mxv
 .byte   W01
 .byte   VOL , 13*song01_mvl/mxv
 .byte   W01
 .byte   VOL , 13*song01_mvl/mxv
 .byte   W01
 .byte   VOL , 13*song01_mvl/mxv
 .byte   W01
 .byte   VOL , 14*song01_mvl/mxv
 .byte   W01
 .byte   VOL , 14*song01_mvl/mxv
 .byte   W01
 .byte   VOL , 14*song01_mvl/mxv
 .byte   W01
 .byte   VOL , 14*song01_mvl/mxv
 .byte   W01
 .byte   VOL , 14*song01_mvl/mxv
 .byte   W01
 .byte   VOL , 14*song01_mvl/mxv
 .byte   W01
 .byte   VOL , 14*song01_mvl/mxv
 .byte   W01
 .byte   VOL , 15*song01_mvl/mxv
 .byte   W01
 .byte   VOL , 15*song01_mvl/mxv
 .byte   W01
 .byte   VOL , 15*song01_mvl/mxv
 .byte   W01
 .byte   VOL , 15*song01_mvl/mxv
 .byte   W01
 .byte   VOL , 16*song01_mvl/mxv
 .byte   W01
 .byte   VOL , 16*song01_mvl/mxv
 .byte   W01
 .byte   VOL , 16*song01_mvl/mxv
 .byte   W01
 .byte   VOL , 16*song01_mvl/mxv
 .byte   W01
 .byte   VOL , 16*song01_mvl/mxv
 .byte   W01
 .byte   VOL , 16*song01_mvl/mxv
 .byte   W01
 .byte   VOL , 17*song01_mvl/mxv
 .byte   W01
 .byte   VOL , 17*song01_mvl/mxv
 .byte   W01
 .byte   VOL , 17*song01_mvl/mxv
 .byte   W01
 .byte   VOL , 18*song01_mvl/mxv
 .byte   W01
 .byte   VOL , 18*song01_mvl/mxv
 .byte   W01
 .byte   VOL , 18*song01_mvl/mxv
 .byte   W01
 .byte   VOL , 18*song01_mvl/mxv
 .byte   W01
 .byte   VOL , 18*song01_mvl/mxv
 .byte   W01
 .byte   VOL , 18*song01_mvl/mxv
 .byte   W01
 .byte   VOL , 19*song01_mvl/mxv
 .byte   W01
 .byte   VOL , 19*song01_mvl/mxv
 .byte   W01
 .byte   VOL , 19*song01_mvl/mxv
 .byte   W01
 .byte   VOL , 20*song01_mvl/mxv
 .byte   W01
 .byte   VOL , 20*song01_mvl/mxv
 .byte   W01
 .byte   VOL , 20*song01_mvl/mxv
 .byte   W01
 .byte   VOL , 20*song01_mvl/mxv
 .byte   W01
 .byte   VOL , 20*song01_mvl/mxv
 .byte   W01
 .byte   VOL , 21*song01_mvl/mxv
 .byte   W01
 .byte   VOL , 21*song01_mvl/mxv
 .byte   W01
 .byte   VOL , 21*song01_mvl/mxv
 .byte   W01
 .byte   VOL , 22*song01_mvl/mxv
 .byte   W01
 .byte   VOL , 22*song01_mvl/mxv
 .byte   W01
 .byte   VOL , 22*song01_mvl/mxv
 .byte   W01
 .byte   VOL , 22*song01_mvl/mxv
 .byte   W01
 .byte   VOL , 22*song01_mvl/mxv
 .byte   W01
 .byte   VOL , 23*song01_mvl/mxv
 .byte   W01
 .byte   VOL , 23*song01_mvl/mxv
 .byte   W01
 .byte   VOL , 23*song01_mvl/mxv
 .byte   W01
 .byte   VOL , 24*song01_mvl/mxv
 .byte   W01
 .byte   VOL , 24*song01_mvl/mxv
 .byte   W01
 .byte   VOL , 24*song01_mvl/mxv
 .byte   W01
 .byte   VOL , 24*song01_mvl/mxv
 .byte   W01
 .byte   VOL , 25*song01_mvl/mxv
 .byte   W01
 .byte   VOL , 25*song01_mvl/mxv
 .byte   W01
 .byte   VOL , 25*song01_mvl/mxv
 .byte   W01
 .byte   VOL , 25*song01_mvl/mxv
 .byte   W01
 .byte   VOL , 26*song01_mvl/mxv
 .byte   W01
 .byte   VOL , 26*song01_mvl/mxv
 .byte   W01
 .byte   VOL , 27*song01_mvl/mxv
 .byte   W01
 .byte   VOL , 27*song01_mvl/mxv
 .byte   W01
 .byte   VOL , 27*song01_mvl/mxv
 .byte   W01
 .byte   VOL , 27*song01_mvl/mxv
 .byte   W01
 .byte   VOL , 28*song01_mvl/mxv
 .byte   W01
 .byte   VOL , 28*song01_mvl/mxv
 .byte   W01
 .byte   VOL , 29*song01_mvl/mxv
 .byte   W01
@  #07 @017   ----------------------------------------
 .byte   VOL , 29*song01_mvl/mxv
 .byte   W01
 .byte   VOL , 29*song01_mvl/mxv
 .byte   W01
 .byte   VOL , 29*song01_mvl/mxv
 .byte   W01
 .byte   VOL , 30*song01_mvl/mxv
 .byte   W01
 .byte   VOL , 30*song01_mvl/mxv
 .byte   W01
 .byte   VOL , 31*song01_mvl/mxv
 .byte   W01
 .byte   VOL , 31*song01_mvl/mxv
 .byte   W01
 .byte   VOL , 31*song01_mvl/mxv
 .byte   W01
 .byte   VOL , 32*song01_mvl/mxv
 .byte   W01
 .byte   VOL , 32*song01_mvl/mxv
 .byte   W01
 .byte   VOL , 32*song01_mvl/mxv
 .byte   W01
 .byte   VOL , 33*song01_mvl/mxv
 .byte   W01
 .byte   VOL , 33*song01_mvl/mxv
 .byte   W01
 .byte   VOL , 33*song01_mvl/mxv
 .byte   W01
 .byte   VOL , 34*song01_mvl/mxv
 .byte   W01
 .byte   VOL , 34*song01_mvl/mxv
 .byte   W01
 .byte   VOL , 35*song01_mvl/mxv
 .byte   W01
 .byte   VOL , 35*song01_mvl/mxv
 .byte   W01
 .byte   VOL , 35*song01_mvl/mxv
 .byte   W01
 .byte   VOL , 36*song01_mvl/mxv
 .byte   W01
 .byte   VOL , 36*song01_mvl/mxv
 .byte   W01
 .byte   VOL , 37*song01_mvl/mxv
 .byte   W01
 .byte   VOL , 37*song01_mvl/mxv
 .byte   W01
 .byte   VOL , 38*song01_mvl/mxv
 .byte   W01
 .byte   VOL , 38*song01_mvl/mxv
 .byte   W01
 .byte   VOL , 38*song01_mvl/mxv
 .byte   W01
 .byte   VOL , 39*song01_mvl/mxv
 .byte   W01
 .byte   VOL , 39*song01_mvl/mxv
 .byte   W01
 .byte   VOL , 40*song01_mvl/mxv
 .byte   W01
 .byte   VOL , 40*song01_mvl/mxv
 .byte   W01
 .byte   VOL , 40*song01_mvl/mxv
 .byte   W01
 .byte   VOL , 41*song01_mvl/mxv
 .byte   W01
 .byte   VOL , 42*song01_mvl/mxv
 .byte   W01
 .byte   VOL , 42*song01_mvl/mxv
 .byte   W01
 .byte   VOL , 42*song01_mvl/mxv
 .byte   W01
 .byte   VOL , 43*song01_mvl/mxv
 .byte   W01
 .byte   VOL , 44*song01_mvl/mxv
 .byte   W01
 .byte   VOL , 44*song01_mvl/mxv
 .byte   W01
 .byte   VOL , 44*song01_mvl/mxv
 .byte   W01
 .byte   VOL , 45*song01_mvl/mxv
 .byte   W01
 .byte   VOL , 46*song01_mvl/mxv
 .byte   W01
 .byte   VOL , 46*song01_mvl/mxv
 .byte   W01
 .byte   VOL , 46*song01_mvl/mxv
 .byte   W01
 .byte   VOL , 47*song01_mvl/mxv
 .byte   W01
 .byte   VOL , 48*song01_mvl/mxv
 .byte   W01
 .byte   VOL , 48*song01_mvl/mxv
 .byte   W01
 .byte   VOL , 49*song01_mvl/mxv
 .byte   W01
 .byte   VOL , 49*song01_mvl/mxv
 .byte   W01
 .byte   PEND 
 .byte   EOT
 .byte   As3
 .byte   VOL , 49*song01_mvl/mxv
 .byte   TIE ,As3 ,v127
 .byte   W01
 .byte   VOL , 49*song01_mvl/mxv
 .byte   W01
 .byte   VOL , 49*song01_mvl/mxv
 .byte   W01
 .byte   VOL , 49*song01_mvl/mxv
 .byte   W01
 .byte   VOL , 49*song01_mvl/mxv
 .byte   W01
 .byte   VOL , 48*song01_mvl/mxv
 .byte   W01
 .byte   VOL , 48*song01_mvl/mxv
 .byte   W01
 .byte   VOL , 48*song01_mvl/mxv
 .byte   W01
 .byte   VOL , 48*song01_mvl/mxv
 .byte   W01
 .byte   VOL , 48*song01_mvl/mxv
 .byte   W01
 .byte   VOL , 48*song01_mvl/mxv
 .byte   W01
 .byte   VOL , 47*song01_mvl/mxv
 .byte   W01
 .byte   VOL , 47*song01_mvl/mxv
 .byte   W01
 .byte   VOL , 47*song01_mvl/mxv
 .byte   W01
 .byte   VOL , 47*song01_mvl/mxv
 .byte   W01
 .byte   VOL , 47*song01_mvl/mxv
 .byte   W01
 .byte   VOL , 46*song01_mvl/mxv
 .byte   W01
 .byte   VOL , 46*song01_mvl/mxv
 .byte   W01
 .byte   VOL , 46*song01_mvl/mxv
 .byte   W01
 .byte   VOL , 46*song01_mvl/mxv
 .byte   W01
 .byte   VOL , 46*song01_mvl/mxv
 .byte   W01
 .byte   VOL , 46*song01_mvl/mxv
 .byte   W01
 .byte   VOL , 46*song01_mvl/mxv
 .byte   W01
 .byte   VOL , 45*song01_mvl/mxv
 .byte   W01
 .byte   VOL , 45*song01_mvl/mxv
 .byte   W01
 .byte   VOL , 45*song01_mvl/mxv
 .byte   W01
 .byte   VOL , 45*song01_mvl/mxv
 .byte   W01
 .byte   VOL , 44*song01_mvl/mxv
 .byte   W01
 .byte   VOL , 44*song01_mvl/mxv
 .byte   W01
 .byte   VOL , 44*song01_mvl/mxv
 .byte   W01
 .byte   VOL , 44*song01_mvl/mxv
 .byte   W01
 .byte   VOL , 44*song01_mvl/mxv
 .byte   W01
 .byte   VOL , 44*song01_mvl/mxv
 .byte   W01
 .byte   VOL , 44*song01_mvl/mxv
 .byte   W01
 .byte   VOL , 43*song01_mvl/mxv
 .byte   W01
 .byte   VOL , 43*song01_mvl/mxv
 .byte   W01
 .byte   VOL , 43*song01_mvl/mxv
 .byte   W01
 .byte   VOL , 43*song01_mvl/mxv
 .byte   W01
 .byte   VOL , 43*song01_mvl/mxv
 .byte   W01
 .byte   VOL , 42*song01_mvl/mxv
 .byte   W01
 .byte   VOL , 42*song01_mvl/mxv
 .byte   W01
 .byte   VOL , 42*song01_mvl/mxv
 .byte   W01
 .byte   VOL , 42*song01_mvl/mxv
 .byte   W01
 .byte   VOL , 42*song01_mvl/mxv
 .byte   W01
 .byte   VOL , 42*song01_mvl/mxv
 .byte   W01
 .byte   VOL , 41*song01_mvl/mxv
 .byte   W01
 .byte   VOL , 41*song01_mvl/mxv
 .byte   W01
 .byte   VOL , 41*song01_mvl/mxv
 .byte   W01
@  #07 @018   ----------------------------------------
 .byte   VOL , 41*song01_mvl/mxv
 .byte   W01
 .byte   VOL , 41*song01_mvl/mxv
 .byte   W01
 .byte   VOL , 40*song01_mvl/mxv
 .byte   W01
 .byte   VOL , 40*song01_mvl/mxv
 .byte   W01
 .byte   VOL , 40*song01_mvl/mxv
 .byte   W01
 .byte   VOL , 40*song01_mvl/mxv
 .byte   W01
 .byte   VOL , 40*song01_mvl/mxv
 .byte   W01
 .byte   VOL , 40*song01_mvl/mxv
 .byte   W01
 .byte   VOL , 40*song01_mvl/mxv
 .byte   W01
 .byte   VOL , 39*song01_mvl/mxv
 .byte   W01
 .byte   VOL , 39*song01_mvl/mxv
 .byte   W01
 .byte   VOL , 39*song01_mvl/mxv
 .byte   W01
 .byte   VOL , 39*song01_mvl/mxv
 .byte   W01
 .byte   VOL , 38*song01_mvl/mxv
 .byte   W01
 .byte   VOL , 38*song01_mvl/mxv
 .byte   W01
 .byte   VOL , 38*song01_mvl/mxv
 .byte   W01
 .byte   VOL , 38*song01_mvl/mxv
 .byte   W01
 .byte   VOL , 38*song01_mvl/mxv
 .byte   W01
 .byte   VOL , 38*song01_mvl/mxv
 .byte   W01
 .byte   VOL , 38*song01_mvl/mxv
 .byte   W01
 .byte   VOL , 37*song01_mvl/mxv
 .byte   W01
 .byte   VOL , 37*song01_mvl/mxv
 .byte   W01
 .byte   VOL , 37*song01_mvl/mxv
 .byte   W01
 .byte   VOL , 37*song01_mvl/mxv
 .byte   W01
 .byte   VOL , 37*song01_mvl/mxv
 .byte   W01
 .byte   VOL , 37*song01_mvl/mxv
 .byte   W01
 .byte   VOL , 37*song01_mvl/mxv
 .byte   W01
 .byte   VOL , 36*song01_mvl/mxv
 .byte   W01
 .byte   VOL , 36*song01_mvl/mxv
 .byte   W01
 .byte   VOL , 36*song01_mvl/mxv
 .byte   W01
 .byte   VOL , 36*song01_mvl/mxv
 .byte   W01
 .byte   VOL , 35*song01_mvl/mxv
 .byte   W01
 .byte   VOL , 35*song01_mvl/mxv
 .byte   W01
 .byte   VOL , 35*song01_mvl/mxv
 .byte   W01
 .byte   VOL , 35*song01_mvl/mxv
 .byte   W01
 .byte   VOL , 35*song01_mvl/mxv
 .byte   W01
 .byte   VOL , 35*song01_mvl/mxv
 .byte   W01
 .byte   VOL , 35*song01_mvl/mxv
 .byte   W01
 .byte   VOL , 34*song01_mvl/mxv
 .byte   W01
 .byte   VOL , 34*song01_mvl/mxv
 .byte   W01
 .byte   VOL , 34*song01_mvl/mxv
 .byte   W01
 .byte   VOL , 34*song01_mvl/mxv
 .byte   W01
 .byte   VOL , 34*song01_mvl/mxv
 .byte   W01
 .byte   VOL , 33*song01_mvl/mxv
 .byte   W01
 .byte   VOL , 33*song01_mvl/mxv
 .byte   W01
 .byte   VOL , 33*song01_mvl/mxv
 .byte   W01
 .byte   VOL , 33*song01_mvl/mxv
 .byte   W01
 .byte   VOL , 33*song01_mvl/mxv
 .byte   W01
 .byte   VOL , 33*song01_mvl/mxv
 .byte   W01
 .byte   VOL , 32*song01_mvl/mxv
 .byte   W01
 .byte   VOL , 32*song01_mvl/mxv
 .byte   W01
 .byte   VOL , 32*song01_mvl/mxv
 .byte   W01
 .byte   VOL , 32*song01_mvl/mxv
 .byte   W01
 .byte   VOL , 32*song01_mvl/mxv
 .byte   W01
 .byte   VOL , 31*song01_mvl/mxv
 .byte   W01
 .byte   VOL , 31*song01_mvl/mxv
 .byte   W01
 .byte   VOL , 31*song01_mvl/mxv
 .byte   W01
 .byte   VOL , 31*song01_mvl/mxv
 .byte   W01
 .byte   VOL , 31*song01_mvl/mxv
 .byte   W01
 .byte   VOL , 31*song01_mvl/mxv
 .byte   W01
 .byte   VOL , 31*song01_mvl/mxv
 .byte   W01
 .byte   VOL , 30*song01_mvl/mxv
 .byte   W01
 .byte   VOL , 30*song01_mvl/mxv
 .byte   W01
 .byte   VOL , 30*song01_mvl/mxv
 .byte   W01
 .byte   VOL , 30*song01_mvl/mxv
 .byte   W01
 .byte   VOL , 29*song01_mvl/mxv
 .byte   W01
 .byte   VOL , 29*song01_mvl/mxv
 .byte   W01
 .byte   VOL , 29*song01_mvl/mxv
 .byte   W01
 .byte   VOL , 29*song01_mvl/mxv
 .byte   W01
 .byte   VOL , 29*song01_mvl/mxv
 .byte   W01
 .byte   VOL , 29*song01_mvl/mxv
 .byte   W01
 .byte   VOL , 29*song01_mvl/mxv
 .byte   W01
 .byte   VOL , 28*song01_mvl/mxv
 .byte   W01
 .byte   VOL , 28*song01_mvl/mxv
 .byte   W01
 .byte   VOL , 28*song01_mvl/mxv
 .byte   W01
 .byte   VOL , 28*song01_mvl/mxv
 .byte   W01
 .byte   VOL , 28*song01_mvl/mxv
 .byte   W01
 .byte   VOL , 27*song01_mvl/mxv
 .byte   W01
 .byte   VOL , 27*song01_mvl/mxv
 .byte   W01
 .byte   VOL , 27*song01_mvl/mxv
 .byte   W01
 .byte   VOL , 27*song01_mvl/mxv
 .byte   W01
 .byte   VOL , 27*song01_mvl/mxv
 .byte   W01
 .byte   VOL , 27*song01_mvl/mxv
 .byte   W01
 .byte   VOL , 27*song01_mvl/mxv
 .byte   W01
 .byte   VOL , 26*song01_mvl/mxv
 .byte   W01
 .byte   VOL , 26*song01_mvl/mxv
 .byte   W01
 .byte   VOL , 26*song01_mvl/mxv
 .byte   W01
 .byte   VOL , 26*song01_mvl/mxv
 .byte   W01
 .byte   VOL , 25*song01_mvl/mxv
 .byte   W01
 .byte   VOL , 25*song01_mvl/mxv
 .byte   W01
 .byte   VOL , 25*song01_mvl/mxv
 .byte   W01
 .byte   VOL , 25*song01_mvl/mxv
 .byte   W01
 .byte   VOL , 25*song01_mvl/mxv
 .byte   W01
 .byte   VOL , 25*song01_mvl/mxv
 .byte   W01
 .byte   VOL , 25*song01_mvl/mxv
 .byte   W01
 .byte   VOL , 24*song01_mvl/mxv
 .byte   W01
@  #07 @019   ----------------------------------------
 .byte   VOL , 24*song01_mvl/mxv
 .byte   W01
 .byte   VOL , 24*song01_mvl/mxv
 .byte   W01
 .byte   VOL , 24*song01_mvl/mxv
 .byte   W01
 .byte   VOL , 24*song01_mvl/mxv
 .byte   W01
 .byte   VOL , 24*song01_mvl/mxv
 .byte   W01
 .byte   VOL , 24*song01_mvl/mxv
 .byte   W01
 .byte   VOL , 23*song01_mvl/mxv
 .byte   W01
 .byte   VOL , 23*song01_mvl/mxv
 .byte   W01
 .byte   VOL , 23*song01_mvl/mxv
 .byte   W01
 .byte   VOL , 23*song01_mvl/mxv
 .byte   W01
 .byte   VOL , 22*song01_mvl/mxv
 .byte   W01
 .byte   VOL , 22*song01_mvl/mxv
 .byte   W01
 .byte   VOL , 22*song01_mvl/mxv
 .byte   W01
 .byte   VOL , 22*song01_mvl/mxv
 .byte   W01
 .byte   VOL , 22*song01_mvl/mxv
 .byte   W01
 .byte   VOL , 22*song01_mvl/mxv
 .byte   W01
 .byte   VOL , 22*song01_mvl/mxv
 .byte   W01
 .byte   VOL , 21*song01_mvl/mxv
 .byte   W01
 .byte   VOL , 21*song01_mvl/mxv
 .byte   W01
 .byte   VOL , 21*song01_mvl/mxv
 .byte   W01
 .byte   VOL , 21*song01_mvl/mxv
 .byte   W01
 .byte   VOL , 21*song01_mvl/mxv
 .byte   W01
 .byte   VOL , 20*song01_mvl/mxv
 .byte   W01
 .byte   VOL , 20*song01_mvl/mxv
 .byte   W01
 .byte   VOL , 20*song01_mvl/mxv
 .byte   W01
 .byte   VOL , 20*song01_mvl/mxv
 .byte   W01
 .byte   VOL , 20*song01_mvl/mxv
 .byte   W01
 .byte   VOL , 20*song01_mvl/mxv
 .byte   W01
 .byte   VOL , 19*song01_mvl/mxv
 .byte   W01
 .byte   VOL , 19*song01_mvl/mxv
 .byte   W01
 .byte   VOL , 19*song01_mvl/mxv
 .byte   W01
 .byte   VOL , 19*song01_mvl/mxv
 .byte   W01
 .byte   VOL , 19*song01_mvl/mxv
 .byte   W01
 .byte   VOL , 18*song01_mvl/mxv
 .byte   W01
 .byte   VOL , 18*song01_mvl/mxv
 .byte   W01
 .byte   VOL , 18*song01_mvl/mxv
 .byte   W01
 .byte   VOL , 18*song01_mvl/mxv
 .byte   W01
 .byte   VOL , 18*song01_mvl/mxv
 .byte   W01
 .byte   VOL , 18*song01_mvl/mxv
 .byte   W01
 .byte   VOL , 18*song01_mvl/mxv
 .byte   W01
 .byte   VOL , 17*song01_mvl/mxv
 .byte   W01
 .byte   VOL , 17*song01_mvl/mxv
 .byte   W01
 .byte   VOL , 17*song01_mvl/mxv
 .byte   W01
 .byte   VOL , 17*song01_mvl/mxv
 .byte   W01
 .byte   VOL , 16*song01_mvl/mxv
 .byte   W01
 .byte   VOL , 16*song01_mvl/mxv
 .byte   W01
 .byte   VOL , 16*song01_mvl/mxv
 .byte   W01
 .byte   VOL , 16*song01_mvl/mxv
 .byte   W01
 .byte   VOL , 16*song01_mvl/mxv
 .byte   W01
 .byte   VOL , 16*song01_mvl/mxv
 .byte   W01
 .byte   VOL , 16*song01_mvl/mxv
 .byte   W01
 .byte   VOL , 15*song01_mvl/mxv
 .byte   W01
 .byte   VOL , 15*song01_mvl/mxv
 .byte   W01
 .byte   VOL , 15*song01_mvl/mxv
 .byte   W01
 .byte   VOL , 15*song01_mvl/mxv
 .byte   W01
 .byte   VOL , 15*song01_mvl/mxv
 .byte   W01
 .byte   VOL , 14*song01_mvl/mxv
 .byte   W01
 .byte   VOL , 14*song01_mvl/mxv
 .byte   W01
 .byte   VOL , 14*song01_mvl/mxv
 .byte   W01
 .byte   VOL , 14*song01_mvl/mxv
 .byte   W01
 .byte   VOL , 14*song01_mvl/mxv
 .byte   W01
 .byte   VOL , 14*song01_mvl/mxv
 .byte   W01
 .byte   VOL , 13*song01_mvl/mxv
 .byte   W01
 .byte   VOL , 13*song01_mvl/mxv
 .byte   W01
 .byte   VOL , 13*song01_mvl/mxv
 .byte   W01
 .byte   VOL , 13*song01_mvl/mxv
 .byte   W01
 .byte   VOL , 13*song01_mvl/mxv
 .byte   W01
 .byte   VOL , 12*song01_mvl/mxv
 .byte   W01
 .byte   VOL , 12*song01_mvl/mxv
 .byte   W01
 .byte   VOL , 12*song01_mvl/mxv
 .byte   W01
 .byte   VOL , 12*song01_mvl/mxv
 .byte   W01
 .byte   VOL , 12*song01_mvl/mxv
 .byte   W01
 .byte   VOL , 12*song01_mvl/mxv
 .byte   W01
 .byte   VOL , 12*song01_mvl/mxv
 .byte   W01
 .byte   VOL , 11*song01_mvl/mxv
 .byte   W01
 .byte   VOL , 11*song01_mvl/mxv
 .byte   W01
 .byte   VOL , 11*song01_mvl/mxv
 .byte   W01
 .byte   VOL , 11*song01_mvl/mxv
 .byte   W01
 .byte   VOL , 11*song01_mvl/mxv
 .byte   W01
 .byte   VOL , 11*song01_mvl/mxv
 .byte   W01
 .byte   VOL , 10*song01_mvl/mxv
 .byte   W01
 .byte   VOL , 10*song01_mvl/mxv
 .byte   W01
 .byte   VOL , 10*song01_mvl/mxv
 .byte   W01
 .byte   VOL , 10*song01_mvl/mxv
 .byte   W01
 .byte   VOL , 10*song01_mvl/mxv
 .byte   W01
 .byte   VOL , 9*song01_mvl/mxv
 .byte   W01
 .byte   VOL , 9*song01_mvl/mxv
 .byte   W01
 .byte   VOL , 9*song01_mvl/mxv
 .byte   W01
 .byte   VOL , 9*song01_mvl/mxv
 .byte   W01
 .byte   VOL , 9*song01_mvl/mxv
 .byte   W01
 .byte   VOL , 9*song01_mvl/mxv
 .byte   W01
 .byte   VOL , 9*song01_mvl/mxv
 .byte   W01
 .byte   VOL , 8*song01_mvl/mxv
 .byte   W01
 .byte   VOL , 8*song01_mvl/mxv
 .byte   W01
 .byte   VOL , 8*song01_mvl/mxv
 .byte   W01
 .byte   VOL , 8*song01_mvl/mxv
 .byte   W01
@  #07 @020   ----------------------------------------
 .byte   VOL , 7*song01_mvl/mxv
 .byte   W01
 .byte   VOL , 7*song01_mvl/mxv
 .byte   W01
 .byte   VOL , 7*song01_mvl/mxv
 .byte   W01
 .byte   VOL , 7*song01_mvl/mxv
 .byte   W01
 .byte   VOL , 7*song01_mvl/mxv
 .byte   W01
 .byte   VOL , 7*song01_mvl/mxv
 .byte   W01
 .byte   VOL , 7*song01_mvl/mxv
 .byte   W01
 .byte   VOL , 6*song01_mvl/mxv
 .byte   W01
 .byte   VOL , 6*song01_mvl/mxv
 .byte   W01
 .byte   VOL , 6*song01_mvl/mxv
 .byte   W01
 .byte   VOL , 6*song01_mvl/mxv
 .byte   W01
 .byte   VOL , 6*song01_mvl/mxv
 .byte   W01
 .byte   VOL , 5*song01_mvl/mxv
 .byte   W01
 .byte   VOL , 5*song01_mvl/mxv
 .byte   W01
 .byte   VOL , 5*song01_mvl/mxv
 .byte   W01
 .byte   VOL , 5*song01_mvl/mxv
 .byte   W01
 .byte   VOL , 5*song01_mvl/mxv
 .byte   W01
 .byte   VOL , 5*song01_mvl/mxv
 .byte   W01
 .byte   VOL , 4*song01_mvl/mxv
 .byte   W01
 .byte   VOL , 4*song01_mvl/mxv
 .byte   W01
 .byte   VOL , 4*song01_mvl/mxv
 .byte   W01
 .byte   VOL , 4*song01_mvl/mxv
 .byte   W01
 .byte   VOL , 4*song01_mvl/mxv
 .byte   W01
 .byte   VOL , 3*song01_mvl/mxv
 .byte   W01
 .byte   VOL , 3*song01_mvl/mxv
 .byte   W01
 .byte   VOL , 3*song01_mvl/mxv
 .byte   W01
 .byte   VOL , 3*song01_mvl/mxv
 .byte   W01
 .byte   VOL , 3*song01_mvl/mxv
 .byte   W01
 .byte   VOL , 3*song01_mvl/mxv
 .byte   W01
 .byte   VOL , 3*song01_mvl/mxv
 .byte   W01
 .byte   VOL , 2*song01_mvl/mxv
 .byte   W01
 .byte   VOL , 2*song01_mvl/mxv
 .byte   W01
 .byte   VOL , 2*song01_mvl/mxv
 .byte   W01
 .byte   VOL , 2*song01_mvl/mxv
 .byte   W01
 .byte   VOL , 1*song01_mvl/mxv
 .byte   W01
 .byte   VOL , 1*song01_mvl/mxv
 .byte   W01
 .byte   VOL , 1*song01_mvl/mxv
 .byte   W01
 .byte   VOL , 1*song01_mvl/mxv
 .byte   W01
 .byte   VOL , 1*song01_mvl/mxv
 .byte   W01
 .byte   VOL , 1*song01_mvl/mxv
 .byte   W01
 .byte   VOL , 1*song01_mvl/mxv
 .byte   W01
 .byte   VOL , 0*song01_mvl/mxv
 .byte   W01
 .byte   VOL , 0*song01_mvl/mxv
 .byte   W01
 .byte   VOL , 0*song01_mvl/mxv
 .byte   W01
 .byte   VOL , 0*song01_mvl/mxv
 .byte   W01
 .byte   VOL , 0*song01_mvl/mxv
 .byte   W01
 .byte   VOL , 0*song01_mvl/mxv
 .byte   W01
 .byte   VOL , 0*song01_mvl/mxv
 .byte   W01
 .byte   EOT
 .byte   VOL , 50*song01_mvl/mxv
 .byte   W96
@  #07 @021   ----------------------------------------
 .byte   W48
 .byte   W96
@  #07 @022   ----------------------------------------
 .byte   W48
 .byte   W96
@  #07 @023   ----------------------------------------
 .byte   W48
 .byte   W96
@  #07 @024   ----------------------------------------
 .byte   W48
 .byte   W96
@  #07 @025   ----------------------------------------
 .byte   W48
 .byte   W96
@  #07 @026   ----------------------------------------
 .byte   W48
 .byte   W96
@  #07 @027   ----------------------------------------
 .byte   W48
 .byte   W96
@  #07 @028   ----------------------------------------
 .byte   W48
 .byte   W96
@  #07 @029   ----------------------------------------
 .byte   W48
 .byte   W96
@  #07 @030   ----------------------------------------
 .byte   W48
 .byte   W96
@  #07 @031   ----------------------------------------
 .byte   W48
 .byte   W96
@  #07 @032   ----------------------------------------
 .byte   W48
 .byte   W96
@  #07 @033   ----------------------------------------
 .byte   W48
 .byte   W96
@  #07 @034   ----------------------------------------
 .byte   W48
 .byte   W96
@  #07 @035   ----------------------------------------
 .byte   W48
 .byte   W96
@  #07 @036   ----------------------------------------
 .byte   W48
 .byte   W96
@  #07 @037   ----------------------------------------
 .byte   W48
 .byte   W96
@  #07 @038   ----------------------------------------
 .byte   W48
 .byte   W96
@  #07 @039   ----------------------------------------
 .byte   W48
 .byte   W96
@  #07 @040   ----------------------------------------
 .byte   W48
 .byte   W96
@  #07 @041   ----------------------------------------
 .byte   W48
 .byte   W96
@  #07 @042   ----------------------------------------
 .byte   W48
 .byte   W96
@  #07 @043   ----------------------------------------
 .byte   W48
 .byte   W96
@  #07 @044   ----------------------------------------
 .byte   W48
 .byte   W96
@  #07 @045   ----------------------------------------
 .byte   W48
 .byte   W96
@  #07 @046   ----------------------------------------
 .byte   W48
 .byte   W96
@  #07 @047   ----------------------------------------
 .byte   W48
 .byte   W96
@  #07 @048   ----------------------------------------
 .byte   W48
 .byte   W96
@  #07 @049   ----------------------------------------
 .byte   W48
 .byte   W96
@  #07 @050   ----------------------------------------
 .byte   W48
 .byte   W96
@  #07 @051   ----------------------------------------
 .byte   W48
 .byte   W96
@  #07 @052   ----------------------------------------
 .byte   W48
 .byte   W96
@  #07 @053   ----------------------------------------
 .byte   W48
 .byte   W96
@  #07 @054   ----------------------------------------
 .byte   W48
 .byte   W96
@  #07 @055   ----------------------------------------
 .byte   W48
 .byte   W96
@  #07 @056   ----------------------------------------
 .byte   W48
 .byte   W96
@  #07 @057   ----------------------------------------
 .byte   W48
 .byte   W96
@  #07 @058   ----------------------------------------
 .byte   W48
 .byte   W96
@  #07 @059   ----------------------------------------
 .byte   W48
 .byte   W96
@  #07 @060   ----------------------------------------
 .byte   W48
 .byte   W96
@  #07 @061   ----------------------------------------
 .byte   W48
 .byte   W96
@  #07 @062   ----------------------------------------
 .byte   W48
 .byte   W96
@  #07 @063   ----------------------------------------
 .byte   W48
 .byte   W96
@  #07 @064   ----------------------------------------
 .byte   W48
 .byte   W96
@  #07 @065   ----------------------------------------
 .byte   W48
 .byte   W96
@  #07 @066   ----------------------------------------
 .byte   W48
 .byte   W96
@  #07 @067   ----------------------------------------
 .byte   W48
 .byte   W96
@  #07 @068   ----------------------------------------
 .byte   W48
@  #07 @069   ----------------------------------------
 .byte   PATT
  .word Label_01818BC8
@  #07 @070   ----------------------------------------
 .byte   PATT
  .word Label_01818CEE
@  #07 @071   ----------------------------------------
 .byte   EOT
 .byte   As3
 .byte   GOTO
  .word Label_01818BA6
 .byte   FINE

@**************** Track 8 (Midi-Chn.7) ****************@

song01_008:
@  #08 @000   ----------------------------------------
 .byte   KEYSH , song01_key+0
Label_017F65A2:
 .byte   VOICE , 69
 .byte   VOL , 39*song01_mvl/mxv
 .byte   PAN , c_v-11
 .byte   W96
@  #08 @001   ----------------------------------------
 .byte   W48
 .byte   W96
@  #08 @002   ----------------------------------------
 .byte   W48
 .byte   W96
@  #08 @003   ----------------------------------------
 .byte   W48
 .byte   W96
@  #08 @004   ----------------------------------------
 .byte   W48
 .byte   W96
@  #08 @005   ----------------------------------------
 .byte   W48
 .byte   W96
@  #08 @006   ----------------------------------------
 .byte   W48
 .byte   W96
@  #08 @007   ----------------------------------------
 .byte   W48
 .byte   W96
@  #08 @008   ----------------------------------------
 .byte   W48
 .byte   W96
@  #08 @009   ----------------------------------------
 .byte   W48
 .byte   W96
@  #08 @010   ----------------------------------------
 .byte   W48
 .byte   W96
@  #08 @011   ----------------------------------------
 .byte   W48
 .byte   W96
@  #08 @012   ----------------------------------------
 .byte   W48
 .byte   W96
@  #08 @013   ----------------------------------------
 .byte   W48
 .byte   W96
@  #08 @014   ----------------------------------------
 .byte   W48
 .byte   W96
@  #08 @015   ----------------------------------------
 .byte   W48
 .byte   W96
@  #08 @016   ----------------------------------------
 .byte   W48
 .byte   W96
@  #08 @017   ----------------------------------------
 .byte   W48
 .byte   W96
@  #08 @018   ----------------------------------------
 .byte   W48
 .byte   W96
@  #08 @019   ----------------------------------------
 .byte   W48
 .byte   W96
@  #08 @020   ----------------------------------------
 .byte   W48
 .byte   W96
@  #08 @021   ----------------------------------------
 .byte   W48
 .byte   W96
@  #08 @022   ----------------------------------------
 .byte   W48
 .byte   W96
@  #08 @023   ----------------------------------------
 .byte   W48
 .byte   W96
@  #08 @024   ----------------------------------------
 .byte   W48
 .byte   W96
@  #08 @025   ----------------------------------------
 .byte   W48
 .byte   W96
@  #08 @026   ----------------------------------------
 .byte   W48
 .byte   W96
@  #08 @027   ----------------------------------------
 .byte   W48
 .byte   W96
@  #08 @028   ----------------------------------------
 .byte   W48
 .byte   W96
@  #08 @029   ----------------------------------------
 .byte   W48
 .byte   W96
@  #08 @030   ----------------------------------------
 .byte   W48
 .byte   W96
@  #08 @031   ----------------------------------------
 .byte   W48
 .byte   W96
@  #08 @032   ----------------------------------------
 .byte   W48
 .byte   W96
@  #08 @033   ----------------------------------------
 .byte   W48
 .byte   W96
@  #08 @034   ----------------------------------------
 .byte   W48
 .byte   W96
@  #08 @035   ----------------------------------------
 .byte   W48
 .byte   W96
@  #08 @036   ----------------------------------------
 .byte   W48
 .byte   W96
@  #08 @037   ----------------------------------------
 .byte   W48
 .byte   W96
@  #08 @038   ----------------------------------------
 .byte   W48
 .byte   W96
@  #08 @039   ----------------------------------------
 .byte   W48
 .byte   W96
@  #08 @040   ----------------------------------------
 .byte   W48
 .byte   W96
@  #08 @041   ----------------------------------------
 .byte   W48
 .byte   W96
@  #08 @042   ----------------------------------------
 .byte   W48
 .byte   W96
@  #08 @043   ----------------------------------------
 .byte   W48
 .byte   W96
@  #08 @044   ----------------------------------------
 .byte   W48
 .byte   W96
@  #08 @045   ----------------------------------------
 .byte   W48
 .byte   W96
@  #08 @046   ----------------------------------------
 .byte   W48
 .byte   W96
@  #08 @047   ----------------------------------------
 .byte   W48
 .byte   W96
@  #08 @048   ----------------------------------------
 .byte   N24 ,Ds3 ,v127
 .byte   W24
 .byte   Fn3
 .byte   W24
Label_017F660D:
 .byte   N48 ,Fs3 ,v127
 .byte   W48
@  #08 @049   ----------------------------------------
 .byte   N24 ,En3
 .byte   W24
 .byte   N48 ,An3
 .byte   W48
 .byte   N24 ,Bn3
 .byte   W24
 .byte   PEND 
@  #08 @050   ----------------------------------------
Label_017F661B:
 .byte   N72 ,Fs3 ,v127
 .byte   W72
 .byte   N11 ,En3
 .byte   W24
@  #08 @051   ----------------------------------------
 .byte   N24 ,Dn3
 .byte   W24
 .byte   En3
 .byte   W24
 .byte   PEND 
@  #08 @052   ----------------------------------------
 .byte   PATT
  .word Label_017F660D
@  #08 @053   ----------------------------------------
 .byte   PATT
  .word Label_017F661B
@  #08 @054   ----------------------------------------
Label_017F6632:
 .byte   N48 ,Fn3 ,v127
 .byte   W48
 .byte   N24 ,Ds3
 .byte   W24
 .byte   N48 ,Gs3
 .byte   W48
@  #08 @055   ----------------------------------------
 .byte   N24 ,As3
 .byte   W24
 .byte   PEND 
 .byte   N72 ,Fn3
 .byte   W72
@  #08 @056   ----------------------------------------
 .byte   N11 ,Ds3
 .byte   W24
 .byte   N24 ,Cs3
 .byte   W24
 .byte   Ds3
 .byte   W24
@  #08 @057   ----------------------------------------
 .byte   PATT
  .word Label_017F6632
@  #08 @058   ----------------------------------------
 .byte   N72 ,Fn3 ,v127
 .byte   W72
 .byte   N11 ,Ds3
 .byte   W24
@  #08 @059   ----------------------------------------
 .byte   N24
 .byte   W24
 .byte   Fn3
 .byte   W24
@  #08 @060   ----------------------------------------
 .byte   PATT
  .word Label_017F660D
@  #08 @061   ----------------------------------------
 .byte   PATT
  .word Label_017F661B
@  #08 @062   ----------------------------------------
 .byte   PATT
  .word Label_017F660D
@  #08 @063   ----------------------------------------
 .byte   N72 ,Fs3 ,v127
 .byte   W72
 .byte   N11 ,En3
 .byte   W72
@  #08 @064   ----------------------------------------
 .byte   W96
@  #08 @065   ----------------------------------------
 .byte   W48
 .byte   W96
@  #08 @066   ----------------------------------------
 .byte   W48
 .byte   W96
@  #08 @067   ----------------------------------------
 .byte   W48
 .byte   W96
@  #08 @068   ----------------------------------------
 .byte   W48
 .byte   W96
@  #08 @069   ----------------------------------------
 .byte   W48
 .byte   W96
@  #08 @070   ----------------------------------------
 .byte   W48
 .byte   W96
@  #08 @071   ----------------------------------------
 .byte   W48
 .byte   W96
@  #08 @072   ----------------------------------------
 .byte   W48
 .byte   GOTO
  .word Label_017F65A2
 .byte   FINE

@**************** Track 9 (Midi-Chn.8) ****************@

song01_009:
@  #09 @000   ----------------------------------------
 .byte   KEYSH , song01_key+0
Label_017E898E:
 .byte   VOICE , 117
 .byte   VOL , 33*song01_mvl/mxv
 .byte   PAN , c_v+40
 .byte   W96
@  #09 @001   ----------------------------------------
 .byte   W48
 .byte   W96
@  #09 @002   ----------------------------------------
 .byte   W48
 .byte   W96
@  #09 @003   ----------------------------------------
 .byte   W48
 .byte   W96
@  #09 @004   ----------------------------------------
 .byte   W48
 .byte   W96
@  #09 @005   ----------------------------------------
 .byte   W48
 .byte   W96
@  #09 @006   ----------------------------------------
 .byte   W48
 .byte   W96
@  #09 @007   ----------------------------------------
 .byte   W48
 .byte   W96
@  #09 @008   ----------------------------------------
 .byte   W48
 .byte   W96
@  #09 @009   ----------------------------------------
 .byte   W48
 .byte   W96
@  #09 @010   ----------------------------------------
 .byte   W48
 .byte   W96
@  #09 @011   ----------------------------------------
 .byte   W48
 .byte   W96
@  #09 @012   ----------------------------------------
 .byte   W48
Label_017E89AC:
 .byte   W24
 .byte   N24 ,Fn1 ,v100
 .byte   W96
@  #09 @013   ----------------------------------------
 .byte   W24
 .byte   PEND 
@  #09 @014   ----------------------------------------
 .byte   PATT
  .word Label_017E89AC
@  #09 @015   ----------------------------------------
 .byte   PATT
  .word Label_017E89AC
@  #09 @016   ----------------------------------------
 .byte   PATT
  .word Label_017E89AC
@  #09 @017   ----------------------------------------
 .byte   PATT
  .word Label_017E89AC
@  #09 @018   ----------------------------------------
 .byte   PATT
  .word Label_017E89AC
@  #09 @019   ----------------------------------------
 .byte   PATT
  .word Label_017E89AC
@  #09 @020   ----------------------------------------
 .byte   PATT
  .word Label_017E89AC
@  #09 @021   ----------------------------------------
 .byte   PATT
  .word Label_017E89AC
@  #09 @022   ----------------------------------------
 .byte   PATT
  .word Label_017E89AC
@  #09 @023   ----------------------------------------
 .byte   PATT
  .word Label_017E89AC
@  #09 @024   ----------------------------------------
 .byte   PATT
  .word Label_017E89AC
@  #09 @025   ----------------------------------------
Label_017E89EA:
 .byte   W24
 .byte   N24 ,Fs1 ,v100
 .byte   W96
@  #09 @026   ----------------------------------------
 .byte   W24
 .byte   PEND 
@  #09 @027   ----------------------------------------
 .byte   PATT
  .word Label_017E89EA
@  #09 @028   ----------------------------------------
 .byte   PATT
  .word Label_017E89EA
@  #09 @029   ----------------------------------------
 .byte   PATT
  .word Label_017E89EA
@  #09 @030   ----------------------------------------
 .byte   PATT
  .word Label_017E89AC
@  #09 @031   ----------------------------------------
 .byte   PATT
  .word Label_017E89AC
@  #09 @032   ----------------------------------------
 .byte   PATT
  .word Label_017E89AC
@  #09 @033   ----------------------------------------
 .byte   PATT
  .word Label_017E89AC
@  #09 @034   ----------------------------------------
 .byte   PATT
  .word Label_017E89EA
@  #09 @035   ----------------------------------------
 .byte   PATT
  .word Label_017E89EA
@  #09 @036   ----------------------------------------
 .byte   PATT
  .word Label_017E89EA
@  #09 @037   ----------------------------------------
 .byte   PATT
  .word Label_017E89EA
@  #09 @038   ----------------------------------------
 .byte   PATT
  .word Label_017E89AC
@  #09 @039   ----------------------------------------
 .byte   PATT
  .word Label_017E89AC
@  #09 @040   ----------------------------------------
 .byte   PATT
  .word Label_017E89AC
@  #09 @041   ----------------------------------------
 .byte   PATT
  .word Label_017E89AC
@  #09 @042   ----------------------------------------
 .byte   PATT
  .word Label_017E89EA
@  #09 @043   ----------------------------------------
 .byte   PATT
  .word Label_017E89EA
@  #09 @044   ----------------------------------------
 .byte   PATT
  .word Label_017E89EA
@  #09 @045   ----------------------------------------
 .byte   PATT
  .word Label_017E89EA
@  #09 @046   ----------------------------------------
 .byte   PATT
  .word Label_017E89AC
@  #09 @047   ----------------------------------------
 .byte   PATT
  .word Label_017E89AC
@  #09 @048   ----------------------------------------
 .byte   PATT
  .word Label_017E89AC
@  #09 @049   ----------------------------------------
 .byte   PATT
  .word Label_017E89AC
@  #09 @050   ----------------------------------------
 .byte   PATT
  .word Label_017E89EA
@  #09 @051   ----------------------------------------
 .byte   PATT
  .word Label_017E89EA
@  #09 @052   ----------------------------------------
 .byte   PATT
  .word Label_017E89EA
@  #09 @053   ----------------------------------------
 .byte   PATT
  .word Label_017E89EA
@  #09 @054   ----------------------------------------
 .byte   PATT
  .word Label_017E89AC
@  #09 @055   ----------------------------------------
 .byte   PATT
  .word Label_017E89AC
@  #09 @056   ----------------------------------------
 .byte   PATT
  .word Label_017E89AC
@  #09 @057   ----------------------------------------
 .byte   PATT
  .word Label_017E89AC
@  #09 @058   ----------------------------------------
 .byte   PATT
  .word Label_017E89EA
@  #09 @059   ----------------------------------------
 .byte   PATT
  .word Label_017E89EA
@  #09 @060   ----------------------------------------
 .byte   PATT
  .word Label_017E89EA
@  #09 @061   ----------------------------------------
 .byte   PATT
  .word Label_017E89EA
@  #09 @062   ----------------------------------------
 .byte   PATT
  .word Label_017E89AC
@  #09 @063   ----------------------------------------
 .byte   PATT
  .word Label_017E89AC
@  #09 @064   ----------------------------------------
 .byte   PATT
  .word Label_017E89AC
@  #09 @065   ----------------------------------------
 .byte   PATT
  .word Label_017E89AC
@  #09 @066   ----------------------------------------
 .byte   PATT
  .word Label_017E89AC
@  #09 @067   ----------------------------------------
 .byte   PATT
  .word Label_017E89AC
@  #09 @068   ----------------------------------------
 .byte   PATT
  .word Label_017E89AC
@  #09 @069   ----------------------------------------
 .byte   PATT
  .word Label_017E89AC
@  #09 @070   ----------------------------------------
 .byte   GOTO
  .word Label_017E898E
 .byte   FINE

@**************** Track 10 (Midi-Chn.9) ****************@

song01_010:
@  #10 @000   ----------------------------------------
 .byte   KEYSH , song01_key+0
Label_017F696A:
 .byte   VOICE , 116
 .byte   VOL , 34*song01_mvl/mxv
 .byte   PAN , c_v+40
 .byte   W96
@  #10 @001   ----------------------------------------
 .byte   W48
 .byte   W96
@  #10 @002   ----------------------------------------
 .byte   W48
 .byte   W96
@  #10 @003   ----------------------------------------
 .byte   W48
 .byte   W96
@  #10 @004   ----------------------------------------
 .byte   W48
 .byte   W96
@  #10 @005   ----------------------------------------
 .byte   W48
 .byte   W96
@  #10 @006   ----------------------------------------
 .byte   W48
 .byte   W96
@  #10 @007   ----------------------------------------
 .byte   W48
 .byte   W96
@  #10 @008   ----------------------------------------
 .byte   W48
 .byte   W96
@  #10 @009   ----------------------------------------
 .byte   W48
 .byte   W96
@  #10 @010   ----------------------------------------
 .byte   W48
 .byte   W96
@  #10 @011   ----------------------------------------
 .byte   W48
 .byte   W96
@  #10 @012   ----------------------------------------
 .byte   W48
 .byte   W96
@  #10 @013   ----------------------------------------
 .byte   W48
 .byte   W96
@  #10 @014   ----------------------------------------
 .byte   W48
 .byte   W96
@  #10 @015   ----------------------------------------
 .byte   W48
 .byte   W96
@  #10 @016   ----------------------------------------
 .byte   W48
 .byte   W96
@  #10 @017   ----------------------------------------
 .byte   W48
 .byte   W96
@  #10 @018   ----------------------------------------
 .byte   W48
 .byte   W96
@  #10 @019   ----------------------------------------
 .byte   W48
 .byte   W96
@  #10 @020   ----------------------------------------
 .byte   W48
 .byte   W96
@  #10 @021   ----------------------------------------
 .byte   W48
 .byte   W96
@  #10 @022   ----------------------------------------
 .byte   W48
 .byte   W96
@  #10 @023   ----------------------------------------
 .byte   W48
 .byte   W96
@  #10 @024   ----------------------------------------
 .byte   W48
 .byte   W96
@  #10 @025   ----------------------------------------
 .byte   W48
 .byte   W96
@  #10 @026   ----------------------------------------
 .byte   W48
 .byte   W96
@  #10 @027   ----------------------------------------
 .byte   W48
 .byte   W96
@  #10 @028   ----------------------------------------
 .byte   W48
 .byte   W96
@  #10 @029   ----------------------------------------
 .byte   W48
 .byte   W96
@  #10 @030   ----------------------------------------
 .byte   W48
 .byte   W96
@  #10 @031   ----------------------------------------
 .byte   W48
 .byte   W96
@  #10 @032   ----------------------------------------
 .byte   W48
 .byte   W96
@  #10 @033   ----------------------------------------
 .byte   W48
 .byte   W96
@  #10 @034   ----------------------------------------
 .byte   W48
 .byte   W96
@  #10 @035   ----------------------------------------
 .byte   W48
 .byte   W96
@  #10 @036   ----------------------------------------
 .byte   W48
 .byte   W96
@  #10 @037   ----------------------------------------
 .byte   W48
 .byte   W96
@  #10 @038   ----------------------------------------
 .byte   W48
 .byte   W96
@  #10 @039   ----------------------------------------
 .byte   W48
 .byte   W96
@  #10 @040   ----------------------------------------
 .byte   W36
 .byte   N12 ,Cn2 ,v127
 .byte   W12
Label_017F69C4:
 .byte   N24 ,Cn2 ,v127
 .byte   W60
@  #10 @041   ----------------------------------------
 .byte   N12
 .byte   W12
 .byte   N24
 .byte   W60
 .byte   N12
 .byte   W12
 .byte   PEND 
@  #10 @042   ----------------------------------------
 .byte   PATT
  .word Label_017F69C4
@  #10 @043   ----------------------------------------
 .byte   PATT
  .word Label_017F69C4
@  #10 @044   ----------------------------------------
 .byte   PATT
  .word Label_017F69C4
@  #10 @045   ----------------------------------------
 .byte   PATT
  .word Label_017F69C4
@  #10 @046   ----------------------------------------
 .byte   PATT
  .word Label_017F69C4
@  #10 @047   ----------------------------------------
 .byte   PATT
  .word Label_017F69C4
@  #10 @048   ----------------------------------------
 .byte   PATT
  .word Label_017F69C4
@  #10 @049   ----------------------------------------
 .byte   PATT
  .word Label_017F69C4
@  #10 @050   ----------------------------------------
 .byte   PATT
  .word Label_017F69C4
@  #10 @051   ----------------------------------------
 .byte   PATT
  .word Label_017F69C4
@  #10 @052   ----------------------------------------
 .byte   PATT
  .word Label_017F69C4
@  #10 @053   ----------------------------------------
 .byte   PATT
  .word Label_017F69C4
@  #10 @054   ----------------------------------------
 .byte   PATT
  .word Label_017F69C4
@  #10 @055   ----------------------------------------
 .byte   PATT
  .word Label_017F69C4
@  #10 @056   ----------------------------------------
 .byte   PATT
  .word Label_017F69C4
@  #10 @057   ----------------------------------------
 .byte   PATT
  .word Label_017F69C4
@  #10 @058   ----------------------------------------
 .byte   PATT
  .word Label_017F69C4
@  #10 @059   ----------------------------------------
 .byte   PATT
  .word Label_017F69C4
@  #10 @060   ----------------------------------------
 .byte   PATT
  .word Label_017F69C4
@  #10 @061   ----------------------------------------
 .byte   PATT
  .word Label_017F69C4
@  #10 @062   ----------------------------------------
 .byte   PATT
  .word Label_017F69C4
@  #10 @063   ----------------------------------------
 .byte   PATT
  .word Label_017F69C4
@  #10 @064   ----------------------------------------
 .byte   PATT
  .word Label_017F69C4
@  #10 @065   ----------------------------------------
 .byte   PATT
  .word Label_017F69C4
@  #10 @066   ----------------------------------------
 .byte   PATT
  .word Label_017F69C4
@  #10 @067   ----------------------------------------
 .byte   PATT
  .word Label_017F69C4
@  #10 @068   ----------------------------------------
 .byte   PATT
  .word Label_017F69C4
@  #10 @069   ----------------------------------------
 .byte   GOTO
  .word Label_017F696A
 .byte   FINE

@**************** Track 11 (Midi-Chn.10) ****************@

song01_011:
@  #11 @000   ----------------------------------------
 .byte   KEYSH , song01_key+0
Label_017E8B36:
 .byte   VOICE , 47
 .byte   VOL , 33*song01_mvl/mxv
 .byte   PAN , c_v+30
 .byte   W96
@  #11 @001   ----------------------------------------
 .byte   W48
 .byte   W96
@  #11 @002   ----------------------------------------
 .byte   W48
 .byte   W96
@  #11 @003   ----------------------------------------
 .byte   W48
 .byte   W96
@  #11 @004   ----------------------------------------
 .byte   W48
 .byte   W96
@  #11 @005   ----------------------------------------
 .byte   W48
 .byte   W96
@  #11 @006   ----------------------------------------
 .byte   W48
 .byte   W96
@  #11 @007   ----------------------------------------
 .byte   W48
 .byte   W96
@  #11 @008   ----------------------------------------
 .byte   W48
 .byte   W96
@  #11 @009   ----------------------------------------
 .byte   W48
 .byte   W96
@  #11 @010   ----------------------------------------
 .byte   W48
 .byte   W96
@  #11 @011   ----------------------------------------
 .byte   W48
 .byte   W96
@  #11 @012   ----------------------------------------
 .byte   W48
 .byte   W96
@  #11 @013   ----------------------------------------
 .byte   W48
 .byte   W96
@  #11 @014   ----------------------------------------
 .byte   W48
 .byte   W96
@  #11 @015   ----------------------------------------
 .byte   W48
Label_017E8B5A:
 .byte   W96
@  #11 @016   ----------------------------------------
 .byte   W36
 .byte   N06 ,As0 ,v100
 .byte   W06
 .byte   N06
 .byte   W06
 .byte   PEND 
Label_017E8B63:
 .byte   TIE ,As0 ,v100
 .byte   W96
@  #11 @017   ----------------------------------------
 .byte   W48
 .byte   PEND 
 .byte   EOT
 .byte   W96
@  #11 @018   ----------------------------------------
 .byte   W48
@  #11 @019   ----------------------------------------
 .byte   PATT
  .word Label_017E8B63
@  #11 @020   ----------------------------------------
 .byte   EOT
 .byte   As0
 .byte   W96
@  #11 @021   ----------------------------------------
 .byte   W48
@  #11 @022   ----------------------------------------
 .byte   PATT
  .word Label_017E8B63
@  #11 @023   ----------------------------------------
 .byte   EOT
 .byte   As0
 .byte   W96
@  #11 @024   ----------------------------------------
 .byte   W48
@  #11 @025   ----------------------------------------
 .byte   PATT
  .word Label_017E8B63
@  #11 @026   ----------------------------------------
 .byte   EOT
 .byte   As0
 .byte   W96
@  #11 @027   ----------------------------------------
 .byte   W48
Label_017E8B87:
 .byte   TIE ,Bn0 ,v100
 .byte   W96
@  #11 @028   ----------------------------------------
 .byte   W48
 .byte   PEND 
 .byte   EOT
 .byte   W96
@  #11 @029   ----------------------------------------
 .byte   W48
@  #11 @030   ----------------------------------------
 .byte   PATT
  .word Label_017E8B87
@  #11 @031   ----------------------------------------
 .byte   EOT
 .byte   Bn0
 .byte   W96
@  #11 @032   ----------------------------------------
 .byte   W48
@  #11 @033   ----------------------------------------
 .byte   PATT
  .word Label_017E8B63
@  #11 @034   ----------------------------------------
 .byte   EOT
 .byte   As0
 .byte   W96
@  #11 @035   ----------------------------------------
 .byte   W48
@  #11 @036   ----------------------------------------
 .byte   PATT
  .word Label_017E8B63
@  #11 @037   ----------------------------------------
 .byte   EOT
 .byte   As0
 .byte   W96
@  #11 @038   ----------------------------------------
 .byte   W48
@  #11 @039   ----------------------------------------
 .byte   PATT
  .word Label_017E8B87
@  #11 @040   ----------------------------------------
 .byte   EOT
 .byte   Bn0
 .byte   W96
@  #11 @041   ----------------------------------------
 .byte   W48
@  #11 @042   ----------------------------------------
 .byte   PATT
  .word Label_017E8B87
@  #11 @043   ----------------------------------------
 .byte   EOT
 .byte   Bn0
 .byte   W96
@  #11 @044   ----------------------------------------
 .byte   W48
@  #11 @045   ----------------------------------------
 .byte   PATT
  .word Label_017E8B63
@  #11 @046   ----------------------------------------
 .byte   EOT
 .byte   As0
 .byte   W96
@  #11 @047   ----------------------------------------
 .byte   W48
@  #11 @048   ----------------------------------------
 .byte   PATT
  .word Label_017E8B63
@  #11 @049   ----------------------------------------
 .byte   EOT
 .byte   As0
 .byte   W96
@  #11 @050   ----------------------------------------
 .byte   W48
@  #11 @051   ----------------------------------------
 .byte   PATT
  .word Label_017E8B87
@  #11 @052   ----------------------------------------
 .byte   EOT
 .byte   Bn0
 .byte   W96
@  #11 @053   ----------------------------------------
 .byte   W48
@  #11 @054   ----------------------------------------
 .byte   PATT
  .word Label_017E8B87
@  #11 @055   ----------------------------------------
 .byte   EOT
 .byte   Bn0
 .byte   W96
@  #11 @056   ----------------------------------------
 .byte   W48
@  #11 @057   ----------------------------------------
 .byte   PATT
  .word Label_017E8B63
@  #11 @058   ----------------------------------------
 .byte   EOT
 .byte   As0
 .byte   W96
@  #11 @059   ----------------------------------------
 .byte   W48
@  #11 @060   ----------------------------------------
 .byte   PATT
  .word Label_017E8B63
@  #11 @061   ----------------------------------------
 .byte   EOT
 .byte   As0
 .byte   W96
@  #11 @062   ----------------------------------------
 .byte   W48
@  #11 @063   ----------------------------------------
 .byte   PATT
  .word Label_017E8B87
@  #11 @064   ----------------------------------------
 .byte   EOT
 .byte   Bn0
 .byte   W96
@  #11 @065   ----------------------------------------
 .byte   W48
@  #11 @066   ----------------------------------------
 .byte   PATT
  .word Label_017E8B87
@  #11 @067   ----------------------------------------
 .byte   EOT
 .byte   Bn0
 .byte   W96
@  #11 @068   ----------------------------------------
 .byte   W48
@  #11 @069   ----------------------------------------
 .byte   PATT
  .word Label_017E8B63
@  #11 @070   ----------------------------------------
 .byte   EOT
 .byte   As0
 .byte   W96
@  #11 @071   ----------------------------------------
 .byte   W48
@  #11 @072   ----------------------------------------
 .byte   PATT
  .word Label_017E8B63
@  #11 @073   ----------------------------------------
 .byte   EOT
 .byte   As0
 .byte   W96
@  #11 @074   ----------------------------------------
 .byte   W48
@  #11 @075   ----------------------------------------
 .byte   PATT
  .word Label_017E8B87
@  #11 @076   ----------------------------------------
 .byte   EOT
 .byte   Bn0
 .byte   W96
@  #11 @077   ----------------------------------------
 .byte   W48
@  #11 @078   ----------------------------------------
 .byte   PATT
  .word Label_017E8B87
@  #11 @079   ----------------------------------------
 .byte   EOT
 .byte   Bn0
 .byte   VOICE , 119
 .byte   W72
 .byte   N72 ,Gs2 ,v127
 .byte   W72
@  #11 @080   ----------------------------------------
 .byte   VOICE , 47
 .byte   W96
@  #11 @081   ----------------------------------------
 .byte   W48
 .byte   W96
@  #11 @082   ----------------------------------------
 .byte   W48
 .byte   W96
@  #11 @083   ----------------------------------------
 .byte   W48
 .byte   W96
@  #11 @084   ----------------------------------------
 .byte   W48
 .byte   W96
@  #11 @085   ----------------------------------------
 .byte   W48
 .byte   W96
@  #11 @086   ----------------------------------------
 .byte   W48
 .byte   W96
@  #11 @087   ----------------------------------------
 .byte   W48
@  #11 @088   ----------------------------------------
 .byte   PATT
  .word Label_017E8B5A
@  #11 @089   ----------------------------------------
 .byte   GOTO
  .word Label_017E8B36
 .byte   FINE

@**************** Track 12 (Midi-Chn.11) ****************@

song01_012:
@  #12 @000   ----------------------------------------
 .byte   KEYSH , song01_key+0
Label_017F6416:
 .byte   VOICE , 127
 .byte   VOL , 31*song01_mvl/mxv
 .byte   PAN , c_v+40
 .byte   W48
 .byte   N24 ,Bn0 ,v100
 .byte   W96
@  #12 @001   ----------------------------------------
 .byte   W48
 .byte   N24
 .byte   W96
@  #12 @002   ----------------------------------------
 .byte   W48
 .byte   N24
 .byte   W96
@  #12 @003   ----------------------------------------
 .byte   W48
 .byte   N24
 .byte   W96
@  #12 @004   ----------------------------------------
 .byte   W48
 .byte   N24
 .byte   W96
@  #12 @005   ----------------------------------------
 .byte   W48
 .byte   N24
 .byte   W96
@  #12 @006   ----------------------------------------
 .byte   W48
 .byte   N24
 .byte   W96
@  #12 @007   ----------------------------------------
 .byte   W48
 .byte   N24
 .byte   W96
@  #12 @008   ----------------------------------------
 .byte   W48
 .byte   N24
 .byte   W96
@  #12 @009   ----------------------------------------
 .byte   W48
 .byte   N24
 .byte   W96
@  #12 @010   ----------------------------------------
 .byte   W48
 .byte   N24
 .byte   W96
@  #12 @011   ----------------------------------------
 .byte   W48
 .byte   N24
 .byte   W96
@  #12 @012   ----------------------------------------
 .byte   W48
 .byte   N24
 .byte   W96
@  #12 @013   ----------------------------------------
 .byte   W48
 .byte   N24
 .byte   W96
@  #12 @014   ----------------------------------------
 .byte   W48
 .byte   N24
 .byte   W96
@  #12 @015   ----------------------------------------
 .byte   W48
 .byte   N24
 .byte   W96
@  #12 @016   ----------------------------------------
 .byte   N72 ,As1
 .byte   N72 ,En2
 .byte   N72 ,An2
 .byte   W48
 .byte   N24 ,Bn0
 .byte   W96
@  #12 @017   ----------------------------------------
 .byte   W48
 .byte   N24
 .byte   W96
@  #12 @018   ----------------------------------------
 .byte   W48
 .byte   N24
 .byte   W96
@  #12 @019   ----------------------------------------
 .byte   W48
 .byte   N24
 .byte   W96
@  #12 @020   ----------------------------------------
 .byte   W48
 .byte   N24
 .byte   W96
@  #12 @021   ----------------------------------------
 .byte   W48
 .byte   N24
 .byte   W96
@  #12 @022   ----------------------------------------
 .byte   W48
 .byte   N24
 .byte   W96
@  #12 @023   ----------------------------------------
 .byte   W48
 .byte   N24
 .byte   W96
@  #12 @024   ----------------------------------------
 .byte   W48
 .byte   N24
 .byte   W96
@  #12 @025   ----------------------------------------
 .byte   W48
 .byte   N24
 .byte   W96
@  #12 @026   ----------------------------------------
 .byte   W48
 .byte   N24
 .byte   W96
@  #12 @027   ----------------------------------------
 .byte   W48
 .byte   N24
 .byte   W96
@  #12 @028   ----------------------------------------
 .byte   W48
 .byte   N24
 .byte   W96
@  #12 @029   ----------------------------------------
 .byte   W48
 .byte   N24
 .byte   W96
@  #12 @030   ----------------------------------------
 .byte   W48
 .byte   N24
 .byte   W96
@  #12 @031   ----------------------------------------
 .byte   W48
 .byte   N24
 .byte   W96
@  #12 @032   ----------------------------------------
 .byte   W48
 .byte   N24
 .byte   W96
@  #12 @033   ----------------------------------------
 .byte   W48
 .byte   N24
 .byte   W96
@  #12 @034   ----------------------------------------
 .byte   W48
 .byte   N24
 .byte   W96
@  #12 @035   ----------------------------------------
 .byte   W48
 .byte   N24
 .byte   W96
@  #12 @036   ----------------------------------------
 .byte   W48
 .byte   N24
 .byte   W96
@  #12 @037   ----------------------------------------
 .byte   W48
 .byte   N24
 .byte   W96
@  #12 @038   ----------------------------------------
 .byte   W48
 .byte   N24
 .byte   W96
@  #12 @039   ----------------------------------------
 .byte   W48
 .byte   N24
 .byte   W96
@  #12 @040   ----------------------------------------
 .byte   W48
 .byte   N24
 .byte   W96
@  #12 @041   ----------------------------------------
 .byte   W48
 .byte   N24
 .byte   W96
@  #12 @042   ----------------------------------------
 .byte   W48
 .byte   N24
 .byte   W96
@  #12 @043   ----------------------------------------
 .byte   W48
 .byte   N24
 .byte   W96
@  #12 @044   ----------------------------------------
 .byte   W48
 .byte   N24
 .byte   W96
@  #12 @045   ----------------------------------------
 .byte   W48
 .byte   N24
 .byte   W96
@  #12 @046   ----------------------------------------
 .byte   W48
 .byte   N24
 .byte   W96
@  #12 @047   ----------------------------------------
 .byte   W48
 .byte   N24
 .byte   W96
@  #12 @048   ----------------------------------------
 .byte   W48
 .byte   N24
 .byte   W96
@  #12 @049   ----------------------------------------
 .byte   W48
 .byte   N24
 .byte   W96
@  #12 @050   ----------------------------------------
 .byte   W48
 .byte   N24
 .byte   W96
@  #12 @051   ----------------------------------------
 .byte   W48
 .byte   N24
 .byte   W96
@  #12 @052   ----------------------------------------
 .byte   W48
 .byte   N24
 .byte   W96
@  #12 @053   ----------------------------------------
 .byte   W48
 .byte   N24
 .byte   W96
@  #12 @054   ----------------------------------------
 .byte   W48
 .byte   N24
 .byte   W96
@  #12 @055   ----------------------------------------
 .byte   W48
 .byte   N24
 .byte   W96
@  #12 @056   ----------------------------------------
 .byte   W48
 .byte   N24
 .byte   W96
@  #12 @057   ----------------------------------------
 .byte   W48
 .byte   N24
 .byte   W96
@  #12 @058   ----------------------------------------
 .byte   W48
 .byte   N24
 .byte   W96
@  #12 @059   ----------------------------------------
 .byte   W48
 .byte   N24
 .byte   W96
@  #12 @060   ----------------------------------------
 .byte   N96 ,As1 ,v127
 .byte   N96 ,En2
 .byte   N96 ,An2
 .byte   W48
 .byte   N24 ,Bn0 ,v100
 .byte   W96
@  #12 @061   ----------------------------------------
 .byte   W48
 .byte   N24
 .byte   W96
@  #12 @062   ----------------------------------------
 .byte   W48
 .byte   N24
 .byte   W96
@  #12 @063   ----------------------------------------
 .byte   W48
 .byte   N24
 .byte   W96
@  #12 @064   ----------------------------------------
 .byte   W48
 .byte   N24
 .byte   W96
@  #12 @065   ----------------------------------------
 .byte   W48
 .byte   N24
 .byte   W96
@  #12 @066   ----------------------------------------
 .byte   W48
 .byte   N24
 .byte   W96
@  #12 @067   ----------------------------------------
 .byte   W48
 .byte   N24
 .byte   W96
@  #12 @068   ----------------------------------------
 .byte   GOTO
  .word Label_017F6416
 .byte   FINE

@******************************************************@
	.align	2

song01:
	.byte	12	@ NumTrks
	.byte	0	@ NumBlks
	.byte	song01_pri	@ Priority
	.byte	song01_rev	@ Reverb.
    
	.word	song01_grp
    
	.word	song01_001
	.word	song01_002
	.word	song01_003
	.word	song01_004
	.word	song01_005
	.word	song01_006
	.word	song01_007
	.word	song01_008
	.word	song01_009
	.word	song01_010
	.word	song01_011
	.word	song01_012

	.end
