	.include "MPlayDef.s"

	.equ	song01_grp, voicegroup000
	.equ	song01_pri, 0
	.equ	song01_rev, 0
	.equ	song01_mvl, 127
	.equ	song01_key, 0
	.equ	song01_tbs, 1
	.equ	song01_exg, 0
	.equ	song01_cmp, 1

	.section .rodata
	.global	song01
	.align	2


@**************** Track 1 (Midi-Chn.0) ****************@

song01_001:
@  #01 @000   ----------------------------------------
 .byte   KEYSH , song01_key+0
 .byte   TEMPO , 112*song01_tbs/2
 .byte   VOICE , 74
 .byte   VOL , 46*song01_mvl/mxv
 .byte   PAN , c_v-1
 .byte   PAN , c_v+0
 .byte   W96
@  #01 @001   ----------------------------------------
 .byte   W96
@  #01 @002   ----------------------------------------
 .byte   W96
@  #01 @003   ----------------------------------------
 .byte   W96
@  #01 @004   ----------------------------------------
 .byte   W96
@  #01 @005   ----------------------------------------
 .byte   W96
@  #01 @006   ----------------------------------------
 .byte   W96
@  #01 @007   ----------------------------------------
 .byte   W96
@  #01 @008   ----------------------------------------
 .byte   N23 ,Cn4 ,v084
 .byte   W24
 .byte   N11 ,Gn3
 .byte   W12
 .byte   As3
 .byte   W12
 .byte   Gn3
 .byte   W12
 .byte   N05 ,As3
 .byte   W12
 .byte   N23
 .byte   W24
@  #01 @009   ----------------------------------------
 .byte   W96
@  #01 @010   ----------------------------------------
Label_015F7BE8:
 .byte   N23 ,Cn4 ,v080
 .byte   W24
 .byte   N05 ,En4
 .byte   W12
 .byte   Gn4
 .byte   W12
 .byte   N17 ,As4
 .byte   W18
 .byte   N05 ,An4
 .byte   W06
 .byte   Gn4
 .byte   W12
 .byte   N11 ,En4
 .byte   W12
 .byte   PEND 
@  #01 @011   ----------------------------------------
Label_015F7BFD:
 .byte   N11 ,As3 ,v080
 .byte   W12
 .byte   Cn4
 .byte   W24
 .byte   As3
 .byte   W12
 .byte   N23 ,Cn4
 .byte   W48
 .byte   PEND 
@  #01 @012   ----------------------------------------
 .byte   PATT
  .word Label_015F7BE8
@  #01 @013   ----------------------------------------
 .byte   PATT
  .word Label_015F7BFD
@  #01 @014   ----------------------------------------
 .byte   PATT
  .word Label_015F7BE8
@  #01 @015   ----------------------------------------
 .byte   PATT
  .word Label_015F7BFD
@  #01 @016   ----------------------------------------
Label_015F7C1D:
 .byte   N17 ,Cn4 ,v080
 .byte   W18
 .byte   N02
 .byte   W06
 .byte   N05 ,En4
 .byte   W12
 .byte   Gn4
 .byte   W12
 .byte   N17 ,As4
 .byte   W18
 .byte   N05 ,An4
 .byte   W06
 .byte   Gn4
 .byte   W12
 .byte   N11 ,En4
 .byte   W12
 .byte   PEND 
@  #01 @017   ----------------------------------------
Label_015F7C34:
 .byte   N11 ,As3 ,v080
 .byte   W12
 .byte   Cn4
 .byte   W12
 .byte   N05
 .byte   W12
 .byte   N11 ,As3
 .byte   W12
 .byte   N23 ,Cn4
 .byte   W24
 .byte   N17
 .byte   W18
 .byte   N02
 .byte   W06
 .byte   PEND 
@  #01 @018   ----------------------------------------
Label_015F7C47:
 .byte   N23 ,An4 ,v080
 .byte   W24
 .byte   N17
 .byte   W18
 .byte   N02 ,Gn4
 .byte   W18
 .byte   N23 ,Cn4
 .byte   W36
 .byte   PEND 
@  #01 @019   ----------------------------------------
 .byte   PATT
  .word Label_015F7C47
@  #01 @020   ----------------------------------------
Label_015F7C59:
 .byte   N23 ,An4 ,v080
 .byte   W24
 .byte   N17
 .byte   W18
 .byte   N02 ,Gn4
 .byte   W18
 .byte   N23 ,En4
 .byte   W24
 .byte   N44 ,Dn4
 .byte   W12
 .byte   PEND 
@  #01 @021   ----------------------------------------
 .byte   W96
@  #01 @022   ----------------------------------------
 .byte   W96
@  #01 @023   ----------------------------------------
 .byte   W96
@  #01 @024   ----------------------------------------
 .byte   W96
@  #01 @025   ----------------------------------------
 .byte   W96
@  #01 @026   ----------------------------------------
 .byte   PATT
  .word Label_015F7BE8
@  #01 @027   ----------------------------------------
 .byte   PATT
  .word Label_015F7BFD
@  #01 @028   ----------------------------------------
 .byte   PATT
  .word Label_015F7BE8
@  #01 @029   ----------------------------------------
 .byte   PATT
  .word Label_015F7BFD
@  #01 @030   ----------------------------------------
 .byte   PATT
  .word Label_015F7BE8
@  #01 @031   ----------------------------------------
 .byte   PATT
  .word Label_015F7BFD
@  #01 @032   ----------------------------------------
 .byte   PATT
  .word Label_015F7C1D
@  #01 @033   ----------------------------------------
 .byte   PATT
  .word Label_015F7C34
@  #01 @034   ----------------------------------------
 .byte   PATT
  .word Label_015F7C47
@  #01 @035   ----------------------------------------
 .byte   PATT
  .word Label_015F7C47
@  #01 @036   ----------------------------------------
 .byte   PATT
  .word Label_015F7C59
@  #01 @037   ----------------------------------------
Label_015F7CA5:
 .byte   W60
 .byte   N05 ,En4 ,v080
 .byte   W06
 .byte   Dn4
 .byte   W06
 .byte   N11 ,Cn4
 .byte   W18
 .byte   N05 ,An3
 .byte   W06
 .byte   PEND 
@  #01 @038   ----------------------------------------
 .byte   N23 ,Cn4
 .byte   W96
@  #01 @039   ----------------------------------------
 .byte   W96
@  #01 @040   ----------------------------------------
 .byte   W96
@  #01 @041   ----------------------------------------
 .byte   W96
@  #01 @042   ----------------------------------------
 .byte   W96
@  #01 @043   ----------------------------------------
 .byte   W96
@  #01 @044   ----------------------------------------
 .byte   W96
@  #01 @045   ----------------------------------------
 .byte   W96
@  #01 @046   ----------------------------------------
 .byte   W96
@  #01 @047   ----------------------------------------
 .byte   W96
@  #01 @048   ----------------------------------------
 .byte   W96
@  #01 @049   ----------------------------------------
 .byte   W96
@  #01 @050   ----------------------------------------
 .byte   W96
@  #01 @051   ----------------------------------------
 .byte   W96
@  #01 @052   ----------------------------------------
 .byte   W96
@  #01 @053   ----------------------------------------
 .byte   W96
@  #01 @054   ----------------------------------------
 .byte   W96
@  #01 @055   ----------------------------------------
 .byte   W96
@  #01 @056   ----------------------------------------
 .byte   W96
@  #01 @057   ----------------------------------------
 .byte   W96
@  #01 @058   ----------------------------------------
 .byte   W96
@  #01 @059   ----------------------------------------
 .byte   W96
@  #01 @060   ----------------------------------------
 .byte   W96
@  #01 @061   ----------------------------------------
 .byte   W72
 .byte   N17
 .byte   W18
 .byte   N02
 .byte   W06
@  #01 @062   ----------------------------------------
 .byte   N23 ,An4
 .byte   W24
 .byte   N17
 .byte   W18
 .byte   N02 ,Gn4
 .byte   W18
 .byte   N32 ,Cn4
 .byte   W36
@  #01 @063   ----------------------------------------
 .byte   PATT
  .word Label_015F7C47
@  #01 @064   ----------------------------------------
 .byte   N23 ,An4 ,v080
 .byte   W24
 .byte   N17
 .byte   W18
 .byte   N11 ,Gn4
 .byte   W18
 .byte   N23 ,En4
 .byte   W24
 .byte   N44 ,Dn4
 .byte   W12
@  #01 @065   ----------------------------------------
 .byte   PATT
  .word Label_015F7CA5
@  #01 @066   ----------------------------------------
Label_015F7CF5:
 .byte   N44 ,Cn4 ,v080
 .byte   W60
 .byte   N05 ,En4
 .byte   W06
 .byte   Dn4
 .byte   W06
 .byte   N11 ,Cn4
 .byte   W18
 .byte   N05 ,An3
 .byte   W06
 .byte   PEND 
@  #01 @067   ----------------------------------------
 .byte   N44 ,As3
 .byte   W60
 .byte   N05 ,En4
 .byte   W06
 .byte   Dn4
 .byte   W06
 .byte   N11 ,Cn4
 .byte   W18
 .byte   N05 ,An3
 .byte   W06
@  #01 @068   ----------------------------------------
 .byte   PATT
  .word Label_015F7CF5
@  #01 @069   ----------------------------------------
 .byte   N44 ,As3 ,v080
 .byte   W48
 .byte   N11 ,Ds4
 .byte   W12
 .byte   Dn4
 .byte   W12
 .byte   Cn4
 .byte   W18
 .byte   N05 ,An3
 .byte   W06
@  #01 @070   ----------------------------------------
 .byte   N68 ,Cn4
 .byte   W96
@  #01 @071   ----------------------------------------
 .byte   W24
 .byte   GOTO
  .word Label_015F7BE8
 .byte   FINE

@**************** Track 2 (Midi-Chn.1) ****************@

song01_002:
@  #02 @000   ----------------------------------------
 .byte   KEYSH , song01_key+0
 .byte   VOICE , 73
 .byte   VOL , 35*song01_mvl/mxv
 .byte   PAN , c_v+0
 .byte   PAN , c_v+0
 .byte   W96
@  #02 @001   ----------------------------------------
 .byte   W96
@  #02 @002   ----------------------------------------
 .byte   W96
@  #02 @003   ----------------------------------------
 .byte   W96
@  #02 @004   ----------------------------------------
 .byte   W96
@  #02 @005   ----------------------------------------
 .byte   W96
@  #02 @006   ----------------------------------------
 .byte   W96
@  #02 @007   ----------------------------------------
 .byte   W96
@  #02 @008   ----------------------------------------
 .byte   W96
@  #02 @009   ----------------------------------------
 .byte   W96
@  #02 @010   ----------------------------------------
Label_015F7E77:
 .byte   W96
@  #02 @011   ----------------------------------------
 .byte   W96
@  #02 @012   ----------------------------------------
 .byte   W96
@  #02 @013   ----------------------------------------
 .byte   W96
@  #02 @014   ----------------------------------------
 .byte   W96
@  #02 @015   ----------------------------------------
 .byte   W96
@  #02 @016   ----------------------------------------
 .byte   W96
@  #02 @017   ----------------------------------------
 .byte   W96
@  #02 @018   ----------------------------------------
 .byte   W96
@  #02 @019   ----------------------------------------
 .byte   W96
@  #02 @020   ----------------------------------------
 .byte   W96
@  #02 @021   ----------------------------------------
 .byte   W96
@  #02 @022   ----------------------------------------
 .byte   W96
@  #02 @023   ----------------------------------------
 .byte   W96
@  #02 @024   ----------------------------------------
 .byte   W96
@  #02 @025   ----------------------------------------
 .byte   W96
@  #02 @026   ----------------------------------------
 .byte   W96
@  #02 @027   ----------------------------------------
 .byte   W96
@  #02 @028   ----------------------------------------
 .byte   W96
@  #02 @029   ----------------------------------------
 .byte   W96
@  #02 @030   ----------------------------------------
 .byte   W96
@  #02 @031   ----------------------------------------
 .byte   W96
@  #02 @032   ----------------------------------------
 .byte   W96
@  #02 @033   ----------------------------------------
 .byte   W96
@  #02 @034   ----------------------------------------
 .byte   W96
@  #02 @035   ----------------------------------------
 .byte   W96
@  #02 @036   ----------------------------------------
 .byte   W96
@  #02 @037   ----------------------------------------
 .byte   W96
@  #02 @038   ----------------------------------------
 .byte   W96
@  #02 @039   ----------------------------------------
 .byte   W96
@  #02 @040   ----------------------------------------
 .byte   W96
@  #02 @041   ----------------------------------------
 .byte   W96
@  #02 @042   ----------------------------------------
 .byte   W96
@  #02 @043   ----------------------------------------
 .byte   W96
@  #02 @044   ----------------------------------------
 .byte   W96
@  #02 @045   ----------------------------------------
 .byte   W96
@  #02 @046   ----------------------------------------
 .byte   W96
@  #02 @047   ----------------------------------------
 .byte   W96
@  #02 @048   ----------------------------------------
 .byte   W96
@  #02 @049   ----------------------------------------
 .byte   W96
@  #02 @050   ----------------------------------------
 .byte   W96
@  #02 @051   ----------------------------------------
 .byte   W96
@  #02 @052   ----------------------------------------
 .byte   W96
@  #02 @053   ----------------------------------------
 .byte   W96
@  #02 @054   ----------------------------------------
 .byte   W96
@  #02 @055   ----------------------------------------
 .byte   W96
@  #02 @056   ----------------------------------------
 .byte   W96
@  #02 @057   ----------------------------------------
 .byte   W96
@  #02 @058   ----------------------------------------
 .byte   W96
@  #02 @059   ----------------------------------------
 .byte   W96
@  #02 @060   ----------------------------------------
 .byte   W96
@  #02 @061   ----------------------------------------
 .byte   W96
@  #02 @062   ----------------------------------------
 .byte   W96
@  #02 @063   ----------------------------------------
 .byte   W96
@  #02 @064   ----------------------------------------
 .byte   W96
@  #02 @065   ----------------------------------------
 .byte   W96
@  #02 @066   ----------------------------------------
Label_015F7EAF:
 .byte   N11 ,Cn4 ,v080
 .byte   N11 ,En4
 .byte   W24
 .byte   Cn4
 .byte   N11 ,En4
 .byte   W24
 .byte   Cn4
 .byte   N11 ,En4
 .byte   W24
 .byte   Cn4
 .byte   N11 ,En4
 .byte   W24
 .byte   PEND 
@  #02 @067   ----------------------------------------
 .byte   As3
 .byte   N11 ,Dn4
 .byte   W24
 .byte   As3
 .byte   N11 ,Dn4
 .byte   W24
 .byte   As3
 .byte   N11 ,Dn4
 .byte   W24
 .byte   As3
 .byte   N11 ,Dn4
 .byte   W24
@  #02 @068   ----------------------------------------
 .byte   PATT
  .word Label_015F7EAF
@  #02 @069   ----------------------------------------
 .byte   N11 ,As3 ,v080
 .byte   N11 ,Dn4
 .byte   W24
 .byte   As3
 .byte   N11 ,Dn4
 .byte   W24
 .byte   Ds4
 .byte   W12
 .byte   Dn4
 .byte   W12
 .byte   Cn4
 .byte   W18
 .byte   N05 ,An3
 .byte   W06
@  #02 @070   ----------------------------------------
 .byte   N68 ,Cn4
 .byte   N68 ,En4
 .byte   W96
@  #02 @071   ----------------------------------------
 .byte   W24
 .byte   GOTO
  .word Label_015F7E77
 .byte   FINE

@**************** Track 3 (Midi-Chn.2) ****************@

song01_003:
@  #03 @000   ----------------------------------------
 .byte   KEYSH , song01_key+0
 .byte   VOICE , 110
 .byte   VOL , 50*song01_mvl/mxv
 .byte   PAN , c_v+0
 .byte   W96
@  #03 @001   ----------------------------------------
 .byte   W84
 .byte   N02 ,En4 ,v080
 .byte   W02
 .byte   Fn4
 .byte   W03
 .byte   N18 ,Gn4
 .byte   W07
@  #03 @002   ----------------------------------------
 .byte   W12
 .byte   N11
 .byte   W12
 .byte   N02 ,An4
 .byte   W02
 .byte   N32 ,As4
 .byte   W32
 .byte   W02
 .byte   N11 ,An4
 .byte   W12
 .byte   Fn4
 .byte   W12
 .byte   N23 ,Cn4
 .byte   W12
@  #03 @003   ----------------------------------------
 .byte   W12
 .byte   N11 ,Gn4
 .byte   N11 ,Cn5
 .byte   W84
@  #03 @004   ----------------------------------------
 .byte   W96
@  #03 @005   ----------------------------------------
 .byte   W96
@  #03 @006   ----------------------------------------
 .byte   W96
@  #03 @007   ----------------------------------------
 .byte   W96
@  #03 @008   ----------------------------------------
 .byte   W96
@  #03 @009   ----------------------------------------
 .byte   W96
@  #03 @010   ----------------------------------------
Label_015F3CF1:
 .byte   N23 ,Cn4 ,v080
 .byte   W24
 .byte   N05 ,En4
 .byte   W12
 .byte   Gn4
 .byte   W12
 .byte   N17 ,As4
 .byte   W18
 .byte   N05 ,An4
 .byte   W06
 .byte   Gn4
 .byte   W12
 .byte   N11 ,En4
 .byte   W12
 .byte   PEND 
@  #03 @011   ----------------------------------------
Label_015F3D06:
 .byte   N11 ,As3 ,v080
 .byte   W12
 .byte   Cn4
 .byte   W24
 .byte   As3
 .byte   W12
 .byte   N23 ,Cn4
 .byte   W48
 .byte   PEND 
@  #03 @012   ----------------------------------------
 .byte   PATT
  .word Label_015F3CF1
@  #03 @013   ----------------------------------------
 .byte   PATT
  .word Label_015F3D06
@  #03 @014   ----------------------------------------
 .byte   PATT
  .word Label_015F3CF1
@  #03 @015   ----------------------------------------
 .byte   PATT
  .word Label_015F3D06
@  #03 @016   ----------------------------------------
Label_015F3D26:
 .byte   N17 ,Cn4 ,v080
 .byte   W18
 .byte   N02
 .byte   W06
 .byte   N05 ,En4
 .byte   W12
 .byte   Gn4
 .byte   W12
 .byte   N17 ,As4
 .byte   W18
 .byte   N05 ,An4
 .byte   W06
 .byte   Gn4
 .byte   W12
 .byte   N11 ,En4
 .byte   W12
 .byte   PEND 
@  #03 @017   ----------------------------------------
Label_015F3D3D:
 .byte   N11 ,As3 ,v080
 .byte   W12
 .byte   Cn4
 .byte   W12
 .byte   N05
 .byte   W12
 .byte   N11 ,As3
 .byte   W12
 .byte   N23 ,Cn4
 .byte   W24
 .byte   N17
 .byte   W18
 .byte   N02
 .byte   W06
 .byte   PEND 
@  #03 @018   ----------------------------------------
Label_015F3D50:
 .byte   N23 ,An4 ,v080
 .byte   W24
 .byte   N17
 .byte   W18
 .byte   N02 ,Gn4
 .byte   W18
 .byte   N32 ,Cn4
 .byte   W36
 .byte   PEND 
@  #03 @019   ----------------------------------------
Label_015F3D5D:
 .byte   N23 ,An4 ,v080
 .byte   W24
 .byte   N17
 .byte   W18
 .byte   N02 ,Gn4
 .byte   W18
 .byte   N23 ,Cn4
 .byte   W36
 .byte   PEND 
@  #03 @020   ----------------------------------------
 .byte   An4
 .byte   W24
 .byte   N17
 .byte   W18
 .byte   N02 ,Gn4
 .byte   W18
 .byte   N23 ,En4
 .byte   W24
 .byte   N44 ,Dn4
 .byte   W12
@  #03 @021   ----------------------------------------
Label_015F3D77:
 .byte   W60
 .byte   N05 ,En4 ,v080
 .byte   W06
 .byte   Dn4
 .byte   W06
 .byte   N11 ,Cn4
 .byte   W18
 .byte   N05 ,An3
 .byte   W06
 .byte   PEND 
@  #03 @022   ----------------------------------------
 .byte   N23 ,Cn4
 .byte   W96
@  #03 @023   ----------------------------------------
 .byte   W96
@  #03 @024   ----------------------------------------
 .byte   W96
@  #03 @025   ----------------------------------------
 .byte   W96
@  #03 @026   ----------------------------------------
 .byte   W96
@  #03 @027   ----------------------------------------
 .byte   W96
@  #03 @028   ----------------------------------------
 .byte   W96
@  #03 @029   ----------------------------------------
 .byte   W96
@  #03 @030   ----------------------------------------
 .byte   W96
@  #03 @031   ----------------------------------------
 .byte   W96
@  #03 @032   ----------------------------------------
 .byte   W96
@  #03 @033   ----------------------------------------
 .byte   W96
@  #03 @034   ----------------------------------------
 .byte   W96
@  #03 @035   ----------------------------------------
 .byte   W96
@  #03 @036   ----------------------------------------
 .byte   W96
@  #03 @037   ----------------------------------------
 .byte   W96
@  #03 @038   ----------------------------------------
 .byte   W96
@  #03 @039   ----------------------------------------
 .byte   W96
@  #03 @040   ----------------------------------------
 .byte   W96
@  #03 @041   ----------------------------------------
 .byte   W96
@  #03 @042   ----------------------------------------
 .byte   W96
@  #03 @043   ----------------------------------------
 .byte   W96
@  #03 @044   ----------------------------------------
 .byte   W96
@  #03 @045   ----------------------------------------
 .byte   W96
@  #03 @046   ----------------------------------------
 .byte   W96
@  #03 @047   ----------------------------------------
 .byte   W96
@  #03 @048   ----------------------------------------
 .byte   W96
@  #03 @049   ----------------------------------------
 .byte   W96
@  #03 @050   ----------------------------------------
 .byte   W96
@  #03 @051   ----------------------------------------
 .byte   W96
@  #03 @052   ----------------------------------------
 .byte   W96
@  #03 @053   ----------------------------------------
 .byte   W96
@  #03 @054   ----------------------------------------
 .byte   PATT
  .word Label_015F3CF1
@  #03 @055   ----------------------------------------
 .byte   PATT
  .word Label_015F3D06
@  #03 @056   ----------------------------------------
 .byte   PATT
  .word Label_015F3CF1
@  #03 @057   ----------------------------------------
 .byte   PATT
  .word Label_015F3D06
@  #03 @058   ----------------------------------------
 .byte   PATT
  .word Label_015F3CF1
@  #03 @059   ----------------------------------------
 .byte   PATT
  .word Label_015F3D06
@  #03 @060   ----------------------------------------
 .byte   PATT
  .word Label_015F3D26
@  #03 @061   ----------------------------------------
 .byte   PATT
  .word Label_015F3D3D
@  #03 @062   ----------------------------------------
 .byte   PATT
  .word Label_015F3D50
@  #03 @063   ----------------------------------------
 .byte   PATT
  .word Label_015F3D5D
@  #03 @064   ----------------------------------------
 .byte   N23 ,An4 ,v080
 .byte   W24
 .byte   N17
 .byte   W18
 .byte   N11 ,Gn4
 .byte   W06
 .byte   W12
 .byte   N23 ,En4
 .byte   W24
 .byte   N44 ,Dn4
 .byte   W12
@  #03 @065   ----------------------------------------
 .byte   PATT
  .word Label_015F3D77
@  #03 @066   ----------------------------------------
Label_015F3DEE:
 .byte   N44 ,Cn4 ,v080
 .byte   W60
 .byte   N05 ,En4
 .byte   W06
 .byte   Dn4
 .byte   W06
 .byte   N11 ,Cn4
 .byte   W18
 .byte   N05 ,An3
 .byte   W06
 .byte   PEND 
@  #03 @067   ----------------------------------------
 .byte   N44 ,As3
 .byte   W60
 .byte   N05 ,En4
 .byte   W06
 .byte   Dn4
 .byte   W06
 .byte   N11 ,Cn4
 .byte   W18
 .byte   N05 ,An3
 .byte   W06
@  #03 @068   ----------------------------------------
 .byte   PATT
  .word Label_015F3DEE
@  #03 @069   ----------------------------------------
 .byte   N44 ,As3 ,v080
 .byte   W48
 .byte   N11 ,Ds4
 .byte   W12
 .byte   Dn4
 .byte   W12
 .byte   Cn4
 .byte   W18
 .byte   N05 ,An3
 .byte   W06
@  #03 @070   ----------------------------------------
 .byte   N68 ,Cn4
 .byte   W96
@  #03 @071   ----------------------------------------
 .byte   W24
 .byte   GOTO
  .word Label_015F3CF1
 .byte   FINE

@**************** Track 4 (Midi-Chn.3) ****************@

song01_004:
@  #04 @000   ----------------------------------------
 .byte   KEYSH , song01_key+0
 .byte   VOICE , 60
 .byte   VOL , 44*song01_mvl/mxv
 .byte   PAN , c_v+0
 .byte   N05 ,Bn2 ,v080
 .byte   N05 ,Ds3
 .byte   N05 ,Fs3
 .byte   W06
 .byte   Bn2
 .byte   N05 ,Ds3
 .byte   N05 ,Fs3
 .byte   W06
 .byte   Bn2
 .byte   N05 ,Ds3
 .byte   N05 ,Fs3
 .byte   W12
 .byte   Bn2
 .byte   N05 ,Ds3
 .byte   N05 ,Fs3
 .byte   W06
 .byte   Bn2
 .byte   N05 ,Ds3
 .byte   N05 ,Fs3
 .byte   W06
 .byte   N44 ,Bn2
 .byte   N44 ,Ds3
 .byte   N44 ,Fs3
 .byte   W60
@  #04 @001   ----------------------------------------
 .byte   N05 ,Fs2
 .byte   N05 ,Bn2
 .byte   N05 ,Ds3
 .byte   N05 ,Fs3
 .byte   W06
 .byte   Fs2
 .byte   N05 ,Bn2
 .byte   N05 ,Ds3
 .byte   N05 ,Fs3
 .byte   W06
 .byte   Fs2
 .byte   N05 ,Bn2
 .byte   N05 ,Ds3
 .byte   N05 ,Fs3
 .byte   W12
 .byte   Fs2
 .byte   N05 ,Bn2
 .byte   N05 ,Ds3
 .byte   N05 ,Fs3
 .byte   W06
 .byte   Fs2
 .byte   N05 ,Bn2
 .byte   N05 ,Ds3
 .byte   N05 ,Fs3
 .byte   W06
 .byte   N44 ,Fs2
 .byte   N44 ,Bn2
 .byte   N44 ,Ds3
 .byte   N44 ,Fs3
 .byte   W60
@  #04 @002   ----------------------------------------
 .byte   W96
@  #04 @003   ----------------------------------------
 .byte   W96
@  #04 @004   ----------------------------------------
 .byte   W96
@  #04 @005   ----------------------------------------
 .byte   W96
@  #04 @006   ----------------------------------------
 .byte   W96
@  #04 @007   ----------------------------------------
 .byte   W96
@  #04 @008   ----------------------------------------
 .byte   W96
@  #04 @009   ----------------------------------------
 .byte   W96
@  #04 @010   ----------------------------------------
Label_015F7685:
 .byte   W96
@  #04 @011   ----------------------------------------
 .byte   W96
@  #04 @012   ----------------------------------------
 .byte   W96
@  #04 @013   ----------------------------------------
 .byte   W96
@  #04 @014   ----------------------------------------
 .byte   W96
@  #04 @015   ----------------------------------------
 .byte   W96
@  #04 @016   ----------------------------------------
 .byte   W96
@  #04 @017   ----------------------------------------
 .byte   W96
@  #04 @018   ----------------------------------------
 .byte   W96
@  #04 @019   ----------------------------------------
 .byte   W96
@  #04 @020   ----------------------------------------
 .byte   W96
@  #04 @021   ----------------------------------------
 .byte   W96
@  #04 @022   ----------------------------------------
 .byte   W96
@  #04 @023   ----------------------------------------
 .byte   W96
@  #04 @024   ----------------------------------------
 .byte   W96
@  #04 @025   ----------------------------------------
 .byte   W96
@  #04 @026   ----------------------------------------
 .byte   W96
@  #04 @027   ----------------------------------------
 .byte   W96
@  #04 @028   ----------------------------------------
 .byte   W96
@  #04 @029   ----------------------------------------
 .byte   W96
@  #04 @030   ----------------------------------------
 .byte   W96
@  #04 @031   ----------------------------------------
 .byte   W96
@  #04 @032   ----------------------------------------
 .byte   W96
@  #04 @033   ----------------------------------------
 .byte   W96
@  #04 @034   ----------------------------------------
 .byte   W96
@  #04 @035   ----------------------------------------
 .byte   W96
@  #04 @036   ----------------------------------------
 .byte   W96
@  #04 @037   ----------------------------------------
 .byte   W96
@  #04 @038   ----------------------------------------
 .byte   W96
@  #04 @039   ----------------------------------------
 .byte   W96
@  #04 @040   ----------------------------------------
 .byte   W96
@  #04 @041   ----------------------------------------
 .byte   W96
@  #04 @042   ----------------------------------------
 .byte   W96
@  #04 @043   ----------------------------------------
 .byte   W96
@  #04 @044   ----------------------------------------
 .byte   W96
@  #04 @045   ----------------------------------------
 .byte   W96
@  #04 @046   ----------------------------------------
 .byte   W96
@  #04 @047   ----------------------------------------
 .byte   W96
@  #04 @048   ----------------------------------------
 .byte   W96
@  #04 @049   ----------------------------------------
 .byte   W96
@  #04 @050   ----------------------------------------
 .byte   W96
@  #04 @051   ----------------------------------------
 .byte   W96
@  #04 @052   ----------------------------------------
 .byte   W96
@  #04 @053   ----------------------------------------
 .byte   W96
@  #04 @054   ----------------------------------------
 .byte   W96
@  #04 @055   ----------------------------------------
 .byte   W96
@  #04 @056   ----------------------------------------
 .byte   W96
@  #04 @057   ----------------------------------------
 .byte   W96
@  #04 @058   ----------------------------------------
 .byte   W96
@  #04 @059   ----------------------------------------
 .byte   W96
@  #04 @060   ----------------------------------------
 .byte   W96
@  #04 @061   ----------------------------------------
 .byte   W96
@  #04 @062   ----------------------------------------
 .byte   W96
@  #04 @063   ----------------------------------------
 .byte   W96
@  #04 @064   ----------------------------------------
 .byte   W96
@  #04 @065   ----------------------------------------
 .byte   W96
@  #04 @066   ----------------------------------------
 .byte   W96
@  #04 @067   ----------------------------------------
 .byte   W96
@  #04 @068   ----------------------------------------
 .byte   W96
@  #04 @069   ----------------------------------------
 .byte   W96
@  #04 @070   ----------------------------------------
 .byte   W96
@  #04 @071   ----------------------------------------
 .byte   W24
 .byte   GOTO
  .word Label_015F7685
 .byte   FINE

@**************** Track 5 (Midi-Chn.4) ****************@

song01_005:
@  #05 @000   ----------------------------------------
 .byte   KEYSH , song01_key+0
 .byte   VOICE , 68
 .byte   VOL , 35*song01_mvl/mxv
 .byte   PAN , c_v+0
 .byte   W96
@  #05 @001   ----------------------------------------
 .byte   W96
@  #05 @002   ----------------------------------------
 .byte   W96
@  #05 @003   ----------------------------------------
 .byte   W96
@  #05 @004   ----------------------------------------
 .byte   W96
@  #05 @005   ----------------------------------------
 .byte   W96
@  #05 @006   ----------------------------------------
 .byte   W96
@  #05 @007   ----------------------------------------
 .byte   W96
@  #05 @008   ----------------------------------------
 .byte   W96
@  #05 @009   ----------------------------------------
 .byte   W96
@  #05 @010   ----------------------------------------
Label_015F39C6:
 .byte   W96
@  #05 @011   ----------------------------------------
 .byte   W96
@  #05 @012   ----------------------------------------
 .byte   W96
@  #05 @013   ----------------------------------------
 .byte   W96
@  #05 @014   ----------------------------------------
 .byte   W96
@  #05 @015   ----------------------------------------
 .byte   W96
@  #05 @016   ----------------------------------------
 .byte   W96
@  #05 @017   ----------------------------------------
 .byte   W96
@  #05 @018   ----------------------------------------
 .byte   W96
@  #05 @019   ----------------------------------------
 .byte   W96
@  #05 @020   ----------------------------------------
 .byte   W96
@  #05 @021   ----------------------------------------
 .byte   W96
@  #05 @022   ----------------------------------------
 .byte   W96
@  #05 @023   ----------------------------------------
 .byte   W96
@  #05 @024   ----------------------------------------
 .byte   W96
@  #05 @025   ----------------------------------------
 .byte   W96
@  #05 @026   ----------------------------------------
 .byte   W96
@  #05 @027   ----------------------------------------
 .byte   W96
@  #05 @028   ----------------------------------------
 .byte   W96
@  #05 @029   ----------------------------------------
 .byte   W96
@  #05 @030   ----------------------------------------
 .byte   W96
@  #05 @031   ----------------------------------------
 .byte   W96
@  #05 @032   ----------------------------------------
 .byte   W96
@  #05 @033   ----------------------------------------
 .byte   W96
@  #05 @034   ----------------------------------------
 .byte   W96
@  #05 @035   ----------------------------------------
 .byte   W96
@  #05 @036   ----------------------------------------
 .byte   W96
@  #05 @037   ----------------------------------------
 .byte   W96
@  #05 @038   ----------------------------------------
 .byte   W96
@  #05 @039   ----------------------------------------
 .byte   W96
@  #05 @040   ----------------------------------------
 .byte   W96
@  #05 @041   ----------------------------------------
 .byte   W96
@  #05 @042   ----------------------------------------
 .byte   N23 ,En4 ,v080
 .byte   W24
 .byte   N23
 .byte   W24
 .byte   N23
 .byte   W24
 .byte   N11 ,Dn4
 .byte   W12
 .byte   Cn4
 .byte   W12
@  #05 @043   ----------------------------------------
 .byte   Dn4
 .byte   W12
 .byte   En4
 .byte   W12
 .byte   N36
 .byte   W36
 .byte   N11
 .byte   W12
 .byte   N11
 .byte   W12
 .byte   N11
 .byte   W12
@  #05 @044   ----------------------------------------
 .byte   An4
 .byte   W12
 .byte   En4
 .byte   W12
 .byte   N36
 .byte   W36
 .byte   N11
 .byte   W12
 .byte   Dn4
 .byte   W12
 .byte   Cn4
 .byte   W12
@  #05 @045   ----------------------------------------
 .byte   Dn4
 .byte   W12
 .byte   En4
 .byte   W12
 .byte   N36
 .byte   W36
 .byte   N11
 .byte   W12
 .byte   Dn4
 .byte   W12
 .byte   Cn4
 .byte   W12
@  #05 @046   ----------------------------------------
Label_015F3A17:
 .byte   N17 ,Cn4 ,v080
 .byte   W18
 .byte   N05
 .byte   W06
 .byte   N17 ,En4
 .byte   W18
 .byte   N05
 .byte   W06
 .byte   N17 ,Dn4
 .byte   W18
 .byte   N05
 .byte   W06
 .byte   N17 ,Gn4
 .byte   W18
 .byte   N05
 .byte   W06
 .byte   PEND 
@  #05 @047   ----------------------------------------
Label_015F3A2D:
 .byte   N17 ,En4 ,v080
 .byte   W18
 .byte   N05
 .byte   W06
 .byte   N11 ,Gn4
 .byte   W12
 .byte   N24 ,An4
 .byte   W24
 .byte   N11 ,En4
 .byte   W12
 .byte   Dn4
 .byte   W12
 .byte   Cn4
 .byte   W12
 .byte   PEND 
@  #05 @048   ----------------------------------------
Label_015F3A41:
 .byte   N17 ,Cn4 ,v080
 .byte   W18
 .byte   N05
 .byte   W06
 .byte   N11 ,En4
 .byte   W12
 .byte   N23 ,Dn4
 .byte   W12
 .byte   W12
 .byte   N11 ,Cn4
 .byte   W12
 .byte   Bn3
 .byte   W12
 .byte   N96 ,Cn4
 .byte   W12
 .byte   PEND 
@  #05 @049   ----------------------------------------
 .byte   W96
@  #05 @050   ----------------------------------------
 .byte   PATT
  .word Label_015F3A17
@  #05 @051   ----------------------------------------
 .byte   PATT
  .word Label_015F3A2D
@  #05 @052   ----------------------------------------
 .byte   PATT
  .word Label_015F3A41
@  #05 @053   ----------------------------------------
 .byte   W96
@  #05 @054   ----------------------------------------
 .byte   W96
@  #05 @055   ----------------------------------------
 .byte   W96
@  #05 @056   ----------------------------------------
 .byte   W96
@  #05 @057   ----------------------------------------
 .byte   W96
@  #05 @058   ----------------------------------------
 .byte   W96
@  #05 @059   ----------------------------------------
 .byte   W96
@  #05 @060   ----------------------------------------
 .byte   W96
@  #05 @061   ----------------------------------------
 .byte   W96
@  #05 @062   ----------------------------------------
 .byte   W96
@  #05 @063   ----------------------------------------
 .byte   W96
@  #05 @064   ----------------------------------------
 .byte   W96
@  #05 @065   ----------------------------------------
 .byte   W96
@  #05 @066   ----------------------------------------
 .byte   W96
@  #05 @067   ----------------------------------------
 .byte   W96
@  #05 @068   ----------------------------------------
 .byte   W96
@  #05 @069   ----------------------------------------
 .byte   W96
@  #05 @070   ----------------------------------------
 .byte   W96
@  #05 @071   ----------------------------------------
 .byte   W24
 .byte   GOTO
  .word Label_015F39C6
 .byte   FINE

@**************** Track 6 (Midi-Chn.5) ****************@

song01_006:
@  #06 @000   ----------------------------------------
 .byte   KEYSH , song01_key+0
 .byte   VOICE , 1
 .byte   VOL , 30*song01_mvl/mxv
 .byte   PAN , c_v+0
 .byte   W96
@  #06 @001   ----------------------------------------
 .byte   W96
@  #06 @002   ----------------------------------------
 .byte   W96
@  #06 @003   ----------------------------------------
 .byte   W96
@  #06 @004   ----------------------------------------
 .byte   W96
@  #06 @005   ----------------------------------------
 .byte   W96
@  #06 @006   ----------------------------------------
 .byte   W96
@  #06 @007   ----------------------------------------
 .byte   W96
@  #06 @008   ----------------------------------------
 .byte   W96
@  #06 @009   ----------------------------------------
 .byte   W96
@  #06 @010   ----------------------------------------
Label_015F3E4E:
 .byte   W96
@  #06 @011   ----------------------------------------
 .byte   W96
@  #06 @012   ----------------------------------------
 .byte   W96
@  #06 @013   ----------------------------------------
 .byte   W96
@  #06 @014   ----------------------------------------
 .byte   W96
@  #06 @015   ----------------------------------------
 .byte   W96
@  #06 @016   ----------------------------------------
 .byte   W96
@  #06 @017   ----------------------------------------
 .byte   W96
@  #06 @018   ----------------------------------------
Label_015F3E56:
 .byte   N22 ,Cn3 ,v080
 .byte   N22 ,An3
 .byte   W24
 .byte   N17 ,Cn3
 .byte   N17 ,An3
 .byte   W18
 .byte   N02 ,En3
 .byte   N02 ,Cn4
 .byte   W18
 .byte   N32 ,En3
 .byte   N32 ,Cn4
 .byte   W36
 .byte   PEND 
@  #06 @019   ----------------------------------------
Label_015F3E6C:
 .byte   N22 ,Cn3 ,v080
 .byte   N22 ,An3
 .byte   W24
 .byte   N17 ,Cn3
 .byte   N17 ,An3
 .byte   W18
 .byte   N02 ,En3
 .byte   N02 ,Cn4
 .byte   W18
 .byte   N22 ,En3
 .byte   N22 ,Cn4
 .byte   W24
 .byte   N11 ,En3
 .byte   N11 ,Cn4
 .byte   W12
 .byte   PEND 
@  #06 @020   ----------------------------------------
Label_015F3E87:
 .byte   N22 ,Cn3 ,v080
 .byte   N22 ,An3
 .byte   W24
 .byte   N17 ,Cn3
 .byte   N17 ,An3
 .byte   W18
 .byte   N02 ,En3
 .byte   N02 ,Cn4
 .byte   W18
 .byte   N22 ,En3
 .byte   N22 ,Cn4
 .byte   W24
 .byte   N44 ,Dn3
 .byte   N44 ,Bn3
 .byte   W12
 .byte   PEND 
@  #06 @021   ----------------------------------------
Label_015F3EA2:
 .byte   W60
 .byte   N05 ,En4 ,v080
 .byte   W06
 .byte   Dn4
 .byte   W06
 .byte   N11 ,Cn4
 .byte   W18
 .byte   N05 ,An3
 .byte   W06
 .byte   PEND 
@  #06 @022   ----------------------------------------
Label_015F3EB0:
 .byte   N22 ,Cn4 ,v080
 .byte   W96
 .byte   PEND 
@  #06 @023   ----------------------------------------
 .byte   W96
@  #06 @024   ----------------------------------------
 .byte   W96
@  #06 @025   ----------------------------------------
 .byte   W96
@  #06 @026   ----------------------------------------
 .byte   W96
@  #06 @027   ----------------------------------------
 .byte   W96
@  #06 @028   ----------------------------------------
 .byte   W96
@  #06 @029   ----------------------------------------
 .byte   W96
@  #06 @030   ----------------------------------------
 .byte   W96
@  #06 @031   ----------------------------------------
 .byte   W96
@  #06 @032   ----------------------------------------
 .byte   W96
@  #06 @033   ----------------------------------------
 .byte   W96
@  #06 @034   ----------------------------------------
 .byte   PATT
  .word Label_015F3E56
@  #06 @035   ----------------------------------------
 .byte   PATT
  .word Label_015F3E6C
@  #06 @036   ----------------------------------------
 .byte   PATT
  .word Label_015F3E87
@  #06 @037   ----------------------------------------
 .byte   PATT
  .word Label_015F3EA2
@  #06 @038   ----------------------------------------
 .byte   PATT
  .word Label_015F3EB0
@  #06 @039   ----------------------------------------
 .byte   W96
@  #06 @040   ----------------------------------------
 .byte   W96
@  #06 @041   ----------------------------------------
 .byte   W96
@  #06 @042   ----------------------------------------
 .byte   N90 ,En2 ,v080
 .byte   N90 ,An2
 .byte   N90 ,Cn3
 .byte   N23 ,En3
 .byte   W03
 .byte   N20 ,An3
 .byte   W03
 .byte   N17 ,Cn4
 .byte   W03
 .byte   N14 ,En4
 .byte   W15
 .byte   N22
 .byte   W24
 .byte   N22
 .byte   W24
 .byte   N11 ,Dn4
 .byte   W12
 .byte   Cn4
 .byte   W12
@  #06 @043   ----------------------------------------
 .byte   N90 ,En2
 .byte   N90 ,Bn2
 .byte   N11 ,En3
 .byte   W01
 .byte   N09 ,Gs3
 .byte   W02
 .byte   N08 ,Bn3
 .byte   W02
 .byte   N06 ,Dn4
 .byte   W07
 .byte   N11 ,En4
 .byte   W12
 .byte   N11
 .byte   W36
 .byte   N11
 .byte   W12
 .byte   N11
 .byte   W12
 .byte   N11
 .byte   W12
@  #06 @044   ----------------------------------------
 .byte   N90 ,En2
 .byte   N90 ,An2
 .byte   N11 ,Cn4
 .byte   N11 ,En4
 .byte   N11 ,An4
 .byte   W12
 .byte   En4
 .byte   W12
 .byte   N11
 .byte   W36
 .byte   N11
 .byte   W12
 .byte   Dn4
 .byte   W12
 .byte   Cn4
 .byte   W12
@  #06 @045   ----------------------------------------
 .byte   N90 ,En2
 .byte   N90 ,Bn2
 .byte   N11 ,En3
 .byte   N11 ,Gs3
 .byte   N11 ,Dn4
 .byte   W12
 .byte   En4
 .byte   W12
 .byte   N11
 .byte   W36
 .byte   N11
 .byte   W12
 .byte   Dn4
 .byte   W12
 .byte   Cn4
 .byte   W12
@  #06 @046   ----------------------------------------
Label_015F3F3D:
 .byte   N44 ,Fn2 ,v080
 .byte   N44 ,Cn3
 .byte   N17 ,An3
 .byte   N17 ,Cn4
 .byte   W18
 .byte   N05 ,An3
 .byte   N05 ,Cn4
 .byte   W06
 .byte   N17
 .byte   N17 ,En4
 .byte   W18
 .byte   N05 ,Cn4
 .byte   N05 ,En4
 .byte   W06
 .byte   N44 ,Gn2
 .byte   N44 ,Dn3
 .byte   N17 ,Bn3
 .byte   N17 ,Dn4
 .byte   W18
 .byte   N05 ,Bn3
 .byte   N05 ,Dn4
 .byte   W06
 .byte   N17 ,Bn3
 .byte   N17 ,Gn4
 .byte   W18
 .byte   N05 ,Bn3
 .byte   N05 ,Gn4
 .byte   W06
 .byte   PEND 
@  #06 @047   ----------------------------------------
Label_015F3F6E:
 .byte   N22 ,Gn2 ,v080
 .byte   N22 ,En3
 .byte   N17 ,Cn4
 .byte   N17 ,En4
 .byte   W18
 .byte   N05 ,Cn4
 .byte   N05 ,En4
 .byte   W06
 .byte   N22 ,Bn2
 .byte   N11 ,En4
 .byte   N11 ,Gn4
 .byte   W12
 .byte   En4
 .byte   N11 ,An4
 .byte   W12
 .byte   N22 ,An2
 .byte   W12
 .byte   N11 ,En4
 .byte   W12
 .byte   N22 ,Gn2
 .byte   N11 ,Dn4
 .byte   W12
 .byte   Cn4
 .byte   W12
 .byte   PEND 
@  #06 @048   ----------------------------------------
Label_015F3F96:
 .byte   N90 ,Fn2 ,v080
 .byte   N90 ,Cn3
 .byte   N17 ,An3
 .byte   N17 ,Cn4
 .byte   W18
 .byte   N05 ,An3
 .byte   N05 ,Cn4
 .byte   W06
 .byte   N11
 .byte   N11 ,En4
 .byte   W12
 .byte   N22 ,Bn3
 .byte   N22 ,Dn4
 .byte   W12
 .byte   W12
 .byte   N11 ,Gn3
 .byte   N11 ,Cn4
 .byte   W12
 .byte   Gn3
 .byte   N11 ,Cn4
 .byte   W12
 .byte   Gn3
 .byte   N11 ,Cn4
 .byte   W12
 .byte   PEND 
@  #06 @049   ----------------------------------------
 .byte   N44 ,Cn2
 .byte   W60
 .byte   N11 ,Gn1
 .byte   N11 ,Bn2
 .byte   N11 ,Dn3
 .byte   N11 ,Gn3
 .byte   W12
 .byte   Gn1
 .byte   N11 ,Bn2
 .byte   N11 ,Dn3
 .byte   N11 ,Gn3
 .byte   W24
@  #06 @050   ----------------------------------------
 .byte   PATT
  .word Label_015F3F3D
@  #06 @051   ----------------------------------------
 .byte   PATT
  .word Label_015F3F6E
@  #06 @052   ----------------------------------------
 .byte   PATT
  .word Label_015F3F96
@  #06 @053   ----------------------------------------
 .byte   N90 ,Cn3 ,v080
 .byte   W96
@  #06 @054   ----------------------------------------
Label_015F3FE4:
 .byte   N22 ,Cn3 ,v080
 .byte   W24
 .byte   N05 ,En3
 .byte   W12
 .byte   Gn3
 .byte   W12
 .byte   N17 ,As3
 .byte   W18
 .byte   N05 ,An3
 .byte   W06
 .byte   Gn3
 .byte   W12
 .byte   N11 ,En3
 .byte   W12
 .byte   PEND 
@  #06 @055   ----------------------------------------
Label_015F3FF9:
 .byte   N11 ,As2 ,v080
 .byte   W12
 .byte   Cn3
 .byte   W24
 .byte   As2
 .byte   W12
 .byte   N22 ,Cn3
 .byte   W48
 .byte   PEND 
@  #06 @056   ----------------------------------------
 .byte   PATT
  .word Label_015F3FE4
@  #06 @057   ----------------------------------------
 .byte   PATT
  .word Label_015F3FF9
@  #06 @058   ----------------------------------------
 .byte   PATT
  .word Label_015F3FE4
@  #06 @059   ----------------------------------------
 .byte   PATT
  .word Label_015F3FF9
@  #06 @060   ----------------------------------------
 .byte   N17 ,Cn3 ,v080
 .byte   W18
 .byte   N02
 .byte   W06
 .byte   N05 ,En3
 .byte   W12
 .byte   Gn3
 .byte   W12
 .byte   N17 ,As3
 .byte   W18
 .byte   N05 ,An3
 .byte   W06
 .byte   Gn3
 .byte   W12
 .byte   N11 ,En3
 .byte   W12
@  #06 @061   ----------------------------------------
 .byte   As2
 .byte   W12
 .byte   Cn3
 .byte   W12
 .byte   N05
 .byte   W12
 .byte   N11 ,As2
 .byte   W12
 .byte   N22 ,Cn3
 .byte   W24
 .byte   N17
 .byte   W18
 .byte   N02
 .byte   W06
@  #06 @062   ----------------------------------------
 .byte   PATT
  .word Label_015F3E56
@  #06 @063   ----------------------------------------
 .byte   PATT
  .word Label_015F3E6C
@  #06 @064   ----------------------------------------
 .byte   PATT
  .word Label_015F3E87
@  #06 @065   ----------------------------------------
 .byte   PATT
  .word Label_015F3EA2
@  #06 @066   ----------------------------------------
Label_015F4053:
 .byte   N44 ,Cn4 ,v080
 .byte   W60
 .byte   N05 ,En4
 .byte   W06
 .byte   Dn4
 .byte   W06
 .byte   N11 ,Cn4
 .byte   W18
 .byte   N05 ,An3
 .byte   W06
 .byte   PEND 
@  #06 @067   ----------------------------------------
 .byte   N44 ,As3
 .byte   W60
 .byte   N05 ,En4
 .byte   W06
 .byte   Dn4
 .byte   W06
 .byte   N11 ,Cn4
 .byte   W18
 .byte   N05 ,An3
 .byte   W06
@  #06 @068   ----------------------------------------
 .byte   PATT
  .word Label_015F4053
@  #06 @069   ----------------------------------------
 .byte   N44 ,As3 ,v080
 .byte   W48
 .byte   N11 ,Ds4
 .byte   W12
 .byte   Dn4
 .byte   W12
 .byte   Cn4
 .byte   W18
 .byte   N05 ,An3
 .byte   W06
@  #06 @070   ----------------------------------------
 .byte   N68 ,Cn4
 .byte   W96
@  #06 @071   ----------------------------------------
 .byte   W24
 .byte   GOTO
  .word Label_015F3E4E
 .byte   FINE

@**************** Track 7 (Midi-Chn.6) ****************@

song01_007:
@  #07 @000   ----------------------------------------
 .byte   KEYSH , song01_key+0
 .byte   VOICE , 30
 .byte   VOL , 45*song01_mvl/mxv
 .byte   PAN , c_v+0
 .byte   W96
@  #07 @001   ----------------------------------------
 .byte   W96
@  #07 @002   ----------------------------------------
 .byte   W96
@  #07 @003   ----------------------------------------
 .byte   W96
@  #07 @004   ----------------------------------------
 .byte   W96
@  #07 @005   ----------------------------------------
 .byte   W96
@  #07 @006   ----------------------------------------
 .byte   W96
@  #07 @007   ----------------------------------------
Label_015F40AF:
 .byte   W48
 .byte   N23 ,Fn1 ,v052
 .byte   N23 ,Cn2
 .byte   W24
 .byte   Fn1
 .byte   N23 ,Cn2
 .byte   W24
 .byte   PEND 
@  #07 @008   ----------------------------------------
 .byte   W96
@  #07 @009   ----------------------------------------
 .byte   PATT
  .word Label_015F40AF
@  #07 @010   ----------------------------------------
Label_015F40C1:
 .byte   W96
@  #07 @011   ----------------------------------------
 .byte   PATT
  .word Label_015F40AF
@  #07 @012   ----------------------------------------
 .byte   W96
@  #07 @013   ----------------------------------------
 .byte   PATT
  .word Label_015F40AF
@  #07 @014   ----------------------------------------
 .byte   W96
@  #07 @015   ----------------------------------------
 .byte   PATT
  .word Label_015F40AF
@  #07 @016   ----------------------------------------
 .byte   W96
@  #07 @017   ----------------------------------------
 .byte   PATT
  .word Label_015F40AF
@  #07 @018   ----------------------------------------
 .byte   W96
@  #07 @019   ----------------------------------------
 .byte   W96
@  #07 @020   ----------------------------------------
 .byte   W96
@  #07 @021   ----------------------------------------
 .byte   W96
@  #07 @022   ----------------------------------------
Label_015F40DD:
 .byte   N23 ,Gn1 ,v080
 .byte   N23 ,Cn2
 .byte   W24
 .byte   N11 ,Ds2
 .byte   W12
 .byte   En2
 .byte   W12
 .byte   Gn1
 .byte   N11 ,Cn2
 .byte   W12
 .byte   Ds2
 .byte   W12
 .byte   En2
 .byte   W12
 .byte   N23 ,Gn1
 .byte   N23 ,Cn2
 .byte   W12
 .byte   PEND 
@  #07 @023   ----------------------------------------
Label_015F40F6:
 .byte   W12
 .byte   N11 ,Ds2 ,v080
 .byte   W12
 .byte   En2
 .byte   W12
 .byte   Cn2
 .byte   W12
 .byte   N23 ,Cn2 ,v056
 .byte   N23 ,An2 ,v080
 .byte   W24
 .byte   N11 ,Cn2 ,v056
 .byte   N11 ,Gn2 ,v080
 .byte   W24
 .byte   PEND 
@  #07 @024   ----------------------------------------
Label_015F410E:
 .byte   N23 ,Gn1 ,v080
 .byte   N23 ,Cn2
 .byte   W24
 .byte   N11 ,Ds2
 .byte   W12
 .byte   En2
 .byte   W12
 .byte   Gn1
 .byte   N11 ,Cn2
 .byte   W12
 .byte   Ds2
 .byte   W12
 .byte   En2
 .byte   W12
 .byte   N23 ,Gn1
 .byte   N23 ,Cn2
 .byte   W12
 .byte   PEND 
@  #07 @025   ----------------------------------------
 .byte   PATT
  .word Label_015F40F6
@  #07 @026   ----------------------------------------
 .byte   W96
@  #07 @027   ----------------------------------------
 .byte   PATT
  .word Label_015F40AF
@  #07 @028   ----------------------------------------
 .byte   W96
@  #07 @029   ----------------------------------------
 .byte   PATT
  .word Label_015F40AF
@  #07 @030   ----------------------------------------
 .byte   W96
@  #07 @031   ----------------------------------------
 .byte   PATT
  .word Label_015F40AF
@  #07 @032   ----------------------------------------
 .byte   W96
@  #07 @033   ----------------------------------------
 .byte   PATT
  .word Label_015F40AF
@  #07 @034   ----------------------------------------
 .byte   W96
@  #07 @035   ----------------------------------------
 .byte   W96
@  #07 @036   ----------------------------------------
 .byte   W96
@  #07 @037   ----------------------------------------
 .byte   W96
@  #07 @038   ----------------------------------------
 .byte   PATT
  .word Label_015F40DD
@  #07 @039   ----------------------------------------
 .byte   PATT
  .word Label_015F40F6
@  #07 @040   ----------------------------------------
 .byte   PATT
  .word Label_015F410E
@  #07 @041   ----------------------------------------
 .byte   PATT
  .word Label_015F40F6
@  #07 @042   ----------------------------------------
Label_015F415C:
 .byte   N11 ,An1 ,v052
 .byte   W12
 .byte   En2
 .byte   W12
 .byte   N44 ,An2
 .byte   W72
 .byte   PEND 
@  #07 @043   ----------------------------------------
Label_015F4166:
 .byte   N11 ,En2 ,v052
 .byte   W12
 .byte   Gs2
 .byte   W12
 .byte   N44 ,Bn2
 .byte   W72
 .byte   PEND 
@  #07 @044   ----------------------------------------
 .byte   PATT
  .word Label_015F415C
@  #07 @045   ----------------------------------------
 .byte   PATT
  .word Label_015F4166
@  #07 @046   ----------------------------------------
 .byte   W96
@  #07 @047   ----------------------------------------
 .byte   W96
@  #07 @048   ----------------------------------------
 .byte   W96
@  #07 @049   ----------------------------------------
 .byte   W96
@  #07 @050   ----------------------------------------
 .byte   W96
@  #07 @051   ----------------------------------------
 .byte   W96
@  #07 @052   ----------------------------------------
 .byte   W96
@  #07 @053   ----------------------------------------
 .byte   W96
@  #07 @054   ----------------------------------------
 .byte   W96
@  #07 @055   ----------------------------------------
 .byte   PATT
  .word Label_015F40AF
@  #07 @056   ----------------------------------------
 .byte   W96
@  #07 @057   ----------------------------------------
 .byte   PATT
  .word Label_015F40AF
@  #07 @058   ----------------------------------------
 .byte   W96
@  #07 @059   ----------------------------------------
 .byte   PATT
  .word Label_015F40AF
@  #07 @060   ----------------------------------------
 .byte   W96
@  #07 @061   ----------------------------------------
 .byte   PATT
  .word Label_015F40AF
@  #07 @062   ----------------------------------------
 .byte   W96
@  #07 @063   ----------------------------------------
 .byte   W96
@  #07 @064   ----------------------------------------
 .byte   W96
@  #07 @065   ----------------------------------------
 .byte   W96
@  #07 @066   ----------------------------------------
 .byte   W96
@  #07 @067   ----------------------------------------
 .byte   W96
@  #07 @068   ----------------------------------------
 .byte   W96
@  #07 @069   ----------------------------------------
 .byte   W96
@  #07 @070   ----------------------------------------
 .byte   W96
@  #07 @071   ----------------------------------------
 .byte   W24
 .byte   GOTO
  .word Label_015F40C1
 .byte   FINE

@**************** Track 8 (Midi-Chn.7) ****************@

song01_008:
@  #08 @000   ----------------------------------------
 .byte   KEYSH , song01_key+0
 .byte   VOICE , 38
 .byte   VOL , 43*song01_mvl/mxv
 .byte   PAN , c_v-1
 .byte   En3 ,v064
 .byte   W96
@  #08 @001   ----------------------------------------
 .byte   W96
@  #08 @002   ----------------------------------------
 .byte   W96
@  #08 @003   ----------------------------------------
 .byte   W48
 .byte   N06 ,Cn2 ,v084
 .byte   W06
 .byte   N06
 .byte   W06
 .byte   N12 ,Gn2
 .byte   W12
 .byte   W24
@  #08 @004   ----------------------------------------
 .byte   N05 ,Cn2
 .byte   W12
 .byte   N05
 .byte   W12
 .byte   N05
 .byte   W12
 .byte   N05
 .byte   W12
 .byte   N05
 .byte   W12
 .byte   N05
 .byte   W12
 .byte   N05
 .byte   W12
 .byte   N05
 .byte   W12
@  #08 @005   ----------------------------------------
 .byte   N05
 .byte   W12
 .byte   N05
 .byte   W12
 .byte   N05
 .byte   W12
 .byte   N05
 .byte   W12
 .byte   N05
 .byte   W12
 .byte   N05
 .byte   W12
 .byte   N05
 .byte   W12
 .byte   N05
 .byte   W12
@  #08 @006   ----------------------------------------
Label_015F41F5:
 .byte   N23 ,Cn2 ,v084
 .byte   W24
 .byte   N11 ,Gn1
 .byte   W12
 .byte   As1
 .byte   W12
 .byte   Gn1
 .byte   W12
 .byte   N05 ,As1
 .byte   W12
 .byte   N23
 .byte   W24
 .byte   PEND 
@  #08 @007   ----------------------------------------
Label_015F4206:
 .byte   N11 ,Cn1 ,v084
 .byte   W12
 .byte   N05 ,Ds1
 .byte   W24
 .byte   N11 ,Cn1
 .byte   W12
 .byte   N23 ,Fn1
 .byte   W24
 .byte   N23
 .byte   W24
 .byte   PEND 
@  #08 @008   ----------------------------------------
 .byte   PATT
  .word Label_015F41F5
@  #08 @009   ----------------------------------------
 .byte   PATT
  .word Label_015F4206
@  #08 @010   ----------------------------------------
Label_015F4220:
@  #08 @011   ----------------------------------------
 .byte   PATT
  .word Label_015F41F5
@  #08 @012   ----------------------------------------
 .byte   PATT
  .word Label_015F4206
@  #08 @013   ----------------------------------------
 .byte   PATT
  .word Label_015F41F5
@  #08 @014   ----------------------------------------
 .byte   PATT
  .word Label_015F4206
@  #08 @015   ----------------------------------------
 .byte   PATT
  .word Label_015F41F5
@  #08 @016   ----------------------------------------
 .byte   PATT
  .word Label_015F4206
@  #08 @017   ----------------------------------------
 .byte   PATT
  .word Label_015F41F5
@  #08 @018   ----------------------------------------
 .byte   PATT
  .word Label_015F4206
@  #08 @019   ----------------------------------------
Label_015F4248:
 .byte   N23 ,Fn1 ,v084
 .byte   W24
 .byte   N17
 .byte   W18
 .byte   N02 ,Cn2
 .byte   W18
 .byte   N23
 .byte   W24
 .byte   N11 ,Gn1
 .byte   W12
 .byte   PEND 
@  #08 @020   ----------------------------------------
 .byte   PATT
  .word Label_015F4248
@  #08 @021   ----------------------------------------
Label_015F425C:
 .byte   N23 ,Fn1 ,v084
 .byte   W24
 .byte   N17
 .byte   W18
 .byte   N02 ,Cn2
 .byte   W18
 .byte   N23
 .byte   W24
 .byte   Gn1
 .byte   W12
 .byte   PEND 
@  #08 @022   ----------------------------------------
 .byte   W12
 .byte   N11
 .byte   W12
 .byte   N11
 .byte   W12
 .byte   N11
 .byte   W12
 .byte   N11
 .byte   W48
@  #08 @023   ----------------------------------------
 .byte   W96
@  #08 @024   ----------------------------------------
 .byte   W96
@  #08 @025   ----------------------------------------
 .byte   W96
@  #08 @026   ----------------------------------------
 .byte   W96
@  #08 @027   ----------------------------------------
 .byte   PATT
  .word Label_015F41F5
@  #08 @028   ----------------------------------------
 .byte   PATT
  .word Label_015F4206
@  #08 @029   ----------------------------------------
 .byte   PATT
  .word Label_015F41F5
@  #08 @030   ----------------------------------------
 .byte   PATT
  .word Label_015F4206
@  #08 @031   ----------------------------------------
 .byte   PATT
  .word Label_015F41F5
@  #08 @032   ----------------------------------------
 .byte   PATT
  .word Label_015F4206
@  #08 @033   ----------------------------------------
 .byte   PATT
  .word Label_015F41F5
@  #08 @034   ----------------------------------------
 .byte   PATT
  .word Label_015F4206
@  #08 @035   ----------------------------------------
 .byte   PATT
  .word Label_015F4248
@  #08 @036   ----------------------------------------
 .byte   PATT
  .word Label_015F4248
@  #08 @037   ----------------------------------------
 .byte   PATT
  .word Label_015F425C
@  #08 @038   ----------------------------------------
Label_015F42AE:
 .byte   W12
 .byte   N11 ,Gn1 ,v084
 .byte   W12
 .byte   N11
 .byte   W12
 .byte   N11
 .byte   W12
 .byte   N11
 .byte   W12
 .byte   W06
 .byte   W06
 .byte   W18
 .byte   W06
 .byte   PEND 
@  #08 @039   ----------------------------------------
 .byte   W96
@  #08 @040   ----------------------------------------
 .byte   W96
@  #08 @041   ----------------------------------------
 .byte   W96
@  #08 @042   ----------------------------------------
 .byte   W96
@  #08 @043   ----------------------------------------
Label_015F42C2:
 .byte   N32 ,An0 ,v084
 .byte   W36
 .byte   N11
 .byte   W12
 .byte   N44
 .byte   W48
 .byte   PEND 
@  #08 @044   ----------------------------------------
Label_015F42CB:
 .byte   N32 ,Gs0 ,v084
 .byte   W36
 .byte   N11
 .byte   W12
 .byte   N44
 .byte   W48
 .byte   PEND 
@  #08 @045   ----------------------------------------
 .byte   PATT
  .word Label_015F42C2
@  #08 @046   ----------------------------------------
 .byte   PATT
  .word Label_015F42CB
@  #08 @047   ----------------------------------------
Label_015F42DE:
 .byte   N44 ,Fn0 ,v084
 .byte   W48
 .byte   Gn0
 .byte   W48
 .byte   PEND 
@  #08 @048   ----------------------------------------
Label_015F42E5:
 .byte   N23 ,Cn1 ,v084
 .byte   W24
 .byte   Bn0
 .byte   W24
 .byte   An0
 .byte   W24
 .byte   Gn0
 .byte   W24
 .byte   PEND 
@  #08 @049   ----------------------------------------
Label_015F42F0:
 .byte   N23 ,Fn0 ,v084
 .byte   W24
 .byte   An0
 .byte   W24
 .byte   Gn0
 .byte   W24
 .byte   Bn0
 .byte   W24
 .byte   PEND 
@  #08 @050   ----------------------------------------
 .byte   N44 ,Cn1
 .byte   W60
 .byte   N11 ,Gn0
 .byte   W12
 .byte   N11
 .byte   W24
@  #08 @051   ----------------------------------------
 .byte   PATT
  .word Label_015F42DE
@  #08 @052   ----------------------------------------
 .byte   PATT
  .word Label_015F42E5
@  #08 @053   ----------------------------------------
 .byte   PATT
  .word Label_015F42F0
@  #08 @054   ----------------------------------------
 .byte   N92 ,Cn1 ,v084
 .byte   W96
@  #08 @055   ----------------------------------------
 .byte   PATT
  .word Label_015F41F5
@  #08 @056   ----------------------------------------
 .byte   PATT
  .word Label_015F4206
@  #08 @057   ----------------------------------------
 .byte   PATT
  .word Label_015F41F5
@  #08 @058   ----------------------------------------
 .byte   PATT
  .word Label_015F4206
@  #08 @059   ----------------------------------------
 .byte   PATT
  .word Label_015F41F5
@  #08 @060   ----------------------------------------
 .byte   PATT
  .word Label_015F4206
@  #08 @061   ----------------------------------------
 .byte   PATT
  .word Label_015F41F5
@  #08 @062   ----------------------------------------
 .byte   PATT
  .word Label_015F4206
@  #08 @063   ----------------------------------------
 .byte   PATT
  .word Label_015F4248
@  #08 @064   ----------------------------------------
 .byte   PATT
  .word Label_015F4248
@  #08 @065   ----------------------------------------
 .byte   N23 ,Fn1 ,v084
 .byte   W24
 .byte   N17
 .byte   W18
 .byte   N02 ,Cn2
 .byte   W06
 .byte   W12
 .byte   N23
 .byte   W24
 .byte   Gn1
 .byte   W12
@  #08 @066   ----------------------------------------
 .byte   PATT
  .word Label_015F42AE
@  #08 @067   ----------------------------------------
Label_015F435B:
 .byte   N05 ,Cn2 ,v084
 .byte   W12
 .byte   N05
 .byte   W12
 .byte   N11 ,Gn1
 .byte   W12
 .byte   Cn2
 .byte   W12
 .byte   N05
 .byte   W12
 .byte   N05
 .byte   W06
 .byte   W06
 .byte   N11 ,Gn1
 .byte   W12
 .byte   Cn2
 .byte   W06
 .byte   W06
 .byte   PEND 
@  #08 @068   ----------------------------------------
 .byte   N05 ,Fn1
 .byte   W12
 .byte   N11
 .byte   W12
 .byte   As1
 .byte   W12
 .byte   N05 ,Fn1
 .byte   W12
 .byte   N05
 .byte   W12
 .byte   N11
 .byte   W06
 .byte   W06
 .byte   As1
 .byte   W12
 .byte   N05 ,Fn1
 .byte   W06
 .byte   W06
@  #08 @069   ----------------------------------------
 .byte   PATT
  .word Label_015F435B
@  #08 @070   ----------------------------------------
 .byte   N05 ,Fn1 ,v084
 .byte   W12
 .byte   N11
 .byte   W12
 .byte   As1
 .byte   W12
 .byte   N05 ,Fn1
 .byte   W12
 .byte   N05
 .byte   W12
 .byte   N11
 .byte   W12
 .byte   Cn2
 .byte   W12
 .byte   N05 ,Fn1
 .byte   W06
 .byte   W06
@  #08 @071   ----------------------------------------
 .byte   N68 ,Cn2
 .byte   W96
@  #08 @072   ----------------------------------------
 .byte   W24
 .byte   GOTO
  .word Label_015F4220
 .byte   FINE

@**************** Track 9 (Midi-Chn.8) ****************@

song01_009:
@  #09 @000   ----------------------------------------
 .byte   KEYSH , song01_key+0
 .byte   VOICE , 124
 .byte   VOL , 29*song01_mvl/mxv
 .byte   PAN , c_v+0
 .byte   En3 ,v064
 .byte   En3 ,v064
 .byte   En3 ,v064
 .byte   PAN , c_v+0
 .byte   W96
@  #09 @001   ----------------------------------------
 .byte   W96
@  #09 @002   ----------------------------------------
 .byte   W96
@  #09 @003   ----------------------------------------
 .byte   W96
@  #09 @004   ----------------------------------------
Label_015F8A0F:
 .byte   N11 ,Cn1 ,v080
 .byte   N05 ,Gn1 ,v052
 .byte   N17 ,Gs2 ,v080
 .byte   W06
 .byte   N05 ,Gn1 ,v052
 .byte   W06
 .byte   N11 ,Cn1 ,v080
 .byte   N05 ,Gn1 ,v052
 .byte   W06
 .byte   N05
 .byte   N17 ,Gs2 ,v080
 .byte   W06
 .byte   N11 ,Cn1
 .byte   N05 ,Gn1 ,v052
 .byte   W06
 .byte   En1
 .byte   W06
 .byte   N11 ,Cn1 ,v080
 .byte   N05 ,En1 ,v052
 .byte   N11 ,Gs2 ,v080
 .byte   W06
 .byte   N05 ,Gn1 ,v052
 .byte   W06
 .byte   N11 ,Cn1 ,v080
 .byte   N05 ,Gn1 ,v052
 .byte   W06
 .byte   N05
 .byte   W06
 .byte   N11 ,Cn1 ,v080
 .byte   N05 ,Gn1 ,v052
 .byte   W06
 .byte   N05
 .byte   W06
 .byte   N11 ,Cn1 ,v080
 .byte   N05 ,Gn1 ,v052
 .byte   W06
 .byte   En1
 .byte   W06
 .byte   N11 ,Cn1 ,v080
 .byte   N05 ,En1 ,v052
 .byte   N11 ,Gs2 ,v080
 .byte   W06
 .byte   N05 ,Gn1 ,v052
 .byte   W06
 .byte   PEND 
@  #09 @005   ----------------------------------------
 .byte   PATT
  .word Label_015F8A0F
@  #09 @006   ----------------------------------------
 .byte   N23 ,Cn1 ,v120
 .byte   N11 ,En3 ,v080
 .byte   W12
 .byte   Ds3
 .byte   W12
 .byte   Dn3
 .byte   W36
 .byte   Ds3
 .byte   W12
 .byte   Dn3
 .byte   W24
@  #09 @007   ----------------------------------------
 .byte   En3
 .byte   W12
 .byte   Ds3
 .byte   W12
 .byte   Dn3
 .byte   W36
 .byte   N05
 .byte   W06
 .byte   N05
 .byte   W06
 .byte   N11 ,Ds3
 .byte   W12
 .byte   Dn3
 .byte   W12
@  #09 @008   ----------------------------------------
Label_015F8A8C:
 .byte   N23 ,Cn1 ,v120
 .byte   N11 ,En3 ,v080
 .byte   W12
 .byte   Ds3
 .byte   W12
 .byte   Dn3
 .byte   W36
 .byte   Ds3
 .byte   W12
 .byte   N23 ,Fn1
 .byte   N11 ,Dn3
 .byte   W24
 .byte   PEND 
@  #09 @009   ----------------------------------------
Label_015F8A9F:
 .byte   N11 ,En3 ,v080
 .byte   W12
 .byte   Ds3
 .byte   W12
 .byte   Dn3
 .byte   W36
 .byte   N05
 .byte   W06
 .byte   N05
 .byte   W06
 .byte   N23 ,Fn1
 .byte   N11 ,Ds3
 .byte   W12
 .byte   Dn3
 .byte   W12
 .byte   PEND 
@  #09 @010   ----------------------------------------
Label_015F8AB3:
@  #09 @011   ----------------------------------------
 .byte   PATT
  .word Label_015F8A8C
@  #09 @012   ----------------------------------------
 .byte   PATT
  .word Label_015F8A9F
@  #09 @013   ----------------------------------------
 .byte   PATT
  .word Label_015F8A8C
@  #09 @014   ----------------------------------------
 .byte   PATT
  .word Label_015F8A9F
@  #09 @015   ----------------------------------------
 .byte   N23 ,Bn0 ,v120
 .byte   N05 ,Fs1 ,v076
 .byte   N11 ,En3 ,v080
 .byte   W06
 .byte   N05 ,Fs1 ,v052
 .byte   W06
 .byte   N05
 .byte   N11 ,Ds3 ,v080
 .byte   W06
 .byte   N05 ,Fs1 ,v052
 .byte   W06
 .byte   Fs1 ,v076
 .byte   N11 ,Dn3 ,v080
 .byte   W06
 .byte   N05 ,Fs1 ,v052
 .byte   W06
 .byte   N05
 .byte   W06
 .byte   N05
 .byte   W06
 .byte   Fs1 ,v076
 .byte   W06
 .byte   Fs1 ,v052
 .byte   W06
 .byte   N05
 .byte   N11 ,Ds3 ,v080
 .byte   W06
 .byte   N05 ,Fs1 ,v052
 .byte   W06
 .byte   N23 ,Fn1
 .byte   N05 ,Fs1 ,v076
 .byte   N11 ,Dn3 ,v080
 .byte   W06
 .byte   N05 ,Fs1 ,v052
 .byte   W06
 .byte   N05
 .byte   W06
 .byte   N05
 .byte   W06
@  #09 @016   ----------------------------------------
 .byte   Fs1 ,v076
 .byte   N11 ,En3 ,v080
 .byte   W06
 .byte   N05 ,Fs1 ,v052
 .byte   W06
 .byte   N05
 .byte   N11 ,Ds3 ,v080
 .byte   W06
 .byte   N05 ,Fs1 ,v052
 .byte   W06
 .byte   Fs1 ,v076
 .byte   N11 ,Dn3 ,v080
 .byte   W06
 .byte   N05 ,Fs1 ,v052
 .byte   W06
 .byte   N05
 .byte   W06
 .byte   N05
 .byte   W06
 .byte   Fs1 ,v076
 .byte   W06
 .byte   Fs1 ,v052
 .byte   W06
 .byte   N05
 .byte   N05 ,Dn3 ,v080
 .byte   W06
 .byte   Fs1 ,v052
 .byte   N05 ,Dn3 ,v080
 .byte   W06
 .byte   N23 ,Fn1 ,v052
 .byte   N05 ,Fs1 ,v076
 .byte   N11 ,Ds3 ,v080
 .byte   W06
 .byte   N05 ,Fs1 ,v052
 .byte   W06
 .byte   N05
 .byte   N11 ,Dn3 ,v080
 .byte   W06
 .byte   N05 ,Fs1 ,v052
 .byte   W06
@  #09 @017   ----------------------------------------
 .byte   N23 ,Bn0 ,v120
 .byte   N05 ,Fs1 ,v076
 .byte   N11 ,En3 ,v080
 .byte   W06
 .byte   N05 ,Fs1 ,v052
 .byte   W06
 .byte   N05
 .byte   N11 ,Ds3 ,v080
 .byte   W06
 .byte   N05 ,Fs1 ,v052
 .byte   W06
 .byte   Fs1 ,v076
 .byte   N11 ,Dn3 ,v080
 .byte   W06
 .byte   N05 ,Fs1 ,v052
 .byte   W06
 .byte   N05
 .byte   W06
 .byte   N05
 .byte   W06
 .byte   Fs1 ,v076
 .byte   W06
 .byte   Fs1 ,v052
 .byte   W06
 .byte   N05
 .byte   N11 ,Ds3 ,v080
 .byte   W06
 .byte   N05 ,Fs1 ,v052
 .byte   W06
 .byte   N23 ,Fn1
 .byte   N05 ,Fs1 ,v076
 .byte   N11 ,Dn3 ,v080
 .byte   W06
 .byte   N05 ,Fs1 ,v052
 .byte   W06
 .byte   N05
 .byte   W06
 .byte   N05
 .byte   W06
@  #09 @018   ----------------------------------------
 .byte   Fs1 ,v076
 .byte   N11 ,En3 ,v080
 .byte   W06
 .byte   N05 ,Fs1 ,v052
 .byte   W06
 .byte   N05
 .byte   N11 ,Ds3 ,v080
 .byte   W06
 .byte   N05 ,Fs1 ,v052
 .byte   W06
 .byte   Fs1 ,v076
 .byte   N11 ,Dn3 ,v080
 .byte   W06
 .byte   N05 ,Fs1 ,v052
 .byte   W06
 .byte   N05
 .byte   W06
 .byte   N05
 .byte   W06
 .byte   Fs1 ,v076
 .byte   W06
 .byte   Fs1 ,v052
 .byte   W06
 .byte   N05
 .byte   N05 ,Dn3 ,v080
 .byte   W06
 .byte   Fs1 ,v052
 .byte   N05 ,Dn3 ,v080
 .byte   W06
 .byte   N23 ,Fn1 ,v052
 .byte   N05 ,Fs1
 .byte   N11 ,Ds3 ,v080
 .byte   W06
 .byte   N05 ,Fs1 ,v052
 .byte   W06
 .byte   N05
 .byte   N11 ,Dn3 ,v080
 .byte   W06
 .byte   N05 ,Fs1 ,v052
 .byte   W06
@  #09 @019   ----------------------------------------
Label_015F8BE2:
 .byte   N23 ,Cn1 ,v096
 .byte   N11 ,Fs2 ,v052
 .byte   W18
 .byte   N05
 .byte   W06
 .byte   N23 ,Dn1 ,v080
 .byte   N11 ,Fs2 ,v052
 .byte   W18
 .byte   N05
 .byte   W06
 .byte   N11
 .byte   W12
 .byte   Cn1 ,v080
 .byte   W06
 .byte   N05 ,Fs2 ,v052
 .byte   W06
 .byte   N11 ,Dn1 ,v080
 .byte   N05 ,Fs2 ,v052
 .byte   W06
 .byte   N11
 .byte   W18
 .byte   PEND 
@  #09 @020   ----------------------------------------
Label_015F8C07:
 .byte   N23 ,Cn1 ,v080
 .byte   N11 ,Fs2 ,v052
 .byte   W18
 .byte   N05
 .byte   W06
 .byte   N23 ,Dn1 ,v080
 .byte   N11 ,Fs2 ,v052
 .byte   W18
 .byte   N05
 .byte   W06
 .byte   N11
 .byte   W12
 .byte   Cn1 ,v080
 .byte   W06
 .byte   N05 ,Fs2 ,v052
 .byte   W06
 .byte   N11 ,Dn1 ,v080
 .byte   N05 ,Fs2 ,v052
 .byte   W06
 .byte   N11
 .byte   W18
 .byte   PEND 
@  #09 @021   ----------------------------------------
 .byte   N23 ,Cn1 ,v080
 .byte   N11 ,Fs2 ,v052
 .byte   W18
 .byte   N05
 .byte   W06
 .byte   N23 ,Dn1 ,v080
 .byte   N11 ,Fs2 ,v052
 .byte   W18
 .byte   N05
 .byte   W06
 .byte   N11
 .byte   W12
 .byte   Cn1 ,v080
 .byte   W06
 .byte   N05 ,Fs2 ,v052
 .byte   W06
 .byte   N11 ,Dn1 ,v080
 .byte   N05 ,Fs2 ,v052
 .byte   W06
 .byte   N11
 .byte   W06
 .byte   Cn1 ,v080
 .byte   W12
@  #09 @022   ----------------------------------------
Label_015F8C53:
 .byte   N11 ,Fs2 ,v052
 .byte   W12
 .byte   Cn1 ,v080
 .byte   N11 ,Dn1
 .byte   W06
 .byte   N05 ,Fs2 ,v052
 .byte   W06
 .byte   N11 ,Cn1 ,v080
 .byte   N11 ,Dn1
 .byte   N11 ,Fs2 ,v052
 .byte   W12
 .byte   Cn1 ,v080
 .byte   N11 ,Dn1
 .byte   W06
 .byte   N05 ,Fs2 ,v052
 .byte   W06
 .byte   N11 ,Cn1 ,v080
 .byte   N11 ,Dn1
 .byte   N11 ,Fs2 ,v052
 .byte   W48
 .byte   PEND 
@  #09 @023   ----------------------------------------
 .byte   W96
@  #09 @024   ----------------------------------------
 .byte   W96
@  #09 @025   ----------------------------------------
 .byte   W96
@  #09 @026   ----------------------------------------
 .byte   W96
@  #09 @027   ----------------------------------------
Label_015F8C80:
 .byte   N23 ,Bn0 ,v080
 .byte   N23 ,Cn1
 .byte   W12
 .byte   N05 ,As3
 .byte   W06
 .byte   N05
 .byte   W06
 .byte   N23 ,Dn1
 .byte   N23 ,Ds1 ,v052
 .byte   W12
 .byte   N05 ,As3 ,v080
 .byte   W06
 .byte   N05
 .byte   W18
 .byte   N11 ,Cn1
 .byte   N05 ,As3
 .byte   W06
 .byte   N05
 .byte   W06
 .byte   N11 ,Dn1
 .byte   N23 ,Ds1 ,v052
 .byte   W12
 .byte   N05 ,As3 ,v080
 .byte   W06
 .byte   N05
 .byte   W06
 .byte   PEND 
@  #09 @028   ----------------------------------------
Label_015F8CAB:
 .byte   N23 ,Cn1 ,v080
 .byte   W12
 .byte   N05 ,As3
 .byte   W06
 .byte   N05
 .byte   W06
 .byte   N23 ,Dn1
 .byte   N23 ,Ds1 ,v052
 .byte   W12
 .byte   N05 ,As3 ,v080
 .byte   W06
 .byte   N05
 .byte   W18
 .byte   N11 ,Cn1
 .byte   N05 ,As3
 .byte   W06
 .byte   N05
 .byte   W06
 .byte   N11 ,Dn1
 .byte   N23 ,Ds1 ,v052
 .byte   W12
 .byte   N05 ,As3 ,v080
 .byte   W06
 .byte   N05
 .byte   W06
 .byte   PEND 
@  #09 @029   ----------------------------------------
 .byte   PATT
  .word Label_015F8C80
@  #09 @030   ----------------------------------------
 .byte   PATT
  .word Label_015F8CAB
@  #09 @031   ----------------------------------------
 .byte   PATT
  .word Label_015F8C80
@  #09 @032   ----------------------------------------
 .byte   PATT
  .word Label_015F8CAB
@  #09 @033   ----------------------------------------
 .byte   N23 ,Bn0 ,v080
 .byte   N23 ,Cn1
 .byte   W12
 .byte   N05 ,As3
 .byte   W06
 .byte   N05
 .byte   W06
 .byte   N23 ,Dn1
 .byte   N23 ,Ds1 ,v052
 .byte   W12
 .byte   N05 ,As3 ,v080
 .byte   W06
 .byte   N05
 .byte   W18
 .byte   N11 ,Cn1
 .byte   N05 ,As3
 .byte   W06
 .byte   N05
 .byte   W06
 .byte   N11 ,Dn1
 .byte   N23 ,Ds1 ,v052
 .byte   W12
 .byte   N05 ,As3 ,v080
 .byte   W06
 .byte   N05
 .byte   W06
@  #09 @034   ----------------------------------------
 .byte   N23 ,Cn1
 .byte   W12
 .byte   N05 ,As3
 .byte   W06
 .byte   N05
 .byte   W06
 .byte   N23 ,Dn1
 .byte   N23 ,Ds1 ,v052
 .byte   W12
 .byte   N05 ,As3 ,v080
 .byte   W06
 .byte   N05
 .byte   W18
 .byte   N11 ,Cn1
 .byte   N05 ,As3
 .byte   W06
 .byte   N05
 .byte   W06
 .byte   N11 ,Dn1
 .byte   N23 ,Ds1 ,v052
 .byte   W12
 .byte   N05 ,As3 ,v080
 .byte   W06
 .byte   N05
 .byte   W06
@  #09 @035   ----------------------------------------
 .byte   N23 ,Bn0
 .byte   N23 ,Cn1 ,v096
 .byte   N11 ,Fs2 ,v052
 .byte   W18
 .byte   N05
 .byte   W06
 .byte   N23 ,Dn1 ,v080
 .byte   N11 ,Fs2 ,v052
 .byte   W18
 .byte   N05
 .byte   W06
 .byte   N11
 .byte   W12
 .byte   Cn1 ,v080
 .byte   W06
 .byte   N05 ,Fs2 ,v052
 .byte   W06
 .byte   N11 ,Dn1 ,v080
 .byte   N05 ,Fs2 ,v052
 .byte   W06
 .byte   N11
 .byte   W18
@  #09 @036   ----------------------------------------
 .byte   PATT
  .word Label_015F8C07
@  #09 @037   ----------------------------------------
 .byte   N23 ,Bn0 ,v080
 .byte   N23 ,Cn1
 .byte   N11 ,Fs2 ,v052
 .byte   W18
 .byte   N05
 .byte   W06
 .byte   N23 ,Dn1 ,v080
 .byte   N11 ,Fs2 ,v052
 .byte   W18
 .byte   N05
 .byte   W06
 .byte   N11
 .byte   W12
 .byte   Cn1 ,v080
 .byte   W06
 .byte   N05 ,Fs2 ,v052
 .byte   W06
 .byte   N11 ,Dn1 ,v080
 .byte   N05 ,Fs2 ,v052
 .byte   W06
 .byte   N11
 .byte   W06
 .byte   Cn1 ,v080
 .byte   W12
@  #09 @038   ----------------------------------------
 .byte   PATT
  .word Label_015F8C53
@  #09 @039   ----------------------------------------
 .byte   W96
@  #09 @040   ----------------------------------------
 .byte   W96
@  #09 @041   ----------------------------------------
 .byte   W96
@  #09 @042   ----------------------------------------
 .byte   W96
@  #09 @043   ----------------------------------------
 .byte   N32 ,Cn1 ,v080
 .byte   N11 ,Cs2
 .byte   W12
 .byte   Fs1
 .byte   W12
 .byte   N11
 .byte   W12
 .byte   Cn1
 .byte   N11 ,Fs1
 .byte   N03 ,Cs5
 .byte   W04
 .byte   N03
 .byte   W04
 .byte   N03
 .byte   W04
 .byte   N44 ,Cn1
 .byte   N11 ,Fs1
 .byte   N11 ,Cs5
 .byte   W12
 .byte   Fs1
 .byte   W12
 .byte   N23 ,Dn1
 .byte   N11 ,Fs1
 .byte   W12
 .byte   N11
 .byte   W12
@  #09 @044   ----------------------------------------
Label_015F8DBA:
 .byte   N32 ,Cn1 ,v080
 .byte   N11 ,Fs1
 .byte   W12
 .byte   N11
 .byte   W12
 .byte   N11
 .byte   W12
 .byte   Cn1
 .byte   N11 ,Fs1
 .byte   N03 ,Cs5
 .byte   W04
 .byte   N03
 .byte   W04
 .byte   N03
 .byte   W04
 .byte   N44 ,Cn1
 .byte   N11 ,Fs1
 .byte   N11 ,Cs5
 .byte   W12
 .byte   Fs1
 .byte   W12
 .byte   N23 ,Dn1
 .byte   N11 ,Fs1
 .byte   W12
 .byte   N11
 .byte   W12
 .byte   PEND 
@  #09 @045   ----------------------------------------
 .byte   PATT
  .word Label_015F8DBA
@  #09 @046   ----------------------------------------
 .byte   N32 ,Cn1 ,v080
 .byte   N11 ,Fs1
 .byte   W12
 .byte   N11
 .byte   W12
 .byte   N11
 .byte   W12
 .byte   Cn1
 .byte   N11 ,Fs1
 .byte   N03 ,Cs5
 .byte   W04
 .byte   N03
 .byte   W04
 .byte   N03
 .byte   W04
 .byte   N44 ,Cn1
 .byte   N11 ,Fs1
 .byte   N11 ,Cs5
 .byte   W12
 .byte   Dn1
 .byte   N11 ,Fs1
 .byte   W12
 .byte   N05 ,Dn1
 .byte   N11 ,Fs1
 .byte   W06
 .byte   N05 ,Dn1
 .byte   W06
 .byte   N11
 .byte   N11 ,Fs1
 .byte   W12
@  #09 @047   ----------------------------------------
Label_015F8E0F:
 .byte   N23 ,Cn1 ,v080
 .byte   W12
 .byte   N05 ,Fs2 ,v052
 .byte   W06
 .byte   N05
 .byte   W06
 .byte   N23 ,Dn1 ,v080
 .byte   W12
 .byte   N05 ,Fs2 ,v052
 .byte   W06
 .byte   N05
 .byte   W06
 .byte   N11 ,Cn1 ,v080
 .byte   W12
 .byte   N11
 .byte   N05 ,Fs2 ,v052
 .byte   W06
 .byte   N05
 .byte   W06
 .byte   N23 ,Dn1 ,v080
 .byte   W12
 .byte   N05 ,Fs2 ,v052
 .byte   W06
 .byte   N05
 .byte   W06
 .byte   PEND 
@  #09 @048   ----------------------------------------
Label_015F8E39:
 .byte   N17 ,Cn1 ,v080
 .byte   W12
 .byte   N05 ,Fs2 ,v052
 .byte   W06
 .byte   Cn1 ,v080
 .byte   N05 ,Fs2 ,v052
 .byte   W06
 .byte   N23 ,Dn1 ,v080
 .byte   W12
 .byte   N11 ,Cn1
 .byte   N05 ,Fs2 ,v052
 .byte   W06
 .byte   N05
 .byte   W18
 .byte   N11 ,Cn1 ,v080
 .byte   N05 ,Fs2 ,v052
 .byte   W06
 .byte   N05
 .byte   W06
 .byte   N23 ,Dn1 ,v080
 .byte   W12
 .byte   N05 ,Fs2 ,v052
 .byte   W06
 .byte   N05
 .byte   W06
 .byte   PEND 
@  #09 @049   ----------------------------------------
 .byte   N23 ,Cn1 ,v080
 .byte   W12
 .byte   N05 ,Fs2 ,v052
 .byte   W06
 .byte   N05
 .byte   W06
 .byte   N23 ,Dn1 ,v080
 .byte   W12
 .byte   N11 ,Cn1
 .byte   N05 ,Fs2 ,v052
 .byte   W06
 .byte   N05
 .byte   W18
 .byte   N11 ,Cn1 ,v080
 .byte   N05 ,Fs2 ,v052
 .byte   W06
 .byte   N05
 .byte   W06
 .byte   N23 ,Dn1 ,v080
 .byte   W12
 .byte   N05 ,Fs2 ,v052
 .byte   W06
 .byte   N05
 .byte   W06
@  #09 @050   ----------------------------------------
 .byte   N11 ,Cn1 ,v080
 .byte   W12
 .byte   N11
 .byte   N05 ,Fs2 ,v052
 .byte   W06
 .byte   N05
 .byte   W06
 .byte   N23 ,Dn1 ,v080
 .byte   W12
 .byte   N11 ,Cn1
 .byte   N05 ,Fs2 ,v052
 .byte   W06
 .byte   N05
 .byte   W06
 .byte   N11 ,Cn1 ,v080
 .byte   W12
 .byte   N05 ,Fs2 ,v052
 .byte   W06
 .byte   N05
 .byte   W06
 .byte   N11 ,Dn1 ,v080
 .byte   W12
 .byte   N05
 .byte   N05 ,Fs2 ,v052
 .byte   W06
 .byte   Dn1 ,v080
 .byte   N05 ,Fs2 ,v052
 .byte   W06
@  #09 @051   ----------------------------------------
 .byte   PATT
  .word Label_015F8E0F
@  #09 @052   ----------------------------------------
 .byte   PATT
  .word Label_015F8E39
@  #09 @053   ----------------------------------------
 .byte   N23 ,Cn1 ,v080
 .byte   N23 ,As1
 .byte   W12
 .byte   N05 ,Fs2 ,v052
 .byte   W06
 .byte   N05
 .byte   W06
 .byte   N23 ,Dn1 ,v080
 .byte   N23 ,As1
 .byte   W12
 .byte   N11 ,Cn1
 .byte   N05 ,Fs2 ,v052
 .byte   W06
 .byte   N05
 .byte   W06
 .byte   N23 ,As1 ,v080
 .byte   W12
 .byte   N11 ,Cn1
 .byte   N05 ,Fs2 ,v052
 .byte   W06
 .byte   N05
 .byte   W06
 .byte   N23 ,Dn1 ,v080
 .byte   N23 ,As1
 .byte   W12
 .byte   N05 ,Fs2 ,v052
 .byte   W06
 .byte   N05
 .byte   W06
@  #09 @054   ----------------------------------------
 .byte   N11 ,Cn1 ,v080
 .byte   N23 ,Cs2
 .byte   W12
 .byte   N05 ,Fs2 ,v052
 .byte   W06
 .byte   N05
 .byte   W18
 .byte   Dn1 ,v080
 .byte   W06
 .byte   N05
 .byte   W06
 .byte   N23 ,Cn1
 .byte   N11 ,Dn1
 .byte   W48
@  #09 @055   ----------------------------------------
Label_015F8F12:
 .byte   N23 ,Bn0 ,v080
 .byte   N11 ,En3
 .byte   W12
 .byte   Ds3
 .byte   W12
 .byte   Dn3
 .byte   W36
 .byte   Ds3
 .byte   W12
 .byte   N23 ,Fn1
 .byte   N11 ,Dn3
 .byte   W24
 .byte   PEND 
@  #09 @056   ----------------------------------------
 .byte   PATT
  .word Label_015F8A9F
@  #09 @057   ----------------------------------------
 .byte   PATT
  .word Label_015F8F12
@  #09 @058   ----------------------------------------
 .byte   PATT
  .word Label_015F8A9F
@  #09 @059   ----------------------------------------
 .byte   PATT
  .word Label_015F8F12
@  #09 @060   ----------------------------------------
 .byte   PATT
  .word Label_015F8A9F
@  #09 @061   ----------------------------------------
 .byte   PATT
  .word Label_015F8F12
@  #09 @062   ----------------------------------------
 .byte   N11 ,En3 ,v080
 .byte   W12
 .byte   Ds3
 .byte   W12
 .byte   Dn3
 .byte   W36
 .byte   N05
 .byte   W06
 .byte   N05
 .byte   W06
 .byte   N23 ,Fn1
 .byte   N11 ,Ds3
 .byte   W12
 .byte   Dn3
 .byte   W12
@  #09 @063   ----------------------------------------
 .byte   PATT
  .word Label_015F8BE2
@  #09 @064   ----------------------------------------
 .byte   PATT
  .word Label_015F8C07
@  #09 @065   ----------------------------------------
 .byte   N23 ,Cn1 ,v080
 .byte   N11 ,Fs2 ,v052
 .byte   W18
 .byte   N05
 .byte   W06
 .byte   N23 ,Dn1 ,v080
 .byte   N11 ,Fs2 ,v052
 .byte   W18
 .byte   N05
 .byte   W06
 .byte   N11
 .byte   W12
 .byte   Cn1 ,v080
 .byte   W06
 .byte   N05 ,Fs2 ,v052
 .byte   W06
 .byte   N11 ,Dn1 ,v080
 .byte   N05 ,Fs2 ,v052
 .byte   W06
 .byte   N11
 .byte   W06
 .byte   Cn1 ,v080
 .byte   W12
@  #09 @066   ----------------------------------------
 .byte   PATT
  .word Label_015F8C53
@  #09 @067   ----------------------------------------
Label_015F8F8B:
 .byte   N11 ,Cn1 ,v080
 .byte   N05 ,Ds1 ,v052
 .byte   W06
 .byte   N05
 .byte   W06
 .byte   N11 ,Cn1 ,v080
 .byte   N05 ,Ds1 ,v052
 .byte   W06
 .byte   N05
 .byte   W06
 .byte   N11 ,Dn1 ,v080
 .byte   N05 ,Ds1 ,v052
 .byte   W06
 .byte   En1
 .byte   W06
 .byte   N11 ,Cn1 ,v080
 .byte   N05 ,En1 ,v052
 .byte   W06
 .byte   Ds1
 .byte   W06
 .byte   N11 ,Cn1 ,v080
 .byte   N05 ,Ds1 ,v052
 .byte   W06
 .byte   N05
 .byte   W06
 .byte   N11 ,Cn1 ,v080
 .byte   N05 ,Ds1 ,v052
 .byte   W06
 .byte   N05
 .byte   W06
 .byte   N11 ,Dn1 ,v080
 .byte   N05 ,Ds1 ,v052
 .byte   W06
 .byte   En1
 .byte   W06
 .byte   N11 ,Cn1 ,v080
 .byte   N05 ,En1 ,v052
 .byte   W06
 .byte   Ds1
 .byte   W06
 .byte   PEND 
@  #09 @068   ----------------------------------------
 .byte   PATT
  .word Label_015F8F8B
@  #09 @069   ----------------------------------------
 .byte   PATT
  .word Label_015F8F8B
@  #09 @070   ----------------------------------------
 .byte   PATT
  .word Label_015F8F8B
@  #09 @071   ----------------------------------------
 .byte   TIE ,Cs2 ,v080
 .byte   W84
 .byte   N12 ,Ds1
 .byte   W12
@  #09 @072   ----------------------------------------
 .byte   N12
 .byte   W24
 .byte   EOT
 .byte   Cs2
 .byte   GOTO
  .word Label_015F8AB3
 .byte   FINE

@******************************************************@
	.align	2

song01:
	.byte	9	@ NumTrks
	.byte	0	@ NumBlks
	.byte	song01_pri	@ Priority
	.byte	song01_rev	@ Reverb.
    
	.word	song01_grp
    
	.word	song01_001
	.word	song01_002
	.word	song01_003
	.word	song01_004
	.word	song01_005
	.word	song01_006
	.word	song01_007
	.word	song01_008
	.word	song01_009

	.end
