	.include "MPlayDef.s"

	.equ	song01_grp, voicegroup000
	.equ	song01_pri, 0
	.equ	song01_rev, 0
	.equ	song01_mvl, 127
	.equ	song01_key, 0
	.equ	song01_tbs, 1
	.equ	song01_exg, 0
	.equ	song01_cmp, 1

	.section .rodata
	.global	song01
	.align	2


@**************** Track 1 (Midi-Chn.0) ****************@

song01_001:
@  #01 @000   ----------------------------------------
 .byte   KEYSH , song01_key+0
Label_015F41BE:
 .byte   TEMPO , 150*song01_tbs/2
 .byte   VOICE , 110
 .byte   VOL , 66*song01_mvl/mxv
 .byte   PAN , c_v+0
 .byte   En3 ,v064
 .byte   PAN , c_v+0
 .byte   BEND , c_v+0
 .byte   N06 ,Bn3 ,v100
 .byte   W12
 .byte   An3
 .byte   W06
 .byte   Bn3
 .byte   W12
 .byte   An3
 .byte   W06
 .byte   Bn3
 .byte   W12
 .byte   N06
 .byte   W12
 .byte   An3
 .byte   W06
 .byte   Bn3
 .byte   W12
 .byte   An3
 .byte   W06
 .byte   Bn3
 .byte   W12
@  #01 @001   ----------------------------------------
Label_015F41E1:
 .byte   N06 ,Bn4 ,v100
 .byte   W12
 .byte   An4
 .byte   W06
 .byte   Bn4
 .byte   W12
 .byte   An4
 .byte   W06
 .byte   Bn4
 .byte   W12
 .byte   N06
 .byte   W12
 .byte   An4
 .byte   W06
 .byte   Bn4
 .byte   W12
 .byte   An4
 .byte   W06
 .byte   Bn4
 .byte   W12
 .byte   PEND 
@  #01 @002   ----------------------------------------
 .byte   Gn3
 .byte   W12
 .byte   Fn3
 .byte   W06
 .byte   Gn3
 .byte   W12
 .byte   Fn3
 .byte   W06
 .byte   Gn3
 .byte   W12
 .byte   N06
 .byte   W12
 .byte   Fn3
 .byte   W06
 .byte   Gn3
 .byte   W12
 .byte   Fn3
 .byte   W06
 .byte   Gn3
 .byte   W12
@  #01 @003   ----------------------------------------
 .byte   Fs3
 .byte   W12
 .byte   En3
 .byte   W06
 .byte   Fs3
 .byte   W12
 .byte   En3
 .byte   W06
 .byte   Fs3
 .byte   W12
 .byte   N06
 .byte   W12
 .byte   En3
 .byte   W06
 .byte   Fs3
 .byte   W12
 .byte   En3
 .byte   W06
 .byte   Fs3
 .byte   W12
@  #01 @004   ----------------------------------------
 .byte   Bn3
 .byte   W12
 .byte   An3
 .byte   W06
 .byte   Bn3
 .byte   W12
 .byte   An3
 .byte   W06
 .byte   Bn3
 .byte   W12
 .byte   N06
 .byte   W12
 .byte   An3
 .byte   W06
 .byte   Bn3
 .byte   W12
 .byte   An3
 .byte   W06
 .byte   Bn3
 .byte   W12
@  #01 @005   ----------------------------------------
 .byte   PATT
  .word Label_015F41E1
@  #01 @006   ----------------------------------------
 .byte   N06 ,Gn3 ,v100
 .byte   W12
 .byte   Fn3
 .byte   W06
 .byte   Gn3
 .byte   W12
 .byte   Fn3
 .byte   W06
 .byte   Gn3
 .byte   W12
 .byte   Fs3
 .byte   W12
 .byte   En3
 .byte   W06
 .byte   Fs3
 .byte   W12
 .byte   En3
 .byte   W06
 .byte   Fs3
 .byte   W12
@  #01 @007   ----------------------------------------
 .byte   Bn3
 .byte   W12
 .byte   An3
 .byte   W06
 .byte   Bn3
 .byte   W12
 .byte   An3
 .byte   W06
 .byte   Bn3
 .byte   W12
 .byte   N06
 .byte   W48
@  #01 @008   ----------------------------------------
Label_015F425B:
 .byte   N18 ,Bn3 ,v100
 .byte   W18
 .byte   N30 ,An4
 .byte   W30
 .byte   N18 ,Bn3
 .byte   W18
 .byte   N30 ,Gs4
 .byte   W30
 .byte   PEND 
@  #01 @009   ----------------------------------------
Label_015F4269:
 .byte   N18 ,Bn3 ,v100
 .byte   W18
 .byte   N30 ,Gn4
 .byte   W30
 .byte   N18 ,Bn3
 .byte   W18
 .byte   N30 ,Fs4
 .byte   W30
 .byte   PEND 
@  #01 @010   ----------------------------------------
Label_015F4277:
 .byte   N18 ,En4 ,v100
 .byte   W18
 .byte   N06 ,Dn4
 .byte   W18
 .byte   Cs4
 .byte   W12
 .byte   N18 ,Dn4
 .byte   W24
 .byte   Gn4
 .byte   W24
 .byte   PEND 
@  #01 @011   ----------------------------------------
 .byte   N96 ,Fs4
 .byte   W96
@  #01 @012   ----------------------------------------
 .byte   PATT
  .word Label_015F425B
@  #01 @013   ----------------------------------------
 .byte   PATT
  .word Label_015F4269
@  #01 @014   ----------------------------------------
Label_015F4293:
 .byte   N18 ,En4 ,v100
 .byte   W18
 .byte   N06 ,Dn4
 .byte   W18
 .byte   Cs4
 .byte   W12
 .byte   N18 ,Bn3
 .byte   W24
 .byte   As3
 .byte   W24
 .byte   PEND 
@  #01 @015   ----------------------------------------
 .byte   N84 ,Bn3
 .byte   W96
@  #01 @016   ----------------------------------------
 .byte   PATT
  .word Label_015F425B
@  #01 @017   ----------------------------------------
 .byte   PATT
  .word Label_015F4269
@  #01 @018   ----------------------------------------
 .byte   PATT
  .word Label_015F4277
@  #01 @019   ----------------------------------------
 .byte   N96 ,Fs4 ,v100
 .byte   W96
@  #01 @020   ----------------------------------------
 .byte   PATT
  .word Label_015F425B
@  #01 @021   ----------------------------------------
 .byte   PATT
  .word Label_015F4269
@  #01 @022   ----------------------------------------
 .byte   PATT
  .word Label_015F4293
@  #01 @023   ----------------------------------------
 .byte   N84 ,Bn3 ,v100
 .byte   W96
@  #01 @024   ----------------------------------------
Label_015F42CB:
 .byte   N24 ,Gn3 ,v100
 .byte   W24
 .byte   Fs4
 .byte   W24
 .byte   N12 ,En4
 .byte   W12
 .byte   Dn4
 .byte   W12
 .byte   Cs4
 .byte   W12
 .byte   Dn4
 .byte   W12
 .byte   PEND 
@  #01 @025   ----------------------------------------
Label_015F42DB:
 .byte   N18 ,Fs3 ,v100
 .byte   W18
 .byte   N78 ,Fs4
 .byte   W78
 .byte   PEND 
@  #01 @026   ----------------------------------------
Label_015F42E3:
 .byte   N24 ,Fn4 ,v100
 .byte   W24
 .byte   Dn4
 .byte   W24
 .byte   N12 ,Cs4
 .byte   W12
 .byte   Bn3
 .byte   W12
 .byte   As3
 .byte   W12
 .byte   Bn3
 .byte   W12
 .byte   PEND 
@  #01 @027   ----------------------------------------
Label_015F42F3:
 .byte   N36 ,Cs4 ,v100
 .byte   W36
 .byte   N06 ,En4
 .byte   W06
 .byte   Fn4
 .byte   W06
 .byte   N48 ,Fs4
 .byte   W48
 .byte   PEND 
@  #01 @028   ----------------------------------------
 .byte   PATT
  .word Label_015F42CB
@  #01 @029   ----------------------------------------
Label_015F4305:
 .byte   N18 ,Bn4 ,v100
 .byte   W18
 .byte   N54 ,Fs4
 .byte   W54
 .byte   N12 ,En4
 .byte   W12
 .byte   Dn4
 .byte   W12
 .byte   PEND 
@  #01 @030   ----------------------------------------
Label_015F4312:
 .byte   N18 ,Fn4 ,v100
 .byte   W18
 .byte   Dn4
 .byte   W18
 .byte   N12 ,Cs4
 .byte   W12
 .byte   N18 ,Bn3
 .byte   W18
 .byte   As3
 .byte   W18
 .byte   N06 ,Gs3
 .byte   W06
 .byte   As3
 .byte   W06
 .byte   PEND 
@  #01 @031   ----------------------------------------
 .byte   N96 ,Bn3
 .byte   W96
@  #01 @032   ----------------------------------------
 .byte   PATT
  .word Label_015F42CB
@  #01 @033   ----------------------------------------
 .byte   PATT
  .word Label_015F42DB
@  #01 @034   ----------------------------------------
 .byte   PATT
  .word Label_015F42E3
@  #01 @035   ----------------------------------------
 .byte   PATT
  .word Label_015F42F3
@  #01 @036   ----------------------------------------
 .byte   PATT
  .word Label_015F42CB
@  #01 @037   ----------------------------------------
 .byte   PATT
  .word Label_015F4305
@  #01 @038   ----------------------------------------
 .byte   PATT
  .word Label_015F4312
@  #01 @039   ----------------------------------------
 .byte   N96 ,Bn3 ,v100
 .byte   W96
@  #01 @040   ----------------------------------------
 .byte   GOTO
  .word Label_015F41BE
@  #01 @041   ----------------------------------------
 .byte   BEND , c_v+0
 .byte   W24
 .byte   FINE

@**************** Track 2 (Midi-Chn.1) ****************@

song01_002:
@  #02 @000   ----------------------------------------
 .byte   KEYSH , song01_key+0
Label_015F761E:
 .byte   VOICE , 55
 .byte   VOL , 100*song01_mvl/mxv
 .byte   PAN , c_v+1
 .byte   BEND , c_v+0
 .byte   W96
@  #02 @001   ----------------------------------------
 .byte   W96
@  #02 @002   ----------------------------------------
 .byte   W96
@  #02 @003   ----------------------------------------
 .byte   W96
@  #02 @004   ----------------------------------------
 .byte   W96
@  #02 @005   ----------------------------------------
 .byte   W96
@  #02 @006   ----------------------------------------
 .byte   W96
@  #02 @007   ----------------------------------------
 .byte   N06 ,Bn2 ,v080
 .byte   N06 ,Bn3
 .byte   W12
 .byte   An2
 .byte   N06 ,An3
 .byte   W06
 .byte   Bn2
 .byte   N06 ,Bn3
 .byte   W12
 .byte   An2
 .byte   N06 ,An3
 .byte   W06
 .byte   Bn2
 .byte   N06 ,Bn3
 .byte   W12
 .byte   Bn2
 .byte   N06 ,Bn3
 .byte   W06
 .byte   BEND , c_v+0
 .byte   W42
@  #02 @008   ----------------------------------------
 .byte   W96
@  #02 @009   ----------------------------------------
 .byte   W96
@  #02 @010   ----------------------------------------
 .byte   W96
@  #02 @011   ----------------------------------------
 .byte   W96
@  #02 @012   ----------------------------------------
 .byte   W96
@  #02 @013   ----------------------------------------
 .byte   W96
@  #02 @014   ----------------------------------------
 .byte   W96
@  #02 @015   ----------------------------------------
 .byte   W96
@  #02 @016   ----------------------------------------
 .byte   W96
@  #02 @017   ----------------------------------------
 .byte   W96
@  #02 @018   ----------------------------------------
 .byte   W96
@  #02 @019   ----------------------------------------
 .byte   W96
@  #02 @020   ----------------------------------------
 .byte   W96
@  #02 @021   ----------------------------------------
 .byte   W96
@  #02 @022   ----------------------------------------
 .byte   W96
@  #02 @023   ----------------------------------------
 .byte   W96
@  #02 @024   ----------------------------------------
 .byte   W96
@  #02 @025   ----------------------------------------
 .byte   W96
@  #02 @026   ----------------------------------------
 .byte   W96
@  #02 @027   ----------------------------------------
 .byte   W96
@  #02 @028   ----------------------------------------
 .byte   W96
@  #02 @029   ----------------------------------------
 .byte   W96
@  #02 @030   ----------------------------------------
 .byte   W96
@  #02 @031   ----------------------------------------
 .byte   W96
@  #02 @032   ----------------------------------------
 .byte   W96
@  #02 @033   ----------------------------------------
 .byte   W96
@  #02 @034   ----------------------------------------
 .byte   W96
@  #02 @035   ----------------------------------------
 .byte   W96
@  #02 @036   ----------------------------------------
 .byte   W96
@  #02 @037   ----------------------------------------
 .byte   W96
@  #02 @038   ----------------------------------------
 .byte   W96
@  #02 @039   ----------------------------------------
 .byte   W96
@  #02 @040   ----------------------------------------
 .byte   GOTO
  .word Label_015F761E
@  #02 @041   ----------------------------------------
 .byte   W24
 .byte   FINE

@**************** Track 3 (Midi-Chn.2) ****************@

song01_003:
@  #03 @000   ----------------------------------------
 .byte   KEYSH , song01_key+0
Label_015F499A:
 .byte   VOICE , 48
 .byte   VOL , 45*song01_mvl/mxv
 .byte   PAN , c_v+0
 .byte   En3 ,v064
 .byte   PAN , c_v+0
 .byte   BEND , c_v+0
 .byte   W96
@  #03 @001   ----------------------------------------
 .byte   W96
@  #03 @002   ----------------------------------------
 .byte   W96
@  #03 @003   ----------------------------------------
 .byte   W96
@  #03 @004   ----------------------------------------
 .byte   W96
@  #03 @005   ----------------------------------------
 .byte   W96
@  #03 @006   ----------------------------------------
 .byte   W96
@  #03 @007   ----------------------------------------
 .byte   W96
@  #03 @008   ----------------------------------------
Label_015F49AD:
 .byte   N18 ,Dn3 ,v100
 .byte   N18 ,Bn3
 .byte   W18
 .byte   N30 ,Dn4
 .byte   N30 ,An4
 .byte   W30
 .byte   N18 ,Dn3
 .byte   N18 ,Bn3
 .byte   W18
 .byte   N30 ,Dn4
 .byte   N30 ,Gs4
 .byte   W30
 .byte   PEND 
@  #03 @009   ----------------------------------------
Label_015F49C3:
 .byte   N18 ,Dn3 ,v100
 .byte   N18 ,Bn3
 .byte   W18
 .byte   N30 ,Dn4
 .byte   N30 ,Gn4
 .byte   W30
 .byte   N18 ,Dn3
 .byte   N18 ,Bn3
 .byte   W18
 .byte   N30 ,Dn4
 .byte   N30 ,Fs4
 .byte   W30
 .byte   PEND 
@  #03 @010   ----------------------------------------
Label_015F49D9:
 .byte   N18 ,Cs4 ,v100
 .byte   N18 ,En4
 .byte   W18
 .byte   N06 ,Bn3
 .byte   N06 ,Dn4
 .byte   W18
 .byte   As3
 .byte   N06 ,Cs4
 .byte   W12
 .byte   N18 ,Bn3
 .byte   N18 ,Dn4
 .byte   W24
 .byte   Bn3
 .byte   N18 ,Gn4
 .byte   W24
 .byte   PEND 
@  #03 @011   ----------------------------------------
Label_015F49F2:
 .byte   N48 ,Bn3 ,v100
 .byte   N96 ,Fs4
 .byte   W48
 .byte   N48 ,As3
 .byte   W48
 .byte   PEND 
@  #03 @012   ----------------------------------------
 .byte   PATT
  .word Label_015F49AD
@  #03 @013   ----------------------------------------
 .byte   PATT
  .word Label_015F49C3
@  #03 @014   ----------------------------------------
Label_015F4A06:
 .byte   N18 ,Cs4 ,v100
 .byte   N18 ,En4
 .byte   W18
 .byte   N06 ,Bn3
 .byte   N06 ,Dn4
 .byte   W18
 .byte   As3
 .byte   N06 ,Cs4
 .byte   W12
 .byte   N18 ,En3
 .byte   N18 ,Bn3
 .byte   W24
 .byte   Cs3
 .byte   N18 ,As3
 .byte   W24
 .byte   PEND 
@  #03 @015   ----------------------------------------
 .byte   N84 ,Dn3
 .byte   N84 ,Bn3
 .byte   W96
@  #03 @016   ----------------------------------------
 .byte   PATT
  .word Label_015F49AD
@  #03 @017   ----------------------------------------
 .byte   PATT
  .word Label_015F49C3
@  #03 @018   ----------------------------------------
 .byte   PATT
  .word Label_015F49D9
@  #03 @019   ----------------------------------------
 .byte   PATT
  .word Label_015F49F2
@  #03 @020   ----------------------------------------
 .byte   PATT
  .word Label_015F49AD
@  #03 @021   ----------------------------------------
 .byte   PATT
  .word Label_015F49C3
@  #03 @022   ----------------------------------------
 .byte   PATT
  .word Label_015F4A06
@  #03 @023   ----------------------------------------
 .byte   N84 ,Dn3 ,v100
 .byte   N84 ,Bn3
 .byte   W96
@  #03 @024   ----------------------------------------
 .byte   W96
@  #03 @025   ----------------------------------------
 .byte   W96
@  #03 @026   ----------------------------------------
 .byte   W96
@  #03 @027   ----------------------------------------
 .byte   W96
@  #03 @028   ----------------------------------------
 .byte   W96
@  #03 @029   ----------------------------------------
 .byte   W96
@  #03 @030   ----------------------------------------
 .byte   W96
@  #03 @031   ----------------------------------------
 .byte   W96
@  #03 @032   ----------------------------------------
Label_015F4A55:
 .byte   N24 ,Dn3 ,v100
 .byte   N24 ,Gn3
 .byte   W24
 .byte   Dn4
 .byte   N24 ,Fs4
 .byte   W24
 .byte   N12 ,Cs4
 .byte   N12 ,En4
 .byte   W12
 .byte   Bn3
 .byte   N12 ,Dn4
 .byte   W12
 .byte   As3
 .byte   N12 ,Cs4
 .byte   W12
 .byte   Bn3
 .byte   N12 ,Dn4
 .byte   W12
 .byte   PEND 
@  #03 @033   ----------------------------------------
 .byte   N18 ,Dn3
 .byte   N18 ,Fs3
 .byte   W18
 .byte   N78 ,Dn4
 .byte   N78 ,Fs4
 .byte   W78
@  #03 @034   ----------------------------------------
 .byte   N24 ,Dn4
 .byte   N24 ,Fn4
 .byte   W24
 .byte   Bn3
 .byte   N24 ,Dn4
 .byte   W24
 .byte   N12 ,As3
 .byte   N12 ,Cs4
 .byte   W12
 .byte   Gs3
 .byte   N12 ,Bn3
 .byte   W12
 .byte   Fn3
 .byte   N12 ,As3
 .byte   W12
 .byte   Gs3
 .byte   N12 ,Bn3
 .byte   W12
@  #03 @035   ----------------------------------------
 .byte   N36 ,Fs3
 .byte   N36 ,Cs4
 .byte   W36
 .byte   N06 ,Bn3
 .byte   N06 ,En4
 .byte   W06
 .byte   Cn4
 .byte   N06 ,Fn4
 .byte   W06
 .byte   N48 ,Cs4
 .byte   N48 ,Fs4
 .byte   W48
@  #03 @036   ----------------------------------------
 .byte   PATT
  .word Label_015F4A55
@  #03 @037   ----------------------------------------
 .byte   N18 ,Fs4 ,v100
 .byte   N18 ,Bn4
 .byte   W18
 .byte   N54 ,Dn4
 .byte   N54 ,Fs4
 .byte   W54
 .byte   N12 ,Cs4
 .byte   N12 ,En4
 .byte   W12
 .byte   Bn3
 .byte   N12 ,Dn4
 .byte   W12
@  #03 @038   ----------------------------------------
 .byte   N18
 .byte   N18 ,Fn4
 .byte   W18
 .byte   As3
 .byte   N18 ,Dn4
 .byte   W18
 .byte   N12 ,As3
 .byte   N12 ,Cs4
 .byte   W12
 .byte   N18 ,Fs3
 .byte   N18 ,Bn3
 .byte   W18
 .byte   Fs3
 .byte   N18 ,As3
 .byte   W18
 .byte   N06 ,Bn2
 .byte   N06 ,Gs3
 .byte   W06
 .byte   Cs3
 .byte   N06 ,As3
 .byte   W06
@  #03 @039   ----------------------------------------
 .byte   N96 ,Dn3
 .byte   N96 ,Bn3
 .byte   W96
@  #03 @040   ----------------------------------------
 .byte   GOTO
  .word Label_015F499A
@  #03 @041   ----------------------------------------
 .byte   BEND , c_v+0
 .byte   W24
 .byte   FINE

@**************** Track 4 (Midi-Chn.3) ****************@

song01_004:
@  #04 @000   ----------------------------------------
 .byte   KEYSH , song01_key+0
Label_015F40A2:
 .byte   VOICE , 40
 .byte   VOL , 29*song01_mvl/mxv
 .byte   PAN , c_v+0
 .byte   En3 ,v064
 .byte   PAN , c_v+0
 .byte   BEND , c_v+0
 .byte   W96
@  #04 @001   ----------------------------------------
 .byte   W96
@  #04 @002   ----------------------------------------
 .byte   W96
@  #04 @003   ----------------------------------------
 .byte   W96
@  #04 @004   ----------------------------------------
 .byte   W96
@  #04 @005   ----------------------------------------
 .byte   W96
@  #04 @006   ----------------------------------------
 .byte   W96
@  #04 @007   ----------------------------------------
 .byte   W96
@  #04 @008   ----------------------------------------
 .byte   W96
@  #04 @009   ----------------------------------------
 .byte   W96
@  #04 @010   ----------------------------------------
 .byte   W96
@  #04 @011   ----------------------------------------
 .byte   W96
@  #04 @012   ----------------------------------------
 .byte   W96
@  #04 @013   ----------------------------------------
 .byte   W96
@  #04 @014   ----------------------------------------
 .byte   W96
@  #04 @015   ----------------------------------------
 .byte   W96
@  #04 @016   ----------------------------------------
Label_015F40BD:
 .byte   N18 ,Fs2 ,v092
 .byte   W18
 .byte   N30 ,En2
 .byte   W30
 .byte   N18 ,Dn2
 .byte   W18
 .byte   N30 ,En2
 .byte   W30
 .byte   PEND 
@  #04 @017   ----------------------------------------
Label_015F40CB:
 .byte   N18 ,Fs2 ,v092
 .byte   W18
 .byte   N30 ,Bn2
 .byte   W30
 .byte   N18 ,Dn3
 .byte   W18
 .byte   N30 ,Cs3
 .byte   W30
 .byte   PEND 
@  #04 @018   ----------------------------------------
 .byte   N18 ,Bn2
 .byte   W18
 .byte   Fs2
 .byte   W18
 .byte   N12 ,Gn2
 .byte   W12
 .byte   N24 ,Fs2
 .byte   W24
 .byte   En2
 .byte   W24
@  #04 @019   ----------------------------------------
 .byte   Fs2
 .byte   W24
 .byte   En2
 .byte   W24
 .byte   Dn2
 .byte   W24
 .byte   Cs2
 .byte   W24
@  #04 @020   ----------------------------------------
 .byte   PATT
  .word Label_015F40BD
@  #04 @021   ----------------------------------------
 .byte   PATT
  .word Label_015F40CB
@  #04 @022   ----------------------------------------
 .byte   N18 ,Bn2 ,v092
 .byte   W18
 .byte   Fs2
 .byte   W18
 .byte   N12 ,Gn2
 .byte   W12
 .byte   N24 ,Fs2
 .byte   W24
 .byte   Cs2
 .byte   W24
@  #04 @023   ----------------------------------------
 .byte   N96 ,Bn1
 .byte   W96
@  #04 @024   ----------------------------------------
 .byte   W96
@  #04 @025   ----------------------------------------
 .byte   W96
@  #04 @026   ----------------------------------------
 .byte   W96
@  #04 @027   ----------------------------------------
 .byte   W96
@  #04 @028   ----------------------------------------
 .byte   W96
@  #04 @029   ----------------------------------------
 .byte   W96
@  #04 @030   ----------------------------------------
 .byte   W96
@  #04 @031   ----------------------------------------
 .byte   W96
@  #04 @032   ----------------------------------------
 .byte   PAN , c_v+0
 .byte   BEND , c_v+0
 .byte   W96
@  #04 @033   ----------------------------------------
 .byte   W96
@  #04 @034   ----------------------------------------
 .byte   W96
@  #04 @035   ----------------------------------------
 .byte   W96
@  #04 @036   ----------------------------------------
 .byte   W96
@  #04 @037   ----------------------------------------
 .byte   W96
@  #04 @038   ----------------------------------------
 .byte   W96
@  #04 @039   ----------------------------------------
 .byte   W96
@  #04 @040   ----------------------------------------
 .byte   GOTO
  .word Label_015F40A2
@  #04 @041   ----------------------------------------
 .byte   W24
 .byte   FINE

@**************** Track 5 (Midi-Chn.4) ****************@

song01_005:
@  #05 @000   ----------------------------------------
 .byte   KEYSH , song01_key+0
Label_015F7BC6:
 .byte   VOICE , 41
 .byte   PAN , c_v+0
 .byte   VOL , 35*song01_mvl/mxv
 .byte   PAN , c_v+0
 .byte   VOL , 35*song01_mvl/mxv
 .byte   PAN , c_v+0
 .byte   VOL , 35*song01_mvl/mxv
 .byte   PAN , c_v+0
 .byte   VOL , 35*song01_mvl/mxv
 .byte   BEND , c_v+0
 .byte   W96
@  #05 @001   ----------------------------------------
 .byte   W96
@  #05 @002   ----------------------------------------
 .byte   W96
@  #05 @003   ----------------------------------------
 .byte   W96
@  #05 @004   ----------------------------------------
 .byte   W96
@  #05 @005   ----------------------------------------
 .byte   W96
@  #05 @006   ----------------------------------------
 .byte   W96
@  #05 @007   ----------------------------------------
 .byte   W96
@  #05 @008   ----------------------------------------
 .byte   W96
@  #05 @009   ----------------------------------------
 .byte   W96
@  #05 @010   ----------------------------------------
 .byte   W96
@  #05 @011   ----------------------------------------
 .byte   W96
@  #05 @012   ----------------------------------------
 .byte   W96
@  #05 @013   ----------------------------------------
 .byte   W96
@  #05 @014   ----------------------------------------
 .byte   W96
@  #05 @015   ----------------------------------------
 .byte   W96
@  #05 @016   ----------------------------------------
 .byte   W96
@  #05 @017   ----------------------------------------
 .byte   W96
@  #05 @018   ----------------------------------------
 .byte   W96
@  #05 @019   ----------------------------------------
 .byte   W96
@  #05 @020   ----------------------------------------
 .byte   W96
@  #05 @021   ----------------------------------------
 .byte   W96
@  #05 @022   ----------------------------------------
 .byte   W96
@  #05 @023   ----------------------------------------
 .byte   W96
@  #05 @024   ----------------------------------------
 .byte   W96
@  #05 @025   ----------------------------------------
 .byte   W96
@  #05 @026   ----------------------------------------
 .byte   W96
@  #05 @027   ----------------------------------------
 .byte   W96
@  #05 @028   ----------------------------------------
 .byte   W96
@  #05 @029   ----------------------------------------
 .byte   W96
@  #05 @030   ----------------------------------------
 .byte   W96
@  #05 @031   ----------------------------------------
 .byte   W96
@  #05 @032   ----------------------------------------
 .byte   N24 ,Gn2 ,v112
 .byte   W24
 .byte   N36 ,Dn3
 .byte   W36
 .byte   N12
 .byte   W12
 .byte   Cs3
 .byte   W12
 .byte   Dn3
 .byte   W12
@  #05 @033   ----------------------------------------
 .byte   N18 ,Fs2
 .byte   W18
 .byte   N54 ,Dn3
 .byte   W54
 .byte   N24 ,Fs3
 .byte   W24
@  #05 @034   ----------------------------------------
 .byte   N72 ,Gs3
 .byte   W72
 .byte   N24 ,Fn3
 .byte   W24
@  #05 @035   ----------------------------------------
 .byte   N48 ,Bn3
 .byte   W48
 .byte   As3
 .byte   W48
@  #05 @036   ----------------------------------------
 .byte   N72 ,Dn3
 .byte   W72
 .byte   N24 ,En3
 .byte   W24
@  #05 @037   ----------------------------------------
 .byte   N72 ,Fs3
 .byte   W72
 .byte   N24 ,En3
 .byte   W24
@  #05 @038   ----------------------------------------
 .byte   N18 ,Gs3
 .byte   W18
 .byte   As3
 .byte   W18
 .byte   N12 ,Fn3
 .byte   W12
 .byte   N24 ,En3
 .byte   W24
 .byte   N12 ,Fs3
 .byte   W12
 .byte   N06 ,En3
 .byte   W06
 .byte   Ds3
 .byte   W06
@  #05 @039   ----------------------------------------
 .byte   N96 ,Dn3
 .byte   W96
@  #05 @040   ----------------------------------------
 .byte   GOTO
  .word Label_015F7BC6
@  #05 @041   ----------------------------------------
 .byte   BEND , c_v+0
 .byte   W24
 .byte   FINE

@**************** Track 6 (Midi-Chn.5) ****************@

song01_006:
@  #06 @000   ----------------------------------------
 .byte   KEYSH , song01_key+0
Label_015F46D6:
 .byte   VOICE , 1
 .byte   VOL , 29*song01_mvl/mxv
 .byte   PAN , c_v+0
 .byte   En3 ,v064
 .byte   PAN , c_v+0
 .byte   BEND , c_v+0
 .byte   W96
@  #06 @001   ----------------------------------------
 .byte   W96
@  #06 @002   ----------------------------------------
 .byte   W96
@  #06 @003   ----------------------------------------
 .byte   W96
@  #06 @004   ----------------------------------------
 .byte   W96
@  #06 @005   ----------------------------------------
 .byte   W96
@  #06 @006   ----------------------------------------
 .byte   W96
@  #06 @007   ----------------------------------------
 .byte   W96
@  #06 @008   ----------------------------------------
Label_015F46E9:
 .byte   N06 ,Bn3 ,v100
 .byte   W06
 .byte   Dn4
 .byte   W06
 .byte   En4
 .byte   W06
 .byte   Bn3
 .byte   W06
 .byte   Dn4
 .byte   W06
 .byte   En4
 .byte   W06
 .byte   Fs3
 .byte   W06
 .byte   An3
 .byte   W06
 .byte   Bn3
 .byte   W06
 .byte   Dn4
 .byte   W06
 .byte   En4
 .byte   W06
 .byte   Bn3
 .byte   W06
 .byte   Dn4
 .byte   W06
 .byte   En4
 .byte   W06
 .byte   Fs3
 .byte   W06
 .byte   An3
 .byte   W06
 .byte   PEND 
@  #06 @009   ----------------------------------------
 .byte   PATT
  .word Label_015F46E9
@  #06 @010   ----------------------------------------
Label_015F4711:
 .byte   N06 ,Gn3 ,v100
 .byte   W06
 .byte   Bn3
 .byte   W06
 .byte   Dn4
 .byte   W06
 .byte   Gn3
 .byte   W06
 .byte   Bn3
 .byte   W06
 .byte   Dn4
 .byte   W12
 .byte   Fs3
 .byte   W06
 .byte   Gn3
 .byte   W06
 .byte   Bn3
 .byte   W06
 .byte   Dn4
 .byte   W06
 .byte   Gn3
 .byte   W06
 .byte   Bn3
 .byte   W06
 .byte   Dn4
 .byte   W06
 .byte   Gn3
 .byte   W06
 .byte   Bn3
 .byte   W06
 .byte   PEND 
@  #06 @011   ----------------------------------------
Label_015F4732:
 .byte   N06 ,Fs3 ,v100
 .byte   W06
 .byte   Bn3
 .byte   W12
 .byte   Fs3
 .byte   W06
 .byte   Bn3
 .byte   W12
 .byte   Fs3
 .byte   W06
 .byte   Bn3
 .byte   W06
 .byte   Fs3
 .byte   W06
 .byte   As3
 .byte   W12
 .byte   Fs3
 .byte   W06
 .byte   As3
 .byte   W12
 .byte   Fs3
 .byte   W06
 .byte   As3
 .byte   W06
 .byte   PEND 
@  #06 @012   ----------------------------------------
 .byte   PATT
  .word Label_015F46E9
@  #06 @013   ----------------------------------------
 .byte   PATT
  .word Label_015F46E9
@  #06 @014   ----------------------------------------
Label_015F4757:
 .byte   N06 ,Gn3 ,v100
 .byte   W06
 .byte   Bn3
 .byte   W06
 .byte   Dn4
 .byte   W06
 .byte   Gn3
 .byte   W06
 .byte   Bn3
 .byte   W06
 .byte   Dn4
 .byte   W06
 .byte   Gn3
 .byte   W06
 .byte   Bn3
 .byte   W06
 .byte   Fs3
 .byte   W06
 .byte   As3
 .byte   W06
 .byte   Cs4
 .byte   W06
 .byte   Fs3
 .byte   W06
 .byte   As3
 .byte   W06
 .byte   Cs4
 .byte   W06
 .byte   Fs3
 .byte   W06
 .byte   As3
 .byte   W06
 .byte   PEND 
@  #06 @015   ----------------------------------------
Label_015F477A:
 .byte   N06 ,Dn3 ,v100
 .byte   W06
 .byte   Fs3
 .byte   W06
 .byte   Bn3
 .byte   W06
 .byte   Dn2 ,v072
 .byte   N06 ,Dn3 ,v100
 .byte   W06
 .byte   Fs2 ,v072
 .byte   N06 ,Fs3 ,v100
 .byte   W06
 .byte   Bn3
 .byte   W06
 .byte   Dn3
 .byte   W06
 .byte   Fs3
 .byte   W06
 .byte   Dn3
 .byte   W06
 .byte   Fs3
 .byte   W06
 .byte   Bn3
 .byte   W06
 .byte   Dn2 ,v072
 .byte   N06 ,Dn3 ,v100
 .byte   W06
 .byte   Fs2 ,v072
 .byte   N06 ,Fs3 ,v100
 .byte   W06
 .byte   Bn3
 .byte   W06
 .byte   Dn3
 .byte   W06
 .byte   Fs3
 .byte   W06
 .byte   PEND 
@  #06 @016   ----------------------------------------
 .byte   PATT
  .word Label_015F46E9
@  #06 @017   ----------------------------------------
 .byte   PATT
  .word Label_015F46E9
@  #06 @018   ----------------------------------------
 .byte   PATT
  .word Label_015F4711
@  #06 @019   ----------------------------------------
 .byte   PATT
  .word Label_015F4732
@  #06 @020   ----------------------------------------
 .byte   PATT
  .word Label_015F46E9
@  #06 @021   ----------------------------------------
 .byte   PATT
  .word Label_015F46E9
@  #06 @022   ----------------------------------------
 .byte   PATT
  .word Label_015F4757
@  #06 @023   ----------------------------------------
 .byte   PATT
  .word Label_015F477A
@  #06 @024   ----------------------------------------
Label_015F47D5:
 .byte   N24 ,Gn2 ,v100
 .byte   W24
 .byte   Fs3
 .byte   W24
 .byte   N12 ,En3
 .byte   W12
 .byte   Dn3
 .byte   W12
 .byte   Cs3
 .byte   W12
 .byte   Dn3
 .byte   W12
 .byte   PEND 
@  #06 @025   ----------------------------------------
Label_015F47E5:
 .byte   N18 ,Fs2 ,v100
 .byte   W18
 .byte   N78 ,Fs3
 .byte   W78
 .byte   PEND 
@  #06 @026   ----------------------------------------
Label_015F47ED:
 .byte   N24 ,Fn3 ,v100
 .byte   W24
 .byte   Dn3
 .byte   W24
 .byte   N12 ,Cs3
 .byte   W12
 .byte   Bn2
 .byte   W12
 .byte   As2
 .byte   W12
 .byte   Bn2
 .byte   W12
 .byte   PEND 
@  #06 @027   ----------------------------------------
Label_015F47FD:
 .byte   N36 ,Cs3 ,v100
 .byte   W36
 .byte   N06 ,En3
 .byte   W06
 .byte   Fn3
 .byte   W06
 .byte   N48 ,Fs3
 .byte   W48
 .byte   PEND 
@  #06 @028   ----------------------------------------
 .byte   PATT
  .word Label_015F47D5
@  #06 @029   ----------------------------------------
Label_015F480F:
 .byte   N18 ,Bn3 ,v100
 .byte   W18
 .byte   N54 ,Fs3
 .byte   W54
 .byte   N12 ,En3
 .byte   W12
 .byte   Dn3
 .byte   W12
 .byte   PEND 
@  #06 @030   ----------------------------------------
Label_015F481C:
 .byte   N18 ,Fn3 ,v100
 .byte   W18
 .byte   Dn3
 .byte   W18
 .byte   N12 ,Cs3
 .byte   W12
 .byte   N18 ,Bn2
 .byte   W18
 .byte   As2
 .byte   W18
 .byte   N06 ,Gs2
 .byte   W06
 .byte   As2
 .byte   W06
 .byte   PEND 
@  #06 @031   ----------------------------------------
 .byte   N96 ,Bn2
 .byte   W96
@  #06 @032   ----------------------------------------
 .byte   PATT
  .word Label_015F47D5
@  #06 @033   ----------------------------------------
 .byte   PATT
  .word Label_015F47E5
@  #06 @034   ----------------------------------------
 .byte   PATT
  .word Label_015F47ED
@  #06 @035   ----------------------------------------
 .byte   PATT
  .word Label_015F47FD
@  #06 @036   ----------------------------------------
 .byte   PATT
  .word Label_015F47D5
@  #06 @037   ----------------------------------------
 .byte   PATT
  .word Label_015F480F
@  #06 @038   ----------------------------------------
 .byte   PATT
  .word Label_015F481C
@  #06 @039   ----------------------------------------
 .byte   N96 ,Bn2 ,v100
 .byte   W96
@  #06 @040   ----------------------------------------
 .byte   GOTO
  .word Label_015F46D6
@  #06 @041   ----------------------------------------
 .byte   BEND , c_v+0
 .byte   W24
 .byte   FINE

@**************** Track 7 (Midi-Chn.6) ****************@

song01_007:
@  #07 @000   ----------------------------------------
 .byte   KEYSH , song01_key+0
Label_015F7C4A:
 .byte   VOICE , 75
 .byte   PAN , c_v+1
 .byte   VOL , 50*song01_mvl/mxv
 .byte   BEND , c_v+0
 .byte   W96
@  #07 @001   ----------------------------------------
Label_015F7C53:
 .byte   W06
 .byte   N06 ,Bn3 ,v080
 .byte   W06
 .byte   As3
 .byte   W06
 .byte   Bn3
 .byte   W06
 .byte   Dn4
 .byte   W06
 .byte   Bn3
 .byte   W06
 .byte   As3
 .byte   W06
 .byte   Bn3
 .byte   W06
 .byte   N42 ,Fs4
 .byte   W48
 .byte   PEND 
@  #07 @002   ----------------------------------------
 .byte   W96
@  #07 @003   ----------------------------------------
 .byte   W06
 .byte   N06 ,Gn4
 .byte   W06
 .byte   Fs4
 .byte   W06
 .byte   En4
 .byte   W06
 .byte   Dn4
 .byte   W06
 .byte   En4
 .byte   W06
 .byte   Fs4
 .byte   W06
 .byte   Gn4
 .byte   W06
 .byte   N42 ,Fs4
 .byte   W48
@  #07 @004   ----------------------------------------
 .byte   W96
@  #07 @005   ----------------------------------------
 .byte   PATT
  .word Label_015F7C53
@  #07 @006   ----------------------------------------
 .byte   W30
 .byte   N06 ,Gn4 ,v080
 .byte   W06
 .byte   Fs4
 .byte   W06
 .byte   En4
 .byte   W06
 .byte   Dn4
 .byte   W06
 .byte   En4
 .byte   W06
 .byte   Fs4
 .byte   W06
 .byte   Gn4
 .byte   W06
 .byte   Fs4
 .byte   W06
 .byte   Cs4
 .byte   W06
 .byte   As3
 .byte   W06
 .byte   Cs4
 .byte   W06
@  #07 @007   ----------------------------------------
 .byte   Bn4
 .byte   W12
 .byte   An4
 .byte   W06
 .byte   Bn4
 .byte   W12
 .byte   An4
 .byte   W06
 .byte   Bn4
 .byte   W12
 .byte   N06
 .byte   W06
 .byte   BEND , c_v+0
 .byte   W42
@  #07 @008   ----------------------------------------
 .byte   W96
@  #07 @009   ----------------------------------------
 .byte   W96
@  #07 @010   ----------------------------------------
 .byte   W96
@  #07 @011   ----------------------------------------
 .byte   W96
@  #07 @012   ----------------------------------------
 .byte   W96
@  #07 @013   ----------------------------------------
 .byte   W96
@  #07 @014   ----------------------------------------
 .byte   W96
@  #07 @015   ----------------------------------------
 .byte   W96
@  #07 @016   ----------------------------------------
 .byte   W96
@  #07 @017   ----------------------------------------
 .byte   W96
@  #07 @018   ----------------------------------------
 .byte   W96
@  #07 @019   ----------------------------------------
 .byte   W96
@  #07 @020   ----------------------------------------
 .byte   W96
@  #07 @021   ----------------------------------------
 .byte   W96
@  #07 @022   ----------------------------------------
 .byte   W96
@  #07 @023   ----------------------------------------
 .byte   W96
@  #07 @024   ----------------------------------------
 .byte   W96
@  #07 @025   ----------------------------------------
 .byte   W96
@  #07 @026   ----------------------------------------
 .byte   W96
@  #07 @027   ----------------------------------------
 .byte   W96
@  #07 @028   ----------------------------------------
 .byte   W96
@  #07 @029   ----------------------------------------
 .byte   W96
@  #07 @030   ----------------------------------------
 .byte   W96
@  #07 @031   ----------------------------------------
 .byte   W96
@  #07 @032   ----------------------------------------
 .byte   W96
@  #07 @033   ----------------------------------------
 .byte   W96
@  #07 @034   ----------------------------------------
 .byte   W96
@  #07 @035   ----------------------------------------
 .byte   W96
@  #07 @036   ----------------------------------------
 .byte   W96
@  #07 @037   ----------------------------------------
 .byte   W96
@  #07 @038   ----------------------------------------
 .byte   W96
@  #07 @039   ----------------------------------------
 .byte   W96
@  #07 @040   ----------------------------------------
 .byte   GOTO
  .word Label_015F7C4A
@  #07 @041   ----------------------------------------
 .byte   W24
 .byte   FINE

@**************** Track 8 (Midi-Chn.7) ****************@

song01_008:
@  #08 @000   ----------------------------------------
 .byte   KEYSH , song01_key+0
Label_015F4AF2:
 .byte   VOICE , 80
 .byte   PAN , c_v-64
 .byte   VOL , 33*song01_mvl/mxv
 .byte   VOL , 33*song01_mvl/mxv
 .byte   PAN , c_v-64
 .byte   VOL , 33*song01_mvl/mxv
 .byte   PAN , c_v-64
 .byte   VOL , 33*song01_mvl/mxv
 .byte   BEND , c_v+0
 .byte   W96
@  #08 @001   ----------------------------------------
 .byte   W96
@  #08 @002   ----------------------------------------
 .byte   W96
@  #08 @003   ----------------------------------------
 .byte   W96
@  #08 @004   ----------------------------------------
 .byte   W96
@  #08 @005   ----------------------------------------
 .byte   W96
@  #08 @006   ----------------------------------------
 .byte   W96
@  #08 @007   ----------------------------------------
 .byte   W96
@  #08 @008   ----------------------------------------
 .byte   W96
@  #08 @009   ----------------------------------------
 .byte   W96
@  #08 @010   ----------------------------------------
 .byte   W96
@  #08 @011   ----------------------------------------
 .byte   W96
@  #08 @012   ----------------------------------------
 .byte   W96
@  #08 @013   ----------------------------------------
 .byte   W96
@  #08 @014   ----------------------------------------
 .byte   W96
@  #08 @015   ----------------------------------------
 .byte   W96
@  #08 @016   ----------------------------------------
 .byte   W96
@  #08 @017   ----------------------------------------
 .byte   W96
@  #08 @018   ----------------------------------------
 .byte   W96
@  #08 @019   ----------------------------------------
 .byte   W96
@  #08 @020   ----------------------------------------
 .byte   W96
@  #08 @021   ----------------------------------------
 .byte   W96
@  #08 @022   ----------------------------------------
 .byte   W96
@  #08 @023   ----------------------------------------
 .byte   W96
@  #08 @024   ----------------------------------------
 .byte   W96
@  #08 @025   ----------------------------------------
 .byte   W96
@  #08 @026   ----------------------------------------
 .byte   W96
@  #08 @027   ----------------------------------------
 .byte   W96
@  #08 @028   ----------------------------------------
 .byte   W96
@  #08 @029   ----------------------------------------
 .byte   W96
@  #08 @030   ----------------------------------------
 .byte   W96
@  #08 @031   ----------------------------------------
 .byte   W96
@  #08 @032   ----------------------------------------
 .byte   N06 ,Dn4 ,v084
 .byte   W18
 .byte   N06
 .byte   W18
 .byte   Cs4
 .byte   W12
 .byte   Dn4
 .byte   W18
 .byte   N06
 .byte   W18
 .byte   Cs4
 .byte   W12
@  #08 @033   ----------------------------------------
Label_015F4B31:
 .byte   PAN , c_v+63
 .byte   N06 ,Dn4 ,v084
 .byte   W18
 .byte   N06
 .byte   W18
 .byte   Cs4
 .byte   W12
 .byte   Dn4
 .byte   W18
 .byte   N06
 .byte   W18
 .byte   Cs4
 .byte   W12
 .byte   PEND 
@  #08 @034   ----------------------------------------
 .byte   PAN , c_v-64
 .byte   N06 ,Fn4
 .byte   W18
 .byte   N06
 .byte   W18
 .byte   Cs4
 .byte   W12
 .byte   Fn4
 .byte   W18
 .byte   N06
 .byte   W18
 .byte   Cs4
 .byte   W12
@  #08 @035   ----------------------------------------
 .byte   PAN , c_v+63
 .byte   N06 ,Fs4
 .byte   W18
 .byte   N06
 .byte   W18
 .byte   Cs4
 .byte   W12
 .byte   Fs4
 .byte   W18
 .byte   N06
 .byte   W18
 .byte   Cs4
 .byte   W12
@  #08 @036   ----------------------------------------
 .byte   PAN , c_v-64
 .byte   N06 ,Dn4
 .byte   W18
 .byte   N06
 .byte   W18
 .byte   Cs4
 .byte   W12
 .byte   Dn4
 .byte   W18
 .byte   N06
 .byte   W18
 .byte   Cs4
 .byte   W12
@  #08 @037   ----------------------------------------
 .byte   PATT
  .word Label_015F4B31
@  #08 @038   ----------------------------------------
 .byte   PAN , c_v-64
 .byte   N06 ,Fn4 ,v084
 .byte   W18
 .byte   N06
 .byte   W18
 .byte   Cs4
 .byte   W12
 .byte   Fs4
 .byte   W18
 .byte   N06
 .byte   W18
 .byte   Cs4
 .byte   W12
@  #08 @039   ----------------------------------------
 .byte   PAN , c_v+63
 .byte   N06 ,Bn3
 .byte   W18
 .byte   N06
 .byte   W18
 .byte   An3
 .byte   W12
 .byte   Bn3
 .byte   W06
 .byte   BEND , c_v+0
 .byte   W42
@  #08 @040   ----------------------------------------
 .byte   GOTO
  .word Label_015F4AF2
@  #08 @041   ----------------------------------------
 .byte   W24
 .byte   FINE

@**************** Track 9 (Midi-Chn.8) ****************@

song01_009:
@  #09 @000   ----------------------------------------
 .byte   KEYSH , song01_key+0
Label_015F43BE:
 .byte   VOICE , 36
 .byte   PAN , c_v+0
 .byte   VOL , 42*song01_mvl/mxv
 .byte   PAN , c_v+0
 .byte   VOL , 42*song01_mvl/mxv
 .byte   PAN , c_v+0
 .byte   VOL , 42*song01_mvl/mxv
 .byte   PAN , c_v+0
 .byte   VOL , 42*song01_mvl/mxv
 .byte   BEND , c_v+0
 .byte   N12 ,Bn0 ,v100
 .byte   W18
 .byte   N06 ,Bn1
 .byte   W12
 .byte   Fs1
 .byte   W06
 .byte   An1
 .byte   W06
 .byte   Fs1
 .byte   W06
 .byte   N12 ,Bn1
 .byte   W18
 .byte   N06
 .byte   W12
 .byte   Bn1 ,v076
 .byte   W06
 .byte   N06
 .byte   W12
@  #09 @001   ----------------------------------------
Label_015F43E9:
 .byte   N12 ,Bn1 ,v076
 .byte   W12
 .byte   N06
 .byte   W12
 .byte   N06
 .byte   W06
 .byte   Fs1 ,v100
 .byte   W06
 .byte   An1
 .byte   W06
 .byte   Fs1
 .byte   W06
 .byte   N12 ,Bn1
 .byte   W18
 .byte   N06
 .byte   W12
 .byte   Fs1
 .byte   W06
 .byte   An1
 .byte   W06
 .byte   Fs1
 .byte   W06
 .byte   PEND 
@  #09 @002   ----------------------------------------
 .byte   N12 ,Gn1
 .byte   W18
 .byte   N06
 .byte   W12
 .byte   Dn1
 .byte   W06
 .byte   Fn1
 .byte   W06
 .byte   Dn1
 .byte   W06
 .byte   N12 ,Gn1
 .byte   W18
 .byte   N06
 .byte   W12
 .byte   Gn1 ,v076
 .byte   W06
 .byte   N06
 .byte   W12
@  #09 @003   ----------------------------------------
 .byte   N12 ,Fs1
 .byte   W12
 .byte   N06
 .byte   W12
 .byte   N06
 .byte   W06
 .byte   Cs1 ,v100
 .byte   W06
 .byte   En1
 .byte   W06
 .byte   Cs1
 .byte   W06
 .byte   N12 ,Fs1
 .byte   W18
 .byte   N06
 .byte   W12
 .byte   An1
 .byte   W06
 .byte   Cn2
 .byte   W06
 .byte   An1
 .byte   W06
@  #09 @004   ----------------------------------------
 .byte   N12 ,Bn1
 .byte   W18
 .byte   N06
 .byte   W12
 .byte   Fs1
 .byte   W06
 .byte   An1
 .byte   W06
 .byte   Fs1
 .byte   W06
 .byte   N12 ,Bn1
 .byte   W18
 .byte   N06
 .byte   W12
 .byte   Bn1 ,v076
 .byte   W06
 .byte   N06
 .byte   W12
@  #09 @005   ----------------------------------------
 .byte   PATT
  .word Label_015F43E9
@  #09 @006   ----------------------------------------
Label_015F444C:
 .byte   N12 ,Gn1 ,v100
 .byte   W18
 .byte   N06
 .byte   W12
 .byte   Dn1
 .byte   W06
 .byte   Fn1
 .byte   W06
 .byte   Dn1
 .byte   W06
 .byte   N12 ,Fs1
 .byte   W18
 .byte   N06
 .byte   W12
 .byte   Cs1
 .byte   W06
 .byte   En1
 .byte   W06
 .byte   Cs1
 .byte   W06
 .byte   PEND 
@  #09 @007   ----------------------------------------
 .byte   N12 ,Bn1
 .byte   W18
 .byte   N06
 .byte   W12
 .byte   Fs1
 .byte   W06
 .byte   Bn1
 .byte   W12
 .byte   N12
 .byte   W18
 .byte   N06 ,Fs1
 .byte   W12
 .byte   N06
 .byte   W06
 .byte   Dn1
 .byte   W06
 .byte   N06
 .byte   W06
@  #09 @008   ----------------------------------------
Label_015F4478:
 .byte   N12 ,Bn1 ,v100
 .byte   W18
 .byte   N06
 .byte   W12
 .byte   Fs1
 .byte   W06
 .byte   An1
 .byte   W06
 .byte   Fs1
 .byte   W06
 .byte   N12 ,Bn1
 .byte   W18
 .byte   N06
 .byte   W12
 .byte   Fs1
 .byte   W06
 .byte   An1
 .byte   W06
 .byte   Fs1
 .byte   W06
 .byte   PEND 
@  #09 @009   ----------------------------------------
 .byte   PATT
  .word Label_015F4478
@  #09 @010   ----------------------------------------
Label_015F4495:
 .byte   N12 ,Gn1 ,v100
 .byte   W18
 .byte   N06
 .byte   W12
 .byte   Dn1
 .byte   W06
 .byte   Fn1
 .byte   W06
 .byte   Dn1
 .byte   W06
 .byte   N12 ,Gn1
 .byte   W18
 .byte   N06
 .byte   W12
 .byte   Dn1
 .byte   W06
 .byte   Fn1
 .byte   W06
 .byte   Dn1
 .byte   W06
 .byte   PEND 
@  #09 @011   ----------------------------------------
Label_015F44AD:
 .byte   N12 ,Fs1 ,v100
 .byte   W18
 .byte   N06
 .byte   W12
 .byte   Cs1
 .byte   W06
 .byte   En1
 .byte   W06
 .byte   Cs1
 .byte   W06
 .byte   N12 ,Fs1
 .byte   W18
 .byte   N06
 .byte   W12
 .byte   Cs1
 .byte   W06
 .byte   En1
 .byte   W06
 .byte   Cs1
 .byte   W06
 .byte   PEND 
@  #09 @012   ----------------------------------------
 .byte   PATT
  .word Label_015F4478
@  #09 @013   ----------------------------------------
 .byte   PATT
  .word Label_015F4478
@  #09 @014   ----------------------------------------
 .byte   PATT
  .word Label_015F444C
@  #09 @015   ----------------------------------------
 .byte   PATT
  .word Label_015F4478
@  #09 @016   ----------------------------------------
 .byte   PATT
  .word Label_015F4478
@  #09 @017   ----------------------------------------
 .byte   PATT
  .word Label_015F4478
@  #09 @018   ----------------------------------------
 .byte   PATT
  .word Label_015F4495
@  #09 @019   ----------------------------------------
 .byte   PATT
  .word Label_015F44AD
@  #09 @020   ----------------------------------------
 .byte   PATT
  .word Label_015F4478
@  #09 @021   ----------------------------------------
 .byte   PATT
  .word Label_015F4478
@  #09 @022   ----------------------------------------
 .byte   PATT
  .word Label_015F444C
@  #09 @023   ----------------------------------------
 .byte   PATT
  .word Label_015F4478
@  #09 @024   ----------------------------------------
Label_015F4501:
 .byte   N12 ,Gn2 ,v100
 .byte   W18
 .byte   N06
 .byte   W12
 .byte   N06
 .byte   W06
 .byte   An2
 .byte   W06
 .byte   Fs2
 .byte   W06
 .byte   N12 ,Gn2
 .byte   W18
 .byte   N06
 .byte   W12
 .byte   N06
 .byte   W06
 .byte   Fs2
 .byte   W06
 .byte   Dn2
 .byte   W06
 .byte   PEND 
@  #09 @025   ----------------------------------------
Label_015F4519:
 .byte   N12 ,Bn1 ,v100
 .byte   W18
 .byte   N06
 .byte   W12
 .byte   N06
 .byte   W06
 .byte   An1
 .byte   W06
 .byte   As1
 .byte   W06
 .byte   N12 ,Bn1
 .byte   W18
 .byte   N06
 .byte   W12
 .byte   N06
 .byte   W06
 .byte   An1
 .byte   W06
 .byte   As1
 .byte   W06
 .byte   PEND 
@  #09 @026   ----------------------------------------
Label_015F4531:
 .byte   N12 ,Cs2 ,v100
 .byte   W18
 .byte   N06
 .byte   W12
 .byte   N06
 .byte   W06
 .byte   Dn2
 .byte   W06
 .byte   Cn2
 .byte   W06
 .byte   N12 ,Cs2
 .byte   W18
 .byte   N06
 .byte   W12
 .byte   N06
 .byte   W06
 .byte   Dn2
 .byte   W06
 .byte   Cn2
 .byte   W06
 .byte   PEND 
@  #09 @027   ----------------------------------------
Label_015F4549:
 .byte   N12 ,Fs2 ,v100
 .byte   W18
 .byte   N06
 .byte   W12
 .byte   N06
 .byte   W06
 .byte   Fn2
 .byte   W06
 .byte   Fs2
 .byte   W06
 .byte   N12 ,As2
 .byte   W18
 .byte   N06
 .byte   W12
 .byte   N06
 .byte   W06
 .byte   An2
 .byte   W06
 .byte   As2
 .byte   W06
 .byte   PEND 
@  #09 @028   ----------------------------------------
 .byte   PATT
  .word Label_015F4501
@  #09 @029   ----------------------------------------
 .byte   PATT
  .word Label_015F4519
@  #09 @030   ----------------------------------------
Label_015F456B:
 .byte   N12 ,Cs2 ,v100
 .byte   W18
 .byte   N06
 .byte   W12
 .byte   N06
 .byte   W06
 .byte   Dn2
 .byte   W06
 .byte   Cn2
 .byte   W06
 .byte   N12 ,Fs2
 .byte   W18
 .byte   N06
 .byte   W12
 .byte   N06
 .byte   W06
 .byte   Fn2
 .byte   W06
 .byte   Fs2
 .byte   W06
 .byte   PEND 
@  #09 @031   ----------------------------------------
 .byte   PATT
  .word Label_015F4519
@  #09 @032   ----------------------------------------
 .byte   PATT
  .word Label_015F4501
@  #09 @033   ----------------------------------------
 .byte   PATT
  .word Label_015F4519
@  #09 @034   ----------------------------------------
 .byte   PATT
  .word Label_015F4531
@  #09 @035   ----------------------------------------
 .byte   PATT
  .word Label_015F4549
@  #09 @036   ----------------------------------------
 .byte   PATT
  .word Label_015F4501
@  #09 @037   ----------------------------------------
 .byte   PATT
  .word Label_015F4519
@  #09 @038   ----------------------------------------
 .byte   PATT
  .word Label_015F456B
@  #09 @039   ----------------------------------------
 .byte   PATT
  .word Label_015F4519
@  #09 @040   ----------------------------------------
 .byte   GOTO
  .word Label_015F43BE
@  #09 @041   ----------------------------------------
 .byte   BEND , c_v+0
 .byte   W24
 .byte   FINE

@**************** Track 10 (Midi-Chn.9) ****************@

song01_010:
@  #10 @000   ----------------------------------------
 .byte   KEYSH , song01_key+0
Label_015F8FF6:
 .byte   VOICE , 124
 .byte   PAN , c_v+0
 .byte   VOL , 31*song01_mvl/mxv
 .byte   PAN , c_v+0
 .byte   VOL , 31*song01_mvl/mxv
 .byte   PAN , c_v+0
 .byte   VOL , 31*song01_mvl/mxv
 .byte   PAN , c_v+0
 .byte   VOL , 31*song01_mvl/mxv
 .byte   BEND , c_v+0
 .byte   N01 ,Cn1 ,v100
 .byte   N01 ,As1 ,v076
 .byte   N01 ,Fs2 ,v080
 .byte   W06
 .byte   N01
 .byte   W06
 .byte   Fs1 ,v100
 .byte   N01 ,Fs2 ,v080
 .byte   W06
 .byte   Cn1 ,v100
 .byte   N01 ,As1 ,v076
 .byte   N01 ,Fs2 ,v080
 .byte   W06
 .byte   N01
 .byte   W06
 .byte   Fs1 ,v100
 .byte   N01 ,Fs2 ,v080
 .byte   W06
 .byte   Ds1 ,v100
 .byte   N01 ,As1 ,v076
 .byte   N01 ,Fs2 ,v080
 .byte   W06
 .byte   Fs1 ,v100
 .byte   N01 ,Fs2 ,v080
 .byte   W06
 .byte   Cn1 ,v100
 .byte   N01 ,As1 ,v076
 .byte   N01 ,Fs2 ,v080
 .byte   W06
 .byte   N01
 .byte   W06
 .byte   Fs1 ,v100
 .byte   N01 ,Fs2 ,v080
 .byte   W06
 .byte   Cn1 ,v100
 .byte   N01 ,As1 ,v076
 .byte   N01 ,Fs2 ,v080
 .byte   W06
 .byte   N01
 .byte   W06
 .byte   Fs1 ,v100
 .byte   N01 ,Fs2 ,v080
 .byte   W06
 .byte   Ds1 ,v100
 .byte   N01 ,As1 ,v076
 .byte   N01 ,Fs2 ,v080
 .byte   W06
 .byte   Fs1 ,v100
 .byte   N01 ,Fs2 ,v080
 .byte   W06
@  #10 @001   ----------------------------------------
Label_015F906D:
 .byte   N01 ,Cn1 ,v100
 .byte   N01 ,As1 ,v076
 .byte   N01 ,Fs2 ,v080
 .byte   W06
 .byte   N01
 .byte   W06
 .byte   Fs1 ,v100
 .byte   N01 ,Fs2 ,v080
 .byte   W06
 .byte   Cn1 ,v100
 .byte   N01 ,As1 ,v076
 .byte   N01 ,Fs2 ,v080
 .byte   W06
 .byte   N01
 .byte   W06
 .byte   Fs1 ,v100
 .byte   N01 ,Fs2 ,v080
 .byte   W06
 .byte   Ds1 ,v100
 .byte   N01 ,As1 ,v076
 .byte   N01 ,Fs2 ,v080
 .byte   W06
 .byte   Fs1 ,v100
 .byte   N01 ,Fs2 ,v080
 .byte   W06
 .byte   Cn1 ,v100
 .byte   N01 ,As1 ,v076
 .byte   N01 ,Fs2 ,v080
 .byte   W06
 .byte   N01
 .byte   W06
 .byte   Fs1 ,v100
 .byte   N01 ,Fs2 ,v080
 .byte   W06
 .byte   Cn1 ,v100
 .byte   N01 ,As1 ,v076
 .byte   N01 ,Fs2 ,v080
 .byte   W06
 .byte   N01
 .byte   W06
 .byte   Fs1 ,v100
 .byte   N01 ,Fs2 ,v080
 .byte   W06
 .byte   Ds1 ,v100
 .byte   N01 ,As1 ,v076
 .byte   N01 ,Fs2 ,v080
 .byte   W06
 .byte   Fs1 ,v100
 .byte   N01 ,Fs2 ,v080
 .byte   W06
 .byte   PEND 
@  #10 @002   ----------------------------------------
 .byte   PATT
  .word Label_015F906D
@  #10 @003   ----------------------------------------
 .byte   PATT
  .word Label_015F906D
@  #10 @004   ----------------------------------------
 .byte   PATT
  .word Label_015F906D
@  #10 @005   ----------------------------------------
 .byte   PATT
  .word Label_015F906D
@  #10 @006   ----------------------------------------
 .byte   PATT
  .word Label_015F906D
@  #10 @007   ----------------------------------------
 .byte   N01 ,En0 ,v100
 .byte   N01 ,Cn1
 .byte   N01 ,As1 ,v076
 .byte   N01 ,Fs2 ,v080
 .byte   W06
 .byte   N01
 .byte   W06
 .byte   En0 ,v100
 .byte   N01 ,Fs1
 .byte   N01 ,Fs2 ,v080
 .byte   W06
 .byte   En0 ,v100
 .byte   N01 ,Cn1
 .byte   N01 ,As1 ,v076
 .byte   N01 ,Fs2 ,v080
 .byte   W06
 .byte   N01
 .byte   W06
 .byte   En0 ,v100
 .byte   N01 ,Fs1
 .byte   N01 ,Fs2 ,v080
 .byte   W06
 .byte   En0 ,v100
 .byte   N01 ,Dn1
 .byte   N01 ,Ds1
 .byte   N01 ,As1 ,v076
 .byte   N01 ,Fs2 ,v080
 .byte   W06
 .byte   Fs1 ,v100
 .byte   N01 ,Fs2 ,v080
 .byte   W06
 .byte   En0 ,v100
 .byte   N01 ,Dn1
 .byte   N01 ,As1 ,v076
 .byte   N01 ,Fs2 ,v080
 .byte   W06
 .byte   N01
 .byte   W06
 .byte   En0 ,v100
 .byte   N01 ,Dn1 ,v080
 .byte   N01 ,Fs1 ,v100
 .byte   N01 ,Fs2 ,v080
 .byte   W06
 .byte   As1 ,v076
 .byte   N01 ,Fs2 ,v080
 .byte   W06
 .byte   En0 ,v100
 .byte   N01 ,Dn1
 .byte   N01 ,Fs2 ,v080
 .byte   W06
 .byte   Fs1 ,v100
 .byte   N01 ,Fs2 ,v080
 .byte   W06
 .byte   En0 ,v100
 .byte   N01 ,Dn1
 .byte   N01 ,Ds1
 .byte   N01 ,As1 ,v076
 .byte   N01 ,Fs2 ,v080
 .byte   W06
 .byte   En0 ,v100
 .byte   N01 ,Dn1
 .byte   N01 ,Fs1
 .byte   N01 ,Fs2 ,v080
 .byte   W06
@  #10 @008   ----------------------------------------
Label_015F916C:
 .byte   N01 ,Cn1 ,v100
 .byte   N01 ,As1 ,v076
 .byte   N01 ,Fs2 ,v080
 .byte   W06
 .byte   N01
 .byte   W06
 .byte   Fs1 ,v100
 .byte   N01 ,Fs2 ,v080
 .byte   W06
 .byte   Cn1 ,v100
 .byte   N01 ,As1 ,v076
 .byte   N01 ,Fs2 ,v080
 .byte   W06
 .byte   N01
 .byte   W06
 .byte   Fs1 ,v100
 .byte   N01 ,Fs2 ,v080
 .byte   W06
 .byte   Ds1 ,v100
 .byte   N01 ,En1 ,v092
 .byte   N01 ,As1 ,v076
 .byte   N01 ,Fs2 ,v080
 .byte   W06
 .byte   Fs1 ,v100
 .byte   N01 ,Fs2 ,v080
 .byte   W06
 .byte   Cn1 ,v100
 .byte   N01 ,As1 ,v076
 .byte   N01 ,Fs2 ,v080
 .byte   W06
 .byte   N01
 .byte   W06
 .byte   Fs1 ,v100
 .byte   N01 ,Fs2 ,v080
 .byte   W06
 .byte   Cn1 ,v100
 .byte   N01 ,As1 ,v076
 .byte   N01 ,Fs2 ,v080
 .byte   W06
 .byte   N01
 .byte   W06
 .byte   Fs1 ,v100
 .byte   N01 ,Fs2 ,v080
 .byte   W06
 .byte   Ds1 ,v100
 .byte   N01 ,En1 ,v092
 .byte   N01 ,As1 ,v076
 .byte   N01 ,Fs2 ,v080
 .byte   W06
 .byte   Fs1 ,v100
 .byte   N01 ,Fs2 ,v080
 .byte   W06
 .byte   PEND 
@  #10 @009   ----------------------------------------
 .byte   PATT
  .word Label_015F916C
@  #10 @010   ----------------------------------------
 .byte   PATT
  .word Label_015F916C
@  #10 @011   ----------------------------------------
 .byte   PATT
  .word Label_015F916C
@  #10 @012   ----------------------------------------
 .byte   PATT
  .word Label_015F916C
@  #10 @013   ----------------------------------------
 .byte   PATT
  .word Label_015F916C
@  #10 @014   ----------------------------------------
 .byte   PATT
  .word Label_015F916C
@  #10 @015   ----------------------------------------
 .byte   PATT
  .word Label_015F916C
@  #10 @016   ----------------------------------------
 .byte   PATT
  .word Label_015F916C
@  #10 @017   ----------------------------------------
 .byte   PATT
  .word Label_015F916C
@  #10 @018   ----------------------------------------
 .byte   PATT
  .word Label_015F916C
@  #10 @019   ----------------------------------------
 .byte   PATT
  .word Label_015F916C
@  #10 @020   ----------------------------------------
 .byte   PATT
  .word Label_015F916C
@  #10 @021   ----------------------------------------
 .byte   PATT
  .word Label_015F916C
@  #10 @022   ----------------------------------------
 .byte   PATT
  .word Label_015F916C
@  #10 @023   ----------------------------------------
 .byte   PATT
  .word Label_015F916C
@  #10 @024   ----------------------------------------
 .byte   PATT
  .word Label_015F906D
@  #10 @025   ----------------------------------------
 .byte   PATT
  .word Label_015F906D
@  #10 @026   ----------------------------------------
 .byte   PATT
  .word Label_015F906D
@  #10 @027   ----------------------------------------
 .byte   PATT
  .word Label_015F906D
@  #10 @028   ----------------------------------------
 .byte   PATT
  .word Label_015F906D
@  #10 @029   ----------------------------------------
 .byte   PATT
  .word Label_015F906D
@  #10 @030   ----------------------------------------
 .byte   PATT
  .word Label_015F906D
@  #10 @031   ----------------------------------------
 .byte   N01 ,Cn1 ,v100
 .byte   N01 ,As1 ,v076
 .byte   N01 ,Fs2 ,v080
 .byte   W06
 .byte   N01
 .byte   W06
 .byte   Fs1 ,v100
 .byte   N01 ,Fs2 ,v080
 .byte   W06
 .byte   Cn1 ,v100
 .byte   N01 ,As1 ,v076
 .byte   N01 ,Fs2 ,v080
 .byte   W06
 .byte   N01
 .byte   W06
 .byte   Fs1 ,v100
 .byte   N01 ,Fs2 ,v080
 .byte   W06
 .byte   Ds1 ,v100
 .byte   N01 ,As1 ,v076
 .byte   N01 ,Fs2 ,v080
 .byte   W06
 .byte   Fs1 ,v100
 .byte   N01 ,Fs2 ,v080
 .byte   W06
 .byte   Cn1 ,v100
 .byte   N01 ,As1 ,v076
 .byte   N01 ,Fs2 ,v080
 .byte   W06
 .byte   En0 ,v092
 .byte   N01 ,Fs2 ,v080
 .byte   W06
 .byte   Fs1 ,v100
 .byte   N01 ,Fs2 ,v080
 .byte   W06
 .byte   Cn1 ,v100
 .byte   N01 ,As1 ,v076
 .byte   N01 ,Fs2 ,v080
 .byte   W06
 .byte   En0 ,v092
 .byte   N01 ,Fs2 ,v080
 .byte   W06
 .byte   Fs1 ,v100
 .byte   N01 ,Fs2 ,v080
 .byte   W06
 .byte   En0 ,v092
 .byte   N01 ,Ds1 ,v100
 .byte   N01 ,As1 ,v076
 .byte   N01 ,Fs2 ,v080
 .byte   W06
 .byte   Fs1 ,v100
 .byte   N01 ,Fs2 ,v080
 .byte   W06
@  #10 @032   ----------------------------------------
 .byte   PATT
  .word Label_015F916C
@  #10 @033   ----------------------------------------
 .byte   PATT
  .word Label_015F916C
@  #10 @034   ----------------------------------------
 .byte   PATT
  .word Label_015F916C
@  #10 @035   ----------------------------------------
 .byte   PATT
  .word Label_015F916C
@  #10 @036   ----------------------------------------
 .byte   PATT
  .word Label_015F916C
@  #10 @037   ----------------------------------------
 .byte   PATT
  .word Label_015F916C
@  #10 @038   ----------------------------------------
 .byte   PATT
  .word Label_015F916C
@  #10 @039   ----------------------------------------
 .byte   N01 ,Cn1 ,v100
 .byte   N01 ,As1 ,v076
 .byte   N01 ,Fs2 ,v080
 .byte   W06
 .byte   N01
 .byte   W06
 .byte   Fs1 ,v100
 .byte   N01 ,Fs2 ,v080
 .byte   W06
 .byte   Cn1 ,v100
 .byte   N01 ,As1 ,v076
 .byte   N01 ,Fs2 ,v080
 .byte   W06
 .byte   N01
 .byte   W06
 .byte   Fs1 ,v100
 .byte   N01 ,Fs2 ,v080
 .byte   W06
 .byte   Ds1 ,v100
 .byte   N01 ,En1 ,v092
 .byte   N01 ,As1 ,v076
 .byte   N01 ,Fs2 ,v080
 .byte   W06
 .byte   Fs1 ,v100
 .byte   N01 ,Fs2 ,v080
 .byte   W06
 .byte   Cn1 ,v100
 .byte   N01 ,As1 ,v076
 .byte   N01 ,Fs2 ,v080
 .byte   W06
 .byte   En0 ,v092
 .byte   N01 ,Fs2 ,v080
 .byte   W06
 .byte   Fs1 ,v100
 .byte   N01 ,Fs2 ,v080
 .byte   W06
 .byte   Cn1 ,v100
 .byte   N01 ,As1 ,v076
 .byte   N01 ,Fs2 ,v080
 .byte   W06
 .byte   En0 ,v092
 .byte   N01 ,Fs2 ,v080
 .byte   W06
 .byte   Fs1 ,v100
 .byte   N01 ,Fs2 ,v080
 .byte   W06
 .byte   En0 ,v092
 .byte   N01 ,Ds1 ,v100
 .byte   N01 ,En1 ,v092
 .byte   N01 ,As1 ,v076
 .byte   N01 ,Fs2 ,v080
 .byte   W06
 .byte   Fs1 ,v100
 .byte   N01 ,Fs2 ,v080
 .byte   W01
 .byte   BEND , c_v+0
 .byte   W05
@  #10 @040   ----------------------------------------
 .byte   GOTO
  .word Label_015F8FF6
@  #10 @041   ----------------------------------------
 .byte   W24
 .byte   FINE

@******************************************************@
	.align	2

song01:
	.byte	10	@ NumTrks
	.byte	0	@ NumBlks
	.byte	song01_pri	@ Priority
	.byte	song01_rev	@ Reverb.
    
	.word	song01_grp
    
	.word	song01_001
	.word	song01_002
	.word	song01_003
	.word	song01_004
	.word	song01_005
	.word	song01_006
	.word	song01_007
	.word	song01_008
	.word	song01_009
	.word	song01_010

	.end
