	.include "MPlayDef.s"

	.equ	song01_grp, voicegroup000
	.equ	song01_pri, 0
	.equ	song01_rev, 0
	.equ	song01_mvl, 127
	.equ	song01_key, 0
	.equ	song01_tbs, 1
	.equ	song01_exg, 0
	.equ	song01_cmp, 1

	.section .rodata
	.global	song01
	.align	2


@**************** Track 1 (Midi-Chn.0) ****************@

song01_001:
@  #01 @000   ----------------------------------------
 .byte   KEYSH , song01_key+0
 .byte   TEMPO , 166*song01_tbs/2
 .byte   VOICE , 110
 .byte   VOL , 50*song01_mvl/mxv
 .byte   PAN , c_v-18
 .byte   W96
@  #01 @001   ----------------------------------------
Label_015F5D5B:
 .byte   N11 ,En3 ,v100
 .byte   W12
 .byte   Fs3
 .byte   W12
 .byte   Gn3
 .byte   W12
 .byte   An3
 .byte   W12
 .byte   Bn3
 .byte   W12
 .byte   Cn4
 .byte   W12
 .byte   Dn4
 .byte   W12
 .byte   En4
 .byte   W12
 .byte   PEND 
@  #01 @002   ----------------------------------------
Label_015F5D6E:
 .byte   N11 ,Fs4 ,v100
 .byte   W12
 .byte   Gn4
 .byte   W12
 .byte   An4
 .byte   W12
 .byte   Bn4
 .byte   W12
 .byte   Cn5
 .byte   W12
 .byte   Dn5
 .byte   W12
 .byte   En5
 .byte   W12
 .byte   Fs5
 .byte   W12
 .byte   PEND 
@  #01 @003   ----------------------------------------
 .byte   PATT
  .word Label_015F5D5B
@  #01 @004   ----------------------------------------
 .byte   PATT
  .word Label_015F5D6E
@  #01 @005   ----------------------------------------
 .byte   PATT
  .word Label_015F5D5B
@  #01 @006   ----------------------------------------
 .byte   PATT
  .word Label_015F5D6E
@  #01 @007   ----------------------------------------
 .byte   PATT
  .word Label_015F5D5B
@  #01 @008   ----------------------------------------
 .byte   PATT
  .word Label_015F5D6E
@  #01 @009   ----------------------------------------
 .byte   W96
@  #01 @010   ----------------------------------------
 .byte   W96
@  #01 @011   ----------------------------------------
 .byte   W96
@  #01 @012   ----------------------------------------
 .byte   W96
@  #01 @013   ----------------------------------------
 .byte   W96
@  #01 @014   ----------------------------------------
 .byte   W96
@  #01 @015   ----------------------------------------
 .byte   W96
@  #01 @016   ----------------------------------------
 .byte   W96
@  #01 @017   ----------------------------------------
Label_015F5DA7:
 .byte   W96
@  #01 @018   ----------------------------------------
 .byte   W96
@  #01 @019   ----------------------------------------
 .byte   W96
@  #01 @020   ----------------------------------------
 .byte   W96
@  #01 @021   ----------------------------------------
 .byte   W96
@  #01 @022   ----------------------------------------
 .byte   W96
@  #01 @023   ----------------------------------------
 .byte   W96
@  #01 @024   ----------------------------------------
 .byte   W96
@  #01 @025   ----------------------------------------
 .byte   W96
@  #01 @026   ----------------------------------------
 .byte   W96
@  #01 @027   ----------------------------------------
 .byte   W96
@  #01 @028   ----------------------------------------
 .byte   W96
@  #01 @029   ----------------------------------------
 .byte   W96
@  #01 @030   ----------------------------------------
 .byte   W96
@  #01 @031   ----------------------------------------
 .byte   W96
@  #01 @032   ----------------------------------------
 .byte   W96
@  #01 @033   ----------------------------------------
 .byte   W96
@  #01 @034   ----------------------------------------
 .byte   W96
@  #01 @035   ----------------------------------------
 .byte   W96
@  #01 @036   ----------------------------------------
 .byte   W96
@  #01 @037   ----------------------------------------
 .byte   W96
@  #01 @038   ----------------------------------------
 .byte   W96
@  #01 @039   ----------------------------------------
 .byte   W96
@  #01 @040   ----------------------------------------
 .byte   W96
@  #01 @041   ----------------------------------------
 .byte   PAN , c_v-18
 .byte   N11 ,En4 ,v100
 .byte   W24
 .byte   En4 ,v096
 .byte   W12
 .byte   Gn4 ,v100
 .byte   W24
 .byte   Fs4 ,v096
 .byte   W24
 .byte   An4 ,v100
 .byte   W12
@  #01 @042   ----------------------------------------
Label_015F5DD1:
 .byte   W12
 .byte   N11 ,Gn4 ,v096
 .byte   W12
 .byte   Bn4 ,v100
 .byte   W24
 .byte   As4
 .byte   W24
 .byte   An4 ,v096
 .byte   W24
 .byte   PEND 
@  #01 @043   ----------------------------------------
Label_015F5DDF:
 .byte   N11 ,En4 ,v100
 .byte   W24
 .byte   En4 ,v096
 .byte   W12
 .byte   Gn4 ,v100
 .byte   W24
 .byte   Fs4 ,v096
 .byte   W24
 .byte   An4 ,v100
 .byte   W12
 .byte   PEND 
@  #01 @044   ----------------------------------------
Label_015F5DF0:
 .byte   W12
 .byte   N11 ,Dn4 ,v100
 .byte   W12
 .byte   Dn4 ,v096
 .byte   W72
 .byte   PEND 
@  #01 @045   ----------------------------------------
 .byte   PATT
  .word Label_015F5DDF
@  #01 @046   ----------------------------------------
 .byte   PATT
  .word Label_015F5DD1
@  #01 @047   ----------------------------------------
 .byte   PATT
  .word Label_015F5DDF
@  #01 @048   ----------------------------------------
 .byte   PATT
  .word Label_015F5DF0
@  #01 @049   ----------------------------------------
 .byte   W96
@  #01 @050   ----------------------------------------
Label_015F5E0E:
 .byte   W24
 .byte   N22 ,En4 ,v096
 .byte   W24
 .byte   Fs4 ,v100
 .byte   W24
 .byte   Gn4
 .byte   W24
 .byte   PEND 
@  #01 @051   ----------------------------------------
Label_015F5E19:
 .byte   N44 ,An4 ,v096
 .byte   W48
 .byte   Bn4 ,v100
 .byte   W48
 .byte   PEND 
@  #01 @052   ----------------------------------------
Label_015F5E21:
 .byte   N44 ,Gn4 ,v096
 .byte   W48
 .byte   An4 ,v100
 .byte   W48
 .byte   PEND 
@  #01 @053   ----------------------------------------
 .byte   N92 ,Fs4 ,v080
 .byte   W96
@  #01 @054   ----------------------------------------
Label_015F5E2D:
 .byte   N22 ,En4 ,v096
 .byte   W24
 .byte   N68 ,Bn3 ,v092
 .byte   W72
 .byte   PEND 
@  #01 @055   ----------------------------------------
 .byte   N92 ,En4 ,v096
 .byte   W96
@  #01 @056   ----------------------------------------
Label_015F5E3A:
 .byte   N44 ,Dn4 ,v096
 .byte   W48
 .byte   Gn4
 .byte   W48
 .byte   PEND 
@  #01 @057   ----------------------------------------
 .byte   N92 ,Fs4 ,v068
 .byte   W96
@  #01 @058   ----------------------------------------
 .byte   PATT
  .word Label_015F5E0E
@  #01 @059   ----------------------------------------
 .byte   PATT
  .word Label_015F5E19
@  #01 @060   ----------------------------------------
 .byte   PATT
  .word Label_015F5E21
@  #01 @061   ----------------------------------------
 .byte   N92 ,Fs4 ,v080
 .byte   W96
@  #01 @062   ----------------------------------------
 .byte   PATT
  .word Label_015F5E2D
@  #01 @063   ----------------------------------------
 .byte   N92 ,En4 ,v096
 .byte   W96
@  #01 @064   ----------------------------------------
 .byte   PATT
  .word Label_015F5E3A
@  #01 @065   ----------------------------------------
 .byte   TIE ,Fs4 ,v092
 .byte   W08
 .byte   W08
 .byte   W09
 .byte   W08
 .byte   W08
 .byte   W08
 .byte   W08
 .byte   W08
 .byte   W09
 .byte   W08
 .byte   W08
 .byte   W06
@  #01 @066   ----------------------------------------
 .byte   W02
 .byte   W08
 .byte   W08
 .byte   W09
 .byte   W08
 .byte   W08
 .byte   W08
 .byte   W08
 .byte   W08
 .byte   W09
 .byte   W08
 .byte   W08
 .byte   W04
@  #01 @067   ----------------------------------------
 .byte   W04
 .byte   W08
 .byte   W08
 .byte   W09
 .byte   W08
 .byte   W08
 .byte   W08
 .byte   W08
 .byte   W08
 .byte   W09
 .byte   W08
 .byte   W08
 .byte   W02
@  #01 @068   ----------------------------------------
 .byte   W06
 .byte   W08
 .byte   W08
 .byte   W09
 .byte   W08
 .byte   W08
 .byte   W08
 .byte   W08
 .byte   W08
 .byte   W09
 .byte   W08
 .byte   W07
 .byte   EOT
 .byte   W01
@  #01 @069   ----------------------------------------
 .byte   W96
@  #01 @070   ----------------------------------------
 .byte   W96
@  #01 @071   ----------------------------------------
 .byte   W96
@  #01 @072   ----------------------------------------
 .byte   W96
@  #01 @073   ----------------------------------------
 .byte   PAN , c_v+0
 .byte   N92 ,En4 ,v116
 .byte   W96
@  #01 @074   ----------------------------------------
 .byte   N44 ,Gn4 ,v124
 .byte   W48
 .byte   Fs4 ,v116
 .byte   W48
@  #01 @075   ----------------------------------------
 .byte   TIE ,An4 ,v120
 .byte   W96
@  #01 @076   ----------------------------------------
 .byte   W44
 .byte   W02
 .byte   EOT
 .byte   W02
 .byte   N22 ,Bn4 ,v112
 .byte   W24
 .byte   Cn5 ,v124
 .byte   W24
@  #01 @077   ----------------------------------------
 .byte   TIE ,Bn4 ,v120
 .byte   W96
@  #01 @078   ----------------------------------------
 .byte   W92
 .byte   W03
 .byte   EOT
 .byte   W01
@  #01 @079   ----------------------------------------
 .byte   TIE ,As4
 .byte   N01 ,Bn4
 .byte   W96
@  #01 @080   ----------------------------------------
 .byte   W44
 .byte   W02
 .byte   EOT
 .byte   As4
 .byte   W02
 .byte   N44 ,Fs4 ,v116
 .byte   W48
@  #01 @081   ----------------------------------------
 .byte   TIE ,An4 ,v124
 .byte   W96
@  #01 @082   ----------------------------------------
 .byte   W44
 .byte   W02
 .byte   EOT
 .byte   W02
 .byte   N44 ,Ds4 ,v104
 .byte   W48
@  #01 @083   ----------------------------------------
 .byte   TIE ,En4 ,v127
 .byte   W96
@  #01 @084   ----------------------------------------
 .byte   W96
@  #01 @085   ----------------------------------------
 .byte   W96
@  #01 @086   ----------------------------------------
 .byte   W92
 .byte   W03
 .byte   EOT
 .byte   W01
@  #01 @087   ----------------------------------------
 .byte   W96
@  #01 @088   ----------------------------------------
 .byte   W96
@  #01 @089   ----------------------------------------
 .byte   W96
@  #01 @090   ----------------------------------------
 .byte   W96
@  #01 @091   ----------------------------------------
 .byte   W96
@  #01 @092   ----------------------------------------
 .byte   W96
@  #01 @093   ----------------------------------------
 .byte   W96
@  #01 @094   ----------------------------------------
 .byte   W96
@  #01 @095   ----------------------------------------
 .byte   GOTO
  .word Label_015F5DA7
 .byte   FINE

@**************** Track 2 (Midi-Chn.1) ****************@

song01_002:
@  #02 @000   ----------------------------------------
 .byte   KEYSH , song01_key+0
 .byte   VOICE , 48
 .byte   VOL , 40*song01_mvl/mxv
 .byte   PAN , c_v-11
 .byte   W96
@  #02 @001   ----------------------------------------
 .byte   W96
@  #02 @002   ----------------------------------------
 .byte   W96
@  #02 @003   ----------------------------------------
 .byte   W96
@  #02 @004   ----------------------------------------
 .byte   W96
@  #02 @005   ----------------------------------------
 .byte   W96
@  #02 @006   ----------------------------------------
 .byte   W96
@  #02 @007   ----------------------------------------
 .byte   W96
@  #02 @008   ----------------------------------------
 .byte   W96
@  #02 @009   ----------------------------------------
 .byte   W96
@  #02 @010   ----------------------------------------
 .byte   W96
@  #02 @011   ----------------------------------------
 .byte   W96
@  #02 @012   ----------------------------------------
 .byte   W96
@  #02 @013   ----------------------------------------
Label_015F5F0D:
 .byte   TIE ,An3 ,v127
 .byte   TIE ,Dn4
 .byte   W96
 .byte   PEND 
@  #02 @014   ----------------------------------------
 .byte   W92
 .byte   W03
 .byte   EOT
 .byte   An3 ,v074
 .byte   W01
@  #02 @015   ----------------------------------------
Label_015F5F1A:
 .byte   TIE ,Gs3 ,v127
 .byte   TIE ,Cs4
 .byte   W96
 .byte   PEND 
@  #02 @016   ----------------------------------------
 .byte   W92
 .byte   W03
 .byte   EOT
 .byte   Gs3 ,v073
 .byte   W01
@  #02 @017   ----------------------------------------
Label_015F5F27:
 .byte   TIE ,Gn3 ,v127
 .byte   TIE ,Cn4
 .byte   W96
 .byte   PEND 
@  #02 @018   ----------------------------------------
 .byte   W92
 .byte   W03
 .byte   EOT
 .byte   Gn3 ,v072
 .byte   W01
@  #02 @019   ----------------------------------------
Label_015F5F34:
 .byte   TIE ,Fs3 ,v127
 .byte   TIE ,Bn3
 .byte   W96
 .byte   PEND 
@  #02 @020   ----------------------------------------
 .byte   W92
 .byte   W03
 .byte   EOT
 .byte   Fs3 ,v071
 .byte   W01
@  #02 @021   ----------------------------------------
 .byte   PATT
  .word Label_015F5F0D
@  #02 @022   ----------------------------------------
 .byte   W92
 .byte   W03
 .byte   EOT
 .byte   An3 ,v074
 .byte   W01
@  #02 @023   ----------------------------------------
 .byte   PATT
  .word Label_015F5F1A
@  #02 @024   ----------------------------------------
 .byte   W92
 .byte   W03
 .byte   EOT
 .byte   Gs3 ,v073
 .byte   W01
@  #02 @025   ----------------------------------------
 .byte   PATT
  .word Label_015F5F27
@  #02 @026   ----------------------------------------
 .byte   W92
 .byte   W03
 .byte   EOT
 .byte   Gn3 ,v072
 .byte   W01
@  #02 @027   ----------------------------------------
 .byte   PATT
  .word Label_015F5F34
@  #02 @028   ----------------------------------------
 .byte   W96
@  #02 @029   ----------------------------------------
 .byte   W96
@  #02 @030   ----------------------------------------
 .byte   W96
@  #02 @031   ----------------------------------------
 .byte   W07
 .byte   W07
 .byte   W07
 .byte   W07
 .byte   W08
 .byte   W07
 .byte   W07
 .byte   W07
 .byte   W07
 .byte   W07
 .byte   W07
 .byte   W07
 .byte   W07
 .byte   W04
@  #02 @032   ----------------------------------------
 .byte   W04
 .byte   W07
 .byte   W07
 .byte   W07
 .byte   W07
 .byte   W07
 .byte   W07
 .byte   W07
 .byte   W07
 .byte   W08
 .byte   W07
 .byte   W07
 .byte   W07
 .byte   W07
@  #02 @033   ----------------------------------------
 .byte   EOT
 .byte   Fs3 ,v071
 .byte   PAN , c_v+10
 .byte   N11 ,En3 ,v124
 .byte   W24
 .byte   En3 ,v127
 .byte   W12
 .byte   Gn3
 .byte   W24
 .byte   Fs3 ,v124
 .byte   W24
 .byte   An3 ,v127
 .byte   W12
@  #02 @034   ----------------------------------------
 .byte   W12
 .byte   Gn3 ,v124
 .byte   W12
 .byte   Bn3 ,v127
 .byte   W24
 .byte   As3 ,v124
 .byte   W24
 .byte   An3 ,v127
 .byte   W24
@  #02 @035   ----------------------------------------
Label_015F5FA7:
 .byte   N11 ,En3 ,v124
 .byte   W24
 .byte   En3 ,v127
 .byte   W12
 .byte   Gn3
 .byte   W24
 .byte   Fs3 ,v124
 .byte   W24
 .byte   An3 ,v127
 .byte   W12
 .byte   PEND 
@  #02 @036   ----------------------------------------
Label_015F5FB7:
 .byte   W12
 .byte   N11 ,Dn3 ,v124
 .byte   W12
 .byte   Dn3 ,v127
 .byte   W72
 .byte   PEND 
@  #02 @037   ----------------------------------------
 .byte   PATT
  .word Label_015F5FA7
@  #02 @038   ----------------------------------------
 .byte   W12
 .byte   N11 ,Gn3 ,v124
 .byte   W12
 .byte   Bn3 ,v127
 .byte   W24
 .byte   As3
 .byte   W24
 .byte   An3 ,v124
 .byte   W24
@  #02 @039   ----------------------------------------
 .byte   PATT
  .word Label_015F5FA7
@  #02 @040   ----------------------------------------
 .byte   PATT
  .word Label_015F5FB7
@  #02 @041   ----------------------------------------
 .byte   W96
@  #02 @042   ----------------------------------------
 .byte   W96
@  #02 @043   ----------------------------------------
 .byte   W96
@  #02 @044   ----------------------------------------
 .byte   W96
@  #02 @045   ----------------------------------------
 .byte   W96
@  #02 @046   ----------------------------------------
 .byte   W96
@  #02 @047   ----------------------------------------
 .byte   W96
@  #02 @048   ----------------------------------------
 .byte   W96
@  #02 @049   ----------------------------------------
 .byte   W96
@  #02 @050   ----------------------------------------
Label_015F5FE5:
 .byte   W24
 .byte   N22 ,En3 ,v104
 .byte   W24
 .byte   Fs3 ,v108
 .byte   W24
 .byte   Gn3
 .byte   W24
 .byte   PEND 
@  #02 @051   ----------------------------------------
Label_015F5FF0:
 .byte   N44 ,An3 ,v104
 .byte   W48
 .byte   Bn3 ,v108
 .byte   W48
 .byte   PEND 
@  #02 @052   ----------------------------------------
Label_015F5FF8:
 .byte   N44 ,Gn3 ,v104
 .byte   W48
 .byte   An3 ,v108
 .byte   W48
 .byte   PEND 
@  #02 @053   ----------------------------------------
 .byte   N92 ,Fs3 ,v100
 .byte   W96
@  #02 @054   ----------------------------------------
Label_015F6004:
 .byte   N22 ,En3 ,v100
 .byte   W24
 .byte   N68 ,Bn2
 .byte   W72
 .byte   PEND 
@  #02 @055   ----------------------------------------
 .byte   N92 ,En3
 .byte   W96
@  #02 @056   ----------------------------------------
Label_015F600F:
 .byte   N44 ,Dn3 ,v104
 .byte   W48
 .byte   Gn3
 .byte   W48
 .byte   PEND 
@  #02 @057   ----------------------------------------
 .byte   N92 ,Fs3 ,v060
 .byte   W96
@  #02 @058   ----------------------------------------
 .byte   PATT
  .word Label_015F5FE5
@  #02 @059   ----------------------------------------
 .byte   PATT
  .word Label_015F5FF0
@  #02 @060   ----------------------------------------
 .byte   PATT
  .word Label_015F5FF8
@  #02 @061   ----------------------------------------
 .byte   N92 ,Fs3 ,v100
 .byte   W96
@  #02 @062   ----------------------------------------
 .byte   PATT
  .word Label_015F6004
@  #02 @063   ----------------------------------------
 .byte   N92 ,En3 ,v100
 .byte   W96
@  #02 @064   ----------------------------------------
 .byte   PATT
  .word Label_015F600F
@  #02 @065   ----------------------------------------
 .byte   TIE ,Fs3 ,v116
 .byte   W08
 .byte   W08
 .byte   W09
 .byte   W08
 .byte   W08
 .byte   W08
 .byte   W08
 .byte   W08
 .byte   W09
 .byte   W08
 .byte   W08
 .byte   W06
@  #02 @066   ----------------------------------------
 .byte   W02
 .byte   W08
 .byte   W08
 .byte   W09
 .byte   W08
 .byte   W08
 .byte   W08
 .byte   W08
 .byte   W08
 .byte   W09
 .byte   W08
 .byte   W08
 .byte   W04
@  #02 @067   ----------------------------------------
 .byte   W04
 .byte   W08
 .byte   W08
 .byte   W09
 .byte   W08
 .byte   W08
 .byte   W08
 .byte   W08
 .byte   W08
 .byte   W09
 .byte   W08
 .byte   W08
 .byte   W02
@  #02 @068   ----------------------------------------
 .byte   W06
 .byte   W08
 .byte   W08
 .byte   W09
 .byte   W08
 .byte   W08
 .byte   W08
 .byte   W08
 .byte   W08
 .byte   W09
 .byte   W08
 .byte   W07
 .byte   EOT
 .byte   W01
@  #02 @069   ----------------------------------------
 .byte   W96
@  #02 @070   ----------------------------------------
 .byte   W96
@  #02 @071   ----------------------------------------
 .byte   W96
@  #02 @072   ----------------------------------------
 .byte   W96
@  #02 @073   ----------------------------------------
 .byte   W96
@  #02 @074   ----------------------------------------
 .byte   W96
@  #02 @075   ----------------------------------------
 .byte   TIE
 .byte   W96
@  #02 @076   ----------------------------------------
 .byte   W92
 .byte   W03
 .byte   EOT
 .byte   W01
@  #02 @077   ----------------------------------------
 .byte   TIE ,Gn3
 .byte   W96
@  #02 @078   ----------------------------------------
 .byte   W92
 .byte   W03
 .byte   EOT
 .byte   W01
@  #02 @079   ----------------------------------------
 .byte   TIE ,Cs3 ,v092
 .byte   TIE ,As3 ,v116
 .byte   W96
@  #02 @080   ----------------------------------------
 .byte   W92
 .byte   W03
 .byte   EOT
 .byte   Cs3 ,v070
 .byte   W01
@  #02 @081   ----------------------------------------
 .byte   TIE ,Ds3
 .byte   TIE ,An3
 .byte   W96
@  #02 @082   ----------------------------------------
 .byte   W92
 .byte   W03
 .byte   EOT
 .byte   Ds3 ,v069
 .byte   W01
@  #02 @083   ----------------------------------------
 .byte   TIE ,Bn2 ,v084
 .byte   TIE ,En3 ,v116
 .byte   W19
 .byte   W19
 .byte   W20
 .byte   W19
 .byte   W19
@  #02 @084   ----------------------------------------
 .byte   W12
 .byte   W12
 .byte   W12
 .byte   W12
 .byte   W12
 .byte   W12
 .byte   W12
 .byte   W12
@  #02 @085   ----------------------------------------
 .byte   W19
 .byte   W19
 .byte   W20
 .byte   W19
 .byte   W19
@  #02 @086   ----------------------------------------
 .byte   W03
 .byte   W04
 .byte   W03
 .byte   W03
 .byte   W04
 .byte   W03
 .byte   W03
 .byte   W03
 .byte   W04
 .byte   W03
 .byte   W03
 .byte   W04
 .byte   W03
 .byte   W03
 .byte   W04
 .byte   W03
 .byte   W03
 .byte   W04
 .byte   W03
 .byte   W03
 .byte   W03
 .byte   W04
 .byte   W03
 .byte   W03
 .byte   W04
 .byte   W03
 .byte   W03
 .byte   W04
 .byte   W02
 .byte   EOT
 .byte   Bn2 ,v064
 .byte   W01
@  #02 @087   ----------------------------------------
 .byte   W96
@  #02 @088   ----------------------------------------
 .byte   W96
@  #02 @089   ----------------------------------------
 .byte   W96
@  #02 @090   ----------------------------------------
 .byte   W96
@  #02 @091   ----------------------------------------
 .byte   PATT
  .word Label_015F5F0D
@  #02 @092   ----------------------------------------
 .byte   W92
 .byte   W03
 .byte   EOT
 .byte   An3 ,v074
 .byte   W01
@  #02 @093   ----------------------------------------
 .byte   PATT
  .word Label_015F5F1A
@  #02 @094   ----------------------------------------
 .byte   W92
 .byte   W03
 .byte   EOT
 .byte   Gs3 ,v073
 .byte   W01
@  #02 @095   ----------------------------------------
 .byte   GOTO
  .word Label_015F5F27
 .byte   FINE

@**************** Track 3 (Midi-Chn.2) ****************@

song01_003:
@  #03 @000   ----------------------------------------
 .byte   KEYSH , song01_key+0
 .byte   VOICE , 49
 .byte   VOL , 22*song01_mvl/mxv
 .byte   W96
@  #03 @001   ----------------------------------------
 .byte   W96
@  #03 @002   ----------------------------------------
 .byte   W96
@  #03 @003   ----------------------------------------
 .byte   W96
@  #03 @004   ----------------------------------------
 .byte   W96
@  #03 @005   ----------------------------------------
 .byte   W96
@  #03 @006   ----------------------------------------
 .byte   W96
@  #03 @007   ----------------------------------------
 .byte   W96
@  #03 @008   ----------------------------------------
 .byte   W96
@  #03 @009   ----------------------------------------
 .byte   W96
@  #03 @010   ----------------------------------------
 .byte   W96
@  #03 @011   ----------------------------------------
 .byte   W96
@  #03 @012   ----------------------------------------
 .byte   W96
@  #03 @013   ----------------------------------------
 .byte   W96
@  #03 @014   ----------------------------------------
 .byte   W96
@  #03 @015   ----------------------------------------
 .byte   W96
@  #03 @016   ----------------------------------------
 .byte   W96
@  #03 @017   ----------------------------------------
Label_015F5123:
 .byte   W96
@  #03 @018   ----------------------------------------
 .byte   W96
@  #03 @019   ----------------------------------------
 .byte   W96
@  #03 @020   ----------------------------------------
 .byte   W96
@  #03 @021   ----------------------------------------
 .byte   W96
@  #03 @022   ----------------------------------------
 .byte   W96
@  #03 @023   ----------------------------------------
 .byte   W96
@  #03 @024   ----------------------------------------
 .byte   W96
@  #03 @025   ----------------------------------------
 .byte   W96
@  #03 @026   ----------------------------------------
 .byte   W96
@  #03 @027   ----------------------------------------
 .byte   W96
@  #03 @028   ----------------------------------------
 .byte   W96
@  #03 @029   ----------------------------------------
 .byte   W96
@  #03 @030   ----------------------------------------
 .byte   W96
@  #03 @031   ----------------------------------------
 .byte   W96
@  #03 @032   ----------------------------------------
 .byte   W96
@  #03 @033   ----------------------------------------
 .byte   W96
@  #03 @034   ----------------------------------------
 .byte   W96
@  #03 @035   ----------------------------------------
 .byte   W96
@  #03 @036   ----------------------------------------
 .byte   W96
@  #03 @037   ----------------------------------------
 .byte   W96
@  #03 @038   ----------------------------------------
 .byte   W96
@  #03 @039   ----------------------------------------
 .byte   W96
@  #03 @040   ----------------------------------------
 .byte   W96
@  #03 @041   ----------------------------------------
 .byte   W96
@  #03 @042   ----------------------------------------
 .byte   W96
@  #03 @043   ----------------------------------------
 .byte   W96
@  #03 @044   ----------------------------------------
 .byte   W96
@  #03 @045   ----------------------------------------
 .byte   W01
 .byte   W01
 .byte   PAN , c_v+0
 .byte   W03
 .byte   W02
 .byte   W01
 .byte   W01
 .byte   W01
 .byte   W84
 .byte   W02
@  #03 @046   ----------------------------------------
 .byte   W96
@  #03 @047   ----------------------------------------
 .byte   W96
@  #03 @048   ----------------------------------------
 .byte   W96
@  #03 @049   ----------------------------------------
Label_015F514D:
 .byte   TIE ,Fs3 ,v127
 .byte   TIE ,Bn3
 .byte   W96
 .byte   PEND 
@  #03 @050   ----------------------------------------
 .byte   W96
@  #03 @051   ----------------------------------------
 .byte   W44
 .byte   W02
 .byte   EOT
 .byte   Fs3 ,v071
 .byte   W02
 .byte   N44 ,An3 ,v124
 .byte   N44 ,Dn4
 .byte   W48
@  #03 @052   ----------------------------------------
Label_015F5161:
 .byte   N44 ,En3 ,v124
 .byte   N44 ,Gn3
 .byte   W48
 .byte   Dn3
 .byte   N44 ,Fs3
 .byte   W48
 .byte   PEND 
@  #03 @053   ----------------------------------------
Label_015F516C:
 .byte   TIE ,En3 ,v127
 .byte   TIE ,Bn3
 .byte   W96
 .byte   PEND 
@  #03 @054   ----------------------------------------
 .byte   W96
@  #03 @055   ----------------------------------------
 .byte   W92
 .byte   W03
 .byte   EOT
 .byte   En3 ,v071
 .byte   W01
@  #03 @056   ----------------------------------------
Label_015F517A:
 .byte   N44 ,Fs3 ,v124
 .byte   N44 ,Dn4
 .byte   W48
 .byte   Bn3 ,v096
 .byte   W48
 .byte   PEND 
@  #03 @057   ----------------------------------------
 .byte   PATT
  .word Label_015F514D
@  #03 @058   ----------------------------------------
 .byte   W96
@  #03 @059   ----------------------------------------
 .byte   W44
 .byte   W02
 .byte   EOT
 .byte   Fs3 ,v071
 .byte   W02
 .byte   N44 ,Bn3 ,v124
 .byte   N44 ,Dn4
 .byte   W48
@  #03 @060   ----------------------------------------
 .byte   PATT
  .word Label_015F5161
@  #03 @061   ----------------------------------------
 .byte   PATT
  .word Label_015F516C
@  #03 @062   ----------------------------------------
 .byte   W96
@  #03 @063   ----------------------------------------
 .byte   W92
 .byte   W03
 .byte   EOT
 .byte   En3 ,v071
 .byte   W01
@  #03 @064   ----------------------------------------
 .byte   PATT
  .word Label_015F517A
@  #03 @065   ----------------------------------------
 .byte   TIE ,Fs3 ,v127
 .byte   TIE ,Bn3
 .byte   W08
 .byte   W08
 .byte   W09
 .byte   W08
 .byte   W08
 .byte   W08
 .byte   W08
 .byte   W08
 .byte   W09
 .byte   W08
 .byte   W08
 .byte   W06
@  #03 @066   ----------------------------------------
 .byte   W02
 .byte   W08
 .byte   W08
 .byte   W09
 .byte   W08
 .byte   W08
 .byte   W08
 .byte   W08
 .byte   W08
 .byte   W09
 .byte   W08
 .byte   W08
 .byte   W04
@  #03 @067   ----------------------------------------
 .byte   W04
 .byte   W08
 .byte   W08
 .byte   W09
 .byte   W08
 .byte   W08
 .byte   W08
 .byte   W08
 .byte   W08
 .byte   W09
 .byte   W08
 .byte   W08
 .byte   W02
@  #03 @068   ----------------------------------------
 .byte   W06
 .byte   W08
 .byte   W08
 .byte   W09
 .byte   W08
 .byte   W08
 .byte   W08
 .byte   W08
 .byte   W08
 .byte   W09
 .byte   W08
 .byte   W08
@  #03 @069   ----------------------------------------
 .byte   W01
 .byte   EOT
 .byte   Fs3 ,v071
 .byte   W92
 .byte   W03
@  #03 @070   ----------------------------------------
 .byte   W96
@  #03 @071   ----------------------------------------
 .byte   W96
@  #03 @072   ----------------------------------------
 .byte   W96
@  #03 @073   ----------------------------------------
 .byte   W96
@  #03 @074   ----------------------------------------
 .byte   W96
@  #03 @075   ----------------------------------------
 .byte   W96
@  #03 @076   ----------------------------------------
 .byte   W96
@  #03 @077   ----------------------------------------
 .byte   W96
@  #03 @078   ----------------------------------------
 .byte   W96
@  #03 @079   ----------------------------------------
 .byte   W96
@  #03 @080   ----------------------------------------
 .byte   W96
@  #03 @081   ----------------------------------------
 .byte   W96
@  #03 @082   ----------------------------------------
 .byte   W96
@  #03 @083   ----------------------------------------
 .byte   W96
@  #03 @084   ----------------------------------------
 .byte   W96
@  #03 @085   ----------------------------------------
 .byte   W96
@  #03 @086   ----------------------------------------
 .byte   W96
@  #03 @087   ----------------------------------------
 .byte   W96
@  #03 @088   ----------------------------------------
 .byte   W96
@  #03 @089   ----------------------------------------
 .byte   W96
@  #03 @090   ----------------------------------------
 .byte   W96
@  #03 @091   ----------------------------------------
 .byte   W96
@  #03 @092   ----------------------------------------
 .byte   W96
@  #03 @093   ----------------------------------------
 .byte   W96
@  #03 @094   ----------------------------------------
 .byte   W96
@  #03 @095   ----------------------------------------
 .byte   GOTO
  .word Label_015F5123
 .byte   FINE

@**************** Track 4 (Midi-Chn.3) ****************@

song01_004:
@  #04 @000   ----------------------------------------
 .byte   KEYSH , song01_key+0
 .byte   VOICE , 55
 .byte   VOL , 100*song01_mvl/mxv
 .byte   PAN , c_v+6
 .byte   W96
@  #04 @001   ----------------------------------------
 .byte   N96 ,En3 ,v127
 .byte   N96 ,En4
 .byte   W96
@  #04 @002   ----------------------------------------
 .byte   W96
@  #04 @003   ----------------------------------------
 .byte   En3
 .byte   N96 ,En4
 .byte   W96
@  #04 @004   ----------------------------------------
 .byte   W96
@  #04 @005   ----------------------------------------
 .byte   En3
 .byte   N96 ,En4
 .byte   W96
@  #04 @006   ----------------------------------------
 .byte   W96
@  #04 @007   ----------------------------------------
 .byte   En3
 .byte   N96 ,En4
 .byte   W96
@  #04 @008   ----------------------------------------
 .byte   W96
@  #04 @009   ----------------------------------------
 .byte   En3
 .byte   N96 ,En4
 .byte   W96
@  #04 @010   ----------------------------------------
 .byte   W96
@  #04 @011   ----------------------------------------
 .byte   W96
@  #04 @012   ----------------------------------------
 .byte   W96
@  #04 @013   ----------------------------------------
Label_015F524A:
 .byte   TIE ,An3 ,v116
 .byte   TIE ,Dn4
 .byte   W96
 .byte   PEND 
@  #04 @014   ----------------------------------------
 .byte   W92
 .byte   W02
 .byte   EOT
 .byte   W01
 .byte   EOT
 .byte   An3
 .byte   W01
@  #04 @015   ----------------------------------------
Label_015F5258:
 .byte   TIE ,Gs3 ,v116
 .byte   TIE ,Cs4
 .byte   W96
 .byte   PEND 
@  #04 @016   ----------------------------------------
 .byte   W92
 .byte   W02
 .byte   EOT
 .byte   W01
 .byte   EOT
 .byte   Gs3
 .byte   W01
@  #04 @017   ----------------------------------------
Label_015F5266:
 .byte   TIE ,Gn3 ,v116
 .byte   TIE ,Cn4
 .byte   W96
 .byte   PEND 
@  #04 @018   ----------------------------------------
 .byte   W92
 .byte   W02
 .byte   EOT
 .byte   W01
 .byte   EOT
 .byte   Gn3
 .byte   W01
@  #04 @019   ----------------------------------------
Label_015F5274:
 .byte   TIE ,Fs3 ,v116
 .byte   TIE ,Bn3
 .byte   W96
 .byte   PEND 
@  #04 @020   ----------------------------------------
 .byte   W92
 .byte   W02
 .byte   EOT
 .byte   W01
 .byte   EOT
 .byte   Fs3
 .byte   W01
@  #04 @021   ----------------------------------------
 .byte   PATT
  .word Label_015F524A
@  #04 @022   ----------------------------------------
 .byte   W92
 .byte   W02
 .byte   EOT
 .byte   Dn4
 .byte   W01
 .byte   An3
 .byte   W01
@  #04 @023   ----------------------------------------
 .byte   PATT
  .word Label_015F5258
@  #04 @024   ----------------------------------------
 .byte   W92
 .byte   W02
 .byte   EOT
 .byte   Cs4
 .byte   W01
 .byte   Gs3
 .byte   W01
@  #04 @025   ----------------------------------------
 .byte   PATT
  .word Label_015F5266
@  #04 @026   ----------------------------------------
 .byte   W92
 .byte   W02
 .byte   EOT
 .byte   Cn4
 .byte   W01
 .byte   Gn3
 .byte   W01
@  #04 @027   ----------------------------------------
 .byte   PATT
  .word Label_015F5274
@  #04 @028   ----------------------------------------
 .byte   W96
@  #04 @029   ----------------------------------------
 .byte   W96
@  #04 @030   ----------------------------------------
 .byte   W96
@  #04 @031   ----------------------------------------
 .byte   W07
 .byte   W07
 .byte   W07
 .byte   W07
 .byte   W08
 .byte   W07
 .byte   W07
 .byte   W07
 .byte   W07
 .byte   W07
 .byte   W07
 .byte   W07
 .byte   W07
 .byte   W04
@  #04 @032   ----------------------------------------
 .byte   W04
 .byte   W07
 .byte   W07
 .byte   W07
 .byte   W07
 .byte   W07
 .byte   W07
 .byte   W07
 .byte   W07
 .byte   W08
 .byte   W07
 .byte   W07
 .byte   W07
 .byte   W05
 .byte   EOT
 .byte   Bn3
 .byte   W01
 .byte   Fs3
 .byte   W01
@  #04 @033   ----------------------------------------
 .byte   W96
@  #04 @034   ----------------------------------------
 .byte   W96
@  #04 @035   ----------------------------------------
 .byte   W96
@  #04 @036   ----------------------------------------
 .byte   W48
 .byte   PAN , c_v+6
 .byte   W48
@  #04 @037   ----------------------------------------
 .byte   W96
@  #04 @038   ----------------------------------------
 .byte   W96
@  #04 @039   ----------------------------------------
 .byte   W96
@  #04 @040   ----------------------------------------
 .byte   W48
 .byte   PAN , c_v+6
 .byte   W48
@  #04 @041   ----------------------------------------
 .byte   W96
@  #04 @042   ----------------------------------------
 .byte   W96
@  #04 @043   ----------------------------------------
 .byte   W96
@  #04 @044   ----------------------------------------
 .byte   W96
@  #04 @045   ----------------------------------------
 .byte   W96
@  #04 @046   ----------------------------------------
 .byte   W96
@  #04 @047   ----------------------------------------
 .byte   W96
@  #04 @048   ----------------------------------------
 .byte   W96
@  #04 @049   ----------------------------------------
 .byte   W96
@  #04 @050   ----------------------------------------
 .byte   W96
@  #04 @051   ----------------------------------------
 .byte   W96
@  #04 @052   ----------------------------------------
 .byte   W96
@  #04 @053   ----------------------------------------
 .byte   W96
@  #04 @054   ----------------------------------------
 .byte   W96
@  #04 @055   ----------------------------------------
 .byte   W96
@  #04 @056   ----------------------------------------
 .byte   W96
@  #04 @057   ----------------------------------------
 .byte   W96
@  #04 @058   ----------------------------------------
 .byte   W96
@  #04 @059   ----------------------------------------
 .byte   W96
@  #04 @060   ----------------------------------------
 .byte   W96
@  #04 @061   ----------------------------------------
 .byte   W96
@  #04 @062   ----------------------------------------
 .byte   W96
@  #04 @063   ----------------------------------------
 .byte   W96
@  #04 @064   ----------------------------------------
 .byte   W96
@  #04 @065   ----------------------------------------
 .byte   W96
@  #04 @066   ----------------------------------------
 .byte   W96
@  #04 @067   ----------------------------------------
 .byte   W96
@  #04 @068   ----------------------------------------
 .byte   W96
@  #04 @069   ----------------------------------------
 .byte   W96
@  #04 @070   ----------------------------------------
 .byte   W96
@  #04 @071   ----------------------------------------
 .byte   W96
@  #04 @072   ----------------------------------------
 .byte   W96
@  #04 @073   ----------------------------------------
 .byte   W96
@  #04 @074   ----------------------------------------
 .byte   W96
@  #04 @075   ----------------------------------------
 .byte   W96
@  #04 @076   ----------------------------------------
 .byte   W96
@  #04 @077   ----------------------------------------
 .byte   W96
@  #04 @078   ----------------------------------------
 .byte   W96
@  #04 @079   ----------------------------------------
 .byte   W96
@  #04 @080   ----------------------------------------
 .byte   W96
@  #04 @081   ----------------------------------------
 .byte   W96
@  #04 @082   ----------------------------------------
 .byte   W96
@  #04 @083   ----------------------------------------
 .byte   W96
@  #04 @084   ----------------------------------------
 .byte   W96
@  #04 @085   ----------------------------------------
 .byte   W96
@  #04 @086   ----------------------------------------
 .byte   W96
@  #04 @087   ----------------------------------------
 .byte   N10 ,En3 ,v127
 .byte   N10 ,En4
 .byte   W96
@  #04 @088   ----------------------------------------
 .byte   W96
@  #04 @089   ----------------------------------------
 .byte   W96
@  #04 @090   ----------------------------------------
 .byte   W96
@  #04 @091   ----------------------------------------
 .byte   PATT
  .word Label_015F524A
@  #04 @092   ----------------------------------------
 .byte   W92
 .byte   W02
 .byte   EOT
 .byte   Dn4
 .byte   W01
 .byte   An3
 .byte   W01
@  #04 @093   ----------------------------------------
 .byte   PATT
  .word Label_015F5258
@  #04 @094   ----------------------------------------
 .byte   W92
 .byte   W02
 .byte   EOT
 .byte   Cs4
 .byte   W01
 .byte   Gs3
 .byte   W01
@  #04 @095   ----------------------------------------
 .byte   GOTO
  .word Label_015F5266
 .byte   FINE

@**************** Track 5 (Midi-Chn.4) ****************@

song01_005:
@  #05 @000   ----------------------------------------
 .byte   KEYSH , song01_key+0
 .byte   VOICE , 86
 .byte   VOL , 34*song01_mvl/mxv
 .byte   W96
@  #05 @001   ----------------------------------------
 .byte   W96
@  #05 @002   ----------------------------------------
 .byte   W96
@  #05 @003   ----------------------------------------
 .byte   W96
@  #05 @004   ----------------------------------------
 .byte   W96
@  #05 @005   ----------------------------------------
 .byte   W96
@  #05 @006   ----------------------------------------
 .byte   W96
@  #05 @007   ----------------------------------------
 .byte   W96
@  #05 @008   ----------------------------------------
 .byte   W96
@  #05 @009   ----------------------------------------
 .byte   W96
@  #05 @010   ----------------------------------------
 .byte   W96
@  #05 @011   ----------------------------------------
 .byte   W96
@  #05 @012   ----------------------------------------
 .byte   W96
@  #05 @013   ----------------------------------------
 .byte   W96
@  #05 @014   ----------------------------------------
 .byte   W96
@  #05 @015   ----------------------------------------
 .byte   W96
@  #05 @016   ----------------------------------------
 .byte   W96
@  #05 @017   ----------------------------------------
Label_015F534B:
 .byte   W96
@  #05 @018   ----------------------------------------
 .byte   W96
@  #05 @019   ----------------------------------------
 .byte   W96
@  #05 @020   ----------------------------------------
 .byte   W96
@  #05 @021   ----------------------------------------
 .byte   W96
@  #05 @022   ----------------------------------------
 .byte   W96
@  #05 @023   ----------------------------------------
 .byte   W96
@  #05 @024   ----------------------------------------
 .byte   W96
@  #05 @025   ----------------------------------------
 .byte   W96
@  #05 @026   ----------------------------------------
 .byte   W96
@  #05 @027   ----------------------------------------
 .byte   W96
@  #05 @028   ----------------------------------------
 .byte   W96
@  #05 @029   ----------------------------------------
 .byte   W96
@  #05 @030   ----------------------------------------
 .byte   W96
@  #05 @031   ----------------------------------------
 .byte   W96
@  #05 @032   ----------------------------------------
 .byte   W96
@  #05 @033   ----------------------------------------
 .byte   PAN , c_v+6
 .byte   N11 ,Fs3 ,v068
 .byte   N11 ,Bn3
 .byte   W36
 .byte   Fs3 ,v064
 .byte   N11 ,Bn3
 .byte   W36
 .byte   Fs3 ,v068
 .byte   N11 ,Bn3
 .byte   W24
@  #05 @034   ----------------------------------------
 .byte   W12
 .byte   Fs3
 .byte   N11 ,Bn3
 .byte   W36
 .byte   N10 ,Fs3
 .byte   N10 ,Bn3
 .byte   W48
@  #05 @035   ----------------------------------------
Label_015F5377:
 .byte   N11 ,Fs3 ,v068
 .byte   N11 ,Bn3
 .byte   W36
 .byte   Fs3
 .byte   N11 ,Bn3
 .byte   W60
 .byte   PEND 
@  #05 @036   ----------------------------------------
 .byte   W12
 .byte   Gn3 ,v064
 .byte   N11 ,Bn3
 .byte   W12
 .byte   Gn3 ,v068
 .byte   N11 ,Bn3
 .byte   W24
 .byte   En4 ,v096
 .byte   N11 ,Gn4
 .byte   W24
 .byte   En3 ,v100
 .byte   N11 ,An3
 .byte   W24
@  #05 @037   ----------------------------------------
 .byte   PAN , c_v+6
 .byte   N11 ,Fs3 ,v068
 .byte   N11 ,Bn3
 .byte   W36
 .byte   Fs3 ,v064
 .byte   N11 ,Bn3
 .byte   W36
 .byte   Fs3 ,v068
 .byte   N11 ,Bn3
 .byte   W24
@  #05 @038   ----------------------------------------
Label_015F53A9:
 .byte   W12
 .byte   N11 ,Fs3 ,v064
 .byte   N11 ,Bn3
 .byte   W36
 .byte   N10 ,Fs3 ,v068
 .byte   N10 ,Bn3
 .byte   W48
 .byte   PEND 
@  #05 @039   ----------------------------------------
 .byte   PATT
  .word Label_015F5377
@  #05 @040   ----------------------------------------
 .byte   W12
 .byte   N11 ,Gn3 ,v068
 .byte   N11 ,Bn3
 .byte   W12
 .byte   Gn3
 .byte   N11 ,Bn3
 .byte   W24
 .byte   En4 ,v096
 .byte   N11 ,Gn4
 .byte   W24
 .byte   En3 ,v100
 .byte   N11 ,An3
 .byte   W24
@  #05 @041   ----------------------------------------
 .byte   Fs3 ,v064
 .byte   N11 ,Bn3
 .byte   W36
 .byte   Fs3 ,v068
 .byte   N11 ,Bn3
 .byte   W36
 .byte   Fs3
 .byte   N11 ,Bn3
 .byte   W24
@  #05 @042   ----------------------------------------
 .byte   PATT
  .word Label_015F53A9
@  #05 @043   ----------------------------------------
Label_015F53E4:
 .byte   N11 ,Fs3 ,v068
 .byte   N11 ,Bn3
 .byte   W36
 .byte   Fs3 ,v064
 .byte   N11 ,Bn3
 .byte   W60
 .byte   PEND 
@  #05 @044   ----------------------------------------
 .byte   W12
 .byte   Gn3 ,v068
 .byte   N11 ,Bn3
 .byte   W12
 .byte   Gn3
 .byte   N11 ,Bn3
 .byte   W24
 .byte   En4 ,v100
 .byte   W01
 .byte   Gn4
 .byte   W23
 .byte   En3
 .byte   N11 ,An3
 .byte   W24
@  #05 @045   ----------------------------------------
 .byte   Fs3 ,v068
 .byte   N11 ,Bn3
 .byte   W36
 .byte   Fs3 ,v064
 .byte   N11 ,Bn3
 .byte   W36
 .byte   Fs3 ,v068
 .byte   N11 ,Bn3
 .byte   W24
@  #05 @046   ----------------------------------------
 .byte   W12
 .byte   Fs3
 .byte   N11 ,Bn3
 .byte   W36
 .byte   N10 ,Fs3 ,v064
 .byte   N10 ,Bn3
 .byte   W48
@  #05 @047   ----------------------------------------
 .byte   PATT
  .word Label_015F53E4
@  #05 @048   ----------------------------------------
 .byte   W12
 .byte   N11 ,Gn3 ,v068
 .byte   N11 ,Bn3
 .byte   W12
 .byte   Gn3 ,v064
 .byte   N11 ,Bn3
 .byte   W24
 .byte   En4 ,v100
 .byte   N11 ,Gn4
 .byte   W24
 .byte   En3
 .byte   W01
 .byte   An3
 .byte   W23
@  #05 @049   ----------------------------------------
 .byte   W96
@  #05 @050   ----------------------------------------
 .byte   W96
@  #05 @051   ----------------------------------------
 .byte   W96
@  #05 @052   ----------------------------------------
 .byte   W96
@  #05 @053   ----------------------------------------
 .byte   W96
@  #05 @054   ----------------------------------------
 .byte   W96
@  #05 @055   ----------------------------------------
 .byte   W96
@  #05 @056   ----------------------------------------
 .byte   W96
@  #05 @057   ----------------------------------------
 .byte   W96
@  #05 @058   ----------------------------------------
 .byte   W96
@  #05 @059   ----------------------------------------
 .byte   W96
@  #05 @060   ----------------------------------------
 .byte   W96
@  #05 @061   ----------------------------------------
 .byte   W96
@  #05 @062   ----------------------------------------
 .byte   W96
@  #05 @063   ----------------------------------------
 .byte   W96
@  #05 @064   ----------------------------------------
 .byte   W96
@  #05 @065   ----------------------------------------
 .byte   W96
@  #05 @066   ----------------------------------------
 .byte   W96
@  #05 @067   ----------------------------------------
 .byte   W96
@  #05 @068   ----------------------------------------
 .byte   W96
@  #05 @069   ----------------------------------------
 .byte   W96
@  #05 @070   ----------------------------------------
 .byte   W96
@  #05 @071   ----------------------------------------
 .byte   W96
@  #05 @072   ----------------------------------------
 .byte   W96
@  #05 @073   ----------------------------------------
 .byte   W96
@  #05 @074   ----------------------------------------
 .byte   W96
@  #05 @075   ----------------------------------------
 .byte   W96
@  #05 @076   ----------------------------------------
 .byte   W96
@  #05 @077   ----------------------------------------
 .byte   W96
@  #05 @078   ----------------------------------------
 .byte   W96
@  #05 @079   ----------------------------------------
 .byte   W96
@  #05 @080   ----------------------------------------
 .byte   W96
@  #05 @081   ----------------------------------------
 .byte   W96
@  #05 @082   ----------------------------------------
 .byte   W96
@  #05 @083   ----------------------------------------
 .byte   W96
@  #05 @084   ----------------------------------------
 .byte   W96
@  #05 @085   ----------------------------------------
 .byte   W96
@  #05 @086   ----------------------------------------
 .byte   W96
@  #05 @087   ----------------------------------------
 .byte   W96
@  #05 @088   ----------------------------------------
 .byte   W96
@  #05 @089   ----------------------------------------
 .byte   W96
@  #05 @090   ----------------------------------------
 .byte   W96
@  #05 @091   ----------------------------------------
 .byte   W96
@  #05 @092   ----------------------------------------
 .byte   W96
@  #05 @093   ----------------------------------------
 .byte   W96
@  #05 @094   ----------------------------------------
 .byte   W96
@  #05 @095   ----------------------------------------
 .byte   GOTO
  .word Label_015F534B
 .byte   FINE

@**************** Track 6 (Midi-Chn.5) ****************@

song01_006:
@  #06 @000   ----------------------------------------
 .byte   KEYSH , song01_key+0
 .byte   VOICE , 52
 .byte   VOL , 40*song01_mvl/mxv
 .byte   PAN , c_v+12
 .byte   W96
@  #06 @001   ----------------------------------------
 .byte   W96
@  #06 @002   ----------------------------------------
 .byte   W96
@  #06 @003   ----------------------------------------
 .byte   W96
@  #06 @004   ----------------------------------------
 .byte   W96
@  #06 @005   ----------------------------------------
 .byte   W96
@  #06 @006   ----------------------------------------
 .byte   W96
@  #06 @007   ----------------------------------------
 .byte   W96
@  #06 @008   ----------------------------------------
 .byte   W96
@  #06 @009   ----------------------------------------
 .byte   W96
@  #06 @010   ----------------------------------------
 .byte   W96
@  #06 @011   ----------------------------------------
 .byte   W96
@  #06 @012   ----------------------------------------
 .byte   W96
@  #06 @013   ----------------------------------------
 .byte   W96
@  #06 @014   ----------------------------------------
 .byte   W96
@  #06 @015   ----------------------------------------
 .byte   W96
@  #06 @016   ----------------------------------------
 .byte   W96
@  #06 @017   ----------------------------------------
Label_015F5485:
 .byte   W96
@  #06 @018   ----------------------------------------
 .byte   W96
@  #06 @019   ----------------------------------------
 .byte   W96
@  #06 @020   ----------------------------------------
 .byte   W96
@  #06 @021   ----------------------------------------
 .byte   W96
@  #06 @022   ----------------------------------------
 .byte   W96
@  #06 @023   ----------------------------------------
 .byte   W96
@  #06 @024   ----------------------------------------
 .byte   W96
@  #06 @025   ----------------------------------------
 .byte   W96
@  #06 @026   ----------------------------------------
 .byte   W96
@  #06 @027   ----------------------------------------
 .byte   W96
@  #06 @028   ----------------------------------------
 .byte   W96
@  #06 @029   ----------------------------------------
 .byte   W96
@  #06 @030   ----------------------------------------
 .byte   W96
@  #06 @031   ----------------------------------------
 .byte   W96
@  #06 @032   ----------------------------------------
 .byte   W96
@  #06 @033   ----------------------------------------
 .byte   W96
@  #06 @034   ----------------------------------------
 .byte   W96
@  #06 @035   ----------------------------------------
 .byte   W96
@  #06 @036   ----------------------------------------
 .byte   W96
@  #06 @037   ----------------------------------------
 .byte   W96
@  #06 @038   ----------------------------------------
 .byte   W96
@  #06 @039   ----------------------------------------
 .byte   W96
@  #06 @040   ----------------------------------------
 .byte   W96
@  #06 @041   ----------------------------------------
 .byte   W96
@  #06 @042   ----------------------------------------
 .byte   W96
@  #06 @043   ----------------------------------------
 .byte   W96
@  #06 @044   ----------------------------------------
 .byte   W96
@  #06 @045   ----------------------------------------
 .byte   W96
@  #06 @046   ----------------------------------------
 .byte   W96
@  #06 @047   ----------------------------------------
 .byte   W96
@  #06 @048   ----------------------------------------
 .byte   W96
@  #06 @049   ----------------------------------------
Label_015F54A5:
 .byte   N84 ,Fs3 ,v127
 .byte   N84 ,Fs4 ,v032
 .byte   W84
 .byte   N11 ,Gn3 ,v127
 .byte   N11 ,Gn4 ,v032
 .byte   W06
 .byte   N06 ,Fs3 ,v127
 .byte   N06 ,Fs4 ,v032
 .byte   W06
 .byte   PEND 
@  #06 @050   ----------------------------------------
 .byte   N11 ,En3 ,v127
 .byte   N11 ,En4 ,v032
 .byte   W96
@  #06 @051   ----------------------------------------
 .byte   W96
@  #06 @052   ----------------------------------------
 .byte   W96
@  #06 @053   ----------------------------------------
 .byte   PATT
  .word Label_015F54A5
@  #06 @054   ----------------------------------------
 .byte   N11 ,En3 ,v127
 .byte   N11 ,En4 ,v032
 .byte   W96
@  #06 @055   ----------------------------------------
 .byte   W96
@  #06 @056   ----------------------------------------
 .byte   W96
@  #06 @057   ----------------------------------------
 .byte   PATT
  .word Label_015F54A5
@  #06 @058   ----------------------------------------
 .byte   N11 ,En3 ,v127
 .byte   N11 ,En4 ,v032
 .byte   W96
@  #06 @059   ----------------------------------------
 .byte   W96
@  #06 @060   ----------------------------------------
 .byte   W96
@  #06 @061   ----------------------------------------
 .byte   PATT
  .word Label_015F54A5
@  #06 @062   ----------------------------------------
 .byte   N11 ,En3 ,v127
 .byte   N11 ,En4 ,v032
 .byte   W96
@  #06 @063   ----------------------------------------
 .byte   W96
@  #06 @064   ----------------------------------------
 .byte   W96
@  #06 @065   ----------------------------------------
 .byte   W96
@  #06 @066   ----------------------------------------
 .byte   W96
@  #06 @067   ----------------------------------------
 .byte   W96
@  #06 @068   ----------------------------------------
 .byte   W96
@  #06 @069   ----------------------------------------
 .byte   W96
@  #06 @070   ----------------------------------------
 .byte   W96
@  #06 @071   ----------------------------------------
 .byte   W96
@  #06 @072   ----------------------------------------
 .byte   W96
@  #06 @073   ----------------------------------------
 .byte   W96
@  #06 @074   ----------------------------------------
 .byte   W96
@  #06 @075   ----------------------------------------
 .byte   W96
@  #06 @076   ----------------------------------------
 .byte   W96
@  #06 @077   ----------------------------------------
 .byte   W96
@  #06 @078   ----------------------------------------
 .byte   W96
@  #06 @079   ----------------------------------------
 .byte   W96
@  #06 @080   ----------------------------------------
 .byte   W96
@  #06 @081   ----------------------------------------
 .byte   W96
@  #06 @082   ----------------------------------------
 .byte   W96
@  #06 @083   ----------------------------------------
 .byte   W96
@  #06 @084   ----------------------------------------
 .byte   W96
@  #06 @085   ----------------------------------------
 .byte   W96
@  #06 @086   ----------------------------------------
 .byte   W96
@  #06 @087   ----------------------------------------
 .byte   W96
@  #06 @088   ----------------------------------------
 .byte   W96
@  #06 @089   ----------------------------------------
 .byte   W96
@  #06 @090   ----------------------------------------
 .byte   W96
@  #06 @091   ----------------------------------------
 .byte   W96
@  #06 @092   ----------------------------------------
 .byte   W96
@  #06 @093   ----------------------------------------
 .byte   W96
@  #06 @094   ----------------------------------------
 .byte   W96
@  #06 @095   ----------------------------------------
 .byte   GOTO
  .word Label_015F5485
 .byte   FINE

@**************** Track 7 (Midi-Chn.6) ****************@

song01_007:
@  #07 @000   ----------------------------------------
 .byte   KEYSH , song01_key+0
 .byte   VOICE , 81
 .byte   VOL , 70*song01_mvl/mxv
 .byte   PAN , c_v+46
 .byte   W96
@  #07 @001   ----------------------------------------
 .byte   W96
@  #07 @002   ----------------------------------------
 .byte   W96
@  #07 @003   ----------------------------------------
 .byte   W96
@  #07 @004   ----------------------------------------
 .byte   W96
@  #07 @005   ----------------------------------------
 .byte   W96
@  #07 @006   ----------------------------------------
 .byte   W96
@  #07 @007   ----------------------------------------
 .byte   W96
@  #07 @008   ----------------------------------------
 .byte   W96
@  #07 @009   ----------------------------------------
 .byte   W96
@  #07 @010   ----------------------------------------
 .byte   W96
@  #07 @011   ----------------------------------------
 .byte   W96
@  #07 @012   ----------------------------------------
 .byte   W96
@  #07 @013   ----------------------------------------
 .byte   W96
@  #07 @014   ----------------------------------------
 .byte   W96
@  #07 @015   ----------------------------------------
 .byte   W96
@  #07 @016   ----------------------------------------
 .byte   W96
@  #07 @017   ----------------------------------------
Label_015F552D:
 .byte   W96
@  #07 @018   ----------------------------------------
 .byte   W96
@  #07 @019   ----------------------------------------
 .byte   W96
@  #07 @020   ----------------------------------------
 .byte   W96
@  #07 @021   ----------------------------------------
 .byte   W96
@  #07 @022   ----------------------------------------
 .byte   W96
@  #07 @023   ----------------------------------------
 .byte   W96
@  #07 @024   ----------------------------------------
 .byte   W96
@  #07 @025   ----------------------------------------
 .byte   W96
@  #07 @026   ----------------------------------------
 .byte   W96
@  #07 @027   ----------------------------------------
 .byte   W96
@  #07 @028   ----------------------------------------
 .byte   W96
@  #07 @029   ----------------------------------------
 .byte   W96
@  #07 @030   ----------------------------------------
 .byte   W96
@  #07 @031   ----------------------------------------
 .byte   W48
 .byte   PAN , c_v+51
 .byte   N03 ,En4 ,v056
 .byte   W04
 .byte   PAN , c_v+52
 .byte   N03 ,Fs4 ,v060
 .byte   W04
 .byte   PAN , c_v+53
 .byte   N03 ,Gn4
 .byte   W04
 .byte   PAN , c_v+54
 .byte   N03 ,An4 ,v064
 .byte   W04
 .byte   PAN , c_v+55
 .byte   N03 ,En4 ,v068
 .byte   W04
 .byte   PAN , c_v+56
 .byte   N03 ,Fs4
 .byte   W04
 .byte   PAN , c_v+57
 .byte   N03 ,Gn4 ,v072
 .byte   W04
 .byte   PAN , c_v+58
 .byte   N03 ,An4
 .byte   W04
 .byte   PAN , c_v+59
 .byte   N03 ,Bn4 ,v076
 .byte   W04
 .byte   PAN , c_v+60
 .byte   N03 ,Cn5
 .byte   W04
 .byte   PAN , c_v+61
 .byte   N03 ,Bn4 ,v080
 .byte   W04
 .byte   PAN , c_v+62
 .byte   N03 ,Cn5
 .byte   W04
@  #07 @032   ----------------------------------------
 .byte   PAN , c_v+63
 .byte   N03 ,Dn5 ,v084
 .byte   W04
 .byte   PAN , c_v+63
 .byte   N03 ,En5 ,v088
 .byte   W04
 .byte   PAN , c_v+63
 .byte   N03 ,Fn5
 .byte   W04
 .byte   PAN , c_v+59
 .byte   N03 ,Gn5 ,v092
 .byte   W04
 .byte   PAN , c_v+54
 .byte   N03 ,An5
 .byte   W04
 .byte   PAN , c_v+49
 .byte   N03 ,Bn5 ,v096
 .byte   W04
 .byte   PAN , c_v+43
 .byte   N03 ,Dn6
 .byte   W04
 .byte   PAN , c_v+38
 .byte   N03 ,Cn6 ,v092
 .byte   W04
 .byte   PAN , c_v+33
 .byte   N03 ,Bn5
 .byte   W04
 .byte   PAN , c_v+28
 .byte   N03 ,An5 ,v088
 .byte   W04
 .byte   PAN , c_v+22
 .byte   N03 ,Gn5 ,v084
 .byte   W04
 .byte   PAN , c_v+19
 .byte   N03 ,Fs5 ,v080
 .byte   W04
 .byte   PAN , c_v+14
 .byte   N03 ,En5 ,v076
 .byte   W04
 .byte   PAN , c_v+9
 .byte   N03 ,Dn5 ,v072
 .byte   W04
 .byte   PAN , c_v+4
 .byte   N03 ,Cn5 ,v068
 .byte   W04
 .byte   PAN , c_v-1
 .byte   N03 ,Bn4 ,v064
 .byte   W04
 .byte   PAN , c_v-6
 .byte   N03 ,An4
 .byte   W04
 .byte   PAN , c_v-14
 .byte   N03 ,Gn4 ,v060
 .byte   W04
 .byte   PAN , c_v-21
 .byte   N03 ,Fs4 ,v056
 .byte   W04
 .byte   PAN , c_v-28
 .byte   N03 ,En4 ,v052
 .byte   W04
 .byte   PAN , c_v-34
 .byte   N03 ,Dn4 ,v048
 .byte   W04
 .byte   PAN , c_v-41
 .byte   N03 ,Cn4 ,v044
 .byte   W04
 .byte   PAN , c_v-48
 .byte   N03 ,Bn3 ,v040
 .byte   W04
 .byte   PAN , c_v-54
 .byte   N03 ,An3 ,v036
 .byte   W04
@  #07 @033   ----------------------------------------
 .byte   W96
@  #07 @034   ----------------------------------------
 .byte   W96
@  #07 @035   ----------------------------------------
 .byte   W96
@  #07 @036   ----------------------------------------
 .byte   W96
@  #07 @037   ----------------------------------------
 .byte   W96
@  #07 @038   ----------------------------------------
 .byte   W96
@  #07 @039   ----------------------------------------
 .byte   W96
@  #07 @040   ----------------------------------------
 .byte   W96
@  #07 @041   ----------------------------------------
 .byte   W96
@  #07 @042   ----------------------------------------
 .byte   W96
@  #07 @043   ----------------------------------------
 .byte   W96
@  #07 @044   ----------------------------------------
 .byte   W96
@  #07 @045   ----------------------------------------
 .byte   W96
@  #07 @046   ----------------------------------------
 .byte   W96
@  #07 @047   ----------------------------------------
 .byte   W96
@  #07 @048   ----------------------------------------
 .byte   W96
@  #07 @049   ----------------------------------------
 .byte   W96
@  #07 @050   ----------------------------------------
 .byte   W96
@  #07 @051   ----------------------------------------
 .byte   W96
@  #07 @052   ----------------------------------------
 .byte   W96
@  #07 @053   ----------------------------------------
 .byte   W96
@  #07 @054   ----------------------------------------
 .byte   W96
@  #07 @055   ----------------------------------------
 .byte   W96
@  #07 @056   ----------------------------------------
 .byte   W96
@  #07 @057   ----------------------------------------
 .byte   W96
@  #07 @058   ----------------------------------------
 .byte   W96
@  #07 @059   ----------------------------------------
 .byte   W96
@  #07 @060   ----------------------------------------
 .byte   W96
@  #07 @061   ----------------------------------------
 .byte   W96
@  #07 @062   ----------------------------------------
 .byte   W96
@  #07 @063   ----------------------------------------
 .byte   W96
@  #07 @064   ----------------------------------------
 .byte   W96
@  #07 @065   ----------------------------------------
 .byte   W96
@  #07 @066   ----------------------------------------
 .byte   W96
@  #07 @067   ----------------------------------------
 .byte   W96
@  #07 @068   ----------------------------------------
 .byte   W96
@  #07 @069   ----------------------------------------
 .byte   W96
@  #07 @070   ----------------------------------------
 .byte   W96
@  #07 @071   ----------------------------------------
 .byte   W96
@  #07 @072   ----------------------------------------
 .byte   W96
@  #07 @073   ----------------------------------------
 .byte   W96
@  #07 @074   ----------------------------------------
 .byte   W96
@  #07 @075   ----------------------------------------
 .byte   W96
@  #07 @076   ----------------------------------------
 .byte   W96
@  #07 @077   ----------------------------------------
 .byte   W96
@  #07 @078   ----------------------------------------
 .byte   W96
@  #07 @079   ----------------------------------------
 .byte   W96
@  #07 @080   ----------------------------------------
 .byte   W96
@  #07 @081   ----------------------------------------
 .byte   W96
@  #07 @082   ----------------------------------------
 .byte   W96
@  #07 @083   ----------------------------------------
 .byte   W96
@  #07 @084   ----------------------------------------
 .byte   W96
@  #07 @085   ----------------------------------------
 .byte   W96
@  #07 @086   ----------------------------------------
 .byte   W96
@  #07 @087   ----------------------------------------
 .byte   W96
@  #07 @088   ----------------------------------------
 .byte   W96
@  #07 @089   ----------------------------------------
 .byte   W96
@  #07 @090   ----------------------------------------
 .byte   W96
@  #07 @091   ----------------------------------------
 .byte   W96
@  #07 @092   ----------------------------------------
 .byte   W96
@  #07 @093   ----------------------------------------
 .byte   W96
@  #07 @094   ----------------------------------------
 .byte   W96
@  #07 @095   ----------------------------------------
 .byte   GOTO
  .word Label_015F552D
 .byte   FINE

@**************** Track 8 (Midi-Chn.7) ****************@

song01_008:
@  #08 @000   ----------------------------------------
 .byte   KEYSH , song01_key+0
 .byte   VOICE , 14
 .byte   VOL , 29*song01_mvl/mxv
 .byte   PAN , c_v+0
 .byte   W96
@  #08 @001   ----------------------------------------
 .byte   N92 ,En3 ,v116
 .byte   W96
@  #08 @002   ----------------------------------------
 .byte   W96
@  #08 @003   ----------------------------------------
 .byte   N92
 .byte   W96
@  #08 @004   ----------------------------------------
 .byte   W96
@  #08 @005   ----------------------------------------
 .byte   N92
 .byte   W96
@  #08 @006   ----------------------------------------
 .byte   W96
@  #08 @007   ----------------------------------------
 .byte   N92
 .byte   W96
@  #08 @008   ----------------------------------------
 .byte   W96
@  #08 @009   ----------------------------------------
 .byte   N92
 .byte   W96
@  #08 @010   ----------------------------------------
 .byte   W96
@  #08 @011   ----------------------------------------
 .byte   N92
 .byte   W96
@  #08 @012   ----------------------------------------
 .byte   W96
@  #08 @013   ----------------------------------------
 .byte   W96
@  #08 @014   ----------------------------------------
 .byte   W96
@  #08 @015   ----------------------------------------
 .byte   W96
@  #08 @016   ----------------------------------------
 .byte   W96
@  #08 @017   ----------------------------------------
Label_015FAF75:
 .byte   W96
@  #08 @018   ----------------------------------------
 .byte   W96
@  #08 @019   ----------------------------------------
 .byte   W96
@  #08 @020   ----------------------------------------
 .byte   W96
@  #08 @021   ----------------------------------------
 .byte   W96
@  #08 @022   ----------------------------------------
 .byte   W96
@  #08 @023   ----------------------------------------
 .byte   W96
@  #08 @024   ----------------------------------------
 .byte   W96
@  #08 @025   ----------------------------------------
 .byte   W96
@  #08 @026   ----------------------------------------
 .byte   W96
@  #08 @027   ----------------------------------------
 .byte   W96
@  #08 @028   ----------------------------------------
 .byte   W96
@  #08 @029   ----------------------------------------
 .byte   W96
@  #08 @030   ----------------------------------------
 .byte   W96
@  #08 @031   ----------------------------------------
 .byte   N92 ,En3 ,v116
 .byte   W96
@  #08 @032   ----------------------------------------
 .byte   W96
@  #08 @033   ----------------------------------------
 .byte   W96
@  #08 @034   ----------------------------------------
 .byte   W96
@  #08 @035   ----------------------------------------
 .byte   W96
@  #08 @036   ----------------------------------------
 .byte   W96
@  #08 @037   ----------------------------------------
 .byte   W96
@  #08 @038   ----------------------------------------
 .byte   W96
@  #08 @039   ----------------------------------------
 .byte   W96
@  #08 @040   ----------------------------------------
 .byte   W96
@  #08 @041   ----------------------------------------
 .byte   W96
@  #08 @042   ----------------------------------------
 .byte   W96
@  #08 @043   ----------------------------------------
 .byte   W96
@  #08 @044   ----------------------------------------
 .byte   W96
@  #08 @045   ----------------------------------------
 .byte   W96
@  #08 @046   ----------------------------------------
 .byte   W96
@  #08 @047   ----------------------------------------
 .byte   W96
@  #08 @048   ----------------------------------------
 .byte   W96
@  #08 @049   ----------------------------------------
 .byte   W96
@  #08 @050   ----------------------------------------
 .byte   W96
@  #08 @051   ----------------------------------------
 .byte   W96
@  #08 @052   ----------------------------------------
 .byte   W96
@  #08 @053   ----------------------------------------
 .byte   W96
@  #08 @054   ----------------------------------------
 .byte   W96
@  #08 @055   ----------------------------------------
 .byte   W96
@  #08 @056   ----------------------------------------
 .byte   W96
@  #08 @057   ----------------------------------------
 .byte   W96
@  #08 @058   ----------------------------------------
 .byte   W96
@  #08 @059   ----------------------------------------
 .byte   W96
@  #08 @060   ----------------------------------------
 .byte   W96
@  #08 @061   ----------------------------------------
 .byte   W96
@  #08 @062   ----------------------------------------
 .byte   W96
@  #08 @063   ----------------------------------------
 .byte   W96
@  #08 @064   ----------------------------------------
 .byte   W96
@  #08 @065   ----------------------------------------
 .byte   W96
@  #08 @066   ----------------------------------------
 .byte   W96
@  #08 @067   ----------------------------------------
 .byte   W96
@  #08 @068   ----------------------------------------
 .byte   W96
@  #08 @069   ----------------------------------------
 .byte   W96
@  #08 @070   ----------------------------------------
 .byte   W96
@  #08 @071   ----------------------------------------
 .byte   W96
@  #08 @072   ----------------------------------------
 .byte   W96
@  #08 @073   ----------------------------------------
 .byte   W96
@  #08 @074   ----------------------------------------
 .byte   W96
@  #08 @075   ----------------------------------------
 .byte   W96
@  #08 @076   ----------------------------------------
 .byte   W96
@  #08 @077   ----------------------------------------
 .byte   W96
@  #08 @078   ----------------------------------------
 .byte   W96
@  #08 @079   ----------------------------------------
 .byte   W96
@  #08 @080   ----------------------------------------
 .byte   W96
@  #08 @081   ----------------------------------------
 .byte   W96
@  #08 @082   ----------------------------------------
 .byte   W96
@  #08 @083   ----------------------------------------
 .byte   W96
@  #08 @084   ----------------------------------------
 .byte   W96
@  #08 @085   ----------------------------------------
 .byte   W96
@  #08 @086   ----------------------------------------
 .byte   W96
@  #08 @087   ----------------------------------------
 .byte   N92
 .byte   W96
@  #08 @088   ----------------------------------------
 .byte   W96
@  #08 @089   ----------------------------------------
 .byte   N92
 .byte   W96
@  #08 @090   ----------------------------------------
 .byte   W96
@  #08 @091   ----------------------------------------
 .byte   W96
@  #08 @092   ----------------------------------------
 .byte   W96
@  #08 @093   ----------------------------------------
 .byte   W96
@  #08 @094   ----------------------------------------
 .byte   W96
@  #08 @095   ----------------------------------------
 .byte   GOTO
  .word Label_015FAF75
 .byte   FINE

@**************** Track 9 (Midi-Chn.8) ****************@

song01_009:
@  #09 @000   ----------------------------------------
 .byte   KEYSH , song01_key+0
 .byte   VOICE , 34
 .byte   PAN , c_v+0
 .byte   VOL , 35*song01_mvl/mxv
 .byte   W96
@  #09 @001   ----------------------------------------
 .byte   W96
@  #09 @002   ----------------------------------------
 .byte   W96
@  #09 @003   ----------------------------------------
 .byte   W96
@  #09 @004   ----------------------------------------
 .byte   W96
@  #09 @005   ----------------------------------------
 .byte   W96
@  #09 @006   ----------------------------------------
 .byte   W96
@  #09 @007   ----------------------------------------
 .byte   W96
@  #09 @008   ----------------------------------------
 .byte   W96
@  #09 @009   ----------------------------------------
Label_015F5699:
 .byte   N11 ,En1 ,v104
 .byte   W12
 .byte   En1 ,v096
 .byte   W12
 .byte   En1 ,v100
 .byte   W12
 .byte   En1 ,v108
 .byte   W12
 .byte   En1 ,v120
 .byte   W12
 .byte   En1 ,v112
 .byte   W12
 .byte   En1 ,v100
 .byte   W12
 .byte   En1 ,v120
 .byte   W12
 .byte   PEND 
@  #09 @010   ----------------------------------------
Label_015F56B3:
 .byte   N11 ,En1 ,v096
 .byte   W12
 .byte   En1 ,v108
 .byte   W12
 .byte   En1 ,v120
 .byte   W12
 .byte   En1 ,v100
 .byte   W12
 .byte   En1 ,v112
 .byte   W12
 .byte   En1 ,v096
 .byte   W12
 .byte   En1 ,v108
 .byte   W12
 .byte   En1 ,v116
 .byte   W12
 .byte   PEND 
@  #09 @011   ----------------------------------------
 .byte   PATT
  .word Label_015F5699
@  #09 @012   ----------------------------------------
 .byte   PATT
  .word Label_015F56B3
@  #09 @013   ----------------------------------------
Label_015F56D7:
 .byte   N11 ,En1 ,v088
 .byte   W12
 .byte   En1 ,v108
 .byte   W12
 .byte   En1 ,v088
 .byte   W12
 .byte   En1 ,v112
 .byte   W12
 .byte   En1 ,v116
 .byte   W12
 .byte   En1 ,v088
 .byte   W12
 .byte   En1 ,v112
 .byte   W12
 .byte   En1 ,v120
 .byte   W12
 .byte   PEND 
@  #09 @014   ----------------------------------------
Label_015F56F1:
 .byte   N11 ,En1 ,v088
 .byte   W12
 .byte   En1 ,v112
 .byte   W12
 .byte   En1 ,v120
 .byte   W12
 .byte   En1 ,v088
 .byte   W12
 .byte   En1 ,v100
 .byte   W12
 .byte   En1 ,v088
 .byte   W12
 .byte   N11
 .byte   W12
 .byte   En1 ,v120
 .byte   W12
 .byte   PEND 
@  #09 @015   ----------------------------------------
Label_015F570A:
 .byte   N11 ,En1 ,v088
 .byte   W12
 .byte   N11
 .byte   W12
 .byte   N11
 .byte   W12
 .byte   En1 ,v112
 .byte   W12
 .byte   En1 ,v120
 .byte   W12
 .byte   En1 ,v088
 .byte   W12
 .byte   En1 ,v112
 .byte   W12
 .byte   En1 ,v120
 .byte   W12
 .byte   PEND 
@  #09 @016   ----------------------------------------
 .byte   PATT
  .word Label_015F56F1
@  #09 @017   ----------------------------------------
Label_015F5727:
@  #09 @018   ----------------------------------------
 .byte   PATT
  .word Label_015F570A
@  #09 @019   ----------------------------------------
Label_015F572C:
 .byte   N11 ,En1 ,v088
 .byte   W12
 .byte   En1 ,v112
 .byte   W12
 .byte   En1 ,v120
 .byte   W12
 .byte   En1 ,v088
 .byte   W12
 .byte   En1 ,v100
 .byte   W12
 .byte   En1 ,v088
 .byte   W12
 .byte   N11
 .byte   W12
 .byte   En1 ,v112
 .byte   W12
 .byte   PEND 
@  #09 @020   ----------------------------------------
 .byte   PATT
  .word Label_015F570A
@  #09 @021   ----------------------------------------
 .byte   PATT
  .word Label_015F572C
@  #09 @022   ----------------------------------------
 .byte   PATT
  .word Label_015F570A
@  #09 @023   ----------------------------------------
 .byte   PATT
  .word Label_015F56F1
@  #09 @024   ----------------------------------------
 .byte   PATT
  .word Label_015F570A
@  #09 @025   ----------------------------------------
 .byte   PATT
  .word Label_015F56F1
@  #09 @026   ----------------------------------------
 .byte   PATT
  .word Label_015F570A
@  #09 @027   ----------------------------------------
 .byte   PATT
  .word Label_015F572C
@  #09 @028   ----------------------------------------
 .byte   PATT
  .word Label_015F570A
@  #09 @029   ----------------------------------------
 .byte   PATT
  .word Label_015F572C
@  #09 @030   ----------------------------------------
 .byte   PATT
  .word Label_015F570A
@  #09 @031   ----------------------------------------
 .byte   PATT
  .word Label_015F572C
@  #09 @032   ----------------------------------------
 .byte   PATT
  .word Label_015F570A
@  #09 @033   ----------------------------------------
 .byte   PATT
  .word Label_015F572C
@  #09 @034   ----------------------------------------
 .byte   PATT
  .word Label_015F572C
@  #09 @035   ----------------------------------------
Label_015F5790:
 .byte   N11 ,En1 ,v088
 .byte   W12
 .byte   En1 ,v100
 .byte   W12
 .byte   En1 ,v120
 .byte   W12
 .byte   En1 ,v088
 .byte   W12
 .byte   En1 ,v112
 .byte   W12
 .byte   En1 ,v088
 .byte   W12
 .byte   N11
 .byte   W12
 .byte   En1 ,v120
 .byte   W12
 .byte   PEND 
@  #09 @036   ----------------------------------------
 .byte   PATT
  .word Label_015F572C
@  #09 @037   ----------------------------------------
 .byte   PATT
  .word Label_015F5790
@  #09 @038   ----------------------------------------
 .byte   PATT
  .word Label_015F572C
@  #09 @039   ----------------------------------------
 .byte   PATT
  .word Label_015F5790
@  #09 @040   ----------------------------------------
 .byte   PATT
  .word Label_015F572C
@  #09 @041   ----------------------------------------
 .byte   PATT
  .word Label_015F5790
@  #09 @042   ----------------------------------------
 .byte   PATT
  .word Label_015F572C
@  #09 @043   ----------------------------------------
 .byte   PATT
  .word Label_015F5790
@  #09 @044   ----------------------------------------
 .byte   PATT
  .word Label_015F572C
@  #09 @045   ----------------------------------------
 .byte   PATT
  .word Label_015F5790
@  #09 @046   ----------------------------------------
 .byte   PATT
  .word Label_015F572C
@  #09 @047   ----------------------------------------
 .byte   PATT
  .word Label_015F5790
@  #09 @048   ----------------------------------------
 .byte   PATT
  .word Label_015F572C
@  #09 @049   ----------------------------------------
 .byte   PATT
  .word Label_015F5790
@  #09 @050   ----------------------------------------
Label_015F57EF:
 .byte   N11 ,En1 ,v120
 .byte   W12
 .byte   En1 ,v088
 .byte   W12
 .byte   En1 ,v112
 .byte   W12
 .byte   En1 ,v120
 .byte   W12
 .byte   En1 ,v088
 .byte   W12
 .byte   En1 ,v120
 .byte   W12
 .byte   En1 ,v088
 .byte   W12
 .byte   En1 ,v112
 .byte   W12
 .byte   PEND 
@  #09 @051   ----------------------------------------
Label_015F5809:
 .byte   N11 ,En1 ,v120
 .byte   W12
 .byte   En1 ,v088
 .byte   W12
 .byte   En1 ,v112
 .byte   W12
 .byte   En1 ,v120
 .byte   W12
 .byte   En1 ,v088
 .byte   W12
 .byte   En1 ,v112
 .byte   W12
 .byte   En1 ,v088
 .byte   W12
 .byte   En1 ,v120
 .byte   W12
 .byte   PEND 
@  #09 @052   ----------------------------------------
 .byte   PATT
  .word Label_015F57EF
@  #09 @053   ----------------------------------------
 .byte   PATT
  .word Label_015F5809
@  #09 @054   ----------------------------------------
Label_015F582D:
 .byte   N11 ,Cn1 ,v120
 .byte   W12
 .byte   Cn1 ,v088
 .byte   W12
 .byte   Cn1 ,v112
 .byte   W12
 .byte   Cn1 ,v120
 .byte   W12
 .byte   Cn1 ,v088
 .byte   W12
 .byte   Cn1 ,v120
 .byte   W12
 .byte   Cn1 ,v088
 .byte   W12
 .byte   Cn1 ,v112
 .byte   W12
 .byte   PEND 
@  #09 @055   ----------------------------------------
Label_015F5847:
 .byte   N11 ,Cn1 ,v120
 .byte   W12
 .byte   Cn1 ,v088
 .byte   W12
 .byte   Cn1 ,v112
 .byte   W12
 .byte   Cn1 ,v120
 .byte   W12
 .byte   Cn1 ,v088
 .byte   W12
 .byte   Cn1 ,v112
 .byte   W12
 .byte   Cn1 ,v088
 .byte   W12
 .byte   Cn1 ,v120
 .byte   W12
 .byte   PEND 
@  #09 @056   ----------------------------------------
 .byte   PATT
  .word Label_015F582D
@  #09 @057   ----------------------------------------
 .byte   PATT
  .word Label_015F5847
@  #09 @058   ----------------------------------------
 .byte   PATT
  .word Label_015F57EF
@  #09 @059   ----------------------------------------
 .byte   PATT
  .word Label_015F5809
@  #09 @060   ----------------------------------------
 .byte   PATT
  .word Label_015F57EF
@  #09 @061   ----------------------------------------
 .byte   PATT
  .word Label_015F5809
@  #09 @062   ----------------------------------------
 .byte   PATT
  .word Label_015F582D
@  #09 @063   ----------------------------------------
 .byte   PATT
  .word Label_015F5847
@  #09 @064   ----------------------------------------
 .byte   PATT
  .word Label_015F582D
@  #09 @065   ----------------------------------------
 .byte   PATT
  .word Label_015F5847
@  #09 @066   ----------------------------------------
 .byte   W96
@  #09 @067   ----------------------------------------
 .byte   W96
@  #09 @068   ----------------------------------------
 .byte   W96
@  #09 @069   ----------------------------------------
 .byte   W96
@  #09 @070   ----------------------------------------
 .byte   W96
@  #09 @071   ----------------------------------------
 .byte   W96
@  #09 @072   ----------------------------------------
 .byte   W96
@  #09 @073   ----------------------------------------
 .byte   W96
@  #09 @074   ----------------------------------------
 .byte   W96
@  #09 @075   ----------------------------------------
 .byte   W96
@  #09 @076   ----------------------------------------
 .byte   W96
@  #09 @077   ----------------------------------------
 .byte   W96
@  #09 @078   ----------------------------------------
 .byte   W96
@  #09 @079   ----------------------------------------
 .byte   W96
@  #09 @080   ----------------------------------------
 .byte   W96
@  #09 @081   ----------------------------------------
 .byte   W96
@  #09 @082   ----------------------------------------
 .byte   W96
@  #09 @083   ----------------------------------------
 .byte   W96
@  #09 @084   ----------------------------------------
 .byte   W96
@  #09 @085   ----------------------------------------
 .byte   W96
@  #09 @086   ----------------------------------------
 .byte   W96
@  #09 @087   ----------------------------------------
 .byte   W96
@  #09 @088   ----------------------------------------
 .byte   PATT
  .word Label_015F5699
@  #09 @089   ----------------------------------------
 .byte   PATT
  .word Label_015F56B3
@  #09 @090   ----------------------------------------
 .byte   PATT
  .word Label_015F5699
@  #09 @091   ----------------------------------------
 .byte   PATT
  .word Label_015F56B3
@  #09 @092   ----------------------------------------
 .byte   PATT
  .word Label_015F56D7
@  #09 @093   ----------------------------------------
 .byte   PATT
  .word Label_015F56F1
@  #09 @094   ----------------------------------------
 .byte   PATT
  .word Label_015F570A
@  #09 @095   ----------------------------------------
 .byte   PATT
  .word Label_015F56F1
@  #09 @096   ----------------------------------------
 .byte   GOTO
  .word Label_015F5727
 .byte   FINE

@**************** Track 10 (Midi-Chn.9) ****************@

song01_010:
@  #10 @000   ----------------------------------------
 .byte   KEYSH , song01_key+0
 .byte   VOICE , 81
 .byte   PAN , c_v+0
 .byte   VOL , 37*song01_mvl/mxv
 .byte   W96
@  #10 @001   ----------------------------------------
 .byte   W96
@  #10 @002   ----------------------------------------
 .byte   W96
@  #10 @003   ----------------------------------------
 .byte   W96
@  #10 @004   ----------------------------------------
 .byte   W96
@  #10 @005   ----------------------------------------
 .byte   W96
@  #10 @006   ----------------------------------------
 .byte   W96
@  #10 @007   ----------------------------------------
 .byte   W96
@  #10 @008   ----------------------------------------
 .byte   W96
@  #10 @009   ----------------------------------------
 .byte   W96
@  #10 @010   ----------------------------------------
 .byte   W96
@  #10 @011   ----------------------------------------
 .byte   W96
@  #10 @012   ----------------------------------------
 .byte   W96
@  #10 @013   ----------------------------------------
 .byte   W96
@  #10 @014   ----------------------------------------
 .byte   W96
@  #10 @015   ----------------------------------------
 .byte   W96
@  #10 @016   ----------------------------------------
 .byte   W96
@  #10 @017   ----------------------------------------
Label_015F58F1:
 .byte   W96
@  #10 @018   ----------------------------------------
 .byte   W96
@  #10 @019   ----------------------------------------
 .byte   W96
@  #10 @020   ----------------------------------------
 .byte   W96
@  #10 @021   ----------------------------------------
 .byte   W96
@  #10 @022   ----------------------------------------
 .byte   W96
@  #10 @023   ----------------------------------------
 .byte   W96
@  #10 @024   ----------------------------------------
 .byte   W96
@  #10 @025   ----------------------------------------
 .byte   W96
@  #10 @026   ----------------------------------------
 .byte   W96
@  #10 @027   ----------------------------------------
 .byte   W96
@  #10 @028   ----------------------------------------
 .byte   W96
@  #10 @029   ----------------------------------------
 .byte   W96
@  #10 @030   ----------------------------------------
 .byte   W96
@  #10 @031   ----------------------------------------
 .byte   W96
@  #10 @032   ----------------------------------------
 .byte   W96
@  #10 @033   ----------------------------------------
 .byte   W96
@  #10 @034   ----------------------------------------
 .byte   W96
@  #10 @035   ----------------------------------------
 .byte   W96
@  #10 @036   ----------------------------------------
 .byte   W96
@  #10 @037   ----------------------------------------
 .byte   W96
@  #10 @038   ----------------------------------------
 .byte   W96
@  #10 @039   ----------------------------------------
 .byte   W96
@  #10 @040   ----------------------------------------
 .byte   W96
@  #10 @041   ----------------------------------------
 .byte   W96
@  #10 @042   ----------------------------------------
 .byte   W96
@  #10 @043   ----------------------------------------
 .byte   W96
@  #10 @044   ----------------------------------------
 .byte   W96
@  #10 @045   ----------------------------------------
 .byte   W96
@  #10 @046   ----------------------------------------
 .byte   W96
@  #10 @047   ----------------------------------------
 .byte   W96
@  #10 @048   ----------------------------------------
 .byte   W96
@  #10 @049   ----------------------------------------
 .byte   W96
@  #10 @050   ----------------------------------------
 .byte   W96
@  #10 @051   ----------------------------------------
 .byte   W96
@  #10 @052   ----------------------------------------
 .byte   W96
@  #10 @053   ----------------------------------------
 .byte   W96
@  #10 @054   ----------------------------------------
 .byte   W96
@  #10 @055   ----------------------------------------
 .byte   W96
@  #10 @056   ----------------------------------------
 .byte   W96
@  #10 @057   ----------------------------------------
 .byte   W96
@  #10 @058   ----------------------------------------
 .byte   W96
@  #10 @059   ----------------------------------------
 .byte   W96
@  #10 @060   ----------------------------------------
 .byte   W96
@  #10 @061   ----------------------------------------
 .byte   W96
@  #10 @062   ----------------------------------------
 .byte   W96
@  #10 @063   ----------------------------------------
 .byte   W96
@  #10 @064   ----------------------------------------
 .byte   W96
@  #10 @065   ----------------------------------------
 .byte   W96
@  #10 @066   ----------------------------------------
 .byte   W96
@  #10 @067   ----------------------------------------
 .byte   W96
@  #10 @068   ----------------------------------------
 .byte   W96
@  #10 @069   ----------------------------------------
Label_015F5925:
 .byte   BEND , c_v-3
 .byte   TIE ,En1 ,v112
 .byte   W03
 .byte   W03
 .byte   W02
 .byte   BEND , c_v-2
 .byte   W01
 .byte   W04
 .byte   W03
 .byte   W01
 .byte   BEND , c_v-1
 .byte   W02
 .byte   W03
 .byte   W03
 .byte   BEND , c_v+0
 .byte   W03
 .byte   W03
 .byte   W04
 .byte   W03
 .byte   W03
 .byte   W03
 .byte   W03
 .byte   W03
 .byte   W04
 .byte   W03
 .byte   W03
 .byte   W03
 .byte   W03
 .byte   W03
 .byte   W03
 .byte   W04
 .byte   W03
 .byte   W03
 .byte   W03
 .byte   W03
 .byte   W03
 .byte   W03
 .byte   W02
 .byte   PEND 
@  #10 @070   ----------------------------------------
Label_015F5950:
 .byte   W02
 .byte   W03
 .byte   W03
 .byte   W03
 .byte   W03
 .byte   W03
 .byte   W03
 .byte   W04
 .byte   W03
 .byte   W03
 .byte   W03
 .byte   W03
 .byte   W03
 .byte   W03
 .byte   W04
 .byte   W03
 .byte   W03
 .byte   W03
 .byte   W03
 .byte   W03
 .byte   W04
 .byte   W03
 .byte   W03
 .byte   W03
 .byte   W03
 .byte   W03
 .byte   W03
 .byte   W04
 .byte   W03
 .byte   W03
 .byte   W03
 .byte   PEND 
@  #10 @071   ----------------------------------------
Label_015F5970:
 .byte   W03
 .byte   W03
 .byte   W03
 .byte   W04
 .byte   W03
 .byte   W03
 .byte   W03
 .byte   W03
 .byte   W03
 .byte   W03
 .byte   W04
 .byte   W03
 .byte   W03
 .byte   W03
 .byte   W03
 .byte   W03
 .byte   W03
 .byte   W04
 .byte   W03
 .byte   W03
 .byte   W03
 .byte   W03
 .byte   W03
 .byte   W04
 .byte   W03
 .byte   W03
 .byte   W03
 .byte   W03
 .byte   W03
 .byte   W03
 .byte   W02
 .byte   PEND 
@  #10 @072   ----------------------------------------
Label_015F5990:
 .byte   W02
 .byte   W03
 .byte   W03
 .byte   W03
 .byte   W03
 .byte   W03
 .byte   W03
 .byte   W04
 .byte   W03
 .byte   W03
 .byte   W03
 .byte   W03
 .byte   W03
 .byte   W03
 .byte   W04
 .byte   W03
 .byte   W03
 .byte   W03
 .byte   W03
 .byte   W03
 .byte   W03
 .byte   W04
 .byte   W03
 .byte   W03
 .byte   W03
 .byte   W03
 .byte   W03
 .byte   W04
 .byte   W03
 .byte   W03
 .byte   W02
 .byte   PEND 
 .byte   EOT
 .byte   En1
 .byte   W01
@  #10 @073   ----------------------------------------
 .byte   PATT
  .word Label_015F5925
@  #10 @074   ----------------------------------------
 .byte   PATT
  .word Label_015F5950
@  #10 @075   ----------------------------------------
 .byte   PATT
  .word Label_015F5970
@  #10 @076   ----------------------------------------
 .byte   PATT
  .word Label_015F5990
@  #10 @077   ----------------------------------------
 .byte   EOT
 .byte   En1
 .byte   W01
@  #10 @078   ----------------------------------------
 .byte   PATT
  .word Label_015F5925
@  #10 @079   ----------------------------------------
 .byte   PATT
  .word Label_015F5950
@  #10 @080   ----------------------------------------
 .byte   PATT
  .word Label_015F5970
@  #10 @081   ----------------------------------------
 .byte   PATT
  .word Label_015F5990
@  #10 @082   ----------------------------------------
 .byte   EOT
 .byte   En1
 .byte   W01
@  #10 @083   ----------------------------------------
 .byte   PATT
  .word Label_015F5925
@  #10 @084   ----------------------------------------
 .byte   PATT
  .word Label_015F5950
@  #10 @085   ----------------------------------------
 .byte   PATT
  .word Label_015F5970
@  #10 @086   ----------------------------------------
 .byte   PATT
  .word Label_015F5990
@  #10 @087   ----------------------------------------
 .byte   EOT
 .byte   En1
 .byte   W01
@  #10 @088   ----------------------------------------
 .byte   PATT
  .word Label_015F5925
@  #10 @089   ----------------------------------------
 .byte   PATT
  .word Label_015F5950
@  #10 @090   ----------------------------------------
 .byte   EOT
 .byte   En1
 .byte   W96
@  #10 @091   ----------------------------------------
 .byte   BEND , c_v+0
 .byte   W96
@  #10 @092   ----------------------------------------
 .byte   W96
@  #10 @093   ----------------------------------------
 .byte   W96
@  #10 @094   ----------------------------------------
 .byte   W96
@  #10 @095   ----------------------------------------
 .byte   W96
@  #10 @096   ----------------------------------------
 .byte   W96
@  #10 @097   ----------------------------------------
 .byte   W96
@  #10 @098   ----------------------------------------
 .byte   GOTO
  .word Label_015F58F1
 .byte   FINE

@**************** Track 11 (Midi-Chn.10) ****************@

song01_011:
@  #11 @000   ----------------------------------------
 .byte   KEYSH , song01_key+0
 .byte   VOICE , 49
 .byte   PAN , c_v-6
 .byte   VOL , 33*song01_mvl/mxv
 .byte   W96
@  #11 @001   ----------------------------------------
 .byte   TIE ,En1 ,v112
 .byte   W96
@  #11 @002   ----------------------------------------
 .byte   W92
 .byte   W03
 .byte   EOT
 .byte   W01
@  #11 @003   ----------------------------------------
 .byte   TIE
 .byte   W96
@  #11 @004   ----------------------------------------
 .byte   W96
@  #11 @005   ----------------------------------------
 .byte   W96
@  #11 @006   ----------------------------------------
 .byte   W92
 .byte   W03
 .byte   EOT
 .byte   W01
@  #11 @007   ----------------------------------------
 .byte   TIE
 .byte   W96
@  #11 @008   ----------------------------------------
 .byte   W96
@  #11 @009   ----------------------------------------
 .byte   VOL , 33*song01_mvl/mxv
 .byte   W96
@  #11 @010   ----------------------------------------
 .byte   W96
@  #11 @011   ----------------------------------------
 .byte   W92
 .byte   W03
 .byte   EOT
 .byte   W01
@  #11 @012   ----------------------------------------
 .byte   TIE
 .byte   W96
@  #11 @013   ----------------------------------------
 .byte   W96
@  #11 @014   ----------------------------------------
 .byte   W96
@  #11 @015   ----------------------------------------
 .byte   W96
@  #11 @016   ----------------------------------------
 .byte   W92
 .byte   W03
 .byte   EOT
 .byte   W01
@  #11 @017   ----------------------------------------
Label_015F5A41:
 .byte   TIE ,En1 ,v112
 .byte   W96
@  #11 @018   ----------------------------------------
 .byte   W96
@  #11 @019   ----------------------------------------
 .byte   W96
@  #11 @020   ----------------------------------------
 .byte   W96
@  #11 @021   ----------------------------------------
 .byte   W96
@  #11 @022   ----------------------------------------
 .byte   W96
@  #11 @023   ----------------------------------------
 .byte   W96
@  #11 @024   ----------------------------------------
 .byte   W92
 .byte   W03
 .byte   EOT
 .byte   W01
@  #11 @025   ----------------------------------------
 .byte   TIE
 .byte   W96
@  #11 @026   ----------------------------------------
 .byte   W96
@  #11 @027   ----------------------------------------
 .byte   W96
@  #11 @028   ----------------------------------------
 .byte   W96
@  #11 @029   ----------------------------------------
 .byte   W96
@  #11 @030   ----------------------------------------
 .byte   W96
@  #11 @031   ----------------------------------------
 .byte   W96
@  #11 @032   ----------------------------------------
 .byte   W96
@  #11 @033   ----------------------------------------
 .byte   W96
@  #11 @034   ----------------------------------------
 .byte   W96
@  #11 @035   ----------------------------------------
 .byte   W96
@  #11 @036   ----------------------------------------
 .byte   W96
@  #11 @037   ----------------------------------------
 .byte   W96
@  #11 @038   ----------------------------------------
 .byte   W96
@  #11 @039   ----------------------------------------
 .byte   W96
@  #11 @040   ----------------------------------------
 .byte   W96
@  #11 @041   ----------------------------------------
 .byte   W96
@  #11 @042   ----------------------------------------
 .byte   W96
@  #11 @043   ----------------------------------------
 .byte   W96
@  #11 @044   ----------------------------------------
 .byte   W96
@  #11 @045   ----------------------------------------
 .byte   W96
@  #11 @046   ----------------------------------------
 .byte   W96
@  #11 @047   ----------------------------------------
 .byte   W96
@  #11 @048   ----------------------------------------
 .byte   W96
@  #11 @049   ----------------------------------------
 .byte   W96
@  #11 @050   ----------------------------------------
 .byte   W96
@  #11 @051   ----------------------------------------
 .byte   W96
@  #11 @052   ----------------------------------------
 .byte   W96
@  #11 @053   ----------------------------------------
 .byte   EOT
 .byte   TIE ,Cn1
 .byte   W96
@  #11 @054   ----------------------------------------
 .byte   W96
@  #11 @055   ----------------------------------------
 .byte   W96
@  #11 @056   ----------------------------------------
 .byte   W92
 .byte   W03
 .byte   EOT
 .byte   W01
@  #11 @057   ----------------------------------------
 .byte   TIE ,En1
 .byte   W96
@  #11 @058   ----------------------------------------
 .byte   W96
@  #11 @059   ----------------------------------------
 .byte   W96
@  #11 @060   ----------------------------------------
 .byte   W96
@  #11 @061   ----------------------------------------
 .byte   EOT
 .byte   TIE ,Cn1
 .byte   W96
@  #11 @062   ----------------------------------------
 .byte   W96
@  #11 @063   ----------------------------------------
 .byte   W96
@  #11 @064   ----------------------------------------
 .byte   W92
 .byte   W03
 .byte   EOT
 .byte   W01
@  #11 @065   ----------------------------------------
 .byte   TIE ,En1
 .byte   W96
@  #11 @066   ----------------------------------------
 .byte   W96
@  #11 @067   ----------------------------------------
 .byte   W96
@  #11 @068   ----------------------------------------
 .byte   W96
@  #11 @069   ----------------------------------------
 .byte   W96
@  #11 @070   ----------------------------------------
 .byte   W96
@  #11 @071   ----------------------------------------
 .byte   W96
@  #11 @072   ----------------------------------------
 .byte   W96
@  #11 @073   ----------------------------------------
 .byte   W96
@  #11 @074   ----------------------------------------
 .byte   W96
@  #11 @075   ----------------------------------------
 .byte   W96
@  #11 @076   ----------------------------------------
 .byte   W96
@  #11 @077   ----------------------------------------
 .byte   W96
@  #11 @078   ----------------------------------------
 .byte   W96
@  #11 @079   ----------------------------------------
 .byte   W96
@  #11 @080   ----------------------------------------
 .byte   W96
@  #11 @081   ----------------------------------------
 .byte   W96
@  #11 @082   ----------------------------------------
 .byte   W96
@  #11 @083   ----------------------------------------
 .byte   VOL , 33*song01_mvl/mxv
 .byte   W19
 .byte   VOL , 34*song01_mvl/mxv
 .byte   W19
 .byte   VOL , 34*song01_mvl/mxv
 .byte   W20
 .byte   VOL , 35*song01_mvl/mxv
 .byte   W19
 .byte   VOL , 35*song01_mvl/mxv
 .byte   W19
@  #11 @084   ----------------------------------------
 .byte   VOL , 35*song01_mvl/mxv
 .byte   W14
 .byte   VOL , 36*song01_mvl/mxv
 .byte   W13
 .byte   VOL , 36*song01_mvl/mxv
 .byte   W14
 .byte   VOL , 37*song01_mvl/mxv
 .byte   W14
 .byte   VOL , 37*song01_mvl/mxv
 .byte   W14
 .byte   VOL , 37*song01_mvl/mxv
 .byte   W13
 .byte   VOL , 38*song01_mvl/mxv
 .byte   W14
@  #11 @085   ----------------------------------------
 .byte   VOL , 38*song01_mvl/mxv
 .byte   W19
 .byte   VOL , 38*song01_mvl/mxv
 .byte   W19
 .byte   VOL , 39*song01_mvl/mxv
 .byte   W20
 .byte   VOL , 39*song01_mvl/mxv
 .byte   W19
 .byte   VOL , 40*song01_mvl/mxv
 .byte   W19
@  #11 @086   ----------------------------------------
 .byte   VOL , 40*song01_mvl/mxv
 .byte   W04
 .byte   VOL , 40*song01_mvl/mxv
 .byte   W04
 .byte   VOL , 41*song01_mvl/mxv
 .byte   W04
 .byte   VOL , 41*song01_mvl/mxv
 .byte   W04
 .byte   VOL , 42*song01_mvl/mxv
 .byte   W04
 .byte   VOL , 42*song01_mvl/mxv
 .byte   W04
 .byte   VOL , 42*song01_mvl/mxv
 .byte   W04
 .byte   VOL , 43*song01_mvl/mxv
 .byte   W04
 .byte   VOL , 43*song01_mvl/mxv
 .byte   W04
 .byte   VOL , 44*song01_mvl/mxv
 .byte   W04
 .byte   VOL , 44*song01_mvl/mxv
 .byte   W04
 .byte   VOL , 44*song01_mvl/mxv
 .byte   W04
 .byte   VOL , 45*song01_mvl/mxv
 .byte   W04
 .byte   VOL , 45*song01_mvl/mxv
 .byte   W04
 .byte   VOL , 46*song01_mvl/mxv
 .byte   W04
 .byte   VOL , 46*song01_mvl/mxv
 .byte   W04
 .byte   VOL , 46*song01_mvl/mxv
 .byte   W04
 .byte   VOL , 47*song01_mvl/mxv
 .byte   W04
 .byte   VOL , 47*song01_mvl/mxv
 .byte   W04
 .byte   VOL , 48*song01_mvl/mxv
 .byte   W04
 .byte   VOL , 48*song01_mvl/mxv
 .byte   W04
 .byte   VOL , 48*song01_mvl/mxv
 .byte   W04
 .byte   VOL , 49*song01_mvl/mxv
 .byte   W04
 .byte   VOL , 49*song01_mvl/mxv
 .byte   W04
@  #11 @087   ----------------------------------------
 .byte   VOL , 33*song01_mvl/mxv
 .byte   W96
@  #11 @088   ----------------------------------------
 .byte   W96
@  #11 @089   ----------------------------------------
 .byte   W92
 .byte   W03
 .byte   EOT
 .byte   W01
@  #11 @090   ----------------------------------------
 .byte   TIE
 .byte   W96
@  #11 @091   ----------------------------------------
 .byte   W96
@  #11 @092   ----------------------------------------
 .byte   W96
@  #11 @093   ----------------------------------------
 .byte   W96
@  #11 @094   ----------------------------------------
 .byte   W92
 .byte   W03
 .byte   EOT
 .byte   W01
@  #11 @095   ----------------------------------------
 .byte   GOTO
  .word Label_015F5A41
 .byte   FINE

@**************** Track 12 (Midi-Chn.11) ****************@

song01_012:
@  #12 @000   ----------------------------------------
 .byte   KEYSH , song01_key+0
 .byte   VOICE , 47
 .byte   PAN , c_v+0
 .byte   VOL , 43*song01_mvl/mxv
 .byte   W84
 .byte   N05 ,En1 ,v112
 .byte   W06
 .byte   En1 ,v116
 .byte   W06
@  #12 @001   ----------------------------------------
 .byte   N92
 .byte   W96
@  #12 @002   ----------------------------------------
Label_015F5B16:
 .byte   W60
 .byte   N11 ,En1 ,v112
 .byte   W12
 .byte   N11
 .byte   W12
 .byte   En1 ,v116
 .byte   W12
 .byte   PEND 
@  #12 @003   ----------------------------------------
 .byte   N92
 .byte   W96
@  #12 @004   ----------------------------------------
Label_015F5B23:
 .byte   W84
 .byte   N05 ,En1 ,v112
 .byte   W06
 .byte   En1 ,v116
 .byte   W06
 .byte   PEND 
@  #12 @005   ----------------------------------------
 .byte   N92
 .byte   W96
@  #12 @006   ----------------------------------------
 .byte   PATT
  .word Label_015F5B16
@  #12 @007   ----------------------------------------
 .byte   N92 ,En1 ,v116
 .byte   W96
@  #12 @008   ----------------------------------------
 .byte   PATT
  .word Label_015F5B23
@  #12 @009   ----------------------------------------
 .byte   N92 ,En1 ,v116
 .byte   W96
@  #12 @010   ----------------------------------------
 .byte   W96
@  #12 @011   ----------------------------------------
 .byte   N92
 .byte   W96
@  #12 @012   ----------------------------------------
 .byte   W96
@  #12 @013   ----------------------------------------
 .byte   N92
 .byte   W96
@  #12 @014   ----------------------------------------
 .byte   W96
@  #12 @015   ----------------------------------------
 .byte   N92
 .byte   W96
@  #12 @016   ----------------------------------------
 .byte   W96
@  #12 @017   ----------------------------------------
Label_015F5B4A:
 .byte   N92 ,En1 ,v116
 .byte   W96
@  #12 @018   ----------------------------------------
 .byte   W96
@  #12 @019   ----------------------------------------
 .byte   N92
 .byte   W96
@  #12 @020   ----------------------------------------
 .byte   W96
@  #12 @021   ----------------------------------------
 .byte   N92
 .byte   W96
@  #12 @022   ----------------------------------------
 .byte   W96
@  #12 @023   ----------------------------------------
 .byte   N92
 .byte   W96
@  #12 @024   ----------------------------------------
 .byte   W96
@  #12 @025   ----------------------------------------
 .byte   N92
 .byte   W96
@  #12 @026   ----------------------------------------
 .byte   W96
@  #12 @027   ----------------------------------------
 .byte   N92
 .byte   W96
@  #12 @028   ----------------------------------------
 .byte   W96
@  #12 @029   ----------------------------------------
 .byte   N92
 .byte   W96
@  #12 @030   ----------------------------------------
 .byte   W96
@  #12 @031   ----------------------------------------
 .byte   N92
 .byte   W96
@  #12 @032   ----------------------------------------
 .byte   W96
@  #12 @033   ----------------------------------------
Label_015F5B64:
 .byte   N32 ,En1 ,v116
 .byte   W36
 .byte   N32
 .byte   W60
 .byte   PEND 
@  #12 @034   ----------------------------------------
Label_015F5B6B:
 .byte   W12
 .byte   N32 ,En1 ,v116
 .byte   W36
 .byte   N32
 .byte   W48
 .byte   PEND 
@  #12 @035   ----------------------------------------
 .byte   PATT
  .word Label_015F5B64
@  #12 @036   ----------------------------------------
Label_015F5B78:
 .byte   W12
 .byte   N11 ,En1 ,v116
 .byte   W12
 .byte   N32
 .byte   W36
 .byte   N22
 .byte   W24
 .byte   N05
 .byte   W06
 .byte   N05
 .byte   W06
 .byte   PEND 
@  #12 @037   ----------------------------------------
 .byte   PATT
  .word Label_015F5B64
@  #12 @038   ----------------------------------------
 .byte   PATT
  .word Label_015F5B6B
@  #12 @039   ----------------------------------------
 .byte   PATT
  .word Label_015F5B64
@  #12 @040   ----------------------------------------
 .byte   PATT
  .word Label_015F5B78
@  #12 @041   ----------------------------------------
 .byte   PATT
  .word Label_015F5B64
@  #12 @042   ----------------------------------------
 .byte   PATT
  .word Label_015F5B6B
@  #12 @043   ----------------------------------------
 .byte   PATT
  .word Label_015F5B64
@  #12 @044   ----------------------------------------
 .byte   PATT
  .word Label_015F5B78
@  #12 @045   ----------------------------------------
 .byte   PATT
  .word Label_015F5B64
@  #12 @046   ----------------------------------------
 .byte   PATT
  .word Label_015F5B6B
@  #12 @047   ----------------------------------------
 .byte   PATT
  .word Label_015F5B64
@  #12 @048   ----------------------------------------
 .byte   PATT
  .word Label_015F5B78
@  #12 @049   ----------------------------------------
 .byte   N92 ,En1 ,v116
 .byte   W96
@  #12 @050   ----------------------------------------
Label_015F5BC6:
 .byte   W60
 .byte   N11 ,En1 ,v104
 .byte   W12
 .byte   En1 ,v108
 .byte   W12
 .byte   En1 ,v112
 .byte   W12
 .byte   PEND 
@  #12 @051   ----------------------------------------
Label_015F5BD2:
 .byte   N68 ,En1 ,v116
 .byte   W72
 .byte   N22 ,Bn0
 .byte   W24
 .byte   PEND 
@  #12 @052   ----------------------------------------
Label_015F5BDA:
 .byte   W12
 .byte   N32 ,En1 ,v116
 .byte   W36
 .byte   N22 ,Bn0
 .byte   W24
 .byte   En1
 .byte   W24
 .byte   PEND 
@  #12 @053   ----------------------------------------
 .byte   N92 ,Bn0
 .byte   W96
@  #12 @054   ----------------------------------------
Label_015F5BE8:
 .byte   W60
 .byte   N11 ,Bn0 ,v104
 .byte   W12
 .byte   Bn0 ,v108
 .byte   W12
 .byte   Bn0 ,v112
 .byte   W12
 .byte   PEND 
@  #12 @055   ----------------------------------------
Label_015F5BF4:
 .byte   N68 ,Bn0 ,v112
 .byte   W72
 .byte   N22
 .byte   W24
 .byte   PEND 
@  #12 @056   ----------------------------------------
Label_015F5BFB:
 .byte   W12
 .byte   N32 ,En1 ,v112
 .byte   W36
 .byte   N22 ,Bn0
 .byte   W24
 .byte   En1
 .byte   W24
 .byte   PEND 
@  #12 @057   ----------------------------------------
 .byte   N92 ,En1 ,v116
 .byte   W96
@  #12 @058   ----------------------------------------
 .byte   PATT
  .word Label_015F5BC6
@  #12 @059   ----------------------------------------
 .byte   PATT
  .word Label_015F5BD2
@  #12 @060   ----------------------------------------
 .byte   PATT
  .word Label_015F5BDA
@  #12 @061   ----------------------------------------
 .byte   N92 ,Bn0 ,v116
 .byte   W96
@  #12 @062   ----------------------------------------
 .byte   PATT
  .word Label_015F5BE8
@  #12 @063   ----------------------------------------
 .byte   PATT
  .word Label_015F5BF4
@  #12 @064   ----------------------------------------
 .byte   PATT
  .word Label_015F5BFB
@  #12 @065   ----------------------------------------
Label_015F5C2C:
 .byte   N68 ,En1 ,v112
 .byte   W84
 .byte   N11
 .byte   W12
 .byte   PEND 
@  #12 @066   ----------------------------------------
 .byte   PATT
  .word Label_015F5C2C
@  #12 @067   ----------------------------------------
 .byte   PATT
  .word Label_015F5C2C
@  #12 @068   ----------------------------------------
 .byte   PATT
  .word Label_015F5C2C
@  #12 @069   ----------------------------------------
 .byte   PATT
  .word Label_015F5C2C
@  #12 @070   ----------------------------------------
 .byte   PATT
  .word Label_015F5C2C
@  #12 @071   ----------------------------------------
 .byte   PATT
  .word Label_015F5C2C
@  #12 @072   ----------------------------------------
 .byte   PATT
  .word Label_015F5C2C
@  #12 @073   ----------------------------------------
 .byte   PATT
  .word Label_015F5C2C
@  #12 @074   ----------------------------------------
 .byte   PATT
  .word Label_015F5C2C
@  #12 @075   ----------------------------------------
 .byte   PATT
  .word Label_015F5C2C
@  #12 @076   ----------------------------------------
 .byte   PATT
  .word Label_015F5C2C
@  #12 @077   ----------------------------------------
 .byte   PATT
  .word Label_015F5C2C
@  #12 @078   ----------------------------------------
 .byte   PATT
  .word Label_015F5C2C
@  #12 @079   ----------------------------------------
 .byte   PATT
  .word Label_015F5C2C
@  #12 @080   ----------------------------------------
 .byte   PATT
  .word Label_015F5C2C
@  #12 @081   ----------------------------------------
 .byte   PATT
  .word Label_015F5C2C
@  #12 @082   ----------------------------------------
 .byte   PATT
  .word Label_015F5C2C
@  #12 @083   ----------------------------------------
 .byte   PATT
  .word Label_015F5C2C
@  #12 @084   ----------------------------------------
 .byte   PATT
  .word Label_015F5C2C
@  #12 @085   ----------------------------------------
 .byte   PATT
  .word Label_015F5C2C
@  #12 @086   ----------------------------------------
 .byte   N68 ,En1 ,v112
 .byte   W84
 .byte   N05
 .byte   W06
 .byte   N05
 .byte   W06
@  #12 @087   ----------------------------------------
 .byte   N92 ,En1 ,v116
 .byte   W96
@  #12 @088   ----------------------------------------
 .byte   W96
@  #12 @089   ----------------------------------------
 .byte   N92
 .byte   W96
@  #12 @090   ----------------------------------------
 .byte   W96
@  #12 @091   ----------------------------------------
 .byte   N92
 .byte   W96
@  #12 @092   ----------------------------------------
 .byte   W96
@  #12 @093   ----------------------------------------
 .byte   N92
 .byte   W96
@  #12 @094   ----------------------------------------
 .byte   W96
@  #12 @095   ----------------------------------------
 .byte   GOTO
  .word Label_015F5B4A
 .byte   FINE

@**************** Track 13 (Midi-Chn.12) ****************@

song01_013:
@  #13 @000   ----------------------------------------
 .byte   KEYSH , song01_key+0
 .byte   VOICE , 124
 .byte   VOL , 40*song01_mvl/mxv
 .byte   PAN , c_v+0
 .byte   W48
 .byte   N02 ,Dn1 ,v036
 .byte   W03
 .byte   Dn1 ,v040
 .byte   W03
 .byte   N02
 .byte   W03
 .byte   Dn1 ,v044
 .byte   W03
 .byte   Dn1 ,v048
 .byte   W03
 .byte   Dn1 ,v052
 .byte   W03
 .byte   N02
 .byte   W03
 .byte   Dn1 ,v056
 .byte   W03
 .byte   Dn1 ,v060
 .byte   W03
 .byte   Dn1 ,v064
 .byte   W03
 .byte   Dn1 ,v068
 .byte   W03
 .byte   N02
 .byte   W03
 .byte   Dn1 ,v072
 .byte   W03
 .byte   Dn1 ,v076
 .byte   W03
 .byte   Dn1 ,v080
 .byte   W03
 .byte   N02
 .byte   W03
@  #13 @001   ----------------------------------------
 .byte   W96
@  #13 @002   ----------------------------------------
 .byte   W96
@  #13 @003   ----------------------------------------
 .byte   N22 ,An2 ,v116
 .byte   W96
@  #13 @004   ----------------------------------------
 .byte   W96
@  #13 @005   ----------------------------------------
 .byte   N22
 .byte   W96
@  #13 @006   ----------------------------------------
 .byte   W96
@  #13 @007   ----------------------------------------
 .byte   N22
 .byte   W96
@  #13 @008   ----------------------------------------
 .byte   W96
@  #13 @009   ----------------------------------------
Label_015FA5A7:
 .byte   N11 ,Cn1 ,v060
 .byte   N22 ,Bn2 ,v116
 .byte   W12
 .byte   N32 ,Cn1 ,v060
 .byte   W12
 .byte   N11 ,Dn1
 .byte   W12
 .byte   N22 ,Dn1 ,v056
 .byte   W12
 .byte   N11 ,Cn1 ,v060
 .byte   N32 ,Fs2 ,v064
 .byte   W12
 .byte   Cn1 ,v060
 .byte   N11 ,Dn1 ,v048
 .byte   W12
 .byte   Dn1 ,v052
 .byte   W12
 .byte   Dn1 ,v056
 .byte   N32 ,Fs2 ,v072
 .byte   W12
 .byte   PEND 
@  #13 @010   ----------------------------------------
Label_015FA5D0:
 .byte   N11 ,Cn1 ,v056
 .byte   N11 ,Dn1 ,v052
 .byte   W12
 .byte   N32 ,Cn1 ,v056
 .byte   W12
 .byte   N11 ,Dn1 ,v048
 .byte   N32 ,Fs2 ,v068
 .byte   W12
 .byte   N22 ,Dn1 ,v060
 .byte   W12
 .byte   N11 ,Cn1
 .byte   W12
 .byte   N32
 .byte   N11 ,Dn1 ,v048
 .byte   W12
 .byte   Dn1 ,v052
 .byte   W12
 .byte   N05 ,Dn1 ,v048
 .byte   W06
 .byte   Dn1 ,v052
 .byte   W06
 .byte   PEND 
@  #13 @011   ----------------------------------------
Label_015FA5F9:
 .byte   N11 ,Cn1 ,v060
 .byte   N22 ,Bn2 ,v112
 .byte   W12
 .byte   N32 ,Cn1 ,v060
 .byte   W12
 .byte   N11 ,Dn1
 .byte   W12
 .byte   N22 ,Dn1 ,v056
 .byte   W12
 .byte   N11 ,Cn1 ,v060
 .byte   N32 ,Fs2 ,v064
 .byte   W12
 .byte   Cn1 ,v060
 .byte   N11 ,Dn1 ,v048
 .byte   W12
 .byte   Dn1 ,v052
 .byte   W12
 .byte   Dn1 ,v056
 .byte   N32 ,Fs2 ,v072
 .byte   W12
 .byte   PEND 
@  #13 @012   ----------------------------------------
Label_015FA622:
 .byte   N11 ,Cn1 ,v056
 .byte   N22 ,Dn1 ,v052
 .byte   W12
 .byte   N32 ,Cn1 ,v056
 .byte   W12
 .byte   N11 ,Dn1
 .byte   N32 ,Fs2 ,v068
 .byte   W12
 .byte   N22 ,Dn1 ,v060
 .byte   W12
 .byte   N11 ,Cn1
 .byte   W12
 .byte   N32
 .byte   N11 ,Dn1 ,v048
 .byte   W12
 .byte   Dn1 ,v052
 .byte   W12
 .byte   N05 ,Dn1 ,v048
 .byte   W06
 .byte   Dn1 ,v052
 .byte   W06
 .byte   PEND 
@  #13 @013   ----------------------------------------
Label_015FA64A:
 .byte   N11 ,Cn1 ,v060
 .byte   N22 ,Bn2 ,v112
 .byte   W12
 .byte   N32 ,Cn1 ,v060
 .byte   W12
 .byte   N11 ,Dn1 ,v052
 .byte   W12
 .byte   N22 ,Dn1 ,v056
 .byte   W12
 .byte   N11 ,Cn1 ,v060
 .byte   N12 ,Fs2 ,v064
 .byte   W12
 .byte   N32 ,Cn1 ,v060
 .byte   N11 ,Dn1 ,v052
 .byte   W12
 .byte   N22 ,Dn1 ,v056
 .byte   W12
 .byte   N32 ,Fs2 ,v072
 .byte   W12
 .byte   PEND 
@  #13 @014   ----------------------------------------
Label_015FA674:
 .byte   N11 ,Cn1 ,v056
 .byte   N11 ,Dn1 ,v052
 .byte   W12
 .byte   N32 ,Cn1 ,v056
 .byte   N22 ,Dn1
 .byte   W12
 .byte   N32 ,Fs2 ,v068
 .byte   W12
 .byte   N11 ,Dn1 ,v052
 .byte   W12
 .byte   Cn1 ,v060
 .byte   N22 ,Dn1 ,v056
 .byte   W12
 .byte   N32 ,Cn1 ,v060
 .byte   W12
 .byte   N11 ,Dn1 ,v052
 .byte   W12
 .byte   N05
 .byte   W06
 .byte   Dn1 ,v056
 .byte   W06
 .byte   PEND 
@  #13 @015   ----------------------------------------
Label_015FA69D:
 .byte   N11 ,Cn1 ,v060
 .byte   N22 ,Bn2 ,v112
 .byte   W12
 .byte   N32 ,Cn1 ,v060
 .byte   W12
 .byte   N11 ,Dn1 ,v052
 .byte   W12
 .byte   N22 ,Dn1 ,v056
 .byte   W12
 .byte   N11 ,Cn1 ,v060
 .byte   N32 ,Fs2 ,v064
 .byte   W12
 .byte   Cn1 ,v060
 .byte   N11 ,Dn1 ,v052
 .byte   W12
 .byte   N22 ,Dn1 ,v056
 .byte   W12
 .byte   N32 ,Fs2 ,v072
 .byte   W12
 .byte   PEND 
@  #13 @016   ----------------------------------------
 .byte   PATT
  .word Label_015FA674
@  #13 @017   ----------------------------------------
Label_015FA6CB:
@  #13 @018   ----------------------------------------
 .byte   PATT
  .word Label_015FA69D
@  #13 @019   ----------------------------------------
 .byte   PATT
  .word Label_015FA674
@  #13 @020   ----------------------------------------
 .byte   PATT
  .word Label_015FA69D
@  #13 @021   ----------------------------------------
 .byte   PATT
  .word Label_015FA674
@  #13 @022   ----------------------------------------
 .byte   PATT
  .word Label_015FA64A
@  #13 @023   ----------------------------------------
 .byte   PATT
  .word Label_015FA674
@  #13 @024   ----------------------------------------
 .byte   PATT
  .word Label_015FA69D
@  #13 @025   ----------------------------------------
 .byte   PATT
  .word Label_015FA674
@  #13 @026   ----------------------------------------
 .byte   PATT
  .word Label_015FA69D
@  #13 @027   ----------------------------------------
 .byte   PATT
  .word Label_015FA674
@  #13 @028   ----------------------------------------
 .byte   PATT
  .word Label_015FA69D
@  #13 @029   ----------------------------------------
 .byte   PATT
  .word Label_015FA674
@  #13 @030   ----------------------------------------
 .byte   PATT
  .word Label_015FA69D
@  #13 @031   ----------------------------------------
 .byte   PATT
  .word Label_015FA674
@  #13 @032   ----------------------------------------
 .byte   PATT
  .word Label_015FA69D
@  #13 @033   ----------------------------------------
 .byte   PATT
  .word Label_015FA674
@  #13 @034   ----------------------------------------
Label_015FA71B:
 .byte   N11 ,Cn1 ,v060
 .byte   N22 ,Bn2 ,v112
 .byte   W12
 .byte   N32 ,Cn1 ,v060
 .byte   N22 ,Dn1 ,v052
 .byte   W24
 .byte   N11 ,Dn1 ,v056
 .byte   W12
 .byte   Cn1 ,v060
 .byte   N22 ,Dn1 ,v052
 .byte   N32 ,Fs2 ,v064
 .byte   W12
 .byte   Cn1 ,v060
 .byte   W12
 .byte   N11 ,Dn1 ,v056
 .byte   W12
 .byte   Dn1 ,v052
 .byte   N32 ,Fs2 ,v072
 .byte   W12
 .byte   PEND 
@  #13 @035   ----------------------------------------
Label_015FA744:
 .byte   N11 ,Cn1 ,v056
 .byte   W12
 .byte   N32
 .byte   N05 ,Dn1 ,v052
 .byte   W06
 .byte   Dn1 ,v056
 .byte   W06
 .byte   N11
 .byte   N32 ,Fs2 ,v068
 .byte   W12
 .byte   N11 ,Dn1 ,v052
 .byte   W12
 .byte   Cn1 ,v060
 .byte   N11 ,Dn1 ,v056
 .byte   W12
 .byte   N32 ,Cn1 ,v060
 .byte   N22 ,Dn1 ,v056
 .byte   W24
 .byte   N05 ,Dn1 ,v052
 .byte   W06
 .byte   Dn1 ,v056
 .byte   W06
 .byte   PEND 
@  #13 @036   ----------------------------------------
 .byte   PATT
  .word Label_015FA71B
@  #13 @037   ----------------------------------------
 .byte   N11 ,Cn1 ,v056
 .byte   W12
 .byte   N32
 .byte   N05 ,Dn1 ,v052
 .byte   W06
 .byte   Dn1 ,v056
 .byte   W06
 .byte   N11
 .byte   N32 ,Fs2 ,v068
 .byte   W12
 .byte   N11 ,Dn1 ,v052
 .byte   W12
 .byte   Cn1 ,v060
 .byte   N11 ,Dn1 ,v056
 .byte   W12
 .byte   N32 ,Cn1 ,v060
 .byte   N22 ,Dn1 ,v056
 .byte   W24
 .byte   N05 ,Dn1 ,v052
 .byte   W06
 .byte   Dn1 ,v056
 .byte   W06
@  #13 @038   ----------------------------------------
 .byte   PATT
  .word Label_015FA71B
@  #13 @039   ----------------------------------------
 .byte   PATT
  .word Label_015FA744
@  #13 @040   ----------------------------------------
 .byte   PATT
  .word Label_015FA71B
@  #13 @041   ----------------------------------------
 .byte   N11 ,Cn1 ,v060
 .byte   W12
 .byte   N11
 .byte   N05 ,Dn1 ,v052
 .byte   W06
 .byte   Dn1 ,v056
 .byte   W06
 .byte   N11
 .byte   N32 ,Fs2 ,v068
 .byte   W12
 .byte   N11 ,Dn1 ,v052
 .byte   W12
 .byte   Cn1 ,v060
 .byte   N11 ,Dn1 ,v056
 .byte   W12
 .byte   N32 ,Cn1 ,v060
 .byte   N22 ,Dn1 ,v056
 .byte   W24
 .byte   N05 ,Dn1 ,v052
 .byte   W06
 .byte   Dn1 ,v056
 .byte   W06
@  #13 @042   ----------------------------------------
 .byte   PATT
  .word Label_015FA71B
@  #13 @043   ----------------------------------------
 .byte   PATT
  .word Label_015FA744
@  #13 @044   ----------------------------------------
 .byte   PATT
  .word Label_015FA71B
@  #13 @045   ----------------------------------------
Label_015FA7E3:
 .byte   N11 ,Cn1 ,v060
 .byte   W12
 .byte   N32
 .byte   N05 ,Dn1 ,v052
 .byte   W06
 .byte   Dn1 ,v056
 .byte   W06
 .byte   N11
 .byte   N32 ,Fs2 ,v068
 .byte   W12
 .byte   N11 ,Dn1 ,v052
 .byte   W12
 .byte   Cn1 ,v060
 .byte   N11 ,Dn1 ,v056
 .byte   W12
 .byte   N32 ,Cn1 ,v060
 .byte   N22 ,Dn1 ,v056
 .byte   W24
 .byte   N05 ,Dn1 ,v052
 .byte   W06
 .byte   Dn1 ,v056
 .byte   W06
 .byte   PEND 
@  #13 @046   ----------------------------------------
 .byte   PATT
  .word Label_015FA71B
@  #13 @047   ----------------------------------------
 .byte   PATT
  .word Label_015FA744
@  #13 @048   ----------------------------------------
 .byte   PATT
  .word Label_015FA71B
@  #13 @049   ----------------------------------------
 .byte   PATT
  .word Label_015FA7E3
@  #13 @050   ----------------------------------------
Label_015FA821:
 .byte   N11 ,Cn1 ,v060
 .byte   N22 ,Bn2 ,v112
 .byte   W12
 .byte   N32 ,Cn1 ,v060
 .byte   W12
 .byte   N22 ,Dn1 ,v052
 .byte   W24
 .byte   N11 ,Cn1 ,v060
 .byte   N11 ,Dn1 ,v056
 .byte   N32 ,Fs2 ,v064
 .byte   W12
 .byte   Cn1 ,v060
 .byte   N11 ,Dn1 ,v052
 .byte   W12
 .byte   Dn1 ,v056
 .byte   W12
 .byte   N05
 .byte   N32 ,Fs2 ,v072
 .byte   W06
 .byte   N05 ,Dn1 ,v056
 .byte   W06
 .byte   PEND 
@  #13 @051   ----------------------------------------
Label_015FA84D:
 .byte   N11 ,Cn1 ,v056
 .byte   N22 ,Dn1
 .byte   W12
 .byte   N32 ,Cn1
 .byte   W12
 .byte   Fs2 ,v068
 .byte   W12
 .byte   N22 ,Dn1 ,v056
 .byte   W12
 .byte   N11 ,Cn1 ,v060
 .byte   W12
 .byte   N32
 .byte   N11 ,Dn1 ,v056
 .byte   W12
 .byte   Dn1 ,v052
 .byte   W12
 .byte   Dn1 ,v056
 .byte   W12
 .byte   PEND 
@  #13 @052   ----------------------------------------
Label_015FA86D:
 .byte   N11 ,Cn1 ,v060
 .byte   N22 ,Bn2 ,v112
 .byte   W12
 .byte   N32 ,Cn1 ,v060
 .byte   W12
 .byte   N22 ,Dn1 ,v052
 .byte   W24
 .byte   N11 ,Cn1 ,v060
 .byte   N11 ,Dn1 ,v056
 .byte   N32 ,Fs2 ,v064
 .byte   W12
 .byte   Cn1 ,v060
 .byte   N22 ,Dn1 ,v052
 .byte   W24
 .byte   N05 ,Dn1 ,v056
 .byte   N32 ,Fs2 ,v072
 .byte   W06
 .byte   N05 ,Dn1 ,v056
 .byte   W06
 .byte   PEND 
@  #13 @053   ----------------------------------------
Label_015FA898:
 .byte   N11 ,Cn1 ,v056
 .byte   N22 ,Dn1
 .byte   W12
 .byte   N32 ,Cn1
 .byte   W12
 .byte   Fs2 ,v068
 .byte   W12
 .byte   N22 ,Dn1 ,v056
 .byte   W12
 .byte   N11 ,Cn1 ,v060
 .byte   W12
 .byte   N32
 .byte   N11 ,Dn1 ,v056
 .byte   W12
 .byte   N11
 .byte   W12
 .byte   N05 ,Dn1 ,v052
 .byte   W06
 .byte   Dn1 ,v056
 .byte   W06
 .byte   PEND 
@  #13 @054   ----------------------------------------
 .byte   PATT
  .word Label_015FA821
@  #13 @055   ----------------------------------------
 .byte   PATT
  .word Label_015FA84D
@  #13 @056   ----------------------------------------
 .byte   PATT
  .word Label_015FA86D
@  #13 @057   ----------------------------------------
 .byte   PATT
  .word Label_015FA898
@  #13 @058   ----------------------------------------
 .byte   PATT
  .word Label_015FA821
@  #13 @059   ----------------------------------------
 .byte   PATT
  .word Label_015FA84D
@  #13 @060   ----------------------------------------
 .byte   PATT
  .word Label_015FA86D
@  #13 @061   ----------------------------------------
 .byte   PATT
  .word Label_015FA898
@  #13 @062   ----------------------------------------
 .byte   PATT
  .word Label_015FA821
@  #13 @063   ----------------------------------------
 .byte   PATT
  .word Label_015FA84D
@  #13 @064   ----------------------------------------
 .byte   PATT
  .word Label_015FA86D
@  #13 @065   ----------------------------------------
 .byte   PATT
  .word Label_015FA898
@  #13 @066   ----------------------------------------
 .byte   N22 ,Bn2 ,v112
 .byte   W96
@  #13 @067   ----------------------------------------
 .byte   W96
@  #13 @068   ----------------------------------------
 .byte   W96
@  #13 @069   ----------------------------------------
 .byte   W96
@  #13 @070   ----------------------------------------
 .byte   W96
@  #13 @071   ----------------------------------------
 .byte   W96
@  #13 @072   ----------------------------------------
 .byte   W96
@  #13 @073   ----------------------------------------
 .byte   W48
 .byte   N02 ,An2 ,v040
 .byte   W03
 .byte   An2 ,v044
 .byte   W03
 .byte   An2 ,v048
 .byte   W03
 .byte   An2 ,v052
 .byte   W03
 .byte   N02
 .byte   W03
 .byte   An2 ,v056
 .byte   W03
 .byte   An2 ,v060
 .byte   W03
 .byte   An2 ,v064
 .byte   W03
 .byte   An2 ,v068
 .byte   W03
 .byte   N02
 .byte   W03
 .byte   An2 ,v072
 .byte   W03
 .byte   An2 ,v076
 .byte   W03
 .byte   An2 ,v080
 .byte   W03
 .byte   N02
 .byte   W03
 .byte   An2 ,v084
 .byte   W03
 .byte   An2 ,v088
 .byte   W03
@  #13 @074   ----------------------------------------
Label_015FA930:
 .byte   N11 ,Cn1 ,v060
 .byte   W12
 .byte   N32
 .byte   W36
 .byte   N11
 .byte   W12
 .byte   N32
 .byte   W36
 .byte   PEND 
@  #13 @075   ----------------------------------------
Label_015FA93B:
 .byte   N11 ,Cn1 ,v056
 .byte   W12
 .byte   N32
 .byte   W36
 .byte   N11 ,Cn1 ,v060
 .byte   W12
 .byte   N32
 .byte   W36
 .byte   PEND 
@  #13 @076   ----------------------------------------
 .byte   PATT
  .word Label_015FA930
@  #13 @077   ----------------------------------------
 .byte   PATT
  .word Label_015FA93B
@  #13 @078   ----------------------------------------
 .byte   PATT
  .word Label_015FA930
@  #13 @079   ----------------------------------------
 .byte   PATT
  .word Label_015FA93B
@  #13 @080   ----------------------------------------
 .byte   PATT
  .word Label_015FA930
@  #13 @081   ----------------------------------------
 .byte   PATT
  .word Label_015FA93B
@  #13 @082   ----------------------------------------
 .byte   PATT
  .word Label_015FA930
@  #13 @083   ----------------------------------------
 .byte   PATT
  .word Label_015FA93B
@  #13 @084   ----------------------------------------
 .byte   PATT
  .word Label_015FA930
@  #13 @085   ----------------------------------------
 .byte   PATT
  .word Label_015FA93B
@  #13 @086   ----------------------------------------
 .byte   PATT
  .word Label_015FA930
@  #13 @087   ----------------------------------------
 .byte   N11 ,Cn1 ,v056
 .byte   W12
 .byte   N32
 .byte   W36
 .byte   N11 ,Cn1 ,v060
 .byte   N02 ,An2 ,v040
 .byte   W03
 .byte   An2 ,v044
 .byte   W03
 .byte   An2 ,v048
 .byte   W03
 .byte   An2 ,v052
 .byte   W03
 .byte   N32 ,Cn1 ,v060
 .byte   N02 ,An2 ,v052
 .byte   W03
 .byte   An2 ,v056
 .byte   W03
 .byte   An2 ,v060
 .byte   W03
 .byte   An2 ,v064
 .byte   W03
 .byte   An2 ,v068
 .byte   W03
 .byte   N02
 .byte   W03
 .byte   An2 ,v072
 .byte   W03
 .byte   An2 ,v076
 .byte   W03
 .byte   An2 ,v080
 .byte   W03
 .byte   N02
 .byte   W03
 .byte   An2 ,v084
 .byte   W03
 .byte   An2 ,v088
 .byte   W03
@  #13 @088   ----------------------------------------
 .byte   PATT
  .word Label_015FA5A7
@  #13 @089   ----------------------------------------
 .byte   PATT
  .word Label_015FA5D0
@  #13 @090   ----------------------------------------
 .byte   PATT
  .word Label_015FA5F9
@  #13 @091   ----------------------------------------
 .byte   PATT
  .word Label_015FA622
@  #13 @092   ----------------------------------------
 .byte   PATT
  .word Label_015FA64A
@  #13 @093   ----------------------------------------
 .byte   PATT
  .word Label_015FA674
@  #13 @094   ----------------------------------------
 .byte   PATT
  .word Label_015FA69D
@  #13 @095   ----------------------------------------
 .byte   PATT
  .word Label_015FA674
@  #13 @096   ----------------------------------------
 .byte   GOTO
  .word Label_015FA6CB
 .byte   FINE

@**************** Track 14 (Midi-Chn.13) ****************@

song01_014:
@  #14 @000   ----------------------------------------
 .byte   KEYSH , song01_key+0
 .byte   VOICE , 1
 .byte   VOL , 26*song01_mvl/mxv
 .byte   W01
 .byte   W01
 .byte   PAN , c_v+0
 .byte   W03
 .byte   W02
 .byte   W01
 .byte   W01
 .byte   W01
 .byte   W84
 .byte   W02
@  #14 @001   ----------------------------------------
 .byte   W96
@  #14 @002   ----------------------------------------
 .byte   W96
@  #14 @003   ----------------------------------------
 .byte   W96
@  #14 @004   ----------------------------------------
 .byte   W96
@  #14 @005   ----------------------------------------
 .byte   W96
@  #14 @006   ----------------------------------------
 .byte   W96
@  #14 @007   ----------------------------------------
 .byte   W96
@  #14 @008   ----------------------------------------
 .byte   W96
@  #14 @009   ----------------------------------------
 .byte   W96
@  #14 @010   ----------------------------------------
Label_015FAA06:
 .byte   N11 ,Gs3 ,v064
 .byte   W12
 .byte   N11
 .byte   W12
 .byte   N11
 .byte   W12
 .byte   N56 ,Fs1 ,v108
 .byte   N11 ,Gs3 ,v064
 .byte   W12
 .byte   An3
 .byte   W12
 .byte   Gs3
 .byte   W12
 .byte   N11
 .byte   W12
 .byte   N11
 .byte   W12
 .byte   PEND 
@  #14 @011   ----------------------------------------
Label_015FAA1E:
 .byte   N11 ,Gs3 ,v064
 .byte   W12
 .byte   N11
 .byte   W12
 .byte   An3 ,v060
 .byte   W12
 .byte   Gs3 ,v064
 .byte   W12
 .byte   N11
 .byte   W12
 .byte   An3 ,v060
 .byte   W12
 .byte   Gs3 ,v064
 .byte   W12
 .byte   Gs3 ,v060
 .byte   W12
 .byte   PEND 
@  #14 @012   ----------------------------------------
Label_015FAA36:
 .byte   N11 ,Gs3 ,v064
 .byte   W12
 .byte   N11
 .byte   W12
 .byte   N11
 .byte   W12
 .byte   N56 ,Fs1 ,v108
 .byte   N11 ,Gs3 ,v064
 .byte   W12
 .byte   An3
 .byte   W12
 .byte   Gs3
 .byte   W12
 .byte   N11
 .byte   W12
 .byte   N11
 .byte   W12
 .byte   PEND 
@  #14 @013   ----------------------------------------
 .byte   PATT
  .word Label_015FAA1E
@  #14 @014   ----------------------------------------
Label_015FAA53:
 .byte   N11 ,Gs3 ,v064
 .byte   W12
 .byte   N11
 .byte   W12
 .byte   N11
 .byte   W12
 .byte   N56 ,Fs1 ,v108
 .byte   N11 ,Gs3 ,v064
 .byte   W24
 .byte   N11
 .byte   W12
 .byte   N11
 .byte   W12
 .byte   N11
 .byte   W12
 .byte   PEND 
@  #14 @015   ----------------------------------------
 .byte   PATT
  .word Label_015FAA1E
@  #14 @016   ----------------------------------------
Label_015FAA6E:
 .byte   N11 ,Gs3 ,v064
 .byte   W12
 .byte   N11
 .byte   W12
 .byte   N11
 .byte   W12
 .byte   N56 ,Fs1 ,v108
 .byte   N11 ,Gs3 ,v064
 .byte   W24
 .byte   N11
 .byte   W12
 .byte   N11
 .byte   W12
 .byte   N11
 .byte   W12
 .byte   PEND 
@  #14 @017   ----------------------------------------
Label_015FAA84:
@  #14 @018   ----------------------------------------
 .byte   PATT
  .word Label_015FAA1E
@  #14 @019   ----------------------------------------
Label_015FAA89:
 .byte   N11 ,Gs3 ,v064
 .byte   W12
 .byte   N11
 .byte   W12
 .byte   N11
 .byte   W12
 .byte   N56 ,Fs1 ,v108
 .byte   N11 ,Gs3 ,v064
 .byte   W24
 .byte   N11
 .byte   W12
 .byte   N11
 .byte   W12
 .byte   N11
 .byte   W12
 .byte   PEND 
@  #14 @020   ----------------------------------------
 .byte   PATT
  .word Label_015FAA1E
@  #14 @021   ----------------------------------------
 .byte   PATT
  .word Label_015FAA6E
@  #14 @022   ----------------------------------------
 .byte   PATT
  .word Label_015FAA1E
@  #14 @023   ----------------------------------------
 .byte   PATT
  .word Label_015FAA53
@  #14 @024   ----------------------------------------
 .byte   PATT
  .word Label_015FAA1E
@  #14 @025   ----------------------------------------
 .byte   PATT
  .word Label_015FAA6E
@  #14 @026   ----------------------------------------
 .byte   PATT
  .word Label_015FAA1E
@  #14 @027   ----------------------------------------
 .byte   PATT
  .word Label_015FAA89
@  #14 @028   ----------------------------------------
 .byte   PATT
  .word Label_015FAA1E
@  #14 @029   ----------------------------------------
 .byte   PATT
  .word Label_015FAA6E
@  #14 @030   ----------------------------------------
 .byte   PATT
  .word Label_015FAA1E
@  #14 @031   ----------------------------------------
 .byte   PATT
  .word Label_015FAA53
@  #14 @032   ----------------------------------------
 .byte   PATT
  .word Label_015FAA1E
@  #14 @033   ----------------------------------------
 .byte   PATT
  .word Label_015FAA6E
@  #14 @034   ----------------------------------------
 .byte   PATT
  .word Label_015FAA1E
@  #14 @035   ----------------------------------------
 .byte   PATT
  .word Label_015FAA89
@  #14 @036   ----------------------------------------
 .byte   PATT
  .word Label_015FAA1E
@  #14 @037   ----------------------------------------
 .byte   PATT
  .word Label_015FAA6E
@  #14 @038   ----------------------------------------
 .byte   PATT
  .word Label_015FAA1E
@  #14 @039   ----------------------------------------
 .byte   PATT
  .word Label_015FAA53
@  #14 @040   ----------------------------------------
 .byte   PATT
  .word Label_015FAA1E
@  #14 @041   ----------------------------------------
 .byte   PATT
  .word Label_015FAA6E
@  #14 @042   ----------------------------------------
 .byte   PATT
  .word Label_015FAA1E
@  #14 @043   ----------------------------------------
 .byte   PATT
  .word Label_015FAA89
@  #14 @044   ----------------------------------------
 .byte   PATT
  .word Label_015FAA1E
@  #14 @045   ----------------------------------------
 .byte   PATT
  .word Label_015FAA6E
@  #14 @046   ----------------------------------------
 .byte   PATT
  .word Label_015FAA1E
@  #14 @047   ----------------------------------------
 .byte   PATT
  .word Label_015FAA53
@  #14 @048   ----------------------------------------
 .byte   PATT
  .word Label_015FAA1E
@  #14 @049   ----------------------------------------
 .byte   PATT
  .word Label_015FAA6E
@  #14 @050   ----------------------------------------
 .byte   PATT
  .word Label_015FAA1E
@  #14 @051   ----------------------------------------
 .byte   PATT
  .word Label_015FAA89
@  #14 @052   ----------------------------------------
 .byte   PATT
  .word Label_015FAA1E
@  #14 @053   ----------------------------------------
 .byte   PATT
  .word Label_015FAA6E
@  #14 @054   ----------------------------------------
 .byte   PATT
  .word Label_015FAA1E
@  #14 @055   ----------------------------------------
 .byte   PATT
  .word Label_015FAA53
@  #14 @056   ----------------------------------------
 .byte   PATT
  .word Label_015FAA1E
@  #14 @057   ----------------------------------------
 .byte   PATT
  .word Label_015FAA6E
@  #14 @058   ----------------------------------------
 .byte   PATT
  .word Label_015FAA1E
@  #14 @059   ----------------------------------------
 .byte   PATT
  .word Label_015FAA89
@  #14 @060   ----------------------------------------
 .byte   PATT
  .word Label_015FAA1E
@  #14 @061   ----------------------------------------
 .byte   PATT
  .word Label_015FAA6E
@  #14 @062   ----------------------------------------
 .byte   PATT
  .word Label_015FAA1E
@  #14 @063   ----------------------------------------
 .byte   PATT
  .word Label_015FAA53
@  #14 @064   ----------------------------------------
 .byte   PATT
  .word Label_015FAA1E
@  #14 @065   ----------------------------------------
 .byte   PATT
  .word Label_015FAA6E
@  #14 @066   ----------------------------------------
 .byte   PATT
  .word Label_015FAA1E
@  #14 @067   ----------------------------------------
 .byte   W36
 .byte   N56 ,Fs1 ,v112
 .byte   W60
@  #14 @068   ----------------------------------------
 .byte   W96
@  #14 @069   ----------------------------------------
 .byte   W96
@  #14 @070   ----------------------------------------
 .byte   W96
@  #14 @071   ----------------------------------------
 .byte   W96
@  #14 @072   ----------------------------------------
 .byte   W96
@  #14 @073   ----------------------------------------
 .byte   W96
@  #14 @074   ----------------------------------------
 .byte   W96
@  #14 @075   ----------------------------------------
Label_015FAB96:
 .byte   N11 ,Gs3 ,v076
 .byte   W12
 .byte   N11
 .byte   W12
 .byte   N11
 .byte   W12
 .byte   N56 ,Fs1 ,v100
 .byte   N11 ,Gs3 ,v072
 .byte   W12
 .byte   An3 ,v076
 .byte   W12
 .byte   Gs3
 .byte   W12
 .byte   Gs3 ,v072
 .byte   W12
 .byte   Gs3 ,v076
 .byte   W12
 .byte   PEND 
@  #14 @076   ----------------------------------------
Label_015FABB1:
 .byte   N11 ,Gs3 ,v072
 .byte   W12
 .byte   Gs3 ,v076
 .byte   W12
 .byte   An3
 .byte   W12
 .byte   Gs3 ,v072
 .byte   W12
 .byte   Gs3 ,v076
 .byte   W12
 .byte   An3 ,v072
 .byte   W12
 .byte   Gs3
 .byte   W12
 .byte   Gs3 ,v076
 .byte   W12
 .byte   PEND 
@  #14 @077   ----------------------------------------
 .byte   PATT
  .word Label_015FAB96
@  #14 @078   ----------------------------------------
 .byte   PATT
  .word Label_015FABB1
@  #14 @079   ----------------------------------------
 .byte   PATT
  .word Label_015FAB96
@  #14 @080   ----------------------------------------
 .byte   PATT
  .word Label_015FABB1
@  #14 @081   ----------------------------------------
 .byte   PATT
  .word Label_015FAB96
@  #14 @082   ----------------------------------------
 .byte   PATT
  .word Label_015FABB1
@  #14 @083   ----------------------------------------
 .byte   PATT
  .word Label_015FAB96
@  #14 @084   ----------------------------------------
 .byte   PATT
  .word Label_015FABB1
@  #14 @085   ----------------------------------------
 .byte   PATT
  .word Label_015FAB96
@  #14 @086   ----------------------------------------
 .byte   PATT
  .word Label_015FABB1
@  #14 @087   ----------------------------------------
 .byte   PATT
  .word Label_015FAB96
@  #14 @088   ----------------------------------------
 .byte   PATT
  .word Label_015FABB1
@  #14 @089   ----------------------------------------
 .byte   PATT
  .word Label_015FAA06
@  #14 @090   ----------------------------------------
 .byte   PATT
  .word Label_015FAA1E
@  #14 @091   ----------------------------------------
 .byte   PATT
  .word Label_015FAA36
@  #14 @092   ----------------------------------------
 .byte   PATT
  .word Label_015FAA1E
@  #14 @093   ----------------------------------------
 .byte   PATT
  .word Label_015FAA53
@  #14 @094   ----------------------------------------
 .byte   PATT
  .word Label_015FAA1E
@  #14 @095   ----------------------------------------
 .byte   PATT
  .word Label_015FAA6E
@  #14 @096   ----------------------------------------
 .byte   GOTO
  .word Label_015FAA84
 .byte   FINE

@******************************************************@
	.align	2

song01:
	.byte	14	@ NumTrks
	.byte	0	@ NumBlks
	.byte	song01_pri	@ Priority
	.byte	song01_rev	@ Reverb.
    
	.word	song01_grp
    
	.word	song01_001
	.word	song01_002
	.word	song01_003
	.word	song01_004
	.word	song01_005
	.word	song01_006
	.word	song01_007
	.word	song01_008
	.word	song01_009
	.word	song01_010
	.word	song01_011
	.word	song01_012
	.word	song01_013
	.word	song01_014

	.end
