	.include "MPlayDef.s"

	.equ	song01_grp, voicegroup000
	.equ	song01_pri, 0
	.equ	song01_rev, 0
	.equ	song01_mvl, 127
	.equ	song01_key, 0
	.equ	song01_tbs, 1
	.equ	song01_exg, 0
	.equ	song01_cmp, 1

	.section .rodata
	.global	song01
	.align	2


@**************** Track 1 (Midi-Chn.0) ****************@

song01_001:
@  #01 @000   ----------------------------------------
 .byte   KEYSH , song01_key+0
 .byte   TEMPO , 136*song01_tbs/2
 .byte   VOICE , 40
 .byte   PAN , c_v+0
 .byte   VOL , 50*song01_mvl/mxv
 .byte   W96
@  #01 @001   ----------------------------------------
 .byte   W96
@  #01 @002   ----------------------------------------
 .byte   W96
@  #01 @003   ----------------------------------------
 .byte   W96
@  #01 @004   ----------------------------------------
 .byte   W96
@  #01 @005   ----------------------------------------
 .byte   W96
@  #01 @006   ----------------------------------------
 .byte   W96
@  #01 @007   ----------------------------------------
 .byte   W96
@  #01 @008   ----------------------------------------
Label_01047C12:
 .byte   W96
@  #01 @009   ----------------------------------------
 .byte   W96
@  #01 @010   ----------------------------------------
 .byte   W96
@  #01 @011   ----------------------------------------
 .byte   W96
@  #01 @012   ----------------------------------------
 .byte   N44 ,Cn3 ,v084
 .byte   W48
 .byte   N07 ,Fn2
 .byte   W08
 .byte   Gs2
 .byte   W08
 .byte   Cn3
 .byte   W08
 .byte   Ds3
 .byte   W08
 .byte   Cn3
 .byte   W08
 .byte   Gs2
 .byte   W08
@  #01 @013   ----------------------------------------
 .byte   N23 ,Cs3
 .byte   W24
 .byte   N07 ,Fn2
 .byte   W08
 .byte   Gs2
 .byte   W08
 .byte   Cs3
 .byte   W08
 .byte   N23 ,Ds3
 .byte   W24
 .byte   N07 ,Fn2
 .byte   W08
 .byte   Cn3
 .byte   W08
 .byte   Ds3
 .byte   W08
@  #01 @014   ----------------------------------------
 .byte   N78 ,Fn3
 .byte   W80
 .byte   N07 ,Fs3
 .byte   W08
 .byte   Fn3
 .byte   W08
@  #01 @015   ----------------------------------------
 .byte   N92 ,Ds3
 .byte   W96
@  #01 @016   ----------------------------------------
 .byte   N30
 .byte   W32
 .byte   N07 ,Fn3
 .byte   W08
 .byte   Ds3
 .byte   W08
 .byte   N44 ,Cs3
 .byte   W48
@  #01 @017   ----------------------------------------
 .byte   N30 ,Cn3
 .byte   W32
 .byte   N07 ,Cs3
 .byte   W08
 .byte   Cn3
 .byte   W08
 .byte   N44 ,As2
 .byte   W48
@  #01 @018   ----------------------------------------
 .byte   N30 ,Fn3
 .byte   W32
 .byte   N07 ,Fs3
 .byte   W08
 .byte   Fn3
 .byte   W08
 .byte   N44 ,Ds3
 .byte   W48
@  #01 @019   ----------------------------------------
 .byte   N30 ,Cs3
 .byte   W32
 .byte   N07 ,Ds3
 .byte   W08
 .byte   Cs3
 .byte   W08
 .byte   N44 ,Cn3
 .byte   W48
@  #01 @020   ----------------------------------------
Label_01047C71:
 .byte   N44 ,As2 ,v076
 .byte   W48
 .byte   N15 ,Fs2
 .byte   W16
 .byte   As2
 .byte   W16
 .byte   Fn3
 .byte   W16
 .byte   PEND 
@  #01 @021   ----------------------------------------
Label_01047C7D:
 .byte   N44 ,Cn3 ,v076
 .byte   W48
 .byte   Gs2
 .byte   W48
 .byte   PEND 
@  #01 @022   ----------------------------------------
 .byte   As2
 .byte   W48
 .byte   N15
 .byte   W16
 .byte   Cn3
 .byte   W16
 .byte   Cs3
 .byte   W16
@  #01 @023   ----------------------------------------
 .byte   PATT
  .word Label_01047C7D
@  #01 @024   ----------------------------------------
 .byte   PATT
  .word Label_01047C71
@  #01 @025   ----------------------------------------
 .byte   PATT
  .word Label_01047C7D
@  #01 @026   ----------------------------------------
 .byte   TIE ,As2 ,v076
 .byte   W96
@  #01 @027   ----------------------------------------
 .byte   W72
 .byte   N23 ,An2 ,v112
 .byte   W23
 .byte   EOT
 .byte   As2
 .byte   W01
@  #01 @028   ----------------------------------------
 .byte   N60 ,An3 ,v127
 .byte   W64
 .byte   N15 ,Gn3
 .byte   W16
 .byte   Fn3
 .byte   W16
@  #01 @029   ----------------------------------------
 .byte   N23 ,En3
 .byte   W24
 .byte   Fn3
 .byte   W24
 .byte   Gn3
 .byte   W24
 .byte   Cn4
 .byte   W24
@  #01 @030   ----------------------------------------
 .byte   N44 ,Gn3
 .byte   W48
 .byte   N15 ,An3
 .byte   W16
 .byte   Gn3
 .byte   W16
 .byte   Fn3
 .byte   W16
@  #01 @031   ----------------------------------------
 .byte   N44 ,En3
 .byte   W48
 .byte   N23 ,Fn3
 .byte   W24
 .byte   N16 ,Dn3
 .byte   W16
 .byte   N07 ,Dn3 ,v096
 .byte   W08
@  #01 @032   ----------------------------------------
 .byte   W96
@  #01 @033   ----------------------------------------
 .byte   W96
@  #01 @034   ----------------------------------------
 .byte   W96
@  #01 @035   ----------------------------------------
 .byte   W96
@  #01 @036   ----------------------------------------
 .byte   W96
@  #01 @037   ----------------------------------------
 .byte   W96
@  #01 @038   ----------------------------------------
 .byte   W96
@  #01 @039   ----------------------------------------
 .byte   W96
@  #01 @040   ----------------------------------------
 .byte   W96
@  #01 @041   ----------------------------------------
 .byte   W96
@  #01 @042   ----------------------------------------
 .byte   W96
@  #01 @043   ----------------------------------------
 .byte   W96
@  #01 @044   ----------------------------------------
 .byte   W96
@  #01 @045   ----------------------------------------
 .byte   W96
@  #01 @046   ----------------------------------------
 .byte   W96
@  #01 @047   ----------------------------------------
 .byte   W96
@  #01 @048   ----------------------------------------
 .byte   N23 ,Gs3
 .byte   W24
 .byte   Fs3
 .byte   W24
 .byte   Cs3
 .byte   W24
 .byte   Ds3
 .byte   W24
@  #01 @049   ----------------------------------------
 .byte   Fs3
 .byte   W24
 .byte   En3
 .byte   W24
 .byte   Ds3
 .byte   W24
 .byte   En3
 .byte   W24
@  #01 @050   ----------------------------------------
 .byte   Bn2
 .byte   W24
 .byte   An2
 .byte   W24
 .byte   Gs2
 .byte   W24
 .byte   Fs2
 .byte   W24
@  #01 @051   ----------------------------------------
 .byte   TIE ,Gs2
 .byte   W96
@  #01 @052   ----------------------------------------
 .byte   W92
 .byte   W03
 .byte   EOT
 .byte   W01
@  #01 @053   ----------------------------------------
 .byte   W96
@  #01 @054   ----------------------------------------
 .byte   W96
@  #01 @055   ----------------------------------------
 .byte   W96
@  #01 @056   ----------------------------------------
 .byte   W96
@  #01 @057   ----------------------------------------
 .byte   W96
@  #01 @058   ----------------------------------------
 .byte   W96
@  #01 @059   ----------------------------------------
 .byte   W96
@  #01 @060   ----------------------------------------
 .byte   W96
@  #01 @061   ----------------------------------------
 .byte   N44 ,As2 ,v112
 .byte   W48
 .byte   Fn3
 .byte   W48
@  #01 @062   ----------------------------------------
 .byte   N44
 .byte   W48
 .byte   N23 ,Ds3
 .byte   W24
 .byte   Cs3
 .byte   W24
@  #01 @063   ----------------------------------------
 .byte   N32
 .byte   W36
 .byte   N11 ,Cn3
 .byte   W12
 .byte   N32
 .byte   W36
 .byte   N11 ,Fs3
 .byte   W12
@  #01 @064   ----------------------------------------
 .byte   N32
 .byte   W36
 .byte   N11 ,Fn3
 .byte   W12
 .byte   N44
 .byte   W48
@  #01 @065   ----------------------------------------
 .byte   As2
 .byte   W60
 .byte   N11
 .byte   W12
 .byte   Cs3
 .byte   W12
 .byte   Fn3
 .byte   W12
@  #01 @066   ----------------------------------------
 .byte   N44 ,Gs3
 .byte   W48
 .byte   N23 ,Fs3
 .byte   W24
 .byte   Fn3
 .byte   W24
@  #01 @067   ----------------------------------------
 .byte   N92
 .byte   W96
@  #01 @068   ----------------------------------------
 .byte   N32 ,Cs3
 .byte   W36
 .byte   N11 ,Cn3
 .byte   W12
 .byte   N44
 .byte   W48
@  #01 @069   ----------------------------------------
 .byte   W96
@  #01 @070   ----------------------------------------
 .byte   W24
 .byte   N68 ,Ds3 ,v080
 .byte   W72
@  #01 @071   ----------------------------------------
 .byte   W96
@  #01 @072   ----------------------------------------
 .byte   W96
@  #01 @073   ----------------------------------------
 .byte   W96
@  #01 @074   ----------------------------------------
 .byte   W48
 .byte   N11 ,As2
 .byte   W24
 .byte   As2 ,v127
 .byte   W24
@  #01 @075   ----------------------------------------
 .byte   N44 ,Fn3
 .byte   W48
 .byte   N15
 .byte   W16
 .byte   Ds3
 .byte   W16
 .byte   Cs3
 .byte   W16
@  #01 @076   ----------------------------------------
 .byte   N23 ,Cn3
 .byte   W24
 .byte   Cs3
 .byte   W24
 .byte   Ds3
 .byte   W24
 .byte   Gs3
 .byte   W24
@  #01 @077   ----------------------------------------
 .byte   N15 ,As3
 .byte   W16
 .byte   N07 ,Cn4
 .byte   W08
 .byte   N44 ,Gs3
 .byte   W48
 .byte   N23 ,Fn3
 .byte   W24
@  #01 @078   ----------------------------------------
 .byte   N68 ,As3
 .byte   W48
 .byte   N44 ,As2 ,v080
 .byte   W48
@  #01 @079   ----------------------------------------
 .byte   W96
@  #01 @080   ----------------------------------------
 .byte   W96
@  #01 @081   ----------------------------------------
 .byte   W96
@  #01 @082   ----------------------------------------
 .byte   W96
@  #01 @083   ----------------------------------------
 .byte   W96
@  #01 @084   ----------------------------------------
 .byte   W96
@  #01 @085   ----------------------------------------
 .byte   W96
@  #01 @086   ----------------------------------------
 .byte   W96
@  #01 @087   ----------------------------------------
 .byte   W96
@  #01 @088   ----------------------------------------
 .byte   W96
@  #01 @089   ----------------------------------------
 .byte   W96
@  #01 @090   ----------------------------------------
 .byte   W96
@  #01 @091   ----------------------------------------
 .byte   W96
@  #01 @092   ----------------------------------------
 .byte   W96
@  #01 @093   ----------------------------------------
 .byte   W96
@  #01 @094   ----------------------------------------
 .byte   TEMPO , 136*song01_tbs/2
 .byte   W96
@  #01 @095   ----------------------------------------
 .byte   W96
@  #01 @096   ----------------------------------------
 .byte   W96
@  #01 @097   ----------------------------------------
 .byte   W96
@  #01 @098   ----------------------------------------
 .byte   W96
@  #01 @099   ----------------------------------------
 .byte   W96
@  #01 @100   ----------------------------------------
 .byte   W96
@  #01 @101   ----------------------------------------
 .byte   W96
@  #01 @102   ----------------------------------------
 .byte   GOTO
  .word Label_01047C12
 .byte   FINE

@**************** Track 2 (Midi-Chn.1) ****************@

song01_002:
@  #02 @000   ----------------------------------------
 .byte   VOL , 50*song01_mvl/mxv
 .byte   KEYSH , song01_key+0
 .byte   VOICE , 57
 .byte   W96
@  #02 @001   ----------------------------------------
 .byte   W96
@  #02 @002   ----------------------------------------
 .byte   W96
@  #02 @003   ----------------------------------------
 .byte   W96
@  #02 @004   ----------------------------------------
Label_015F39AA:
 .byte   N44 ,Cn3 ,v127
 .byte   W48
 .byte   N07 ,Fn2
 .byte   W08
 .byte   Gs2
 .byte   W08
 .byte   Cn3
 .byte   W08
 .byte   Ds3
 .byte   W08
 .byte   Cn3
 .byte   W08
 .byte   Gs2
 .byte   W08
 .byte   PEND 
@  #02 @005   ----------------------------------------
Label_015F39BC:
 .byte   N23 ,Cs3 ,v127
 .byte   W24
 .byte   N07 ,Fn2
 .byte   W08
 .byte   Gs2
 .byte   W08
 .byte   Cs3
 .byte   W08
 .byte   N23 ,Cn3
 .byte   W24
 .byte   N07 ,Fn2
 .byte   W08
 .byte   Gs2
 .byte   W08
 .byte   Cn3
 .byte   W08
 .byte   PEND 
@  #02 @006   ----------------------------------------
 .byte   TIE ,As2
 .byte   W96
@  #02 @007   ----------------------------------------
 .byte   W92
 .byte   W03
 .byte   EOT
 .byte   W01
@  #02 @008   ----------------------------------------
Label_015F39D9:
@  #02 @009   ----------------------------------------
 .byte   PATT
  .word Label_015F39AA
@  #02 @010   ----------------------------------------
 .byte   PATT
  .word Label_015F39BC
@  #02 @011   ----------------------------------------
 .byte   TIE ,As2 ,v127
 .byte   W96
@  #02 @012   ----------------------------------------
 .byte   W92
 .byte   W03
 .byte   EOT
 .byte   W01
@  #02 @013   ----------------------------------------
 .byte   W96
@  #02 @014   ----------------------------------------
 .byte   W96
@  #02 @015   ----------------------------------------
 .byte   W96
@  #02 @016   ----------------------------------------
 .byte   W96
@  #02 @017   ----------------------------------------
 .byte   W96
@  #02 @018   ----------------------------------------
 .byte   W96
@  #02 @019   ----------------------------------------
 .byte   W96
@  #02 @020   ----------------------------------------
 .byte   W96
@  #02 @021   ----------------------------------------
 .byte   W96
@  #02 @022   ----------------------------------------
 .byte   W96
@  #02 @023   ----------------------------------------
 .byte   W96
@  #02 @024   ----------------------------------------
 .byte   W96
@  #02 @025   ----------------------------------------
 .byte   W96
@  #02 @026   ----------------------------------------
 .byte   W96
@  #02 @027   ----------------------------------------
 .byte   W96
@  #02 @028   ----------------------------------------
 .byte   W96
@  #02 @029   ----------------------------------------
 .byte   W96
@  #02 @030   ----------------------------------------
 .byte   W96
@  #02 @031   ----------------------------------------
 .byte   W96
@  #02 @032   ----------------------------------------
 .byte   W96
@  #02 @033   ----------------------------------------
 .byte   W96
@  #02 @034   ----------------------------------------
 .byte   W96
@  #02 @035   ----------------------------------------
 .byte   W96
@  #02 @036   ----------------------------------------
 .byte   W96
@  #02 @037   ----------------------------------------
 .byte   W96
@  #02 @038   ----------------------------------------
 .byte   W96
@  #02 @039   ----------------------------------------
 .byte   W96
@  #02 @040   ----------------------------------------
 .byte   W72
 .byte   N23 ,Dn3 ,v096
 .byte   W24
@  #02 @041   ----------------------------------------
 .byte   N60 ,An3 ,v127
 .byte   W64
 .byte   N15 ,Gn3
 .byte   W16
 .byte   Fn3
 .byte   W16
@  #02 @042   ----------------------------------------
 .byte   N23 ,En3
 .byte   W24
 .byte   Fn3
 .byte   W24
 .byte   Gn3
 .byte   W24
 .byte   Cn4
 .byte   W24
@  #02 @043   ----------------------------------------
 .byte   N07 ,Dn4
 .byte   W16
 .byte   En4
 .byte   W08
 .byte   N44 ,Cn4
 .byte   W48
 .byte   N24 ,An3
 .byte   W24
@  #02 @044   ----------------------------------------
 .byte   N92 ,Dn4
 .byte   W96
@  #02 @045   ----------------------------------------
 .byte   W96
@  #02 @046   ----------------------------------------
 .byte   W96
@  #02 @047   ----------------------------------------
 .byte   W96
@  #02 @048   ----------------------------------------
 .byte   W96
@  #02 @049   ----------------------------------------
 .byte   W96
@  #02 @050   ----------------------------------------
 .byte   W96
@  #02 @051   ----------------------------------------
 .byte   W96
@  #02 @052   ----------------------------------------
 .byte   W96
@  #02 @053   ----------------------------------------
 .byte   W96
@  #02 @054   ----------------------------------------
 .byte   W96
@  #02 @055   ----------------------------------------
 .byte   W96
@  #02 @056   ----------------------------------------
 .byte   W96
@  #02 @057   ----------------------------------------
 .byte   W96
@  #02 @058   ----------------------------------------
 .byte   W96
@  #02 @059   ----------------------------------------
 .byte   W96
@  #02 @060   ----------------------------------------
 .byte   W96
@  #02 @061   ----------------------------------------
 .byte   W96
@  #02 @062   ----------------------------------------
 .byte   W96
@  #02 @063   ----------------------------------------
 .byte   W96
@  #02 @064   ----------------------------------------
 .byte   W96
@  #02 @065   ----------------------------------------
 .byte   W96
@  #02 @066   ----------------------------------------
 .byte   W96
@  #02 @067   ----------------------------------------
 .byte   W96
@  #02 @068   ----------------------------------------
 .byte   W96
@  #02 @069   ----------------------------------------
 .byte   W96
@  #02 @070   ----------------------------------------
 .byte   W96
@  #02 @071   ----------------------------------------
 .byte   W72
 .byte   N23 ,As2
 .byte   W24
@  #02 @072   ----------------------------------------
 .byte   N44 ,Fn3
 .byte   W48
 .byte   N15
 .byte   W16
 .byte   Ds3
 .byte   W16
 .byte   Cs3
 .byte   W16
@  #02 @073   ----------------------------------------
 .byte   N23 ,Cn3
 .byte   W24
 .byte   Cs3
 .byte   W24
 .byte   Ds3
 .byte   W24
 .byte   Gs3
 .byte   W24
@  #02 @074   ----------------------------------------
 .byte   TIE ,Ds3
 .byte   W96
@  #02 @075   ----------------------------------------
 .byte   W44
 .byte   W03
 .byte   EOT
 .byte   W48
 .byte   W01
@  #02 @076   ----------------------------------------
 .byte   W96
@  #02 @077   ----------------------------------------
 .byte   W96
@  #02 @078   ----------------------------------------
 .byte   W96
@  #02 @079   ----------------------------------------
 .byte   W96
@  #02 @080   ----------------------------------------
 .byte   W96
@  #02 @081   ----------------------------------------
 .byte   W96
@  #02 @082   ----------------------------------------
 .byte   W96
@  #02 @083   ----------------------------------------
 .byte   W96
@  #02 @084   ----------------------------------------
 .byte   W96
@  #02 @085   ----------------------------------------
 .byte   W96
@  #02 @086   ----------------------------------------
 .byte   W96
@  #02 @087   ----------------------------------------
 .byte   W96
@  #02 @088   ----------------------------------------
 .byte   W96
@  #02 @089   ----------------------------------------
 .byte   W96
@  #02 @090   ----------------------------------------
 .byte   W96
@  #02 @091   ----------------------------------------
 .byte   W96
@  #02 @092   ----------------------------------------
 .byte   W96
@  #02 @093   ----------------------------------------
 .byte   W96
@  #02 @094   ----------------------------------------
 .byte   W96
@  #02 @095   ----------------------------------------
 .byte   W96
@  #02 @096   ----------------------------------------
 .byte   W96
@  #02 @097   ----------------------------------------
 .byte   W96
@  #02 @098   ----------------------------------------
 .byte   W96
@  #02 @099   ----------------------------------------
 .byte   N44 ,Cn3 ,v104
 .byte   W48
 .byte   N07 ,Fn2
 .byte   W08
 .byte   Gs2
 .byte   W08
 .byte   Cn3
 .byte   W08
 .byte   Ds3
 .byte   W08
 .byte   Cn3
 .byte   W08
 .byte   Gs2
 .byte   W08
@  #02 @100   ----------------------------------------
 .byte   N23 ,Cs3
 .byte   W24
 .byte   N07 ,Fn2
 .byte   W08
 .byte   Gs2
 .byte   W08
 .byte   Cs3
 .byte   W08
 .byte   N23 ,Cn3
 .byte   W24
 .byte   N07 ,Fn2
 .byte   W08
 .byte   Gs2
 .byte   W08
 .byte   Cn3
 .byte   W08
@  #02 @101   ----------------------------------------
 .byte   TIE ,As2
 .byte   W96
@  #02 @102   ----------------------------------------
 .byte   W92
 .byte   W03
 .byte   EOT
 .byte   W01
@  #02 @103   ----------------------------------------
 .byte   GOTO
  .word Label_015F39D9
 .byte   FINE

@**************** Track 3 (Midi-Chn.2) ****************@

song01_003:
@  #03 @000   ----------------------------------------
 .byte   KEYSH , song01_key+0
 .byte   VOICE , 110
 .byte   PAN , c_v+0
 .byte   VOL , 59*song01_mvl/mxv
 .byte   N07 ,Ds3 ,v048
 .byte   W08
 .byte   Fn3
 .byte   W08
 .byte   Gs3
 .byte   W08
 .byte   Cn4
 .byte   W08
 .byte   Cs4
 .byte   W08
 .byte   Ds4
 .byte   W08
 .byte   Gs4
 .byte   W08
 .byte   Ds4
 .byte   W08
 .byte   Cs4
 .byte   W08
 .byte   Cn4
 .byte   W08
 .byte   Gs3
 .byte   W08
 .byte   Fn3
 .byte   W08
@  #03 @001   ----------------------------------------
Label_015F3ACE:
 .byte   N07 ,Ds3 ,v048
 .byte   W08
 .byte   Fn3
 .byte   W08
 .byte   Gs3
 .byte   W08
 .byte   Cn4
 .byte   W08
 .byte   Cs4
 .byte   W08
 .byte   Ds4
 .byte   W08
 .byte   Gs4
 .byte   W08
 .byte   Ds4
 .byte   W08
 .byte   Cs4
 .byte   W08
 .byte   Cn4
 .byte   W08
 .byte   Gs3
 .byte   W08
 .byte   Fn3
 .byte   W08
 .byte   PEND 
@  #03 @002   ----------------------------------------
 .byte   PATT
  .word Label_015F3ACE
@  #03 @003   ----------------------------------------
 .byte   PATT
  .word Label_015F3ACE
@  #03 @004   ----------------------------------------
 .byte   PATT
  .word Label_015F3ACE
@  #03 @005   ----------------------------------------
 .byte   PATT
  .word Label_015F3ACE
@  #03 @006   ----------------------------------------
 .byte   PATT
  .word Label_015F3ACE
@  #03 @007   ----------------------------------------
 .byte   PATT
  .word Label_015F3ACE
@  #03 @008   ----------------------------------------
Label_015F3B07:
@  #03 @009   ----------------------------------------
 .byte   PATT
  .word Label_015F3ACE
@  #03 @010   ----------------------------------------
 .byte   PATT
  .word Label_015F3ACE
@  #03 @011   ----------------------------------------
 .byte   PATT
  .word Label_015F3ACE
@  #03 @012   ----------------------------------------
 .byte   PATT
  .word Label_015F3ACE
@  #03 @013   ----------------------------------------
Label_015F3B1B:
 .byte   N07 ,Ds3 ,v056
 .byte   W08
 .byte   Fn3
 .byte   W08
 .byte   Gs3
 .byte   W08
 .byte   Cn4
 .byte   W08
 .byte   Cs4
 .byte   W08
 .byte   Ds4
 .byte   W08
 .byte   Gs4
 .byte   W08
 .byte   Ds4
 .byte   W08
 .byte   Cs4
 .byte   W08
 .byte   Cn4
 .byte   W08
 .byte   Gs3
 .byte   W08
 .byte   Fn3
 .byte   W08
 .byte   PEND 
@  #03 @014   ----------------------------------------
 .byte   PATT
  .word Label_015F3B1B
@  #03 @015   ----------------------------------------
 .byte   PATT
  .word Label_015F3B1B
@  #03 @016   ----------------------------------------
 .byte   PATT
  .word Label_015F3B1B
@  #03 @017   ----------------------------------------
 .byte   PATT
  .word Label_015F3B1B
@  #03 @018   ----------------------------------------
 .byte   PATT
  .word Label_015F3B1B
@  #03 @019   ----------------------------------------
 .byte   PATT
  .word Label_015F3B1B
@  #03 @020   ----------------------------------------
 .byte   PATT
  .word Label_015F3B1B
@  #03 @021   ----------------------------------------
Label_015F3B59:
 .byte   W24
 .byte   N44 ,Ds3 ,v064
 .byte   W48
 .byte   N44
 .byte   W24
 .byte   PEND 
@  #03 @022   ----------------------------------------
Label_015F3B61:
 .byte   W24
 .byte   N44 ,Fn3 ,v064
 .byte   W48
 .byte   N44
 .byte   W24
 .byte   PEND 
@  #03 @023   ----------------------------------------
 .byte   W24
 .byte   Fs3
 .byte   W48
 .byte   N44
 .byte   W24
@  #03 @024   ----------------------------------------
 .byte   PATT
  .word Label_015F3B61
@  #03 @025   ----------------------------------------
 .byte   PATT
  .word Label_015F3B59
@  #03 @026   ----------------------------------------
 .byte   PATT
  .word Label_015F3B61
@  #03 @027   ----------------------------------------
 .byte   W24
 .byte   N44 ,Gn3 ,v064
 .byte   W48
 .byte   N23
 .byte   W24
@  #03 @028   ----------------------------------------
 .byte   N44 ,Fn4 ,v076
 .byte   W48
 .byte   N23 ,Gn4 ,v096
 .byte   W48
@  #03 @029   ----------------------------------------
 .byte   N11 ,As3
 .byte   W24
 .byte   N03
 .byte   W08
 .byte   N03
 .byte   W08
 .byte   N03
 .byte   W08
 .byte   N11 ,Cn4
 .byte   W24
 .byte   N11
 .byte   W24
@  #03 @030   ----------------------------------------
 .byte   Gn3
 .byte   W24
 .byte   N11
 .byte   W24
 .byte   Fn3
 .byte   W24
 .byte   N11
 .byte   W24
@  #03 @031   ----------------------------------------
Label_015F3BA2:
 .byte   N11 ,Fn3 ,v096
 .byte   W24
 .byte   N03
 .byte   W08
 .byte   N03
 .byte   W08
 .byte   N03
 .byte   W08
 .byte   N11 ,En3
 .byte   W24
 .byte   N11
 .byte   W24
 .byte   PEND 
@  #03 @032   ----------------------------------------
 .byte   Gn3
 .byte   W24
 .byte   N11
 .byte   W24
 .byte   N23 ,Fn3
 .byte   W24
 .byte   N07 ,En4
 .byte   W08
 .byte   Fn4
 .byte   W08
 .byte   Dn4
 .byte   W08
@  #03 @033   ----------------------------------------
 .byte   N60 ,An3 ,v092
 .byte   W64
 .byte   N15 ,Gn3
 .byte   W16
 .byte   Fn3
 .byte   W16
@  #03 @034   ----------------------------------------
 .byte   N23 ,En3
 .byte   W24
 .byte   Fn3
 .byte   W24
 .byte   Gn3
 .byte   W24
 .byte   Cn4
 .byte   W24
@  #03 @035   ----------------------------------------
 .byte   N15 ,Dn4
 .byte   W16
 .byte   N07 ,En4
 .byte   W08
 .byte   N44 ,Cn4
 .byte   W48
 .byte   N23 ,An3
 .byte   W24
@  #03 @036   ----------------------------------------
 .byte   N92 ,Dn4
 .byte   W96
@  #03 @037   ----------------------------------------
 .byte   PATT
  .word Label_015F3BA2
@  #03 @038   ----------------------------------------
 .byte   N11 ,Gn3 ,v096
 .byte   W24
 .byte   N03
 .byte   W08
 .byte   N03
 .byte   W08
 .byte   N03
 .byte   W08
 .byte   N11 ,Fn3
 .byte   W24
 .byte   N11
 .byte   W24
@  #03 @039   ----------------------------------------
 .byte   PATT
  .word Label_015F3BA2
@  #03 @040   ----------------------------------------
 .byte   N11 ,Gn3 ,v096
 .byte   W24
 .byte   N11
 .byte   W24
 .byte   N23 ,Fn3
 .byte   W48
@  #03 @041   ----------------------------------------
 .byte   PATT
  .word Label_015F3BA2
@  #03 @042   ----------------------------------------
 .byte   N11 ,Gn3 ,v096
 .byte   W24
 .byte   N03
 .byte   W08
 .byte   N03
 .byte   W08
 .byte   N03
 .byte   W08
 .byte   N11 ,Fn3
 .byte   W24
 .byte   N23 ,Cn3 ,v127
 .byte   N11 ,Fn3 ,v096
 .byte   W24
@  #03 @043   ----------------------------------------
 .byte   N15 ,Dn3
 .byte   N11 ,Fn3
 .byte   W16
 .byte   N07 ,En3
 .byte   W08
 .byte   N44 ,Cn3
 .byte   N03 ,Fn3
 .byte   W08
 .byte   N03
 .byte   W08
 .byte   N03
 .byte   W08
 .byte   N11 ,En3
 .byte   W24
 .byte   N11
 .byte   W24
@  #03 @044   ----------------------------------------
 .byte   N92 ,Dn3
 .byte   N11 ,En3
 .byte   W24
 .byte   N11
 .byte   W24
 .byte   N23
 .byte   W48
@  #03 @045   ----------------------------------------
 .byte   N44 ,An4 ,v064
 .byte   W48
 .byte   Gn4
 .byte   W48
@  #03 @046   ----------------------------------------
 .byte   N23
 .byte   W24
 .byte   Fn4
 .byte   W24
 .byte   N44 ,Cn5
 .byte   W48
@  #03 @047   ----------------------------------------
 .byte   N23
 .byte   W24
 .byte   As4
 .byte   W24
 .byte   N44 ,Fn5
 .byte   W48
@  #03 @048   ----------------------------------------
 .byte   Ds5
 .byte   W48
 .byte   Gs4
 .byte   W48
@  #03 @049   ----------------------------------------
 .byte   N23
 .byte   W24
 .byte   Fs4
 .byte   W24
 .byte   Cs4
 .byte   W24
 .byte   Ds4
 .byte   W24
@  #03 @050   ----------------------------------------
 .byte   Fs4
 .byte   W24
 .byte   En4
 .byte   W24
 .byte   Ds4
 .byte   W24
 .byte   En4
 .byte   W24
@  #03 @051   ----------------------------------------
 .byte   Bn3
 .byte   W24
 .byte   An3
 .byte   W24
 .byte   Gs3
 .byte   W24
 .byte   Fs3
 .byte   W24
@  #03 @052   ----------------------------------------
 .byte   TIE ,Gs3
 .byte   W96
@  #03 @053   ----------------------------------------
 .byte   W92
 .byte   W03
 .byte   EOT
 .byte   W01
@  #03 @054   ----------------------------------------
 .byte   N44 ,As3
 .byte   W48
 .byte   Fn4
 .byte   W48
@  #03 @055   ----------------------------------------
 .byte   N44
 .byte   W48
 .byte   N22 ,Ds4
 .byte   W24
 .byte   Cs4
 .byte   W24
@  #03 @056   ----------------------------------------
 .byte   N32
 .byte   W36
 .byte   N11 ,Bn3
 .byte   W12
 .byte   N32
 .byte   W36
 .byte   N11 ,Fs4
 .byte   W12
@  #03 @057   ----------------------------------------
 .byte   N32
 .byte   W36
 .byte   N11 ,Fn4
 .byte   W12
 .byte   N44
 .byte   W48
@  #03 @058   ----------------------------------------
 .byte   As3
 .byte   W60
 .byte   N11
 .byte   W12
 .byte   Cs4
 .byte   W12
 .byte   Fn4
 .byte   W12
@  #03 @059   ----------------------------------------
 .byte   N44 ,Gs4
 .byte   W48
 .byte   N22 ,Fs4
 .byte   W24
 .byte   Fn4
 .byte   W24
@  #03 @060   ----------------------------------------
 .byte   N22
 .byte   W24
 .byte   Ds4 ,v068
 .byte   W24
 .byte   N22
 .byte   W24
 .byte   Cs4 ,v072
 .byte   W24
@  #03 @061   ----------------------------------------
 .byte   N32
 .byte   W36
 .byte   N11 ,Cn4 ,v076
 .byte   W12
 .byte   N48
 .byte   W48
@  #03 @062   ----------------------------------------
 .byte   N44 ,As3 ,v092
 .byte   W48
 .byte   Fn4
 .byte   W48
@  #03 @063   ----------------------------------------
 .byte   N44
 .byte   W48
 .byte   N23 ,Ds4
 .byte   W24
 .byte   Cs4
 .byte   W24
@  #03 @064   ----------------------------------------
 .byte   N32
 .byte   W36
 .byte   N11 ,Cn4
 .byte   W12
 .byte   N32
 .byte   W36
 .byte   N11 ,Fs4
 .byte   W12
@  #03 @065   ----------------------------------------
 .byte   N32
 .byte   W36
 .byte   N11 ,Fn4
 .byte   W12
 .byte   N44
 .byte   W48
@  #03 @066   ----------------------------------------
 .byte   As3
 .byte   W60
 .byte   N11
 .byte   W12
 .byte   Cs4
 .byte   W12
 .byte   Fn4
 .byte   W12
@  #03 @067   ----------------------------------------
 .byte   N44 ,Gs4
 .byte   W48
 .byte   N23 ,Fs4
 .byte   W24
 .byte   Fn4
 .byte   W24
@  #03 @068   ----------------------------------------
 .byte   N92
 .byte   W96
@  #03 @069   ----------------------------------------
 .byte   N32 ,Cs4
 .byte   W36
 .byte   N11 ,Cn4
 .byte   W12
 .byte   N44
 .byte   W48
@  #03 @070   ----------------------------------------
 .byte   W96
@  #03 @071   ----------------------------------------
 .byte   W24
 .byte   N68 ,Cn3 ,v076
 .byte   W72
@  #03 @072   ----------------------------------------
Label_015F3CEF:
 .byte   N11 ,Fs3 ,v080
 .byte   W24
 .byte   N03
 .byte   W08
 .byte   N03
 .byte   W08
 .byte   N03
 .byte   W08
 .byte   N11
 .byte   W24
 .byte   N11
 .byte   W24
 .byte   PEND 
@  #03 @073   ----------------------------------------
Label_015F3CFE:
 .byte   N11 ,Gs3 ,v080
 .byte   W24
 .byte   N03
 .byte   W08
 .byte   N03
 .byte   W08
 .byte   N03
 .byte   W08
 .byte   N11
 .byte   W24
 .byte   N11
 .byte   W24
 .byte   PEND 
@  #03 @074   ----------------------------------------
Label_015F3D0D:
 .byte   N11 ,As3 ,v080
 .byte   W24
 .byte   N03
 .byte   W08
 .byte   N03
 .byte   W08
 .byte   N03
 .byte   W08
 .byte   N11
 .byte   W24
 .byte   N11
 .byte   W24
 .byte   PEND 
@  #03 @075   ----------------------------------------
 .byte   PATT
  .word Label_015F3D0D
@  #03 @076   ----------------------------------------
 .byte   PATT
  .word Label_015F3CEF
@  #03 @077   ----------------------------------------
 .byte   PATT
  .word Label_015F3CFE
@  #03 @078   ----------------------------------------
 .byte   N11 ,Fn3 ,v080
 .byte   W24
 .byte   N03
 .byte   W08
 .byte   N03
 .byte   W08
 .byte   N03
 .byte   W08
 .byte   N11
 .byte   W24
 .byte   N11
 .byte   W24
@  #03 @079   ----------------------------------------
 .byte   As3
 .byte   W24
 .byte   N11
 .byte   W24
 .byte   N44
 .byte   W48
@  #03 @080   ----------------------------------------
 .byte   W96
@  #03 @081   ----------------------------------------
 .byte   W96
@  #03 @082   ----------------------------------------
 .byte   W96
@  #03 @083   ----------------------------------------
 .byte   W96
@  #03 @084   ----------------------------------------
 .byte   W96
@  #03 @085   ----------------------------------------
 .byte   W96
@  #03 @086   ----------------------------------------
 .byte   W96
@  #03 @087   ----------------------------------------
 .byte   W96
@  #03 @088   ----------------------------------------
 .byte   W96
@  #03 @089   ----------------------------------------
 .byte   W96
@  #03 @090   ----------------------------------------
 .byte   W96
@  #03 @091   ----------------------------------------
 .byte   W48
 .byte   Cn3 ,v104
 .byte   W48
@  #03 @092   ----------------------------------------
 .byte   Cs3
 .byte   W48
 .byte   Fn3
 .byte   W48
@  #03 @093   ----------------------------------------
 .byte   N78
 .byte   W80
 .byte   N07 ,Fs3
 .byte   W08
 .byte   Fn3
 .byte   W08
@  #03 @094   ----------------------------------------
 .byte   N92 ,Ds3
 .byte   W96
@  #03 @095   ----------------------------------------
Label_015F3D5C:
 .byte   N07 ,Ds3 ,v096
 .byte   W08
 .byte   Fn3
 .byte   W08
 .byte   Gs3
 .byte   W08
 .byte   Cn4
 .byte   W08
 .byte   Cs4
 .byte   W08
 .byte   Ds4
 .byte   W08
 .byte   Gs4
 .byte   W08
 .byte   Ds4
 .byte   W08
 .byte   Cs4
 .byte   W08
 .byte   Cn4
 .byte   W08
 .byte   Gs3
 .byte   W08
 .byte   Fn3
 .byte   W08
 .byte   PEND 
@  #03 @096   ----------------------------------------
 .byte   PATT
  .word Label_015F3D5C
@  #03 @097   ----------------------------------------
 .byte   PATT
  .word Label_015F3D5C
@  #03 @098   ----------------------------------------
 .byte   PATT
  .word Label_015F3D5C
@  #03 @099   ----------------------------------------
 .byte   PATT
  .word Label_015F3D5C
@  #03 @100   ----------------------------------------
 .byte   PATT
  .word Label_015F3D5C
@  #03 @101   ----------------------------------------
 .byte   PATT
  .word Label_015F3D5C
@  #03 @102   ----------------------------------------
 .byte   PATT
  .word Label_015F3D5C
@  #03 @103   ----------------------------------------
 .byte   GOTO
  .word Label_015F3B07
 .byte   FINE

@**************** Track 4 (Midi-Chn.3) ****************@

song01_004:
@  #04 @000   ----------------------------------------
 .byte   KEYSH , song01_key+0
 .byte   VOICE , 48
 .byte   VOL , 30*song01_mvl/mxv
 .byte   PAN , c_v+0
 .byte   N11 ,Cn3 ,v080
 .byte   W24
 .byte   N03
 .byte   W08
 .byte   N03
 .byte   W08
 .byte   N03
 .byte   W08
 .byte   N11 ,As2
 .byte   W24
 .byte   N11
 .byte   W24
@  #04 @001   ----------------------------------------
Label_015F3DB7:
 .byte   N11 ,Cn3 ,v080
 .byte   W24
 .byte   N11
 .byte   W24
 .byte   As2
 .byte   W24
 .byte   N03
 .byte   W08
 .byte   N03
 .byte   W08
 .byte   N03
 .byte   W08
 .byte   PEND 
@  #04 @002   ----------------------------------------
Label_015F3DC6:
 .byte   N11 ,Cn3 ,v080
 .byte   W24
 .byte   N03
 .byte   W08
 .byte   N03
 .byte   W08
 .byte   N03
 .byte   W08
 .byte   N11 ,As2
 .byte   W24
 .byte   N11
 .byte   W24
 .byte   PEND 
@  #04 @003   ----------------------------------------
Label_015F3DD6:
 .byte   N11 ,Cs3 ,v080
 .byte   W24
 .byte   N11
 .byte   W24
 .byte   Cn3
 .byte   W24
 .byte   N03
 .byte   W08
 .byte   N03
 .byte   W08
 .byte   N03
 .byte   W08
 .byte   PEND 
@  #04 @004   ----------------------------------------
 .byte   PATT
  .word Label_015F3DC6
@  #04 @005   ----------------------------------------
 .byte   PATT
  .word Label_015F3DB7
@  #04 @006   ----------------------------------------
 .byte   PATT
  .word Label_015F3DC6
@  #04 @007   ----------------------------------------
 .byte   PATT
  .word Label_015F3DD6
@  #04 @008   ----------------------------------------
Label_015F3DF9:
@  #04 @009   ----------------------------------------
 .byte   PATT
  .word Label_015F3DC6
@  #04 @010   ----------------------------------------
 .byte   PATT
  .word Label_015F3DB7
@  #04 @011   ----------------------------------------
 .byte   PATT
  .word Label_015F3DC6
@  #04 @012   ----------------------------------------
 .byte   PATT
  .word Label_015F3DD6
@  #04 @013   ----------------------------------------
 .byte   W96
@  #04 @014   ----------------------------------------
 .byte   W96
@  #04 @015   ----------------------------------------
 .byte   W96
@  #04 @016   ----------------------------------------
 .byte   W96
@  #04 @017   ----------------------------------------
 .byte   W96
@  #04 @018   ----------------------------------------
 .byte   W96
@  #04 @019   ----------------------------------------
 .byte   W96
@  #04 @020   ----------------------------------------
 .byte   W96
@  #04 @021   ----------------------------------------
 .byte   W96
@  #04 @022   ----------------------------------------
 .byte   W96
@  #04 @023   ----------------------------------------
 .byte   W96
@  #04 @024   ----------------------------------------
 .byte   W96
@  #04 @025   ----------------------------------------
 .byte   N44 ,As2 ,v096
 .byte   W48
 .byte   N15 ,Fs2
 .byte   W16
 .byte   As2
 .byte   W16
 .byte   Fn3
 .byte   W16
@  #04 @026   ----------------------------------------
 .byte   N44 ,Cn3
 .byte   W48
 .byte   Gs2
 .byte   W48
@  #04 @027   ----------------------------------------
 .byte   TIE ,As2
 .byte   W96
@  #04 @028   ----------------------------------------
 .byte   W92
 .byte   W03
 .byte   EOT
 .byte   W01
@  #04 @029   ----------------------------------------
 .byte   N11 ,Dn3
 .byte   W24
 .byte   N03
 .byte   W08
 .byte   N03
 .byte   W08
 .byte   N03
 .byte   W08
 .byte   N11 ,En3
 .byte   W24
 .byte   N11
 .byte   W24
@  #04 @030   ----------------------------------------
 .byte   Cn3
 .byte   W24
 .byte   N11
 .byte   W24
 .byte   N11
 .byte   W24
 .byte   N11
 .byte   W24
@  #04 @031   ----------------------------------------
 .byte   Dn3
 .byte   W24
 .byte   N03
 .byte   W08
 .byte   N03
 .byte   W08
 .byte   N03
 .byte   W08
 .byte   N11 ,Cs3
 .byte   W24
 .byte   N11
 .byte   W24
@  #04 @032   ----------------------------------------
 .byte   Dn3
 .byte   W24
 .byte   N11
 .byte   W24
 .byte   N23
 .byte   W48
@  #04 @033   ----------------------------------------
 .byte   W96
@  #04 @034   ----------------------------------------
 .byte   W96
@  #04 @035   ----------------------------------------
 .byte   W96
@  #04 @036   ----------------------------------------
 .byte   W96
@  #04 @037   ----------------------------------------
Label_015F3E5D:
 .byte   N07 ,As2 ,v080
 .byte   W08
 .byte   Dn3
 .byte   W08
 .byte   Fn3
 .byte   W08
 .byte   An3
 .byte   W08
 .byte   Dn4
 .byte   W08
 .byte   Fn3
 .byte   W08
 .byte   Cn3
 .byte   W08
 .byte   En3
 .byte   W08
 .byte   Gn3
 .byte   W08
 .byte   An3
 .byte   W08
 .byte   Cn4
 .byte   W08
 .byte   Fn4
 .byte   W08
 .byte   PEND 
@  #04 @038   ----------------------------------------
 .byte   Cn3
 .byte   W08
 .byte   En3
 .byte   W08
 .byte   Gn3
 .byte   W08
 .byte   Cn4
 .byte   W08
 .byte   En4
 .byte   W08
 .byte   Cn4
 .byte   W08
 .byte   En3
 .byte   W08
 .byte   En4
 .byte   W08
 .byte   Cn4
 .byte   W08
 .byte   En3
 .byte   W08
 .byte   Gn3
 .byte   W08
 .byte   An3
 .byte   W08
@  #04 @039   ----------------------------------------
 .byte   Dn3
 .byte   W08
 .byte   Fn3
 .byte   W08
 .byte   An3
 .byte   W08
 .byte   Gn3
 .byte   W08
 .byte   Cn4
 .byte   W08
 .byte   Gn3
 .byte   W08
 .byte   An2
 .byte   W08
 .byte   En3
 .byte   W08
 .byte   Cs3
 .byte   W08
 .byte   An2
 .byte   W08
 .byte   Gn3
 .byte   W08
 .byte   As3
 .byte   W08
@  #04 @040   ----------------------------------------
 .byte   An2
 .byte   W08
 .byte   En3
 .byte   W08
 .byte   Dn3
 .byte   W08
 .byte   En3
 .byte   W08
 .byte   Gn3
 .byte   W08
 .byte   Cn4
 .byte   W08
 .byte   Fn3
 .byte   W08
 .byte   En3
 .byte   W08
 .byte   En4
 .byte   W08
 .byte   N23 ,Dn4
 .byte   W24
@  #04 @041   ----------------------------------------
 .byte   PATT
  .word Label_015F3E5D
@  #04 @042   ----------------------------------------
 .byte   N07 ,Cn3 ,v080
 .byte   W08
 .byte   En3
 .byte   W08
 .byte   Gn3
 .byte   W08
 .byte   Cn4
 .byte   W08
 .byte   En4
 .byte   W08
 .byte   Cn4
 .byte   W08
 .byte   Gn4
 .byte   W08
 .byte   En4
 .byte   W08
 .byte   Cn4
 .byte   W08
 .byte   Gn3
 .byte   W08
 .byte   Cn4
 .byte   W08
 .byte   En3
 .byte   W08
@  #04 @043   ----------------------------------------
 .byte   Dn3
 .byte   W08
 .byte   Fn3
 .byte   W08
 .byte   An3
 .byte   W08
 .byte   Fn3
 .byte   W08
 .byte   Dn4
 .byte   W08
 .byte   Fn3
 .byte   W08
 .byte   En3
 .byte   W08
 .byte   An3
 .byte   W08
 .byte   Gn3
 .byte   W08
 .byte   En3
 .byte   W08
 .byte   Gn3
 .byte   W08
 .byte   An2
 .byte   W08
@  #04 @044   ----------------------------------------
 .byte   N07
 .byte   W08
 .byte   Cn3
 .byte   W08
 .byte   En3
 .byte   W08
 .byte   N07
 .byte   W08
 .byte   An3
 .byte   W08
 .byte   Cn4
 .byte   W08
 .byte   An3
 .byte   W08
 .byte   Cn4
 .byte   W08
 .byte   En4
 .byte   W08
 .byte   N23 ,Fn4
 .byte   W24
@  #04 @045   ----------------------------------------
 .byte   W96
@  #04 @046   ----------------------------------------
 .byte   W96
@  #04 @047   ----------------------------------------
 .byte   W96
@  #04 @048   ----------------------------------------
 .byte   W96
@  #04 @049   ----------------------------------------
 .byte   N44 ,Gs3 ,v052
 .byte   W48
 .byte   Fs3
 .byte   W48
@  #04 @050   ----------------------------------------
 .byte   N44
 .byte   W48
 .byte   En3
 .byte   W48
@  #04 @051   ----------------------------------------
 .byte   N44
 .byte   W48
 .byte   N44
 .byte   W48
@  #04 @052   ----------------------------------------
 .byte   N92 ,Ds3
 .byte   W96
@  #04 @053   ----------------------------------------
 .byte   W96
@  #04 @054   ----------------------------------------
Label_015F3F1F:
 .byte   N44 ,As2 ,v012
 .byte   W48
 .byte   As2 ,v036
 .byte   W48
 .byte   PEND 
@  #04 @055   ----------------------------------------
Label_015F3F27:
 .byte   N44 ,As2 ,v036
 .byte   W48
 .byte   N44
 .byte   W48
 .byte   PEND 
@  #04 @056   ----------------------------------------
Label_015F3F2E:
 .byte   N44 ,Bn2 ,v036
 .byte   W48
 .byte   N44
 .byte   W48
 .byte   PEND 
@  #04 @057   ----------------------------------------
 .byte   PATT
  .word Label_015F3F2E
@  #04 @058   ----------------------------------------
 .byte   PATT
  .word Label_015F3F1F
@  #04 @059   ----------------------------------------
 .byte   PATT
  .word Label_015F3F27
@  #04 @060   ----------------------------------------
 .byte   N44 ,Bn2 ,v036
 .byte   W48
 .byte   Bn2 ,v040
 .byte   W48
@  #04 @061   ----------------------------------------
 .byte   Fs2 ,v048
 .byte   W48
 .byte   Fn2 ,v056
 .byte   W48
@  #04 @062   ----------------------------------------
 .byte   W96
@  #04 @063   ----------------------------------------
 .byte   W96
@  #04 @064   ----------------------------------------
 .byte   W96
@  #04 @065   ----------------------------------------
 .byte   W96
@  #04 @066   ----------------------------------------
 .byte   W96
@  #04 @067   ----------------------------------------
 .byte   W96
@  #04 @068   ----------------------------------------
 .byte   W96
@  #04 @069   ----------------------------------------
 .byte   W96
@  #04 @070   ----------------------------------------
 .byte   W96
@  #04 @071   ----------------------------------------
 .byte   W24
 .byte   N68 ,An2 ,v076
 .byte   W72
@  #04 @072   ----------------------------------------
Label_015F3F5F:
 .byte   N11 ,As2 ,v080
 .byte   W24
 .byte   N03
 .byte   W08
 .byte   N03
 .byte   W08
 .byte   N03
 .byte   W08
 .byte   N11 ,Cs3
 .byte   W24
 .byte   N11
 .byte   W24
 .byte   PEND 
@  #04 @073   ----------------------------------------
 .byte   Cn3
 .byte   W24
 .byte   N03
 .byte   W08
 .byte   N03
 .byte   W08
 .byte   N03
 .byte   W08
 .byte   N11 ,Ds3
 .byte   W24
 .byte   N11
 .byte   W24
@  #04 @074   ----------------------------------------
 .byte   Fn3
 .byte   W24
 .byte   N03
 .byte   W08
 .byte   N03
 .byte   W08
 .byte   N03
 .byte   W08
 .byte   N11
 .byte   W24
 .byte   N11
 .byte   W24
@  #04 @075   ----------------------------------------
 .byte   Ds3
 .byte   W24
 .byte   N03
 .byte   W08
 .byte   N03
 .byte   W08
 .byte   N03
 .byte   W08
 .byte   N11 ,Cs3
 .byte   W24
 .byte   Cn3
 .byte   W24
@  #04 @076   ----------------------------------------
 .byte   PATT
  .word Label_015F3F5F
@  #04 @077   ----------------------------------------
 .byte   N11 ,Cn3 ,v080
 .byte   W24
 .byte   N03
 .byte   W08
 .byte   N03
 .byte   W08
 .byte   N03
 .byte   W08
 .byte   N11 ,Ds3
 .byte   W24
 .byte   Cs3
 .byte   W24
@  #04 @078   ----------------------------------------
 .byte   Cn3
 .byte   W24
 .byte   N03
 .byte   W08
 .byte   N03
 .byte   W08
 .byte   N03
 .byte   W08
 .byte   N11 ,Cs3
 .byte   W24
 .byte   Cn3
 .byte   W24
@  #04 @079   ----------------------------------------
 .byte   Cs3
 .byte   W24
 .byte   N11
 .byte   W24
 .byte   N44
 .byte   W48
@  #04 @080   ----------------------------------------
 .byte   W96
@  #04 @081   ----------------------------------------
 .byte   W96
@  #04 @082   ----------------------------------------
 .byte   W96
@  #04 @083   ----------------------------------------
 .byte   W96
@  #04 @084   ----------------------------------------
 .byte   W96
@  #04 @085   ----------------------------------------
 .byte   W96
@  #04 @086   ----------------------------------------
 .byte   W96
@  #04 @087   ----------------------------------------
 .byte   N92 ,Ds3 ,v036
 .byte   W96
@  #04 @088   ----------------------------------------
 .byte   Cs3
 .byte   W96
@  #04 @089   ----------------------------------------
 .byte   Cn3
 .byte   W96
@  #04 @090   ----------------------------------------
 .byte   Cs3
 .byte   W96
@  #04 @091   ----------------------------------------
 .byte   Ds3
 .byte   W96
@  #04 @092   ----------------------------------------
 .byte   N44 ,Cs3 ,v044
 .byte   W48
 .byte   Gs2 ,v052
 .byte   W48
@  #04 @093   ----------------------------------------
 .byte   Cn3 ,v056
 .byte   W48
 .byte   Cs3 ,v064
 .byte   W48
@  #04 @094   ----------------------------------------
 .byte   N92 ,Ds3 ,v068
 .byte   W96
@  #04 @095   ----------------------------------------
 .byte   PATT
  .word Label_015F3DC6
@  #04 @096   ----------------------------------------
 .byte   PATT
  .word Label_015F3DB7
@  #04 @097   ----------------------------------------
 .byte   PATT
  .word Label_015F3DC6
@  #04 @098   ----------------------------------------
 .byte   PATT
  .word Label_015F3DD6
@  #04 @099   ----------------------------------------
 .byte   PATT
  .word Label_015F3DC6
@  #04 @100   ----------------------------------------
 .byte   PATT
  .word Label_015F3DB7
@  #04 @101   ----------------------------------------
 .byte   PATT
  .word Label_015F3DC6
@  #04 @102   ----------------------------------------
 .byte   PATT
  .word Label_015F3DD6
@  #04 @103   ----------------------------------------
 .byte   GOTO
  .word Label_015F3DF9
 .byte   FINE

@**************** Track 5 (Midi-Chn.4) ****************@

song01_005:
@  #05 @000   ----------------------------------------
 .byte   KEYSH , song01_key+0
 .byte   VOICE , 48
 .byte   VOL , 25*song01_mvl/mxv
 .byte   PAN , c_v+0
 .byte   N11 ,Fn2 ,v096
 .byte   W24
 .byte   N03
 .byte   W08
 .byte   N03
 .byte   W08
 .byte   N03
 .byte   W08
 .byte   N11
 .byte   W24
 .byte   N11
 .byte   W24
@  #05 @001   ----------------------------------------
Label_015F4026:
 .byte   N11 ,Fn2 ,v096
 .byte   W24
 .byte   N11
 .byte   W24
 .byte   N11
 .byte   W24
 .byte   N03
 .byte   W08
 .byte   N03
 .byte   W08
 .byte   N03
 .byte   W08
 .byte   PEND 
@  #05 @002   ----------------------------------------
Label_015F4035:
 .byte   N11 ,Fs2 ,v096
 .byte   W24
 .byte   N03
 .byte   W08
 .byte   N03
 .byte   W08
 .byte   N03
 .byte   W08
 .byte   N11
 .byte   W24
 .byte   N11
 .byte   W24
 .byte   PEND 
@  #05 @003   ----------------------------------------
Label_015F4044:
 .byte   N11 ,Gs2 ,v096
 .byte   W24
 .byte   N11
 .byte   W24
 .byte   N11
 .byte   W24
 .byte   N03
 .byte   W08
 .byte   N03
 .byte   W08
 .byte   N03
 .byte   W08
 .byte   PEND 
@  #05 @004   ----------------------------------------
Label_015F4053:
 .byte   N11 ,Fn2 ,v096
 .byte   W24
 .byte   N03
 .byte   W08
 .byte   N03
 .byte   W08
 .byte   N03
 .byte   W08
 .byte   N11
 .byte   W24
 .byte   N11
 .byte   W24
 .byte   PEND 
@  #05 @005   ----------------------------------------
 .byte   PATT
  .word Label_015F4026
@  #05 @006   ----------------------------------------
 .byte   PATT
  .word Label_015F4035
@  #05 @007   ----------------------------------------
 .byte   PATT
  .word Label_015F4044
@  #05 @008   ----------------------------------------
Label_015F4071:
@  #05 @009   ----------------------------------------
 .byte   PATT
  .word Label_015F4053
@  #05 @010   ----------------------------------------
 .byte   PATT
  .word Label_015F4026
@  #05 @011   ----------------------------------------
 .byte   PATT
  .word Label_015F4035
@  #05 @012   ----------------------------------------
 .byte   PATT
  .word Label_015F4044
@  #05 @013   ----------------------------------------
 .byte   PATT
  .word Label_015F4053
@  #05 @014   ----------------------------------------
 .byte   PATT
  .word Label_015F4026
@  #05 @015   ----------------------------------------
 .byte   PATT
  .word Label_015F4035
@  #05 @016   ----------------------------------------
 .byte   PATT
  .word Label_015F4044
@  #05 @017   ----------------------------------------
 .byte   PATT
  .word Label_015F4053
@  #05 @018   ----------------------------------------
 .byte   PATT
  .word Label_015F4026
@  #05 @019   ----------------------------------------
 .byte   PATT
  .word Label_015F4035
@  #05 @020   ----------------------------------------
 .byte   PATT
  .word Label_015F4044
@  #05 @021   ----------------------------------------
 .byte   N92 ,Ds2 ,v052
 .byte   W96
@  #05 @022   ----------------------------------------
 .byte   Fn2
 .byte   W96
@  #05 @023   ----------------------------------------
 .byte   Fs2
 .byte   W96
@  #05 @024   ----------------------------------------
 .byte   Fn2
 .byte   W96
@  #05 @025   ----------------------------------------
 .byte   Ds2
 .byte   W96
@  #05 @026   ----------------------------------------
 .byte   Fn2
 .byte   W96
@  #05 @027   ----------------------------------------
 .byte   Gn2
 .byte   W96
@  #05 @028   ----------------------------------------
 .byte   N44 ,Fn3 ,v096
 .byte   W48
 .byte   N23 ,Gn3 ,v108
 .byte   W48
@  #05 @029   ----------------------------------------
 .byte   N11 ,As2 ,v096
 .byte   W24
 .byte   N03
 .byte   W08
 .byte   N03
 .byte   W08
 .byte   N03
 .byte   W08
 .byte   N11 ,Cn3
 .byte   W24
 .byte   N11
 .byte   W24
@  #05 @030   ----------------------------------------
 .byte   Dn3
 .byte   W24
 .byte   N03
 .byte   W08
 .byte   N03
 .byte   W08
 .byte   N03
 .byte   W08
 .byte   N11 ,An2
 .byte   W24
 .byte   N11
 .byte   W24
@  #05 @031   ----------------------------------------
 .byte   As2
 .byte   W24
 .byte   N03
 .byte   W08
 .byte   N03
 .byte   W08
 .byte   N03
 .byte   W08
 .byte   N11 ,An2
 .byte   W24
 .byte   N11
 .byte   W24
@  #05 @032   ----------------------------------------
 .byte   Dn3
 .byte   W24
 .byte   N11
 .byte   W24
 .byte   N23
 .byte   W24
 .byte   N07 ,En3
 .byte   W08
 .byte   Fn3
 .byte   W08
 .byte   Dn3
 .byte   W08
@  #05 @033   ----------------------------------------
 .byte   N44 ,An2 ,v064
 .byte   W48
 .byte   Gn2
 .byte   W48
@  #05 @034   ----------------------------------------
 .byte   N44
 .byte   W48
 .byte   An2
 .byte   W48
@  #05 @035   ----------------------------------------
 .byte   Dn3
 .byte   W48
 .byte   Cn3
 .byte   W48
@  #05 @036   ----------------------------------------
 .byte   N44
 .byte   W48
 .byte   Dn3
 .byte   W48
@  #05 @037   ----------------------------------------
Label_015F410D:
 .byte   N11 ,Fn3 ,v096
 .byte   W24
 .byte   N03
 .byte   W08
 .byte   N03
 .byte   W08
 .byte   N03
 .byte   W08
 .byte   N11 ,En3
 .byte   W24
 .byte   N11
 .byte   W24
 .byte   PEND 
@  #05 @038   ----------------------------------------
Label_015F411D:
 .byte   N11 ,Gn3 ,v096
 .byte   W24
 .byte   N03
 .byte   W08
 .byte   N03
 .byte   W08
 .byte   N03
 .byte   W08
 .byte   N11 ,Fn3
 .byte   W24
 .byte   N11
 .byte   W24
 .byte   PEND 
@  #05 @039   ----------------------------------------
 .byte   PATT
  .word Label_015F410D
@  #05 @040   ----------------------------------------
 .byte   N11 ,Gn3 ,v096
 .byte   W24
 .byte   N11
 .byte   W24
 .byte   N23 ,Fn3
 .byte   W48
@  #05 @041   ----------------------------------------
 .byte   PATT
  .word Label_015F410D
@  #05 @042   ----------------------------------------
 .byte   PATT
  .word Label_015F411D
@  #05 @043   ----------------------------------------
 .byte   PATT
  .word Label_015F410D
@  #05 @044   ----------------------------------------
 .byte   N11 ,En3 ,v096
 .byte   W24
 .byte   N11
 .byte   W24
 .byte   N23
 .byte   W48
@  #05 @045   ----------------------------------------
Label_015F4152:
 .byte   N11 ,Ds2 ,v064
 .byte   W24
 .byte   N07
 .byte   W08
 .byte   N07
 .byte   W08
 .byte   N07
 .byte   W08
 .byte   N11
 .byte   W24
 .byte   N11
 .byte   W24
 .byte   PEND 
@  #05 @046   ----------------------------------------
 .byte   Dn2
 .byte   W24
 .byte   N07
 .byte   W08
 .byte   N07
 .byte   W08
 .byte   N07
 .byte   W08
 .byte   N11
 .byte   W24
 .byte   N11
 .byte   W24
@  #05 @047   ----------------------------------------
Label_015F416D:
 .byte   N11 ,Fs2 ,v064
 .byte   W24
 .byte   N07
 .byte   W08
 .byte   N07
 .byte   W08
 .byte   N07
 .byte   W08
 .byte   N11
 .byte   W24
 .byte   N11
 .byte   W24
 .byte   PEND 
@  #05 @048   ----------------------------------------
 .byte   Fn2
 .byte   W24
 .byte   N07
 .byte   W08
 .byte   N07
 .byte   W08
 .byte   N07
 .byte   W08
 .byte   N11
 .byte   W24
 .byte   N11
 .byte   W24
@  #05 @049   ----------------------------------------
 .byte   An2
 .byte   W24
 .byte   N07
 .byte   W08
 .byte   N07
 .byte   W08
 .byte   N07
 .byte   W08
 .byte   N11
 .byte   W24
 .byte   N11
 .byte   W24
@  #05 @050   ----------------------------------------
 .byte   Gs2
 .byte   W24
 .byte   N07
 .byte   W08
 .byte   N07
 .byte   W08
 .byte   N07
 .byte   W08
 .byte   N11
 .byte   W24
 .byte   N11
 .byte   W24
@  #05 @051   ----------------------------------------
 .byte   PATT
  .word Label_015F416D
@  #05 @052   ----------------------------------------
 .byte   PATT
  .word Label_015F4152
@  #05 @053   ----------------------------------------
 .byte   PATT
  .word Label_015F4152
@  #05 @054   ----------------------------------------
 .byte   W96
@  #05 @055   ----------------------------------------
 .byte   W96
@  #05 @056   ----------------------------------------
 .byte   W96
@  #05 @057   ----------------------------------------
 .byte   W96
@  #05 @058   ----------------------------------------
 .byte   W96
@  #05 @059   ----------------------------------------
 .byte   W96
@  #05 @060   ----------------------------------------
 .byte   W96
@  #05 @061   ----------------------------------------
 .byte   W96
@  #05 @062   ----------------------------------------
Label_015F41B7:
 .byte   N11 ,As2 ,v080
 .byte   W24
 .byte   N03
 .byte   W08
 .byte   N03
 .byte   W08
 .byte   N03
 .byte   W08
 .byte   N11
 .byte   W24
 .byte   N11
 .byte   W24
 .byte   PEND 
@  #05 @063   ----------------------------------------
Label_015F41C6:
 .byte   N11 ,Cn3 ,v080
 .byte   W24
 .byte   N03
 .byte   W08
 .byte   N03
 .byte   W08
 .byte   N03
 .byte   W08
 .byte   N11
 .byte   W24
 .byte   N11
 .byte   W24
 .byte   PEND 
@  #05 @064   ----------------------------------------
 .byte   Cs3
 .byte   W24
 .byte   N03
 .byte   W08
 .byte   N03
 .byte   W08
 .byte   N03
 .byte   W08
 .byte   N11
 .byte   W24
 .byte   N11
 .byte   W24
@  #05 @065   ----------------------------------------
 .byte   PATT
  .word Label_015F41C6
@  #05 @066   ----------------------------------------
 .byte   PATT
  .word Label_015F41B7
@  #05 @067   ----------------------------------------
 .byte   N11 ,Ds3 ,v080
 .byte   W24
 .byte   N03
 .byte   W08
 .byte   N03
 .byte   W08
 .byte   N03
 .byte   W08
 .byte   N11
 .byte   W24
 .byte   N11
 .byte   W24
@  #05 @068   ----------------------------------------
 .byte   Fn3
 .byte   W24
 .byte   N03
 .byte   W08
 .byte   N03
 .byte   W08
 .byte   N03
 .byte   W08
 .byte   N11
 .byte   W24
 .byte   N11
 .byte   W24
@  #05 @069   ----------------------------------------
 .byte   As2
 .byte   W24
 .byte   N03
 .byte   W08
 .byte   N03
 .byte   W08
 .byte   N03
 .byte   W08
 .byte   N11 ,An2
 .byte   W24
 .byte   N11
 .byte   W24
@  #05 @070   ----------------------------------------
 .byte   W96
@  #05 @071   ----------------------------------------
 .byte   W24
 .byte   N68 ,Fn2 ,v096
 .byte   W72
@  #05 @072   ----------------------------------------
Label_015F4218:
 .byte   N11 ,Fs2 ,v080
 .byte   W24
 .byte   N03
 .byte   W08
 .byte   N03
 .byte   W08
 .byte   N03
 .byte   W08
 .byte   N11
 .byte   W24
 .byte   N11
 .byte   W24
 .byte   PEND 
@  #05 @073   ----------------------------------------
Label_015F4227:
 .byte   N11 ,Gs2 ,v080
 .byte   W24
 .byte   N03
 .byte   W08
 .byte   N03
 .byte   W08
 .byte   N03
 .byte   W08
 .byte   N11
 .byte   W24
 .byte   N11
 .byte   W24
 .byte   PEND 
@  #05 @074   ----------------------------------------
 .byte   PATT
  .word Label_015F41B7
@  #05 @075   ----------------------------------------
 .byte   PATT
  .word Label_015F41B7
@  #05 @076   ----------------------------------------
 .byte   PATT
  .word Label_015F4218
@  #05 @077   ----------------------------------------
 .byte   PATT
  .word Label_015F4227
@  #05 @078   ----------------------------------------
 .byte   N11 ,Fn2 ,v080
 .byte   W24
 .byte   N03
 .byte   W08
 .byte   N03
 .byte   W08
 .byte   N03
 .byte   W08
 .byte   N11
 .byte   W24
 .byte   N11
 .byte   W24
@  #05 @079   ----------------------------------------
 .byte   As2
 .byte   W24
 .byte   N11
 .byte   W24
 .byte   N44
 .byte   W48
@  #05 @080   ----------------------------------------
 .byte   W96
@  #05 @081   ----------------------------------------
 .byte   W96
@  #05 @082   ----------------------------------------
 .byte   W96
@  #05 @083   ----------------------------------------
 .byte   W96
@  #05 @084   ----------------------------------------
 .byte   W96
@  #05 @085   ----------------------------------------
 .byte   W96
@  #05 @086   ----------------------------------------
 .byte   W96
@  #05 @087   ----------------------------------------
 .byte   W96
@  #05 @088   ----------------------------------------
 .byte   W96
@  #05 @089   ----------------------------------------
 .byte   W96
@  #05 @090   ----------------------------------------
 .byte   W96
@  #05 @091   ----------------------------------------
 .byte   W96
@  #05 @092   ----------------------------------------
 .byte   W96
@  #05 @093   ----------------------------------------
 .byte   W96
@  #05 @094   ----------------------------------------
 .byte   W96
@  #05 @095   ----------------------------------------
 .byte   PATT
  .word Label_015F4053
@  #05 @096   ----------------------------------------
 .byte   PATT
  .word Label_015F4026
@  #05 @097   ----------------------------------------
 .byte   PATT
  .word Label_015F4035
@  #05 @098   ----------------------------------------
 .byte   PATT
  .word Label_015F4044
@  #05 @099   ----------------------------------------
 .byte   PATT
  .word Label_015F4053
@  #05 @100   ----------------------------------------
 .byte   PATT
  .word Label_015F4026
@  #05 @101   ----------------------------------------
 .byte   PATT
  .word Label_015F4035
@  #05 @102   ----------------------------------------
 .byte   PATT
  .word Label_015F4044
@  #05 @103   ----------------------------------------
 .byte   GOTO
  .word Label_015F4071
 .byte   FINE

@**************** Track 6 (Midi-Chn.5) ****************@

song01_006:
@  #06 @000   ----------------------------------------
 .byte   KEYSH , song01_key+0
 .byte   VOICE , 48
 .byte   VOL , 20*song01_mvl/mxv
 .byte   PAN , c_v+0
 .byte   N11 ,As1 ,v096
 .byte   W24
 .byte   N03
 .byte   W08
 .byte   N03
 .byte   W08
 .byte   N03
 .byte   W08
 .byte   N11
 .byte   W24
 .byte   N11
 .byte   W24
@  #06 @001   ----------------------------------------
Label_015F42B2:
 .byte   N11 ,As1 ,v096
 .byte   W24
 .byte   N11
 .byte   W24
 .byte   N11
 .byte   W24
 .byte   N03
 .byte   W08
 .byte   N03
 .byte   W08
 .byte   N03
 .byte   W08
 .byte   PEND 
@  #06 @002   ----------------------------------------
Label_015F42C1:
 .byte   N11 ,Fs1 ,v096
 .byte   W24
 .byte   N03
 .byte   W08
 .byte   N03
 .byte   W08
 .byte   N03
 .byte   W08
 .byte   N11
 .byte   W24
 .byte   N11
 .byte   W24
 .byte   PEND 
@  #06 @003   ----------------------------------------
Label_015F42D0:
 .byte   N11 ,Gs1 ,v096
 .byte   W24
 .byte   N11
 .byte   W24
 .byte   N11
 .byte   W24
 .byte   N03
 .byte   W08
 .byte   N03
 .byte   W08
 .byte   N03
 .byte   W08
 .byte   PEND 
@  #06 @004   ----------------------------------------
Label_015F42DF:
 .byte   N11 ,As1 ,v096
 .byte   W24
 .byte   N03
 .byte   W08
 .byte   N03
 .byte   W08
 .byte   N03
 .byte   W08
 .byte   N11
 .byte   W24
 .byte   N11
 .byte   W24
 .byte   PEND 
@  #06 @005   ----------------------------------------
 .byte   PATT
  .word Label_015F42B2
@  #06 @006   ----------------------------------------
 .byte   PATT
  .word Label_015F42C1
@  #06 @007   ----------------------------------------
 .byte   PATT
  .word Label_015F42D0
@  #06 @008   ----------------------------------------
Label_015F42FD:
@  #06 @009   ----------------------------------------
 .byte   PATT
  .word Label_015F42DF
@  #06 @010   ----------------------------------------
 .byte   PATT
  .word Label_015F42B2
@  #06 @011   ----------------------------------------
 .byte   PATT
  .word Label_015F42C1
@  #06 @012   ----------------------------------------
 .byte   PATT
  .word Label_015F42D0
@  #06 @013   ----------------------------------------
 .byte   PATT
  .word Label_015F42DF
@  #06 @014   ----------------------------------------
 .byte   PATT
  .word Label_015F42B2
@  #06 @015   ----------------------------------------
 .byte   PATT
  .word Label_015F42C1
@  #06 @016   ----------------------------------------
 .byte   PATT
  .word Label_015F42D0
@  #06 @017   ----------------------------------------
 .byte   PATT
  .word Label_015F42DF
@  #06 @018   ----------------------------------------
 .byte   PATT
  .word Label_015F42B2
@  #06 @019   ----------------------------------------
 .byte   PATT
  .word Label_015F42C1
@  #06 @020   ----------------------------------------
 .byte   PATT
  .word Label_015F42D0
@  #06 @021   ----------------------------------------
 .byte   N92 ,Ds2 ,v052
 .byte   W96
@  #06 @022   ----------------------------------------
 .byte   Fn2
 .byte   W96
@  #06 @023   ----------------------------------------
 .byte   Fs2
 .byte   W96
@  #06 @024   ----------------------------------------
 .byte   Fn2
 .byte   W96
@  #06 @025   ----------------------------------------
 .byte   Ds2
 .byte   W96
@  #06 @026   ----------------------------------------
 .byte   Fn2
 .byte   W96
@  #06 @027   ----------------------------------------
 .byte   Gn2
 .byte   W96
@  #06 @028   ----------------------------------------
 .byte   W48
 .byte   N44 ,An2 ,v072
 .byte   W48
@  #06 @029   ----------------------------------------
 .byte   PATT
  .word Label_015F42DF
@  #06 @030   ----------------------------------------
 .byte   N11 ,An1 ,v096
 .byte   W24
 .byte   N03
 .byte   W08
 .byte   N03
 .byte   W08
 .byte   N03
 .byte   W08
 .byte   N11
 .byte   W24
 .byte   N11
 .byte   W24
@  #06 @031   ----------------------------------------
Label_015F4361:
 .byte   N11 ,As1 ,v096
 .byte   W24
 .byte   N03
 .byte   W08
 .byte   N03
 .byte   W08
 .byte   N03
 .byte   W08
 .byte   N11 ,An1
 .byte   W24
 .byte   N11
 .byte   W24
 .byte   PEND 
@  #06 @032   ----------------------------------------
 .byte   N11
 .byte   W24
 .byte   N11
 .byte   W24
 .byte   N23
 .byte   W48
@  #06 @033   ----------------------------------------
 .byte   W96
@  #06 @034   ----------------------------------------
 .byte   W96
@  #06 @035   ----------------------------------------
 .byte   W96
@  #06 @036   ----------------------------------------
 .byte   W96
@  #06 @037   ----------------------------------------
Label_015F437B:
 .byte   N11 ,As1 ,v096
 .byte   W24
 .byte   N03
 .byte   W08
 .byte   N03
 .byte   W08
 .byte   N03
 .byte   W08
 .byte   N11 ,Cn2
 .byte   W24
 .byte   N11
 .byte   W24
 .byte   PEND 
@  #06 @038   ----------------------------------------
Label_015F438B:
 .byte   N11 ,Dn2 ,v096
 .byte   W24
 .byte   N03
 .byte   W08
 .byte   N03
 .byte   W08
 .byte   N03
 .byte   W08
 .byte   N11 ,An1
 .byte   W24
 .byte   N11
 .byte   W24
 .byte   PEND 
@  #06 @039   ----------------------------------------
 .byte   PATT
  .word Label_015F4361
@  #06 @040   ----------------------------------------
Label_015F43A0:
 .byte   N11 ,Dn2 ,v096
 .byte   W24
 .byte   N11
 .byte   W24
 .byte   N23
 .byte   W48
 .byte   PEND 
@  #06 @041   ----------------------------------------
 .byte   PATT
  .word Label_015F437B
@  #06 @042   ----------------------------------------
 .byte   PATT
  .word Label_015F438B
@  #06 @043   ----------------------------------------
 .byte   N11 ,Gn1 ,v096
 .byte   W24
 .byte   N03
 .byte   W08
 .byte   N03
 .byte   W08
 .byte   N03
 .byte   W08
 .byte   N11 ,An1
 .byte   W24
 .byte   N11
 .byte   W24
@  #06 @044   ----------------------------------------
 .byte   PATT
  .word Label_015F43A0
@  #06 @045   ----------------------------------------
Label_015F43C7:
 .byte   N11 ,Ds2 ,v080
 .byte   W24
 .byte   N07
 .byte   W08
 .byte   N07
 .byte   W08
 .byte   N07
 .byte   W08
 .byte   N11
 .byte   W24
 .byte   N11
 .byte   W24
 .byte   PEND 
@  #06 @046   ----------------------------------------
 .byte   Dn2
 .byte   W24
 .byte   N07
 .byte   W08
 .byte   N07
 .byte   W08
 .byte   N07
 .byte   W08
 .byte   N11
 .byte   W24
 .byte   N11
 .byte   W24
@  #06 @047   ----------------------------------------
Label_015F43E2:
 .byte   N11 ,Fs2 ,v080
 .byte   W24
 .byte   N07
 .byte   W08
 .byte   N07
 .byte   W08
 .byte   N07
 .byte   W08
 .byte   N11
 .byte   W24
 .byte   N11
 .byte   W24
 .byte   PEND 
@  #06 @048   ----------------------------------------
 .byte   Fn2
 .byte   W24
 .byte   N07
 .byte   W08
 .byte   N07
 .byte   W08
 .byte   N07
 .byte   W08
 .byte   N11
 .byte   W24
 .byte   N11
 .byte   W24
@  #06 @049   ----------------------------------------
 .byte   An2
 .byte   W24
 .byte   N07
 .byte   W08
 .byte   N07
 .byte   W08
 .byte   N07
 .byte   W08
 .byte   N11
 .byte   W24
 .byte   N11
 .byte   W24
@  #06 @050   ----------------------------------------
 .byte   Gs2
 .byte   W24
 .byte   N07
 .byte   W08
 .byte   N07
 .byte   W08
 .byte   N07
 .byte   W08
 .byte   N11
 .byte   W24
 .byte   N11
 .byte   W24
@  #06 @051   ----------------------------------------
 .byte   PATT
  .word Label_015F43E2
@  #06 @052   ----------------------------------------
 .byte   PATT
  .word Label_015F43C7
@  #06 @053   ----------------------------------------
 .byte   PATT
  .word Label_015F43C7
@  #06 @054   ----------------------------------------
Label_015F4424:
 .byte   N11 ,As1 ,v060
 .byte   W24
 .byte   N07
 .byte   W08
 .byte   N07
 .byte   W08
 .byte   N07
 .byte   W08
 .byte   N11
 .byte   W24
 .byte   N11
 .byte   W24
 .byte   PEND 
@  #06 @055   ----------------------------------------
 .byte   PATT
  .word Label_015F4424
@  #06 @056   ----------------------------------------
Label_015F4438:
 .byte   N11 ,Bn1 ,v060
 .byte   W24
 .byte   N07
 .byte   W08
 .byte   N07
 .byte   W08
 .byte   N07
 .byte   W08
 .byte   N11
 .byte   W24
 .byte   N11
 .byte   W24
 .byte   PEND 
@  #06 @057   ----------------------------------------
 .byte   PATT
  .word Label_015F4438
@  #06 @058   ----------------------------------------
 .byte   PATT
  .word Label_015F4424
@  #06 @059   ----------------------------------------
 .byte   PATT
  .word Label_015F4424
@  #06 @060   ----------------------------------------
 .byte   PATT
  .word Label_015F4438
@  #06 @061   ----------------------------------------
 .byte   N11 ,As1 ,v064
 .byte   W24
 .byte   N07 ,As1 ,v068
 .byte   W08
 .byte   As1 ,v072
 .byte   W08
 .byte   N07
 .byte   W08
 .byte   N11 ,An1
 .byte   W24
 .byte   An1 ,v076
 .byte   W24
@  #06 @062   ----------------------------------------
 .byte   Ds1 ,v080
 .byte   W24
 .byte   N03
 .byte   W08
 .byte   N03
 .byte   W08
 .byte   N03
 .byte   W08
 .byte   N11
 .byte   W24
 .byte   N11
 .byte   W24
@  #06 @063   ----------------------------------------
 .byte   Fn1
 .byte   W24
 .byte   N03
 .byte   W08
 .byte   N03
 .byte   W08
 .byte   N03
 .byte   W08
 .byte   N11 ,An1
 .byte   W24
 .byte   N11
 .byte   W24
@  #06 @064   ----------------------------------------
 .byte   As1
 .byte   W24
 .byte   N03
 .byte   W08
 .byte   N03
 .byte   W08
 .byte   N03
 .byte   W08
 .byte   N11
 .byte   W24
 .byte   N11
 .byte   W24
@  #06 @065   ----------------------------------------
Label_015F4494:
 .byte   N11 ,Fs1 ,v080
 .byte   W24
 .byte   N03
 .byte   W08
 .byte   N03
 .byte   W08
 .byte   N03
 .byte   W08
 .byte   N11 ,Fn1
 .byte   W24
 .byte   N11
 .byte   W24
 .byte   PEND 
@  #06 @066   ----------------------------------------
 .byte   Fs1
 .byte   W24
 .byte   N03
 .byte   W08
 .byte   N03
 .byte   W08
 .byte   N03
 .byte   W08
 .byte   N11
 .byte   W24
 .byte   N11
 .byte   W24
@  #06 @067   ----------------------------------------
 .byte   Bn1
 .byte   W24
 .byte   N03
 .byte   W08
 .byte   N03
 .byte   W08
 .byte   N03
 .byte   W08
 .byte   N11
 .byte   W24
 .byte   N11
 .byte   W24
@  #06 @068   ----------------------------------------
 .byte   Cn2
 .byte   W24
 .byte   N03
 .byte   W08
 .byte   N03
 .byte   W08
 .byte   N03
 .byte   W08
 .byte   N11
 .byte   W24
 .byte   N11
 .byte   W24
@  #06 @069   ----------------------------------------
 .byte   PATT
  .word Label_015F4494
@  #06 @070   ----------------------------------------
 .byte   W96
@  #06 @071   ----------------------------------------
 .byte   W96
@  #06 @072   ----------------------------------------
Label_015F44CF:
 .byte   N11 ,Fs2 ,v080
 .byte   N11 ,Fs3
 .byte   W24
 .byte   N03 ,Fs2
 .byte   N03 ,Fs3
 .byte   W08
 .byte   Fs2
 .byte   N03 ,Fs3
 .byte   W08
 .byte   Fs2
 .byte   N03 ,Fs3
 .byte   W08
 .byte   N11 ,Fs2
 .byte   N11 ,Fs3
 .byte   W24
 .byte   Fs2
 .byte   N11 ,Fs3
 .byte   W24
 .byte   PEND 
@  #06 @073   ----------------------------------------
Label_015F44EC:
 .byte   N11 ,Gs2 ,v080
 .byte   N11 ,Gs3
 .byte   W24
 .byte   N03 ,Gs2
 .byte   N03 ,Gs3
 .byte   W08
 .byte   Gs2
 .byte   N03 ,Gs3
 .byte   W08
 .byte   Gs2
 .byte   N03 ,Gs3
 .byte   W08
 .byte   N11 ,Gs2
 .byte   N11 ,Gs3
 .byte   W24
 .byte   Gs2
 .byte   N11 ,Gs3
 .byte   W24
 .byte   PEND 
@  #06 @074   ----------------------------------------
Label_015F4509:
 .byte   N11 ,As2 ,v080
 .byte   N11 ,As3
 .byte   W24
 .byte   N03 ,As2
 .byte   N03 ,As3
 .byte   W08
 .byte   As2
 .byte   N03 ,As3
 .byte   W08
 .byte   As2
 .byte   N03 ,As3
 .byte   W08
 .byte   N11 ,As2
 .byte   N11 ,As3
 .byte   W24
 .byte   As2
 .byte   N11 ,As3
 .byte   W24
 .byte   PEND 
@  #06 @075   ----------------------------------------
 .byte   PATT
  .word Label_015F4509
@  #06 @076   ----------------------------------------
 .byte   PATT
  .word Label_015F44CF
@  #06 @077   ----------------------------------------
 .byte   PATT
  .word Label_015F44EC
@  #06 @078   ----------------------------------------
 .byte   N11 ,Fn2 ,v080
 .byte   N11 ,Fn3
 .byte   W24
 .byte   N03 ,Fn2
 .byte   N03 ,Fn3
 .byte   W08
 .byte   Fn2
 .byte   N03 ,Fn3
 .byte   W08
 .byte   Fn2
 .byte   N03 ,Fn3
 .byte   W08
 .byte   N11 ,Fn2
 .byte   N11 ,Fn3
 .byte   W24
 .byte   Fn2
 .byte   N11 ,Fn3
 .byte   W24
@  #06 @079   ----------------------------------------
 .byte   As2
 .byte   N11 ,As3
 .byte   W24
 .byte   As2
 .byte   N11 ,As3
 .byte   W24
 .byte   N44 ,As2
 .byte   N44 ,As3
 .byte   W48
@  #06 @080   ----------------------------------------
 .byte   W96
@  #06 @081   ----------------------------------------
 .byte   W96
@  #06 @082   ----------------------------------------
 .byte   W96
@  #06 @083   ----------------------------------------
 .byte   W96
@  #06 @084   ----------------------------------------
 .byte   W96
@  #06 @085   ----------------------------------------
 .byte   W96
@  #06 @086   ----------------------------------------
 .byte   W96
@  #06 @087   ----------------------------------------
 .byte   N11 ,As1 ,v052
 .byte   W24
 .byte   N11
 .byte   W24
 .byte   N11
 .byte   W24
 .byte   N11
 .byte   W24
@  #06 @088   ----------------------------------------
 .byte   N11
 .byte   N90 ,Cs4
 .byte   W24
 .byte   N11 ,As1
 .byte   W24
 .byte   Gs1
 .byte   W24
 .byte   N11
 .byte   W24
@  #06 @089   ----------------------------------------
 .byte   Fs1
 .byte   N90 ,Cn4
 .byte   W24
 .byte   N11 ,Fs1
 .byte   W24
 .byte   N11
 .byte   W24
 .byte   N11
 .byte   W24
@  #06 @090   ----------------------------------------
 .byte   N11
 .byte   N90 ,Cs4
 .byte   W24
 .byte   N11 ,Fs1
 .byte   W24
 .byte   N11
 .byte   W24
 .byte   N11
 .byte   W24
@  #06 @091   ----------------------------------------
 .byte   As1
 .byte   N90 ,Ds4
 .byte   W24
 .byte   N11 ,As1
 .byte   W24
 .byte   N11
 .byte   W24
 .byte   As1 ,v056
 .byte   W24
@  #06 @092   ----------------------------------------
 .byte   N11
 .byte   N44 ,Cs4
 .byte   W24
 .byte   N11 ,As1 ,v060
 .byte   W24
 .byte   Gs1
 .byte   W24
 .byte   Gs1 ,v064
 .byte   W24
@  #06 @093   ----------------------------------------
 .byte   Fs1
 .byte   N44 ,Cn4
 .byte   W24
 .byte   N11 ,Fs1 ,v068
 .byte   W24
 .byte   N11
 .byte   W24
 .byte   Fs1 ,v072
 .byte   W24
@  #06 @094   ----------------------------------------
 .byte   N23
 .byte   N90 ,Cn4
 .byte   W24
 .byte   N23 ,Fs1 ,v076
 .byte   W24
 .byte   N23
 .byte   W24
 .byte   Fs1 ,v080
 .byte   W24
@  #06 @095   ----------------------------------------
 .byte   PATT
  .word Label_015F42DF
@  #06 @096   ----------------------------------------
 .byte   PATT
  .word Label_015F42B2
@  #06 @097   ----------------------------------------
 .byte   PATT
  .word Label_015F42C1
@  #06 @098   ----------------------------------------
 .byte   PATT
  .word Label_015F42D0
@  #06 @099   ----------------------------------------
 .byte   PATT
  .word Label_015F42DF
@  #06 @100   ----------------------------------------
 .byte   PATT
  .word Label_015F42B2
@  #06 @101   ----------------------------------------
 .byte   PATT
  .word Label_015F42C1
@  #06 @102   ----------------------------------------
 .byte   PATT
  .word Label_015F42D0
@  #06 @103   ----------------------------------------
 .byte   GOTO
  .word Label_015F42FD
 .byte   FINE

@**************** Track 7 (Midi-Chn.6) ****************@

song01_007:
@  #07 @000   ----------------------------------------
 .byte   KEYSH , song01_key+0
 .byte   VOICE , 73
 .byte   VOL , 34*song01_mvl/mxv
 .byte   W96
@  #07 @001   ----------------------------------------
 .byte   W96
@  #07 @002   ----------------------------------------
 .byte   W96
@  #07 @003   ----------------------------------------
 .byte   W96
@  #07 @004   ----------------------------------------
 .byte   W96
@  #07 @005   ----------------------------------------
 .byte   W96
@  #07 @006   ----------------------------------------
 .byte   N90 ,As3 ,v052
 .byte   W96
@  #07 @007   ----------------------------------------
 .byte   N44 ,Gs4 ,v096
 .byte   W48
 .byte   N22 ,Ds4 ,v076
 .byte   W24
 .byte   Cs4 ,v064
 .byte   W24
@  #07 @008   ----------------------------------------
Label_015F460F:
 .byte   W96
@  #07 @009   ----------------------------------------
 .byte   W96
@  #07 @010   ----------------------------------------
 .byte   N90 ,Cn4 ,v052
 .byte   W96
@  #07 @011   ----------------------------------------
 .byte   Ds4 ,v064
 .byte   W96
@  #07 @012   ----------------------------------------
 .byte   W96
@  #07 @013   ----------------------------------------
 .byte   W96
@  #07 @014   ----------------------------------------
 .byte   W96
@  #07 @015   ----------------------------------------
 .byte   W96
@  #07 @016   ----------------------------------------
 .byte   N30 ,Ds4 ,v124
 .byte   W32
 .byte   N07 ,Fn4
 .byte   W08
 .byte   Ds4
 .byte   W08
 .byte   N44 ,Cs4
 .byte   W48
@  #07 @017   ----------------------------------------
 .byte   N30 ,Cn4
 .byte   W32
 .byte   N07 ,Cs4
 .byte   W08
 .byte   Cn4
 .byte   W08
 .byte   N44 ,As3
 .byte   W48
@  #07 @018   ----------------------------------------
 .byte   N30 ,Fn4 ,v127
 .byte   W32
 .byte   N07 ,Fs4
 .byte   W08
 .byte   Fn4
 .byte   W08
 .byte   N44 ,Ds4
 .byte   W48
@  #07 @019   ----------------------------------------
 .byte   N30 ,Cs4
 .byte   W32
 .byte   N07 ,Ds4
 .byte   W08
 .byte   Cs4
 .byte   W08
 .byte   N44 ,Cn4
 .byte   W48
@  #07 @020   ----------------------------------------
 .byte   W96
@  #07 @021   ----------------------------------------
 .byte   W96
@  #07 @022   ----------------------------------------
 .byte   W96
@  #07 @023   ----------------------------------------
 .byte   W96
@  #07 @024   ----------------------------------------
 .byte   W96
@  #07 @025   ----------------------------------------
 .byte   W96
@  #07 @026   ----------------------------------------
 .byte   W24
 .byte   N07 ,As3 ,v096
 .byte   W08
 .byte   Dn4
 .byte   W08
 .byte   Fn4
 .byte   W08
 .byte   As4
 .byte   W08
 .byte   Fn4
 .byte   W08
 .byte   Dn4
 .byte   W08
 .byte   As3
 .byte   W08
 .byte   Dn4
 .byte   W08
 .byte   As3
 .byte   W08
@  #07 @027   ----------------------------------------
 .byte   N44 ,Cn3 ,v052
 .byte   N44 ,Fn4 ,v116
 .byte   W48
 .byte   N23 ,Gn4
 .byte   W48
@  #07 @028   ----------------------------------------
 .byte   W96
@  #07 @029   ----------------------------------------
 .byte   W96
@  #07 @030   ----------------------------------------
 .byte   W96
@  #07 @031   ----------------------------------------
 .byte   W96
@  #07 @032   ----------------------------------------
 .byte   W96
@  #07 @033   ----------------------------------------
 .byte   W96
@  #07 @034   ----------------------------------------
 .byte   W96
@  #07 @035   ----------------------------------------
 .byte   W96
@  #07 @036   ----------------------------------------
 .byte   W96
@  #07 @037   ----------------------------------------
 .byte   W96
@  #07 @038   ----------------------------------------
 .byte   W96
@  #07 @039   ----------------------------------------
 .byte   W96
@  #07 @040   ----------------------------------------
 .byte   W96
@  #07 @041   ----------------------------------------
 .byte   W96
@  #07 @042   ----------------------------------------
 .byte   W96
@  #07 @043   ----------------------------------------
 .byte   W96
@  #07 @044   ----------------------------------------
 .byte   W96
@  #07 @045   ----------------------------------------
 .byte   W96
@  #07 @046   ----------------------------------------
 .byte   W96
@  #07 @047   ----------------------------------------
 .byte   W96
@  #07 @048   ----------------------------------------
 .byte   W96
@  #07 @049   ----------------------------------------
 .byte   W96
@  #07 @050   ----------------------------------------
 .byte   W96
@  #07 @051   ----------------------------------------
 .byte   W96
@  #07 @052   ----------------------------------------
 .byte   W96
@  #07 @053   ----------------------------------------
 .byte   W96
@  #07 @054   ----------------------------------------
 .byte   W96
@  #07 @055   ----------------------------------------
 .byte   W96
@  #07 @056   ----------------------------------------
 .byte   W96
@  #07 @057   ----------------------------------------
 .byte   W96
@  #07 @058   ----------------------------------------
 .byte   W96
@  #07 @059   ----------------------------------------
 .byte   W96
@  #07 @060   ----------------------------------------
 .byte   W96
@  #07 @061   ----------------------------------------
 .byte   W96
@  #07 @062   ----------------------------------------
 .byte   W96
@  #07 @063   ----------------------------------------
 .byte   W96
@  #07 @064   ----------------------------------------
 .byte   W96
@  #07 @065   ----------------------------------------
 .byte   W96
@  #07 @066   ----------------------------------------
 .byte   W96
@  #07 @067   ----------------------------------------
 .byte   W96
@  #07 @068   ----------------------------------------
 .byte   W96
@  #07 @069   ----------------------------------------
 .byte   W96
@  #07 @070   ----------------------------------------
 .byte   W96
@  #07 @071   ----------------------------------------
 .byte   W96
@  #07 @072   ----------------------------------------
 .byte   W96
@  #07 @073   ----------------------------------------
 .byte   W96
@  #07 @074   ----------------------------------------
 .byte   W96
@  #07 @075   ----------------------------------------
 .byte   W96
@  #07 @076   ----------------------------------------
 .byte   W96
@  #07 @077   ----------------------------------------
 .byte   W96
@  #07 @078   ----------------------------------------
 .byte   W96
@  #07 @079   ----------------------------------------
 .byte   W96
@  #07 @080   ----------------------------------------
 .byte   W96
@  #07 @081   ----------------------------------------
 .byte   W96
@  #07 @082   ----------------------------------------
 .byte   W96
@  #07 @083   ----------------------------------------
 .byte   W96
@  #07 @084   ----------------------------------------
 .byte   W96
@  #07 @085   ----------------------------------------
 .byte   W96
@  #07 @086   ----------------------------------------
 .byte   W96
@  #07 @087   ----------------------------------------
 .byte   W96
@  #07 @088   ----------------------------------------
 .byte   W96
@  #07 @089   ----------------------------------------
 .byte   W96
@  #07 @090   ----------------------------------------
 .byte   W96
@  #07 @091   ----------------------------------------
 .byte   W96
@  #07 @092   ----------------------------------------
 .byte   W96
@  #07 @093   ----------------------------------------
 .byte   W96
@  #07 @094   ----------------------------------------
 .byte   W96
@  #07 @095   ----------------------------------------
 .byte   W96
@  #07 @096   ----------------------------------------
 .byte   W96
@  #07 @097   ----------------------------------------
 .byte   W96
@  #07 @098   ----------------------------------------
 .byte   W96
@  #07 @099   ----------------------------------------
 .byte   W96
@  #07 @100   ----------------------------------------
 .byte   N90 ,As3 ,v052
 .byte   W96
@  #07 @101   ----------------------------------------
 .byte   N44 ,Gs4 ,v096
 .byte   W48
 .byte   N22 ,Ds4 ,v076
 .byte   W24
 .byte   Cn4 ,v064
 .byte   W24
@  #07 @102   ----------------------------------------
 .byte   GOTO
  .word Label_015F460F
 .byte   FINE

@**************** Track 8 (Midi-Chn.7) ****************@

song01_008:
@  #08 @000   ----------------------------------------
 .byte   KEYSH , song01_key+0
 .byte   VOICE , 68
 .byte   VOL , 40*song01_mvl/mxv
 .byte   PAN , c_v+1
 .byte   W96
@  #08 @001   ----------------------------------------
 .byte   W96
@  #08 @002   ----------------------------------------
 .byte   W96
@  #08 @003   ----------------------------------------
 .byte   W96
@  #08 @004   ----------------------------------------
 .byte   W96
@  #08 @005   ----------------------------------------
 .byte   W96
@  #08 @006   ----------------------------------------
 .byte   W96
@  #08 @007   ----------------------------------------
 .byte   W96
@  #08 @008   ----------------------------------------
Label_015F46DC:
 .byte   W96
@  #08 @009   ----------------------------------------
 .byte   W96
@  #08 @010   ----------------------------------------
 .byte   W96
@  #08 @011   ----------------------------------------
 .byte   W96
@  #08 @012   ----------------------------------------
 .byte   W96
@  #08 @013   ----------------------------------------
 .byte   W96
@  #08 @014   ----------------------------------------
 .byte   W96
@  #08 @015   ----------------------------------------
 .byte   W96
@  #08 @016   ----------------------------------------
 .byte   W96
@  #08 @017   ----------------------------------------
 .byte   W96
@  #08 @018   ----------------------------------------
 .byte   W96
@  #08 @019   ----------------------------------------
 .byte   W96
@  #08 @020   ----------------------------------------
 .byte   N44 ,As3 ,v096
 .byte   W48
 .byte   N15 ,Fs3
 .byte   W16
 .byte   As3
 .byte   W16
 .byte   Fn4
 .byte   W16
@  #08 @021   ----------------------------------------
Label_015F46F3:
 .byte   N44 ,Cn4 ,v096
 .byte   W48
 .byte   Gs3
 .byte   W48
 .byte   PEND 
@  #08 @022   ----------------------------------------
 .byte   As3
 .byte   W48
 .byte   N15
 .byte   W16
 .byte   Cn4
 .byte   W16
 .byte   Cs4
 .byte   W16
@  #08 @023   ----------------------------------------
 .byte   PATT
  .word Label_015F46F3
@  #08 @024   ----------------------------------------
 .byte   N44 ,As3 ,v116
 .byte   W48
 .byte   N15 ,Fs3
 .byte   W16
 .byte   As3
 .byte   W16
 .byte   Fn4
 .byte   W16
@  #08 @025   ----------------------------------------
 .byte   N44 ,Cn4
 .byte   W48
 .byte   Gs3
 .byte   W48
@  #08 @026   ----------------------------------------
 .byte   N96 ,As3 ,v096
 .byte   W96
@  #08 @027   ----------------------------------------
 .byte   W96
@  #08 @028   ----------------------------------------
 .byte   W96
@  #08 @029   ----------------------------------------
 .byte   W96
@  #08 @030   ----------------------------------------
 .byte   W96
@  #08 @031   ----------------------------------------
 .byte   W96
@  #08 @032   ----------------------------------------
 .byte   N60 ,An3 ,v127
 .byte   W64
 .byte   N15 ,Gn3
 .byte   W16
 .byte   Fn3
 .byte   W16
@  #08 @033   ----------------------------------------
 .byte   N23 ,En3
 .byte   W24
 .byte   Fn3
 .byte   W24
 .byte   Gn3
 .byte   W24
 .byte   Cn4
 .byte   W24
@  #08 @034   ----------------------------------------
 .byte   N15 ,Dn4
 .byte   W16
 .byte   N07 ,En4
 .byte   W08
 .byte   N44 ,Cn4
 .byte   W48
 .byte   N23 ,An3
 .byte   W24
@  #08 @035   ----------------------------------------
 .byte   N92 ,Dn4
 .byte   W96
@  #08 @036   ----------------------------------------
 .byte   N60 ,An3 ,v104
 .byte   W64
 .byte   N15 ,Gn3
 .byte   W16
 .byte   Fn3
 .byte   W16
@  #08 @037   ----------------------------------------
 .byte   N23 ,En3
 .byte   W24
 .byte   Fn3
 .byte   W24
 .byte   Gn3
 .byte   W24
 .byte   Cn4
 .byte   W24
@  #08 @038   ----------------------------------------
 .byte   N44 ,Gn3
 .byte   W48
 .byte   N15 ,An3
 .byte   W16
 .byte   Gn3
 .byte   W16
 .byte   Fn3
 .byte   W16
@  #08 @039   ----------------------------------------
 .byte   N44 ,En3
 .byte   W48
 .byte   N23 ,Fn3
 .byte   W48
@  #08 @040   ----------------------------------------
 .byte   W96
@  #08 @041   ----------------------------------------
 .byte   W96
@  #08 @042   ----------------------------------------
 .byte   W96
@  #08 @043   ----------------------------------------
 .byte   W96
@  #08 @044   ----------------------------------------
 .byte   W96
@  #08 @045   ----------------------------------------
 .byte   W96
@  #08 @046   ----------------------------------------
 .byte   W96
@  #08 @047   ----------------------------------------
 .byte   W96
@  #08 @048   ----------------------------------------
 .byte   W96
@  #08 @049   ----------------------------------------
 .byte   W96
@  #08 @050   ----------------------------------------
 .byte   W96
@  #08 @051   ----------------------------------------
 .byte   W96
@  #08 @052   ----------------------------------------
 .byte   W96
@  #08 @053   ----------------------------------------
 .byte   N44 ,As2 ,v052
 .byte   W48
 .byte   Fn3
 .byte   W48
@  #08 @054   ----------------------------------------
 .byte   N44
 .byte   W48
 .byte   N23 ,Ds3
 .byte   W24
 .byte   Cs3
 .byte   W24
@  #08 @055   ----------------------------------------
 .byte   N32
 .byte   W36
 .byte   N11 ,Bn2
 .byte   W12
 .byte   N32
 .byte   W36
 .byte   N11 ,Fs3
 .byte   W12
@  #08 @056   ----------------------------------------
 .byte   N32
 .byte   W36
 .byte   N11 ,Fn3
 .byte   W12
 .byte   N44
 .byte   W48
@  #08 @057   ----------------------------------------
 .byte   As2
 .byte   W60
 .byte   N11
 .byte   W12
 .byte   Cs3
 .byte   W12
 .byte   Fn3
 .byte   W12
@  #08 @058   ----------------------------------------
 .byte   N44 ,Gs3
 .byte   W48
 .byte   N23 ,Fs3
 .byte   W24
 .byte   Fn3
 .byte   W24
@  #08 @059   ----------------------------------------
 .byte   N23
 .byte   W24
 .byte   Ds3
 .byte   W24
 .byte   N23
 .byte   W24
 .byte   Cs3
 .byte   W24
@  #08 @060   ----------------------------------------
 .byte   N32
 .byte   W36
 .byte   N11 ,Cn3
 .byte   W12
 .byte   N44
 .byte   W48
@  #08 @061   ----------------------------------------
 .byte   W24
 .byte   N23 ,Fn4 ,v060
 .byte   W24
 .byte   Dn4
 .byte   W24
 .byte   Ds4
 .byte   W24
@  #08 @062   ----------------------------------------
 .byte   W24
 .byte   Fs4
 .byte   W24
 .byte   Fn4
 .byte   W24
 .byte   Ds4
 .byte   W24
@  #08 @063   ----------------------------------------
 .byte   N44
 .byte   W48
 .byte   Cs4
 .byte   W48
@  #08 @064   ----------------------------------------
 .byte   N23 ,Cn4
 .byte   W24
 .byte   An3
 .byte   W24
 .byte   N44 ,As3
 .byte   W48
@  #08 @065   ----------------------------------------
 .byte   W24
 .byte   N23 ,Cs4
 .byte   W24
 .byte   Ds4
 .byte   W24
 .byte   Cs4
 .byte   W24
@  #08 @066   ----------------------------------------
 .byte   N92 ,Ds4
 .byte   W96
@  #08 @067   ----------------------------------------
 .byte   Fn4
 .byte   W96
@  #08 @068   ----------------------------------------
 .byte   N44 ,Fs4
 .byte   W48
 .byte   Fn4
 .byte   W48
@  #08 @069   ----------------------------------------
 .byte   W96
@  #08 @070   ----------------------------------------
 .byte   W96
@  #08 @071   ----------------------------------------
Label_015F47DD:
 .byte   N11 ,As2 ,v080
 .byte   W24
 .byte   N03
 .byte   W08
 .byte   N03
 .byte   W08
 .byte   N03
 .byte   W08
 .byte   N11 ,Cs3
 .byte   W24
 .byte   N11
 .byte   W24
 .byte   PEND 
@  #08 @072   ----------------------------------------
 .byte   Cn3
 .byte   W24
 .byte   N03
 .byte   W08
 .byte   N03
 .byte   W08
 .byte   N03
 .byte   W08
 .byte   N11 ,Ds3
 .byte   W24
 .byte   N11
 .byte   W24
@  #08 @073   ----------------------------------------
 .byte   Fn3
 .byte   W24
 .byte   N03
 .byte   W08
 .byte   N03
 .byte   W08
 .byte   N03
 .byte   W08
 .byte   N11
 .byte   W24
 .byte   N11
 .byte   W24
@  #08 @074   ----------------------------------------
 .byte   Ds3
 .byte   W24
 .byte   N03
 .byte   W08
 .byte   N03
 .byte   W08
 .byte   N03
 .byte   W08
 .byte   N11 ,Cs3
 .byte   W24
 .byte   Cn3
 .byte   W24
@  #08 @075   ----------------------------------------
 .byte   PATT
  .word Label_015F47DD
@  #08 @076   ----------------------------------------
 .byte   N11 ,Cn3 ,v080
 .byte   W24
 .byte   N03
 .byte   W08
 .byte   N03
 .byte   W08
 .byte   N03
 .byte   W08
 .byte   N11 ,Ds3
 .byte   W24
 .byte   Cs3
 .byte   W24
@  #08 @077   ----------------------------------------
 .byte   Cn3
 .byte   W24
 .byte   N03
 .byte   W08
 .byte   N03
 .byte   W08
 .byte   N03
 .byte   W08
 .byte   N11 ,Cs3
 .byte   W24
 .byte   Cn3
 .byte   W24
@  #08 @078   ----------------------------------------
 .byte   Cs3
 .byte   W24
 .byte   N11
 .byte   W24
 .byte   N44
 .byte   W48
@  #08 @079   ----------------------------------------
 .byte   As3 ,v052
 .byte   W48
 .byte   Gs3
 .byte   W48
@  #08 @080   ----------------------------------------
Label_015F483F:
 .byte   N44 ,Fn4 ,v052
 .byte   W48
 .byte   Ds4
 .byte   W48
 .byte   PEND 
@  #08 @081   ----------------------------------------
Label_015F4846:
 .byte   N44 ,Cs4 ,v052
 .byte   W48
 .byte   Cn4
 .byte   W48
 .byte   PEND 
@  #08 @082   ----------------------------------------
 .byte   PATT
  .word Label_015F4846
@  #08 @083   ----------------------------------------
 .byte   N44 ,Cs4 ,v052
 .byte   W48
 .byte   Gs3
 .byte   W48
@  #08 @084   ----------------------------------------
 .byte   Ds4
 .byte   W48
 .byte   Gs4
 .byte   W48
@  #08 @085   ----------------------------------------
 .byte   PATT
  .word Label_015F483F
@  #08 @086   ----------------------------------------
 .byte   N92 ,Cn4 ,v052
 .byte   W96
@  #08 @087   ----------------------------------------
 .byte   As3
 .byte   W96
@  #08 @088   ----------------------------------------
 .byte   Ds3
 .byte   W96
@  #08 @089   ----------------------------------------
 .byte   As3
 .byte   W96
@  #08 @090   ----------------------------------------
 .byte   Cn4
 .byte   W96
@  #08 @091   ----------------------------------------
 .byte   N44 ,As3 ,v056
 .byte   W96
@  #08 @092   ----------------------------------------
 .byte   Fn3 ,v064
 .byte   W96
@  #08 @093   ----------------------------------------
 .byte   N92 ,Gs3 ,v072
 .byte   W96
@  #08 @094   ----------------------------------------
 .byte   W96
@  #08 @095   ----------------------------------------
 .byte   W96
@  #08 @096   ----------------------------------------
 .byte   W96
@  #08 @097   ----------------------------------------
 .byte   W96
@  #08 @098   ----------------------------------------
 .byte   W96
@  #08 @099   ----------------------------------------
 .byte   W96
@  #08 @100   ----------------------------------------
 .byte   W96
@  #08 @101   ----------------------------------------
 .byte   W96
@  #08 @102   ----------------------------------------
 .byte   GOTO
  .word Label_015F46DC
 .byte   FINE

@**************** Track 9 (Midi-Chn.8) ****************@

song01_009:
@  #09 @000   ----------------------------------------
 .byte   KEYSH , song01_key+0
 .byte   VOICE , 52
 .byte   VOL , 24*song01_mvl/mxv
 .byte   W96
@  #09 @001   ----------------------------------------
 .byte   W96
@  #09 @002   ----------------------------------------
 .byte   W96
@  #09 @003   ----------------------------------------
 .byte   W96
@  #09 @004   ----------------------------------------
 .byte   W96
@  #09 @005   ----------------------------------------
 .byte   W96
@  #09 @006   ----------------------------------------
 .byte   W96
@  #09 @007   ----------------------------------------
 .byte   W96
@  #09 @008   ----------------------------------------
Label_015F4896:
 .byte   W96
@  #09 @009   ----------------------------------------
 .byte   W96
@  #09 @010   ----------------------------------------
 .byte   W96
@  #09 @011   ----------------------------------------
 .byte   W96
@  #09 @012   ----------------------------------------
 .byte   W96
@  #09 @013   ----------------------------------------
 .byte   W96
@  #09 @014   ----------------------------------------
 .byte   W96
@  #09 @015   ----------------------------------------
 .byte   W96
@  #09 @016   ----------------------------------------
 .byte   W96
@  #09 @017   ----------------------------------------
 .byte   W96
@  #09 @018   ----------------------------------------
 .byte   W96
@  #09 @019   ----------------------------------------
 .byte   W96
@  #09 @020   ----------------------------------------
 .byte   W96
@  #09 @021   ----------------------------------------
 .byte   W96
@  #09 @022   ----------------------------------------
 .byte   W96
@  #09 @023   ----------------------------------------
 .byte   W96
@  #09 @024   ----------------------------------------
 .byte   W96
@  #09 @025   ----------------------------------------
 .byte   W96
@  #09 @026   ----------------------------------------
 .byte   W96
@  #09 @027   ----------------------------------------
 .byte   W96
@  #09 @028   ----------------------------------------
 .byte   W96
@  #09 @029   ----------------------------------------
 .byte   W96
@  #09 @030   ----------------------------------------
 .byte   W96
@  #09 @031   ----------------------------------------
 .byte   W96
@  #09 @032   ----------------------------------------
 .byte   N44 ,As2 ,v127
 .byte   N44 ,Dn3
 .byte   W48
 .byte   Cn3
 .byte   W48
@  #09 @033   ----------------------------------------
 .byte   An2
 .byte   N44 ,Cn3
 .byte   W48
 .byte   Dn3
 .byte   W48
@  #09 @034   ----------------------------------------
 .byte   Gn2
 .byte   N44 ,Fn3
 .byte   W48
 .byte   An2
 .byte   N44 ,En3
 .byte   W48
@  #09 @035   ----------------------------------------
 .byte   N92 ,Dn3
 .byte   N44 ,En3
 .byte   W48
 .byte   Fn3
 .byte   W48
@  #09 @036   ----------------------------------------
 .byte   W96
@  #09 @037   ----------------------------------------
 .byte   W96
@  #09 @038   ----------------------------------------
 .byte   W96
@  #09 @039   ----------------------------------------
 .byte   W96
@  #09 @040   ----------------------------------------
 .byte   W96
@  #09 @041   ----------------------------------------
 .byte   W96
@  #09 @042   ----------------------------------------
 .byte   W96
@  #09 @043   ----------------------------------------
 .byte   W96
@  #09 @044   ----------------------------------------
 .byte   W96
@  #09 @045   ----------------------------------------
 .byte   W96
@  #09 @046   ----------------------------------------
 .byte   W96
@  #09 @047   ----------------------------------------
 .byte   W96
@  #09 @048   ----------------------------------------
 .byte   N23 ,Gs3 ,v096
 .byte   W24
 .byte   Fs3
 .byte   W24
 .byte   Cs3
 .byte   W24
 .byte   Ds3
 .byte   W24
@  #09 @049   ----------------------------------------
 .byte   Fs3
 .byte   W24
 .byte   En3
 .byte   W24
 .byte   Ds3
 .byte   W24
 .byte   En3
 .byte   W24
@  #09 @050   ----------------------------------------
 .byte   Bn2
 .byte   W24
 .byte   An2
 .byte   W24
 .byte   Gs2
 .byte   W24
 .byte   Fs2
 .byte   W24
@  #09 @051   ----------------------------------------
 .byte   TIE ,Gs2
 .byte   W96
@  #09 @052   ----------------------------------------
 .byte   W92
 .byte   W03
 .byte   EOT
 .byte   W01
@  #09 @053   ----------------------------------------
Label_015F48F8:
 .byte   N44 ,As2 ,v127
 .byte   W48
 .byte   Cn3
 .byte   W48
 .byte   PEND 
@  #09 @054   ----------------------------------------
Label_015F48FF:
 .byte   N44 ,As2 ,v127
 .byte   W48
 .byte   Cs3
 .byte   W48
 .byte   PEND 
@  #09 @055   ----------------------------------------
Label_015F4906:
 .byte   N44 ,Bn2 ,v127
 .byte   W48
 .byte   Ds3
 .byte   W48
 .byte   PEND 
@  #09 @056   ----------------------------------------
 .byte   Bn2
 .byte   W48
 .byte   N44
 .byte   W48
@  #09 @057   ----------------------------------------
 .byte   PATT
  .word Label_015F48FF
@  #09 @058   ----------------------------------------
 .byte   PATT
  .word Label_015F48F8
@  #09 @059   ----------------------------------------
 .byte   PATT
  .word Label_015F4906
@  #09 @060   ----------------------------------------
 .byte   N44 ,As2 ,v127
 .byte   N44 ,Cs3
 .byte   W48
 .byte   An2
 .byte   N44 ,Cn3
 .byte   W48
@  #09 @061   ----------------------------------------
 .byte   W96
@  #09 @062   ----------------------------------------
 .byte   W96
@  #09 @063   ----------------------------------------
 .byte   W96
@  #09 @064   ----------------------------------------
 .byte   W96
@  #09 @065   ----------------------------------------
 .byte   W96
@  #09 @066   ----------------------------------------
 .byte   W96
@  #09 @067   ----------------------------------------
 .byte   W96
@  #09 @068   ----------------------------------------
 .byte   W96
@  #09 @069   ----------------------------------------
 .byte   W96
@  #09 @070   ----------------------------------------
 .byte   W96
@  #09 @071   ----------------------------------------
 .byte   W96
@  #09 @072   ----------------------------------------
 .byte   W96
@  #09 @073   ----------------------------------------
 .byte   W96
@  #09 @074   ----------------------------------------
 .byte   W96
@  #09 @075   ----------------------------------------
 .byte   W96
@  #09 @076   ----------------------------------------
 .byte   W96
@  #09 @077   ----------------------------------------
 .byte   W96
@  #09 @078   ----------------------------------------
 .byte   W96
@  #09 @079   ----------------------------------------
 .byte   Fn2
 .byte   N44 ,As2
 .byte   W48
 .byte   Gs2
 .byte   W48
@  #09 @080   ----------------------------------------
 .byte   Fn2
 .byte   N44 ,As2
 .byte   N44 ,Fn3
 .byte   W48
 .byte   Gs2
 .byte   N44 ,Ds3
 .byte   W48
@  #09 @081   ----------------------------------------
 .byte   Ds2
 .byte   N44 ,Cn3
 .byte   N44 ,Cs3
 .byte   W48
 .byte   Ds2
 .byte   N44 ,Gs2
 .byte   N44 ,Cn3
 .byte   W48
@  #09 @082   ----------------------------------------
 .byte   Ds2
 .byte   N44 ,Cn3
 .byte   N44 ,Cs3
 .byte   W48
 .byte   Cs2
 .byte   N44 ,Gs2
 .byte   N44 ,Cn3
 .byte   W48
@  #09 @083   ----------------------------------------
 .byte   Fn2
 .byte   N44 ,As2
 .byte   N44 ,Cs3
 .byte   W48
 .byte   Gs2
 .byte   W48
@  #09 @084   ----------------------------------------
 .byte   Ds2
 .byte   N44 ,Cn3
 .byte   N44 ,Ds3
 .byte   W48
 .byte   Cn3
 .byte   N44 ,Gs3
 .byte   W48
@  #09 @085   ----------------------------------------
 .byte   Fs2
 .byte   N44 ,Cs3
 .byte   N44 ,Fn3
 .byte   W48
 .byte   Ds2
 .byte   N44 ,Cn3
 .byte   N44 ,Ds3
 .byte   W48
@  #09 @086   ----------------------------------------
 .byte   W96
@  #09 @087   ----------------------------------------
 .byte   W96
@  #09 @088   ----------------------------------------
 .byte   W96
@  #09 @089   ----------------------------------------
 .byte   W96
@  #09 @090   ----------------------------------------
 .byte   W48
 .byte   Cn3
 .byte   W48
@  #09 @091   ----------------------------------------
 .byte   Cs3
 .byte   W48
 .byte   Fn3
 .byte   W48
@  #09 @092   ----------------------------------------
 .byte   N78
 .byte   W80
 .byte   N07 ,Fs3
 .byte   W08
 .byte   Fn3
 .byte   W08
@  #09 @093   ----------------------------------------
 .byte   N92 ,Ds3
 .byte   W24
 .byte   N72 ,Gs3
 .byte   W72
@  #09 @094   ----------------------------------------
 .byte   W96
@  #09 @095   ----------------------------------------
 .byte   W96
@  #09 @096   ----------------------------------------
 .byte   W96
@  #09 @097   ----------------------------------------
 .byte   W96
@  #09 @098   ----------------------------------------
 .byte   W96
@  #09 @099   ----------------------------------------
 .byte   W96
@  #09 @100   ----------------------------------------
 .byte   W96
@  #09 @101   ----------------------------------------
 .byte   W96
@  #09 @102   ----------------------------------------
 .byte   GOTO
  .word Label_015F4896
 .byte   FINE

@**************** Track 10 (Midi-Chn.9) ****************@

song01_010:
@  #10 @000   ----------------------------------------
 .byte   KEYSH , song01_key+0
 .byte   VOICE , 60
 .byte   PAN , c_v+0
 .byte   VOL , 33*song01_mvl/mxv
 .byte   N11 ,Cn3 ,v064
 .byte   W24
 .byte   N03
 .byte   W08
 .byte   N03
 .byte   W08
 .byte   N03
 .byte   W08
 .byte   N11 ,As2
 .byte   W24
 .byte   N11
 .byte   W24
@  #10 @001   ----------------------------------------
Label_015F49BF:
 .byte   N11 ,Cn3 ,v064
 .byte   W24
 .byte   N11
 .byte   W24
 .byte   As2
 .byte   W24
 .byte   N03
 .byte   W08
 .byte   N03
 .byte   W08
 .byte   N03
 .byte   W08
 .byte   PEND 
@  #10 @002   ----------------------------------------
Label_015F49CE:
 .byte   N11 ,Cn3 ,v064
 .byte   W24
 .byte   N03
 .byte   W08
 .byte   N03
 .byte   W08
 .byte   N03
 .byte   W08
 .byte   N11 ,As2
 .byte   W24
 .byte   N11
 .byte   W24
 .byte   PEND 
@  #10 @003   ----------------------------------------
Label_015F49DE:
 .byte   N11 ,Cs3 ,v064
 .byte   W24
 .byte   N11
 .byte   W24
 .byte   Cn3
 .byte   W24
 .byte   N03
 .byte   W08
 .byte   N03
 .byte   W08
 .byte   N03
 .byte   W08
 .byte   PEND 
@  #10 @004   ----------------------------------------
 .byte   PATT
  .word Label_015F49CE
@  #10 @005   ----------------------------------------
 .byte   PATT
  .word Label_015F49BF
@  #10 @006   ----------------------------------------
 .byte   PATT
  .word Label_015F49CE
@  #10 @007   ----------------------------------------
 .byte   PATT
  .word Label_015F49DE
@  #10 @008   ----------------------------------------
Label_015F4A01:
@  #10 @009   ----------------------------------------
 .byte   PATT
  .word Label_015F49CE
@  #10 @010   ----------------------------------------
 .byte   PATT
  .word Label_015F49BF
@  #10 @011   ----------------------------------------
 .byte   PATT
  .word Label_015F49CE
@  #10 @012   ----------------------------------------
 .byte   PATT
  .word Label_015F49DE
@  #10 @013   ----------------------------------------
 .byte   PATT
  .word Label_015F49CE
@  #10 @014   ----------------------------------------
 .byte   PATT
  .word Label_015F49BF
@  #10 @015   ----------------------------------------
 .byte   PATT
  .word Label_015F49CE
@  #10 @016   ----------------------------------------
 .byte   PATT
  .word Label_015F49DE
@  #10 @017   ----------------------------------------
 .byte   PATT
  .word Label_015F49CE
@  #10 @018   ----------------------------------------
 .byte   PATT
  .word Label_015F49BF
@  #10 @019   ----------------------------------------
 .byte   PATT
  .word Label_015F49CE
@  #10 @020   ----------------------------------------
 .byte   PATT
  .word Label_015F49DE
@  #10 @021   ----------------------------------------
 .byte   W96
@  #10 @022   ----------------------------------------
 .byte   W96
@  #10 @023   ----------------------------------------
 .byte   W96
@  #10 @024   ----------------------------------------
 .byte   W96
@  #10 @025   ----------------------------------------
 .byte   W96
@  #10 @026   ----------------------------------------
 .byte   W96
@  #10 @027   ----------------------------------------
 .byte   W96
@  #10 @028   ----------------------------------------
 .byte   W96
@  #10 @029   ----------------------------------------
 .byte   N11 ,As3 ,v080
 .byte   W24
 .byte   N03
 .byte   W08
 .byte   N03
 .byte   W08
 .byte   N03
 .byte   W08
 .byte   N11 ,Cn4
 .byte   W24
 .byte   N11
 .byte   W24
@  #10 @030   ----------------------------------------
 .byte   Gn3
 .byte   W24
 .byte   N11
 .byte   W24
 .byte   Fn3
 .byte   W24
 .byte   N11
 .byte   W24
@  #10 @031   ----------------------------------------
 .byte   N11
 .byte   W24
 .byte   N03
 .byte   W08
 .byte   N03
 .byte   W08
 .byte   N03
 .byte   W08
 .byte   N11 ,En3
 .byte   W24
 .byte   N11
 .byte   W24
@  #10 @032   ----------------------------------------
 .byte   Gn3
 .byte   W24
 .byte   N11
 .byte   W24
 .byte   N23 ,Fn3
 .byte   W48
@  #10 @033   ----------------------------------------
 .byte   W96
@  #10 @034   ----------------------------------------
 .byte   W96
@  #10 @035   ----------------------------------------
 .byte   W96
@  #10 @036   ----------------------------------------
 .byte   W96
@  #10 @037   ----------------------------------------
Label_015F4A74:
 .byte   N11 ,Fn3 ,v064
 .byte   W24
 .byte   N03
 .byte   W08
 .byte   N03
 .byte   W08
 .byte   N03
 .byte   W08
 .byte   N11 ,En3
 .byte   W24
 .byte   N11
 .byte   W24
 .byte   PEND 
@  #10 @038   ----------------------------------------
Label_015F4A84:
 .byte   N11 ,Gn3 ,v064
 .byte   W24
 .byte   N03
 .byte   W08
 .byte   N03
 .byte   W08
 .byte   N03
 .byte   W08
 .byte   N11 ,Fn3
 .byte   W24
 .byte   N11
 .byte   W24
 .byte   PEND 
@  #10 @039   ----------------------------------------
 .byte   PATT
  .word Label_015F4A74
@  #10 @040   ----------------------------------------
 .byte   N11 ,Gn3 ,v064
 .byte   W24
 .byte   N11
 .byte   W24
 .byte   N23 ,Fn3
 .byte   W48
@  #10 @041   ----------------------------------------
 .byte   PATT
  .word Label_015F4A74
@  #10 @042   ----------------------------------------
 .byte   PATT
  .word Label_015F4A84
@  #10 @043   ----------------------------------------
 .byte   PATT
  .word Label_015F4A74
@  #10 @044   ----------------------------------------
 .byte   N11 ,En3 ,v064
 .byte   W24
 .byte   N11
 .byte   W24
 .byte   N23
 .byte   W48
@  #10 @045   ----------------------------------------
 .byte   W96
@  #10 @046   ----------------------------------------
 .byte   W96
@  #10 @047   ----------------------------------------
 .byte   W96
@  #10 @048   ----------------------------------------
 .byte   W96
@  #10 @049   ----------------------------------------
 .byte   W96
@  #10 @050   ----------------------------------------
 .byte   W96
@  #10 @051   ----------------------------------------
 .byte   W96
@  #10 @052   ----------------------------------------
 .byte   W96
@  #10 @053   ----------------------------------------
 .byte   W96
@  #10 @054   ----------------------------------------
 .byte   W96
@  #10 @055   ----------------------------------------
 .byte   W96
@  #10 @056   ----------------------------------------
 .byte   W96
@  #10 @057   ----------------------------------------
 .byte   W96
@  #10 @058   ----------------------------------------
 .byte   W96
@  #10 @059   ----------------------------------------
 .byte   W96
@  #10 @060   ----------------------------------------
 .byte   W96
@  #10 @061   ----------------------------------------
 .byte   W96
@  #10 @062   ----------------------------------------
 .byte   W24
 .byte   Fn3 ,v060
 .byte   W24
 .byte   Dn3
 .byte   W24
 .byte   Ds3
 .byte   W24
@  #10 @063   ----------------------------------------
 .byte   W24
 .byte   Fs3
 .byte   W24
 .byte   Fn3
 .byte   W24
 .byte   Ds3
 .byte   W24
@  #10 @064   ----------------------------------------
 .byte   N44
 .byte   W48
 .byte   Cs3
 .byte   W48
@  #10 @065   ----------------------------------------
 .byte   N23 ,Cn3
 .byte   W24
 .byte   An2
 .byte   W24
 .byte   N44 ,As2
 .byte   W48
@  #10 @066   ----------------------------------------
 .byte   W24
 .byte   N23 ,Cs3
 .byte   W24
 .byte   Ds3
 .byte   W24
 .byte   Cs3
 .byte   W24
@  #10 @067   ----------------------------------------
 .byte   N92 ,Ds3
 .byte   W96
@  #10 @068   ----------------------------------------
 .byte   Fn3
 .byte   W96
@  #10 @069   ----------------------------------------
 .byte   N44 ,Fs3
 .byte   W48
 .byte   Fn3
 .byte   W48
@  #10 @070   ----------------------------------------
 .byte   W96
@  #10 @071   ----------------------------------------
 .byte   W96
@  #10 @072   ----------------------------------------
Label_015F4AF9:
 .byte   N11 ,As2 ,v080
 .byte   W24
 .byte   N03
 .byte   W08
 .byte   N03
 .byte   W08
 .byte   N03
 .byte   W08
 .byte   N11 ,Cs3
 .byte   W24
 .byte   N11
 .byte   W24
 .byte   PEND 
@  #10 @073   ----------------------------------------
 .byte   Cn3
 .byte   W24
 .byte   N03
 .byte   W08
 .byte   N03
 .byte   W08
 .byte   N03
 .byte   W08
 .byte   N11 ,Ds3
 .byte   W24
 .byte   N11
 .byte   W24
@  #10 @074   ----------------------------------------
 .byte   Fn3
 .byte   W24
 .byte   N03
 .byte   W08
 .byte   N03
 .byte   W08
 .byte   N03
 .byte   W08
 .byte   N11
 .byte   W24
 .byte   N11
 .byte   W24
@  #10 @075   ----------------------------------------
 .byte   Ds3
 .byte   W24
 .byte   N03
 .byte   W08
 .byte   N03
 .byte   W08
 .byte   N03
 .byte   W08
 .byte   N11 ,Cs3
 .byte   W24
 .byte   Cn3
 .byte   W24
@  #10 @076   ----------------------------------------
 .byte   PATT
  .word Label_015F4AF9
@  #10 @077   ----------------------------------------
 .byte   N11 ,Cn3 ,v080
 .byte   W24
 .byte   N03
 .byte   W08
 .byte   N03
 .byte   W08
 .byte   N03
 .byte   W08
 .byte   N11 ,Ds3
 .byte   W24
 .byte   Cs3
 .byte   W24
@  #10 @078   ----------------------------------------
 .byte   Cn3
 .byte   W24
 .byte   N03
 .byte   W08
 .byte   N03
 .byte   W08
 .byte   N03
 .byte   W08
 .byte   N11 ,Cs3
 .byte   W24
 .byte   Cn3
 .byte   W24
@  #10 @079   ----------------------------------------
 .byte   Cs3
 .byte   W24
 .byte   N11
 .byte   W24
 .byte   N44
 .byte   W48
@  #10 @080   ----------------------------------------
 .byte   W96
@  #10 @081   ----------------------------------------
 .byte   W96
@  #10 @082   ----------------------------------------
 .byte   W96
@  #10 @083   ----------------------------------------
 .byte   W96
@  #10 @084   ----------------------------------------
 .byte   W96
@  #10 @085   ----------------------------------------
 .byte   W96
@  #10 @086   ----------------------------------------
 .byte   W96
@  #10 @087   ----------------------------------------
 .byte   W96
@  #10 @088   ----------------------------------------
 .byte   W96
@  #10 @089   ----------------------------------------
 .byte   W96
@  #10 @090   ----------------------------------------
 .byte   W96
@  #10 @091   ----------------------------------------
 .byte   W96
@  #10 @092   ----------------------------------------
 .byte   W96
@  #10 @093   ----------------------------------------
 .byte   W96
@  #10 @094   ----------------------------------------
 .byte   W96
@  #10 @095   ----------------------------------------
 .byte   PATT
  .word Label_015F49CE
@  #10 @096   ----------------------------------------
 .byte   PATT
  .word Label_015F49BF
@  #10 @097   ----------------------------------------
 .byte   PATT
  .word Label_015F49CE
@  #10 @098   ----------------------------------------
 .byte   PATT
  .word Label_015F49DE
@  #10 @099   ----------------------------------------
 .byte   PATT
  .word Label_015F49CE
@  #10 @100   ----------------------------------------
 .byte   PATT
  .word Label_015F49BF
@  #10 @101   ----------------------------------------
 .byte   PATT
  .word Label_015F49CE
@  #10 @102   ----------------------------------------
 .byte   PATT
  .word Label_015F49DE
@  #10 @103   ----------------------------------------
 .byte   GOTO
  .word Label_015F4A01
 .byte   FINE

@**************** Track 11 (Midi-Chn.10) ****************@

song01_011:
@  #11 @000   ----------------------------------------
 .byte   KEYSH , song01_key+0
 .byte   VOICE , 1
 .byte   PAN , c_v+0
 .byte   VOL , 30*song01_mvl/mxv
 .byte   W96
@  #11 @001   ----------------------------------------
 .byte   W96
@  #11 @002   ----------------------------------------
 .byte   W96
@  #11 @003   ----------------------------------------
 .byte   W96
@  #11 @004   ----------------------------------------
 .byte   W96
@  #11 @005   ----------------------------------------
 .byte   W96
@  #11 @006   ----------------------------------------
 .byte   W96
@  #11 @007   ----------------------------------------
 .byte   W96
@  #11 @008   ----------------------------------------
Label_015F4BA4:
 .byte   W96
@  #11 @009   ----------------------------------------
 .byte   W96
@  #11 @010   ----------------------------------------
 .byte   W96
@  #11 @011   ----------------------------------------
 .byte   W96
@  #11 @012   ----------------------------------------
 .byte   W96
@  #11 @013   ----------------------------------------
 .byte   W96
@  #11 @014   ----------------------------------------
 .byte   W96
@  #11 @015   ----------------------------------------
 .byte   W96
@  #11 @016   ----------------------------------------
 .byte   W96
@  #11 @017   ----------------------------------------
 .byte   W96
@  #11 @018   ----------------------------------------
 .byte   W96
@  #11 @019   ----------------------------------------
 .byte   W96
@  #11 @020   ----------------------------------------
 .byte   N44 ,As2 ,v080
 .byte   N44 ,Fn3
 .byte   W48
 .byte   As2
 .byte   N44 ,Ds3
 .byte   W48
@  #11 @021   ----------------------------------------
Label_015F4BBA:
 .byte   N44 ,Cn3 ,v080
 .byte   N44 ,Ds3
 .byte   W48
 .byte   Cn3
 .byte   N44 ,Ds3
 .byte   W48
 .byte   PEND 
@  #11 @022   ----------------------------------------
 .byte   Cs3
 .byte   N44 ,Fn3
 .byte   W48
 .byte   Ds3
 .byte   W48
@  #11 @023   ----------------------------------------
 .byte   PATT
  .word Label_015F4BBA
@  #11 @024   ----------------------------------------
 .byte   N44 ,As2 ,v080
 .byte   N44 ,Fn3
 .byte   W48
 .byte   As4
 .byte   W48
@  #11 @025   ----------------------------------------
 .byte   Gs2
 .byte   N44 ,Cn3
 .byte   N44 ,Ds3
 .byte   W48
 .byte   Gs4
 .byte   W48
@  #11 @026   ----------------------------------------
 .byte   As2
 .byte   N44 ,Gn3
 .byte   W24
 .byte   N07 ,As3
 .byte   W08
 .byte   Dn4
 .byte   W08
 .byte   Fn4
 .byte   W08
 .byte   N44 ,As2
 .byte   N44 ,Gn3
 .byte   N07 ,As4
 .byte   W08
 .byte   Fn4
 .byte   W08
 .byte   Dn4
 .byte   W08
 .byte   As3
 .byte   W08
 .byte   Dn4
 .byte   W08
 .byte   As3
 .byte   W08
@  #11 @027   ----------------------------------------
 .byte   N44 ,Dn3
 .byte   N44 ,Fn4
 .byte   W48
 .byte   Cs3
 .byte   N11 ,Gn4
 .byte   W24
 .byte   N07 ,An4
 .byte   W08
 .byte   Gn4
 .byte   W08
 .byte   En4
 .byte   W08
@  #11 @028   ----------------------------------------
 .byte   W96
@  #11 @029   ----------------------------------------
 .byte   W96
@  #11 @030   ----------------------------------------
 .byte   W96
@  #11 @031   ----------------------------------------
 .byte   W96
@  #11 @032   ----------------------------------------
 .byte   N22 ,Dn3
 .byte   N22 ,An3 ,v088
 .byte   W24
 .byte   Dn4
 .byte   W24
 .byte   En3
 .byte   W24
 .byte   Fn3
 .byte   W24
@  #11 @033   ----------------------------------------
 .byte   Cn3 ,v080
 .byte   N22 ,Gn3 ,v088
 .byte   W24
 .byte   Cn4
 .byte   W24
 .byte   Fn3 ,v080
 .byte   W24
 .byte   An3 ,v088
 .byte   W24
@  #11 @034   ----------------------------------------
 .byte   N44 ,Dn3 ,v080
 .byte   N44 ,An3 ,v088
 .byte   W48
 .byte   En3 ,v080
 .byte   N44 ,Gn3 ,v088
 .byte   W48
@  #11 @035   ----------------------------------------
 .byte   En3 ,v080
 .byte   N44 ,Gn3 ,v088
 .byte   W48
 .byte   Fn3
 .byte   W48
@  #11 @036   ----------------------------------------
 .byte   W96
@  #11 @037   ----------------------------------------
 .byte   W96
@  #11 @038   ----------------------------------------
 .byte   W96
@  #11 @039   ----------------------------------------
 .byte   W96
@  #11 @040   ----------------------------------------
 .byte   W96
@  #11 @041   ----------------------------------------
 .byte   W96
@  #11 @042   ----------------------------------------
 .byte   W96
@  #11 @043   ----------------------------------------
 .byte   W96
@  #11 @044   ----------------------------------------
 .byte   N22 ,Ds2 ,v080
 .byte   N44 ,As3
 .byte   N44 ,An4 ,v096
 .byte   W24
 .byte   N22 ,As2 ,v080
 .byte   W24
 .byte   Cn3
 .byte   N44 ,As3
 .byte   N44 ,Gn4 ,v096
 .byte   W24
 .byte   N22 ,As2 ,v080
 .byte   W24
@  #11 @045   ----------------------------------------
 .byte   N44 ,An2
 .byte   N22 ,Cn4
 .byte   N22 ,Gn4 ,v096
 .byte   W24
 .byte   Fn4
 .byte   W24
 .byte   Fn3 ,v080
 .byte   N44 ,Cn4
 .byte   N44 ,Cn5 ,v096
 .byte   W24
 .byte   N22 ,Cn3 ,v080
 .byte   W24
@  #11 @046   ----------------------------------------
 .byte   N68 ,Fs2
 .byte   N22 ,Cs4
 .byte   N22 ,Cn5 ,v096
 .byte   W24
 .byte   As4
 .byte   W24
 .byte   N44 ,Fs4 ,v080
 .byte   N44 ,As4
 .byte   N44 ,Fn5 ,v096
 .byte   W24
 .byte   N22 ,Cs3 ,v080
 .byte   W24
@  #11 @047   ----------------------------------------
 .byte   N90 ,Fn2
 .byte   N44 ,Gs4
 .byte   N44 ,Ds5 ,v096
 .byte   W48
 .byte   Cs4 ,v080
 .byte   W03
 .byte   Fn4
 .byte   W03
 .byte   N40 ,Gs4 ,v096
 .byte   W42
@  #11 @048   ----------------------------------------
 .byte   N90 ,An2 ,v080
 .byte   N23 ,Cs4
 .byte   W03
 .byte   N20 ,En4
 .byte   W03
 .byte   N17 ,Gs4 ,v096
 .byte   W18
 .byte   N22 ,Fs4
 .byte   W24
 .byte   Cs4
 .byte   W24
 .byte   Ds4
 .byte   W24
@  #11 @049   ----------------------------------------
 .byte   N44 ,Gs2 ,v080
 .byte   N23 ,Bn3
 .byte   W03
 .byte   N20 ,Ds4
 .byte   W03
 .byte   N17 ,Fs4 ,v096
 .byte   W18
 .byte   N22 ,En4
 .byte   W24
 .byte   N44 ,Cs2 ,v080
 .byte   N22 ,Ds4 ,v096
 .byte   W24
 .byte   En4
 .byte   W24
@  #11 @050   ----------------------------------------
 .byte   N90 ,Fs2 ,v080
 .byte   N23 ,En3
 .byte   W03
 .byte   N20 ,Fs3
 .byte   W03
 .byte   N17 ,Bn3 ,v096
 .byte   W18
 .byte   N22 ,An3
 .byte   W24
 .byte   Gs3
 .byte   W24
 .byte   Fs3
 .byte   W24
@  #11 @051   ----------------------------------------
 .byte   N68 ,Gs2 ,v080
 .byte   N80 ,Cs3
 .byte   W01
 .byte   N84 ,Ds3
 .byte   W02
 .byte   TIE ,Gs3 ,v096
 .byte   W68
 .byte   W01
 .byte   N07 ,Gs2 ,v088
 .byte   W08
 .byte   Cs3
 .byte   W08
 .byte   Ds3
 .byte   W08
@  #11 @052   ----------------------------------------
 .byte   N90 ,Cn3 ,v080
 .byte   W90
 .byte   EOT
 .byte   Gs3
 .byte   W06
@  #11 @053   ----------------------------------------
 .byte   N44 ,As2 ,v084
 .byte   W96
@  #11 @054   ----------------------------------------
 .byte   W96
@  #11 @055   ----------------------------------------
 .byte   W96
@  #11 @056   ----------------------------------------
 .byte   W96
@  #11 @057   ----------------------------------------
 .byte   W96
@  #11 @058   ----------------------------------------
 .byte   W96
@  #11 @059   ----------------------------------------
 .byte   W96
@  #11 @060   ----------------------------------------
 .byte   W24
 .byte   N07 ,Cs2 ,v060
 .byte   W08
 .byte   N07
 .byte   W08
 .byte   N07
 .byte   W08
 .byte   N44 ,Ds2 ,v076
 .byte   W24
 .byte   N22 ,Cn2 ,v060
 .byte   W24
@  #11 @061   ----------------------------------------
 .byte   W24
 .byte   N15 ,Fn4 ,v100
 .byte   W16
 .byte   N07 ,Fn4 ,v080
 .byte   W08
 .byte   N22 ,Fn4 ,v012
 .byte   W24
 .byte   N07 ,Fn4 ,v092
 .byte   W08
 .byte   As4
 .byte   W08
 .byte   Cs5
 .byte   W08
@  #11 @062   ----------------------------------------
 .byte   Fn5
 .byte   W08
 .byte   Fs5
 .byte   W08
 .byte   Cn5
 .byte   W08
 .byte   Ds4
 .byte   W08
 .byte   An4
 .byte   W08
 .byte   Cn4
 .byte   W08
 .byte   N44 ,An3
 .byte   W48
@  #11 @063   ----------------------------------------
 .byte   N07 ,Cs5
 .byte   W08
 .byte   Cn5
 .byte   W08
 .byte   As4
 .byte   W08
 .byte   Fn4 ,v100
 .byte   W08
 .byte   Cs4 ,v092
 .byte   W08
 .byte   Cn4
 .byte   N07 ,Fn4 ,v080
 .byte   W08
 .byte   N44 ,As3 ,v092
 .byte   N44 ,Fn4 ,v100
 .byte   W48
@  #11 @064   ----------------------------------------
 .byte   N07 ,Cs5 ,v092
 .byte   W08
 .byte   Cn5
 .byte   W08
 .byte   As4
 .byte   W08
 .byte   Fn4
 .byte   W08
 .byte   Cs4
 .byte   W08
 .byte   Cn4
 .byte   W08
 .byte   N44 ,As3
 .byte   W48
@  #11 @065   ----------------------------------------
 .byte   As4
 .byte   W24
 .byte   N15 ,Fn4 ,v100
 .byte   W16
 .byte   N07 ,Fn4 ,v080
 .byte   W08
 .byte   N44 ,Fn4 ,v100
 .byte   W12
 .byte   N11 ,As4 ,v092
 .byte   W12
 .byte   Cs5
 .byte   W12
 .byte   Fn5
 .byte   W12
@  #11 @066   ----------------------------------------
 .byte   N44 ,Gs5
 .byte   W48
 .byte   N22 ,Fs5
 .byte   W24
 .byte   Fn5
 .byte   W24
@  #11 @067   ----------------------------------------
 .byte   N44
 .byte   W24
 .byte   N15 ,Fn4 ,v100
 .byte   W16
 .byte   N07 ,Fn4 ,v080
 .byte   W08
 .byte   N32 ,Fn4 ,v100
 .byte   W24
 .byte   N07 ,Cs4 ,v092
 .byte   W08
 .byte   Fn4
 .byte   W08
 .byte   As4
 .byte   W08
@  #11 @068   ----------------------------------------
 .byte   Cs5
 .byte   W08
 .byte   As4
 .byte   W08
 .byte   Fn4
 .byte   W08
 .byte   N22 ,As3
 .byte   W24
 .byte   N07 ,Cn5
 .byte   W08
 .byte   An4
 .byte   W08
 .byte   Fn4
 .byte   W08
 .byte   N22 ,An3
 .byte   W24
@  #11 @069   ----------------------------------------
 .byte   N11 ,Fn0 ,v127
 .byte   W24
 .byte   N07 ,Fn5 ,v092
 .byte   W08
 .byte   Fs5
 .byte   W08
 .byte   An4
 .byte   W08
 .byte   Fn4
 .byte   W08
 .byte   Fs4
 .byte   W08
 .byte   An3
 .byte   W08
 .byte   Fn3
 .byte   W08
 .byte   Fs3
 .byte   W08
 .byte   An2
 .byte   W08
@  #11 @070   ----------------------------------------
 .byte   N11 ,Fn2 ,v104
 .byte   W24
 .byte   N68 ,Fn2 ,v124
 .byte   N68 ,An2 ,v112
 .byte   N68 ,Cn3
 .byte   N68 ,Ds3
 .byte   W72
@  #11 @071   ----------------------------------------
 .byte   W72
 .byte   N07 ,As4 ,v104
 .byte   W08
 .byte   Cn5 ,v080
 .byte   W08
 .byte   Cs5
 .byte   W08
@  #11 @072   ----------------------------------------
Label_015F4DDC:
 .byte   N07 ,Ds5 ,v080
 .byte   W08
 .byte   Gs5
 .byte   W08
 .byte   Cs5
 .byte   W08
 .byte   Cn5
 .byte   W08
 .byte   Gs4
 .byte   W08
 .byte   Ds4
 .byte   W08
 .byte   Cs4
 .byte   W08
 .byte   Cn4
 .byte   W08
 .byte   Gs3
 .byte   W08
 .byte   Cn4
 .byte   W08
 .byte   Cs4
 .byte   W08
 .byte   Ds4
 .byte   W08
 .byte   PEND 
@  #11 @073   ----------------------------------------
Label_015F4DF7:
 .byte   N22 ,Gs4 ,v104
 .byte   W72
 .byte   N07
 .byte   W08
 .byte   Cn5 ,v080
 .byte   W08
 .byte   Cs5
 .byte   W08
 .byte   PEND 
@  #11 @074   ----------------------------------------
 .byte   Ds5
 .byte   W08
 .byte   Fn5
 .byte   W08
 .byte   Cn5
 .byte   W08
 .byte   Ds5
 .byte   W08
 .byte   As4
 .byte   W08
 .byte   Fn4
 .byte   W08
 .byte   Ds4
 .byte   W08
 .byte   Cs4
 .byte   W08
 .byte   Cn4
 .byte   W08
 .byte   N22 ,As3
 .byte   W24
@  #11 @075   ----------------------------------------
 .byte   As4 ,v104
 .byte   W72
 .byte   N07
 .byte   W08
 .byte   Cn5 ,v080
 .byte   W08
 .byte   Cs5
 .byte   W08
@  #11 @076   ----------------------------------------
 .byte   PATT
  .word Label_015F4DDC
@  #11 @077   ----------------------------------------
 .byte   PATT
  .word Label_015F4DF7
@  #11 @078   ----------------------------------------
 .byte   N07 ,Ds5 ,v080
 .byte   W08
 .byte   Fn5
 .byte   W08
 .byte   Cs5
 .byte   W08
 .byte   Gs4
 .byte   W08
 .byte   As4
 .byte   W08
 .byte   Fn4
 .byte   W08
 .byte   Cs4
 .byte   W08
 .byte   Cn4
 .byte   W08
 .byte   Gs3
 .byte   W08
 .byte   N22 ,Fn3
 .byte   N22 ,As4 ,v104
 .byte   W24
@  #11 @079   ----------------------------------------
Label_015F4E46:
 .byte   N90 ,Fs2 ,v080
 .byte   N44 ,Fn4 ,v104
 .byte   W48
 .byte   N15
 .byte   W16
 .byte   Ds4
 .byte   W16
 .byte   Cs4
 .byte   W16
 .byte   PEND 
@  #11 @080   ----------------------------------------
 .byte   N90 ,Gs2 ,v080
 .byte   N22 ,Cn4 ,v104
 .byte   W24
 .byte   Cs4
 .byte   W24
 .byte   Ds4
 .byte   W24
 .byte   Gs4
 .byte   W24
@  #11 @081   ----------------------------------------
 .byte   N90 ,Fn2 ,v080
 .byte   N44 ,Ds4 ,v104
 .byte   W48
 .byte   N15 ,Fn4
 .byte   W16
 .byte   Ds4
 .byte   W16
 .byte   Cs4
 .byte   W16
@  #11 @082   ----------------------------------------
 .byte   N44 ,As2 ,v080
 .byte   N44 ,Cn4 ,v104
 .byte   W48
 .byte   Gs2 ,v080
 .byte   N22 ,Cs4 ,v104
 .byte   W24
 .byte   As3
 .byte   W24
@  #11 @083   ----------------------------------------
 .byte   PATT
  .word Label_015F4E46
@  #11 @084   ----------------------------------------
 .byte   N68 ,Fs2 ,v080
 .byte   N22 ,Cn4 ,v104
 .byte   W24
 .byte   Cs4
 .byte   W24
 .byte   Ds4
 .byte   W24
 .byte   Fn2 ,v080
 .byte   N22 ,Gs4 ,v104
 .byte   W24
@  #11 @085   ----------------------------------------
 .byte   N44 ,Ds2 ,v080
 .byte   N15 ,As4 ,v104
 .byte   W16
 .byte   N07 ,Cn5
 .byte   W08
 .byte   N44 ,Gs4
 .byte   W24
 .byte   Fn2 ,v080
 .byte   W24
 .byte   N22 ,Fn4 ,v104
 .byte   W24
@  #11 @086   ----------------------------------------
 .byte   TIE ,As2 ,v080
 .byte   N90 ,As4 ,v104
 .byte   W08
 .byte   N07 ,Cn4 ,v080
 .byte   W08
 .byte   Cs4
 .byte   W08
 .byte   N22 ,Gs4
 .byte   W24
 .byte   N07 ,Ds4
 .byte   W08
 .byte   Cs4
 .byte   W08
 .byte   N30 ,Fn4
 .byte   W32
@  #11 @087   ----------------------------------------
 .byte   W16
 .byte   N07 ,As3
 .byte   W08
 .byte   Fn3
 .byte   W08
 .byte   Cs3
 .byte   W08
 .byte   EOT
 .byte   As2
 .byte   N07 ,Cn3
 .byte   W08
 .byte   N44 ,Gs2
 .byte   W48
@  #11 @088   ----------------------------------------
 .byte   N90 ,Fs2
 .byte   W08
 .byte   N07 ,Cn4
 .byte   W08
 .byte   Cs4
 .byte   W08
 .byte   N22 ,Gs4
 .byte   W24
 .byte   N07 ,Ds4
 .byte   W08
 .byte   Cs4
 .byte   W08
 .byte   N30 ,Fn4
 .byte   W32
@  #11 @089   ----------------------------------------
Label_015F4EE3:
 .byte   W16
 .byte   N07 ,As3 ,v080
 .byte   W08
 .byte   Fn3
 .byte   W08
 .byte   Cs3
 .byte   W08
 .byte   Cn3
 .byte   W08
 .byte   N44 ,Gs2
 .byte   W48
 .byte   PEND 
@  #11 @090   ----------------------------------------
Label_015F4EF2:
 .byte   W08
 .byte   N07 ,Cn4 ,v080
 .byte   W08
 .byte   Cs4
 .byte   W08
 .byte   N22 ,Gs4
 .byte   W24
 .byte   N07 ,Ds4
 .byte   W08
 .byte   Cs4
 .byte   W08
 .byte   N30 ,Fn4
 .byte   W32
 .byte   PEND 
@  #11 @091   ----------------------------------------
 .byte   PATT
  .word Label_015F4EE3
@  #11 @092   ----------------------------------------
 .byte   PATT
  .word Label_015F4EF2
@  #11 @093   ----------------------------------------
 .byte   N07 ,Cn4 ,v080
 .byte   W08
 .byte   Gs3
 .byte   W08
 .byte   Fn3
 .byte   W08
 .byte   Ds3
 .byte   W08
 .byte   Gs3
 .byte   W08
 .byte   Cs3
 .byte   W08
 .byte   Cn3
 .byte   W08
 .byte   Ds3
 .byte   W08
 .byte   Gs3
 .byte   W08
 .byte   Cn4
 .byte   W08
 .byte   Ds4
 .byte   W08
 .byte   Gs4
 .byte   W08
@  #11 @094   ----------------------------------------
 .byte   W96
@  #11 @095   ----------------------------------------
 .byte   W96
@  #11 @096   ----------------------------------------
 .byte   W96
@  #11 @097   ----------------------------------------
 .byte   W96
@  #11 @098   ----------------------------------------
 .byte   W96
@  #11 @099   ----------------------------------------
 .byte   W96
@  #11 @100   ----------------------------------------
 .byte   W96
@  #11 @101   ----------------------------------------
 .byte   W96
@  #11 @102   ----------------------------------------
 .byte   GOTO
  .word Label_015F4BA4
 .byte   FINE

@**************** Track 12 (Midi-Chn.11) ****************@

song01_012:
@  #12 @000   ----------------------------------------
 .byte   KEYSH , song01_key+0
 .byte   VOICE , 124
 .byte   VOL , 30*song01_mvl/mxv
 .byte   PAN , c_v+1
 .byte   N23 ,Cn1 ,v096
 .byte   N23 ,Dn1 ,v064
 .byte   N92 ,En2
 .byte   W24
 .byte   N07 ,Dn1
 .byte   W08
 .byte   N07
 .byte   W08
 .byte   N07
 .byte   W08
 .byte   N23
 .byte   W24
 .byte   Cn1 ,v096
 .byte   N23 ,Dn1 ,v064
 .byte   W24
@  #12 @001   ----------------------------------------
Label_015F4F58:
 .byte   N23 ,Cn1 ,v096
 .byte   N23 ,Dn1 ,v064
 .byte   W24
 .byte   N23
 .byte   W24
 .byte   N23
 .byte   W24
 .byte   N02
 .byte   W03
 .byte   N02
 .byte   W03
 .byte   N02
 .byte   W03
 .byte   N02
 .byte   W03
 .byte   N02
 .byte   W03
 .byte   N02
 .byte   W03
 .byte   N02
 .byte   W03
 .byte   N02
 .byte   W03
 .byte   PEND 
@  #12 @002   ----------------------------------------
Label_015F4F74:
 .byte   N23 ,Cn1 ,v096
 .byte   N23 ,Dn1 ,v064
 .byte   W24
 .byte   N07
 .byte   W08
 .byte   N07
 .byte   W08
 .byte   N07
 .byte   W08
 .byte   N23
 .byte   W24
 .byte   Cn1 ,v096
 .byte   N23 ,Dn1 ,v064
 .byte   W24
 .byte   PEND 
@  #12 @003   ----------------------------------------
Label_015F4F8A:
 .byte   N23 ,Cn1 ,v096
 .byte   N23 ,Dn1 ,v064
 .byte   W24
 .byte   N23
 .byte   W24
 .byte   N23
 .byte   N02 ,En2
 .byte   W02
 .byte   N02
 .byte   W03
 .byte   N02
 .byte   W03
 .byte   N02
 .byte   W03
 .byte   N02
 .byte   W03
 .byte   N02
 .byte   W03
 .byte   N02
 .byte   W03
 .byte   N02
 .byte   W03
 .byte   N02
 .byte   W01
 .byte   Dn1
 .byte   W02
 .byte   En2
 .byte   W01
 .byte   Dn1
 .byte   W02
 .byte   En2
 .byte   W01
 .byte   Dn1
 .byte   W02
 .byte   En2
 .byte   W01
 .byte   Dn1
 .byte   W02
 .byte   En2
 .byte   W01
 .byte   Dn1
 .byte   W02
 .byte   En2
 .byte   W01
 .byte   Dn1
 .byte   W02
 .byte   En2
 .byte   W01
 .byte   Dn1
 .byte   W02
 .byte   TIE ,En2
 .byte   W01
 .byte   N02 ,Dn1
 .byte   W03
 .byte   PEND 
@  #12 @004   ----------------------------------------
 .byte   PATT
  .word Label_015F4F74
@  #12 @005   ----------------------------------------
Label_015F4FCD:
 .byte   N23 ,Cn1 ,v096
 .byte   N23 ,Dn1 ,v064
 .byte   W24
 .byte   N23
 .byte   W24
 .byte   N23
 .byte   W24
 .byte   N02
 .byte   W03
 .byte   N02
 .byte   W03
 .byte   N02
 .byte   W03
 .byte   N02
 .byte   W03
 .byte   N02
 .byte   W03
 .byte   N02
 .byte   W03
 .byte   N02
 .byte   W03
 .byte   N02
 .byte   W01
 .byte   PEND 
 .byte   EOT
 .byte   En2
 .byte   W02
@  #12 @006   ----------------------------------------
 .byte   PATT
  .word Label_015F4F74
@  #12 @007   ----------------------------------------
 .byte   PATT
  .word Label_015F4F8A
@  #12 @008   ----------------------------------------
Label_015F4FF6:
@  #12 @009   ----------------------------------------
 .byte   PATT
  .word Label_015F4F74
@  #12 @010   ----------------------------------------
 .byte   PATT
  .word Label_015F4FCD
@  #12 @011   ----------------------------------------
 .byte   EOT
 .byte   En2
 .byte   W02
@  #12 @012   ----------------------------------------
 .byte   PATT
  .word Label_015F4F74
@  #12 @013   ----------------------------------------
 .byte   PATT
  .word Label_015F4F8A
@  #12 @014   ----------------------------------------
 .byte   PATT
  .word Label_015F4F74
@  #12 @015   ----------------------------------------
 .byte   PATT
  .word Label_015F4FCD
@  #12 @016   ----------------------------------------
 .byte   EOT
 .byte   En2
 .byte   W02
@  #12 @017   ----------------------------------------
 .byte   PATT
  .word Label_015F4F74
@  #12 @018   ----------------------------------------
 .byte   PATT
  .word Label_015F4F58
@  #12 @019   ----------------------------------------
 .byte   PATT
  .word Label_015F4F74
@  #12 @020   ----------------------------------------
 .byte   PATT
  .word Label_015F4F58
@  #12 @021   ----------------------------------------
 .byte   PATT
  .word Label_015F4F74
@  #12 @022   ----------------------------------------
 .byte   N23 ,Cn1 ,v096
 .byte   N23 ,Dn1 ,v064
 .byte   W24
 .byte   N23
 .byte   W24
 .byte   N23
 .byte   N02 ,En2
 .byte   W02
 .byte   N02
 .byte   W03
 .byte   N02
 .byte   W03
 .byte   N02
 .byte   W03
 .byte   N02
 .byte   W03
 .byte   N02
 .byte   W03
 .byte   N02
 .byte   W03
 .byte   N02
 .byte   W03
 .byte   N02
 .byte   W01
 .byte   Dn1 ,v076
 .byte   W02
 .byte   En2 ,v064
 .byte   W01
 .byte   Dn1 ,v076
 .byte   W02
 .byte   En2 ,v064
 .byte   W01
 .byte   Dn1 ,v076
 .byte   W02
 .byte   En2 ,v064
 .byte   W01
 .byte   Dn1 ,v076
 .byte   W02
 .byte   En2 ,v064
 .byte   W01
 .byte   Dn1 ,v076
 .byte   W02
 .byte   En2 ,v064
 .byte   W01
 .byte   Dn1 ,v076
 .byte   W02
 .byte   En2 ,v064
 .byte   W01
 .byte   Dn1 ,v076
 .byte   W02
 .byte   TIE ,En2 ,v064
 .byte   W01
 .byte   N02 ,Dn1 ,v076
 .byte   W03
@  #12 @023   ----------------------------------------
 .byte   N11 ,Dn1 ,v064
 .byte   W12
 .byte   N23
 .byte   W24
 .byte   N11
 .byte   W12
 .byte   N23
 .byte   W24
 .byte   N07
 .byte   W08
 .byte   N07
 .byte   W08
 .byte   N07
 .byte   W06
 .byte   EOT
 .byte   En2
 .byte   W02
@  #12 @024   ----------------------------------------
Label_015F5092:
 .byte   N23 ,Dn1 ,v064
 .byte   W24
 .byte   N07
 .byte   W08
 .byte   N07
 .byte   W08
 .byte   N07
 .byte   W08
 .byte   N23
 .byte   W24
 .byte   N02
 .byte   W03
 .byte   N02
 .byte   W03
 .byte   N02
 .byte   W03
 .byte   N02
 .byte   W03
 .byte   N02
 .byte   W03
 .byte   N02
 .byte   W03
 .byte   N02
 .byte   W03
 .byte   N02
 .byte   W03
 .byte   PEND 
@  #12 @025   ----------------------------------------
Label_015F50AF:
 .byte   N11 ,Dn1 ,v064
 .byte   W12
 .byte   N23
 .byte   W24
 .byte   N11
 .byte   W12
 .byte   N23
 .byte   W24
 .byte   N07
 .byte   W08
 .byte   N07
 .byte   W08
 .byte   N07
 .byte   W08
 .byte   PEND 
@  #12 @026   ----------------------------------------
 .byte   PATT
  .word Label_015F5092
@  #12 @027   ----------------------------------------
 .byte   PATT
  .word Label_015F50AF
@  #12 @028   ----------------------------------------
 .byte   PATT
  .word Label_015F5092
@  #12 @029   ----------------------------------------
 .byte   N11 ,Dn1 ,v064
 .byte   W12
 .byte   N23
 .byte   W24
 .byte   N11
 .byte   W12
 .byte   N23
 .byte   W24
 .byte   N02
 .byte   W03
 .byte   N02
 .byte   W03
 .byte   N02
 .byte   W03
 .byte   N02
 .byte   W03
 .byte   N02
 .byte   W03
 .byte   N02
 .byte   W03
 .byte   N02
 .byte   W03
 .byte   N02
 .byte   W03
@  #12 @030   ----------------------------------------
 .byte   N23 ,Dn1 ,v076
 .byte   W24
 .byte   N02 ,Dn1 ,v064
 .byte   W03
 .byte   N02
 .byte   W03
 .byte   N02
 .byte   W03
 .byte   N02
 .byte   W03
 .byte   N02
 .byte   W03
 .byte   N02
 .byte   W03
 .byte   N02
 .byte   W03
 .byte   N02
 .byte   W03
 .byte   N23 ,Dn1 ,v076
 .byte   N02 ,En2 ,v096
 .byte   W02
 .byte   N02
 .byte   W03
 .byte   N02
 .byte   W03
 .byte   N02
 .byte   W03
 .byte   N02
 .byte   W03
 .byte   N02
 .byte   W03
 .byte   N02
 .byte   W03
 .byte   N02
 .byte   W03
 .byte   N02
 .byte   W01
 .byte   Dn1 ,v064
 .byte   W02
 .byte   En2 ,v096
 .byte   W01
 .byte   Dn1 ,v064
 .byte   W02
 .byte   En2 ,v096
 .byte   W01
 .byte   Dn1 ,v064
 .byte   W02
 .byte   En2 ,v096
 .byte   W01
 .byte   Dn1 ,v064
 .byte   W02
 .byte   En2 ,v096
 .byte   W01
 .byte   Dn1 ,v064
 .byte   W02
 .byte   En2 ,v096
 .byte   W01
 .byte   Dn1 ,v064
 .byte   W02
 .byte   En2 ,v096
 .byte   W01
 .byte   Dn1 ,v064
 .byte   W02
 .byte   TIE ,En2 ,v096
 .byte   W01
 .byte   N02 ,Dn1 ,v064
 .byte   W03
@  #12 @031   ----------------------------------------
 .byte   N23 ,Cn1 ,v116
 .byte   N23 ,Dn1
 .byte   W24
 .byte   N07 ,Dn1 ,v096
 .byte   W08
 .byte   N07
 .byte   W08
 .byte   N07
 .byte   W08
 .byte   N23 ,Cn1 ,v116
 .byte   N23 ,Dn1 ,v096
 .byte   W24
 .byte   Cn1 ,v116
 .byte   N23 ,Dn1 ,v096
 .byte   W24
@  #12 @032   ----------------------------------------
 .byte   Cn1 ,v116
 .byte   N23 ,Dn1 ,v096
 .byte   W24
 .byte   N23
 .byte   W24
 .byte   Cn1 ,v116
 .byte   N23 ,Dn1 ,v096
 .byte   W24
 .byte   Cn1 ,v116
 .byte   N23 ,Dn1 ,v096
 .byte   W22
 .byte   EOT
 .byte   En2
 .byte   W02
@  #12 @033   ----------------------------------------
 .byte   N23 ,Cn1 ,v116
 .byte   N23 ,Dn1 ,v096
 .byte   W24
 .byte   N07
 .byte   W08
 .byte   N07
 .byte   W08
 .byte   N07
 .byte   W08
 .byte   N23 ,Cn1 ,v116
 .byte   N23 ,Dn1 ,v096
 .byte   W24
 .byte   Cn1 ,v116
 .byte   N23 ,Dn1 ,v096
 .byte   W24
@  #12 @034   ----------------------------------------
 .byte   Cn1 ,v116
 .byte   N23 ,Dn1 ,v096
 .byte   W24
 .byte   Cn1 ,v116
 .byte   N23 ,Dn1 ,v096
 .byte   W24
 .byte   Cn1 ,v116
 .byte   N23 ,Dn1 ,v096
 .byte   W48
@  #12 @035   ----------------------------------------
Label_015F51A3:
 .byte   N11 ,Dn1 ,v080
 .byte   W12
 .byte   N23
 .byte   W24
 .byte   N11
 .byte   W12
 .byte   N23
 .byte   W24
 .byte   N02
 .byte   W03
 .byte   N02
 .byte   W03
 .byte   N02
 .byte   W03
 .byte   N02
 .byte   W03
 .byte   N02
 .byte   W03
 .byte   N02
 .byte   W03
 .byte   N02
 .byte   W03
 .byte   N02
 .byte   W03
 .byte   PEND 
@  #12 @036   ----------------------------------------
 .byte   N23 ,Dn1 ,v096
 .byte   W24
 .byte   N02 ,Dn1 ,v080
 .byte   W03
 .byte   N02
 .byte   W03
 .byte   N02
 .byte   W03
 .byte   N02
 .byte   W03
 .byte   N02
 .byte   W03
 .byte   N02
 .byte   W03
 .byte   N02
 .byte   W03
 .byte   N02
 .byte   W03
 .byte   N23 ,Dn1 ,v096
 .byte   W24
 .byte   N02 ,Dn1 ,v080
 .byte   W03
 .byte   N02
 .byte   W03
 .byte   N02
 .byte   W03
 .byte   N02
 .byte   W03
 .byte   N02
 .byte   W03
 .byte   N02
 .byte   W03
 .byte   N02
 .byte   W03
 .byte   N02
 .byte   W03
@  #12 @037   ----------------------------------------
 .byte   PATT
  .word Label_015F51A3
@  #12 @038   ----------------------------------------
 .byte   N23 ,Dn1 ,v096
 .byte   W24
 .byte   N02 ,Dn1 ,v080
 .byte   W03
 .byte   N02
 .byte   W03
 .byte   N02
 .byte   W03
 .byte   N02
 .byte   W03
 .byte   N02
 .byte   W03
 .byte   N02
 .byte   W03
 .byte   N02
 .byte   W03
 .byte   N02
 .byte   W03
 .byte   N23 ,Dn1 ,v096
 .byte   N02 ,En2 ,v080
 .byte   W02
 .byte   N02
 .byte   W03
 .byte   N02
 .byte   W03
 .byte   N02
 .byte   W03
 .byte   N02
 .byte   W03
 .byte   N02
 .byte   W03
 .byte   N02
 .byte   W03
 .byte   N02
 .byte   W03
 .byte   N02
 .byte   W01
 .byte   N23 ,Cn1 ,v096
 .byte   N02 ,Dn1
 .byte   W02
 .byte   En2 ,v080
 .byte   W01
 .byte   Dn1 ,v096
 .byte   W02
 .byte   En2 ,v080
 .byte   W01
 .byte   Dn1 ,v096
 .byte   W02
 .byte   En2 ,v080
 .byte   W01
 .byte   Dn1 ,v096
 .byte   W02
 .byte   En2 ,v080
 .byte   W01
 .byte   Dn1 ,v096
 .byte   W02
 .byte   En2 ,v080
 .byte   W01
 .byte   Dn1 ,v096
 .byte   W02
 .byte   En2 ,v080
 .byte   W01
 .byte   Dn1 ,v096
 .byte   W02
 .byte   TIE ,En2 ,v080
 .byte   W01
 .byte   N02 ,Dn1 ,v096
 .byte   W03
@  #12 @039   ----------------------------------------
Label_015F524E:
 .byte   N23 ,Cn1 ,v116
 .byte   N07 ,Dn1 ,v076
 .byte   W08
 .byte   N15 ,Dn1 ,v064
 .byte   W16
 .byte   N07 ,Dn1 ,v076
 .byte   W08
 .byte   N07
 .byte   W08
 .byte   N07
 .byte   W08
 .byte   N07
 .byte   W08
 .byte   N15 ,Dn1 ,v064
 .byte   W16
 .byte   N23 ,Cn1 ,v096
 .byte   N07 ,Dn1 ,v076
 .byte   W08
 .byte   Dn1 ,v064
 .byte   W08
 .byte   N07
 .byte   W08
 .byte   PEND 
@  #12 @040   ----------------------------------------
 .byte   N23 ,Cn1 ,v116
 .byte   N07 ,Dn1 ,v076
 .byte   W08
 .byte   N15 ,Dn1 ,v064
 .byte   W16
 .byte   N07 ,Dn1 ,v076
 .byte   W08
 .byte   N07
 .byte   W08
 .byte   N07
 .byte   W08
 .byte   N07
 .byte   W08
 .byte   N15 ,Dn1 ,v064
 .byte   W16
 .byte   N23 ,Cn1 ,v096
 .byte   N02 ,Dn1 ,v064
 .byte   W03
 .byte   N02
 .byte   W03
 .byte   N02
 .byte   W03
 .byte   N02
 .byte   W03
 .byte   N02
 .byte   W03
 .byte   N02
 .byte   W03
 .byte   N02
 .byte   W03
 .byte   N02
 .byte   W01
 .byte   EOT
 .byte   En2
 .byte   W02
@  #12 @041   ----------------------------------------
 .byte   PATT
  .word Label_015F524E
@  #12 @042   ----------------------------------------
Label_015F52AA:
 .byte   N23 ,Cn1 ,v116
 .byte   N07 ,Dn1 ,v076
 .byte   W08
 .byte   N15 ,Dn1 ,v064
 .byte   W16
 .byte   N07 ,Dn1 ,v076
 .byte   W08
 .byte   N07
 .byte   W08
 .byte   N07
 .byte   W08
 .byte   N07
 .byte   W08
 .byte   N15 ,Dn1 ,v064
 .byte   W16
 .byte   N23 ,Cn1 ,v096
 .byte   N02 ,Dn1 ,v064
 .byte   W03
 .byte   N02
 .byte   W03
 .byte   N02
 .byte   W03
 .byte   N02
 .byte   W03
 .byte   N02
 .byte   W03
 .byte   N02
 .byte   W03
 .byte   N02
 .byte   W03
 .byte   N02
 .byte   W03
 .byte   PEND 
@  #12 @043   ----------------------------------------
 .byte   PATT
  .word Label_015F524E
@  #12 @044   ----------------------------------------
 .byte   PATT
  .word Label_015F52AA
@  #12 @045   ----------------------------------------
 .byte   PATT
  .word Label_015F524E
@  #12 @046   ----------------------------------------
 .byte   N23 ,Cn1 ,v116
 .byte   N07 ,Dn1 ,v076
 .byte   W08
 .byte   N15 ,Dn1 ,v064
 .byte   W16
 .byte   N07 ,Dn1 ,v076
 .byte   W08
 .byte   N07
 .byte   W08
 .byte   N07
 .byte   W08
 .byte   N07
 .byte   N02 ,En2 ,v080
 .byte   W02
 .byte   N02
 .byte   W03
 .byte   N02
 .byte   W03
 .byte   N15 ,Dn1 ,v064
 .byte   N02 ,En2 ,v080
 .byte   W03
 .byte   N02
 .byte   W03
 .byte   N02
 .byte   W03
 .byte   N02
 .byte   W03
 .byte   N02
 .byte   W03
 .byte   N02
 .byte   W01
 .byte   Dn1 ,v076
 .byte   W02
 .byte   En2 ,v080
 .byte   W01
 .byte   Dn1 ,v076
 .byte   W02
 .byte   En2 ,v080
 .byte   W01
 .byte   Dn1 ,v076
 .byte   W02
 .byte   En2 ,v080
 .byte   W01
 .byte   Dn1 ,v076
 .byte   W02
 .byte   En2 ,v080
 .byte   W01
 .byte   Dn1 ,v076
 .byte   W02
 .byte   En2 ,v080
 .byte   W01
 .byte   Dn1 ,v076
 .byte   W02
 .byte   En2 ,v080
 .byte   W01
 .byte   Dn1 ,v076
 .byte   W02
 .byte   TIE ,En2 ,v080
 .byte   W01
 .byte   N02 ,Dn1 ,v076
 .byte   W03
@  #12 @047   ----------------------------------------
Label_015F5344:
 .byte   N11 ,Dn1 ,v052
 .byte   W12
 .byte   N23
 .byte   W24
 .byte   N11
 .byte   W12
 .byte   N23
 .byte   W24
 .byte   N07
 .byte   W08
 .byte   N07
 .byte   W08
 .byte   N07
 .byte   W08
 .byte   PEND 
@  #12 @048   ----------------------------------------
Label_015F5355:
 .byte   N23 ,Dn1 ,v052
 .byte   W24
 .byte   N07
 .byte   W08
 .byte   N07
 .byte   W08
 .byte   N07
 .byte   W08
 .byte   N23
 .byte   W24
 .byte   N02
 .byte   W03
 .byte   N02
 .byte   W03
 .byte   N02
 .byte   W03
 .byte   N02
 .byte   W03
 .byte   N02
 .byte   W03
 .byte   N02
 .byte   W03
 .byte   N02
 .byte   W03
 .byte   N02
 .byte   W01
 .byte   PEND 
 .byte   EOT
 .byte   En2
 .byte   W02
@  #12 @049   ----------------------------------------
Label_015F5375:
 .byte   N11 ,Dn1 ,v052
 .byte   W12
 .byte   N23
 .byte   W24
 .byte   N11
 .byte   W12
 .byte   N23
 .byte   W24
 .byte   N02
 .byte   W03
 .byte   N02
 .byte   W03
 .byte   N02
 .byte   W03
 .byte   N02
 .byte   W03
 .byte   N02
 .byte   W03
 .byte   N02
 .byte   W03
 .byte   N02
 .byte   W03
 .byte   N02
 .byte   W03
 .byte   PEND 
@  #12 @050   ----------------------------------------
Label_015F5390:
 .byte   N23 ,Dn1 ,v052
 .byte   W24
 .byte   N07
 .byte   W08
 .byte   N07
 .byte   W08
 .byte   N07
 .byte   W08
 .byte   N23
 .byte   W24
 .byte   N02
 .byte   W03
 .byte   N02
 .byte   W03
 .byte   N02
 .byte   W03
 .byte   N02
 .byte   W03
 .byte   N02
 .byte   W03
 .byte   N02
 .byte   W03
 .byte   N02
 .byte   W03
 .byte   N02
 .byte   W03
 .byte   PEND 
@  #12 @051   ----------------------------------------
 .byte   PATT
  .word Label_015F5344
@  #12 @052   ----------------------------------------
 .byte   PATT
  .word Label_015F5390
@  #12 @053   ----------------------------------------
 .byte   PATT
  .word Label_015F5344
@  #12 @054   ----------------------------------------
 .byte   PATT
  .word Label_015F5390
@  #12 @055   ----------------------------------------
 .byte   N23 ,Dn1 ,v052
 .byte   W24
 .byte   N07
 .byte   W08
 .byte   N07
 .byte   W08
 .byte   N07
 .byte   W08
 .byte   N23
 .byte   N02 ,En2 ,v080
 .byte   W02
 .byte   N02
 .byte   W03
 .byte   N02
 .byte   W03
 .byte   N02
 .byte   W03
 .byte   N02
 .byte   W03
 .byte   N02
 .byte   W03
 .byte   N02
 .byte   W03
 .byte   N02
 .byte   W03
 .byte   N02
 .byte   W01
 .byte   Dn1 ,v052
 .byte   W02
 .byte   En2 ,v080
 .byte   W01
 .byte   Dn1 ,v052
 .byte   W02
 .byte   En2 ,v080
 .byte   W01
 .byte   Dn1 ,v052
 .byte   W02
 .byte   En2 ,v080
 .byte   W01
 .byte   Dn1 ,v052
 .byte   W02
 .byte   En2 ,v080
 .byte   W01
 .byte   Dn1 ,v052
 .byte   W02
 .byte   En2 ,v080
 .byte   W01
 .byte   Dn1 ,v052
 .byte   W02
 .byte   En2 ,v080
 .byte   W01
 .byte   Dn1 ,v052
 .byte   W02
 .byte   TIE ,En2 ,v080
 .byte   W01
 .byte   N02 ,Dn1 ,v052
 .byte   W03
@  #12 @056   ----------------------------------------
 .byte   PATT
  .word Label_015F5344
@  #12 @057   ----------------------------------------
 .byte   PATT
  .word Label_015F5355
@  #12 @058   ----------------------------------------
 .byte   EOT
 .byte   En2
 .byte   W02
@  #12 @059   ----------------------------------------
 .byte   PATT
  .word Label_015F5375
@  #12 @060   ----------------------------------------
 .byte   PATT
  .word Label_015F5390
@  #12 @061   ----------------------------------------
 .byte   PATT
  .word Label_015F5344
@  #12 @062   ----------------------------------------
 .byte   PATT
  .word Label_015F5390
@  #12 @063   ----------------------------------------
 .byte   PATT
  .word Label_015F5344
@  #12 @064   ----------------------------------------
 .byte   N23 ,Dn1 ,v052
 .byte   W24
 .byte   N07
 .byte   W08
 .byte   N07
 .byte   W08
 .byte   N07
 .byte   W08
 .byte   N23
 .byte   N02 ,En2 ,v080
 .byte   W02
 .byte   N02
 .byte   W03
 .byte   N02
 .byte   W03
 .byte   N02
 .byte   W03
 .byte   N02
 .byte   W03
 .byte   N02
 .byte   W03
 .byte   N02
 .byte   W03
 .byte   N02
 .byte   W03
 .byte   N02
 .byte   W01
 .byte   Dn1 ,v060
 .byte   W02
 .byte   En2 ,v080
 .byte   W01
 .byte   Dn1 ,v060
 .byte   W02
 .byte   En2 ,v080
 .byte   W01
 .byte   Dn1 ,v060
 .byte   W02
 .byte   En2 ,v080
 .byte   W01
 .byte   Dn1 ,v060
 .byte   W02
 .byte   En2 ,v080
 .byte   W01
 .byte   Dn1 ,v060
 .byte   W02
 .byte   En2 ,v080
 .byte   W01
 .byte   Dn1 ,v060
 .byte   W02
 .byte   En2 ,v080
 .byte   W01
 .byte   Dn1 ,v060
 .byte   W02
 .byte   TIE ,En2 ,v080
 .byte   W01
 .byte   N02 ,Dn1 ,v060
 .byte   W03
@  #12 @065   ----------------------------------------
Label_015F5483:
 .byte   N23 ,Cn1 ,v096
 .byte   N07 ,Dn1 ,v060
 .byte   W08
 .byte   N15 ,Dn1 ,v052
 .byte   W16
 .byte   N07 ,Dn1 ,v060
 .byte   W08
 .byte   N07
 .byte   W08
 .byte   N07
 .byte   W08
 .byte   N07
 .byte   W08
 .byte   N15 ,Dn1 ,v052
 .byte   W16
 .byte   N23 ,Cn1 ,v096
 .byte   N07 ,Dn1 ,v060
 .byte   W08
 .byte   Dn1 ,v052
 .byte   W08
 .byte   N07
 .byte   W08
 .byte   PEND 
@  #12 @066   ----------------------------------------
 .byte   N23 ,Cn1 ,v096
 .byte   N07 ,Dn1 ,v060
 .byte   W08
 .byte   N15 ,Dn1 ,v052
 .byte   W16
 .byte   N07 ,Dn1 ,v060
 .byte   W08
 .byte   N07
 .byte   W08
 .byte   N07
 .byte   W08
 .byte   N44 ,Cn1 ,v096
 .byte   N07 ,Dn1 ,v060
 .byte   W08
 .byte   N15 ,Dn1 ,v052
 .byte   W16
 .byte   N02
 .byte   W03
 .byte   N02
 .byte   W03
 .byte   N02
 .byte   W03
 .byte   N02
 .byte   W03
 .byte   N02
 .byte   W03
 .byte   N02
 .byte   W03
 .byte   N02
 .byte   W03
 .byte   N02
 .byte   W01
 .byte   EOT
 .byte   En2
 .byte   W02
@  #12 @067   ----------------------------------------
 .byte   PATT
  .word Label_015F5483
@  #12 @068   ----------------------------------------
 .byte   N23 ,Cn1 ,v096
 .byte   N07 ,Dn1 ,v060
 .byte   W08
 .byte   N15 ,Dn1 ,v052
 .byte   W16
 .byte   N07 ,Dn1 ,v060
 .byte   W08
 .byte   N07
 .byte   W08
 .byte   N07
 .byte   W08
 .byte   N23 ,Cn1 ,v096
 .byte   N07 ,Dn1 ,v060
 .byte   W08
 .byte   N15 ,Dn1 ,v052
 .byte   W16
 .byte   N23 ,Cn1 ,v096
 .byte   N02 ,Dn1 ,v052
 .byte   W03
 .byte   N02
 .byte   W03
 .byte   N02
 .byte   W03
 .byte   N02
 .byte   W03
 .byte   N02
 .byte   W03
 .byte   N02
 .byte   W03
 .byte   N02
 .byte   W03
 .byte   N02
 .byte   W03
@  #12 @069   ----------------------------------------
 .byte   PATT
  .word Label_015F5483
@  #12 @070   ----------------------------------------
 .byte   N23 ,Cn1 ,v096
 .byte   N07 ,Dn1 ,v060
 .byte   W08
 .byte   N15 ,Dn1 ,v052
 .byte   W16
 .byte   N07 ,Dn1 ,v060
 .byte   W08
 .byte   N07
 .byte   W08
 .byte   N07
 .byte   W08
 .byte   N44 ,Cn1 ,v096
 .byte   N07 ,Dn1 ,v060
 .byte   W08
 .byte   N15 ,Dn1 ,v052
 .byte   W16
 .byte   N02
 .byte   W03
 .byte   N02
 .byte   W03
 .byte   N02
 .byte   W03
 .byte   N02
 .byte   W03
 .byte   N02
 .byte   W03
 .byte   N02
 .byte   W03
 .byte   N02
 .byte   W03
 .byte   N02
 .byte   W03
@  #12 @071   ----------------------------------------
 .byte   PATT
  .word Label_015F5483
@  #12 @072   ----------------------------------------
 .byte   N23 ,Cn1 ,v096
 .byte   N07 ,Dn1 ,v060
 .byte   W08
 .byte   N15 ,Dn1 ,v052
 .byte   W16
 .byte   N07 ,Dn1 ,v060
 .byte   W08
 .byte   N07
 .byte   W08
 .byte   N07
 .byte   W08
 .byte   N23 ,Cn1 ,v096
 .byte   N07 ,Dn1 ,v060
 .byte   W08
 .byte   N15 ,Dn1 ,v052
 .byte   W16
 .byte   N23 ,Cn1 ,v096
 .byte   N02 ,Dn1 ,v060
 .byte   W03
 .byte   N02
 .byte   W03
 .byte   N02
 .byte   W03
 .byte   N02
 .byte   W03
 .byte   N02
 .byte   W03
 .byte   N02
 .byte   W03
 .byte   N02
 .byte   W03
 .byte   N02
 .byte   W03
@  #12 @073   ----------------------------------------
 .byte   N23 ,Cn1 ,v096
 .byte   W24
 .byte   N02 ,Dn1 ,v052
 .byte   W02
 .byte   N02
 .byte   W03
 .byte   N02
 .byte   W03
 .byte   N02
 .byte   W03
 .byte   N02
 .byte   W03
 .byte   N02
 .byte   W03
 .byte   N02
 .byte   W03
 .byte   N02
 .byte   W03
 .byte   N02
 .byte   W03
 .byte   N02
 .byte   W03
 .byte   N02
 .byte   W03
 .byte   N02
 .byte   W03
 .byte   N02
 .byte   W03
 .byte   N02
 .byte   W03
 .byte   N02
 .byte   W03
 .byte   N02
 .byte   W03
 .byte   N02
 .byte   W03
 .byte   N02
 .byte   W03
 .byte   N02
 .byte   W03
 .byte   N02
 .byte   W03
 .byte   N02
 .byte   W02
 .byte   N02
 .byte   W03
 .byte   N02
 .byte   W03
 .byte   N02
 .byte   W05
@  #12 @074   ----------------------------------------
 .byte   Dn1 ,v056
 .byte   W02
 .byte   N02
 .byte   W03
 .byte   N02
 .byte   W03
 .byte   N02
 .byte   W03
 .byte   N02
 .byte   W03
 .byte   N02
 .byte   W03
 .byte   N02
 .byte   W03
 .byte   N02
 .byte   W03
 .byte   N02
 .byte   W03
 .byte   N02
 .byte   W03
 .byte   N02
 .byte   W03
 .byte   N02
 .byte   W03
 .byte   N02
 .byte   W03
 .byte   N02
 .byte   W03
 .byte   N02
 .byte   W03
 .byte   N02
 .byte   W03
 .byte   N02
 .byte   W01
 .byte   En2 ,v080
 .byte   W02
 .byte   Dn1 ,v056
 .byte   N02 ,En2 ,v080
 .byte   W03
 .byte   Dn1 ,v056
 .byte   N02 ,En2 ,v080
 .byte   W03
 .byte   Dn1 ,v056
 .byte   N02 ,En2 ,v080
 .byte   W03
 .byte   Dn1 ,v056
 .byte   N02 ,En2 ,v080
 .byte   W03
 .byte   Dn1 ,v056
 .byte   N02 ,En2 ,v080
 .byte   W03
 .byte   Dn1 ,v056
 .byte   N02 ,En2 ,v080
 .byte   W03
 .byte   Dn1 ,v056
 .byte   N02 ,En2 ,v080
 .byte   W03
 .byte   Dn1 ,v056
 .byte   N02 ,En2 ,v080
 .byte   W03
 .byte   Dn1 ,v056
 .byte   N02 ,En2 ,v080
 .byte   W03
 .byte   Dn1 ,v056
 .byte   N02 ,En2 ,v080
 .byte   W03
 .byte   Dn1 ,v056
 .byte   N02 ,En2 ,v080
 .byte   W03
 .byte   Dn1 ,v056
 .byte   N02 ,En2 ,v080
 .byte   W03
 .byte   Dn1 ,v056
 .byte   N02 ,En2 ,v080
 .byte   W03
 .byte   Dn1 ,v056
 .byte   N02 ,En2 ,v080
 .byte   W03
 .byte   Dn1 ,v056
 .byte   TIE ,En2 ,v080
 .byte   W04
@  #12 @075   ----------------------------------------
Label_015F5633:
 .byte   N23 ,Dn1 ,v064
 .byte   W24
 .byte   N07
 .byte   W08
 .byte   N07
 .byte   W08
 .byte   N07
 .byte   W08
 .byte   N23
 .byte   W24
 .byte   N23
 .byte   W24
 .byte   PEND 
@  #12 @076   ----------------------------------------
 .byte   N23
 .byte   W24
 .byte   N23
 .byte   W24
 .byte   N23
 .byte   W24
 .byte   N02
 .byte   W03
 .byte   N02
 .byte   W03
 .byte   N02
 .byte   W03
 .byte   N02
 .byte   W03
 .byte   N02
 .byte   W03
 .byte   N02
 .byte   W03
 .byte   N02
 .byte   W03
 .byte   N02
 .byte   W01
 .byte   EOT
 .byte   En2
 .byte   W02
@  #12 @077   ----------------------------------------
 .byte   PATT
  .word Label_015F5633
@  #12 @078   ----------------------------------------
Label_015F5660:
 .byte   N23 ,Dn1 ,v064
 .byte   W24
 .byte   N23
 .byte   W24
 .byte   N23
 .byte   W24
 .byte   N02
 .byte   W03
 .byte   N02
 .byte   W03
 .byte   N02
 .byte   W03
 .byte   N02
 .byte   W03
 .byte   N02
 .byte   W03
 .byte   N02
 .byte   W03
 .byte   N02
 .byte   W03
 .byte   N02
 .byte   W03
 .byte   PEND 
@  #12 @079   ----------------------------------------
 .byte   PATT
  .word Label_015F5633
@  #12 @080   ----------------------------------------
 .byte   PATT
  .word Label_015F5660
@  #12 @081   ----------------------------------------
 .byte   PATT
  .word Label_015F5633
@  #12 @082   ----------------------------------------
 .byte   N23 ,Dn1 ,v064
 .byte   W24
 .byte   N23
 .byte   W24
 .byte   N23
 .byte   N02 ,En2 ,v080
 .byte   W02
 .byte   N02
 .byte   W03
 .byte   N02
 .byte   W03
 .byte   N02
 .byte   W03
 .byte   N02
 .byte   W03
 .byte   N02
 .byte   W03
 .byte   N02
 .byte   W03
 .byte   N02
 .byte   W03
 .byte   N02
 .byte   W01
 .byte   Dn1 ,v064
 .byte   W02
 .byte   En2 ,v080
 .byte   W01
 .byte   Dn1 ,v064
 .byte   W02
 .byte   En2 ,v080
 .byte   W01
 .byte   Dn1 ,v064
 .byte   W02
 .byte   En2 ,v080
 .byte   W01
 .byte   Dn1 ,v064
 .byte   W02
 .byte   En2 ,v080
 .byte   W01
 .byte   Dn1 ,v064
 .byte   W02
 .byte   En2 ,v080
 .byte   W01
 .byte   Dn1 ,v064
 .byte   W02
 .byte   En2 ,v080
 .byte   W01
 .byte   Dn1 ,v064
 .byte   W02
 .byte   TIE ,En2 ,v080
 .byte   W01
 .byte   N02 ,Dn1 ,v064
 .byte   W03
@  #12 @083   ----------------------------------------
 .byte   PATT
  .word Label_015F5344
@  #12 @084   ----------------------------------------
 .byte   PATT
  .word Label_015F5355
@  #12 @085   ----------------------------------------
 .byte   EOT
 .byte   En2
 .byte   W02
@  #12 @086   ----------------------------------------
 .byte   PATT
  .word Label_015F5375
@  #12 @087   ----------------------------------------
 .byte   PATT
  .word Label_015F5390
@  #12 @088   ----------------------------------------
 .byte   PATT
  .word Label_015F5344
@  #12 @089   ----------------------------------------
 .byte   PATT
  .word Label_015F5390
@  #12 @090   ----------------------------------------
 .byte   PATT
  .word Label_015F5344
@  #12 @091   ----------------------------------------
 .byte   N11 ,Dn1 ,v052
 .byte   N92 ,En2 ,v080
 .byte   W12
 .byte   N23 ,Dn1 ,v052
 .byte   W24
 .byte   N11
 .byte   W12
 .byte   N23
 .byte   W24
 .byte   N07
 .byte   W08
 .byte   N07
 .byte   W08
 .byte   N07
 .byte   W08
@  #12 @092   ----------------------------------------
 .byte   PATT
  .word Label_015F5390
@  #12 @093   ----------------------------------------
 .byte   PATT
  .word Label_015F5375
@  #12 @094   ----------------------------------------
 .byte   N23 ,Dn1 ,v052
 .byte   W24
 .byte   N07
 .byte   W08
 .byte   N07
 .byte   W08
 .byte   N07
 .byte   W08
 .byte   N23
 .byte   N02 ,En2 ,v080
 .byte   W02
 .byte   N02
 .byte   W03
 .byte   N02
 .byte   W03
 .byte   N02
 .byte   W03
 .byte   N02
 .byte   W03
 .byte   N02
 .byte   W03
 .byte   N02
 .byte   W03
 .byte   N02
 .byte   W03
 .byte   N02
 .byte   W01
 .byte   N23 ,Cn1 ,v096
 .byte   N02 ,Dn1 ,v052
 .byte   W02
 .byte   En2 ,v080
 .byte   W01
 .byte   Dn1 ,v052
 .byte   W02
 .byte   En2 ,v080
 .byte   W01
 .byte   Dn1 ,v052
 .byte   W02
 .byte   En2 ,v080
 .byte   W01
 .byte   Dn1 ,v052
 .byte   W02
 .byte   En2 ,v080
 .byte   W01
 .byte   Dn1 ,v052
 .byte   W02
 .byte   En2 ,v080
 .byte   W01
 .byte   Dn1 ,v052
 .byte   W02
 .byte   En2 ,v080
 .byte   W01
 .byte   Dn1 ,v052
 .byte   W02
 .byte   TIE ,En2 ,v080
 .byte   W01
 .byte   N02 ,Dn1 ,v052
 .byte   W03
@  #12 @095   ----------------------------------------
 .byte   N23 ,Cn1 ,v096
 .byte   N11 ,Dn1 ,v052
 .byte   W12
 .byte   N23
 .byte   W24
 .byte   N11
 .byte   W12
 .byte   N23
 .byte   W24
 .byte   Cn1 ,v096
 .byte   N07 ,Dn1 ,v056
 .byte   W08
 .byte   N07
 .byte   W08
 .byte   N07
 .byte   W08
@  #12 @096   ----------------------------------------
 .byte   N23 ,Cn1 ,v096
 .byte   N23 ,Dn1 ,v056
 .byte   W24
 .byte   N07 ,Dn1 ,v060
 .byte   W08
 .byte   N07
 .byte   W08
 .byte   N07
 .byte   W08
 .byte   N23
 .byte   W24
 .byte   Cn1 ,v096
 .byte   N02 ,Dn1 ,v064
 .byte   W03
 .byte   N02
 .byte   W03
 .byte   N02
 .byte   W03
 .byte   N02
 .byte   W03
 .byte   N02
 .byte   W03
 .byte   N02
 .byte   W03
 .byte   N02
 .byte   W03
 .byte   N02
 .byte   W01
 .byte   EOT
 .byte   En2
 .byte   W02
@  #12 @097   ----------------------------------------
 .byte   N23 ,Cn1 ,v096
 .byte   N11 ,Dn1 ,v064
 .byte   W12
 .byte   N23 ,Dn1 ,v068
 .byte   W24
 .byte   N11
 .byte   W12
 .byte   N23
 .byte   W24
 .byte   Cn1 ,v096
 .byte   N07 ,Dn1 ,v072
 .byte   W08
 .byte   N07
 .byte   W08
 .byte   N07
 .byte   W08
@  #12 @098   ----------------------------------------
 .byte   N23 ,Cn1 ,v096
 .byte   N23 ,Dn1 ,v072
 .byte   W24
 .byte   N07 ,Dn1 ,v076
 .byte   W08
 .byte   N07
 .byte   W08
 .byte   N07
 .byte   W08
 .byte   N23
 .byte   W24
 .byte   Cn1 ,v096
 .byte   N23 ,Dn1 ,v080
 .byte   W24
@  #12 @099   ----------------------------------------
 .byte   Cn1 ,v096
 .byte   N23 ,Dn1 ,v064
 .byte   N92 ,En2
 .byte   W24
 .byte   N07 ,Dn1
 .byte   W08
 .byte   N07
 .byte   W08
 .byte   N07
 .byte   W08
 .byte   N23
 .byte   W24
 .byte   Cn1 ,v096
 .byte   N23 ,Dn1 ,v064
 .byte   W24
@  #12 @100   ----------------------------------------
 .byte   PATT
  .word Label_015F4F58
@  #12 @101   ----------------------------------------
 .byte   PATT
  .word Label_015F4F74
@  #12 @102   ----------------------------------------
 .byte   PATT
  .word Label_015F4F8A
@  #12 @103   ----------------------------------------
 .byte   PATT
  .word Label_015F4F74
@  #12 @104   ----------------------------------------
 .byte   PATT
  .word Label_015F4FCD
@  #12 @105   ----------------------------------------
 .byte   EOT
 .byte   En2
 .byte   W02
@  #12 @106   ----------------------------------------
 .byte   PATT
  .word Label_015F4F74
@  #12 @107   ----------------------------------------
 .byte   N23 ,Cn1 ,v096
 .byte   N23 ,Dn1 ,v064
 .byte   W24
 .byte   N23
 .byte   W24
 .byte   N23
 .byte   N02 ,En2
 .byte   W02
 .byte   N02
 .byte   W03
 .byte   N02
 .byte   W03
 .byte   N02
 .byte   W03
 .byte   N02
 .byte   W03
 .byte   N02
 .byte   W03
 .byte   N02
 .byte   W03
 .byte   N02
 .byte   W03
 .byte   N02
 .byte   W01
 .byte   Dn1
 .byte   W02
 .byte   En2
 .byte   W01
 .byte   Dn1
 .byte   W02
 .byte   En2
 .byte   W01
 .byte   Dn1
 .byte   W02
 .byte   En2
 .byte   W01
 .byte   Dn1
 .byte   W02
 .byte   En2
 .byte   W01
 .byte   Dn1
 .byte   W02
 .byte   En2
 .byte   W01
 .byte   Dn1
 .byte   W02
 .byte   En2
 .byte   W01
 .byte   Dn1
 .byte   W05
 .byte   N01
 .byte   W01
@  #12 @108   ----------------------------------------
 .byte   GOTO
  .word Label_015F4FF6
 .byte   FINE

@******************************************************@
	.align	2

song01:
	.byte	12	@ NumTrks
	.byte	0	@ NumBlks
	.byte	song01_pri	@ Priority
	.byte	song01_rev	@ Reverb.
    
	.word	song01_grp
    
	.word	song01_001
	.word	song01_002
	.word	song01_003
	.word	song01_004
	.word	song01_005
	.word	song01_006
	.word	song01_007
	.word	song01_008
	.word	song01_009
	.word	song01_010
	.word	song01_011
	.word	song01_012

	.end
