//Event file generated from Sappy .s format.
	#include "MPlayDef.event"

	#define	aOioP_grp  voicegroup000
	#define	aOioP_pri  0
	#define	aOioP_rev  0
	#define	aOioP_mvl  127
	#define	aOioP_key  0
	#define	aOioP_tbs  1
	#define	aOioP_exg  0
	#define	aOioP_cmp  1

	// .rodata
	//	aOioP
	ALIGN 4


//**************** Track 1 (Midi-Chn.0) ****************//

aOioP_001:
//  #01 //000   ----------------------------------------
 BYTE   KEYSH   aOioP_key+0
Label_013476CE:
 BYTE   TEMPO   114*aOioP_tbs/2
 BYTE   VOICE   40
 BYTE   VOL   50*aOioP_mvl/mxv
 BYTE   PAN   c_v+0
 BYTE   En3  v064
 BYTE   N05  En3  v088
 BYTE   W12
 BYTE   Gn3
 BYTE   W12
 BYTE   Fs3
 BYTE   W12
 BYTE   Fn3
 BYTE   W12
 BYTE   En3
 BYTE   W12
 BYTE   Gn3
 BYTE   W12
 BYTE   Fs3
 BYTE   W06
 BYTE   Gn3
 BYTE   W06
 BYTE   N11  An3
 BYTE   W12
//  #01 //001   ----------------------------------------
Label_013476ED:
 BYTE   N05  En3  v088
 BYTE   W12
 BYTE   Gn3
 BYTE   W12
 BYTE   Fs3
 BYTE   W12
 BYTE   Fn3
 BYTE   W12
 BYTE   En3
 BYTE   W06
 BYTE   Gn3
 BYTE   W06
 BYTE   N11  An3
 BYTE   W12
 BYTE   N05  En3
 BYTE   W06
 BYTE   Gn3
 BYTE   W06
 BYTE   N11  As3
 BYTE   W12
 BYTE   PEND 
//  #01 //002   ----------------------------------------
 BYTE   N05  En3
 BYTE   W12
 BYTE   Gn3
 BYTE   W12
 BYTE   Fs3
 BYTE   W12
 BYTE   Fn3
 BYTE   W12
 BYTE   En3
 BYTE   W12
 BYTE   Gn3
 BYTE   W12
 BYTE   Fs3
 BYTE   W06
 BYTE   Gn3
 BYTE   W06
 BYTE   N11  An3
 BYTE   W12
//  #01 //003   ----------------------------------------
 BYTE   PATT
  POIN2 Label_013476ED
//  #01 //004   ----------------------------------------
 BYTE   W96
//  #01 //005   ----------------------------------------
 BYTE   W96
//  #01 //006   ----------------------------------------
 BYTE   W96
//  #01 //007   ----------------------------------------
 BYTE   N05  En3  v108
 BYTE   W12
 BYTE   N02  Bn3
 BYTE   W02
 BYTE   N04  Cn4
 BYTE   W10
 BYTE   N05  Bn3
 BYTE   W12
 BYTE   Gn3
 BYTE   W12
 BYTE   As3
 BYTE   W12
 BYTE   Fs3
 BYTE   W12
 BYTE   An3
 BYTE   W12
 BYTE   Fn3
 BYTE   W12
//  #01 //008   ----------------------------------------
 BYTE   En3
 BYTE   W96
//  #01 //009   ----------------------------------------
 BYTE   W96
//  #01 //010   ----------------------------------------
 BYTE   W96
//  #01 //011   ----------------------------------------
 BYTE   W96
//  #01 //012   ----------------------------------------
 BYTE   W96
//  #01 //013   ----------------------------------------
 BYTE   W96
//  #01 //014   ----------------------------------------
 BYTE   W96
//  #01 //015   ----------------------------------------
 BYTE   W96
//  #01 //016   ----------------------------------------
 BYTE   W96
//  #01 //017   ----------------------------------------
 BYTE   W96
//  #01 //018   ----------------------------------------
 BYTE   W96
//  #01 //019   ----------------------------------------
 BYTE   W96
//  #01 //020   ----------------------------------------
 BYTE   W96
//  #01 //021   ----------------------------------------
 BYTE   W96
//  #01 //022   ----------------------------------------
 BYTE   W96
//  #01 //023   ----------------------------------------
 BYTE   W96
//  #01 //024   ----------------------------------------
 BYTE   W96
//  #01 //025   ----------------------------------------
 BYTE   W96
//  #01 //026   ----------------------------------------
Label_0134774D:
 BYTE   N56  En3  v108
 BYTE   W48
 BYTE   W12
 BYTE   N11
 BYTE   W12
 BYTE   Fs3
 BYTE   W12
 BYTE   Gn3
 BYTE   W12
 BYTE   PEND 
//  #01 //027   ----------------------------------------
Label_01347759:
 BYTE   N23  Bn3  v108
 BYTE   W24
 BYTE   An3
 BYTE   W24
 BYTE   Gn3
 BYTE   W24
 BYTE   Fs3
 BYTE   W24
 BYTE   PEND 
//  #01 //028   ----------------------------------------
Label_01347764:
 BYTE   N56  Fn3  v108
 BYTE   W48
 BYTE   W12
 BYTE   N11
 BYTE   W12
 BYTE   Gn3
 BYTE   W12
 BYTE   An3
 BYTE   W12
 BYTE   PEND 
//  #01 //029   ----------------------------------------
Label_01347770:
 BYTE   N23  Bn3  v108
 BYTE   W24
 BYTE   An3
 BYTE   W24
 BYTE   N32  Bn3
 BYTE   W36
 BYTE   N11  Cn4
 BYTE   W12
 BYTE   PEND 
//  #01 //030   ----------------------------------------
Label_0134777D:
 BYTE   N56  Bn3  v108
 BYTE   W48
 BYTE   W12
 BYTE   N11  En3
 BYTE   W12
 BYTE   Fs3
 BYTE   W12
 BYTE   Gn3
 BYTE   W12
 BYTE   PEND 
//  #01 //031   ----------------------------------------
Label_0134778A:
 BYTE   N23  Bn3  v108
 BYTE   W24
 BYTE   An3
 BYTE   W24
 BYTE   Dn4
 BYTE   W24
 BYTE   Cn4
 BYTE   W24
 BYTE   PEND 
//  #01 //032   ----------------------------------------
Label_01347795:
 BYTE   N44  Bn3  v108
 BYTE   W48
 BYTE   An3
 BYTE   W48
 BYTE   PEND 
//  #01 //033   ----------------------------------------
Label_0134779C:
 BYTE   N44  Gn3  v108
 BYTE   W48
 BYTE   Fs3
 BYTE   W48
 BYTE   PEND 
//  #01 //034   ----------------------------------------
 BYTE   PATT
  POIN2 Label_0134774D
//  #01 //035   ----------------------------------------
 BYTE   PATT
  POIN2 Label_0134778A
//  #01 //036   ----------------------------------------
Label_013477AD:
 BYTE   N56  Bn3  v108
 BYTE   W48
 BYTE   W12
 BYTE   N11  Fn3
 BYTE   W12
 BYTE   Gn3
 BYTE   W12
 BYTE   An3
 BYTE   W12
 BYTE   PEND 
//  #01 //037   ----------------------------------------
Label_013477BA:
 BYTE   N23  Bn3  v108
 BYTE   W24
 BYTE   An3
 BYTE   W24
 BYTE   Dn4
 BYTE   W24
 BYTE   En4
 BYTE   W24
 BYTE   PEND 
//  #01 //038   ----------------------------------------
 BYTE   PATT
  POIN2 Label_0134777D
//  #01 //039   ----------------------------------------
Label_013477CA:
 BYTE   N23  Bn3  v108
 BYTE   W24
 BYTE   An3
 BYTE   W24
 BYTE   Bn3
 BYTE   W24
 BYTE   Cn4
 BYTE   W24
 BYTE   PEND 
//  #01 //040   ----------------------------------------
Label_013477D5:
 BYTE   N44  Dn4  v108
 BYTE   W48
 BYTE   Cs4
 BYTE   W48
 BYTE   PEND 
//  #01 //041   ----------------------------------------
Label_013477DC:
 BYTE   N44  En4  v108
 BYTE   W48
 BYTE   Ds4
 BYTE   W48
 BYTE   PEND 
//  #01 //042   ----------------------------------------
 BYTE   TIE  En4
 BYTE   W96
//  #01 //043   ----------------------------------------
Label_013477E6:
 BYTE   W92
 BYTE   W03
 BYTE   PEND 
 BYTE   EOT
 BYTE   En4
 BYTE   W01
//  #01 //044   ----------------------------------------
 BYTE   W96
//  #01 //045   ----------------------------------------
 BYTE   W96
//  #01 //046   ----------------------------------------
 BYTE   W96
//  #01 //047   ----------------------------------------
 BYTE   W96
//  #01 //048   ----------------------------------------
 BYTE   W96
//  #01 //049   ----------------------------------------
 BYTE   W96
//  #01 //050   ----------------------------------------
 BYTE   W96
//  #01 //051   ----------------------------------------
 BYTE   W96
//  #01 //052   ----------------------------------------
 BYTE   W96
//  #01 //053   ----------------------------------------
 BYTE   W96
//  #01 //054   ----------------------------------------
 BYTE   W96
//  #01 //055   ----------------------------------------
 BYTE   W96
//  #01 //056   ----------------------------------------
 BYTE   W96
//  #01 //057   ----------------------------------------
 BYTE   N23  Ds4  v108
 BYTE   W24
 BYTE   Fs4
 BYTE   W24
 BYTE   Dn4
 BYTE   W24
 BYTE   Ds4
 BYTE   W24
//  #01 //058   ----------------------------------------
 BYTE   N56  En3
 BYTE   N92  En4
 BYTE   W48
 BYTE   W12
 BYTE   N11  En3
 BYTE   W12
 BYTE   Fs3
 BYTE   W12
 BYTE   Gn3
 BYTE   W12
//  #01 //059   ----------------------------------------
 BYTE   PATT
  POIN2 Label_01347759
//  #01 //060   ----------------------------------------
 BYTE   PATT
  POIN2 Label_01347764
//  #01 //061   ----------------------------------------
 BYTE   PATT
  POIN2 Label_01347770
//  #01 //062   ----------------------------------------
 BYTE   PATT
  POIN2 Label_0134777D
//  #01 //063   ----------------------------------------
 BYTE   PATT
  POIN2 Label_0134778A
//  #01 //064   ----------------------------------------
 BYTE   PATT
  POIN2 Label_01347795
//  #01 //065   ----------------------------------------
 BYTE   PATT
  POIN2 Label_0134779C
//  #01 //066   ----------------------------------------
 BYTE   PATT
  POIN2 Label_0134774D
//  #01 //067   ----------------------------------------
 BYTE   PATT
  POIN2 Label_0134778A
//  #01 //068   ----------------------------------------
 BYTE   PATT
  POIN2 Label_013477AD
//  #01 //069   ----------------------------------------
 BYTE   PATT
  POIN2 Label_013477BA
//  #01 //070   ----------------------------------------
 BYTE   PATT
  POIN2 Label_0134777D
//  #01 //071   ----------------------------------------
 BYTE   PATT
  POIN2 Label_013477CA
//  #01 //072   ----------------------------------------
 BYTE   PATT
  POIN2 Label_013477D5
//  #01 //073   ----------------------------------------
 BYTE   PATT
  POIN2 Label_013477DC
//  #01 //074   ----------------------------------------
Label_0134785B:
 BYTE   N11  En3  v108
 BYTE   W48
 BYTE   Fs3
 BYTE   W36
 BYTE   N23  Gn3
 BYTE   W12
 BYTE   PEND 
//  #01 //075   ----------------------------------------
Label_01347865:
 BYTE   W12
 BYTE   N11  Fs3  v108
 BYTE   W12
 BYTE   En3
 BYTE   W72
 BYTE   PEND 
//  #01 //076   ----------------------------------------
 BYTE   PATT
  POIN2 Label_0134785B
//  #01 //077   ----------------------------------------
 BYTE   W12
 BYTE   N11  Bn3  v108
 BYTE   W12
 BYTE   En3
 BYTE   W72
//  #01 //078   ----------------------------------------
 BYTE   PATT
  POIN2 Label_0134785B
//  #01 //079   ----------------------------------------
 BYTE   PATT
  POIN2 Label_01347865
//  #01 //080   ----------------------------------------
 BYTE   PATT
  POIN2 Label_0134785B
//  #01 //081   ----------------------------------------
 BYTE   W12
 BYTE   N11  Bn3  v108
 BYTE   W12
 BYTE   TIE  Cn4
 BYTE   W72
//  #01 //082   ----------------------------------------
 BYTE   PATT
  POIN2 Label_013477E6
//  #01 //083   ----------------------------------------
 BYTE   EOT
 BYTE   Cn4
 BYTE   TEMPO   114*aOioP_tbs/2
 BYTE   W01
 BYTE   W06
 BYTE   GoTo
  POIN2 Label_013476CE
 BYTE   FINE

//**************** Track 2 (Midi-Chn.1) ****************//

aOioP_002:
//  #02 //000   ----------------------------------------
 BYTE   KEYSH   aOioP_key+0
Label_0138280E:
 BYTE   VOICE   30
 BYTE   VOL   50*aOioP_mvl/mxv
 BYTE   PAN   c_v+0
 BYTE   En3  v064
 BYTE   N11  En2  v096
 BYTE   W12
 BYTE   Gn2
 BYTE   W12
 BYTE   Fs2
 BYTE   W12
 BYTE   Fn2
 BYTE   W12
 BYTE   En2
 BYTE   W12
 BYTE   Gn2
 BYTE   W12
 BYTE   N05  Fs2
 BYTE   W06
 BYTE   Gn2
 BYTE   W06
 BYTE   N11  An2
 BYTE   W12
//  #02 //001   ----------------------------------------
Label_0138282C:
 BYTE   N11  En2  v096
 BYTE   W12
 BYTE   Gn2
 BYTE   W12
 BYTE   Fs2
 BYTE   W12
 BYTE   Fn2
 BYTE   W12
 BYTE   N05  En2
 BYTE   W06
 BYTE   Gn2
 BYTE   W06
 BYTE   N11  An2
 BYTE   W12
 BYTE   N05  En2
 BYTE   W06
 BYTE   Gn2
 BYTE   W06
 BYTE   N11  As2
 BYTE   W12
 BYTE   PEND 
//  #02 //002   ----------------------------------------
 BYTE   En2
 BYTE   W12
 BYTE   Gn2
 BYTE   W12
 BYTE   Fs2
 BYTE   W12
 BYTE   Fn2
 BYTE   W12
 BYTE   En2
 BYTE   W12
 BYTE   Gn2
 BYTE   W12
 BYTE   N05  Fs2
 BYTE   W06
 BYTE   Gn2
 BYTE   W06
 BYTE   N11  An2
 BYTE   W12
//  #02 //003   ----------------------------------------
 BYTE   PATT
  POIN2 Label_0138282C
//  #02 //004   ----------------------------------------
 BYTE   N11  En1  v096
 BYTE   W12
 BYTE   Gn1
 BYTE   W12
 BYTE   Fs1
 BYTE   W12
 BYTE   Fn1
 BYTE   W12
 BYTE   En1
 BYTE   W12
 BYTE   Gn1
 BYTE   W12
 BYTE   N05  Fs1
 BYTE   W06
 BYTE   Gn1
 BYTE   W06
 BYTE   N11  An1
 BYTE   W12
//  #02 //005   ----------------------------------------
 BYTE   En1
 BYTE   W12
 BYTE   Gn1
 BYTE   W12
 BYTE   Fs1
 BYTE   W12
 BYTE   Fn1
 BYTE   W12
 BYTE   N05  En1
 BYTE   W06
 BYTE   Gn1
 BYTE   W06
 BYTE   N11  An1
 BYTE   W12
 BYTE   N05  En1
 BYTE   W06
 BYTE   Gn1
 BYTE   W06
 BYTE   N11  As1
 BYTE   W12
//  #02 //006   ----------------------------------------
 BYTE   En1
 BYTE   W12
 BYTE   Gn1
 BYTE   W12
 BYTE   Fs1
 BYTE   W12
 BYTE   Fn1
 BYTE   W12
 BYTE   En1
 BYTE   W12
 BYTE   Gn1
 BYTE   W12
 BYTE   N05  Fs1
 BYTE   W06
 BYTE   Gn1
 BYTE   W06
 BYTE   N11  An1
 BYTE   W12
//  #02 //007   ----------------------------------------
 BYTE   En1
 BYTE   W12
 BYTE   Cn2
 BYTE   W12
 BYTE   Bn1
 BYTE   W12
 BYTE   Gn1
 BYTE   W12
 BYTE   As1
 BYTE   W12
 BYTE   Fs1
 BYTE   W12
 BYTE   An1
 BYTE   W12
 BYTE   Fn1
 BYTE   W12
//  #02 //008   ----------------------------------------
 BYTE   W12
 BYTE   Gn2  v080
 BYTE   W12
 BYTE   Fs2
 BYTE   W12
 BYTE   Fn2
 BYTE   W12
 BYTE   En2
 BYTE   W12
 BYTE   Gn2
 BYTE   W12
 BYTE   N05  Fs2
 BYTE   W06
 BYTE   Gn2
 BYTE   W06
 BYTE   N11  An2
 BYTE   W12
//  #02 //009   ----------------------------------------
Label_013828C6:
 BYTE   N11  En2  v080
 BYTE   W12
 BYTE   Gn2
 BYTE   W12
 BYTE   Fs2
 BYTE   W12
 BYTE   Fn2
 BYTE   W12
 BYTE   En2
 BYTE   W12
 BYTE   Gn2
 BYTE   W12
 BYTE   N05  Fs2
 BYTE   W06
 BYTE   Gn2
 BYTE   W06
 BYTE   N11  An2
 BYTE   W12
 BYTE   PEND 
//  #02 //010   ----------------------------------------
Label_013828DD:
 BYTE   N11  Fn2  v080
 BYTE   W12
 BYTE   An2
 BYTE   W12
 BYTE   Gn2
 BYTE   W12
 BYTE   Fn2
 BYTE   W12
 BYTE   N11
 BYTE   W12
 BYTE   Bn2
 BYTE   W12
 BYTE   N05  Fn2
 BYTE   W06
 BYTE   An2
 BYTE   W06
 BYTE   N11  Cn3
 BYTE   W12
 BYTE   PEND 
//  #02 //011   ----------------------------------------
 BYTE   W96
//  #02 //012   ----------------------------------------
 BYTE   W12
 BYTE   Gn2
 BYTE   W12
 BYTE   Fs2
 BYTE   W12
 BYTE   Fn2
 BYTE   W12
 BYTE   En2
 BYTE   W12
 BYTE   Gn2
 BYTE   W12
 BYTE   N05  Fs2
 BYTE   W06
 BYTE   Gn2
 BYTE   W06
 BYTE   N11  An2
 BYTE   W12
//  #02 //013   ----------------------------------------
 BYTE   PATT
  POIN2 Label_013828C6
//  #02 //014   ----------------------------------------
 BYTE   PATT
  POIN2 Label_013828DD
//  #02 //015   ----------------------------------------
 BYTE   W96
//  #02 //016   ----------------------------------------
 BYTE   W96
//  #02 //017   ----------------------------------------
 BYTE   W96
//  #02 //018   ----------------------------------------
 BYTE   W96
//  #02 //019   ----------------------------------------
 BYTE   W96
//  #02 //020   ----------------------------------------
 BYTE   W96
//  #02 //021   ----------------------------------------
 BYTE   W96
//  #02 //022   ----------------------------------------
 BYTE   W96
//  #02 //023   ----------------------------------------
 BYTE   W96
//  #02 //024   ----------------------------------------
 BYTE   N11  En1  v092
 BYTE   W12
 BYTE   N11
 BYTE   W12
 BYTE   N05  Gn1
 BYTE   W06
 BYTE   Fs1
 BYTE   W06
 BYTE   En1
 BYTE   W06
 BYTE   N17  Gn1
 BYTE   W18
 BYTE   N11  En1
 BYTE   W12
 BYTE   As1
 BYTE   W12
 BYTE   Bn1
 BYTE   W12
//  #02 //025   ----------------------------------------
 BYTE   En1
 BYTE   W12
 BYTE   N11
 BYTE   W12
 BYTE   N05  Gn1
 BYTE   W06
 BYTE   Fs1
 BYTE   W06
 BYTE   En1
 BYTE   W06
 BYTE   N05
 BYTE   W54
//  #02 //026   ----------------------------------------
 BYTE   N56  Bn1  v080
 BYTE   W48
 BYTE   W12
 BYTE   N11
 BYTE   W12
 BYTE   An1
 BYTE   W12
 BYTE   Bn1
 BYTE   W12
//  #02 //027   ----------------------------------------
 BYTE   N23  Fs2
 BYTE   W24
 BYTE   Dn2
 BYTE   W24
 BYTE   Cn2
 BYTE   W24
 BYTE   Bn1
 BYTE   W24
//  #02 //028   ----------------------------------------
 BYTE   N56  Cn2
 BYTE   W48
 BYTE   W12
 BYTE   N11
 BYTE   W12
 BYTE   Dn2
 BYTE   W12
 BYTE   En2
 BYTE   W12
//  #02 //029   ----------------------------------------
 BYTE   N23
 BYTE   W24
 BYTE   Dn2
 BYTE   W24
 BYTE   N32  Fs2
 BYTE   W36
 BYTE   N11  Gn2
 BYTE   W12
//  #02 //030   ----------------------------------------
 BYTE   N56  Fs2
 BYTE   W48
 BYTE   W12
 BYTE   N11  Bn1
 BYTE   W12
 BYTE   Cs2
 BYTE   W12
 BYTE   Dn2
 BYTE   W12
//  #02 //031   ----------------------------------------
 BYTE   N23  Fs2
 BYTE   W24
 BYTE   En2
 BYTE   W24
 BYTE   An2
 BYTE   W24
 BYTE   Gn2
 BYTE   W24
//  #02 //032   ----------------------------------------
 BYTE   N44  En2
 BYTE   W48
 BYTE   Dn2
 BYTE   W48
//  #02 //033   ----------------------------------------
 BYTE   Cn2
 BYTE   W48
 BYTE   Bn1
 BYTE   W48
//  #02 //034   ----------------------------------------
 BYTE   N56  En1
 BYTE   W48
 BYTE   W12
 BYTE   N11
 BYTE   W12
 BYTE   Fs1
 BYTE   W12
 BYTE   Gn1
 BYTE   W12
//  #02 //035   ----------------------------------------
 BYTE   N23  Bn1
 BYTE   W24
 BYTE   An1
 BYTE   W24
 BYTE   Dn2
 BYTE   W24
 BYTE   Cn2
 BYTE   W24
//  #02 //036   ----------------------------------------
 BYTE   N56  Bn1
 BYTE   W48
 BYTE   W12
 BYTE   N11  Fn1
 BYTE   W12
 BYTE   Gn1
 BYTE   W12
 BYTE   An1
 BYTE   W12
//  #02 //037   ----------------------------------------
 BYTE   N23  Bn1
 BYTE   W24
 BYTE   An1
 BYTE   W24
 BYTE   Dn2
 BYTE   W24
 BYTE   En2
 BYTE   W24
//  #02 //038   ----------------------------------------
 BYTE   N56  Bn1
 BYTE   W48
 BYTE   W12
 BYTE   N11  En1
 BYTE   W12
 BYTE   Fs1
 BYTE   W12
 BYTE   Gn1
 BYTE   W12
//  #02 //039   ----------------------------------------
 BYTE   N23  Bn1
 BYTE   W24
 BYTE   An1
 BYTE   W24
 BYTE   Bn1
 BYTE   W24
 BYTE   Cn2
 BYTE   W24
//  #02 //040   ----------------------------------------
 BYTE   N44  Dn2
 BYTE   W48
 BYTE   Cs2
 BYTE   W48
//  #02 //041   ----------------------------------------
 BYTE   En2
 BYTE   W48
 BYTE   Ds2
 BYTE   W48
//  #02 //042   ----------------------------------------
 BYTE   TIE  En2
 BYTE   W96
//  #02 //043   ----------------------------------------
 BYTE   W92
 BYTE   W03
 BYTE   EOT
 BYTE   W01
//  #02 //044   ----------------------------------------
 BYTE   W96
//  #02 //045   ----------------------------------------
 BYTE   W96
//  #02 //046   ----------------------------------------
 BYTE   W96
//  #02 //047   ----------------------------------------
 BYTE   W96
//  #02 //048   ----------------------------------------
 BYTE   W96
//  #02 //049   ----------------------------------------
 BYTE   W96
//  #02 //050   ----------------------------------------
 BYTE   W96
//  #02 //051   ----------------------------------------
 BYTE   W96
//  #02 //052   ----------------------------------------
 BYTE   W96
//  #02 //053   ----------------------------------------
 BYTE   W96
//  #02 //054   ----------------------------------------
 BYTE   W96
//  #02 //055   ----------------------------------------
 BYTE   W96
//  #02 //056   ----------------------------------------
 BYTE   W96
//  #02 //057   ----------------------------------------
 BYTE   N23  Ds2  v096
 BYTE   W24
 BYTE   Fs2
 BYTE   W24
 BYTE   Dn2
 BYTE   W24
 BYTE   Ds2
 BYTE   W24
//  #02 //058   ----------------------------------------
 BYTE   N56  Bn1
 BYTE   W48
 BYTE   W12
 BYTE   N11
 BYTE   W12
 BYTE   An1
 BYTE   W12
 BYTE   Bn1
 BYTE   W12
//  #02 //059   ----------------------------------------
 BYTE   N23  Fs2
 BYTE   W24
 BYTE   Dn2
 BYTE   W24
 BYTE   Cn2
 BYTE   W24
 BYTE   Bn1
 BYTE   W24
//  #02 //060   ----------------------------------------
 BYTE   N56  Cn2
 BYTE   W48
 BYTE   W12
 BYTE   N11
 BYTE   W12
 BYTE   Dn2
 BYTE   W12
 BYTE   En2
 BYTE   W12
//  #02 //061   ----------------------------------------
 BYTE   N23
 BYTE   W24
 BYTE   Dn2
 BYTE   W24
 BYTE   N32  Fs2
 BYTE   W36
 BYTE   N11  Gn2
 BYTE   W12
//  #02 //062   ----------------------------------------
 BYTE   N56  Fs2
 BYTE   W48
 BYTE   W12
 BYTE   N11  Bn1
 BYTE   W12
 BYTE   Cs2
 BYTE   W12
 BYTE   Dn2
 BYTE   W12
//  #02 //063   ----------------------------------------
 BYTE   N23  Fs2
 BYTE   W24
 BYTE   En2
 BYTE   W24
 BYTE   An2
 BYTE   W24
 BYTE   Gn2
 BYTE   W24
//  #02 //064   ----------------------------------------
 BYTE   N44  En2
 BYTE   W48
 BYTE   Dn2
 BYTE   W48
//  #02 //065   ----------------------------------------
 BYTE   Cn2
 BYTE   W48
 BYTE   Bn1
 BYTE   W48
//  #02 //066   ----------------------------------------
 BYTE   N56  En1
 BYTE   W48
 BYTE   W12
 BYTE   N11
 BYTE   W12
 BYTE   Fs1
 BYTE   W12
 BYTE   Gn1
 BYTE   W12
//  #02 //067   ----------------------------------------
 BYTE   N23  Bn1
 BYTE   W24
 BYTE   An1
 BYTE   W24
 BYTE   Dn2
 BYTE   W24
 BYTE   Cn2
 BYTE   W24
//  #02 //068   ----------------------------------------
 BYTE   N56  Bn1
 BYTE   W48
 BYTE   W12
 BYTE   N11  Fn1
 BYTE   W12
 BYTE   Gn1
 BYTE   W12
 BYTE   An1
 BYTE   W12
//  #02 //069   ----------------------------------------
 BYTE   N23  Bn1
 BYTE   W24
 BYTE   An1
 BYTE   W24
 BYTE   Dn2
 BYTE   W24
 BYTE   En2
 BYTE   W24
//  #02 //070   ----------------------------------------
 BYTE   N56  Bn1
 BYTE   W48
 BYTE   W12
 BYTE   N11  En1
 BYTE   W12
 BYTE   Fs1
 BYTE   W12
 BYTE   Gn1
 BYTE   W12
//  #02 //071   ----------------------------------------
 BYTE   N23  Bn1
 BYTE   W24
 BYTE   An1
 BYTE   W24
 BYTE   Bn1
 BYTE   W24
 BYTE   Cn2
 BYTE   W24
//  #02 //072   ----------------------------------------
 BYTE   N44  Dn2
 BYTE   W48
 BYTE   Cs2
 BYTE   W48
//  #02 //073   ----------------------------------------
 BYTE   En2
 BYTE   W48
 BYTE   Ds2
 BYTE   W48
//  #02 //074   ----------------------------------------
 BYTE   N23  En1
 BYTE   W48
 BYTE   Fs1
 BYTE   W36
 BYTE   Gn1
 BYTE   W12
//  #02 //075   ----------------------------------------
 BYTE   W12
 BYTE   N11  Fs1
 BYTE   W12
 BYTE   N23  En1
 BYTE   W72
//  #02 //076   ----------------------------------------
Label_01382A7C:
 BYTE   N23  En1  v096
 BYTE   W48
 BYTE   Fs1
 BYTE   W36
 BYTE   Gn1
 BYTE   W12
 BYTE   PEND 
//  #02 //077   ----------------------------------------
 BYTE   W12
 BYTE   N11  Bn1
 BYTE   W12
 BYTE   N23  En1
 BYTE   W72
//  #02 //078   ----------------------------------------
 BYTE   PATT
  POIN2 Label_01382A7C
//  #02 //079   ----------------------------------------
 BYTE   W12
 BYTE   N11  Fs1  v096
 BYTE   W12
 BYTE   N23  En1
 BYTE   W72
//  #02 //080   ----------------------------------------
 BYTE   PATT
  POIN2 Label_01382A7C
//  #02 //081   ----------------------------------------
 BYTE   W12
 BYTE   N11  Bn1  v096
 BYTE   W12
 BYTE   TIE  Cn2
 BYTE   W72
//  #02 //082   ----------------------------------------
 BYTE   W72
 BYTE   N01  En3
 BYTE   W01
 BYTE   Ds3
 BYTE   W02
 BYTE   Dn3
 BYTE   W02
 BYTE   Cs3
 BYTE   W04
 BYTE   Bn2
 BYTE   W02
 BYTE   As2
 BYTE   W02
 BYTE   An2
 BYTE   W02
 BYTE   Gs2
 BYTE   W02
 BYTE   Gn2
 BYTE   W01
 BYTE   Fs2
 BYTE   W02
 BYTE   N02  Fn2
 BYTE   W03
 BYTE   EOT
 BYTE   Cn2
 BYTE   N01  En2
 BYTE   W01
//  #02 //083   ----------------------------------------
 BYTE   W06
 BYTE   GoTo
  POIN2 Label_0138280E
 BYTE   FINE

//**************** Track 3 (Midi-Chn.2) ****************//

aOioP_003:
//  #03 //000   ----------------------------------------
 BYTE   KEYSH   aOioP_key+0
Label_015C840E:
 BYTE   VOICE   40
 BYTE   VOL   50*aOioP_mvl/mxv
 BYTE   PAN   c_v+0
 BYTE   En3  v064
 BYTE   W96
//  #03 //001   ----------------------------------------
 BYTE   W96
//  #03 //002   ----------------------------------------
 BYTE   W96
//  #03 //003   ----------------------------------------
 BYTE   W96
//  #03 //004   ----------------------------------------
 BYTE   W96
//  #03 //005   ----------------------------------------
 BYTE   W96
//  #03 //006   ----------------------------------------
 BYTE   W96
//  #03 //007   ----------------------------------------
 BYTE   W96
//  #03 //008   ----------------------------------------
Label_015C841E:
 BYTE   W24
 BYTE   N48  En3  v112
 BYTE   W48
 BYTE   N23  Ds3
 BYTE   W24
 BYTE   PEND 
//  #03 //009   ----------------------------------------
 BYTE   Gn3
 BYTE   W24
 BYTE   Fs3
 BYTE   W24
 BYTE   Gn3
 BYTE   W24
 BYTE   As3
 BYTE   W24
//  #03 //010   ----------------------------------------
 BYTE   N32  Bn3
 BYTE   W36
 BYTE   TIE  Cn4
 BYTE   W60
//  #03 //011   ----------------------------------------
 BYTE   W92
 BYTE   W03
 BYTE   EOT
 BYTE   W01
//  #03 //012   ----------------------------------------
 BYTE   PATT
  POIN2 Label_015C841E
//  #03 //013   ----------------------------------------
 BYTE   N23  Gn3  v112
 BYTE   W24
 BYTE   Fs3
 BYTE   W24
 BYTE   An3
 BYTE   W24
 BYTE   Bn3
 BYTE   W24
//  #03 //014   ----------------------------------------
 BYTE   N32  Cn4
 BYTE   W36
 BYTE   TIE  Gn4
 BYTE   W60
//  #03 //015   ----------------------------------------
 BYTE   W92
 BYTE   W03
 BYTE   EOT
 BYTE   W01
//  #03 //016   ----------------------------------------
 BYTE   N56  En3
 BYTE   W60
 BYTE   N11  Bn2
 BYTE   W12
 BYTE   N11
 BYTE   W12
 BYTE   En3
 BYTE   W12
//  #03 //017   ----------------------------------------
 BYTE   N56  Ds3
 BYTE   W60
 BYTE   N11
 BYTE   W12
 BYTE   N11
 BYTE   W12
 BYTE   En3
 BYTE   W12
//  #03 //018   ----------------------------------------
 BYTE   N56  Fs3
 BYTE   W60
 BYTE   N11
 BYTE   W12
 BYTE   Gn3
 BYTE   W12
 BYTE   Fs3
 BYTE   W12
//  #03 //019   ----------------------------------------
 BYTE   N32
 BYTE   W36
 BYTE   N05  Gn3
 BYTE   W06
 BYTE   Fs3
 BYTE   W06
 BYTE   N23  En3
 BYTE   W24
 BYTE   N05
 BYTE   W06
 BYTE   Fs3
 BYTE   W06
 BYTE   Gn3
 BYTE   W06
 BYTE   An3
 BYTE   W06
//  #03 //020   ----------------------------------------
 BYTE   N56  Bn3
 BYTE   W60
 BYTE   N11  Gn3
 BYTE   W12
 BYTE   N11
 BYTE   W12
 BYTE   Bn3
 BYTE   W12
//  #03 //021   ----------------------------------------
 BYTE   N44  An3
 BYTE   W48
 BYTE   N32  Bn3
 BYTE   W36
 BYTE   N11  Cn4
 BYTE   W12
//  #03 //022   ----------------------------------------
 BYTE   N56  Bn3
 BYTE   W60
 BYTE   N11
 BYTE   W12
 BYTE   N11
 BYTE   W12
 BYTE   Cn4
 BYTE   W12
//  #03 //023   ----------------------------------------
 BYTE   N92  Bn3
 BYTE   W96
//  #03 //024   ----------------------------------------
 BYTE   W96
//  #03 //025   ----------------------------------------
 BYTE   W96
//  #03 //026   ----------------------------------------
 BYTE   W96
//  #03 //027   ----------------------------------------
 BYTE   W96
//  #03 //028   ----------------------------------------
 BYTE   W96
//  #03 //029   ----------------------------------------
 BYTE   W96
//  #03 //030   ----------------------------------------
 BYTE   W96
//  #03 //031   ----------------------------------------
 BYTE   W96
//  #03 //032   ----------------------------------------
 BYTE   W96
//  #03 //033   ----------------------------------------
 BYTE   W96
//  #03 //034   ----------------------------------------
 BYTE   W96
//  #03 //035   ----------------------------------------
 BYTE   W96
//  #03 //036   ----------------------------------------
 BYTE   W96
//  #03 //037   ----------------------------------------
 BYTE   W96
//  #03 //038   ----------------------------------------
 BYTE   W96
//  #03 //039   ----------------------------------------
 BYTE   W96
//  #03 //040   ----------------------------------------
 BYTE   W96
//  #03 //041   ----------------------------------------
 BYTE   W96
//  #03 //042   ----------------------------------------
 BYTE   W96
//  #03 //043   ----------------------------------------
 BYTE   W96
//  #03 //044   ----------------------------------------
 BYTE   W96
//  #03 //045   ----------------------------------------
 BYTE   W96
//  #03 //046   ----------------------------------------
 BYTE   W96
//  #03 //047   ----------------------------------------
 BYTE   W96
//  #03 //048   ----------------------------------------
 BYTE   W96
//  #03 //049   ----------------------------------------
 BYTE   W96
//  #03 //050   ----------------------------------------
 BYTE   W24
 BYTE   N44  En3
 BYTE   W48
 BYTE   N11  Ds3
 BYTE   W24
//  #03 //051   ----------------------------------------
 BYTE   W24
 BYTE   N44  Dn3
 BYTE   W48
 BYTE   N11  Cs3
 BYTE   W24
//  #03 //052   ----------------------------------------
 BYTE   W24
 BYTE   N44  Cn3
 BYTE   W48
 BYTE   N11  Bn2
 BYTE   W24
//  #03 //053   ----------------------------------------
 BYTE   W24
 BYTE   N44
 BYTE   W48
 BYTE   N11  Dn3
 BYTE   W12
 BYTE   Cn3
 BYTE   W12
//  #03 //054   ----------------------------------------
 BYTE   W24
 BYTE   N44  Gn3
 BYTE   W48
 BYTE   N11  En3
 BYTE   W24
//  #03 //055   ----------------------------------------
 BYTE   W24
 BYTE   N44  Bn3
 BYTE   W48
 BYTE   N11  An3
 BYTE   W24
//  #03 //056   ----------------------------------------
 BYTE   W24
 BYTE   N44  Ds4
 BYTE   W48
 BYTE   N11  Cn3
 BYTE   W24
//  #03 //057   ----------------------------------------
 BYTE   W96
//  #03 //058   ----------------------------------------
 BYTE   W36
 BYTE   N05  Dn4
 BYTE   W06
 BYTE   Cn4
 BYTE   W06
 BYTE   N32  Bn3
 BYTE   W36
 BYTE   N05  An3
 BYTE   W06
 BYTE   Gn3
 BYTE   W06
//  #03 //059   ----------------------------------------
 BYTE   N32  Fs3
 BYTE   W36
 BYTE   N05  En3
 BYTE   W06
 BYTE   Dn3
 BYTE   W06
 BYTE   N44  Bn2
 BYTE   W48
//  #03 //060   ----------------------------------------
 BYTE   N96  Cn3
 BYTE   W96
//  #03 //061   ----------------------------------------
 BYTE   W48
 BYTE   N01  Cn4
 BYTE   W01
 BYTE   Bn3
 BYTE   W02
 BYTE   As3
 BYTE   W03
 BYTE   An3
 BYTE   W01
 BYTE   Gs3
 BYTE   W02
 BYTE   Gn3
 BYTE   W03
 BYTE   Fs3
 BYTE   W01
 BYTE   Fn3
 BYTE   W02
 BYTE   En3
 BYTE   W03
 BYTE   Ds3
 BYTE   W01
 BYTE   Dn3
 BYTE   W02
 BYTE   Cs3
 BYTE   W03
 BYTE   Cn3
 BYTE   W01
 BYTE   Bn2
 BYTE   W02
 BYTE   As2
 BYTE   W03
 BYTE   An2
 BYTE   W01
 BYTE   Gs2
 BYTE   W02
 BYTE   Gn2
 BYTE   W03
 BYTE   Fs2
 BYTE   W01
 BYTE   Fn2
 BYTE   W02
 BYTE   En2
 BYTE   W03
 BYTE   Ds2
 BYTE   W01
 BYTE   Dn2
 BYTE   W02
 BYTE   Cs2
 BYTE   W03
//  #03 //062   ----------------------------------------
 BYTE   Cn2
 BYTE   W96
//  #03 //063   ----------------------------------------
 BYTE   W96
//  #03 //064   ----------------------------------------
 BYTE   W96
//  #03 //065   ----------------------------------------
 BYTE   W96
//  #03 //066   ----------------------------------------
 BYTE   W96
//  #03 //067   ----------------------------------------
 BYTE   W96
//  #03 //068   ----------------------------------------
 BYTE   W96
//  #03 //069   ----------------------------------------
 BYTE   W96
//  #03 //070   ----------------------------------------
 BYTE   W96
//  #03 //071   ----------------------------------------
 BYTE   W96
//  #03 //072   ----------------------------------------
 BYTE   W96
//  #03 //073   ----------------------------------------
 BYTE   W96
//  #03 //074   ----------------------------------------
 BYTE   W96
//  #03 //075   ----------------------------------------
 BYTE   W48
 BYTE   N05  Bn2  v064
 BYTE   N05  En3
 BYTE   W06
 BYTE   Bn2
 BYTE   N05  En3
 BYTE   W18
 BYTE   Bn2
 BYTE   N05  En3
 BYTE   W06
 BYTE   Bn2
 BYTE   N05  En3
 BYTE   W06
 BYTE   Bn2
 BYTE   N05  En3
 BYTE   W06
 BYTE   Bn2
 BYTE   N05  En3
 BYTE   W06
//  #03 //076   ----------------------------------------
 BYTE   N11  En2
 BYTE   N11  Bn2
 BYTE   N11  En3
 BYTE   W12
 BYTE   N01
 BYTE   W01
 BYTE   Bn2
 BYTE   W01
 BYTE   N01
 BYTE   W01
 BYTE   N01
 BYTE   W03
 BYTE   En2
 BYTE   W06
 BYTE   N05  En1
 BYTE   W06
 BYTE   N05
 BYTE   W06
 BYTE   N05
 BYTE   W06
 BYTE   N05
 BYTE   W54
//  #03 //077   ----------------------------------------
 BYTE   W48
 BYTE   En2
 BYTE   N05  Bn2
 BYTE   N05  En3
 BYTE   W06
 BYTE   En2
 BYTE   N05  Bn2
 BYTE   N05  En3
 BYTE   W12
 BYTE   En2
 BYTE   N05  An2
 BYTE   N05  En3
 BYTE   W06
 BYTE   Fn2
 BYTE   N05  As2
 BYTE   N05  Fn3
 BYTE   W06
 BYTE   Fn2
 BYTE   N05  As2
 BYTE   N05  Fn3
 BYTE   W06
 BYTE   Fn2
 BYTE   N05  As2
 BYTE   N05  Fn3
 BYTE   W06
 BYTE   Fn2
 BYTE   N05  As2
 BYTE   N05  Fn3
 BYTE   W06
//  #03 //078   ----------------------------------------
 BYTE   N11  Fs2
 BYTE   N11  Cs3
 BYTE   N11  Fs3
 BYTE   W12
 BYTE   N01
 BYTE   W02
 BYTE   Cs3
 BYTE   W03
 BYTE   Fs2
 BYTE   W07
 BYTE   N11
 BYTE   N11  Cs3
 BYTE   N11  Fs3
 BYTE   W12
 BYTE   N01
 BYTE   W02
 BYTE   Cs3
 BYTE   W03
 BYTE   Fs2
 BYTE   W06
 BYTE   Fs1
 BYTE   W48
 BYTE   W01
//  #03 //079   ----------------------------------------
 BYTE   W48
 BYTE   N05  En2
 BYTE   N05  Bn2
 BYTE   N05  En3
 BYTE   W06
 BYTE   En2
 BYTE   N05  Bn2
 BYTE   N05  En3
 BYTE   W06
 BYTE   En2
 BYTE   W06
 BYTE   N05
 BYTE   W06
 BYTE   N05
 BYTE   N05  Bn2
 BYTE   N05  En3
 BYTE   W06
 BYTE   En2
 BYTE   N05  Bn2
 BYTE   N05  En3
 BYTE   W06
 BYTE   En2
 BYTE   N05  Bn2
 BYTE   N05  En3
 BYTE   W06
 BYTE   En2
 BYTE   N05  Bn2
 BYTE   N05  En3
 BYTE   W06
//  #03 //080   ----------------------------------------
 BYTE   N11  En2
 BYTE   N11  Bn2
 BYTE   N11  En3
 BYTE   W12
 BYTE   N01  Bn2
 BYTE   N01  En3
 BYTE   W01
 BYTE   Bn2
 BYTE   W01
 BYTE   N01
 BYTE   W01
 BYTE   N01
 BYTE   W01
 BYTE   N01
 BYTE   W08
 BYTE   N05  En1
 BYTE   W06
 BYTE   N05
 BYTE   W06
 BYTE   N05
 BYTE   W06
 BYTE   N05
 BYTE   W54
//  #03 //081   ----------------------------------------
 BYTE   W96
//  #03 //082   ----------------------------------------
 BYTE   W96
//  #03 //083   ----------------------------------------
 BYTE   W06
 BYTE   GoTo
  POIN2 Label_015C840E
 BYTE   FINE

//**************** Track 4 (Midi-Chn.3) ****************//

aOioP_004:
//  #04 //000   ----------------------------------------
 BYTE   KEYSH   aOioP_key+0
Label_015C8616:
 BYTE   VOICE   55
 BYTE   VOL   80*aOioP_mvl/mxv
 BYTE   PAN   c_v+0
 BYTE   En3  v064
 BYTE   PAN   c_v+0
 BYTE   W96
//  #04 //001   ----------------------------------------
 BYTE   W96
//  #04 //002   ----------------------------------------
 BYTE   W96
//  #04 //003   ----------------------------------------
 BYTE   W96
//  #04 //004   ----------------------------------------
 BYTE   W96
//  #04 //005   ----------------------------------------
 BYTE   W96
//  #04 //006   ----------------------------------------
 BYTE   W96
//  #04 //007   ----------------------------------------
 BYTE   N11  En2  v096
 BYTE   N11  En3
 BYTE   W12
 BYTE   Cn3
 BYTE   N11  Cn4
 BYTE   W12
 BYTE   Bn2
 BYTE   N11  Bn3
 BYTE   W12
 BYTE   Gn2
 BYTE   N11  Gn3
 BYTE   W12
 BYTE   As2
 BYTE   N11  As3
 BYTE   W12
 BYTE   Fs2
 BYTE   N11  Fs3
 BYTE   W12
 BYTE   An2
 BYTE   N11  An3
 BYTE   W12
 BYTE   Fn2
 BYTE   N11  Fn3
 BYTE   W12
//  #04 //008   ----------------------------------------
 BYTE   En2
 BYTE   N11  En3
 BYTE   W96
//  #04 //009   ----------------------------------------
 BYTE   W96
//  #04 //010   ----------------------------------------
 BYTE   W96
//  #04 //011   ----------------------------------------
 BYTE   N17  Fn2
 BYTE   N17  Fn3
 BYTE   W18
 BYTE   Fn2
 BYTE   N17  Fn3
 BYTE   W18
 BYTE   N11  Fn2
 BYTE   N11  Fn3
 BYTE   W12
 BYTE   N17  Fn2
 BYTE   N17  Fn3
 BYTE   W18
 BYTE   Fn2
 BYTE   N17  Fn3
 BYTE   W18
 BYTE   N11  Fn2
 BYTE   N11  Fn3
 BYTE   W12
//  #04 //012   ----------------------------------------
 BYTE   En2
 BYTE   N11  En3
 BYTE   W96
//  #04 //013   ----------------------------------------
 BYTE   W96
//  #04 //014   ----------------------------------------
 BYTE   W96
//  #04 //015   ----------------------------------------
 BYTE   N17  Fn2
 BYTE   N17  Fn3
 BYTE   W18
 BYTE   Fn2
 BYTE   N17  Fn3
 BYTE   W18
 BYTE   N11  Fn2
 BYTE   N11  Fn3
 BYTE   W12
 BYTE   N17  Fn2
 BYTE   N17  Fn3
 BYTE   W18
 BYTE   Fn2
 BYTE   N17  Fn3
 BYTE   W18
 BYTE   N11  Fn2
 BYTE   N11  Fn3
 BYTE   W12
//  #04 //016   ----------------------------------------
 BYTE   N92  Bn2  v080
 BYTE   W96
//  #04 //017   ----------------------------------------
 BYTE   N92
 BYTE   W96
//  #04 //018   ----------------------------------------
 BYTE   N92
 BYTE   W96
//  #04 //019   ----------------------------------------
 BYTE   N92
 BYTE   W96
//  #04 //020   ----------------------------------------
 BYTE   N92
 BYTE   W96
//  #04 //021   ----------------------------------------
 BYTE   N92
 BYTE   W96
//  #04 //022   ----------------------------------------
 BYTE   N92
 BYTE   W96
//  #04 //023   ----------------------------------------
 BYTE   N08  Bn0
 BYTE   N08  Bn1  v096
 BYTE   N08  Bn2
 BYTE   W18
 BYTE   Cn1  v080
 BYTE   N08  Cn2  v096
 BYTE   N08  Cn3
 BYTE   W18
 BYTE   Dn1  v080
 BYTE   N08  Dn2  v096
 BYTE   N08  Dn3
 BYTE   W18
 BYTE   Bn0  v080
 BYTE   N08  Bn1  v096
 BYTE   N08  Bn2
 BYTE   W18
 BYTE   N05  Cn1  v080
 BYTE   N05  Cn2  v096
 BYTE   N05  Cn3
 BYTE   W12
 BYTE   Dn1  v080
 BYTE   N05  Dn2  v096
 BYTE   N05  Dn3
 BYTE   W12
//  #04 //024   ----------------------------------------
 BYTE   W96
//  #04 //025   ----------------------------------------
 BYTE   W96
//  #04 //026   ----------------------------------------
 BYTE   W96
//  #04 //027   ----------------------------------------
 BYTE   W96
//  #04 //028   ----------------------------------------
 BYTE   W96
//  #04 //029   ----------------------------------------
 BYTE   W96
//  #04 //030   ----------------------------------------
 BYTE   W96
//  #04 //031   ----------------------------------------
 BYTE   W96
//  #04 //032   ----------------------------------------
 BYTE   W96
//  #04 //033   ----------------------------------------
 BYTE   W96
//  #04 //034   ----------------------------------------
 BYTE   W96
//  #04 //035   ----------------------------------------
 BYTE   W96
//  #04 //036   ----------------------------------------
 BYTE   W96
//  #04 //037   ----------------------------------------
 BYTE   W96
//  #04 //038   ----------------------------------------
 BYTE   W96
//  #04 //039   ----------------------------------------
 BYTE   W96
//  #04 //040   ----------------------------------------
 BYTE   W96
//  #04 //041   ----------------------------------------
 BYTE   W96
//  #04 //042   ----------------------------------------
 BYTE   N11  En2
 BYTE   N11  En3
 BYTE   W36
 BYTE   Fn2
 BYTE   N11  Fn3
 BYTE   W24
 BYTE   Dn2
 BYTE   N11  Dn3
 BYTE   W12
 BYTE   En2
 BYTE   N11  En3
 BYTE   W24
//  #04 //043   ----------------------------------------
Label_015C86F0:
 BYTE   W12
 BYTE   N11  Gn2  v096
 BYTE   N11  Gn3
 BYTE   W12
 BYTE   Fs2
 BYTE   N11  Fs3
 BYTE   W12
 BYTE   Fn2
 BYTE   N11  Fn3
 BYTE   W24
 BYTE   Ds2
 BYTE   N11  Ds3
 BYTE   W24
 BYTE   Fn2
 BYTE   N11  Fn3
 BYTE   W12
 BYTE   PEND 
//  #04 //044   ----------------------------------------
Label_015C8708:
 BYTE   N11  En2  v096
 BYTE   N11  En3
 BYTE   W36
 BYTE   Fn2
 BYTE   N11  Fn3
 BYTE   W24
 BYTE   Dn2
 BYTE   N11  Dn3
 BYTE   W12
 BYTE   En2
 BYTE   N11  En3
 BYTE   W24
 BYTE   PEND 
//  #04 //045   ----------------------------------------
Label_015C871B:
 BYTE   W12
 BYTE   N11  Gn2  v096
 BYTE   N11  Gn3
 BYTE   W12
 BYTE   Fs2
 BYTE   N11  Fs3
 BYTE   W12
 BYTE   Fn2
 BYTE   N11  Fn3
 BYTE   W12
 BYTE   N05  An2
 BYTE   N05  An3
 BYTE   W06
 BYTE   Bn2
 BYTE   N05  Bn3
 BYTE   W06
 BYTE   N11  Cn3
 BYTE   N11  Cn4
 BYTE   W12
 BYTE   N05  An2
 BYTE   N05  An3
 BYTE   W06
 BYTE   Bn2
 BYTE   N05  Bn3
 BYTE   W06
 BYTE   N11  Cn3
 BYTE   N11  Cn4
 BYTE   W12
 BYTE   PEND 
//  #04 //046   ----------------------------------------
 BYTE   PATT
  POIN2 Label_015C8708
//  #04 //047   ----------------------------------------
 BYTE   PATT
  POIN2 Label_015C86F0
//  #04 //048   ----------------------------------------
 BYTE   N11  En2  v096
 BYTE   N11  En3
 BYTE   W18
 BYTE   En2
 BYTE   N11  En3
 BYTE   W18
 BYTE   Fn2
 BYTE   N11  Fn3
 BYTE   W24
 BYTE   Dn2
 BYTE   N11  Dn3
 BYTE   W12
 BYTE   En2
 BYTE   N11  En3
 BYTE   W24
//  #04 //049   ----------------------------------------
 BYTE   PATT
  POIN2 Label_015C871B
//  #04 //050   ----------------------------------------
 BYTE   N23  En2  v080
 BYTE   W96
//  #04 //051   ----------------------------------------
 BYTE   N23
 BYTE   W96
//  #04 //052   ----------------------------------------
 BYTE   N23
 BYTE   W96
//  #04 //053   ----------------------------------------
 BYTE   Ds2
 BYTE   W96
//  #04 //054   ----------------------------------------
 BYTE   En2
 BYTE   W96
//  #04 //055   ----------------------------------------
 BYTE   N23
 BYTE   W96
//  #04 //056   ----------------------------------------
 BYTE   N23
 BYTE   W96
//  #04 //057   ----------------------------------------
 BYTE   Ds2  v096
 BYTE   N23  Ds3
 BYTE   W24
 BYTE   Fs2
 BYTE   N23  Fs3
 BYTE   W24
 BYTE   Dn2
 BYTE   N23  Dn3
 BYTE   W24
 BYTE   Ds2
 BYTE   N23  Ds3
 BYTE   W24
//  #04 //058   ----------------------------------------
 BYTE   En2
 BYTE   N23  En3
 BYTE   W96
//  #04 //059   ----------------------------------------
 BYTE   W96
//  #04 //060   ----------------------------------------
 BYTE   W96
//  #04 //061   ----------------------------------------
 BYTE   W96
//  #04 //062   ----------------------------------------
 BYTE   W96
//  #04 //063   ----------------------------------------
 BYTE   W96
//  #04 //064   ----------------------------------------
 BYTE   W96
//  #04 //065   ----------------------------------------
 BYTE   W96
//  #04 //066   ----------------------------------------
 BYTE   W96
//  #04 //067   ----------------------------------------
 BYTE   W96
//  #04 //068   ----------------------------------------
 BYTE   W96
//  #04 //069   ----------------------------------------
 BYTE   W96
//  #04 //070   ----------------------------------------
 BYTE   W96
//  #04 //071   ----------------------------------------
 BYTE   W96
//  #04 //072   ----------------------------------------
 BYTE   W96
//  #04 //073   ----------------------------------------
 BYTE   W96
//  #04 //074   ----------------------------------------
 BYTE   N11  En2
 BYTE   N11  En3
 BYTE   W48
 BYTE   Fs2
 BYTE   N11  Fs3
 BYTE   W36
 BYTE   N23  Gn2
 BYTE   N23  Gn3
 BYTE   W12
//  #04 //075   ----------------------------------------
 BYTE   W12
 BYTE   N11  Fs2
 BYTE   N11  Fs3
 BYTE   W12
 BYTE   En2
 BYTE   N11  En3
 BYTE   W72
//  #04 //076   ----------------------------------------
Label_015C87B8:
 BYTE   N11  En2  v096
 BYTE   N11  En3
 BYTE   W48
 BYTE   Fs2
 BYTE   N11  Fs3
 BYTE   W36
 BYTE   N23  Gn2
 BYTE   N23  Gn3
 BYTE   W12
 BYTE   PEND 
//  #04 //077   ----------------------------------------
 BYTE   W12
 BYTE   N11  Bn2
 BYTE   N11  Bn3
 BYTE   W12
 BYTE   En2
 BYTE   N11  En3
 BYTE   W72
//  #04 //078   ----------------------------------------
 BYTE   PATT
  POIN2 Label_015C87B8
//  #04 //079   ----------------------------------------
 BYTE   W12
 BYTE   N11  Fs2  v096
 BYTE   N11  Fs3
 BYTE   W12
 BYTE   En2
 BYTE   N11  En3
 BYTE   W72
//  #04 //080   ----------------------------------------
 BYTE   PATT
  POIN2 Label_015C87B8
//  #04 //081   ----------------------------------------
 BYTE   W12
 BYTE   N11  Bn2  v096
 BYTE   N11  Bn3
 BYTE   W12
 BYTE   Cn3
 BYTE   N11  Cn4
 BYTE   W72
//  #04 //082   ----------------------------------------
 BYTE   W96
//  #04 //083   ----------------------------------------
 BYTE   W06
 BYTE   GoTo
  POIN2 Label_015C8616
 BYTE   FINE

//**************** Track 5 (Midi-Chn.4) ****************//

aOioP_005:
//  #05 //000   ----------------------------------------
 BYTE   KEYSH   aOioP_key+0
Label_013BA9AA:
 BYTE   VOICE   52
 BYTE   VOL   50*aOioP_mvl/mxv
 BYTE   PAN   c_v+0
 BYTE   En3  v064
 BYTE   W96
//  #05 //001   ----------------------------------------
 BYTE   W96
//  #05 //002   ----------------------------------------
 BYTE   W96
//  #05 //003   ----------------------------------------
 BYTE   W96
//  #05 //004   ----------------------------------------
 BYTE   W96
//  #05 //005   ----------------------------------------
 BYTE   W96
//  #05 //006   ----------------------------------------
 BYTE   W96
//  #05 //007   ----------------------------------------
 BYTE   W96
//  #05 //008   ----------------------------------------
 BYTE   W96
//  #05 //009   ----------------------------------------
 BYTE   W96
//  #05 //010   ----------------------------------------
 BYTE   W96
//  #05 //011   ----------------------------------------
 BYTE   W96
//  #05 //012   ----------------------------------------
 BYTE   W96
//  #05 //013   ----------------------------------------
 BYTE   W96
//  #05 //014   ----------------------------------------
 BYTE   W96
//  #05 //015   ----------------------------------------
 BYTE   W96
//  #05 //016   ----------------------------------------
 BYTE   W96
//  #05 //017   ----------------------------------------
 BYTE   W96
//  #05 //018   ----------------------------------------
 BYTE   W96
//  #05 //019   ----------------------------------------
 BYTE   W96
//  #05 //020   ----------------------------------------
 BYTE   W96
//  #05 //021   ----------------------------------------
 BYTE   W96
//  #05 //022   ----------------------------------------
 BYTE   W96
//  #05 //023   ----------------------------------------
 BYTE   N08  Bn1  v080
 BYTE   N08  Bn2
 BYTE   W18
 BYTE   Cn2
 BYTE   N08  Cn3
 BYTE   W18
 BYTE   Dn2
 BYTE   N08  Dn3
 BYTE   W18
 BYTE   Bn1
 BYTE   N08  Bn2
 BYTE   W18
 BYTE   N05  Cn2
 BYTE   N05  Cn3
 BYTE   W12
 BYTE   Dn2
 BYTE   N05  Dn3
 BYTE   W12
//  #05 //024   ----------------------------------------
 BYTE   W96
//  #05 //025   ----------------------------------------
 BYTE   W96
//  #05 //026   ----------------------------------------
 BYTE   W96
//  #05 //027   ----------------------------------------
 BYTE   W96
//  #05 //028   ----------------------------------------
 BYTE   W96
//  #05 //029   ----------------------------------------
 BYTE   W96
//  #05 //030   ----------------------------------------
 BYTE   W96
//  #05 //031   ----------------------------------------
 BYTE   W96
//  #05 //032   ----------------------------------------
 BYTE   W96
//  #05 //033   ----------------------------------------
 BYTE   W96
//  #05 //034   ----------------------------------------
 BYTE   W96
//  #05 //035   ----------------------------------------
 BYTE   W96
//  #05 //036   ----------------------------------------
 BYTE   W96
//  #05 //037   ----------------------------------------
 BYTE   W96
//  #05 //038   ----------------------------------------
 BYTE   W96
//  #05 //039   ----------------------------------------
 BYTE   W96
//  #05 //040   ----------------------------------------
 BYTE   W96
//  #05 //041   ----------------------------------------
 BYTE   W96
//  #05 //042   ----------------------------------------
 BYTE   N11  En1  v112
 BYTE   N11  En2
 BYTE   W36
 BYTE   Fn1
 BYTE   N11  Fn2
 BYTE   W24
 BYTE   Dn1
 BYTE   N11  Dn2
 BYTE   W12
 BYTE   En1
 BYTE   N11  En2
 BYTE   W24
//  #05 //043   ----------------------------------------
Label_013BAA08:
 BYTE   W12
 BYTE   N11  Gn1  v112
 BYTE   N11  Gn2
 BYTE   W12
 BYTE   Fs1
 BYTE   N11  Fs2
 BYTE   W12
 BYTE   Fn1
 BYTE   N11  Fn2
 BYTE   W24
 BYTE   Ds1
 BYTE   N11  Ds2
 BYTE   W24
 BYTE   Fn1
 BYTE   N11  Fn2
 BYTE   W12
 BYTE   PEND 
//  #05 //044   ----------------------------------------
Label_013BAA20:
 BYTE   N11  En1  v112
 BYTE   N11  En2
 BYTE   W36
 BYTE   Fn1
 BYTE   N11  Fn2
 BYTE   W24
 BYTE   Dn1
 BYTE   N11  Dn2
 BYTE   W12
 BYTE   En1
 BYTE   N11  En2
 BYTE   W24
 BYTE   PEND 
//  #05 //045   ----------------------------------------
Label_013BAA33:
 BYTE   W12
 BYTE   N11  Gn1  v112
 BYTE   N11  Gn2
 BYTE   W12
 BYTE   Fs1
 BYTE   N11  Fs2
 BYTE   W12
 BYTE   Fn1
 BYTE   N11  Fn2
 BYTE   W12
 BYTE   N05  An1
 BYTE   N05  An2
 BYTE   W06
 BYTE   Bn1
 BYTE   N05  Bn2
 BYTE   W06
 BYTE   N11  Cn2
 BYTE   W12
 BYTE   N05  An1
 BYTE   N05  An2
 BYTE   W06
 BYTE   Bn1
 BYTE   N05  Bn2
 BYTE   W06
 BYTE   N11  Cn2
 BYTE   W12
 BYTE   PEND 
//  #05 //046   ----------------------------------------
 BYTE   PATT
  POIN2 Label_013BAA20
//  #05 //047   ----------------------------------------
 BYTE   PATT
  POIN2 Label_013BAA08
//  #05 //048   ----------------------------------------
 BYTE   N11  En1  v112
 BYTE   N11  En2
 BYTE   W18
 BYTE   En1
 BYTE   N11  En2
 BYTE   W18
 BYTE   Fn1
 BYTE   N11  Fn2
 BYTE   W24
 BYTE   Dn1
 BYTE   N11  Dn2
 BYTE   W12
 BYTE   En1
 BYTE   N11  En2
 BYTE   W24
//  #05 //049   ----------------------------------------
 BYTE   PATT
  POIN2 Label_013BAA33
//  #05 //050   ----------------------------------------
 BYTE   W24
 BYTE   N44  En2  v112
 BYTE   W48
 BYTE   N11  Ds2
 BYTE   W24
//  #05 //051   ----------------------------------------
 BYTE   W24
 BYTE   N44  Dn2
 BYTE   W48
 BYTE   N11  Cs2
 BYTE   W24
//  #05 //052   ----------------------------------------
 BYTE   W24
 BYTE   N44  Cn2
 BYTE   W48
 BYTE   N11  Bn1
 BYTE   W24
//  #05 //053   ----------------------------------------
 BYTE   W24
 BYTE   N44
 BYTE   W48
 BYTE   N11  Dn2
 BYTE   W12
 BYTE   Cn2
 BYTE   W12
//  #05 //054   ----------------------------------------
 BYTE   W24
 BYTE   N44  Gn2
 BYTE   N44  Dn3
 BYTE   W48
 BYTE   N11  En2
 BYTE   W24
//  #05 //055   ----------------------------------------
 BYTE   W24
 BYTE   N44  Bn2
 BYTE   N44  Dn3
 BYTE   W48
 BYTE   N11  An2
 BYTE   W24
//  #05 //056   ----------------------------------------
 BYTE   W24
 BYTE   N44  Gn2
 BYTE   N44  Ds3
 BYTE   W48
 BYTE   N11  Cn3
 BYTE   W24
//  #05 //057   ----------------------------------------
 BYTE   N23  Ds1
 BYTE   N23  Ds2
 BYTE   W24
 BYTE   Fs1
 BYTE   N23  Fs2
 BYTE   W24
 BYTE   Dn1
 BYTE   N23  Dn2
 BYTE   W24
 BYTE   Ds1
 BYTE   N23  Ds2
 BYTE   W24
//  #05 //058   ----------------------------------------
 BYTE   N92  En2
 BYTE   W96
//  #05 //059   ----------------------------------------
 BYTE   W96
//  #05 //060   ----------------------------------------
 BYTE   W96
//  #05 //061   ----------------------------------------
 BYTE   W96
//  #05 //062   ----------------------------------------
 BYTE   W96
//  #05 //063   ----------------------------------------
 BYTE   W96
//  #05 //064   ----------------------------------------
 BYTE   W96
//  #05 //065   ----------------------------------------
 BYTE   W96
//  #05 //066   ----------------------------------------
 BYTE   N56
 BYTE   W48
 BYTE   W12
 BYTE   N11
 BYTE   W12
 BYTE   Fs2
 BYTE   W12
 BYTE   Gn2
 BYTE   W12
//  #05 //067   ----------------------------------------
 BYTE   N23  Bn2
 BYTE   W24
 BYTE   An2
 BYTE   W24
 BYTE   Dn3
 BYTE   W24
 BYTE   Cn3
 BYTE   W24
//  #05 //068   ----------------------------------------
 BYTE   N56  Bn2
 BYTE   W48
 BYTE   W12
 BYTE   N11  Fn2
 BYTE   W12
 BYTE   Gn2
 BYTE   W12
 BYTE   An2
 BYTE   W12
//  #05 //069   ----------------------------------------
 BYTE   N23  Bn2
 BYTE   W24
 BYTE   An2
 BYTE   W24
 BYTE   Dn3
 BYTE   W24
 BYTE   En3
 BYTE   W24
//  #05 //070   ----------------------------------------
 BYTE   N56  Bn2
 BYTE   W48
 BYTE   W12
 BYTE   N11  En2
 BYTE   W12
 BYTE   Fs2
 BYTE   W12
 BYTE   Gn2
 BYTE   W12
//  #05 //071   ----------------------------------------
 BYTE   N23  Bn2
 BYTE   W24
 BYTE   An2
 BYTE   W24
 BYTE   Bn2
 BYTE   W24
 BYTE   Cn3
 BYTE   W24
//  #05 //072   ----------------------------------------
 BYTE   N44  Dn3
 BYTE   W48
 BYTE   Cs3
 BYTE   W48
//  #05 //073   ----------------------------------------
 BYTE   En3
 BYTE   W48
 BYTE   Ds3
 BYTE   W48
//  #05 //074   ----------------------------------------
Label_013BAB17:
 BYTE   N11  En2  v112
 BYTE   N11  En3
 BYTE   W48
 BYTE   Fs2
 BYTE   N11  Fs3
 BYTE   W36
 BYTE   N23  Gn2
 BYTE   N23  Gn3
 BYTE   W12
 BYTE   PEND 
//  #05 //075   ----------------------------------------
Label_013BAB27:
 BYTE   W12
 BYTE   N11  Fs2  v112
 BYTE   N11  Fs3
 BYTE   W12
 BYTE   En2
 BYTE   N11  En3
 BYTE   W72
 BYTE   PEND 
//  #05 //076   ----------------------------------------
 BYTE   PATT
  POIN2 Label_013BAB17
//  #05 //077   ----------------------------------------
 BYTE   W12
 BYTE   N11  Bn2  v112
 BYTE   N11  Bn3
 BYTE   W12
 BYTE   En2
 BYTE   N11  En3
 BYTE   W72
//  #05 //078   ----------------------------------------
 BYTE   PATT
  POIN2 Label_013BAB17
//  #05 //079   ----------------------------------------
 BYTE   PATT
  POIN2 Label_013BAB27
//  #05 //080   ----------------------------------------
 BYTE   PATT
  POIN2 Label_013BAB17
//  #05 //081   ----------------------------------------
 BYTE   W12
 BYTE   N11  Bn2  v112
 BYTE   W12
 BYTE   TIE  Cn3
 BYTE   W72
//  #05 //082   ----------------------------------------
 BYTE   W92
 BYTE   W03
 BYTE   EOT
 BYTE   W01
//  #05 //083   ----------------------------------------
 BYTE   W06
 BYTE   GoTo
  POIN2 Label_013BA9AA
 BYTE   FINE

//**************** Track 6 (Midi-Chn.5) ****************//

aOioP_006:
//  #06 //000   ----------------------------------------
 BYTE   KEYSH   aOioP_key+0
Label_013BAB6A:
 BYTE   VOICE   48
 BYTE   VOL   50*aOioP_mvl/mxv
 BYTE   PAN   c_v+0
 BYTE   En3  v064
 BYTE   W96
//  #06 //001   ----------------------------------------
 BYTE   W96
//  #06 //002   ----------------------------------------
 BYTE   W96
//  #06 //003   ----------------------------------------
 BYTE   W96
//  #06 //004   ----------------------------------------
Label_013BAB76:
 BYTE   N11  En3  v080
 BYTE   W12
 BYTE   Gn3
 BYTE   W12
 BYTE   Fs3
 BYTE   W12
 BYTE   Fn3
 BYTE   W12
 BYTE   En3
 BYTE   W12
 BYTE   Gn3
 BYTE   W12
 BYTE   N05  Fs3
 BYTE   W06
 BYTE   Gn3
 BYTE   W06
 BYTE   N11  An3
 BYTE   W12
 BYTE   PEND 
//  #06 //005   ----------------------------------------
 BYTE   En3
 BYTE   W12
 BYTE   Gn3
 BYTE   W12
 BYTE   Fs3
 BYTE   W12
 BYTE   Fn3
 BYTE   W12
 BYTE   N05  En3
 BYTE   W06
 BYTE   Gn3
 BYTE   W06
 BYTE   N11  An3
 BYTE   W12
 BYTE   N05  En3
 BYTE   W06
 BYTE   Gn3
 BYTE   W06
 BYTE   N11  As3
 BYTE   W12
//  #06 //006   ----------------------------------------
 BYTE   PATT
  POIN2 Label_013BAB76
//  #06 //007   ----------------------------------------
 BYTE   W96
//  #06 //008   ----------------------------------------
 BYTE   W96
//  #06 //009   ----------------------------------------
 BYTE   W96
//  #06 //010   ----------------------------------------
 BYTE   W96
//  #06 //011   ----------------------------------------
 BYTE   W96
//  #06 //012   ----------------------------------------
 BYTE   W96
//  #06 //013   ----------------------------------------
 BYTE   W96
//  #06 //014   ----------------------------------------
 BYTE   W96
//  #06 //015   ----------------------------------------
 BYTE   W96
//  #06 //016   ----------------------------------------
 BYTE   W96
//  #06 //017   ----------------------------------------
 BYTE   W96
//  #06 //018   ----------------------------------------
 BYTE   W96
//  #06 //019   ----------------------------------------
 BYTE   W96
//  #06 //020   ----------------------------------------
 BYTE   W96
//  #06 //021   ----------------------------------------
 BYTE   W96
//  #06 //022   ----------------------------------------
 BYTE   W96
//  #06 //023   ----------------------------------------
 BYTE   W96
//  #06 //024   ----------------------------------------
 BYTE   W96
//  #06 //025   ----------------------------------------
 BYTE   W96
//  #06 //026   ----------------------------------------
Label_013BABBD:
 BYTE   N05  En2  v064
 BYTE   W06
 BYTE   Fs2
 BYTE   W06
 BYTE   Gn2
 BYTE   W06
 BYTE   An2
 BYTE   W06
 BYTE   N11  Bn2
 BYTE   W12
 BYTE   N05  En2
 BYTE   W06
 BYTE   Fs2
 BYTE   W06
 BYTE   Gn2
 BYTE   W06
 BYTE   An2
 BYTE   W06
 BYTE   N11  Bn2
 BYTE   W12
 BYTE   N05  En2
 BYTE   W06
 BYTE   Fs2
 BYTE   W06
 BYTE   Gn2
 BYTE   W06
 BYTE   An2
 BYTE   W06
 BYTE   PEND 
//  #06 //027   ----------------------------------------
Label_013BABE0:
 BYTE   N05  En2  v064
 BYTE   W06
 BYTE   Fs2
 BYTE   W06
 BYTE   Gn2
 BYTE   W06
 BYTE   An2
 BYTE   W06
 BYTE   N11  Bn2
 BYTE   W12
 BYTE   N05  En2
 BYTE   W06
 BYTE   Fs2
 BYTE   W06
 BYTE   Gn2
 BYTE   W06
 BYTE   An2
 BYTE   W06
 BYTE   N11  Bn2
 BYTE   W12
 BYTE   N05  En2
 BYTE   W06
 BYTE   Fs2
 BYTE   W06
 BYTE   Gn2
 BYTE   W06
 BYTE   An2
 BYTE   W06
 BYTE   PEND 
//  #06 //028   ----------------------------------------
Label_013BAC03:
 BYTE   N05  Fn2  v064
 BYTE   W06
 BYTE   Gn2
 BYTE   W06
 BYTE   An2
 BYTE   W06
 BYTE   Bn2
 BYTE   W06
 BYTE   N11  Cn3
 BYTE   W12
 BYTE   N05  Fn2
 BYTE   W06
 BYTE   Gn2
 BYTE   W06
 BYTE   An2
 BYTE   W06
 BYTE   Bn2
 BYTE   W06
 BYTE   N11  Cn3
 BYTE   W12
 BYTE   N05  Fn2
 BYTE   W06
 BYTE   Gn2
 BYTE   W06
 BYTE   An2
 BYTE   W06
 BYTE   Bn2
 BYTE   W06
 BYTE   PEND 
//  #06 //029   ----------------------------------------
Label_013BAC26:
 BYTE   N05  Fn2  v064
 BYTE   W06
 BYTE   Gn2
 BYTE   W06
 BYTE   An2
 BYTE   W06
 BYTE   Bn2
 BYTE   W06
 BYTE   N11  Cn3
 BYTE   W12
 BYTE   N05  Fn2
 BYTE   W06
 BYTE   Gn2
 BYTE   W06
 BYTE   An2
 BYTE   W06
 BYTE   Bn2
 BYTE   W06
 BYTE   N11  Cn3
 BYTE   W12
 BYTE   N05  Fn2
 BYTE   W06
 BYTE   Gn2
 BYTE   W06
 BYTE   An2
 BYTE   W06
 BYTE   Bn2
 BYTE   W06
 BYTE   PEND 
//  #06 //030   ----------------------------------------
Label_013BAC49:
 BYTE   N05  Gn2  v064
 BYTE   W06
 BYTE   An2
 BYTE   W06
 BYTE   Bn2
 BYTE   W06
 BYTE   Cn3
 BYTE   W06
 BYTE   N11  Dn3
 BYTE   W12
 BYTE   N05  Gn2
 BYTE   W06
 BYTE   An2
 BYTE   W06
 BYTE   Bn2
 BYTE   W06
 BYTE   Cn3
 BYTE   W06
 BYTE   N11  Dn3
 BYTE   W12
 BYTE   N05  Gn2
 BYTE   W06
 BYTE   An2
 BYTE   W06
 BYTE   Bn2
 BYTE   W06
 BYTE   Cn3
 BYTE   W06
 BYTE   PEND 
//  #06 //031   ----------------------------------------
Label_013BAC6C:
 BYTE   N05  Gn2  v064
 BYTE   W06
 BYTE   An2
 BYTE   W06
 BYTE   Bn2
 BYTE   W06
 BYTE   Cn3
 BYTE   W06
 BYTE   N11  Dn3
 BYTE   W12
 BYTE   N05  Gn2
 BYTE   W06
 BYTE   An2
 BYTE   W06
 BYTE   Bn2
 BYTE   W06
 BYTE   Cn3
 BYTE   W06
 BYTE   N11  Dn3
 BYTE   W12
 BYTE   N05  Gn2
 BYTE   W06
 BYTE   An2
 BYTE   W06
 BYTE   Bn2
 BYTE   W06
 BYTE   Cn3
 BYTE   W06
 BYTE   PEND 
//  #06 //032   ----------------------------------------
Label_013BAC8F:
 BYTE   N05  En2  v064
 BYTE   W06
 BYTE   Fs2
 BYTE   W06
 BYTE   Gn2
 BYTE   W06
 BYTE   An2
 BYTE   W06
 BYTE   N11  Bn2
 BYTE   W12
 BYTE   N05  En2
 BYTE   W06
 BYTE   Fs2
 BYTE   W06
 BYTE   Gn2
 BYTE   W06
 BYTE   An2
 BYTE   W06
 BYTE   N11  Bn2
 BYTE   W12
 BYTE   N05  En2
 BYTE   W06
 BYTE   Fs2
 BYTE   W06
 BYTE   Gn2
 BYTE   W06
 BYTE   An2
 BYTE   W06
 BYTE   PEND 
//  #06 //033   ----------------------------------------
Label_013BACB2:
 BYTE   N05  Ds2  v064
 BYTE   W06
 BYTE   Fn2
 BYTE   W06
 BYTE   Fs2
 BYTE   W06
 BYTE   Gn2
 BYTE   W06
 BYTE   N11  An2
 BYTE   W12
 BYTE   N05  Ds2
 BYTE   W06
 BYTE   Fn2
 BYTE   W06
 BYTE   Fs2
 BYTE   W06
 BYTE   Gn2
 BYTE   W06
 BYTE   N11  An2
 BYTE   W12
 BYTE   N05  Ds2
 BYTE   W06
 BYTE   Fn2
 BYTE   W06
 BYTE   Fs2
 BYTE   W06
 BYTE   Gn2
 BYTE   W06
 BYTE   PEND 
//  #06 //034   ----------------------------------------
 BYTE   PATT
  POIN2 Label_013BABBD
//  #06 //035   ----------------------------------------
 BYTE   PATT
  POIN2 Label_013BABE0
//  #06 //036   ----------------------------------------
 BYTE   PATT
  POIN2 Label_013BAC03
//  #06 //037   ----------------------------------------
Label_013BACE4:
 BYTE   N05  Fn2  v064
 BYTE   W06
 BYTE   Gn2
 BYTE   W06
 BYTE   An2
 BYTE   W06
 BYTE   Bn2
 BYTE   W06
 BYTE   N11  Cn3
 BYTE   W12
 BYTE   N05  Fn2
 BYTE   W06
 BYTE   Gn2
 BYTE   W06
 BYTE   An2
 BYTE   W06
 BYTE   Bn2
 BYTE   W06
 BYTE   N11  Cn3
 BYTE   W12
 BYTE   N05  Fn2
 BYTE   W06
 BYTE   Gn2
 BYTE   W06
 BYTE   An2
 BYTE   W06
 BYTE   Bn2
 BYTE   W06
 BYTE   PEND 
//  #06 //038   ----------------------------------------
 BYTE   PATT
  POIN2 Label_013BAC49
//  #06 //039   ----------------------------------------
 BYTE   PATT
  POIN2 Label_013BAC6C
//  #06 //040   ----------------------------------------
 BYTE   PATT
  POIN2 Label_013BAC8F
//  #06 //041   ----------------------------------------
Label_013BAD16:
 BYTE   N05  Bn1  v064
 BYTE   W06
 BYTE   Cs2
 BYTE   W06
 BYTE   Dn2
 BYTE   W06
 BYTE   En2
 BYTE   W06
 BYTE   N11  Fs2
 BYTE   W12
 BYTE   N05  Bn1
 BYTE   W06
 BYTE   Cs2
 BYTE   W06
 BYTE   Dn2
 BYTE   W06
 BYTE   En2
 BYTE   W06
 BYTE   N11  Fs2
 BYTE   W12
 BYTE   N05  Bn1
 BYTE   W06
 BYTE   Cs2
 BYTE   W06
 BYTE   Dn2
 BYTE   W06
 BYTE   En2
 BYTE   W06
 BYTE   PEND 
//  #06 //042   ----------------------------------------
 BYTE   W96
//  #06 //043   ----------------------------------------
 BYTE   W96
//  #06 //044   ----------------------------------------
 BYTE   W96
//  #06 //045   ----------------------------------------
 BYTE   W96
//  #06 //046   ----------------------------------------
 BYTE   W96
//  #06 //047   ----------------------------------------
 BYTE   W96
//  #06 //048   ----------------------------------------
 BYTE   W96
//  #06 //049   ----------------------------------------
 BYTE   W96
//  #06 //050   ----------------------------------------
 BYTE   N23
 BYTE   W72
 BYTE   N11
 BYTE   W24
//  #06 //051   ----------------------------------------
Label_013BAD45:
 BYTE   N23  En2  v064
 BYTE   W72
 BYTE   N11
 BYTE   W24
 BYTE   PEND 
//  #06 //052   ----------------------------------------
 BYTE   PATT
  POIN2 Label_013BAD45
//  #06 //053   ----------------------------------------
 BYTE   N23  Ds2  v064
 BYTE   W72
 BYTE   N11  Bn1
 BYTE   W12
 BYTE   Cn2
 BYTE   W12
//  #06 //054   ----------------------------------------
 BYTE   PATT
  POIN2 Label_013BAD45
//  #06 //055   ----------------------------------------
 BYTE   PATT
  POIN2 Label_013BAD45
//  #06 //056   ----------------------------------------
 BYTE   PATT
  POIN2 Label_013BAD45
//  #06 //057   ----------------------------------------
 BYTE   W24
 BYTE   W24
 BYTE   W24
 BYTE   W24
//  #06 //058   ----------------------------------------
 BYTE   PATT
  POIN2 Label_013BABBD
//  #06 //059   ----------------------------------------
 BYTE   PATT
  POIN2 Label_013BABE0
//  #06 //060   ----------------------------------------
 BYTE   PATT
  POIN2 Label_013BAC03
//  #06 //061   ----------------------------------------
 BYTE   PATT
  POIN2 Label_013BAC26
//  #06 //062   ----------------------------------------
 BYTE   PATT
  POIN2 Label_013BAC49
//  #06 //063   ----------------------------------------
 BYTE   PATT
  POIN2 Label_013BAC6C
//  #06 //064   ----------------------------------------
 BYTE   PATT
  POIN2 Label_013BAC8F
//  #06 //065   ----------------------------------------
 BYTE   PATT
  POIN2 Label_013BACB2
//  #06 //066   ----------------------------------------
 BYTE   PATT
  POIN2 Label_013BABBD
//  #06 //067   ----------------------------------------
 BYTE   PATT
  POIN2 Label_013BABE0
//  #06 //068   ----------------------------------------
 BYTE   PATT
  POIN2 Label_013BAC03
//  #06 //069   ----------------------------------------
 BYTE   PATT
  POIN2 Label_013BACE4
//  #06 //070   ----------------------------------------
 BYTE   PATT
  POIN2 Label_013BAC49
//  #06 //071   ----------------------------------------
 BYTE   PATT
  POIN2 Label_013BAC6C
//  #06 //072   ----------------------------------------
 BYTE   PATT
  POIN2 Label_013BAC8F
//  #06 //073   ----------------------------------------
 BYTE   PATT
  POIN2 Label_013BAD16
//  #06 //074   ----------------------------------------
 BYTE   W96
//  #06 //075   ----------------------------------------
 BYTE   W96
//  #06 //076   ----------------------------------------
 BYTE   W96
//  #06 //077   ----------------------------------------
 BYTE   W96
//  #06 //078   ----------------------------------------
 BYTE   W96
//  #06 //079   ----------------------------------------
 BYTE   W96
//  #06 //080   ----------------------------------------
 BYTE   W96
//  #06 //081   ----------------------------------------
 BYTE   W96
//  #06 //082   ----------------------------------------
 BYTE   W96
//  #06 //083   ----------------------------------------
 BYTE   W06
 BYTE   GoTo
  POIN2 Label_013BAB6A
 BYTE   FINE

//**************** Track 7 (Midi-Chn.6) ****************//

aOioP_007:
//  #07 //000   ----------------------------------------
 BYTE   KEYSH   aOioP_key+0
Label_015C88DA:
 BYTE   VOICE   34
 BYTE   VOL   50*aOioP_mvl/mxv
 BYTE   PAN   c_v+0
 BYTE   En3  v064
 BYTE   W96
//  #07 //001   ----------------------------------------
 BYTE   W96
//  #07 //002   ----------------------------------------
 BYTE   W96
//  #07 //003   ----------------------------------------
 BYTE   W48
 BYTE   N01  En1  v096
 BYTE   W01
 BYTE   Fn1
 BYTE   W01
 BYTE   Fs1
 BYTE   W01
 BYTE   Gn1
 BYTE   W02
 BYTE   Gs1
 BYTE   W01
 BYTE   An1
 BYTE   W01
 BYTE   As1
 BYTE   W02
 BYTE   Bn1
 BYTE   W01
 BYTE   Cn2
 BYTE   W01
 BYTE   Cs2
 BYTE   W01
 BYTE   Dn2
 BYTE   W02
 BYTE   Ds2
 BYTE   W02
 BYTE   En2
 BYTE   W01
 BYTE   Ds2
 BYTE   W01
 BYTE   Dn2
 BYTE   W01
 BYTE   Cs2
 BYTE   W02
 BYTE   Cn2
 BYTE   W01
 BYTE   Bn1
 BYTE   W01
 BYTE   As1
 BYTE   W02
 BYTE   An1
 BYTE   W01
 BYTE   Gs1
 BYTE   W01
 BYTE   Gn1
 BYTE   W01
 BYTE   Fs1
 BYTE   W02
 BYTE   Fn1
 BYTE   W01
 BYTE   En1
 BYTE   W01
 BYTE   Ds1
 BYTE   W02
 BYTE   Dn1
 BYTE   W01
 BYTE   Cs1
 BYTE   W01
 BYTE   Cn1
 BYTE   W02
 BYTE   Bn0
 BYTE   W01
 BYTE   As0
 BYTE   W01
 BYTE   An0
 BYTE   W01
 BYTE   Gs0
 BYTE   W02
 BYTE   Gn0
 BYTE   W01
 BYTE   Fs0
 BYTE   W01
 BYTE   N02  Fn0
 BYTE   W03
//  #07 //004   ----------------------------------------
Label_015C8931:
 BYTE   N11  En1  v096
 BYTE   W12
 BYTE   Gn1
 BYTE   W12
 BYTE   Fs1
 BYTE   W12
 BYTE   Fn1
 BYTE   W12
 BYTE   En1
 BYTE   W12
 BYTE   Gn1
 BYTE   W12
 BYTE   N05  Fs1
 BYTE   W06
 BYTE   Gn1
 BYTE   W06
 BYTE   N11  An1
 BYTE   W12
 BYTE   PEND 
//  #07 //005   ----------------------------------------
 BYTE   En1
 BYTE   W12
 BYTE   Gn1
 BYTE   W12
 BYTE   Fs1
 BYTE   W12
 BYTE   Fn1
 BYTE   W12
 BYTE   N05  En1
 BYTE   W06
 BYTE   Gn1
 BYTE   W06
 BYTE   N11  An1
 BYTE   W12
 BYTE   N05  En1
 BYTE   W06
 BYTE   Gn1
 BYTE   W06
 BYTE   N11  As1
 BYTE   W12
//  #07 //006   ----------------------------------------
 BYTE   PATT
  POIN2 Label_015C8931
//  #07 //007   ----------------------------------------
 BYTE   N11  En1  v096
 BYTE   W12
 BYTE   Cn2
 BYTE   W12
 BYTE   Bn1
 BYTE   W12
 BYTE   Gn1
 BYTE   W12
 BYTE   As1
 BYTE   W12
 BYTE   Fs1
 BYTE   W12
 BYTE   An1
 BYTE   W12
 BYTE   Fn1
 BYTE   W12
//  #07 //008   ----------------------------------------
 BYTE   PATT
  POIN2 Label_015C8931
//  #07 //009   ----------------------------------------
 BYTE   PATT
  POIN2 Label_015C8931
//  #07 //010   ----------------------------------------
Label_015C8981:
 BYTE   N11  Fn1  v096
 BYTE   W12
 BYTE   An1
 BYTE   W12
 BYTE   Gn1
 BYTE   W12
 BYTE   Fn1
 BYTE   W12
 BYTE   N11
 BYTE   W12
 BYTE   Bn1
 BYTE   W12
 BYTE   N05  Fn1
 BYTE   W06
 BYTE   An1
 BYTE   W06
 BYTE   N11  Cn2
 BYTE   W12
 BYTE   PEND 
//  #07 //011   ----------------------------------------
 BYTE   PATT
  POIN2 Label_015C8981
//  #07 //012   ----------------------------------------
 BYTE   PATT
  POIN2 Label_015C8931
//  #07 //013   ----------------------------------------
 BYTE   PATT
  POIN2 Label_015C8931
//  #07 //014   ----------------------------------------
 BYTE   PATT
  POIN2 Label_015C8981
//  #07 //015   ----------------------------------------
 BYTE   PATT
  POIN2 Label_015C8981
//  #07 //016   ----------------------------------------
Label_015C89B1:
 BYTE   N05  En1  v096
 BYTE   W06
 BYTE   N05
 BYTE   W06
 BYTE   N05
 BYTE   W06
 BYTE   N05
 BYTE   W06
 BYTE   N11
 BYTE   W12
 BYTE   N05  Bn0
 BYTE   W06
 BYTE   N11  Dn1
 BYTE   W12
 BYTE   N05  En1
 BYTE   W06
 BYTE   N05
 BYTE   W06
 BYTE   N05
 BYTE   W06
 BYTE   N23
 BYTE   W24
 BYTE   PEND 
//  #07 //017   ----------------------------------------
 BYTE   N05  Ds1
 BYTE   W06
 BYTE   N05
 BYTE   W06
 BYTE   N05
 BYTE   W06
 BYTE   N05
 BYTE   W06
 BYTE   N11
 BYTE   W12
 BYTE   N05  Bn0
 BYTE   W06
 BYTE   N11  Dn1
 BYTE   W12
 BYTE   N05  Ds1
 BYTE   W06
 BYTE   N05
 BYTE   W06
 BYTE   N05
 BYTE   W06
 BYTE   N11  Fs1
 BYTE   W12
 BYTE   Ds1
 BYTE   W12
//  #07 //018   ----------------------------------------
 BYTE   PATT
  POIN2 Label_015C89B1
//  #07 //019   ----------------------------------------
 BYTE   N05  En1  v096
 BYTE   W06
 BYTE   N05
 BYTE   W06
 BYTE   N05
 BYTE   W06
 BYTE   N05
 BYTE   W06
 BYTE   N11
 BYTE   W12
 BYTE   N05  Bn0
 BYTE   W06
 BYTE   N11  Dn1
 BYTE   W12
 BYTE   N05  En1
 BYTE   W06
 BYTE   Bn1
 BYTE   W06
 BYTE   Ds2
 BYTE   W06
 BYTE   En2
 BYTE   W06
 BYTE   N05
 BYTE   W06
 BYTE   N05
 BYTE   W06
 BYTE   N05
 BYTE   W06
//  #07 //020   ----------------------------------------
 BYTE   Gn1
 BYTE   W06
 BYTE   N05
 BYTE   W06
 BYTE   N05
 BYTE   W06
 BYTE   N05
 BYTE   W06
 BYTE   N11
 BYTE   W12
 BYTE   N05  Dn1
 BYTE   W06
 BYTE   N11  Fs1
 BYTE   W12
 BYTE   N05  Gn1
 BYTE   W06
 BYTE   N05
 BYTE   W06
 BYTE   N05
 BYTE   W06
 BYTE   N23
 BYTE   W24
//  #07 //021   ----------------------------------------
 BYTE   N05  Ds1
 BYTE   W06
 BYTE   N05
 BYTE   W06
 BYTE   N05
 BYTE   W06
 BYTE   N05
 BYTE   W06
 BYTE   N11
 BYTE   W12
 BYTE   N05  Bn0
 BYTE   W06
 BYTE   N11  Dn1
 BYTE   W12
 BYTE   N05  Ds1
 BYTE   W06
 BYTE   N05
 BYTE   W06
 BYTE   N05
 BYTE   W06
 BYTE   N23
 BYTE   W24
//  #07 //022   ----------------------------------------
 BYTE   N05  Bn0
 BYTE   W06
 BYTE   N05
 BYTE   W06
 BYTE   N05
 BYTE   W06
 BYTE   N05
 BYTE   W06
 BYTE   N11
 BYTE   W12
 BYTE   N05  Ds1
 BYTE   W06
 BYTE   N11  En1
 BYTE   W12
 BYTE   N05  Bn1
 BYTE   W06
 BYTE   N05
 BYTE   W06
 BYTE   N05
 BYTE   W06
 BYTE   N05
 BYTE   W06
 BYTE   Gn1
 BYTE   W06
 BYTE   En1
 BYTE   W06
 BYTE   Bn0
 BYTE   W06
//  #07 //023   ----------------------------------------
 BYTE   N17
 BYTE   W18
 BYTE   Cn1
 BYTE   W18
 BYTE   Dn1
 BYTE   W18
 BYTE   Bn0
 BYTE   W18
 BYTE   N11  Cn1
 BYTE   W12
 BYTE   Dn1
 BYTE   W12
//  #07 //024   ----------------------------------------
 BYTE   W96
//  #07 //025   ----------------------------------------
 BYTE   W96
//  #07 //026   ----------------------------------------
Label_015C8A72:
 BYTE   N05  Cs1  v096
 BYTE   W06
 BYTE   Dn1
 BYTE   W06
 BYTE   En1
 BYTE   W06
 BYTE   N05
 BYTE   W06
 BYTE   N11
 BYTE   W12
 BYTE   N05  Cs1
 BYTE   W06
 BYTE   N11  Dn1
 BYTE   W12
 BYTE   N05  En1
 BYTE   W06
 BYTE   N05
 BYTE   W06
 BYTE   N05
 BYTE   W06
 BYTE   N11
 BYTE   W12
 BYTE   N05
 BYTE   W06
 BYTE   N05
 BYTE   W06
 BYTE   PEND 
//  #07 //027   ----------------------------------------
 BYTE   PATT
  POIN2 Label_015C8A72
//  #07 //028   ----------------------------------------
Label_015C8A97:
 BYTE   N05  Dn1  v096
 BYTE   W06
 BYTE   En1
 BYTE   W06
 BYTE   Fn1
 BYTE   W06
 BYTE   N05
 BYTE   W06
 BYTE   N11
 BYTE   W12
 BYTE   N05  Dn1
 BYTE   W06
 BYTE   N11  En1
 BYTE   W12
 BYTE   N05  Fn1
 BYTE   W06
 BYTE   N05
 BYTE   W06
 BYTE   N05
 BYTE   W06
 BYTE   N11
 BYTE   W12
 BYTE   N05
 BYTE   W06
 BYTE   N05
 BYTE   W06
 BYTE   PEND 
//  #07 //029   ----------------------------------------
 BYTE   Dn1
 BYTE   W06
 BYTE   En1
 BYTE   W06
 BYTE   Fn1
 BYTE   W06
 BYTE   N05
 BYTE   W06
 BYTE   N11
 BYTE   W12
 BYTE   N05  Dn1
 BYTE   W06
 BYTE   N11  En1
 BYTE   W12
 BYTE   N05  Fn2
 BYTE   W06
 BYTE   N05
 BYTE   W06
 BYTE   N05
 BYTE   W06
 BYTE   N05
 BYTE   W06
 BYTE   Cn2
 BYTE   W06
 BYTE   An1
 BYTE   W06
 BYTE   Fn1
 BYTE   W06
//  #07 //030   ----------------------------------------
Label_015C8AD6:
 BYTE   N05  En1  v096
 BYTE   W06
 BYTE   Fn1
 BYTE   W06
 BYTE   Gn1
 BYTE   W06
 BYTE   N05
 BYTE   W06
 BYTE   N11
 BYTE   W12
 BYTE   N05  En1
 BYTE   W06
 BYTE   N11  Fn1
 BYTE   W12
 BYTE   N05  Gn1
 BYTE   W06
 BYTE   N05
 BYTE   W06
 BYTE   N05
 BYTE   W06
 BYTE   N11
 BYTE   W12
 BYTE   N05
 BYTE   W06
 BYTE   N05
 BYTE   W06
 BYTE   PEND 
//  #07 //031   ----------------------------------------
 BYTE   En1
 BYTE   W06
 BYTE   Fn1
 BYTE   W06
 BYTE   Gn1
 BYTE   W06
 BYTE   N05
 BYTE   W06
 BYTE   N11
 BYTE   W12
 BYTE   N05  En1
 BYTE   W06
 BYTE   N11  Fn1
 BYTE   W12
 BYTE   N05  Gn1
 BYTE   W06
 BYTE   Bn1
 BYTE   W06
 BYTE   Gn1
 BYTE   W06
 BYTE   Cn2
 BYTE   W06
 BYTE   Gn1
 BYTE   W06
 BYTE   Bn1
 BYTE   W06
 BYTE   Gn1
 BYTE   W06
//  #07 //032   ----------------------------------------
 BYTE   Fn1
 BYTE   W06
 BYTE   Gn1
 BYTE   W06
 BYTE   An1
 BYTE   W06
 BYTE   N05
 BYTE   W06
 BYTE   N11
 BYTE   W12
 BYTE   N05  Fn1
 BYTE   W06
 BYTE   N11  Gn1
 BYTE   W12
 BYTE   N05  An1
 BYTE   W06
 BYTE   Cs2
 BYTE   W06
 BYTE   An1
 BYTE   W06
 BYTE   Dn2
 BYTE   W06
 BYTE   An1
 BYTE   W06
 BYTE   Cs2
 BYTE   W06
 BYTE   An1
 BYTE   W06
//  #07 //033   ----------------------------------------
 BYTE   N05
 BYTE   W06
 BYTE   Bn1
 BYTE   W06
 BYTE   N05
 BYTE   W06
 BYTE   An1
 BYTE   W06
 BYTE   Bn1
 BYTE   W06
 BYTE   N05
 BYTE   W06
 BYTE   An1
 BYTE   W06
 BYTE   Bn1
 BYTE   W06
 BYTE   N05
 BYTE   W06
 BYTE   An1
 BYTE   W06
 BYTE   Bn1
 BYTE   W06
 BYTE   N05
 BYTE   W06
 BYTE   N05
 BYTE   W06
 BYTE   An1
 BYTE   W06
 BYTE   Fs1
 BYTE   W06
 BYTE   Bn0
 BYTE   W06
//  #07 //034   ----------------------------------------
 BYTE   PATT
  POIN2 Label_015C8A72
//  #07 //035   ----------------------------------------
 BYTE   N05  Cs1  v096
 BYTE   W06
 BYTE   Dn1
 BYTE   W06
 BYTE   En1
 BYTE   W06
 BYTE   N05
 BYTE   W06
 BYTE   N11
 BYTE   W12
 BYTE   N05  An1
 BYTE   W06
 BYTE   N07  Cn2
 BYTE   W08
 BYTE   N07
 BYTE   W08
 BYTE   N07
 BYTE   W08
 BYTE   N05  An1
 BYTE   W06
 BYTE   Bn1
 BYTE   W06
 BYTE   Gn1
 BYTE   W06
 BYTE   As1
 BYTE   W06
 BYTE   Fn1
 BYTE   W06
//  #07 //036   ----------------------------------------
 BYTE   PATT
  POIN2 Label_015C8A97
//  #07 //037   ----------------------------------------
 BYTE   N05  Dn1  v096
 BYTE   W06
 BYTE   En1
 BYTE   W06
 BYTE   Fn1
 BYTE   W06
 BYTE   N05
 BYTE   W06
 BYTE   N11
 BYTE   W12
 BYTE   N05  Dn1
 BYTE   W06
 BYTE   N11  Fn1
 BYTE   W12
 BYTE   N05  Fn2
 BYTE   W06
 BYTE   N05
 BYTE   W06
 BYTE   N05
 BYTE   W06
 BYTE   N05
 BYTE   W06
 BYTE   N05
 BYTE   W06
 BYTE   N05
 BYTE   W06
 BYTE   N05
 BYTE   W06
//  #07 //038   ----------------------------------------
 BYTE   PATT
  POIN2 Label_015C8AD6
//  #07 //039   ----------------------------------------
Label_015C8BA5:
 BYTE   N05  Gn1  v096
 BYTE   W06
 BYTE   Bn1
 BYTE   W12
 BYTE   Cn1
 BYTE   W12
 BYTE   Cs1
 BYTE   W12
 BYTE   Dn1
 BYTE   W12
 BYTE   En1
 BYTE   W12
 BYTE   Fs1
 BYTE   W12
 BYTE   Gn1
 BYTE   W06
 BYTE   N05
 BYTE   W06
 BYTE   N05
 BYTE   W06
 BYTE   PEND 
//  #07 //040   ----------------------------------------
Label_015C8BBC:
 BYTE   N05  Gn1  v096
 BYTE   W06
 BYTE   N11  An1
 BYTE   W12
 BYTE   N05  Gn1
 BYTE   W06
 BYTE   N17  An1
 BYTE   W18
 BYTE   N11
 BYTE   W12
 BYTE   N11
 BYTE   W12
 BYTE   N11
 BYTE   W12
 BYTE   N05
 BYTE   W06
 BYTE   Gn1
 BYTE   W06
 BYTE   En1
 BYTE   W06
 BYTE   PEND 
//  #07 //041   ----------------------------------------
Label_015C8BD6:
 BYTE   N05  An1  v096
 BYTE   W06
 BYTE   N11  Bn1
 BYTE   W12
 BYTE   N05  An1
 BYTE   W06
 BYTE   N17  Bn1
 BYTE   W18
 BYTE   N11
 BYTE   W12
 BYTE   N11
 BYTE   W12
 BYTE   N05
 BYTE   W06
 BYTE   An1
 BYTE   W06
 BYTE   Gn1
 BYTE   W06
 BYTE   En1
 BYTE   W06
 BYTE   Bn0
 BYTE   W06
 BYTE   PEND 
//  #07 //042   ----------------------------------------
 BYTE   En1
 BYTE   W06
 BYTE   N05
 BYTE   W06
 BYTE   N05
 BYTE   W06
 BYTE   N05
 BYTE   W06
 BYTE   N11
 BYTE   W12
 BYTE   N05
 BYTE   W06
 BYTE   N11  Dn1
 BYTE   W12
 BYTE   N05  En1
 BYTE   W06
 BYTE   N05
 BYTE   W06
 BYTE   N05
 BYTE   W06
 BYTE   N11
 BYTE   W12
 BYTE   N05
 BYTE   W06
 BYTE   N05
 BYTE   W06
//  #07 //043   ----------------------------------------
Label_015C8C0E:
 BYTE   N11  Dn1  v096
 BYTE   W12
 BYTE   N05  En1
 BYTE   W06
 BYTE   N05
 BYTE   W06
 BYTE   N05
 BYTE   W06
 BYTE   N11
 BYTE   W12
 BYTE   N05
 BYTE   W06
 BYTE   N11  Dn1
 BYTE   W12
 BYTE   N05  En1
 BYTE   W06
 BYTE   N05
 BYTE   W06
 BYTE   N05
 BYTE   W06
 BYTE   N11
 BYTE   W12
 BYTE   N05
 BYTE   W06
 BYTE   PEND 
//  #07 //044   ----------------------------------------
 BYTE   N11  Dn1
 BYTE   W12
 BYTE   N05  En1
 BYTE   W06
 BYTE   N05
 BYTE   W06
 BYTE   N05
 BYTE   W06
 BYTE   N11
 BYTE   W12
 BYTE   N05
 BYTE   W06
 BYTE   N11  Dn1
 BYTE   W12
 BYTE   N05  En1
 BYTE   W06
 BYTE   N05
 BYTE   W06
 BYTE   N05
 BYTE   W06
 BYTE   N05
 BYTE   W06
 BYTE   N11
 BYTE   W12
//  #07 //045   ----------------------------------------
 BYTE   Gn1
 BYTE   W12
 BYTE   N17  As1
 BYTE   W18
 BYTE   N05  Gs1
 BYTE   W06
 BYTE   Gn1
 BYTE   W06
 BYTE   Fs1
 BYTE   W06
 BYTE   N01  En3
 BYTE   W01
 BYTE   Ds3
 BYTE   W02
 BYTE   Dn3
 BYTE   W03
 BYTE   Cs3
 BYTE   W01
 BYTE   Cn3
 BYTE   W02
 BYTE   Bn2
 BYTE   W03
 BYTE   As2
 BYTE   W01
 BYTE   An2
 BYTE   W02
 BYTE   Gs2
 BYTE   W03
 BYTE   Gn2
 BYTE   W01
 BYTE   Fs2
 BYTE   W02
 BYTE   Fn2
 BYTE   W03
 BYTE   En2
 BYTE   W01
 BYTE   Ds2
 BYTE   W02
 BYTE   Dn2
 BYTE   W03
 BYTE   Cs2
 BYTE   W01
 BYTE   Cn2
 BYTE   W02
 BYTE   Bn1
 BYTE   W03
 BYTE   As1
 BYTE   W01
 BYTE   An1
 BYTE   W02
 BYTE   Gs1
 BYTE   W03
 BYTE   Gn1
 BYTE   W01
 BYTE   Fs1
 BYTE   W02
 BYTE   Fn1
 BYTE   W03
//  #07 //046   ----------------------------------------
 BYTE   N11  En1
 BYTE   W12
 BYTE   N05
 BYTE   W06
 BYTE   N05
 BYTE   W06
 BYTE   N05
 BYTE   W06
 BYTE   N11
 BYTE   W12
 BYTE   N05
 BYTE   W06
 BYTE   N11  Dn1
 BYTE   W12
 BYTE   N05  En1
 BYTE   W06
 BYTE   N05
 BYTE   W06
 BYTE   N05
 BYTE   W06
 BYTE   N05
 BYTE   W06
 BYTE   N05
 BYTE   W06
 BYTE   Bn1
 BYTE   W06
//  #07 //047   ----------------------------------------
 BYTE   En2
 BYTE   W06
 BYTE   N05
 BYTE   W06
 BYTE   Dn2
 BYTE   W06
 BYTE   Bn1
 BYTE   W06
 BYTE   Cs2
 BYTE   W06
 BYTE   As1
 BYTE   W06
 BYTE   Cn2
 BYTE   W06
 BYTE   An1
 BYTE   W06
 BYTE   Bn1
 BYTE   W06
 BYTE   Gs1
 BYTE   W06
 BYTE   As1
 BYTE   W06
 BYTE   Gn1
 BYTE   W06
 BYTE   An1
 BYTE   W06
 BYTE   Fs1
 BYTE   W06
 BYTE   Gs1
 BYTE   W06
 BYTE   Gn1
 BYTE   W06
//  #07 //048   ----------------------------------------
 BYTE   PATT
  POIN2 Label_015C8C0E
//  #07 //049   ----------------------------------------
 BYTE   N11  Dn1  v096
 BYTE   W12
 BYTE   N05  En1
 BYTE   W06
 BYTE   N05
 BYTE   W06
 BYTE   N05
 BYTE   W06
 BYTE   N11
 BYTE   W12
 BYTE   N05  Bn1
 BYTE   W06
 BYTE   En2
 BYTE   W06
 BYTE   N05
 BYTE   W06
 BYTE   N05
 BYTE   W06
 BYTE   N05
 BYTE   W06
 BYTE   N05
 BYTE   W06
 BYTE   N05
 BYTE   W06
 BYTE   N05
 BYTE   W06
 BYTE   N05
 BYTE   W06
//  #07 //050   ----------------------------------------
 BYTE   N23  En1
 BYTE   W96
//  #07 //051   ----------------------------------------
 BYTE   N23
 BYTE   W96
//  #07 //052   ----------------------------------------
 BYTE   N23
 BYTE   W96
//  #07 //053   ----------------------------------------
 BYTE   Ds1
 BYTE   W96
//  #07 //054   ----------------------------------------
 BYTE   En1
 BYTE   W96
//  #07 //055   ----------------------------------------
 BYTE   N23
 BYTE   W96
//  #07 //056   ----------------------------------------
 BYTE   N23
 BYTE   W96
//  #07 //057   ----------------------------------------
 BYTE   Ds1
 BYTE   W24
 BYTE   Fs1
 BYTE   W24
 BYTE   Dn1
 BYTE   W24
 BYTE   Ds1
 BYTE   W24
//  #07 //058   ----------------------------------------
 BYTE   PATT
  POIN2 Label_015C8A72
//  #07 //059   ----------------------------------------
 BYTE   PATT
  POIN2 Label_015C8A72
//  #07 //060   ----------------------------------------
 BYTE   PATT
  POIN2 Label_015C8A97
//  #07 //061   ----------------------------------------
 BYTE   PATT
  POIN2 Label_015C8A97
//  #07 //062   ----------------------------------------
 BYTE   PATT
  POIN2 Label_015C8AD6
//  #07 //063   ----------------------------------------
 BYTE   PATT
  POIN2 Label_015C8BA5
//  #07 //064   ----------------------------------------
 BYTE   PATT
  POIN2 Label_015C8BBC
//  #07 //065   ----------------------------------------
 BYTE   PATT
  POIN2 Label_015C8BD6
//  #07 //066   ----------------------------------------
 BYTE   N05  Bn1  v096
 BYTE   W06
 BYTE   Cn2
 BYTE   W06
 BYTE   N05
 BYTE   W06
 BYTE   N05
 BYTE   W06
 BYTE   N11
 BYTE   W12
 BYTE   N05  Bn1
 BYTE   W06
 BYTE   N11
 BYTE   W12
 BYTE   N05  Cn2
 BYTE   W06
 BYTE   N05
 BYTE   W06
 BYTE   N05
 BYTE   W06
 BYTE   N11
 BYTE   W12
 BYTE   N05
 BYTE   W06
 BYTE   N05
 BYTE   W06
//  #07 //067   ----------------------------------------
 BYTE   Bn1
 BYTE   W06
 BYTE   Cn2
 BYTE   W06
 BYTE   N05
 BYTE   W06
 BYTE   N05
 BYTE   W06
 BYTE   N11
 BYTE   W12
 BYTE   N05  Bn1
 BYTE   W06
 BYTE   N11
 BYTE   W12
 BYTE   N05  Cn2
 BYTE   W06
 BYTE   Dn2
 BYTE   W06
 BYTE   Cn2
 BYTE   W06
 BYTE   En2
 BYTE   W06
 BYTE   Cn2
 BYTE   W06
 BYTE   Fn2
 BYTE   W06
 BYTE   Cn2
 BYTE   W06
//  #07 //068   ----------------------------------------
 BYTE   PATT
  POIN2 Label_015C8A97
//  #07 //069   ----------------------------------------
 BYTE   N05  Dn1  v096
 BYTE   W06
 BYTE   En1
 BYTE   W06
 BYTE   Fn1
 BYTE   W06
 BYTE   N05
 BYTE   W06
 BYTE   N05
 BYTE   W06
 BYTE   N11  Fn2
 BYTE   W12
 BYTE   Cn2
 BYTE   W12
 BYTE   An1
 BYTE   W12
 BYTE   Fn1
 BYTE   W12
 BYTE   N05  Cn1
 BYTE   W06
 BYTE   An0
 BYTE   W06
 BYTE   Fn0
 BYTE   W06
//  #07 //070   ----------------------------------------
 BYTE   En1
 BYTE   W06
 BYTE   Fn1
 BYTE   W06
 BYTE   Gn1
 BYTE   W06
 BYTE   N05
 BYTE   W06
 BYTE   N11
 BYTE   W12
 BYTE   N05  En1
 BYTE   W06
 BYTE   N11  Fs1
 BYTE   W12
 BYTE   N05  Gn1
 BYTE   W06
 BYTE   N05
 BYTE   W06
 BYTE   N05
 BYTE   W06
 BYTE   N11
 BYTE   W12
 BYTE   N05
 BYTE   W06
 BYTE   N05
 BYTE   W06
//  #07 //071   ----------------------------------------
 BYTE   En1
 BYTE   W06
 BYTE   N11  Gn1
 BYTE   W12
 BYTE   N05  En1
 BYTE   W06
 BYTE   Gn1
 BYTE   W06
 BYTE   N05
 BYTE   W06
 BYTE   Bn1
 BYTE   W06
 BYTE   Dn2
 BYTE   W06
 BYTE   Gn2
 BYTE   W06
 BYTE   N05
 BYTE   W06
 BYTE   N05
 BYTE   W06
 BYTE   N05
 BYTE   W06
 BYTE   N23
 BYTE   W24
//  #07 //072   ----------------------------------------
 BYTE   N05  Gn1
 BYTE   W06
 BYTE   An1
 BYTE   W06
 BYTE   N05
 BYTE   W06
 BYTE   N05
 BYTE   W06
 BYTE   N11
 BYTE   W12
 BYTE   N05
 BYTE   W06
 BYTE   N05
 BYTE   W06
 BYTE   Gn1
 BYTE   W06
 BYTE   An1
 BYTE   W06
 BYTE   N05
 BYTE   W06
 BYTE   N05
 BYTE   W06
 BYTE   N11
 BYTE   W12
 BYTE   N05
 BYTE   W06
 BYTE   N05
 BYTE   W06
//  #07 //073   ----------------------------------------
 BYTE   N05
 BYTE   W06
 BYTE   Bn1
 BYTE   W06
 BYTE   N05
 BYTE   W06
 BYTE   N05
 BYTE   W06
 BYTE   N11
 BYTE   W12
 BYTE   N05  An1
 BYTE   W06
 BYTE   Bn1
 BYTE   W06
 BYTE   N05
 BYTE   W06
 BYTE   N05
 BYTE   W06
 BYTE   N11
 BYTE   W12
 BYTE   N05  Bn2
 BYTE   W06
 BYTE   N05
 BYTE   W06
 BYTE   N05
 BYTE   W06
 BYTE   N05
 BYTE   W06
//  #07 //074   ----------------------------------------
Label_015C8DF5:
 BYTE   N11  En1  v096
 BYTE   W12
 BYTE   N05  An1
 BYTE   W06
 BYTE   Bn1
 BYTE   W06
 BYTE   N11  En1
 BYTE   W12
 BYTE   N05  An1
 BYTE   W06
 BYTE   Bn1
 BYTE   W06
 BYTE   N11  En1
 BYTE   W12
 BYTE   N11
 BYTE   W12
 BYTE   N11
 BYTE   W12
 BYTE   N05  An1
 BYTE   W06
 BYTE   Bn1
 BYTE   W06
 BYTE   PEND 
//  #07 //075   ----------------------------------------
 BYTE   N11  En1
 BYTE   W12
 BYTE   N05  An1
 BYTE   W06
 BYTE   Bn1
 BYTE   W06
 BYTE   N11  En1
 BYTE   W12
 BYTE   N05  An1
 BYTE   W06
 BYTE   Bn1
 BYTE   W06
 BYTE   N11  En1
 BYTE   W12
 BYTE   N05
 BYTE   W06
 BYTE   N05
 BYTE   W06
 BYTE   N11
 BYTE   W12
 BYTE   N05  An1
 BYTE   W06
 BYTE   Bn1
 BYTE   W06
//  #07 //076   ----------------------------------------
 BYTE   PATT
  POIN2 Label_015C8DF5
//  #07 //077   ----------------------------------------
 BYTE   N11  En1  v096
 BYTE   W12
 BYTE   N05  An1
 BYTE   W06
 BYTE   Bn1
 BYTE   W06
 BYTE   N11  En1
 BYTE   W12
 BYTE   N05  An1
 BYTE   W06
 BYTE   Bn1
 BYTE   W06
 BYTE   N11  En1
 BYTE   W12
 BYTE   N05  An1
 BYTE   W06
 BYTE   Bn1
 BYTE   W06
 BYTE   Cn2
 BYTE   W06
 BYTE   Bn1
 BYTE   W06
 BYTE   An1
 BYTE   W06
 BYTE   Gn1
 BYTE   W06
//  #07 //078   ----------------------------------------
 BYTE   PATT
  POIN2 Label_015C8DF5
//  #07 //079   ----------------------------------------
 BYTE   N11  En1  v096
 BYTE   W12
 BYTE   N05  An1
 BYTE   W06
 BYTE   Bn1
 BYTE   W06
 BYTE   N11  En1
 BYTE   W12
 BYTE   N05  Dn2
 BYTE   W06
 BYTE   En2
 BYTE   W06
 BYTE   Gn2
 BYTE   W06
 BYTE   An2
 BYTE   W06
 BYTE   N05
 BYTE   W06
 BYTE   N05
 BYTE   W06
 BYTE   N23
 BYTE   W24
//  #07 //080   ----------------------------------------
 BYTE   PATT
  POIN2 Label_015C8DF5
//  #07 //081   ----------------------------------------
 BYTE   N11  En1  v096
 BYTE   W12
 BYTE   N05  An1
 BYTE   W06
 BYTE   Bn1
 BYTE   W06
 BYTE   TIE  Cn2
 BYTE   W72
//  #07 //082   ----------------------------------------
 BYTE   W68
 BYTE   W03
 BYTE   EOT
 BYTE   W24
 BYTE   W01
//  #07 //083   ----------------------------------------
 BYTE   W06
 BYTE   GoTo
  POIN2 Label_015C88DA
 BYTE   FINE

//**************** Track 8 (Midi-Chn.7) ****************//

aOioP_008:
//  #08 //000   ----------------------------------------
 BYTE   KEYSH   aOioP_key+0
Label_017A7F52:
 BYTE   VOICE   124
 BYTE   VOL   44*aOioP_mvl/mxv
 BYTE   PAN   c_v+0
 BYTE   En3  v064
 BYTE   PAN   c_v+0
 BYTE   W96
//  #08 //001   ----------------------------------------
 BYTE   W96
//  #08 //002   ----------------------------------------
 BYTE   W96
//  #08 //003   ----------------------------------------
 BYTE   W96
//  #08 //004   ----------------------------------------
Label_017A7F5F:
 BYTE   N11  Cn1  v080
 BYTE   N11  Cs2  v120
 BYTE   W12
 BYTE   N05  Fs1  v080
 BYTE   W06
 BYTE   Cn1
 BYTE   N05  Fs1
 BYTE   W06
 BYTE   N11  Dn1
 BYTE   N11  Fs1
 BYTE   W12
 BYTE   N05
 BYTE   W06
 BYTE   Cn1
 BYTE   N05  Fs1
 BYTE   W06
 BYTE   N11  Cn1
 BYTE   N05  Fs1
 BYTE   W06
 BYTE   N05
 BYTE   W06
 BYTE   N11  Cn1
 BYTE   N11  Fs1
 BYTE   W12
 BYTE   Dn1
 BYTE   N11  Fs1
 BYTE   W06
 BYTE   N05  Cn1
 BYTE   W06
 BYTE   N11  Fs1
 BYTE   W06
 BYTE   N05  Dn1
 BYTE   W06
 BYTE   PEND 
//  #08 //005   ----------------------------------------
 BYTE   N11  Cn1
 BYTE   N11  Fs1
 BYTE   W12
 BYTE   N05
 BYTE   W06
 BYTE   Cn1
 BYTE   N05  Fs1
 BYTE   W06
 BYTE   N11  Dn1
 BYTE   N11  Fs1
 BYTE   W12
 BYTE   N05
 BYTE   W06
 BYTE   Cn1
 BYTE   N05  Fs1
 BYTE   W06
 BYTE   N11  Cn1
 BYTE   N05  Fs1
 BYTE   W06
 BYTE   N05
 BYTE   W06
 BYTE   N11  Cn1
 BYTE   N05  Fs1
 BYTE   W06
 BYTE   N05
 BYTE   W06
 BYTE   N11  Dn1
 BYTE   N11  Fs1
 BYTE   W06
 BYTE   N05  Cn1
 BYTE   W06
 BYTE   N11  Fs1
 BYTE   W06
 BYTE   N05  Dn1
 BYTE   W06
//  #08 //006   ----------------------------------------
 BYTE   PATT
  POIN2 Label_017A7F5F
//  #08 //007   ----------------------------------------
 BYTE   N11  Cn1  v080
 BYTE   N11  Fs1
 BYTE   W12
 BYTE   N05  Cn1
 BYTE   N05  Fs1
 BYTE   W06
 BYTE   Cn1
 BYTE   N05  Fs1
 BYTE   W06
 BYTE   N11  Dn1
 BYTE   N11  Fs1
 BYTE   W06
 BYTE   N05  Cn1
 BYTE   W06
 BYTE   N11
 BYTE   N11  As1
 BYTE   W12
 BYTE   Cn1
 BYTE   N11  Dn1
 BYTE   N11  As1
 BYTE   W12
 BYTE   Cn1
 BYTE   N05  Dn1
 BYTE   W06
 BYTE   N05
 BYTE   W06
 BYTE   N02
 BYTE   W03
 BYTE   N02
 BYTE   W03
 BYTE   N05
 BYTE   W06
 BYTE   Dn2  v096
 BYTE   W06
 BYTE   Cn2
 BYTE   W06
//  #08 //008   ----------------------------------------
Label_017A7FFC:
 BYTE   N11  Cn1  v080
 BYTE   N23  Cs2  v120
 BYTE   W18
 BYTE   N05  Cn1  v080
 BYTE   W06
 BYTE   N23  Dn1
 BYTE   N23  As1
 BYTE   W12
 BYTE   N11  Cn1
 BYTE   W12
 BYTE   N11
 BYTE   N23  As1
 BYTE   W12
 BYTE   N11  Cn1
 BYTE   W12
 BYTE   N23  Dn1
 BYTE   N23  As1
 BYTE   W06
 BYTE   N05  Cn1
 BYTE   W06
 BYTE   N05
 BYTE   W12
 BYTE   PEND 
//  #08 //009   ----------------------------------------
 BYTE   N11
 BYTE   N23  As1
 BYTE   W18
 BYTE   N05  Cn1
 BYTE   W06
 BYTE   N23  Dn1
 BYTE   N23  As1
 BYTE   W12
 BYTE   N11  Cn1
 BYTE   W12
 BYTE   N11
 BYTE   N23  As1
 BYTE   W12
 BYTE   N11  Cn1
 BYTE   W12
 BYTE   N23  Dn1
 BYTE   N23  As1
 BYTE   W06
 BYTE   N05  Cn1
 BYTE   W06
 BYTE   N05
 BYTE   W12
//  #08 //010   ----------------------------------------
Label_017A8041:
 BYTE   N11  Cn1  v080
 BYTE   N23  Cs2
 BYTE   W18
 BYTE   N05  Cn1
 BYTE   W06
 BYTE   N23  Dn1
 BYTE   N23  As1
 BYTE   W12
 BYTE   N11  Cn1
 BYTE   W12
 BYTE   N11
 BYTE   N23  As1
 BYTE   W12
 BYTE   N11  Cn1
 BYTE   W12
 BYTE   N23  Dn1
 BYTE   N23  As1
 BYTE   W06
 BYTE   N05  Cn1
 BYTE   W06
 BYTE   N05
 BYTE   W12
 BYTE   PEND 
//  #08 //011   ----------------------------------------
 BYTE   N11
 BYTE   N23  As1
 BYTE   W18
 BYTE   N05  Cn1
 BYTE   W06
 BYTE   N23  Dn1
 BYTE   N23  As1
 BYTE   W12
 BYTE   N11  Cn1
 BYTE   W12
 BYTE   N11
 BYTE   N11  Dn1
 BYTE   N11  As1
 BYTE   W12
 BYTE   Cn1
 BYTE   N11  Dn1
 BYTE   N11  As1
 BYTE   W12
 BYTE   N23  Cn1
 BYTE   N05  Dn1
 BYTE   W06
 BYTE   N05
 BYTE   W06
 BYTE   N05
 BYTE   W06
 BYTE   N05
 BYTE   W06
//  #08 //012   ----------------------------------------
 BYTE   PATT
  POIN2 Label_017A7FFC
//  #08 //013   ----------------------------------------
 BYTE   N11  Cn1  v080
 BYTE   N23  Gn2
 BYTE   W18
 BYTE   N05  Cn1
 BYTE   W06
 BYTE   N23  Dn1
 BYTE   N23  As1
 BYTE   W12
 BYTE   N11  Cn1
 BYTE   W12
 BYTE   N11
 BYTE   N23  As1
 BYTE   W12
 BYTE   N11  Cn1
 BYTE   W12
 BYTE   N23  Dn1
 BYTE   N23  As1
 BYTE   W06
 BYTE   N05  Cn1
 BYTE   W06
 BYTE   N05
 BYTE   W12
//  #08 //014   ----------------------------------------
 BYTE   PATT
  POIN2 Label_017A8041
//  #08 //015   ----------------------------------------
 BYTE   N11  Cn1  v080
 BYTE   N23  As1
 BYTE   W18
 BYTE   N05  Cn1
 BYTE   W06
 BYTE   N23  Dn1
 BYTE   N23  As1
 BYTE   W12
 BYTE   N11  Cn1
 BYTE   W12
 BYTE   N23
 BYTE   N05  Dn1
 BYTE   W06
 BYTE   N02
 BYTE   W03
 BYTE   N02
 BYTE   W03
 BYTE   N05
 BYTE   W06
 BYTE   N05
 BYTE   W06
 BYTE   N23  Cn1
 BYTE   N05  Cn2  v096
 BYTE   W06
 BYTE   N05
 BYTE   W06
 BYTE   Bn1
 BYTE   W06
 BYTE   An1
 BYTE   W06
//  #08 //016   ----------------------------------------
Label_017A80DF:
 BYTE   N11  Cn1  v080
 BYTE   N23  Cs2  v120
 BYTE   W18
 BYTE   N05  Cn1  v080
 BYTE   W06
 BYTE   N23  Dn1
 BYTE   N23  As1
 BYTE   W12
 BYTE   N05  Cn1
 BYTE   W06
 BYTE   N11
 BYTE   W06
 BYTE   N23  As1
 BYTE   W12
 BYTE   N05  Cn1
 BYTE   W06
 BYTE   N05
 BYTE   W06
 BYTE   N11  Dn1
 BYTE   N23  As1
 BYTE   W06
 BYTE   N05  Cn1
 BYTE   W12
 BYTE   Dn1
 BYTE   W06
 BYTE   PEND 
//  #08 //017   ----------------------------------------
 BYTE   PATT
  POIN2 Label_017A80DF
//  #08 //018   ----------------------------------------
 BYTE   N11  Cn1  v080
 BYTE   N23  Cs2  v120
 BYTE   W12
 BYTE   N05  Cn1  v080
 BYTE   W06
 BYTE   N05
 BYTE   W06
 BYTE   N23  Dn1
 BYTE   N23  As1
 BYTE   W12
 BYTE   N05  Cn1
 BYTE   W06
 BYTE   N05
 BYTE   W06
 BYTE   N23  As1
 BYTE   W06
 BYTE   N05  Dn1
 BYTE   W06
 BYTE   Cn1
 BYTE   W12
 BYTE   N11  Dn1
 BYTE   N23  As1
 BYTE   W12
 BYTE   N05  Dn1
 BYTE   W06
 BYTE   N05
 BYTE   W06
//  #08 //019   ----------------------------------------
 BYTE   N11  Cn1
 BYTE   N23  Gn2
 BYTE   W18
 BYTE   N05  Cn1
 BYTE   W06
 BYTE   N23  Dn1
 BYTE   N23  As1
 BYTE   W12
 BYTE   N05  Cn1
 BYTE   W06
 BYTE   N11
 BYTE   W06
 BYTE   N05  Dn1
 BYTE   N11  As1
 BYTE   W09
 BYTE   N02  Dn1
 BYTE   W03
 BYTE   N02
 BYTE   W03
 BYTE   N02
 BYTE   W03
 BYTE   N05
 BYTE   W06
 BYTE   Cn2  v096
 BYTE   W06
 BYTE   N05
 BYTE   W06
 BYTE   Bn1
 BYTE   W06
 BYTE   An1
 BYTE   W06
//  #08 //020   ----------------------------------------
 BYTE   N11  Cn1  v080
 BYTE   N11  Cs2  v120
 BYTE   W12
 BYTE   N05  Cn1  v080
 BYTE   N11  Ds2
 BYTE   W06
 BYTE   N05  Cn1
 BYTE   W06
 BYTE   N23  Dn1
 BYTE   N11  Ds2
 BYTE   W12
 BYTE   N05  Cn1
 BYTE   N11  Ds2
 BYTE   W06
 BYTE   N05  Cn1
 BYTE   W06
 BYTE   N11  Ds2
 BYTE   W06
 BYTE   N05  Dn1
 BYTE   W06
 BYTE   Cn1
 BYTE   N11  Ds2
 BYTE   W12
 BYTE   Dn1
 BYTE   N11  Ds2
 BYTE   W12
 BYTE   Cn1
 BYTE   N11  Ds2
 BYTE   W12
//  #08 //021   ----------------------------------------
 BYTE   Cn1
 BYTE   N11  Gn2
 BYTE   W12
 BYTE   N05  Cn1
 BYTE   N11  Ds2
 BYTE   W06
 BYTE   N05  Cn1
 BYTE   W06
 BYTE   N11  Dn1
 BYTE   N11  Ds2
 BYTE   W12
 BYTE   N05  Cn1
 BYTE   N11  Ds2
 BYTE   W06
 BYTE   N05  Dn1
 BYTE   W06
 BYTE   N11  Ds2
 BYTE   W06
 BYTE   N05  Dn1
 BYTE   W06
 BYTE   Cn1
 BYTE   N11  Ds2
 BYTE   W12
 BYTE   Dn1
 BYTE   N11  Ds2
 BYTE   W12
 BYTE   Cn1
 BYTE   N11  Ds2
 BYTE   W12
//  #08 //022   ----------------------------------------
 BYTE   Cn1
 BYTE   N11  Cs2  v120
 BYTE   W12
 BYTE   N05  Cn1  v080
 BYTE   N11  Ds2
 BYTE   W06
 BYTE   N05  Cn1
 BYTE   W06
 BYTE   N23  Dn1
 BYTE   N11  An2  v120
 BYTE   W12
 BYTE   N05  Cn1  v080
 BYTE   N11  Ds2
 BYTE   W06
 BYTE   N05  Cn1
 BYTE   W06
 BYTE   N11  As1
 BYTE   W06
 BYTE   N05  Dn1
 BYTE   W06
 BYTE   Cn1
 BYTE   N11  Ds2
 BYTE   W12
 BYTE   Dn1
 BYTE   N11  Ds2
 BYTE   W12
 BYTE   Cn1
 BYTE   N11  Ds2
 BYTE   W12
//  #08 //023   ----------------------------------------
 BYTE   Cn1
 BYTE   N23  Dn1
 BYTE   N11  As1
 BYTE   W12
 BYTE   N05  Cn1
 BYTE   N05  Cn2  v096
 BYTE   W06
 BYTE   Cn1  v080
 BYTE   N05  Bn1  v096
 BYTE   W06
 BYTE   N11  Cn1  v080
 BYTE   N11  Cs2  v120
 BYTE   W12
 BYTE   N02  Dn1  v080
 BYTE   W03
 BYTE   N02
 BYTE   W03
 BYTE   N02
 BYTE   W03
 BYTE   N02
 BYTE   W03
 BYTE   N11  Cn1
 BYTE   N05  Dn1
 BYTE   W06
 BYTE   N05
 BYTE   W06
 BYTE   N11  Cn2  v096
 BYTE   W06
 BYTE   Cn1  v080
 BYTE   N05  Dn1
 BYTE   W06
 BYTE   N05
 BYTE   W06
 BYTE   Cn2  v096
 BYTE   W06
 BYTE   N11  Cn1  v080
 BYTE   N05  Bn1  v096
 BYTE   W06
 BYTE   Dn1  v080
 BYTE   W06
//  #08 //024   ----------------------------------------
 BYTE   N11  Cn1
 BYTE   N23  Cs2  v096
 BYTE   W12
 BYTE   N05  Cn1  v080
 BYTE   W06
 BYTE   N05
 BYTE   W06
 BYTE   N11  Dn1
 BYTE   N11  An2  v096
 BYTE   W12
 BYTE   N05  Cn1  v080
 BYTE   W06
 BYTE   Dn1
 BYTE   N05  Cs2  v096
 BYTE   W12
 BYTE   Dn1  v080
 BYTE   N05  Cs2  v096
 BYTE   W06
 BYTE   Cn1  v080
 BYTE   W12
 BYTE   N11  Dn1
 BYTE   N11  An2  v096
 BYTE   W12
 BYTE   Dn1  v080
 BYTE   N11  An2  v096
 BYTE   W12
//  #08 //025   ----------------------------------------
 BYTE   Cn1  v080
 BYTE   N23  Cs2  v096
 BYTE   W12
 BYTE   N05  Cn1  v080
 BYTE   W06
 BYTE   N05
 BYTE   W06
 BYTE   N11  Dn1
 BYTE   N23  An2  v096
 BYTE   W12
 BYTE   N05  Cn1  v080
 BYTE   W06
 BYTE   Dn1
 BYTE   W30
 BYTE   N11  Gn2
 BYTE   W12
 BYTE   N11
 BYTE   W12
//  #08 //026   ----------------------------------------
 BYTE   Cn1
 BYTE   N11  Cs2  v120
 BYTE   W12
 BYTE   N05  Cn1  v080
 BYTE   N11  As1
 BYTE   W06
 BYTE   N05  Cn1
 BYTE   W06
 BYTE   N23  Dn1
 BYTE   N11  As1
 BYTE   W12
 BYTE   N05  Cn1
 BYTE   N11  As1
 BYTE   W06
 BYTE   N05  Cn1
 BYTE   W06
 BYTE   N11  As1
 BYTE   W06
 BYTE   N05  Dn1
 BYTE   W06
 BYTE   Cn1
 BYTE   N11  As1
 BYTE   W12
 BYTE   Dn1
 BYTE   N11  As1
 BYTE   W12
 BYTE   Cn1
 BYTE   N11  As1
 BYTE   W12
//  #08 //027   ----------------------------------------
Label_017A82A3:
 BYTE   N11  Cn1  v080
 BYTE   N11  Cs2
 BYTE   W12
 BYTE   N05  Cn1
 BYTE   N11  As1
 BYTE   W06
 BYTE   N05  Cn1
 BYTE   W06
 BYTE   N11  Dn1
 BYTE   N11  As1
 BYTE   W12
 BYTE   N05  Cn1
 BYTE   N11  As1
 BYTE   W06
 BYTE   N05  Dn1
 BYTE   W06
 BYTE   N11  As1
 BYTE   W06
 BYTE   N05  Dn1
 BYTE   W06
 BYTE   Cn1
 BYTE   N11  As1
 BYTE   W12
 BYTE   Dn1
 BYTE   N11  As1
 BYTE   W12
 BYTE   Cn1
 BYTE   N05  Dn1
 BYTE   N11  As1
 BYTE   W06
 BYTE   N05  Dn1
 BYTE   W06
 BYTE   PEND 
//  #08 //028   ----------------------------------------
 BYTE   PATT
  POIN2 Label_017A82A3
//  #08 //029   ----------------------------------------
 BYTE   N11  Cn1  v080
 BYTE   N11  Cs2
 BYTE   W12
 BYTE   N05  Cn1
 BYTE   N11  As1
 BYTE   W06
 BYTE   N05  Cn1
 BYTE   W06
 BYTE   N11  Dn1
 BYTE   N11  Gn2
 BYTE   W12
 BYTE   N05  Cn1
 BYTE   N11  As1
 BYTE   W06
 BYTE   N05  Dn1
 BYTE   W06
 BYTE   N11  As1
 BYTE   W06
 BYTE   N05  Dn1
 BYTE   W06
 BYTE   Cn1
 BYTE   N11  As1
 BYTE   W12
 BYTE   Dn1
 BYTE   N11  As1
 BYTE   W12
 BYTE   Cn1
 BYTE   N05  Dn1
 BYTE   N11  As1
 BYTE   W06
 BYTE   N05  Dn1
 BYTE   W06
//  #08 //030   ----------------------------------------
Label_017A830D:
 BYTE   N05  Cn1  v080
 BYTE   N11  Cs2
 BYTE   W06
 BYTE   N05  Cn1
 BYTE   W06
 BYTE   N11  Ds2
 BYTE   W06
 BYTE   N05  Cn1
 BYTE   W06
 BYTE   N11  Dn1
 BYTE   N11  Gn2
 BYTE   W12
 BYTE   N05  Cn1
 BYTE   N11  Ds2
 BYTE   W06
 BYTE   N05  Cn1
 BYTE   W06
 BYTE   N11  Gn2
 BYTE   W06
 BYTE   N05  Cn1
 BYTE   W06
 BYTE   N05
 BYTE   N11  Ds2
 BYTE   W12
 BYTE   Dn1
 BYTE   N11  Gn2
 BYTE   W06
 BYTE   N05  Cn1
 BYTE   W06
 BYTE   N11  Ds2
 BYTE   W06
 BYTE   N05  Dn1
 BYTE   W06
 BYTE   PEND 
//  #08 //031   ----------------------------------------
 BYTE   PATT
  POIN2 Label_017A830D
//  #08 //032   ----------------------------------------
 BYTE   N11  Cn1  v080
 BYTE   N11  Cs2
 BYTE   W12
 BYTE   N05  Cn1
 BYTE   N11  As1
 BYTE   W06
 BYTE   N05  Cn1
 BYTE   W06
 BYTE   N11  Dn1
 BYTE   N11  As1
 BYTE   W12
 BYTE   N05  Cn1
 BYTE   N11  As1
 BYTE   W06
 BYTE   N05  Dn1
 BYTE   W06
 BYTE   N11  As1
 BYTE   W06
 BYTE   N05  Dn1
 BYTE   W06
 BYTE   Cn1
 BYTE   N11  As1
 BYTE   W12
 BYTE   Dn1
 BYTE   N11  As1
 BYTE   W12
 BYTE   Cn1
 BYTE   N11  As1
 BYTE   W12
//  #08 //033   ----------------------------------------
 BYTE   N03  Dn1
 BYTE   W04
 BYTE   N03
 BYTE   W04
 BYTE   N03
 BYTE   W04
 BYTE   N03
 BYTE   W04
 BYTE   Dn2  v096
 BYTE   W04
 BYTE   Cn2
 BYTE   W04
 BYTE   Dn1  v080
 BYTE   W04
 BYTE   N03
 BYTE   W04
 BYTE   N03
 BYTE   W04
 BYTE   N03
 BYTE   W04
 BYTE   Dn2  v096
 BYTE   W04
 BYTE   Cn2
 BYTE   W04
 BYTE   Dn1  v080
 BYTE   W04
 BYTE   N03
 BYTE   W04
 BYTE   Cn2  v096
 BYTE   W04
 BYTE   Dn1  v080
 BYTE   W04
 BYTE   N03
 BYTE   W04
 BYTE   Cn2  v096
 BYTE   W04
 BYTE   Dn1  v080
 BYTE   W04
 BYTE   N03
 BYTE   W04
 BYTE   Cn2  v096
 BYTE   W04
 BYTE   N02  Dn1  v080
 BYTE   W03
 BYTE   N02
 BYTE   W03
 BYTE   Cn2  v096
 BYTE   W03
 BYTE   Bn1
 BYTE   W03
//  #08 //034   ----------------------------------------
 BYTE   N05  Cn1  v080
 BYTE   N11  Cs2  v120
 BYTE   W06
 BYTE   N05  Cn1  v080
 BYTE   W06
 BYTE   N11  Ds2
 BYTE   W06
 BYTE   N05  Cn1
 BYTE   W06
 BYTE   N11  Dn1
 BYTE   N11  Gn2
 BYTE   W12
 BYTE   N05  Cn1
 BYTE   N11  Ds2
 BYTE   W06
 BYTE   N05  Cn1
 BYTE   W06
 BYTE   N11  Gn2
 BYTE   W06
 BYTE   N05  Cn1
 BYTE   W06
 BYTE   N05
 BYTE   N11  Ds2
 BYTE   W12
 BYTE   Dn1
 BYTE   N11  Gn2
 BYTE   W06
 BYTE   N05  Cn1
 BYTE   W06
 BYTE   N11  Ds2
 BYTE   W06
 BYTE   N05  Dn1
 BYTE   W06
//  #08 //035   ----------------------------------------
 BYTE   Cn1
 BYTE   N11  Cs2
 BYTE   W06
 BYTE   N05  Cn1
 BYTE   W06
 BYTE   N11  Ds2
 BYTE   W06
 BYTE   N05  Cn1
 BYTE   W06
 BYTE   N11  Dn1
 BYTE   N11  Gn2
 BYTE   W12
 BYTE   N05  Cn1
 BYTE   N11  Ds2
 BYTE   W06
 BYTE   N05  Cn1
 BYTE   N05  Dn1
 BYTE   W06
 BYTE   N11  Gn2
 BYTE   W06
 BYTE   N05  Cn1
 BYTE   N05  Dn1
 BYTE   W06
 BYTE   Cn1
 BYTE   N11  Ds2
 BYTE   W12
 BYTE   Dn1
 BYTE   N11  Gn2
 BYTE   W06
 BYTE   N05  Cn1
 BYTE   W06
 BYTE   Dn1
 BYTE   N11  Ds2
 BYTE   W06
 BYTE   N05  Dn1
 BYTE   W06
//  #08 //036   ----------------------------------------
 BYTE   Cn1
 BYTE   N11  Cs2
 BYTE   W06
 BYTE   N05  Cn1
 BYTE   W06
 BYTE   N11  As1
 BYTE   W06
 BYTE   N05  Cn1
 BYTE   W06
 BYTE   N11  Dn1
 BYTE   N11  Gn2
 BYTE   W12
 BYTE   N05  Cn1
 BYTE   N11  As1
 BYTE   W06
 BYTE   N05  Cn1
 BYTE   W06
 BYTE   N11  Gn2
 BYTE   W06
 BYTE   N05  Cn1
 BYTE   W06
 BYTE   N05
 BYTE   N11  As1
 BYTE   W12
 BYTE   Dn1
 BYTE   N11  Gn2
 BYTE   W06
 BYTE   N05  Cn1
 BYTE   W06
 BYTE   N11  As1
 BYTE   W06
 BYTE   N05  Dn1
 BYTE   W06
//  #08 //037   ----------------------------------------
 BYTE   Cn1
 BYTE   N11  Cs2
 BYTE   W06
 BYTE   N05  Cn1
 BYTE   W06
 BYTE   N11  Dn1
 BYTE   N11  As1
 BYTE   W06
 BYTE   N05  Cn1
 BYTE   W06
 BYTE   N11  Dn1
 BYTE   N11  As1
 BYTE   W06
 BYTE   N05  Cn1
 BYTE   W06
 BYTE   N11  As1
 BYTE   W06
 BYTE   N05  Dn1
 BYTE   W06
 BYTE   N11  Cn1
 BYTE   N11  As1
 BYTE   W12
 BYTE   Cn1
 BYTE   N11  As1
 BYTE   W12
 BYTE   Cn1
 BYTE   N03  Dn1
 BYTE   W04
 BYTE   N03
 BYTE   W04
 BYTE   N03
 BYTE   W04
 BYTE   N03
 BYTE   W04
 BYTE   N03
 BYTE   W04
 BYTE   N03
 BYTE   W04
//  #08 //038   ----------------------------------------
 BYTE   N11  Cn1
 BYTE   N23  Cs2  v096
 BYTE   W18
 BYTE   N05  Cn1  v080
 BYTE   W06
 BYTE   N11
 BYTE   N23  Dn1
 BYTE   N23  An2  v096
 BYTE   W18
 BYTE   N05  Cn1  v080
 BYTE   W06
 BYTE   N11
 BYTE   N23  An2  v096
 BYTE   W12
 BYTE   N11  Cn1  v080
 BYTE   W12
 BYTE   N23  Dn1
 BYTE   N23  An2  v096
 BYTE   W12
 BYTE   N11  Cn1  v080
 BYTE   W12
//  #08 //039   ----------------------------------------
 BYTE   N11
 BYTE   N23  Cs2  v096
 BYTE   W18
 BYTE   N05  Cn1  v080
 BYTE   W06
 BYTE   N11
 BYTE   N23  Dn1
 BYTE   N23  An2  v096
 BYTE   W18
 BYTE   N05  Cn1  v080
 BYTE   W06
 BYTE   N11
 BYTE   N23  An2  v096
 BYTE   W06
 BYTE   N05  Dn1  v080
 BYTE   W06
 BYTE   N11  Cn1
 BYTE   W12
 BYTE   Dn1
 BYTE   N23  An2  v096
 BYTE   W12
 BYTE   N11  Cn1  v080
 BYTE   N05  Dn1
 BYTE   W06
 BYTE   N05
 BYTE   W06
//  #08 //040   ----------------------------------------
 BYTE   Cn1
 BYTE   N11  Cs2  v096
 BYTE   W06
 BYTE   N05  Dn1  v080
 BYTE   W06
 BYTE   N11  As1
 BYTE   W12
 BYTE   N05  Cn1
 BYTE   N05  Dn1
 BYTE   N11  As1
 BYTE   W12
 BYTE   N05  Cn1
 BYTE   N11  Dn1
 BYTE   N11  As1
 BYTE   W12
 BYTE   N05  Cn1
 BYTE   N11  As1
 BYTE   W06
 BYTE   N05  Dn1
 BYTE   W06
 BYTE   N11  As1
 BYTE   W12
 BYTE   N05  Cn1
 BYTE   N05  Dn1
 BYTE   N11  As1
 BYTE   W12
 BYTE   N05  Cn1
 BYTE   N11  Dn1
 BYTE   N11  As1
 BYTE   W12
//  #08 //041   ----------------------------------------
 BYTE   Cn1
 BYTE   N03  Dn1
 BYTE   W04
 BYTE   N03
 BYTE   W04
 BYTE   N03
 BYTE   W04
 BYTE   N11  Cn1
 BYTE   N03  Dn2  v096
 BYTE   W04
 BYTE   N03
 BYTE   W04
 BYTE   N03
 BYTE   W04
 BYTE   N11  Cn1  v080
 BYTE   N03  Cn2  v096
 BYTE   W04
 BYTE   N03
 BYTE   W04
 BYTE   N03
 BYTE   W04
 BYTE   N11  Cn1  v080
 BYTE   N03  Bn1  v096
 BYTE   W04
 BYTE   N03
 BYTE   W04
 BYTE   N03
 BYTE   W04
 BYTE   N11  Cn1  v080
 BYTE   N03  An1  v096
 BYTE   W04
 BYTE   N03
 BYTE   W04
 BYTE   N03
 BYTE   W04
 BYTE   N11  Cn1  v080
 BYTE   N03  An1  v096
 BYTE   W04
 BYTE   N03
 BYTE   W04
 BYTE   N03
 BYTE   W04
 BYTE   N11  Cn1  v080
 BYTE   N05  Dn1
 BYTE   N23  An2
 BYTE   W06
 BYTE   N05  Fn1  v096
 BYTE   W06
 BYTE   N11  Cn1  v080
 BYTE   N05  Fn1  v096
 BYTE   W06
 BYTE   Dn1  v080
 BYTE   W06
//  #08 //042   ----------------------------------------
 BYTE   Cn1
 BYTE   N11  Cs2  v120
 BYTE   W06
 BYTE   N05  Cn1  v080
 BYTE   W06
 BYTE   N11  Ds2
 BYTE   W06
 BYTE   N05  Cn1
 BYTE   W06
 BYTE   N11  Dn1
 BYTE   N11  Ds2
 BYTE   W12
 BYTE   N05  Cn1
 BYTE   N11  Ds2
 BYTE   W06
 BYTE   N05  Cn1
 BYTE   N05  Dn1
 BYTE   W06
 BYTE   N11  Ds2
 BYTE   W06
 BYTE   N05  Cn1
 BYTE   N05  Dn1
 BYTE   W06
 BYTE   Cn1
 BYTE   N11  Ds2
 BYTE   W12
 BYTE   Dn1
 BYTE   N11  Ds2
 BYTE   W06
 BYTE   N05  Cn1
 BYTE   W06
 BYTE   N11  Ds2
 BYTE   W12
//  #08 //043   ----------------------------------------
 BYTE   N05  Cn1
 BYTE   N11  Fs1
 BYTE   W06
 BYTE   N05  Cn1
 BYTE   W06
 BYTE   N11  Ds2
 BYTE   W06
 BYTE   N05  Cn1
 BYTE   W06
 BYTE   N11  Dn1
 BYTE   N11  Ds2
 BYTE   W12
 BYTE   N05  Cn1
 BYTE   N11  Ds2
 BYTE   W06
 BYTE   N05  Cn1
 BYTE   N05  Dn1
 BYTE   W06
 BYTE   Dn2  v096
 BYTE   W06
 BYTE   Cn1  v080
 BYTE   N05  Cn2  v096
 BYTE   W06
 BYTE   Cn1  v080
 BYTE   N05  Bn1  v096
 BYTE   W12
 BYTE   N11  Dn1  v080
 BYTE   W06
 BYTE   N05  Cn1
 BYTE   W12
 BYTE   Dn1
 BYTE   W06
//  #08 //044   ----------------------------------------
 BYTE   Cn1
 BYTE   N11  Cs2  v120
 BYTE   W06
 BYTE   N05  Cn1  v080
 BYTE   W06
 BYTE   N11  Fs1
 BYTE   W06
 BYTE   N05  Cn1
 BYTE   W06
 BYTE   N11  Dn1
 BYTE   N11  Fs1
 BYTE   W12
 BYTE   N05  Cn1
 BYTE   N11  Gn2
 BYTE   W06
 BYTE   N05  Cn1
 BYTE   W06
 BYTE   N11  Fs1
 BYTE   W06
 BYTE   N05  Cn1
 BYTE   W06
 BYTE   N11  Dn1
 BYTE   N11  Gn2
 BYTE   W12
 BYTE   Dn1
 BYTE   N11  Gn2
 BYTE   W12
 BYTE   Cn1
 BYTE   N11  As1
 BYTE   W06
 BYTE   N05  Dn1
 BYTE   W06
//  #08 //045   ----------------------------------------
 BYTE   Cn1
 BYTE   N11  As1
 BYTE   W06
 BYTE   N05  Cn1
 BYTE   W06
 BYTE   N11  Cs2  v120
 BYTE   W06
 BYTE   N05  Cn1  v080
 BYTE   W06
 BYTE   N11  Dn1
 BYTE   N11  As1
 BYTE   W12
 BYTE   N05  Cn1
 BYTE   N11  Gn2
 BYTE   W06
 BYTE   N05  Cn1
 BYTE   W06
 BYTE   N11
 BYTE   N11  Dn1
 BYTE   N11  As1
 BYTE   W12
 BYTE   Cn1
 BYTE   N11  Cn2  v096
 BYTE   N11  Dn2
 BYTE   W12
 BYTE   Cn1  v080
 BYTE   N11  An1  v096
 BYTE   N11  Bn1
 BYTE   W12
 BYTE   N05  Cn1  v080
 BYTE   N05  Dn1
 BYTE   N11  Fn1  v096
 BYTE   W06
 BYTE   N05  Cn1  v080
 BYTE   N05  Dn1
 BYTE   W06
//  #08 //046   ----------------------------------------
 BYTE   Cn1
 BYTE   N11  Cs2  v120
 BYTE   W06
 BYTE   N05  Cn1  v080
 BYTE   W06
 BYTE   N11  Ds2
 BYTE   W06
 BYTE   N05  Cn1
 BYTE   W06
 BYTE   N11  Dn1
 BYTE   N11  Ds2
 BYTE   W12
 BYTE   N05  Cn1
 BYTE   N11  Gn2
 BYTE   W06
 BYTE   N05  Cn1
 BYTE   W06
 BYTE   N11  Ds2
 BYTE   W06
 BYTE   N05  Dn1
 BYTE   W06
 BYTE   Cn1
 BYTE   N11  Ds2
 BYTE   W12
 BYTE   Dn1
 BYTE   N11  Gn2
 BYTE   W12
 BYTE   Cn1
 BYTE   N11  Ds2
 BYTE   W06
 BYTE   N05  Dn1
 BYTE   W06
//  #08 //047   ----------------------------------------
 BYTE   Cn1
 BYTE   N11  As1
 BYTE   W06
 BYTE   N05  Cn1
 BYTE   W06
 BYTE   N11  Ds2
 BYTE   W06
 BYTE   N05  Cn1
 BYTE   W06
 BYTE   N11  Dn1
 BYTE   N11  Ds2
 BYTE   W12
 BYTE   N05  Cn1
 BYTE   N11  Ds2
 BYTE   W06
 BYTE   N05  Cn1
 BYTE   W06
 BYTE   N11  Dn1
 BYTE   N11  As1
 BYTE   W06
 BYTE   N05  Cn1
 BYTE   W06
 BYTE   N11  Cn2  v096
 BYTE   N11  Dn2
 BYTE   W12
 BYTE   N03  Dn1  v080
 BYTE   W04
 BYTE   N03
 BYTE   W04
 BYTE   Dn2  v096
 BYTE   W04
 BYTE   Cn2
 BYTE   W04
 BYTE   Bn1
 BYTE   W04
 BYTE   An1
 BYTE   W04
//  #08 //048   ----------------------------------------
 BYTE   N05  Cn1  v080
 BYTE   N11  Cs2  v120
 BYTE   W06
 BYTE   N05  Cn1  v080
 BYTE   W06
 BYTE   N11  Ds2
 BYTE   W06
 BYTE   N05  Cn1
 BYTE   W06
 BYTE   N11  Dn1
 BYTE   N11  Ds2
 BYTE   W12
 BYTE   N05  Cn1
 BYTE   N11  Gn2
 BYTE   W06
 BYTE   N05  Cn1
 BYTE   W06
 BYTE   N11  Ds2
 BYTE   W06
 BYTE   N05  Dn1
 BYTE   W06
 BYTE   N11  Cn1
 BYTE   N11  Ds2
 BYTE   W12
 BYTE   Cn1
 BYTE   N11  Dn1
 BYTE   N11  Gn2
 BYTE   W12
 BYTE   N05  Cn1
 BYTE   N05  Dn1
 BYTE   N05  As1
 BYTE   W06
 BYTE   Cn1
 BYTE   N05  Dn1
 BYTE   N05  As1
 BYTE   W06
//  #08 //049   ----------------------------------------
 BYTE   W06
 BYTE   Cn1
 BYTE   N05  Dn1
 BYTE   N05  As1
 BYTE   W12
 BYTE   Cn1
 BYTE   N05  Dn1
 BYTE   N05  As1
 BYTE   W12
 BYTE   Cn1
 BYTE   N05  Cn2  v096
 BYTE   N05  Dn2
 BYTE   W12
 BYTE   Cn1  v080
 BYTE   N05  Dn1
 BYTE   N05  As1
 BYTE   W12
 BYTE   Cn1
 BYTE   N05  Cn2  v096
 BYTE   N05  Dn2
 BYTE   W12
 BYTE   Cn1  v080
 BYTE   N05  Bn1  v096
 BYTE   N05  Dn2
 BYTE   W12
 BYTE   Cn1  v080
 BYTE   N05  Fn1  v096
 BYTE   N05  Bn1
 BYTE   W18
//  #08 //050   ----------------------------------------
 BYTE   N11  Cn1  v080
 BYTE   N11  Cs2  v120
 BYTE   W12
 BYTE   Ds2  v080
 BYTE   W06
 BYTE   N05  Cn1
 BYTE   W06
 BYTE   N11  Ds2
 BYTE   W12
 BYTE   N11
 BYTE   W12
 BYTE   N11
 BYTE   W12
 BYTE   N11
 BYTE   W12
 BYTE   N11
 BYTE   W12
 BYTE   N05
 BYTE   W06
 BYTE   Fs1
 BYTE   W06
//  #08 //051   ----------------------------------------
 BYTE   N11  Cn1
 BYTE   N17  Ds2
 BYTE   W18
 BYTE   N05  Cn1
 BYTE   N05  Ds2
 BYTE   W06
 BYTE   N11
 BYTE   W12
 BYTE   N11
 BYTE   W12
 BYTE   N11
 BYTE   W12
 BYTE   N11
 BYTE   W12
 BYTE   N11
 BYTE   W12
 BYTE   N05
 BYTE   W06
 BYTE   Fs1
 BYTE   W06
//  #08 //052   ----------------------------------------
 BYTE   N23  Cn1
 BYTE   N11  Gn2
 BYTE   W12
 BYTE   Ds2
 BYTE   W12
 BYTE   N11
 BYTE   W12
 BYTE   N11
 BYTE   W12
 BYTE   N11
 BYTE   W12
 BYTE   N11
 BYTE   W12
 BYTE   N11
 BYTE   W12
 BYTE   N11
 BYTE   W12
//  #08 //053   ----------------------------------------
 BYTE   N23  Cn1
 BYTE   N11  Ds2
 BYTE   W12
 BYTE   N11
 BYTE   W12
 BYTE   N11
 BYTE   W12
 BYTE   N11
 BYTE   W12
 BYTE   N11
 BYTE   W12
 BYTE   N11
 BYTE   W06
 BYTE   N02  Cn1
 BYTE   W03
 BYTE   N02
 BYTE   W03
 BYTE   N11  Dn1
 BYTE   N11  As1
 BYTE   W06
 BYTE   N05  Cn1
 BYTE   W18
//  #08 //054   ----------------------------------------
 BYTE   N11  Cs2  v120
 BYTE   W12
 BYTE   Fs1  v080
 BYTE   W12
 BYTE   N11
 BYTE   W12
 BYTE   N11
 BYTE   W12
 BYTE   N11
 BYTE   W12
 BYTE   N11
 BYTE   W06
 BYTE   N02  Cn1
 BYTE   W03
 BYTE   N02
 BYTE   W03
 BYTE   N11  Dn1
 BYTE   N11  As1
 BYTE   W06
 BYTE   N05  Cn2  v096
 BYTE   W06
 BYTE   Bn1
 BYTE   W06
 BYTE   An1
 BYTE   W06
//  #08 //055   ----------------------------------------
 BYTE   N11  Gn2  v080
 BYTE   W48
 BYTE   N07  Cn1
 BYTE   N07  Dn1
 BYTE   N07  As1
 BYTE   W08
 BYTE   Cn1
 BYTE   W08
 BYTE   N07
 BYTE   W08
 BYTE   N07
 BYTE   N07  An1  v096
 BYTE   N07  Cn2
 BYTE   W08
 BYTE   Cn1  v080
 BYTE   W08
 BYTE   N07
 BYTE   W08
//  #08 //056   ----------------------------------------
 BYTE   N23  Cs2  v096
 BYTE   W24
 BYTE   Ds2
 BYTE   W24
 BYTE   N23
 BYTE   W24
 BYTE   N23
 BYTE   W24
//  #08 //057   ----------------------------------------
 BYTE   N05  Cn1  v080
 BYTE   N11  An1  v096
 BYTE   N11  Dn2
 BYTE   W06
 BYTE   N05  Cn1  v080
 BYTE   W06
 BYTE   N05
 BYTE   W06
 BYTE   N05
 BYTE   N05  Fn1  v096
 BYTE   N05  Bn1
 BYTE   W06
 BYTE   Cn1  v080
 BYTE   W06
 BYTE   N05
 BYTE   W06
 BYTE   N05
 BYTE   N11  An1  v096
 BYTE   N11  Dn2
 BYTE   W06
 BYTE   N05  Cn1  v080
 BYTE   W06
 BYTE   N05
 BYTE   N11  Fn1  v096
 BYTE   N11  Bn1
 BYTE   W06
 BYTE   N05  Cn1  v080
 BYTE   W06
 BYTE   N05
 BYTE   N11  Fn1  v096
 BYTE   N11  Bn1
 BYTE   W06
 BYTE   N05  Cn1  v080
 BYTE   W06
 BYTE   N05
 BYTE   N11  Dn1
 BYTE   W06
 BYTE   N05  Cn1
 BYTE   W06
 BYTE   N05
 BYTE   N05  Dn1
 BYTE   W06
 BYTE   Cn1
 BYTE   N05  Dn1
 BYTE   W06
//  #08 //058   ----------------------------------------
 BYTE   N11  Cn1
 BYTE   N11  Cs2  v120
 BYTE   W12
 BYTE   N05  Cn1  v080
 BYTE   N11  As1
 BYTE   W06
 BYTE   N05  Cn1
 BYTE   W06
 BYTE   N23  Dn1
 BYTE   N11  As1
 BYTE   W12
 BYTE   N05  Cn1
 BYTE   N11  As1
 BYTE   W06
 BYTE   N05  Cn1
 BYTE   W06
 BYTE   N11  As1
 BYTE   W12
 BYTE   N05  Cn1
 BYTE   N11  As1
 BYTE   W12
 BYTE   Dn1
 BYTE   N11  As1
 BYTE   W06
 BYTE   N05  Cn1
 BYTE   W06
 BYTE   N11  As1
 BYTE   W06
 BYTE   N05  Dn1
 BYTE   W06
//  #08 //059   ----------------------------------------
 BYTE   PATT
  POIN2 Label_017A82A3
//  #08 //060   ----------------------------------------
 BYTE   N11  Cn1  v080
 BYTE   N11  Cs2
 BYTE   W12
 BYTE   N05  Cn1
 BYTE   N11  As1
 BYTE   W06
 BYTE   N05  Cn1
 BYTE   W06
 BYTE   N11  Dn1
 BYTE   N11  As1
 BYTE   W12
 BYTE   N05  Cn1
 BYTE   N11  As1
 BYTE   W12
 BYTE   N11
 BYTE   W06
 BYTE   N05  Dn1
 BYTE   W06
 BYTE   Cn1
 BYTE   N11  As1
 BYTE   W12
 BYTE   Dn1
 BYTE   N11  As1
 BYTE   W12
 BYTE   Cn1
 BYTE   N05  Dn1
 BYTE   N11  As1
 BYTE   W06
 BYTE   N05  Dn1
 BYTE   W06
//  #08 //061   ----------------------------------------
 BYTE   N11  Cn1
 BYTE   N11  Cs2
 BYTE   W12
 BYTE   N05  Cn1
 BYTE   N11  As1
 BYTE   W06
 BYTE   N05  Cn1
 BYTE   W06
 BYTE   N11  Dn1
 BYTE   N11  Gn2
 BYTE   W12
 BYTE   N05  Cn1
 BYTE   N11  Dn1
 BYTE   N11  Gn2
 BYTE   W12
 BYTE   As1
 BYTE   W06
 BYTE   Dn1
 BYTE   W06
 BYTE   N05  Cn1
 BYTE   N11  As1
 BYTE   W12
 BYTE   Cn1
 BYTE   N03  Dn1
 BYTE   N11  As1
 BYTE   W04
 BYTE   N03  Dn1
 BYTE   W04
 BYTE   N03
 BYTE   W04
 BYTE   N11  Cn1
 BYTE   N03  Dn1
 BYTE   N11  As1
 BYTE   W04
 BYTE   N03  Dn1
 BYTE   W04
 BYTE   N03
 BYTE   W04
//  #08 //062   ----------------------------------------
 BYTE   N05  Cn1
 BYTE   N11  Cs2  v120
 BYTE   W06
 BYTE   N05  Cn1  v080
 BYTE   W12
 BYTE   N05
 BYTE   W06
 BYTE   N11  Dn1
 BYTE   N11  Gn2
 BYTE   W12
 BYTE   N05  Cn1
 BYTE   W06
 BYTE   N05
 BYTE   W06
 BYTE   N11  Gn2
 BYTE   W06
 BYTE   N05  Cn1
 BYTE   W06
 BYTE   N05
 BYTE   W12
 BYTE   N11  Dn1
 BYTE   N11  Gn2
 BYTE   W06
 BYTE   N05  Cn1
 BYTE   W06
 BYTE   Dn1
 BYTE   W06
 BYTE   N05
 BYTE   W06
//  #08 //063   ----------------------------------------
 BYTE   Cn1
 BYTE   N11  Cs2  v120
 BYTE   W06
 BYTE   N05  Cn1  v080
 BYTE   W12
 BYTE   N05
 BYTE   W06
 BYTE   N11  Dn1
 BYTE   N11  Gn2
 BYTE   W12
 BYTE   N05  Cn1
 BYTE   W06
 BYTE   N05
 BYTE   W06
 BYTE   N11  Gn2
 BYTE   W06
 BYTE   N05  Cn1
 BYTE   N05  Dn1
 BYTE   W06
 BYTE   Cn1
 BYTE   W12
 BYTE   N11  Dn1
 BYTE   N11  Gn2
 BYTE   W06
 BYTE   N05  Cn1
 BYTE   W06
 BYTE   Dn1
 BYTE   W06
 BYTE   N05
 BYTE   W06
//  #08 //064   ----------------------------------------
 BYTE   N11  Cn1
 BYTE   N11  Cs2  v120
 BYTE   W12
 BYTE   N05  Cn1  v080
 BYTE   N11  As1
 BYTE   W06
 BYTE   N05  Cn1
 BYTE   W06
 BYTE   N23  Dn1
 BYTE   N11  As1
 BYTE   W12
 BYTE   N05  Cn1
 BYTE   N11  As1
 BYTE   W06
 BYTE   N05  Cn1
 BYTE   W06
 BYTE   N23  Dn1
 BYTE   N11  As1
 BYTE   W12
 BYTE   N05  Cn1
 BYTE   N11  As1
 BYTE   W06
 BYTE   N05  Cn1
 BYTE   W06
 BYTE   N23  Dn1
 BYTE   N11  As1
 BYTE   W12
 BYTE   N05  Cn1
 BYTE   N11  As1
 BYTE   W06
 BYTE   N05  Cn1
 BYTE   W06
//  #08 //065   ----------------------------------------
 BYTE   N17
 BYTE   N17  Dn1
 BYTE   N11  Cs2  v120
 BYTE   W18
 BYTE   N17  Cn1  v080
 BYTE   N17  Dn1
 BYTE   N11  Gn2
 BYTE   W18
 BYTE   Cn1
 BYTE   N11  Dn1
 BYTE   N11  Gn2
 BYTE   W12
 BYTE   N05  Dn1
 BYTE   N23  As1
 BYTE   W06
 BYTE   N02  Dn1
 BYTE   W03
 BYTE   N02
 BYTE   W03
 BYTE   N05
 BYTE   W06
 BYTE   N05
 BYTE   W06
 BYTE   N05
 BYTE   W06
 BYTE   N05
 BYTE   W06
 BYTE   N05
 BYTE   W06
 BYTE   N05
 BYTE   W06
//  #08 //066   ----------------------------------------
Label_017A8956:
 BYTE   N05  Cn1  v080
 BYTE   N11  Cs2  v120
 BYTE   W06
 BYTE   N05  Cn1  v080
 BYTE   W06
 BYTE   N11  As1
 BYTE   W06
 BYTE   N05  Cn1
 BYTE   W06
 BYTE   N11  Dn1
 BYTE   N11  As1
 BYTE   W12
 BYTE   N05  Cn1
 BYTE   N11  As1
 BYTE   W06
 BYTE   N05  Cn1
 BYTE   W06
 BYTE   N11  As1
 BYTE   W06
 BYTE   N05  Cn1
 BYTE   N05  Dn1
 BYTE   W06
 BYTE   Cn1
 BYTE   N11  As1
 BYTE   W12
 BYTE   Dn1
 BYTE   N11  As1
 BYTE   W06
 BYTE   N05  Cn1
 BYTE   W06
 BYTE   Dn1
 BYTE   N11  As1
 BYTE   W06
 BYTE   N05  Dn1
 BYTE   W06
 BYTE   PEND 
//  #08 //067   ----------------------------------------
 BYTE   Cn1
 BYTE   N11  Cs2  v120
 BYTE   W06
 BYTE   N05  Cn1  v080
 BYTE   W06
 BYTE   N11  Ds2
 BYTE   W06
 BYTE   N05  Cn1
 BYTE   W06
 BYTE   N11  Dn1
 BYTE   N11  Gn2
 BYTE   W12
 BYTE   N05  Cn1
 BYTE   N11  Ds2
 BYTE   W06
 BYTE   N05  Cn1
 BYTE   N05  Dn1
 BYTE   W06
 BYTE   N11  Gn2
 BYTE   W06
 BYTE   N05  Cn1
 BYTE   N05  Dn1
 BYTE   W06
 BYTE   Cn1
 BYTE   N17  Gn2
 BYTE   W12
 BYTE   N11  Dn1
 BYTE   W06
 BYTE   N05  Cn1
 BYTE   N17  Gn2
 BYTE   W06
 BYTE   N05  Dn1
 BYTE   W06
 BYTE   N05
 BYTE   W06
//  #08 //068   ----------------------------------------
 BYTE   Cn1
 BYTE   N11  Cs2  v120
 BYTE   W06
 BYTE   N05  Cn1  v080
 BYTE   W06
 BYTE   N11  As1
 BYTE   W06
 BYTE   N05  Cn1
 BYTE   W06
 BYTE   N11  Dn1
 BYTE   N11  As1
 BYTE   W12
 BYTE   N05  Cn1
 BYTE   N11  As1
 BYTE   W06
 BYTE   N05  Dn1
 BYTE   W06
 BYTE   N11  As1
 BYTE   W06
 BYTE   N05  Dn1
 BYTE   W06
 BYTE   Cn1
 BYTE   N11  As1
 BYTE   W12
 BYTE   Dn1
 BYTE   N11  As1
 BYTE   W12
 BYTE   N05  Cn1
 BYTE   N11  As1
 BYTE   W06
 BYTE   N02  Cn1
 BYTE   W03
 BYTE   N02
 BYTE   W03
//  #08 //069   ----------------------------------------
 BYTE   N05
 BYTE   N11  Dn1
 BYTE   N11  As1
 BYTE   W06
 BYTE   N05  Cn1
 BYTE   W06
 BYTE   N05
 BYTE   N11  Bn1  v096
 BYTE   N11  Dn2
 BYTE   W06
 BYTE   N05  Cn1  v080
 BYTE   W06
 BYTE   N05
 BYTE   N11  Dn1
 BYTE   N11  Cs2  v120
 BYTE   W06
 BYTE   N05  Cn1  v080
 BYTE   W06
 BYTE   N02  Dn1
 BYTE   W03
 BYTE   N02
 BYTE   W03
 BYTE   N02
 BYTE   W03
 BYTE   N02
 BYTE   W03
 BYTE   N05
 BYTE   W06
 BYTE   N05
 BYTE   W06
 BYTE   N11  Cn1
 BYTE   W06
 BYTE   N05  As1
 BYTE   W06
 BYTE   N11  Cn1
 BYTE   N05  Dn1
 BYTE   W06
 BYTE   N05
 BYTE   W06
 BYTE   N11  Cn1
 BYTE   N11  As1
 BYTE   W06
 BYTE   N05  Dn1
 BYTE   W06
//  #08 //070   ----------------------------------------
 BYTE   PATT
  POIN2 Label_017A8956
//  #08 //071   ----------------------------------------
 BYTE   N11  Cn1  v080
 BYTE   N11  Cs2  v120
 BYTE   W12
 BYTE   N05  Cn1  v080
 BYTE   N11  Ds2
 BYTE   W06
 BYTE   N05  Cn1
 BYTE   W06
 BYTE   Dn1
 BYTE   N05  Gn2
 BYTE   W06
 BYTE   N11  Dn1
 BYTE   N11  Gn2
 BYTE   W12
 BYTE   N05  Dn1
 BYTE   N05  Gn2
 BYTE   W06
 BYTE   Cn1
 BYTE   W06
 BYTE   Dn1
 BYTE   N05  As1
 BYTE   W06
 BYTE   Dn1
 BYTE   N05  As1
 BYTE   W06
 BYTE   Cn1
 BYTE   W06
 BYTE   Dn1
 BYTE   N05  As1
 BYTE   W06
 BYTE   N02  Dn1
 BYTE   W03
 BYTE   N02
 BYTE   W03
 BYTE   N05
 BYTE   W06
 BYTE   N05
 BYTE   W06
//  #08 //072   ----------------------------------------
 BYTE   N17  Cn1
 BYTE   N17  Cs2  v096
 BYTE   W06
 BYTE   N05  Dn1  v080
 BYTE   W06
 BYTE   N05
 BYTE   W06
 BYTE   N17  Cn1
 BYTE   N17  An2  v096
 BYTE   W06
 BYTE   N05  Dn1  v080
 BYTE   W06
 BYTE   N05
 BYTE   W06
 BYTE   N17  Cn1
 BYTE   N17  An2  v096
 BYTE   W06
 BYTE   N05  Dn1  v080
 BYTE   W06
 BYTE   N05
 BYTE   W06
 BYTE   N17  Cn1
 BYTE   N17  Cs2  v096
 BYTE   W06
 BYTE   N05  Dn1  v080
 BYTE   W06
 BYTE   N05
 BYTE   W06
 BYTE   N11  Cn1
 BYTE   N11  An2  v096
 BYTE   W06
 BYTE   N05  Dn1  v080
 BYTE   W06
 BYTE   N11  Cn1
 BYTE   N11  As1  v096
 BYTE   W06
 BYTE   N05  Dn1  v080
 BYTE   W06
//  #08 //073   ----------------------------------------
 BYTE   N11  Cn1
 BYTE   N11  Cs2  v096
 BYTE   W06
 BYTE   N05  Dn1  v080
 BYTE   W06
 BYTE   N11  Cn1
 BYTE   N11  An2  v096
 BYTE   W06
 BYTE   N05  Dn1  v080
 BYTE   W06
 BYTE   N11  Cn1
 BYTE   N11  Cs2  v096
 BYTE   W06
 BYTE   N05  Dn1  v080
 BYTE   W06
 BYTE   N11  Cn1
 BYTE   N11  An2  v096
 BYTE   W06
 BYTE   N05  Dn1  v080
 BYTE   W06
 BYTE   N11  Cn1
 BYTE   N11  As1  v096
 BYTE   W06
 BYTE   N05  Dn1  v080
 BYTE   W06
 BYTE   N11  Cn1
 BYTE   N11  An2  v096
 BYTE   W06
 BYTE   N05  Dn1  v080
 BYTE   W06
 BYTE   N11  Cn1
 BYTE   N11  Cs2  v096
 BYTE   W06
 BYTE   N05  Dn1  v080
 BYTE   W06
 BYTE   N11  Cn1
 BYTE   N11  An2  v096
 BYTE   W06
 BYTE   N05  Dn1  v080
 BYTE   W06
//  #08 //074   ----------------------------------------
 BYTE   N11  Cn1
 BYTE   N11  Cs2  v127
 BYTE   W12
 BYTE   Ds2  v080
 BYTE   W06
 BYTE   N05  Cn1
 BYTE   W06
 BYTE   N23  Dn1
 BYTE   N11  Ds2
 BYTE   W12
 BYTE   N05  Cn1
 BYTE   N11  Ds2
 BYTE   W06
 BYTE   N05  Cn1
 BYTE   W06
 BYTE   N05
 BYTE   N11  Ds2
 BYTE   W06
 BYTE   N05  Cn1
 BYTE   W06
 BYTE   N05
 BYTE   N11  Ds2
 BYTE   W06
 BYTE   N05  Cn1
 BYTE   W06
 BYTE   N11  Dn1
 BYTE   N11  Ds2
 BYTE   W12
 BYTE   N05  Cn1
 BYTE   N11  Ds2
 BYTE   W06
 BYTE   N05  Dn1
 BYTE   W06
//  #08 //075   ----------------------------------------
 BYTE   Cn1
 BYTE   N11  Ds2
 BYTE   W06
 BYTE   N05  Cn1
 BYTE   N05  Dn2  v096
 BYTE   W06
 BYTE   Cn1  v080
 BYTE   N11  Ds2
 BYTE   W06
 BYTE   N05  Cn1
 BYTE   W06
 BYTE   N11  Dn1
 BYTE   N11  Ds2
 BYTE   W12
 BYTE   N05  Cn1
 BYTE   N11  Ds2
 BYTE   W06
 BYTE   N05  Dn1
 BYTE   W06
 BYTE   Cn1
 BYTE   N05  Dn2  v096
 BYTE   W06
 BYTE   Cn1  v080
 BYTE   N05  Cn2  v096
 BYTE   W06
 BYTE   Cn1  v080
 BYTE   N05  Bn1  v096
 BYTE   W06
 BYTE   Cn1  v080
 BYTE   N05  An1  v096
 BYTE   W06
 BYTE   N23  Dn1  v080
 BYTE   W12
 BYTE   N05  Cn1
 BYTE   W06
 BYTE   N05
 BYTE   W06
//  #08 //076   ----------------------------------------
 BYTE   N05
 BYTE   N11  Cs2  v120
 BYTE   W06
 BYTE   N05  Cn1  v080
 BYTE   W06
 BYTE   N11  Ds2
 BYTE   W06
 BYTE   N05  Cn1
 BYTE   W06
 BYTE   N23  Dn1
 BYTE   N11  Ds2
 BYTE   W12
 BYTE   N05  Cn1
 BYTE   N11  Ds2
 BYTE   W06
 BYTE   N05  Cn1
 BYTE   W06
 BYTE   N05
 BYTE   N11  Dn2  v096
 BYTE   N11  Gn2  v080
 BYTE   W06
 BYTE   N05  Cn1
 BYTE   W06
 BYTE   N05
 BYTE   N11  Bn1  v096
 BYTE   N11  Ds2  v080
 BYTE   W06
 BYTE   N05  Cn1
 BYTE   W06
 BYTE   N11  Dn1
 BYTE   N11  Ds2
 BYTE   W12
 BYTE   N05  Cn1
 BYTE   N11  Ds2
 BYTE   W06
 BYTE   N05  Dn1
 BYTE   W06
//  #08 //077   ----------------------------------------
 BYTE   Cn1
 BYTE   N05  Dn2  v096
 BYTE   W06
 BYTE   Cn1  v080
 BYTE   N05  Cn2  v096
 BYTE   W06
 BYTE   Cn1  v080
 BYTE   N05  Bn1  v096
 BYTE   W06
 BYTE   Cn1  v080
 BYTE   N05  An1  v096
 BYTE   W06
 BYTE   N11  Cn1  v080
 BYTE   N11  Dn1
 BYTE   N11  Gn2
 BYTE   W12
 BYTE   N05  Cn1
 BYTE   N05  Dn1
 BYTE   N05  Gn2
 BYTE   W06
 BYTE   Cn1
 BYTE   N05  Dn1
 BYTE   N05  Gn2
 BYTE   W12
 BYTE   Cn1
 BYTE   N05  Dn1
 BYTE   N05  As1
 BYTE   W06
 BYTE   Cn1
 BYTE   N05  Dn1
 BYTE   N05  As1
 BYTE   W12
 BYTE   Cn1
 BYTE   N11  Bn1  v096
 BYTE   N11  Dn2
 BYTE   W06
 BYTE   N05  Cn1  v080
 BYTE   W06
 BYTE   N05
 BYTE   N11  An1  v096
 BYTE   N11  Bn1
 BYTE   W06
 BYTE   N05  Cn1  v080
 BYTE   W06
//  #08 //078   ----------------------------------------
 BYTE   N11
 BYTE   N11  Cs2  v120
 BYTE   W12
 BYTE   Ds2  v080
 BYTE   W06
 BYTE   N05  Cn1
 BYTE   W06
 BYTE   N23  Dn1
 BYTE   N11  Ds2
 BYTE   W12
 BYTE   N05  Cn1
 BYTE   N11  Ds2
 BYTE   W06
 BYTE   N05  Cn1
 BYTE   W06
 BYTE   N05
 BYTE   N11  Dn2  v096
 BYTE   N11  Ds2  v080
 BYTE   W06
 BYTE   N05  Cn1
 BYTE   W06
 BYTE   N05
 BYTE   N11  Bn1  v096
 BYTE   N11  Ds2  v080
 BYTE   W06
 BYTE   N05  Cn1
 BYTE   W06
 BYTE   N11  Dn1
 BYTE   N11  Ds2
 BYTE   W12
 BYTE   N05  Cn1
 BYTE   N11  Ds2
 BYTE   W06
 BYTE   N05  Dn1
 BYTE   W06
//  #08 //079   ----------------------------------------
 BYTE   Cn1
 BYTE   N11  Ds2
 BYTE   W06
 BYTE   N05  Cn1
 BYTE   N05  Dn2  v096
 BYTE   W06
 BYTE   Cn1  v080
 BYTE   N11  Ds2
 BYTE   W06
 BYTE   N05  Cn1
 BYTE   W06
 BYTE   N11  Dn1
 BYTE   N11  Ds2
 BYTE   W12
 BYTE   N05  Cn1
 BYTE   N11  Ds2
 BYTE   W06
 BYTE   N05  Dn1
 BYTE   W06
 BYTE   Cn1
 BYTE   N05  Dn2  v096
 BYTE   W06
 BYTE   Cn1  v080
 BYTE   N05  Cn2  v096
 BYTE   W06
 BYTE   Cn1  v080
 BYTE   N05  Bn1  v096
 BYTE   W06
 BYTE   Cn1  v080
 BYTE   N05  An1  v096
 BYTE   W06
 BYTE   N11  Dn1  v080
 BYTE   W12
 BYTE   N05  Cn1
 BYTE   N05  Bn1  v096
 BYTE   W06
 BYTE   Dn1  v080
 BYTE   W06
//  #08 //080   ----------------------------------------
 BYTE   N11  Cn1
 BYTE   N11  Cs2  v120
 BYTE   W12
 BYTE   Ds2  v080
 BYTE   W06
 BYTE   N05  Cn1
 BYTE   W06
 BYTE   N23  Dn1
 BYTE   N11  Ds2
 BYTE   W12
 BYTE   Cn1
 BYTE   N11  Gn2
 BYTE   W12
 BYTE   Ds2
 BYTE   W12
 BYTE   Cn1
 BYTE   N11  Gn2
 BYTE   W12
 BYTE   N23  Dn1
 BYTE   N11  Ds2
 BYTE   W12
 BYTE   Cn1
 BYTE   N11  Ds2
 BYTE   W12
//  #08 //081   ----------------------------------------
 BYTE   Cn1
 BYTE   N11  Dn1
 BYTE   N11  As1
 BYTE   W12
 BYTE   Cn1
 BYTE   N11  Dn1
 BYTE   N11  As1
 BYTE   W12
 BYTE   Bn1  v096
 BYTE   N11  Dn2
 BYTE   W12
 BYTE   Bn1
 BYTE   N11  Dn2
 BYTE   W12
 BYTE   An1
 BYTE   N11  Bn1
 BYTE   W12
 BYTE   An1
 BYTE   N11  Bn1
 BYTE   W12
 BYTE   N07  Fn1
 BYTE   N07  An1
 BYTE   W08
 BYTE   Fn1
 BYTE   N07  An1
 BYTE   W08
 BYTE   Fn1
 BYTE   N07  An1
 BYTE   W08
//  #08 //082   ----------------------------------------
 BYTE   N23  Cs2  v120
 BYTE   W24
 BYTE   Ds2
 BYTE   W24
 BYTE   N11  Dn1  v080
 BYTE   N11  As1
 BYTE   W12
 BYTE   Dn1
 BYTE   N11  As1
 BYTE   W12
 BYTE   N05  Bn1  v096
 BYTE   W06
 BYTE   Dn2
 BYTE   W06
 BYTE   Bn1
 BYTE   W06
 BYTE   An1
 BYTE   W06
//  #08 //083   ----------------------------------------
 BYTE   W06
 BYTE   GoTo
  POIN2 Label_017A7F52
 BYTE   FINE

//******************************************************//
	ALIGN 4

aOioP:
	BYTE	8	// NumTrks
	BYTE	0	// NumBlks
	BYTE	aOioP_pri	// Priority
	BYTE	aOioP_rev	// Reverb.
    
	POIN2	aOioP_grp
    
	POIN2	aOioP_001
	POIN2	aOioP_002
	POIN2	aOioP_003
	POIN2	aOioP_004
	POIN2	aOioP_005
	POIN2	aOioP_006
	POIN2	aOioP_007
	POIN2	aOioP_008

	
