//Event file generated from Sappy .s format.
	#include "MPlayDef.event"

	#define	feb20211224165509_grp  voicegroup000
	#define	feb20211224165509_pri  0
	#define	feb20211224165509_rev  0
	#define	feb20211224165509_mvl  60
	#define	feb20211224165509_key  0
	#define	feb20211224165509_tbs  1
	#define	feb20211224165509_exg  0
	#define	feb20211224165509_cmp  1

	// .rodata
	//	feb20211224165509
	ALIGN 4

//**************** Track 1 (Midi-Chn.1) ****************//

feb20211224165509_1:
	BYTE	KEYSH   feb20211224165509_key+0
// 000   ----------------------------------------
	BYTE	TEMPO   94*feb20211224165509_tbs/2
	BYTE		VOICE   40
	BYTE		VOL     94*feb20211224165509_mvl/mxv
	BYTE		N06     Gs3   v124
	BYTE	W12
	BYTE		N06   
	BYTE	W06
	BYTE		        As3 
	BYTE	W06
	BYTE		        Cn4 
	BYTE	W12
	BYTE		        Gs3 
	BYTE	W12
	BYTE		        As3 
	BYTE	W12
	BYTE		N06   
	BYTE	W06
	BYTE		        Cn4 
	BYTE	W06
	BYTE		        Gn3 
	BYTE	W12
	BYTE		        Ds3 
	BYTE	W12
// 001   ----------------------------------------
feb20211224165509_1_001:
	BYTE		N06     Gs3   v124
	BYTE	W12
	BYTE		N06   
	BYTE	W06
	BYTE		        As3 
	BYTE	W06
	BYTE		        Cn4 
	BYTE	W12
	BYTE		N12     Gs4 
	BYTE	W12
	BYTE		        Gn4 
	BYTE	W12
	BYTE		        Ds4 
	BYTE	W12
	BYTE		        As3 
	BYTE	W12
	BYTE		        Gn3 
	BYTE	W12
	BYTE	PEND
// 002   ----------------------------------------
feb20211224165509_1_002:
	BYTE		N06     Gs3   v124
	BYTE	W12
	BYTE		N06   
	BYTE	W06
	BYTE		        As3 
	BYTE	W06
	BYTE		        Cn4 
	BYTE	W12
	BYTE		        Gs3 
	BYTE	W12
	BYTE		        As3 
	BYTE	W12
	BYTE		N06   
	BYTE	W06
	BYTE		        Cn4 
	BYTE	W06
	BYTE		        Gn3 
	BYTE	W12
	BYTE		        Ds3 
	BYTE	W12
	BYTE	PEND
// 003   ----------------------------------------
feb20211224165509_1_003:
	BYTE		N06     An3   v124
	BYTE	W12
	BYTE		N06   
	BYTE	W06
	BYTE		        As3 
	BYTE	W06
	BYTE		        Cn4 
	BYTE	W12
	BYTE		        Fn4 
	BYTE	W12
	BYTE		N12     An3 
	BYTE		N12     En4 
	BYTE	W12
	BYTE		        Dn4 
	BYTE		N12     Gn4 
	BYTE	W12
	BYTE		N24     Cn4 
	BYTE		N24     Fn4 
	BYTE	W24
	BYTE	PEND
// 004   ----------------------------------------
	BYTE	PATT
	 POIN2	feb20211224165509_1_002
// 005   ----------------------------------------
	BYTE	PATT
	 POIN2	feb20211224165509_1_001
// 006   ----------------------------------------
	BYTE	PATT
	 POIN2	feb20211224165509_1_002
// 007   ----------------------------------------
	BYTE	PATT
	 POIN2	feb20211224165509_1_003
// 008   ----------------------------------------
	BYTE		VOICE   49
	BYTE		N96     Fn2   v080
	BYTE		N96     Cn3 
	BYTE	W96
// 009   ----------------------------------------
feb20211224165509_1_009:
	BYTE		N96     Gn2   v080
	BYTE		N48     Ds3 
	BYTE	W48
	BYTE		        Fn3 
	BYTE	W48
	BYTE	PEND
// 010   ----------------------------------------
	BYTE		N96     Gs2 
	BYTE		N96     Ds3 
	BYTE	W96
// 011   ----------------------------------------
	BYTE		        An2 
	BYTE		N96     En3 
	BYTE	W96
// 012   ----------------------------------------
	BYTE		        Fn2 
	BYTE		N96     Cn3 
	BYTE	W96
// 013   ----------------------------------------
	BYTE	PATT
	 POIN2	feb20211224165509_1_009
// 014   ----------------------------------------
	BYTE		N96     Gs2   v080
	BYTE		N96     Ds3 
	BYTE	W96
// 015   ----------------------------------------
	BYTE		        An2 
	BYTE		N96     En3 
	BYTE	W96
// 016   ----------------------------------------
	BYTE		        Fn2 
	BYTE		N96     Cn3 
	BYTE	W96
// 017   ----------------------------------------
	BYTE	PATT
	 POIN2	feb20211224165509_1_009
// 018   ----------------------------------------
	BYTE		N96     Gs2   v080
	BYTE		N96     Ds3 
	BYTE	W96
// 019   ----------------------------------------
	BYTE		        An2 
	BYTE		N96     En3 
	BYTE	W96
// 020   ----------------------------------------
	BYTE		        Fn2 
	BYTE		N96     Cn3 
	BYTE	W96
// 021   ----------------------------------------
	BYTE	PATT
	 POIN2	feb20211224165509_1_009
// 022   ----------------------------------------
	BYTE		N96     Gs2   v080
	BYTE		N96     Ds3 
	BYTE	W96
// 023   ----------------------------------------
	BYTE	W96
feb20211224165509_1_B1:
// 024   ----------------------------------------
	BYTE	W96
// 025   ----------------------------------------
	BYTE	W96
// 026   ----------------------------------------
	BYTE	W96
// 027   ----------------------------------------
	BYTE	W96
// 028   ----------------------------------------
	BYTE	W96
// 029   ----------------------------------------
	BYTE	W96
// 030   ----------------------------------------
	BYTE	W96
// 031   ----------------------------------------
	BYTE	W96
// 032   ----------------------------------------
	BYTE	W96
// 033   ----------------------------------------
	BYTE	W96
// 034   ----------------------------------------
	BYTE	W96
// 035   ----------------------------------------
	BYTE	W96
// 036   ----------------------------------------
	BYTE	W96
// 037   ----------------------------------------
	BYTE	W96
// 038   ----------------------------------------
	BYTE	W96
// 039   ----------------------------------------
	BYTE	W96
// 040   ----------------------------------------
	BYTE	W96
// 041   ----------------------------------------
	BYTE	W96
// 042   ----------------------------------------
	BYTE	W96
// 043   ----------------------------------------
	BYTE	W96
	BYTE	GoTo
	 POIN2	feb20211224165509_1_B1
feb20211224165509_1_B2:
// 044   ----------------------------------------
	BYTE	FINE

//**************** Track 2 (Midi-Chn.2) ****************//

feb20211224165509_2:
	BYTE	KEYSH   feb20211224165509_key+0
// 000   ----------------------------------------
	BYTE		VOICE   49
	BYTE		VOL     94*feb20211224165509_mvl/mxv
	BYTE		N96     As1   v092
	BYTE		N96     Fn2 
	BYTE	W96
// 001   ----------------------------------------
feb20211224165509_2_001:
	BYTE		N96     Cn2   v092
	BYTE		N48     Gs2 
	BYTE	W48
	BYTE		        Gn2 
	BYTE	W48
	BYTE	PEND
// 002   ----------------------------------------
	BYTE		N96     Cs2 
	BYTE		N96     Gs2 
	BYTE	W96
// 003   ----------------------------------------
	BYTE		        Dn2 
	BYTE		N96     An2 
	BYTE	W96
// 004   ----------------------------------------
	BYTE		        As1 
	BYTE		N96     Fn2 
	BYTE	W96
// 005   ----------------------------------------
	BYTE	PATT
	 POIN2	feb20211224165509_2_001
// 006   ----------------------------------------
	BYTE		N96     Cs2   v092
	BYTE		N96     Gs2 
	BYTE	W96
// 007   ----------------------------------------
	BYTE		        Dn2 
	BYTE		N96     An2 
	BYTE	W96
// 008   ----------------------------------------
feb20211224165509_2_008:
	BYTE		N12     As1   v072
	BYTE	W12
	BYTE		        Cs2 
	BYTE	W12
	BYTE		N06     As1 
	BYTE	W06
	BYTE		N12     Cs2 
	BYTE	W12
	BYTE		N06     As1 
	BYTE	W06
	BYTE		N12   
	BYTE	W12
	BYTE		        Cs2 
	BYTE	W12
	BYTE		N06     As1 
	BYTE	W06
	BYTE		N12     Cs2 
	BYTE	W12
	BYTE		N06     As1 
	BYTE	W06
	BYTE	PEND
// 009   ----------------------------------------
feb20211224165509_2_009:
	BYTE		N12     Cn2   v072
	BYTE	W12
	BYTE		        Ds2 
	BYTE	W12
	BYTE		N06     Cn2 
	BYTE	W06
	BYTE		N12     Ds2 
	BYTE	W12
	BYTE		N06     Cn2 
	BYTE	W06
	BYTE		N12   
	BYTE	W12
	BYTE		        Ds2 
	BYTE	W12
	BYTE		N06     Cn2 
	BYTE	W06
	BYTE		N12     Ds2 
	BYTE	W12
	BYTE		N06     Cn2 
	BYTE	W06
	BYTE	PEND
// 010   ----------------------------------------
feb20211224165509_2_010:
	BYTE		N12     Cs2   v072
	BYTE	W12
	BYTE		        Fn2 
	BYTE	W12
	BYTE		N06     Cs2 
	BYTE	W06
	BYTE		N12     Fn2 
	BYTE	W12
	BYTE		N06     Cs2 
	BYTE	W06
	BYTE		N12   
	BYTE	W12
	BYTE		        Fn2 
	BYTE	W12
	BYTE		N06     Cs2 
	BYTE	W06
	BYTE		N12     Fn2 
	BYTE	W12
	BYTE		N06     Cs2 
	BYTE	W06
	BYTE	PEND
// 011   ----------------------------------------
feb20211224165509_2_011:
	BYTE		N12     Dn2   v072
	BYTE	W12
	BYTE		        Fn2 
	BYTE	W12
	BYTE		N06     Dn2 
	BYTE	W06
	BYTE		N12     Fn2 
	BYTE	W12
	BYTE		N06     Dn2 
	BYTE	W06
	BYTE		N12   
	BYTE	W12
	BYTE		        Fn2 
	BYTE	W12
	BYTE		N06     Dn2 
	BYTE	W06
	BYTE		N12     Fn2 
	BYTE	W12
	BYTE		N06     Dn2 
	BYTE	W06
	BYTE	PEND
// 012   ----------------------------------------
	BYTE	PATT
	 POIN2	feb20211224165509_2_008
// 013   ----------------------------------------
	BYTE	PATT
	 POIN2	feb20211224165509_2_009
// 014   ----------------------------------------
	BYTE	PATT
	 POIN2	feb20211224165509_2_010
// 015   ----------------------------------------
	BYTE	PATT
	 POIN2	feb20211224165509_2_011
// 016   ----------------------------------------
	BYTE	PATT
	 POIN2	feb20211224165509_2_008
// 017   ----------------------------------------
	BYTE	PATT
	 POIN2	feb20211224165509_2_009
// 018   ----------------------------------------
	BYTE	PATT
	 POIN2	feb20211224165509_2_010
// 019   ----------------------------------------
	BYTE	PATT
	 POIN2	feb20211224165509_2_011
// 020   ----------------------------------------
	BYTE	PATT
	 POIN2	feb20211224165509_2_008
// 021   ----------------------------------------
	BYTE	PATT
	 POIN2	feb20211224165509_2_009
// 022   ----------------------------------------
	BYTE	PATT
	 POIN2	feb20211224165509_2_010
// 023   ----------------------------------------
	BYTE	W96
feb20211224165509_2_B1:
// 024   ----------------------------------------
feb20211224165509_2_024:
	BYTE		N12     As1   v052
	BYTE	W12
	BYTE		N12   
	BYTE	W12
	BYTE		N12   
	BYTE	W12
	BYTE		N12   
	BYTE	W12
	BYTE		N12   
	BYTE	W12
	BYTE		N12   
	BYTE	W12
	BYTE		N12   
	BYTE	W12
	BYTE		N12   
	BYTE	W12
	BYTE	PEND
// 025   ----------------------------------------
feb20211224165509_2_025:
	BYTE		N12     Cn2   v052
	BYTE	W12
	BYTE		N12   
	BYTE	W12
	BYTE		N12   
	BYTE	W12
	BYTE		N12   
	BYTE	W12
	BYTE		N12   
	BYTE	W12
	BYTE		N12   
	BYTE	W12
	BYTE		N12   
	BYTE	W12
	BYTE		N12   
	BYTE	W12
	BYTE	PEND
// 026   ----------------------------------------
feb20211224165509_2_026:
	BYTE		N12     Cs2   v052
	BYTE	W12
	BYTE		N12   
	BYTE	W12
	BYTE		N12   
	BYTE	W12
	BYTE		N12   
	BYTE	W12
	BYTE		N12   
	BYTE	W12
	BYTE		N12   
	BYTE	W12
	BYTE		N12   
	BYTE	W12
	BYTE		N12   
	BYTE	W12
	BYTE	PEND
// 027   ----------------------------------------
feb20211224165509_2_027:
	BYTE		N12     Cs2   v052
	BYTE	W12
	BYTE		N12   
	BYTE	W12
	BYTE		N12   
	BYTE	W12
	BYTE		N12   
	BYTE	W12
	BYTE		        Cn2 
	BYTE	W12
	BYTE		N12   
	BYTE	W12
	BYTE		N12   
	BYTE	W12
	BYTE		N12   
	BYTE	W12
	BYTE	PEND
// 028   ----------------------------------------
	BYTE	PATT
	 POIN2	feb20211224165509_2_024
// 029   ----------------------------------------
	BYTE	PATT
	 POIN2	feb20211224165509_2_025
// 030   ----------------------------------------
	BYTE	PATT
	 POIN2	feb20211224165509_2_026
// 031   ----------------------------------------
	BYTE	PATT
	 POIN2	feb20211224165509_2_027
// 032   ----------------------------------------
	BYTE	PATT
	 POIN2	feb20211224165509_2_024
// 033   ----------------------------------------
	BYTE	PATT
	 POIN2	feb20211224165509_2_025
// 034   ----------------------------------------
	BYTE	PATT
	 POIN2	feb20211224165509_2_026
// 035   ----------------------------------------
	BYTE	PATT
	 POIN2	feb20211224165509_2_027
// 036   ----------------------------------------
	BYTE	PATT
	 POIN2	feb20211224165509_2_024
// 037   ----------------------------------------
	BYTE	PATT
	 POIN2	feb20211224165509_2_025
// 038   ----------------------------------------
	BYTE	PATT
	 POIN2	feb20211224165509_2_026
// 039   ----------------------------------------
	BYTE	PATT
	 POIN2	feb20211224165509_2_027
// 040   ----------------------------------------
	BYTE	PATT
	 POIN2	feb20211224165509_2_024
// 041   ----------------------------------------
	BYTE	PATT
	 POIN2	feb20211224165509_2_025
// 042   ----------------------------------------
	BYTE	PATT
	 POIN2	feb20211224165509_2_026
// 043   ----------------------------------------
	BYTE	PATT
	 POIN2	feb20211224165509_2_027
	BYTE	GoTo
	 POIN2	feb20211224165509_2_B1
feb20211224165509_2_B2:
// 044   ----------------------------------------
	BYTE	FINE

//**************** Track 3 (Midi-Chn.3) ****************//

feb20211224165509_3:
	BYTE	KEYSH   feb20211224165509_key+0
// 000   ----------------------------------------
	BYTE		VOICE   36
	BYTE		VOL     107*feb20211224165509_mvl/mxv
	BYTE		PAN     c_v+0
	BYTE		BEND    c_v+0
	BYTE	W96
// 001   ----------------------------------------
	BYTE	W96
// 002   ----------------------------------------
	BYTE	W96
// 003   ----------------------------------------
	BYTE	W96
// 004   ----------------------------------------
	BYTE	W96
// 005   ----------------------------------------
	BYTE	W96
// 006   ----------------------------------------
	BYTE	W96
// 007   ----------------------------------------
	BYTE	W54
	BYTE		        c_v+0
	BYTE	W42
// 008   ----------------------------------------
feb20211224165509_3_008:
	BYTE		N06     As1   v116
	BYTE	W06
	BYTE		N06   
	BYTE	W06
	BYTE		        Cs2 
	BYTE	W06
	BYTE		        As1 
	BYTE	W06
	BYTE		N06   
	BYTE	W06
	BYTE		        Cs2 
	BYTE	W06
	BYTE		        As1 
	BYTE	W06
	BYTE		N06   
	BYTE	W06
	BYTE		N06   
	BYTE	W06
	BYTE		N06   
	BYTE	W06
	BYTE		        Cs2 
	BYTE	W06
	BYTE		        As1 
	BYTE	W06
	BYTE		N06   
	BYTE	W06
	BYTE		        Cs2 
	BYTE	W06
	BYTE		        As1 
	BYTE	W06
	BYTE		N06   
	BYTE	W06
	BYTE	PEND
// 009   ----------------------------------------
feb20211224165509_3_009:
	BYTE		N06     Cn2   v116
	BYTE	W06
	BYTE		N06   
	BYTE	W06
	BYTE		        Ds2 
	BYTE	W06
	BYTE		        Cn2 
	BYTE	W06
	BYTE		N06   
	BYTE	W06
	BYTE		        Ds2 
	BYTE	W06
	BYTE		        Cn2 
	BYTE	W06
	BYTE		N06   
	BYTE	W06
	BYTE		N06   
	BYTE	W06
	BYTE		N06   
	BYTE	W06
	BYTE		        Ds2 
	BYTE	W06
	BYTE		        Cn2 
	BYTE	W06
	BYTE		N06   
	BYTE	W06
	BYTE		        Ds2 
	BYTE	W06
	BYTE		        Cn2 
	BYTE	W06
	BYTE		N06   
	BYTE	W06
	BYTE	PEND
// 010   ----------------------------------------
feb20211224165509_3_010:
	BYTE		N06     Cs2   v116
	BYTE	W06
	BYTE		N06   
	BYTE	W06
	BYTE		        Fn2 
	BYTE	W06
	BYTE		        Cs2 
	BYTE	W06
	BYTE		N06   
	BYTE	W06
	BYTE		        Fn2 
	BYTE	W06
	BYTE		        Cs2 
	BYTE	W06
	BYTE		N06   
	BYTE	W06
	BYTE		N06   
	BYTE	W06
	BYTE		N06   
	BYTE	W06
	BYTE		        Fn2 
	BYTE	W06
	BYTE		        Cs2 
	BYTE	W06
	BYTE		N06   
	BYTE	W06
	BYTE		        Fn2 
	BYTE	W06
	BYTE		        Cs2 
	BYTE	W06
	BYTE		N06   
	BYTE	W06
	BYTE	PEND
// 011   ----------------------------------------
feb20211224165509_3_011:
	BYTE		N06     Dn2   v116
	BYTE	W06
	BYTE		N06   
	BYTE	W06
	BYTE		        Fn2 
	BYTE	W06
	BYTE		        Dn2 
	BYTE	W06
	BYTE		N06   
	BYTE	W06
	BYTE		        Fn2 
	BYTE	W06
	BYTE		        Dn2 
	BYTE	W06
	BYTE		N06   
	BYTE	W06
	BYTE		N06   
	BYTE	W06
	BYTE		N06   
	BYTE	W06
	BYTE		        Fn2 
	BYTE	W06
	BYTE		        Dn2 
	BYTE	W06
	BYTE		N06   
	BYTE	W06
	BYTE		        Fn2 
	BYTE	W06
	BYTE		        Dn2 
	BYTE	W06
	BYTE		N06   
	BYTE	W06
	BYTE	PEND
// 012   ----------------------------------------
	BYTE	PATT
	 POIN2	feb20211224165509_3_008
// 013   ----------------------------------------
	BYTE	PATT
	 POIN2	feb20211224165509_3_009
// 014   ----------------------------------------
	BYTE	PATT
	 POIN2	feb20211224165509_3_010
// 015   ----------------------------------------
	BYTE	PATT
	 POIN2	feb20211224165509_3_011
// 016   ----------------------------------------
	BYTE	W96
// 017   ----------------------------------------
	BYTE	W96
// 018   ----------------------------------------
	BYTE	W96
// 019   ----------------------------------------
	BYTE	W96
// 020   ----------------------------------------
	BYTE	W96
// 021   ----------------------------------------
	BYTE	W96
// 022   ----------------------------------------
	BYTE	W96
// 023   ----------------------------------------
	BYTE	W96
feb20211224165509_3_B1:
// 024   ----------------------------------------
feb20211224165509_3_024:
	BYTE		N06     As0   v116
	BYTE	W12
	BYTE		        Fn0 
	BYTE	W12
	BYTE		        As0 
	BYTE	W12
	BYTE		        Fn0 
	BYTE	W12
	BYTE		        As0 
	BYTE	W12
	BYTE		        Fn0 
	BYTE	W12
	BYTE		        As0 
	BYTE	W12
	BYTE		        Fn0 
	BYTE	W12
	BYTE	PEND
// 025   ----------------------------------------
feb20211224165509_3_025:
	BYTE		N06     Cn1   v116
	BYTE	W12
	BYTE		        Gn0 
	BYTE	W12
	BYTE		        Cn1 
	BYTE	W12
	BYTE		        Gn0 
	BYTE	W12
	BYTE		        Cn1 
	BYTE	W12
	BYTE		        Gn0 
	BYTE	W12
	BYTE		        Cn1 
	BYTE	W12
	BYTE		        Gn0 
	BYTE	W12
	BYTE	PEND
// 026   ----------------------------------------
feb20211224165509_3_026:
	BYTE		N06     Cs1   v116
	BYTE	W12
	BYTE		        Gs0 
	BYTE	W12
	BYTE		        Cs1 
	BYTE	W12
	BYTE		        Gs0 
	BYTE	W12
	BYTE		        Cs1 
	BYTE	W12
	BYTE		        Gs0 
	BYTE	W12
	BYTE		        Cs1 
	BYTE	W12
	BYTE		        Gs0 
	BYTE	W12
	BYTE	PEND
// 027   ----------------------------------------
feb20211224165509_3_027:
	BYTE		N06     Cs1   v116
	BYTE	W12
	BYTE		        Gs0 
	BYTE	W12
	BYTE		        Cs1 
	BYTE	W12
	BYTE		        Gs0 
	BYTE	W12
	BYTE		        Cn1 
	BYTE	W12
	BYTE		        Gn0 
	BYTE	W12
	BYTE		        Cn1 
	BYTE	W12
	BYTE		        Gn0 
	BYTE	W12
	BYTE	PEND
// 028   ----------------------------------------
	BYTE	PATT
	 POIN2	feb20211224165509_3_024
// 029   ----------------------------------------
	BYTE	PATT
	 POIN2	feb20211224165509_3_025
// 030   ----------------------------------------
	BYTE	PATT
	 POIN2	feb20211224165509_3_026
// 031   ----------------------------------------
	BYTE	PATT
	 POIN2	feb20211224165509_3_027
// 032   ----------------------------------------
	BYTE	PATT
	 POIN2	feb20211224165509_3_024
// 033   ----------------------------------------
	BYTE	PATT
	 POIN2	feb20211224165509_3_025
// 034   ----------------------------------------
	BYTE	PATT
	 POIN2	feb20211224165509_3_026
// 035   ----------------------------------------
	BYTE	PATT
	 POIN2	feb20211224165509_3_027
// 036   ----------------------------------------
	BYTE	PATT
	 POIN2	feb20211224165509_3_024
// 037   ----------------------------------------
	BYTE	PATT
	 POIN2	feb20211224165509_3_025
// 038   ----------------------------------------
	BYTE	PATT
	 POIN2	feb20211224165509_3_026
// 039   ----------------------------------------
	BYTE	PATT
	 POIN2	feb20211224165509_3_027
// 040   ----------------------------------------
	BYTE	PATT
	 POIN2	feb20211224165509_3_024
// 041   ----------------------------------------
	BYTE	PATT
	 POIN2	feb20211224165509_3_025
// 042   ----------------------------------------
	BYTE	PATT
	 POIN2	feb20211224165509_3_026
// 043   ----------------------------------------
	BYTE	PATT
	 POIN2	feb20211224165509_3_027
	BYTE	GoTo
	 POIN2	feb20211224165509_3_B1
feb20211224165509_3_B2:
// 044   ----------------------------------------
	BYTE		BEND    c_v+0
	BYTE	FINE

//**************** Track 4 (Midi-Chn.4) ****************//

feb20211224165509_4:
	BYTE	KEYSH   feb20211224165509_key+0
// 000   ----------------------------------------
	BYTE		VOICE   40
	BYTE		VOL     127*feb20211224165509_mvl/mxv
	BYTE		PAN     c_v+0
	BYTE		        c_v+0
	BYTE		        c_v+0
	BYTE		        c_v+0
	BYTE		BEND    c_v+0
	BYTE	W96
// 001   ----------------------------------------
	BYTE	W96
// 002   ----------------------------------------
	BYTE	W96
// 003   ----------------------------------------
	BYTE	W96
// 004   ----------------------------------------
	BYTE	W96
// 005   ----------------------------------------
	BYTE	W96
// 006   ----------------------------------------
	BYTE	W96
// 007   ----------------------------------------
	BYTE	W96
// 008   ----------------------------------------
feb20211224165509_4_008:
	BYTE		N06     Gs3   v120
	BYTE	W12
	BYTE		N06   
	BYTE	W06
	BYTE		        As3 
	BYTE	W06
	BYTE		        Cn4 
	BYTE	W12
	BYTE		        Gs3 
	BYTE	W12
	BYTE		        As3 
	BYTE	W12
	BYTE		N06   
	BYTE	W06
	BYTE		        Cn4 
	BYTE	W06
	BYTE		        Gn3 
	BYTE	W12
	BYTE		        Ds3 
	BYTE	W12
	BYTE	PEND
// 009   ----------------------------------------
feb20211224165509_4_009:
	BYTE		N06     Gs3   v120
	BYTE	W12
	BYTE		N06   
	BYTE	W06
	BYTE		        As3 
	BYTE	W06
	BYTE		        Cn4 
	BYTE	W12
	BYTE		N12     Gs4 
	BYTE	W12
	BYTE		        Gn4 
	BYTE	W12
	BYTE		        Ds4 
	BYTE	W12
	BYTE		        As3 
	BYTE	W12
	BYTE		        Gn3 
	BYTE	W12
	BYTE	PEND
// 010   ----------------------------------------
	BYTE	PATT
	 POIN2	feb20211224165509_4_008
// 011   ----------------------------------------
feb20211224165509_4_011:
	BYTE		N06     An3   v120
	BYTE	W12
	BYTE		N06   
	BYTE	W06
	BYTE		        As3 
	BYTE	W06
	BYTE		        Cn4 
	BYTE	W12
	BYTE		        Fn4   v116
	BYTE	W12
	BYTE		N12     En4 
	BYTE	W12
	BYTE		        Gn4 
	BYTE	W12
	BYTE		N24     Fn4 
	BYTE	W24
	BYTE	PEND
// 012   ----------------------------------------
	BYTE	PATT
	 POIN2	feb20211224165509_4_008
// 013   ----------------------------------------
	BYTE	PATT
	 POIN2	feb20211224165509_4_009
// 014   ----------------------------------------
	BYTE	PATT
	 POIN2	feb20211224165509_4_008
// 015   ----------------------------------------
	BYTE	PATT
	 POIN2	feb20211224165509_4_011
// 016   ----------------------------------------
	BYTE	W96
// 017   ----------------------------------------
	BYTE	W96
// 018   ----------------------------------------
	BYTE	W96
// 019   ----------------------------------------
	BYTE	W96
// 020   ----------------------------------------
	BYTE	W96
// 021   ----------------------------------------
	BYTE	W96
// 022   ----------------------------------------
	BYTE	W96
// 023   ----------------------------------------
	BYTE	W96
feb20211224165509_4_B1:
// 024   ----------------------------------------
	BYTE		N06     Gs3   v127
	BYTE	W12
	BYTE		N06   
	BYTE	W06
	BYTE		        As3 
	BYTE	W06
	BYTE		        Cn4 
	BYTE	W12
	BYTE		        Gs3 
	BYTE	W12
	BYTE		        As3 
	BYTE	W06
	BYTE		N03     Gs3 
	BYTE	W03
	BYTE		        Gn3 
	BYTE	W03
	BYTE		N06     As3 
	BYTE	W06
	BYTE		        Cn4 
	BYTE	W06
	BYTE		        Gn3 
	BYTE	W12
	BYTE		        Ds3 
	BYTE	W12
// 025   ----------------------------------------
feb20211224165509_4_025:
	BYTE		N06     Gs3   v127
	BYTE	W12
	BYTE		N06   
	BYTE	W06
	BYTE		        As3 
	BYTE	W06
	BYTE		        Cn4 
	BYTE	W12
	BYTE		N12     Gs4 
	BYTE	W12
	BYTE		        Gn4 
	BYTE	W12
	BYTE		        Ds4 
	BYTE	W12
	BYTE		        As3 
	BYTE	W12
	BYTE		        Gn3 
	BYTE	W12
	BYTE	PEND
// 026   ----------------------------------------
feb20211224165509_4_026:
	BYTE		N18     Gs3   v127
	BYTE	W18
	BYTE		N06     Ds4 
	BYTE	W06
	BYTE		        Fn4 
	BYTE	W12
	BYTE		        Cn4 
	BYTE	W12
	BYTE		        As3 
	BYTE	W12
	BYTE		N06   
	BYTE	W06
	BYTE		        Cn4 
	BYTE	W06
	BYTE		        As3 
	BYTE	W12
	BYTE		        Gs3 
	BYTE	W12
	BYTE	PEND
// 027   ----------------------------------------
feb20211224165509_4_027:
	BYTE		N06     As3   v127
	BYTE	W12
	BYTE		N06   
	BYTE	W06
	BYTE		        Cn4 
	BYTE	W06
	BYTE		        As3 
	BYTE	W12
	BYTE		        Gs3 
	BYTE	W12
	BYTE		N24     As3 
	BYTE	W24
	BYTE		        Cn4 
	BYTE	W24
	BYTE	PEND
// 028   ----------------------------------------
	BYTE		N06     Gs3 
	BYTE	W06
	BYTE		N03     Gn3 
	BYTE	W03
	BYTE		        Fn3 
	BYTE	W03
	BYTE		N06     Gs3 
	BYTE	W06
	BYTE		        As3 
	BYTE	W06
	BYTE		        Cn4 
	BYTE	W12
	BYTE		        Gs3 
	BYTE	W12
	BYTE		        As3 
	BYTE	W06
	BYTE		N03     Gs3 
	BYTE	W03
	BYTE		        Gn3 
	BYTE	W03
	BYTE		N06     As3 
	BYTE	W06
	BYTE		        Cn4 
	BYTE	W06
	BYTE		        Gn3 
	BYTE	W12
	BYTE		        Ds3 
	BYTE	W12
// 029   ----------------------------------------
	BYTE	PATT
	 POIN2	feb20211224165509_4_025
// 030   ----------------------------------------
	BYTE	PATT
	 POIN2	feb20211224165509_4_026
// 031   ----------------------------------------
	BYTE	PATT
	 POIN2	feb20211224165509_4_027
// 032   ----------------------------------------
feb20211224165509_4_032:
	BYTE		N06     Gs3   v127
	BYTE	W06
	BYTE		N03     Gn3 
	BYTE	W03
	BYTE		        Fn3 
	BYTE	W03
	BYTE		N06     Gs3 
	BYTE	W06
	BYTE		        As3 
	BYTE	W06
	BYTE		        Cn4 
	BYTE	W12
	BYTE		        Gs3 
	BYTE	W12
	BYTE		        As3 
	BYTE	W06
	BYTE		N03     Gs3 
	BYTE	W03
	BYTE		        Gn3 
	BYTE	W03
	BYTE		N06     As3 
	BYTE	W06
	BYTE		        Cn4 
	BYTE	W06
	BYTE		        Gn3 
	BYTE	W06
	BYTE		N03   
	BYTE	W03
	BYTE		        Fn3 
	BYTE	W03
	BYTE		N06     Ds3 
	BYTE	W12
	BYTE	PEND
// 033   ----------------------------------------
feb20211224165509_4_033:
	BYTE		N06     Gs3   v127
	BYTE	W12
	BYTE		N06   
	BYTE	W06
	BYTE		        As3 
	BYTE	W06
	BYTE		        Cn4 
	BYTE	W12
	BYTE		N06   
	BYTE	W06
	BYTE		        Ds4 
	BYTE	W06
	BYTE		N09     Gn4 
	BYTE	W09
	BYTE		N03     Fn4 
	BYTE	W03
	BYTE		N09     Ds4 
	BYTE	W12
	BYTE		        Cn4 
	BYTE	W12
	BYTE		        Ds4 
	BYTE	W12
	BYTE	PEND
// 034   ----------------------------------------
feb20211224165509_4_034:
	BYTE		N12     Fn4   v127
	BYTE	W12
	BYTE		N06     Cn4 
	BYTE	W06
	BYTE		        Ds4 
	BYTE	W06
	BYTE		        Fn4 
	BYTE	W12
	BYTE		        Cn4 
	BYTE	W12
	BYTE		        As3 
	BYTE	W12
	BYTE		N06   
	BYTE	W06
	BYTE		        Cn4 
	BYTE	W06
	BYTE		        As3 
	BYTE	W06
	BYTE		N03     Gs3 
	BYTE	W03
	BYTE		        Fn3 
	BYTE	W03
	BYTE		N06     Gs3 
	BYTE	W06
	BYTE		N03     Fn3 
	BYTE	W03
	BYTE		        Ds3 
	BYTE	W03
	BYTE	PEND
// 035   ----------------------------------------
feb20211224165509_4_035:
	BYTE		N06     Cn3   v127
	BYTE	W06
	BYTE		        Fn3 
	BYTE	W06
	BYTE		        Gs3 
	BYTE	W06
	BYTE		        As3 
	BYTE	W06
	BYTE		        Cn4 
	BYTE	W12
	BYTE		        Gs3 
	BYTE	W12
	BYTE		N03     As3 
	BYTE	W03
	BYTE		        Gs3 
	BYTE	W03
	BYTE		        Fn3 
	BYTE	W03
	BYTE		        Ds3 
	BYTE	W03
	BYTE		        As3 
	BYTE	W03
	BYTE		        Gs3 
	BYTE	W03
	BYTE		        Fn3 
	BYTE	W03
	BYTE		        Ds3 
	BYTE	W03
	BYTE		        Cn4 
	BYTE	W03
	BYTE		        As3 
	BYTE	W03
	BYTE		        Gs3 
	BYTE	W03
	BYTE		        Fn3 
	BYTE	W03
	BYTE		        Cn4 
	BYTE	W03
	BYTE		        As3 
	BYTE	W03
	BYTE		        Gs3 
	BYTE	W03
	BYTE		        Fn3 
	BYTE	W03
	BYTE	PEND
// 036   ----------------------------------------
	BYTE	PATT
	 POIN2	feb20211224165509_4_032
// 037   ----------------------------------------
	BYTE	PATT
	 POIN2	feb20211224165509_4_033
// 038   ----------------------------------------
	BYTE	PATT
	 POIN2	feb20211224165509_4_034
// 039   ----------------------------------------
	BYTE	PATT
	 POIN2	feb20211224165509_4_035
// 040   ----------------------------------------
	BYTE	PATT
	 POIN2	feb20211224165509_4_032
// 041   ----------------------------------------
	BYTE	PATT
	 POIN2	feb20211224165509_4_033
// 042   ----------------------------------------
	BYTE	PATT
	 POIN2	feb20211224165509_4_034
// 043   ----------------------------------------
	BYTE	PATT
	 POIN2	feb20211224165509_4_035
	BYTE	GoTo
	 POIN2	feb20211224165509_4_B1
feb20211224165509_4_B2:
// 044   ----------------------------------------
	BYTE		PAN     c_v+0
	BYTE		        c_v+0
	BYTE		        c_v+0
	BYTE		BEND    c_v+0
	BYTE	FINE

//**************** Track 5 (Midi-Chn.5) ****************//

feb20211224165509_5:
	BYTE	KEYSH   feb20211224165509_key+0
// 000   ----------------------------------------
	BYTE		VOICE   48
	BYTE		PAN     c_v+2
	BYTE		VOL     97*feb20211224165509_mvl/mxv
	BYTE		BEND    c_v+0
	BYTE	W96
// 001   ----------------------------------------
	BYTE	W96
// 002   ----------------------------------------
	BYTE	W96
// 003   ----------------------------------------
	BYTE	W96
// 004   ----------------------------------------
	BYTE	W96
// 005   ----------------------------------------
	BYTE	W96
// 006   ----------------------------------------
	BYTE	W96
// 007   ----------------------------------------
	BYTE	W96
// 008   ----------------------------------------
feb20211224165509_5_008:
	BYTE		N96     Fn2   v072
	BYTE		N96     Cn3 
	BYTE		N06     Gs3   v124
	BYTE	W12
	BYTE		N06   
	BYTE	W06
	BYTE		        As3 
	BYTE	W06
	BYTE		        Cn4 
	BYTE	W12
	BYTE		        Gs3 
	BYTE	W12
	BYTE		        As3 
	BYTE	W12
	BYTE		N06   
	BYTE	W06
	BYTE		        Cn4 
	BYTE	W06
	BYTE		        Gn3 
	BYTE	W12
	BYTE		        Ds3 
	BYTE	W12
	BYTE	PEND
// 009   ----------------------------------------
feb20211224165509_5_009:
	BYTE		N96     Gn2   v072
	BYTE		N48     Ds3 
	BYTE		N06     Gs3   v124
	BYTE	W12
	BYTE		N06   
	BYTE	W06
	BYTE		        As3 
	BYTE	W06
	BYTE		        Cn4 
	BYTE	W12
	BYTE		N12     Gs4 
	BYTE	W12
	BYTE		N48     Fn3   v072
	BYTE		N12     Gn4   v124
	BYTE	W12
	BYTE		        Ds4 
	BYTE	W12
	BYTE		        As3 
	BYTE	W12
	BYTE		        Gn3 
	BYTE	W12
	BYTE	PEND
// 010   ----------------------------------------
feb20211224165509_5_010:
	BYTE		N96     Gs2   v072
	BYTE		N84     Ds3 
	BYTE		N06     Gs3   v124
	BYTE	W12
	BYTE		N06   
	BYTE	W06
	BYTE		        As3 
	BYTE	W06
	BYTE		        Cn4 
	BYTE	W12
	BYTE		        Gs3 
	BYTE	W12
	BYTE		        As3 
	BYTE	W12
	BYTE		N06   
	BYTE	W06
	BYTE		        Cn4 
	BYTE	W06
	BYTE		        Gn3 
	BYTE	W12
	BYTE		        Ds3 
	BYTE	W12
	BYTE	PEND
// 011   ----------------------------------------
feb20211224165509_5_011:
	BYTE		N96     An2   v072
	BYTE		N96     En3 
	BYTE		N06     An3   v124
	BYTE	W12
	BYTE		N06   
	BYTE	W06
	BYTE		        As3 
	BYTE	W06
	BYTE		        Cn4 
	BYTE	W12
	BYTE		        Fn4   v120
	BYTE	W12
	BYTE		N12     En4 
	BYTE	W12
	BYTE		        Gn4 
	BYTE	W12
	BYTE		N24     Fn4 
	BYTE	W24
	BYTE	PEND
// 012   ----------------------------------------
	BYTE	PATT
	 POIN2	feb20211224165509_5_008
// 013   ----------------------------------------
	BYTE	PATT
	 POIN2	feb20211224165509_5_009
// 014   ----------------------------------------
	BYTE	PATT
	 POIN2	feb20211224165509_5_010
// 015   ----------------------------------------
	BYTE	PATT
	 POIN2	feb20211224165509_5_011
// 016   ----------------------------------------
	BYTE	W96
// 017   ----------------------------------------
	BYTE	W96
// 018   ----------------------------------------
	BYTE	W96
// 019   ----------------------------------------
	BYTE	W96
// 020   ----------------------------------------
	BYTE		N06     Cn4   v080
	BYTE		N06     Gs4 
	BYTE	W12
	BYTE		        As3 
	BYTE		N06     Gn4 
	BYTE	W12
	BYTE		        Gs3 
	BYTE		N06     Fn4 
	BYTE	W12
	BYTE		        Gn3 
	BYTE		N06     Ds4 
	BYTE	W12
	BYTE		        Fn3 
	BYTE		N06     Cn4 
	BYTE	W12
	BYTE		        Ds3 
	BYTE		N06     As3 
	BYTE	W06
	BYTE		        Fn3 
	BYTE		N06     Cn4 
	BYTE	W12
	BYTE		        Ds3 
	BYTE		N06     As3 
	BYTE	W06
	BYTE		N06   
	BYTE		N06     Fn4 
	BYTE	W12
// 021   ----------------------------------------
	BYTE		        Gs3 
	BYTE		N06     Ds4 
	BYTE	W12
	BYTE		        Cn4 
	BYTE		N06     Gs4 
	BYTE	W12
	BYTE		        As3 
	BYTE		N06     Gn4 
	BYTE	W12
	BYTE		        Fn3 
	BYTE		N06     Cn4 
	BYTE	W12
	BYTE		        Gn3 
	BYTE		N06     Ds4 
	BYTE	W12
	BYTE		        Fn3 
	BYTE		N06     Cn4 
	BYTE	W06
	BYTE		        Gn3 
	BYTE		N06     Ds4 
	BYTE	W12
	BYTE		        Fn3 
	BYTE		N06     Cn4 
	BYTE	W06
	BYTE		        As3 
	BYTE		N06     Fn4 
	BYTE	W12
// 022   ----------------------------------------
	BYTE		        Fn3 
	BYTE		N06     Cn4 
	BYTE	W12
	BYTE		        As3 
	BYTE		N06     Gn4 
	BYTE	W12
	BYTE		        Gs3 
	BYTE		N06     Fn4 
	BYTE	W12
	BYTE		        Fn3 
	BYTE		N06     Cn4 
	BYTE	W12
	BYTE		        Gn3 
	BYTE		N06     Ds4 
	BYTE	W12
	BYTE		        Fn3 
	BYTE		N06     Cn4 
	BYTE	W06
	BYTE		        Gn3 
	BYTE		N06     Ds4 
	BYTE	W12
	BYTE		        Fn3 
	BYTE		N06     Cn4 
	BYTE	W06
	BYTE		        As3 
	BYTE		N06     Fn4 
	BYTE	W12
// 023   ----------------------------------------
	BYTE	W96
feb20211224165509_5_B1:
// 024   ----------------------------------------
feb20211224165509_5_024:
	BYTE		N72     As2   v072
	BYTE		N72     Fn3 
	BYTE		N72     Gs3 
	BYTE	W72
	BYTE		N24     Cn3 
	BYTE		N24     Gn3 
	BYTE		N24     As3 
	BYTE	W24
	BYTE	PEND
// 025   ----------------------------------------
feb20211224165509_5_025:
	BYTE		N96     Ds3   v072
	BYTE		N96     Gs3 
	BYTE		N96     Cn4 
	BYTE	W96
	BYTE	PEND
// 026   ----------------------------------------
feb20211224165509_5_026:
	BYTE		N72     Cs3   v072
	BYTE		N72     Fn3 
	BYTE		N72     As3 
	BYTE	W72
	BYTE		N24     Cn3 
	BYTE		N24     Ds3 
	BYTE		N24     Gs3 
	BYTE	W24
	BYTE	PEND
// 027   ----------------------------------------
feb20211224165509_5_027:
	BYTE		N48     Cs3   v072
	BYTE		N48     Fn3 
	BYTE		N48     As3 
	BYTE	W48
	BYTE		        Ds3 
	BYTE		N48     Gn3 
	BYTE		N48     Cn4 
	BYTE	W48
	BYTE	PEND
// 028   ----------------------------------------
	BYTE	PATT
	 POIN2	feb20211224165509_5_024
// 029   ----------------------------------------
feb20211224165509_5_029:
	BYTE		N48     Ds3   v072
	BYTE		N48     Gs3 
	BYTE		N48     Cn4 
	BYTE	W48
	BYTE		N24     Ds3 
	BYTE		N24     Gs3 
	BYTE		N24     Cs4 
	BYTE	W24
	BYTE		        Ds3 
	BYTE		N24     As3 
	BYTE		N24     Ds4 
	BYTE	W24
	BYTE	PEND
// 030   ----------------------------------------
feb20211224165509_5_030:
	BYTE		N48     Fn3   v072
	BYTE		N48     Cn4 
	BYTE		N48     Fn4 
	BYTE	W48
	BYTE		N24     Cn3 
	BYTE		N24     Fn3 
	BYTE		N24     As3 
	BYTE	W24
	BYTE		        As2 
	BYTE		N24     Ds3 
	BYTE		N24     Gs3 
	BYTE	W24
	BYTE	PEND
// 031   ----------------------------------------
feb20211224165509_5_031:
	BYTE		N48     Cn3   v072
	BYTE		N48     Fn3 
	BYTE		N48     As3 
	BYTE	W48
	BYTE		        Ds3 
	BYTE		N48     Gn3 
	BYTE		N48     Cn4 
	BYTE	W48
	BYTE	PEND
// 032   ----------------------------------------
	BYTE	PATT
	 POIN2	feb20211224165509_5_024
// 033   ----------------------------------------
	BYTE	PATT
	 POIN2	feb20211224165509_5_025
// 034   ----------------------------------------
	BYTE	PATT
	 POIN2	feb20211224165509_5_026
// 035   ----------------------------------------
	BYTE	PATT
	 POIN2	feb20211224165509_5_027
// 036   ----------------------------------------
	BYTE	PATT
	 POIN2	feb20211224165509_5_024
// 037   ----------------------------------------
	BYTE	PATT
	 POIN2	feb20211224165509_5_029
// 038   ----------------------------------------
	BYTE	PATT
	 POIN2	feb20211224165509_5_030
// 039   ----------------------------------------
	BYTE	PATT
	 POIN2	feb20211224165509_5_031
// 040   ----------------------------------------
	BYTE	PATT
	 POIN2	feb20211224165509_5_024
// 041   ----------------------------------------
	BYTE	PATT
	 POIN2	feb20211224165509_5_029
// 042   ----------------------------------------
	BYTE	PATT
	 POIN2	feb20211224165509_5_030
// 043   ----------------------------------------
	BYTE	PATT
	 POIN2	feb20211224165509_5_031
	BYTE	GoTo
	 POIN2	feb20211224165509_5_B1
feb20211224165509_5_B2:
// 044   ----------------------------------------
	BYTE		BEND    c_v+0
	BYTE	FINE

//**************** Track 6 (Midi-Chn.6) ****************//

feb20211224165509_6:
	BYTE	KEYSH   feb20211224165509_key+0
// 000   ----------------------------------------
	BYTE		VOICE   57
	BYTE		VOL     127*feb20211224165509_mvl/mxv
	BYTE		PAN     c_v+0
	BYTE		        c_v+0
	BYTE		        c_v+0
	BYTE		        c_v+0
	BYTE		BEND    c_v+0
	BYTE	W96
// 001   ----------------------------------------
	BYTE	W96
// 002   ----------------------------------------
	BYTE	W96
// 003   ----------------------------------------
	BYTE	W96
// 004   ----------------------------------------
	BYTE	W96
// 005   ----------------------------------------
	BYTE	W96
// 006   ----------------------------------------
	BYTE	W96
// 007   ----------------------------------------
	BYTE	W96
// 008   ----------------------------------------
	BYTE	W96
// 009   ----------------------------------------
	BYTE	W96
// 010   ----------------------------------------
	BYTE	W96
// 011   ----------------------------------------
	BYTE	W96
// 012   ----------------------------------------
	BYTE	W96
// 013   ----------------------------------------
	BYTE	W96
// 014   ----------------------------------------
	BYTE	W96
// 015   ----------------------------------------
	BYTE	W96
// 016   ----------------------------------------
feb20211224165509_6_016:
	BYTE	W24
	BYTE		N24     Fn3   v127
	BYTE	W24
	BYTE		        Gs3 
	BYTE	W24
	BYTE		        Cn4 
	BYTE	W24
	BYTE	PEND
// 017   ----------------------------------------
	BYTE		N48     As3 
	BYTE	W48
	BYTE		N24     Gn3 
	BYTE	W24
	BYTE		        Ds3 
	BYTE	W24
// 018   ----------------------------------------
	BYTE		N96     Fn3 
	BYTE	W96
// 019   ----------------------------------------
	BYTE		        An3 
	BYTE	W96
// 020   ----------------------------------------
	BYTE	PATT
	 POIN2	feb20211224165509_6_016
// 021   ----------------------------------------
	BYTE		N48     Ds4   v127
	BYTE	W48
	BYTE		N24     As3 
	BYTE	W24
	BYTE		        Gn3 
	BYTE	W24
// 022   ----------------------------------------
	BYTE		N96     Gs3 
	BYTE	W96
// 023   ----------------------------------------
	BYTE		        An3   v064
	BYTE	W96
feb20211224165509_6_B1:
// 024   ----------------------------------------
feb20211224165509_6_024:
	BYTE		N72     Gs3   v068
	BYTE	W72
	BYTE		N24     As3 
	BYTE	W24
	BYTE	PEND
// 025   ----------------------------------------
	BYTE		N96     Cn4 
	BYTE	W96
// 026   ----------------------------------------
feb20211224165509_6_026:
	BYTE		N72     As3   v068
	BYTE	W72
	BYTE		N24     Gs3 
	BYTE	W24
	BYTE	PEND
// 027   ----------------------------------------
feb20211224165509_6_027:
	BYTE		N48     As3   v068
	BYTE	W48
	BYTE		        Gn3 
	BYTE	W48
	BYTE	PEND
// 028   ----------------------------------------
	BYTE	PATT
	 POIN2	feb20211224165509_6_024
// 029   ----------------------------------------
feb20211224165509_6_029:
	BYTE		N48     Cn4   v068
	BYTE	W48
	BYTE		N24     Cs4 
	BYTE	W24
	BYTE		        Ds4 
	BYTE	W24
	BYTE	PEND
// 030   ----------------------------------------
feb20211224165509_6_030:
	BYTE		N48     Fn4   v068
	BYTE	W48
	BYTE		N24     As3 
	BYTE	W24
	BYTE		        Gs3 
	BYTE	W24
	BYTE	PEND
// 031   ----------------------------------------
feb20211224165509_6_031:
	BYTE		N48     As3   v068
	BYTE	W48
	BYTE		        Cn4 
	BYTE	W48
	BYTE	PEND
// 032   ----------------------------------------
	BYTE	PATT
	 POIN2	feb20211224165509_6_024
// 033   ----------------------------------------
	BYTE		N96     Cn4   v068
	BYTE	W96
// 034   ----------------------------------------
	BYTE	PATT
	 POIN2	feb20211224165509_6_026
// 035   ----------------------------------------
	BYTE	PATT
	 POIN2	feb20211224165509_6_027
// 036   ----------------------------------------
	BYTE	PATT
	 POIN2	feb20211224165509_6_024
// 037   ----------------------------------------
	BYTE	PATT
	 POIN2	feb20211224165509_6_029
// 038   ----------------------------------------
	BYTE	PATT
	 POIN2	feb20211224165509_6_030
// 039   ----------------------------------------
	BYTE	PATT
	 POIN2	feb20211224165509_6_031
// 040   ----------------------------------------
	BYTE	PATT
	 POIN2	feb20211224165509_6_024
// 041   ----------------------------------------
	BYTE	PATT
	 POIN2	feb20211224165509_6_029
// 042   ----------------------------------------
	BYTE	PATT
	 POIN2	feb20211224165509_6_030
// 043   ----------------------------------------
	BYTE	PATT
	 POIN2	feb20211224165509_6_031
	BYTE	GoTo
	 POIN2	feb20211224165509_6_B1
feb20211224165509_6_B2:
// 044   ----------------------------------------
	BYTE		PAN     c_v+0
	BYTE		        c_v+0
	BYTE		        c_v+0
	BYTE		BEND    c_v+0
	BYTE	FINE

//**************** Track 7 (Midi-Chn.7) ****************//

feb20211224165509_7:
	BYTE	KEYSH   feb20211224165509_key+0
// 000   ----------------------------------------
	BYTE		VOICE   8
	BYTE		VOL     94*feb20211224165509_mvl/mxv
	BYTE		PAN     c_v+3
	BYTE		BEND    c_v+0
	BYTE	W96
// 001   ----------------------------------------
	BYTE	W96
// 002   ----------------------------------------
	BYTE	W96
// 003   ----------------------------------------
	BYTE	W96
// 004   ----------------------------------------
	BYTE	W96
// 005   ----------------------------------------
	BYTE	W96
// 006   ----------------------------------------
	BYTE	W96
// 007   ----------------------------------------
	BYTE	W96
// 008   ----------------------------------------
	BYTE	W96
// 009   ----------------------------------------
	BYTE	W96
// 010   ----------------------------------------
	BYTE	W96
// 011   ----------------------------------------
	BYTE	W96
// 012   ----------------------------------------
	BYTE	W96
// 013   ----------------------------------------
	BYTE	W96
// 014   ----------------------------------------
	BYTE	W96
// 015   ----------------------------------------
	BYTE	W96
// 016   ----------------------------------------
	BYTE		N06     Cn5   v068
	BYTE	W06
	BYTE		        Cn5   v048
	BYTE	W06
	BYTE		        Fn5   v068
	BYTE	W06
	BYTE		        Fn5   v048
	BYTE	W06
	BYTE		        Ds5   v068
	BYTE	W06
	BYTE		        Ds5   v048
	BYTE	W06
	BYTE		        Fn5   v068
	BYTE	W06
	BYTE		        Fn5   v048
	BYTE	W06
	BYTE		        Cn5   v068
	BYTE	W06
	BYTE		        Cn5   v048
	BYTE	W06
	BYTE		        Gs5   v068
	BYTE	W06
	BYTE		        Gs5   v048
	BYTE	W06
	BYTE		        As5   v068
	BYTE	W06
	BYTE		        As5   v048
	BYTE	W06
	BYTE		        Fn5   v068
	BYTE	W06
	BYTE		        Fn5   v048
	BYTE	W06
// 017   ----------------------------------------
	BYTE		        Ds5   v068
	BYTE	W06
	BYTE		        Ds5   v048
	BYTE	W06
	BYTE		        Gs5   v068
	BYTE	W06
	BYTE		        Gs5   v048
	BYTE	W06
	BYTE		        Gn5   v068
	BYTE	W06
	BYTE		        Gn5   v048
	BYTE	W06
	BYTE		        Gs5   v068
	BYTE	W06
	BYTE		        Gs5   v048
	BYTE	W06
	BYTE		        Cn5   v068
	BYTE	W06
	BYTE		        Cn5   v048
	BYTE	W06
	BYTE		        Cn5   v068
	BYTE	W06
	BYTE		N06   
	BYTE	W06
	BYTE		        Cn5   v048
	BYTE	W06
	BYTE		N06   
	BYTE	W06
	BYTE		        Fn5   v068
	BYTE	W06
	BYTE		        Fn5   v048
	BYTE	W06
// 018   ----------------------------------------
	BYTE		        Cn5   v068
	BYTE	W06
	BYTE		        Cn5   v048
	BYTE	W06
	BYTE		        Cn6   v068
	BYTE	W06
	BYTE		        Cn6   v048
	BYTE	W06
	BYTE		        As5   v068
	BYTE	W06
	BYTE		        As5   v048
	BYTE	W06
	BYTE		        Cn6   v068
	BYTE	W06
	BYTE		        Cn6   v048
	BYTE	W06
	BYTE		        Fn5   v068
	BYTE	W06
	BYTE		        Fn5   v048
	BYTE	W06
	BYTE		        Ds5   v068
	BYTE	W06
	BYTE		        Fn5 
	BYTE	W06
	BYTE		        Fn5   v048
	BYTE	W06
	BYTE		        Ds5   v068
	BYTE	W06
	BYTE		        Gs5 
	BYTE	W06
	BYTE		        Gs5   v048
	BYTE	W06
// 019   ----------------------------------------
	BYTE		        Fn5   v068
	BYTE	W06
	BYTE		        Fn5   v048
	BYTE	W06
	BYTE		        Gs5   v068
	BYTE	W06
	BYTE		        Gs5   v048
	BYTE	W06
	BYTE		        Gn5   v068
	BYTE	W06
	BYTE		        Gn5   v048
	BYTE	W06
	BYTE		        Ds5   v068
	BYTE	W06
	BYTE		        Ds5   v048
	BYTE	W06
	BYTE		        Cn5   v068
	BYTE	W06
	BYTE		        Cn5   v048
	BYTE	W06
	BYTE		        Cn5   v068
	BYTE	W06
	BYTE		N06   
	BYTE	W06
	BYTE		        Cn5   v048
	BYTE	W06
	BYTE		N06   
	BYTE	W06
	BYTE		        Fn5   v068
	BYTE	W06
	BYTE		        Fn5   v048
	BYTE	W06
// 020   ----------------------------------------
	BYTE		        An5   v068
	BYTE	W06
	BYTE		        An5   v048
	BYTE	W06
	BYTE		        Gn5   v068
	BYTE	W06
	BYTE		        Gn5   v048
	BYTE	W06
	BYTE		        Fn5   v068
	BYTE	W06
	BYTE		        Fn5   v048
	BYTE	W06
	BYTE		        Ds5   v068
	BYTE	W06
	BYTE		        Ds5   v048
	BYTE	W06
	BYTE		        Cn5   v068
	BYTE	W06
	BYTE		        Cn5   v048
	BYTE	W06
	BYTE		        As4   v068
	BYTE	W06
	BYTE		        Cn5 
	BYTE	W06
	BYTE		        Cn5   v048
	BYTE	W06
	BYTE		        As4   v068
	BYTE	W06
	BYTE		        Fn5 
	BYTE	W06
	BYTE		        Fn5   v048
	BYTE	W06
// 021   ----------------------------------------
	BYTE		        Ds5   v068
	BYTE	W06
	BYTE		        Ds5   v048
	BYTE	W06
	BYTE		        Gs5   v068
	BYTE	W06
	BYTE		        Gs5   v048
	BYTE	W06
	BYTE		        Gn5   v068
	BYTE	W06
	BYTE		        Gn5   v048
	BYTE	W06
	BYTE		        Cn5   v068
	BYTE	W06
	BYTE		        Cn5   v048
	BYTE	W06
	BYTE		        Ds5   v068
	BYTE	W06
	BYTE		        Ds5   v048
	BYTE	W06
	BYTE		        Cn5   v068
	BYTE	W06
	BYTE		        Ds5 
	BYTE	W06
	BYTE		        Ds5   v048
	BYTE	W06
	BYTE		        Cn5   v068
	BYTE	W06
	BYTE		        Fn5 
	BYTE	W06
	BYTE		        Fn5   v048
	BYTE	W06
// 022   ----------------------------------------
	BYTE		        Cn5   v068
	BYTE	W06
	BYTE		        Cn5   v048
	BYTE	W06
	BYTE		        Gn5   v068
	BYTE	W06
	BYTE		        Gn5   v048
	BYTE	W06
	BYTE		        Fn5   v068
	BYTE	W06
	BYTE		        Fn5   v048
	BYTE	W06
	BYTE		        Cn5   v068
	BYTE	W06
	BYTE		        Cn5   v048
	BYTE	W06
	BYTE		        Ds5   v068
	BYTE	W06
	BYTE		        Ds5   v048
	BYTE	W06
	BYTE		        Cn5   v068
	BYTE	W06
	BYTE		        Ds5 
	BYTE	W06
	BYTE		        Ds5   v048
	BYTE	W06
	BYTE		        Cn5   v068
	BYTE	W06
	BYTE		        Fn5 
	BYTE	W06
	BYTE		        Fn5   v048
	BYTE	W06
// 023   ----------------------------------------
	BYTE	W96
feb20211224165509_7_B1:
// 024   ----------------------------------------
	BYTE	W96
// 025   ----------------------------------------
	BYTE	W96
// 026   ----------------------------------------
	BYTE	W96
// 027   ----------------------------------------
	BYTE	W96
// 028   ----------------------------------------
	BYTE	W96
// 029   ----------------------------------------
	BYTE	W96
// 030   ----------------------------------------
	BYTE	W96
// 031   ----------------------------------------
	BYTE	W96
// 032   ----------------------------------------
	BYTE	W96
// 033   ----------------------------------------
	BYTE	W96
// 034   ----------------------------------------
	BYTE	W96
// 035   ----------------------------------------
	BYTE	W96
// 036   ----------------------------------------
	BYTE	W96
// 037   ----------------------------------------
	BYTE	W96
// 038   ----------------------------------------
	BYTE	W96
// 039   ----------------------------------------
	BYTE	W96
// 040   ----------------------------------------
	BYTE	W96
// 041   ----------------------------------------
	BYTE	W96
// 042   ----------------------------------------
	BYTE	W96
// 043   ----------------------------------------
	BYTE	W96
	BYTE	GoTo
	 POIN2	feb20211224165509_7_B1
feb20211224165509_7_B2:
// 044   ----------------------------------------
	BYTE		BEND    c_v+0
	BYTE	FINE

//**************** Track 8 (Midi-Chn.8) ****************//

feb20211224165509_8:
	BYTE	KEYSH   feb20211224165509_key+0
// 000   ----------------------------------------
	BYTE		VOICE   124
	BYTE		VOL     97*feb20211224165509_mvl/mxv
	BYTE		PAN     c_v+0
	BYTE		        c_v+0
	BYTE		        c_v+0
	BYTE		        c_v+0
	BYTE		BEND    c_v+0
	BYTE	W96
// 001   ----------------------------------------
	BYTE	W96
// 002   ----------------------------------------
	BYTE	W96
// 003   ----------------------------------------
	BYTE	W96
// 004   ----------------------------------------
	BYTE	W96
// 005   ----------------------------------------
	BYTE	W96
// 006   ----------------------------------------
	BYTE	W96
// 007   ----------------------------------------
	BYTE	W96
// 008   ----------------------------------------
feb20211224165509_8_008:
	BYTE		N06     Cn1   v108
	BYTE		N06     As1   v104
	BYTE	W06
	BYTE		N06   
	BYTE	W06
	BYTE		        Dn1   v108
	BYTE		N06     As1   v104
	BYTE	W06
	BYTE		        Cn1   v108
	BYTE		N06     As1   v104
	BYTE	W06
	BYTE		        Cn1   v108
	BYTE		N06     As1   v104
	BYTE	W06
	BYTE		        Dn1   v108
	BYTE		N06     As1   v104
	BYTE	W06
	BYTE		        Cn1   v108
	BYTE		N06     As1   v104
	BYTE	W06
	BYTE		        Cn1   v108
	BYTE		N06     As1   v104
	BYTE	W06
	BYTE		        Cn1   v108
	BYTE		N06     As1   v104
	BYTE	W06
	BYTE		N06   
	BYTE	W06
	BYTE		        Dn1   v108
	BYTE		N06     As1   v104
	BYTE	W06
	BYTE		        Cn1   v108
	BYTE		N06     As1   v104
	BYTE	W06
	BYTE		        Cn1   v108
	BYTE		N06     As1   v104
	BYTE	W06
	BYTE		        Dn1   v108
	BYTE		N06     As1   v104
	BYTE	W06
	BYTE		        Cn1   v108
	BYTE		N06     As1   v104
	BYTE	W06
	BYTE		        Cn1   v108
	BYTE		N06     As1   v104
	BYTE	W06
	BYTE	PEND
// 009   ----------------------------------------
	BYTE	PATT
	 POIN2	feb20211224165509_8_008
// 010   ----------------------------------------
	BYTE	PATT
	 POIN2	feb20211224165509_8_008
// 011   ----------------------------------------
	BYTE	PATT
	 POIN2	feb20211224165509_8_008
// 012   ----------------------------------------
	BYTE	PATT
	 POIN2	feb20211224165509_8_008
// 013   ----------------------------------------
	BYTE	PATT
	 POIN2	feb20211224165509_8_008
// 014   ----------------------------------------
	BYTE	PATT
	 POIN2	feb20211224165509_8_008
// 015   ----------------------------------------
	BYTE	PATT
	 POIN2	feb20211224165509_8_008
// 016   ----------------------------------------
	BYTE	PATT
	 POIN2	feb20211224165509_8_008
// 017   ----------------------------------------
	BYTE	PATT
	 POIN2	feb20211224165509_8_008
// 018   ----------------------------------------
	BYTE	PATT
	 POIN2	feb20211224165509_8_008
// 019   ----------------------------------------
	BYTE	PATT
	 POIN2	feb20211224165509_8_008
// 020   ----------------------------------------
	BYTE	PATT
	 POIN2	feb20211224165509_8_008
// 021   ----------------------------------------
	BYTE	PATT
	 POIN2	feb20211224165509_8_008
// 022   ----------------------------------------
	BYTE	PATT
	 POIN2	feb20211224165509_8_008
// 023   ----------------------------------------
	BYTE	W96
feb20211224165509_8_B1:
// 024   ----------------------------------------
feb20211224165509_8_024:
	BYTE		N06     Cn1   v108
	BYTE		N06     As1   v104
	BYTE	W06
	BYTE		N06   
	BYTE	W06
	BYTE		        Dn1   v108
	BYTE		N06     As1   v104
	BYTE	W06
	BYTE		N06   
	BYTE	W06
	BYTE		        Cn1   v108
	BYTE		N06     As1   v104
	BYTE	W06
	BYTE		N06   
	BYTE	W06
	BYTE		        Dn1   v108
	BYTE		N06     As1   v104
	BYTE	W06
	BYTE		N06   
	BYTE	W06
	BYTE		        Cn1   v108
	BYTE		N06     As1   v104
	BYTE	W06
	BYTE		N06   
	BYTE	W06
	BYTE		        Dn1   v108
	BYTE		N06     As1   v104
	BYTE	W06
	BYTE		N06   
	BYTE	W06
	BYTE		        Cn1   v108
	BYTE		N06     As1   v104
	BYTE	W06
	BYTE		N06   
	BYTE	W06
	BYTE		        Dn1   v108
	BYTE		N06     As1   v104
	BYTE	W06
	BYTE		        Cn1   v108
	BYTE		N06     As1   v104
	BYTE	W06
	BYTE	PEND
// 025   ----------------------------------------
	BYTE	PATT
	 POIN2	feb20211224165509_8_024
// 026   ----------------------------------------
	BYTE	PATT
	 POIN2	feb20211224165509_8_024
// 027   ----------------------------------------
	BYTE	PATT
	 POIN2	feb20211224165509_8_024
// 028   ----------------------------------------
	BYTE	PATT
	 POIN2	feb20211224165509_8_024
// 029   ----------------------------------------
	BYTE	PATT
	 POIN2	feb20211224165509_8_024
// 030   ----------------------------------------
	BYTE	PATT
	 POIN2	feb20211224165509_8_024
// 031   ----------------------------------------
	BYTE	PATT
	 POIN2	feb20211224165509_8_024
// 032   ----------------------------------------
	BYTE	PATT
	 POIN2	feb20211224165509_8_024
// 033   ----------------------------------------
	BYTE	PATT
	 POIN2	feb20211224165509_8_024
// 034   ----------------------------------------
	BYTE	PATT
	 POIN2	feb20211224165509_8_024
// 035   ----------------------------------------
	BYTE	PATT
	 POIN2	feb20211224165509_8_024
// 036   ----------------------------------------
	BYTE	PATT
	 POIN2	feb20211224165509_8_024
// 037   ----------------------------------------
	BYTE	PATT
	 POIN2	feb20211224165509_8_024
// 038   ----------------------------------------
	BYTE	PATT
	 POIN2	feb20211224165509_8_024
// 039   ----------------------------------------
	BYTE	PATT
	 POIN2	feb20211224165509_8_024
// 040   ----------------------------------------
	BYTE	PATT
	 POIN2	feb20211224165509_8_024
// 041   ----------------------------------------
	BYTE	PATT
	 POIN2	feb20211224165509_8_024
// 042   ----------------------------------------
	BYTE	PATT
	 POIN2	feb20211224165509_8_024
// 043   ----------------------------------------
	BYTE	PATT
	 POIN2	feb20211224165509_8_024
	BYTE	GoTo
	 POIN2	feb20211224165509_8_B1
feb20211224165509_8_B2:
// 044   ----------------------------------------
	BYTE		PAN     c_v+0
	BYTE		        c_v+0
	BYTE		        c_v+0
	BYTE		BEND    c_v+0
	BYTE	FINE

//**************** Track 9 (Midi-Chn.9) ****************//

feb20211224165509_9:
	BYTE		VOL     127*feb20211224165509_mvl/mxv
	BYTE	KEYSH   feb20211224165509_key+0
// 000   ----------------------------------------
	BYTE		VOICE   73
	BYTE	W96
// 001   ----------------------------------------
	BYTE	W96
// 002   ----------------------------------------
	BYTE	W96
// 003   ----------------------------------------
	BYTE	W96
// 004   ----------------------------------------
	BYTE	W96
// 005   ----------------------------------------
	BYTE	W96
// 006   ----------------------------------------
	BYTE	W96
// 007   ----------------------------------------
	BYTE	W96
// 008   ----------------------------------------
	BYTE	W96
// 009   ----------------------------------------
	BYTE	W96
// 010   ----------------------------------------
	BYTE	W96
// 011   ----------------------------------------
	BYTE	W96
// 012   ----------------------------------------
	BYTE	W96
// 013   ----------------------------------------
	BYTE	W96
// 014   ----------------------------------------
	BYTE	W96
// 015   ----------------------------------------
	BYTE	W96
// 016   ----------------------------------------
	BYTE	W96
// 017   ----------------------------------------
	BYTE	W96
// 018   ----------------------------------------
	BYTE	W96
// 019   ----------------------------------------
	BYTE	W96
// 020   ----------------------------------------
	BYTE	W96
// 021   ----------------------------------------
	BYTE	W96
// 022   ----------------------------------------
	BYTE	W96
// 023   ----------------------------------------
	BYTE		N06     An4   v112
	BYTE	W12
	BYTE		N06   
	BYTE	W06
	BYTE		        As4 
	BYTE	W06
	BYTE		        Cn5 
	BYTE	W12
	BYTE		        Fn5 
	BYTE	W12
	BYTE		N24     Dn5 
	BYTE	W24
	BYTE		N03     Cn5 
	BYTE	W06
	BYTE		N03   
	BYTE	W06
	BYTE		N03   
	BYTE	W06
	BYTE		N03   
	BYTE	W06
feb20211224165509_9_B1:
// 024   ----------------------------------------
	BYTE	W96
// 025   ----------------------------------------
	BYTE	W96
// 026   ----------------------------------------
	BYTE	W96
// 027   ----------------------------------------
	BYTE	W96
// 028   ----------------------------------------
	BYTE	W96
// 029   ----------------------------------------
	BYTE	W96
// 030   ----------------------------------------
	BYTE	W96
// 031   ----------------------------------------
	BYTE	W96
// 032   ----------------------------------------
	BYTE	W96
// 033   ----------------------------------------
	BYTE	W96
// 034   ----------------------------------------
	BYTE	W96
// 035   ----------------------------------------
	BYTE	W96
// 036   ----------------------------------------
	BYTE	W96
// 037   ----------------------------------------
	BYTE	W96
// 038   ----------------------------------------
	BYTE	W96
// 039   ----------------------------------------
	BYTE	W96
// 040   ----------------------------------------
	BYTE	W96
// 041   ----------------------------------------
	BYTE	W96
// 042   ----------------------------------------
	BYTE	W96
// 043   ----------------------------------------
	BYTE	W96
	BYTE	GoTo
	 POIN2	feb20211224165509_9_B1
feb20211224165509_9_B2:
// 044   ----------------------------------------
	BYTE	FINE

//******************************************************//
	ALIGN 4

feb20211224165509:
	BYTE	9	// NumTrks
	BYTE	0	// NumBlks
	BYTE	feb20211224165509_pri	// Priority
	BYTE	feb20211224165509_rev	// Reverb.

	POIN2	feb20211224165509_grp

	POIN2	feb20211224165509_1
	POIN2	feb20211224165509_2
	POIN2	feb20211224165509_3
	POIN2	feb20211224165509_4
	POIN2	feb20211224165509_5
	POIN2	feb20211224165509_6
	POIN2	feb20211224165509_7
	POIN2	feb20211224165509_8
	POIN2	feb20211224165509_9

	
